<svg id="Nizy_bochonki" data-name="Nizy bochonki" xmlns="http://www.w3.org/2000/svg" viewBox="0 0 672 960">
    <g id="Midi_Bochonok" data-name="Midi Bochonok">
        <g id="Kashkorse_img" data-name="Kashkorse img">
            <path class="outline"
                d="M499.17,501.59h1.91a25.06,25.06,0,0,1,.32,3.23q-.12,6.46-.4,12.94c-.22,5-.68,5.64-5.15,7.75a23.21,23.21,0,0,1-9.05,2.09c-4.39.17-8.79.35-13.18.35s-8.79-.25-13.18-.36c-7.19-.18-14.38-.59-21.57-.45-9.1.18-18.21.64-27.29,1.3-13.64,1-27.31,1.19-41,1.5q-7.44.16-14.86.53a184.24,184.24,0,0,1-30.89-1.14c-4.42-.53-8.77-1.7-13.16-2.57-1.7-.33-3.42-.56-5.11-1a3.9,3.9,0,0,1-1.8-1,4.62,4.62,0,0,1-1.06-1.85c-2.49-8-5-16-7.58-24.52a32,32,0,0,1,3.45.77,39.22,39.22,0,0,0,13.91,2,49.49,49.49,0,0,1,10.46,1,39.47,39.47,0,0,0,12.13.51c5.4-.62,10.81-1,16.22-1.55,6.28-.6,12.55-1.38,18.85-1.76,5.26-.32,10.54-.21,15.82-.22,7.35,0,14.7,0,22.06.08,1.75,0,3.49.29,5.24.3,5.51,0,11,0,16.54,0,1.19,0,2.39-.16,3.58-.21,5-.2,10.06-.32,15.09-.57,4.3-.22,8.6-.8,12.9-.81a91.42,91.42,0,0,1,11.92.89,85.35,85.35,0,0,1,8.4,1.88l-1.77.55c-3.48-.32-6.91-1.37-10.46-.59a5.77,5.77,0,0,1-1.41-.14,46.51,46.51,0,0,0-5-.28c-7.09.27-14.18.68-21.28.92-2.71.1-5.42-.18-8.14-.21-8.3-.08-16.62,0-24.92-.19-13.34-.23-26.67-1.12-40,.09-7.15.65-14.3,1.39-21.45,2.14-4,.41-7.92.92-11.88,1.38-6.79,0-13.59,0-20.38,0a8.75,8.75,0,0,1-3.3-.32,30.21,30.21,0,0,0-7.42-1.73A28.07,28.07,0,0,1,301,501a19.36,19.36,0,0,1-2.13-1.15c.59,2.14,1,3.81,1.51,5.45q2.37,7.41,4.82,14.81a5,5,0,0,0,3.58,3.55A106.17,106.17,0,0,0,325,527a201,201,0,0,0,28.5,1.06c7.43-.24,14.85-.61,22.28-.82,8.78-.26,17.57-.34,26.35-.64,6.3-.21,12.6-.7,18.9-1,7-.33,14-.68,21.06-.8,4.39-.08,8.78.27,13.17.42,5.43.18,10.86.52,16.29.5,5.59,0,11.18-.3,16.76-.6A23.71,23.71,0,0,0,499,521.66c0-5.66,0-11.4,0-17.15,0-1.46-.37-1.77-1.83-2-.5-.07-1-.1-1.66-.15Z" />
            <path class="color-shadow-dark"
                d="M499.17,501.59l-3.64.8c.66.05,1.16.08,1.66.15,1.46.2,1.82.51,1.83,2,0,5.75,0,11.49,0,17.15a23.71,23.71,0,0,1-10.78,3.48c-5.58.3-11.17.59-16.76.6-5.43,0-10.86-.32-16.29-.5-4.39-.15-8.78-.5-13.17-.42-7,.12-14.05.47-21.06.8-6.3.28-12.6.77-18.9,1-8.78.3-17.57.38-26.35.64-7.43.21-14.85.58-22.28.82A201,201,0,0,1,325,527a106.17,106.17,0,0,1-16.17-3.33,5,5,0,0,1-3.58-3.55q-2.44-7.39-4.82-14.81c-.52-1.64-.92-3.31-1.51-5.45A19.36,19.36,0,0,0,301,501a28.07,28.07,0,0,0,4.32,1.28,30.21,30.21,0,0,1,7.42,1.73,8.75,8.75,0,0,0,3.3.32c6.79,0,13.59,0,20.38,0,0,1-.78,1-1.52,1.06-4.07.56-8.13,1.24-12.21,1.74a40.3,40.3,0,0,1-7.81.54,89.15,89.15,0,0,1-9.1-1.55,14.64,14.64,0,0,0-1.48-.08c.15.66.22,1.11.34,1.55.66,2.37,1.53,4.7,1.95,7.11a5.05,5.05,0,0,0,4.41,4.6c.94.39,1.87.84,2.84,1.17,3.28,1.12,6.57,2.22,10.09,2.23.32.3.6.82.95.87,3,.38,6,.76,9,1,2.31.17,4.64,0,6.95.14,1.67.06,3.34.41,5,.32,3.4-.2,6.8-.61,10.2-.92,2.05-.19,4.11-.35,6.17-.53,3.56-.3,7.12-.8,10.68-.86,7.76-.13,15.52,0,23.28-.08,2.21,0,4.41-.47,6.62-.71,3.63-.39,7.25-1,10.89-1.13,5.9-.23,11.76.43,17.64.85s11.64.39,17.46.55c2.15,0,4.31.09,6.46.15,3,.08,5.89.32,8.83.22,2.69-.1,5.36-.56,8-.85,2.05-.22,4.11-.38,6.16-.63,3.31-.4,6.62-.82,9.91-1.31,1.64-.25,3.27-.65,4.88-1a1.75,1.75,0,0,0,1.38-1.47,33.38,33.38,0,0,0,.85-9.95,3.5,3.5,0,0,0-1.31-2.41,17.85,17.85,0,0,0-4.84-1.84c-1.77-.39-3.65-.27-5.44-.6a11.58,11.58,0,0,1-2.72-1.23l1.77-.55.59,0,3.8.28Z" />
            <path class="color-base" d="M487.11,500.94l-3.8-.28Z" />
            <path class="color-shadow"
                d="M311,519.35a5.05,5.05,0,0,1-4.41-4.6c-.42-2.41-1.29-4.74-1.95-7.11-.12-.44-.19-.89-.34-1.55a14.64,14.64,0,0,1,1.48.08,89.15,89.15,0,0,0,9.1,1.55,40.3,40.3,0,0,0,7.81-.54c4.08-.5,8.14-1.18,12.21-1.74.74-.1,1.49,0,1.52-1.06,4-.46,7.92-1,11.88-1.38,7.15-.75,14.3-1.49,21.45-2.14,13.33-1.21,26.66-.32,40-.09,8.3.15,16.62.11,24.92.19,2.72,0,5.43.31,8.14.21,7.1-.24,14.19-.65,21.28-.92a46.51,46.51,0,0,1,5,.28,5.77,5.77,0,0,0,1.41.14c3.55-.78,7,.27,10.46.59a11.58,11.58,0,0,0,2.72,1.23c1.79.33,3.67.21,5.44.6a17.85,17.85,0,0,1,4.84,1.84,3.5,3.5,0,0,1,1.31,2.41,33.38,33.38,0,0,1-.85,9.95,1.75,1.75,0,0,1-1.38,1.47c-1.61.4-3.24.8-4.88,1-3.29.49-6.6.91-9.91,1.31-2.05.25-4.11.41-6.16.63-2.68.29-5.35.75-8,.85-2.94.1-5.88-.14-8.83-.22-2.15-.06-4.31-.1-6.46-.15-5.82-.16-11.66-.13-17.46-.55s-11.74-1.08-17.64-.85c-3.64.15-7.26.74-10.89,1.13-2.21.24-4.41.69-6.62.71-7.76.09-15.52,0-23.28.08-3.56.06-7.12.56-10.68.86-2.06.18-4.12.34-6.17.53-3.4.31-6.8.72-10.2.92-1.65.09-3.32-.26-5-.32-2.31-.09-4.64,0-6.95-.14-3-.22-6-.6-9-1-.35,0-.63-.57-.94-.87,7.72,0,15.45,0,23.18-.06,5.1-.07,10.19.09,15.3-.35s10.16-.5,15.22-1c4.11-.43,8.23-.73,12.36-1,4.29-.25,8.59-.36,12.89-.51l15.29-.49.48,0c3.8-.31,7.59-.64,11.39-.92,2.62-.2,5.24-.34,7.86-.53,4-.29,7.91-.76,11.87-.88,8.38-.27,16.75-.36,25.13-.53.32,0,.64,0,1,0,3.63-.3,7.28-.53,10.91-.94a39.42,39.42,0,0,0,5.57-1.18,2.49,2.49,0,0,0,1.4-1.17c.56-1.12-.55-3.94-1.71-4.54a42,42,0,0,0-19.24-5c-10.37-.08-20.76-.61-31.12.36-3.33.31-6.68.36-10,.49-4.45.19-8.91.46-13.37.47-8.22,0-16.44.24-24.65-.41-3.1-.24-6.25.18-9.34-.13a98.68,98.68,0,0,0-12.84-.87c-5.1.15-10.2.26-15.29.51-1.89.1-3.77.53-5.65.81-4.47.68-8.93,1.39-13.41,2-3.29.47-6.6.87-9.91,1.25-3.62.41-7.25.85-10.89,1.13-2.14.16-4.31,0-6.47,0a12.5,12.5,0,0,0-1.66.28c.42,1.49.78,2.79,1.15,4.08C309.88,515.54,310.44,517.44,311,519.35Z" />
            <path class="color-base"
                d="M311,519.35c-.56-1.91-1.12-3.81-1.67-5.72-.37-1.29-.73-2.59-1.15-4.08a12.5,12.5,0,0,1,1.66-.28c2.16,0,4.33.12,6.47,0,3.64-.28,7.27-.72,10.89-1.13,3.31-.38,6.62-.78,9.91-1.25,4.48-.64,8.94-1.35,13.41-2,1.88-.28,3.76-.71,5.65-.81,5.09-.25,10.19-.36,15.29-.51a98.68,98.68,0,0,1,12.84.87c3.09.31,6.24-.11,9.34.13,8.21.65,16.43.43,24.65.41,4.46,0,8.92-.28,13.37-.47,3.34-.13,6.69-.18,10-.49,10.36-1,20.75-.44,31.12-.36a42,42,0,0,1,19.24,5c1.16.6,2.27,3.42,1.71,4.54a2.49,2.49,0,0,1-1.4,1.17,39.42,39.42,0,0,1-5.57,1.18c-3.63.41-7.28.64-10.91.94-.32,0-.64,0-1,0-8.38.17-16.75.26-25.13.53-4,.12-7.91.59-11.87.88-2.62.19-5.24.33-7.86.53-3.8.28-7.59.61-11.39.92l-.48,0-15.29.49c-4.3.15-8.6.26-12.89.51-4.13.23-8.25.53-12.36,1-5.06.54-10.16.61-15.22,1s-10.2.28-15.3.35c-7.73.1-15.46,0-23.18.06-3.53,0-6.82-1.11-10.1-2.23C312.87,520.19,311.94,519.74,311,519.35Z" />
        </g>
    </g>
</svg>
