<svg id="Nizy_bochonki" data-name="Nizy bochonki" xmlns="http://www.w3.org/2000/svg" viewBox="0 0 672 960">
    <g id="Midi_Bochonok" data-name="Midi Bochonok">
        <g id="img_19_img" data-name="img 19 img">
            <path class="outline"
                d="M316.31,497.83l4.73-.1,5.86-.4.86-.08,3-.41.85-.08,3-.4.84-.08,2.53-.36,1.78-.14,3.49-.36,1.34-.09,3.94-.39,1.34-.09,3.91-.39,4.73-.09c.55.05,1.1.14,1.66.15h45.72c.72,0,1.43-.1,2.14-.15l17.7.11c.21.1.42.29.63.29,3.69,0,7.38.07,11.07.07.27,0,.55-.24.82-.37l7.64-.09,5.15.25c-2.21.17-4.9.48-7.6.58-5.59.19-11.18.34-16.77.37-3.11,0-6.22-.35-9.33-.33-23.09.16-46.19-.53-69.26,1.06-2.47.17-5,.2-7.41.5-8,1-16,2.16-24,2.42a33.8,33.8,0,0,1-11.54-1.47c-2.43-.77-4.91-1.4-7.36-2.09l-.33-.19,0,.48a2.17,2.17,0,0,0,1.79,2.44,27.37,27.37,0,0,0,2.74.78c3.17.42,6.33.88,9.52,1.08a71.12,71.12,0,0,0,9.79.14c7.32-.56,14.61-1.64,21.94-2,8.61-.45,17.25-.41,25.88-.54,1.92,0,3.83.26,5.74.2,5.43-.17,10.86-.54,16.29-.66,7.11-.15,14.23-.13,21.35-.2.88,0,1.76,0,2.64-.06,5.9-.24,11.8-.57,17.71-.69,3.11-.06,6.23.38,9.34.36a272.08,272.08,0,0,1,28.26.92c7.28.72,14.39,2,21,5.32a9,9,0,0,0,4.89.9,6,6,0,0,0,.78-.2c.22-.6.44-1.23.61-1.71-2.88-1.33-5.53-2.63-8.24-3.78a18.64,18.64,0,0,0-3.89-1.12c-3.27-.59-6.56-1.07-9.85-1.59l0-.32h6.67a14.55,14.55,0,0,1,7.56,1.86,38,38,0,0,0,6.82,2.88,19.15,19.15,0,0,0,3.83.47,22.15,22.15,0,0,1-.8,2.8c-1.49,3.53-3.06,7-4.57,10.53a4.88,4.88,0,0,1-4.44,3.15c-6.14.31-12.25.86-18.43.32-5.88-.5-11.81-.46-17.72-.69q-11.61-.45-23.22-.94c-9-.38-18-.85-27.06-1.19-13.36-.5-26.64.72-39.94,1.78-8.13.65-16.11,2.34-24.23,3a94.36,94.36,0,0,1-22.22-.36,19.66,19.66,0,0,1-4.19-1,52.79,52.79,0,0,0-9.1-2.94,4.46,4.46,0,0,1-3.66-3.46c-1.08-6-4.49-11.09-6.35-16.77a9.79,9.79,0,0,1-.53-2.31c0-.33.44-.69.91-1.35l1.5,2.68,8.18,2.66,2,.36.84.1,2.05.37.84.1,2,.37.86.1Zm76.14,14.1.16.67c.63,0,1.27,0,1.91.08,2.31.23,4.44.06,5.57-2.43,0-.06.13-.09.19-.14l.61.58c-.15.65-.31,1.29-.47,1.94l-.11.21c.07,0,.14.09.21.09l5-.07a10.06,10.06,0,0,0,4.72-.39c-.15-.72-.27-1.29-.47-2.21a8.52,8.52,0,0,1,1.15.85,6.79,6.79,0,0,0,5.05,2.22c4.93.17,9.84.52,14.76.76,1.49.07,3,0,4.74,0L434,508.82c-.07-.66-.14-1.33-.27-2.53l1.52,2.51c.61,1.29,1.22,2.59,1.84,3.88a3.07,3.07,0,0,0,3.25,1.88c2.31-.11,4.63.06,6.95.11h2.6l1.33-5.37h.34c.34,1.71.67,3.41,1,5.25a143.18,143.18,0,0,0,16.66.41c.09-1.32.16-2.36.26-3.76,1.37,1.55,1.68,3.56,3.62,3.83,1.58.22,3.19.22,4.52.3v-6.48H478c.5,2.14,1,4.28,1.5,6.48a15.82,15.82,0,0,0,8-.82c.11-.74.2-1.4.34-2.34.54.56.84.92,1.19,1.22,1.08,1,1.76,1,2.63,0,1.86-2.18,3-4.79,4.3-7.62a12.17,12.17,0,0,1-7.33-2.11,5.07,5.07,0,0,0-1.11-.41,38.41,38.41,0,0,0-13.6-3.66c-7.81-.5-15.65-.72-23.48-1-5.35-.16-10.71-.13-16.07-.2-1.84,0-3.68-.18-5.51-.13-8.47.23-16.94.53-25.41.76s-17.11.42-25.67.63l-14.38,0-3.33.09c-1.27,0-2.54-.15-3.81-.09-5.26.23-10.53.4-15.77.8-6.52.5-13,1.33-19.53,1.78a76.82,76.82,0,0,1-10.51-.13c-3.71-.24-7.4-.81-10.94-1.21,1.22,3,2.48,6.06,3.73,9.14.63,1.55,2.23,1.33,3.39,1.92s1.56-.18,2.23-.85c1.49,1.85,2.75,3.88,5.52,3.8l-.28-4.61,1.37,2.26a4.88,4.88,0,0,0,4.88,4.07c3.42.19,6.83.57,10.25.83a16.92,16.92,0,0,0,2-.11c.23-.8.44-1.55.66-2.3.3-.93.59-1.86.89-2.79l.8.07c-.07.87-.14,1.74-.2,2.61s-.4,1.47-.62,2.3c1.52,0,2.85,0,4.17,0a2.31,2.31,0,0,0,2.51-2.25l2.05-4,.73-.15c-.25,1.22-.49,2.44-.74,3.66-.18.72-.37,1.43-.64,2.44l9.67-1.1c-.15-1-.25-1.67-.35-2.36,0-1,0-2.09-.07-3.13l.73.05,1,2.73c.86,2.74,1.32,2.92,4.26,1.68l-.66-2.68.73.53c.85.89,1.38,2.32,2.9,2.2,3-.24,6-.61,9.16-.95-.42-.74-.71-1.28-1-1.82-.29-1.28-.57-2.56-.86-3.83l-.08-1,1.48,1.64c.39.77.73,1.58,1.17,2.32,1.57,2.62,2.31,2.88,5.53,2,.06-1,.13-1.92.22-3.26a6.14,6.14,0,0,1,.71,1.11c.56,1.87,1.81,2.37,3.67,2.14a32.85,32.85,0,0,1,6.41-.37c2.65.2,4.17-1.1,5.39-3.13l1.22,0Zm18.27.87h-.32c.05.05.09.14.14.14S410.65,512.87,410.72,512.8Z" />
            <path class="color-shadow-dark"
                d="M297.7,495.68c2.45.69,4.93,1.32,7.36,2.09a33.8,33.8,0,0,0,11.54,1.47c8.07-.26,16-1.43,24-2.42,2.45-.3,4.94-.33,7.41-.5,23.07-1.59,46.17-.9,69.26-1.06,3.11,0,6.22.35,9.33.33,5.59,0,11.18-.18,16.77-.37,2.7-.1,5.39-.41,7.6-.58l-5.15-.25,8.21.05,2.34,0,4.35-.07a4.16,4.16,0,0,0,1.08.36c3.37,0,6.74,0,10.1,0l10.45.46h-6.67l0,.32c3.29.52,6.58,1,9.85,1.59a18.64,18.64,0,0,1,3.89,1.12c2.71,1.15,5.36,2.45,8.24,3.78-.17.48-.39,1.11-.61,1.71a6,6,0,0,1-.78.2,9,9,0,0,1-4.89-.9c-6.61-3.31-13.72-4.6-21-5.32a272.08,272.08,0,0,0-28.26-.92c-3.11,0-6.23-.42-9.34-.36-5.91.12-11.81.45-17.71.69-.88,0-1.76.06-2.64.06-7.12.07-14.24.05-21.35.2-5.43.12-10.86.49-16.29.66-1.91.06-3.82-.23-5.74-.2-8.63.13-17.27.09-25.88.54-7.33.38-14.62,1.46-21.94,2a71.12,71.12,0,0,1-9.79-.14c-3.19-.2-6.35-.66-9.52-1.08a27.37,27.37,0,0,1-2.74-.78,2.17,2.17,0,0,1-1.79-2.44Z" />
            <path class="color-shadow-dark"
                d="M408,494.38c-.71.05-1.42.15-2.14.15H360.14c-.56,0-1.11-.1-1.66-.15,4.94-.13,9.88-.37,14.82-.37,11.18,0,22.35.13,33.53.21A9.43,9.43,0,0,1,408,494.38Z" />
            <path class="color-shadow-dark"
                d="M438.22,494.48c-.27.13-.55.37-.82.37-3.69,0-7.38,0-11.07-.07-.21,0-.42-.19-.63-.29Z" />
            <path class="color-base" d="M471.94,494.76c-3.36,0-6.73,0-10.1,0a4.16,4.16,0,0,1-1.08-.36Z" />
            <path class="color-shadow-dark" d="M326.9,497.33l-5.86.4Z" />
            <path class="color-shadow-dark" d="M316.31,497.83l-2.93,0Z" />
            <path class="color-shadow-dark" d="M353.75,494.46l-3.91.39Z" />
            <path class="color-shadow-dark" d="M348.5,494.94l-3.94.39Z" />
            <path class="color-shadow-dark" d="M343.22,495.42l-3.49.36Z" />
            <path class="color-shadow-dark" d="M330.74,496.84l-3,.41Z" />
            <path class="color-shadow-dark" d="M334.58,496.36l-3,.4Z" />
            <path class="outline" d="M456.41,494.47l-2.34,0Z" />
            <path class="color-shadow-dark" d="M338,495.92l-2.53.36Z" />
            <path class="color-shadow-dark" d="M312.52,497.7l-2-.37Z" />
            <path class="color-shadow-dark" d="M309.63,497.23l-2.05-.37Z" />
            <path class="color-shadow-dark" d="M306.74,496.76l-2-.36Z" />
            <path class="color-base"
                d="M377.71,499.67c8.56-.21,17.11-.4,25.67-.63s16.94-.53,25.41-.76c1.83,0,3.67.11,5.51.13,5.36.07,10.72,0,16.07.2,7.83.24,15.67.46,23.48,1a38.41,38.41,0,0,1,13.6,3.66c-.24.92-.52,1.82-.71,2.75-.34,1.63-.78,2.14-2.44,2.33-2.11.23-4.23.37-6.35.54h-.28c-3,.14-6,.37-9.06.41-5.67.07-11.35,0-17,0h-.34l-16-.5-1.52-2.51c.13,1.2.2,1.87.27,2.53l-11.44-.53c-.24,0-.47-.06-.71-.07-3.1-.12-6.2-.41-9.29-.3-3.64.13-7.27.6-10.9.93l-.95.38L394,508.4h-1.34c-7.31,0-14.62-.06-21.94-.05a5.66,5.66,0,0,0-1.69.58l-1.48-1.64.08,1a15.35,15.35,0,0,1-2.3.46c-4.36.23-8.73.4-13.09.59l-.92.38a12.51,12.51,0,0,0-2.6,0c-1.72.38-3.61,0-5.16,1.11l-.73.15c-.72-1.92-2.36-1.24-3.69-1.22-1.81,0-3.62.38-5.42.37a41.27,41.27,0,0,1-5.66-.46c-3.43-.49-6.85-1.06-10.27-1.67-.64-.11-1.49-.22-1.52-1.21,1.1-.15,2.2-.28,3.29-.46,7.1-1.19,14.19-2.42,21.22-4a73.89,73.89,0,0,1,9.88-1.24c2.76-.27,5.54-.33,8.3-.55.37,0,.7-.49,1.05-.76l3.33-.09a4.67,4.67,0,0,0,1.33.38c3.83,0,7.67,0,11.5,0A5.86,5.86,0,0,0,377.71,499.67Z" />
            <path class="color-shadow-dark"
                d="M360,499.8c-.35.27-.68.73-1.05.76-2.76.22-5.54.28-8.3.55a73.89,73.89,0,0,0-9.88,1.24c-7,1.62-14.12,2.85-21.22,4-1.09.18-2.19.31-3.29.46-1.92,0-3.84.11-5.75,0s-3.66-.52-5.53-.8a3.07,3.07,0,0,0,2.28,3.2c1.33.53,2.77.81,4,1.46a2.26,2.26,0,0,0,2.75-.33l.28,4.61c-2.77.08-4-2-5.52-3.8-.67.67-1.2,1.38-2.23.85s-2.76-.37-3.39-1.92c-1.25-3.08-2.51-6.15-3.73-9.14,3.54.4,7.23,1,10.94,1.21a76.82,76.82,0,0,0,10.51.13c6.52-.45,13-1.28,19.53-1.78,5.24-.4,10.51-.57,15.77-.8C357.46,499.65,358.73,499.77,360,499.8Z" />
            <path class="color-shadow"
                d="M401.68,508.85c3.63-.33,7.26-.8,10.9-.93,3.09-.11,6.19.18,9.29.3.24,0,.47.06.71.07l11.44.53,1.42,5.28c-1.76,0-3.25.06-4.74,0-4.92-.24-9.83-.59-14.76-.76a6.79,6.79,0,0,1-5.05-2.22,8.52,8.52,0,0,0-1.15-.85c.2.92.32,1.49.47,2.21a10.06,10.06,0,0,1-4.72.39l-5.07-.23c.16-.65.32-1.29.47-1.94S401.42,509.47,401.68,508.85Z" />
            <path class="color-shadow"
                d="M314,510.35a2.26,2.26,0,0,1-2.75.33c-1.25-.65-2.69-.93-4-1.46A3.07,3.07,0,0,1,305,506c1.87.28,3.69.67,5.53.8s3.83,0,5.75,0c0,1,.88,1.1,1.52,1.21,3.42.61,6.84,1.18,10.27,1.67a41.27,41.27,0,0,0,5.66.46c1.8,0,3.61-.34,5.42-.37,1.33,0,3-.7,3.69,1.22l-2.05,4-6.06,0c.06-.87.13-1.74.2-2.61l-.47-.56-.33.49c-.3.93-.59,1.86-.89,2.79l-6.8-.94-11-1.55Z" />
            <path class="color-shadow"
                d="M451.58,509.29c5.68,0,11.36,0,17,0,3,0,6-.27,9.06-.41v6.48c-1.33-.08-2.94-.08-4.52-.3-1.94-.27-2.25-2.28-3.62-3.83-.1,1.4-.17,2.44-.26,3.76a143.18,143.18,0,0,1-16.66-.41C452.25,512.7,451.92,511,451.58,509.29Z" />
            <path class="color-shadow-dark"
                d="M478,508.85c2.12-.17,4.24-.31,6.35-.54,1.66-.19,2.1-.7,2.44-2.33.19-.93.47-1.83.71-2.75a5.07,5.07,0,0,1,1.11.41,12.17,12.17,0,0,0,7.33,2.11c-1.35,2.83-2.44,5.44-4.3,7.62-.87,1-1.55,1-2.63,0-.35-.3-.65-.66-1.19-1.22-.14.94-.23,1.6-.34,2.34a15.82,15.82,0,0,1-8,.82C478.94,513.13,478.45,511,478,508.85Z" />
            <path class="color-shadow"
                d="M369,508.92a5.66,5.66,0,0,1,1.69-.58c7.32,0,14.63,0,21.94.05l-.53,1.29c-1.22,2-2.74,3.33-5.39,3.13a32.85,32.85,0,0,0-6.41.37c-1.86.23-3.11-.27-3.67-2.14a6.14,6.14,0,0,0-.71-1.11c-.09,1.34-.16,2.31-.22,3.26-3.22.93-4,.67-5.53-2C369.75,510.5,369.41,509.69,369,508.92Z" />
            <path class="color-shadow"
                d="M435.27,508.8l16,.5-1.33,5.37h-2.6c-2.32,0-4.64-.22-6.95-.11a3.07,3.07,0,0,1-3.25-1.88C436.49,511.39,435.88,510.09,435.27,508.8Z" />
            <path class="color-shadow"
                d="M352.23,509.36c4.36-.19,8.73-.36,13.09-.59a15.35,15.35,0,0,0,2.3-.46c.29,1.27.57,2.55.86,3.83-1.82,0-3.64-.06-5.45,0s-3.74.34-5.6.53l-.73-.53-3.6,1-1-2.73C352.18,510.09,352.2,509.72,352.23,509.36Z" />
            <path class="color-shadow-dark"
                d="M315.4,512.61l11,1.55,6.8.94c-.22.75-.43,1.5-.66,2.3a16.92,16.92,0,0,1-2,.11c-3.42-.26-6.83-.64-10.25-.83A4.88,4.88,0,0,1,315.4,512.61Z" />
            <path class="color-shadow"
                d="M343.55,510.89c1.55-1.15,3.44-.73,5.16-1.11a12.51,12.51,0,0,1,2.6,0c0,.22.08.44.11.66,0,1,.05,2.09.07,3.13-1.17.15-2.33.32-3.51.46-1.72.2-3.44.38-5.17.56C343.06,513.33,343.3,512.11,343.55,510.89Z" />
            <path class="color-shadow"
                d="M394,508.4l6.74.83-.45.88c-.06.05-.16.08-.19.14-1.13,2.49-3.26,2.66-5.57,2.43-.64-.07-1.28-.06-1.91-.08-.05-.22-.11-.45-.16-.67.3-.76.59-1.52.89-2.27C393.55,509.24,393.77,508.82,394,508.4Z" />
            <path class="color-shadow-dark"
                d="M357.43,512.71c1.86-.19,3.73-.44,5.6-.53s3.63,0,5.45,0c.3.54.59,1.08,1,1.82-3.2.34-6.18.71-9.16.95C358.81,515,358.28,513.6,357.43,512.71Z" />
            <path class="color-shadow-dark"
                d="M342.81,514.55c1.73-.18,3.45-.36,5.17-.56,1.18-.14,2.34-.31,3.51-.46.1.69.2,1.38.35,2.36l-9.67,1.1C342.44,516,342.63,515.27,342.81,514.55Z" />
            <path class="color-shadow-dark"
                d="M334.71,515l6.06,0a2.31,2.31,0,0,1-2.51,2.25c-1.32,0-2.65,0-4.17,0C334.31,516.46,334.51,515.73,334.71,515Z" />
            <path class="color-shadow-dark" d="M353.1,513.18l3.6-1,.66,2.68C354.42,516.1,354,515.92,353.1,513.18Z" />
            <path class="color-shadow-dark"
                d="M377.71,499.67a5.86,5.86,0,0,1-1.55.42c-3.83,0-7.67,0-11.5,0a4.67,4.67,0,0,1-1.33-.38Z" />
            <path class="color-shadow-dark" d="M400.42,512.63l5.07.23-5,.07c-.07,0-.14-.06-.21-.09Z" />
            <path class="color-shadow-dark" d="M394,508.4c-.22.42-.44.84-.65,1.26l-1.22,0,.53-1.29Z" />
            <path class="color-shadow-dark" d="M400.28,510.11l.45-.88.95-.38c-.26.62-.52,1.23-.79,1.84Z" />
            <path class="color-shadow-dark" d="M351.42,510.4c0-.22-.07-.44-.11-.66l.92-.38c0,.36-.05.73-.08,1.09Z" />
            <path class="color-shadow-dark" d="M334.11,512.31l.33-.49.47.56Z" />
            <path class="color-shadow-dark" d="M297.41,496l0-.48.33.19Z" />
            <path class="color-shadow-dark" d="M410.72,512.8c-.07.07-.13.15-.18.14s-.09-.09-.14-.14Z" />
            <path class="color-shadow-dark" d="M392.45,511.93l.16.67Z" />
        </g>
    </g>
</svg>
