<svg id="Nizy_bochonki" data-name="Nizy bochonki" xmlns="http://www.w3.org/2000/svg" viewBox="0 0 672 960">
    <g id="Midi_Bochonok" data-name="Midi Bochonok">
        <g id="img_25_img" data-name="img 25 img">
            <path class="outline"
                d="M500.31,502.16c-1.54,3-3.11,5.94-4.63,8.92a3.87,3.87,0,0,1-3.75,2.13c-3.91,0-7.85.09-11.74-.29-9.46-.94-18.89-2.19-28.35-3.2-7-.75-14-1.57-21-1.9-6.84-.32-13.72-.07-20.87-.07.33.69.61,1.2.84,1.73,1.07,2.49,2.26,4.93,3.12,7.49a6.66,6.66,0,0,1-.08,3.51,2.73,2.73,0,0,1-3.75,2,8.89,8.89,0,0,1-4.95-4.29c-.16-.24-.31-.49-.46-.74l-.05-.1L403,513.84c-.36,1.4-.57,2.25-.79,3.1l-.24-2.31-.15-6.48c.19-.74-.31-1.67.69-2.42.08.5.12.8.17,1.1A23.33,23.33,0,0,0,406.57,517a13.71,13.71,0,0,0,3.45,3.21,1.5,1.5,0,0,0,2.5-1.09,6.27,6.27,0,0,0-.25-3.25c-.81-2-1.93-3.8-2.92-5.69l-3.29-5.32.81-1.11a4.14,4.14,0,0,0-1.32-3.08c.18-.21.37-.42.56-.62,1.09.09,1.59.79,2,1.75a17.41,17.41,0,0,0,1.26,2.21,4.85,4.85,0,0,0,4.53,2.55c2.31-.06,4.61-.08,6.92-.11,1.1,0,2.2,0,3.6,0-.29-1.19-.51-2.1-.72-3l-.24-2.21c.06-.21.12-.42.19-.64l.58-1.38.48,0c.17.71.35,1.41.5,2.12s.3,1.48.45,2.22c.29,1.12.23,2.65,1.68,2.85,2.39.35,4.82.38,7.61.57-.71-1.68-1.22-2.91-1.74-4.13.15-.1.41-.3.44-.27.53.49,1,1,1.53,1.52,1.72,4.1,5.42,3.19,8.85,3.59.33-1.13.63-2.18.94-3.22l1.22-3.18c1.19,2.18.14,4.24.12,6.52l3.32.18a24.27,24.27,0,0,1,1-2.42c.13-.26.59-.35.9-.52.25,1.07.51,2.13.8,3.36l13.23,1.39c-.37-1.49-.68-2.7-1-3.92.14-1.7-.54-3.53.86-5.46l1.41,6.1c.25.91.45,1.84.76,2.74s.89,1,1.82.69c.06-.69.12-1.42.2-2.29,3.23,3,5.45,3.79,8.51,3.24-.12-1.19-.23-2.35-.35-3.51l.71,0c.45,1.26.89,2.53,1.39,4l2.63.25,1.1-4.56.94-2.75c.24,1,.44,1.83.63,2.66-.17,1.49-.35,3-.55,4.71a8.28,8.28,0,0,0,2.55-.29c.46-.21.63-1.07.93-1.65l2.53,1.64,2.74-5.09c.1.89.17,1.55.3,2.75.91-1.41,1.52-2.37,2-3.16l-8.5-2.77c-2.3-.67-4.57-1.43-6.89-2-9.43-2.32-19.11-2.71-28.74-3.24s-19.14-.41-28.71-.58c-.39,0-.79-.05-1.19,0-4.51.31-9,.67-13.54.91s-8.89.4-13.34.51c-3.5.09-7,.09-10.51.06a11.05,11.05,0,0,1-2.22-.49c2.95-.14,5.9-.29,8.85-.4,6.31-.24,12.62-.43,18.92-.69,2.55-.1,5.1-.4,7.65-.51,6.38-.27,12.76-.59,19.14-.68,4.07-.05,8.14.28,12.21.44.56,0,1.12,0,1.68,0,7.46.74,14.93,1.41,22.37,2.28a81.64,81.64,0,0,1,18.59,4.44,18.17,18.17,0,0,0,4.68.76c.38,0,.82-.53,1.23-.82l-1-1.09.56-.54a21.82,21.82,0,0,1,2.29.14A4.13,4.13,0,0,1,500.31,502.16Zm-92.25,2.37c.27,1.42.27,1.42,1.5,2Z" />
            <path class="color-shadow"
                d="M496.34,502l1,1.09c-.41.29-.85.86-1.23.82a18.17,18.17,0,0,1-4.68-.76,81.64,81.64,0,0,0-18.59-4.44c-7.44-.87-14.91-1.54-22.37-2.28-.56-.06-1.12,0-1.68,0-4.07-.16-8.14-.49-12.21-.44-6.38.09-12.76.41-19.14.68-2.55.11-5.1.41-7.65.51-6.3.26-12.61.45-18.92.69-2.95.11-5.9.26-8.85.4h-8.1c-6.61-.21-13.22-.52-19.83-.6-5.66-.07-11.33,0-17,.23-4.92.22-9.83.85-14.75,1.21a87.62,87.62,0,0,1-20.7-1.43,23.23,23.23,0,0,1-2.74-.83,1.11,1.11,0,0,1-.87-1.44c2.47.57,5,1,7.41,1.73a35.57,35.57,0,0,0,12,1.47c7.55-.45,15.07-1.33,22.61-1.68,8-.38,15.94-.44,23.92-.48,4.94,0,9.88.32,14.82.4,4.3.06,8.61,0,12.92-.05.33,0,1.07.35.83-.57a3.06,3.06,0,0,1,.05-.32c5.5-.2,11-.37,16.49-.63a17.48,17.48,0,0,0,3-.66l1-.68.08,1,26.08-.57h4.11c.15-.45.32-.93.48-1.4.18,1.21,1,1.09,1.88.93.37.23.72.64,1.1.67,7.05.42,14.09.79,21.14,1.18l-.07.07.45-1.06,1,.77a35.43,35.43,0,0,0,3.63.75c3.86.36,7.72.6,11.58.93a18.16,18.16,0,0,1,2.29.45c-1.35-.09-2.69-.21-4.05-.25s-2.48,0-3.72,0a8.5,8.5,0,0,0,2.78.79,40.88,40.88,0,0,1,10.87,2.77A29.25,29.25,0,0,0,496.34,502Z" />
            <path class="outline"
                d="M298,495.35a1.11,1.11,0,0,0,.87,1.44,23.23,23.23,0,0,0,2.74.83,87.62,87.62,0,0,0,20.7,1.43c4.92-.36,9.83-1,14.75-1.21,5.66-.25,11.33-.3,17-.23,6.61.08,13.22.39,19.83.6a13.36,13.36,0,0,1-2.46.48c-3.82.05-7.64,0-11.47,0l-14.39.13c-4.31.17-8.61.3-12.91.52-2.47.13-4.93.47-7.4.6-4.53.25-9,.94-13.62.3-3.94-.55-7.91-.86-11.84-1.27a51.58,51.58,0,0,1,2.52,5,2.75,2.75,0,0,0,3.22,2.08c-1.77-4.14-1.77-4.14-.79-5.23,1.19,1.57,2.32,3.19,3.59,4.69a6.48,6.48,0,0,0,5.37,2.71c.07-.73.14-1.38.25-2.35,1.44,1.26,1.93,3.17,4,3.12,1.61,0,3.23.56,4.91,0-.52-1.42-1-2.68-1.42-3.95-.14-.43-.3-1,.5-1a.84.84,0,0,0,.15.38,5.32,5.32,0,0,0,.26.66c2.35,4.16,2.74,4.35,7.49,4.17a2.44,2.44,0,0,0,2.33-1.27c.38-.66.65-1.54,1.73-1.82l-.35,2.46c3,.56,5.63.16,7.41-2.55a10.78,10.78,0,0,1,.77-.9l.79,0-1.42,3.25,9.3-.67c-.16-1.23-.3-2.21-.43-3.2,0-1.49-.66-3.06.77-4.83.22,1,.36,1.69.5,2.34s.27,1.34.4,2c.42.94.8,1.9,1.27,2.81a1.28,1.28,0,0,0,1.78.74c.49-.26.8-.86,1.2-1.31a8,8,0,0,0,2.59,1.07c3.06.15,6.13.06,9.4.06-.5-1.37-.87-2.4-1.24-3.43.3-1.43.67,0,1,0l2.89,3.29c-1,1-2.28.91-3.55.95q-9.92.29-19.83.6l-1,.05-17.6,1.38c-.64,0-1.28.1-1.91.1-2.54,0-5.07,0-7.61,0a45.53,45.53,0,0,1-9.45-1.12l-.15,0-5.85-1h-.22l-.18-.12-1.57-.83a.29.29,0,0,1-.33-.26.17.17,0,0,0-.21-.17c-.14,0-.21-.06-.21-.21l-.54-1.22c-.05-.22-.09-.45-.13-.67a8.19,8.19,0,0,0-2.46-5.59l-.28-.5-2-4.94,2.06,1.17.41.47Z" />
            <path class="outline"
                d="M398.52,510.05l-.18,1.62c-.09.59-.17,1.18-.26,1.77l-.21,1.59-.27,1.77-.22,1.59c-.1.59-.19,1.17-.29,1.75l-.21,1.62-.23,1.28c-.08.53-.16,1.07-.25,1.6l-.23,1.28c-.08.54-.17,1.07-.26,1.6s-.17.84-.26,1.26l-.18,1.13c-.12.57-.23,1.14-.34,1.71L395,532.8l-.28,1.23-.2,1.17-.3,1.21-.15.7-.35,1.19,0,.57-.13,1.24a4.47,4.47,0,0,1-1.51.17c-1.25-.28-2.46-.7-3.68-1.06-1.5-.44-1.82-.92-1.38-2.42.27-.91.71-1.78,1-2.68q2.92-8.24,5.82-16.48c.25-.72.37-1.5.68-2.8-.84.43-1.36.54-1.63.86-1.1,1.36-2,2.87-3.22,4.17a21,21,0,0,1-3.74,3.32,7.56,7.56,0,0,1-3.34,1.14,3,3,0,0,1-3.47-3.07,9.92,9.92,0,0,1,.94-4.6,67,67,0,0,1,4.52-6.42l.4-.44.05-.05.42-.44.05-.05,1.16-1.35c-3.42,0-6.42-.11-9.4,0a5.29,5.29,0,0,1-3.35-.63c.87-.07,1-.6.79-1.31s-.46-1.34-.68-2c0-.78.09-1.56.13-2.33l.61-.07,1.1,2.84c1.06,3,1.08,2.92,4.07,2.65a33,33,0,0,1,5.25-.18,5.47,5.47,0,0,0,5.09-2.45l1.38-1,.91-.32.57.81c-1.88,1.83-3.82,3.62-5.63,5.52a26.67,26.67,0,0,0-5.56,7.72,9.67,9.67,0,0,0-.81,3.2c-.09,1.55.7,2.16,2.11,1.52a13,13,0,0,0,3.92-2.62,64.08,64.08,0,0,0,9.8-12.94c1,.59.35,1.41.22,2.08-.66,3.48-1.38,6.94-2.07,10.4-1.94,6.14-3.88,12.28-5.84,18.52l3.59,1.18c.77-5.16,1.48-10,2.2-14.89.06,0,.17-.09.17-.13a1.78,1.78,0,0,0-.07-.39l.1-.81.19-.63c.13-1,.25-1.92.38-2.88q1.13-5.24,2.26-10.49Z" />
            <path class="outline"
                d="M297.64,494.89l-2.06-1.17,2,4.94a11.12,11.12,0,0,1-2.33-5c5,.13,9.26,2.91,14.11,2.82.56-1.19-.45-1.61-1-2.18a27.45,27.45,0,0,1-6.61-10.44l.57-.46.14.36.34.59.15.36.34.59a26.74,26.74,0,0,0,10.5,11.19,6.61,6.61,0,0,0,2.65.82c2,.12,3.94,0,6.18,0-.27-2.53-3.36-2.63-3.31-5.15,1.54,1.4,3,2.62,4.29,3.94a3.49,3.49,0,0,0,3,1c8.36-.61,16.72-1.15,25.08-1.71.78-.05,1.55-.15,2.78-.28l-1.2-1.92-.53-.66-.07-.1-.35-.43-.07-.1-.33-.43-.1-.14-.52-.73-.06-.1-.34-.44-.25-.41.27-.91c2,1.93,4,3.9,6,5.78a3.2,3.2,0,0,0,1.89.81c6.52.25,13,.42,19.73.61l2.72-6.8.24.05c-.32,2.21-.64,4.43-.95,6.64.19.12.39.34.58.34,3.8,0,7.6,0,11.41,0,.24.92-.5.57-.83.57-4.31,0-8.62.11-12.92.05-4.94-.08-9.88-.42-14.82-.4-8,0-16,.1-23.92.48-7.54.35-15.06,1.23-22.61,1.68a35.57,35.57,0,0,1-12-1.47c-2.44-.7-4.94-1.16-7.41-1.73h0C297.91,495.21,297.78,495.05,297.64,494.89Z" />
            <path class="outline"
                d="M398.52,510.05l-.48-1.72-.13-.62c.32-1.14.63-2.28.92-3.33l2.51-.22v4.09l.3,6.52a98.33,98.33,0,0,0,2.8,21.05,45.2,45.2,0,0,0,4.49,12.32c.86,1.55,1.05,1.56,2.61.51a43.47,43.47,0,0,1-2-4.08c-1.65-4.57-3.47-9.11-4.71-13.8-1.2-4.52-1.78-9.21-2.63-13.83.22-.85.43-1.7.79-3.1l1.59,3.47c-.86-.58-1.41-.34-1.33.67a34.33,34.33,0,0,0,.65,4c1.94,9.31,4.41,18.45,8.95,26.9a4.84,4.84,0,0,1,.19,1l-3.33,1.43c-.65-.93-1.34-1.78-1.89-2.72-3.11-5.31-4.59-11.18-5.71-17.15a129.77,129.77,0,0,1-1.87-21.19c0-.76.43-1.77-1-2.32Z" />
            <path class="outline"
                d="M373.86,507.33a5.29,5.29,0,0,0,3.35.63c3-.16,6,0,9.4,0l-1.16,1.35c.09-.3.19-.6.4-1.26h-2.64c-7.74.14-15.49.27-23.24.45-2.07,0-4.14.23-6.21.39-7.56.59-15.12,1.33-22.69,1.74-5.82.32-11.67.63-17.47-.29a34.19,34.19,0,0,1-3.9-1.07,45.53,45.53,0,0,0,9.45,1.12c2.54,0,5.07,0,7.61,0,.63,0,1.27-.05,1.91-.1l17.6-1.38,1-.05q9.91-.32,19.83-.6c1.27,0,2.56.06,3.55-.95Z" />
            <path class="outline"
                d="M445.68,493.88c-.86.16-1.7.28-1.88-.93,1.4-4.82,1.12-9.77,1.16-15.26a37.44,37.44,0,0,1,1.45,13.22A19.5,19.5,0,0,1,445.68,493.88Z" />
            <path class="outline"
                d="M496.34,502a29.25,29.25,0,0,1-3.64-1,40.88,40.88,0,0,0-10.87-2.77,8.5,8.5,0,0,1-2.78-.79c1.24,0,2.48,0,3.72,0s2.7.16,4.05.25a.44.44,0,0,1,.32.08l1,.44h0c1.52.56,3,1.14,4.57,1.65.11,0,.39-.47.58-.72.32-1,.63-2.11.95-3.16l.45-1.21c.51-1.4,1-2.79,1.54-4.19l.18-.64.39-1.23.7.62-.66,1.85-.06.87c0,.32,0,.65-.05,1s-.19.71-.29,1.06l-.69,2.79c-.09.35-.19.7-.28,1-.12.61-.24,1.21-.37,1.8.06.33.11.66.16,1v0l.54.41a1.79,1.79,0,0,1,.4,0l.54,0h0a.87.87,0,0,0,.13.35Z" />
            <path class="outline"
                d="M413.05,493.88l-1,.68c-.74-.11-.83-.45-.62-1.15.37-1.26.61-2.56.9-3.84.05-.37.1-.73.14-1.09.29-2.17.57-4.35.85-6.52l.68,0q-.17,4.77-.34,9.56l-.21,1Z" />
            <path class="outline"
                d="M469.32,495.51l-1-.77,1.2-4.16.21-.66c.07-.43.15-.86.22-1.28l.19-.67c.11-.56.22-1.13.32-1.7l.74.4-.15,1-.09.55C470.73,490.72,470.8,493.28,469.32,495.51Z" />
            <path class="color-base" d="M302.32,483.39l-.57.46a17,17,0,0,1-2.41-6.69l.47-.19Z" />
            <path class="color-shadow" d="M350.92,488.78l-.27.91-4.26-5.64.47-.36Z" />
            <path class="color-shadow" d="M471.18,486.67l-.74-.4,1-5.29C472,483,471.59,484.81,471.18,486.67Z" />
            <path class="color-shadow" d="M497.52,489.28l-.7-.62,1.38-4.87.65.17Z" />
            <path class="outline"
                d="M439.71,494.35h-.5c.07-1.16.15-2.31.22-3.47l.43-.17c.22.39.66.8.6,1.14A16.05,16.05,0,0,1,439.71,494.35Z" />
            <path class="color-base"
                d="M392.56,496.17c-3.81,0-7.61,0-11.41,0-.19,0-.39-.22-.58-.34l12,0A3.06,3.06,0,0,0,392.56,496.17Z" />
            <path class="outline" d="M297.85,499.16a8.19,8.19,0,0,1,2.46,5.59Z" />
            <path class="color-base" d="M414,482l-.68,0c.11-.93.23-1.86.34-2.79A2.34,2.34,0,0,1,414,482Z" />
            <path class="color-shadow"
                d="M493.31,499.09c-.19.25-.47.75-.58.72-1.53-.51-3.05-1.09-4.57-1.65,1.28.37,2.55.78,3.84,1.09A4,4,0,0,0,493.31,499.09Z" />
            <path class="outline" d="M303.7,508.22l5.85,1Z" />
            <path class="color-shadow"
                d="M496.9,501.44a.87.87,0,0,1-.13-.35h4c-.21.48-.33.78-.46,1.08a3.9,3.9,0,0,0-1.12-.59A21.82,21.82,0,0,0,496.9,501.44Z" />
            <path class="outline" d="M397.09,520.14c.1-.58.19-1.16.29-1.75C397.28,519,397.19,519.56,397.09,520.14Z" />
            <path class="outline" d="M397.6,516.8l.27-1.77Z" />
            <path class="outline"
                d="M398.08,513.44c.09-.59.17-1.18.26-1.77C398.25,512.26,398.17,512.85,398.08,513.44Z" />
            <path class="outline" d="M301.73,507.28l1.57.83Z" />
            <path class="outline" d="M395.13,531.62c.11-.57.22-1.14.34-1.71Z" />
            <path class="outline" d="M300.44,505.42l.54,1.22Z" />
            <path class="outline"
                d="M395.65,528.78c.09-.42.18-.84.26-1.26C395.83,527.94,395.74,528.36,395.65,528.78Z" />
            <path class="outline" d="M396.17,525.92l.23-1.28Z" />
            <path class="outline" d="M396.65,523c.08-.42.15-.85.23-1.28C396.8,522.19,396.73,522.62,396.65,523Z" />
            <path class="color-base"
                d="M412.48,488.48c0,.36-.09.72-.14,1.09C412.39,489.2,412.44,488.84,412.48,488.48Z" />
            <path class="color-shadow" d="M496.8,492l.06-.87Z" />
            <path class="color-base" d="M413.46,492.56l.21-1Z" />
            <path class="color-shadow" d="M496.46,494c.1-.35.19-.7.29-1.06C496.65,493.33,496.56,493.68,496.46,494Z" />
            <path class="color-shadow" d="M494.71,494.72l-.45,1.21Z" />
            <path class="color-shadow" d="M495.49,497.86c.09-.34.19-.69.28-1Z" />
            <path class="outline" d="M394.67,534l.28-1.23Z" />
            <path class="outline" d="M394.17,536.41l.3-1.21Z" />
            <path class="outline" d="M393.67,538.3l.35-1.19Z" />
            <path class="outline" d="M393.51,540.11l.13-1.24Z" />
            <path class="color-shadow" d="M495.28,500.65c0-.33-.1-.66-.16-1C495.18,500,495.23,500.32,495.28,500.65Z" />
            <path class="color-shadow" d="M352.74,492.57l.53.66Z" />
            <path class="color-shadow" d="M351.3,490.64l.52.73Z" />
            <path class="outline" d="M404.68,517.41c.15.25.3.5.46.74C405,517.91,404.83,517.66,404.68,517.41Z" />
            <path class="color-shadow" d="M488.17,498.16l-1-.44Z" />
            <path class="color-shadow" d="M352.32,492l.35.43Z" />
            <path class="color-shadow" d="M469.71,489.92l-.21.66Z" />
            <path class="outline" d="M385.4,509.31l-.42.44Z" />
            <path class="outline" d="M384.93,509.8l-.4.44Z" />
            <path class="color-shadow" d="M351.92,491.51l.33.43Z" />
            <path class="color-shadow" d="M495.83,501.08l-.54-.41Z" />
            <path class="color-shadow" d="M496.77,501.09l-.54,0Z" />
            <path class="color-shadow" d="M350.9,490.1l.34.44Z" />
            <path class="color-shadow" d="M470.12,488l-.19.67Z" />
            <path class="color-shadow" d="M496.43,489.89l-.18.64Z" />
            <path class="color-shadow" d="M470.94,488.21l.09-.55Z" />
            <path class="outline" d="M467.85,495.8l.07-.07Z" />
            <path class="color-base" d="M303.29,485.29l-.34-.59Z" />
            <path class="color-base" d="M302.8,484.34l-.34-.59Z" />
            <path class="outline" d="M301.19,506.85a.17.17,0,0,1,.21.17h-.17Z" />
            <path class="color-base"
                d="M451.47,505.05c-.31.17-.77.26-.9.52a24.27,24.27,0,0,0-1,2.42l-3.32-.18c0-2.28,1.07-4.34-.12-6.52l-1.22,3.18c-.7,0-1.41,0-2.11,0-2.56-.1-5.12-.23-7.68-.34-.51-.51-1-1-1.53-1.52,0,0-.29.17-.44.27a9.6,9.6,0,0,1-2.15.64c-1.79.1-3.6.06-5.4.07-.15-.74-.29-1.48-.45-2.22s-.33-1.41-.5-2.12l-.48,0-.58,1.38c-.07.22-.13.43-.19.64l.24,2.21c-3.44,0-6.88,0-10.32.07-1.34,0-2.67.32-4,.49a17.41,17.41,0,0,1-1.26-2.21c-.38-1-.88-1.66-2-1.75-1.07-.88-2.84.33-3.88-1.34,3.29-.18,6.37-.31,9.45-.54,3.72-.27,7.42-.62,11.13-.94,9.57.17,19.16.06,28.71.58s19.31.92,28.74,3.24c2.32.57,4.59,1.33,6.89,2,0,1.66.15,3.35-2,3.86-.19-.83-.39-1.66-.63-2.66l-.94,2.75-5.06-.15c-.31-.31-.62-1.27-1,0-.86,0-1.72,0-2.58,0l-8.17-.32-1.41-6.1c-1.4,1.93-.72,3.76-.86,5.46-1.74-.12-3.48-.25-5.22-.35Z" />
            <path class="transparent"
                d="M401.34,508.25v-4.09l-2.51.22c-.29,1.05-.6,2.19-.92,3.33v-2.29l-.4-.06-.6,1a64.08,64.08,0,0,1-9.8,12.94,13,13,0,0,1-3.92,2.62c-1.41.64-2.2,0-2.11-1.52a9.67,9.67,0,0,1,.81-3.2,26.67,26.67,0,0,1,5.56-7.72c1.81-1.9,3.75-3.69,5.63-5.52,1.52-1.12,3-2.33,4.55-3.32,2.44-1.52,3.58-1.27,5.63,1-.18.33-.35.66-.53,1a9,9,0,0,0,0,2.37,32.65,32.65,0,0,0,3.83,9.43,13.85,13.85,0,0,0,2,2.34c.28.28,1,.54,1.21.39a1.81,1.81,0,0,0,.78-1.31,7.45,7.45,0,0,0-.52-2.29c-.33-.94-.78-1.85-1.17-2.77l.51-.56c1,1.89,2.11,3.73,2.92,5.69a6.27,6.27,0,0,1,.25,3.25,1.5,1.5,0,0,1-2.5,1.09,13.71,13.71,0,0,1-3.45-3.21,23.33,23.33,0,0,1-3.85-10.19c-.05-.3-.09-.6-.17-1.1-1,.75-.5,1.68-.69,2.42Zm-3.12-6.57c-5.86,4-11.15,8.65-14.84,14.85a3.78,3.78,0,0,0-.53,1.32c-.06.41-.05,1,.2,1.25a1.71,1.71,0,0,0,1.31.16,3.27,3.27,0,0,0,1.21-.75c1.36-1.22,2.74-2.43,4-3.73A38.09,38.09,0,0,0,398.22,501.68Z" />
            <path class="outline"
                d="M408.84,510.76c.39.92.84,1.83,1.17,2.77a7.45,7.45,0,0,1,.52,2.29,1.81,1.81,0,0,1-.78,1.31c-.23.15-.93-.11-1.21-.39a13.85,13.85,0,0,1-2-2.34,32.65,32.65,0,0,1-3.83-9.43,9,9,0,0,1,0-2.37l1.39.62.28-.34-1.14-1.26c-2.05-2.24-3.19-2.49-5.63-1-1.58,1-3,2.2-4.55,3.32l-.57-.81a1.56,1.56,0,0,1,.16-.2c.46-.37,1.48-.37.9-1.41l0,.05c1.13.13,1.4-.15,1.46-1.48.75-.25,2,.46,2.19-1.16-.76,0-1.46,0-2.16,0-11.14.53-22.28.43-33.41,0a14.94,14.94,0,0,1-1.63-.26c3.83,0,7.65.05,11.47,0a13.36,13.36,0,0,0,2.46-.48H382a11.05,11.05,0,0,0,2.22.49c3.5,0,7,0,10.51-.06,4.45-.11,8.9-.27,13.34-.51s9-.6,13.54-.91c.4,0,.8,0,1.19,0-3.71.32-7.41.67-11.13.94-3.08.23-6.16.36-9.45.54,1,1.67,2.81.46,3.88,1.34-.19.2-.38.41-.56.62l-1.7-.48c1.23,1.48,1.42,3.07,3,3.56l-.81,1.11c-.11.27-.39.66-.3.82C406.75,507.4,407.81,509.08,408.84,510.76Zm-4.73-5.32c-.05-.18-.1-.36,0-.09l.05.07.42,1.23.41-.27C404.67,506.07,404.39,505.75,404.11,505.44Zm1.3,2.36a11.61,11.61,0,0,0,3.48,7A27.62,27.62,0,0,0,405.41,507.8ZM380,499l0-.22h-4.2V499Z" />
            <path class="transparent"
                d="M402.25,516.94c.85,4.62,1.43,9.31,2.63,13.83,1.24,4.69,3.06,9.23,4.71,13.8a43.47,43.47,0,0,0,2,4.08c-1.56,1.05-1.75,1-2.61-.51a45.2,45.2,0,0,1-4.49-12.32,99,99,0,0,1-2.81-21.05l.23,0,.15-.16Z" />
            <path class="color-shadow"
                d="M485.13,506.93c2.17-.51,2.06-2.2,2-3.86l8.5,2.77c-.5.79-1.11,1.75-2,3.16-.13-1.2-.2-1.86-.3-2.75l-2.74,5.09-2.53-1.64c-.3.58-.47,1.44-.93,1.65a8.28,8.28,0,0,1-2.55.29C484.78,509.91,485,508.42,485.13,506.93Z" />
            <path class="color-shadow"
                d="M451.47,505.05l7.83.48c1.74.1,3.48.23,5.22.35.3,1.22.61,2.43,1,3.92l-13.23-1.39C452,507.18,451.72,506.12,451.47,505.05Z" />
            <path class="color-shadow"
                d="M409.34,504c1.34-.17,2.67-.45,4-.49,3.44-.08,6.88-.05,10.32-.07.21.9.43,1.81.72,3-1.4,0-2.5,0-3.6,0-2.31,0-4.61,0-6.92.11A4.85,4.85,0,0,1,409.34,504Z" />
            <path class="color-shadow"
                d="M466.79,506.52l8.17.32c.86,0,1.72,0,2.58,0l.19.53c.12,1.16.23,2.32.35,3.51-3.06.55-5.28-.24-8.51-3.24-.08.87-.14,1.6-.2,2.29-.93.35-1.54.12-1.82-.69S467,507.43,466.79,506.52Z" />
            <path class="color-shadow"
                d="M435.15,504.1c2.56.11,5.12.24,7.68.34.7,0,1.41,0,2.11,0-.31,1-.61,2.09-.94,3.22C440.57,507.29,436.87,508.2,435.15,504.1Z" />
            <path class="color-shadow"
                d="M425.63,503.56c1.8,0,3.61,0,5.4-.07a9.6,9.6,0,0,0,2.15-.64c.52,1.22,1,2.45,1.74,4.13-2.79-.19-5.22-.22-7.61-.57C425.86,506.21,425.92,504.68,425.63,503.56Z" />
            <path class="color-shadow" d="M478.5,506.87l5.06.15-1.1,4.56-2.63-.25c-.5-1.43-.94-2.7-1.39-4Z" />
            <path class="transparent" d="M402,514.63l-.15.16-.23,0q-.13-3.25-.29-6.52l.52-.1Z" />
            <path class="transparent"
                d="M406.87,503.77c-1.6-.49-1.79-2.08-3-3.56l1.7.48A4.14,4.14,0,0,1,406.87,503.77Z" />
            <path class="transparent" d="M408.84,510.76c-1-1.68-2.09-3.36-3.08-5.06-.09-.16.19-.55.3-.82l3.29,5.32Z" />
            <path class="outline" d="M408.06,504.53l1.5,2C408.33,506,408.33,506,408.06,504.53Z" />
            <path class="outline"
                d="M478.5,506.87l-.06.5-.71,0c-.06-.18-.13-.36-.19-.53C477.88,505.6,478.19,506.56,478.5,506.87Z" />
            <path class="color-shadow"
                d="M423.43,501.26c.06-.21.12-.42.19-.64C423.55,500.84,423.49,501.05,423.43,501.26Z" />
            <path class="color-base"
                d="M360,498.69a14.94,14.94,0,0,0,1.63.26c11.13.45,22.27.55,33.41,0,.7,0,1.4,0,2.16,0-.23,1.62-1.44.91-2.19,1.16l-.78.11a.81.81,0,0,0-1.38.24c-.49.95-.83,2-1.23,3l-1.38,1-14.41,0-1.1-2.84-.61.07c0,.77-.09,1.55-.13,2.33l-6.26-.06c-.34,0-.71-1.4-1,0l-15,.06c-.13-.68-.26-1.35-.4-2s-.28-1.3-.5-2.34c-1.43,1.77-.74,3.34-.77,4.83-1.87,0-3.73-.08-5.59,0a7,7,0,0,0-1.86.63l-.79,0c-.55-1-1.54-.68-2.36-.68-5.76-.05-11.52-.05-17.28-.07a.84.84,0,0,1-.15-.38c.05-.71,0-1.44,1.06-1.54.78-.08,1.54-.35,2.32-.45,1.79-.22,3.6-.37,5.4-.6,4.44-.59,8.88-1.22,13.33-1.8.64-.09,1.3,0,1.48-.84Z" />
            <path class="color-shadow"
                d="M345.59,498.82c-.18.83-.84.75-1.48.84-4.45.58-8.89,1.21-13.33,1.8-1.8.23-3.61.38-5.4.6-.78.1-1.54.37-2.32.45-1,.1-1,.83-1.06,1.54-.8,0-.64.58-.5,1,.42,1.27.9,2.53,1.42,3.95-1.68.52-3.3-.08-4.91,0-2.1,0-2.59-1.86-4-3.12-.11,1-.18,1.62-.25,2.35a6.48,6.48,0,0,1-5.37-2.71c-1.27-1.5-2.4-3.12-3.59-4.69-1,1.09-1,1.09.79,5.23a2.75,2.75,0,0,1-3.22-2.08,51.58,51.58,0,0,0-2.52-5c3.93.41,7.9.72,11.84,1.27,4.57.64,9.09-.05,13.62-.3,2.47-.13,4.93-.47,7.4-.6C337,499.12,341.28,499,345.59,498.82Z" />
            <path class="color-shadow"
                d="M322.15,504.43c5.76,0,11.52,0,17.28.07.82,0,1.81-.35,2.36.68a10.78,10.78,0,0,0-.77.9c-1.78,2.71-4.37,3.11-7.41,2.55l.35-2.46c-1.08.28-1.35,1.16-1.73,1.82a2.44,2.44,0,0,1-2.33,1.27c-4.75.18-5.14,0-7.49-4.17A5.32,5.32,0,0,1,322.15,504.43Z" />
            <path class="color-shadow"
                d="M351.7,504.05l15-.06c.37,1,.74,2.06,1.24,3.43-3.27,0-6.34.09-9.4-.06a8,8,0,0,1-2.59-1.07c-.4.45-.71,1-1.2,1.31a1.28,1.28,0,0,1-1.78-.74C352.5,506,352.12,505,351.7,504.05Z" />
            <path class="color-shadow"
                d="M342.58,505.14a7,7,0,0,1,1.86-.63c1.86-.07,3.72,0,5.59,0,.13,1,.27,2,.43,3.2l-9.3.67Z" />
            <path class="color-shadow" d="M367.71,504,374,504c.22.66.47,1.33.68,2s.08,1.24-.79,1.31l-3.26-.08Z" />
            <path class="color-shadow" d="M297.64,494.89c.14.16.27.32.41.47Z" />
            <path class="transparent"
                d="M395.78,518.82c-.13,1-.25,1.92-.38,2.88-.06.21-.12.42-.19.63l-.1.81-.1.52c-.72,4.86-1.43,9.73-2.2,14.89l-3.59-1.18c2-6.24,3.9-12.38,5.84-18.52Z" />
            <path class="color-shadow"
                d="M375.81,504.46l14.41,0a5.47,5.47,0,0,1-5.09,2.45,33,33,0,0,0-5.25.18C376.89,507.38,376.87,507.41,375.81,504.46Z" />
            <path class="transparent"
                d="M395.78,518.82l-.72,0c.69-3.46,1.41-6.92,2.07-10.4.13-.67.77-1.49-.22-2.08l.6-1,.4.06v2.29c0,.21.09.41.13.62Q396.9,513.58,395.78,518.82Z" />
            <path class="outline"
                d="M391.6,503.48c.4-1,.74-2.06,1.23-3a.81.81,0,0,1,1.38-.24c-.22.46-.45.91-.68,1.37l0-.05-.9,1.41a1.56,1.56,0,0,0-.16.2Z" />
            <path class="color-base" d="M395.21,522.33c.07-.21.13-.42.19-.63Z" />
            <path class="color-base" d="M395,523.66l.1-.52a1.78,1.78,0,0,1,.07.39S395.07,523.61,395,523.66Z" />
            <path class="outline"
                d="M398.22,501.68a38.09,38.09,0,0,1-8.63,13.1c-1.28,1.3-2.66,2.51-4,3.73a3.27,3.27,0,0,1-1.21.75,1.71,1.71,0,0,1-1.31-.16c-.25-.22-.26-.84-.2-1.25a3.78,3.78,0,0,1,.53-1.32C387.07,510.33,392.36,505.72,398.22,501.68Zm-12,13.36c-.43.56-.86,1.11-1.28,1.67l.44.37,1.52-1.51c1.14-1.21,2.31-2.38,3.41-3.62a11.63,11.63,0,0,0,2.7-4.2A35.06,35.06,0,0,0,386.24,515Zm7.54-8.62.42.35.74-.94-.43-.39Z" />
            <path class="transparent"
                d="M403.26,501.62l1.14,1.26-.28.34-1.39-.62C402.91,502.28,403.08,502,403.26,501.62Z" />
            <path class="transparent" d="M405.41,507.8a27.62,27.62,0,0,1,3.48,7A11.61,11.61,0,0,1,405.41,507.8Z" />
            <path class="outline" d="M380,499h-4.17v-.22H380Z" />
            <path class="transparent"
                d="M393.53,501.6c.23-.46.46-.91.68-1.37l.78-.11C394.93,501.45,394.66,501.73,393.53,501.6Z" />
            <path class="color-shadow" d="M404.11,505.44l.85.94-.41.27-.42-1.23Z" />
            <path class="transparent" d="M392.67,503l.9-1.41C394.15,502.59,393.13,502.59,392.67,503Z" />
            <path class="color-shadow" d="M404.13,505.42l-.05-.07c-.07-.27,0-.09,0,.09Z" />
            <path class="transparent"
                d="M386.24,515a35.06,35.06,0,0,1,6.79-7.29,11.63,11.63,0,0,1-2.7,4.2c-1.1,1.24-2.27,2.41-3.41,3.62Z" />
            <path class="transparent" d="M386.24,515l.68.53-1.52,1.51-.44-.37C385.38,516.15,385.81,515.6,386.24,515Z" />
            <path class="color-shadow" d="M393.78,506.42l.73-1,.43.39-.74.94Z" />
        </g>
    </g>
</svg>
