<svg id="Nizy_bochonki" data-name="Nizy bochonki" xmlns="http://www.w3.org/2000/svg" viewBox="0 0 672 960">
    <g id="Midi_Bochonok" data-name="Midi Bochonok">
        <g id="img_23_img" data-name="img 23 img">
            <path class="outline"
                d="M393.69,539.33l1.61.92a17.65,17.65,0,0,1,2.05,1.23c1.47,1.17,1.44,2.4-.14,3.49a7.43,7.43,0,0,1-2.57,1.23,53.33,53.33,0,0,1-8.7,1.57,76.25,76.25,0,0,1-24-2.39,41,41,0,0,1-4.54-1.52,49.36,49.36,0,0,0-16.54-3.64c-5.75-.27-11.5-.45-17.41-.68-.55,2.56-2.58,3.3-4.74,3.71a32.33,32.33,0,0,1-21.24-2.79c-1.27-.65-2.56-1.25-2.64-3.07,0-.47-.93-1-1.53-1.31q-5.28-2.58-10.61-5c-3.43-1.58-3.93-3.07-2.11-6.34a12.57,12.57,0,0,0,1.5-3.25c1.19-5.36,3.64-10.22,5.76-15.21,1.87-4.42,3.7-8.85,5.54-13.27.19-.45.33-.91.55-1.34.73-1.48,1.78-1.69,2.68-.32,1.06,1.6,2.63,2.23,4.26,2.9,6.55,2.69,13.42,2.84,20.31,2.41,6.37-.4,12.73-1.12,19.09-1.77a121.41,121.41,0,0,1,19.63-.63c2.62.15,5.27-.16,7.91-.14,3.67,0,7.35.26,11,.25,11.19-.05,22.39-.17,33.59-.26,6.87-.05,13.75-.05,20.63-.15,4.64-.06,9.27-.34,13.9-.34,5.84,0,11.67.24,17.5.29a78,78,0,0,1,22.9,3.48c3.64,1.14,7.35,2.08,11.25,3.18l1.74-1.28c.28.46.52.77.68,1.11,2.74,5.6,5.46,11.21,8.23,16.79.81,1.64,1.8,3.2,2.67,4.81,1.19,2.19.95,3.43-1.25,4.55-6.47,3.29-12.91,6.66-20.26,7.8a89.53,89.53,0,0,0-9.76,2.38,11.42,11.42,0,0,0-3,1.4c-1.34.85-1.39,1.49-.47,2.74a6,6,0,0,0,.48.53c1.71,1.89.84,3.32-1.34,3.77a19,19,0,0,1-4.76.38c-6.63-.33-13.27-.57-19.87-1.24-6-.61-11.82-2-16.76-5.81a9.52,9.52,0,0,0-6.14-1.68c-3,0-6.07.29-9.1.33-4.72,0-9.44-.12-14.15,0-3.19.1-6.36.58-9.52,1a12.56,12.56,0,0,0-2.21.69Zm106.43-26.72a70.07,70.07,0,0,1-10.42-11.48c-.62-.87-1.12-1.75-2.6-1.29.19,2.17.37,4.32.56,6.47a33.15,33.15,0,0,1-2.43-6.24,2.16,2.16,0,0,0-1.76-1.71c-2.74-.54-5.47-1.14-8.22-1.61a33.29,33.29,0,0,0-3.86-.2v9.09l-.52,0c-.46-3.05-.92-6.1-1.39-9.27l-12.63-.54V501l-.26,0L455,495.85c-3.9,0-7.56-.35-11.22.33,1,2.2,1.91,4.27,2.84,6.34l-.43.2c-1.16-1.8-2.35-3.58-3.45-5.41a1.64,1.64,0,0,0-2.47-.73l-.27,2.84c-.32-1.21-.56-2.1-.83-3.08l-12.81.39c.87,5.57,1.78,10.83,2.49,16.12.24,1.76,1.15,3.51.36,5.35q-2.16-8.81-4.33-17.61c-.31-1.28-.62-2.57-1-3.95-1.66.32-3.28-.8-4.26,1-1.89-1.9-4.09-.72-6.05-.94v8.54c-.7-3.16-1.28-5.78-1.88-8.44H406.6c-.45,1.39-.85,2.66-1.25,3.92l-.28,0v-3.85H382.71c.11,1.55.2,2.89.29,4.23l-.26.05c-.39-1.41-.77-2.82-1.18-4.3-2.89-.08-5.65-.18-8.39,0-1.58,6.93-3.11,13.6-4.61,20.27-.22,1-.34,2-.5,3-.17-.08-.47-.18-.47-.24q.86-6,1.75-12c.43-2.9.88-5.8,1.32-8.69l.48-2.54a29,29,0,0,1-3.13,0,3.66,3.66,0,0,0-4.29,2.5,57.91,57.91,0,0,1-2.94,5.27l-.26-.12,2.41-7.39h-5.1c-.31,1.8-.58,3.42-.86,5l-.24,0v-5h-11a12.38,12.38,0,0,0-.57,1.81c-.39,3-.7,6-1.1,9-.24,1.8-.6,3.57-.9,5.36q.06-4.07.13-8.13c.05-.5.1-1,.16-1.51l.16-4.75v-1.54l-15.32,1.51c-.59,2.6-1.15,5.08-1.71,7.57l-.31-.05c.15-2.43.31-4.87.46-7.3l-12.12.9-1.79,5.52-.23-.08c.16-1.8.33-3.59.49-5.35-2.54-.46-2.54-.46-3.62,2.12l-.41.07c.12-.86.24-1.72.36-2.6-2.42-.59-4.81-1.13-7.17-1.77-2.11-.58-2.1-.64-3.13,1.51q-2.07,4.2-4.13,8.4l-3.34,5.29-.4-.22c2.55-5.27,5.1-10.55,7.7-16l-3.55-2c-.47,1-.91,1.81-1.26,2.68-1.49,3.7-3,7.39-4.41,11.14-2,5.6-5.65,10.61-6.33,16.72a4.52,4.52,0,0,1-.46,1.1c-.6,1.52-.56,1.68.88,2.39,1.94,1,3.89,1.86,5.85,2.79l7.25,3.43,6.91-14.47.51.21-6.43,17.18a28.19,28.19,0,0,0,22,2.43c.25-1.53.45-2.85.66-4.17q1.73-8.08,3.44-16.18a5.84,5.84,0,0,1,.34,1.55c-.2,2.46-.47,4.91-.71,7.37-.26,2.67-.52,5.33-.79,8.12.88.08,1.42.15,2,.18l17.21.88a54.11,54.11,0,0,1,15.37,3.33,74.67,74.67,0,0,0,10.56,3c3.43.67,7,.72,10.45,1.13a41.64,41.64,0,0,0,13.08-.76,31.79,31.79,0,0,0,4-1.37c-1.61-.88-2.66-1.42-3.68-2-1.79-1-2.94-2.48-2.53-4.69.52-2.82,1.07-5.64,1.66-8.44.52-2.49,1.11-5,1.67-7.45s1.27-4.7,1.89-7c.47-1.79.91-3.59,1.37-5.38l.28.08-.64,5.15a30.13,30.13,0,0,0-.92,3.44c-.66,4.65-1.24,9.31-1.86,14-.23,1.79-.49,3.58-.79,5.65,1.5-.36,2.63-.67,3.78-.9,5.28-1.09,10.63-1,16-.88,1.91,0,3.82.07,5.73,0,3.92,0,7.83-.17,11.75-.15a10.83,10.83,0,0,1,7.12,2.42c3.83,3.24,8.57,4.3,13.24,5.15,7.31,1.33,14.78,1.27,22.19,1.48a28,28,0,0,0,3.09-.25c-.54-1.39-.95-2.48-1.37-3.56l-.63-1.94q-2.74-9.37-5.5-18.73l-.3-.94-.85-1.59c-.22-1.39-.44-2.78-.65-4.17.15.11.39.19.44.33q3.65,9.31,7.24,18.65c.65,1.67,1.31,3.33,2,5l4.48-2.21,5.13-1.58a74.64,74.64,0,0,0,25.69-9.14c-.28-2.19-1.52-3.77-2.54-5.46-2.31-3.82-4.76-7.57-6.74-11.55-1.15-2.3-2.51-3.88-5-4.52-1.19-.3-2.34-.77-3.5-1.16l-.33.46L497,508.2l3.1,4.43Z" />
            <path class="color-base"
                d="M343.63,498.71c-.05,1.58-.11,3.17-.16,4.75-1,.41-1,.91-.16,1.51q-.07,4.06-.13,8.13a5.72,5.72,0,0,0-.45,1.75c.15,2,.42,4.08.65,6.1,1.76.13,2,0,2.13-1.07.2-1.5.38-3,.5-4.5.35-4.43.63-8.87,1-13.3a38.73,38.73,0,0,1,.77-4l5.21.75a5.68,5.68,0,0,1,.22.83c0,1,0,1.92,0,2.88,0,2.41,0,2.41,2.29,3.31-.21,2.26,1.07,3.22,3.31,3.14l.37,3.62c1.91-.71,2.08-.85,2.63-2.14a64.44,64.44,0,0,0,3.2-7.72c.87-3.08,2.68-4,5.6-3.53-.44,2.89-.89,5.79-1.32,8.69q-.9,6-1.75,12c0,.06.3.16.47.24.1.73.3,1.22,1.23.81,1.35-.59,1.68-1.89,2.1-3,1.38-3.82,2.69-7.67,4-11.52.73-2.17,1.38-4.37,2.11-6.68l2.24.13c.73,2,1.3,3.7,2,5.38.27.62.76,1.28,1.68,1a1.51,1.51,0,0,0,1-1.7c0-1.33,0-2.67,0-4.1a16.92,16.92,0,0,1,2.16-.19c1.9.12,3.8.34,5.7.46,3.41.22,6.83.39,10.24.59.14,0,.27.15.52.31a8.44,8.44,0,0,0,.18,1.77c.16.55.49,1.39.87,1.46a2.45,2.45,0,0,0,1.88-.57,7.69,7.69,0,0,0,1.21-2c.91-1.65.95-1.66,2.95-1.14.81,2.94,1.6,5.85,2.42,8.75a4.82,4.82,0,0,0,.64,1.53,1.57,1.57,0,0,0,2.92-.36,5.17,5.17,0,0,0,.42-1.37c.2-2.13.37-4.27.54-6.4.06-.77.1-1.54.17-2.55h7.6q2.16,8.81,4.33,17.61c.1.42.19.85.27,1.19l3-1.56c.11-5.47-1.54-10.85-1.84-16.46a8.24,8.24,0,0,1,2.11-.67c2.64-.09,5.28-.12,7.91,0a2.54,2.54,0,0,1,1.56,1.21c.94,1.48,1.63,3.12,2.62,4.56a54.87,54.87,0,0,0,3.73,4.64,1.55,1.55,0,0,0,2.17.23,1.53,1.53,0,0,0,.65-1.84c-.5-2.32-.83-4.68-1.23-7-.09-.51-.17-1-.28-1.68.82-.06,1.44-.14,2.06-.15,2.27,0,2.27,0,2.84,2.26.49,1.92.93,3.86,1.48,5.77.24.85.73,1.65,1.86,1.5s1.24-1,1.24-2c0-.48,0-.95,0-1.43,0-1.81,0-3.62,0-5.43a6.71,6.71,0,0,1,1.23-.21c2,.13,4,.34,5.94.44s2.33.31,2.86,2.17c.27.92.51,1.84.83,2.74s.78,1.41,1.76,1.3,1.16-.86,1.27-1.73c.17-1.31.48-2.6.78-4.2,3.27.41,6.32.84,9.39,1.13,1.29.13,1.68.67,1.9,1.92.5,2.89,1.25,5.74,1.91,8.6a1.83,1.83,0,0,0,2.3,1.51c1.31-.13,1.48-1,1.46-2,0-.88,0-1.76,0-2.64.07-1-.26-2.14.26-3.24.36.26.57.38.75.53,3.27,2.91,5.79,6.63,9.73,8.79a1.44,1.44,0,0,1,.49.52c1.23,1.94,2.45,3.88,3.82,6.06-2.05,1.24-3.9,2.47-5.84,3.51-4.53,2.42-9.49,3.71-14.32,5.35-.43.15-.75.63-1.12,1l-5.13,1.58a33.34,33.34,0,0,1-2.9-4.26c-2.26-4.72-4.32-9.53-6.51-14.28a20.37,20.37,0,0,0-3.44-5.54c-1.77.83-1.77.83-1.28,2.31.21,1.39.43,2.78.65,4.17-.1.73-.23,1.49.85,1.59l.3.94c-.22.36-.68.76-.62,1.06a83.52,83.52,0,0,0,5.21,17.07c.11.28.6.4.91.6l.63,1.94c-4.78-.18-9.55.21-14.34-.39-6.08-.77-12.09-1.67-17.9-3.79a76.31,76.31,0,0,0-26.91-4.42c-1.5,0-3,.4-4.5.43-4,.06-8,0-12,0a14.24,14.24,0,0,1-1.65-.2c-.62-2.77.23-5.32.48-7.9.22-2.21.58-4.41.71-6.62a3.26,3.26,0,0,0-1.85-3.53l.64-5.15-.28-.08c-.46,1.79-.9,3.59-1.37,5.38-.62,2.35-1.26,4.7-1.89,7-1.38.14-1.76,1.18-2.09,2.29-1.67,5.49-3.36,11-5,16.46-.55,1.84-.51,1.87-2.39,1.9s-3.52,0-5.28,0a55.85,55.85,0,0,1-15.71-2.53c-1.68-.5-3.37-1-5.08-1.32-3.34-.69-6.71-1.24-10-1.93a32,32,0,0,0-8-.95c-3.47.17-6.94.31-10.67.47v-2.43c0-5.28,0-10.55,0-15.83,0-1.17-.08-2.25-1.64-2.77-1.88,1.44-1.9,3.79-2.6,5.81q-1.72,8.1-3.44,16.18a19.51,19.51,0,0,1-7.28,1c-1.43-.07-2.89.13-4.31,0a46.81,46.81,0,0,1-5.35-1.05,1.59,1.59,0,0,1-1.24-2.19c.23-.93.53-1.83.77-2.76,1.14-4.54,2.29-9.08,3.38-13.63.42-1.76.11-2.28-1.67-3.31-.88,1.17-1.83,2.33-2.65,3.57-2.19,3.33-4.33,6.68-6.46,10-.93,1.45-1.17,1.49-2.59.47-1-.73-2.12-1.4-3.18-2.09l-3-2c.1-.42.09-.61.18-.72a48.23,48.23,0,0,0,7.42-13.55,13,13,0,0,0,.42-2.27q2.06-4.2,4.13-8.4a3.31,3.31,0,0,1,1.15.14,29.83,29.83,0,0,0,8.43,2.73.59.59,0,0,1,0,.32l.14.39.22-.35a.79.79,0,0,1,.07-.4l0,0,.41-.07c.35.36.92.66,1,1.08.28,1.23.3,2.51.55,3.75a8.83,8.83,0,0,0,.83,1.8,6.11,6.11,0,0,0,1.78-.92,4.58,4.58,0,0,0,1.14-2.05c.48-2.14,1.91-3,3.9-3.11,1.81-.12,3.61-.18,5.68-.28,0,2.91-1,5.87,0,8.86a3.14,3.14,0,0,0,2.61-2.58c.57-1.9,1.23-3.78,1.76-5.69a2.45,2.45,0,0,1,2-2Z" />
            <path class="color-shadow"
                d="M484.77,532.81c.37-.33.69-.81,1.12-1,4.83-1.64,9.79-2.93,14.32-5.35,1.94-1,3.79-2.27,5.84-3.51-1.37-2.18-2.59-4.12-3.82-6.06a1.44,1.44,0,0,0-.49-.52c-3.94-2.16-6.46-5.88-9.73-8.79-.18-.15-.39-.27-.75-.53-.52,1.1-.19,2.2-.26,3.24-.06.88,0,1.76,0,2.64,0,1-.15,1.9-1.46,2a1.83,1.83,0,0,1-2.3-1.51c-.66-2.86-1.41-5.71-1.91-8.6-.22-1.25-.61-1.79-1.9-1.92-3.07-.29-6.12-.72-9.39-1.13-.3,1.6-.61,2.89-.78,4.2-.11.87-.24,1.61-1.27,1.73s-1.47-.5-1.76-1.3-.56-1.82-.83-2.74c-.53-1.86-.85-2.07-2.86-2.17s-4-.31-5.94-.44a6.71,6.71,0,0,0-1.23.21c0,1.81,0,3.62,0,5.43,0,.48,0,.95,0,1.43,0,.93-.05,1.82-1.24,2s-1.62-.65-1.86-1.5c-.55-1.91-1-3.85-1.48-5.77-.57-2.26-.57-2.27-2.84-2.26-.62,0-1.24.09-2.06.15.11.65.19,1.17.28,1.68.4,2.35.73,4.71,1.23,7a1.53,1.53,0,0,1-.65,1.84,1.55,1.55,0,0,1-2.17-.23,54.87,54.87,0,0,1-3.73-4.64c-1-1.44-1.68-3.08-2.62-4.56a2.54,2.54,0,0,0-1.56-1.21c-2.63-.11-5.27-.08-7.91,0a8.24,8.24,0,0,0-2.11.67c.3,5.61,1.95,11,1.84,16.46l-3,1.56c-.08-.34-.17-.77-.27-1.19.79-1.84-.12-3.59-.36-5.35-.71-5.29-1.62-10.55-2.49-16.12l12.81-.39c.27,1,.51,1.87.83,3.08l.27-2.84a1.64,1.64,0,0,1,2.47.73c1.1,1.83,2.29,3.61,3.45,5.41l.43-.2c-.93-2.07-1.85-4.14-2.84-6.34,3.66-.68,7.32-.33,11.22-.33l1.63,5.14.26,0v-5.12l12.63.54c.47,3.17.93,6.22,1.39,9.27l.52,0v-9.09a33.29,33.29,0,0,1,3.86.2c2.75.47,5.48,1.07,8.22,1.61a2.16,2.16,0,0,1,1.76,1.71,33.15,33.15,0,0,0,2.43,6.24c-.19-2.15-.37-4.3-.56-6.47,1.48-.46,2,.42,2.6,1.29a70.07,70.07,0,0,0,10.42,11.48l.09.1-.11-.08L497,508.2l-4.65-6.76.33-.46c1.16.39,2.31.86,3.5,1.16,2.49.64,3.85,2.22,5,4.52,2,4,4.43,7.73,6.74,11.55,1,1.69,2.26,3.27,2.54,5.46A74.64,74.64,0,0,1,484.77,532.81Z" />
            <path class="color-shadow"
                d="M295,507.62a13,13,0,0,1-.42,2.27,48.23,48.23,0,0,1-7.42,13.55c-.09.11-.08.3-.18.72l3,2c1.06.69,2.15,1.36,3.18,2.09,1.42,1,1.66,1,2.59-.47,2.13-3.36,4.27-6.71,6.46-10,.82-1.24,1.77-2.4,2.65-3.57,1.78,1,2.09,1.55,1.67,3.31-1.09,4.55-2.24,9.09-3.38,13.63-.24.93-.54,1.83-.77,2.76a1.59,1.59,0,0,0,1.24,2.19,46.81,46.81,0,0,0,5.35,1.05c1.42.17,2.88,0,4.31,0a19.51,19.51,0,0,0,7.28-1c-.21,1.32-.41,2.64-.66,4.17a28.19,28.19,0,0,1-22-2.43l6.43-17.18-.51-.21L296.93,535l-7.25-3.43c-2-.93-3.91-1.84-5.85-2.79-1.44-.71-1.48-.87-.88-2.39a4.52,4.52,0,0,0,.46-1.1c.68-6.11,4.29-11.12,6.33-16.72,1.36-3.75,2.92-7.44,4.41-11.14.35-.87.79-1.69,1.26-2.68l3.55,2c-2.6,5.4-5.15,10.68-7.7,16l.4.22Zm10,11.25-.22-.09-.32.71.21.09Z" />
            <path class="color-shadow"
                d="M324,520c.7-2,.72-4.37,2.6-5.81,1.56.52,1.64,1.6,1.64,2.77,0,5.28,0,10.55,0,15.83v2.43c3.73-.16,7.2-.3,10.67-.47a32,32,0,0,1,8,.95c3.34.69,6.71,1.24,10,1.93,1.71.35,3.4.82,5.08,1.32a55.85,55.85,0,0,0,15.71,2.53c1.76,0,3.52,0,5.28,0s1.84-.06,2.39-1.9c1.66-5.49,3.35-11,5-16.46.33-1.11.71-2.15,2.09-2.29-.56,2.48-1.15,5-1.67,7.45-.59,2.8-1.14,5.62-1.66,8.44-.41,2.21.74,3.65,2.53,4.69,1,.6,2.07,1.14,3.68,2a31.79,31.79,0,0,1-4,1.37,41.64,41.64,0,0,1-13.08.76c-3.48-.41-7-.46-10.45-1.13a74.67,74.67,0,0,1-10.56-3A54.11,54.11,0,0,0,342,538.06l-17.21-.88c-.54,0-1.08-.1-2-.18.27-2.79.53-5.45.79-8.12.24-2.46.51-4.91.71-7.37A5.84,5.84,0,0,0,324,520Z" />
            <path class="color-shadow"
                d="M424.84,500.59h-7.6c-.07,1-.11,1.78-.17,2.55-.17,2.13-.34,4.27-.54,6.4a5.17,5.17,0,0,1-.42,1.37,1.57,1.57,0,0,1-2.92.36,4.82,4.82,0,0,1-.64-1.53c-.82-2.9-1.61-5.81-2.42-8.75-2-.52-2-.51-2.95,1.14a7.69,7.69,0,0,1-1.21,2,2.45,2.45,0,0,1-1.88.57c-.38-.07-.71-.91-.87-1.46a8.44,8.44,0,0,1-.18-1.77c-.25-.16-.38-.3-.52-.31-3.41-.2-6.83-.37-10.24-.59-1.9-.12-3.8-.34-5.7-.46a16.92,16.92,0,0,0-2.16.19c0,1.43,0,2.77,0,4.1a1.51,1.51,0,0,1-1,1.7c-.92.31-1.41-.35-1.68-1-.71-1.68-1.28-3.41-2-5.38l-2.24-.13c-.73,2.31-1.38,4.51-2.11,6.68-1.3,3.85-2.61,7.7-4,11.52-.42,1.16-.75,2.46-2.1,3-.93.41-1.13-.08-1.23-.81.16-1,.28-2,.5-3,1.5-6.67,3-13.34,4.61-20.27,2.74-.13,5.5,0,8.39,0,.41,1.48.79,2.89,1.18,4.3l.26-.05c-.09-1.34-.18-2.68-.29-4.23h22.36v3.85l.28,0c.4-1.26.8-2.53,1.25-3.92h5.09c.6,2.66,1.18,5.28,1.88,8.44v-8.54c2,.22,4.16-1,6.05.94,1-1.83,2.6-.71,4.26-1C424.22,498,424.53,499.31,424.84,500.59Z" />
            <path class="color-shadow"
                d="M395.5,513.58a3.26,3.26,0,0,1,1.85,3.53c-.13,2.21-.49,4.41-.71,6.62-.25,2.58-1.1,5.13-.48,7.9a14.24,14.24,0,0,0,1.65.2c4,0,8,0,12,0,1.5,0,3-.43,4.5-.43a76.31,76.31,0,0,1,26.91,4.42c5.81,2.12,11.82,3,17.9,3.79,4.79.6,9.56.21,14.34.39.42,1.08.83,2.17,1.37,3.56a28,28,0,0,1-3.09.25c-7.41-.21-14.88-.15-22.19-1.48-4.67-.85-9.41-1.91-13.24-5.15a10.83,10.83,0,0,0-7.12-2.42c-3.92,0-7.83.12-11.75.15-1.91,0-3.82,0-5.73,0-5.35-.1-10.7-.21-16,.88-1.15.23-2.28.54-3.78.9.3-2.07.56-3.86.79-5.65.62-4.65,1.2-9.31,1.86-14A30.13,30.13,0,0,1,395.5,513.58Z" />
            <path class="color-shadow"
                d="M370.66,499.19c-2.92-.5-4.73.45-5.6,3.53a64.44,64.44,0,0,1-3.2,7.72c-.55,1.29-.72,1.43-2.63,2.14l-.37-3.62c-2.24.08-3.52-.88-3.31-3.14-2.28-.9-2.28-.9-2.29-3.31,0-1,0-1.92,0-2.88a5.68,5.68,0,0,0-.22-.83l-5.21-.75a38.73,38.73,0,0,0-.77,4c-.39,4.43-.67,8.87-1,13.3-.12,1.5-.3,3-.5,4.5-.16,1.12-.37,1.2-2.13,1.07-.23-2-.5-4.06-.65-6.1a5.72,5.72,0,0,1,.45-1.75c.3-1.79.66-3.56.9-5.36.4-3,.71-6,1.1-9a12.38,12.38,0,0,1,.57-1.81h11v5l.24,0c.28-1.62.55-3.24.86-5h5.1l-2.41,7.39.26.12a57.91,57.91,0,0,0,2.94-5.27,3.66,3.66,0,0,1,4.29-2.5,29,29,0,0,0,3.13,0Z" />
            <path class="color-shadow"
                d="M343.63,498.71l-12.88,2.12a2.45,2.45,0,0,0-2,2c-.53,1.91-1.19,3.79-1.76,5.69a3.14,3.14,0,0,1-2.61,2.58c-1-3,.05-5.95,0-8.86-2.07.1-3.87.16-5.68.28-2,.15-3.42,1-3.9,3.11a4.58,4.58,0,0,1-1.14,2.05,6.11,6.11,0,0,1-1.78.92,8.83,8.83,0,0,1-.83-1.8c-.25-1.24-.27-2.52-.55-3.75-.09-.42-.66-.72-1-1.08,1.08-2.58,1.08-2.58,3.62-2.12-.16,1.76-.33,3.55-.49,5.35l.23.08,1.79-5.52,12.12-.9c-.15,2.43-.31,4.87-.46,7.3l.31.05c.56-2.49,1.12-5,1.71-7.57l15.32-1.51Z" />
            <path class="color-shadow"
                d="M465.51,512.62c-.49-1.48-.49-1.48,1.28-2.31a20.37,20.37,0,0,1,3.44,5.54c2.19,4.75,4.25,9.56,6.51,14.28a33.34,33.34,0,0,0,2.9,4.26l-4.48,2.21c-.66-1.67-1.32-3.33-2-5Q469.57,522.27,466,513C465.9,512.81,465.66,512.73,465.51,512.62Z" />
            <path class="color-shadow"
                d="M308.71,502.09a29.83,29.83,0,0,1-8.43-2.73,3.31,3.31,0,0,0-1.15-.14c1-2.15,1-2.09,3.13-1.51,2.36.64,4.75,1.18,7.17,1.77-.12.88-.24,1.74-.36,2.6l0,0A.51.51,0,0,1,308.71,502.09Z" />
            <path class="color-shadow"
                d="M472.81,538.05c-.31-.2-.8-.32-.91-.6a83.52,83.52,0,0,1-5.21-17.07c-.06-.3.4-.7.62-1.06Q470.05,528.68,472.81,538.05Z" />
            <path class="color-shadow" d="M343.31,505c-.85-.6-.79-1.1.16-1.51C343.41,504,343.36,504.47,343.31,505Z" />
            <path class="color-shadow" d="M467,518.38c-1.08-.1-.95-.86-.85-1.59Z" />
            <path class="outline"
                d="M308.71,502.09a.51.51,0,0,0,.4,0,.79.79,0,0,0-.07.4l-.36,0A.59.59,0,0,0,308.71,502.09Z" />
            <path class="color-shadow" d="M308.68,502.41l.36,0-.22.35Z" />
            <polygon class="outline" points="500.1 512.63 500.21 512.71 500.12 512.62 500.1 512.63" />
            <path class="outline" d="M305,518.87l-.33.71-.21-.09.32-.71Z" />
        </g>
    </g>
</svg>
