<svg id="Nizy_bochonki" data-name="Nizy bochonki" xmlns="http://www.w3.org/2000/svg" viewBox="0 0 672 960">
    <g id="Midi_Bochonok" data-name="Midi Bochonok">
        <g id="img_22_img" data-name="img 22 img">
            <path class="color-base"
                d="M306.22,488.58a60.88,60.88,0,0,1,15,2.93,18.75,18.75,0,0,0,4.9.88c5.88.44,11.77.85,17.66,1.1,5.57.24,11.16.34,16.74.35,4.06,0,8.14-.1,12.19-.37,3.25-.22,6.48-.82,9.73-1.12,5.39-.51,10.79-.94,16.18-1.36q8.94-.67,17.88-1.26c4-.26,8-.5,11.94-.64,5.5-.18,11-.31,16.5-.36,2.55,0,5.1.31,7.64.3,3.27,0,6.54-.37,9.8-.29A193.35,193.35,0,0,1,483.59,490c.39.06.79.05,1.33.09.77-1.4,1.79-2.5,3.64-2.45,1.42.05,1.81.4,1.81,1.85a13.18,13.18,0,0,0,.29,2l.07,0c-1,0-1,.66-1.21,1.41-1.38,4.91-2.86,9.78-4.27,14.68a2.71,2.71,0,0,1-2.77,2.15c-2.31.11-4.61.3-6.9.49-2.06.16-4.12.33-6.18.56a63.15,63.15,0,0,1-7.08.81c-8.86,0-17.72-.27-26.58-.43l-.48,0c-4.12-.31-8.24-.81-12.36-.89-7.09-.13-14.2-.33-21.24.87a12.52,12.52,0,0,1-2.87,0c-2.23-.12-4.44-.3-6.66-.44q-3.81-.25-7.62-.45a13.68,13.68,0,0,0-1.92.05c-1.34.11-2.68.34-4,.38-7.58.19-15.16.33-22.74.5-.4,0-.8.05-1.2.09-2.84.28-5.67.75-8.52.83-5,.13-10.08.1-15.12,0a49.24,49.24,0,0,1-6.39-.65c-3.45-.52-6.88-1.15-10.32-1.74-1.66-.28-3.11-.87-3.65-2.65-1-3.34-2.13-6.67-2.95-10.06C307,494.24,306.69,491.39,306.22,488.58Z" />
            <path class="color-shadow"
                d="M306.22,488.58c.47,2.81.79,5.66,1.46,8.43.82,3.39,1.93,6.72,2.95,10.06.54,1.78,2,2.37,3.65,2.65,3.44.59,6.87,1.22,10.32,1.74a49.24,49.24,0,0,0,6.39.65c5,.1,10.08.13,15.12,0,2.85-.08,5.68-.55,8.52-.83.4,0,.8-.08,1.2-.09,7.58-.17,15.16-.31,22.74-.5,1.34,0,2.68-.27,4-.38a13.68,13.68,0,0,1,1.92-.05q3.81.19,7.62.45c2.22.14,4.43.32,6.66.44a12.52,12.52,0,0,0,2.87,0c7-1.2,14.15-1,21.24-.87,4.12.08,8.24.58,12.36.89l.48,0c8.86.16,17.72.39,26.58.43a63.15,63.15,0,0,0,7.08-.81c2.06-.23,4.12-.4,6.18-.56,2.29-.19,4.59-.38,6.9-.49a2.71,2.71,0,0,0,2.77-2.15c1.41-4.9,2.89-9.77,4.27-14.68.21-.75.24-1.41,1.21-1.41.57.42,1,.51,1.25-.37l2-7.85.35-.37,0,0,.19-.05h.2c.15.34.47.71.42,1-.26,1.77-.61,3.53-.93,5.3,0,.27-.07.54-.1.81-.14.54-.27,1.07-.4,1.61-.45,2.31-.85,4.63-1.36,6.93-.91,4.1-1.8,8.22-2.86,12.28-.65,2.48-1.24,2.82-3.72,2.77-2.3-.05-4.61-.46-6.89-.3a97.73,97.73,0,0,0-10.35,1.37A83.19,83.19,0,0,1,452.25,516c-4.69-.08-9.41,0-14.06-.56a113.82,113.82,0,0,0-15-.86,7,7,0,0,1-2.15,0c-3.65-1.16-7.27.32-10.9.11-.25,0-.52.31-.78.47l-8.65-.25h-1.38l-1.53,0-4.69,0-1.06,0-1.35,0h-1.45c-.48-1.15-1.5-.72-2.3-.71-9.58.13-19.16.26-28.73.49-1.89,0-3.77.53-5.66.75-4.65.56-9.3,1.08-13.95,1.62-.71.08-1.42.2-2.13.21a37.27,37.27,0,0,1-5,0c-2.13-.24-4.21-.88-6.34-1.08a61.51,61.51,0,0,1-18.13-4.83,3,3,0,0,1-1.49-1.36c-.86-2.13-1.59-4.32-2.28-6.51-1.11-3.56-2.15-7.15-3.24-10.73-.5-1.65-1-3.3-1.56-5l.13-1.87A16.88,16.88,0,0,1,306.22,488.58Z" />
            <path class="outline"
                d="M400.73,514.83l8.65.25a5.87,5.87,0,0,0,1.13.29c6.6.34,13.21.76,19.81,1,8.78.3,17.55.55,26.33.58,6.78,0,13.56-.36,20.34-.49,3.75-.07,7.5.06,11.25,0,1.82,0,3.84-.12,4.79-2,1.45-2.92,2.72-5.94,4-8.94.94-2.18,1.78-4.41,2.67-6.61.78-.35,1.16.18,1.1.75a23.44,23.44,0,0,1-.75,4.43c-.75,2.43-1.69,4.81-2.58,7.19-.61,1.65-1.19,3.3-1.93,4.89a4.53,4.53,0,0,1-4.61,2.75c-5.28-.18-10.55-.36-15.82-.43-3.12,0-6.24.19-9.36.2-5.51,0-11,0-16.53-.1-5-.1-10.06-.33-15.09-.58-8.54-.41-17.08-1-25.62-1.31A214.94,214.94,0,0,0,381,517c-10.19.94-20.35,2-30.52,3.17-9.46,1-18.89,2.45-28.44,1.32a43.87,43.87,0,0,1-11.19-2.53,46.6,46.6,0,0,0-6-1.69,5.78,5.78,0,0,1-4.73-4.41c-1.66-5.83-3.81-11.52-5.59-17.32a55.44,55.44,0,0,1-1.38-7,8.82,8.82,0,0,1,.14-2c1.29.83,1.29,1.94,1.67,2.85,2.76,7.14,5.58,14.26,8.24,21.44.79,2.12,1.8,3.63,4.2,3.94a8.77,8.77,0,0,1,2.47.91c7.35,3.49,15.24,4,23.17,4.13a58.89,58.89,0,0,0,6.21-.43q6-.54,11.92-1.13c9.13-.89,18.26-1.84,27.4-2.68,3.57-.34,7.16-.46,10.74-.68h1.45l1.35,0,1.06,0,4.69,0,1.53,0Z" />
            <path class="color-shadow-dark"
                d="M389.27,514.8c-3.58.22-7.17.34-10.74.68-9.14.84-18.27,1.79-27.4,2.68q-6,.58-11.92,1.13a58.89,58.89,0,0,1-6.21.43c-7.93-.17-15.82-.64-23.17-4.13a8.77,8.77,0,0,0-2.47-.91c-2.4-.31-3.41-1.82-4.2-3.94-2.66-7.18-5.48-14.3-8.24-21.44.79-1.42,2.17-1.57,3.58-1.65.52,1.65,1.06,3.3,1.56,5,1.09,3.58,2.13,7.17,3.24,10.73.69,2.19,1.42,4.38,2.28,6.51a3,3,0,0,0,1.49,1.36A61.51,61.51,0,0,0,325.2,516c2.13.2,4.21.84,6.34,1.08a37.27,37.27,0,0,0,5,0c.71,0,1.42-.13,2.13-.21,4.65-.54,9.3-1.06,13.95-1.62,1.89-.22,3.77-.7,5.66-.75,9.57-.23,19.15-.36,28.73-.49C387.77,514.08,388.79,513.65,389.27,514.8Z" />
            <path class="color-shadow-dark"
                d="M499.71,498.83c-.89,2.2-1.73,4.43-2.67,6.61-1.29,3-2.56,6-4,8.94-.95,1.92-3,2-4.79,2-3.75.08-7.5,0-11.25,0-6.78.13-13.56.52-20.34.49-8.78,0-17.55-.28-26.33-.58-6.6-.22-13.21-.64-19.81-1a5.87,5.87,0,0,1-1.13-.29c.26-.16.53-.48.78-.47,3.63.21,7.25-1.27,10.9-.11a7,7,0,0,0,2.15,0,113.82,113.82,0,0,1,15,.86c4.65.53,9.37.48,14.06.56a83.19,83.19,0,0,0,16.36-1.33A97.73,97.73,0,0,1,479,513.27c2.28-.16,4.59.25,6.89.3,2.48,0,3.07-.29,3.72-2.77,1.06-4.06,1.95-8.18,2.86-12.28.51-2.3.91-4.62,1.36-6.93a8.69,8.69,0,0,0,1.94,1.55c1.89.73,3.14,1.75,3,4C498.76,497.71,498.68,498.67,499.71,498.83Z" />
            <path class="color-shadow-dark" d="M492,491.14c-.2.88-.68.79-1.25.37l-.07,0Z" />
            <path class="color-shadow-dark" d="M494.8,482.84h-.2l-.19.05.49-.41Z" />
            <path class="color-shadow-dark"
                d="M494.19,490c0-.27.07-.54.1-.81C494.26,489.44,494.22,489.71,494.19,490Z" />
            <path class="color-shadow-dark" d="M494.37,482.92l-.35.37Z" />
            <path class="color-shadow-dark" d="M397.82,514.79l-4.69,0Z" />
            <path class="color-shadow-dark" d="M392.07,514.78l-1.35,0Z" />
            <path class="color-shadow-dark" d="M400.73,514.83h0Z" />
        </g>
    </g>
</svg>
