<svg id="Nizy_bochonki" data-name="Nizy bochonki" xmlns="http://www.w3.org/2000/svg" viewBox="0 0 672 960">
    <g id="Midi_Bochonok" data-name="Midi Bochonok">
        <g id="img_21_img" data-name="img 21 img">
            <path class="outline"
                d="M294.54,493.47a21.16,21.16,0,0,1,2.22.68c1.31.57,2.6,1.2,3.89,1.81,5.89,2.76,12.11,3.14,18.47,2.53,4.44-.43,8.91-.67,13.34-1.2a313.22,313.22,0,0,1,33.23-2.51c3.52,0,7,.14,10.55.25,3.19.1,6.39.34,9.58.36,9.52,0,19,.08,28.56,0,5.67-.06,11.34-.4,17-.64a154.15,154.15,0,0,1,23.73.48c4,.45,8.14.38,12.21.46,5.52.1,11.07-.09,16.48,1.13,3.5.79,6.89,2,10.35,3a34.5,34.5,0,0,0,5.14,1c1.69.19,2.34.87,1.51,2.27-.92,1.55-.87,3.15-1.06,4.81-.28,2.53-.9,5-1.3,7.53-.19,1.18-.21,2.38-.32,3.57a17.76,17.76,0,0,1-.32,2.85c-.93,3.47-1.95,6.92-2.9,10.39-.45,1.62-1.71,2-3.12,2.08-5.26.47-10.51.91-15.77,1.4-2.62.25-5.23.7-7.86.88-8,.57-16,1.1-23.92,1.54-8.22.45-16.45.88-24.67,1.15-7.35.24-14.7.33-22.05.33-16.07,0-32.14-.11-48.21-.19a174.31,174.31,0,0,1-27.49-1.78c-2.05-.34-4.06-.86-6.07-1.38-2.4-.62-4.77-1.33-7.15-2a16.37,16.37,0,0,1-2.06-.64,5.14,5.14,0,0,1-3.45-4.24c-1-5.41-2.57-10.7-3.88-16a30.49,30.49,0,0,1-.92-4.7,36.8,36.8,0,0,0-2-8.86C295.67,497.77,295.18,495.77,294.54,493.47Zm4.12,6-.39-.1.11.38c.75,4,1.44,8,2.27,12,.42,2,1.17,4,1.61,6,.75,3.43,1.36,6.88,2.05,10.33a15.14,15.14,0,0,0,.47,1.55l8.6,3a41.69,41.69,0,0,0,6.36,2.06c5.74,1,11.51,2,17.3,2.36,7,.48,14,.39,21.07.52,1.91,0,3.82,0,5.72,0l24,.13,24,0c4.15,0,8.3,0,12.44-.11,5.18-.18,10.36-.54,15.54-.83.8,0,1.6-.08,2.4-.14,4.22-.27,8.44-.53,12.66-.83,3.27-.23,6.53-.43,9.79-.77,2.93-.31,5.84-.85,8.77-1.17,3.33-.37,6.68-.55,10-.93,2.54-.29,5.06-.7,7.57-1.2a2.75,2.75,0,0,0,1.86-1.19,38.13,38.13,0,0,0,2.68-10.15c.27-2.76.63-5.53,1.1-8.27a26.33,26.33,0,0,0,.55-8.82c-2.94-.87-5.75-1.77-8.6-2.53a50.4,50.4,0,0,0-8.38-2c-5-.46-10.05-.46-15.08-.66-3.76-.15-7.52-.16-11.26-.5-8.55-.8-17.09-.35-25.64-.09-5.35.17-10.7.49-16,.59-4.8.1-9.6,0-14.4,0-7.75,0-15.48.3-23.25-.22-12.24-.82-24.43.48-36.6,1.73-3.34.35-6.67.78-10,1.13-4.05.42-8.1.79-12.15,1.18H312Z" />
            <path class="color-shadow"
                d="M411.8,537.59l-24,0c-.05-.84-.61-1-1.32-1q-4.05-.21-8.1-.49c-2.06-.14-4.12-.34-6.18-.52-3.56-.3-7.11-.79-10.68-.86s-7.31.41-11,.39a136.88,136.88,0,0,1-14.33-.56c-4.63-.52-9.22-1.6-13.79-2.58-4.35-.93-8.66-2-13-3.08a2.77,2.77,0,0,1-2.24-2.22c-.38-2-.73-4.07-1-6.11a66.28,66.28,0,0,0-1.88-11,35.58,35.58,0,0,1-1-4.42c-.34-2.06.48-3.07,2.53-3.07,1,0,2,.27,3.07.33s2.23.61,3-.61h3.75c.21.22.4.59.64.62a31.17,31.17,0,0,0,4.48.56c4.71.08,9.43.05,14.14.06-.12.84-.72.91-1.41.93-4.54.15-9.08.46-13.61.45-4.22,0-8.46.46-12.66-.42a5.84,5.84,0,0,0-1.54.17,9.79,9.79,0,0,0,0,1.73c.59,3,1.19,5.92,1.86,8.85.71,3.1,1.46,6.19,2.3,9.24a2.9,2.9,0,0,0,1.3,1.85,99.75,99.75,0,0,0,9.79,3,61.21,61.21,0,0,0,7.78,1.1c4.41.49,8.82,1.19,13.25,1.28a149.39,149.39,0,0,0,15.54-.28c4.73-.39,9.54.21,14.32.38.16,0,.31,0,.47.06,3.08.29,6.16.7,9.24.85,5.26.25,10.52.35,15.77.52.4,0,.79.14,1.18.14a58.64,58.64,0,0,0,6.63,0c3.55-.37,7.05-1.24,10.59-1.51,4.85-.37,9.71-.41,14.57-.53,3.2-.07,6.4.09,9.59-.06,4.53-.21,9-.76,13.56-.87a86.66,86.66,0,0,0,14.2-1.46c1.56-.29,3.11-.64,4.66-1,3.57-.76,7.13-1.56,10.71-2.28a2.42,2.42,0,0,0,2.05-2.32c.26-2.29.35-4.6.55-6.89a45.61,45.61,0,0,1,.74-6.62c.37-1.59-.12-2.66-1.31-3.2-2.59-1.2-5.23-2.59-8-3.06-4.28-.73-8.69-.77-13.05-1.08-2.61-.19-5.23-.34-7.85-.54-.27,0-.53-.3-.79-.46a7.4,7.4,0,0,1,1.79-.43c7.89.22,15.8-.56,23.68.45,2.67.35,5.37.59,8,1.05s3.26,1.55,2.78,4.22a2.22,2.22,0,0,0-.14.93c.57,2.24-.15,4.39-.47,6.55-.46,3.14-1.3,6.22-1.13,9.45a11.8,11.8,0,0,1-.63,4,4.18,4.18,0,0,1-3.4,3.05,29.3,29.3,0,0,1-5.44.51,41,41,0,0,0-9.68,1.21c-3,.68-6.07,1.21-9.12,1.71-1.72.28-3.47.39-5.2.55-3.24.3-6.47.71-9.72.87-6.37.32-12.74-.09-19.13.36-4.83.34-9.66.76-14.5,1.1C412.49,536.67,411.89,536.73,411.8,537.59Z" />
            <path class="color-shadow-dark"
                d="M411.8,537.59c.09-.86.69-.92,1.38-1,4.84-.34,9.67-.76,14.5-1.1,6.39-.45,12.76,0,19.13-.36,3.25-.16,6.48-.57,9.72-.87,1.73-.16,3.48-.27,5.2-.55,3-.5,6.11-1,9.12-1.71a41,41,0,0,1,9.68-1.21,29.3,29.3,0,0,0,5.44-.51,4.18,4.18,0,0,0,3.4-3.05,11.8,11.8,0,0,0,.63-4c-.17-3.23.67-6.31,1.13-9.45.32-2.16,1-4.31.47-6.55a2.22,2.22,0,0,1,.14-.93c.48-2.67-.16-3.77-2.78-4.22s-5.35-.7-8-1.05c-7.88-1-15.79-.23-23.68-.45a7.4,7.4,0,0,0-1.79.43c-1.11,0-2.23,0-3.34-.09-3-.25-6-.71-9-.81-2.37-.08-4.74.33-7.12.4-2.79.08-5.58,0-8.37,0-.38-.31-.76-.88-1.15-.89q-4.63-.1-9.26,0c-.39,0-.76.58-1.14.9-2,.15-3.92.41-5.87.44-4.27.07-8.54,0-12.81,0-.39-.31-.78-.86-1.18-.88-4.54-.23-9.08-.36-13.62-.53-.84,0-1.61.06-2,.93-3.25-.15-6.5-.34-9.74-.43a12.28,12.28,0,0,0-3.53.35,51.52,51.52,0,0,1-16.47,2,29.1,29.1,0,0,0-3.09.11c-4.25.22-8.47,1.38-12.75.39-4.71,0-9.43,0-14.14-.06a31.17,31.17,0,0,1-4.48-.56c-.24,0-.43-.4-.64-.62,4.05-.39,8.1-.76,12.15-1.18,3.33-.35,6.66-.78,10-1.13,12.17-1.25,24.36-2.55,36.6-1.73,7.77.52,15.5.21,23.25.22,4.8,0,9.6.14,14.4,0,5.35-.1,10.7-.42,16-.59,8.55-.26,17.09-.71,25.64.09,3.74.34,7.5.35,11.26.5,5,.2,10.07.2,15.08.66a50.4,50.4,0,0,1,8.38,2c2.85.76,5.66,1.66,8.6,2.53a26.33,26.33,0,0,1-.55,8.82c-.47,2.74-.83,5.51-1.1,8.27a38.13,38.13,0,0,1-2.68,10.15,2.75,2.75,0,0,1-1.86,1.19c-2.51.5-5,.91-7.57,1.2-3.33.38-6.68.56-10,.93-2.93.32-5.84.86-8.77,1.17-3.26.34-6.52.54-9.79.77-4.22.3-8.44.56-12.66.83-.8.06-1.6.1-2.4.14-5.18.29-10.36.65-15.54.83C420.1,537.63,416,537.56,411.8,537.59Z" />
            <path class="color-shadow-dark"
                d="M312,501.81c-.81,1.22-2,.67-3,.61s-2-.34-3.07-.33c-2,0-2.87,1-2.53,3.07a35.58,35.58,0,0,0,1,4.42,66.28,66.28,0,0,1,1.88,11c.25,2,.6,4.08,1,6.11a2.77,2.77,0,0,0,2.24,2.22c4.32,1,8.63,2.15,13,3.08,4.57,1,9.16,2.06,13.79,2.58a136.88,136.88,0,0,0,14.33.56c3.66,0,7.32-.46,11-.39s7.12.56,10.68.86c2.06.18,4.12.38,6.18.52q4,.29,8.1.49c.71,0,1.27.17,1.32,1l-24-.13c-1.9,0-3.81,0-5.72,0-7-.13-14.07,0-21.07-.52-5.79-.4-11.56-1.4-17.3-2.36a41.69,41.69,0,0,1-6.36-2.06l-8.6-3a15.14,15.14,0,0,1-.47-1.55c-.69-3.45-1.3-6.9-2.05-10.33-.44-2-1.19-4-1.61-6-.83-4-1.52-8-2.27-12l.29-.29Z" />
            <path class="color-shadow-dark" d="M298.38,499.8l-.11-.38.39.09A3.83,3.83,0,0,1,298.38,499.8Z" />
            <path class="color-base"
                d="M397.43,501.07c4.27,0,8.54.05,12.81,0,1.95,0,3.91-.29,5.87-.44,2.36.16,4.72.42,7.08.45a35.65,35.65,0,0,0,4.47-.46c2.79,0,5.58,0,8.37,0,2.38-.07,4.75-.48,7.12-.4,3,.1,6,.56,9,.81,1.11.1,2.23.06,3.34.09.26.16.52.44.79.46,2.62.2,5.24.35,7.85.54,4.36.31,8.77.35,13.05,1.08,2.77.47,5.41,1.86,8,3.06,1.19.54,1.68,1.61,1.31,3.2a45.61,45.61,0,0,0-.74,6.62c-.2,2.29-.29,4.6-.55,6.89a2.42,2.42,0,0,1-2.05,2.32c-3.58.72-7.14,1.52-10.71,2.28-1.55.33-3.1.68-4.66,1a86.66,86.66,0,0,1-14.2,1.46c-4.52.11-9,.66-13.56.87-3.19.15-6.39,0-9.59.06-4.86.12-9.72.16-14.57.53-3.54.27-7,1.14-10.59,1.51a58.64,58.64,0,0,1-6.63,0c-.39,0-.78-.13-1.18-.14-5.25-.17-10.51-.27-15.77-.52-3.08-.15-6.16-.56-9.24-.85-.16,0-.31,0-.47-.06-4.78-.17-9.59-.77-14.32-.38a149.39,149.39,0,0,1-15.54.28c-4.43-.09-8.84-.79-13.25-1.28a61.21,61.21,0,0,1-7.78-1.1,99.75,99.75,0,0,1-9.79-3A2.9,2.9,0,0,1,310,524c-.84-3-1.59-6.14-2.3-9.24-.67-2.93-1.27-5.89-1.86-8.85a9.79,9.79,0,0,1,0-1.73,5.84,5.84,0,0,1,1.54-.17c4.2.88,8.44.41,12.66.42,4.53,0,9.07-.3,13.61-.45.69,0,1.29-.09,1.41-.93,4.28,1,8.5-.17,12.75-.39a29.1,29.1,0,0,1,3.09-.11,51.52,51.52,0,0,0,16.47-2,12.28,12.28,0,0,1,3.53-.35c3.24.09,6.49.28,9.74.43a7.05,7.05,0,0,0,1.75.49C387.37,501.11,392.4,501.08,397.43,501.07Z" />
            <path class="color-shadow"
                d="M397.43,501.07c-5,0-10.06,0-15.08,0a7.05,7.05,0,0,1-1.75-.49c.42-.87,1.19-1,2-.93,4.54.17,9.08.3,13.62.53C396.65,500.21,397,500.76,397.43,501.07Z" />
            <path class="color-shadow"
                d="M427.66,500.6a35.65,35.65,0,0,1-4.47.46c-2.36,0-4.72-.29-7.08-.45.38-.32.75-.89,1.14-.9q4.62-.1,9.26,0C426.9,499.72,427.28,500.29,427.66,500.6Z" />
        </g>
    </g>
</svg>
