<svg id="Nizy_bochonki" data-name="Nizy bochonki" xmlns="http://www.w3.org/2000/svg" viewBox="0 0 672 960">
    <g id="Midi_Bochonok" data-name="Midi Bochonok">
        <g id="img_24_img" data-name="img 24 img">
            <path class="color-base"
                d="M303,488l-1.59-16.2.48-.16a13.73,13.73,0,0,1,.81,2,69.16,69.16,0,0,1,1.5,6.79,3.86,3.86,0,0,0,3.19,3.43c2.17.21,2.57,1.56,3.23,3a17.11,17.11,0,0,1,.52,1.78l-1.65-1-1.86,1c2.33.33,4.47.52,6.54,1,2.41.53,4.76,1.32,7.16,1.92a23.58,23.58,0,0,0,4,.67c11.39.75,22.76,1.87,34.2,1.51,4.31-.14,8.64,0,12.94-.27,4.05-.27,8.07-1.08,12.12-1.44,6.28-.55,12.57-.95,18.86-1.39q7.88-.54,15.76-1c3.91-.25,7.81-.6,11.71-.67,6.47-.11,12.94,0,19.41,0,3.68,0,7.35-.16,11-.17A187.44,187.44,0,0,1,484.05,490c.61.07,1.23.1,1.79.14,1.78-3.27,1.78-3.27,3.54-2.64l1.07-1.77a6.89,6.89,0,0,1-.06,3.9,7.42,7.42,0,0,0,0,1.76c-.57.61-1.41,1.14-1.66,1.86-1.41,4-2.68,8.09-4,12.14l-3.37-.1-.71-.17c-.55,0-1.11.07-1.66.05-6.8-.2-13.59-.38-20.38-.65-3.91-.16-7.83-.34-11.72-.75a312.1,312.1,0,0,0-36.17-1.51q-18.71.19-37.41.27c-10.56.06-21.11,0-31.66.17-7.83.14-15.65.66-23.48.9-3.67.11-7.35,0-11-.07-.76-3.13-1.47-6.28-2.29-9.39C304.33,492.07,303.62,490.06,303,488Z" />
            <path class="outline"
                d="M307.16,503.5c3.68,0,7.36.18,11,.07,7.83-.24,15.65-.76,23.48-.9,10.55-.18,21.1-.11,31.66-.17q18.71-.11,37.41-.27a312.1,312.1,0,0,1,36.17,1.51c3.89.41,7.81.59,11.72.75,6.79.27,13.58.45,20.38.65.55,0,1.11,0,1.66-.05l.71.17,3.37.1,6.29.22,5.53.64,3.14-7.39c.76-.32,1.16.16,1.1.75a22.58,22.58,0,0,1-.76,4.42c-.74,2.44-1.68,4.81-2.57,7.2-.61,1.64-1.19,3.3-1.93,4.88a4.52,4.52,0,0,1-4.61,2.76c-5.19-.17-10.38-.34-15.57-.43-2.56,0-5.12,0-7.68.11a314.44,314.44,0,0,1-31.61-.53c-7-.4-14-.83-21.07-1-8.87-.25-17.74-.56-26.6-.34-7.66.18-15.32.9-23,1.65-10.57,1-21.1,2.65-31.69,3.45-8,.6-16,0-23.59-3a50.49,50.49,0,0,0-6-1.66,5.15,5.15,0,0,1-4-3.92c-1.74-5.9-3.88-11.67-5.69-17.54a59.13,59.13,0,0,1-1.43-7.27,6.53,6.53,0,0,1,.2-1.74c1.3.65,1.22,1.8,1.63,2.67.42,1.19.83,2.39,1.28,3.57,1.06,2.84,2.22,5.65,3.18,8.53.6,1.77,1.52,2.66,3.49,2.38A41.12,41.12,0,0,1,307.16,503.5Zm170.83,3c-6.46-.22-12.93-.41-19.4-.67-3.11-.12-6.24-.21-9.33-.57a220.88,220.88,0,0,0-25.57-1.68c-14,0-28,.16-41.95.23-13.27.06-26.53,0-39.79.2-8,.11-16,.65-23.94.93-3.43.13-6.87.11-10.3.15h-3.63l0,.55c.74.06,1.47.18,2.21.18q26.31,0,52.62,0a15.07,15.07,0,0,0,2.11-.29l19.42,0c12.55,0,25.1,0,37.64-.12,7.2-.06,14.37.35,21.54.93,4.93.4,9.89.46,14.84.68a26.88,26.88,0,0,0,2.83.3c8.88.07,17.76,0,26.63.16,3.6,0,7.19.35,10.78.51a6.7,6.7,0,0,0,1.39-.22,1.37,1.37,0,0,0-1.06-.73C489.33,506.77,483.66,506.63,478,506.47Zm-173.64,1-2.25-.11a3.17,3.17,0,0,0,0,.75c.24.67.5,1.34.77,2,1.44,3.52,1.45,3.52,5,4.71.68.23,1.34.52,2,.76a63,63,0,0,0,6.29,2.27c8.3,2.11,16.74,2.17,25.19,1.28,6.11-.64,12.18-1.52,18.29-2.11,7.3-.7,14.61-1.25,21.93-1.78,3.49-.25,7-.31,10.51-.46l1.06,0,4.69,0,1.53,0h1.38l8.19.2a4.5,4.5,0,0,0,1.1.34c6.76.35,13.52.76,20.28,1,8.61.29,17.22.55,25.83.58,6.7,0,13.39-.37,20.09-.5,4-.08,8,0,12,0,1.68,0,3.53-.06,4.55-1.58a44.58,44.58,0,0,0,2.67-5.36l-5.34-.27-4.07,0c-1.25-.15-2.49-.42-3.74-.45-9-.2-17.91-.25-26.86-.54-6.55-.22-13.09-.8-19.63-1.1-6.79-.3-13.58-.57-20.37-.64-5.51-.05-11,.3-16.54.33-22,.11-44,.14-66,.26C323.37,507.15,313.86,507.34,304.35,507.47Z" />
            <path class="color-shadow"
                d="M307.16,503.5a41.12,41.12,0,0,0-4.3.2c-2,.28-2.89-.61-3.49-2.38-1-2.88-2.12-5.69-3.18-8.53-.45-1.18-.86-2.38-1.28-3.57,1.34-1.32,1.34-1.32,3.39-1.62a6.19,6.19,0,0,1,.52-1.41c.76-1.16,1.68-1.09,2.18.25.37,1,.84,1.67,2,1.6.63,2,1.34,4,1.88,6.07C305.69,497.22,306.4,500.37,307.16,503.5Z" />
            <path class="color-shadow"
                d="M491,505.58l-6.29-.22c1.32-4.05,2.59-8.12,4-12.14.25-.72,1.09-1.25,1.66-1.86,1.7-.31,2.22-1.94,3.21-2.82l.24,4a7.71,7.71,0,0,0-.9,1.88C492.27,498.13,491.67,501.86,491,505.58Z" />
            <path class="color-shadow-dark"
                d="M491,505.58c.63-3.72,1.23-7.45,1.92-11.16a7.71,7.71,0,0,1,.9-1.88l2.41.88a3.19,3.19,0,0,1,2.45,3.3c0,.73-.15,1.79,1,2.11l-3.14,7.39Z" />
            <path class="color-shadow" d="M481.38,505.26l-.71-.17Z" />
            <path class="color-shadow"
                d="M408.92,515l-8.19-.2h-1.38l-1.53,0-4.69,0-1.06,0a14.51,14.51,0,0,0-3.2-.68c-10.19,0-20.39-.37-30.58.45-1.81.15-3.62.39-5.42.68C348,516.06,343,517,338,517c-.71,0-1.41.19-2.12.25a11.92,11.92,0,0,1-2.84.17c-4.23-.67-8.41-1.58-12.64-2.13s-7.77-2.24-11.66-3.31c-2.08-.57-3.79-1.66-4-4.14,1.75.14,3.69-.58,5.06,1.25.2.27.91.15,1.38.22,2.35.32,4.75.45,7.05,1a65.37,65.37,0,0,0,16.06,1.88c3.27,0,6.55.06,9.83,0s6.35-.3,9.53-.49c4.67-.29,9.34-.82,14-.9,9.11-.14,18.23,0,27.34,0a6.4,6.4,0,0,1,1.91,0c3.66,1.18,7.27-.18,10.91-.16,5.17,0,10.35-.37,15.53-.29,4,.06,7.91.61,11.87.87,3.33.21,6.67.51,10,.45,6.77-.13,13.55.48,20.32-.38,5.43-.68,10.91-1,16.36-1.51,1.34-.12,2.67-.32,4-.49l4.07,0a5.55,5.55,0,0,1-.13.71c-1.15,3.51-1.36,3.71-5.05,3.64-1.89,0-3.81-.51-5.68-.35-3.54.3-7.06.92-10.59,1.38a99.11,99.11,0,0,1-11.07,1.31c-6.28.1-12.57-.26-18.85-.42l-.48-.06c-3.07-.29-6.14-.68-9.22-.85-2.71-.15-5.52.4-8.12-.16-3.88-.82-7.59.47-11.38.22C409.31,514.63,409.11,514.9,408.92,515Z" />
            <path class="color-base"
                d="M486,509.24c-1.34.17-2.67.37-4,.49-5.45.5-10.93.83-16.36,1.51-6.77.86-13.55.25-20.32.38-3.34.06-6.68-.24-10-.45-4-.26-7.91-.81-11.87-.87-5.18-.08-10.36.32-15.53.29-3.64,0-7.25,1.34-10.91.16a6.4,6.4,0,0,0-1.91,0c-9.11,0-18.23-.11-27.34,0-4.68.08-9.35.61-14,.9-3.18.19-6.36.4-9.53.49s-6.56,0-9.83,0a65.37,65.37,0,0,1-16.06-1.88c-2.3-.55-4.7-.68-7.05-1-.47-.07-1.18.05-1.38-.22-1.37-1.83-3.31-1.11-5.06-1.25l-.45-.33c9.51-.13,19-.32,28.54-.37,22-.12,44-.15,66-.26,5.52,0,11-.38,16.54-.33,6.79.07,13.58.34,20.37.64,6.54.3,13.08.88,19.63,1.1,8.95.29,17.9.34,26.86.54C483.5,508.82,484.74,509.09,486,509.24Z" />
            <path class="color-shadow"
                d="M454.43,506.92c-4.95-.22-9.91-.28-14.84-.68-7.17-.58-14.34-1-21.54-.93-12.54.11-25.09.09-37.64.12l-19.42,0c-1,0-1.91,0-2.87,0q-23.82,0-47.63,0a20.12,20.12,0,0,1-2.78-.35c3.43,0,6.87,0,10.3-.15,8-.28,16-.82,23.94-.93,13.26-.2,26.52-.14,39.79-.2,14-.07,28-.24,41.95-.23a220.88,220.88,0,0,1,25.57,1.68c3.09.36,6.22.45,9.33.57,6.47.26,12.94.45,19.4.67a16.84,16.84,0,0,1-2.52.37C468.45,506.89,461.44,506.9,454.43,506.92Z" />
            <path class="color-shadow-dark"
                d="M304.35,507.47l.45.33c.17,2.48,1.88,3.57,4,4.14,3.89,1.07,7.58,2.78,11.66,3.31s8.41,1.46,12.64,2.13a11.92,11.92,0,0,0,2.84-.17c.71-.06,1.41-.25,2.12-.25,5,0,9.93-.9,14.85-1.72,1.8-.29,3.61-.53,5.42-.68,10.19-.82,20.39-.42,30.58-.45a14.51,14.51,0,0,1,3.2.68c-3.5.15-7,.21-10.51.46-7.32.53-14.63,1.08-21.93,1.78-6.11.59-12.18,1.47-18.29,2.11-8.45.89-16.89.83-25.19-1.28a63,63,0,0,1-6.29-2.27c-.68-.24-1.34-.53-2-.76-3.51-1.19-3.52-1.19-5-4.71-.27-.67-.53-1.34-.77-2a3.17,3.17,0,0,1,0-.75Z" />
            <path class="color-shadow-dark"
                d="M408.92,515c.19-.13.39-.4.57-.39,3.79.25,7.5-1,11.38-.22,2.6.56,5.41,0,8.12.16,3.08.17,6.15.56,9.22.85l.48.06c6.28.16,12.57.52,18.85.42a99.11,99.11,0,0,0,11.07-1.31c3.53-.46,7.05-1.08,10.59-1.38,1.87-.16,3.79.32,5.68.35,3.69.07,3.9-.13,5.05-3.64a5.55,5.55,0,0,0,.13-.71l5.34.27a44.58,44.58,0,0,1-2.67,5.36c-1,1.52-2.87,1.57-4.55,1.58-4,0-8-.07-12,0-6.7.13-13.39.52-20.09.5-8.61,0-17.22-.29-25.83-.58-6.76-.23-13.52-.64-20.28-1A4.5,4.5,0,0,1,408.92,515Z" />
            <path class="color-shadow-dark"
                d="M307.71,505.06a20.12,20.12,0,0,0,2.78.35q23.82,0,47.63,0c1,0,1.91,0,2.87,0a15.07,15.07,0,0,1-2.11.29q-26.31,0-52.62,0c-.74,0-1.47-.12-2.21-.18l0-.55Z" />
            <path class="color-shadow-dark"
                d="M454.43,506.92c7,0,14,0,21-.08a16.84,16.84,0,0,0,2.52-.37c5.67.16,11.34.3,17,.47a1.37,1.37,0,0,1,1.06.73,6.7,6.7,0,0,1-1.39.22c-3.59-.16-7.18-.47-10.78-.51-8.87-.11-17.75-.09-26.63-.16A26.88,26.88,0,0,1,454.43,506.92Z" />
            <path class="color-shadow-dark" d="M393.13,514.81l4.69,0Z" />
            <path class="color-shadow-dark" d="M399.35,514.83h0Z" />
        </g>
    </g>
</svg>
