<svg id="Nizy_pryamoy" data-name="Nizy pryamoy" xmlns="http://www.w3.org/2000/svg" viewBox="0 0 672 960">
    <g id="img_17" data-name="img 17">
        <g id="img_11_img" data-name="img 11 img">
            <path class="outline"
                d="M455,602.36c7.71-.44,15.41-.84,23.11-1.33,4.27-.27,8.53-.66,12.79-1,3.53-.32,7.05-.77,10.59-1.06,1.66-.13,3.33,0,5,0l.73-2.92h.3c.42,1,1.19,1.95,1.19,2.92a36.06,36.06,0,0,1-.77,5.23,26.86,26.86,0,0,0-.37,2.82c-.19,3.48-.33,7-.48,10.46a6.75,6.75,0,0,0,.16,1.07c.28,1.93-.08,2.27-2,2.6-8.34,1.45-16.77,1.59-25.21,1.8-6.15.15-12.29.73-18.43,1.06-8.23.44-16.45.4-24.69.05-8.43-.36-16.87-.35-25.3-.53-11.32-.23-22.64-.3-33.94-.8-8.26-.36-16.49-1.36-24.75-1.94-7.85-.55-15.72-1-23.58-1.35-3.71-.19-7.43-.18-11.14-.29-1.91-.06-2.18-.29-2.36-2.21-.29-3.06-.48-6.13-.77-9.18a37.18,37.18,0,0,0-.61-3.78,23.33,23.33,0,0,1,.62-12.59c.16-.44,0-1,.19-1.4a6.51,6.51,0,0,1,1-1.26c.42.36.85.7,1.24,1.08.09.08.09.3.08.46-.21,2.46,1.43,3.73,3.24,4.73a20.66,20.66,0,0,0,7.22,2c1.77.26,3.47.89,5.22,1.25a22.86,22.86,0,0,0,3.2.35c16.67,1.13,33.34,2.28,50,3.33,2.34.15,4.72-.33,7.08-.33q30.58.07,61.18.23l.21.19a.31.31,0,0,1,0,.19l-.83.12,0,.15Zm-33.6,1.46c-.43,0-.87-.07-1.31-.07-6.71,0-13.42.12-20.12.1-4.51,0-9-.13-13.53-.27-2.51-.08-5-.3-7.52-.45l-.72,0L377,603l-2.14-.13-1.7-.17-.94-.07-1.47-.1-2.13-.15-.51-.06-2.61-.17-.52-.05-3.08-.2-1.7-.13-2.14-.11a1.5,1.5,0,0,0-.43-.16c-4.78-.34-9.57-.64-14.35-1-3.94-.29-7.87-.73-11.82-.93-4.26-.21-8.54-.23-12.81-.3a1.06,1.06,0,0,0-.87.41,6.63,6.63,0,0,0-.79,2.59c.17,4.35.46,8.68.78,13a1.23,1.23,0,0,0,.85.82c2.46.22,4.94.38,7.41.48,2.15.08,4.32-.07,6.47.1,8,.62,16,1.32,23.95,2,7.62.64,15.24,1.42,22.88,1.91,6.05.38,12.12.43,18.19.61,2.11.06,4.23.05,6.35.09,6.44.12,12.87.26,19.3.37,4,.06,7.92.06,11.87.14,4.58.09,9.17.42,13.74.32,8-.17,16-.58,24-.9q6.75-.27,13.49-.61c3.82-.19,7.65-.4,11.46-.68,2.22-.17,4.43-.49,6.7-.75a49.19,49.19,0,0,1,.8-17.71,10.17,10.17,0,0,0-2.43-.48q-8.68.3-17.36.74c-9.61.5-19.21,1.18-28.82,1.53-7.91.28-15.83.17-23.75.28C429.07,603.56,425.24,603.71,421.4,603.82Z" />
            <path class="color-base" d="M455,601.9l-.21-.19h2.07v0Z" />
            <path class="color-base" d="M455,602.36h-.9l0-.15.83-.12Z" />
            <path class="color-base"
                d="M361.89,601.85l3.08.2.52.05,2.61.17.51.06,2.13.15,1.47.1.94.07c.49.81,1.09.54,1.7.17L377,603c.16.21.34.6.48.58s.49-.29.73-.45l.72,0c.16.23.3.64.48.66,3.19.36,6.38.84,9.59,1,4.49.16,9,0,13.48.06,3.62.07,7.23.32,10.85.45.87,0,1.75-.25,2.61-.19,3.8.27,7.59.73,11.39.89,3.63.16,7.27,0,10.9,0,.32,0,.64-.29.95-.44l4.79,0h.72c1.87-.08,3.73-.22,5.6-.21,2.62,0,5.24.15,7.87.2q6.92.13,13.85.24c1.85,0,3.71,0,5.56,0H478c7,1.2,13.84-.94,20.89-1.3a8.2,8.2,0,0,1,0,1.22c-.39,2.54-.79,5.09-1.24,7.63,0,.24-.46.54-.74.59-1.37.21-2.76.33-4.13.51-3.43.44-6.87.78-10.27,1.37s-6.89,1.6-10.37,2.17a109.55,109.55,0,0,1-19.81,1.75c-.13-.08-.26-.22-.4-.23-3.84-.25-7.68-.51-11.52-.74-2.77-.17-5.54-.38-8.32-.46-4.18-.14-8.36-.19-12.54-.24-.27,0-.55.29-.83.44-.59-.07-1.18-.18-1.77-.22-3.61-.24-7.21-.52-10.83-.7-4.21-.21-8.43-.38-12.66-.48-1.78,0-3.58.21-5.37.2-7,0-14.05-.08-21.08-.25-2.57-.07-5.13-.5-7.7-.78l-9.7-1.11-.73-.23h-.71a65.64,65.64,0,0,0-7.4-1.63c-5.21-.57-10.45-.89-15.68-1.24-1.09-.08-1.27-.49-1.06-1.45a26.43,26.43,0,0,0,.38-2.95c.18-2.06.33-4.12.49-6.18h4.55c.1.07.19.19.29.19,3.11.1,6.23.2,9.35.26.22,0,.46-.29.69-.45h1.42l.73.22c2.57.16,5.14.36,7.71.47,1.73.07,3.47.07,5.19,0a29,29,0,0,0,3.19-.51l2.14.11C360.71,602.4,361.29,602.25,361.89,601.85Z" />
            <path class="color-shadow-dark"
                d="M348.2,614.88h.71l.73.23,9.7,1.11c2.57.28,5.13.71,7.7.78,7,.17,14.06.21,21.08.25,1.79,0,3.59-.24,5.37-.2,4.23.1,8.45.27,12.66.48,3.62.18,7.22.46,10.83.7.59,0,1.18.15,1.77.22,3.8.24,7.6.53,11.41.72,2.9.14,5.81.16,8.71.26,1.75.06,3.49.16,5.24.27,2.41.14,4.83.31,7.24.42.33,0,.68-.29,1-.44a109.55,109.55,0,0,0,19.81-1.75c3.48-.57,6.9-1.57,10.37-2.17s6.84-.93,10.27-1.37c1.37-.18,2.76-.3,4.13-.51.28,0,.7-.35.74-.59.45-2.54.85-5.09,1.24-7.63a8.2,8.2,0,0,0,0-1.22c-7.05.36-13.87,2.5-20.89,1.3h-.48c-1.85,0-3.71,0-5.56,0q-6.93-.11-13.85-.24c-2.63,0-5.25-.19-7.87-.2-1.87,0-3.73.13-5.6.21H444l-4.79,0c-3.1-.09-6.21-.16-9.31-.26a51.8,51.8,0,0,1-5.72-.3c-.93-.13-2.25.21-2.74-1.14,3.84-.11,7.67-.26,11.5-.31,7.92-.11,15.84,0,23.75-.28,9.61-.35,19.21-1,28.82-1.53q8.67-.44,17.36-.74a10.17,10.17,0,0,1,2.43.48,49.19,49.19,0,0,0-.8,17.71c-2.27.26-4.48.58-6.7.75-3.81.28-7.64.49-11.46.68q-6.74.34-13.49.61c-8,.32-16,.73-24,.9-4.57.1-9.16-.23-13.74-.32-3.95-.08-7.91-.08-11.87-.14-6.43-.11-12.86-.25-19.3-.37-2.12,0-4.24,0-6.35-.09-6.07-.18-12.14-.23-18.19-.61-7.64-.49-15.26-1.27-22.88-1.91-8-.68-16-1.38-23.95-2-2.15-.17-4.32,0-6.47-.1-2.47-.1-4.95-.26-7.41-.48a1.23,1.23,0,0,1-.85-.82c-.32-4.34-.61-8.67-.78-13a6.63,6.63,0,0,1,.79-2.59,1.06,1.06,0,0,1,.87-.41c4.27.07,8.55.09,12.81.3,3.95.2,7.88.64,11.82.93,4.78.35,9.57.65,14.35,1a1.5,1.5,0,0,1,.43.16,29,29,0,0,1-3.19.51c-1.72.08-3.46.08-5.19,0-2.57-.11-5.14-.31-7.71-.47l-.73-.22h-1.42l-9.93-.22c-.13,0-.26.14-.4.22h-4.55l-2.32-.27c-.12,2.41-.27,4.59-.31,6.77,0,1.31.28,2.63.18,3.93s.53,1.46,1.43,1.55c4.62.42,9.25.81,13.87,1.22,1.58.14,3.16.39,4.74.42C344.41,615.09,346.31,614.94,348.2,614.88Z" />
            <path class="color-shadow"
                d="M421.4,603.82c.49,1.35,1.81,1,2.74,1.14a51.8,51.8,0,0,0,5.72.3c3.1.1,6.21.17,9.31.26-.31.15-.63.44-.95.44-3.63,0-7.27.15-10.9,0-3.8-.16-7.59-.62-11.39-.89-.86-.06-1.74.22-2.61.19-3.62-.13-7.23-.38-10.85-.45-4.49-.08-9,.1-13.48-.06-3.21-.11-6.4-.59-9.59-1-.18,0-.32-.43-.48-.66,2.51.15,5,.37,7.52.45,4.51.14,9,.26,13.53.27,6.7,0,13.41-.06,20.12-.1C420.53,603.75,421,603.79,421.4,603.82Z" />
            <path class="color-shadow-dark" d="M361.89,601.85c-.6.4-1.18.55-1.7-.13Z" />
            <path class="color-shadow-dark" d="M374.85,602.82c-.61.37-1.21.64-1.7-.17Z" />
            <path class="color-shadow" d="M378.2,603.08c-.24.16-.47.43-.73.45s-.32-.37-.48-.58Z" />
            <path class="color-shadow-dark" d="M372.21,602.58l-1.47-.1Z" />
            <path class="color-shadow-dark" d="M365.49,602.1l-.52-.05Z" />
            <path class="color-shadow-dark" d="M368.61,602.33l-.51-.06Z" />
            <path class="color-shadow"
                d="M348.2,614.88c-1.89.06-3.79.21-5.68.17-1.58,0-3.16-.28-4.74-.42-4.62-.41-9.25-.8-13.87-1.22-.9-.09-1.52-.36-1.43-1.55s-.2-2.62-.18-3.93c0-2.18.19-4.36.31-6.77l2.32.27c-.16,2.06-.31,4.12-.49,6.18a26.43,26.43,0,0,1-.38,2.95c-.21,1,0,1.37,1.06,1.45,5.23.35,10.47.67,15.68,1.24A65.64,65.64,0,0,1,348.2,614.88Z" />
            <path class="color-shadow"
                d="M452.36,619.68c-.33.15-.68.46-1,.44-2.41-.11-4.83-.28-7.24-.42-1.75-.11-3.49-.21-5.24-.27-2.9-.1-5.81-.12-8.71-.26-3.81-.19-7.61-.48-11.41-.72.28-.15.56-.44.83-.44,4.18,0,8.36.1,12.54.24,2.78.08,5.55.29,8.32.46,3.84.23,7.68.49,11.52.74C452.1,619.46,452.23,619.6,452.36,619.68Z" />
            <path class="color-shadow"
                d="M329.48,601.43c.14-.08.27-.22.4-.22l9.93.22c-.23.16-.47.45-.69.45-3.12-.06-6.24-.16-9.35-.26C329.67,601.62,329.58,601.5,329.48,601.43Z" />
            <path class="color-shadow" d="M341.23,601.44l.73.22Z" />
            <path class="color-shadow" d="M444,605.5h0Z" />
            <path class="color-shadow" d="M349.64,615.11l-.73-.23Z" />
            <path class="color-shadow" d="M477.56,605.74h0Z" />
        </g>
    </g>
</svg>
