<svg id="Nizy_pryamoy" data-name="Nizy pryamoy" xmlns="http://www.w3.org/2000/svg" viewBox="0 0 672 960">
    <g id="img_17" data-name="img 17">
        <g id="img_10_img" data-name="img 10 img">
            <path class="outline"
                d="M491.23,593.34l.68,0a11,11,0,0,0,1.09.29,17.68,17.68,0,0,1,3.38.58c1.71.67,3.32,1.61,5,2.45,1.1.56,2.17,1.15,3.28,1.68a8.5,8.5,0,0,0,1.57.52c.06,0,.2-.27.3-.42a16.13,16.13,0,0,1,.07-2.51c.08-.45.55-.82.84-1.23.31.39.79.75.88,1.19.19.93-.24,2,.64,2.78.15.14,0,.69-.12,1-.68,1.75-1.42,3.47-2.11,5.22-.95,2.42-1.92,4.83-2.78,7.27a4.8,4.8,0,0,1-4.54,3.61,112.61,112.61,0,0,1-19.26.18c-5.49-.44-11-.33-16.53-.56-6.59-.28-13.17-.66-19.75-1-3.63-.18-7.26-.38-10.9-.55-5.7-.28-11.41-.67-17.11-.75-5.39-.07-10.79,0-16.16.36-6.66.42-13.28,1.38-19.94,1.67-5.16.22-10.05,1.89-15.16,2.24s-10.34,1.25-15.51,1.32a99.93,99.93,0,0,1-13-1.22,17.79,17.79,0,0,1-3.52-1.13c-2.34-.82-4.64-1.72-7-2.44-2-.62-3.58-1.86-3.88-3.85-.76-5-3.16-9.29-4.75-13.93-.73-2.11-1.45-4.23-2.06-6.38-.15-.53,0-1.51.3-1.7a3,3,0,0,1,2.1-.18c.34.1.53,1,.64,1.5a13.14,13.14,0,0,1,.14,1.89l.45.49a.37.37,0,0,1,.09.2l.45.42.39.15,1.52.58.39.15a18.17,18.17,0,0,0,3.49,1.59,81.73,81.73,0,0,0,8.07,1.47c1.42.19,2.9-.08,4.35,0a55.71,55.71,0,0,0,11.82-.8c3.08-.47,6.16-1,9.26-1.35,2.77-.33,5.57-.49,8.35-.72l9.56-.77c.42,0,.84-.14,1.26-.21l7.89-.11a3.52,3.52,0,0,0,1.09.37c2.62,0,5.24-.13,7.86-.22.47,0,.93-.11,1.39-.17l12.5.11a7.87,7.87,0,0,0,1.36.22q12.12.06,24.23.07a7.12,7.12,0,0,0,1-.16l6.74.12c1.35.09,2.71.21,4.06.23a21.82,21.82,0,0,0,2.41-.23l4.82-.12c.42.06.84.14,1.26.16,1.22.08,2.44.13,3.66.19a8.74,8.74,0,0,1-2.39.44c-3.79.1-7.59.23-11.38.24-3.4,0-6.79-.15-10.18-.17-7,0-13.92-.15-20.88,0-11.82.21-23.66-.46-35.48.44-5.49.43-11,.57-16.48,1-4.8.42-9.57,1.19-14.36,1.71-4,.43-8,.89-12,1a24.92,24.92,0,0,1-10.37-2.12c-2-.83-4.07-1.34-6.51-2.13.48,1.13.63,2.23,1.26,2.74a7.89,7.89,0,0,0,3.06,1.23,31.85,31.85,0,0,0,4.14.65c3.64.37,7.3.94,10.95,1a96.07,96.07,0,0,0,10.12-.92c5.28-.52,10.55-1.23,15.84-1.53,6.42-.36,12.86-.42,19.29-.52,5-.08,10.06,0,15.09,0,4.67-.07,9.34-.32,14-.43,5-.13,10-.17,15-.27,1.64,0,3.27-.11,4.91-.17,4.07-.17,8.14-.48,12.21-.49,4.35,0,8.7.31,13.05.41s9,0,13.42.23c5.45.32,10.92.75,16.32,1.52a41.68,41.68,0,0,1,13.7,4.51,13.58,13.58,0,0,0,4.46,1.09c1.17.17,1.38-1,1.56-1.76,0-.22-.66-.69-1.09-.9a30.38,30.38,0,0,1-3.36-1.57c-4.62-3.07-9.94-3.61-15.2-4.16-3.93-.41-7.89-.36-11.84-.53-1,0-2-.11-3-.22-.18,0-.32-.32-.48-.5l.9,0,4.54.11,3.86.14,3.34.09,3.86.14ZM384.65,606.27l.48.74.14.23,1.35,2.82.45.74h0c.4.62.72,1.69,1.21,1.77a9.33,9.33,0,0,0,3.26-.3c.17,0,.32-.57.34-.89.05-.9,0-1.82,0-2.73l1.39,2.39a1,1,0,0,0,1.17,1c2.94-.14,5.89-.22,8.83-.4a5.6,5.6,0,0,0,1.59-.59l3.12-3.49.37-.05-1.18,3.85c1.85,0,3.6,0,5.34,0,.31,0,.64-.4.88-.69.61-.71,1.16-1.46,1.74-2.2l.32.18-.84,2.4.28.44,4.77.12L425,612l-.88-1.34-.53-1.35.44-.08,2.33,2.09c.82,1.13,2.11.83,3.18.91,4,.27,8,.38,11.94.56.36,0,.71.13,1.06.13h5.36l-.53-1.41-.91-4.08-.15-1.2.95.77.27.44,2.16,4.56a1.93,1.93,0,0,0,2.15,1.46c2.23,0,4.46.21,6.69.21,3.24,0,2.73.57,3.41-2.67.08-.38.1-.78.15-1.17l.18-.92.07-.28.05-.24.69.08c.14,1.09.28,2.18.43,3.28l.07.5,0,.47c-.2.79.19.95.89,1,4.74.08,9.48.18,14.21.27.37,0,.74,0,1.2-.08a4.29,4.29,0,0,1-.32-1.18c.08-.86-.37-1.85.54-2.53l.93,1.88a2.85,2.85,0,0,0,2.93,2.1c1.28,0,2.56.12,4,.19l-.87-3,.06-2.63.66-1.14.14.24c.17.93.33,1.87.49,2.8s.13,1.82.15,2.73.41,1.19,1.2,1.11c2-.2,3.94-.43,5.91-.64.88-.09,1.14-.49.9-1.37a6.16,6.16,0,0,1,.14-1.69c.34.5.5.72.65,1,1.26,1.89,2.36,2,3.47,0,1.26-2.21,2.32-4.54,3.45-6.82a3.16,3.16,0,0,0,.11-.89c-2.51.54-4.52-.44-6.49-1.66a23.92,23.92,0,0,0-2.65-1.27l-.58-.17-7.59-2.45-.45-.08-.75-.15-.46-.07-1.21-.2-.47-.06-1.21-.18-.47,0-1.7-.19-1.18-.07c-1.13-.08-2.27-.22-3.41-.25-3.74-.09-7.49-.14-11.23-.2l-1.68,0H452.85l-.53,0-5.72-.19-7.45,0-3.09.12-4.58.38c-2,0-3.92,0-5.88.08-1.63,0-3.26.1-4.89.14l-.49-.08-4.1.11-10.76.19-1.48,0-3.1.08-3.86.16-2.38.09-4.8.23-10.09-.1-1.44,0h-.73c-.4,0-.8-.07-1.19,0-7.06.33-14.12.61-21.17,1-3.42.21-6.83.61-10.22,1.11a58.71,58.71,0,0,1-18.94-.11c-2-.35-4-.62-6.15-1,.15.43.25.75.37,1.06,1.14,2.84,2.27,5.69,3.43,8.52.16.39.35.92.67,1.07,1.32.61,2.7,1.1,4.15,1.67l.2-2c1.55,2.21,2.83,4.35,5.74,4.56l-.73-4.14.12-.94L335,611c.76,2.41,1.79,4.54,4.82,4.55.16,0,.32,0,.48,0,3,.27,5.93.5,8.89.8,2.16.21,2.16.25,2.64-1.81a3.87,3.87,0,0,0,0-.48l1.09-3.3.32,0v3.25l-.73,2.21,1.86-.11c.59,0,1.19-.12,1.78-.14,2-.07,2.54-.43,3.21-2.29a10.08,10.08,0,0,0,.29-1.37l1.56-2.84.32.16-.69,3.68-.42,2c.23.08.35.16.45.15,2.59-.21,5.17-.4,7.75-.69.26,0,.62-.64.64-1,.08-1.4,0-2.8,0-4.47l.94,1.38.15.61c.18.6.38,1.2.52,1.81a1.29,1.29,0,0,0,1.69,1.08l2.19-.38-.43-1.92c2.07,1.51,2.07,1.51,4.72,1.41h.12l6.92-.62L385,610.77l-.4-1.89-.12-.5-.33-1.2.06-.72Z" />
            <path class="color-shadow-dark"
                d="M471.15,592.72c.16.18.3.48.48.5,1,.11,2,.18,3,.22,3.95.17,7.91.12,11.84.53,5.26.55,10.58,1.09,15.2,4.16A30.38,30.38,0,0,0,505,599.7c.43.21,1.13.68,1.09.9-.18.81-.39,1.93-1.56,1.76a13.58,13.58,0,0,1-4.46-1.09,41.68,41.68,0,0,0-13.7-4.51c-5.4-.77-10.87-1.2-16.32-1.52-4.46-.26-8.95-.12-13.42-.23s-8.7-.42-13.05-.41c-4.07,0-8.14.32-12.21.49-1.64.06-3.27.14-4.91.17-5,.1-10,.14-15,.27-4.68.11-9.35.36-14,.43-5,.08-10.06,0-15.09,0-6.43.1-12.87.16-19.29.52-5.29.3-10.56,1-15.84,1.53a96.07,96.07,0,0,1-10.12.92c-3.65,0-7.31-.59-10.95-1a31.85,31.85,0,0,1-4.14-.65,7.89,7.89,0,0,1-3.06-1.23c-.63-.51-.78-1.61-1.26-2.74,2.44.79,4.54,1.3,6.51,2.13a24.92,24.92,0,0,0,10.37,2.12c4-.11,8-.57,12-1,4.79-.52,9.56-1.29,14.36-1.71,5.48-.48,11-.62,16.48-1,11.82-.9,23.66-.23,35.48-.44,7-.12,13.92,0,20.88,0,3.39,0,6.78.18,10.18.17,3.79,0,7.59-.14,11.38-.24a8.74,8.74,0,0,0,2.39-.44c-1.22-.06-2.44-.11-3.66-.19-.42,0-.84-.1-1.26-.16l6.22-.1c.17.18.34.53.52.53q4.39,0,8.81-.08a3.9,3.9,0,0,0,.94-.29Z" />
            <path class="color-shadow-dark"
                d="M377.48,592.5c-.42.07-.84.18-1.26.21l-9.56.77c-2.78.23-5.58.39-8.35.72-3.1.37-6.18.88-9.26,1.35a55.71,55.71,0,0,1-11.82.8c-1.45-.09-2.93.18-4.35,0a81.73,81.73,0,0,1-8.07-1.47,18.17,18.17,0,0,1-3.49-1.59c3.72.84,7.44,1.69,11.16,2.49a13,13,0,0,0,2.5.21c7,.14,13.83-1,20.72-1.84s13.75-1.21,20.62-1.77A5.81,5.81,0,0,1,377.48,592.5Z" />
            <path class="color-shadow-dark"
                d="M434.83,592.61a7.12,7.12,0,0,1-1,.16q-12.1,0-24.23-.07a7.87,7.87,0,0,1-1.36-.22,5.57,5.57,0,0,1,.91-.15l24.68.12A6.28,6.28,0,0,1,434.83,592.61Z" />
            <path class="color-shadow-dark"
                d="M506.49,598.49c-.1.15-.24.43-.3.42a8.5,8.5,0,0,1-1.57-.52c-1.11-.53-2.18-1.12-3.28-1.68-1.64-.84-3.25-1.78-5-2.45a17.68,17.68,0,0,0-3.38-.58,11,11,0,0,1-1.09-.29,10.26,10.26,0,0,1,5.52,1c2.59,1.38,5.26,2.6,7.91,3.87A5.52,5.52,0,0,0,506.49,598.49Z" />
            <path class="color-shadow-dark"
                d="M395.71,592.37c-.46.06-.92.15-1.39.17-2.62.09-5.24.17-7.86.22a3.52,3.52,0,0,1-1.09-.37Z" />
            <path class="outline"
                d="M469.35,592.67a3.9,3.9,0,0,1-.94.29q-4.41.07-8.81.08c-.18,0-.35-.35-.52-.53l3.54,0,5.33.15Z" />
            <path class="color-shadow-dark" d="M448,592.73a21.82,21.82,0,0,1-2.41.23c-1.35,0-2.71-.14-4.06-.23Z" />
            <path class="color-shadow-dark" d="M468,592.63l-5.33-.15Z" />
            <path class="color-shadow-dark" d="M476.59,592.85l-4.54-.11Z" />
            <path class="color-shadow-dark" d="M491.23,593.34l-3.58-.12Z" />
            <path class="color-shadow-dark" d="M483.79,593.08l-3.34-.09Z" />
            <path class="color-shadow-dark" d="M320.93,593.13l-1.52-.58Z" />
            <path class="color-shadow-dark" d="M319,592.4l-.45-.42Z" />
            <path class="color-shadow-dark" d="M318.48,591.78l-.45-.49Z" />
            <path class="color-base"
                d="M485.48,598.07l.46.06.75.16.45.08a3.52,3.52,0,0,0,.74.44c1.65.52,3.3,1,5,1.5.63.19,1.26.34,1.89.51l.58.17,1.2,1.63-.45,1.22v.7c-.08.13-.23.27-.23.39,0,1.16-.52,1.69-1.68,1.83-2.06.26-4.11.64-6.17,1l-.14-.24-.27-1-.3.06-.38,1.09c-3.34.16-6.68.41-10,.47-4.56.08-9.12,0-13.68,0l-.44-.63-.39.62c-1.14-.07-2.28-.16-3.42-.21l-11.37-.49-.27-.44-.51-1.89-.38.09-.06,1,.15,1.2c-3.57-.23-7.13-.55-10.7-.67s-7.16-.07-10.73,0a49.31,49.31,0,0,0-5,.47,24.44,24.44,0,0,1-8.36,0,11.31,11.31,0,0,0-3.34.27l-.37.05a2.61,2.61,0,0,0-.8-.37c-1.29-.11-2.58-.25-3.87-.24-6,.07-12.05.19-18.08.28l-.14-.23c-.15-.34-.3-.68-.44-1l-.75-.47.22.74a.52.52,0,0,0,0,.21l-.06.72c-1.61.08-3.23.17-4.85.24-1.86.09-3.72.11-5.57.27-1.47.14-2.93.44-4.4.68h-.48c-1,.08-2.06.23-3.09.23-5.36,0-10.74.1-16.1,0a41,41,0,0,1-12.75-2.11,4.48,4.48,0,0,1-.84-.49,4.18,4.18,0,0,1,.94-.48c1.49-.36,3-.67,4.48-1H342l1.69-.48h.47l.73-.24h.47l.74-.46h2.37l.74-.23h.47l.74-.45h.47l1.69-.47,1.18,0,6.25-1.68h.47l.73-.24h.47l.73-.24h.94l1-.23,1.2-.23h4.07l2.89-.24h1.42l1.22-.23h.7l1-.42.71,0,.71-.21,1.45-.32,10.09.1c1.51,0,3,.08,4.52.1.09,0,.19-.22.28-.33l2.38-.09a4.61,4.61,0,0,0,3.86-.16l3.1-.08,1.48,0,10.76-.19,4.08.26.51-.28c1.63-.05,3.26-.12,4.89-.15,2,0,3.92,0,5.88-.08l4.08.25c.06,0,.12.15.18.15q3.83-.07,7.65-.19c.12,0,.23-.28.34-.42l2.87-.26,5.72.19.53,0h10.07l1.68,0c.19.15.38.42.59.43,3.24.19,6.49.41,9.74.47a33,33,0,0,0,4.31-.45l1.18.07,1.7.19.47,0,1.21.18.47.06Z" />
            <path class="color-shadow-dark"
                d="M369.55,599.49h-4.07l-1.2.23-1,.23h-.94l-.73.24h-.47l-.73.24H360c-.21-.05-.45-.18-.63-.13q-2.47.63-4.92,1.32a2.69,2.69,0,0,0-.7.49l-1.18,0-1.69.47h-.47l-.74.45h-.47l-.74.23h-2.37l-.74.46h-.47l-.73.24h-.47l-1.69.48h-.47a3.27,3.27,0,0,0-.75-.09,75.92,75.92,0,0,1-7.89,1,41.21,41.21,0,0,1-6.59-.82c-.91-.13-1.16.18-.91,1a3.34,3.34,0,0,0,2.15,2.22c1.66.66,3.27,1.43,4.94,2.08.33.13.8-.09,1.21-.15l.73,4.14c-2.91-.21-4.19-2.35-5.74-4.56l-.2,2c-1.45-.57-2.83-1.06-4.15-1.67-.32-.15-.51-.68-.67-1.07-1.16-2.83-2.29-5.68-3.43-8.52-.12-.31-.22-.63-.37-1.06,2.17.34,4.17.61,6.15,1a58.71,58.71,0,0,0,18.94.11c3.39-.5,6.8-.9,10.22-1.11,7.05-.43,14.11-.71,21.17-1,.39,0,.79,0,1.19,0v.5l-.71,0-1,.42h-.7l-1.22.23h-1.42C371.45,599,370.44,598.59,369.55,599.49Z" />
            <path class="color-shadow"
                d="M333.64,609.8c-.41.06-.88.28-1.21.15-1.67-.65-3.28-1.42-4.94-2.08a3.34,3.34,0,0,1-2.15-2.22c-.25-.86,0-1.17.91-1a41.21,41.21,0,0,0,6.59.82,75.92,75.92,0,0,0,7.89-1,3.27,3.27,0,0,1,.75.09c-1.49.32-3,.63-4.48,1a4.18,4.18,0,0,0-.94.48,4.48,4.48,0,0,0,.84.49,41,41,0,0,0,12.75,2.11c5.36.11,10.74,0,16.1,0,1,0,2.06-.15,3.09-.23,0,1,.06,2.07,0,3.09a1.27,1.27,0,0,1-.72.95c-2.41.4-4.83.7-7.24,1l.69-3.68-.32-.16-1.56,2.84c-.57.49-1.08,1.28-1.71,1.39a40.76,40.76,0,0,1-4.7.31V610.9l-.32,0c-.36,1.1-.73,2.2-1.09,3.3a5.45,5.45,0,0,1-1.07,0L335,611l-1.21-2.18Z" />
            <path class="color-shadow"
                d="M408.39,607.52a11.31,11.31,0,0,1,3.34-.27,24.44,24.44,0,0,0,8.36,0,49.31,49.31,0,0,1,5-.47c3.57-.06,7.15-.1,10.73,0s7.13.44,10.7.67c.3,1.36.61,2.72.91,4.08a4.71,4.71,0,0,1-1,.21c-3.6-.21-7.2-.55-10.8-.64-3.06-.07-6.12.14-9.18.23l-2.33-2.09-.57-.49.13.57c.18.45.36.9.53,1.36a4.66,4.66,0,0,1-1.23.6c-1.07.18-2.15.24-3.23.34l-4.77-.12-.28-.44.84-2.4-.32-.18c-.58.74-1.13,1.49-1.74,2.2-.24.29-.57.68-.88.69-1.74.07-3.49,0-5.34,0Z" />
            <path class="color-shadow"
                d="M463.19,608.13c4.56,0,9.12.07,13.68,0,3.34-.06,6.68-.31,10-.47.1.32.2.65.29,1l-.06,2.63-6,.76-.93-1.88-.56-.47a2.34,2.34,0,0,0-.34.81c0,1.71,0,1.69-1.68,1.75-1.93.08-3.85.22-5.78.28-2.72.09-5.44.13-8.16.19l0-.47c0-.17-.05-.34-.07-.5-.15-1.1-.29-2.19-.43-3.28C463.14,608.34,463.17,608.24,463.19,608.13Z" />
            <path class="color-shadow-dark"
                d="M496.51,602.62l-1.2-1.63a23.92,23.92,0,0,1,2.65,1.27c2,1.22,4,2.2,6.49,1.66a3.16,3.16,0,0,1-.11.89c-1.13,2.28-2.19,4.61-3.45,6.82-1.11,2-2.21,1.88-3.47,0-.15-.23-.31-.45-.65-1a6.16,6.16,0,0,0-.14,1.69c.24.88,0,1.28-.9,1.37-2,.21-3.94.44-5.91.64q-1.19.12-1.2-1.11c0-.91-.1-1.82-.15-2.73.25.22.47.58.74.62a16.46,16.46,0,0,0,2.33.11c3.31,0,3.62-.21,4.21-3.4a33.29,33.29,0,0,0,.31-3.32v-.7Z" />
            <path class="color-shadow"
                d="M385.27,607.24c6-.09,12.05-.21,18.08-.28,1.29,0,2.58.13,3.87.24a2.61,2.61,0,0,1,.8.37l-3.12,3.49-11.59,0-1.39-2.39c-.17.3-.51.61-.48.88.12,1.12-.39,1.36-1.39,1.28s-2,0-3,0h0l-.45-.74Z" />
            <path class="color-shadow"
                d="M447.57,607.42l11.37.49c1.14.05,2.28.14,3.42.21a1.82,1.82,0,0,1,.07.25c0,.08,0,.16-.05.24l-.27.17.2.11-.18.92a5.11,5.11,0,0,0-.61,1.44c-.1,1.13-.56,1.58-1.74,1.48-3.35-.3-6.7-.51-10-.75Z" />
            <path class="color-shadow"
                d="M369.32,608.37c1.47-.24,2.93-.54,4.4-.68,1.85-.16,3.71-.18,5.57-.27,1.62-.07,3.24-.16,4.85-.24l.33,1.2.12.5c.13.63.27,1.26.4,1.89a15.7,15.7,0,0,1-1.63.25c-1.55.06-3.11.12-4.66.11s-3.34.82-4.82-.53c-.1-.1-.36,0-.61,0V612l-2.89-.5-.15-.61C369.93,610,369.62,609.2,369.32,608.37Z" />
            <path class="color-shadow-dark"
                d="M335,611l15.79,3.08a5.45,5.45,0,0,0,1.07,0,3.87,3.87,0,0,1,0,.48c-.48,2.06-.48,2-2.64,1.81-3-.3-5.93-.53-8.89-.8-.16,0-.32,0-.48,0C336.76,615.58,335.73,613.45,335,611Z" />
            <path class="color-shadow-dark"
                d="M370.38,611.49l2.89.5v-1.41c.25,0,.51-.08.61,0,1.48,1.35,3.2.53,4.82.53s3.11,0,4.66-.11a15.7,15.7,0,0,0,1.63-.25l1.12,2.09-6.92.62h-.12c-2.65.1-2.65.1-4.72-1.41l.43,1.92-2.19.38a1.29,1.29,0,0,1-1.69-1.08C370.76,612.69,370.56,612.09,370.38,611.49Z" />
            <path class="color-shadow"
                d="M496.06,604.54a33.29,33.29,0,0,1-.31,3.32c-.59,3.19-.9,3.42-4.21,3.4a16.46,16.46,0,0,1-2.33-.11c-.27,0-.49-.4-.74-.62-.16-.93-.32-1.87-.49-2.8,2.06-.33,4.11-.71,6.17-1,1.16-.14,1.71-.67,1.68-1.83C495.83,604.81,496,604.67,496.06,604.54Z" />
            <path class="color-shadow-dark"
                d="M426.4,611.29c3.06-.09,6.12-.3,9.18-.23,3.6.09,7.2.43,10.8.64a4.71,4.71,0,0,0,1-.21l.53,1.41h-5.36c-.35,0-.7-.12-1.06-.13-4-.18-8-.29-11.94-.56C428.51,612.12,427.22,612.42,426.4,611.29Z" />
            <path class="color-shadow-dark"
                d="M369.32,608.37c.3.83.61,1.67.91,2.51-.25-.38-.51-.75-.94-1.38,0,1.67,0,3.07,0,4.47,0,.35-.38,1-.64,1-2.58.29-5.16.48-7.75.69-.1,0-.22-.07-.45-.15l.42-2c2.41-.33,4.83-.63,7.24-1a1.27,1.27,0,0,0,.72-.95c.1-1,0-2.06,0-3.09Z" />
            <path class="color-shadow-dark"
                d="M463.65,612.7c2.72-.06,5.44-.1,8.16-.19,1.93-.06,3.85-.2,5.78-.28,1.66-.06,1.65,0,1.68-1.75a2.34,2.34,0,0,1,.34-.81l.56.47c-.91.68-.46,1.67-.54,2.53a4.29,4.29,0,0,0,.32,1.18c-.46,0-.83.09-1.2.08-4.73-.09-9.47-.19-14.21-.27C463.84,613.65,463.45,613.49,463.65,612.7Z" />
            <path class="color-shadow-dark"
                d="M481.1,612l6-.76.87,3c-1.4-.07-2.68-.18-4-.19A2.85,2.85,0,0,1,481.1,612Z" />
            <path class="color-shadow-dark"
                d="M353.24,614.15a40.76,40.76,0,0,0,4.7-.31c.63-.11,1.14-.9,1.71-1.39a10.08,10.08,0,0,1-.29,1.37c-.67,1.86-1.21,2.22-3.21,2.29-.59,0-1.19.1-1.78.14l-1.86.11Z" />
            <path class="color-shadow-dark"
                d="M449.73,612c3.35.24,6.7.45,10,.75,1.18.1,1.64-.35,1.74-1.48a5.11,5.11,0,0,1,.61-1.44c-.05.39-.07.79-.15,1.17-.68,3.24-.17,2.67-3.41,2.67-2.23,0-4.46-.21-6.69-.21A1.93,1.93,0,0,1,449.73,612Z" />
            <path class="color-shadow-dark"
                d="M479.24,597.33a33,33,0,0,1-4.31.45c-3.25-.06-6.5-.28-9.74-.47-.21,0-.4-.28-.59-.43,3.74.06,7.49.11,11.23.2C477,597.11,478.11,597.25,479.24,597.33Z" />
            <path class="color-shadow-dark"
                d="M393.31,611l11.59,0a5.6,5.6,0,0,1-1.59.59c-2.94.18-5.89.26-8.83.4A1,1,0,0,1,393.31,611Z" />
            <path class="color-shadow-dark"
                d="M387.07,610.79c1,0,2-.06,3,0s1.51-.16,1.39-1.28c0-.27.31-.58.48-.88,0,.91,0,1.83,0,2.73,0,.32-.17.86-.34.89a9.33,9.33,0,0,1-3.26.3C387.79,612.48,387.47,611.41,387.07,610.79Z" />
            <path class="color-shadow"
                d="M443.73,596.88c-.11.14-.22.41-.34.42q-3.83.12-7.65.19c-.06,0-.12-.1-.18-.15l.5-.63,3.09-.12a5.58,5.58,0,0,0,1.11.26C441.41,596.89,442.57,596.87,443.73,596.88Z" />
            <path class="color-shadow-dark" d="M443.73,596.88c-1.16,0-2.32,0-3.47,0a5.58,5.58,0,0,1-1.11-.26l7.45,0Z" />
            <path class="color-shadow-dark"
                d="M494.73,600.82c-.63-.17-1.26-.32-1.89-.51-1.66-.49-3.31-1-5-1.5a3.52,3.52,0,0,1-.74-.44Z" />
            <path class="color-shadow-dark"
                d="M419.7,611.58c1.08-.1,2.16-.16,3.23-.34a4.66,4.66,0,0,0,1.23-.6L425,612Z" />
            <path class="color-shadow-dark" d="M436.06,596.71l-.5.63-4.08-.25Z" />
            <path class="color-shadow-dark" d="M394.54,597.9c-.09.11-.19.33-.28.33-1.51,0-3-.06-4.52-.1Z" />
            <path class="color-shadow-dark" d="M420.2,597.6l-4.08-.26,4.1-.11Z" />
            <path class="color-shadow-dark" d="M400.78,597.65a4.61,4.61,0,0,1-3.86.16Z" />
            <path class="color-shadow-dark"
                d="M487.18,608.63c-.09-.33-.19-.66-.29-1,.13-.37.25-.73.38-1.09l.3-.06.27,1Z" />
            <path class="color-shadow" d="M446.35,606.21l.06-1,.38-.09.51,1.89Z" />
            <path class="color-shadow-dark" d="M482.12,597.59l-1.7-.19Z" />
            <path class="color-shadow-dark" d="M405.36,597.53l-1.48,0Z" />
            <path class="color-shadow-dark" d="M379.65,598l-1.45.32v-.3Z" />
            <path class="color-shadow-dark" d="M483.8,597.81l-1.21-.18Z" />
            <path class="color-shadow-dark" d="M462.92,596.85h0Z" />
            <path class="color-shadow-dark"
                d="M462.43,608.37a1.82,1.82,0,0,0-.07-.25l.39-.62.44.63c0,.11-.05.21-.07.32Z" />
            <path class="color-shadow-dark" d="M485.48,598.07l-1.21-.2Z" />
            <path class="color-shadow" d="M378.21,598.05v.3l-.71.21c0-.16,0-.33,0-.5Z" />
            <path class="color-shadow-dark"
                d="M383.94,605.51l.75.47,0,.29-.45.19a.52.52,0,0,1,0-.21C384.09,606,384,605.75,383.94,605.51Z" />
            <path class="color-shadow-dark" d="M423.63,609.28l-.13-.57.57.49Z" />
            <path class="color-shadow" d="M384.65,606.27l0-.29c.14.35.29.69.44,1Z" />
            <path class="color-shadow-dark" d="M486.69,598.29l-.75-.16Z" />
            <path class="color-shadow" d="M420.2,597.6l0-.37.49.09Z" />
            <path class="color-shadow-dark" d="M386.62,610.06l.45.74Z" />
            <path class="color-shadow-dark" d="M452.85,596.85l-.53,0Z" />
            <path class="color-shadow-dark" d="M384.59,608.88l-.12-.5Z" />
            <path class="color-shadow-dark" d="M414.65,611l.28.44Z" />
            <path class="color-shadow-dark"
                d="M463.55,611.73c0,.16.05.33.07.5C463.6,612.06,463.57,611.89,463.55,611.73Z" />
            <path class="color-shadow-dark"
                d="M462.31,608.89l-.2-.11.27-.17C462.36,608.7,462.33,608.8,462.31,608.89Z" />
            <path class="color-shadow"
                d="M353.71,602.13a2.69,2.69,0,0,1,.7-.49q2.44-.69,4.92-1.32c.18-.05.42.08.63.13Z" />
            <path class="color-shadow" d="M369.55,599.49c.89-.9,1.9-.47,2.89-.24Z" />
            <path class="color-shadow" d="M365.48,599.5h0Z" />
            <path class="color-shadow" d="M350.84,602.62l1.69-.47Z" />
            <path class="color-shadow" d="M342,604.53l1.69-.48Z" />
            <path class="color-shadow" d="M496.51,602.62l-.45,1.22Z" />
            <path class="color-shadow" d="M373.86,599.24l1.22-.23Z" />
            <path class="color-shadow" d="M375.78,599l1-.42Z" />
            <path class="color-shadow" d="M363.3,600l1-.23Z" />
            <path class="color-shadow" d="M361.63,600.21l.73-.24Z" />
            <path class="color-shadow" d="M344.11,604.05l.73-.24Z" />
            <path class="color-shadow" d="M383.94,605.51c.07.24.15.49.22.74C384.09,606,384,605.75,383.94,605.51Z" />
            <path class="color-shadow" d="M345.31,603.81l.74-.46Z" />
            <path class="color-shadow" d="M360.43,600.45l.73-.24Z" />
            <path class="color-shadow" d="M348.42,603.32l.74-.23Z" />
            <path class="color-shadow" d="M349.63,603.08l.74-.45Z" />
            <path class="color-shadow" d="M347,603.34h0Z" />
        </g>
    </g>
</svg>
