<svg id="Nizy_pryamoy" data-name="Nizy pryamoy" xmlns="http://www.w3.org/2000/svg" viewBox="0 0 672 960">
    <g id="img_17" data-name="img 17">
        <g id="Na_Zatyashke_So_Shnurkom_img" data-name="Na Zatyashke So Shnurkom img">
            <path class="outline"
                d="M493.39,609.73l-.73,0a8.07,8.07,0,0,0-1.58-.38q-3.46-.18-6.93-.25c-4.76-.1-9.53-.2-14.3-.25-4.31,0-8.62,0-12.93,0l-5.15,0c-4.46,0-8.92,0-13.37,0a3.4,3.4,0,0,1-1.16-.45c.86-.08.55-.6.47-1.12-.27-1.66-.52-3.33-.68-5,0-.25.42-.54.65-.81.2,1.11.4,2.22.61,3.33l.15.5.1,0,.16.52.07.71.18.49.25.23c-.1,1.16.75.88,1.39.93h3.14l1.42,0,1.7,0,.37,0,.82,0-1.28-2.51,1,.24a.35.35,0,0,1,.08.16,3.53,3.53,0,0,0,3.11,2.46h3.36c2,0,2,0,2.55-2,.3-1.15.58-2.31.88-3.46l.23,0,.35,1.31,0,.71-.87,3.06.44.11.71.06h.53l2.32-.12.33-.69.09-.45.95-.71a11.19,11.19,0,0,0,.44,1.44c.1.2.42.29.64.43l1.45,0c.48.06.94.79,1.45,0l5.73,0c.4.71.81.69,1.22,0h1.18l.32.4.42-.41h.72l.45-.19-.87-2-.11,0-.17-.51c-.11-.63-.22-1.26-.34-1.89,0-.18.05-.35.08-.52l-.09-3-.1-.53.45-.64c.22.21.57.39.63.64.28,1.17.47,2.36.7,3.55l.14.5.29.95.16.5.11.45c.53,2.85,1,3,2.45,2.52.11-.93.21-1.75.31-2.57l1.2,1.28,1.17,1.26.73.18,4.07.16c1.13.1,2.26.26,3.39.29a3.83,3.83,0,0,0,1.19-.41l.32-1.9.33-1,.08-.49.12-.7c.18-.4.35-.81.54-1.2s.36-.66.53-1l.28,1v1.69l-.06.72-.13,1.17-.12.51-.13.7-.24.54.49.14,1.12-.14.5-.1,1.38-.2c.12-.16.26-.32.37-.49s.29-.49.43-.73c1.39,1.09,1.62,1.1,2.21.07l.32-.59c.43-1,.87-2,1.31-3l.43,0-.16,1.85-.3.87.36.18.55-1a.36.36,0,0,1,.07-.18l.64-1,1.29-2.32.3-.35-.35.11-3.09-.11-.51-.13-.46-.09-.61-.29-.59-.16-.61-.34-.59-.16-1.71-.63-4.06-1-.51-.14-3.09-.59-.52-.09-1.16-.17-.51-.09-1.65-.14-1.23-.1-4.27-.25-.75-.07h-1.92c-1.27-.08-2.54-.18-3.81-.22-.25,0-.51.23-.77.35l-5.25.12-1.7.13-3.32.21-1.22-.1-.75.11-3.33.29-.73-.16-1.46.11-4,.22-2.18-.09-1.47.12-2.12.19-1.93-.07-1,.15-.21.12-1.7,0-.51.08-1.89.15-.75.16a.37.37,0,0,1,0,.11l-1.23.15-.94.08-1.21,0-.5.15-.44.15-1-.06-.73.15-1.42.14-.51.07-3.32.41-1.22-.06-1,.13-1.4.18-1.7-.07-2.66.13-1.42.11-1.2-.07a3.35,3.35,0,0,0-.68-.16q-5.26,0-10.53,0a3.2,3.2,0,0,0-.78.2l-3.59-.1-2.65-.16-1.91-.07-2.17-.17-3.11-.3-.75-.08-1.41-.15-.51-.08-1.41-.17-.51-.09-1.17-.16-.51-.08-.93-.12-.75-.13-1.17-.13-.5-.14-.51.11-1.15-.22-.5-.14-.74.07-.2-.13-1-.19-.71-.07-1.22-.16-.94-.08-1.21-.18-.94-.09-1-.15-1.18-.09-1.22-.15-1-.07-1.22-.16-1.18-.08-1.46-.16-1.66-.07-2.42-.16-8.4,0c-1.22-.07-2.44-.16-3.66-.19a2.87,2.87,0,0,0-.92.34l-3.34.1a3.59,3.59,0,0,0-.89-.21c-2.45,0-4.89,0-7.34,0a4.51,4.51,0,0,0-.88.21l-1.42-.09-1-.15-.71-.06-1.21-.19-.94-.08-1-.17-.7-.07-.74-.16-.7-.09-.74-.15-.7-.09-.51-.12-1.89-.36-1.52-.66-.25.33a13.74,13.74,0,0,0,.56,1.38c.46.87,1,1.69,1.43,2.58.54,1.24,1,2.54,1.45,3.8.2.52.44,1.08,1.18.6l1.18.34,1.28.43.13-.37-.59-.41-.15-.37L324,598l.08-1.23,1.47,1.51.29.71c.19,1.1.27,2.26,1.6,2.67l2.7,2.7a5.1,5.1,0,0,0,3.82,1.24l-.8-1.36-.08-.7.69-.48a.11.11,0,0,1,.06.13c.21.36.42.72.62,1.08a.45.45,0,0,1,.07.18l.4.55a.49.49,0,0,1,.08.18l.91.8.46.09.74.15.71.07,1.45.19,1.44.13,1.36.1-.33-.77-1-2.15-.69-3.37.47,0,.24.45.73,1.45c.34.76.69,1.52,1,2.28l.37.61.55.9.77.69,1.35,0,1.19.08a11.77,11.77,0,0,1,1.68,0c1.37.2,1.95-.51,2.12-1.75l.46-.5.79.28-.58,1.42-.49.6.57,0c1.34,0,2.68-.09,4,0a2,2,0,0,0,2.16-1c.73,0,.85-.37.73-1h0l1,.06-.11.45-.79,1.45.66,0h.47c.32.65.65.65,1,0h2.62c.52.49,4.12.68,4.58.24l.08-.08a5,5,0,0,0-.29-3.31l-.09-.46-.14-.75-.13-.2.09-.51a10.27,10.27,0,0,1,.25-1.57c.1-.31.43-.54.66-.81l.09.69c-.36.47-.54.91.19,1.22l.07.46.15.74.16.2.13,1,.23.48c.08.24.17.48.26.71s.11.34.16.51a2.05,2.05,0,0,0,2.6,1.68,3.78,3.78,0,0,1,.82,0l1.21-.31.67.37,2.18.14,1.18.08,1.7.16,2.14.09,1,.08h.7l1.3.31.12-.41-.93-.56a.3.3,0,0,1-.07-.15,5.43,5.43,0,0,1-.24-1.24c0-.18.35-.35.54-.53h0l1.05,1.38.45.26.21.48c.05.81.36,1.2,1.19.72l3.12,0,.42,0-.33-.73a.22.22,0,0,0-.17.05l-.47-3.12v-1l.08-.46.86.73.07.47a5.69,5.69,0,0,0,1.65,4.09v0l1.21.27H395l1.16,0c1.85,0,3.7.06,5.55.07a1.68,1.68,0,0,0,1-.17c.82-.72,1.58-1.52,2.36-2.28l.45-.33.73-.72h0l.2-.25.07-.95.43-.75.24-.46.73.25-.48,1.44.81.7a20,20,0,0,1-1.49,1.69,41.75,41.75,0,0,0-8.68,10.56,15.68,15.68,0,0,0-1.63,5c-.27,1.83.72,2.52,2.38,1.73a9.74,9.74,0,0,0,3.3-2.47c2.44-3,4.69-6.21,7-9.33l1.21-2.08,0,0,1.45-1.68-.36,3-.44,2.24-.44,1.2a6.27,6.27,0,0,1-.05,1.06c-.59,2.9-1.2,5.79-1.8,8.69l-.16.62-.16.43-.56,2.21-.14.43-.17.51L404,640.17l3.25,1.35.09.3.14-.33h0c1.23.47.48,1.19.24,1.85-1.71-.48-3.45-.9-5.12-1.49-.34-.13-.58-.92-.61-1.41a4.61,4.61,0,0,1,.41-1.62q2.25-6.57,4.52-13.15a17.17,17.17,0,0,0,.77-1.9c.69-2.55,1.32-5.11,2-7.67l.14-1.44-.39-.11-.6,1.19-.29.47-.6,1-.13.2-.33.54-3.12,4.35-.67.78-.37.41-.87.88-.41.36a8.86,8.86,0,0,0-1,.54c-2.22,1.52-4.14,1.49-5.45-.14a11.53,11.53,0,0,1-.84-1.4l-.1-.74v-.9l.08-.73c.08-.08.23-.15.24-.24a16.68,16.68,0,0,1,3.65-7.31c1.09-1.45,2.24-2.85,3.56-4.5-.75-.09-1.23-.18-1.71-.2-4.23-.09-8.47-.09-12.69-.29-4.57-.21-9.13-.82-13.69-.87-7.95-.09-15.9.18-23.85.17-4.3,0-8.61-.19-12.91-.49a44.33,44.33,0,0,1-6.31-1.18c-1.89-.42-3.75-1-5.65-1.42-2.59-.52-4.51-1.47-4.54-4.44a1.22,1.22,0,0,0-.13-.46c-1.09-2.65-2.17-5.31-3.32-7.94-.11-.27-.61-.37-.93-.56a16.68,16.68,0,0,1-1.79-2.27c-.36-.66,1.42-2.59,2.17-2.41,1.06.24,1.07,1.16,1.16,2a3.16,3.16,0,0,0,.66.51c.92.34,1.85.63,2.78.94a3.21,3.21,0,0,1-1.52-.13c-.5-.14-1-.33-1.48-.49s-1-.15-.87.62a2.35,2.35,0,0,0,2.46,2.3l.83.19.5.15.69.12.51.13,2.13.36.51.11,2.37.37.51.11,1.17.12.51.11.94.11.74.14,1.18.12,1,.11,1.9.12,4.11.07,6.71-.19,2.65-.05,9.81,0,1.46.1,2.85.14.75.1,1.65.14.75.11,1.65.13.75.11,1.65.13.51.11,1.43.19.49,0,1.65.15.51.1,1.17.13.51.1,2.87.44.49.05a7.61,7.61,0,0,1,1,.06A122.54,122.54,0,0,0,405,599.25c8.35,0,16.71.06,25-1a179.44,179.44,0,0,1,22.8-1.66l.52-.06,4.52-.18.52-.07.43,0,.27.31.25-.34,2.61-.12a1.32,1.32,0,0,0,1.95-.13l4.77-.11,2.2-.07h.67c.26.54.52.53.77,0H473c.49.64,1,.64,1.48,0h1.69l5,.13A58.68,58.68,0,0,1,495,597.76c2.46.66,4.87,1.5,7.3,2.26l1.44.16,2-.65c.84-.89.81-1.09-.18-1.43l-.43,0-.57-.16-2.52-.71-1.29-.71-1.85-1,2,.52c.94.25,1.31-.07,1-1l.08-.44a5.1,5.1,0,0,0,.32-.72c.73-2.48,1.44-4.95,2.15-7.42a1.33,1.33,0,0,1,.23,1c-.44,2.71-.91,5.43-1.32,8.15-.06.41,0,1.13.26,1.25a12.87,12.87,0,0,0,2.6.81c.15,0,.39-.32.59-.49a6,6,0,0,1,.1-1.53,1.17,1.17,0,0,1,.81-.67.94.94,0,0,1,.75.56c.06,1.19.58,2.44-.32,3.54a2.68,2.68,0,0,0-.46.5c-.94,1.93-1.86,3.86-2.79,5.79-.43.67-1.11,1.27-.6,2.2-.31,1.28-1.34,1.67-2.45,2l-3.84.12h-1.24Z" />
            <path class="color-shadow"
                d="M335.46,595.06l-1.9-.12-1-.11-1.18-.12-.74-.14-.94-.11-.51-.11-1.17-.12-.51-.11-2.37-.37-.51-.11-2.13-.36-.51-.13-.69-.12-.5-.15-.83-.19a3.16,3.16,0,0,0-.81-.59c-1-.31-1.08-1.06-1.18-2l6.7,2,4.06,1.24.51.09,3.09.38.75.12H340v-.35c-1.08,0-2.16,0-3.24,0a5.15,5.15,0,0,1-1.25-.43l5,.17c-.15.67.19.81.75.73l1.23,0,3.32-.05,7.76-.17a2.77,2.77,0,0,0,.66-.2h3.33l0-.26-.72-.43,1.71.12c-.75.91.25.56.48.59,4.73.48,9.46,1,14.2,1.4,2.52.24,5.05.43,7.58.64,3.64.5,7.28,1,10.92,1.47a22,22,0,0,0,2.3.06l.66,0a2.78,2.78,0,0,0,.82.35c2.83.13,5.65.27,8.48.33,2.52.06,5,0,7.55,0v-.3c-2.06,0-4.13,0-6.2,0a9.48,9.48,0,0,1-1.47-.27l4.15-.07,15.43-.28c.44,0,.87-.08,1.38-.12.42-3.14.83-6.24,1.26-9.34a2.14,2.14,0,0,1,.22-.52c-.3,3-.6,6.06-.9,9.15l.8-.17c-.33,1,.32.82.89.77,2.74-.21,5.49-.45,8.24-.62,3.07-.19,6.14-.27,9.2-.48,2.12-.15,4.23-.46,6.34-.69l.87-.08,1.82-.1,3.47-.14.71,0,1.33-.15,2.85,0,1.43-.11,5.33-.29,1.9-.1,4.43-.12,4.76-.14h8c.2.19.39.51.62.55.86.14,1.74.15,2.6.29,2,.32,4,.61,5.95,1.07,1.72.41,3.39,1,5.08,1.59l2.53.7.56.17.43,0,.18,1.43-2,.65-1.44-.16c-2.43-.76-4.84-1.6-7.3-2.26a58.68,58.68,0,0,0-13.83-1.86l-5-.14h-.53l-1.16,0h-2.15l-.77,0h-.67l-2.2.07-4.77.11-1.95.13-2.61.12-.52,0-.43,0-.52.07-4.52.18-.52.06a179.44,179.44,0,0,0-22.8,1.66c-8.3,1.08-16.66,1-25,1a122.54,122.54,0,0,1-24.18-2.08,7.61,7.61,0,0,0-1-.06l-.49-.05-2.87-.44-.51-.1-1.17-.13-.51-.1-1.65-.15-.49,0-1.43-.19-.51-.11-1.65-.13-.75-.11-1.65-.13-.75-.11-1.65-.14-.75-.1-2.85-.14-1.46-.1-9.81,0-2.65.05-6.71.19Z" />
            <path class="outline"
                d="M421.08,623l-.41-.43a.94.94,0,0,0,0-.34c-1-1.8-2-3.58-3-5.38a4.78,4.78,0,0,1-.27-.75l-.46.33a7.3,7.3,0,0,0-.05,1.14c.19,1.85.43,3.69.6,5.54a5.48,5.48,0,0,1-.27,1.35L417,624l-.09-.51-.11-.47c-.13-1.49-.3-3-.39-4.46-.15-2.52-.25-5.05-.38-7.57l.07-2.86.44,0,.23.46,1.38,6,.23.6a16.59,16.59,0,0,0,3.8,6.41c.83.79,1.68,1.72,3,1.25.86-.31,1.37-2.06,1.13-3.41a2.26,2.26,0,0,0-.16-.58c-1-2.24-2.06-4.48-3.11-6.71-.05-.11-.29-.13-.44-.19v0c-.09-.33-.17-.67-.25-1l-1.14-1.88L418,604.54l-.21-.25h0a4.72,4.72,0,0,0-2.36-2.48c-.74-.37-1.35-.84-2.19-.27-1.28.87-2.58,1.68-3.87,2.52l-.73-.48.5-.48.63-.62.09-.35.07,0,.07,0,2.6-1.39,2.24-.26,1.23.49,1,.65,1.22.29c-.08.27-.3.64-.19.8.67,1.11,1.42,2.17,2.14,3.24l.31-.15a3.22,3.22,0,0,0-.93-3c-.31-.28-.6-.59-.9-.88l1.95.21,1.51,3,.42.59.2,0c.09.23.19.45.28.67l1.75,1.65.62.33c.56.82,1.25.47,1.93.22h1l.57.41-5.95.42c1,1.95,2,3.68,2.76,5.49,1.29,3,2.5,6.06.73,9.32l-.23.2a4.1,4.1,0,0,1-3.72-.48,5.18,5.18,0,0,0-.9-.48l-.2-.17Zm.63-16.54c.07,1.63.73,2.33,1.74,2.12Z" />
            <path class="outline"
                d="M316.42,591.63c.32.19.82.29.93.56,1.15,2.63,2.23,5.29,3.32,7.94a1.22,1.22,0,0,1,.13.46c0,3,1.95,3.92,4.54,4.44,1.9.39,3.76,1,5.65,1.42a44.33,44.33,0,0,0,6.31,1.18c4.3.3,8.61.48,12.91.49,8,0,15.9-.26,23.85-.17,4.56,0,9.12.66,13.69.87,4.22.2,8.46.2,12.69.29.48,0,1,.11,1.71.2-1.32,1.65-2.47,3.05-3.56,4.5a16.68,16.68,0,0,0-3.65,7.31c0,.09-.16.16-.24.24a23.34,23.34,0,0,1,1.57-4.58c1.22-2.09,2.79-4,4.22-5.95.27-.37.59-.7,1.13-1.35-1.88,0-3.42.06-4.95,0-7.06-.36-14.11-.9-21.17-1.12-5.83-.18-11.67,0-17.5,0-6.67,0-13.34,0-20-.17a26.3,26.3,0,0,1-8.88-1.89,23,23,0,0,0-4.31-.95c-2.91-.5-4-1.66-4.53-4.58a14.65,14.65,0,0,0-1.06-3.41C318.35,595.4,317.36,593.53,316.42,591.63Z" />
            <path class="outline"
                d="M426.47,624.28c1.77-3.26.56-6.32-.73-9.32-.77-1.81-1.76-3.54-2.76-5.49l5.95-.42-.57-.41c.14-.07.28-.19.42-.19,2.78-.08,5.56-.14,8.33-.2l.13.13a3.4,3.4,0,0,0,1.16.45c4.45,0,8.91,0,13.37,0l5.15,0c4.31,0,8.62,0,12.93,0,4.77,0,9.54.15,14.3.25q3.47.07,6.93.25a8.07,8.07,0,0,1,1.58.38c-1.83,0-3.66,0-5.49,0q-11.75-.15-23.5-.33c-6.71-.12-13.42-.37-20.14-.39-4.23,0-8.46.28-12.7.43l-7.39.27c.3.55.53.91.7,1.29,1.1,2.6,2.34,5.16,3.22,7.84a10.19,10.19,0,0,1,0,4C427.34,623.34,426.79,623.8,426.47,624.28Z" />
            <path class="outline"
                d="M417.16,624.46a5.48,5.48,0,0,0,.27-1.35c-.17-1.85-.41-3.69-.6-5.54a7.3,7.3,0,0,1,.05-1.14l.46-.33a4.78,4.78,0,0,0,.27.75c1,1.8,2,3.58,3,5.38a.94.94,0,0,1,0,.34c-.85-1.22-1.72-2.45-2.56-3.68a11.15,11.15,0,0,1-.59-1.07l-.36.1c.15,1.48.21,3,.47,4.42a122.41,122.41,0,0,0,7.42,26.82c.45,1.06.93,2.1,1.39,3.14l-1-.24-.45-.72-.29-.48-.54-1.24-.42-.91c-1-3.1-2-6.19-3.06-9.28-.46-1.39-.93-2.77-1.4-4.15l-.12-.48-.35-1.2-.1-.5-.14-.46-.09-.51-.13-.45-.14-.73-.12-.47-.07-.53-.18-.91-.09-.5-.15-.94-.12-.48-.13-1-.12-.48-.1-.72Z" />
            <path class="outline"
                d="M409.65,635l-.11.7-.14.73-.11.71-.11.5-.13.7-.11.5-.36,1.66-.58-1.18.06-1.19.14-.49.12-1.43.15-.49.06-1.19.15-.49.1-1.19.15-.49.06-1.2c.13-.12.36-.24.38-.38q.75-5.28,1.45-10.55a21.4,21.4,0,0,0,0-2.27l.09-.47.13-.74.09-.46.13-.74.11-.7.5-2.37.11-1,.31-.46H413l-.07.71a3.93,3.93,0,0,0-.39,3.37l-.06.47L412.3,617l-.08.71-.17,1.21-.06.71-.16,1-.07.71-.16,1-.07.71-.17,1-.08.71-.17,1-.08.71-.16,1-.05.47-.19,1.21-.07.47c-.08,0-.22,0-.22.07C410.1,631.39,409.88,633.21,409.65,635Z" />
            <path class="outline"
                d="M413,611h-.67c.24-1.51.48-3,.71-4.52.14-.16.28-.45.42-.45.61,0,1.22.08,2.06.16V611a2.91,2.91,0,0,0-.09.58q.24,6.21.49,12.41l-.54,1.71c-.23-3.08-.52-6.17-.67-9.26-.11-2.14,0-4.29,0-6.55h-1.38Z" />
            <path class="outline"
                d="M380.82,595.58c-2.53-.21-5.06-.4-7.58-.64-4.74-.44-9.47-.92-14.2-1.4-.23,0-1.23.32-.48-.59l4.05.1,1.25.13,3.07.12,1,.13,1.88.1,1.26.12.38,0,.7,0-.54-.69-.82-1-.37-.48-1.09-1.64-.33-.53-.4-.67v-.45l.88.47,2.18,2.43a.4.4,0,0,1,.13.16,5.55,5.55,0,0,0,3.12,2.84l.67.08,1,.14.66.1.46.07,1,.15,1,.13.65.09.46.31Z" />
            <path class="outline"
                d="M328.76,593.27,324.7,592l.46-.44h.49l5.38,1.28.2-.42c-.22-.29-.41-.6-.66-.87a22.17,22.17,0,0,1-1.92-2c-1-1.3-1.85-2.69-2.77-4h.26l.57.3.35.45.6.74.83,1,.84,1,2.49,2.23.52.36.2.14.47.36.73.6.58.27,1.17.09a5.15,5.15,0,0,0,1.25.43c1.08.06,2.16,0,3.24,0v.35h-6.86l-.75-.12-3.09-.38Z" />
            <path class="outline"
                d="M325.88,585.58c.92,1.36,1.79,2.75,2.77,4a22.17,22.17,0,0,0,1.92,2c.25.27.44.58.66.87l-.2.42-5.38-1.28,2.91.41,1.49.26.18-.28c-.28-.33-.55-.67-.84-1a33.62,33.62,0,0,1-7.52-11.92,3.1,3.1,0,0,1-.1-.69c.16,0,.4,0,.45.1.36.59.67,1.2,1,1.81l.27.5c.28.49.56,1,.85,1.48l.35.67.31.52.15.22.34.5.15.22.36.5.35.47-.21.21h-.26l-.3-.09Z" />
            <path class="outline"
                d="M415.38,625.67l.54-1.71.09,0,.1,0,.05.95.17.73.08,1-.06.49,0,0,0,0,.09,0,.1,0,.08.95.16.48.14,1.9.07.76.14.93.13,1.24.08,0,0,.49.36,2.17.1.48.11.74.13.7.18.49c.18.88.37,1.75.55,2.62l0,0,0,0,.44,1.7.18.5.57,1.89,0,0,0,0,.18.73c-.19,0-.52,0-.55-.09-.38-1.17-.69-2.36-1.07-3.53a8.43,8.43,0,0,0-.62-1.19l-.1-.46-.41-1.69-.08-.47-.13-.5-.13-.69-.12-.5-.11-.7-.13-.51-.1-.7-.12-.5-.13-.94-.11-.5-.11-.94-.14-.74-.09-.95-.13-.73-.13-1.42-.12-1Z" />
            <path class="color-shadow"
                d="M506.78,597.06c-.2.17-.44.52-.59.49a12.87,12.87,0,0,1-2.6-.81c-.24-.12-.32-.84-.26-1.25.41-2.72.88-5.44,1.32-8.15a1.33,1.33,0,0,0-.23-1c-.71,2.47-1.42,4.94-2.15,7.42a5.1,5.1,0,0,1-.32.72,22.41,22.41,0,0,1,.37-2.32c.74-2.77,1.53-5.53,2.31-8.28a1.74,1.74,0,0,1,.31-.5l.49,0q-.6,4.37-1.22,8.74c-.15,1-.28,2-.51,3.06s0,1.49,1,1.62C505.38,597,506.08,597,506.78,597.06Z" />
            <path class="outline"
                d="M456.11,589.39l.07-.46c.06-1,.13-2.09.19-3.13l.09-3.82.47-.26.12,0,.12,0,.08.69a36.33,36.33,0,0,1,.34,4c-.06,2.43-.28,4.85-.43,7.28v0l-1.43.15c0-.48,0-1,0-1.45s.07-.93.11-1.39l.07-.45Z" />
            <path class="outline"
                d="M417.89,641a8.43,8.43,0,0,1,.62,1.19c.38,1.17.69,2.36,1.07,3.53,0,.08.36.06.55.09l.82,1.52,1.18,2.81.25.55.72,1.37.23.69-.72.35a28.07,28.07,0,0,1-2-3.73C419.58,646.63,418.78,643.81,417.89,641Z" />
            <path class="outline"
                d="M502.07,597.19c-1.69-.54-3.36-1.18-5.08-1.59-2-.46-4-.75-5.95-1.07-.86-.14-1.74-.15-2.6-.29-.23,0-.42-.36-.62-.55l5.6.08,1,.08,3,.78,1.5.84,1.85,1Z" />
            <path class="outline"
                d="M426.22,595.93l-.8.17c.3-3.09.6-6.12.9-9.15.07-.62.13-1.24.2-1.85l.62.25v5.29l-.35,3.87Z" />
            <path class="outline"
                d="M480.28,590.69l-.09.42-.12.56L479.6,593l-1.14.6.45-2.74.1-.45.37-1.71.11-.69.12-.52.35-1.87.17-1,.09-.67c.24-.31.47-.63.7-.95v.49l-.14,1.75-.12,1.62-.14,1.73c0,.38-.07.76-.1,1.15Z" />
            <path class="color-shadow"
                d="M341.93,593.22c-.11-.36-.13-.82-.37-1.06-.84-.85-1.79-1.59-2.64-2.43a2.48,2.48,0,0,1-.82-2.52c1.39,1.52,2.68,2.91,3.93,4.33.44.49.8,1.06,1.2,1.59l-.74.32Z" />
            <path class="outline"
                d="M325.16,591.59l-.46.44-6.7-2c.1,1,.19,1.72,1.18,2a3.16,3.16,0,0,1,.81.59,2.35,2.35,0,0,1-2.46-2.3c-.1-.77.31-.8.87-.62s1,.35,1.48.49a3.21,3.21,0,0,0,1.52.13c-.93-.31-1.86-.6-2.78-.94a3.16,3.16,0,0,1-.66-.51Z" />
            <path class="outline"
                d="M380.82,595.58v-.37l1.06-.13.64.08,1,.15.64.1.7.07,1.21.13,1.19.1,1,.12,1.3.18.62.09,1.3.16.62.08.95.1,1,.12,0,.55a22,22,0,0,1-2.3-.06C388.1,596.59,384.46,596.08,380.82,595.58Z" />
            <path class="outline"
                d="M323.22,580.3c-.33-.61-.64-1.22-1-1.81-.05-.09-.29-.07-.45-.1-.71-1.93-1.44-3.85-2.12-5.79-.08-.23.13-.55.49-.85.3.92.57,1.86.92,2.76.64,1.63,1.33,3.23,2,4.86A4.51,4.51,0,0,1,323.22,580.3Z" />
            <path class="outline"
                d="M403.88,597.28a9.48,9.48,0,0,0,1.47.27c2.07,0,4.14,0,6.2,0v.3c-2.51,0-5,0-7.55,0-2.83-.06-5.65-.2-8.48-.33a2.78,2.78,0,0,1-.82-.35l.84-.37.45.11.21,0a.28.28,0,0,0,0-.2l.44,0,2.5.21.38,0,3.22.22Z" />
            <path class="outline" d="M354.2,593.52a2.77,2.77,0,0,1-.66.2l-7.76.17v-.54l2.89-.33,1.86-.08,3.92.13Z" />
            <path class="color-base"
                d="M457.16,593.73c.15-2.43.37-4.85.43-7.28a36.33,36.33,0,0,0-.34-4,20,20,0,0,1,.64,3.3c.08,2.3,0,4.61-.07,6.91C457.81,593,457.39,593.37,457.16,593.73Z" />
            <path class="outline"
                d="M395.54,596.79l-.84.37-.66,0,0-.55c0-.07,0-.11.09-.11.08-.21.17-.41.25-.62q.84-2.61,1.67-5.23l.36,0-.48,3.82Z" />
            <path class="outline" d="M369.47,588.71l-.88-.47-.32-.06-1.68-2.84.43-.29,2.71,3.66Z" />
            <path class="outline"
                d="M409.66,616.11c-.66,2.56-1.29,5.12-2,7.67a17.17,17.17,0,0,1-.77,1.9c.55-2.08,1.1-4.15,1.64-6.24.28-1.11.53-2.23.79-3.34Z" />
            <path class="color-shadow"
                d="M480.92,582.94c-.23.32-.46.64-.7.95q.34-2.68.68-5.37l.58.08C481.29,580,481.11,581.49,480.92,582.94Z" />
            <path class="outline"
                d="M394.72,623.73a11.53,11.53,0,0,0,.84,1.4c1.31,1.63,3.23,1.66,5.45.14a8.86,8.86,0,0,1,1-.54,17,17,0,0,1-3.6,1.88C396.46,627.09,395,625.8,394.72,623.73Z" />
            <path class="color-shadow"
                d="M504.87,605.25c.93-1.93,1.85-3.86,2.79-5.79a2.68,2.68,0,0,1,.46-.5c-.29.77-.54,1.57-.88,2.32-.91,2-1.85,3.94-2.78,5.91C504.6,606.54,504.73,605.9,504.87,605.25Z" />
            <path class="color-base"
                d="M455.85,591.06c0,.46-.09.93-.11,1.39s0,1,0,1.45l1.43-.15c0,.28-.07.56-.1.84l-3.47.14,1.44-.23Z" />
            <path class="outline"
                d="M422.61,653.11l.72-.35,1.48-.35.05,0,.62-.31,1,.24,0,.49L424.28,654l0,.07h-.08l-.94,0Z" />
            <path class="color-base"
                d="M505.43,583.45l-.49,0a8.83,8.83,0,0,1,.84-3.7l.56.13C506,581.05,505.74,582.25,505.43,583.45Z" />
            <path class="color-base"
                d="M457.17,581.74l-.12,0-.12,0c-.1-.55-.2-1.1-.32-1.72l-.29.76a5.67,5.67,0,0,1-.3-3l.55-.07Z" />
            <path class="color-base" d="M478.91,590.82l-.45,2.74,1.14-.6c.06.24.13.48.19.72l-4.76.14,2.84-.33Z" />
            <path class="color-shadow" d="M354.45,593.07l-3.92-.13,5.34-.11Z" />
            <path class="outline"
                d="M408,639.35l.58,1.18a8.14,8.14,0,0,1,0,1.85c-.09.37-.54.65-.83,1,.24-.66,1-1.38-.24-1.85Z" />
            <path class="outline" d="M345.78,593.35v.54l-3.32.05,0-.49.74-.32,2,.06Z" />
            <path class="color-shadow"
                d="M498.93,595.47l-1.5-.84c1.07.29,2.17.5,3.19.89.72.27,1,0,1.25-.56.33,1,0,1.28-1,1Z" />
            <path class="outline" d="M451.31,591.78l.08-.7.59-.15.27.6v.83c-.21.78-.42,1.56-.64,2.34l-.4-.47V593Z" />
            <path class="outline" d="M409.65,635c.23-1.82.45-3.64.69-5.46,0,0,.14-.05.22-.07Z" />
            <path class="outline"
                d="M421.62,623.52a5.18,5.18,0,0,1,.9.48,4.1,4.1,0,0,0,3.72.48C424.91,625.51,423,625.12,421.62,623.52Z" />
            <path class="color-base"
                d="M426.88,582.16l.11-1.81.68.06c-.13,1-.25,2.09-.38,3.13C427.15,583.08,427,582.62,426.88,582.16Z" />
            <path class="outline" d="M498,609.53l3.84-.12Z" />
            <path class="color-base" d="M426.78,594.51l.35-3.87C427,591.93,426.9,593.22,426.78,594.51Z" />
            <path class="color-shadow" d="M374.9,594.14a5.55,5.55,0,0,1-3.12-2.84Z" />
            <path class="outline" d="M354.45,593.07l1.42-.24h1l.72.43,0,.26H354.2Z" />
            <path class="outline" d="M493.39,609.73l3.35-.21Z" />
            <path class="color-shadow" d="M345.78,593.35l-.51-.16,3.4-.17Z" />
            <path class="color-shadow" d="M369.47,588.71h.26l1.92,2.43Z" />
            <path class="color-shadow" d="M402.78,597.22l-3.22-.22Z" />
            <path class="color-base"
                d="M456.37,585.8c-.06,1-.13,2.09-.19,3.13C456.24,587.89,456.31,586.84,456.37,585.8Z" />
            <path class="outline" d="M412.54,615.11a3.93,3.93,0,0,1,.39-3.37Z" />
            <path class="color-shadow" d="M426.88,582.16c.14.46.27.92.41,1.38l-.15,1.81-.62-.25Z" />
            <path class="color-shadow"
                d="M395.54,596.79l.42-2.32a6.63,6.63,0,0,0,0,1.09,9.83,9.83,0,0,0,.29,1.16.28.28,0,0,1,0,.2.5.5,0,0,0-.21,0Z" />
            <path class="color-shadow" d="M399.18,597l-2.5-.21Z" />
            <path class="outline" d="M456.32,580.76l.29-.76c.12.62.22,1.17.32,1.72l-.47.26Z" />
            <path class="outline" d="M424.28,654l2.18-1.19C426.17,654,425.05,653.66,424.28,654Z" />
            <path class="outline"
                d="M504.87,605.25c-.14.65-.27,1.29-.41,1.94l-.19.26C503.76,606.52,504.44,605.92,504.87,605.25Z" />
            <path class="color-base" d="M470.6,593.94l-1.9.1Z" />
            <path class="outline" d="M342.49,593.45l0,.49-1.23,0c0-.22,0-.44,0-.66l.69-.08Z" />
            <path class="color-shadow" d="M480.78,585.18l.14-1.75Z" />
            <path class="color-shadow" d="M480.52,588.53l.14-1.73Z" />
            <path class="color-base" d="M479.38,588.66l-.37,1.71Z" />
            <path class="outline" d="M417.38,638.86l.41,1.69Z" />
            <path class="outline"
                d="M324.34,582.28c-.29-.49-.57-1-.85-1.48C323.77,581.29,324.05,581.79,324.34,582.28Z" />
            <path class="color-base" d="M463.37,594.33l-1.43.11Z" />
            <path class="color-shadow" d="M381.89,595.08l-1.06.13-.46-.31Z" />
            <path class="outline" d="M412.3,617l.18-1.45Z" />
            <path class="color-shadow" d="M371.07,593.65l-1.26-.12Z" />
            <path class="color-shadow" d="M387.31,595.71l-1.19-.1Z" />
            <path class="color-shadow" d="M329.33,589l-.84-1Z" />
            <path class="color-base" d="M456.11,589.39l-.19,1.22Z" />
            <path class="color-shadow" d="M389.58,596l-1.3-.18Z" />
            <path class="color-shadow" d="M363.86,593.18l-1.25-.13Z" />
            <path class="color-base" d="M451.31,591.78c0,.41-.07.82-.1,1.23Z" />
            <path class="color-shadow" d="M391.5,596.26l-1.3-.16Z" />
            <path class="color-base" d="M459.09,594.41l-1.33.15Z" />
            <path class="outline" d="M402.43,624.37l.87-.88Z" />
            <path class="outline" d="M341.24,593.3c0,.22,0,.44,0,.66-.56.08-.9-.06-.75-.73Z" />
            <path class="color-shadow" d="M367.93,593.43l-1-.13Z" />
            <path class="outline" d="M410.63,629l.19-1.21Z" />
            <path class="outline" d="M412.05,619l.17-1.21Z" />
            <path class="color-shadow" d="M376.59,594.36l-1-.14Z" />
            <path class="color-base" d="M494.42,593.85l-1-.08Z" />
            <path class="color-shadow" d="M379.72,594.81l-1-.13Z" />
            <path class="color-shadow" d="M480.13,584.56l-.17,1Z" />
            <path class="color-shadow" d="M480.28,590.69l.14-1Z" />
            <path class="outline" d="M415.5,627.09l.12,1Z" />
            <path class="outline" d="M410.87,627.35l.16-1Z" />
            <path class="color-base" d="M452,590.93l-.59.15.1-.63Z" />
            <path class="color-shadow" d="M383.57,595.31l-1-.15Z" />
            <path class="color-shadow" d="M371.61,593l.54.69-.7,0C371.5,593.45,371.56,593.21,371.61,593Z" />
            <path class="outline" d="M394.62,622.09v0Z" />
            <path class="color-shadow" d="M393.07,596.44l-.95-.1Z" />
            <path class="color-base" d="M407.92,617.21l.6-1Z" />
            <path class="color-base" d="M451.21,594.23l.4.47.15.13-.87.08C451,594.68,451.1,594.46,451.21,594.23Z" />
            <path class="outline" d="M411.6,622.31l.16-1Z" />
            <path class="outline" d="M411.83,620.63l.16-1Z" />
            <path class="color-shadow" d="M327.66,587.08l-.6-.74Z" />
            <path class="outline" d="M411.36,624l.17-1Z" />
            <path class="outline" d="M403.67,623.08l.67-.78Z" />
            <path class="outline" d="M411.11,625.67l.17-1Z" />
            <path class="color-shadow" d="M384.91,595.48l-.7-.07Z" />
            <path class="color-base" d="M452.25,592.36v0Z" />
            <path class="outline" d="M415.75,629.49l.13.73Z" />
            <path class="outline" d="M416,631.17l.14.74Z" />
            <path class="outline" d="M409.4,636.46l.14-.73Z" />
            <path class="outline" d="M423.23,654l.94,0C423.85,654.64,423.53,654.63,423.23,654Z" />
            <path class="color-shadow" d="M326.14,585.59l.21-.21.36.51Z" />
            <path class="color-shadow" d="M325.49,584.19l-.34-.5Z" />
            <path class="color-shadow" d="M326,584.91l-.36-.5Z" />
            <path class="color-base" d="M479.61,587.45l-.12.52Z" />
            <path class="color-shadow" d="M368.27,588.18l.32.06v.45Z" />
            <path class="color-shadow" d="M369,589.36l.33.53Z" />
            <path class="color-shadow" d="M332.34,591.6l-.52-.36Z" />
            <path class="color-shadow" d="M480.07,591.67l.12-.56Z" />
            <path class="color-shadow" d="M333,592.1l-.47-.36Z" />
            <path class="color-shadow" d="M370.42,591.53l.37.48Z" />
            <path class="color-shadow" d="M334.32,593l-.58-.27Z" />
            <path class="color-shadow"
                d="M394.41,595.83c-.08.21-.17.41-.25.62C394.24,596.24,394.33,596,394.41,595.83Z" />
            <path class="color-base" d="M407.46,618l.33-.54Z" />
            <path class="outline" d="M416.46,634.29l.12.5Z" />
            <path class="outline" d="M421.08,623l.34.35Z" />
            <path class="color-shadow" d="M325,583.47l-.31-.52Z" />
            <path class="outline" d="M416.22,632.85l.11.5Z" />
            <path class="outline" d="M416.68,635.49l.13.51Z" />
            <path class="outline" d="M416.92,636.7l.12.5Z" />
            <path class="outline" d="M409.18,637.67l.11-.5Z" />
            <path class="outline" d="M417.17,637.89l.13.5Z" />
            <path class="outline" d="M408.94,638.87l.11-.5Z" />
            <path class="color-shadow" d="M377.71,594.53l-.46-.07Z" />
            <path class="color-base"
                d="M417.09,601.62l-1-.65v-.75l1.42-.11,2.65.09,1.71-.15,1.4-.18,1,.08,1.22-.15,3.32-.41.51-.07,1.42-.14.73.07,1-.16.44-.15.5.08,1.21-.21.94-.08c.47.39.9.52,1.23-.15a.37.37,0,0,0,0-.11l.75.09a5.57,5.57,0,0,0,4.1-.45l.21-.12,1,.09,1.94-.17,2.12-.19,1.46.1,2.19-.13,4-.22,1.46.11.73-.06,3.33-.29.74.11,1.23-.12,3.32-.21,1.69.1c.14.07.27.21.41.21,2.46,0,4.93,0,7.39,0,.21,0,.41-.26.62-.4l1.42,0h1.92l.75-.15,4.27.25,1.23.1,1.65.14.51.09,1.16.17.52.09,3.09.59.51.14,4.06,1a.39.39,0,0,0,0,.21,22,22,0,0,0-.46,2.37c-.11,1.18-.69,1.39-1.67,1-.09-.32-.19-.63-.28-1l-.21-1.41h-.33l-.53,3.6-.12.7-.08.49-.33,1-3.25-.26-1.17-2.66-.47-.46,0,.44c0,.95,0,1.91,0,2.87l-5.93.49-1.2-1.28c-1-.67-.61.29-.75.64s-.28.57-.42.86a5.2,5.2,0,0,1-1-.59,3.64,3.64,0,0,1-.56-.86l-.11-.45c0-.17-.11-.34-.16-.5l-.29-.95c0-.17-.09-.33-.14-.5-.23-1.19-.42-2.38-.7-3.55-.06-.25-.41-.43-.63-.64l-.45.64c0,.18.07.35.1.53s-.35.49-.36.74c0,.75,0,1.5,0,2.26l.36.56c.12.63.23,1.26.34,1.89.06.17.11.34.17.51l.11,0c0,.17,0,.34,0,.51-.42.23-.84.66-1.27.68-3.63.13-7.26.18-10.89.26l-.1-.71-.17-.5c-.46-.51.16-1.83-1.23-1.62l-3.68-.28c-.09-1.12.4-2.34-.65-3.59-.25.62-.44,1-.55,1.38-.22.84-.4,1.69-.59,2.53l-9.69-.08-1.4-1.3-.21.22,1.21,3.39a5.31,5.31,0,0,1-1.2.31c-2.1,0-4.2,0-6.29,0l-.25-.23-.18-.49-.07-.71-.16-.52-.1,0-.15-.5c-.21-1.11-.41-2.22-.61-3.33l-.42-.83c-.19.21-.51.42-.53.64-.11,1.18-.14,2.36-.2,3.54l-13.71,1-.2,0-.42-.59-1.51-3C420,601.34,417.8,601,417.09,601.62Z" />
            <path class="color-base"
                d="M412.64,600.74l-2.6,1.39c-.08-.83-.19-.92-.76-.66l-.36.19c-1-.45-1.43.1-1.69,1l-.24.46-.43.75-.07.95-.2.25h0l-.73.72-.45.33c-1.1-.11-2.19-.25-3.3-.32-2.76-.17-5.52-.34-8.29-.45a9,9,0,0,0-1.9.29l-.7-1.53c0-.16-.05-.31-.07-.47a3.25,3.25,0,0,0-.06-.89c-.05-.16-.32-.24-.49-.36l-.31.52c0,.16-.06.31-.08.46,0,.33,0,.66,0,1,.16,1,.32,2.08.47,3.12l-4.44-.52-.45-.26-1.05-1.38h0l-1.46-2-.37,0,.27.33.12.93.15.51.07.44c-.22.81-.69,1-1.54,1-2.82-.29-5.65-.49-8.47-.72l-.74-.56c-1-1.15-.54.61-1,.56l-1.8-.49-.27-.23c-.09-.23-.18-.47-.26-.71l0-.48-.39-1-.16-.2-.15-.74-.07-.46-.19-1.22-.09-.69c-.19-.4-.37-.8-.55-1.2a3.6,3.6,0,0,0-.59,1.08c-.14.81-.15,1.63-.21,2.45l.35.56.13.2c.05.25.09.5.14.75l.09.46c0,.55-.07,1.11-.11,1.66l-6.57,0c-.54,0-1.08,0-1.06-.74l.25-1.71-.33-.14L358.21,605h0l-.69.52c-1.4,0-2.8,0-4.2,0a4.89,4.89,0,0,1-1.26-.45v-1.72l-.21-.35-.29.37-.55,1.41-.46.5a3.34,3.34,0,0,1-1,.22c-1.72-.24-3.43-.56-5.16-.79a5.9,5.9,0,0,0-1.43.15l-.4-.15c-.35-.76-.7-1.52-1-2.28-.25-.48-.49-1-.73-1.45l-.24-.45.1-1.66c3.21-.26,6.3-.48,9.38-.78,2.6-.25,5.19-.72,7.8-.87a63.23,63.23,0,0,1,7.54,0c3.13.18,6.24.58,9.36.85a4.1,4.1,0,0,0,1.11-.24l1,0,.2.13.75.16.49-.09,1.15.22.52.11.49-.08,1.17.13.75.13.93.12.51.08,1.17.16.51.09,1.41.17.51.08,1.41.15.75.08,3.11.3,2.17.17,1.91.07,2.65.16,3.59.1a10.76,10.76,0,0,0,1.27.17c2.38,0,4.76,0,7.14,0A6.2,6.2,0,0,1,412.64,600.74Z" />
            <path class="color-shadow"
                d="M375.8,597.81a4.1,4.1,0,0,1-1.11.24c-3.12-.27-6.23-.67-9.36-.85a63.23,63.23,0,0,0-7.54,0c-2.61.15-5.2.62-7.8.87-3.08.3-6.17.52-9.38.78l-.1,1.66-.47,0c-.34-.53-.63-1.48-1-1.51a36.49,36.49,0,0,0-4,.12c-1.89,0-3.79,0-5.69,0-1.05,0-2.1,0-3.15-.06h-.26l-.29-.71a12.28,12.28,0,0,0-.67-1.58c-.06-.1-.52,0-.8.07,0,.41-.05.82-.08,1.23a6.08,6.08,0,0,0,1.53,4l.15.37-.82.35-1.18-.34a14.52,14.52,0,0,1-1.14-1.71c-.85-1.8-1.63-3.62-2.44-5.43-.14-.29-.3-.57-.51-1l1.24.09,1.89.36.51.12.7.1.74.14.7.1.74.15.7.07,1,.17.94.08,1.21.19.71.06,1,.15,1.42.09a5.41,5.41,0,0,0,1.12.22q3.5,0,7,0a5.29,5.29,0,0,0,1-.22l3.34-.1,4.58-.15,8.4,0,2.42.16,1.66.07,1.46.16,1.18.08,1.22.16,1,.07,1.22.15,1.18.09,1,.15.94.09,1.21.18.94.08,1.22.16.71.07Z" />
            <path class="color-shadow"
                d="M494.41,602.85c1,.41,1.56.2,1.67-1a22,22,0,0,1,.46-2.37l1.68.42.59.16.61.34.59.16.61.29.46.09.51.13,3.09.11.05.24-1.29,2.32-.64,1a.36.36,0,0,0-.07.18l-.61,0,.16-1.85-.21-.66-.22,0v.64c-.44,1-.88,2-1.31,3l-.32.59c-.59,1-.82,1-2.21-.07l-.73-.87-.26.15.19,1.94-1.38.2-.5.1-1.12.14c-.08-.23-.17-.46-.25-.68s.09-.47.13-.7l.12-.51c0-.39.09-.78.13-1.17l.06-.72Z" />
            <path class="color-base"
                d="M326.14,599c1.05,0,2.1.06,3.15.06,1.9,0,3.8,0,5.69,0a36.49,36.49,0,0,1,4-.12c.39,0,.68,1,1,1.51l.69,3.37a2.51,2.51,0,0,1-.89.26c-1.87-.21-3.73-.48-5.59-.72l-.38-.14a.11.11,0,0,0-.06-.13c-.29-.41-.11-1.34-1.09-1a3.51,3.51,0,0,1-1.24.21c-1.31-.25-2.6-.61-3.89-.93Z" />
            <path class="color-shadow"
                d="M391.62,605.6a9,9,0,0,1,1.9-.29c2.77.11,5.53.28,8.29.45,1.11.07,2.2.21,3.3.32-.78.76-1.54,1.56-2.36,2.28a1.68,1.68,0,0,1-1,.17c-1.85,0-3.7,0-5.55-.07l-1.16,0h-1.23l-1.21-.27v0C392.25,607.31,391.94,606.45,391.62,605.6Z" />
            <path class="color-shadow"
                d="M447.09,604.54l9.69.08a20.79,20.79,0,0,1-.63,2.53,1.37,1.37,0,0,1-1,.77c-2.58,0-5.38.73-7.22-2a.36.36,0,0,0-.11,0,.35.35,0,0,0-.08-.16Z" />
            <path class="color-shadow"
                d="M334.25,603.37c1.86.24,3.72.51,5.59.72a2.51,2.51,0,0,0,.89-.26l1,2.15-1,.67-1.44-.13-1.45-.19-.71-.07-.74-.15L336,606l-.91-.8A.49.49,0,0,0,335,605l-.4-.55a.45.45,0,0,0-.07-.18Z" />
            <path class="color-shadow"
                d="M373.2,605.73c2.82.23,5.65.43,8.47.72.85.09,1.32-.14,1.54-1l.92,1.54a.3.3,0,0,0,.07.15l-.49.66H383l-1-.08-2.14-.09-1.7-.16-1.18-.08-2.18-.14-.67-.37Z" />
            <path class="color-shadow"
                d="M458.57,604.3l3.68.28c-.14.8-.27,1.6-.4,2.4l-.09.45-.33.69-2.32.12h-.53l-.71-.06c.14-1.06.28-2.11.43-3.17,0-.24,0-.48,0-.71h.23Z" />
            <path class="color-shadow"
                d="M342.92,604.82a5.9,5.9,0,0,1,1.43-.15c1.73.23,3.44.55,5.16.79a3.34,3.34,0,0,0,1-.22c-.17,1.24-.75,2-2.12,1.75a13.44,13.44,0,0,0-1.68,0l-1.19-.07-1.35,0-.77-.69c-.19-.3-.37-.6-.55-.9Z" />
            <path class="color-shadow"
                d="M359.7,604.76c0,.79.52.74,1.06.74l6.57,0V607H359c0-.5.09-1,.13-1.49l.11-.45Z" />
            <path class="color-shadow"
                d="M327.59,601.41c1.29.32,2.58.68,3.89.93a3.51,3.51,0,0,0,1.24-.21l.4,1.45c0,.23.06.46.08.7s0,.63-.05,1l-3-.91-2.7-2.7Z" />
            <path class="color-shadow"
                d="M463.75,607.41c3.63-.08,7.26-.13,10.89-.26.43,0,.85-.45,1.27-.68.16.57.31,1.13.46,1.7h-3.86l-5.73,0-1.45,0-1.45,0Z" />
            <path class="outline"
                d="M458.57,604.3h-.23c-.12-.44-.23-.88-.35-1.31l-.23,0c-.3,1.15-.58,2.31-.88,3.46-.51,2-.51,2-2.55,2H451a3.53,3.53,0,0,1-3.11-2.46.36.36,0,0,1,.11,0c1.84,2.7,4.64,2,7.22,2a1.37,1.37,0,0,0,1-.77,20.79,20.79,0,0,0,.63-2.53c.19-.84.37-1.69.59-2.53.11-.39.3-.76.55-1.38C459,602,458.48,603.18,458.57,604.3Z" />
            <path class="color-shadow" d="M481.66,606.7l5.93-.49,1,1.78-.94.31-4.07-.16-.73-.18Z" />
            <path class="color-shadow"
                d="M352.06,605a4.89,4.89,0,0,0,1.26.45c1.4,0,2.8,0,4.2,0,0,.14,0,.29,0,.44a2,2,0,0,1-2.16,1c-1.34-.07-2.68,0-4,0,0-.18-.05-.37-.08-.55l.58-1.42Z" />
            <path class="outline"
                d="M487.63,608.3l.94-.31-1-1.78,0-2.87.49,0,1.17,2.66c.14,2.27-.3,2.18,2.34,2.15h.59a3.83,3.83,0,0,1-1.19.41C489.89,608.56,488.76,608.4,487.63,608.3Z" />
            <path class="color-shadow"
                d="M439.2,607.17c2.09,0,4.19,0,6.29,0a5.31,5.31,0,0,0,1.2-.31c.18.41.35.81.53,1.21h-.37l-1.7,0-1.42,0h-3.14C440,608.05,439.1,608.33,439.2,607.17Z" />
            <path class="color-shadow"
                d="M492.21,608.18h-.59c-2.64,0-2.2.12-2.34-2.15l3.25.26C492.43,606.91,492.32,607.54,492.21,608.18Z" />
            <path class="outline"
                d="M412.64,600.74a6.2,6.2,0,0,0-1.3-.33c-2.38,0-4.76,0-7.14,0a10.76,10.76,0,0,1-1.27-.17,3.2,3.2,0,0,1,.78-.2q5.27,0,10.53,0a3.35,3.35,0,0,1,.68.16l0,.33Z" />
            <path class="outline"
                d="M320.87,594.35l-1.24-.09c.21.41.37.69.51,1,.81,1.81,1.59,3.63,2.44,5.43a14.52,14.52,0,0,0,1.14,1.71c-.74.48-1-.08-1.18-.6-.5-1.26-.91-2.56-1.45-3.8-.4-.89-1-1.71-1.43-2.58a13.74,13.74,0,0,1-.56-1.38l.25-.33Z" />
            <path class="color-shadow"
                d="M369.63,605.24l1.8.49c.49,0,0-1.71,1-.56a3.43,3.43,0,0,0,0,.79c.11.43.29.85.44,1.27a3.78,3.78,0,0,0-.82,0,2.05,2.05,0,0,1-2.6-1.68C369.56,605.43,369.6,605.33,369.63,605.24Z" />
            <path class="outline"
                d="M342.2,596.13a5.29,5.29,0,0,1-1,.22q-3.49,0-7,0a5.41,5.41,0,0,1-1.12-.22,4.51,4.51,0,0,1,.88-.21c2.45,0,4.89,0,7.34,0A3.59,3.59,0,0,1,342.2,596.13Z" />
            <path class="outline"
                d="M447.22,608.06c-.18-.4-.35-.8-.53-1.21l-1.21-3.39.21-.22,1.4,1.3.69,1.21-1-.24L448,608Z" />
            <path class="outline"
                d="M436.53,604.79c.06-1.18.09-2.36.2-3.54,0-.22.34-.43.53-.64l.42.83c-.23.27-.68.56-.65.81.16,1.68.41,3.35.68,5,.08.52.39,1-.47,1.12l-.12-.13C436.92,607.1,436.73,605.94,436.53,604.79Z" />
            <path class="color-shadow"
                d="M477.7,605.47a3.64,3.64,0,0,0,.56.86,5.2,5.2,0,0,0,1,.59c.14-.29.3-.56.42-.86s-.26-1.31.75-.64c-.1.82-.2,1.64-.31,2.57C478.72,608.52,478.23,608.32,477.7,605.47Z" />
            <path class="color-shadow"
                d="M475.42,596.91c-.21.14-.41.4-.62.4-2.46,0-4.93,0-7.39,0-.14,0-.27-.14-.41-.21a1.69,1.69,0,0,1,0-.23l5.25-.12Z" />
            <path class="color-shadow" d="M385.93,606.92l4.44.52a.22.22,0,0,1,.17-.05l-.09.78-3.12,0-1.19-.72Z" />
            <path class="outline"
                d="M363.07,607h4.26v-1.49c0-.55.08-1.11.11-1.66a5,5,0,0,1,.29,3.31l-.08.08C367.19,607.65,363.59,607.46,363.07,607Z" />
            <path class="outline"
                d="M463.75,607.41l.13.73c-.22-.14-.54-.23-.64-.43a11.19,11.19,0,0,1-.44-1.44l-.95.71c.13-.8.26-1.6.4-2.4,1.39-.21.77,1.11,1.23,1.62l.17.5Z" />
            <path class="outline"
                d="M366.73,601.85c.06-.82.07-1.64.21-2.45a3.6,3.6,0,0,1,.59-1.08c.18.4.36.8.55,1.2-.23.27-.56.5-.66.81a10.27,10.27,0,0,0-.25,1.57Z" />
            <path class="transparent" d="M408.92,601.66l.36-.19.62.67-.09.35-.63.62-.5.48-1.2.72.48-1.44Z" />
            <path class="outline"
                d="M384.13,607l-.92-1.54c0-.14,0-.29-.07-.44l-.15-.51-.12-.93c0-.12.07-.24.1-.36l1.46,2c-.19.18-.54.35-.54.53A5.43,5.43,0,0,0,384.13,607Z" />
            <path class="outline"
                d="M350.12,595.88l-4.58.15a2.87,2.87,0,0,1,.92-.34C347.68,595.72,348.9,595.81,350.12,595.88Z" />
            <path class="outline" d="M475.42,596.91l-3.16-.15c.26-.12.52-.35.77-.35,1.27,0,2.54.14,3.81.22v.24Z" />
            <path class="outline"
                d="M330.18,604.4l3,.91c0-.4,0-.71.05-1,.22.38.44.76.8,1.36A5.1,5.1,0,0,1,330.18,604.4Z" />
            <path class="outline" d="M359.7,604.76l-.46.26-1-.06,1.41-2.05.33.14Z" />
            <path class="outline"
                d="M493.06,604.09l.53-3.6h.33l.21,1.41c-.17.33-.36.65-.53,1S493.24,603.69,493.06,604.09Z" />
            <path class="outline" d="M335.46,595.06l4.11.07Z" />
            <path class="color-shadow" d="M441.58,598.11a5.57,5.57,0,0,1-4.1.45v-.25l1.89-.15.51-.08Z" />
            <path class="outline" d="M325.57,602a6.08,6.08,0,0,1-1.53-4Z" />
            <path class="outline" d="M391.62,605.6c.32.85.63,1.71.95,2.56a5.69,5.69,0,0,1-1.65-4.09Z" />
            <path class="outline" d="M372.94,607.23c-.15-.42-.33-.84-.44-1.27a3.43,3.43,0,0,1,0-.79l.74.56.95,1.19Z" />
            <path class="outline" d="M458.3,605c-.15,1.06-.29,2.11-.43,3.17l-.44-.11Z" />
            <path class="outline"
                d="M327.59,601.41l-.11.29c-1.33-.41-1.41-1.57-1.6-2.67h.26C326.62,599.82,327.1,600.62,327.59,601.41Z" />
            <path class="outline" d="M408.92,601.66l-1,1.21-.73-.25C407.49,601.76,407.92,601.21,408.92,601.66Z" />
            <path class="outline" d="M475,603.05c0-.76-.05-1.51,0-2.26,0-.25.24-.49.36-.74l.09,3Z" />
            <path class="outline" d="M407.48,604.31l1.2-.72.73.48-.6.5-.51.45h0Z" />
            <path class="outline" d="M420.19,600.2l-2.65-.09,2.66-.13A1.62,1.62,0,0,0,420.19,600.2Z" />
            <path class="outline" d="M399.34,600.1l-2.65-.16Z" />
            <path class="outline" d="M346.28,594.94l2.65-.05Z" />
            <path class="outline"
                d="M497.21,607.88l-.19-1.94.26-.15.73.87c-.14.24-.28.49-.43.73S497.33,607.72,497.21,607.88Z" />
            <path class="outline" d="M352.06,605h-.26l-.79-.28c.18-.47.36-.94.55-1.41l.5,0Z" />
            <path class="outline" d="M360.94,596.06l-2.42-.16Z" />
            <path class="outline" d="M333.12,603.58l-.4-1.45c1-.37.8.56,1.09,1Z" />
            <path class="outline" d="M324.12,596.81c.28,0,.74-.17.8-.07a12.28,12.28,0,0,1,.67,1.58Z" />
            <path class="outline" d="M468.67,595.85l2.2-.07Z" />
            <path class="outline" d="M374.82,607.29l2.18.14Z" />
            <path class="outline" d="M476.37,608.17c-.15-.57-.3-1.13-.46-1.7,0-.17,0-.34,0-.51l.87,2Z" />
            <path class="color-shadow" d="M450.47,597.69l-2.19.13a1.55,1.55,0,0,1,0-.22Z" />
            <path class="outline" d="M394.78,599.87l-2.17-.17Z" />
            <path class="outline" d="M359.13,605.47c0,.5-.09,1-.13,1.49l-.66,0Z" />
            <path class="outline" d="M383.71,607.85l.49-.66.93.56-.12.41Z" />
            <path class="outline" d="M409.19,612.23l1.21-2.08Z" />
            <path class="color-shadow" d="M476.84,596.87v-.24h1.92v.22Z" />
            <path class="outline" d="M462,596.09l1.95-.13A1.32,1.32,0,0,1,462,596.09Z" />
            <path class="color-base"
                d="M408.47,625.68c-.18.74-.37,1.47-.56,2.21C408.1,627.15,408.29,626.42,408.47,625.68Z" />
            <path class="color-shadow" d="M444.7,597.91l-1.94.17a1.93,1.93,0,0,1,0-.24Z" />
            <path class="outline" d="M340.75,606.65l1-.67.33.77Z" />
            <path class="outline" d="M467,596.88a1.69,1.69,0,0,0,0,.23l-1.69-.1Z" />
            <path class="outline" d="M445.15,608.08l1.7,0Z" />
            <path class="color-shadow"
                d="M340.75,600.94c.24.49.48,1,.73,1.45C341.23,601.91,341,601.43,340.75,600.94Z" />
            <path class="outline" d="M324.9,602.72l.82-.35.59.41-.13.37Z" />
            <path class="outline" d="M378.18,607.51l1.7.16Z" />
            <path class="outline"
                d="M390,602.87l.31-.52c.17.12.44.2.49.36a3.25,3.25,0,0,1,.06.89C390.56,603.36,390.27,603.12,390,602.87Z" />
            <path class="color-shadow" d="M420.19,600.2a1.62,1.62,0,0,1,0-.22l1.7.07Z" />
            <path class="outline" d="M498.22,599.92l-1.68-.42a.39.39,0,0,1,0-.21Z" />
            <path class="outline" d="M505.77,599.53l-.18-1.43C506.58,598.44,506.61,598.64,505.77,599.53Z" />
            <path class="outline" d="M384.43,605.28l1.05,1.38Z" />
            <path class="outline" d="M502.12,605l.61,0c-.18.34-.36.68-.55,1l-.36-.18Z" />
            <path class="outline" d="M337.86,606.33l1.45.19Z" />
            <path class="outline" d="M440.59,608.1h0Z" />
            <path class="outline" d="M465.33,608.16l1.45,0C466.27,609,465.81,608.22,465.33,608.16Z" />
            <path class="outline" d="M358.74,594.84l1.46.1Z" />
            <path class="outline" d="M473,595.74h1.48C474,596.38,473.47,596.38,473,595.74Z" />
            <path class="outline" d="M364.06,596.29l-1.46-.16Z" />
            <path class="outline" d="M456,597.58l-1.46-.11,1.46-.11Z" />
            <path class="outline" d="M448.29,597.6a1.55,1.55,0,0,0,0,.22l-1.46-.1Z" />
            <path class="outline" d="M386.14,607.4l1.19.72C386.5,608.6,386.19,608.21,386.14,607.4Z" />
            <path class="outline" d="M502.29,600l1.44.16Z" />
            <path class="color-shadow" d="M414.88,600.48l0-.33,1.2.07V601Z" />
            <path class="outline" d="M392.58,608.18l1.21.27Z" />
            <path class="outline" d="M345.56,606.91l1.19.07Z" />
            <path class="color-base" d="M411.08,613.68l-.44,1.2Z" />
            <path class="outline" d="M368.17,600.21l.19,1.22C367.63,601.12,367.81,600.68,368.17,600.21Z" />
            <path class="outline" d="M368.63,596.75l-1.22-.15Z" />
            <path class="outline" d="M472.51,608.18h1.22C473.32,608.87,472.91,608.89,472.51,608.18Z" />
            <path class="outline" d="M395,608.44l1.16,0Z" />
            <path class="outline" d="M372.94,597.26l-1.21-.18Z" />
            <path class="outline" d="M330,595.83l-1.21-.19Z" />
            <path class="color-shadow" d="M462,597.22l-1.23.12a1.62,1.62,0,0,1,0-.22Z" />
            <path class="outline" d="M366.46,596.53l-1.22-.16Z" />
            <path class="outline" d="M375.1,597.5l-1.22-.16Z" />
            <path class="color-shadow" d="M425.5,599.8l-1.22.15a.74.74,0,0,1,0-.21Z" />
            <path class="color-shadow" d="M436.78,598.58c-.33.67-.76.54-1.23.15Z" />
            <path class="color-shadow" d="M434.61,598.81l-1.21.21v-.23Z" />
            <path class="color-shadow" d="M485,597.06l-1.23-.1Z" />
            <path class="outline" d="M335,605.22l.91.8Z" />
            <path class="outline" d="M389.9,604.32c0-.33,0-.66,0-1C389.9,603.66,389.9,604,389.9,604.32Z" />
            <path class="outline" d="M375.8,597.81v-.24l1,.19Z" />
            <path class="outline" d="M502.8,604.8l.64-1Z" />
            <path class="outline" d="M382,607.76l1,.08Z" />
            <path class="outline" d="M332.58,594.83l1,.11Z" />
            <path class="outline" d="M331.67,596l-1-.15Z" />
            <path class="outline" d="M424.28,599.74a.74.74,0,0,0,0,.21l-1-.08Z" />
            <path class="outline" d="M370.79,597l-1-.15Z" />
            <path class="color-shadow" d="M432.46,599.09l-1,.16V599Z" />
            <path class="outline" d="M359.47,607h1C360.12,607.62,359.79,607.62,359.47,607Z" />
            <path class="outline" d="M327.83,595.56l-1-.17Z" />
            <path class="outline" d="M442.77,597.84a1.93,1.93,0,0,0,0,.24l-1-.09Z" />
            <path class="outline" d="M357.48,605.93c0-.15,0-.3,0-.44l.69-.52C358.33,605.56,358.21,606,357.48,605.93Z" />
            <path class="color-shadow" d="M368.74,602.83l.39,1h-.26Z" />
            <path class="outline" d="M390.45,608.17l.09-.78.33.73Z" />
            <path class="outline" d="M351.22,606.44c0,.18.06.37.08.55l-.57,0Z" />
            <path class="outline" d="M334.25,603.37l.24.94c-.2-.36-.41-.72-.62-1.08Z" />
            <path class="outline" d="M343.44,606.18l.77.69Z" />
            <path class="color-shadow" d="M405.56,605.75l.73-.72Z" />
            <path class="outline" d="M501.85,603.12v-.64l.22,0,.21.66Z" />
            <path class="outline" d="M482.83,608l.73.18Z" />
            <path class="outline" d="M474.91,608.19h.74l-.42.41Z" />
            <path class="outline" d="M471.54,595.77l.77,0C472.06,596.3,471.8,596.31,471.54,595.77Z" />
            <path class="outline" d="M367.85,595.56l.75.11Z" />
            <path class="outline" d="M365.45,595.32l.75.11Z" />
            <path class="outline" d="M363.05,595.08l.75.1Z" />
            <path class="outline" d="M326.15,595.32l-.74-.15Z" />
            <path class="outline" d="M494.4,604.54l-.06.72Z" />
            <path class="outline" d="M324.71,595.07l-.74-.14Z" />
            <path class="outline" d="M406.56,603.83l.43-.75Z" />
            <path class="outline" d="M368.43,601.89l.15.74Z" />
            <path class="outline" d="M330.66,594.57l.74.14Z" />
            <path class="outline" d="M389.5,599.4l-.75-.08Z" />
            <path class="outline" d="M431.48,599v.22l-.73-.07Z" />
            <path class="outline"
                d="M367.35,603.36c-.05-.25-.09-.5-.14-.75C367.26,602.86,367.3,603.11,367.35,603.36Z" />
            <path class="outline" d="M437.48,598.31v.25l-.75-.09Z" />
            <path class="outline" d="M382.3,598.47l-.75-.13Z" />
            <path class="outline" d="M336.41,606.11l.74.15Z" />
            <path class="color-shadow" d="M377.73,598.05l-.75-.16.74-.07C377.72,597.9,377.73,598,377.73,598.05Z" />
            <path class="color-shadow" d="M456,597.58v-.22l.73.16Z" />
            <path class="outline" d="M460.77,597.12a1.62,1.62,0,0,0,0,.22l-.74-.11Z" />
            <path class="outline" d="M494,607.64c.08.22.17.45.25.68l-.49-.14Z" />
            <path class="outline" d="M478.76,596.86v-.22l.75.07Z" />
            <path class="outline" d="M461.43,608.12l.33-.69Z" />
            <path class="outline" d="M475.22,599.52l.45-.64Z" />
            <path class="outline" d="M320.82,592.88l.5.15Z" />
            <path class="outline" d="M322,593.15l.51.13Z" />
            <path class="outline" d="M324.65,593.64l.51.11Z" />
            <path class="color-shadow" d="M475,603.05l.44,0c0,.17-.05.34-.08.52Z" />
            <path class="color-shadow" d="M477,603.07c.05.17.1.33.14.5C477.1,603.4,477.05,603.24,477,603.07Z" />
            <path class="outline" d="M504.73,601.44l-.05-.24.35-.11Z" />
            <path class="outline" d="M372.19,596.1l.49,0Z" />
            <path class="outline" d="M475.62,595.76h0Z" />
            <path class="outline" d="M380.38,598.21l-.49.08v-.22Z" />
            <path class="outline" d="M439.88,598.08l-.51.08Z" />
            <path class="outline" d="M443.24,608.11h0Z" />
            <path class="outline" d="M329.21,594.35l.51.11Z" />
            <path class="outline" d="M370.25,595.8l.51.11Z" />
            <path class="color-shadow" d="M379.88,598.07v.22l-.52-.11Z" />
            <path class="color-shadow"
                d="M475.84,606c-.06-.17-.11-.34-.17-.51C475.73,605.67,475.78,605.84,475.84,606Z" />
            <path class="outline" d="M452.83,596.57l.52-.06Z" />
            <path class="color-shadow" d="M366.73,601.85l.44,0-.09.51C367,602.22,366.84,602,366.73,601.85Z" />
            <path class="outline" d="M327.53,594.12l.51.11Z" />
            <path class="color-shadow" d="M492.45,598.28l-.51-.14Z" />
            <path class="outline" d="M383.74,598.67l-.51-.08Z" />
            <path class="outline" d="M379.39,597.06l.49.05Z" />
            <path class="color-shadow" d="M438.54,605.22l.16.52Z" />
            <path class="outline" d="M495.33,608.18l.5-.1Z" />
            <path class="outline" d="M385.42,598.92l-.51-.09Z" />
            <path class="outline" d="M433.4,598.79V599l-.5-.08Z" />
            <path class="outline" d="M387.34,599.17l-.51-.08Z" />
            <path class="outline" d="M494.21,606.43l-.12.51Z" />
            <path class="outline" d="M369.63,605.24c0,.09-.07.19-.11.28,0-.17-.11-.34-.16-.51Z" />
            <path class="outline" d="M492.86,605.28l.08-.49Z" />
            <path class="outline" d="M438.29,604.77l.15.5Z" />
            <path class="color-base" d="M408.79,624.63l-.16.62Z" />
            <path class="outline" d="M438.77,606.45l.18.49Z" />
            <path class="outline" d="M458.58,608.24h0Z" />
            <path class="color-shadow" d="M487.17,597.29l-.51-.09Z" />
            <path class="outline" d="M342.92,604.82l0,.46-.37-.61Z" />
            <path class="color-shadow"
                d="M477.43,604.52c.05.16.11.33.16.5C477.54,604.85,477.48,604.68,477.43,604.52Z" />
            <path class="outline" d="M429.33,599.32l-.51.07Z" />
            <path class="color-base" d="M407.77,628.32l-.17.51Z" />
            <path class="outline" d="M376,596.52l.51.1Z" />
            <path class="color-shadow" d="M488.85,597.55l-.52-.09Z" />
            <path class="outline" d="M334.56,604.49l.4.55C334.82,604.86,334.69,604.67,334.56,604.49Z" />
            <path class="outline" d="M505.16,598.06l-.56-.17Z" />
            <path class="outline" d="M458.82,596.24l.52,0-.25.34Z" />
            <path class="outline" d="M457.87,596.33l.52-.07Z" />
            <path class="outline" d="M500.22,606.73l.32-.59Z" />
            <path class="outline" d="M374.33,596.29l.51.1Z" />
            <path class="outline" d="M499.42,600.42l-.61-.34Z" />
            <path class="outline" d="M377.73,598.05c0-.08,0-.15,0-.23l.5.14Z" />
            <path class="outline" d="M323.27,594.83l-.51-.12Z" />
            <path class="outline" d="M368.87,603.82h.26l0,.48C369,604.14,368.94,604,368.87,603.82Z" />
            <path class="outline" d="M500.62,600.87l-.61-.29Z" />
            <path class="outline" d="M501.59,601.09l-.51-.13Z" />
            <path class="outline" d="M407.24,641.52l.23,0-.14.33Z" />
            <path class="color-shadow" d="M406.29,605l.2-.25Z" />
            <path class="outline" d="M332.36,593.74l.75.12Z" />
            <path class="outline" d="M328.76,593.27l.51.09Z" />
            <path class="color-shadow"
                d="M436.53,604.79c.2,1.15.39,2.31.59,3.46-2.78.06-5.56.12-8.34.2-.14,0-.28.12-.42.19h-1l-1.93-.22-.62-.33-1.75-1.65c-.09-.22-.19-.44-.28-.67Z" />
            <path class="outline"
                d="M417.86,611l-.57-2.37-.51-2.2-.07-1.6c.47.27,1.09.43,1.4.83.8,1,1.46,2.14,2.2,3.21.22.34.43,1,.92.21l1.14,1.88h-.22l-.48-.78-.41.24.67,1.17.69.38v0a2.94,2.94,0,0,0,0,1c.5,1.6,1.15,3.17,1.54,4.79.13.51-.38,1.16-.59,1.75a5.21,5.21,0,0,1-1.48-.71c-2-2-2.95-4.59-3.88-7.18Zm4.65,6.5.51-.24c-1-2.4-2-4.81-3.14-7.18-.12-.26-.65-.33-1-.49l-.21.28A24.33,24.33,0,0,0,422.51,617.51ZM417.66,606c-.14,2,.27,2.73,1.47,2.77Z" />
            <path class="transparent"
                d="M418.74,601.91c.3.29.59.6.9.88a3.22,3.22,0,0,1,.93,3l-.31.15c-.72-1.07-1.47-2.13-2.14-3.24-.11-.16.11-.53.19-.8Z" />
            <path class="color-shadow" d="M421.71,606.46l1.74,2.12C422.44,608.79,421.78,608.09,421.71,606.46Z" />
            <path class="color-shadow" d="M418.74,601.91h-.43l-1.22-.29c.71-.58,2.86-.28,3.6.5Z" />
            <path class="outline" d="M423.1,606.43l1.75,1.65Z" />
            <path class="outline" d="M425.47,608.41l1.93.22C426.72,608.88,426,609.23,425.47,608.41Z" />
            <path class="outline" d="M409.9,602.14l-.62-.67c.57-.26.68-.17.76.66l-.07,0Z" />
            <path class="transparent"
                d="M422.15,611h.22c.08.33.16.67.25,1l-.69-.38C422,611.38,422.07,611.17,422.15,611Z" />
            <path class="outline" d="M416.14,607.19l.42,1-.44,0Z" />
            <path class="outline" d="M409.18,603.11l.63-.62Z" />
            <path class="color-base" d="M417,624l-.09-.51Z" />
            <path class="color-base" d="M418.17,614.58l.23.6Z" />
            <path class="outline" d="M422.2,605.14l.42.59Z" />
            <path class="transparent" d="M418,604.54l-.21-.25Z" />
            <path class="outline"
                d="M423.78,648.71c-.59-1.33-1.28-2.62-1.75-4-.91-2.64-1.71-5.32-2.53-8a7.77,7.77,0,0,1-.18-1.45c.47,1.38.94,2.76,1.4,4.15C421.75,642.52,422.76,645.61,423.78,648.71Z" />
            <path class="outline" d="M424.86,652.37c.06-.34.11-.69.17-1l.45.72Z" />
            <path class="outline" d="M419.2,634.8l-.35-1.2Z" />
            <path class="outline" d="M424.74,650.86l-.54-1.24Z" />
            <path class="color-base" d="M418.06,630l-.18-.91Z" />
            <path class="color-base" d="M417.79,628.54l-.15-.94Z" />
            <path class="color-base" d="M417.52,627.12l-.13-1Z" />
            <path class="color-base" d="M417.27,625.68l-.1-.72Z" />
            <path class="color-base" d="M418.25,631l-.12-.47Z" />
            <path class="color-base" d="M418.52,632.13l-.13-.45Z" />
            <path class="color-base" d="M418.75,633.1l-.14-.46Z" />
            <path class="outline"
                d="M409,631.19c.53-4.25,1.05-8.51,1.59-12.76,0-.16.18-.29.28-.44a21.4,21.4,0,0,1,0,2.27q-.69,5.28-1.45,10.55C409.35,631,409.12,631.07,409,631.19Z" />
            <path class="outline" d="M411.41,614.88c.17-.79.33-1.58.5-2.37C411.74,613.3,411.58,614.09,411.41,614.88Z" />
            <path class="outline" d="M411.17,616.32l.13-.74Z" />
            <path class="outline" d="M411,617.52l.13-.74Z" />
            <path class="outline" d="M408.78,632.88l.15-.49Z" />
            <path class="outline" d="M408.53,634.56l.15-.49Z" />
            <path class="outline" d="M408.32,636.24l.15-.49Z" />
            <path class="outline" d="M408.06,638.16l.14-.49Z" />
            <path class="outline" d="M325.88,585.58l-.3-.08.3.09Z" />
            <path class="outline"
                d="M418,637c.26.75.54,1.5.76,2.27.69,2.43,1.36,4.87,2,7.31a7.22,7.22,0,0,1,.13.79c-.28-.5-.55-1-.82-1.52l-.18-.73h0l-.57-1.89-.18-.5-.44-1.7h0c-.18-.87-.37-1.74-.55-2.62l-.18-.49c0-.24-.08-.47-.13-.7S418,637.05,418,637Z" />
            <path class="outline" d="M417.76,635l.05.74-.13.24-.36-2.17.11,0,.11,0,0,.72Z" />
            <path class="outline" d="M417.14,632.13l.13,1.24Z" />
            <path class="color-base" d="M416.16,624.93l.17.73Z" />
            <path class="outline" d="M416.93,630.44l.07.76Z" />
            <path class="outline" d="M417.68,636l.13-.24.19.71a.24.24,0,0,1-.22,0Z" />
            <path class="outline"
                d="M417.78,636.47a.24.24,0,0,0,.22,0l0,.51c0,.08-.09.16-.14.24C417.86,637,417.82,636.72,417.78,636.47Z" />
            <path class="color-base" d="M416.41,626.61l.14.5-.1,0-.09,0h0Z" />
            <path class="color-base" d="M416.63,628.06l.16.48Z" />
            <path class="color-base" d="M417.54,633.82l-.11,0-.11,0,0-.49Z" />
            <path class="outline" d="M418,637.91l.18.49Z" />
            <path class="outline" d="M419.2,642.71l.18.5Z" />
            <polygon class="color-base" points="416.36 627.1 416.33 627.13 416.35 627.1 416.36 627.1" />
            <polygon class="outline" points="418.76 641.01 418.73 641.05 418.75 641.02 418.76 641.01" />
            <polygon class="outline" points="419.95 645.09 419.93 645.12 419.95 645.1 419.95 645.09" />
            <path class="outline" d="M423.1,652.07l1.71.34-1.48.35Z" />
            <path class="outline" d="M422.13,650.15l.25.55Z" />
            <path class="outline" d="M396,596.9a.5.5,0,0,1,.21,0Z" />
            <path class="color-shadow" d="M488.11,603.36l-.49,0c0-.15,0-.29,0-.44Z" />
            <path class="color-shadow" d="M463.65,606.7l-.17-.5Z" />
            <path class="color-shadow" d="M383,603.26c0,.12-.07.24-.1.36l-.27-.33Z" />
            <path class="color-shadow" d="M352.06,603.31l-.5,0,.29-.37Z" />
            <path class="color-shadow" d="M383,604.55l.15.51Z" />
            <path class="outline"
                d="M411.8,605.73l-.08.25-.16.24-1.26,2.4-.18.25a42.64,42.64,0,0,1-9.24,11.58c-.65.58-1.41,1.53-2.38.83s-.36-1.83.09-2.58a41.38,41.38,0,0,1,4.25-6.3c2.6-2.89,5.53-5.48,8.34-8.18a6.81,6.81,0,0,1,1.08-.73l.34.35-.4,1.19-.16.22-.08.25Zm-11,13,.05-.22a6.06,6.06,0,0,0,1-.77c1.81-2.17,3.6-4.36,5.37-6.55a17.21,17.21,0,0,0,1-1.51c-1.44-.14-6.35,5.57-7.58,8.62l-.21.13L400,619l.27.24Zm9.46-12-.37-.28L408,608.56c.25.06.67.25.75.16C409.31,608.11,409.76,607.43,410.23,606.77Zm.52-.73c0-.06,0-.15-.07-.18s-.12,0-.19,0l.1.23Z" />
            <path class="outline" d="M412.6,603.84l-.34-.35.44-.14Z" />
            <path class="outline" d="M408.3,605l.51-.45Z" />
            <path class="outline" d="M411.56,606.22l.16-.24Z" />
            <path class="outline" d="M411.8,605.73l.16-.23Z" />
            <path class="outline" d="M410.12,608.87l.18-.25Z" />
            <path class="outline" d="M412,605.25l.16-.22Z" />
            <path class="color-shadow" d="M417.86,611l.34.57Z" />
            <path class="outline" d="M417.76,635l-.17-.47Z" />
            <path class="color-shadow" d="M417.66,606l1.47,2.77C417.93,608.71,417.52,608,417.66,606Z" />
            <path class="transparent"
                d="M400.64,618.31c1.23-3,6.14-8.76,7.58-8.62a17.21,17.21,0,0,1-1,1.51c-1.77,2.19-3.56,4.38-5.37,6.55a6.06,6.06,0,0,1-1,.77Z" />
            <path class="color-shadow" d="M410.23,606.77c-.47.66-.92,1.34-1.44,2-.08.09-.5-.1-.75-.16l1.82-2.07Z" />
            <path class="color-shadow" d="M400.77,618.74l-.53.52L400,619l.46-.58Z" />
            <path class="outline" d="M410.75,606l-.16.09-.1-.23c.07,0,.15-.06.19,0S410.73,606,410.75,606Z" />
        </g>
    </g>
</svg>
