<svg id="Nizy_pryamoy" data-name="Nizy pryamoy" xmlns="http://www.w3.org/2000/svg" viewBox="0 0 672 960">
    <g id="img_17" data-name="img 17">
        <g id="img_14_img" data-name="img 14 img">
            <path class="outline"
                d="M341.35,637.2c-.09,2-1.39,2.88-3,3.32a26.92,26.92,0,0,1-22-3.13A2.55,2.55,0,0,1,315,635c0-.39-.52-.94-.93-1.17-2.41-1.34-4.86-2.62-7.3-3.9a42.07,42.07,0,0,0-3.87-1.91c-2.46-1-2.65-3.33-1.71-5.09,1.43-2.66,2-5.54,3-8.32,1.67-4.87,3.59-9.65,5.41-14.47,1.51-4,3-8,4.53-12,.21-.53.71-1.23,1.16-1.29a1.86,1.86,0,0,1,1.44.92,5.64,5.64,0,0,0,3.08,2.53,34.39,34.39,0,0,0,13.13,2.91c6.63.2,13.16-.88,19.72-1.44s13.18-1.45,19.84-1.29c4.15.11,8.31,0,12.47,0,6,.08,12.07.35,18.1.33,9.12,0,18.23-.25,27.35-.36,5.28-.07,10.55,0,15.83-.13,3,0,6-.38,9-.32,8.47.16,16.94.34,25.4.74A46.51,46.51,0,0,1,493,593.54c3.18,1.05,6.39,2,9.58,3a3,3,0,0,1,.86.42c.65.47,1.1.32,1.65-.22a8.31,8.31,0,0,1,1.91-1.34.84.84,0,0,1,1.27,1,8.84,8.84,0,0,0,1,5.89c1.88,4.1,3.59,8.28,5.43,12.4.68,1.53,1.56,3,2.32,4.46,1.1,2.17.86,3.49-1.26,4.62A130.55,130.55,0,0,1,503.14,630c-3.2,1.28-6.72,1.73-10.08,2.62-1.93.51-3.84,1.11-5.72,1.76a9.46,9.46,0,0,0-2.42,1.31c-1.23.89-1.28,1.64-.36,2.82.28.34.58.67.82,1,.87,1.35.56,2.52-.94,3.08a7.92,7.92,0,0,1-2.91.56c-5.07-.14-10.15-.28-15.21-.64a72.16,72.16,0,0,1-9.71-1.32A24.74,24.74,0,0,1,445,635.8a7.23,7.23,0,0,0-5.07-1.51c-3,.05-6.07.27-9.1.3-4.28,0-8.56-.05-12.83,0a32.26,32.26,0,0,0-9.72,1.22c-.58.2-1.15.45-2,.81,1.08.6,1.88,1,2.64,1.48,1.11.69,2.51,1.24,2.4,2.85s-1.52,2.15-2.75,2.71a23.59,23.59,0,0,1-9.09,2,69.92,69.92,0,0,1-19.87-1.92,48.06,48.06,0,0,1-6.9-2.38A41.61,41.61,0,0,0,358,637.83c-5.31-.28-10.63-.47-15.94-.7A5.51,5.51,0,0,0,341.35,637.2Zm.64-20.13c.14.18.42.37.41.54-.08,1.78-.17,3.57-.33,5.35q-.49,5.31-1.07,10.6c-.09.89.22,1.18,1.12,1.21,5.15.21,10.29.46,15.44.72a45,45,0,0,1,14.24,3,62.92,62.92,0,0,0,9.23,3.18,90.89,90.89,0,0,0,12,1.64A33.26,33.26,0,0,0,406.51,642a20.7,20.7,0,0,0,2.15-1.06c-.83-.54-1.34-.89-1.87-1.21a14.57,14.57,0,0,1-2.07-1.21c-1.19-1-2.27-2.19-2-4,.73-4,1.47-8,2.25-12,.41-2.16.91-4.3,1.37-6.44.31-1.27.59-2.55.94-3.81a4.36,4.36,0,0,1,.64-1l.23.13v2a3.45,3.45,0,0,0-.45.9c-.64,4.94-1.25,9.89-1.88,14.83-.22,1.68-.48,3.35-.75,5.22,6.32-2.54,12.75-2,19.13-2q4,0,7.92,0c2.47,0,4.95-.21,7.42-.17A10.79,10.79,0,0,1,447,635a12.12,12.12,0,0,0,3.17,2.14,40.72,40.72,0,0,0,14.31,3.6c3.67.23,7.34.49,11,.65,2.25.09,4.52,0,6.86,0a7.42,7.42,0,0,0-.1-1q-2.46-8.76-4.94-17.53-1.44-5.1-2.89-10.19l-.1-.76c.27.19.63.31.77.56a10.63,10.63,0,0,1,.64,1.65q3.19,9.26,6.4,18.51c.17.51.4,1,.59,1.46l3.95-2.18,3.59-1.27c1-.24,2-.45,3-.73a100.68,100.68,0,0,0,10.35-3c3.92-1.55,7.63-3.65,11.44-5.5.85-.41.81-1,.44-1.68-1.25-2.32-2.58-4.59-3.78-6.94-2-4-3.94-7.94-5.92-11.9a2.66,2.66,0,0,0-.91-1.16,22.93,22.93,0,0,0-2.74-1.15c-1.18-.47-2.38-.91-3.57-1.36l-.24.35q3.48,5.37,6.94,10.75l-.39.27c-1-1.3-2.07-2.59-3.09-3.9-2-2.54-4-5.08-5.92-7.66a1.92,1.92,0,0,0-2.14-.87c.23,2.53.46,5,.68,7.49a31.26,31.26,0,0,1-2.09-5,9.74,9.74,0,0,1-.33-2.42c-.06-.88-.58-1.24-1.35-1.43-1.59-.39-3.15-.93-4.76-1.22-2.14-.38-4.31-.58-6.76-.9v9.25l-.35,0a2.83,2.83,0,0,1-.21-.52c-.28-2.46-.65-4.91-.77-7.38-.06-1.16-.51-1.42-1.49-1.46-2.76-.09-5.51-.22-8.27-.32-.78,0-1.57,0-2.51,0,.09,1.84.16,3.52.24,5.21l-.37,0c-.26-1-.53-2.06-.79-3.1-.5-2-.49-2.13-2.54-2.21-2.81-.11-5.64,0-8.46,0l-.26.43q1.61,3.78,3.23,7.56l-.32.15c-.37-.64-.77-1.27-1.13-1.92-.92-1.67-1.86-3.34-2.74-5a1.29,1.29,0,0,0-1.56-.75c-.83.14-.66.75-.7,1.29s-.1,1-.16,1.56a2.94,2.94,0,0,1-.37-1.44c0-1-.43-1.34-1.48-1.29-2.11.12-4.24,0-6.36.09-1.49,0-3,.18-4.62.28l.56,3.54q.91,5.73,1.81,11.45c.22,2,.43,3.93.65,5.9l-.36,0-1-4.27q-1.47-6.36-2.93-12.72c-.2-.9-.45-1.78-.57-2.69-.14-1.1-.67-1.41-1.75-1.37-2.09.09-2.09,0-2.59,1.54-.25-.44-.52-1.39-.89-1.43a46.35,46.35,0,0,0-4.87-.07l.48,8.22-.43,0L423.71,593c-1.06,0-2.18.08-3.28,0a1.51,1.51,0,0,0-1.88,1.45c-.21,1.16-.6,2.28-.92,3.42l-.31-.09c.17-1.53.35-3.06.52-4.56H396.63l.45,5.08-.35.05c-.26-1.34-.57-2.68-.74-4-.1-.8-.39-1.11-1.2-1.09-1.52,0-3,0-4.56,0-2.36,0-2.36,0-2.85,2.25q-1.19,5.64-2.39,11.3-.62,2.93-1.29,5.82c0,.09-.32.1-.49.15q.51-3.6,1-7.2l.06-.51.17-1.18.13-1,.1-.7.13-1,.13-.93.11-.75.13-.93.12-.75.12-.93.1-.51.05-.44.44-2.87c-1.85,0-3.48,0-5.1,0-.3,0-.68.42-.85.73-1,1.87-1.91,3.78-2.88,5.66a5.66,5.66,0,0,1-.61.78l-.28-.17c.68-2.22,1.35-4.44,2.1-6.91-1.42,0-2.61.06-3.8,0-.95-.06-1.2.27-1.24,1.21-.08,1.47-.37,2.93-.57,4.4l-.4,0c.1-1.51.12-3,.32-4.53.13-.94-.13-1.21-1-1.17-2.76.11-5.51.2-8.27.23-1.05,0-1.43.34-1.54,1.44-.56,5.59-1.23,11.17-1.86,16.75a1.53,1.53,0,0,1-.15-.44q.15-4.9.32-9.82c.08-2.07.17-4.14.25-6.21.31-1,0-1.42-1.07-1.28-4.19.49-8.39.94-12.58,1.44a1.12,1.12,0,0,0-.77.66c-.45,2.1-.81,4.22-1.21,6.33-.14.69-.26,1.39-.43,2.07,0,.08-.3.09-.46.13.14-1.06.32-2.11.4-3.17.16-1.89.27-3.78.39-5.68a3.16,3.16,0,0,0-.63-.1c-3.37.24-6.75.47-10.12.77-.29,0-.67.51-.77.85-.42,1.43-.75,2.88-1.13,4.33-.09.31-.23.61-.34.92l-.26-.05.58-5.93c-2.1-.58-2.13-.56-3,1.29-.18.39-.35.8-.53,1.2l-.62.82.1-1c.18-.57.34-1.14.55-1.7.3-.79-.07-1-.79-1.21-2.16-.53-4.33-1.07-6.45-1.72-.79-.24-1.2-.12-1.46.63-.1.3-.25.58-.37.87l-.72,1.44L317.05,600l-1.32,2.85L309.46,615l-.3-.16q3-6.69,6-13.39c1.1-2.44,2.21-4.88,3.25-7.35.16-.35.16-1.06,0-1.22a29.71,29.71,0,0,0-2.89-1.78,19.48,19.48,0,0,0-1,1.94c-.58,1.57-1,3.19-1.64,4.76-1.43,3.72-2.92,7.41-4.38,11.12-.88,2.22-1.75,4.45-2.59,6.69-.38,1-.69,2-1,3-.52,1.83-1,3.68-1.49,5.51-.19.68-.21,1.21.55,1.6,4.28,2.22,8.55,4.47,12.89,6.73l6.44-15.16.43.17c-.47,1.55-.9,3.12-1.42,4.65-1.38,4.05-2.79,8.09-4.18,12.13-.19.55-.5,1.1.28,1.54a24.28,24.28,0,0,0,18.86,2.4c.86-.22,1.49-.54,1.12-1.66-.12-.36.12-.84.2-1.26.15-.82.29-1.64.43-2.45l.08-.47.15-.74.07-.46.13-.51.12-.69.12-.51.58-2.85.1-.51.08-.24.14-.23c.08-.51.14-1,.22-1.53C341.24,621.78,341.62,619.43,342,617.07Z" />
            <path class="color-base"
                d="M340.33,626.64c-.19,1-.38,1.9-.58,2.85l-.12.51-.12.69c0,.17-.08.34-.13.51l-.07.46-.15.74-.08.47c-1.32,1.74-3.2,1.73-5.12,1.69-1.76,0-3.52-.06-5.27,0a13.34,13.34,0,0,1-5.27-.87c-2.06-.77-2-.76-1.45-2.92.67-2.53,1.17-5.11,1.79-7.65.4-1.65,1-3.25,1.29-4.91s1.23-3.48-.28-5.2c-.67-.76-1-.56-1.48,0-1.2,1.63-2.45,3.23-3.5,5-1.25,2.07-2.32,4.26-3.49,6.39-.5.92-1.05,1.82-1.44,2.49l-7.39-5.64.48-.84a68.83,68.83,0,0,0,3.57-6.22c1.57-3.44,2.88-7,4.27-10.52a2,2,0,0,0-.06-.82l1.32-2.85,1.63-3.14.72-1.44a20.92,20.92,0,0,0,8.52,3.13l-.1,1c.31-.41.46-.62.62-.82,1.16,0,1.65.44,1.55,1.65a10.3,10.3,0,0,0,.21,2.12c.18,1.35,1.18,1.84,2.15.87a7.93,7.93,0,0,0,1.7-2.78,1.92,1.92,0,0,1,1.85-1.34c1.88-.21,3.76-.48,5.64-.65.36,0,1,.26,1.08.46.13,1,0,2,.13,3,.09.84-.13,1.91,1.13,2.19.16,0,.44,0,.46-.13.17-.68.29-1.38.43-2.07,1.27,0,1.33-1.11,1.45-1.83.34-2,1.28-3.15,3.37-3.21a2.67,2.67,0,0,0,.34-.11l10.47-2c-.08,2.07-.17,4.14-.25,6.21q-.16,4.92-.32,9.82a1.53,1.53,0,0,0,.15.44c.24.89.48,1.78.73,2.67l.37,0a3.72,3.72,0,0,0,.52-1c.51-3.21,1-6.42,1.46-9.64.33-2.68.46-5.38.79-8.06,0-.33.75-.81,1.15-.81,1.1,0,2.2.21,3.31.31.89.09,1.41.43,1.27,1.44a8.57,8.57,0,0,0,0,1.68c0,.77.21,1.39,1.19,1.5.27,0,.64.53.69.86.16,1,.21,2.06.27,3.09s.56,1.57,1.58,1.5a22.66,22.66,0,0,0,2.31-.37l.62,1.29a11,11,0,0,0,1.48-1.65c.92-1.66,1.78-3.36,2.62-5.07.51-1.06.66-2.62,1.48-3.11s2.4-.16,3.63-.18h.12c0,.15,0,.3-.05.44s-.06.34-.1.51l-.12.93-.12.75-.12.93-.12.75c0,.31-.08.62-.13.93s-.08.66-.13,1-.07.47-.1.7-.09.66-.13,1-.11.79-.16,1.18c0,.17,0,.34-.07.51q-.49,3.6-1,7.2c-.68,1.5-1,4.89-.49,5.48.33-.55.51-1.34,1-1.59a6.41,6.41,0,0,0,3.12-3.87c1.66-5.15,3.15-10.36,4.65-15.56.28-1,.86-1,1.69-1s1.17.43,1.37,1.18a12.56,12.56,0,0,0,.94,2.77,1.78,1.78,0,0,0,1.4.8,1.91,1.91,0,0,0,1.22-1.07,5.45,5.45,0,0,0,.26-2c0-1.46.22-1.54,1.7-1.4,4.54.43,9.08.84,13.64,1.14,2.17.14,2.13,0,2.23,2.25a2,2,0,0,0,.74,1.52,1.43,1.43,0,0,0,1.92-.74c.41-.82.8-1.64,1.15-2.48.43-1,1.32-.83,2-.7.33.05.7.65.8,1.07.6,2.43,1.1,4.88,1.68,7.31.41,1.68,1.2,2.46,2.22,2.36s1.57-1,1.66-2.9c.1-2.3.39-4.6.42-6.9,0-1.35.74-1.49,1.74-1.47l5.6.18q1.47,6.36,2.93,12.72l1,4.27.36,0c-.22-2-.43-3.93-.65-5.9l2.06,1.56c.85-1.62.15-3.15.07-4.64-.12-2.26-.38-4.51-.58-6.76-.05-.55.08-.91.76-.93,2.91-.05,5.82-.18,8.73-.18a1.83,1.83,0,0,1,1.3.9c1,1.86,1.82,3.83,2.88,5.66a23.17,23.17,0,0,0,3.05,4.11,3.05,3.05,0,0,0,2.17.45c.21,0,.49-.95.52-1.47a12,12,0,0,0-.15-2.61c-.37-2.23-.8-4.44-1.24-6.85a28.21,28.21,0,0,0,2.92,0c1.13-.11,1.44.5,1.63,1.43.37,1.82.79,3.63,1.21,5.43.21.91.82,1.69,1.72,1.47.54-.13.95-1,1.32-1.62.15-.23.06-.62.06-.94,0-1.44,0-2.88,0-4.32,0-.74.25-1,1-1,2.38.18,4.77.31,7.14.52.28,0,.63.41.77.71.64,1.43,1.22,2.9,1.84,4.38,2.29-1.37,2.4-1.37,2.44-3.57,0-1.22.5-1.43,1.5-1.31,2.6.32,5.19.73,7.8.91a1.64,1.64,0,0,1,1.78,1.6c.31,2.08.62,4.17,1,6.24a30.61,30.61,0,0,0,.76,3.25,1.84,1.84,0,0,0,2.15,1.45c1.07-.08,1.15-.77,1.18-1.58.05-1.47.15-2.94.2-4.41,0-.7,0-1.4,0-2.47a8.9,8.9,0,0,1,1.09.84c1.92,2.13,3.79,4.31,5.77,6.38a18.66,18.66,0,0,0,2.48,1.75,3.92,3.92,0,0,1,1.05,1.1c1.07,1.81,2,3.69,3.17,5.47.47.76.3,1.2-.29,1.6a49.92,49.92,0,0,1-6.74,4.27c-3.62,1.63-7.46,2.76-11.17,4.18a16.53,16.53,0,0,0-2.56,1.56L486.69,632a6.56,6.56,0,0,1-.93-1.2c-2.11-4.81-4.16-9.65-6.27-14.46q-1.86-4.26-3.86-8.46c-.16-.35-.89-.84-1-.77-.53.41-1.38,1-1.34,1.47a17.84,17.84,0,0,0,1,3.42l.1.76c.08,1,.11,2.07.24,3.1a85.65,85.65,0,0,0,5.57,20.29c.57,1.44.51,1.55-1,1.57-5.23.06-10.45.13-15.6-1-3.29-.72-6.6-1.42-9.82-2.38-3.77-1.11-7.41-2.63-11.18-3.71A56.33,56.33,0,0,0,429,628.83c-2.38-.07-4.76.37-7.14.42-3.94.07-7.88,0-11.82,0-.77,0-1.12-.28-1.07-1.06.14-2,.4-4.05.38-6.07a25.64,25.64,0,0,0-.58-6,14,14,0,0,1-.52-2.71v-2l-.23-.13a4.36,4.36,0,0,0-.64,1c-.35,1.26-.63,2.54-.94,3.81-.27.12-.67.18-.77.39a22.8,22.8,0,0,0-1.91,4.22c-1.56,5.79-3,11.63-4.47,17.44a1.47,1.47,0,0,1-1,.89,29.62,29.62,0,0,1-5.48.23c-3.7-.38-7.42-.86-11.06-1.6-3-.61-5.8-1.77-8.73-2.5-2.58-.64-5.27-.84-7.82-1.58a35.89,35.89,0,0,0-10-1.41,62.47,62.47,0,0,0-7.93.8c-1.2.15-1.57-.11-1.39-1.3a9.74,9.74,0,0,0,.19-1.41c0-5,.06-10,0-15.08a7.41,7.41,0,0,0-1.07-2.7,1,1,0,0,0-.81.06c-.74,1.48-1.42,3-2.12,4.49-.37,2.36-.75,4.71-1.12,7.06-.08.51-.14,1-.22,1.53l-.14.23-.08.24Zm68.39-20.83a.09.09,0,0,1,0,.12l-.05.48c-.29,1.47-.57,2.94-.86,4.41a.92.92,0,0,0,.77-.62c.2-1.25.33-2.5.48-3.76l.4-1.74-.56-.09Z" />
            <path class="color-shadow"
                d="M490.28,630.68a16.53,16.53,0,0,1,2.56-1.56c3.71-1.42,7.55-2.55,11.17-4.18a49.92,49.92,0,0,0,6.74-4.27c.59-.4.76-.84.29-1.6-1.13-1.78-2.1-3.66-3.17-5.47a3.92,3.92,0,0,0-1.05-1.1,18.66,18.66,0,0,1-2.48-1.75c-2-2.07-3.85-4.25-5.77-6.38a8.9,8.9,0,0,0-1.09-.84c0,1.07,0,1.77,0,2.47-.05,1.47-.15,2.94-.2,4.41,0,.81-.11,1.5-1.18,1.58a1.84,1.84,0,0,1-2.15-1.45,30.61,30.61,0,0,1-.76-3.25c-.37-2.07-.68-4.16-1-6.24a1.64,1.64,0,0,0-1.78-1.6c-2.61-.18-5.2-.59-7.8-.91-1-.12-1.47.09-1.5,1.31,0,2.2-.15,2.2-2.44,3.57-.62-1.48-1.2-2.95-1.84-4.38-.14-.3-.49-.68-.77-.71-2.37-.21-4.76-.34-7.14-.52-.72,0-1,.22-1,1,0,1.44,0,2.88,0,4.32,0,.32.09.71-.06.94-.37.6-.78,1.49-1.32,1.62-.9.22-1.51-.56-1.72-1.47-.42-1.8-.84-3.61-1.21-5.43-.19-.93-.5-1.54-1.63-1.43a28.21,28.21,0,0,1-2.92,0c.44,2.41.87,4.62,1.24,6.85a12,12,0,0,1,.15,2.61c0,.52-.31,1.45-.52,1.47a3.05,3.05,0,0,1-2.17-.45,23.17,23.17,0,0,1-3.05-4.11c-1.06-1.83-1.86-3.8-2.88-5.66a1.83,1.83,0,0,0-1.3-.9c-2.91,0-5.82.13-8.73.18-.68,0-.81.38-.76.93.2,2.25.46,4.5.58,6.76.08,1.49.78,3-.07,4.64l-2.06-1.56q-.9-5.72-1.81-11.45l-.56-3.54c1.63-.1,3.13-.24,4.62-.28,2.12-.05,4.25,0,6.36-.09,1.05,0,1.46.3,1.48,1.29a2.94,2.94,0,0,0,.37,1.44c.06-.52.13-1,.16-1.56s-.13-1.15.7-1.29a1.29,1.29,0,0,1,1.56.75c.88,1.7,1.82,3.37,2.74,5,.36.65.76,1.28,1.13,1.92l.32-.15q-1.62-3.78-3.23-7.56l.26-.43c2.82,0,5.65-.09,8.46,0,2.05.08,2,.2,2.54,2.21.26,1,.53,2.07.79,3.1l.37,0c-.08-1.69-.15-3.37-.24-5.21.94,0,1.73,0,2.51,0,2.76.1,5.51.23,8.27.32,1,0,1.43.3,1.49,1.46.12,2.47.49,4.92.77,7.38a2.83,2.83,0,0,0,.21.52l.35,0v-9.25c2.45.32,4.62.52,6.76.9,1.61.29,3.17.83,4.76,1.22.77.19,1.29.55,1.35,1.43a9.74,9.74,0,0,0,.33,2.42,31.26,31.26,0,0,0,2.09,5c-.22-2.48-.45-5-.68-7.49a1.92,1.92,0,0,1,2.14.87c1.94,2.58,3.94,5.12,5.92,7.66,1,1.31,2.06,2.6,3.09,3.9l.39-.27q-3.46-5.37-6.94-10.75l.24-.35c1.19.45,2.39.89,3.57,1.36a22.93,22.93,0,0,1,2.74,1.15,2.66,2.66,0,0,1,.91,1.16c2,4,3.91,8,5.92,11.9,1.2,2.35,2.53,4.62,3.78,6.94.37.67.41,1.27-.44,1.68-3.81,1.85-7.52,3.95-11.44,5.5a100.68,100.68,0,0,1-10.35,3C492.3,630.23,491.28,630.44,490.28,630.68Z" />
            <path class="color-shadow"
                d="M315.73,602.85a2,2,0,0,1,.06.82c-1.39,3.52-2.7,7.08-4.27,10.52a68.83,68.83,0,0,1-3.57,6.22l-.48.84,7.39,5.64c.39-.67.94-1.57,1.44-2.49,1.17-2.13,2.24-4.32,3.49-6.39,1-1.73,2.3-3.33,3.5-5,.43-.59.81-.79,1.48,0,1.51,1.72.55,3.49.28,5.2s-.89,3.26-1.29,4.91c-.62,2.54-1.12,5.12-1.79,7.65-.57,2.16-.61,2.15,1.45,2.92a13.34,13.34,0,0,0,5.27.87c1.75-.07,3.51-.05,5.27,0,1.92,0,3.8.05,5.12-1.69-.14.81-.28,1.63-.43,2.45-.08.42-.32.9-.2,1.26.37,1.12-.26,1.44-1.12,1.66a24.28,24.28,0,0,1-18.86-2.4c-.78-.44-.47-1-.28-1.54,1.39-4,2.8-8.08,4.18-12.13.52-1.53.95-3.1,1.42-4.65l-.43-.17-6.44,15.16c-4.34-2.26-8.61-4.51-12.89-6.73-.76-.39-.74-.92-.55-1.6.51-1.83,1-3.68,1.49-5.51.28-1,.59-2,1-3,.84-2.24,1.71-4.47,2.59-6.69,1.46-3.71,3-7.4,4.38-11.12.6-1.57,1.06-3.19,1.64-4.76a19.48,19.48,0,0,1,1-1.94,29.71,29.71,0,0,1,2.89,1.78c.21.16.21.87,0,1.22-1,2.47-2.15,4.91-3.25,7.35q-3,6.7-6,13.39l.3.16Z" />
            <path class="color-shadow"
                d="M342,617.07c.7-1.5,1.38-3,2.12-4.49a1,1,0,0,1,.81-.06,7.41,7.41,0,0,1,1.07,2.7c.1,5,.05,10.06,0,15.08a9.74,9.74,0,0,1-.19,1.41c-.18,1.19.19,1.45,1.39,1.3a62.47,62.47,0,0,1,7.93-.8,35.89,35.89,0,0,1,10,1.41c2.55.74,5.24.94,7.82,1.58,2.93.73,5.77,1.89,8.73,2.5,3.64.74,7.36,1.22,11.06,1.6a29.62,29.62,0,0,0,5.48-.23,1.47,1.47,0,0,0,1-.89c1.51-5.81,2.91-11.65,4.47-17.44a22.8,22.8,0,0,1,1.91-4.22c.1-.21.5-.27.77-.39-.46,2.14-1,4.28-1.37,6.44-.78,4-1.52,8-2.25,12-.32,1.77.76,2.94,2,4a14.57,14.57,0,0,0,2.07,1.21c.53.32,1,.67,1.87,1.21a20.7,20.7,0,0,1-2.15,1.06A33.26,33.26,0,0,1,393,643.32a90.89,90.89,0,0,1-12-1.64,62.92,62.92,0,0,1-9.23-3.18,45,45,0,0,0-14.24-3c-5.15-.26-10.29-.51-15.44-.72-.9,0-1.21-.32-1.12-1.21q.57-5.29,1.07-10.6c.16-1.78.25-3.57.33-5.35C342.41,617.44,342.13,617.25,342,617.07Z" />
            <path class="color-shadow"
                d="M408.2,613.43a14,14,0,0,0,.52,2.71,25.64,25.64,0,0,1,.58,6c0,2-.24,4.05-.38,6.07-.05.78.3,1.06,1.07,1.06,3.94,0,7.88,0,11.82,0,2.38,0,4.76-.49,7.14-.42a56.33,56.33,0,0,1,13.68,1.76c3.77,1.08,7.41,2.6,11.18,3.71,3.22,1,6.53,1.66,9.82,2.38,5.15,1.12,10.37,1.05,15.6,1,1.53,0,1.59-.13,1-1.57a85.65,85.65,0,0,1-5.57-20.29c-.13-1-.16-2.07-.24-3.1q1.44,5.1,2.89,10.19,2.48,8.77,4.94,17.53a7.42,7.42,0,0,1,.1,1c-2.34,0-4.61.07-6.86,0-3.67-.16-7.34-.42-11-.65a40.72,40.72,0,0,1-14.31-3.6A12.12,12.12,0,0,1,447,635a10.79,10.79,0,0,0-7.43-2.85c-2.47,0-4.95.13-7.42.17q-4,.06-7.92,0c-6.38,0-12.81-.56-19.13,2,.27-1.87.53-3.54.75-5.22.63-4.94,1.24-9.89,1.88-14.83A3.45,3.45,0,0,1,408.2,613.43Z" />
            <path class="color-shadow"
                d="M435.9,597.05l-5.6-.18c-1,0-1.73.12-1.74,1.47,0,2.3-.32,4.6-.42,6.9-.09,1.89-.54,2.78-1.66,2.9s-1.81-.68-2.22-2.36c-.58-2.43-1.08-4.88-1.68-7.31-.1-.42-.47-1-.8-1.07-.73-.13-1.62-.32-2,.7-.35.84-.74,1.66-1.15,2.48a1.43,1.43,0,0,1-1.92.74,2,2,0,0,1-.74-1.52c-.1-2.22-.06-2.11-2.23-2.25-4.56-.3-9.1-.71-13.64-1.14-1.48-.14-1.66-.06-1.7,1.4a5.45,5.45,0,0,1-.26,2,1.91,1.91,0,0,1-1.22,1.07,1.78,1.78,0,0,1-1.4-.8,12.56,12.56,0,0,1-.94-2.77c-.2-.75-.5-1.19-1.37-1.18s-1.41.07-1.69,1c-1.5,5.2-3,10.41-4.65,15.56a6.41,6.41,0,0,1-3.12,3.87c-.47.25-.65,1-1,1.59-.52-.59-.19-4,.49-5.48.17-.05.47-.06.49-.15q.68-2.89,1.29-5.82,1.22-5.65,2.39-11.3c.49-2.29.49-2.29,2.85-2.25,1.52,0,3,.07,4.56,0,.81,0,1.1.29,1.2,1.09.17,1.35.48,2.69.74,4l.35-.05-.45-5.08h21.21c-.17,1.5-.35,3-.52,4.56l.31.09c.32-1.14.71-2.26.92-3.42a1.51,1.51,0,0,1,1.88-1.45c1.1.1,2.22,0,3.28,0l1.57,8.28.43,0-.48-8.22a46.35,46.35,0,0,1,4.87.07c.37,0,.64,1,.89,1.43.5-1.52.5-1.45,2.59-1.54,1.08,0,1.61.27,1.75,1.37C435.45,595.27,435.7,596.15,435.9,597.05Z" />
            <path class="color-shadow"
                d="M385.56,595.92h-.12c-1.23,0-2.72-.38-3.63.18s-1,2-1.48,3.11c-.84,1.71-1.7,3.41-2.62,5.07a11,11,0,0,1-1.48,1.65l-.62-1.29a22.66,22.66,0,0,1-2.31.37c-1,.07-1.53-.48-1.58-1.5s-.11-2.07-.27-3.09c-.05-.33-.42-.84-.69-.86-1-.11-1.16-.73-1.19-1.5a8.57,8.57,0,0,1,0-1.68c.14-1-.38-1.35-1.27-1.44-1.11-.1-2.21-.32-3.31-.31-.4,0-1.11.48-1.15.81-.33,2.68-.46,5.38-.79,8.06-.41,3.22-.95,6.43-1.46,9.64a3.72,3.72,0,0,1-.52,1l-.37,0c-.25-.89-.49-1.78-.73-2.67.63-5.58,1.3-11.16,1.86-16.75.11-1.1.49-1.43,1.54-1.44,2.76,0,5.51-.12,8.27-.23.91,0,1.17.23,1,1.17-.2,1.5-.22,3-.32,4.53l.4,0c.2-1.47.49-2.93.57-4.4,0-.94.29-1.27,1.24-1.21,1.19.08,2.38,0,3.8,0-.75,2.47-1.42,4.69-2.1,6.91l.28.17a5.66,5.66,0,0,0,.61-.78c1-1.88,1.9-3.79,2.88-5.66.17-.31.55-.71.85-.73,1.62-.07,3.25,0,5.1,0Z" />
            <path class="color-shadow"
                d="M474.34,612a17.84,17.84,0,0,1-1-3.42c0-.46.81-1.06,1.34-1.47.08-.07.81.42,1,.77q2,4.2,3.86,8.46c2.11,4.81,4.16,9.65,6.27,14.46a6.56,6.56,0,0,0,.93,1.2l-3.95,2.18c-.19-.47-.42-1-.59-1.46q-3.21-9.25-6.4-18.51a10.63,10.63,0,0,0-.64-1.65C475,612.26,474.61,612.14,474.34,612Z" />
            <path class="color-shadow"
                d="M343.88,604.31c-1.26-.28-1-1.35-1.13-2.19-.11-1,0-2-.13-3,0-.2-.72-.49-1.08-.46-1.88.17-3.76.44-5.64.65a1.92,1.92,0,0,0-1.85,1.34,7.93,7.93,0,0,1-1.7,2.78c-1,1-2,.48-2.15-.87a10.3,10.3,0,0,1-.21-2.12c.1-1.21-.39-1.7-1.55-1.65.18-.4.35-.81.53-1.2.9-1.85.93-1.87,3-1.29l-.58,5.93.26.05c.11-.31.25-.61.34-.92.38-1.45.71-2.9,1.13-4.33.1-.34.48-.83.77-.85,3.37-.3,6.75-.53,10.12-.77a3.16,3.16,0,0,1,.63.1c-.12,1.9-.23,3.79-.39,5.68C344.2,602.2,344,603.25,343.88,604.31Z" />
            <path class="color-shadow"
                d="M360.4,595l-10.47,2a2.67,2.67,0,0,1-.34.11c-2.09.06-3,1.23-3.37,3.21-.12.72-.18,1.86-1.45,1.83.4-2.11.76-4.23,1.21-6.33a1.12,1.12,0,0,1,.77-.66c4.19-.5,8.39-1,12.58-1.44C360.44,593.54,360.71,594,360.4,595Z" />
            <path class="color-shadow"
                d="M327.92,598.55a20.92,20.92,0,0,1-8.52-3.13c.12-.29.27-.57.37-.87.26-.75.67-.87,1.46-.63,2.12.65,4.29,1.19,6.45,1.72.72.17,1.09.42.79,1.21C328.26,597.41,328.1,598,327.92,598.55Z" />
            <path class="color-shadow" d="M318.68,596.86,317.05,600Z" />
            <path class="color-shadow"
                d="M384.67,602.14c.05-.32.09-.65.13-1C384.76,601.49,384.72,601.82,384.67,602.14Z" />
            <path class="color-shadow" d="M384.44,603.82c0-.32.08-.65.13-1C384.52,603.17,384.48,603.5,384.44,603.82Z" />
            <path class="color-shadow" d="M385.17,598.55l.12-.75Z" />
            <path class="color-shadow" d="M384.93,600.23l.12-.75Z" />
            <path class="color-shadow" d="M339.16,632.4l.15-.74Z" />
            <path class="color-shadow"
                d="M385.41,596.87c0-.17.07-.34.1-.51C385.48,596.53,385.44,596.7,385.41,596.87Z" />
            <path class="color-shadow"
                d="M384.21,605.51c0-.17,0-.34.07-.51C384.25,605.17,384.23,605.34,384.21,605.51Z" />
            <path class="color-shadow" d="M340.33,626.64l.1-.51Z" />
            <path class="color-shadow" d="M339.63,630l.12-.51Z" />
            <path class="color-shadow" d="M339.38,631.2c.05-.17.09-.34.13-.51C339.47,630.86,339.43,631,339.38,631.2Z" />
            <path class="color-shadow" d="M340.51,625.89l.14-.23Z" />
            <path class="outline"
                d="M409.06,606.44c-.15,1.26-.28,2.51-.48,3.76a.92.92,0,0,1-.77.62c.29-1.47.57-2.94.86-4.4Z" />
            <path class="color-shadow" d="M409.06,606.44l-.39,0c0-.17,0-.33.05-.49l.2-.09-.2,0,.18-1.2.56.09Z" />
            <path class="outline" d="M408.72,605.81l.2,0-.2.09A.09.09,0,0,0,408.72,605.81Z" />
        </g>
    </g>
</svg>
