<svg id="Nizy_pryamoy" data-name="Nizy pryamoy" xmlns="http://www.w3.org/2000/svg" viewBox="0 0 672 960">
    <g id="img_17" data-name="img 17">
        <g id="img_13_img" data-name="img 13 img">
            <path class="outline"
                d="M508,593.26c.73-.88.85,0,.87.38a18.72,18.72,0,0,1-.06,3.82c-.58,3.38-1.25,6.76-2,10.11-.44,1.88-.76,3.92-2.32,5.28a3.93,3.93,0,0,1-2.33.89c-6.74.13-13.5.24-20.25.2-5.51,0-11-.22-16.52-.44-7.47-.31-14.93-.78-22.4-1.08-11.61-.45-23.23-1-34.85-1.16-6.23-.1-12.47.35-18.69.79-6.89.5-13.77,1.2-20.64,2-7.59.84-15.13,2.2-22.73,2.7-6.38.42-12.81,0-18.59-3.47-1.6-1-3.46-1.47-5.05-2.44a4.43,4.43,0,0,1-1.61-2.33c-1.24-3.91-2.32-7.87-3.48-11.81-.61-2-1.25-4.09-1.9-6.13,0-.16-.25-.26-.38-.39v-2.88l1.81-.95v-7.41l1.14,2.4c.15,2.53.15,5.07.48,7.57a49,49,0,0,0,1.36,5.66c1.07,4.18,2.12,8.36,3.23,12.52a2.16,2.16,0,0,0,.84,1.18c1.55,1,3.2,1.81,4.74,2.8a19.36,19.36,0,0,0,7.39,2.64,41.68,41.68,0,0,0,12,.74c3.91-.46,7.86-.61,11.79-1,4.19-.45,8.35-1.18,12.54-1.61,5.55-.57,11.11-1.06,16.67-1.42,5.73-.36,11.47-.51,17.2-.75l1.44,0,2.16,0,6.47,0a4.77,4.77,0,0,0,.91.2c5.14.19,10.28.31,15.42.54,5.42.25,10.83.64,16.25.88,5.86.25,11.72.39,17.58.58,1.95.06,3.91.14,5.86.22a96.41,96.41,0,0,0,14.21-.36,126.84,126.84,0,0,1,13.52-.27,4.14,4.14,0,0,0,4-2.4c.54-1.58,1.16-3.15,1.55-4.78C506.51,600.59,507.25,596.92,508,593.26Z" />
            <path class="color-base"
                d="M324.66,581.43a13.75,13.75,0,0,1,.24-2.13c.26-1,.83-1,1.6-.36,1.07,1,1.24,2.27,1.59,3.51a2.23,2.23,0,0,0,1.54,1.63c1.37.52,2.65,1.3,4,1.82a15.75,15.75,0,0,0,3.42.93c3.07.43,6.15.86,9.24,1.08,5.68.4,11.37.85,17.06.92,6.26.07,12.55-.05,18.8-.48,6-.41,11.93-1.36,17.9-2,3.13-.33,6.28-.59,9.42-.73,4.63-.19,9.27-.19,13.9-.37,4.34-.16,8.68-.48,13-.7,6.57-.33,13.15-.67,19.73-.95,3.95-.18,7.9-.29,11.85-.37,1.35,0,2.71.21,4.06.21,3.55,0,7.11-.23,10.65-.06,4.81.24,9.6.77,14.4,1.16.51,0,1,0,1.55,0-.42,2.39-.79,4.78-1.26,7.15q-1.22,6.13-2.58,12.24a1.7,1.7,0,0,1-1,1,35.24,35.24,0,0,1-4,.62c-3.27.38-6.54.83-9.82,1a57.27,57.27,0,0,1-5.85-.2c-4.42-.17-8.84-.3-13.26-.49-4.81-.21-9.62-.49-14.43-.71-4.06-.18-8.12-.44-12.18-.45-3.46,0-6.92.27-10.38.46-1.22.07-2.44.32-3.66.41a52.65,52.65,0,0,1-5.61.25c-3.11-.13-6.22-.58-9.33-.64-3.63-.07-7.26.17-10.89.18-2.29,0-4.58-.2-6.87-.2-2.69,0-5.38.12-8.07.23-3.78.14-7.56.31-11.34.48-1.11.06-2.22.16-3.33.28-2.76.29-5.52.82-8.28.87-7,.12-14.05.4-20.92-1.42-1.92-.51-4-.88-4.74-3.25-1.28-4.06-2.74-8.06-4-12.13C326,587.41,325.38,584.4,324.66,581.43Z" />
            <path class="color-shadow"
                d="M324.66,581.43c.72,3,1.33,6,2.21,8.91,1.22,4.07,2.68,8.07,4,12.13.75,2.37,2.82,2.74,4.74,3.25,6.87,1.82,13.91,1.54,20.92,1.42,2.76,0,5.52-.58,8.28-.87,1.11-.12,2.22-.22,3.33-.28,3.78-.17,7.56-.34,11.34-.48,2.69-.11,5.38-.22,8.07-.23,2.29,0,4.58.21,6.87.2,3.63,0,7.26-.25,10.89-.18,3.11.06,6.22.51,9.33.64a52.65,52.65,0,0,0,5.61-.25c1.22-.09,2.44-.34,3.66-.41,3.46-.19,6.92-.47,10.38-.46,4.06,0,8.12.27,12.18.45,4.81.22,9.62.5,14.43.71,4.42.19,8.84.32,13.26.49a57.27,57.27,0,0,0,5.85.2c3.28-.22,6.55-.67,9.82-1a35.24,35.24,0,0,0,4-.62,1.7,1.7,0,0,0,1-1q1.37-6.11,2.58-12.24c.47-2.37.84-4.76,1.26-7.15a15,15,0,0,0,.27-1.63c.06-1.19,1.17-1.1,1.82-1.57.09,1,.11,2.07.26,3.09.31,2,.88,4.06,1,6.1a55.22,55.22,0,0,1-1.28,14.83,2.54,2.54,0,0,1-2.4,2.31c-2.28.32-4.58.54-6.81,1.08A73.66,73.66,0,0,1,472.13,611c-3.46-.1-6.94,0-10.4-.28-5-.36-9.87-1-14.82-1.36-4-.26-8.06-.25-12.09-.27-2.78,0-5.57.18-8.36.22-3,0-5.92,0-8.88,0a6,6,0,0,0-1.23.26l-6.47,0a1.4,1.4,0,0,0-2.16,0l-1.44,0c-.31-.16-.61-.47-.92-.47-.95,0-1.9.21-2.85.2-2.81,0-5.63-.18-8.44-.21-3.68,0-7.36-.1-11,0-5.25.15-10.5.36-15.74.73-3.12.23-6.21.84-9.32,1.22-3.38.42-6.77.83-10.16,1.13a20.38,20.38,0,0,1-7.78-.93c-3.37-1-6.81-1.86-10.14-3-1.28-.44-2.89-1.27-3.41-2.37A45.88,45.88,0,0,1,323,593.05c-.48-3.13-.86-6.29-1.14-9.44-.08-.83-.64-1.89.41-2.59l0,0,.42.35Z" />
            <path class="color-shadow-dark"
                d="M416.35,609.62a6,6,0,0,1,1.23-.26c3,0,5.92,0,8.88,0,2.79,0,5.58-.23,8.36-.22,4,0,8.07,0,12.09.27,4.95.32,9.87,1,14.82,1.36,3.46.24,6.94.18,10.4.28a73.66,73.66,0,0,0,19.38-2.26c2.23-.54,4.53-.76,6.81-1.08a2.54,2.54,0,0,0,2.4-2.31A55.22,55.22,0,0,0,502,590.55c-.12-2-.69-4.06-1-6.1-.15-1-.17-2.06-.26-3.09.13-1,.25-2.08.38-3.11l.26,0,.93,1.83,1.5-4.57a1.77,1.77,0,0,1,1.67,1.81c.53,4.06,1.16,8.12,1.75,12.18.15,1,.24,2,.4,3.07a2.44,2.44,0,0,0,.4.74c-.78,3.66-1.52,7.33-2.37,11-.39,1.63-1,3.2-1.55,4.78a4.14,4.14,0,0,1-4,2.4,126.84,126.84,0,0,0-13.52.27,96.41,96.41,0,0,1-14.21.36c-1.95-.08-3.91-.16-5.86-.22-5.86-.19-11.72-.33-17.58-.58-5.42-.24-10.83-.63-16.25-.88-5.14-.23-10.28-.35-15.42-.54A4.77,4.77,0,0,1,416.35,609.62Z" />
            <path class="color-shadow-dark"
                d="M322.29,581c-1.05.7-.49,1.76-.41,2.59.28,3.15.66,6.31,1.14,9.44a45.88,45.88,0,0,0,3.46,12.85c.52,1.1,2.13,1.93,3.41,2.37,3.33,1.15,6.77,2,10.14,3a20.38,20.38,0,0,0,7.78.93c3.39-.3,6.78-.71,10.16-1.13,3.11-.38,6.2-1,9.32-1.22,5.24-.37,10.49-.58,15.74-.73,3.68-.11,7.36,0,11,0,2.81,0,5.63.17,8.44.21.95,0,1.9-.19,2.85-.2.31,0,.61.31.92.47-5.73.24-11.47.39-17.2.75-5.56.36-11.12.85-16.67,1.42-4.19.43-8.35,1.16-12.54,1.61-3.93.43-7.88.58-11.79,1a41.68,41.68,0,0,1-12-.74,19.36,19.36,0,0,1-7.39-2.64c-1.54-1-3.19-1.82-4.74-2.8a2.16,2.16,0,0,1-.84-1.18c-1.11-4.16-2.16-8.34-3.23-12.52a49,49,0,0,1-1.36-5.66c-.33-2.5-.33-5-.48-7.57.3-2.2.6-4.39.91-6.59a1.29,1.29,0,0,1,.38-.75l.13.92h.15l.22-1.7.35,0c.46,2,.9,4,1.4,5.93A19.33,19.33,0,0,0,322.29,581Z" />
            <path class="color-base" d="M322.74,581.33l-.42-.35Z" />
            <path class="color-shadow-dark" d="M407.72,609.57a1.4,1.4,0,0,1,2.16,0Z" />
        </g>
    </g>
</svg>
