<svg id="Nizy_pryamoy" data-name="Nizy pryamoy" xmlns="http://www.w3.org/2000/svg" viewBox="0 0 672 960">
    <g id="img_17" data-name="img 17">
        <g id="img_12_img" data-name="img 12 img">
            <path class="outline"
                d="M506.41,597.35a3.55,3.55,0,0,0,.16-.48c0-.73-.24-1.77.89-1.71s.52,1.19.8,1.75c1.1,2.27-1,4.09-.64,6.35.33,2-.38,4.26-.5,6.4s-.06,4.15-.1,6.22a26.67,26.67,0,0,1-.19,3.58c-.58,3.43-1.25,6.84-1.9,10.26a2.58,2.58,0,0,1-2.54,1.82c-4.69.46-9.39.87-14.07,1.37-5,.54-9.92,1.31-14.9,1.7-7,.56-14,.88-21.05,1.26-6.27.34-12.53.71-18.8.91s-12.46.21-18.69.29c-4.83.07-9.66.17-14.49.13-6.72-.05-13.43-.25-20.14-.32-8-.08-15.93.18-23.87-.21s-15.91-.8-23.46-3.77c-1.55-.61-3.24-.89-4.82-1.43a17,17,0,0,1-3.37-1.51,3.16,3.16,0,0,1-1.31-1.74c-1-4.39-1.91-8.82-2.91-13.22-.38-1.71-1-3.38-1.37-5.09a31.74,31.74,0,0,1-.91-4.82,42.72,42.72,0,0,0-1.83-9c-.68-2.31-1.19-4.67-1.66-7a2.25,2.25,0,0,1,.6-1.58c.14-.17.85,0,1.23.15,1.62.75,2.55,1.92,2,3.64,3,2.11,6.39,2.71,9.84,3.37,4.68.89,9.22.19,13.81-.26,7-.69,14-1.61,21-2.23,5.93-.54,11.88-.88,17.83-1.15,2.86-.13,5.75.09,8.62.16,5.2.13,10.39.33,15.58.39q8.7.11,17.4,0c6.07-.09,12.14-.3,18.21-.52,8.2-.29,16.38-.54,24.56.47,3.48.43,7,.28,10.54.41,4.12.16,8.24.21,12.34.54,4.71.37,9.07,2.18,13.51,3.67C503.32,596.58,504.86,596.93,506.41,597.35ZM418,635.15h2l.7,0a11.64,11.64,0,0,0,1.65.21q6.7-.19,13.41-.44c3-.1,6-.21,8.95-.36,3.42-.17,6.83-.39,10.25-.6,2.31-.14,4.61-.3,6.92-.45,2.71-.17,5.42-.31,8.12-.52,2.15-.17,4.3-.36,6.43-.66,2.37-.34,4.7-.89,7.07-1.2,5.53-.71,11.08-1.3,16.61-2,2.59-.32,2.73-.51,3.27-3.12.22-1.05.47-2.1.6-3.17.29-2.21.57-4.42.72-6.64s.12-4.52.2-6.78c.1-2.91.28-5.8.31-8.71a1.9,1.9,0,0,0-.93-1.44c-4.22-1.36-8.4-3-12.74-3.79A125.26,125.26,0,0,0,477,594.16c-2.95-.18-5.91,0-8.87-.16-4.91-.21-9.8-.6-14.71-.76-3.07-.09-6.16.11-9.23.18-8.43.19-16.84,1-25.29.73-5.31-.17-10.63.14-15.94.18-2.8,0-5.6,0-8.39-.1-4.55-.15-9.1-.54-13.65-.48-4.83.07-9.66.41-14.47.88-9.14.89-18.27,1.86-27.38,3a49.33,49.33,0,0,1-18.51-1.44c-.76-.19-1.51-.41-2.43-.66a5.66,5.66,0,0,0,.1,1.08,51.69,51.69,0,0,1,1.74,8.66c.45,3.22,1.48,6.36,2.12,9.56.76,3.79,1.36,7.61,2.07,11.41a1.4,1.4,0,0,0,.73.92c1.65.58,3.35,1,5,1.58,2.62,1,5.14,2.31,7.82,3a88.24,88.24,0,0,0,20.09,2.75q9,.16,18.09.39l9.21.24c2.24.06,4.47.17,6.7.19,1.9,0,3.8-.09,5.7-.08,2.76,0,5.53.08,8.29.09,1,0,1.95-.11,2.93-.17h5.52l1.13,0H418Z" />
            <path class="color-shadow"
                d="M415.37,635.15l-1.13,0h-5.52a21.74,21.74,0,0,0-2.71-.56c-2.72-.23-5.45-.33-8.17-.57s-5.44-.61-8.17-.89c-2-.2-3.95-.41-5.93-.51-3.4-.17-6.8-.34-10.2-.36-2.1,0-4.2.36-6.3.36-3.71,0-7.42-.13-11.13-.22a4.24,4.24,0,0,1-.7-.11c-3.45-.76-6.87-1.72-10.36-2.23a119.75,119.75,0,0,1-16.73-4.21,2.76,2.76,0,0,1-1.65-1.77c-.63-3.83-1-7.72-1.57-11.55s-1.47-7.72-2.23-11.57a2,2,0,0,1,2.16-2.62c1.59.08,3.16.36,4.74.44,5.49.28,11,.63,16.47.7,4.25,0,8.51-.27,12.77-.42-.35.23-.68.63-1.05.67-1.38.16-2.78.17-4.16.28-4,.3-8,.85-12,.9-5.18.05-10.36-.25-15.54-.47-1.32,0-1.47,0-1.2,1.27.61,2.92,1.17,5.84,1.8,8.76.77,3.57,1.52,7.15,2.42,10.69a3.08,3.08,0,0,0,1.57,1.79,60.59,60.59,0,0,0,7.4,2.7c2.24.63,4.6.87,6.9,1.29a87.78,87.78,0,0,0,16,1.61c6.29,0,12.58-.17,18.87-.21,1.87,0,3.75.12,5.61.24q6.74.45,13.45,1c1.82.13,3.64.32,5.46.45,1.51.11,3,.18,4.53.24a26.88,26.88,0,0,1,4.59.18,14.24,14.24,0,0,0,6.33,0,91.23,91.23,0,0,1,18.33-2.09c2.83-.09,5.66-.14,8.49-.25q5.79-.21,11.59-.48c3.18-.14,6.36-.31,9.54-.48a43,43,0,0,0,4.4-.31c2.94-.47,5.87-1,8.77-1.63,4-.89,8-1.88,12.06-2.9,1.77-.46,1.92-.76,1.92-2.6,0-3.06-.05-6.12,0-9.18,0-2,.32-3.88.42-5.82a1.66,1.66,0,0,0-.41-1.25,22.68,22.68,0,0,0-9.1-4,122.9,122.9,0,0,0-12.46-1.07c-1.51-.12-3-.13-4.53-.29-2.49-.26-5-.59-7.44-.93-1.48-.2-2.95-.47-4.42-.72.89,0,1.77,0,2.66,0,1.94.12,3.88.33,5.82.43,2.35.13,4.7.27,7,.25,1.83,0,3.64-.41,5.46-.42,2.79,0,5.58.11,8.37.23,1.07,0,2.13.24,3.19.39,2.31.34,4.63.67,6.94,1s3.92,1.43,3.74,3.65c-.09,1.14.05,2.28,0,3.42-.2,3.13-.46,6.26-.68,9.39-.08,1.14-.15,2.29-.15,3.43,0,1.94.19,3.88.08,5.8a4.39,4.39,0,0,1-3.51,3.6A26.32,26.32,0,0,1,492,628a42.56,42.56,0,0,0-11,1.65c-2.61.68-5.25,1.27-7.91,1.7-2.46.41-5,.59-7.46.79-3.1.26-6.21.55-9.33.64-2.53.08-5.07-.21-7.61-.17s-5.08.24-7.62.46c-3.67.32-7.36.15-11,.87-2.88.57-5.9.43-8.86.63-.14,0-.26.31-.38.48l-.7,0-2,0h-2.64Z" />
            <path class="color-shadow-dark"
                d="M420.7,635.09c.12-.17.24-.47.38-.48,3-.2,6-.06,8.86-.63,3.68-.72,7.37-.55,11-.87,2.54-.22,5.08-.42,7.62-.46s5.08.25,7.61.17c3.12-.09,6.23-.38,9.33-.64,2.5-.2,5-.38,7.46-.79,2.66-.43,5.3-1,7.91-1.7A42.56,42.56,0,0,1,492,628a26.32,26.32,0,0,0,4.14-.44,4.39,4.39,0,0,0,3.51-3.6c.11-1.92-.07-3.86-.08-5.8,0-1.14.07-2.29.15-3.43.22-3.13.48-6.26.68-9.39.08-1.14-.06-2.28,0-3.42.18-2.22-1.5-3.28-3.74-3.65s-4.63-.7-6.94-1c-1.06-.15-2.12-.34-3.19-.39-2.79-.12-5.58-.25-8.37-.23-1.82,0-3.63.4-5.46.42-2.34,0-4.69-.12-7-.25-1.94-.1-3.88-.31-5.82-.43-.89,0-1.77,0-2.66,0l-2.64-.22c-1.44-.06-2.88-.12-4.33-.15-.08,0-.16.24-.24.37l-1.18-.22c-2.71,0-5.42.05-8.13,0-2.33-.07-4.67-.42-7-.37-2.53,0-5,.39-7.57.64-1.08.1-2.16.31-3.24.47h-.95c-2.44,0-4.89.08-7.32,0-4.08-.23-8.15-.78-12.23-.87-4.79-.11-9.58.11-14.36.2a4.22,4.22,0,0,0-.9.22h-.47a1.13,1.13,0,0,0-1.94,0c-1,.16-2,.31-2.93.49s-1.71.34-2.57.51l-.49.23h-.47l-.74.45h-1.66l-.74.45h-1.19l-1,.22-4.55,0h-3.6l-3.12.23h-1L359,599c-4.26.15-8.52.47-12.77.42-5.49-.07-11-.42-16.47-.7-1.58-.08-3.15-.36-4.74-.44a2,2,0,0,0-2.16,2.62c.76,3.85,1.6,7.69,2.23,11.57s.94,7.72,1.57,11.55a2.76,2.76,0,0,0,1.65,1.77A119.75,119.75,0,0,0,345.05,630c3.49.51,6.91,1.47,10.36,2.23a4.24,4.24,0,0,0,.7.11c3.71.09,7.42.23,11.13.22,2.1,0,4.2-.37,6.3-.36,3.4,0,6.8.19,10.2.36,2,.1,4,.31,5.93.51,2.73.28,5.44.65,8.17.89s5.45.34,8.17.57a21.74,21.74,0,0,1,2.71.56c-1,.07-2,.18-2.93.18-2.76,0-5.53-.09-8.29-.09-1.9,0-3.8.1-5.7.08-2.23,0-4.46-.13-6.7-.19l-9.21-.24q-9-.21-18.09-.39a88.24,88.24,0,0,1-20.09-2.75c-2.68-.69-5.2-2-7.82-3-1.64-.6-3.34-1-5-1.58a1.4,1.4,0,0,1-.73-.92c-.71-3.8-1.31-7.62-2.07-11.41-.64-3.2-1.67-6.34-2.12-9.56a51.69,51.69,0,0,0-1.74-8.66,5.66,5.66,0,0,1-.1-1.08c.92.25,1.67.47,2.43.66a49.33,49.33,0,0,0,18.51,1.44c9.11-1.13,18.24-2.1,27.38-3,4.81-.47,9.64-.81,14.47-.88,4.55-.06,9.1.33,13.65.48,2.79.09,5.59.13,8.39.1,5.31,0,10.63-.35,15.94-.18,8.45.27,16.86-.54,25.29-.73,3.07-.07,6.16-.27,9.23-.18,4.91.16,9.8.55,14.71.76,3,.13,5.92,0,8.87.16a125.26,125.26,0,0,1,14.53,1.27c4.34.78,8.52,2.43,12.74,3.79a1.9,1.9,0,0,1,.93,1.44c0,2.91-.21,5.8-.31,8.71-.08,2.26,0,4.53-.2,6.78s-.43,4.43-.72,6.64c-.13,1.07-.38,2.12-.6,3.17-.54,2.61-.68,2.8-3.27,3.12-5.53.69-11.08,1.28-16.61,2-2.37.31-4.7.86-7.07,1.2-2.13.3-4.28.49-6.43.66-2.7.21-5.41.35-8.12.52-2.31.15-4.61.31-6.92.45-3.42.21-6.83.43-10.25.6-3,.15-6,.26-8.95.36q-6.7.24-13.41.44A11.64,11.64,0,0,1,420.7,635.09Z" />
            <path class="color-shadow-dark" d="M418,635.15l2,0Z" />
            <path class="color-shadow-dark" d="M409.85,635.13h0Z" />
            <path class="color-shadow-dark" d="M412.49,635.13h0Z" />
            <path class="color-shadow-dark" d="M415.37,635.15h0Z" />
            <path class="color-base"
                d="M386.61,596.37h.47a1.63,1.63,0,0,0,.52.24c3.4.25,6.79.58,10.2.71,4.25.17,8.51.24,12.77.24,3.5,0,7-.13,10.5-.24.27,0,.54-.29.82-.45h.95a2.82,2.82,0,0,0,.77.23q10.68-.11,21.38-.25a26.63,26.63,0,0,0,3.08-.25c.24,0,.46-.29.7-.45l1.18.22,4.57-.22,2.64.22c1.47.25,2.94.52,4.42.72,2.47.34,4.95.67,7.44.93,1.5.16,3,.17,4.53.29A122.9,122.9,0,0,1,486,599.38a22.68,22.68,0,0,1,9.1,4,1.66,1.66,0,0,1,.41,1.25c-.1,1.94-.37,3.87-.42,5.82-.07,3.06,0,6.12,0,9.18,0,1.84-.15,2.14-1.92,2.6-4,1-8,2-12.06,2.9-2.9.64-5.83,1.16-8.77,1.63a43,43,0,0,1-4.4.31c-3.18.17-6.36.34-9.54.48q-5.79.27-11.59.48c-2.83.11-5.66.16-8.49.25A91.23,91.23,0,0,0,420,630.4a14.24,14.24,0,0,1-6.33,0,26.88,26.88,0,0,0-4.59-.18c-1.51-.06-3-.13-4.53-.24-1.82-.13-3.64-.32-5.46-.45q-6.72-.5-13.45-1c-1.86-.12-3.74-.25-5.61-.24-6.29,0-12.58.19-18.87.21a87.78,87.78,0,0,1-16-1.61c-2.3-.42-4.66-.66-6.9-1.29a60.59,60.59,0,0,1-7.4-2.7,3.08,3.08,0,0,1-1.57-1.79c-.9-3.54-1.65-7.12-2.42-10.69-.63-2.92-1.19-5.84-1.8-8.76-.27-1.25-.12-1.32,1.2-1.27,5.18.22,10.36.52,15.54.47,4,0,8-.6,12-.9,1.38-.11,2.78-.12,4.16-.28.37,0,.7-.44,1.05-.67l1.67,0h1l3.12-.23h3.6l4.55,0,1-.22h1.19l.74-.45h1.66l.74-.45h.47l.49-.23c.86-.17,1.71-.36,2.57-.51s1.95-.33,2.93-.49Z" />
            <path class="color-shadow"
                d="M421.89,596.87c-.28.16-.55.44-.82.45-3.5.11-7,.25-10.5.24-4.26,0-8.52-.07-12.77-.24-3.41-.13-6.8-.46-10.2-.71a1.63,1.63,0,0,1-.52-.24,4.22,4.22,0,0,1,.9-.22c4.78-.09,9.57-.31,14.36-.2,4.08.09,8.15.64,12.23.87C417,597,419.45,596.86,421.89,596.87Z" />
            <path class="color-shadow"
                d="M448.77,596.15c-.24.16-.46.42-.7.45a26.63,26.63,0,0,1-3.08.25q-10.69.15-21.38.25a2.82,2.82,0,0,1-.77-.23c1.08-.16,2.16-.37,3.24-.47,2.52-.25,5-.59,7.57-.64,2.32,0,4.66.3,7,.37C443.35,596.2,446.06,596.15,448.77,596.15Z" />
            <path class="color-shadow"
                d="M454.52,596.15l-4.57.22c.08-.13.16-.37.24-.37C451.64,596,453.08,596.09,454.52,596.15Z" />
            <path class="color-shadow" d="M368.36,598.78h0Z" />
            <path class="color-shadow" d="M386.61,596.37h-1.94A1.13,1.13,0,0,1,386.61,596.37Z" />
            <path class="color-shadow" d="M373.88,598.54l-1,.22Z" />
            <path class="color-shadow" d="M361.64,599h0Z" />
            <path class="color-shadow" d="M378.21,597.6l-.74.45Z" />
            <path class="color-shadow" d="M375.81,598.08l-.74.45Z" />
            <path class="color-shadow" d="M379.17,597.36l-.49.23Z" />
            <path class="color-shadow" d="M377,598.06h0Z" />
        </g>
    </g>
</svg>
