<svg id="Nizy_pryamoy" data-name="Nizy pryamoy" xmlns="http://www.w3.org/2000/svg" viewBox="0 0 672 960">
    <g id="img_17" data-name="img 17">
        <g id="img_15_img" data-name="img 15 img">
            <path class="color-base"
                d="M322.2,577.91c-.13-1.55-.29-3.1-.35-4.65,0-.35.33-.72.52-1.08.28.28.71.51.83.85.56,1.53,1,3.1,1.57,4.78.16-.53.3-.94.4-1.36a3.08,3.08,0,0,1,5.74-.93q3.18,4.92,6.2,10a2.32,2.32,0,0,0,1.7,1.29c4.31.79,8.6,1.75,12.93,2.45s8.61,1.2,12.92,1.7c6,.67,12,1.45,18,1.81,3.08.18,6.19-.46,9.29-.71,2.83-.22,5.65-.47,8.48-.63a2.54,2.54,0,0,1,2.75,1.88,1.06,1.06,0,0,0,1.32.84c2.66-.23,5.31-.47,8-.67,1.66-.13,3.34-.19,5-.3,3.9-.26,7.79-.49,11.68-.79,3.6-.29,7.2-.67,10.81-1q8.2-.71,16.41-1.39c4.21-.34,8.42-.59,12.62-1,1.89-.18,3.74-.73,5.63-1,2.8-.35,5.62-.62,8.43-.85,3.06-.24,6.13-.36,9.18-.59a1.16,1.16,0,0,0,.81-.71c.22-1.14.33-2.29.45-3.44a23.7,23.7,0,0,1,2.74-7.88c.43-.87,1-1.3,1.91-.13.2-4.17.39-8.13.57-12.08h.24a71.34,71.34,0,0,1,1.66,7.16c.42,3.19.52,6.42.71,9.64.07,1.27,0,2.55,0,3.82-.23-.78-.5-1.55-.69-2.34-.36-1.46-.62-3-1-4.39-.12-.4-.65-.68-1.17-1.2a9.64,9.64,0,0,0-.42,1.52c-.26,3.29-.43,6.59-.76,9.87-.27,2.8-.65,5.59-1.1,8.37-.33,2-1.2,4-1.16,5.94a3.73,3.73,0,0,1-1.71,3.31c-.31.27-.4.81-.58,1.22a.41.41,0,0,0,0,.16c-.47,0-.95.08-1.43.1-5.23.13-10.47.18-15.7.42a136.06,136.06,0,0,1-20.49-.23l-1.46-.14-1.89-.13-1.95-.12-1.9-.09a2.43,2.43,0,0,0-2.66-.13l-11-.12a2.12,2.12,0,0,0-2.68,0l-8.85.11-3.4.1-24.2.14h-1.45l-7.41-.14c-.22-.12-.45-.34-.67-.34q-3.93,0-7.84,0c-.22,0-.44.23-.66.36H366.46c-.33-.58-.66-.58-1,0l-3.82.09-3.14.15-.44,0a3.6,3.6,0,0,0-1.11-.39c-2.77.13-5.55.27-8.31.5a15,15,0,0,0-2.6.65l-7-.25c-.34-.31-.63-.74-1-.9-3.8-1.52-6.61-4-7.82-8-.9-2.93-1.67-5.9-2.44-8.87-1-4-1.8-8-4.38-11.37Z" />
            <path class="transparent"
                d="M501.3,582.93c0-1.27.06-2.55,0-3.82-.19-3.22-.29-6.45-.71-9.64a71.34,71.34,0,0,0-1.66-7.16h10.56v63.82H314.36v-36.7c.14.1.33.18.41.32,1,1.88,1.93,3.75,2.85,5.65a22.1,22.1,0,0,1,1.7,3.79c1.6,5.94,3,11.92,4.67,17.86a3.46,3.46,0,0,0,1.78,2c3.84,1.56,7.76,2.93,11.66,4.36a3.31,3.31,0,0,0,.81.2c4.28.49,8.58,1.47,12.85,1.35,6.21-.16,12.4-1.07,18.59-1.75,9.53-1.06,19-2.41,28.56-3.24a207.77,207.77,0,0,1,32.43.2c7.25.5,14.52.89,21.78,1,7.58.15,15.17,0,22.76-.14,7.78-.14,15.56-.45,23.35-.61a3.85,3.85,0,0,0,3.68-2.39,55.14,55.14,0,0,0,2.14-6.71c.82-2.88,1.52-5.8,2.36-8.67.22-.72.92-1.29,1.16-2a23.86,23.86,0,0,0,.87-3.83c.06-.38-.31-1.12-.58-1.17a5.49,5.49,0,0,0-1.81.23,6.84,6.84,0,0,1-.46-.89c-.14-.42-.2-.87-.3-1.3,0-1.4.43-2.93-1.07-3.92l-3.23-1.61-.46-.15,0-.79.1-.51C501.08,585.49,501.19,584.21,501.3,582.93Z" />
            <path class="outline"
                d="M506.38,595.94a5.49,5.49,0,0,1,1.81-.23c.27,0,.64.79.58,1.17a23.86,23.86,0,0,1-.87,3.83c-.24.72-.94,1.29-1.16,2-.84,2.87-1.54,5.79-2.36,8.67a55.14,55.14,0,0,1-2.14,6.71,3.85,3.85,0,0,1-3.68,2.39c-7.79.16-15.57.47-23.35.61-7.59.14-15.18.29-22.76.14-7.26-.14-14.53-.53-21.78-1a207.77,207.77,0,0,0-32.43-.2c-9.54.83-19,2.18-28.56,3.24-6.19.68-12.38,1.59-18.59,1.75-4.27.12-8.57-.86-12.85-1.35a3.31,3.31,0,0,1-.81-.2c-3.9-1.43-7.82-2.8-11.66-4.36a3.46,3.46,0,0,1-1.78-2c-1.63-5.94-3.07-11.92-4.67-17.86a22.1,22.1,0,0,0-1.7-3.79c-.92-1.9-1.89-3.77-2.85-5.65-.08-.14-.27-.22-.41-.32V588c.76-.37,1.51-.79,2.29-1.09a1.06,1.06,0,0,1,.94.18c.69.84,1.54,1.62,1.59,2.83l.39.55a4.74,4.74,0,0,0,.09,1.07c1.35,4.59,2.71,9.18,4.12,13.75a1.25,1.25,0,0,0,.94.67c1.83,0,3.66,0,5.5-.07l8.87.08,7,.25c2.46-.11,4.93-.19,7.39-.33,1.55-.09,3.09-.28,4.63-.43l.44,0,3.14-.15,3.82-.09H377l9.17,0,7.41.14H395l24.2-.14,3.4-.1,8.85-.11h2.68l11,.12,2.66.13,1.9.09,1.95.12,1.89.13,1.46.14a136.06,136.06,0,0,0,20.49.23c5.23-.24,10.47-.29,15.7-.42.48,0,1-.07,1.43-.1l.78-.06,3.33-.11c2.15.08,4.29.19,6.43.21.26,0,.67-.46.76-.78.71-2.56,1.36-5.14,2-7.71Zm-56.69,10.67-2.61-.14-1.45-.05-15.11-.2-1.69,0h-2.38l-1.45,0-12.71.26H401.48l-.47,0H383.72l-1.67,0-21.85.21-.95,0-2.41.2-.71,0-3.37.21-.47,0c-1.43,0-2.86.13-4.3.13-5.93,0-11.87,0-17.8,0h-5.31v.46l5.85.14,1.65.14,1.43,0,20.17.21,4.55,0h19.2l1,0c.39,0,.79,0,1.19,0,4.9-.05,9.8-.16,14.71-.16,4.38,0,8.76.1,13.15.16h8.63l4.78-.07,5.78-.18,1,0,14.88,0,1.48.09,2.84.16.76.08,2.84.15,1.72.1,3.32.15,1.72.08h10.73l2.19-.09,3.81-.14,1.47-.1,2.37-.14,1-.09,2.13-.13,1.23-.12,1.89-.13,1.23-.11,1.18-.07c1.42,0,2.85-.12,4.28-.12,3.75,0,7.49,0,11.24,0,.79,0,1.34-.13,1.18-1.14a3.57,3.57,0,0,0-.6-.1c-3.9.12-7.8.23-11.7.37-1.46.06-2.92.19-4.38.29h-.95l-3.36.07-4.77.13-3.4.1-5.48.14-1.73,0h-2.14l-1.24,0-2.85-.16-.48,0-2.4-.19-1.23-.1-5-.39Zm39.43,2.89-.76.06-3.56.17-1,.07c-2.56.11-5.11.29-7.67.3-6.87,0-13.75.14-20.62,0s-13.81-.72-20.72-.77c-10.43-.08-20.86.18-31.3.24-17.47.09-34.94.12-52.41.19q-9.6,0-19.19.12l-2.88-.1-3.95-.27c.79,2.33,1.46,4.36,2.18,6.38a1.47,1.47,0,0,0,.76.66c1.78.8,3.58,1.55,5.37,2.33a33.92,33.92,0,0,0,3.48,1.59,48.4,48.4,0,0,0,15.32,2.28c4.81-.08,9.62-.63,14.41-1.12,5.54-.57,11.06-1.35,16.6-2q6-.67,12-1.15c3.45-.27,6.92-.39,10.38-.58l.94,0,1.47,0h2.87l1.42,0h1l6.22.12a3,3,0,0,0,.77.21c2.91.17,5.81.32,8.72.47,4.54.25,9.08.54,13.62.71,4.23.16,8.46.18,12.69.27.36,0,.72,0,1.08,0,4.31-.06,8.63,0,12.94-.22,3.57-.18,7.13-.72,10.71-1,2.94-.2,5.91-.19,8.86-.31,2.15-.09,4.29-.32,6.44-.37,3.37-.07,5-1,5.5-3.61a11.86,11.86,0,0,1,.53-1.59c.39-1.07.79-2.13,1.22-3.29h-5.08l-5.77.11Z" />
            <path class="color-shadow"
                d="M339.09,606l-8.87-.08c-.24-.24-.68-.47-.69-.72,0-1.79-1.07-3-2.32-4a2.26,2.26,0,0,1-.55-1q-1.38-4.79-2.72-9.58c-.25-.89-.49-1.78-.69-2.48l-1.68,1c-.2-1.46-.38-2.91-.63-4.36a12.05,12.05,0,0,1,.56-5.62l.7-1.07,1.22-1.1c2.58,3.35,3.36,7.4,4.38,11.37.77,3,1.54,5.94,2.44,8.87,1.21,4,4,6.49,7.82,8C338.46,605.22,338.75,605.65,339.09,606Z" />
            <path class="color-base"
                d="M321.5,579a12.05,12.05,0,0,0-.56,5.62c.25,1.45.43,2.9.63,4.36L320,590h0c0-.18,0-.49.12-.53,1.19-.55,1-1.46.81-2.5a20.12,20.12,0,0,1-.51-4.48A15.7,15.7,0,0,1,321.5,579Z" />
            <path class="color-base" d="M319.57,590.46l-.39-.55.85.14h0Z" />
            <path class="color-shadow"
                d="M496.75,605.22l-3.33.11-.75-.1c.18-.41.27-1,.58-1.22A3.73,3.73,0,0,0,495,600.7c0-2,.83-3.94,1.16-5.94.45-2.78.83-5.57,1.1-8.37.33-3.28.5-6.58.76-9.87a9.64,9.64,0,0,1,.42-1.52c.52.52,1.05.8,1.17,1.2.42,1.44.68,2.93,1,4.39.19.79.46,1.56.69,2.34-.11,1.28-.22,2.56-.32,3.84,0,.17-.07.34-.1.51s0,.53,0,.79c-.16,1.37-.3,2.75-.5,4.12-.53,3.7-1.13,7.4-1.59,11.11-.13,1.05-.34,1.67-1.53,1.52C497.1,604.8,496.92,605.08,496.75,605.22Z" />
            <path class="color-shadow-dark"
                d="M358.06,605.45c-1.54.15-3.08.34-4.63.43-2.46.14-4.93.22-7.39.33a15,15,0,0,1,2.6-.65c2.76-.23,5.54-.37,8.31-.5A3.6,3.6,0,0,1,358.06,605.45Z" />
            <path class="color-shadow-dark"
                d="M386.15,605.16l-9.17,0c.22-.13.44-.36.66-.36q3.92,0,7.84,0C385.7,604.82,385.93,605,386.15,605.16Z" />
            <path class="color-shadow-dark" d="M422.61,605.06l-3.4.1Z" />
            <path class="color-shadow-dark" d="M361.64,605.28l-3.14.15Z" />
            <path class="color-shadow-dark" d="M434.14,605h-2.68A2.12,2.12,0,0,1,434.14,605Z" />
            <path class="color-shadow-dark" d="M447.82,605.2l-2.66-.13A2.43,2.43,0,0,1,447.82,605.2Z" />
            <path class="color-shadow-dark" d="M451.67,605.41l-1.95-.12Z" />
            <path class="color-shadow-dark" d="M395,605.3h0Z" />
            <path class="color-shadow-dark" d="M455,605.68l-1.46-.14Z" />
            <path class="color-shadow-dark" d="M366.46,605.19h-1C365.8,604.61,366.13,604.61,366.46,605.19Z" />
            <path class="color-shadow-dark" d="M492.67,605.23l.75.1-.78.06A.41.41,0,0,1,492.67,605.23Z" />
            <path class="color-shadow-dark"
                d="M496.75,605.22c.17-.14.35-.42.49-.4,1.19.15,1.4-.47,1.53-1.52.46-3.71,1.06-7.41,1.59-11.11.2-1.37.34-2.75.5-4.12l.46.15,3.23,1.61c1.5,1,1.06,2.52,1.07,3.92a14.73,14.73,0,0,0-.2,2.18c0,.34.35.68.54,1-.66,2.57-1.31,5.15-2,7.71-.09.32-.5.78-.76.78C501,605.41,498.9,605.3,496.75,605.22Z" />
            <path class="color-base"
                d="M506,596.94c-.19-.33-.53-.67-.54-1a14.73,14.73,0,0,1,.2-2.18c.1.43.16.88.3,1.3a6.84,6.84,0,0,0,.46.89Z" />
            <path class="color-base" d="M504.55,589.83l-3.23-1.61Z" />
            <path class="color-base" d="M500.88,587.28c0-.17.07-.34.1-.51C501,586.94,500.91,587.11,500.88,587.28Z" />
            <path class="color-shadow"
                d="M419.48,618l-6.22-.12h-1l-1.42,0a1,1,0,0,0-1.7,0H408c-.5-.6-1-.62-1.47,0l-.94,0c-.21-.14-.4-.39-.62-.4-1.55-.12-3.1-.26-4.65-.25-6.53.05-13.07,0-19.6.27-3.32.12-6.64.64-9.94,1.05-3,.38-6,.91-8.95,1.3-1.42.18-2.86.23-4.29.29a25.13,25.13,0,0,1-5.12.12,124.22,124.22,0,0,1-12.24-2.55c-3.21-.88-6.25-2.36-9.41-3.42-2.07-.7-2.54-2.39-3.11-4.11l1.37-.45,2.88.1c0,1.64.42,2.06,2.05,2.1A18.53,18.53,0,0,1,340.5,613a13.16,13.16,0,0,0,2.06.6,61.89,61.89,0,0,0,14.93,1.48c3.15-.09,6.32.13,9.47-.07,3.84-.23,7.65-.87,11.49-1.11,4.67-.29,9.36-.4,14-.5,3.6-.07,7.2,0,10.8,0,1.49,0,3,.16,4.47.21a20.33,20.33,0,0,1,4.14.09,20.79,20.79,0,0,0,7.12.13c4.11-.39,8.18-1.08,12.33-.71,3.29.29,6.6.36,9.9.49,4.7.19,9.4.38,14.1.47,2.27,0,4.54-.27,6.81-.19a83.54,83.54,0,0,0,18.73-1.71c3.31-.64,6.63-1.24,9.93-1.92.34-.07.6-.55.89-.84l5.77-.11c-.11.78-.19,1.57-.35,2.35-.45,2.33-.91,3.14-4,3.17-2.94,0-5.89-.17-8.8.56a80.7,80.7,0,0,1-10.1,2.24c-5.39.65-10.83,1-16.26,1.23a57.13,57.13,0,0,1-6.77-.44c-4.68-.32-9.35-.71-14-.93-3.05-.14-6.11,0-9.17,0-2.59,0-5.18.14-7.76.24A3,3,0,0,0,419.48,618Z" />
            <path class="color-base"
                d="M491.71,609.46c-.29.29-.55.77-.89.84-3.3.68-6.62,1.28-9.93,1.92a83.54,83.54,0,0,1-18.73,1.71c-2.27-.08-4.54.24-6.81.19-4.7-.09-9.4-.28-14.1-.47-3.3-.13-6.61-.2-9.9-.49-4.15-.37-8.22.32-12.33.71a20.79,20.79,0,0,1-7.12-.13,20.33,20.33,0,0,0-4.14-.09c-1.49,0-3-.2-4.47-.21-3.6,0-7.2-.07-10.8,0-4.68.1-9.37.21-14,.5-3.84.24-7.65.88-11.49,1.11-3.15.2-6.32,0-9.47.07a61.89,61.89,0,0,1-14.93-1.48,13.16,13.16,0,0,1-2.06-.6,18.53,18.53,0,0,0-6.56-1.06c-1.63,0-2-.46-2.05-2.1q9.6-.06,19.19-.12c17.47-.07,34.94-.1,52.41-.19,10.44-.06,20.87-.32,31.3-.24,6.91,0,13.81.63,20.72.77s13.75,0,20.62,0c2.56,0,5.11-.19,7.67-.3l1-.07,3.56-.17.76-.06Z" />
            <path class="color-base"
                d="M447.08,606.47l2.61.14,1.95.1,5,.39,1.23.1,2.4.19.48,0,2.85.15,1.24,0H467l1.73,0,5.48-.14,3.4-.1,4.77-.13,3.36-.07h.95c0,.24,0,.48,0,.71l-1.18.07-1.23.11-1.89.13-1.23.12-2.13.13-1,.09-2.37.14-1.47.1-3.81.14-2.19.09H457.44l-1.72-.08-3.32-.15-1.72-.1-2.84-.15-.76-.08-2.84-.16-1.48-.09-14.88,0-1,0-5.78.18-4.78.07h-8.63c-4.39-.06-8.77-.16-13.15-.16-4.91,0-9.81.11-14.71.16-.4,0-.8,0-1.19,0l-1,0h-19.2l-4.55,0-20.17-.21-1.43,0-1.65-.14-.53-.6c5.93,0,11.87,0,17.8,0,1.44,0,2.87-.08,4.3-.13l.47,0,3.37-.21.71,0,2.41-.2.95,0,21.85-.21,1.67,0H401l.47,0h10.81l12.71-.26,1.45,0h2.38l1.69,0,15.11.2Z" />
            <path class="color-shadow-dark"
                d="M329,609.78l-1.37.45c.57,1.72,1,3.41,3.11,4.11,3.16,1.06,6.2,2.54,9.41,3.42a124.22,124.22,0,0,0,12.24,2.55,25.13,25.13,0,0,0,5.12-.12c1.43-.06,2.87-.11,4.29-.29,3-.39,6-.92,8.95-1.3,3.3-.41,6.62-.93,9.94-1.05,6.53-.23,13.07-.22,19.6-.27,1.55,0,3.1.13,4.65.25.22,0,.41.26.62.4-3.46.19-6.93.31-10.38.58q-6,.47-12,1.15c-5.54.62-11.06,1.4-16.6,2-4.79.49-9.6,1-14.41,1.12a48.4,48.4,0,0,1-15.32-2.28,33.92,33.92,0,0,1-3.48-1.59c-1.79-.78-3.59-1.53-5.37-2.33a1.47,1.47,0,0,1-.76-.66c-.72-2-1.39-4-2.18-6.38Z" />
            <path class="color-shadow-dark"
                d="M419.48,618a3,3,0,0,1,.75-.24c2.58-.1,5.17-.21,7.76-.24,3.06,0,6.12-.13,9.17,0,4.68.22,9.35.61,14,.93a57.13,57.13,0,0,0,6.77.44c5.43-.26,10.87-.58,16.26-1.23a80.7,80.7,0,0,0,10.1-2.24c2.91-.73,5.86-.53,8.8-.56,3.1,0,3.56-.84,4-3.17.16-.78.24-1.57.35-2.35h5.08c-.43,1.16-.83,2.22-1.22,3.29a11.86,11.86,0,0,0-.53,1.59c-.54,2.57-2.13,3.54-5.5,3.61-2.15,0-4.29.28-6.44.37-2.95.12-5.92.11-8.86.31-3.58.24-7.14.78-10.71,1-4.31.2-8.63.16-12.94.22-.36,0-.72,0-1.08,0-4.23-.09-8.46-.11-12.69-.27-4.54-.17-9.08-.46-13.62-.71-2.91-.15-5.81-.3-8.72-.47A3,3,0,0,1,419.48,618Z" />
            <path class="color-shadow-dark"
                d="M319.57,590.46,320,590l1.55-1.08,1.68-1c.2.7.44,1.59.69,2.48q1.35,4.78,2.72,9.58a2.26,2.26,0,0,0,.55,1c1.25,1.08,2.29,2.25,2.32,4,0,.25.45.48.69.72-1.84,0-3.67.1-5.5.07a1.25,1.25,0,0,1-.94-.67c-1.41-4.57-2.77-9.16-4.12-13.75A4.74,4.74,0,0,1,319.57,590.46Z" />
            <path class="color-shadow-dark"
                d="M486.66,607.83c0-.23,0-.47,0-.71,1.46-.1,2.92-.23,4.38-.29,3.9-.14,7.8-.25,11.7-.37a3.57,3.57,0,0,1,.6.1c.16,1-.39,1.15-1.18,1.14-3.75,0-7.49,0-11.24,0C489.51,607.71,488.08,607.79,486.66,607.83Z" />
            <path class="color-shadow-dark" d="M330.19,607.36l.53.6-5.85-.14v-.46Z" />
            <path class="color-shadow-dark" d="M416.36,608.38l4.78-.07Z" />
            <path class="color-shadow-dark" d="M354,608.35l4.55,0Z" />
            <path class="color-shadow-dark" d="M485.73,607.13l-3.36.07Z" />
            <path class="color-shadow-dark" d="M477.6,607.33l-3.4.1Z" />
            <path class="color-shadow-dark" d="M468.17,609l2.19-.09Z" />
            <path class="color-shadow-dark" d="M451.64,606.71l-1.95-.1Z" />
            <path class="color-shadow-dark" d="M450.68,608.62l1.72.1Z" />
            <path class="color-shadow-dark" d="M455.72,608.87l1.72.08Z" />
            <path class="color-shadow-dark" d="M409.15,617.89a1,1,0,0,1,1.7,0Z" />
            <path class="color-shadow-dark" d="M468.72,607.57l-1.73,0Z" />
            <path class="color-shadow-dark" d="M430.52,606.22l-1.69,0Z" />
            <path class="color-shadow-dark" d="M383.72,606.48l-1.67,0Z" />
            <path class="color-shadow-dark" d="M447.08,606.47l-1.45-.05Z" />
            <path class="color-shadow-dark" d="M426.45,606.19l-1.45,0Z" />
            <path class="color-shadow-dark" d="M332.37,608.1l1.43,0Z" />
            <path class="color-shadow-dark" d="M442.76,608.14l1.48.09Z" />
            <path class="color-shadow-dark" d="M474.17,608.72l1.47-.1Z" />
            <path class="color-shadow-dark" d="M406.51,617.91c.48-.64,1-.62,1.47,0Z" />
            <path class="color-shadow-dark" d="M464.85,607.62l-1.24,0Z" />
            <path class="color-shadow-dark" d="M457.88,607.2l-1.23-.1Z" />
            <path class="color-shadow-dark" d="M484.25,608l1.23-.11Z" />
            <path class="color-shadow-dark" d="M481.13,608.26l1.23-.12Z" />
            <path class="color-shadow-dark" d="M385.4,606.49h0Z" />
            <path class="color-shadow-dark" d="M407.73,608.36h0Z" />
            <path class="color-shadow-dark" d="M478,608.48l1-.09Z" />
            <path class="color-shadow-dark" d="M412.27,617.87h0Z" />
            <path class="color-shadow-dark" d="M426.92,608.13l1,0Z" />
            <path class="color-shadow-dark" d="M484.8,609.73l-1,.07Z" />
            <path class="color-shadow-dark" d="M360.2,606.71l-.95,0Z" />
            <path class="color-shadow-dark" d="M377.72,608.37l1,0Z" />
            <path class="color-shadow-dark" d="M447.08,608.39l.76.08Z" />
            <path class="color-shadow-dark" d="M356.84,607l-.71,0Z" />
            <path class="color-shadow-dark" d="M489.12,609.5l-.76.06Z" />
            <path class="color-shadow-dark" d="M401.48,606.47l-.47,0Z" />
            <path class="color-shadow-dark" d="M352.76,607.2l-.47,0Z" />
            <path class="color-shadow-dark" d="M460.76,607.42l-.48,0Z" />
            <path class="color-shadow-dark" d="M412.29,606.48h0Z" />
        </g>
    </g>
</svg>
