<svg id="Crop_Bochonok" data-name="Crop Bochonok" xmlns="http://www.w3.org/2000/svg" viewBox="0 0 672 960">

    <g>
        <path class="outline"
            d="M470.87,388.31a10.34,10.34,0,0,1,4.54,1.31c2.49,1.26,5.07,2.34,7.66,3.39a7,7,0,0,0,2.35.2c.94,0,1.88,0,3,0-.2.45-.25.89-.43.95-1.49.46-2,1.73-2.59,3-1.34,3-2.73,5.95-3.86,9-.83,2.24-2.31,3.53-4.56,3.63-5.58.23-11.13.93-16.76.4s-11-.54-16.53-.75c-8.14-.31-16.29-.57-24.44-.88-3.67-.14-7.34-.39-11-.55-6.07-.27-12.13-.54-18.2-.76a205,205,0,0,0-23,.66q-9.21.69-18.4,1.42a17,17,0,0,0-2.38.28c-6.88,1.61-13.91,2-20.91,2.75a71.34,71.34,0,0,1-19.57-.91,12.42,12.42,0,0,1-2.77-.73,44.09,44.09,0,0,0-8.63-2.85,4.67,4.67,0,0,1-3.81-3.9c-.61-4-2.53-7.38-4-11-.78-1.91-1.46-3.86-2.24-5.93a6.68,6.68,0,0,1,4.42.46,41.28,41.28,0,0,0,13.25,3.05,75.48,75.48,0,0,0,12.93-.17c9.31-.84,18.58-2.17,27.9-2.93,5.56-.45,11.19-.25,16.79-.23q25.32,0,50.63.19a6.23,6.23,0,0,0,1.36.32q7.23.06,14.46,0a7.36,7.36,0,0,0,1.58-.36l17.55,0c-.7.1-1.4.26-2.1.29-4.31.17-8.61.38-12.92.46q-8.4.15-16.79.14c-19.2,0-38.39-.12-57.58,0-5.91,0-11.81.52-17.71.95q-8.46.63-16.92,1.6a158.6,158.6,0,0,1-17.42,1.32,29,29,0,0,1-10.53-2c-2-.75-4.07-1.18-6.11-1.76a2.81,2.81,0,0,0-.18.64c.32,2.23,2.2,2.7,3.87,2.95,4.42.66,8.86,1.26,13.31,1.52,5.84.35,11.63-.68,17.42-1.33,7.78-.87,15.61-1.18,23.43-1.38,11.74-.3,23.5.17,35.25-.45,6.7-.36,13.43-.16,20.15-.23,1,0,2.07-.16,3.1-.2,5.67-.2,11.34-.5,17-.54,5,0,10.07.22,15.1.36,6,.17,12,.27,18,.58a89.65,89.65,0,0,1,9.51,1.12,50.8,50.8,0,0,1,14.82,4.59,11.66,11.66,0,0,0,4.41.77,1.43,1.43,0,0,0,1.41-1.62c0-.34-.65-.78-1.1-1-1.72-.83-3.45-1.64-5.22-2.36a31.38,31.38,0,0,0-4.73-1.69A81.8,81.8,0,0,0,457,388.31c-3.19-.11-6.38,0-9.58,0v-.47h10l4.7.07a2.62,2.62,0,0,0,.87.34C465.62,388.28,468.25,388.29,470.87,388.31Zm-173.41,16.9.31.21,0-.47c.07-.36.15-.71.32-1.6,1.56,2.36,2.9,4.39,5.87,4.56-.21-1.46-.42-2.85-.62-4.24.16,0,.42,0,.49.13.38.57.72,1.17,1.07,1.77.68,1.71,1.29,3.53,3.52,3.75,3.95.4,7.91.8,11.88,1.09,1.42.11,1.43,0,1.88-1.79l1.49-3.57.35.11c-.11,1.56-.22,3.12-.35,4.82,1.27,0,2.45-.05,3.62,0a2.26,2.26,0,0,0,2.38-1.53c.73-1.57,1.63-3,2.68-5,0,2.32-1,4-.56,6.11,2.74-.26,5.34-.47,7.93-.79.27,0,.64-.65.66-1,.09-1.67.07-3.34.09-5a1.28,1.28,0,0,0,.28.07c.49,1.34,1,2.68,1.48,4,.62,1.61.83,1.73,2.45,1.39a14.57,14.57,0,0,0,1.56-.5l-.92-2.33a6.63,6.63,0,0,1,1.74,1.27,3.48,3.48,0,0,0,1.81.9c3-.13,5.94-.43,8.87-.66l-1.55-5.66.11-1.41.9,1.39c.63,1.19,1.25,2.39,1.9,3.57a3,3,0,0,0,3.49,1.74c1.56-.27,1.58-.15,1.69-1.68,0-.56.09-1.11.16-2.08a9.41,9.41,0,0,1,.68,1.24c.54,1.74,1.69,2.27,3.47,2.07,2.37-.26,4.76-.36,7.15-.4a3.9,3.9,0,0,0,3.15-1.36c.72-.82,1.57-1.54,2.37-2.31l.26.27-1.32,3.29c1.35,0,2.45-.09,3.54,0,1.72.16,3.14-.15,4-1.83a11.37,11.37,0,0,1,1.06-1.47l.39.3-1.07,3.12h10.39l-1-2.52a7,7,0,0,1,1.27.92c1.52,1.88,3.59,2,5.81,2.12,4.37.15,8.74.52,13.12.74,1.64.08,3.29,0,5.11,0-.51-1.9-1-3.58-1.42-5.27-.07-.66-.14-1.32-.26-2.43l1.52,2.58c.72,1.42,1.4,2.86,2.16,4.26a2.09,2.09,0,0,0,1.86,1.3c3,0,6.06.08,9.1.15a1.41,1.41,0,0,0,1.58-1.4c.21-1.26.5-2.5.75-3.75l.61-.21c.17,1.18.36,2.37.5,3.55.2,1.68.19,1.71,1.79,1.78,3.35.13,6.7.27,10.05.35,1.64,0,3.28,0,4.89-.05.09-1.32.17-2.36.27-3.82a35.77,35.77,0,0,0,2.06,2.93,2.8,2.8,0,0,0,1.53,1c1.56.21,3.14.22,5,.32-1.21-2.23-.54-4.39-.64-6.51l.27-.56.27.56c.32,1.79.7,3.58.94,5.39.12.91.53,1.29,1.38,1.24,1.43-.1,2.87-.16,4.28-.35,2.41-.33,2.4-.36,2.57-2.72,0-.08.19-.16.51-.41a2.75,2.75,0,0,0,.32.61c1.71,2.12,2.46,2.14,3.89-.14,1.1-1.75,2-3.61,3-5.44a5.16,5.16,0,0,0,.29-1.24,11.72,11.72,0,0,1-6.93-2,4.4,4.4,0,0,0-.91-.29c-.78-.39-1.54-.83-2.35-1.14A51.16,51.16,0,0,0,454.49,392c-7.43-.18-14.87-.26-22.3-.39l-7-.14c-3.44-.07-6.88-.25-10.31-.17-7.52.16-15,.48-22.54.69-5,.13-10.08.18-15.12.27l-21.83.37-6.47.13c-.8,0-1.6-.14-2.39-.1-6.7.3-13.4.54-20.09,1-4.06.26-8.09.89-12.14,1.23a92.07,92.07,0,0,1-10.75.57c-4-.14-7.92-.79-11.89-1.24-.88-.1-1.75-.27-2.64-.4,1.16,2.72,2.38,5.15,3.23,7.7.59,1.78,1.44,2.95,3.33,3.27C296.24,404.84,296.85,405.05,297.46,405.21Z" />
        <path class="color-shadow-dark"
            d="M457.43,387.82h-10v.47c3.2,0,6.39-.09,9.58,0a81.8,81.8,0,0,1,15.67,1.86,31.38,31.38,0,0,1,4.73,1.69c1.77.72,3.5,1.53,5.22,2.36.45.21,1.09.65,1.1,1a1.43,1.43,0,0,1-1.41,1.62,11.66,11.66,0,0,1-4.41-.77,50.8,50.8,0,0,0-14.82-4.59,89.65,89.65,0,0,0-9.51-1.12c-6-.31-12-.41-18-.58-5-.14-10.07-.39-15.1-.36-5.67,0-11.34.34-17,.54-1,0-2.06.19-3.1.2-6.72.07-13.45-.13-20.15.23-11.75.62-23.51.15-35.25.45-7.82.2-15.65.51-23.43,1.38-5.79.65-11.58,1.68-17.42,1.33-4.45-.26-8.89-.86-13.31-1.52-1.67-.25-3.55-.72-3.87-2.95a2.81,2.81,0,0,1,.18-.64c2,.58,4.13,1,6.11,1.76a29,29,0,0,0,10.53,2,158.6,158.6,0,0,0,17.42-1.32q8.44-1,16.92-1.6c5.9-.43,11.8-.92,17.71-.95,19.19-.1,38.38,0,57.58,0q8.4,0,16.79-.14c4.31-.08,8.61-.29,12.92-.46.7,0,1.4-.19,2.1-.29Z" />
        <path class="color-shadow-dark"
            d="M427.7,387.41a7.36,7.36,0,0,1-1.58.36q-7.23,0-14.46,0a6.23,6.23,0,0,1-1.36-.32l14.55-.1C425.8,387.31,426.75,387.37,427.7,387.41Z" />
        <path class="color-shadow" d="M470.87,388.31c-2.62,0-5.25,0-7.87-.08a2.62,2.62,0,0,1-.87-.34Z" />
        <path class="color-base"
            d="M349,392.74l6.47-.13,21.83-.37c5-.09,10.08-.14,15.12-.27,7.51-.21,15-.53,22.54-.69,3.43-.08,6.87.1,10.31.17l7,.14c7.43.13,14.87.21,22.3.39a51.16,51.16,0,0,1,17.13,3.23c.81.31,1.57.75,2.35,1.14-1,.45-.63,1.35-.75,2.1-.27,1.8-.81,2.51-2.42,2.73-2.05.28-4.11.38-6.17.56l-.27-.56-.27.56c-3.79.16-7.58.41-11.37.47-4.69.09-9.38,0-14.06,0l-.61.21c-1.5-.07-3-.16-4.52-.2a23.52,23.52,0,0,1-4.29-.12,23.14,23.14,0,0,0-6.64-.24l-1.52-2.58c.12,1.11.19,1.77.26,2.43-1.09-.15-2.19-.4-3.29-.44-5.73-.19-11.47-.34-17.2-.49a15.41,15.41,0,0,0-1.92.07c-3.16.28-6.31.77-9.47.83-3.41.06-6.83-.37-10.25-.41-7.35-.07-14.71,0-22.06,0l-.9-1.39-.11,1.41c-2.69.16-5.39.3-8.08.49-2.21.15-4.42.34-6.63.55-.26,0-.49.35-.73.54a1.28,1.28,0,0,1-.28-.07c-1.27,0-2.55,0-3.82-.07-7.46-.24-15,.58-22.38-.5-2.58-.37-5.13-.92-7.67-1.48-.33-.07-.56-.62-.84-1,1.18-.15,2.36-.23,3.52-.45q8.06-1.51,16.09-3.09c3.73-.72,7.44-1.66,11.2-2.12s7.29-.39,10.94-.55C348.11,393.54,348.77,393.59,349,392.74Z" />
        <path class="color-shadow"
            d="M357.15,401.25c7.35,0,14.71,0,22.06,0,3.42,0,6.84.47,10.25.41,3.16-.06,6.31-.55,9.47-.83a15.41,15.41,0,0,1,1.92-.07c5.73.15,11.47.3,17.2.49,1.1,0,2.2.29,3.29.44.46,1.69.91,3.37,1.42,5.27-1.82,0-3.47.07-5.11,0-4.38-.22-8.75-.59-13.12-.74-2.22-.08-4.29-.24-5.81-2.12a7,7,0,0,0-1.27-.92l1,2.52H388.08l1.07-3.12-.39-.3a11.37,11.37,0,0,0-1.06,1.47c-.87,1.68-2.29,2-4,1.83-1.09-.1-2.19,0-3.54,0l1.32-3.29-.26-.27c-.8.77-1.65,1.49-2.37,2.31a3.9,3.9,0,0,1-3.15,1.36c-2.39,0-4.78.14-7.15.4-1.78.2-2.93-.33-3.47-2.07a9.41,9.41,0,0,0-.68-1.24c-.07,1-.12,1.52-.16,2.08-.11,1.53-.13,1.41-1.69,1.68a3,3,0,0,1-3.49-1.74C358.4,403.64,357.78,402.44,357.15,401.25Z" />
        <path class="color-shadow"
            d="M305.71,399.78c.28.33.51.88.84,1,2.54.56,5.09,1.11,7.67,1.48,7.43,1.08,14.92.26,22.38.5,1.27,0,2.55,0,3.82.07,0,1.67,0,3.34-.09,5,0,.37-.39,1-.66,1-2.59.32-5.19.53-7.93.79-.46-2.09.53-3.79.56-6.11-1.05,1.93-1.95,3.4-2.68,5a2.26,2.26,0,0,1-2.38,1.53c-1.17-.06-2.35,0-3.62,0,.13-1.7.24-3.26.35-4.82l-.35-.11-1.49,3.57a6.87,6.87,0,0,0-1.44-.6c-.61-.12-1.27,0-1.89-.1-3.49-.61-7-1.27-10.45-1.88-1.16-.2-2.33-.32-3.5-.47-.35-.6-.69-1.2-1.07-1.77-.07-.11-.33-.09-.49-.13-.53.12-1.13.48-1.56.33-1.8-.62-3.56-1.38-5.31-2.11a3.14,3.14,0,0,1-2.05-2.7c.8-.53,1.53-.2,2.31-.09,2.57.36,5.11,1.3,7.75.32C304.77,399.3,305.28,399.65,305.71,399.78Z" />
        <path class="color-shadow-dark"
            d="M305.71,399.78c-.43-.13-.94-.48-1.28-.36-2.64,1-5.18,0-7.75-.32-.78-.11-1.51-.44-2.31.09a3.14,3.14,0,0,0,2.05,2.7c1.75.73,3.51,1.49,5.31,2.11.43.15,1-.21,1.56-.33.2,1.39.41,2.78.62,4.24-3-.17-4.31-2.2-5.87-4.56-.17.89-.25,1.24-.32,1.6l-.26.26c-.61-.16-1.22-.37-1.84-.47-1.89-.32-2.74-1.49-3.33-3.27-.85-2.55-2.07-5-3.23-7.7.89.13,1.76.3,2.64.4,4,.45,7.92,1.1,11.89,1.24a92.07,92.07,0,0,0,10.75-.57c4.05-.34,8.08-1,12.14-1.23,6.69-.43,13.39-.67,20.09-1,.79,0,1.59.06,2.39.1-.19.85-.85.8-1.5.83-3.65.16-7.33.11-10.94.55s-7.47,1.4-11.2,2.12q-8,1.56-16.09,3.09C308.07,399.55,306.89,399.63,305.71,399.78Z" />
        <path class="color-shadow"
            d="M438.66,402.23c4.68,0,9.37.07,14.06,0,3.79-.06,7.58-.31,11.37-.47.1,2.12-.57,4.28.64,6.51-1.84-.1-3.42-.11-5-.32a2.8,2.8,0,0,1-1.53-1,35.77,35.77,0,0,1-2.06-2.93c-.1,1.46-.18,2.5-.27,3.82-1.61,0-3.25.09-4.89.05-3.35-.08-6.7-.22-10.05-.35-1.6-.07-1.59-.1-1.79-1.78C439,404.6,438.83,403.41,438.66,402.23Z" />
        <path class="color-shadow"
            d="M464.63,401.74c2.06-.18,4.12-.28,6.17-.56,1.61-.22,2.15-.93,2.42-2.73.12-.75-.2-1.65.75-2.1a4.4,4.4,0,0,1,.91.29,11.72,11.72,0,0,0,6.93,2,5.16,5.16,0,0,1-.29,1.24c-1,1.83-1.9,3.69-3,5.44-1.43,2.28-2.18,2.26-3.89.14a2.75,2.75,0,0,1-.32-.61c-.32.25-.51.33-.51.41-.17,2.36-.16,2.39-2.57,2.72-1.41.19-2.85.25-4.28.35-.85.05-1.26-.33-1.38-1.24C465.33,405.32,465,403.53,464.63,401.74Z" />
        <path class="color-shadow"
            d="M340.7,402.85c.24-.19.47-.51.73-.54,2.21-.21,4.42-.4,6.63-.55,2.69-.19,5.39-.33,8.08-.49l1.55,5.66c-2.93.23-5.9.53-8.87.66a3.48,3.48,0,0,1-1.81-.9,6.63,6.63,0,0,0-1.74-1.27l.92,2.33a14.57,14.57,0,0,1-1.56.5c-1.62.34-1.83.22-2.45-1.39C341.66,405.53,341.19,404.19,340.7,402.85Z" />
        <path class="color-shadow"
            d="M422.6,401.88a23.14,23.14,0,0,1,6.64.24,23.52,23.52,0,0,0,4.29.12c1.51,0,3,.13,4.52.2-.25,1.25-.54,2.49-.75,3.75a1.41,1.41,0,0,1-1.58,1.4c-3-.07-6.07-.13-9.1-.15a2.09,2.09,0,0,1-1.86-1.3C424,404.74,423.32,403.3,422.6,401.88Z" />
        <path class="color-shadow-dark"
            d="M304.85,405.57c1.17.15,2.34.27,3.5.47,3.49.61,7,1.27,10.45,1.88.62.11,1.28,0,1.89.1a6.87,6.87,0,0,1,1.44.6c-.45,1.76-.46,1.9-1.88,1.79-4-.29-7.93-.69-11.88-1.09C306.14,409.1,305.53,407.28,304.85,405.57Z" />
        <path class="color-shadow-dark" d="M297.72,405l0,.47-.31-.21Z" />
    </g>
</svg>
