<svg id="Crop_Bochonok" data-name="Crop Bochonok" xmlns="http://www.w3.org/2000/svg" viewBox="0 0 672 960">

    <g>
        <path class="outline"
            d="M472.81,387.7a11.46,11.46,0,0,1,5.24,1.43c.44.2.91.32,1.36.48.94.33,1.43,0,1.75-1,1.42-4.14,2.89-8.26,4.37-12.37.27-.75.24-2.16,1.34-1.8.93.31.23,1.55.07,2.34-1,4.67-2,9.33-3,14,1.59,1.35,3.56.51,5.49.93a13.53,13.53,0,0,1-.67,2.09c-1.43,2.84-2.94,5.63-4.39,8.46a4.18,4.18,0,0,1-3.92,2.29c-4.29,0-8.6-.05-12.87-.42-5.79-.49-11.55-1.3-17.32-1.95-7-.77-13.93-1.51-20.89-2.3a222.06,222.06,0,0,0-29.18-1,2.61,2.61,0,0,0-.63.22c.17.48.31,1,.52,1.43.75,1.58,1.55,3.14,2.28,4.74a9.83,9.83,0,0,1,.75,4.91c-.2,2.92-2.62,4.47-5.22,3.16a19.26,19.26,0,0,1-3.73-2.93,14.64,14.64,0,0,1-1.52-1.94,6.48,6.48,0,0,0,.07,3c1.73,8.45,3.87,16.79,7.54,24.65.48,1,1.05,2,1.53,3s.36,1.63-.67,2.13a8.33,8.33,0,0,1-2.22.8,1.7,1.7,0,0,1-1.39-.57,25.54,25.54,0,0,1-2.17-3.44c-2.76-5.21-4.14-10.87-5.14-16.63a105,105,0,0,1-1.6-17.88c0-.8-.07-1.6-.14-2.4,0-.13-.17-.25-.34-.48a6.33,6.33,0,0,0-.71,2.67c-1.16,8.3-2.39,16.58-4.28,24.74a11.53,11.53,0,0,0-.17,1.66c-.1,1.46-.57,2-1.89,1.74a40.48,40.48,0,0,1-4.84-1.26,2,2,0,0,1-1.25-2.52c.22-.84.62-1.64.92-2.47,1.83-5,3.67-10,5.46-15.07.22-.61.37-1.79.13-1.92-.92-.48-1.09.63-1.48,1.1a21.09,21.09,0,0,1-5.32,5.13c-2,1.17-3.95,1.82-6,.38-1.49-1-1.91-3.45-1.16-6,.83-2.75,2.59-4.91,4.29-7.14.43-.58,1.49-1,1-2s-1.46-.43-2.19-.41c-6.71.11-13.41.21-20.11.44-4.69.16-9.39.46-14.07.81-5.33.4-10.63,1.11-15.95,1.34s-10.87.13-16.3,0a25,25,0,0,1-4.44-.89c-2-.43-4-.95-6.07-1.27-3.23-.51-4.31-1.71-5.26-4.9-.59-2-1.91-3.81-2.86-5.73a30.25,30.25,0,0,1-1.74-3.91c-.34-1,.17-1.56,1.27-1.32,2.49.54,4.95,1.23,7.42,1.86,1.09.27,2.16.58,3.26.77a3.53,3.53,0,0,0,1.24-.31,5.4,5.4,0,0,0-.46-1.22,14.9,14.9,0,0,0-1.45-1.9c-3.76-4.17-5.29-9.39-6.9-14.57-.09-.29.14-.68.22-1,.36.23.88.38,1,.7,1.12,2.37,2.13,4.8,3.24,7.18a27.3,27.3,0,0,0,10.26,11.38,4.77,4.77,0,0,0,3.11.93c1.2-.08,2.4,0,3.6-.05.26,0,.73-.27.73-.42a1.49,1.49,0,0,0-.37-1c-.25-.29-.71-.39-1-.68a5.81,5.81,0,0,1-1-1.54,3.37,3.37,0,0,1,0-1.3,3.62,3.62,0,0,1,1.19.38q2.1,1.77,4.1,3.66a2.21,2.21,0,0,0,1.92.67c8.68-.82,17.36-1.53,26.08-1.69a4.29,4.29,0,0,0,.85-.24,11,11,0,0,0-.72-1.46c-1.94-2.73-3.9-5.44-5.84-8.16a6.55,6.55,0,0,1-.61-1c-.06-.11,0-.38,0-.43s.52-.27.63-.19a6.66,6.66,0,0,1,1.23,1.08c1.65,1.84,3.24,3.74,4.91,5.57,1.07,1.17,2.21,2.29,3.39,3.35a5.76,5.76,0,0,0,4.08,1.59c4.48,0,9,.23,13.43.35,1.36,0,2.72,0,4.17,0,.71-1.73,1.44-3.49,2.16-5.25a4.31,4.31,0,0,1,.46-1.09c.21-.23.63-.28,1-.42.1.28.31.58.28.84-.2,1.49-.48,3-.7,4.47-.07.47-.08.95-.11,1.44,5.08,0,10.12.06,15.15,0,4.07-.06,8.15-.26,12.22-.41,2-.08,2.05-.08,2.45-2.09.35-1.72.61-3.45.88-5.17.38-2.52.74-5.05,1.11-7.57a2.3,2.3,0,0,1,.2-.92,1.06,1.06,0,0,1,.72-.47c.19,0,.51.39.52.61,0,1,0,1.92-.05,2.88-.09,2.23-.18,4.46-.29,6.7-.09,1.81-.21,3.63-.33,5.6l24.49-.52c.21-1.51.4-2.88.61-4.34,1.94.9,2,.93,1.42,4.31l2.1.11c1.64-4.49,1.73-9.08,1.75-13.7,0-1-.74-2.59.39-2.77,1.37-.23.95,1.53,1.13,2.42a67.68,67.68,0,0,1,1.29,8.23,36.42,36.42,0,0,1-.51,5.84l20.37,1.3c1.86-4,2.38-8.3,3.36-12.46.18-.77.37-1.55.62-2.29.05-.15.43-.28.63-.24a.77.77,0,0,1,.51.44,2.33,2.33,0,0,1,0,1c-.4,3.24-.78,6.48-1.24,9.71-.18,1.31-.53,2.61-.83,4.08l3.08.38,4.35.35,4.27.14Zm-89.36,3,.12-.09c1.73.66,1.82.63,2.55-.84h-4.76c-8,0-16.08.12-24.13.1-4.77,0-9.55-.16-14.33-.24a5.43,5.43,0,0,0-3.32.66c.4,1.68.77,3.22,1.15,4.76a26,26,0,0,0,1.18,2.83c.48.86,1.43.68,2.16.47.31-.09.44-.79.65-1.21,2.39,1.22,2.39,1.22,5.6,1.18,1.27,0,2.55,0,3.83-.06.77,0,1.54-.18,2.41-.29a15.82,15.82,0,0,1-.72-2.25,3.21,3.21,0,0,1,.3-1.24l.51.54c.73.82,1.41,1.7,2.21,2.45a2.44,2.44,0,0,0,1.42.59c3.44.3,3.47.24,2.49-3,.17-.75-.27-1.71.77-2.38l.83,2.37c.1.3.19.6.28.89a2.66,2.66,0,0,0,3.18,2.1,43.28,43.28,0,0,1,5.22-.13,7,7,0,0,0,6.19-2.79c.93-.37,1.07-1.24,1.36-2.05a2.93,2.93,0,0,1,2.38-2.3c-.38,1.09-1.69,1.76-1.49,3.26.75-.68,1.39-1.28,2.06-1.83s.34-1,0-1.44Zm6.85,19.24.11,1.83c0,.08-.09.17-.07.22a3.26,3.26,0,0,0,.24.4,97.93,97.93,0,0,0,3.22,17.34,77.46,77.46,0,0,0,3.78,9.28c.66,1.47,1.12,1.43,2.56.3a103.71,103.71,0,0,1-9.05-29.39q-.19-6.72-.41-13.44a.55.55,0,0,1,.14-.19s.15,0,.15,0a10.88,10.88,0,0,1,.26,1.13c.68,3.88,1.76,7.62,4.23,10.76a12.61,12.61,0,0,0,3.15,2.81,1.55,1.55,0,0,0,2.55-1.32,7.57,7.57,0,0,0-.46-3.47c-.79-1.91-1.88-3.69-2.85-5.52-1-1.5-1.9-3-2.94-4.51-.86-1.21-1.84-2.32-2.77-3.48-1.94-2.5-3.68-2.82-6-1.25A19.78,19.78,0,0,0,384,393c-2.93,2.7-6,5.32-8.66,8.23a42.85,42.85,0,0,0-4.65,6.63,7.84,7.84,0,0,0-1,3.16c-.17,1.47.59,2.11,2,1.79a4.39,4.39,0,0,0,1.92-.88,33.41,33.41,0,0,0,4.46-4.27c2.67-3.36,5.11-6.89,7.65-10.35l.47.38c-.27,1.32-.55,2.64-.8,4a133.86,133.86,0,0,1-7.32,25.12c-.16.4-.25.83-.38,1.26.77.26,1.37.48,2,.66s1.15.3,1.82.47c1.9-11.47,3-22.91,6.09-34,2.08,0,2.08,0,2.27,1.28Zm-78.95-14.35c1.13,3,2.87,4.95,6.55,4.47,1.69-.22,3.08-.37,3.84-2.09a6.35,6.35,0,0,1,1-1.29c.07.37.15.54.11.68-.18.76-.4,1.52-.63,2.38,3-.16,6,.11,7.87-2.9a7.44,7.44,0,0,1,1.21-1.07c-.47,1.39-.78,2.33-1.15,3.41l9.26-.49c-.22-1.36-.41-2.51-.59-3.66v-5a29.22,29.22,0,0,0-7.19-.23,23.65,23.65,0,0,0-2.38-.07c-5.25.33-10.52.55-15.75,1.08a79.42,79.42,0,0,1-20.26-.51c-1.39-.22-2.79-.38-4.33-.58,1.07,2.21,2,4.23,3,6.15a2.11,2.11,0,0,0,2.67.87c-1.67-3.63-1.67-3.63-.74-5.25,2.15,3.52,4.16,7.14,9,7.67v-2.8c.82,1,1.31,1.73,1.91,2.33.44.44,1,1,1.53,1,1.8.13,3.61,0,5.46,0-.53-1.73-1.08-3.37-1.53-5-.08-.33.24-.77.38-1.16Zm111-2,.89,1c1.27,2.29,2.93,3.81,5.82,3.82,3.49,0,3.49.15,4.37-3.35l1.29-3.4c.78,1.53.44,2.71.42,3.86l-.88,3.08c3.69.75,3.69.75,4.8-2.33.08-.22.14-.45.21-.67l.62.52c.15.7.32,1.4.46,2.11a1.24,1.24,0,0,0,1.25,1.16c3.33.3,6.66.66,10,1,.61.06,1.24,0,2.18,0-.35-1.3-.64-2.36-.93-3.41-.37-3.86-.28-4.37.92-5.25q.59,2.63,1.19,5.26a26,26,0,0,0,.94,3.15c.16.36.84.58,1.31.67.13,0,.44-.65.58-1a11.25,11.25,0,0,0,.29-1.57c2,3.76,5.23,3.47,8.19,3.75-.1-1.58-.19-3-.28-4.51l.51,0c.39,1.19.87,2.36,1.15,3.58a1.46,1.46,0,0,0,1.64,1.28c.9,0,1.52-.16,1.72-1.16.25-1.23.57-2.45.87-3.67.21-.77.43-1.54.76-2.68.29,1.12.49,1.87.69,2.62-.15,1.56-.3,3.12-.44,4.67,2.83.42,2.83.42,3.47-1.57.34.28.62.54.94.76,1.22.84,1.44.8,2.19-.51.65-1.12,1.23-2.28,2-3.73l.54,2.33,2.36-3.47a13.29,13.29,0,0,1-7.63-1.45,8.84,8.84,0,0,0-1.14-.35,52.35,52.35,0,0,0-13.41-3.36c-6-.77-12.05-1.4-18.11-1.75-8.92-.52-17.87-1.07-26.8-1-8.53.06-17.06.91-25.59,1.43a7.18,7.18,0,0,0-1.41.51,6.14,6.14,0,0,0,3.5.83,2.79,2.79,0,0,1,2.89,2,16.71,16.71,0,0,0,1,1.87,5.78,5.78,0,0,0,5.62,2.83c2.54-.15,5.09,0,7.63-.06a17,17,0,0,0,1.92-.21c-.27-1.18-.49-2.18-.71-3.17.16-1.33-.53-2.82.94-4.25.39,1.6.71,2.95,1,4.3a19,19,0,0,0,.67,2.49,1.52,1.52,0,0,0,1,.79c2.42.19,4.85.27,7.56.41-.49-1.15-.93-2.06-1.23-3C422.06,394.42,422.29,394,422.37,393.57Zm-135.59-7.85c.11,1.45.7,2,1.68,2.16,1.8.35,3.59.74,5.39,1.08a79.88,79.88,0,0,0,21.23.7c5.89-.45,11.78-1.14,17.68-1.2,9.11-.1,18.22.26,27.33.43l.48,0c3.27.08,6.55.31,9.82.22,7.91-.22,15.81-.57,23.71-.9,3.19-.14,6.38-.34,9.57-.56,3.74-.25,7.48-.74,11.22-.77,5.59,0,11.19.29,16.78.35a166.17,166.17,0,0,1,18.66,1c5.46.69,11,1.18,16.36,2.21,4.37.84,8.59,2.42,12.91,3.52a28.17,28.17,0,0,0,5.19.59c.28,0,.64-.57.87-.93,0-.07-.3-.53-.54-.61-3.17-1.11-6.28-2.52-9.54-3.18-4.92-1-9.93-1.51-14.92-2.12-2.62-.32-5.27-.33-7.88-.63A191,191,0,0,0,432.93,386c-4.79-.05-9.58.16-14.38.29l-21.09.57c-1.76.05-3.52,0-5.28.09-7.34.25-14.69.55-22,.74-2.07.06-4.15-.26-6.22-.28-14.71-.1-29.42-.58-44.1.92-2.86.29-5.74.37-8.6.64a43.9,43.9,0,0,1-18-1.58C291.2,386.71,289.09,386.31,286.78,385.72Zm105.86,5.76,2.53,3.69C395.39,392.42,395.12,392,392.64,391.48Zm5,6.25.4-.29-1.27-1.78-.42.31ZM297.4,386.79l.16-.17a2.3,2.3,0,0,0-.32-.15s-.1.1-.16.15Zm75.69,12.62-.17.18a2.3,2.3,0,0,0,.32.15s.11-.1.16-.15Z" />
        <path class="color-shadow-dark" d="M466,387.24l-4.35-.35Z" />
        <path class="color-shadow" d="M472.81,387.7l-2.5-.32Z" />
        <path class="color-base"
            d="M414.14,394.09c-.33-1.35-.65-2.7-1-4.3-1.47,1.43-.78,2.92-.94,4.25a129.31,129.31,0,0,0-14.46.61,16.71,16.71,0,0,1-1-1.87,2.79,2.79,0,0,0-2.89-2,6.14,6.14,0,0,1-3.5-.83,7.18,7.18,0,0,1,1.41-.51c8.53-.52,17.06-1.37,25.59-1.43,8.93-.07,17.88.48,26.8,1,6.06.35,12.1,1,18.11,1.75a52.35,52.35,0,0,1,13.41,3.36c-.16.67-.37,1.34-.47,2-.17,1.11-.86,1.39-1.83,1.3l-.69-2.62c-.33,1.14-.55,1.91-.76,2.68l-5.38,0-.51,0L455,397q-.6-2.64-1.19-5.26c-1.2.88-1.29,1.39-.92,5.25a51.15,51.15,0,0,1-6.34-.59,26.19,26.19,0,0,0-6.61-.26l-.62-.52-4.13-.08c0-1.15.36-2.33-.42-3.86l-1.29,3.4-10.19-.47-.89-1-.84-.59c-.33,1.45-1.49,1.08-2.44,1.09C417.44,394.1,415.79,394.08,414.14,394.09Z" />
        <path class="color-shadow-dark"
            d="M286.78,385.72c2.31.59,4.42,1,6.44,1.65a43.9,43.9,0,0,0,18,1.58c2.86-.27,5.74-.35,8.6-.64,14.68-1.5,29.39-1,44.1-.92,2.07,0,4.15.34,6.22.28,7.34-.19,14.69-.49,22-.74,1.76-.06,3.52,0,5.28-.09l21.09-.57c4.8-.13,9.59-.34,14.38-.29a191,191,0,0,1,19.85,1.16c2.61.3,5.26.31,7.88.63,5,.61,10,1.12,14.92,2.12,3.26.66,6.37,2.07,9.54,3.18.24.08.59.54.54.61-.23.36-.59.95-.87.93a28.17,28.17,0,0,1-5.19-.59c-4.32-1.1-8.54-2.68-12.91-3.52-5.4-1-10.9-1.52-16.36-2.21a166.17,166.17,0,0,0-18.66-1c-5.59-.06-11.19-.39-16.78-.35-3.74,0-7.48.52-11.22.77-3.19.22-6.38.42-9.57.56-7.9.33-15.8.68-23.71.9-3.27.09-6.55-.14-9.82-.22l-.48,0c-9.11-.17-18.22-.53-27.33-.43-5.9.06-11.79.75-17.68,1.2a79.88,79.88,0,0,1-21.23-.7c-1.8-.34-3.59-.73-5.39-1.08C287.48,387.69,286.89,387.17,286.78,385.72Z" />
        <path class="color-base"
            d="M383,390.72a2.93,2.93,0,0,0-2.38,2.3c-.29.81-.43,1.68-1.36,2.05L364.37,395l-.83-2.37c-1,.67-.6,1.63-.77,2.38h-6.12l-.51-.54-.75-.59c-.44,1.48-1.67,1.15-2.73,1.15H340.73c-.38-1.54-.75-3.08-1.15-4.76a5.43,5.43,0,0,1,3.32-.66c4.78.08,9.56.24,14.33.24,8,0,16.09-.06,24.13-.1h4.76c-.73,1.47-.82,1.5-2.55.84v.1h-.13l.08,0Z" />
        <path class="light"
            d="M389.83,396.43c-.19-1.25-.19-1.25-2.27-1.28-3.06,11.06-4.19,22.5-6.09,34-.67-.17-1.25-.3-1.82-.47s-1.2-.4-2-.66c.13-.43.22-.86.38-1.26a133.86,133.86,0,0,0,7.32-25.12c.25-1.32.53-2.64.79-4v-1.12l-.46.74c-2.54,3.46-5,7-7.65,10.35a33.41,33.41,0,0,1-4.46,4.27,4.39,4.39,0,0,1-1.92.88c-1.41.32-2.17-.32-2-1.79a7.84,7.84,0,0,1,1-3.16,42.85,42.85,0,0,1,4.65-6.63c2.7-2.91,5.73-5.53,8.66-8.23a19.78,19.78,0,0,1,2.17-1.49c2.32-1.57,4.06-1.25,6,1.25-.29.32-.59.64-.89.95l.53,3c.57,1.72,1.08,3.46,1.7,5.16a13.67,13.67,0,0,0,3.37,5.4c.46.42.88,1.07,1.6.59A1.42,1.42,0,0,0,399,406c-.54-1.39-1-2.81-1.55-4.21l.44-1c1,1.83,2.06,3.61,2.85,5.52a7.57,7.57,0,0,1,.46,3.47,1.55,1.55,0,0,1-2.55,1.32,12.61,12.61,0,0,1-3.15-2.81c-2.47-3.14-3.55-6.88-4.23-10.76a10.88,10.88,0,0,0-.26-1.13s-.12-.07-.15,0a.55.55,0,0,0-.14.19ZM387,392.89l-.4-.44c-1.23,1-2.5,1.88-3.7,2.89a50.86,50.86,0,0,0-9.41,9.81,23.75,23.75,0,0,0-1.73,2.87c-.31.6-.71,1.45.12,1.89a2.15,2.15,0,0,0,1.71-.21,12.84,12.84,0,0,0,2.43-1.92c1.64-1.63,3.28-3.27,4.78-5A45.71,45.71,0,0,0,387,392.89Z" />
        <path class="color-shadow"
            d="M310.6,393.56c-.14.39-.46.83-.38,1.16.45,1.68,1,3.32,1.53,5-1.85,0-3.66.08-5.46,0-.54,0-1.09-.59-1.53-1-.6-.6-1.09-1.31-1.91-2.33v2.8c-4.8-.53-6.81-4.15-9-7.67-.93,1.62-.93,1.62.74,5.25a2.11,2.11,0,0,1-2.67-.87c-1.07-1.92-2-3.94-3-6.15,1.54.2,2.94.36,4.33.58a79.42,79.42,0,0,0,20.26.51c5.23-.53,10.5-.75,15.75-1.08a23.65,23.65,0,0,1,2.38.07c-.31.29-.59.78-.94.84-1.48.26-3,.36-4.46.55-3.76.49-7.52,1-11.26,1.51C313.51,392.91,312.06,393.27,310.6,393.56Z" />
        <path class="color-base"
            d="M310.6,393.56c1.46-.29,2.91-.65,4.39-.86,3.74-.54,7.5-1,11.26-1.51,1.48-.19,3-.29,4.46-.55.35-.06.63-.55.94-.84a29.22,29.22,0,0,1,7.19.23v5c-2.38.16-4.75.43-7.13.46-6.79.08-13.58.07-20.36.1Z" />
        <path class="color-shadow"
            d="M311.35,395.58c6.78,0,13.57,0,20.36-.1,2.38,0,4.75-.3,7.13-.46.18,1.15.37,2.3.59,3.66l-9.26.49c.37-1.08.68-2,1.15-3.41a7.44,7.44,0,0,0-1.21,1.07c-1.86,3-4.89,2.74-7.87,2.9.23-.86.45-1.62.63-2.38,0-.14,0-.31-.11-.68a6.35,6.35,0,0,0-1,1.29c-.76,1.72-2.15,1.87-3.84,2.09C314.22,400.53,312.48,398.61,311.35,395.58Z" />
        <path class="light"
            d="M390.41,411.76c0-.61-.08-1.22-.11-1.83l.79,0a103.71,103.71,0,0,0,9.05,29.39c-1.44,1.13-1.9,1.17-2.56-.3a77.46,77.46,0,0,1-3.78-9.28,97.93,97.93,0,0,1-3.22-17.34Z" />
        <path class="color-shadow"
            d="M473.34,397.4c1,.09,1.66-.19,1.83-1.3.1-.68.31-1.35.47-2a8.84,8.84,0,0,1,1.14.35,13.29,13.29,0,0,0,7.63,1.45l-2.36,3.47-.54-2.33c-.78,1.45-1.36,2.61-2,3.73-.75,1.31-1,1.35-2.19.51-.32-.22-.6-.48-.94-.76-.64,2-.64,2-3.47,1.57Z" />
        <path class="color-shadow"
            d="M340.73,395h11.93c1.06,0,2.29.33,2.73-1.15l.75.59a3.21,3.21,0,0,0-.3,1.24,15.82,15.82,0,0,0,.72,2.25c-.87.11-1.64.26-2.41.29-1.28.06-2.56.05-3.83.06-3.21,0-3.21,0-5.6-1.18-.21.42-.34,1.12-.65,1.21-.73.21-1.68.39-2.16-.47A26,26,0,0,1,340.73,395Z" />
        <path class="color-shadow"
            d="M439.91,396.1a26.19,26.19,0,0,1,6.61.26,51.15,51.15,0,0,0,6.34.59c.29,1.05.58,2.11.93,3.41-.94,0-1.57.05-2.18,0-3.33-.32-6.66-.68-10-1a1.24,1.24,0,0,1-1.25-1.16C440.23,397.5,440.06,396.8,439.91,396.1Z" />
        <path class="color-shadow"
            d="M397.7,394.65a129.31,129.31,0,0,1,14.46-.61c.22,1,.44,2,.71,3.17a17,17,0,0,1-1.92.21c-2.54,0-5.09-.09-7.63.06A5.78,5.78,0,0,1,397.7,394.65Z" />
        <path class="color-shadow"
            d="M455,397l11,.45c.09,1.47.18,2.93.28,4.51-3-.28-6.16,0-8.19-3.75a11.25,11.25,0,0,1-.29,1.57c-.14.39-.45,1.06-.58,1-.47-.09-1.15-.31-1.31-.67A26,26,0,0,1,455,397Z" />
        <path class="color-shadow"
            d="M364.37,395l14.87.07a7,7,0,0,1-6.19,2.79,43.28,43.28,0,0,0-5.22.13,2.66,2.66,0,0,1-3.18-2.1C364.56,395.6,364.47,395.3,364.37,395Z" />
        <path class="color-shadow"
            d="M414.14,394.09c1.65,0,3.3,0,4.95,0,1,0,2.11.36,2.44-1.09l.84.59c-.08.4-.31.85-.2,1.2.3,1,.74,1.86,1.23,3-2.71-.14-5.14-.22-7.56-.41a1.52,1.52,0,0,1-1-.79A19,19,0,0,1,414.14,394.09Z" />
        <path class="color-shadow"
            d="M423.26,394.57l10.19.47c-.88,3.5-.88,3.36-4.37,3.35C426.19,398.38,424.53,396.86,423.26,394.57Z" />
        <path class="color-shadow"
            d="M466.51,397.43l5.38,0c-.3,1.22-.62,2.44-.87,3.67-.2,1-.82,1.18-1.72,1.16a1.46,1.46,0,0,1-1.64-1.28C467.38,399.79,466.9,398.62,466.51,397.43Z" />
        <path class="color-shadow"
            d="M356.65,395h6.12c1,3.28,1,3.34-2.49,3a2.44,2.44,0,0,1-1.42-.59C358.06,396.71,357.38,395.83,356.65,395Z" />
        <path class="color-shadow" d="M435.16,395.5l4.13.08c-.07.22-.13.45-.21.67-1.11,3.08-1.11,3.08-4.8,2.33Z" />
        <path class="color-base" d="M391.09,409.91l-.79,0-.47-13.5.85,0Q390.89,403.19,391.09,409.91Z" />
        <path class="color-base"
            d="M397.85,400.71l-.44,1-3.71-5.88a3.33,3.33,0,0,0-2.45-2.19c.3-.31.6-.63.89-.95.93,1.16,1.91,2.27,2.77,3.48C396,397.66,396.88,399.21,397.85,400.71Z" />
        <path class="light" d="M392.64,391.48c2.48.52,2.75.94,2.53,3.69Z" />
        <path class="light"
            d="M383,390.72h.55c.36.47.63.93,0,1.44s-1.31,1.15-2.06,1.83C381.29,392.48,382.6,391.81,383,390.72Z" />
        <path class="color-shadow-dark" d="M397.66,397.73,396.37,396l.42-.31,1.27,1.78Z" />
        <polygon class="light" points="383.45 390.69 383.58 390.7 383.57 390.6 383.45 390.69" />
        <path class="color-base"
            d="M390.41,411.76l.17.62a3.26,3.26,0,0,1-.24-.4C390.32,411.93,390.38,411.84,390.41,411.76Z" />
        <path class="outline"
            d="M387,392.89a45.71,45.71,0,0,1-6.2,9.86c-1.5,1.76-3.14,3.4-4.78,5a12.84,12.84,0,0,1-2.43,1.92,2.15,2.15,0,0,1-1.71.21c-.83-.44-.43-1.29-.12-1.89a23.75,23.75,0,0,1,1.73-2.87,50.86,50.86,0,0,1,9.41-9.81c1.2-1,2.47-1.93,3.7-2.89Zm-8.26,9.3a4.26,4.26,0,0,0-2.29,2.59A5.18,5.18,0,0,0,378.73,402.19Zm1.81-1.87c-.83.4-1.78.76-1.79,2.29Z" />
        <path class="outline"
            d="M393.7,395.86l3.71,5.88c.51,1.4,1,2.82,1.55,4.21a1.42,1.42,0,0,1-.51,1.87c-.72.48-1.14-.17-1.6-.59a13.67,13.67,0,0,1-3.37-5.4c-.62-1.7-1.13-3.44-1.7-5.16l.47-.29a3.65,3.65,0,0,0,.47.73,3,3,0,0,0,.68.39,7.81,7.81,0,0,0,0-.83,1.47,1.47,0,0,0-.18-.41Zm1.46,6,.3-.13-.93-2-.32.15Z" />
        <path class="outline" d="M391.25,393.67a3.33,3.33,0,0,1,2.45,2.19l-.44.4-1-.8,0,.92-.47.29Z" />
        <path class="outline" d="M385.71,397.27l.46-.74v1.12Z" />
        <path class="color-shadow-dark" d="M378.73,402.19a5.18,5.18,0,0,1-2.29,2.59A4.26,4.26,0,0,1,378.73,402.19Z" />
        <path class="color-shadow" d="M380.54,400.32l-1.79,2.29C378.76,401.08,379.71,400.72,380.54,400.32Z" />
        <path class="color-shadow-dark"
            d="M392.25,396.38l0-.92,1,.8a1.47,1.47,0,0,1,.18.41,7.81,7.81,0,0,1,0,.83,3,3,0,0,1-.68-.39A3.65,3.65,0,0,1,392.25,396.38Z" />
        <path class="color-shadow-dark" d="M395.16,401.85l-1-2,.32-.15.93,2Z" />
    </g>
</svg>
