<svg id="Crop_Bochonok" data-name="Crop Bochonok" xmlns="http://www.w3.org/2000/svg" viewBox="0 0 672 960">

    <g>
        <path class="color-base"
            d="M292.29,379.16c6.2.55,12.38,1.2,18.26,3.44a6.62,6.62,0,0,0,1.85.42c5.65.39,11.31.63,16.94,1.15,10.61,1,21.23.2,31.84.25,2.77,0,5.53-.69,8.3-1,5-.5,10-1,15-1.36,6.67-.51,13.36-.9,20-1.37,9.63-.68,19.27-1.17,28.93-1.05,5.83.07,11.66,0,17.49,0a181.32,181.32,0,0,1,23.86,1.58,4.41,4.41,0,0,1,.88.31c-1.29.2-1.28,1.37-1.41,2.21-.43,2.9-.67,5.83-1,8.73-.27,2.12-.65,4.23-.94,6.35a1.5,1.5,0,0,1-1.57,1.45c-3.07.29-6.15.64-9.22.95-.63.07-1.27.08-1.9.15a55.26,55.26,0,0,1-7.09.77c-8.61-.14-17.22.45-25.84-.37-5.14-.49-10.34-.38-15.51-.56-.79,0-1.58-.24-2.36-.26-3-.06-6.06-.2-9.08-.07s-5.84.74-8.76.77c-3.73.05-7.47-.34-11.21-.4q-7.42-.12-14.86,0c-5.81.09-11.63.31-17.44.47l-.72.05c-3.55.3-7.11.67-10.67.89-4.29.26-8.61-.42-12.89.47a6.47,6.47,0,0,1-1.91,0c-2.51-.28-5-.54-7.54-.91a51.29,51.29,0,0,1-6.54-1.23,15.34,15.34,0,0,0-4.93-.68c-.64,0-1.28,0-1.92,0a1.88,1.88,0,0,1-2-1.37c-.73-1.85-1.6-3.66-2.17-5.56-1.36-4.48-2.58-9-3.85-13.51A2.79,2.79,0,0,1,292.29,379.16Z" />
        <path class="color-shadow"
            d="M292.29,379.16a2.79,2.79,0,0,0,0,.71c1.27,4.51,2.49,9,3.85,13.51.57,1.9,1.44,3.71,2.17,5.56a1.88,1.88,0,0,0,2,1.37c.64,0,1.28,0,1.92,0a15.34,15.34,0,0,1,4.93.68,51.29,51.29,0,0,0,6.54,1.23c2.5.37,5,.63,7.54.91a6.47,6.47,0,0,0,1.91,0c4.28-.89,8.6-.21,12.89-.47,3.56-.22,7.12-.59,10.67-.89l.72-.05c5.81-.16,11.63-.38,17.44-.47q7.42-.12,14.86,0c3.74.06,7.48.45,11.21.4,2.92,0,5.83-.64,8.76-.77s6,0,9.08.07c.78,0,1.57.24,2.36.26,5.17.18,10.37.07,15.51.56,8.62.82,17.23.23,25.84.37a55.26,55.26,0,0,0,7.09-.77c.63-.07,1.27-.08,1.9-.15,3.07-.31,6.15-.66,9.22-.95a1.5,1.5,0,0,0,1.57-1.45c.29-2.12.67-4.23.94-6.35.37-2.9.61-5.83,1-8.73.13-.84.12-2,1.41-2.21l5.74,1.6a51.68,51.68,0,0,1-.58,5.44c-.91,4.34-1.93,8.67-3,13-.58,2.31-1,2.72-3.57,2.53-6.5-.48-12.83.82-19.21,1.58a71.17,71.17,0,0,1-9.23.86c-4.63-.06-9.26.05-13.89,0-2.62,0-5.24-.28-7.85-.51-2.92-.25-5.82-.81-8.74-.87-6.71-.13-13.42,0-20.13,0a5.92,5.92,0,0,0-1.7.55l-19.15-.08c-.19-.14-.37-.4-.56-.41-4.22-.2-8.46-.76-12.64-.44-3.43.26-6.84.18-10.26.36-1.5.08-3,.23-4.5.41-2.44.31-4.86.83-7.31,1-3.25.19-6.42,1-9.69,1.17a48.29,48.29,0,0,1-11.4-.15c-3.13-.54-6.3-.85-9.38-1.57-3.33-.77-6.53-2.1-9.86-2.84s-4.83-2.78-5.63-5.76c-.14-.53-.4-1-.51-1.59a77.25,77.25,0,0,0-2.76-10.09c-.76-2.24-1.28-4.57-1.91-6.86Z" />
        <path class="outline"
            d="M374.38,405.61l19.15.08a8.1,8.1,0,0,0,1.37.27c5.1.24,10.2.43,15.3.66,6.13.28,12.26.63,18.4.84,4.23.15,8.48-.16,12.69.22,5.37.49,10.68-.19,16-.25,4-.05,8-.2,11.94-.27,2.86-.06,5.72,0,8.58-.11a4.39,4.39,0,0,0,1.84-.49,3.64,3.64,0,0,0,1.57-1.34c1.44-3.11,2.77-6.26,4.1-9.42.83-2,1.57-4,2.36-6,.77-.4,1.25-.15,1.31.7a8.91,8.91,0,0,1-.6,4c-1.05,2.67-1.92,5.4-2.91,8.08-.55,1.49-1.14,3-1.83,4.41a4.4,4.4,0,0,1-4.46,2.58c-4.79-.16-9.58-.33-14.37-.38-3.12,0-6.23.2-9.35.17-8.3-.06-16.6-.14-24.91-.33-5.19-.11-10.37-.39-15.56-.65-7.33-.36-14.66-.85-22-1.12a232.88,232.88,0,0,0-25.61.59c-10.28.75-20.51,1.93-30.72,3.33a120.44,120.44,0,0,1-15,1.45c-7.58.09-15.19-.17-22.38-3.15a50,50,0,0,0-5.07-1.44,11,11,0,0,1-2.68-1,4,4,0,0,1-1.72-1.82c-2.45-7.08-5.23-14.06-6.88-21.4a48.94,48.94,0,0,1-.77-4.95c-.05-.4.18-.84.71-1.35.36.73.71,1.47,1.07,2.2.65,1.87,1.26,3.76,2,5.61,2.23,5.73,4.54,11.44,6.73,17.18a3.84,3.84,0,0,0,2.78,2.62c1.76.5,3.44,1.29,5.16,1.92a29.74,29.74,0,0,0,5,1.67,103.13,103.13,0,0,0,12.1,1.53,106.47,106.47,0,0,0,12-.4c3.74-.25,7.46-.7,11.2-1.07,7.46-.76,14.91-1.57,22.38-2.26,3.41-.32,6.85-.4,10.28-.61A3.14,3.14,0,0,0,374.38,405.61Z" />
        <path class="color-shadow-dark"
            d="M374.38,405.61a3.14,3.14,0,0,1-.87.34c-3.43.21-6.87.29-10.28.61-7.47.69-14.92,1.5-22.38,2.26-3.74.37-7.46.82-11.2,1.07a106.47,106.47,0,0,1-12,.4,103.13,103.13,0,0,1-12.1-1.53,29.74,29.74,0,0,1-5-1.67c-1.72-.63-3.4-1.42-5.16-1.92a3.84,3.84,0,0,1-2.78-2.62c-2.19-5.74-4.5-11.45-6.73-17.18-.71-1.85-1.32-3.74-2-5.61a4.89,4.89,0,0,1,4-.95c.63,2.29,1.15,4.62,1.91,6.86a77.25,77.25,0,0,1,2.76,10.09c.11.55.37,1.06.51,1.59.8,3,2.36,5,5.63,5.76s6.53,2.07,9.86,2.84c3.08.72,6.25,1,9.38,1.57a48.29,48.29,0,0,0,11.4.15c3.27-.19,6.44-1,9.69-1.17,2.45-.14,4.87-.66,7.31-1,1.49-.18,3-.33,4.5-.41,3.42-.18,6.83-.1,10.26-.36,4.18-.32,8.42.24,12.64.44C374,405.21,374.19,405.47,374.38,405.61Z" />
        <path class="color-shadow-dark"
            d="M487.7,389.83c-.79,2-1.53,4-2.36,6-1.33,3.16-2.66,6.31-4.1,9.42a3.64,3.64,0,0,1-1.57,1.34,4.39,4.39,0,0,1-1.84.49c-2.86.07-5.72.05-8.58.11-4,.07-8,.22-11.94.27-5.34.06-10.65.74-16,.25-4.21-.38-8.46-.07-12.69-.22-6.14-.21-12.27-.56-18.4-.84-5.1-.23-10.2-.42-15.3-.66a8.1,8.1,0,0,1-1.37-.27,5.92,5.92,0,0,1,1.7-.55c6.71,0,13.42-.12,20.13,0,2.92.06,5.82.62,8.74.87,2.61.23,5.23.46,7.85.51,4.63.08,9.26,0,13.89,0a71.17,71.17,0,0,0,9.23-.86c6.38-.76,12.71-2.06,19.21-1.58,2.53.19,3-.22,3.57-2.53,1.06-4.31,2.08-8.64,3-13a51.68,51.68,0,0,0,.58-5.44c.6.22,1.19.46,1.79.63,2.37.68,3.92,2,3.86,4.7C487.05,388.94,487.48,389.39,487.7,389.83Z" />
    </g>
</svg>
