<svg id="Crop_Bochonok" data-name="Crop Bochonok" xmlns="http://www.w3.org/2000/svg" viewBox="0 0 672 960">

    <g>
        <path class="color-base"
            d="M292.66,379.23a67.64,67.64,0,0,1,16.92,3,18.54,18.54,0,0,0,4.17.88c5,.42,10,.63,15,1.09,8.94.83,17.88.23,26.82.37,4.75.07,9.38-.74,14.06-1.17s9.36-.91,14-1.27c6.12-.47,12.24-.87,18.37-1.26,4.3-.27,8.6-.51,12.91-.66,6.14-.21,12.29-.39,18.44-.47,6.47-.08,12.94-.05,19.41,0A173.37,173.37,0,0,1,475,381.28a2.5,2.5,0,0,1,.65.29c-1.29.2-1.23,1.35-1.41,2.2a45.41,45.41,0,0,0-.65,4.68c-.28,2.58-.52,5.16-.78,7.74-7.74-.26-15.48-.49-23.22-.78-4.15-.16-8.31-.28-12.44-.66-8.67-.78-17.34-1.63-26.06-1.59-13.1,0-26.2.15-39.3.19-9.5,0-19-.12-28.51,0-6.78.07-13.57.44-20.35.65-2.95.09-5.9.12-8.84.18-2.16-.06-4.33-.45-6.46.25H296.14c-.83-3.51-1.64-7-2.52-10.53-.29-1.14-.81-2.23-1.13-3.37A3.46,3.46,0,0,1,292.66,379.23Z" />
        <path class="outline"
            d="M296.14,394.41h11.52l6.46-.25c2.94-.06,5.89-.09,8.84-.18,6.78-.21,13.57-.58,20.35-.65,9.5-.11,19,0,28.51,0,13.1,0,26.2-.14,39.3-.19,8.72,0,17.39.81,26.06,1.59,4.13.38,8.29.5,12.44.66,7.74.29,15.48.52,23.22.78l6.63.25c1.19.16,2.37.35,3.55.48,1.74.19,1.87.14,2.46-1.47s1.17-3.45,1.74-5.18c1.43-.87,1.69-.78,1.8.57a8.55,8.55,0,0,1-.75,3.94c-1,2.44-1.75,5-2.66,7.42-.57,1.56-1.16,3.13-1.87,4.65a4.48,4.48,0,0,1-4.62,2.72c-4.79-.18-9.58-.32-14.37-.38-2.88,0-5.75.17-8.63.15-8.47-.06-16.93-.13-25.4-.3-4.71-.1-9.42-.38-14.13-.61q-9-.42-17.94-.92a233.29,233.29,0,0,0-37.1.86c-9.7,1-19.37,2.19-29.05,3.32-7.08.81-14.16,1.37-21.27.56a42.75,42.75,0,0,1-10.75-2.32c-2-.77-4.12-1.24-6.18-1.87a12.29,12.29,0,0,1-2.69-1,4,4,0,0,1-1.76-1.78c-2.52-7.23-5.32-14.38-7-21.86a42.4,42.4,0,0,1-.65-4.5,1.77,1.77,0,0,1,.67-1.41c.36.73.73,1.45,1.09,2.17.68,1.93,1.35,3.87,2.06,5.79,1,2.6,2,5.17,3,7.77a1.71,1.71,0,0,0,1.94,1.31C292.65,394.48,294.4,394.47,296.14,394.41Zm176.1,3.11c-4-.18-8-.42-12-.52-9.91-.24-19.82-.48-29.68-1.62s-20-.93-29.94-1.22c-3.43-.1-6.87.23-10.31.25q-27.58.12-55.17.19c-1.28,0-2.56.1-3.84.17-4.55.26-9.09.61-13.64.75-6.56.2-13.11.23-19.67.35-2,0-4.08.14-6.12.21a73.31,73.31,0,0,0,9.35.55q22.06,0,44.14-.15c3.44,0,6.87-.19,10.31-.2,5.6,0,11.19,0,16.79,0,8.16,0,16.32.26,24.47,0a255.68,255.68,0,0,1,26.12.32c5.82.41,11.63,1.06,17.46,1.18,10.07.22,20.15.12,30.22.15.14.07.28.2.43.21,4,.24,8.09.48,12.13.68a4,4,0,0,0,1.17-.35A50.26,50.26,0,0,0,472.24,397.52Zm-97.86,8.1h18.68a22.75,22.75,0,0,0,2.32.34c5.1.24,10.2.45,15.3.68,6.13.28,12.26.61,18.4.82,3.91.13,7.83.11,11.74.12,4.06,0,8.12.06,12.18,0,2.55-.05,5.09-.44,7.63-.45,5.26,0,10.51.17,15.76.13,1.64,0,3.56,0,4.57-1.61a46,46,0,0,0,2.56-5.38l-5.32-.19-.88.06-1.66-.26-3.82-.1-10.3-.34c-10-.34-20-.61-30-1-5.67-.23-11.32-.87-17-1-6.71-.13-13.43.16-20.14.18s-13.27-.15-19.91-.12q-24.69.13-49.4.39c-8.87.1-17.74.35-26.62.53l-4.82-.07h-2.79c.8,1.88,1.55,3.46,2.13,5.1a2.34,2.34,0,0,0,1.68,1.48c2.25.81,4.46,1.71,6.7,2.53a22.58,22.58,0,0,0,4.09,1.3,110.31,110.31,0,0,0,11.83,1.53,97.65,97.65,0,0,0,11.46-.36c4-.25,7.95-.56,11.89-1.1,7.81-1.07,15.65-1.82,23.52-2.33,3.1-.2,6.2-.35,9.3-.54A3.31,3.31,0,0,0,374.38,405.62Z" />
        <path class="color-shadow"
            d="M296.14,394.41c-1.74.06-3.49.07-5.23.18a1.71,1.71,0,0,1-1.94-1.31c-1-2.6-2-5.17-3-7.77-.71-1.92-1.38-3.86-2.06-5.79,1.56-1.3,3.42-1.07,5.22-1,1.17.06,2.33.32,3.5.49a3.46,3.46,0,0,0-.17,1.28c.32,1.14.84,2.23,1.13,3.37C294.5,387.38,295.31,390.9,296.14,394.41Z" />
        <path class="color-shadow"
            d="M479.47,396.44l-6.63-.25c.26-2.58.5-5.16.78-7.74a45.41,45.41,0,0,1,.65-4.68c.18-.85.12-2,1.41-2.2a.62.62,0,0,1,.44.07l1.47.41a.77.77,0,0,1,.45.07l1.46.42,1.92.64c-.24,2-.44,4.05-.74,6.07C480.32,391.65,479.88,394,479.47,396.44Z" />
        <path class="color-shadow-dark"
            d="M479.47,396.44c.41-2.4.85-4.79,1.21-7.19.3-2,.5-4.05.74-6.07,5.16,1.73,5.16,1.73,5.8,7.09-.57,1.73-1.11,3.47-1.74,5.18s-.72,1.66-2.46,1.47C481.84,396.79,480.66,396.6,479.47,396.44Z" />
        <path class="color-base" d="M477.59,382.05l-1.47-.41Z" />
        <path class="color-base" d="M479.5,382.54l-1.46-.42Z" />
        <path class="color-shadow" d="M314.12,394.17l-6.46.25C309.79,393.72,312,394.11,314.12,394.17Z" />
        <path class="color-shadow"
            d="M477.32,400.13l.88-.06-.12.46c-.78,3.47-1,3.82-4.4,3.58-6.27-.45-12.36.85-18.5,1.59a77.4,77.4,0,0,1-10.2.86c-4.39-.06-8.79.05-13.19,0-2.62-.06-5.23-.3-7.85-.53-2.84-.25-5.67-.79-8.51-.85-6.95-.12-13.91,0-20.86,0a5.22,5.22,0,0,0-1.51.49H374.38a10.15,10.15,0,0,0-2-.49c-2.77-.14-5.55.15-8.33-.43a13.94,13.94,0,0,0-3.78.23c-.63.05-1.26.17-1.89.17a107.76,107.76,0,0,0-15.94.87c-4.13.63-8.27,1.34-12.47,1.67a47.56,47.56,0,0,1-12.1-.14c-3.5-.62-7-1.11-10.5-1.93-3.17-.75-6.21-2-9.37-2.76a5.22,5.22,0,0,1-4.31-4.47l4.82.07c.39,1.82.39,1.95,2.07,1.86a25.53,25.53,0,0,1,8,1,44.23,44.23,0,0,0,5.14.92c2.43.35,4.87.76,7.31.89,1.89.1,3.8-.25,5.7-.3,1.59,0,3.18,0,4.77.09.79,0,1.58.24,2.36.2,1.5-.07,3-.28,4.5-.4,2.46-.19,4.91-.34,7.37-.53,4-.3,8.07-.8,12.12-.87,8.15-.14,16.31-.05,24.46,0a6.3,6.3,0,0,1,1.9.17c3,1,6.13.36,9.19.21,3.4-.18,6.79-.7,10.19-.83,2.13-.08,4.28.32,6.42.42,2.94.14,5.87.1,8.82.4,4.75.48,9.55.49,14.33.55,6.39.09,12.79,0,19.19,0,.72,0,1.44,0,2.15-.08,2.92-.28,5.84-.59,8.76-.87,2.05-.2,4.12-.32,6.16-.61a11.26,11.26,0,0,0,2.4-.89l3.82.1Z" />
        <path class="color-base"
            d="M471.84,399.77a11.26,11.26,0,0,1-2.4.89c-2,.29-4.11.41-6.16.61-2.92.28-5.84.59-8.76.87-.71.07-1.43.08-2.15.08-6.4,0-12.8.07-19.19,0-4.78-.06-9.58-.07-14.33-.55-3-.3-5.88-.26-8.82-.4-2.14-.1-4.29-.5-6.42-.42-3.4.13-6.79.65-10.19.83-3.06.15-6.14.81-9.19-.21a6.3,6.3,0,0,0-1.9-.17c-8.15,0-16.31-.11-24.46,0-4.05.07-8.08.57-12.12.87-2.46.19-4.91.34-7.37.53-1.5.12-3,.33-4.5.4-.78,0-1.57-.17-2.36-.2-1.59-.06-3.18-.13-4.77-.09-1.9.05-3.81.4-5.7.3-2.44-.13-4.88-.54-7.31-.89a44.23,44.23,0,0,1-5.14-.92,25.53,25.53,0,0,0-8-1c-1.68.09-1.68,0-2.07-1.86,8.88-.18,17.75-.43,26.62-.53q24.71-.27,49.4-.39c6.64,0,13.27.13,19.91.12s13.43-.31,20.14-.18c5.67.11,11.32.75,17,1,10,.41,20,.68,30,1Z" />
        <path class="color-shadow"
            d="M470.76,398c-10.07,0-20.15.07-30.22-.15-5.83-.12-11.64-.77-17.46-1.18A255.68,255.68,0,0,0,397,396.3c-8.15.27-16.31,0-24.47,0-5.6,0-11.19-.06-16.79,0-3.44,0-6.87.18-10.31.2q-22.06.11-44.14.15a73.31,73.31,0,0,1-9.35-.55c2-.07,4.08-.17,6.12-.21,6.56-.12,13.11-.15,19.67-.35,4.55-.14,9.09-.49,13.64-.75,1.28-.07,2.56-.17,3.84-.17q27.58-.11,55.17-.19c3.44,0,6.88-.35,10.31-.25,10,.29,20,.06,29.94,1.22s19.77,1.38,29.68,1.62c4,.1,8,.34,12,.52Z" />
        <path class="color-shadow-dark"
            d="M293.7,398.34a5.22,5.22,0,0,0,4.31,4.47c3.16.76,6.2,2,9.37,2.76,3.46.82,7,1.31,10.5,1.93a47.56,47.56,0,0,0,12.1.14c4.2-.33,8.34-1,12.47-1.67a107.76,107.76,0,0,1,15.94-.87c.63,0,1.26-.12,1.89-.17a13.94,13.94,0,0,1,3.78-.23c2.78.58,5.56.29,8.33.43a10.15,10.15,0,0,1,2,.49,3.31,3.31,0,0,1-.87.33c-3.1.19-6.2.34-9.3.54-7.87.51-15.71,1.26-23.52,2.33-3.94.54-7.92.85-11.89,1.1a97.65,97.65,0,0,1-11.46.36,110.31,110.31,0,0,1-11.83-1.53,22.58,22.58,0,0,1-4.09-1.3c-2.24-.82-4.45-1.72-6.7-2.53a2.34,2.34,0,0,1-1.68-1.48c-.58-1.64-1.33-3.22-2.13-5.1Z" />
        <path class="color-shadow-dark"
            d="M393.06,405.63a5.22,5.22,0,0,1,1.51-.49c6.95,0,13.91-.11,20.86,0,2.84.06,5.67.6,8.51.85,2.62.23,5.23.47,7.85.53,4.4.08,8.8,0,13.19,0a77.4,77.4,0,0,0,10.2-.86c6.14-.74,12.23-2,18.5-1.59,3.41.24,3.62-.11,4.4-3.58l.12-.46,5.32.19a46,46,0,0,1-2.56,5.38c-1,1.57-2.93,1.59-4.57,1.61-5.25,0-10.5-.16-15.76-.13-2.54,0-5.08.4-7.63.45-4.06.08-8.12,0-12.18,0-3.91,0-7.83,0-11.74-.12-6.14-.21-12.27-.54-18.4-.82-5.1-.23-10.2-.44-15.3-.68A22.75,22.75,0,0,1,393.06,405.63Z" />
        <path class="color-shadow-dark"
            d="M470.76,398l1.48-.43a50.26,50.26,0,0,1,12.25,1,4,4,0,0,1-1.17.35c-4-.2-8.09-.44-12.13-.68C471,398.15,470.9,398,470.76,398Z" />
        <path class="color-shadow-dark" d="M477.32,400.13l-1.66-.26Z" />
    </g>
</svg>
