<svg id="kapyushony_s_golovoy" data-name="kapyushony s golovoy" xmlns="http://www.w3.org/2000/svg"
    viewBox="0 0 672 960">
    <g id="img_60_img" data-name="img 60 img">
        <path class="outline"
            d="M384.92,29.27l1.92,0c3.82.6,6.87,2.65,9.67,5.16a4.56,4.56,0,0,1,1.1,1.09c.79,1.48,1.84,1.52,3.44,1.3a40.61,40.61,0,0,1,7.72-.07,54.66,54.66,0,0,1,6.23.9c4.33.77,7.17,3.4,9.41,7.09a143.4,143.4,0,0,1,10.16,20.71,106.22,106.22,0,0,1,4.34,12.13,57.71,57.71,0,0,1,1.51,10.33c.46,5.79.68,11.59,1,17.39.1,1.83.1,3.67.2,5.5q.34,6.36.76,12.73a34.54,34.54,0,0,1,.35,5.34c-.48,4.95,1.11,9.65,1.46,14.48a1.53,1.53,0,0,0,1,1.41,12,12,0,0,1,3.81,2.75,16.43,16.43,0,0,0,3.6,2.48,14.82,14.82,0,0,0,1.86.83,5.4,5.4,0,0,1,3.47,5.23,13.17,13.17,0,0,0,5.48,10.76,30.29,30.29,0,0,1,7.36,8.14,4.48,4.48,0,0,1-2.47,6.77c-1.51.51-3.06.91-4.6,1.34-3.77,1.06-7.09,3-10.42,5-3.11,1.86-6.21,3.77-9.46,5.38a15.45,15.45,0,0,0-4.47,3.23,30.57,30.57,0,0,1-3.86,3.21c-4.13,3.09-8.31,6.17-13.22,7.88a63.27,63.27,0,0,1-8.69,2c-2.3.45-4.63.73-6.95,1.09a55.68,55.68,0,0,1-16.1.18,81.76,81.76,0,0,1-15.24-3.42,52.7,52.7,0,0,1-16.66-9.24,27.07,27.07,0,0,1-3.33-3.44c-2.3-2.66-4.58-5.33-6.8-8.05a11.31,11.31,0,0,1-1.38-2.51c-.24-.56-.52-.73-1.09-.57-1.34.38-2.69.72-4,1.1a1.55,1.55,0,0,1-1.83-.5,1.58,1.58,0,0,1,.06-2,8.31,8.31,0,0,0,.82-1.56c-1.31.58-1.53-.18-1.8-1.05-2.08-6.68-4.26-13.33-5.14-20.3-.51-4.06-.84-8.17-1-12.27-.16-4.39-.12-8.79,0-13.19.15-4.7.56-9.4.81-14.11.21-4,.37-8,.52-12s.24-8,.38-12a80.43,80.43,0,0,1,.45-9.07,23.66,23.66,0,0,1,2.12-6.32,168.69,168.69,0,0,1,13.27-23.31,93.28,93.28,0,0,1,16.34-19.06,41.52,41.52,0,0,1,15.21-8.35C383.13,29.58,384,29.46,384.92,29.27ZM375.83,68.9l-.39.27-.76.57.25.27.68-.62.45-.54Zm.75-.22.13-.23-.29.08-.18.25Zm38.57,28.5-.31-.75-.26.1.26.93.32.24Zm-3.32-12.05-.63-.78-.3-.2.11.38.41.66.2.35,3.16,7.79,2.32-1.77-5.17-6.27A.23.23,0,0,0,411.83,85.13Zm14.82-1.37-.25-.52a3.2,3.2,0,0,0-.06-.7q-2.5-7-5-13.91c-.1-.28-.18-.56-.26-.85l.3-.08c.25.48.53,1,.74,1.45,1.68,4,3.33,8,5,12,.1.22.35.38.52.58l.23.13a2.58,2.58,0,0,0-.16,1c.5,2,1.08,4,1.57,6,.15.59.46.67.94.62a2.61,2.61,0,0,1,2.51,1.11,9,9,0,0,1,1.39,2.75,16.12,16.12,0,0,1-.91,10.27,14.08,14.08,0,0,0-1.2,6.5,29.46,29.46,0,0,1,.19,4.4c-.18,3.65-.42,7.3-.74,10.94-.22,2.52-.59,5-.9,7.54l-.47,0c.14-1.23.35-2.45.4-3.67.21-5.62.37-11.24.55-16.87a3.66,3.66,0,0,0-.15-.7,2.81,2.81,0,0,0-.59,1.22,20,20,0,0,1-3.85,7.9,17.38,17.38,0,0,1-1.83,1.41,1.87,1.87,0,0,0-.61.91c-.52,2.21-1.06,4.41-1.48,6.64a60.89,60.89,0,0,0-1.27,11.35c0,.81.24,1,1,1,1.83,0,3.66.08,5.48.23.61,0,.89-.05.94-.67a4.54,4.54,0,0,1,.19-.81h.25c0,.27-.08.54-.14.81-.11.52,0,.83.61.88,4.22.36,8.45.74,12.74,1.12-.47-3.39-1-6.58-1.33-9.79-.28-2.65-.39-5.33-.49-8-.05-1.52.19-3,.11-4.55-.32-6.21-.77-12.42-1.07-18.63-.27-5.66-.33-11.33-.65-17a59.06,59.06,0,0,0-1.09-8.27c-1-4.92-3-9.52-4.87-14.13-2.69-6.51-5.65-12.87-9.8-18.61-1.68-2.33-3.59-4.32-6.54-4.91A68.36,68.36,0,0,0,408,38.29c-2.88-.21-5.82-.48-8.69.37a1.18,1.18,0,0,1-.95-.24c-1.92-1.61-3.74-3.36-5.73-4.89-4.31-3.32-8.79-4.17-14-1.7a54.06,54.06,0,0,0-18,14c-7.63,8.81-13.53,18.77-19.17,28.91a36.74,36.74,0,0,0-4.89,20.16,120.08,120.08,0,0,1-.36,12.43c-.23,4.33-.63,8.65-.94,13-.09,1.19-.12,2.38-.23,3.57-.3,3.36-.83,6.73-.89,10.1-.08,4.81,0,9.65.34,14.45.28,4.25.88,8.48,1.48,12.7.86,6,3,11.66,4.76,17.4.12.38,1.46.68,1.69.39,1.83-2.36,3.69-4.71,5.5-7.1,4.08-5.4,7.13-11.43,10.56-17.23a2.42,2.42,0,0,0,.31-1.36c-.12-1.39-.32-2.77-.54-4.15a161.88,161.88,0,0,1-1.82-21.55c-.08-3.31.09-6.62.12-9.93,0-.28-.18-.75-.36-.79-1.09-.28-2.21-.46-3.44-.7a154.06,154.06,0,0,0,4.07,34.33h-.41L354.67,144l-.29,1.12-.46,0c-.18-1.82-.36-3.64-.56-5.46-.49-4.36-1.1-8.71-1.44-13.07-.25-3.18-.2-6.39-.19-9.59,0-.94-.22-1.39-1.19-1.68a27.08,27.08,0,0,1-7.84-3.79,6.79,6.79,0,0,1-.92-.86l.23-.28c.33.17.66.36,1,.5l7.74,3.16c.76.31.92.06,1-.71.21-3.7.37-7.41.78-11.09.66-6,1.46-12,2.27-18a38.61,38.61,0,0,1,1-4.06l.39.09c-.24,1.12-.54,2.24-.69,3.37-.6,4.68-1.24,9.35-1.69,14-.44,4.46-.69,8.94-1,13.42-.07,1.11-.37,2.54.18,3.25s2,.59,3.1.84l.54.08c.23-2.36.41-4.61.68-6.86.61-5.13,1.07-10.29,2-15.38,1.16-6.65,2.68-13.24,4-19.86a14.48,14.48,0,0,0,.25-2.94c0-1.48-.15-3-.21-4.42a2.06,2.06,0,0,1,.19-.66l.27,0c.07.81.13,1.62.21,2.43s.18,1.64.27,2.46l.27.11c3.66-7.82,10.62-9.48,18.21-10A9.4,9.4,0,0,0,376,53.85a17.19,17.19,0,0,0-4.63-.47c-5.55.27-10.24,2.69-14.47,6.15l-.44-.05a42.61,42.61,0,0,1,3.46-2.72c4.57-2.89,9.43-4.76,15-4a11.18,11.18,0,0,1,7.52,4c.61.75,1.21,1.51,2,2.45.18-1.58.17-3,1.58-3.77a.39.39,0,0,0,.16-.3c0-1.34.36-2.87-.16-4-1.47-3.13-3.71-5.59-7.39-6.19l-1-.13c5.22-.6,7.74,3.06,10.45,6.57.49-.32,1-.68,1.56-1,2.13-1.28,2.58-2.32,2-4.82-.15-.69-.41-1.36-.62-2.05l.3-.2,1.16,2A10,10,0,0,0,390,38.16a6,6,0,0,1,2.8,3.31c.51,1.36.82,2.81,1.26,4.33.68-1.17,1.31-2.28,2-3.36a3.59,3.59,0,0,1,.71-.62,2.09,2.09,0,0,1,0,.87c-1.13,2.33-2.26,4.67-3.48,7a4.41,4.41,0,0,1-1.43,1.42,24.17,24.17,0,0,1-3,1.83,1.69,1.69,0,0,0-1,1.74,3.15,3.15,0,0,1-.74,2.15c-1.24,1.08-.5,2.58-1.07,3.75,0,0,.2.22.33.3,1.61,1,3.25,1.86,4.84,2.86,2.26,1.41,4.59,2.76,6.73,4.35,6.61,4.93,11.54,11.45,16.56,17.87,1.23,1.58,2.2,3.38,3.33,5.13,1.1-.88,2.21-1.78,3.34-2.66.49-.38.38-.73.13-1.22a60.23,60.23,0,0,0-6.93-10.46c-2.88-3.57-5.62-7.27-9.26-10.15-.16-.12-.23-.37-.34-.56a1.31,1.31,0,0,1,.91.42c2.29,2.27,4.64,4.49,6.84,6.84A75.91,75.91,0,0,1,422.37,86a3,3,0,0,0,.72.63l.07.53,1.95,4.34a14.07,14.07,0,0,1,2.05-1.34c.79-.34.81-.8.63-1.5C427.38,87,427,85.39,426.65,83.76Zm-67.4,68.64.08.54.36-.57c.51-.81,1-1.63,1.54-2.42,1-1.45,2.12-2.7,4-2.88.79-.08,1.57-.26,2.36-.39l-9.94-11C357.91,141.42,358.54,146.91,359.25,152.4Zm56.61-54.69-.44.09c-.12.18-.37.38-.35.53.3,1.63.68,3.25,1,4.89.21,1.21.32,2.43.48,3.65a11,11,0,0,0,.93-2c1.6-4.09,3.17-8.19,6.05-11.6.12-.14.24-.39.18-.52-.57-1.41-1.18-2.8-1.82-4.29-1.27,1.09-2.39,2-3.49,3a2.3,2.3,0,0,0-.41.66l-.17.23a16.22,16.22,0,0,0-2.61,1.91c-.26.27.08,1.15.2,1.73S415.7,97.14,415.86,97.71Zm22.75,97.81-6.68,1.54a13.06,13.06,0,0,1,6.06-2.84c6.12-1.11,11.21-4.51,16.27-7.87,3-2,5.95-4.17,9.41-5.45a33,33,0,0,0,3.35-1.59,2.86,2.86,0,0,0,1.15-3.94c-1.66-2.39-3.4-4.72-5.17-7-1.52-2-3.38-3.77-4.61-5.92s-1.69-4.54-2.63-6.78A6.26,6.26,0,0,0,454,153a34.19,34.19,0,0,0-4.46-2.41c-.5,3.8-2.46,6.74-4.52,9.59-2.19,3-4.54,6-6.9,8.87a64.16,64.16,0,0,1-5.29,6q-4.78,4.62-9.87,8.91a22.45,22.45,0,0,1-9.05,5A38.89,38.89,0,0,1,401,190.05a22.12,22.12,0,0,1-12.39-4.89c-3.78-3.07-7.47-6.26-11.12-9.47-4.32-3.8-8.55-7.71-12.84-11.53a10,10,0,0,1-3.16-6.15,31.61,31.61,0,0,1,0-5.33l.1-.37-.21.27c-.26.4-.54.78-.78,1.19-2.6,4.39-5.12,8.83-7.81,13.17-2.41,3.91-5,7.67-7.51,11.55-.89,1.41-1.57,3-2.34,4.44l5.25-1a2.79,2.79,0,0,0,.49.58c1.13.74,2.3,1.41,3.41,2.18A24.16,24.16,0,0,0,360,188.5a7.82,7.82,0,0,1,4.23,2.29c-1.2-.26-2.42-.48-3.6-.8q-3.16-.84-6.3-1.81c-1.07-.33-2.1-.81-3.15-1.22a2.59,2.59,0,0,0,.57,1.25c1.22,1.43,2.53,2.78,3.68,4.26a37.34,37.34,0,0,0,11,9.44,46.6,46.6,0,0,0,12.54,5.16l10.3,2.28c2.4.22,4.81.46,7.22.67a19.58,19.58,0,0,0,2,.07c3.1-.06,6.22,0,9.3-.26a60.41,60.41,0,0,0,7.7-1.57,61.08,61.08,0,0,0,7.34-2c4.14-1.56,7.76-4.1,11.35-6.62a49.58,49.58,0,0,0,4.54-4l.14-.13Zm-45-25.41-.29.28c-1.51-2.9-3-5.79-4.5-8.72-.37-.72-.67-1.06-1.52-.7a3.9,3.9,0,0,1-3.37-.17,18.72,18.72,0,0,1-2.94-2c-.91-.73-1.73-1.59-2.71-2.51.49,3.54,1.09,6.86,1.38,10.2a24.54,24.54,0,0,1-.14,7,3,3,0,0,0,1.07,3.34c.22.18.4.39.62.57l6.8,5.54.13.15.1-.24-.17-.73h.46c.23.61.28,1.48.72,1.8,4.2,3,8.69,5.37,14,5.63a64.69,64.69,0,0,0,6.8-.3c2.2-.12,3.92-1.87,6.18-1.84a1.35,1.35,0,0,0,.63-.32c1-.71,2-1.48,3.11-2.14a41.86,41.86,0,0,0,10.58-9.52c-.72-.17-1.37-.36-2-.47a42,42,0,0,1-4.35-.71c-2.12-.59-4.17-1.42-6.27-2.1-1.56-.51-3.19-.89-3.16-3a3.8,3.8,0,0,0-.15-.58,96.39,96.39,0,0,1-1.69-9.89c-.38-5.05-.33-10.14-.47-15.21,0-.56,0-1.12,0-1.6-3.82,3.45-7.52,6.9-11.36,10.2-3.57,3.07-7.2,6.11-11.55,8.09-.65.29-.38.64-.19,1Q391.47,165.63,393.62,170.11ZM371.5,73.19l0-.49,3.46-2.65-.22-.34A4,4,0,0,0,374,70c-2.83,1.94-5.68,3.87-8.47,5.86a1.73,1.73,0,0,0-.47,1.33c.07,1,.29,2,.46,3,.86,5.24,1.61,10.49,2.62,15.7,1.19,6.06,2.62,12.08,3.92,18.13.14.66.36.79,1,.65A72.47,72.47,0,0,0,391,108.85c7.66-3.8,14.49-8.9,21.45-13.79a1,1,0,0,0,.41-1.29,43.79,43.79,0,0,0-4.92-11.62,33.08,33.08,0,0,0-3.16-5.06,37.38,37.38,0,0,0-5.83-5.83C394.56,68,390,65,385.49,61.85c-.15-.1-.33-.16-.23-.11a45.41,45.41,0,0,1-4.15,4.33C378,68.55,374.71,70.83,371.5,73.19Zm1.15,43.21c.33,1.23.58,2.23.87,3.22A212.47,212.47,0,0,0,381,141.45c2.29,5.58,4.68,11.11,7,16.68.3.74.66.76,1.24.47,1.24-.63,2.53-1.2,3.73-1.91a88.39,88.39,0,0,0,12.87-9.57c3.05-2.65,6.16-5.32,8-9a59.52,59.52,0,0,0,2.87-7.72c1.14-3.51,1.38-7.3,3.33-10.57.58-1,1-1.19,1.85-.51a10,10,0,0,1,1.32,1.36c1,1.17,1.59,1.18,2.36-.12a25.62,25.62,0,0,0,1.91-3.72c1.88-4.84,3.69-9.7,5.48-14.57a19.45,19.45,0,0,0,.78-3,11.51,11.51,0,0,0-.26-5.68c-.59-2-2.1-3.2-3.77-3a7.21,7.21,0,0,0-4.81,2.65A22.89,22.89,0,0,0,422,97.78a69.75,69.75,0,0,0-5.17,14.13,34.89,34.89,0,0,0-.58,3.52c-.17,1.07-.35,2.14-.53,3.21a115.68,115.68,0,0,0-2.45-23C401.2,105.6,388.55,114.11,372.65,116.4Zm74.25,35c.09-2.18-.76-4-2.47-4.76a15.32,15.32,0,0,0-4.35-1.22q-7.18-.79-14.4-1.3a41.9,41.9,0,0,0-11.77.65.9.9,0,0,0-.56.67c0,2.5.07,5,.12,7.51,0,1.75,0,3.5.1,5.24.22,4,2.09,7.59,3.05,11.41a2,2,0,0,0,1.2,1.16c4.32,1.14,8.65,2.21,13,3.26a1.9,1.9,0,0,0,2.26-.92c.82-1.4,1.57-2.84,2.5-4.16,3-4.19,6.08-8.31,9.07-12.5C445.74,154.9,447,153.38,446.9,151.4Zm-59.4,7.73c-.18-.41-.29-.71-.42-1a223.49,223.49,0,0,1-15.34-40.58c-.19-.73-.53-.83-1.18-.76-1.82.21-3.64.47-5.47.52-2.14,0-4.3-.11-6.45-.16-.34,0-.83-.24-.86.46,0,1-.2,2-.2,3q0,6.23.09,12.45a2.55,2.55,0,0,0,.51,1.41c1.7,2.11,3.47,4.16,5.2,6.25,5.62,6.78,12.55,12.14,19.28,17.71A4.78,4.78,0,0,0,387.5,159.13Zm-29.67-43.32c2.12,0,4.18.08,6.24,0s4.1-.39,6.15-.61c.61-.06.87-.3.65-1-.41-1.33-.68-2.7-1-4.06-2.12-9-3.56-18.19-4.87-27.36-.27-1.87-.52-3.75-.78-5.62L364,77c-.33.5-.87,1-1,1.51-.88,4.46-1.73,8.93-2.5,13.41-.47,2.77-.83,5.56-1.17,8.35-.36,3-.68,6.06-1,9.09C358.13,111.43,358,113.49,357.83,115.81Zm20,58.35a5,5,0,0,0,.24-.72c.05-.28.07-.56.11-.83a31.34,31.34,0,0,0-.23-8.81c-.32-2.49-.57-5-1-7.45a4.31,4.31,0,0,0-1.26-2.88c-.91-.76-1.74-1.64-2.68-2.37a6.42,6.42,0,0,0-1.81-.86c-.82-.28-1.67-.49-2.51-.72a14.29,14.29,0,0,0-2.2-.51,2.75,2.75,0,0,0-3,2.05c-.85,4.11-.66,8,2.53,11.25,2.19,2.22,4.29,4.51,6.48,6.72C374.2,170.72,376,172.34,377.83,174.16Zm38.84-31.92v0c.8,0,1.59,0,2.39,0,.53,0,.68-.14.69-.66,0-1,.14-2,.16-3a79.11,79.11,0,0,1,2.32-15.45c.35-1.62.36-1.58-1.08-2.31-.55-.27-.81-.18-1,.37-.29,1.07-.64,2.13-.85,3.22-1,5.17-2.12,10.28-5.25,14.72-.49.69-.28,1.91-.22,2.88a9.63,9.63,0,0,0,1.84.18C416,142.26,416.35,142.24,416.67,142.24Zm-51.85-67.3.6-.42c1.8-1.4,3.5-2.93,5.4-4.16,2.68-1.73,5.52-3.19,8.24-4.85,1.12-.68,2.13-1.56,3.18-2.34l-.21-.35a62.73,62.73,0,0,0-10.19,2.36,12,12,0,0,0-6.71,6.12A4.51,4.51,0,0,0,364.82,74.94Zm-1.55,1.58c1-.42.89-1.14.56-1.93Zm51.27,19.69.15,0-.14-.59-.2,0Z" />
        <path class="color-base"
            d="M389.23,209.35l-10.3-2.28c-.25-.27-.46-.64-.77-.8a57.9,57.9,0,0,1-12.62-8.14c-1.09-1-2.23-1.86-3.35-2.79l.13-.24,14.43,3.2.08-.25-.71-.38c-3-1.61-6-3.2-8.93-4.85-1.05-.59-2-1.35-3-2A7.82,7.82,0,0,0,360,188.5a24.16,24.16,0,0,1-7.89-3.82c-1.11-.77-2.28-1.44-3.41-2.18a2.79,2.79,0,0,1-.49-.58c1.25-2.88,2.35-5.84,3.78-8.62,1.91-3.72,4.07-7.3,6.15-10.93.54-.94,1.18-1.83,1.9-2.94a6.78,6.78,0,0,1,.2.68,16.63,16.63,0,0,0,3.29,7.85A54.48,54.48,0,0,0,373.65,178c1.74,1.39,3.69,2.51,5.46,3.86,1.58,1.2,2.95,2.71,4.6,3.79a75.81,75.81,0,0,0,8.67,5,21.94,21.94,0,0,0,11,2.46c2.18-.16,4.39-.17,6.54-.54a21.54,21.54,0,0,0,7.77-2.58c2.11-1.28,4.34-2.35,6.56-3.44,3.27-1.6,6.45-3.3,8.94-6,1.58-1.74,3.12-3.53,4.75-5.21,3.78-3.9,7.58-7.76,10.19-12.6.88-1.65,1.86-3.25,2.8-4.87.19-.32.42-.62.62-.94a7.28,7.28,0,0,1,.7.9,29.81,29.81,0,0,0,2.49,4.34c2,2.45,4.32,4.68,6.47,7,1.41,1.55,3,3,3.34,5.25a1.32,1.32,0,0,1-.82,1.69q-3.49,1.71-6.87,3.65a13.35,13.35,0,0,0-2.49,2c-1.49,1.42-2.79,3.07-4.4,4.33A41.8,41.8,0,0,1,438.69,192a46.93,46.93,0,0,0-11.79,6c-3.73,2.78-7.7,5.24-11.67,7.67A22.48,22.48,0,0,1,402.72,209c-1.68,0-3.36,0-5,0-2.42,0-4.84,0-7.26,0A4.62,4.62,0,0,0,389.23,209.35Zm-22.8-35.59-.28.28c.26.35.49.71.77,1,2,2.32,3.95,4.62,5.92,6.94a47.44,47.44,0,0,0,23.61,15.36,19.13,19.13,0,0,0,7,1c-1.16-.25-2.34-.39-3.49-.63s-2.31-.54-3.43-.9c-9.68-3.07-17.51-8.83-24.08-16.47C370.52,178.11,368.45,176,366.43,173.76Zm79.66,2.71,0,.1c.63-.5,1.31-.95,1.9-1.49a18.41,18.41,0,0,0,5.45-8.14,7.24,7.24,0,0,0,.08-2.33c0-.15-.29-.3-.46-.44a4,4,0,0,0-.22.57,13.37,13.37,0,0,1-.54,2.87,20.34,20.34,0,0,1-2.2,3.95C448.88,173.27,447.44,174.84,446.09,176.47Z" />
        <path class="color-shadow"
            d="M389.23,209.35a4.62,4.62,0,0,1,1.19-.3c2.42,0,4.84,0,7.26,0,1.68,0,3.36,0,5,0a22.48,22.48,0,0,0,12.51-3.44c4-2.43,7.94-4.89,11.67-7.67a46.93,46.93,0,0,1,11.79-6,41.8,41.8,0,0,0,11.24-5.76c1.61-1.26,2.91-2.91,4.4-4.33a13.35,13.35,0,0,1,2.49-2q3.38-1.93,6.87-3.65a1.32,1.32,0,0,0,.82-1.69c-.37-2.24-1.93-3.7-3.34-5.25-2.15-2.36-4.44-4.59-6.47-7a29.81,29.81,0,0,1-2.49-4.34,7.28,7.28,0,0,0-.7-.9c-.2.32-.43.62-.62.94-.94,1.62-1.92,3.22-2.8,4.87-2.61,4.84-6.41,8.7-10.19,12.6-1.63,1.68-3.17,3.47-4.75,5.21-2.49,2.74-5.67,4.44-8.94,6-2.22,1.09-4.45,2.16-6.56,3.44a21.54,21.54,0,0,1-7.77,2.58c-2.15.37-4.36.38-6.54.54a21.94,21.94,0,0,1-11-2.46,75.81,75.81,0,0,1-8.67-5c-1.65-1.08-3-2.59-4.6-3.79-1.77-1.35-3.72-2.47-5.46-3.86A54.48,54.48,0,0,1,363.49,168a16.63,16.63,0,0,1-3.29-7.85,6.78,6.78,0,0,0-.2-.68c-.72,1.11-1.36,2-1.9,2.94C356,166,353.86,169.58,352,173.3c-1.43,2.78-2.53,5.74-3.78,8.62l-5.25,1c.77-1.48,1.45-3,2.34-4.44,2.47-3.88,5.1-7.64,7.51-11.55,2.69-4.34,5.21-8.78,7.81-13.17.24-.41.52-.79.78-1.19a.52.52,0,0,0,.11.1,31.61,31.61,0,0,0,0,5.33,10,10,0,0,0,3.16,6.15c4.29,3.82,8.52,7.73,12.84,11.53,3.65,3.21,7.34,6.4,11.12,9.47A22.12,22.12,0,0,0,401,190.05a38.89,38.89,0,0,0,12.94-1.11,22.45,22.45,0,0,0,9.05-5q5.07-4.29,9.87-8.91a64.16,64.16,0,0,0,5.29-6c2.36-2.9,4.71-5.84,6.9-8.87,2.06-2.85,4-5.79,4.52-9.59A34.19,34.19,0,0,1,454,153a6.26,6.26,0,0,1,1.74,2.61c.94,2.24,1.44,4.7,2.63,6.78s3.09,3.93,4.61,5.92c1.77,2.32,3.51,4.65,5.17,7a2.86,2.86,0,0,1-1.15,3.94,33,33,0,0,1-3.35,1.59c-3.46,1.28-6.38,3.44-9.41,5.45-5.06,3.36-10.15,6.76-16.27,7.87a13.06,13.06,0,0,0-6.06,2.84l6.68-1.54.1.09a49.58,49.58,0,0,1-4.54,4c-3.59,2.52-7.21,5.06-11.35,6.62a61.08,61.08,0,0,1-7.34,2,60.41,60.41,0,0,1-7.7,1.57c-3.08.31-6.2.2-9.3.26a19.58,19.58,0,0,1-2-.07C394,209.81,391.63,209.57,389.23,209.35Z" />
        <path class="color-shadow"
            d="M446.9,151.4c.09,2-1.16,3.5-2.26,5-3,4.19-6.08,8.31-9.07,12.5-.93,1.32-1.68,2.76-2.5,4.16a1.9,1.9,0,0,1-2.26.92c-4.34-1.05-8.67-2.12-13-3.26a2,2,0,0,1-1.2-1.16c-1-3.82-2.83-7.4-3.05-11.41-.09-1.74-.06-3.49-.1-5.24-.05-2.5-.12-5-.12-7.51a.9.9,0,0,1,.56-.67,41.9,41.9,0,0,1,11.77-.65q7.21.51,14.4,1.3a15.32,15.32,0,0,1,4.35,1.22C446.14,147.38,447,149.22,446.9,151.4Z" />
        <path class="color-shadow"
            d="M377.83,174.16c-1.88-1.82-3.63-3.44-5.3-5.13-2.19-2.21-4.29-4.5-6.48-6.72-3.19-3.23-3.38-7.14-2.53-11.25a2.75,2.75,0,0,1,3-2.05,14.29,14.29,0,0,1,2.2.51c.84.23,1.69.44,2.51.72a6.42,6.42,0,0,1,1.81.86c.94.73,1.77,1.61,2.68,2.37a4.31,4.31,0,0,1,1.26,2.88c.42,2.46.67,5,1,7.45a31.34,31.34,0,0,1,.23,8.81c0,.27-.06.55-.11.83A5,5,0,0,1,377.83,174.16Z" />
        <path class="color-shadow"
            d="M364.19,190.79c1,.68,1.95,1.44,3,2,2.95,1.65,5.95,3.24,8.93,4.85l.71.38-.08.25-14.43-3.2-.13.24c1.12.93,2.26,1.83,3.35,2.79a57.9,57.9,0,0,0,12.62,8.14c.31.16.52.53.77.8a46.6,46.6,0,0,1-12.54-5.16,37.34,37.34,0,0,1-11-9.44c-1.15-1.48-2.46-2.83-3.68-4.26a2.59,2.59,0,0,1-.57-1.25c1.05.41,2.08.89,3.15,1.22q3.13,1,6.3,1.81C361.77,190.31,363,190.53,364.19,190.79Z" />
        <path class="color-shadow"
            d="M393.62,170.11c1.23,2.12,2.45,4.25,3.71,6.35a25.93,25.93,0,0,1,1.5,2.48,33.49,33.49,0,0,1-5.5-8.55Z" />
        <path class="color-shadow" d="M426.65,83.76l-3.49,3.39-.07-.53,3.31-3.38Z" />
        <path class="color-shadow" d="M429.55,136.76l.52-3.82.47,0c-.2,1.27-.41,2.54-.61,3.81Z" />
        <path class="color-shadow" d="M428.85,140.86c.19-1,.39-2.08.58-3.12l.38,0-.71,3.1Z" />
        <path class="color-shadow" d="M388.08,182.11l-.41-3.93.31,0,.56,4Z" />
        <path class="color-shadow" d="M356.8,150.47l.58,2.38a.14.14,0,0,0-.11.14l-.88-2.53Z" />
        <path class="color-shadow" d="M415.86,97.71l.68,2.3-.39.12-.73-2.33Z" />
        <path class="color-base" d="M363.27,76.52l.56-1.93C364.16,75.38,364.24,76.1,363.27,76.52Z" />
        <path class="color-shadow" d="M354.38,145.16l-.24,1.31-.27,0,.05-1.24Z" />
        <path class="color-shadow" d="M371.5,73.19l-.75.27.71-.76Z" />
        <path class="color-base" d="M411.2,84.35l.63.78-.41.06-.41-.66Z" />
        <path class="color-base" d="M414.84,97.46l-.26-.93.26-.1.31.75Z" />
        <path class="color-shadow" d="M356.05,59.91l.36-.43.44.05-.58.67Z" />
        <path class="color-base" d="M359.25,152.4l.44,0-.36.57Z" />
        <path class="color-shadow" d="M414.54,96.21l-.19-.58.2,0,.14.59Z" />
        <path class="color-base" d="M411,84.53l-.11-.38.3.2Z" />
        <path class="color-shadow" d="M361.36,152.58l.21-.27-.1.37A.52.52,0,0,1,361.36,152.58Z" />
        <path class="color-base" d="M376.42,68.53l.29-.08-.13.23Z" />
        <path class="color-base" d="M375.83,68.9l.23-.05Z" />
        <path class="color-base" d="M376.58,68.68l-.34.1.18-.25Z" />
        <path class="color-shadow" d="M388,182.93l.23-.09-.1.24Z" />
        <path class="color-shadow" d="M438.61,195.52l.24,0-.14.13Z" />
        <path class="color-shadow" d="M418,92.12a2,2,0,0,0-.17.23A2,2,0,0,1,418,92.12Z" />
        <path class="color-shadow" d="M427.62,81.73l.89-1.45.36.25-1,1.33Z" />
        <path class="color-shadow" d="M390.87,43.45l-.61-1.11.33-.18.6,1Z" />
        <path class="color-shadow" d="M356.27,60.2l-.65.88-.27-.17.7-1Z" />
        <path class="outline" d="M429.81,137.76l-.38,0,.12-1,.38,0Z" />
        <path class="color-base" d="M357.38,152.85l.09.44-.2-.3A.14.14,0,0,1,357.38,152.85Z" />
        <path class="outline" d="M390.87,43.45l.32-.31a.29.29,0,0,1,.07.2l-.3.2A.11.11,0,0,1,390.87,43.45Z" />
        <path class="outline"
            d="M366.43,173.76c2,2.2,4.09,4.35,6,6.61,6.57,7.64,14.4,13.4,24.08,16.47,1.12.36,2.27.65,3.43.9s2.33.38,3.49.63a19.13,19.13,0,0,1-7-1A47.44,47.44,0,0,1,372.84,182c-2-2.32-3.95-4.62-5.92-6.94-.28-.32-.51-.68-.77-1Z" />
        <path class="outline"
            d="M446.09,176.47c1.35-1.63,2.79-3.2,4-4.91a20.34,20.34,0,0,0,2.2-3.95,13.37,13.37,0,0,0,.54-2.87,4,4,0,0,1,.22-.57c.17.14.46.29.46.44a7.24,7.24,0,0,1-.08,2.33,18.41,18.41,0,0,1-5.45,8.14c-.59.54-1.27,1-1.9,1.49Z" />
        <path class="outline"
            d="M428,101.9l-1.83-1.5a4.57,4.57,0,0,0-.27.94c0,2.18.08,4.37-.1,6.54a6.17,6.17,0,0,1-1.19,2.53A16.45,16.45,0,0,1,423.2,112c-.47.56-1.18,1.12-.1,1.82a1.52,1.52,0,0,1-.41,1,1.35,1.35,0,0,1-2-1.3,2.4,2.4,0,0,1,1.38-2.21c.46-.24,1-.44,1.39-.71a3.31,3.31,0,0,0,1.66-3.48c-.23-3.67-.32-7.37,1.48-10.76a9.78,9.78,0,0,1,1.95-2.53,1.88,1.88,0,0,1,3.17,1.06l-.6-.43a1.76,1.76,0,0,0-2.74.24,25.89,25.89,0,0,0-1.92,3.92c-.07.18.17.53.32.77.5.75,1,1.48,1.55,2.23Z" />
        <path class="outline"
            d="M431.72,97.17a16.76,16.76,0,0,1-1,8.67l-.33-.3a20.7,20.7,0,0,0,1-7.12c0-.43-.12-.86-.18-1.28Z" />
        <path class="outline"
            d="M428,111.62c-1,.44-1.65.78-2.37,1a.63.63,0,0,1-.57-.24.62.62,0,0,1,.22-.58A2.27,2.27,0,0,1,428,111.62Z" />
        <path class="color-shadow" d="M430.44,105.54l.33.3-.54,1.43-.41-.16Z" />
        <path class="color-shadow" d="M431.72,97.17l-.46,0-.44-.78C431.55,96.33,431.55,96.33,431.72,97.17Z" />
        <path class="color-shadow" d="M428.67,102.19l.55,1.12-.33.18-.52-1Z" />
        <path class="outline" d="M428.67,102.19l-.3.28v-.3Z" />
        <path class="outline" d="M428.35,101.65V102l-.36-.13Z" />
        <path class="outline" d="M403.9,157.17c.15,2.73.31,5.46.46,8.19h-.5l-.16-3.52-.06-.79v-3.86Z" />
        <path class="color-shadow" d="M404.15,168.47a5.53,5.53,0,0,1-.54,3.06l-.27,0c.15-1,.31-2,.46-3Z" />
        <path class="color-shadow" d="M403.86,165.35h.5l-.18,2.42-.32-.28Z" />
        <path class="color-shadow" d="M403.64,161l.06.79Z" />
        <path class="outline" d="M403.86,167.5l.32.28,0,.69h-.35Z" />
        <path class="color-shadow" d="M403.9,157.17h-.26l.17-.19Z" />
    </g>
</svg>
