<svg id="kapyushony_s_golovoy" data-name="kapyushony s golovoy" xmlns="http://www.w3.org/2000/svg"
    viewBox="0 0 672 960">

    <g id="img_63_img" data-name="img 63 img">
        <path class="outline"
            d="M384.92,29.27l1.92,0c3.82.6,6.87,2.65,9.67,5.16a4,4,0,0,1,1,1c.85,1.69,2.07,1.59,3.75,1.34a33.87,33.87,0,0,1,7.26-.08,56.5,56.5,0,0,1,6.58,1A12.85,12.85,0,0,1,424,44a134.14,134.14,0,0,1,9.6,19c1.51,3.6,3,7.22,4.37,10.87a33,33,0,0,1,1.95,9q.53,6.11,1,12.23c.18,2.58.29,5.16.4,7.75.14,3.42.19,6.85.37,10.28.2,4,.49,7.93.76,11.89.09,1.23.32,2.44.36,3.67,0,1.05-.12,2.1-.17,3.16s.29,1.41,1.38,1.36a24.5,24.5,0,0,1,4.28.19,8.77,8.77,0,0,1,5.95,3.66,9.6,9.6,0,0,1,1.35,2.42,12.13,12.13,0,0,0,3.19,4.72,7.6,7.6,0,0,1,2.7,6.26c-.09,1.38-.43,2.74-.6,4.12a14.08,14.08,0,0,0,3.62,11.78,76.86,76.86,0,0,1,6.42,8.65,4.43,4.43,0,0,1-2.31,6.58,35.06,35.06,0,0,1-3.79,1.11c-4.29,1.06-8,3.3-11.76,5.51-3.6,2.11-7,4.55-11,6a7.24,7.24,0,0,0-2,1.69c-5.5,5.07-11.45,9.48-18.51,12.1a49.4,49.4,0,0,1-8,1.67c-2,.38-4.08.63-6.11,1-.2,0-.4.66-.42,1-.15,3.8-.14,7.6-.44,11.39s-.88,7.37-1.36,11.06q-.84,6.36-1.72,12.72c-.63,4.51-1.3,9-1.93,13.52-.14,1-.22,2-.3,3a1.15,1.15,0,0,1-1.33,1.19,7.87,7.87,0,0,1-.84,0c-4.24-.43-3.79-1.17-3.46-4.32.28-2.74.48-5.48.84-8.21.56-4.32,1.29-8.61,1.83-12.93,1-7.93,1.91-15.88,2.84-23.82.11-1,0-1.92.1-2.87.06-.73-.18-1-.93-1-2.32,0-4.65.08-7-.16-11.22-1.16-21.93-3.88-31.39-10.42a51.92,51.92,0,0,1-8.38-7.84,37.65,37.65,0,0,1-5.9-7.52c-1.11-2.08-1.12-2.05-3.36-1.29a11.75,11.75,0,0,1-2.66.65,1.82,1.82,0,0,1-1.44-.55,2.29,2.29,0,0,1-.2-1.64,7.17,7.17,0,0,1,.92-1.66v-.36l-.26.14c-.72.34-1,.06-1.28-.66-2.72-8.41-5.29-16.88-5.91-25.73-.42-6-.45-12-.31-18,.21-8.5.75-17,1.13-25.49.22-5.06.38-10.13.58-15.19a78.82,78.82,0,0,1,.45-8.84,24.06,24.06,0,0,1,2.13-6.43,168.58,168.58,0,0,1,13.27-23.3,93,93,0,0,1,16.33-19.07,41.65,41.65,0,0,1,15.21-8.34C383.13,29.58,384,29.46,384.92,29.27Zm-8.49,39.26-.15.29.3-.14.13-.23Zm-.49.58.1-.23-.25.09-.35.2-1.06.66c-3,2-6,4-9,6.12-.29.21-.37.94-.31,1.4.25,1.92.58,3.83.9,5.75,1,5.66,1.83,11.34,2.92,17,.91,4.67,2.1,9.28,3.13,13.93.16.72.44.83,1.13.69a73,73,0,0,0,18.1-6c7.57-3.81,14.33-8.85,21.23-13.69.49-.34.5-.66.36-1.21a37.63,37.63,0,0,0-4-9.94,65.17,65.17,0,0,0-5-7.84c-5-6.16-12-9.76-18.32-14.17-.49-.34-.61-.09-.89.29a13.54,13.54,0,0,1-2.26,2.76c-3.66,2.89-7.41,5.67-11.12,8.48a1.66,1.66,0,0,1-.39.15l-.14-.22,4.3-3.4.59-.53Zm39.21,28.07-.31-.75-.26.11.26.92.32.24ZM411.2,84.35l-.3-.2.11.38.41.66.2.35,3.16,7.79,2.32-1.77-5.17-6.27a.21.21,0,0,0-.1-.16Zm-6.37,127.84h-2.09v.51h2.1l1.08.08v-.25Zm-2.17,22.09a7.25,7.25,0,0,0-.78.17c-.36.12-.71.27-1.06.4.38.18.75.38,1.14.54a1.26,1.26,0,0,0,.47,0c.48.08,1,.22,1-.54S403.1,234.22,402.66,234.28Zm1.22-8c.59.14,1,.07,1-.7s-.44-.79-1-.68a4.33,4.33,0,0,0-1.27.2c-.27.14-.4.55-.59.84a2.64,2.64,0,0,0,.69.35A7.77,7.77,0,0,0,403.88,226.29Zm.72-30.48-1.52-.31.54,1.53.06.7c-.55.63.78,1.24,0,1.86.06,0,.11.13.18.15l1.74.37.07-.25-1.13-.66h.58c.37.05.86.46,1-.33s-.27-.89-.88-.93a9.09,9.09,0,0,1-1.27-.21l1.61,0c.18-.14.5-.27.5-.42.05-1,0-2.11,0-3.17l-.19,0-.36,1.69ZM402.9,231c-1.71-.14-1.71-.14-1.73,1.59a1,1,0,0,0,.05.23c-.36,1.23-.33,1.29.91,1.27A2.26,2.26,0,0,0,403,234a3.18,3.18,0,0,0,.71-.57,5.42,5.42,0,0,0-.73-.35c-.39-.11-.8-.17-1.2-.26l1.17-.06a1.11,1.11,0,0,0,1.18-1.43C403.94,230.5,403.34,230.94,402.9,231Zm2.17-13a13.65,13.65,0,0,1-1.43,0c-.9-.13-.95.39-.94,1.07,0,.87.55.54,1,.49.28,0,.56,0,.84,0l1-.11C405.35,218.85,406.17,218.08,405.07,217.93Zm-5.52,26.86.26.21,1.64,0a6.68,6.68,0,0,0-1.34.3,3.24,3.24,0,0,0-.78.67,3.61,3.61,0,0,0,.76.32,3,3,0,0,0,.94,0c.32,0,.87-.12.9-.27a2.72,2.72,0,0,0-.23-1l.48-.91c.23-.33.43-.65-.22-.7C399.81,243.31,399.64,243.41,399.55,244.79Zm5.05-23a14,14,0,0,0-1.6.24.82.82,0,0,0-.55.45,2.56,2.56,0,0,0,.09.9c.85-.13,2.12,0,2.44-.46.48-.73.29-1.9.35-2.88a1.91,1.91,0,0,0-.5-.16,9.38,9.38,0,0,1-1.06,0c-.76-.09-1.12.1-1.17,1s.41.95,1,.95Zm-3.44,26.9c-.64.09-1.29.15-1.92.29a.81.81,0,0,0-.47.49.83.83,0,0,0,.11.58,8.77,8.77,0,0,0,2.35-.06c.24-.06.29-.88.42-1.35.36-2,.36-1.88-1.52-1.94-1.06,0-1,.59-1.09,1.28-.09.9.59.65,1,.69S400.8,248.66,401.16,248.66Zm-.66-8.86.72.13c-.1.06-.19.17-.3.18-.66,0-1,.36-.95,1s-.11,1.17-.14,1.76c0,.06.24.16.38.2,1.69.39,2.31-.06,2.48-1.75,0-.24,0-.48.06-.71.06-.5-.11-.75-.65-.69a7.69,7.69,0,0,1-.83,0c.35-.07.69-.16,1-.2.85-.1.64-.81.72-1.3,0-.2-.12-.57-.27-.62-1.85-.62-2.37-.26-2.47,1.67Zm-3.08,16.67a16.6,16.6,0,0,0,2.56-.34c.3-.08.52-.66.65-1.06.06-.17-.2-.64-.29-.63-.91.08-1.82.24-2.73.38l-.12.29-.17,1.11Zm6.21-29.76a5,5,0,0,1-.94,0c-.87-.12-.92.53-.87,1,0,.23.53.45.86.59a1.65,1.65,0,0,0,.7,0l.76.2a15.44,15.44,0,0,1-2,.13c-.8,0-.64.69-.66,1.16,0,.23.21.66.37.68,2.07.32,2.62-.16,2.77-2.31,0-.27,0-.55,0-.83C404.73,226.54,404.42,226.27,403.63,226.71ZM402,193.16l.41-2.34,2.14.54v-4.59l-.65.43a1.42,1.42,0,0,0,0-.46,4,4,0,0,0-.3-.58c-.12.09-.32.17-.33.27a1,1,0,0,0,.1.65c.08.11.35.08.54.11-.36.87-.69.21-.94-.06s-.09-.45-.12-.68c-.63,2.05-1.06,4.11-1.53,6.16-.13.6.18.8.65.92.69.36,1.36.75,2.06,1.08.11,0,.33-.14.5-.21l-.39-.21c-.07,0-.2,0-.22-.08C403.58,193.13,402.74,193.22,402,193.16Zm24.67-109.4-.25-.52a3.2,3.2,0,0,0-.06-.7q-2.5-7-5-13.91c-.1-.28-.18-.57-.26-.85l.29-.09c.25.49.54,1,.75,1.46,1.68,4,3.33,8,5,12,.1.22.35.38.52.58l.23.13a2.8,2.8,0,0,0-.17,1c.51,2,1.09,4,1.59,6,.14.58.45.67.93.62a2.61,2.61,0,0,1,2.51,1.11,9.14,9.14,0,0,1,1.39,2.75c1,3.52.35,6.94-.91,10.27a14.14,14.14,0,0,0-1.2,6.51,38.11,38.11,0,0,1,.2,4.4c-.05,1.95-.21,3.89-.38,5.83-.28,3.28-.6,6.55-.92,9.83-.11,1.24-.25,2.48-.38,3.66,3.3-.21,6.46-.44,9.63-.58.76,0,.69-.35.66-.89-.12-2.31-.22-4.62-.27-6.93,0-1.4.14-2.8.06-4.19-.33-6.25-.76-12.5-1.06-18.75-.27-5.66-.33-11.33-.65-17a57.5,57.5,0,0,0-1.08-8c-1-4.91-3-9.51-4.87-14.12-2.7-6.51-5.65-12.87-9.8-18.62-1.63-2.25-3.45-4.25-6.3-4.85a66.56,66.56,0,0,0-8.8-1.58c-2.88-.22-5.83-.47-8.7.36a1.43,1.43,0,0,1-1.07-.42c-3.34-3.13-6.74-6.13-11.22-7.58a6.39,6.39,0,0,0-4.45-.15,73.13,73.13,0,0,0-8.32,3.62c-5.94,3.25-10.58,8.05-14.88,13.2C352,56.18,346.12,66,340.78,76.17a31.91,31.91,0,0,0-3.84,10.27,58.79,58.79,0,0,0-.32,7.16c-.09,4.07-.13,8.15-.21,12.22,0,1.23-.11,2.46-.22,3.69-.3,3.52-.64,7-.94,10.57-.17,2-.29,4-.44,5.94-.24,3.29-.64,6.59-.69,9.89-.06,4,.1,8,.3,12.06a87.17,87.17,0,0,0,2.27,16.79c1.14,4.6,2.63,9.12,4,13.66.06.22.3.38.46.56.32-.46.95.38,1.34-.43a34.74,34.74,0,0,1,2.77-4.76,26.65,26.65,0,0,0,4.1-8.61c1.45-5.59,2.5-11.28,3.7-16.93a23.27,23.27,0,0,0,.34-8.65c-.68-4.2-1.13-8.46-1.45-12.71-.25-3.26-.2-6.55-.2-9.82,0-.95-.22-1.39-1.19-1.68a27.53,27.53,0,0,1-7.85-3.79,7.36,7.36,0,0,1-.91-.86l.22-.29c.34.18.67.37,1,.52l7.74,3.15c.6.24.92.23,1-.6.21-3.73.37-7.48.78-11.2.66-6,1.46-12,2.27-18a38.61,38.61,0,0,1,1-4.06l.29,0a1.93,1.93,0,0,1,0,.41c-.55,3.63-1.15,7.26-1.66,10.9-.36,2.62-.63,5.26-.88,7.91-.17,1.74-.27,3.49-.35,5.23-.15,3.06-.27,6.12-.41,9.18a.73.73,0,0,0,.72.88c1,.16,2,.36,3.11.56.23-2.32.42-4.61.69-6.89.61-5.14,1.07-10.3,2-15.38,1.16-6.65,2.68-13.24,4-19.86a15.22,15.22,0,0,0,.24-2.94c0-1.48-.15-3-.21-4.42a2.35,2.35,0,0,1,.19-.66l.26,0c.07.81.14,1.62.22,2.43s.18,1.64.27,2.46c2.11-3.2,4.15-6.16,7.88-7.57,3.45-1.29,6.88-2.4,10.73-2.14-1.37-3.36-3.41-5.8-6.89-6.62a17.2,17.2,0,0,0-4.63-.48c-5.55.28-10.24,2.7-14.47,6.16l-.44-.05a42.61,42.61,0,0,1,3.46-2.72c4.57-2.89,9.43-4.75,15-4a11.18,11.18,0,0,1,7.52,4c.61.75,1.21,1.51,1.89,2.36a5.88,5.88,0,0,1,1.65-3.67.66.66,0,0,0,.16-.31c0-1.34.36-2.86-.16-4-1.46-3.13-3.7-5.59-7.39-6.19l-1-.13c5.21-.6,7.73,3.06,10.44,6.57.49-.32,1-.68,1.56-1,2.13-1.28,2.58-2.32,2-4.81-.15-.7-.41-1.37-.62-2.06l.3-.2,1.18,2A10.24,10.24,0,0,0,390,38.17c2.7,1.8,3.48,4.59,3.91,7.8l2.6-4.3.39.19a4.58,4.58,0,0,1-.27,1.06c-1.07,2.18-2.12,4.38-3.28,6.51a5.47,5.47,0,0,1-1.55,1.63A25.33,25.33,0,0,1,388.75,53a1.38,1.38,0,0,0-.93,1.56,3.86,3.86,0,0,1-1,2.67c-.61.91-.55,2.27-.77,3.44,0,.05.17.15.27.21,1.58.93,3.18,1.82,4.74,2.79,2.3,1.43,4.66,2.8,6.83,4.42,6.62,4.92,11.55,11.44,16.56,17.87,1.24,1.58,2.2,3.37,3.33,5.13,1.11-.88,2.22-1.78,3.35-2.66.48-.38.39-.72.13-1.21a59.93,59.93,0,0,0-6.93-10.47c-2.88-3.57-5.62-7.26-9.26-10.14a2,2,0,0,1-.34-.57,1.36,1.36,0,0,1,.91.41c2.29,2.28,4.64,4.5,6.84,6.85A75.91,75.91,0,0,1,422.37,86a3,3,0,0,0,.72.63l.07.53,1.95,4.34a14.07,14.07,0,0,1,2.05-1.34c.79-.34.81-.8.63-1.5C427.38,87,427,85.39,426.65,83.76ZM415.86,97.71l-.44.09c-.14.14-.41.31-.39.42.52,2.91,1.07,5.81,1.64,8.79.26-.73.49-1.43.76-2.12,1.59-4.1,3.18-8.2,6.05-11.64a.72.72,0,0,0,.16-.62c-.55-1.38-1.15-2.74-1.78-4.2-1.26,1.09-2.39,2-3.49,3a2.51,2.51,0,0,0-.41.67l-.17.23a16.22,16.22,0,0,0-2.61,1.91c-.26.27.08,1.15.2,1.73S415.7,97.14,415.86,97.71ZM354.75,140.1v.71l.09,0,.09-.66c.6-1,1.21-1.92,1.77-2.9a1.49,1.49,0,0,0,.09-.77c-.14-4.07-.3-8.13-.41-12.2,0-1.35.11-2.71.12-4.06,0-1.13.35-2.64-.23-3.28s-2.15-.55-3.28-.78a1.88,1.88,0,0,0-.31,0c.14,3.71.15,7.44.48,11.15C353.54,131.63,354.2,135.86,354.75,140.1Zm83.86,55.42-4.73,1,4.54-2.46a33.5,33.5,0,0,0,5.34-1.67,95.86,95.86,0,0,0,9.25-5.27c3.69-2.39,7.2-5,11.35-6.63a25.82,25.82,0,0,0,2.51-1.15,3,3,0,0,0,1.29-4.11q-2.79-4.68-5.7-9.29a18.67,18.67,0,0,1-2.48-5.8c-.68-3-.49-6-.61-9a7,7,0,0,0-.91-3.39,37.1,37.1,0,0,0-3.52-4.16,43.6,43.6,0,0,1-6.26,11.56c-2.2,2.93-4.64,5.7-6.74,8.7a42.17,42.17,0,0,1-15.8,13.64c-4.85,2.43-9.56,5.17-14.83,6.66l-2.22.45c-.82.17-1.95.1-2.35.6s0,1.57.1,2.39c0,.35.06.71.11,1.07a89.38,89.38,0,0,1,.47,20.88c1.71.16,3.37-.59,5.08-1a18.71,18.71,0,0,0,2.49-.17,34.18,34.18,0,0,0,7.85-2,67.47,67.47,0,0,0,11.33-6.69,49.58,49.58,0,0,0,4.54-4l.14-.13Zm-87.47-8.64-.19-.13.05.27a7.42,7.42,0,0,0,.66,1.13c1.21,1.42,2.51,2.78,3.66,4.25a38.22,38.22,0,0,0,10.87,9.39,47.21,47.21,0,0,0,12.74,5.28c1.81.49,3.59,1.08,5.42,1.45a83.11,83.11,0,0,0,14.34,1.55c2.84.06,2.72.2,2.92-2.31,0-.16.06-.32.08-.48a39.29,39.29,0,0,0,.33-11.2,1.74,1.74,0,0,0-1.26-1.65c-.57-.18-1.1-.5-.87-1.31.58-2,1.12-4.07,1.7-6.09.42-1.46.28-1.7-1.17-1.72l-.84,0c-.51-.1-1-.19-1.52-.3-3.36-.71-6.79-1.28-9.8-3a103.94,103.94,0,0,1-16.37-11.66c-2.9-2.51-5.65-5.19-8.47-7.79a24.47,24.47,0,0,1-7.53-13.6c-.27-1.41-.26-2.88-.4-4.53a2.76,2.76,0,0,0-.28.56c-1,4.68-2,9.34-2.89,14a57.06,57.06,0,0,1-5.07,14.65c-1.4,2.83-2.76,5.67-4.13,8.51a3,3,0,0,0-.15.69l5-1.26a4.09,4.09,0,0,0,.71.83c1.3.91,2.59,1.86,4,2.65a37.79,37.79,0,0,0,5.62,2.89c2.72,1,5.59,1.61,8.35,2.52a25.38,25.38,0,0,1,3.38,1.69C363.69,190.66,357.12,189.79,351.14,186.88Zm37.13-6.42c4.83,1.91,9.75,3.33,15,2.88,1.55-.14,3.11-.27,4.65-.5,2.87-.42,5.79-.65,8.49-1.92,2.35-1.09,4.79-2,7.14-3.08,1.71-.79,3.34-1.75,5-2.64a5,5,0,0,0-1.73-.63,20,20,0,0,1-2.72-.31c-2-.61-4-1.45-6-2-1.79-.52-3.44-1-3.43-3.35a.75.75,0,0,0-.07-.23,52,52,0,0,1-1.94-12.5c-.19-4.51-.14-9-.2-13.54a3.18,3.18,0,0,0-.08-.59c-.95.82-1.95,1.66-2.93,2.54-2.41,2.16-4.74,4.4-7.21,6.49-3.95,3.36-7.86,6.81-12.63,9-.64.3-.54.6-.31,1.09q2.18,4.47,4.32,9l-.29.29c-1.55-3-3.1-6-4.62-8.94-.27-.53-.5-.8-1.17-.55-2.1.77-3.92.06-5.56-1.25-.91-.72-1.72-1.55-2.59-2.32-.27-.23-.58-.41-1-.72.06.66.06,1.06.13,1.45a61.36,61.36,0,0,1,1.31,13.85,8.67,8.67,0,0,1-.37,2.22c-.18.55-.18.92.31,1.21,2.69,1.64,5.38,3.26,8.07,4.89Zm27.5-61.81a115,115,0,0,0-2.44-22.91c-.35.22-.56.34-.75.48-3.65,2.73-7.23,5.55-10.95,8.19a63,63,0,0,1-16.7,8.79c-4,1.31-8.08,2.37-12.18,3.55.19.71.42,1.59.66,2.47,3.69,13.42,9,26.25,14.55,39,.25.55.44.78,1,.47s1.57-.61,2.29-1a82.94,82.94,0,0,0,19.57-15.5,26.05,26.05,0,0,0,3.85-6.14,38.42,38.42,0,0,0,1.91-5.66c1.07-3.53,1.38-7.3,3.32-10.57.53-.89,1-1.13,1.77-.49a17.29,17.29,0,0,1,1.58,1.62c.87.89,1.43.87,2.06-.2a28.1,28.1,0,0,0,2-3.93c1.88-4.83,3.69-9.7,5.48-14.57a19,19,0,0,0,.75-2.88,11.51,11.51,0,0,0-.24-5.68c-.59-2-2.06-3.25-3.72-3.12a7.18,7.18,0,0,0-4.9,2.7A23.49,23.49,0,0,0,422,97.83,69.81,69.81,0,0,0,416.86,112c-.29,1.11-.39,2.26-.57,3.4S415.94,117.56,415.77,118.65ZM441,135.88a78.72,78.72,0,0,0-15.25,1.44c-3.47.65-7,1-10.22,2.8-1.3.74-2.37,1.33-2.14,3.07a9.67,9.67,0,0,1-.3,1.88,23,23,0,0,0-.07,2.87c.17,2.82.39,5.64.6,8.46a32.55,32.55,0,0,0,.46,5c.67,2.74,1.63,5.42,2.44,8.13a1.77,1.77,0,0,0,1.38,1.34c3.82,1,7.64,1.95,11.48,2.88a2,2,0,0,0,1.35-.18,25.05,25.05,0,0,0,7.31-6.75c2-2.64,3.95-5.32,5.92-8,2.65-3.6,5.33-7.18,7.92-10.82,1.36-1.92,1.41-4.26,1.32-6.45a6,6,0,0,0-5.15-5.25C445.73,136,443.37,136,441,135.88Zm-82.78-18.71s-.39.24-.43.49a26.34,26.34,0,0,0-.23,3.2c0,3.43.25,6.87.06,10.29a6.94,6.94,0,0,0,1.94,5.28c4.19,4.76,8.33,9.58,13.2,13.69,3.18,2.68,6.3,5.42,9.56,8a8.14,8.14,0,0,0,3.48,1.36c1.44.28,1.75-.29,1.13-1.59a223.82,223.82,0,0,1-15.16-40.13c-.23-.88-.58-1-1.39-.93A52,52,0,0,1,358.24,117.17Zm19.81,56.54a31.81,31.81,0,0,0,.35-4.58c-.27-3.77-.72-7.53-1.11-11.3a5.9,5.9,0,0,0-2-3.92c-4.65-4.37-9.87-8.14-13.89-13.16-.88-1.1-1.8-.38-2.71-.26s-1.09.81-1.15,1.48a20.63,20.63,0,0,0-.21,4.36,20,20,0,0,0,4.77,11.52c1.86,2,3.85,3.93,5.79,5.88l9.13,9.12C377.31,173.09,377.59,173.3,378.05,173.71Zm-20.2-58.14a46.49,46.49,0,0,0,12.36-.38c.61-.08.88-.29.66-1-.41-1.33-.67-2.7-1-4.06-2.13-9-3.57-18.19-4.88-27.37-.27-1.87-.52-3.74-.78-5.62L364,77c-.34.5-.88,1-1,1.51-.88,4.46-1.73,8.93-2.5,13.42-.48,2.76-.83,5.55-1.16,8.34-.37,3-.69,6.06-1,9.1C358.13,111.42,358,113.48,357.85,115.57Zm63.7,20.23c2.59-.56,4.9-1.17,7.25-1.52,1.1-.16,1.22-.66,1.28-1.55.19-2.89.53-5.78.65-8.67.17-4,.2-7.89.29-11.84a2.4,2.4,0,0,0-.13-.53c-.15.08-.26.1-.27.15-.13.38-.25.76-.35,1.14a20.56,20.56,0,0,1-4,8.07,3.43,3.43,0,0,1-1.38,1.06,1.22,1.22,0,0,0-.92,1.07c-.5,2.33-1.08,4.65-1.53,7C422.07,132,421.85,133.83,421.55,135.8ZM382.24,63.21l-.17-.29a1.28,1.28,0,0,0-.43,0c-3.06.7-6.14,1.33-9.17,2.11-3.62.94-5.93,3.42-7.52,6.69a4.32,4.32,0,0,0-.12,3.26A38.77,38.77,0,0,1,368.4,72c3.43-2.17,7-4.2,10.42-6.34C380,64.94,381.1,64,382.24,63.21Zm33.39,73.48c1.45-.32,2.73-.58,4-.89a.79.79,0,0,0,.48-.5q1.22-6.57,2.36-13.15a.74.74,0,0,0-.16-.59c-1.22-1.22-1.9-1-2.41.56a4.74,4.74,0,0,0-.16.57C418.76,127.46,417.9,132.27,415.63,136.69ZM398.2,260l0-.26a7.53,7.53,0,0,0,1.43-.09.87.87,0,0,0,.53-.62c0-.16-.35-.48-.58-.51a5.75,5.75,0,0,0-1.55,0c-.35,0-1,.21-1,.31a4.54,4.54,0,0,0,.33,1.19,4.8,4.8,0,0,0-.33,1.25c0,.12.61.29,1,.35s.72,0,1.08,0c.91.14.95-.44,1-1.09,0-.9-.6-.63-1.08-.63C398.7,259.9,398.45,259.93,398.2,260Zm7.95-48c-.18-.71-.18-1.76-.54-1.91a5.1,5.1,0,0,0-2.69-.14c-.21,0-.22,1.17-.32,1.73Zm.12-9.68c-.19-1.3-.6-1.63-2-1.64-1.06,0-.57.77-.59,1.2-.06,1.3.43,1.71,1.91,1.54C405.87,203.34,406.05,202.65,406.27,202.27Zm-6.1,47.81-.11.23-.48,0c-1,.05-1.48.59-1.27,1.48s.89.29,1.36.33c.19,0,.39-.15.58-.13a1,1,0,0,0,1.12-1.26C401.32,250.47,400.59,250.3,400.17,250.08Zm-2.26,4.08c.7,0,1.33,0,2,0,.35,0,.85-.12,1-.35a4.35,4.35,0,0,0,.29-1.38c-.41,0-.81,0-1.22,0s-.62.13-.93.16C398.1,252.67,397.73,253.14,397.91,254.16Zm4.1-18.53h-.24c-.61-.06-1.16-.16-1.25.78s.4,1,1.11,1a3.4,3.4,0,0,1,.7.11c.59.16.85,0,.92-.66C403.37,235.7,403.42,235.71,402,235.63Zm-3.36,22.6h0a1.93,1.93,0,0,0,.48,0c.38-.1.9-.13,1.09-.38s.21-1,0-1.1-.8-.1-1.22-.09a2.19,2.19,0,0,0-.93.13,6.87,6.87,0,0,0-1,.81c.35.21.7.44,1.07.62A1.22,1.22,0,0,0,398.65,258.23Zm5.54-43.66a6.13,6.13,0,0,1,.86,0c.67.07.8-.29.8-.86s-.44-.76-.88-.63c-.75.23-1.93-.65-2.24.53S403.57,214.45,404.19,214.57Zm.63-5a3.64,3.64,0,0,0,1.19-.4,1,1,0,0,0-.14-1,5.1,5.1,0,0,0-1.44-.4c-.92-.22-1.1.25-1.05,1C403.46,209.94,404.29,209.3,404.82,209.61Zm-.63,6.61v.05a2.4,2.4,0,0,0,.93,0c.27-.11.45-.42.68-.64-.22-.21-.41-.56-.65-.6a5.77,5.77,0,0,0-1.76,0,.89.89,0,0,0-.53.67c0,.21.37.46.63.58S404,216.23,404.19,216.22Zm.71-11.28c-.66,0-1.36-.19-1.27.79.12,1.22,1.18.65,1.76.82.77.24.49-.61.54-1C406.09,204.5,405.2,205.13,404.9,204.94Zm-.58,12.56.52,0c.36,0,.91.25.79-.43a1.13,1.13,0,0,0-.72-.68,3.59,3.59,0,0,0-1.53,0c-.27.06-.46.45-.68.7.24.15.47.39.73.42A2.88,2.88,0,0,0,404.32,217.5Zm-.91,7.15v0a4.76,4.76,0,0,0,1.07,0c.21,0,.37-.31.56-.48-.18-.16-.34-.43-.53-.46a6.68,6.68,0,0,0-1.67-.06c-.23,0-.42.34-.63.53a3.18,3.18,0,0,0,.61.5A1.44,1.44,0,0,0,403.41,224.65Zm1.41-20.05,0-.1a1.84,1.84,0,0,0,.47,0,5.86,5.86,0,0,0,.69-.28c-.2-.15-.39-.32-.6-.46a.64.64,0,0,0-.34-.09c-.44,0-.89.05-1.33.11a.86.86,0,0,0-.06.42C404.05,204.35,404.44,204.47,404.82,204.6Zm-2.05-13.2c-.38,1,.16,1.41,1,1.57C404.14,192,403.67,191.6,402.77,191.4Zm3,16.19.07-.5c-.6-.08-1.2-.18-1.81-.22-.14,0-.29.18-.43.28.14.14.27.41.43.42C404.6,207.62,405.19,207.59,405.77,207.59Zm-6,54.74,0-.36h-1.95l0,.25ZM364.2,74.7l-.4-.08-.52,1.94.43.11Zm-6.35,61.23-.34.07c.13.28.25.57.39.84a2,2,0,0,0,.32-.1Zm46.6,57.45h.07V192.3h-.07Zm10.14-97.77-.25.08.25.48Z" />
        <path class="color-base"
            d="M370.05,192.23a25.38,25.38,0,0,0-3.38-1.69c-2.76-.91-5.63-1.51-8.35-2.52a37.79,37.79,0,0,1-5.62-2.89c-1.38-.79-2.67-1.74-4-2.65a4.09,4.09,0,0,1-.71-.83c.39-1.2.8-2.4,1.18-3.61q2.52-8.08,5-16.19c.49-1.6.9-3.23,1.4-5,.25.32.38.47.48.62a28.46,28.46,0,0,0,2.77,4c2.57,2.62,5.27,5.12,8,7.56,2.28,2,4.66,4,7.09,5.84,2,1.55,4.13,3,6.26,4.39,3.63,2.38,7.27,4.79,11.64,5.67a36,36,0,0,0,4.92.81c.91.06,2,.52,2.8-.35l.84,0c1.45,0,1.59.26,1.17,1.72-.58,2-1.12,4.06-1.7,6.09-.23.81.3,1.13.87,1.31a1.74,1.74,0,0,1,1.26,1.65,39.29,39.29,0,0,1-.33,11.2c0,.16-.07.32-.08.48-.2,2.51-.08,2.37-2.92,2.31a83.11,83.11,0,0,1-14.34-1.55c-1.83-.37-3.61-1-5.42-1.45-.29-.29-.53-.69-.88-.86A62.07,62.07,0,0,1,364.17,197l-1.95-1.7.17-.24,17.47,4a11.87,11.87,0,0,0-.93-.81c-1.92-1.34-3.84-2.68-5.78-4-.9-.62-1.83-1.21-2.74-1.81l-.38-.22Z" />
        <path class="color-base"
            d="M412.5,208.47c-1.71.45-3.37,1.2-5.08,1a89.38,89.38,0,0,0-.47-20.88c-.05-.36-.08-.72-.11-1.07-.07-.82-.47-1.91-.1-2.39s1.53-.43,2.35-.6l2.22-.45c.32.07.67.27.94.19a30.68,30.68,0,0,0,3.4-1.11c3.06-1.24,6.13-2.48,9.14-3.84,6.34-2.85,12.11-6.48,16.71-11.85,2.9-3.39,6.12-6.51,9.19-9.75a12.46,12.46,0,0,0,1-1.17c1-1.31,1.93-2.63,2.93-3.92.16-.21.51-.28.77-.41a2.87,2.87,0,0,1,.25.73,37.65,37.65,0,0,0,.24,4c.7,4,2.68,7.36,5,10.59,1.47,2,3.38,3.83,3.62,6.61a1.62,1.62,0,0,1-1,1.94c-2.51,1.3-5,2.62-7.4,4.11-2.74,1.7-5.36,3.57-8,5.39-1.16.79-2.27,1.65-3.41,2.48l.14.28,1.85-.57.16.34c-2.46,1.67-4.92,3.33-7.38,5a11.22,11.22,0,0,0-1.05.91l-4.54,2.46h0a.14.14,0,0,1-.12.06,16.89,16.89,0,0,1-1.66.8c-2.27.86-4.58,1.62-6.82,2.54a30.12,30.12,0,0,0-3.6,2c-.55.32-1,.76-1.54,1.12l-7.48,5.1C412.58,208.22,412.56,208.37,412.5,208.47Z" />
        <path class="color-shadow"
            d="M441,135.88c2.35.12,4.71.12,7.05.39a6,6,0,0,1,5.15,5.25c.09,2.19,0,4.53-1.32,6.45-2.59,3.64-5.27,7.22-7.92,10.82-2,2.67-3.91,5.35-5.92,8a25.05,25.05,0,0,1-7.31,6.75,2,2,0,0,1-1.35.18c-3.84-.93-7.66-1.91-11.48-2.88a1.77,1.77,0,0,1-1.38-1.34c-.81-2.71-1.77-5.39-2.44-8.13a32.55,32.55,0,0,1-.46-5c-.21-2.82-.43-5.64-.6-8.46a23,23,0,0,1,.07-2.87,9.67,9.67,0,0,0,.3-1.88c-.23-1.74.84-2.33,2.14-3.07,3.19-1.83,6.75-2.15,10.22-2.8A78.72,78.72,0,0,1,441,135.88Zm-4.64,9.47c-1.71-1.94-7.52-2.66-9.71-1.17Z" />
        <path class="color-shadow"
            d="M378.05,173.71c-.46-.41-.74-.62-1-.86l-9.13-9.12c-1.94-1.95-3.93-3.86-5.79-5.88a20,20,0,0,1-4.77-11.52,20.63,20.63,0,0,1,.21-4.36c.06-.67.32-1.37,1.15-1.48s1.83-.84,2.71.26c4,5,9.24,8.79,13.89,13.16a5.9,5.9,0,0,1,2,3.92c.39,3.77.84,7.53,1.11,11.3A31.81,31.81,0,0,1,378.05,173.71Z" />
        <path class="color-shadow"
            d="M438.42,194.08a11.22,11.22,0,0,1,1.05-.91c2.46-1.69,4.92-3.35,7.38-5l-.16-.34-1.85.57-.14-.28c1.14-.83,2.25-1.69,3.41-2.48,2.66-1.82,5.28-3.69,8-5.39,2.39-1.49,4.89-2.81,7.4-4.11a1.62,1.62,0,0,0,1-1.94c-.24-2.78-2.15-4.58-3.62-6.61-2.33-3.23-4.31-6.61-5-10.59a37.65,37.65,0,0,1-.24-4,2.87,2.87,0,0,0-.25-.73c-.26.13-.61.2-.77.41-1,1.29-1.95,2.61-2.93,3.92a12.46,12.46,0,0,1-1,1.17c-3.07,3.24-6.29,6.36-9.19,9.75-4.6,5.37-10.37,9-16.71,11.85-3,1.36-6.08,2.6-9.14,3.84a30.68,30.68,0,0,1-3.4,1.11c-.27.08-.62-.12-.94-.19,5.27-1.49,10-4.23,14.83-6.66a42.17,42.17,0,0,0,15.8-13.64c2.1-3,4.54-5.77,6.74-8.7a43.6,43.6,0,0,0,6.26-11.56,37.1,37.1,0,0,1,3.52,4.16,7,7,0,0,1,.91,3.39c.12,3-.07,6,.61,9a18.67,18.67,0,0,0,2.48,5.8q2.91,4.6,5.7,9.29a3,3,0,0,1-1.29,4.11,25.82,25.82,0,0,1-2.51,1.15c-4.15,1.59-7.66,4.24-11.35,6.63a95.86,95.86,0,0,1-9.25,5.27A33.5,33.5,0,0,1,438.42,194.08Z" />
        <path class="color-shadow"
            d="M399.58,185.34c-.83.87-1.89.41-2.8.35a36,36,0,0,1-4.92-.81c-4.37-.88-8-3.29-11.64-5.67-2.13-1.4-4.24-2.84-6.26-4.39-2.43-1.87-4.81-3.81-7.09-5.84-2.74-2.44-5.44-4.94-8-7.56a28.46,28.46,0,0,1-2.77-4c-.1-.15-.23-.3-.48-.62-.5,1.8-.91,3.43-1.4,5q-2.47,8.11-5,16.19c-.38,1.21-.79,2.41-1.18,3.61l-5,1.26a3,3,0,0,1,.15-.69c1.37-2.84,2.73-5.68,4.13-8.51a57.06,57.06,0,0,0,5.07-14.65c.9-4.7,1.92-9.36,2.89-14a2.76,2.76,0,0,1,.28-.56c.14,1.65.13,3.12.4,4.53a24.47,24.47,0,0,0,7.53,13.6c2.82,2.6,5.57,5.28,8.47,7.79A103.94,103.94,0,0,0,388.26,182c3,1.72,6.44,2.29,9.8,3C398.56,185.15,399.07,185.24,399.58,185.34Z" />
        <path class="color-shadow"
            d="M370.41,192.43c.91.6,1.84,1.19,2.74,1.81,1.94,1.32,3.86,2.66,5.78,4a11.87,11.87,0,0,1,.93.81l-17.47-4-.17.24,1.95,1.7a62.07,62.07,0,0,0,13.88,9.19c.35.17.59.57.88.86a47.21,47.21,0,0,1-12.74-5.28,38.22,38.22,0,0,1-10.87-9.39c-1.15-1.47-2.45-2.83-3.66-4.25A7.42,7.42,0,0,1,351,187a.93.93,0,0,0,.14-.14c6,2.91,12.55,3.78,18.91,5.35l0,0Z" />
        <path class="color-shadow"
            d="M412.5,208.47c.06-.1.08-.25.16-.31l7.48-5.1c.52-.36,1-.8,1.54-1.12a30.12,30.12,0,0,1,3.6-2c2.24-.92,4.55-1.68,6.82-2.54a16.89,16.89,0,0,0,1.66-.8l.12-.06h0l4.73-1,.1.09a49.58,49.58,0,0,1-4.54,4,67.47,67.47,0,0,1-11.33,6.69,34.18,34.18,0,0,1-7.85,2A18.71,18.71,0,0,1,412.5,208.47Z" />
        <path class="color-base"
            d="M403.88,187.2l.65-.43v4.59l-2.14-.54-.41,2.34,0,.37c-.47-.12-.78-.32-.65-.92.47-2.05.9-4.11,1.53-6.16,0,.23,0,.53.12.68s.58.93.94.06Z" />
        <path class="color-base"
            d="M398.2,260c.25,0,.5-.06.75-.07.48,0,1.1-.27,1.08.63,0,.65,0,1.23-1,1.09-.36-.06-.73,0-1.08,0s-1-.23-1-.35a4.8,4.8,0,0,1,.33-1.25,4.54,4.54,0,0,1-.33-1.19c0-.1.62-.28,1-.31a5.75,5.75,0,0,1,1.55,0c.23,0,.59.35.58.51a.87.87,0,0,1-.53.62,7.53,7.53,0,0,1-1.43.09Z" />
        <path class="color-shadow"
            d="M401.27,240a7.69,7.69,0,0,0,.83,0c.54-.06.71.19.65.69,0,.23,0,.47-.06.71-.17,1.69-.79,2.14-2.48,1.75-.14,0-.38-.14-.38-.2,0-.59.14-1.17.14-1.76s.29-1,.95-1c.11,0,.2-.12.3-.18Z" />
        <path class="color-shadow"
            d="M403.63,226.71c.79-.44,1.1-.17,1,.69,0,.28,0,.56,0,.83-.15,2.15-.7,2.63-2.77,2.31-.16,0-.38-.45-.37-.68,0-.47-.14-1.13.66-1.16a15.44,15.44,0,0,0,2-.13l-.76-.2Z" />
        <path class="color-base"
            d="M406.15,212l-3.55-.32c.1-.56.11-1.69.32-1.73a5.1,5.1,0,0,1,2.69.14C406,210.19,406,211.24,406.15,212Z" />
        <path class="color-base"
            d="M406.27,202.27c-.22.38-.4,1.07-.65,1.1-1.48.17-2-.24-1.91-1.54,0-.43-.47-1.21.59-1.2C405.67,200.64,406.08,201,406.27,202.27Z" />
        <path class="color-base"
            d="M397.61,254.82c.91-.14,1.82-.3,2.73-.38.09,0,.35.46.29.63-.13.4-.35,1-.65,1.06a16.6,16.6,0,0,1-2.56.34l-.1-.25.17-1.11Z" />
        <path class="color-shadow"
            d="M393.62,170.11c1.28,2.19,2.54,4.38,3.84,6.55a17.37,17.37,0,0,1,1.36,2.28,33.57,33.57,0,0,1-5.49-8.54Z" />
        <path class="color-base"
            d="M401.27,240l0,0-.72-.13-.22-.29c.1-1.93.62-2.29,2.47-1.67.15,0,.3.42.27.62-.08.49.13,1.2-.72,1.3C402,239.8,401.62,239.89,401.27,240Z" />
        <path class="color-shadow"
            d="M400.17,250.08c.42.22,1.15.39,1.2.69a1,1,0,0,1-1.12,1.26c-.19,0-.39.15-.58.13-.47,0-1.16.54-1.36-.33s.3-1.43,1.27-1.48l.48,0Z" />
        <path class="color-base"
            d="M401.16,248.66c-.36,0-.72,0-1.07,0s-1.14.21-1-.69c.07-.69,0-1.32,1.09-1.28,1.88.06,1.88,0,1.52,1.94Z" />
        <path class="color-base"
            d="M397.91,254.16c-.18-1,.19-1.49,1.08-1.58.31,0,.62-.14.93-.16s.81,0,1.22,0a4.35,4.35,0,0,1-.29,1.38c-.13.23-.63.32-1,.35C399.24,254.2,398.61,254.16,397.91,254.16Z" />
        <path class="color-shadow"
            d="M402,235.63c1.41.08,1.36.07,1.24,1.26-.07.67-.33.82-.92.66a3.4,3.4,0,0,0-.7-.11c-.71,0-1.21-.07-1.11-1s.64-.84,1.25-.78Z" />
        <path class="color-shadow"
            d="M404.83,219.85a1.91,1.91,0,0,1,.5.16c-.06,1,.13,2.15-.35,2.88-.32.48-1.59.33-2.44.46a2.56,2.56,0,0,1-.09-.9A.82.82,0,0,1,403,222a14,14,0,0,1,1.6-.24Z" />
        <path class="color-base"
            d="M398.65,258.23a1.22,1.22,0,0,1-.47,0c-.37-.18-.72-.41-1.07-.62a6.87,6.87,0,0,1,1-.81,2.19,2.19,0,0,1,.93-.13c.42,0,.93-.11,1.22.09s.17.85,0,1.1-.71.28-1.09.38a1.93,1.93,0,0,1-.48,0Z" />
        <path class="color-shadow"
            d="M404.19,214.57c-.62-.12-1.81.36-1.46-.95s1.49-.3,2.24-.53c.44-.13.88,0,.88.63s-.13.93-.8.86A6.13,6.13,0,0,0,404.19,214.57Z" />
        <path class="color-shadow"
            d="M404,197.73a9.09,9.09,0,0,0,1.27.21c.61,0,1,.23.88.93s-.6.38-1,.33h-.58l1.13.66-.07.25-1.74-.37c-.07,0-.12-.1-.18-.15.76-.62-.57-1.23,0-1.86Z" />
        <path class="color-shadow"
            d="M404.82,209.61c-.53-.31-1.36.33-1.44-.74-.05-.78.13-1.25,1.05-1a5.1,5.1,0,0,1,1.44.4,1,1,0,0,1,.14,1A3.64,3.64,0,0,1,404.82,209.61Z" />
        <path class="color-base" d="M402.18,244.06l-.48.91h-.25l-1.64,0-.26-.21c.09-1.38.26-1.48,2.41-1.43Z" />
        <path class="color-base"
            d="M404.83,219.85l-.23,1.91h-1c-.64,0-1.11,0-1-.95s.41-1.08,1.17-1A9.38,9.38,0,0,0,404.83,219.85Z" />
        <path class="color-base"
            d="M404.53,219.42c-.28,0-.56,0-.84,0-.44,0-1,.38-1-.49,0-.68,0-1.2.94-1.07a13.65,13.65,0,0,0,1.43,0Z" />
        <path class="color-shadow"
            d="M404.19,216.22c-.24,0-.51.11-.7,0s-.62-.37-.63-.58a.89.89,0,0,1,.53-.67,5.77,5.77,0,0,1,1.76,0c.24,0,.43.39.65.6-.23.22-.41.53-.68.64a2.4,2.4,0,0,1-.93,0Z" />
        <path class="color-base"
            d="M404.9,204.94c.3.19,1.19-.44,1,.63-.05.37.23,1.22-.54,1-.58-.17-1.64.4-1.76-.82C403.54,204.75,404.24,204.94,404.9,204.94Z" />
        <path class="color-shadow"
            d="M401.16,248.66l.49,0c-.13.47-.18,1.29-.42,1.35a8.77,8.77,0,0,1-2.35.06.83.83,0,0,1-.11-.58.81.81,0,0,1,.47-.49C399.87,248.81,400.52,248.75,401.16,248.66Z" />
        <path class="color-base" d="M401.22,232.79a1,1,0,0,1-.05-.23c0-1.73,0-1.73,1.73-1.59v1.76l-1.17.06Z" />
        <path class="color-shadow"
            d="M404.32,217.5a2.88,2.88,0,0,1-.89.07c-.26,0-.49-.27-.73-.42.22-.25.41-.64.68-.7a3.59,3.59,0,0,1,1.53,0,1.13,1.13,0,0,1,.72.68c.12.68-.43.45-.79.43Z" />
        <path class="color-shadow"
            d="M403.41,224.65a1.44,1.44,0,0,1-.59,0,3.18,3.18,0,0,1-.61-.5c.21-.19.4-.5.63-.53a6.68,6.68,0,0,1,1.67.06c.19,0,.35.3.53.46-.19.17-.35.43-.56.48a4.76,4.76,0,0,1-1.07,0Z" />
        <path class="color-base"
            d="M403.63,226.71l-.25,1.66a1.65,1.65,0,0,1-.7,0c-.33-.14-.84-.36-.86-.59-.05-.51,0-1.16.87-1A5,5,0,0,0,403.63,226.71Z" />
        <path class="color-shadow"
            d="M401.45,245h.25a2.72,2.72,0,0,1,.23,1c0,.15-.58.23-.9.27a3,3,0,0,1-.94,0,3.61,3.61,0,0,1-.76-.32,3.24,3.24,0,0,1,.78-.67A6.68,6.68,0,0,1,401.45,245Z" />
        <path class="color-shadow"
            d="M401.22,232.79h.52c.4.09.81.15,1.2.26a5.42,5.42,0,0,1,.73.35,3.18,3.18,0,0,1-.71.57,2.26,2.26,0,0,1-.83.09C400.89,234.08,400.86,234,401.22,232.79Z" />
        <path class="color-shadow" d="M426.65,83.76l-3.49,3.39-.07-.53,3.31-3.38Z" />
        <path class="color-base" d="M404,197.73h-.28l-.06-.7,1-1.22.95-.05,0,1.92Z" />
        <path class="color-base"
            d="M403.88,226.29a7.77,7.77,0,0,1-1.18,0A2.64,2.64,0,0,1,402,226c.19-.29.32-.7.59-.84a4.33,4.33,0,0,1,1.27-.2Z" />
        <path class="color-shadow"
            d="M402,193.53l0-.37c.76.06,1.6,0,1.92,1,0,0,.15,0,.22.08l.39.21c-.17.07-.39.26-.5.21C403.31,194.28,402.64,193.89,402,193.53Z" />
        <path class="color-shadow" d="M402.91,232.73V231c.44,0,1-.47,1.19.33A1.11,1.11,0,0,1,402.91,232.73Z" />
        <path class="color-shadow"
            d="M404.82,204.6c-.38-.13-.77-.25-1.14-.41a.86.86,0,0,1,.06-.42c.44-.06.89-.09,1.33-.11a.64.64,0,0,1,.34.09c.21.14.4.31.6.46a5.86,5.86,0,0,1-.69.28,1.84,1.84,0,0,1-.47,0Z" />
        <path class="color-base"
            d="M402.43,235.37a1.26,1.26,0,0,1-.47,0c-.39-.16-.76-.36-1.14-.54.35-.13.7-.28,1.06-.4a7.25,7.25,0,0,1,.78-.17Z" />
        <path class="color-base" d="M402.77,191.4c.9.2,1.37.64,1,1.57C402.93,192.81,402.39,192.42,402.77,191.4Z" />
        <path class="color-shadow" d="M404.6,195.81l-1,1.22-.54-1.53Z" />
        <path class="color-shadow"
            d="M405.77,207.59c-.58,0-1.17,0-1.74,0-.16,0-.29-.28-.43-.42.14-.1.29-.29.43-.28.61,0,1.21.14,1.81.22Z" />
        <path class="color-shadow"
            d="M405.57,197.68l0-1.92.36-1.69.19,0c0,1.06,0,2.12,0,3.17C406.07,197.41,405.75,197.54,405.57,197.68Z" />
        <path class="color-shadow" d="M403.88,226.29v-1.38c.56-.11,1-.16,1,.68S404.47,226.43,403.88,226.29Z" />
        <path class="color-shadow" d="M415.86,97.71l.68,2.3-.39.13-.73-2.34Z" />
        <path class="color-shadow" d="M404.53,219.42l.54-1.49c1.1.15.28.92.45,1.38Z" />
        <path class="color-base" d="M404.84,212.7h-2.1v-.51h2.09Z" />
        <path class="color-shadow" d="M399.75,262.33l-1.95-.11,0-.25h1.95Z" />
        <path class="color-shadow" d="M402.43,235.37l.23-1.09c.44-.06.82-.06.79.55S402.91,235.45,402.43,235.37Z" />
        <path class="color-base" d="M364.2,74.7l-.49,2-.43-.11.52-1.94Z" />
        <path class="color-shadow" d="M356.85,59.53l-1.26,1.55-.29-.25,1.11-1.35Z" />
        <path class="color-shadow" d="M387.81,180.24v-2.08l.18,0,.28,2.32Z" />
        <path class="color-shadow"
            d="M403.89,187.19c-.19,0-.46,0-.54-.11a1,1,0,0,1-.1-.65c0-.1.21-.18.33-.27a4,4,0,0,1,.3.58,1.42,1.42,0,0,1,0,.46Z" />
        <path class="color-shadow" d="M404.84,212.7v-.51l1.1.34v.25Z" />
        <path class="color-base" d="M357.85,135.93l.37.81a2,2,0,0,1-.32.1c-.14-.27-.26-.56-.39-.84Z" />
        <path class="color-shadow" d="M404.45,193.38V192.3h.07v1.08Z" />
        <path class="color-shadow" d="M402.18,244.06l-.22-.7C402.61,243.41,402.41,243.73,402.18,244.06Z" />
        <path class="color-base" d="M411.42,85.19l-.41-.66.19-.18.63.78Z" />
        <path class="color-base" d="M414.84,97.46l-.26-.92.26-.11.31.75Z" />
        <path class="color-shadow" d="M354.75,140.1l.11,0,.07.09-.09.66-.09,0Z" />
        <path class="color-shadow" d="M414.59,95.61v.56l-.25-.48Z" />
        <path class="color-base" d="M411,84.53l-.11-.38.3.2Z" />
        <path class="color-shadow" d="M351,187l-.05-.27.19.13A.93.93,0,0,1,351,187Z" />
        <path class="color-shadow" d="M438.61,195.52l.24,0-.14.13Z" />
        <path class="color-shadow" d="M400.28,239.51l.22.29Z" />
        <path class="color-base" d="M375.79,69l.25-.09-.1.23C375.84,69.12,375.79,69.07,375.79,69Z" />
        <path class="color-base" d="M376.58,68.68l-.3.14.15-.29Z" />
        <path class="color-shadow" d="M399.55,244.79l.26.21Z" />
        <path class="color-base" d="M376.43,68.53l.28-.08-.13.23Z" />
        <path class="color-shadow" d="M418,92.12a2,2,0,0,0-.17.23A2,2,0,0,1,418,92.12Z" />
        <path class="color-shadow" d="M397.61,254.82l-.12.29Z" />
        <path class="color-shadow" d="M397.32,256.22l.1.25Z" />
        <path class="color-shadow" d="M427.62,81.73l.89-1.45.36.25-1,1.33Z" />
        <path class="color-shadow" d="M390.87,43.45l-.6-1.11.32-.19.6,1Z" />
        <path class="outline" d="M390.87,43.45l.32-.31a.29.29,0,0,1,.07.2l-.3.2A.11.11,0,0,1,390.87,43.45Z" />
        <path class="outline"
            d="M428,101.88c-.43-.36-.86-.71-1.28-1.08s-.7-.17-.78.33a4.58,4.58,0,0,0,0,.83c0,2,.12,4.06-.08,6.06a6.14,6.14,0,0,1-1.29,2.49,16.11,16.11,0,0,1-1.49,1.72c-.43.51-.86,1,0,1.56a1.21,1.21,0,1,1-2.3-.25,2.41,2.41,0,0,1,1.39-2.21,11.35,11.35,0,0,0,1.39-.71,3.47,3.47,0,0,0,1.69-3.48c-.36-3.66-.36-7.37,1.44-10.75a10,10,0,0,1,1.95-2.53,1.88,1.88,0,0,1,3.17,1.07c-.3-.23-.49-.38-.69-.52a1.87,1.87,0,0,0-2.51.13,8.08,8.08,0,0,0-2.07,4.23c-.05.17.19.44.32.65.51.74,1,1.48,1.56,2.22Z" />
        <path class="outline"
            d="M430.44,105.54a20.7,20.7,0,0,0,1-7.12c0-.43-.12-.86-.18-1.28l.46,0a16.76,16.76,0,0,1-1,8.67Z" />
        <path class="outline"
            d="M427.9,111.62c-.86.41-1.54.76-2.25,1-.17.07-.46-.17-.69-.26.11-.2.16-.47.32-.58A2.16,2.16,0,0,1,427.9,111.62Z" />
        <path class="color-shadow" d="M430.44,105.54l.33.3-.54,1.43-.41-.16Z" />
        <path class="color-shadow" d="M431.72,97.17l-.46,0-.45-.78C431.55,96.33,431.55,96.33,431.72,97.17Z" />
        <path class="color-shadow" d="M428.67,102.19l.56,1.12-.34.18-.52-1Z" />
        <path class="outline" d="M428.67,102.19l-.3.28-.39-.59.37-.24Z" />
        <path class="outline" d="M370.41,192.43l-.38-.22Z" />
        <path class="outline" d="M433.88,196.55l-.12.06A.14.14,0,0,0,433.88,196.55Z" />
        <path class="outline" d="M436.38,145.35l-9.71-1.17C428.86,142.69,434.67,143.41,436.38,145.35Z" />
        <path class="outline" d="M403.86,165.35l-.35-8.24h.33c.76,2.71.48,5.5.52,8.26Z" />
        <path class="color-shadow" d="M404.15,168.47a5.58,5.58,0,0,1-.54,3.07l-.28,0,.47-3Z" />
        <path class="color-shadow" d="M403.86,165.35h.5l-.18,2.42-.32-.28Z" />
        <path class="outline" d="M403.86,167.5l.32.28,0,.69h-.35Z" />
    </g>
</svg>
