<svg id="Nizy_bochonki" data-name="Nizy bochonki" xmlns="http://www.w3.org/2000/svg" viewBox="0 0 672 960">
    <g id="img_17" data-name="img 17">
        <g id="Kashkorse_img" data-name="Kashkorse img">
            <path class="outline"
                d="M312.92,598.55a2.36,2.36,0,0,0,.59.22L347.92,600c6.72.24,13.45.27,20.14.77s13.18,1.55,19.78,2.15c3.22.29,6.47.1,9.71.09,13-.06,25.92-.1,38.87-.22,10.88-.1,21.76-.18,32.63-.52,5.72-.18,11.42-.9,17.12-1.42,4.14-.38,8.26-1.05,12.41-1.22a79,79,0,0,1,9.45.58c.23,0,.61.59.58.87-.09.78-.44,1.53-.54,2.32-.68,5.11-1.65,10.2-.81,15.41.26,1.63-.09,2-1.87,2.29a171.92,171.92,0,0,1-19.1,1.69c-8.7.29-17.4.78-26.11,1.23s-17.57.12-26.37-.15c-12.71-.39-25.43-.38-38.14-.55-12.52-.16-25-1-37.49-2-10.36-.82-20.73-1.6-31.15-1.1-2.39.12-4.79-.17-7.19-.27a1.94,1.94,0,0,1-1.91-1.65c-.82-2.88-1.57-5.79-2.58-8.61-.8-2.25-2-4.34-2.89-6.57a43.7,43.7,0,0,1-1.22-4.56ZM377.71,603l-1,0-2.38-.13-1.23-.13-2.85-.12-1.47-.12-2.37-.12-2.19-.1-6.45-.24-3.59-.15-1.71-.08h-.94c-.32,0-.63-.09-.95-.1l-16.9-.51c-5.47-.16-10.93-.35-16.41-.46-2.14,0-2.31.23-2.05,2.42a5.93,5.93,0,0,0,.24.92c1.28,4.07,2.59,8.14,3.82,12.22.24.79.72.83,1.34.84,4.15.08,8.3.06,12.44.27q11.53.58,23,1.4c7.67.54,15.32,1.34,23,1.8,6.25.38,12.53.43,18.79.61,2.16.07,4.31.07,6.47.11,6.24.12,12.47.26,18.7.36,4,.07,8,.07,12,.15,4.54.08,9.08.34,13.62.32,5.19,0,10.37-.25,15.56-.42,2.47-.08,4.94-.22,7.41-.35,5.45-.28,10.91-.52,16.35-.87,5.18-.34,10.34-.83,15.51-1.22.92-.06,1-.46.83-1.25a8.59,8.59,0,0,1-.36-2.24c0-4.74-.13-9.5,1.34-14.1,0,0-.06-.13-.08-.18a12.25,12.25,0,0,0-2.52-.59c-2.51-.06-5-.13-7.54.06-6.68.49-13.34,1.23-20,1.65-6.18.38-12.37.54-18.55.66-7.92.16-15.83.15-23.74.26-3.84,0-7.67.2-11.51.31-3,0-6.06,0-9.09,0-5.38,0-10.77.2-16.15.11-5-.09-10-.44-15.06-.68l-.51-.06-1.67-.07-.71-.07Z" />
            <path class="color-base"
                d="M378.21,603.07l.71.07c.16.22.3.63.49.65,3.19.36,6.38.83,9.59,1,4.08.17,8.18,0,12.28.06s8.19.32,12.28.45c.79,0,1.59-.25,2.37-.19,3.68.27,7.35.73,11,.89s7.59,0,11.38,0c.28,0,.55-.29.83-.44l5,0h.48c1.87-.08,3.73-.22,5.6-.21,2.62,0,5.24.15,7.87.2q6.92.13,13.85.24c1.85,0,3.71,0,5.56,0H478c7,1.21,13.84-.92,20.86-1.3a11.84,11.84,0,0,1,0,1.69c-.37,2.35-.76,4.7-1.2,7a1.1,1.1,0,0,1-.75.7c-2,.3-4.1.51-6.14.76-2.8.35-5.61.62-8.38,1.09-3,.51-6,1.21-9,1.85a100,100,0,0,1-21.07,2.11,1.44,1.44,0,0,0-.52-.24c-3.72-.25-7.44-.5-11.16-.73-2.85-.17-5.7-.37-8.56-.46-4.26-.14-8.52-.19-12.78-.24-.27,0-.55.29-.83.44h-.69l-.5-.22c-3.72-.24-7.45-.52-11.18-.7-4.21-.21-8.43-.38-12.65-.48-1.78,0-3.58.21-5.36.2-7.31,0-14.61-.11-21.91-.24-1.94,0-3.87-.33-5.81-.51l-11.49-1.15a14.14,14.14,0,0,0-1.46-.36c-3.32-.53-6.63-1.22-10-1.51-4-.36-8-.4-12-.52-.92,0-1.22-.31-1.28-1.24-.09-1.62-.35-3.23-.6-4.83-.19-1.23-.49-2.44-.73-3.64l3.76-.4H328a4.62,4.62,0,0,0,1.15.24c2.5-.06,5-.14,7.51-.25.25,0,.47-.29.71-.45l4.79.23h.72l7.44-.23c.14.07.27.21.4.21,2.14,0,4.27,0,6.4,0,.22,0,.44-.39.65-.6l6.45.24,2.19.1,2.37.12,1.47.12,2.85.12,1.23.13,2.38.13c.08.74.42.82,1,.39Z" />
            <path class="color-shadow-dark"
                d="M477.56,605.74c-1.85,0-3.71,0-5.56,0q-6.93-.11-13.85-.24c-2.63,0-5.25-.19-7.87-.2-1.87,0-3.73.13-5.6.21h-.48l-5,0c-3.1-.09-6.21-.16-9.31-.26a54.18,54.18,0,0,1-5.71-.29c-.94-.14-2.25.2-2.75-1.15,3.84-.11,7.67-.26,11.51-.31,7.91-.11,15.82-.1,23.74-.26,6.18-.12,12.37-.28,18.55-.66,6.68-.42,13.34-1.16,20-1.65,2.5-.19,5-.12,7.54-.06a12.25,12.25,0,0,1,2.52.59s.1.13.08.18c-1.47,4.6-1.32,9.36-1.34,14.1a8.59,8.59,0,0,0,.36,2.24c.2.79.09,1.19-.83,1.25-5.17.39-10.33.88-15.51,1.22-5.44.35-10.9.59-16.35.87-2.47.13-4.94.27-7.41.35-5.19.17-10.37.4-15.56.42-4.54,0-9.08-.24-13.62-.32-4-.08-8-.08-12-.15-6.23-.1-12.46-.24-18.7-.36-2.16,0-4.31,0-6.47-.11-6.26-.18-12.54-.23-18.79-.61-7.68-.46-15.33-1.26-23-1.8s-15.36-1-23-1.4c-4.14-.21-8.29-.19-12.44-.27-.62,0-1.1-.05-1.34-.84-1.23-4.08-2.54-8.15-3.82-12.22a5.93,5.93,0,0,1-.24-.92c-.26-2.19-.09-2.47,2.05-2.42,5.48.11,10.94.3,16.41.46l16.9.51c.32,0,.63.07.95.1l-1.21.64-7.44.23h-.72l-4.79-.23c-2.78,0-5.55,0-8.32,0-.36,0-.7.29-1,.44H326.6l-6.21-.32c.9,3.47,1.83,6.63,2.51,9.85.32,1.53,1.14,1.94,2.51,2,2.69.18,5.37.54,8.06.67,4.77.23,9.55.35,14.32.49a4.91,4.91,0,0,0,1.13-.22l11.49,1.15c1.94.18,3.87.47,5.81.51,7.3.13,14.6.19,21.91.24,1.78,0,3.58-.24,5.36-.2,4.22.1,8.44.27,12.65.48,3.73.18,7.46.46,11.18.7l.5.22h.69c4,.24,7.92.52,11.89.72,2.82.14,5.64.16,8.47.26,1.74.06,3.49.16,5.23.27,2.38.14,4.75.32,7.13.42.37,0,.76-.29,1.13-.44a100,100,0,0,0,21.07-2.11c3-.64,6-1.34,9-1.85,2.77-.47,5.58-.74,8.38-1.09,2-.25,4.1-.46,6.14-.76a1.1,1.1,0,0,0,.75-.7c.44-2.34.83-4.69,1.2-7a11.84,11.84,0,0,0,0-1.69c-7,.38-13.84,2.51-20.86,1.3Z" />
            <path class="color-shadow"
                d="M421.4,603.82c.5,1.35,1.81,1,2.75,1.15a54.18,54.18,0,0,0,5.71.29c3.1.1,6.21.17,9.31.26-.28.15-.55.44-.83.44-3.79,0-7.59.14-11.38,0s-7.35-.62-11-.89c-.78-.06-1.58.21-2.37.19-4.09-.13-8.19-.37-12.28-.45s-8.2.11-12.28-.06c-3.21-.12-6.4-.59-9.59-1-.19,0-.33-.43-.49-.65l1.67.07.51.06c5,.24,10,.59,15.06.68,5.38.09,10.77-.07,16.15-.11C415.34,603.82,418.37,603.83,421.4,603.82Z" />
            <path class="color-shadow"
                d="M350.36,602.39l1.21-.64h.94l1.71.08,3.59.15c-.21.21-.43.6-.65.6-2.13,0-4.26,0-6.4,0C350.63,602.6,350.5,602.46,350.36,602.39Z" />
            <path class="color-shadow-dark" d="M366.45,602.33l-2.19-.1Z" />
            <path class="color-shadow-dark" d="M354.22,601.84l-1.71-.08Z" />
            <path class="color-shadow-dark" d="M370.29,602.57l-1.47-.12Z" />
            <path class="color-shadow" d="M377.72,603.34c-.55.43-.89.35-1-.39l1,0Z" />
            <path class="color-shadow-dark" d="M374.37,602.82l-1.23-.13Z" />
            <path class="color-shadow-dark" d="M377.72,603.34V603l.5.09Z" />
            <path class="color-shadow-dark" d="M381.1,603.27l-.51-.06Z" />
            <path class="color-shadow"
                d="M348.92,615.35a4.91,4.91,0,0,1-1.13.22c-4.77-.14-9.55-.26-14.32-.49-2.69-.13-5.37-.49-8.06-.67-1.37-.09-2.19-.5-2.51-2-.68-3.22-1.61-6.38-2.51-9.85l6.21.32-3.76.4c.24,1.2.54,2.41.73,3.64.25,1.6.51,3.21.6,4.83.06.93.36,1.22,1.28,1.24,4,.12,8,.16,12,.52,3.35.29,6.66,1,10,1.51A14.14,14.14,0,0,1,348.92,615.35Z" />
            <path class="color-shadow"
                d="M452.36,619.68c-.37.15-.76.46-1.13.44-2.38-.1-4.75-.28-7.13-.42-1.74-.11-3.49-.21-5.23-.27-2.83-.1-5.65-.12-8.47-.26-4-.2-7.93-.48-11.89-.72.28-.15.56-.44.83-.44,4.26,0,8.52.1,12.78.24,2.86.09,5.71.29,8.56.46,3.72.23,7.44.48,11.16.73A1.44,1.44,0,0,1,452.36,619.68Z" />
            <path class="color-shadow"
                d="M328,602.85c.35-.15.69-.44,1-.44,2.77,0,5.54,0,8.32,0-.24.16-.46.44-.71.45-2.5.11-5,.19-7.51.25A4.62,4.62,0,0,1,328,602.85Z" />
            <path class="color-shadow" d="M342.2,602.62h0Z" />
            <path class="color-shadow" d="M444.2,605.5h0Z" />
            <path class="color-shadow" d="M477.56,605.74h0Z" />
            <path class="color-shadow" d="M417.82,618.45l-.5-.22Z" />
        </g>
    </g>
</svg>
