<svg id="Nizy_bochonki" data-name="Nizy bochonki" xmlns="http://www.w3.org/2000/svg" viewBox="0 0 672 960">
    <g id="img_17" data-name="img 17">
        <g id="img_10_img" data-name="img 10 img">
            <path class="outline"
                d="M495.88,594.18c2.51.79,5,1.53,7.51,2.38,1.42.49,2.69,1.37,4.33,1.18,1.08-.13,1.63.7,1.55,1.69a9.11,9.11,0,0,1-.69,2.75c-1.39,3.4-2.92,6.74-4.28,10.15a4.83,4.83,0,0,1-4.52,3.35c-5.5.24-11,.9-16.51.38-5.81-.53-11.66-.5-17.5-.74-10-.42-20-.8-29.94-1.3-14.29-.71-28.57-1.57-42.88-.36-5.25.44-10.5,1.14-15.76,1.31-5.08.15-9.93,1.64-14.94,2.08s-10.17,1.31-15.27,1.5a66,66,0,0,1-16.22-1.32,29.22,29.22,0,0,1-3-1c-2.34-.78-4.66-1.66-7-2.33s-4-2-4.44-4.49a35.18,35.18,0,0,0-2.84-8.37c-1.14-2.64-2.2-5.32-3.21-8-.36-1-1-2.11.64-3l1.44,2.53a69.19,69.19,0,0,0,7.71,2.46,70.26,70.26,0,0,0,10.8,1.46c6.41.3,12.74-.84,19.1-1.52,7.71-.82,15.45-1.78,23.18-1.84,22.48-.18,45,.06,67.43.14a8.65,8.65,0,0,0,5.81,0l5.27-.08c2.79.06,5.58.16,8.37.18,2.3,0,4.61-.08,6.92-.12l1.63,0a10.87,10.87,0,0,1-1.58.27c-4.87.18-9.73.45-14.6.47-15.91.06-31.82,0-47.73,0-8.72,0-17.44-.06-26.15.13-6.54.14-13.08.59-19.61,1-3.1.2-6.2.59-9.28,1a155.78,155.78,0,0,1-19.53,1.8,26.75,26.75,0,0,1-10.31-1.82c-2.13-.82-4.37-1.34-6.74-2.05-.11,1.49.24,2.46,1.46,2.9a18.29,18.29,0,0,0,3.2.94c2,.36,4.1.65,6.16.82a87.54,87.54,0,0,0,9.56.55,96,96,0,0,0,11-1,216.25,216.25,0,0,1,24.12-1.71c10.7-.29,21.41-.26,32.12-.49,11.9-.25,23.8-.74,35.7-.92,6.23-.1,12.46.37,18.69.34a224.47,224.47,0,0,1,26.57,1c6.46.72,12.75,2,18.63,5a12.16,12.16,0,0,0,4.12,1.1c1.66.19,1.81-.11,1.88-2.19-2.28-1-4.58-2.14-6.94-3.08a52.91,52.91,0,0,0-17.56-3.3c-3-.12-6.08,0-9.11-.15a8.46,8.46,0,0,1-2.18-.68l4.69.06c.19.14.38.38.57.38,2.85,0,5.71,0,8.56,0l6.23.13ZM329.24,609.6l1.33,2c.58,2.47,2,3.86,4.66,3.86.39,0,.78.15,1.17.19l10.5.88c.29-1,.51-1.77.72-2.51l1.23-3.06.43.13c-.1,1.55-.21,3.09-.32,4.81,1.14,0,2.17-.05,3.18,0a2.58,2.58,0,0,0,2.77-1.78c.63-1.43,1.44-2.78,2.17-4.17l.36.16-.9,5.43,8.87-.87v-5.14l.51-.11c.43,1.15.85,2.31,1.3,3.45.58,1.47.79,1.59,2.32,1.28a13.47,13.47,0,0,0,1.47-.51c-.26-.9-.47-1.6-.67-2.3a7.28,7.28,0,0,1,1.74,1.37c.4.35.94.8,1.4.77,3-.16,5.94-.44,8.9-.67-.52-2.1-1-3.86-1.41-5.63l-.14-1.07.69.21.51.89,3,5.34,3.63-.3.36-3.57c.76,1.32,1.31,2.27,1.94,3.34,3.51-.17,7-.29,10.49-.56.61-.05,1.22-.69,1.74-1.15.83-.73,1.6-1.55,2.39-2.33l.25.27-1.09,3.25c1.71,0,3.14,0,4.57,0a2.13,2.13,0,0,0,2.11-1.22,11.58,11.58,0,0,1,1.74-1.92l.29.27c-.32.86-.65,1.71-1.11,2.91h10.1c-.19-.65-.39-1.38-.59-2.12a9,9,0,0,0,7,2.73c4.38.05,8.75.51,13.13.74,1.46.07,2.92,0,4.59,0-.56-2.13-1-3.88-1.49-5.64l-.15-1.49.5.1c.31.63.62,1.26.92,1.89a41.3,41.3,0,0,0,2.23,4.22,3.18,3.18,0,0,0,2.09,1.31c2.86.2,5.74.16,8.62.22a1.41,1.41,0,0,0,1.58-1.4c.21-1.26.48-2.51.72-3.76l.61-.12c.25,1.7.5,3.4.77,5.2l16.07.45c.13-1.4.23-2.46.34-3.61,1.22,1.32,2.07,2.94,3.36,3.47a6.81,6.81,0,0,0,4.47.16v-6.19a.42.42,0,0,0,.07-.36l.2,0h.19l.26.53c.35,2,.69,4,1.05,6.08a13.37,13.37,0,0,0,7.69-.7c.12-.83.22-1.55.37-2.56.52.68.78,1.07,1.1,1.41,1.05,1.11,1.81,1.16,2.75,0,1.75-2.25,2.65-5,4.36-7.84-3.3.62-5.54-.6-7.78-1.85-.34-.19-.72-.33-1.08-.49a35,35,0,0,0-11.93-3.38c-5.73-.5-11.48-.77-17.22-.94-8.15-.24-16.31-.32-24.46-.43-2.16,0-4.32,0-6.48.09-5.11.19-10.22.5-15.33.63-8.55.21-17.1.32-25.66.47l-22.3.34a17.28,17.28,0,0,0-1.9-.1c-6.85.32-13.71.6-20.55,1-3.58.22-7.15.62-10.7,1.11a58.13,58.13,0,0,1-17.86,0c-2.3-.39-4.62-.63-6.85-.92,1.21,3.1,2.33,6.07,3.53,9a2.68,2.68,0,0,0,1.25,1.3,30.78,30.78,0,0,0,3.26,1.13c.34-.56.57-.92.83-1.34a17.27,17.27,0,0,0,2.41,2.78,5.31,5.31,0,0,0,3.33,1.27c-.3-1.39-.55-2.55-.79-3.7a.69.69,0,0,0,0-.35A1.73,1.73,0,0,0,329.24,609.6Z" />
            <path class="color-shadow-dark"
                d="M470.43,593.33a8.46,8.46,0,0,0,2.18.68c3,.11,6.07,0,9.11.15a52.91,52.91,0,0,1,17.56,3.3c2.36.94,4.66,2.06,6.94,3.08-.07,2.08-.22,2.38-1.88,2.19a12.16,12.16,0,0,1-4.12-1.1c-5.88-3-12.17-4.28-18.63-5a224.47,224.47,0,0,0-26.57-1c-6.23,0-12.46-.44-18.69-.34-11.9.18-23.8.67-35.7.92-10.71.23-21.42.2-32.12.49a216.25,216.25,0,0,0-24.12,1.71,96,96,0,0,1-11,1,87.54,87.54,0,0,1-9.56-.55c-2.06-.17-4.12-.46-6.16-.82a18.29,18.29,0,0,1-3.2-.94c-1.22-.44-1.57-1.41-1.46-2.9,2.37.71,4.61,1.23,6.74,2.05a26.75,26.75,0,0,0,10.31,1.82,155.78,155.78,0,0,0,19.53-1.8c3.08-.43,6.18-.82,9.28-1,6.53-.43,13.07-.88,19.61-1,8.71-.19,17.43-.12,26.15-.13,15.91,0,31.82,0,47.73,0,4.87,0,9.73-.29,14.6-.47a10.87,10.87,0,0,0,1.58-.27Z" />
            <path class="color-shadow-dark"
                d="M467,593.29c-2.31,0-4.62.13-6.92.12-2.79,0-5.58-.12-8.37-.18A65.17,65.17,0,0,1,467,593.29Z" />
            <path class="color-shadow-dark" d="M484.25,593.73c-2.85,0-5.71,0-8.56,0-.19,0-.38-.24-.57-.38Z" />
            <path class="color-shadow-dark" d="M446.39,593.31a8.65,8.65,0,0,1-5.81,0Z" />
            <path class="color-shadow-dark" d="M495.88,594.18l-5.4-.32Z" />
            <path class="color-base"
                d="M372.94,598.6l22.3-.34c8.56-.15,17.11-.26,25.66-.47,5.11-.13,10.22-.44,15.33-.63,2.16-.08,4.32-.13,6.48-.09,8.15.11,16.31.19,24.46.43,5.74.17,11.49.44,17.22.94a35,35,0,0,1,11.93,3.38c-.21,1.55-.42,3.09-.65,4.81l-7.81,1.18c-.08-.18-.17-.36-.26-.53l-.21-.35-.18.37a.42.42,0,0,1-.07.36l-25,.52-.61.12-15.24-.59c-.3-.63-.61-1.26-.92-1.89l-.63-.79c0,.23.09.46.13.69l.15,1.49c-3.41-.17-6.82-.4-10.24-.47-3.91-.08-7.82,0-11.73,0-.47,0-1,.11-1.42.16-2.52.26-5,.71-7.56.74-3.09,0-6.19-.38-9.28-.41-7.58-.06-15.17,0-22.75,0l-.51-.89-.46-.87-.23.66c.05.36.1.71.14,1.07l-11.17.53c-.24,0-.47,0-.71.07a87.73,87.73,0,0,1-9,.82c-6.59,0-13.2.56-19.77-.44-2.65-.4-5.28-.94-7.9-1.49-.34-.07-.58-.63-.86-.95l1.43,0,1-.44c.85-.15,1.71-.28,2.56-.45,5.89-1.21,11.77-2.44,17.67-3.62A60.16,60.16,0,0,1,361,600c3.47-.31,7-.38,10.45-.53C372.15,599.45,372.79,599.45,372.94,598.6Z" />
            <path class="color-shadow"
                d="M331.6,605.7c.28.32.52.88.86.95,2.62.55,5.25,1.09,7.9,1.49,6.57,1,13.18.41,19.77.44a87.73,87.73,0,0,0,9-.82c.24,0,.47-.06.71-.07l11.17-.53c.44,1.77.89,3.53,1.41,5.63-3,.23-5.93.51-8.9.67-.46,0-1-.42-1.4-.77a7.28,7.28,0,0,0-1.74-1.37c.2.7.41,1.4.67,2.3a13.47,13.47,0,0,1-1.47.51c-1.53.31-1.74.19-2.32-1.28-.45-1.14-.87-2.3-1.3-3.45l-.51.11v5.14l-8.87.87.9-5.43-.36-.16c-.73,1.39-1.54,2.74-2.17,4.17a2.58,2.58,0,0,1-2.77,1.78c-1-.07-2,0-3.18,0,.11-1.72.22-3.26.32-4.81l-.43-.13L347.62,614l-8.87-1.3-8.18-1.12-1.33-2L329,609l-.14.73a.69.69,0,0,1,0,.35c-2.31-.82-4.64-1.58-6.91-2.49a2.68,2.68,0,0,1-1.66-2.71,7.46,7.46,0,0,1,1.5-.11c2.87.35,5.7,1.35,8.66.52C330.8,605.23,331.22,605.56,331.6,605.7Z" />
            <path class="color-shadow"
                d="M382,607.19c7.58,0,15.17,0,22.75,0,3.09,0,6.19.45,9.28.41,2.52,0,5-.48,7.56-.74.47,0,.95-.15,1.42-.16,3.91,0,7.82-.06,11.73,0,3.42.07,6.83.3,10.24.47.47,1.76.93,3.51,1.49,5.64-1.67,0-3.13.1-4.59,0-4.38-.23-8.75-.69-13.13-.74a9,9,0,0,1-7-2.73c.2.74.4,1.47.59,2.12H412.3c.46-1.2.79-2,1.11-2.91l-.29-.27a11.58,11.58,0,0,0-1.74,1.92,2.13,2.13,0,0,1-2.11,1.22c-1.43,0-2.86,0-4.57,0l1.09-3.25-.25-.27c-.79.78-1.56,1.6-2.39,2.33-.52.46-1.13,1.1-1.74,1.15-3.48.27-7,.39-10.49.56-.63-1.07-1.18-2-1.94-3.34l-.36,3.57-3.63.3Z" />
            <path class="color-shadow-dark"
                d="M331.6,605.7c-.38-.14-.8-.47-1.11-.38-3,.83-5.79-.17-8.66-.52a7.46,7.46,0,0,0-1.5.11,2.68,2.68,0,0,0,1.66,2.71c2.27.91,4.6,1.67,6.91,2.49.24,1.15.49,2.31.79,3.7a5.31,5.31,0,0,1-3.33-1.27,17.27,17.27,0,0,1-2.41-2.78c-.26.42-.49.78-.83,1.34a30.78,30.78,0,0,1-3.26-1.13,2.68,2.68,0,0,1-1.25-1.3c-1.2-2.92-2.32-5.89-3.53-9,2.23.29,4.55.53,6.85.92a58.13,58.13,0,0,0,17.86,0c3.55-.49,7.12-.89,10.7-1.11,6.84-.43,13.7-.71,20.55-1a17.28,17.28,0,0,1,1.9.1c-.15.85-.79.85-1.45.88-3.49.15-7,.22-10.45.53a60.16,60.16,0,0,0-6.77,1.14c-5.9,1.18-11.78,2.41-17.67,3.62-.85.17-1.71.3-2.56.45-.7-.69-.86-.12-1,.44Z" />
            <path class="color-shadow"
                d="M462.13,608.18l25-.52v6.19a6.81,6.81,0,0,1-4.47-.16c-1.29-.53-2.14-2.15-3.36-3.47-.11,1.15-.21,2.21-.34,3.61l-16.07-.45C462.63,611.58,462.38,609.88,462.13,608.18Z" />
            <path class="color-shadow"
                d="M487.86,607.81l7.81-1.18c.23-1.72.44-3.26.65-4.81.36.16.74.3,1.08.49,2.24,1.25,4.48,2.47,7.78,1.85-1.71,2.89-2.61,5.59-4.36,7.84-.94,1.2-1.7,1.15-2.75,0-.32-.34-.58-.73-1.1-1.41-.15,1-.25,1.73-.37,2.56a13.37,13.37,0,0,1-7.69.7C488.55,611.84,488.21,609.82,487.86,607.81Z" />
            <path class="color-shadow"
                d="M446.28,607.71l15.24.59c-.24,1.25-.51,2.5-.72,3.76a1.41,1.41,0,0,1-1.58,1.4c-2.88-.06-5.76,0-8.62-.22a3.18,3.18,0,0,1-2.09-1.31A41.3,41.3,0,0,1,446.28,607.71Z" />
            <path class="color-shadow-dark"
                d="M330.57,611.56l8.18,1.12,8.87,1.3c-.21.74-.43,1.48-.72,2.51l-10.5-.88c-.39,0-.78-.19-1.17-.19C332.6,615.42,331.15,614,330.57,611.56Z" />
            <path class="color-shadow" d="M444.86,605.72c0-.23-.09-.46-.13-.69l.63.79Z" />
            <path class="color-shadow" d="M380.83,606.09l.23-.66.46.87Z" />
            <path class="color-shadow-dark" d="M328.87,609.76,329,609l.23.57A1.73,1.73,0,0,1,328.87,609.76Z" />
            <path class="color-shadow" d="M487.21,607.3l.18-.37.21.35h-.19Z" />
            <path class="color-shadow" d="M333,605.66c.15-.56.31-1.13,1-.44Z" />
        </g>
    </g>
</svg>
