<svg id="Nizy_bochonki" data-name="Nizy bochonki" xmlns="http://www.w3.org/2000/svg" viewBox="0 0 672 960">
    <g id="img_17" data-name="img 17">
        <g id="img_16_img" data-name="img 16 img">
            <path class="outline"
                d="M405.42,639.29c-1.53-.44-3.07-.87-4.6-1.32-1.37-.41-1.64-.87-1.25-2.28.23-.85.57-1.66.87-2.49l3.84-10.57.24-.62q1-3.33,2-6.66c.45-1.43.9-2.85,1.36-4.28l-.49-.2q-1.35,2.22-2.69,4.44l-.09.14-.29.39a55.9,55.9,0,0,1-4.36,5.07A9.53,9.53,0,0,1,396,623a3,3,0,0,1-4.05-3.12,9.93,9.93,0,0,1,.86-4.39,49.11,49.11,0,0,1,3.75-5.81,27.54,27.54,0,0,1,1.79-2.17c-.42-1.17-1.34-.79-2.07-.77-6.3.13-12.61.37-18.92.43-10.32.1-20.56,1.31-30.84,2-5.17.33-10.38.21-15.56.1a34,34,0,0,1-5.4-1l-5.64-1.06c-2.09-.39-3.76-1.21-4.22-3.6a7.31,7.31,0,0,0-1.19-2.32c-.63-1-1.35-2-2-2.95l-.44-.72-.42-1.5-.09-1.38-.1-.9c.16-.68.33-1.36.49-2h0l.8.08a.35.35,0,0,1,.23.36l1.43,1.41-.52.44c.26,1.86.54,2.21,2.45,2.46,2.58.34,5.16.69,7.75.86,3.8.24,7.62.5,11.43.43,4.12-.08,8.25-.53,12.37-.82l2.51-.34c2.23-.08,4.47-.21,6.71-.25,5.27-.08,10.54-.24,15.81-.15,4.87.09,9.73.61,14.6.68s9.58-.17,14.37-.32c5.83-.18,11.66-.41,17.49-.62.55,0,1.11-.14,1.66-.17,5.5-.4,11-1,16.49-1.11,5-.14,10.06.29,15.09.31a215.67,215.67,0,0,1,27.93,2,89.33,89.33,0,0,1,20.21,4.86,18.44,18.44,0,0,0,4.21.8c.67.09,1.27-.17,1.29-1.25l-6-2.54,2.34-.34c.1-.72.21-1.48.32-2.25l.19-.69c.12-.35.25-.71.37-1.07l.47-1.28c.55-.26.66-.58.13-1,.43-1.16.85-2.33,1.28-3.49.24.39.48.78.73,1.17l-.5.94-.09.89c0,.33,0,.66,0,1s-.18.71-.28,1.06-.13.58-.2.86l-.37,1.48-.17.93-.33,1.65,1.42,0,1.81-.41c.34-1.28.72-2.69,1.23-4.64a9.55,9.55,0,0,1,.94,1.86,20.67,20.67,0,0,1,.51,4.27,6.25,6.25,0,0,1-1.1,2.56,71.84,71.84,0,0,0-3.72,6.37,4.64,4.64,0,0,1-4.77,3.2,139.56,139.56,0,0,1-17-1.09c-9.1-1.22-18.24-2.16-27.37-3.15-4.52-.49-9.05-1.07-13.59-1.22-6.63-.23-13.26-.11-19.88-.13-.13,0-.26.14-.58.34.32.66.68,1.33,1,2,.83,1.89,1.75,3.76,2.43,5.71a9.37,9.37,0,0,1,.42,3.3c-.1,3.28-2.51,4.56-5.25,2.71a21.5,21.5,0,0,1-3-3v-.11l-.1,0-.41-.61-.27-.42-.24-.47c-.23-.64-.47-1.28-.69-1.93a1.4,1.4,0,0,0-1.59-1c0-2.87,0-5.73-.07-8.6h0c.42,1.46.84,2.92,1.27,4.37.37,1.13.7,2.28,1.13,3.38a14.93,14.93,0,0,0,4,6.12c.77.66,1.65,1.44,2.76.91s1.16-1.82,1.1-2.92a6,6,0,0,0-.59-2c-.46-1.1-1-2.15-1.53-3.23a21.06,21.06,0,0,0-1.07-2.31c-.88-1.47-1.85-2.89-2.79-4.34l.38-1.59a3.38,3.38,0,0,0-1.27-3.31l.94-.42h0l1.07.93,1.27,2.5a5.46,5.46,0,0,0,5.5,3c2-.14,4-.06,6-.08h3.46L435,602a28.8,28.8,0,0,1-.08-3.08c0-.37.49-.71,1.07-1.5l1,4.68a10.76,10.76,0,0,0,.48,2.07c.2.45.67,1,1.07,1.08,2.32.26,4.66.37,7.42.57-.62-1.41-1.06-2.4-1.5-3.38l-.2-1,.65.06.9,1c2.64,3.92,4.15,4.53,9,3.57.2-.83.41-1.74.62-2.64a5.19,5.19,0,0,1,1.95-3.13v3.11c-.23,1-.47,2.06-.7,3.09,3.43.78,3.57.7,4.43-2.19a3.41,3.41,0,0,0,.05-.46l.81.16.76,3.22,12.73,1.36c-.37-1.46-.67-2.61-1-3.76,0-1.79-.79-3.72.89-5.51.43,2,.8,3.77,1.18,5.54.22.92.38,1.86.67,2.77s.81,1.56,1.93,1.24c.07-.74.13-1.47.2-2.2a7.34,7.34,0,0,0,6.28,3.1l.63.23,1.23.09.35-.39c-1.19-1.08-.49-2.51-.71-3.77l.81,0,1.34,4.31,2.65.26c.19-1.66.35-3.12.52-4.58L494,603c.21.92.36,1.58.5,2.25-.14,1.65-.27,3.29-.44,5.23l3-.46c.15-.62.25-1,.37-1.57l2.36,1.58c.9-1.61,1.71-3,2.69-4.82.13.94.21,1.49.33,2.4.83-1.26,1.42-2.18,2-3l-7.64-2.31a44.46,44.46,0,0,0-12.37-3.43c-4.59-.63-9.19-1.17-13.81-1.55-12.34-1-24.71-1.8-37.11-1.14-2.39.13-4.78.31-7.17.46-3.11.15-6.21.32-9.31.45-4.54.18-9.08.44-13.62.48-8.63.06-17.26,0-25.89,0a7.56,7.56,0,0,0-1.59-.35q-9.74,0-19.48,0a6.37,6.37,0,0,0-1.56.39c-5.1.37-10.21.6-15.29,1.12a82.19,82.19,0,0,1-22.91-.83,8.32,8.32,0,0,0-1.5,0c.91,1.86,1.85,3.53,2.55,5.3a2.35,2.35,0,0,0,2.8,1.61c-1.28-3.85-1.28-3.85-.61-5.36,2.26,3.39,4,7.28,8.78,7.71l-.2-3.06c.82,1.06,1.24,1.72,1.77,2.27s1,1.17,1.64,1.28c1.78.31,3.6.37,5.61.55-.62-1.88-1.2-3.43-1.61-5-.13-.5.19-1.12.3-1.68l.1,1,.31.53a.83.83,0,0,0,.16.4c.15.37.28.74.45,1.1,1.31,2.86,3.37,4.25,6.65,3.68,1.17-.2,2.15-.35,2.7-1.56a12.1,12.1,0,0,1,1.24-1.81l.3.18c-.12.84-.23,1.69-.35,2.52,3.41.85,5.9-.55,8.11-2.93-.17.8-.34,1.6-.54,2.57l8.76-.51-.54-3.66c.12-1.35-.52-2.81.8-4.42.41,1.7.74,3.06,1.07,4.41a15.9,15.9,0,0,0,.54,1.82c.76,1.72,1.08,1.84,3.2,1.35v-1.37c1.52,1.63,3.25,1.62,5,1.53s3.35,0,5-.07a9.31,9.31,0,0,0,1.45-.28c0-1.32-1.38-2.3-.34-3.53l.53.52c.54.67,1.05,1.36,1.61,2,1.39,1.64,3.07,1.51,5.09.8-.28-1-.53-1.9-.77-2.79.09-.75.19-1.51.28-2.27h.52c.33.91.66,1.81,1,2.72,1,2.55,1,2.55,3.47,2.5,1.81,0,3.63-.2,5.44-.07a4.72,4.72,0,0,0,4.46-2.08l.77-.42.58-.44h0l.47-.53c.19-.6.39-1.19.58-1.79l.55.61,0,.68.66.67c-1.9,1.92-3.84,3.79-5.68,5.76A27.61,27.61,0,0,0,394.7,616a9.86,9.86,0,0,0-.77,3.21c-.08,1.42.62,2,1.92,1.48a10.62,10.62,0,0,0,3.55-2.25c1.76-1.82,3.27-3.88,4.88-5.84l5.53-7.51L407,619.16c-1.74,5.6-3.49,11.21-5.27,17l3.52,1.12c.78-5.56,1.53-10.83,2.27-16.1l.19-.6.06-.81q.52-2.65,1-5.31l1.92-10.18c.08-2,1.62-.84,2.57-1.42l.11,1.39c-.05,1-.16,2-.14,3.06,0,2.52.14,5.05.21,7.58l-.71,0c-.07-2.19-.12-4.38-.22-6.57,0-.64.26-1.47-.74-1.71h-.07c-1.17.52-.6,1.71-1,2.53-.09.58-.17,1.16-.26,1.73s-.13,1.09-.2,1.63-.11.91-.17,1.37c-.11.83-.23,1.65-.34,2.48-.05.29-.09.59-.14.88l-.3,2c-.11.72-.23,1.44-.34,2.16l-.17,1.21-.3,1.69-.17,1.19c-.1.56-.21,1.11-.32,1.67l-.18,1.22c-.1.54-.21,1.08-.32,1.62l-.11.76-.33,1.7c-.07.4-.14.8-.2,1.2s-.19.8-.28,1.19l-.15.71-.41,1.56-.18,1.8a.24.24,0,0,0-.31.17.82.82,0,0,1-.2.25Zm14.83-35.67-.46.42,1.19,1.49.38-.3Z" />
            <path class="color-shadow"
                d="M347.86,597c-4.12.29-8.25.74-12.37.82-3.81.07-7.63-.19-11.43-.43-2.59-.17-5.17-.52-7.75-.86-1.91-.25-2.19-.6-2.45-2.46l7.18,1.79a28.24,28.24,0,0,0,5.1,1.17,137.39,137.39,0,0,0,19.35-.51c5.07-.45,10.14-1.15,15.21-1.2,9.72-.1,19.45.28,29.18.27,8.05,0,16.09-.28,24.14-.44a1.63,1.63,0,0,0,.65-.15s0-.26,0-.4,0-.24.05-.36l2.43,0a6.47,6.47,0,0,0,5.16,0l3-.59,0,0,23.13-.51c.63,0,1.26-.1,1.89-.14l.17,0,.19,0,4.07-.32,1.65-.4c.48.3.94.85,1.44.88,6.4.47,12.81.87,19.21,1.26a3.66,3.66,0,0,0,1.12-.3l1.43-.51c-.07.86.49,1,1.18,1.1,1.65.14,3.3.26,4.95.42,1,.11,2,.29,3,.43l-3,.25,14.53,3,6,2.54c0,1.08-.62,1.34-1.29,1.25a18.44,18.44,0,0,1-4.21-.8,89.33,89.33,0,0,0-20.21-4.86,215.67,215.67,0,0,0-27.93-2c-5,0-10.07-.45-15.09-.31-5.5.14-11,.71-16.49,1.11-.55,0-1.11.15-1.66.17-5.83.21-11.66.44-17.49.62-4.79.15-9.58.39-14.37.32s-9.73-.59-14.6-.68c-5.27-.09-10.54.07-15.81.15-2.24,0-4.48.17-6.71.25Z" />
            <path class="outline"
                d="M414.64,594.6c0,.14.07.38,0,.4a1.63,1.63,0,0,1-.65.15c-8,.16-16.09.44-24.14.44-9.73,0-19.46-.37-29.18-.27-5.07,0-10.14.75-15.21,1.2a137.39,137.39,0,0,1-19.35.51,28.24,28.24,0,0,1-5.1-1.17l-7.18-1.79.52-.44L313,592.22c3.3,1,6.59,1.94,9.9,2.85.43.12,1-.17,1.46-.27l.08-.06.52.71,1.52.24.11-.44-2.05-1.45-.1-.1-.38-.38-.1-.1-.37-.39-.09-.11-.36-.39-.1-.13-.33-.37-.13-.16-.27-.32-.34-.43-.37-.45-.07-.09-.35-.44-.07-.1-.31-.41-.27-.42-.35-.49-.05-.08c.26-.63-1.12-1.29,0-1.89l.55.87.41.57h0l.4.52a30.41,30.41,0,0,0,8.19,7.31l.62.28h6.56l5.36-.37,1.86-.09,3.42-.4,2.3-.12,3-.34,3.74-.14,5.86-.35,4.25-.11h2.16c.39-.7-1.06-1.57.39-1.94a7.26,7.26,0,0,0,5.6,2c4.69,0,9.38.24,14.07.38.87,0,1.73,0,2.66,0,.89-2.28,1.74-4.48,2.6-6.69l.29.08c-.27,1.67-.46,3.36-.85,5-.25,1,0,1.51,1,1.72l9.47.15s.11-.1.17-.15l4.27-.13Z" />
            <path class="outline"
                d="M414.29,612.93a1.4,1.4,0,0,1,1.59,1c.22.65.46,1.29.69,1.93l-1.21-.53c.41,6.07,2,11.62,3.5,17.18a83.44,83.44,0,0,0,6.26,16.09L421.61,650c-.59-.87-1.21-1.67-1.72-2.55a47.31,47.31,0,0,1-5-14.37,91,91,0,0,1-2.05-18.25l.71,0c.14,1.16.28,2.32.41,3.48.78,6.33,1.45,12.7,3.27,18.83a94.72,94.72,0,0,0,3.75,9.81c.57,1.36.73,1.29,2.35.5a106.58,106.58,0,0,1-8.69-29.23C414.5,616.47,414.4,614.7,414.29,612.93Z" />
            <path class="outline"
                d="M456.29,592.36l-1.65.4c-.07-.32-.26-.68-.18-1,1.36-4.59,1.13-9.3,1.13-14a3.51,3.51,0,0,1,.08-.9,33.87,33.87,0,0,1,1.3,13.86A6.56,6.56,0,0,1,456.29,592.36Z" />
            <path class="outline"
                d="M423.42,593.37c.28-2.1.55-4.2.84-6.3.41-3,.83-5.93,1.43-8.88-.36,4.86.49,9.77-.84,14.58-.07.27.22.63.34.94l0,0C424.83,592.36,424,593.57,423.42,593.37Z" />
            <path class="outline"
                d="M500.2,598.93l-14.53-3,3-.25,1.39.05,6.42.8a.45.45,0,0,1,.31.11l1,.46,4.07,1.36c.36-.74.68-1.41,1-2.08-.11.77-.22,1.53-.32,2.25Z" />
            <path class="outline"
                d="M342.21,595.73l-5.36.37.92-.58c-1.08-1.66-3.55-2.1-3.79-4.92,1.46,1.31,2.65,2.21,3.63,3.3A4.86,4.86,0,0,0,342.21,595.73Z" />
            <path class="outline"
                d="M479.49,593.69l-1.43.51.94-3.34c.11-.38.21-.75.31-1.12l1.17-5.59h.61c-.25,2.37-.45,4.74-.78,7.1A13.56,13.56,0,0,1,479.49,593.69Z" />
            <path class="color-shadow"
                d="M506,590l-.73-1.17c.57-2.05,1.15-4.09,1.72-6.13C507.42,584.4,506.83,587.75,506,590Z" />
            <path class="outline" d="M320.12,586.55c-1.16.6.22,1.26,0,1.89a14.42,14.42,0,0,1-3-6.09l.62-.61Z" />
            <path class="color-base"
                d="M317.72,581.74l-.62.61A16.66,16.66,0,0,1,315,576l.46-.16C316.21,577.83,317,579.78,317.72,581.74Z" />
            <path class="color-shadow"
                d="M369.17,592.24c-1.45.37,0,1.24-.39,1.94h-2.16l1.31-.53-2.7-4.15,1,.41,0,0,.23.41.16-.3.16-.16Z" />
            <path class="outline" d="M450.57,593.07l-.19,0-.17,0c.07-1.17.13-2.35.19-3.52l.8.34Z" />
            <path class="color-shadow" d="M481.09,584.14h-.61l.69-4.32C481.75,581.22,481.69,582.09,481.09,584.14Z" />
            <path class="color-base" d="M362.8,586.08l-2.71-3.58c1.65.65,1.65.65,3.23,3.08Z" />
            <path class="transparent"
                d="M404.69,615.31q1.33-2.22,2.69-4.44l.49.2c-.46,1.43-.91,2.85-1.36,4.28C405.92,614.06,405.3,615.12,404.69,615.31Z" />
            <path class="color-shadow" d="M404.14,594.76c-.06,0-.12.15-.17.15l-9.47-.15Z" />
            <path class="color-shadow" d="M496.45,596.49l-6.42-.8Z" />
            <path class="color-shadow" d="M362.8,586.08l.52-.5,1.89,2.43-.61.54Z" />
            <path class="color-shadow" d="M362.37,594.29l-5.86.35Z" />
            <path class="color-base" d="M414.64,594.6l-6.23,0,6.28-.39C414.67,594.36,414.65,594.48,414.64,594.6Z" />
            <path class="color-base" d="M423.42,593.37c.59.2,1.41-1,1.81.31l-3,.59-1.42-.1Z" />
            <path class="outline" d="M420.86,594.17l1.42.1a6.47,6.47,0,0,1-5.16,0Z" />
            <path class="color-shadow" d="M324.49,593.8l2.05,1.45-.11.44-1.52-.24c.31-.59.17-.85-.52-.71l-.08.06Z" />
            <path class="color-shadow" d="M347.49,595.24l-3.42.4Z" />
            <path class="outline" d="M311.92,591.78c-.16.68-.33,1.36-.49,2C310.67,592.92,311.06,592.3,311.92,591.78Z" />
            <path class="color-shadow" d="M505.47,598.83l-1.42,0,.33-1.65C504.62,597.78,504.14,598.89,505.47,598.83Z" />
            <path class="color-shadow" d="M352.77,594.78l-3,.34Z" />
            <path class="outline"
                d="M409.05,621.35c.11-.72.23-1.44.34-2.16C409.28,619.91,409.16,620.63,409.05,621.35Z" />
            <path class="outline" d="M410.17,613.85c.06-.46.12-.92.17-1.37Z" />
            <path class="color-shadow" d="M504.55,596.21l.37-1.48C504.8,595.23,504.67,595.72,504.55,596.21Z" />
            <path class="outline" d="M311.53,594.72l.09,1.38Z" />
            <path class="outline" d="M364.6,588.55l.61-.54,1,1.37,0,.53-1-.41-.05-.08-.34-.46Z" />
            <path class="outline" d="M410.54,610.85c.09-.57.17-1.15.26-1.73Z" />
            <path class="outline" d="M408.58,624.25l.3-1.69Z" />
            <path class="outline" d="M408.09,627.11c.11-.56.22-1.11.32-1.67C408.31,626,408.2,626.55,408.09,627.11Z" />
            <path class="outline" d="M407.59,630l.32-1.62C407.81,628.87,407.7,629.41,407.59,630Z" />
            <path class="outline" d="M407.15,632.41l.33-1.7Z" />
            <path class="outline" d="M406.11,637.07l.41-1.56C406.39,636,406.25,636.55,406.11,637.07Z" />
            <path class="outline" d="M504,592.32c.53.4.42.72-.13,1Z" />
            <path class="color-shadow" d="M479.31,589.74c-.1.37-.2.74-.31,1.12Z" />
            <path class="color-shadow" d="M505.44,591.83l.09-.89Z" />
            <path class="color-shadow"
                d="M505.12,593.87c.1-.35.19-.71.28-1.06C505.31,593.16,505.22,593.52,505.12,593.87Z" />
            <path class="outline" d="M503.42,594.58c-.12.36-.25.72-.37,1.07C503.17,595.3,503.3,594.94,503.42,594.58Z" />
            <path class="outline" d="M406.67,634.8l.28-1.19Z" />
            <path class="outline" d="M409.69,617.21c.05-.29.09-.59.14-.88Z" />
            <path class="color-shadow" d="M451.2,589.88l-.8-.34.28-.45Z" />
            <path class="color-shadow" d="M497.8,597.06l-1-.46Z" />
            <path class="outline" d="M312,597.6l.44.72Z" />
            <path class="outline" d="M411.77,606.59h0Z" />
            <path class="outline" d="M312.72,591.86l-.8-.08C312.26,591,312.48,591.53,312.72,591.86Z" />
            <path class="color-shadow" d="M330.29,596.09l-.62-.28Z" />
            <path class="color-shadow" d="M324,593.32l.38.38Z" />
            <path class="color-shadow" d="M323.54,592.83l.37.39Z" />
            <path class="color-shadow" d="M323.09,592.33l.36.39Z" />
            <path class="color-shadow" d="M322.66,591.83l.33.37Z" />
            <path class="color-shadow" d="M321.48,588.5l-.4-.52Z" />
            <path class="color-base" d="M404.31,615.84l.29-.39Z" />
            <path class="color-shadow" d="M322.26,591.35l.27.32Z" />
            <path class="outline" d="M416.81,616.32l.27.42Z" />
            <polygon class="outline" points="417.49 617.35 417.59 617.4 417.58 617.51 417.44 617.47 417.49 617.35" />
            <path class="color-shadow" d="M321.08,588l-.41-.57Z" />
            <path class="color-shadow" d="M321.55,590.47l.37.45Z" />
            <path class="color-base" d="M404.52,622l-.24.62Z" />
            <path class="color-shadow" d="M321.13,589.94l.35.44Z" />
            <path class="color-shadow" d="M366.21,589.91l0-.53c.17.15.34.3.5.46l-.16.16a2.85,2.85,0,0,1-.39-.11Z" />
            <path class="color-shadow" d="M320.75,589.43l.31.41Z" />
            <path class="color-shadow" d="M364.84,589c.11.16.23.31.34.46Z" />
            <path class="color-shadow" d="M320.13,588.52l.35.49Z" />
            <path class="outline" d="M405.62,639a.24.24,0,0,1,.31-.17Z" />
            <path class="outline" d="M405.42,639.29h0l-.14.14Z" />
            <path class="color-base"
                d="M462,603.93l-.81-.16-3.78-.44v-3.11a5.19,5.19,0,0,0-1.95,3.13l-9.66-.93-.9-1-.62-.76,0,.7c.07.35.14.69.2,1l-7.47-.34-1-4.68c-.58.79-1,1.13-1.07,1.5A28.8,28.8,0,0,0,435,602l-14.07.43c-.42-.84-.85-1.67-1.27-2.5l-1.07-.93h0l-1.29-.29.35.7a3.38,3.38,0,0,1,1.27,3.31c-1.92-.72-2.31-2.5-2.88-4.15l-1.49-.7c3.16-.5,6.23-.64,9.3-.84.94-.06,1.86-.26,2.79-.4,2.39-.15,4.78-.33,7.17-.46,12.4-.66,24.77.13,37.11,1.14,4.62.38,9.22.92,13.81,1.55a44.46,44.46,0,0,1,12.37,3.43,5.32,5.32,0,0,0-.75,1.51,1.47,1.47,0,0,1-1.86,1.47c-.14-.67-.29-1.33-.5-2.25l-1.43,2.82H488l-.81,0a4,4,0,0,0-1.22-.53c-3.12-.22-6.24-.37-9.36-.54-.38-1.77-.75-3.54-1.18-5.54-1.68,1.79-.87,3.72-.89,5.51-.87,0-1.74-.07-2.6-.13Z" />
            <path class="color-base"
                d="M403,603.24l-.77.42c-.2-.21-.41-.6-.61-.6-4.25.06-8.5.16-12.76.25-.32-.91-.65-1.81-1-2.72h-.52c-.09.76-.19,1.52-.28,2.27l-5.93,0-.53-.52-.76-1.42c-.08,2.21-1.22,2-2.26,2H365.71c-.33-1.35-.66-2.71-1.07-4.41-1.32,1.61-.68,3.07-.8,4.42a42.66,42.66,0,0,1-4.49.45c-7.43,0-14.86,0-22.29,0a.83.83,0,0,1-.16-.4l-.31-.53c0-.32-.07-.64-.1-1,3.19-.48,6.37-1,9.56-1.42,3.75-.53,7.5-1,11.24-1.53.3,0,.53-.49.79-.76l18.2,0,1.64.13,24.66.11c1.12,0,2.24-.09,3.35,0,.32,0,.6.48.9.74l0-.09a2.19,2.19,0,0,0-2.18,1.93c-.19.6-.39,1.19-.58,1.79l-.47.53h0C403.38,602.94,403.19,603.09,403,603.24Z" />
            <path class="color-shadow"
                d="M358.08,597.7c-.26.27-.49.72-.79.76-3.74.54-7.49,1-11.24,1.53-3.19.44-6.37.94-9.56,1.42-.11.56-.43,1.18-.3,1.68.41,1.6,1,3.15,1.61,5-2-.18-3.83-.24-5.61-.55-.6-.11-1.15-.78-1.64-1.28s-.95-1.21-1.77-2.27l.2,3.06c-4.78-.43-6.52-4.32-8.78-7.71-.67,1.51-.67,1.51.61,5.36a2.35,2.35,0,0,1-2.8-1.61c-.7-1.77-1.64-3.44-2.55-5.3a8.32,8.32,0,0,1,1.5,0,82.19,82.19,0,0,0,22.91.83c5.08-.52,10.19-.75,15.29-1.12Z" />
            <path class="color-shadow"
                d="M337.06,603.3c7.43,0,14.86.06,22.29,0a42.66,42.66,0,0,0,4.49-.45l.54,3.66-8.76.51c.2-1,.37-1.77.54-2.57-2.21,2.38-4.7,3.78-8.11,2.93.12-.83.23-1.68.35-2.52l-.3-.18a12.1,12.1,0,0,0-1.24,1.81c-.55,1.21-1.53,1.36-2.7,1.56-3.28.57-5.34-.82-6.65-3.68C337.34,604,337.21,603.67,337.06,603.3Z" />
            <path class="transparent"
                d="M413.44,604.21l-.11-1.39c-.95.58-2.49-.61-2.57,1.42l-1.07-1.39,1-2.35c-.39,0-.59-.06-.69,0a53.09,53.09,0,0,0-13.6,14.27,7.27,7.27,0,0,0-.84,2c-.26,1.1.5,1.73,1.52,1.27a5.4,5.4,0,0,0,1.57-1.07c1.69-1.68,3.33-3.42,5-5.13l.64.75c-1.61,2-3.12,4-4.88,5.84a10.62,10.62,0,0,1-3.55,2.25c-1.3.52-2-.06-1.92-1.48a9.86,9.86,0,0,1,.77-3.21,27.61,27.61,0,0,1,5.43-7.77c1.84-2,3.78-3.84,5.68-5.76a52.88,52.88,0,0,1,4.42-3.21c2.62-1.54,5.12-.22,6,3l-1.35-1.08v2.16l-.61,1h0Z" />
            <path class="color-shadow"
                d="M494.46,605.23a1.47,1.47,0,0,0,1.86-1.47,5.32,5.32,0,0,1,.75-1.51l7.64,2.31c-.56.85-1.15,1.77-2,3-.12-.91-.2-1.46-.33-2.4-1,1.77-1.79,3.21-2.69,4.82l-2.36-1.58c-.12.52-.22,1-.37,1.57l-3,.46C494.19,608.52,494.32,606.88,494.46,605.23Z" />
            <path class="color-shadow"
                d="M365.71,602.87H377.6c1,0,2.18.23,2.26-2l.76,1.42c-1,1.23.33,2.21.34,3.53a9.31,9.31,0,0,1-1.45.28c-1.68,0-3.36,0-5,.07s-3.51.1-5-1.53V606c-2.12.49-2.44.37-3.2-1.35A15.9,15.9,0,0,1,365.71,602.87Z" />
            <path class="outline"
                d="M416.19,602.23c-.84-3.22-3.34-4.54-6-3a52.88,52.88,0,0,0-4.42,3.21l-.66-.67a26.81,26.81,0,0,0,2.1-1.88c.47-.51.3-1-.42-1.25-.3-.26-.58-.72-.9-.74-1.11-.08-2.23,0-3.35,0l-24.66-.11a2,2,0,0,0-.19-.22l.06-.08c8.63,0,17.26.08,25.89,0,4.54,0,9.08-.3,13.62-.48,3.1-.13,6.2-.3,9.31-.45-.93.14-1.85.34-2.79.4-3.07.2-6.14.34-9.3.84l1.49.7c.57,1.65,1,3.43,2.88,4.15-.12.53-.25,1.06-.38,1.6l-.63.51-1.28-1.45h0Zm-6.14-4.64-2.54.3C408.65,598.94,409.18,598.64,410.05,597.59Z" />
            <path class="color-shadow"
                d="M462,603.93l9.93.69c.86.06,1.73.09,2.6.13.29,1.15.59,2.3,1,3.76l-12.73-1.36Z" />
            <path class="color-shadow"
                d="M420.92,602.39,435,602c.25,1,.51,2,.85,3.3h-3.46c-2,0-4-.06-6,.08A5.46,5.46,0,0,1,420.92,602.39Z" />
            <path class="transparent"
                d="M407.55,621.14c-.74,5.27-1.49,10.54-2.27,16.1l-3.52-1.12c1.78-5.75,3.53-11.36,5.27-17l.77.57-.06.81Z" />
            <path class="color-shadow"
                d="M476.63,604.78c3.12.17,6.24.32,9.36.54a4,4,0,0,1,1.22.53c.22,1.26-.48,2.69.7,3.77l-.34.39-1.23-.09-.63-.23a7.34,7.34,0,0,1-6.28-3.1c-.07.73-.13,1.46-.2,2.2-1.12.32-1.64-.36-1.93-1.24S476.85,605.7,476.63,604.78Z" />
            <path class="transparent"
                d="M422.37,610.92c.52,1.08,1.07,2.13,1.53,3.23a6,6,0,0,1,.59,2c.06,1.1.12,2.35-1.1,2.92s-2-.25-2.76-.91a14.93,14.93,0,0,1-4-6.12c-.43-1.1-.76-2.25-1.13-3.38.09-.59.17-1.19.26-1.78a29.31,29.31,0,0,0,1.4,3.52,43.35,43.35,0,0,0,3.07,4.76c.28.38,1,.4,1.59.58a4.63,4.63,0,0,0,.49-1.68,14.16,14.16,0,0,0-.71-2.5Z" />
            <path class="color-shadow"
                d="M388.86,603.31c4.26-.09,8.51-.19,12.76-.25.2,0,.41.39.61.6a4.72,4.72,0,0,1-4.46,2.08c-1.81-.13-3.63,0-5.44.07C389.82,605.86,389.82,605.86,388.86,603.31Z" />
            <path class="color-shadow"
                d="M437,602.06l7.47.34c.44,1,.88,2,1.5,3.38-2.76-.2-5.1-.31-7.42-.57-.4-.05-.87-.63-1.07-1.08A10.76,10.76,0,0,1,437,602.06Z" />
            <path class="color-shadow"
                d="M445.83,602.42l9.66.93c-.21.9-.42,1.81-.62,2.64C450,607,448.47,606.34,445.83,602.42Z" />
            <path class="transparent"
                d="M407.8,619.73l-.77-.57,2.78-14.1-5.53,7.51-.64-.75,6.05-9,1.07,1.39-1.92,10.18Q408.33,617.08,407.8,619.73Z" />
            <path class="color-shadow" d="M488,605.81h4.51c-.17,1.46-.33,2.92-.52,4.58l-2.65-.26Z" />
            <path class="color-shadow"
                d="M381.15,602.84l5.93,0c.24.89.49,1.78.77,2.79-2,.71-3.7.84-5.09-.8C382.2,604.2,381.69,603.51,381.15,602.84Z" />
            <path class="color-shadow"
                d="M457.44,603.33l3.78.44a3.41,3.41,0,0,1-.05.46c-.86,2.89-1,3-4.43,2.19C457,605.39,457.21,604.36,457.44,603.33Z" />
            <path class="outline"
                d="M358.08,597.7l-2.92-.16a6.37,6.37,0,0,1,1.56-.39q9.73,0,19.48,0a7.56,7.56,0,0,1,1.59.35l-.06.08-1.45.09Z" />
            <path class="transparent"
                d="M413.44,604.21l.78.12c0,2.87,0,5.73.07,8.6.11,1.77.21,3.54.31,5.32l-.68.08c-.13-1.16-.27-2.32-.41-3.48-.07-2.53-.17-5.06-.21-7.58C413.28,606.25,413.39,605.23,413.44,604.21Z" />
            <path class="transparent"
                d="M422.37,610.92l-.77.68-3.72-6.81.63-.51c.94,1.44,1.91,2.86,2.79,4.33A21.06,21.06,0,0,1,422.37,610.92Z" />
            <path class="transparent"
                d="M406.83,598.64c.72.22.89.74.42,1.25a26.81,26.81,0,0,1-2.1,1.88l0-.68c.54-.85,1.08-1.7,1.63-2.54Z" />
            <path class="transparent"
                d="M415.76,606.92c-.09.59-.17,1.19-.26,1.78-.43-1.45-.85-2.91-1.27-4.37.2-.34.4-.68.61-1C415.14,604.51,415.45,605.72,415.76,606.92Z" />
            <path class="outline"
                d="M406.81,598.55c-.55.84-1.09,1.69-1.63,2.54-.18-.2-.37-.4-.55-.61A2.19,2.19,0,0,1,406.81,598.55Z" />
            <path class="outline" d="M420.25,603.62l1.11,1.61-.38.3L419.79,604Z" />
            <path class="outline" d="M347.86,597l2.51-.34Z" />
            <path class="color-shadow" d="M444.28,601.36l0-.7.62.76Z" />
            <path class="outline" d="M417.62,599.37l-.35-.7,1.29.29Z" />
            <path class="outline" d="M418.58,599l1.07.93Z" />
            <path class="outline" d="M485.71,609.69l.63.23Z" />
            <path class="outline" d="M487.57,610l.34-.39Z" />
            <path class="color-shadow" d="M336.59,602.37l.31.53Z" />
            <path class="outline" d="M403.58,602.8l.47-.53C403.89,602.44,403.74,602.62,403.58,602.8Z" />
            <path class="outline" d="M403,603.24c.19-.15.38-.3.58-.44C403.38,602.94,403.19,603.09,403,603.24Z" />
            <path class="color-base" d="M407.55,621.14l.19-.6Z" />
            <path class="transparent" d="M324.39,594.74c.69-.14.83.12.52.71Z" />
            <path class="transparent"
                d="M413.92,618.33l.68-.08a106.62,106.62,0,0,0,8.69,29.22c-1.62.79-1.78.86-2.35-.5a94.72,94.72,0,0,1-3.75-9.81C415.37,631,414.7,624.66,413.92,618.33Z" />
            <path class="outline" d="M366.19,589.89a2.85,2.85,0,0,0,.39.11l-.16.3Z" />
            <path class="color-shadow" d="M376.28,597.67l1.45-.09a2,2,0,0,1,.19.22Z" />
            <path class="outline"
                d="M409.69,602.85l-6.05,9c-1.67,1.71-3.31,3.45-5,5.13a5.4,5.4,0,0,1-1.57,1.07c-1,.46-1.78-.17-1.52-1.27a7.27,7.27,0,0,1,.84-2A53.09,53.09,0,0,1,410,600.51c.1-.07.3,0,.69,0Zm-3.56,3.55c-2.47,1-6.52,5.79-8,9.26A52,52,0,0,0,406.13,606.4Zm.12-1,.45.32.65-1-.3-.21Z" />
            <path class="outline"
                d="M415.76,606.92c-.31-1.2-.62-2.41-.92-3.61v-2.16l1.35,1.08.42,1.12c-1.12.71-1.1.83.34,2-.13-.72-.24-1.39-.35-2l1.28,1.45,3.72,6.81a14.16,14.16,0,0,1,.71,2.5,4.63,4.63,0,0,1-.49,1.68c-.54-.18-1.31-.2-1.59-.58a43.35,43.35,0,0,1-3.07-4.76A29.31,29.31,0,0,1,415.76,606.92Zm4.83,6.85c-.32-3.28-2.12-6.77-3.85-7.32A20,20,0,0,0,420.59,613.77Z" />
            <path class="color-base" d="M410.05,597.59c-.87,1-1.4,1.35-2.54.3Z" />
            <path class="transparent" d="M406.13,606.4a52,52,0,0,1-8,9.26C399.61,612.19,403.66,607.39,406.13,606.4Z" />
            <path class="outline" d="M406.25,605.38l.8-.93.3.21-.65,1Z" />
            <path class="transparent"
                d="M420.59,613.77a20,20,0,0,1-3.85-7.32C418.47,607,420.27,610.49,420.59,613.77Z" />
            <path class="outline" d="M416.6,603.34c.11.66.22,1.33.35,2-1.44-1.21-1.46-1.33-.34-2Z" />
        </g>
    </g>
</svg>
