<svg id="Nizy_bochonki" data-name="Nizy bochonki" xmlns="http://www.w3.org/2000/svg" viewBox="0 0 672 960">
    <g id="img_17" data-name="img 17">
        <g id="img_14_img" data-name="img 14 img">
            <path class="outline"
                d="M406,637.82c1,.65,1.57,1,2.12,1.38a13.61,13.61,0,0,1,1.95,1.37,1.73,1.73,0,0,1,0,2.74,6.47,6.47,0,0,1-2.44,1.44,43.18,43.18,0,0,1-7.93,1.71,71.46,71.46,0,0,1-24-2.27,39.62,39.62,0,0,1-5-1.73,47.91,47.91,0,0,0-17.28-3.57c-5-.16-9.9-.38-15-.58-.72,2.56-2.77,3.36-5,3.77a30.27,30.27,0,0,1-20.25-2.9c-1.21-.64-2.33-1.28-2.51-2.94-.07-.57-1-1.18-1.64-1.51-3.35-1.7-6.73-3.33-10.12-5-3.21-1.53-3.68-3.09-2.06-6.26a48.93,48.93,0,0,0,1.92-4.88c1.6-4.26,3.14-8.54,4.8-12.78,1.89-4.83,3.89-9.63,5.85-14.44a10.05,10.05,0,0,1,.66-1.54,1.16,1.16,0,0,1,2-.26c3.49,4.4,8.62,5,13.55,5.49a78.17,78.17,0,0,0,13.16-.07c8.37-.59,16.72-1.5,25.09-2.15,2.7-.21,5.43,0,8.15,0,1.36,0,2.72.1,4.08.1,18.07-.06,36.14-.08,54.21-.2,8.63-.06,17.27-.42,25.9-.42,9.35,0,18.72-.12,28,.91a46.88,46.88,0,0,1,7.05,1.34c5.32,1.41,10.6,3,16.31,4.61l1.59-1.21a18.17,18.17,0,0,1,1,1.56c2.6,5.48,5.16,11,7.78,16.46.69,1.44,1.5,2.82,2.27,4.22,1.5,2.7,1.13,3.93-1.59,5.4-6.85,3.71-13.89,6.84-21.7,8a51.89,51.89,0,0,0-6.93,1.88,10.17,10.17,0,0,0-2.18,1c-1.81,1.07-1.92,1.7-.67,3.38a9.56,9.56,0,0,1,.82,1.18,1.52,1.52,0,0,1-.64,2.25,7.09,7.09,0,0,1-2.48.77,28.83,28.83,0,0,1-4.55.13c-6.62-.43-13.26-.67-19.84-1.46-5.16-.62-10.18-2.09-14.37-5.51a8.39,8.39,0,0,0-5.64-1.69c-3.35.07-6.7.29-10.06.35-5.6.08-11.19,0-16.79.16A16.74,16.74,0,0,0,406,637.82Zm-31.59-35,0,0c.59-2.35,1.18-4.69,1.8-7.17h-4.6c-.35,1.71-.66,3.26-1,4.81l-.44-.09c.11-1.55.21-3.09.33-4.7H359.58c-.23,1.56-.41,2.89-.61,4.22q-.89,6-1.78,12l.48-12.87a3.28,3.28,0,0,0-.1-3.08l-14.63,1.49c-.66,2.91-1.26,5.53-1.86,8.16l-.17,0c.15-2.59.3-5.18.45-7.94l-11.57,1c-.57,1.68-1.14,3.39-1.71,5.11l-.28-.08c.15-1.65.31-3.29.47-5.08l-2.2-.37-1.6,2.78a.34.34,0,0,0-.12.3h-.3v-.83l.6-2.17c-2.54-.66-4.79-1.21-7-1.83-2-.55-2-.59-2.77,1.63l-5.06,10c-.62.89-1.23,1.79-1.84,2.68l-.39-.24,7-15-3.44-2.14c-.59,1.49-1.1,2.72-1.59,4-2.41,6-4.5,12.16-7.33,18-1.8,3.67-1.84,7.69-3.66,11.41l14.13,7c.71-1.57,1.33-3,2-4.32s1.22-2.59,1.8-3.9c1.18-2.7,1.17-2.71,2.39-3.74-1.13,5.26-4,9.75-5,15a26.32,26.32,0,0,0,21,2.23c.26-1.66.47-3.06.69-4.47q1.71-8.05,3.4-16.12a6.23,6.23,0,0,1,.27,1.58c-.19,2.54-.44,5.08-.69,7.62s-.54,5.33-.82,8.1c.88.11,1.42.21,2,.23,4.62.2,9.25.35,13.87.57A51.39,51.39,0,0,1,371,640.16c9.52,4,19.5,4.59,29.62,3.92a12.41,12.41,0,0,0,6.93-2.13c-.9-.49-1.58-.88-2.27-1.24-3.25-1.69-4-3.14-3.31-6.77.46-2.43,1-4.84,1.55-7.25s1.1-5,1.65-7.46l3.1-12.34.36.07-1,6c-1.06,7.4-2.12,14.79-3.2,22.35a41.41,41.41,0,0,1,5.66-1.19c4.46-.28,8.94-.35,13.4-.48s9.11-.32,13.66-.31c3.51,0,7.13,0,10,2.48,4,3.46,8.94,4.58,13.89,5.41,6.79,1.14,13.69,1.16,20.56,1.19.84,0,1.68-.13,2.82-.22l-1.4-3.83c-.24-.79-.49-1.57-.74-2.36l-4.92-17.32c-.09-.32-.19-.63-.28-.95l-.23-1c-.31-1.15-.67-2.29-.92-3.46-.21-1-.28-2-.41-3l7.8,21.08c.47,1.26,1,2.49,1.52,3.92l3.76-2,6.7-2.09c8.49-1.24,16.2-4.56,23.76-8.86a18.26,18.26,0,0,0-2.52-5.19,59.89,59.89,0,0,1-6.48-11.45,7.57,7.57,0,0,0-5.26-4.93c-1-.26-2-.62-3-.94l-.34.51c2.57,3.65,5.13,7.3,8,11.36-.67-.31-.82-.34-.91-.44-3.44-3.76-7.12-7.33-9.88-11.67-.51-.8-1.07-1.41-2.29-1,.17,2.2.34,4.46.51,6.71a43.83,43.83,0,0,1-2.43-6.65,1.88,1.88,0,0,0-1.34-1.48,43.2,43.2,0,0,0-11.58-1.94c-.61,2.85.23,5.78-.87,9.09-.51-3.42-.93-6.27-1.37-9.19l-12.12-.57v5.28l-.29,0-1.53-5.17h-10.9l2.87,7a46.94,46.94,0,0,1-3.75-5.47c-.53-.87-1.1-1.62-2.38-.89l-.37,1.88h-.3c-.21-.69-.41-1.39-.67-2.25l-12.08.44a13.25,13.25,0,0,0,0,1.71q1.15,7.57,2.34,15.13c.26,1.64.55,3.27.83,4.9l-.31.3a2,2,0,0,0,0-.24c-.17-.61-.36-1.21-.51-1.83q-2-8-3.88-15.94c-.32-1.29-.65-2.58-1-4-1.58.17-3.12-.83-4.11.85-1.8-1.62-3.81-.8-6-.71.17,2.8.32,5.39.48,8l-.45.08c-.57-2.68-1.14-5.36-1.76-8.25-1.21,0-2.4,0-3.58,0a1.57,1.57,0,0,0-1.72,1.32c-.27,1-.56,1.91-.84,2.87l-.22-.07v-4c-7.22-.27-14.35.07-21.58.11.14,1.63.25,3,.36,4.3l-.33.08-1.27-4.36h-7.94c-.27,1.12-.48,2.13-.74,3.12-.67,2.52-1.45,5-2,7.54-.89,3.94-1.65,7.91-2.46,11.86.11-1.27.16-2.55.34-3.81.78-5.43,1.6-10.86,2.41-16.3.08-.75.15-1.51.26-2.61-1.41,0-2.57.07-3.72,0a2.55,2.55,0,0,0-2.79,1.64C376.65,599.07,375.46,600.94,374.36,602.85Z" />
            <path class="color-base"
                d="M338.93,618.44q-1.69,8.05-3.4,16.12c-1.79,1.09-3.78,1-5.76,1-2.32,0-4.64,0-7,0a11.19,11.19,0,0,1-3-.51c-2.13-.68-2.24-1.13-1.65-3.36,1.31-4.92,2.56-9.86,3.79-14.8a4.36,4.36,0,0,0,.08-1.9,9.49,9.49,0,0,0-.78-1.84c-.6.3-1.4.45-1.76.93-1.37,1.85-2.66,3.76-3.89,5.71-1.69,2.68-3.29,5.42-5,8.22a9.23,9.23,0,0,1-1.2-.57c-1.37-1-2.68-2-4.09-2.87-2.37-1.47-2.46-1.71-.92-4a16.07,16.07,0,0,0,.92-1.4c1.65-3.27,3.28-6.56,4.91-9.84.26-.51.24-.92-.39-1.11q2.52-5,5.06-10a21.85,21.85,0,0,1,2.42.74,15.76,15.76,0,0,0,6.76,1.63c0,.28,0,.55,0,.83l.15.36.15-.37a.34.34,0,0,1,.12-.3c1-.08,1.46.32,1.45,1.37a14.07,14.07,0,0,0,.18,3.56,2.55,2.55,0,0,0,1.46,1.6c.37.12,1.26-.63,1.56-1.18a25.13,25.13,0,0,0,1.27-3.33,2.11,2.11,0,0,1,2.11-1.59c1.65,0,3.3-.31,5-.42a9,9,0,0,1,1.62.15c-.15,2.42-.23,4.71-.48,7-.09.78-.25,1.6.6,1.75a2.54,2.54,0,0,0,1.74-.87,3.75,3.75,0,0,0,.6-1.53c.64-1.88,1.31-3.75,1.87-5.66a2.87,2.87,0,0,1,2.56-2.4c2.9-.41,5.79-.91,8.63-1.6,1.49-.37,2.42-.07,3.07,1.26l-.48,12.87c-.15.18-.44.37-.43.54.1,2,.19,3.95.41,5.92a7.12,7.12,0,0,0,.86,1.9,4,4,0,0,0,1.84-3.46c.32-2.84.37-5.7.56-8.56.15-2.37.3-4.75.55-7.12.14-1.31.47-2.6.74-4H364c3.14,0,3.3.27,2.83,3.47-.22,1.51-.37,3.05,1.57,3.79a2.32,2.32,0,0,1,1,1.48c.34,1.24.92,2,2.33,1.84a3.2,3.2,0,0,1,1.08.25c-.24,2.48-.24,2.48.9,3.65a15.45,15.45,0,0,0,1.91-2.64c1.08-2.39,2-4.85,3-7.29,1.42-3.64,1.41-3.65,5.35-3.55-.81,5.44-1.63,10.87-2.41,16.3-.18,1.26-.23,2.54-.34,3.81-.75.56-.69,1.16,0,1.95,1.13-.3,2.28-.66,2.74-1.93,1.35-3.65,2.67-7.32,3.91-11,1-2.85,1.76-5.75,2.62-8.56h2.45a42.16,42.16,0,0,0,1.34,4.62c.24.6,1.14,1.36,1.66,1.31s1.13-.93,1.47-1.57a4,4,0,0,0,.07-1.66v-2.42l15.58.57c.84,0,1.67.08,2.7.13l-.27,3c1.8.91,2.63.55,3.6-1.5.84-1.81.84-1.81,3.18-1.39.23,1.11.39,2.29.71,3.42.63,2.21,1.27,4.43,2.08,6.58.2.51,1.21,1.18,1.61,1a2.5,2.5,0,0,0,1.45-1.6c.33-2,.43-4.1.56-6.16.07-1.09,0-2.19,0-3.56h7.67q1.94,8,3.88,15.94c.15.62.34,1.22.51,1.83a2,2,0,0,1,0,.24l.31-.3,3,.55c-.84-6.25-1.63-12.09-2.47-18.28,3.2,0,6.14.07,9.07,0a2.52,2.52,0,0,1,2.58,1.63c1.28,2.38,2.73,4.68,4.19,7a8.18,8.18,0,0,0,1.92,2.1,1.38,1.38,0,0,0,2.35-1.11,20.12,20.12,0,0,0-.24-3.8c-.26-1.85-.65-3.67-1-5.65.91,0,1.54-.09,2.17-.09,2.21,0,2.15.06,2.55,2.2s1,4.17,1.46,6.26a1.2,1.2,0,0,0,1.59,1,2,2,0,0,0,1.13-1.27,13.38,13.38,0,0,0,.09-2.62c0-1.65,0-3.29.07-5.26,3,.24,5.73.4,8.4.72.42.05.88.79,1.11,1.31.42.94.6,2,1,2.92a1.87,1.87,0,0,0,2.67,1.14c.29-1.52.59-3.13.93-4.92a37,37,0,0,1,10.63,1.07c.23,1.32.38,2.49.64,3.65.49,2.17,1,4.34,1.58,6.48.39,1.38,1.08,1.78,2.26,1.66,1.34-.14,1.38-1.1,1.37-2.11v-6.09c.92.82,1.43,1.29,1.95,1.74,2.82,2.42,4.82,5.77,8.33,7.43a1.23,1.23,0,0,1,.5.51c1.21,2,2.41,4.1,3.71,6.32a42,42,0,0,1-8.94,5.19c-2.84,1.07-5.73,2-8.57,3-.67.25-1.71.16-1.75,1.31l-6.7,2.09c-2-4.24-4.08-8.47-6.07-12.74-1.44-3.1-2.77-6.26-4.23-9.35a15.66,15.66,0,0,0-1.75-2.32l-1,1.44c.13,1,.2,2,.41,3,.25,1.17.61,2.31.92,3.46l-.55.61.78.37c.09.32.19.63.28.95-.22.35-.69.76-.63,1.05a82.79,82.79,0,0,0,4.42,15.21c.19.44.75.71,1.13,1.06.25.79.5,1.57.74,2.36a15.94,15.94,0,0,1-3,.48,145.43,145.43,0,0,1-16.13-1.27,58.54,58.54,0,0,1-13.1-3.45,60,60,0,0,0-19.06-3.8c-4.6-.21-9.23.18-13.83.42-2.85.16-5.67-.63-8.52-.09-.25.05-.56-.2-.86-.31a9,9,0,0,1-.09-1.5c.41-4.1.79-8.2,1.3-12.29.24-1.92-.19-2.84-2.1-3.59l1-6-.36-.07q-1.54,6.17-3.1,12.34c-1.26.14-1.64,1.18-2,2.12-.86,2.48-1.67,5-2.42,7.5q-1.41,4.81-2.67,9.66a2.15,2.15,0,0,1-2.34,1.83A59.47,59.47,0,0,1,381.31,639c-5.59-1.14-11-3.14-16.69-3.85-2.51-.31-5-1.42-7.45-1.49-4.36-.12-8.77-.56-13.12.35a3.88,3.88,0,0,1-1.23-.16c0-.9,0-1.68,0-2.45.06-.95.29-1.89.3-2.83,0-3.28.07-6.56,0-9.83a28.82,28.82,0,0,0-.56-4.72c-.08-.46-.71-.81-1.18-1.3A10.57,10.57,0,0,0,338.93,618.44Z" />
            <path class="color-shadow"
                d="M495.33,631.21c0-1.15,1.08-1.06,1.75-1.31,2.84-1.06,5.73-2,8.57-3a42,42,0,0,0,8.94-5.19c-1.3-2.22-2.5-4.27-3.71-6.32a1.23,1.23,0,0,0-.5-.51c-3.51-1.66-5.51-5-8.33-7.43-.52-.45-1-.92-1.95-1.74v6.09c0,1,0,2-1.37,2.11-1.18.12-1.87-.28-2.26-1.66-.6-2.14-1.09-4.31-1.58-6.48-.26-1.16-.41-2.33-.64-3.65A37,37,0,0,0,483.62,601c-.34,1.79-.64,3.4-.93,4.92a1.87,1.87,0,0,1-2.67-1.14c-.44-.93-.62-2-1-2.92-.23-.52-.69-1.26-1.11-1.31-2.67-.32-5.36-.48-8.4-.72,0,2-.05,3.61-.07,5.26a13.38,13.38,0,0,1-.09,2.62,2,2,0,0,1-1.13,1.27,1.2,1.2,0,0,1-1.59-1c-.49-2.09-1.07-4.16-1.46-6.26s-.34-2.18-2.55-2.2c-.63,0-1.26,0-2.17.09.37,2,.76,3.8,1,5.65a20.12,20.12,0,0,1,.24,3.8,1.38,1.38,0,0,1-2.35,1.11,8.18,8.18,0,0,1-1.92-2.1c-1.46-2.28-2.91-4.58-4.19-7a2.52,2.52,0,0,0-2.58-1.63c-2.93.1-5.87,0-9.07,0,.84,6.19,1.63,12,2.47,18.28l-3-.55c-.28-1.63-.57-3.26-.83-4.9q-1.19-7.56-2.34-15.13a13.25,13.25,0,0,1,0-1.71l12.08-.44c.26.86.46,1.56.67,2.25h.3l.37-1.88c1.28-.73,1.85,0,2.38.89a46.94,46.94,0,0,0,3.75,5.47l-2.87-7h10.9l1.53,5.17.29,0v-5.28l12.12.57c.44,2.92.86,5.77,1.37,9.19,1.1-3.31.26-6.24.87-9.09a43.2,43.2,0,0,1,11.58,1.94,1.88,1.88,0,0,1,1.34,1.48,43.83,43.83,0,0,0,2.43,6.65c-.17-2.25-.34-4.51-.51-6.71,1.22-.46,1.78.15,2.29,1,2.76,4.34,6.44,7.91,9.88,11.67.09.1.24.13.91.44-2.87-4.06-5.43-7.71-8-11.36l.34-.51c1,.32,2,.68,3,.94a7.57,7.57,0,0,1,5.26,4.93,59.89,59.89,0,0,0,6.48,11.45,18.26,18.26,0,0,1,2.52,5.19C511.53,626.65,503.82,630,495.33,631.21Z" />
            <path class="color-shadow"
                d="M309.8,608.11c.63.19.65.6.39,1.11-1.63,3.28-3.26,6.57-4.91,9.84a16.07,16.07,0,0,1-.92,1.4c-1.54,2.34-1.45,2.58.92,4,1.41.88,2.72,1.92,4.09,2.87a9.23,9.23,0,0,0,1.2.57c1.7-2.8,3.3-5.54,5-8.22,1.23-2,2.52-3.86,3.89-5.71.36-.48,1.16-.63,1.76-.93a9.49,9.49,0,0,1,.78,1.84,4.36,4.36,0,0,1-.08,1.9c-1.23,4.94-2.48,9.88-3.79,14.8-.59,2.23-.48,2.68,1.65,3.36a11.19,11.19,0,0,0,3,.51c2.32.08,4.64,0,7,0,2,0,4,.11,5.76-1-.22,1.41-.43,2.81-.69,4.47a26.32,26.32,0,0,1-21-2.23c.91-5.28,3.82-9.77,5-15-1.22,1-1.21,1-2.39,3.74-.58,1.31-1.21,2.6-1.8,3.9s-1.25,2.75-2,4.32l-14.13-7c1.82-3.72,1.86-7.74,3.66-11.41,2.83-5.8,4.92-12,7.33-18,.49-1.24,1-2.47,1.59-4l3.44,2.14-7,15,.39.24C308.57,609.9,309.18,609,309.8,608.11Z" />
            <path class="color-shadow"
                d="M338.93,618.44a10.57,10.57,0,0,1,2.45-5.69c.47.49,1.1.84,1.18,1.3a28.82,28.82,0,0,1,.56,4.72c.08,3.27,0,6.55,0,9.83,0,.94-.24,1.88-.3,2.83-.05.77,0,1.55,0,2.45a3.88,3.88,0,0,0,1.23.16c4.35-.91,8.76-.47,13.12-.35,2.49.07,4.94,1.18,7.45,1.49,5.71.71,11.1,2.71,16.69,3.85a59.47,59.47,0,0,0,14.46,1.31,2.15,2.15,0,0,0,2.34-1.83q1.26-4.85,2.67-9.66c.75-2.51,1.56-5,2.42-7.5.33-.94.71-2,2-2.12-.55,2.48-1.11,5-1.65,7.46s-1.09,4.82-1.55,7.25c-.69,3.63.06,5.08,3.31,6.77.69.36,1.37.75,2.27,1.24a12.41,12.41,0,0,1-6.93,2.13c-10.12.67-20.1.06-29.62-3.92a51.39,51.39,0,0,0-17.48-3.62c-4.62-.22-9.25-.37-13.87-.57-.54,0-1.08-.12-2-.23.28-2.77.56-5.44.82-8.1s.5-5.08.69-7.62A6.23,6.23,0,0,0,338.93,618.44Z" />
            <path class="color-shadow"
                d="M436.26,599.51h-7.67c0,1.37.06,2.47,0,3.56-.13,2.06-.23,4.13-.56,6.16a2.5,2.5,0,0,1-1.45,1.6c-.4.14-1.41-.53-1.61-1-.81-2.15-1.45-4.37-2.08-6.58-.32-1.13-.48-2.31-.71-3.42-2.34-.42-2.34-.42-3.18,1.39-1,2.05-1.8,2.41-3.6,1.5l.27-3c-1,0-1.86-.1-2.7-.13l-15.58-.57v2.42a4,4,0,0,1-.07,1.66c-.34.64-.92,1.52-1.47,1.57s-1.42-.71-1.66-1.31a42.16,42.16,0,0,1-1.34-4.62h-2.45c-.86,2.81-1.67,5.71-2.62,8.56-1.24,3.69-2.56,7.36-3.91,11-.46,1.27-1.61,1.63-2.74,1.93-.69-.79-.75-1.39,0-1.95.81-4,1.57-7.92,2.46-11.86.58-2.54,1.36-5,2-7.54.26-1,.47-2,.74-3.12h7.94l1.27,4.36.33-.08c-.11-1.34-.22-2.67-.36-4.3,7.23,0,14.36-.38,21.58-.11v4l.22.07c.28-1,.57-1.91.84-2.87a1.57,1.57,0,0,1,1.72-1.32c1.18,0,2.37,0,3.58,0,.62,2.89,1.19,5.57,1.76,8.25l.45-.08c-.16-2.59-.31-5.18-.48-8,2.15-.09,4.16-.91,6,.71,1-1.68,2.53-.68,4.11-.85C435.61,596.93,435.94,598.22,436.26,599.51Z" />
            <path class="color-shadow"
                d="M407.64,613c1.91.75,2.34,1.67,2.1,3.59-.51,4.09-.89,8.19-1.3,12.29a9,9,0,0,0,.09,1.5c.3.11.61.36.86.31,2.85-.54,5.67.25,8.52.09,4.6-.24,9.23-.63,13.83-.42a60,60,0,0,1,19.06,3.8,58.54,58.54,0,0,0,13.1,3.45A145.43,145.43,0,0,0,480,638.84a15.94,15.94,0,0,0,3-.48l1.4,3.83c-1.14.09-2,.22-2.82.22-6.87,0-13.77,0-20.56-1.19-4.95-.83-9.89-2-13.89-5.41-2.89-2.5-6.51-2.47-10-2.48-4.55,0-9.1.18-13.66.31s-8.94.2-13.4.48a41.41,41.41,0,0,0-5.66,1.19C405.52,627.75,406.58,620.36,407.64,613Z" />
            <path class="color-shadow"
                d="M383.87,598.09c-3.94-.1-3.93-.09-5.35,3.55-.95,2.44-1.88,4.9-3,7.29a15.45,15.45,0,0,1-1.91,2.64c-1.14-1.17-1.14-1.17-.9-3.65a3.2,3.2,0,0,0-1.08-.25c-1.41.14-2-.6-2.33-1.84a2.32,2.32,0,0,0-1-1.48c-1.94-.74-1.79-2.28-1.57-3.79.47-3.2.31-3.46-2.83-3.47h-2.24c-.27,1.45-.6,2.74-.74,4-.25,2.37-.4,4.75-.55,7.12-.19,2.86-.24,5.72-.56,8.56a4,4,0,0,1-1.84,3.46,7.12,7.12,0,0,1-.86-1.9c-.22-2-.31-3.94-.41-5.92,0-.17.28-.36.43-.54q.88-6,1.78-12c.2-1.33.38-2.66.61-4.22H370.5c-.12,1.61-.22,3.15-.33,4.7l.44.09c.31-1.55.62-3.1,1-4.81h4.6c-.62,2.48-1.21,4.82-1.8,7.17l-.12.14.1-.16c1.1-1.91,2.29-3.78,3.26-5.75a2.55,2.55,0,0,1,2.79-1.64c1.15.09,2.31,0,3.72,0C384,596.58,384,597.34,383.87,598.09Z" />
            <path class="color-shadow"
                d="M357.67,599.05c-.65-1.33-1.58-1.63-3.07-1.26-2.84.69-5.73,1.19-8.63,1.6a2.87,2.87,0,0,0-2.56,2.4c-.56,1.91-1.23,3.78-1.87,5.66a3.75,3.75,0,0,1-.6,1.53,2.54,2.54,0,0,1-1.74.87c-.85-.15-.69-1-.6-1.75.25-2.27.33-4.56.48-7a9,9,0,0,0-1.62-.15c-1.66.11-3.31.38-5,.42a2.11,2.11,0,0,0-2.11,1.59,25.13,25.13,0,0,1-1.27,3.33c-.3.55-1.19,1.3-1.56,1.18a2.55,2.55,0,0,1-1.46-1.6,14.07,14.07,0,0,1-.18-3.56c0-1.05-.46-1.45-1.45-1.37l1.6-2.78,2.2.37c-.16,1.79-.32,3.43-.47,5.08l.28.08c.57-1.72,1.14-3.43,1.71-5.11l11.57-1c-.15,2.76-.3,5.35-.45,7.94l.17,0c.6-2.63,1.2-5.25,1.86-8.16L357.57,596A3.28,3.28,0,0,1,357.67,599.05Z" />
            <path class="color-shadow"
                d="M475.55,610.33l1-1.44a15.66,15.66,0,0,1,1.75,2.32c1.46,3.09,2.79,6.25,4.23,9.35,2,4.27,4.05,8.5,6.07,12.74l-3.76,2c-.55-1.43-1.05-2.66-1.52-3.92Z" />
            <path class="color-shadow"
                d="M324,600.44a15.76,15.76,0,0,1-6.76-1.63,21.85,21.85,0,0,0-2.42-.74c.78-2.22.77-2.18,2.77-1.63,2.22.62,4.47,1.17,7,1.83C324.43,599,324.24,599.73,324,600.44Z" />
            <path class="color-shadow"
                d="M482.31,636c-.38-.35-.94-.62-1.13-1.06a82.79,82.79,0,0,1-4.42-15.21c-.06-.29.41-.7.63-1.05Z" />
            <path class="color-shadow" d="M477.11,617.73l-.78-.37.55-.61C477,617.08,477,617.41,477.11,617.73Z" />
            <path class="color-shadow" d="M324.35,601.26l-.15.37-.15-.36Z" />
            <path class="outline" d="M374.36,602.85l-.1.16.12-.14Z" />
        </g>
    </g>
</svg>
