<svg id="Nizy_bochonki" data-name="Nizy bochonki" xmlns="http://www.w3.org/2000/svg" viewBox="0 0 672 960">
    <g id="img_17" data-name="img 17">
        <g id="img_13_img" data-name="img 13 img">
            <path class="color-base"
                d="M493.48,588.85c1-1.12,1.6-2.75,3.48-2.72a7,7,0,0,1,.9.15.49.49,0,0,1,.21.24l.74,2.3.57.46c-.92,4.27-1.78,8.56-2.78,12.81a26.34,26.34,0,0,1-1.63,4.72,2.36,2.36,0,0,1-1.52,1.27c-3.3.43-6.62.7-9.94,1l-5.93.56c-3.16.29-6.32.66-9.48.83-1.33.07-2.67-.36-4-.42-5.81-.23-11.64.35-17.45-.45a42.69,42.69,0,0,0-8.81-.45c-5,.36-10-1.13-15-.14a99.26,99.26,0,0,1-9.94,1,9.39,9.39,0,0,1-1.67-.08c-1.1-.1-2.2-.35-3.3-.35q-17.52,0-35,0c-2.62,0-5.24.31-7.86.5-3.87.29-7.75.66-11.63.89-2.07.12-4.16,0-6.24,0a36.12,36.12,0,0,1-6-.08c-4.53-.76-9-1.87-13.53-2.72a3.62,3.62,0,0,1-2.92-2.5c-1.13-3.06-2.23-6.14-3.15-9.27s-1.61-6.31-2.4-9.46a58.23,58.23,0,0,1,10.26,3.25,17,17,0,0,0,6.06,1q10.31.4,20.6.5c3.91,0,7.81-.28,11.71-.24,2.79,0,5.58.43,8.37.59,1.34.07,2.7,0,4.05-.06,3.1-.15,6.2-.31,9.31-.51,8.52-.56,17-1.06,25.56-1.72,5.56-.42,11.1-1.19,16.66-1.6,5.26-.38,10.53-.6,15.79-.69s10.72.08,16.08.1c5.67,0,11.35-.15,17,0,4.21.14,8.4.73,12.6,1.12h.12Z" />
            <path class="color-shadow"
                d="M319.17,587c.79,3.15,1.48,6.34,2.4,9.46s2,6.21,3.15,9.27a3.62,3.62,0,0,0,2.92,2.5c4.52.85,9,2,13.53,2.72a36.12,36.12,0,0,0,6,.08c2.08,0,4.17.1,6.24,0,3.88-.23,7.76-.6,11.63-.89,2.62-.19,5.24-.49,7.86-.5q17.5-.08,35,0c1.1,0,2.2.25,3.3.35a9.39,9.39,0,0,0,1.67.08,99.26,99.26,0,0,0,9.94-1c5.05-1,10,.5,15,.14a42.69,42.69,0,0,1,8.81.45c5.81.8,11.64.22,17.45.45,1.35.06,2.69.49,4,.42,3.16-.17,6.32-.54,9.48-.83l5.93-.56c3.32-.33,6.64-.6,9.94-1a2.36,2.36,0,0,0,1.52-1.27,26.34,26.34,0,0,0,1.63-4.72c1-4.25,1.86-8.54,2.78-12.81l.76-.6c.17-.57.33-1.15.5-1.72l.15-.8c.12-.38.24-.75.35-1.13s.11-.51.17-.77.23-.78.35-1.16l.35-1c-.1-.13-.08-.24.07-.31.25.29.51.58.76.88-.13.69-.25,1.38-.38,2.07,0,.26-.07.53-.11.8-.12.53-.23,1.06-.35,1.6s-.13.83-.2,1.24-.21.78-.31,1.17a18.63,18.63,0,0,1-.07,3.43c-1.19,5.67-2.48,11.32-3.74,17a2.39,2.39,0,0,1-2.32,2.05c-.87.07-1.76,0-2.64,0-2.3.11-4.61.11-6.89.4-4.49.57-8.94,1.42-13.42,2a76,76,0,0,1-9.29.48c-4.22,0-8.46-.13-12.65-.53a94.61,94.61,0,0,0-11.4-.87,8.09,8.09,0,0,1-1.91,0c-3.8-.89-7.65-.24-11.46-.43-.68,0-1.3.06-1.43.91l-7.71-.21h-2.31l-1.08,0a10.09,10.09,0,0,0-2.3-.54c-1.77,0-3.66-.74-5.29.58l-7.69.26a3.09,3.09,0,0,0-1.05-.45c-3.89-.19-7.78-.4-11.68-.49a119.34,119.34,0,0,0-18.32.94c-3.85.51-7.68,1.15-11.54,1.61-2.9.35-5.84.54-8.76.78a3.39,3.39,0,0,1-1-.07c-2.49-.45-5-1-7.48-1.34a52.27,52.27,0,0,1-14.34-4.18,4.71,4.71,0,0,1-3.09-3.34c-.72-3.09-1.56-6.16-2.41-9.21-1.12-4.06-2.29-8.1-3.44-12.15,0-.46.09-.91.14-1.37.27.48.55,1,.83,1.43l.18.1-.17-.11c-.05-1,.73-1.11,1.36-1.41Z" />
            <path class="outline"
                d="M413.17,613.61l1.08,0h2.31l7.71.21a23.23,23.23,0,0,0,2.58.45c4.86.31,9.71.67,14.57.83,8.38.28,16.76.56,25.15.6,6,0,12-.36,18-.55,4.07-.12,8.14-.2,12.2-.35,2.71-.11,3.72-.88,4.52-3.41,1.3-4.1,2.53-8.23,3.82-12.34.34-1.06.66-2.17,1.83-2.68l1.26-.82a3.28,3.28,0,0,1,.62,3.4c-.58,1.73-1.12,3.49-1.77,5.2-1.21,3.21-2.58,6.36-3.72,9.59a4.88,4.88,0,0,1-4.82,3.46c-9.27,0-18.54.31-27.81.22s-18.52-.47-27.78-.83c-10.93-.42-21.86-1.09-32.79-1.36-5.42-.13-10.86.29-16.28.66-7.33.5-14.66,1.08-22,1.82-5.56.56-11.09,1.43-16.64,2.16a71.3,71.3,0,0,1-22.91-.27,29.45,29.45,0,0,1-3.93-1c-2.57-.88-5.1-1.87-7.65-2.8a5.21,5.21,0,0,1-3.47-3.56c-2.42-7.19-5.1-14.3-7.68-21.44.4-.57-.59-1.51.5-1.9a1.29,1.29,0,0,1,0,.48l.38.54h0l.46.93.57,1.39,1.89,3.37.12.12-.14-.1-.49-3.24c-.23-1.13-.45-2.26-.68-3.38l.06-.91.42-.36c.87,2.65,1.77,5.29,2.61,8,1.5,4.8,2.93,9.63,4.46,14.42a4.2,4.2,0,0,0,1.44,2.34,58.93,58.93,0,0,0,8.5,3.85,52.87,52.87,0,0,0,16.78,2.24c2.07,0,4.14-.26,6.21-.46,3.73-.36,7.46-.79,11.19-1.17,7.14-.72,14.27-1.49,21.42-2.1,3.82-.33,7.66-.38,11.49-.58a4.32,4.32,0,0,0,1.1-.37l7.69-.26Z" />
            <path class="color-shadow-dark"
                d="M397.89,613.91a4.32,4.32,0,0,1-1.1.37c-3.83.2-7.67.25-11.49.58-7.15.61-14.28,1.38-21.42,2.1-3.73.38-7.46.81-11.19,1.17-2.07.2-4.14.46-6.21.46a52.87,52.87,0,0,1-16.78-2.24,58.93,58.93,0,0,1-8.5-3.85,4.2,4.2,0,0,1-1.44-2.34c-1.53-4.79-3-9.62-4.46-14.42-.84-2.67-1.74-5.31-2.62-8-.11-.53-.23-1.06-.35-1.59l.17-.18c.77,1,1.55,0,2.33,0,1.15,4,2.32,8.09,3.44,12.15.85,3.05,1.69,6.12,2.41,9.21a4.71,4.71,0,0,0,3.09,3.34,52.27,52.27,0,0,0,14.34,4.18c2.51.32,5,.89,7.48,1.34a3.39,3.39,0,0,0,1,.07c2.92-.24,5.86-.43,8.76-.78,3.86-.46,7.69-1.1,11.54-1.61a119.34,119.34,0,0,1,18.32-.94c3.9.09,7.79.3,11.68.49A3.09,3.09,0,0,1,397.89,613.91Z" />
            <path class="color-shadow-dark"
                d="M506.9,596.42c-1.17.51-1.49,1.62-1.83,2.68-1.29,4.11-2.52,8.24-3.82,12.34-.8,2.53-1.81,3.3-4.52,3.41-4.06.15-8.13.23-12.2.35-6,.19-12,.57-18,.55-8.39,0-16.77-.32-25.15-.6-4.86-.16-9.71-.52-14.57-.83a23.23,23.23,0,0,1-2.58-.45c.13-.85.75-.94,1.43-.91,3.81.19,7.66-.46,11.46.43a8.09,8.09,0,0,0,1.91,0,94.61,94.61,0,0,1,11.4.87c4.19.4,8.43.5,12.65.53a76,76,0,0,0,9.29-.48c4.48-.53,8.93-1.38,13.42-2,2.28-.29,4.59-.29,6.89-.4.88,0,1.77,0,2.64,0a2.39,2.39,0,0,0,2.32-2.05c1.26-5.65,2.55-11.3,3.74-17a18.63,18.63,0,0,0,.07-3.43c.19,1.13,1.11,1.45,2,1.78a2.67,2.67,0,0,1,2,2.87C505.45,595.19,505.55,596.22,506.9,596.42Z" />
            <path class="color-shadow-dark" d="M313.4,595.65l-1.89-3.37,1.38.15.49,3.24Z" />
            <path class="color-shadow-dark" d="M310.06,588.93c-1.09.39-.1,1.33-.5,1.9a3.77,3.77,0,0,1-.15-3.57Z" />
            <path class="color-shadow-dark" d="M502.84,582.63c-.25-.3-.51-.59-.76-.88.16-.33.32-.66.49-1l.45,0Z" />
            <path class="color-shadow-dark" d="M315.8,586.07c-.28-.47-.56-1-.83-1.43h2.2c-.63.3-1.41.45-1.36,1.41Z" />
            <path class="color-shadow-dark" d="M311.88,587.06l-.45-1.93.48-.17.59,1-.17.18Z" />
            <path class="color-shadow-dark"
                d="M501.8,588.34c.07-.41.13-.83.2-1.24C501.93,587.51,501.87,587.93,501.8,588.34Z" />
            <path class="color-shadow-dark" d="M500.14,588.68l-.76.6-.57-.46Z" />
            <path class="color-shadow-dark" d="M502,582.06l-.35,1Z" />
            <path class="color-shadow-dark"
                d="M501.31,584.26c-.06.26-.11.52-.17.77C501.2,584.78,501.25,584.52,501.31,584.26Z" />
            <path class="color-shadow-dark"
                d="M502.35,585.5c0-.27.07-.54.11-.8C502.42,585,502.39,585.23,502.35,585.5Z" />
            <path class="outline" d="M311.88,587.06l.45-.87c.12.53.24,1.06.35,1.59l-.41.36A.41.41,0,0,0,312,588Z" />
            <path class="color-shadow-dark" d="M500.79,586.16l-.15.8Z" />
            <path class="color-shadow-dark"
                d="M312,588a.41.41,0,0,1,.28.13l-.06.91C312.14,588.7,312.06,588.35,312,588Z" />
            <polygon class="color-shadow-dark"
                points="493.48 588.85 493.36 588.81 493.24 588.81 493.37 588.75 493.48 588.85" />
            <path class="color-shadow-dark" d="M310.94,590.89l-.46-.93Z" />
            <path class="color-shadow-dark" d="M498.07,586.52a.49.49,0,0,0-.21-.24l.17.06Z" />
            <path class="color-shadow-dark" d="M310.45,590l-.38-.54Z" />
            <path class="color-shadow-dark"
                d="M413.17,613.61l-7.59,0c1.63-1.32,3.52-.57,5.29-.58A10.09,10.09,0,0,1,413.17,613.61Z" />
            <path class="color-shadow-dark" d="M416.56,613.66h0Z" />
            <path class="color-shadow-dark" d="M315.81,586.06l.17.11-.18-.1Z" />
            <polygon class="color-shadow-dark" points="313.38 595.67 313.52 595.77 313.4 595.65 313.38 595.67" />
        </g>
    </g>
</svg>
