<svg id="Nizy_bochonki" data-name="Nizy bochonki" xmlns="http://www.w3.org/2000/svg" viewBox="0 0 672 960">
    <g id="img_17" data-name="img 17">
        <g id="img_12_img" data-name="img 12 img">
            <path class="outline"
                d="M310.23,592.25a9.71,9.71,0,0,1,1.67.39c1.73.8,3.5,1.56,5.14,2.52a11.66,11.66,0,0,0,5,1.49c2.85.27,5.69.84,8.54.86a77.6,77.6,0,0,0,8.58-.74c6.43-.67,12.86-1.47,19.3-2q10.4-.87,20.82-1.29c3.5-.13,7,.24,10.54.33,4.63.12,9.26.23,13.89.26,6,0,12,0,18,0q9.23-.13,18.45-.5c8.63-.33,17.24-.57,25.87.45,3.55.41,7.18.25,10.77.38,4.08.13,8.16.22,12.22.47,4.27.27,8.27,1.75,12.29,3.07,2.56.84,2.95.86,5.9-.14.2-1.08.41-2.23.71-3.84a12.29,12.29,0,0,1,1.12,1.66c.28.65.36,1.41.67,2,1.11,2.23.81,4.37.2,6.72a82.86,82.86,0,0,0-2,11.07,69,69,0,0,1-4.2,15.69,2.33,2.33,0,0,1-2.21,1.5c-3.23.46-6.46,1-9.71,1.33q-8.32.93-16.69,1.68c-4.37.38-8.76.66-13.15.9-7.73.42-15.47.88-23.21,1.15-8.79.31-17.57.59-26.36.62-15.27.06-30.53-.06-45.8-.14-4.95,0-9.92.1-14.86-.26a174.57,174.57,0,0,1-17.37-2,93.61,93.61,0,0,1-11.74-3.31,5.11,5.11,0,0,1-3.94-4.32c-.65-3.85-1.58-7.66-2.44-11.47-.24-1.09-.75-2.11-1-3.2-.55-2.65-1-5.33-1.49-8-.27-1.41-.5-2.83-.88-4.21C312.08,598.46,311.2,595.56,310.23,592.25Zm111.63,44.07,4.39-.18.94,0a14.2,14.2,0,0,0,2.33.26c4.2-.19,8.39-.48,12.59-.68,5.4-.26,10.8-.42,16.19-.72,2-.11,3.92-.49,5.87-.74l1.36,0c3.71-.26,7.43-.45,11.13-.81,3.33-.33,6.65-.84,10-1.28,4.5-.59,9-1.23,13.5-1.77a2,2,0,0,0,1.9-1.75c.36-1.55.85-3.08,1.23-4.62.43-1.78.89-3.56,1.19-5.37.47-2.91.83-5.83,1.2-8.75.26-2.06.48-4.12.7-6.18a1.9,1.9,0,0,0-1.66-2.23c-1.92-.53-3.81-1.2-5.74-1.72a60.92,60.92,0,0,0-8.8-2.21c-4.75-.55-9.55-.66-14.34-.86-3.51-.16-7.05,0-10.54-.28-9.66-.9-19.31-.39-29-.06-4.23.15-8.46.39-12.68.44-6.15.08-12.3,0-18.45,0-4.79,0-9.58,0-14.36-.13-3.51-.08-7-.44-10.53-.46s-6.86.19-10.29.44c-5.73.42-11.48.76-17.17,1.51-9,1.17-17.89,2.33-26.94,2.35l-1.87-.27-10.13-2c2.12,10.24,4.19,20.28,6.2,30,3.5,1.28,6.71,2.49,9.94,3.61a46.28,46.28,0,0,0,5.71,1.73A121,121,0,0,0,357.86,636q15.11.39,30.21.53c5,.06,10.07-.06,15.1-.11Z" />
            <path class="color-shadow"
                d="M324,600.23l1.87.27c.11.85.72.9,1.4.92,4.91.15,9.82.33,14.73.47,1.67.05,3.34,0,5,0-.12.85-.72.94-1.41.94a32.46,32.46,0,0,0-4.07.07,68.07,68.07,0,0,1-16.45,0,33.91,33.91,0,0,0-3.92,0,11.81,11.81,0,0,0,0,1.91c.61,3.19,1.23,6.39,1.91,9.57.57,2.64,1.2,5.27,1.83,7.89a3.08,3.08,0,0,0,2,2.47c2.65.89,5.24,2,7.94,2.61a89.6,89.6,0,0,0,9.39,1.53c4.17.53,8.35,1.14,12.54,1.28s8.6-.38,12.9-.38c4.7,0,9.4.26,14.09.45,3.11.13,6.2.31,9.3.5q7.26.45,14.52.94c1.82.12,3.63.35,5.46.42a16,16,0,0,0,3.08-.21c3.61-.52,7.2-1.29,10.83-1.6,4.44-.37,8.91-.36,13.37-.54,3.18-.13,6.36-.32,9.54-.45,4.54-.19,9.08-.32,13.61-.51,2.94-.13,5.88-.33,8.82-.5a5.42,5.42,0,0,0,.7-.14c3-.59,6.09-1.13,9.12-1.77,3.34-.7,6.67-1.48,10-2.23,1.06-.24,2-.67,2.18-1.91.2-1.49.36-3,.51-4.49.31-3.24.58-6.48.91-9.72.13-1.26.13-2.51-1.19-3.1-2.4-1.07-4.77-2.39-7.3-2.9A89.92,89.92,0,0,0,476.6,601c-2.77-.22-5.55-.34-8.33-.54-.28,0-.53-.3-.8-.46a3.69,3.69,0,0,1,1.07-.43c3.89-.19,7.78-.4,11.67-.47,1.65,0,3.32.47,5,.41,4.49-.15,8.81,1,13.22,1.54,2,.23,2.88,1.54,2.65,3.52-.06.47-.36,1-.26,1.39.58,2.33-.21,4.55-.54,6.79-.48,3.22-1.29,6.38-1.13,9.68a10.9,10.9,0,0,1-.61,3.74,4.19,4.19,0,0,1-3.61,3.1c-2.6.28-5.23.3-7.83.55a42.21,42.21,0,0,0-5.39.81c-4.72,1.06-9.41,2.28-14.27,2.52-.86,0-1.57.21-1.88,1.12l-1.36,0a5.85,5.85,0,0,0-1.9-.61c-1.82,0-3.63.37-5.45.42-2.88.08-5.76,0-8.63,0q-8.35.18-16.71.5a20.15,20.15,0,0,0-3.76.59c-.24.05-.36.62-.53,1l-.94,0c-1.75-.95-3.14-.89-4.39.18l-18.69.07c-.25-1.16-1.19-.82-1.93-.87-4.67-.34-9.36-.54-14-1a122.31,122.31,0,0,0-13.78-.91c-2.08,0-4.16,0-6.23,0a11.15,11.15,0,0,0-2.39.1c-4.7,1.06-9.36-.06-14-.45a103.7,103.7,0,0,1-13.78-2.56c-4.33-1-8.61-2.21-12.9-3.35a2.07,2.07,0,0,1-1.63-1.85c-.32-2.36-.67-4.71-1-7.06-.23-1.73-.32-3.48-.64-5.19-.56-3-1.27-6.06-1.88-9.09-.47-2.38.17-3.11,2.65-3.21C322.5,600.89,323.49,601.29,324,600.23Z" />
            <path class="color-shadow-dark"
                d="M347,601.92c-1.67,0-3.34,0-5,0-4.91-.14-9.82-.32-14.73-.47-.68,0-1.29-.07-1.4-.92,9.05,0,18-1.18,26.94-2.35,5.69-.75,11.44-1.09,17.17-1.51,3.43-.25,6.86-.45,10.29-.44s7,.38,10.53.46c4.78.11,9.57.12,14.36.13,6.15,0,12.3.06,18.45,0,4.22,0,8.45-.29,12.68-.44,9.66-.33,19.31-.84,29,.06,3.49.32,7,.12,10.54.28,4.79.2,9.59.31,14.34.86a60.92,60.92,0,0,1,8.8,2.21c1.93.52,3.82,1.19,5.74,1.72a1.9,1.9,0,0,1,1.66,2.23c-.22,2.06-.44,4.12-.7,6.18-.37,2.92-.73,5.84-1.2,8.75-.3,1.81-.76,3.59-1.19,5.37-.38,1.54-.87,3.07-1.23,4.62a2,2,0,0,1-1.9,1.75c-4.51.54-9,1.18-13.5,1.77-3.32.44-6.64,1-10,1.28-3.7.36-7.42.55-11.13.81.31-.91,1-1.08,1.88-1.12,4.86-.24,9.55-1.46,14.27-2.52a42.21,42.21,0,0,1,5.39-.81c2.6-.25,5.23-.27,7.83-.55a4.19,4.19,0,0,0,3.61-3.1,10.9,10.9,0,0,0,.61-3.74c-.16-3.3.65-6.46,1.13-9.68.33-2.24,1.12-4.46.54-6.79-.1-.42.2-.92.26-1.39.23-2-.65-3.29-2.65-3.52-4.41-.53-8.73-1.69-13.22-1.54-1.65.06-3.32-.44-5-.41-3.89.07-7.78.28-11.67.47a3.69,3.69,0,0,0-1.07.43c-1.11,0-2.23,0-3.34-.08-3.07-.26-6.14-.8-9.21-.82-4.76,0-9.52.26-14.29.41-.14-.82-.72-.92-1.41-.92H429c-.69,0-1.27.11-1.39.94-4.06.16-8.11.46-12.17.45-8.21,0-16.44.38-24.64-.45a39,39,0,0,0-4-.38,28.08,28.08,0,0,0-6.63.36,58.2,58.2,0,0,1-17,2c-1.11,0-2.23.05-3.35.11C355.54,601.76,351.31,602.93,347,601.92Z" />
            <path class="color-shadow-dark"
                d="M324,600.23c-.52,1.06-1.51.66-2.33.7-2.48.1-3.12.83-2.65,3.21.61,3,1.32,6.05,1.88,9.09.32,1.71.41,3.46.64,5.19.31,2.35.66,4.7,1,7.06a2.07,2.07,0,0,0,1.63,1.85c4.29,1.14,8.57,2.38,12.9,3.35a103.7,103.7,0,0,0,13.78,2.56c4.63.39,9.29,1.51,14,.45a11.15,11.15,0,0,1,2.39-.1c2.07,0,4.15,0,6.23,0a122.31,122.31,0,0,1,13.78.91c4.65.49,9.34.69,14,1,.74.05,1.68-.29,1.93.87-5,0-10.06.16-15.1.1q-15.1-.16-30.21-.53a121,121,0,0,1-22.13-2.33A46.28,46.28,0,0,1,330,631.9c-3.23-1.12-6.44-2.33-9.94-3.61-2-9.76-4.08-19.8-6.2-30Z" />
            <path class="color-shadow-dark"
                d="M427.19,636.12c.17-.33.29-.9.53-1a20.15,20.15,0,0,1,3.76-.59q8.36-.33,16.71-.5c2.87-.07,5.75,0,8.63,0,1.82,0,3.63-.37,5.45-.42a5.85,5.85,0,0,1,1.9.61c-1.95.25-3.9.63-5.87.74-5.39.3-10.79.46-16.19.72-4.2.2-8.39.49-12.59.68A14.2,14.2,0,0,1,427.19,636.12Z" />
            <path class="color-shadow-dark" d="M421.86,636.32c1.25-1.07,2.64-1.13,4.39-.18Z" />
            <path class="color-base"
                d="M440.63,599.46c4.77-.15,9.53-.45,14.29-.41,3.07,0,6.14.56,9.21.82,1.11.09,2.23.06,3.34.08.27.16.52.44.8.46,2.78.2,5.56.32,8.33.54A89.92,89.92,0,0,1,487.26,602c2.53.51,4.9,1.83,7.3,2.9,1.32.59,1.32,1.84,1.19,3.1-.33,3.24-.6,6.48-.91,9.72-.15,1.5-.31,3-.51,4.49-.17,1.24-1.12,1.67-2.18,1.91-3.33.75-6.66,1.53-10,2.23-3,.64-6.08,1.18-9.12,1.77a5.42,5.42,0,0,1-.7.14c-2.94.17-5.88.37-8.82.5-4.53.19-9.07.32-13.61.51-3.18.13-6.36.32-9.54.45-4.46.18-8.93.17-13.37.54-3.63.31-7.22,1.08-10.83,1.6a16,16,0,0,1-3.08.21c-1.83-.07-3.64-.3-5.46-.42q-7.26-.49-14.52-.94c-3.1-.19-6.19-.37-9.3-.5-4.69-.19-9.39-.44-14.09-.45-4.3,0-8.61.52-12.9.38s-8.37-.75-12.54-1.28a89.6,89.6,0,0,1-9.39-1.53c-2.7-.64-5.29-1.72-7.94-2.61a3.08,3.08,0,0,1-2-2.47c-.63-2.62-1.26-5.25-1.83-7.89-.68-3.18-1.3-6.38-1.91-9.57a11.81,11.81,0,0,1,0-1.91,33.91,33.91,0,0,1,3.92,0,68.07,68.07,0,0,0,16.45,0,32.46,32.46,0,0,1,4.07-.07c.69,0,1.29-.09,1.41-.94,4.29,1,8.52-.16,12.78-.39,1.12-.06,2.24-.16,3.35-.11a58.2,58.2,0,0,0,17-2,28.08,28.08,0,0,1,6.63-.36,39,39,0,0,1,4,.38c8.2.83,16.43.42,24.64.45,4.06,0,8.11-.29,12.17-.45Z" />
            <path class="color-shadow"
                d="M440.63,599.46l-13,0c.12-.83.7-.94,1.39-.94h10.21C439.91,598.54,440.49,598.64,440.63,599.46Z" />
        </g>
    </g>
</svg>
