<svg id="Nizy_bochonki" data-name="Nizy bochonki" xmlns="http://www.w3.org/2000/svg" viewBox="0 0 672 960">
    <g id="img_17" data-name="img 17">
        <g id="img_15_img" data-name="img 15 img">
            <path class="color-base"
                d="M317.72,586.55c1.14.1,1.07-.56.93-1.37q-1-5.67-1.92-11.34a6.63,6.63,0,0,1,0-2.94c.8,2.7,1.7,5.37,2.37,8.1a5.23,5.23,0,0,0,3.75,4.18c1.46.45,1.59,1.84,2.11,3l-1.66,1.17c.2.23.28.43.39.44a34.28,34.28,0,0,1,9.41,2.51c2.77,1.3,5.73,1.29,8.64,1.59,5.08.54,10.17,1,15.26,1.3,1.9.13,3.82-.07,5.74-.11,7.19-.18,14.38-.26,21.56-.57,3.41-.15,6.82-.69,10.21-1.17a124,124,0,0,1,17.44-.93c8.55,0,17.1.11,25.65,0,4.13-.08,8.26-.71,12.39-1,4.86-.32,9.72-.48,14.58-.77,3.9-.24,7.79-.56,11.69-.85.63,0,1.27-.13,1.91-.14l17.22-.08h1.13c.26-.64.54-1.27.78-1.92s.51-1.41,1.57-1.51c.47-.05.86-.9,1.37-1.48.57,1.94-.22,3.68-.63,5.46-.91,3.11-1.85,6.21-2.73,9.32-.56,2-1,4-1.56,6-.48,0-1,.11-1.43.11q-12,0-24,0c-1.68,0-3.36-.06-5-.14-7.67-.38-15.33-.93-23-1.13-15.67-.41-31.34-.64-47-.92-2.64,0-5.27,0-7.91,0-5,0-9.92,0-14.87.11-8.15.16-16.3.4-24.46.6l-2,.22-22.1,0c-1.25-4.21-2.54-8.42-3.73-12.65A5.51,5.51,0,0,0,317.72,586.55Z" />
            <path class="outline"
                d="M347.62,602c8.16-.2,16.31-.44,24.46-.6,4.95-.1,9.91-.09,14.87-.11,2.64,0,5.27,0,7.91,0,15.67.28,31.34.51,47,.92,7.67.2,15.33.75,23,1.13,1.68.08,3.36.14,5,.14q12,0,24,0c.47,0,1-.07,1.43-.11l9.65.3c.84-2.92,1.63-5.66,2.41-8.39l1.61-1.16a23.32,23.32,0,0,1,.11,3.47,40.24,40.24,0,0,1-2.95,11.81c-.69,1.52-1.11,3.16-1.69,4.73a4.37,4.37,0,0,1-4.75,3.18c-3.83-.19-7.67-.27-11.5-.3-3,0-5.92,0-8.87.18-10.55.47-21.09.36-31.63-.19-8.22-.44-16.45-.74-24.66-1.31a211.67,211.67,0,0,0-28.27-.1c-10.61.68-21.16,1.92-31.7,3.37-7.19,1-14.41,2.15-21.72,1.55a60,60,0,0,1-9.5-1.18c-4.17-1.05-8.2-2.63-12.28-4a3.57,3.57,0,0,1-2.33-2.52c-1.17-3.65-2.38-7.28-3.71-10.87-1.44-3.89-3.06-7.72-4.55-11.6a22.88,22.88,0,0,1-.65-3.06l2.71,1.38v-3.43l.48-.11c.3.7.61,1.4.92,2.09,1.09,3.31,2.2,6.6,3.28,9.91,1.82,5.57,1.82,5.57,7.76,5.12l22.1,0Zm-37.33-12.52c.73.39,1,.15.85-.63l-.92-.55C310.24,588.68,310.27,589.07,310.29,589.46Zm174,16.14q10.13,0,20.24-.06s.09-.11.1-.17a3.07,3.07,0,0,0,0-.53c-4.72-.15-9.44-.1-14.17,0l-16.55-.14c-3,0-5.92,0-8.87-.14-5.83-.32-11.64-.93-17.47-1.13q-19.29-.63-38.6-1c-8.24-.14-16.47-.07-24.7,0-9,.06-17.92.15-26.87.38-6.31.17-12.6.67-18.91.87-4.32.13-8.64,0-13,0H320.3a56.83,56.83,0,0,0,10.29.93c14.79,0,29.58-.32,44.38-.27,21.67.06,43.34.3,65,.52,3.44,0,6.87.25,10.3.5A252.45,252.45,0,0,0,484.3,605.6Zm-158.89.68-3.88-.15h-3a10.52,10.52,0,0,0,.39,1.69c.66,1.51,1,3.36,2.16,4.42s3,1.39,4.55,2a59.54,59.54,0,0,0,6.69,2.53c8.81,2.28,17.73,1.76,26.64.74,5.7-.66,11.38-1.55,17.1-2,8-.7,15.92-1.12,23.88-1.67a8.24,8.24,0,0,0,1.36-.35h1.92l1.41,0,1,0,1.89,0h1.47l1.4,0,2.83.14,8.21.33a2.12,2.12,0,0,0,.64.28c5.74.34,11.48.72,17.22,1,6.06.26,12.12.54,18.18.56,6.7,0,13.41-.22,20.11-.41,2.39-.06,4.77-.41,7.15-.46,4.31-.08,8.63,0,12.94,0,1.47,0,3.06-.14,3.94-1.36,1.27-1.78,1.74-4,2.51-6.14a12,12,0,0,0-1.31-.15c-1.36,0-2.71,0-4.07,0l-4.82,0c-1.59,0-3.19-.1-4.79-.1-9.58,0-19.17.1-28.76-.07-6.71-.11-13.4-.7-20.11-.88-7.43-.19-14.86-.14-22.29-.22-12.7-.14-25.4-.45-38.1-.41-14.95.05-29.89.39-44.83.61Z" />
            <path class="color-shadow"
                d="M507.39,595.28c-.78,2.73-1.57,5.47-2.41,8.39l-9.65-.3c.52-2,1-4,1.56-6,.88-3.11,1.82-6.21,2.73-9.32.47-.18,1.1-.24,1.38-.59a18.26,18.26,0,0,0,1.5-2.4v3.7a5.81,5.81,0,0,0,1.09.69c1.89.74,3,1.94,2.89,4.11C506.46,594.15,507.07,594.72,507.39,595.28Z" />
            <path class="color-shadow"
                d="M323.5,602.23c-5.94.45-5.94.45-7.76-5.12-1.08-3.31-2.19-6.6-3.28-9.91l2.66-1.28L316,584c1.49.45,1.28,1.69,1.68,2.57a5.51,5.51,0,0,1,2,3C321,593.81,322.25,598,323.5,602.23Z" />
            <path class="color-shadow" d="M347.62,602l-2,.22Z" />
            <path class="color-shadow"
                d="M421.38,614l-8.2-.33c-.93-.37-1.84-1.26-2.84-.14l-1.4,0c-.48-.64-1-.65-1.47,0l-1.89,0c-.32-.52-.65-.54-1,0l-1.41,0c-.33-.53-.67-.53-1,0h-.92a8.15,8.15,0,0,0-2-.49c-9.34.22-18.69-.59-28,.47-3,.34-6,.81-9,1.21s-6,.87-9,1.16c-6.76.66-13.31-.91-19.84-2.24-2.93-.6-5.68-2-8.57-2.92-2.32-.71-3.51-2.08-3.41-4.52l3.88.15.25,1.61a43.58,43.58,0,0,1,5.91.76A70.08,70.08,0,0,0,352.35,611c3-.1,6.08.14,9.1-.08,4.27-.31,8.51-1,12.77-1.33,4.77-.32,9.55-.41,14.32-.51,3.68-.07,7.35,0,11,0,.64,0,1.28,0,1.92,0,4.43.29,8.86.65,13.3.87a30.87,30.87,0,0,0,4-.44q3.19-.27,6.41-.45a21,21,0,0,1,2.63,0c1.82.11,3.64.31,5.46.41,1.19.07,2.4,0,3.59.06,4.52.28,9,.78,13.55.87,7.19.15,14.38,0,21.57,0a22.78,22.78,0,0,0,2.84-.29c2.83-.37,5.65-.79,8.49-1.12,3.07-.37,6.15-.64,9.21-1,.47-.06.88-.58,1.31-.88l4.82,0c1,3-.13,4.71-3.23,4.72-1.74,0-3.48-.21-5.22-.32a3.7,3.7,0,0,0-.94,0c-2.88.53-5.75,1.1-8.63,1.59-2.42.42-4.85.85-7.28,1.09a73,73,0,0,1-8.08.47q-8.12-.09-16.22-.5c-3.31-.16-6.62-.76-9.93-.86-5.27-.15-10.54-.06-15.8,0A8.49,8.49,0,0,0,421.38,614Z" />
            <path class="color-base"
                d="M493.87,607.21c-.43.3-.84.82-1.31.88-3.06.39-6.14.66-9.21,1-2.84.33-5.66.75-8.49,1.12a22.78,22.78,0,0,1-2.84.29c-7.19,0-14.38.12-21.57,0-4.52-.09-9-.59-13.55-.87-1.19-.08-2.4,0-3.59-.06-1.82-.1-3.64-.3-5.46-.41a21,21,0,0,0-2.63,0q-3.21.18-6.41.45a30.87,30.87,0,0,1-4,.44c-4.44-.22-8.87-.58-13.3-.87-.64,0-1.28,0-1.92,0-3.68,0-7.35-.06-11,0-4.77.1-9.55.19-14.32.51-4.26.29-8.5,1-12.77,1.33-3,.22-6.07,0-9.1.08a70.08,70.08,0,0,1-20.78-2.39,43.58,43.58,0,0,0-5.91-.76l-.25-1.61,9.58-.14c14.94-.22,29.88-.56,44.83-.61,12.7,0,25.4.27,38.1.41,7.43.08,14.86,0,22.29.22,6.71.18,13.4.77,20.11.88,9.59.17,19.18.05,28.76.07C490.68,607.11,492.28,607.18,493.87,607.21Z" />
            <path class="color-shadow"
                d="M484.3,605.6a252.45,252.45,0,0,1-34-.18c-3.43-.25-6.86-.47-10.3-.5-21.67-.22-43.34-.46-65-.52-14.8,0-29.59.22-44.38.27a56.83,56.83,0,0,1-10.29-.93h5.25c4.32,0,8.64.12,13,0,6.31-.2,12.6-.7,18.91-.87,8.95-.23,17.91-.32,26.87-.38,8.23-.06,16.46-.13,24.7,0q19.31.33,38.6,1c5.83.2,11.64.81,17.47,1.13,2.95.16,5.91.11,8.87.14l16.55.14c-.91.13-1.82.27-2.73.38C486.61,605.38,485.45,605.48,484.3,605.6Z" />
            <path class="color-shadow-dark"
                d="M321.53,606.13c-.1,2.44,1.09,3.81,3.41,4.52,2.89.88,5.64,2.32,8.57,2.92,6.53,1.33,13.08,2.9,19.84,2.24,3-.29,6-.76,9-1.16s6-.87,9-1.21c9.31-1.06,18.66-.25,28-.47a8.15,8.15,0,0,1,2,.49,8.24,8.24,0,0,1-1.36.35c-8,.55-15.93,1-23.88,1.67-5.72.49-11.4,1.38-17.1,2-8.91,1-17.83,1.54-26.64-.74a59.54,59.54,0,0,1-6.69-2.53c-1.56-.62-3.42-.94-4.55-2s-1.5-2.91-2.16-4.42a10.52,10.52,0,0,1-.39-1.69Z" />
            <path class="color-shadow-dark"
                d="M421.38,614a8.49,8.49,0,0,1,2-.51c5.26,0,10.53-.13,15.8,0,3.31.1,6.62.7,9.93.86q8.1.4,16.22.5a73,73,0,0,0,8.08-.47c2.43-.24,4.86-.67,7.28-1.09,2.88-.49,5.75-1.06,8.63-1.59a3.7,3.7,0,0,1,.94,0c1.74.11,3.48.32,5.22.32,3.1,0,4.23-1.72,3.23-4.72,1.36,0,2.71,0,4.07,0a12,12,0,0,1,1.31.15c-.77,2.17-1.24,4.36-2.51,6.14-.88,1.22-2.47,1.36-3.94,1.36-4.31,0-8.63,0-12.94,0-2.38.05-4.76.4-7.15.46-6.7.19-13.41.43-20.11.41-6.06,0-12.12-.3-18.18-.56-5.74-.26-11.48-.64-17.22-1A2.12,2.12,0,0,1,421.38,614Z" />
            <path class="color-shadow-dark"
                d="M484.3,605.6c1.15-.12,2.31-.22,3.45-.36.91-.11,1.82-.25,2.73-.38,4.73-.12,9.45-.17,14.17,0a3.07,3.07,0,0,1,0,.53c0,.06-.07.17-.1.17Q494.42,605.59,484.3,605.6Z" />
            <path class="color-shadow-dark" d="M410.34,613.49c1-1.12,1.91-.23,2.84.14Z" />
            <path class="color-shadow-dark" d="M407.47,613.45c.5-.64,1-.63,1.47,0Z" />
            <path class="color-shadow-dark" d="M402.18,613.47c.33-.53.67-.53,1,0Z" />
            <path class="color-shadow-dark" d="M404.59,613.45c.34-.52.67-.5,1,0Z" />
        </g>
    </g>
</svg>
