<svg id="Crop_Pryamoy" data-name="Crop Pryamoy" xmlns="http://www.w3.org/2000/svg" viewBox="0 0 672 960">

    <g>
        <path class="outline"
            d="M292.81,356.65a1.39,1.39,0,0,1-.14-.45c-.1-.18-.19-.36-.28-.55l-.31-.84-.22-.57-.17-.91c.18-.82-.33-1.8.57-2.46a5,5,0,0,0,1.09.78c.59.23,1.27.23,1.84.48,4.36,1.93,9,2.53,13.67,3.26a11,11,0,0,0,1.9.13A152.47,152.47,0,0,0,329.11,354c5.61-.73,11.26-1.18,16.89-1.75,3.09,0,6.18,0,9.27-.05a6.58,6.58,0,0,0,1.35-.31h26.84a18.57,18.57,0,0,0,2.55.34l45.59.09h1.79a67.1,67.1,0,0,1-9.56.72c-5.67,0-11.34-.3-17-.29-9.68,0-19.35.21-29,.27-2.71,0-5.42-.21-8.14-.2-3.35,0-6.7.08-10.05.22q-6.47.26-12.93.65c-4.14.25-8.29.51-12.42.88-2.7.24-5.38.72-8.07,1-4.21.41-8.45.63-12.65,1.12a27.59,27.59,0,0,1-13.6-1.82,21.8,21.8,0,0,0-6.13-1.53c-.22,1.27.13,2.06,1.21,2.45a12.66,12.66,0,0,0,2.46.87c3.63.52,7.27,1,10.91,1.4a20.62,20.62,0,0,0,4.06.3c4.93-.39,9.85-.95,14.78-1.39,5.32-.46,10.65-1.09,16-1.23,12.31-.33,24.62-.4,36.92-.6,4.08-.07,8.15-.27,12.22-.38,7.67-.21,15.33-.49,23-.56,5.27,0,10.54.3,15.82.34,3.67,0,7.35-.36,11-.19,6.3.28,12.6.7,18.87,1.34A45.68,45.68,0,0,1,478,360.58a8.91,8.91,0,0,0,2.24.79,1.15,1.15,0,0,0,1-.37c.44-.64-.14-3-.81-3.26-2.7-1.17-5.21-2.76-8.23-3.17-3.63-.48-7.24-1.12-10.86-1.69l0-.11h6.21l1.38,0,4.85.47c1.94.79,3.89,1.59,5.84,2.36a3.44,3.44,0,0,1,2.33,2.39l.41,1a1.14,1.14,0,0,1,.11.4c-1.18,1.5-.26,2.72.51,4l-.12,1.89.07.49.11.92c-.56.1-1.05.26-.93,1s.17,1.19.25,1.79l-1.14,3-.28.34-.13.14-.85.68-.54.32-.82.36a.32.32,0,0,1-.23,0,9.55,9.55,0,0,0-1.19,0c-2.78.17-5.57.5-8.35.51-3,0-6.06-.28-9.09-.39-10.13-.35-20.26-.65-30.38-1-4.55-.16-9.1-.39-13.64-.63-6.85-.36-13.69-.92-20.54-1.08-6.14-.14-12.3-.06-18.43.28-8.2.45-16.38,1.22-24.57,1.92a17.59,17.59,0,0,0-3.17.87.34.34,0,0,1-.26.05c-3.39.4-6.78.78-10.17,1.2-7.29.91-14.58,1.5-21.91.63A31.69,31.69,0,0,1,307,374.2a39.45,39.45,0,0,0-6.38-1.74l-.2,0-.79-.41-.15-.09-.42-.33-.57-.56-.38-.42-.06-.09-.34-.45c-.27-.91-.55-1.82-.83-2.72l-.2-1.09-.19-.89-.37-1.12-.52-1.35-.48-1.06-.87-1.93-.41-.86-.16-.47C293.37,357.93,293.09,357.29,292.81,356.65Zm132,9.93c.63,1.28,1.27,2.56,1.9,3.85a2.79,2.79,0,0,0,2.86,1.64c2.22,0,4.43.19,6.65.3.48,0,.95,0,1.43,0a1.21,1.21,0,0,0,1.35-1.07c.27-1.32.48-2.65.72-4l.67-.52c.2,1.26.49,2.51.58,3.77.08,1.06.41,1.58,1.57,1.6,3.58.06,7.15.22,10.73.32,1.27,0,2.53,0,3.81,0,.24-1.24-.36-2.46.52-3.58.41.65.76,1.17,1.1,1.69,1.31,2.15,3.71,2.85,6.83,1.92l-.62-2,.09-3.82a.67.67,0,0,0,.15-.38,1.93,1.93,0,0,0,.34,0h0c.33,1.87.71,3.73,1,5.61.12.81.5,1.12,1.24,1.08a40.28,40.28,0,0,0,4.27-.27c2.19-.35,2.17-.43,2.46-2.57,0-.09.23-.16.38-.26a15.24,15.24,0,0,0,1.29,1.37,1.35,1.35,0,0,0,1.95,0,12.25,12.25,0,0,0,3.37-6.68c.1-.86-.31-1.16-1.19-1.38a29.25,29.25,0,0,1-4-1.48c-.66-.27-1.29-.59-1.94-.88s-1.29-.62-2-.88a49.37,49.37,0,0,0-17.32-3.31c-7.58-.17-15.17-.23-22.75-.33l-2.15,0c-5.67,0-11.34-.14-17-.1-3,0-6.05.37-9.09.43-8,.16-16,.24-23.95.37-1.75,0-3.51.11-5.26.16l-7.34.31h-6a23.44,23.44,0,0,0-8.31.06l-2.41.09a5,5,0,0,0-.95-.09c-6.29.31-12.58.54-18.86,1-4.69.33-9.35,1-14,1.4a35.76,35.76,0,0,1-6.44.34c-4.67-.4-9.33-1.09-14-1.64a2.49,2.49,0,0,0-.8.17,68.39,68.39,0,0,1,2.92,7.17c.57,2,1.55,3.2,3.57,3.56a2,2,0,0,1,.67.27c1.28.81,1.31-.35,1.58-1.4,1.33,2.38,2.9,4,5.51,4.41-.14-1.57-.28-3.06-.42-4.54.44.64.87,1.29,1.3,1.94.64,2.9,2.53,4.22,5.41,4.26a3.87,3.87,0,0,1,.48,0c2.67.23,5.35.42,8,.7,2.34.24,2.38.25,3-2.18.4-1,.79-2,1.18-2.94l.36.12c-.08,1.55-.16,3.1-.25,4.78a27.25,27.25,0,0,1,3.2-.3,2.54,2.54,0,0,0,2.74-1.78,14.07,14.07,0,0,1,2.55-4.26c-.38,2.2-.68,3.89-1,5.87,3.14-.52,6.07-.33,8.79-1.17v-5.11a12,12,0,0,1,1.59,3.12c.66,1.76.73,1.82,2.6,1.64a10.53,10.53,0,0,0,1.45-.34c-.34-1-.61-1.76-.89-2.55l.47-.39c.34.52.72,1,1,1.55a2.41,2.41,0,0,0,2.85,1.16c1.49-.25,3-.27,4.52-.43,1.06-.11,2.11-.29,3.08-.43-.53-2-1-3.64-1.45-5.32.54-.74.88-.08,1.27.19.76,1.39,1.51,2.78,2.28,4.17a1.4,1.4,0,0,0,1.55.79c2.46-.23,2.46-.18,2.62-2.81,0-.19.17-.37.37-.75.37.73.69,1.27.92,1.84a2.16,2.16,0,0,0,2.53,1.3c2.3-.2,4.61-.39,6.91-.38a4.11,4.11,0,0,0,3.55-1.56,8.11,8.11,0,0,1,1-1c.35-.32.74-.6,1.4-1.12-.41,1.38-.69,2.32-1,3.43,3.19,0,6.21.58,8-2.65,0-.08.24-.07.44-.12l-.85,2.69a75,75,0,0,0,9.84.37c-.25-.91-.43-1.54-.74-2.62.83.69,1.34,1.05,1.78,1.48A5.68,5.68,0,0,0,406.3,371l9.78.48c2.39.12,4.78.26,7.17.35a9.37,9.37,0,0,0,1.66-.23l-1.12-5.05Z" />
        <path class="color-shadow-dark"
            d="M467.52,352.77h-6.21l0,.11c3.62.57,7.23,1.21,10.86,1.69,3,.41,5.53,2,8.23,3.17.67.29,1.25,2.62.81,3.26a1.15,1.15,0,0,1-1,.37,8.91,8.91,0,0,1-2.24-.79,45.68,45.68,0,0,0-16.94-4.85c-6.27-.64-12.57-1.06-18.87-1.34-3.66-.17-7.34.22-11,.19-5.28,0-10.55-.38-15.82-.34-7.67.07-15.33.35-23,.56-4.07.11-8.14.31-12.22.38-12.3.2-24.61.27-36.92.6-5.33.14-10.66.77-16,1.23-4.93.44-9.85,1-14.78,1.39a20.62,20.62,0,0,1-4.06-.3c-3.64-.44-7.28-.88-10.91-1.4a12.66,12.66,0,0,1-2.46-.87c-1.08-.39-1.43-1.18-1.21-2.45a21.8,21.8,0,0,1,6.13,1.53,27.59,27.59,0,0,0,13.6,1.82c4.2-.49,8.44-.71,12.65-1.12,2.69-.27,5.37-.75,8.07-1,4.13-.37,8.28-.63,12.42-.88q6.46-.39,12.93-.65c3.35-.14,6.7-.22,10.05-.22,2.72,0,5.43.22,8.14.2,9.67-.06,19.34-.25,29-.27,5.67,0,11.34.28,17,.29a67.1,67.1,0,0,0,9.56-.72H431.6L386,352.28a18.57,18.57,0,0,1-2.55-.34,11.3,11.3,0,0,1,1.41-.17l35.95.35c1,0,1.92,0,2.88,0,13.75-.68,27.48,0,41.22.4C465.79,352.52,466.65,352.68,467.52,352.77Z" />
        <path class="color-shadow-dark"
            d="M349,374.76a17.59,17.59,0,0,1,3.17-.87c8.19-.7,16.37-1.47,24.57-1.92,6.13-.34,12.29-.42,18.43-.28,6.85.16,13.69.72,20.54,1.08,4.54.24,9.09.47,13.64.63,10.12.36,20.25.66,30.38,1,3,.11,6.06.41,9.09.39,2.78,0,5.57-.34,8.35-.51a9.55,9.55,0,0,1,1.19,0c-1.42.14-2.85.2-4.25.44-5.75,1-11.48.25-17.22,0-3.91-.19-7.82-.33-11.74-.48-6.22-.23-12.45-.41-18.67-.67-5.91-.25-11.82-.5-17.72-.87a262.22,262.22,0,0,0-28-.53c-6.78.3-13.54,1-20.31,1.5C356.59,374,352.79,374.4,349,374.76Z" />
        <path class="color-shadow-dark"
            d="M300.58,372.46A39.45,39.45,0,0,1,307,374.2a31.69,31.69,0,0,0,9.68,2.44c7.33.87,14.62.28,21.91-.63,3.39-.42,6.78-.8,10.17-1.2-3.22.52-6.43,1.1-9.66,1.55-2.7.37-5.41.6-8.11.86a70.45,70.45,0,0,1-19.34-.92,27.05,27.05,0,0,1-3.63-1.2c-2.19-.74-4.38-1.46-6.56-2.21A7.4,7.4,0,0,1,300.58,372.46Z" />
        <path class="color-shadow-dark"
            d="M292.26,350.87c-.9.66-.39,1.64-.57,2.46-.16-.26-.48-.54-.45-.78.46-3.4-.73-6.57-1.31-9.83a.89.89,0,0,1,.23-.69A28.62,28.62,0,0,1,292.26,350.87Z" />
        <path class="color-shadow-dark"
            d="M356.62,351.93a6.58,6.58,0,0,1-1.35.31c-3.09,0-6.18,0-9.27.05,1.41-.15,2.82-.39,4.23-.43C352.36,351.81,354.49,351.9,356.62,351.93Z" />
        <path class="color-shadow-dark" d="M483,363.4c-.77-1.25-1.69-2.47-.51-4C483.31,360.67,483.79,362,483,363.4Z" />
        <path class="color-shadow-dark"
            d="M482.33,369.49c-.08-.6-.15-1.2-.25-1.79s.37-.9.93-1C483.72,367.86,483.13,368.7,482.33,369.49Z" />
        <path class="color-shadow-dark" d="M473.75,353.27l-4.85-.47Z" />
        <path class="color-shadow-dark"
            d="M292.81,356.65c.28.64.56,1.28.83,1.92C293.37,357.93,293.09,357.29,292.81,356.65Z" />
        <path class="color-shadow-dark" d="M296.64,366.25l.2,1.09Z" />
        <path class="color-shadow-dark" d="M295.08,361.83l.48,1.06Z" />
        <path class="color-shadow-dark" d="M296.08,364.24l.37,1.12Z" />
        <path class="color-shadow-dark" d="M479.93,373.61l.85-.68Z" />
        <path class="color-shadow-dark" d="M293.8,359l.41.86Z" />
        <path class="color-shadow-dark" d="M482.33,359l-.41-1Z" />
        <path class="color-shadow-dark" d="M299.59,372l.79.41Z" />
        <path class="color-shadow-dark" d="M478.57,374.29l.82-.36Z" />
        <path class="color-shadow-dark" d="M291.86,354.24l.22.57Z" />
        <path class="color-shadow-dark" d="M292.39,355.65c.09.19.18.37.28.55C292.57,356,292.48,355.84,292.39,355.65Z" />
        <path class="color-shadow-dark" d="M482.9,365.78l-.07-.49a2.59,2.59,0,0,1,.17.33S482.93,365.73,482.9,365.78Z" />
        <path class="color-shadow-dark" d="M298.07,370.6l.38.42Z" />
        <path class="color-shadow-dark" d="M299,371.58l.42.33Z" />
        <path class="color-shadow-dark" d="M480.91,372.79l.28-.34Z" />
        <path class="color-shadow-dark" d="M297.67,370.06l.34.45Z" />
        <path class="color-base"
            d="M374.84,357.11c1.75-.05,3.51-.13,5.26-.16,8-.13,16-.21,23.95-.37,3-.06,6.06-.4,9.09-.43,5.67,0,11.34.06,17,.1l2.15,0c7.58.1,15.17.16,22.75.33a49.37,49.37,0,0,1,17.32,3.31c.67.26,1.31.58,2,.88-.19.92-.43,1.82-.57,2.75-.23,1.54-.58,2-2.21,2.21-2,.25-4,.35-6.06.52h0l-.1-.62-.24.63a.67.67,0,0,1-.15.38c-5.29.16-10.58.4-15.88.47-2.91,0-5.82-.22-8.73-.34l-.67.52c-.53-.86-1.39-.6-2.14-.61-4.25-.08-8.51.25-12.73-.56-.32-.76-.44-1.66-1.52-2.22v2.28c-3.33-.16-6.66-.3-10-.49-1.9-.1-3.79-.3-5.69-.42a17.34,17.34,0,0,0-2.39,0c-1.49.11-3,.27-4.48.42-.87.08-1.73.22-2.6.29a65,65,0,0,1-7.09.51c-3.37-.1-6.72-.69-10.09-.76-5.82-.14-11.65-.06-17.47,0a5.56,5.56,0,0,0-1.7.56c-.39-.27-.73-.93-1.27-.19-2,0-4,0-6,.09-2.46.12-4.94.22-7.37.55a65.66,65.66,0,0,1-10.93.86c-4.78-.15-9.58.41-14.34-.46-2.88-.53-5.78-1-8.67-1.46a1.39,1.39,0,0,1-1.31-1.45c1.17-.15,2.36-.26,3.53-.47,4.75-.87,9.54-1.58,14.23-2.7,6.28-1.49,12.56-2.75,19.05-2.6a3.92,3.92,0,0,0,1.42-.09c.28-.11.43-.57.64-.87l2.41-.09c.1.12.21.34.3.33,2.67-.11,5.34-.25,8-.39h6c1.95,0,3.89.12,5.83.11A5.8,5.8,0,0,0,374.84,357.11Zm-14,7.77-.2-.35-.2.34Z" />
        <path class="color-shadow"
            d="M312,364.29a1.39,1.39,0,0,0,1.31,1.45c2.89.47,5.79.93,8.67,1.46,4.76.87,9.56.31,14.34.46a65.66,65.66,0,0,0,10.93-.86c2.43-.33,4.91-.43,7.37-.55,2-.09,4-.06,6-.09.46,1.68.92,3.36,1.45,5.32-1,.14-2,.32-3.08.43-1.5.16-3,.18-4.52.43a2.41,2.41,0,0,1-2.85-1.16c-.31-.53-.69-1-1-1.55l-.47.39c.28.79.55,1.58.89,2.55a10.53,10.53,0,0,1-1.45.34c-1.87.18-1.94.12-2.6-1.64a12,12,0,0,0-1.59-3.12v5.11c-2.72.84-5.65.65-8.79,1.17.34-2,.64-3.67,1-5.87a14.07,14.07,0,0,0-2.55,4.26,2.54,2.54,0,0,1-2.74,1.78,27.25,27.25,0,0,0-3.2.3c.09-1.68.17-3.23.25-4.78l-.36-.12c-.39,1-.78,2-1.18,2.94l-9.95-1.63-6.93-1.18-1.3-1.94c-.05-.06-.1-.15-.16-.17s-.21,0-.22,0c-.19,1-.66,1.07-1.51.63s-1.8-.64-2.68-1a13.39,13.39,0,0,1-2.75-1.39c-.56-.44-1.26-1.33-1.15-1.87.19-1,1.37-.7,2-.54C306.07,364.58,309,364.19,312,364.29Z" />
        <path class="color-shadow"
            d="M361.83,366.35a5.56,5.56,0,0,1,1.7-.56c5.82-.05,11.65-.13,17.47,0,3.37.07,6.72.66,10.09.76a65,65,0,0,0,7.09-.51c.87-.07,1.73-.21,2.6-.29,1.49-.15,3-.31,4.48-.42a17.34,17.34,0,0,1,2.39,0c1.9.12,3.79.32,5.69.42,3.33.19,6.66.33,10,.49l.46.3,1.12,5.05a9.37,9.37,0,0,1-1.66.23c-2.39-.09-4.78-.23-7.17-.35L406.3,371a5.68,5.68,0,0,1-3.89-1.58c-.44-.43-1-.79-1.78-1.48.31,1.08.49,1.71.74,2.62a75,75,0,0,1-9.84-.37l.85-2.69c-.2,0-.4,0-.44.12-1.78,3.23-4.8,2.67-8,2.65.34-1.11.62-2.05,1-3.43-.66.52-1.05.8-1.4,1.12a8.11,8.11,0,0,0-1,1,4.11,4.11,0,0,1-3.55,1.56c-2.3,0-4.61.18-6.91.38a2.16,2.16,0,0,1-2.53-1.3c-.23-.57-.55-1.11-.92-1.84-.2.38-.36.56-.37.75-.16,2.63-.16,2.58-2.62,2.81a1.4,1.4,0,0,1-1.55-.79C363.34,369.13,362.59,367.74,361.83,366.35Z" />
        <path class="color-shadow-dark"
            d="M312,364.29c-2.93-.1-5.88.29-8.8-.42-.67-.16-1.85-.48-2,.54-.11.54.59,1.43,1.15,1.87a13.39,13.39,0,0,0,2.75,1.39c.88.37,1.84.58,2.68,1s1.32.34,1.51-.63c0,0,.15-.05.22,0s.11.11.16.17c.14,1.48.28,3,.42,4.54-2.61-.44-4.18-2-5.51-4.41-.27,1.05-.3,2.21-1.58,1.4a2,2,0,0,0-.67-.27c-2-.36-3-1.55-3.57-3.56a68.39,68.39,0,0,0-2.92-7.17,2.49,2.49,0,0,1,.8-.17c4.66.55,9.32,1.24,14,1.64a35.76,35.76,0,0,0,6.44-.34c4.68-.44,9.34-1.07,14-1.4,6.28-.44,12.57-.67,18.86-1a5,5,0,0,1,.95.09c-.21.3-.36.76-.64.87a3.92,3.92,0,0,1-1.42.09c-6.49-.15-12.77,1.11-19.05,2.6-4.69,1.12-9.48,1.83-14.23,2.7C314.31,364,313.12,364.14,312,364.29Z" />
        <path class="color-shadow"
            d="M440.39,366.82c2.91.12,5.82.38,8.73.34,5.3-.07,10.59-.31,15.88-.47l-.09,3.82-6.21.11c-.34-.52-.69-1-1.1-1.69-.88,1.12-.28,2.34-.52,3.58-1.28,0-2.54,0-3.81,0-3.58-.1-7.15-.26-10.73-.32-1.16,0-1.49-.54-1.57-1.6C440.88,369.33,440.59,368.08,440.39,366.82Z" />
        <path class="color-shadow-dark"
            d="M465.49,366.29c2-.17,4.05-.27,6.06-.52,1.63-.21,2-.67,2.21-2.21.14-.93.38-1.83.57-2.75.65.29,1.28.61,1.94.88a29.25,29.25,0,0,0,4,1.48c.88.22,1.29.52,1.19,1.38a12.25,12.25,0,0,1-3.37,6.68,1.35,1.35,0,0,1-1.95,0,15.24,15.24,0,0,1-1.29-1.37c-.15.1-.37.17-.38.26-.29,2.14-.27,2.22-2.46,2.57a40.28,40.28,0,0,1-4.27.27c-.74,0-1.12-.27-1.24-1.08C466.2,370,465.82,368.16,465.49,366.29Z" />
        <path class="color-shadow"
            d="M424.85,366.17c4.22.81,8.48.48,12.73.56.75,0,1.61-.25,2.14.61-.24,1.32-.45,2.65-.72,4a1.21,1.21,0,0,1-1.35,1.07c-.48,0-.95,0-1.43,0-2.22-.11-4.43-.33-6.65-.3a2.79,2.79,0,0,1-2.86-1.64c-.63-1.29-1.27-2.57-1.9-3.85A1.84,1.84,0,0,1,424.85,366.17Z" />
        <path class="color-shadow-dark"
            d="M310.88,370.13l6.93,1.18,9.95,1.63c-.59,2.43-.63,2.42-3,2.18-2.67-.28-5.35-.47-8-.7a3.87,3.87,0,0,0-.48,0C313.41,374.35,311.52,373,310.88,370.13Z" />
        <path class="color-shadow-dark"
            d="M458.7,370.62l6.21-.11c.21.68.42,1.36.62,2C462.41,373.47,460,372.77,458.7,370.62Z" />
        <path class="color-shadow-dark"
            d="M361.54,357.41c-2.67.14-5.34.28-8,.39-.09,0-.2-.21-.3-.33A23.44,23.44,0,0,1,361.54,357.41Z" />
        <path class="color-shadow-dark" d="M374.84,357.11a5.8,5.8,0,0,1-1.51.42c-1.94,0-3.88-.07-5.83-.11Z" />
        <path class="color-shadow-dark"
            d="M424.85,366.17a1.84,1.84,0,0,0,0,.41l-1-.05-.46-.3V364C424.41,364.51,424.53,365.41,424.85,366.17Z" />
        <path class="color-shadow-dark" d="M465.15,366.31l.24-.63.1.62A1.93,1.93,0,0,1,465.15,366.31Z" />
        <path class="outline" d="M360.88,364.88h0Z" />
        <path class="color-shadow" d="M360.88,364.88h-.4l.2-.34Z" />
    </g>
</svg>
