<svg id="Crop_Pryamoy" data-name="Crop Pryamoy" xmlns="http://www.w3.org/2000/svg" viewBox="0 0 672 960">

    <g>
        <path class="outline"
            d="M392.51,374.44c.5,2.65,1,5.31,1.51,8a96.13,96.13,0,0,0,4.92,16.68c.65,1.62,1.45,3.18,2.17,4.77a1.44,1.44,0,0,1-.74,2.18c-.41.22-.94.26-1.33.51-1,.66-1.59.14-2.15-.68a30.11,30.11,0,0,1-3.62-7.78,77.14,77.14,0,0,1-3.49-17.28c-.4-5.08-.52-10.19-.77-15.29,0-.54-.09-1.07-.16-1.82a2.22,2.22,0,0,0-.92,2c-1.1,9.24-2.32,18.46-4.27,27.58a12.86,12.86,0,0,0-.07,1.65,1.38,1.38,0,0,1-1.76,1.4,45.11,45.11,0,0,1-4.56-1.37,1.82,1.82,0,0,1-1.06-2.19,16,16,0,0,1,.79-2.49c1.67-5,3.37-10,5-15,.16-.5.75-1.27-.06-1.68s-1,.55-1.39,1c-1,1.05-1.8,2.26-2.84,3.23a11.72,11.72,0,0,1-2.94,2c-3,1.46-5.64-.18-5.8-3.52-.12-2.63,1.13-4.78,2.41-6.88,1.06-1.75,2.37-3.35,3.71-5.22a4.78,4.78,0,0,0-1.31-.27c-7.17.74-14.36.28-21.54.49-3.74.11-7.46.5-11.19.83-5.07.45-10.12,1.11-15.2,1.41s-10.2.41-15.3.39c-3.91,0-7.69-1.14-11.51-1.87-.93-.17-1.9-.17-2.84-.33a11.7,11.7,0,0,1-2.76-.66c-2.16-1-2.61-1.64-2.07-3.92a11.11,11.11,0,0,0-.23-4.46c-.24-1.57-.63-3.12-.85-4.69a5.71,5.71,0,0,1,.11-2.14,1,1,0,0,1,1.44-.85c2,.66,3.9,1.38,5.87,2a26.15,26.15,0,0,0,6.18,1.23c-.44-.69-.85-1.41-1.33-2.07a29.09,29.09,0,0,1-4.4-9.74c-.48-1.85-1.22-3.63-1.73-5.47a3.61,3.61,0,0,1,0-1.91c1.24-.24.95.91,1.22,1.57,1.71,4.19,3,8.59,5.68,12.32a23,23,0,0,0,5.45,5.65,4.46,4.46,0,0,0,2.89.92c1.67-.06,3.34,0,5.32,0-1.16-1.84-3.53-2.48-3.42-5.1A4.31,4.31,0,0,1,315,348a37.3,37.3,0,0,1,3.66,3.44,2.75,2.75,0,0,0,2.58.87c3.65-.33,7.3-.74,11-1s7.48-.33,11.22-.51c.85,0,1.7-.18,2.69-.29l-7.29-11.08c1.23-.56,1.56.2,2.13.92,2.52,3.17,4.82,6.54,8,9.17a4.62,4.62,0,0,0,3,1.17c5.27.12,10.54.31,15.8.53a1.07,1.07,0,0,0,1.23-.83c.53-1.41,1.08-2.82,1.61-4.23a11.66,11.66,0,0,1,.59-1.56.85.85,0,0,1,.77-.32c.18,0,.4.48.37.71-.15,1.17-.39,2.34-.59,3.5-.14.85-.25,1.7-.42,2.84,3.17,0,6.18.07,9.19,0,5.26-.16,10.52-.43,15.78-.66.32,0,.64,0,1,0,1.57-.09,1.64-.08,1.92-1.77.4-2.35.66-4.73,1-7.09.31-2.2.63-4.4,1-6.59.05-.32.37-.59.64-1,.73,2,.6,9.9-.21,16.05l22.94-.45c.1-1.24.15-2.34.32-3.43,0-.32.42-.83.64-.83a1.2,1.2,0,0,1,.9.63,3.89,3.89,0,0,1,.24,1.6,16.44,16.44,0,0,1-.25,1.85c2.12.39,2.12.39,2.54-1.26A47.39,47.39,0,0,0,430,336c0-.16-.09-.33-.05-.48.19-.79-.58-2.13.47-2.29s.78,1.33.94,2a41.42,41.42,0,0,1,1,10.88c0,1.18-.27,2.36-.43,3.69l3.29.16c1.28.86,2.67.31,4,.31l2.74.14c1.42.91,3,.28,4.47.35l1.75.17a2.26,2.26,0,0,0,2.95-.1c1.44-4,1.62-8.24,2.49-12.34.15-.7.17-1.44.34-2.13.06-.22.43-.37.66-.55.16.24.43.47.45.72a11.08,11.08,0,0,1,0,1.91c-.2,3.1-.38,6.2-.66,9.29a28,28,0,0,1-.73,3.43c1.17.21,2.37.5,3.58.6,2.06.17,4.14.3,6.21.3a17.69,17.69,0,0,1,7.66,1.51,20.34,20.34,0,0,0,2.93.85c0-3,0-5.72,0-8.47s-.22-5.5,1.52-8c0,.74.13,1.48.11,2.22a48.67,48.67,0,0,0,1.35,13.71c.43,1.72.79,2.09,2.5,2.25.4,0,.8,0,1.2,0,1.75.05,2.32.44,2.42,2.21.11,2.06,0,4.14-.08,6.2,0,.88-.12,1.75-.17,2.62-.1,2-.61,2.67-2.57,3.19a5.84,5.84,0,0,1-1.65.21c-3.67-.14-7.35-.09-11-.52-5.76-.67-11.47-1.69-17.21-2.52-4.32-.62-8.64-1.22-13-1.74-5.6-.68-11.2-1.29-16.81-1.88a47.78,47.78,0,0,0-4.78-.22c-5,0-10,0-15,0-.61,0-1.22.05-2.08.09.76,1.63,1.39,3.06,2.08,4.45a12.89,12.89,0,0,1,1.38,6.71c-.21,3.22-2.45,4.48-5.31,3-1.77-.94-2.76-2.59-3.91-4.11l-.66-1.19-.44.19ZM382.66,373c.31-.84.61-1.68.91-2.52l-.41-.17c-.38.67-.76,1.34-1.13,2l0,.76Zm10.89-17-.63-.41.06,1.11,1.94,3C395.35,357.83,394.89,356.74,393.55,356Zm-5.75,4,2.06.11c.09,3.62.16,7.11.28,10.6,0,1.11.23,2.21.35,3.31l.22,3.75c.06.36.11.72.17,1.08.43,2.91.8,5.83,1.31,8.73a55.26,55.26,0,0,0,4.58,15.27,4.28,4.28,0,0,0,1,1.59,1.86,1.86,0,0,0,1.5,0c.61-.23.31-.69.1-1.16-.9-2-1.81-4.08-2.56-6.17a106.53,106.53,0,0,1-5.2-19.86c-.06-.34-.13-.69-.19-1l-.3-2.3L390.67,362H391l.81,2.89c.3,1,.57,2,.91,3a17.64,17.64,0,0,0,3.73,6.61c.89.91,1.82,1.93,3.27,1.33.94-.39,1.38-2.13.85-3.7a26,26,0,0,0-4.08-8,24.5,24.5,0,0,0-4.6-7c-1.93-2.18-2.6-2.31-5-.93a20.86,20.86,0,0,0-2.89,2.05c-2.86,2.9-5.73,5.79-8.36,8.88a29.81,29.81,0,0,0-3.5,5.67,7.81,7.81,0,0,0-.72,3.22c-.06,1.41.71,2,2,1.42a10.62,10.62,0,0,0,3.48-2.4c1.89-2.15,3.53-4.51,5.28-6.78l4.25-6.3,0,0c-.1,1-.12,2-.3,3-.66,3.64-1.38,7.26-2.08,10.88-1.69,5.62-3.38,11.24-5.12,17l3.47,1.13c.76-5.6,1.48-10.86,2.19-16.13l.13-.55.08-.87q.53-2.81,1.06-5.61,1-5.37,2.05-10.76ZM454,365.75l.22.19c0-.05,0-.12,0-.14a.39.39,0,0,0-.18-.06c.05-.67.1-1.34.15-1.94a24.17,24.17,0,0,0,4.41,2.79,31.21,31.21,0,0,0,5.63,1,8.26,8.26,0,0,1-.87-1.69c-.24-1-1.09-2-.19-3.13a.5.5,0,0,0,.3.23,17.37,17.37,0,0,1,1.58,3.21c.41,1.54,1.55,1.63,2.73,1.82.8.12,1.23-.22,1.22-1,0-1.36,0-2.72-.05-4.07l.11-2.62c.65,1.15,1.09,1.95,1.54,2.75.21,1.33.39,2.66.66,4,.09.39.39,1,.66,1a4.38,4.38,0,0,0,2.31-.16c.33-.14.32-1.08.46-1.66l0,0,2.86,1.52c.37-1.7.68-3.16,1.05-4.88l1.27,1.86c.21-1.28.37-2.25.5-3l-8.5-2.32a67.84,67.84,0,0,0-16.92-4.3c-5.47-.7-11-1.26-16.47-1.56-8.14-.44-16.3-.88-24.44-.79-7.51.08-15,.86-22.51,1.34a3,3,0,0,0-.67.21l-.39.44a6.38,6.38,0,0,0,1.09.44,6.63,6.63,0,0,0,1.66.16,3,3,0,0,1,3.34,2.44,7.74,7.74,0,0,0,.88,1.65,5,5,0,0,0,4.84,2.8c1,0,2.06-.06,3.09-.08s2.37-.11,3.54,0c2.37.16,2.57,0,2-2.44-.05-.23-.12-.46-.19-.69.3-1.35-.5-2.91.92-4.47.34,1.6.61,2.87.89,4.13a12.31,12.31,0,0,0,.53,2.29,1.79,1.79,0,0,0,1.12,1c2.16.24,4.35.35,6.92.54a25.72,25.72,0,0,1-.95-2.78c-.08-.35.17-.79.28-1.19l.44.51c1.35,2.37,2.89,4.19,6.11,4,2.65-.17,2.67.11,3.3-2.62a1.57,1.57,0,0,0,0-.23l1.23-3.3.55.12V360l-.39,1.62c-.42,1.82-.22,2.1,1.6,2.18,1.44.06,1.56,0,2-1.44.18-.6.33-1.22.49-1.83l.67.15c.08.47.15.94.25,1.41.41,1.78.46,1.85,2.32,2.13,1.56.24,3.14.4,4.72.58,1.94.21,3.88.4,6.22.64l-1.18-3.95c.08-1.67-.54-3.4.39-5l.53.14,1.35,5.36c.33,1,.63,2,1,2.91A1.44,1.44,0,0,0,454,365.75ZM383.5,355.67c-.39.91-1.37,1.58-1.22,2.95.75-.7,1.34-1.23,1.88-1.8s.57-.95-.09-1.37c.82,0,1.9.64,2.23-.79-.21-.11-.35-.24-.49-.24-1.11,0-2.23,0-3.35,0-8.46.42-16.92.41-25.39.05-6.06-.26-12.14-.12-18.2-.15-2.47.08-4.94.08-7.4.24-5.09.34-10.19.65-15.27,1.19a62.84,62.84,0,0,1-15.26-.45c-2.34-.33-4.66-.72-7.23-1.11.32,1.08.59,1.89.79,2.72s.32,1.73.47,2.59c.35,2.06.79,2.36,2.85,2a33.33,33.33,0,0,1-.3-3.55c0-.56.34-1.46.72-1.59.85-.27.86.7,1.09,1.24.16.36.14.8.31,1.15a8.44,8.44,0,0,0,5,4.81c2.16.71,2.3.56,2.51-1.83,0-.11.14-.21.31-.45a17.44,17.44,0,0,0,1.4,1.93,4,4,0,0,0,1.68,1.21,15.8,15.8,0,0,0,6.22.15c-.39-1.08-.75-2-1-2.85a4.27,4.27,0,0,1,0-3.66c.16.64.33,1.28.5,1.91,1.59,4.28,2.38,4.84,6.67,4.78.24,0,.48,0,.72,0a2.18,2.18,0,0,0,2.35-1.24,16.58,16.58,0,0,1,1.32-1.86l.32.14-.24,2.37c4.47.34,4.86.17,7.45-3.1a4,4,0,0,0,.23-.41.92.92,0,0,0,.32-.14l-.67,3.35,6.5-.46c1.46-.1,1.76-.37,1.8-1.84a7.15,7.15,0,0,0-.34-1.6c.06-1.44-.35-2.93.77-4.37l.93,4c.32.9.58,1.81,1,2.68a1.55,1.55,0,0,0,1.76.92c1.12-.1.54-1.08.84-1.5a9.43,9.43,0,0,0,2.82,1.15c2.76.16,5.54.06,8.49.06-.45-1.34-.8-2.38-1.16-3.42a.61.61,0,0,0,0-.4,3.34,3.34,0,0,0,.43-.1l.52.47c.74.9,1.42,1.86,2.23,2.69.65.67,3.22.95,3.74.42.82-.84.12-1.76-.06-2.64a3.81,3.81,0,0,0-.15-.44l.41-2,.53.06c.28.84.56,1.68.83,2.52.92,2.85.92,2.82,3.81,2.55a26.88,26.88,0,0,1,4.3-.14,5,5,0,0,0,5.07-2.41,3.42,3.42,0,0,0,1.69-2.36C381.76,356.75,381.93,355.43,383.5,355.67ZM293,350a1.68,1.68,0,0,0,1,2.23,9.25,9.25,0,0,0,2.23.83,101.54,101.54,0,0,0,11.85,1.6c5,.16,10.05-.26,15.08-.49,2.07-.1,4.13-.42,6.2-.51,5.5-.24,11-.59,16.51-.56,6.47,0,12.93.56,19.4.65,4.95.06,9.9-.19,14.85-.34,5.67-.18,11.34-.41,17-.63.88,0,1.75-.11,2.63-.17,5.41-.4,10.82-1,16.24-1.13,5.66-.1,11.34.3,17,.47.8,0,1.6,0,2.39.05,6.9.75,13.81,1.45,20.7,2.31a105.18,105.18,0,0,1,18.8,4.64,25,25,0,0,0,4.19.91,1.6,1.6,0,0,0,1.34-.58c.34-.67-.1-1.21-.81-1.44-1-.32-2-.57-3-.95a58.86,58.86,0,0,0-14.6-3.65c-3.65-.42-7.3-.78-11-1.13-4.53-.43-9.06-1.14-13.59-1.17-10.71-.09-21.43.06-32.13.3-8.55.2-17.09.82-25.63,1-6.39.12-12.79-.3-19.18-.29-8.39,0-16.78.16-25.17.34a81.55,81.55,0,0,0-8.84.64,134.44,134.44,0,0,1-17.94.92,25.58,25.58,0,0,1-8.44-1.52C297.83,351.46,295.47,350.76,293,350Z" />
        <path class="color-base" d="M446.45,350.77c-1.49-.07-3.05.56-4.47-.35C443.47,350.46,445,350,446.45,350.77Z" />
        <path class="color-base" d="M439.24,350.28c-1.34,0-2.73.55-4-.31Z" />
        <path class="color-shadow" d="M451.15,350.84a2.26,2.26,0,0,1-2.95.1Z" />
        <path class="color-base" d="M392.51,374.44,392,372.8l.44-.19.66,1.19Z" />
        <path class="color-base"
            d="M449.21,356.44c-.93,1.6-.31,3.33-.39,5l-8.09-.54c-1.41-.1-2.82-.18-4.24-.27l-.67-.15-3.7-.53V357l-.55-.12-1.23,3.3L420.89,359l-.44-.51c-.07-.68-.27-1.24-1.22-1.23v1.76l-3.4-.19-3.28-.21c-.28-1.26-.55-2.53-.89-4.13-1.42,1.56-.62,3.12-.92,4.47-3.67,0-7.35,0-11,.06a15,15,0,0,0-2.29.38,7.74,7.74,0,0,1-.88-1.65,3,3,0,0,0-3.34-2.44,6.63,6.63,0,0,1-1.66-.16,6.38,6.38,0,0,1-1.09-.44l.39-.44a3,3,0,0,1,.67-.21c7.5-.48,15-1.26,22.51-1.34,8.14-.09,16.3.35,24.44.79,5.51.3,11,.86,16.47,1.56a67.84,67.84,0,0,1,16.92,4.3c0,.79-.06,1.58-.05,2.37s-.53,1.08-1.19,1.23c-.45-.8-.89-1.6-1.54-2.75l-.11,2.62-5.48.08a.5.5,0,0,1-.3-.23c-.26-.18-.73-.54-.74-.52-.53.66-1.17.62-1.94.54-3.13-.31-6.27-.55-9.41-.81l-1.35-5.36Z" />
        <path class="color-base"
            d="M338.87,354.36c6.06,0,12.14-.11,18.2.15,8.47.36,16.93.37,25.39-.05,1.12,0,2.24,0,3.35,0,.14,0,.28.13.49.24-.33,1.43-1.41.79-2.23.79l-.57.22c-1.57-.24-1.74,1.08-2.06,2a3.42,3.42,0,0,1-1.69,2.36H366.57c-.27-.84-.55-1.68-.83-2.52l-.53-.06-.41,2-5.76,0-.52-.47-.28-.27-.15.37a.61.61,0,0,1,0,.4l-13.71.11-.93-4c-1.12,1.44-.71,2.93-.77,4.37-1.59,0-3.19-.05-4.77,0a15.86,15.86,0,0,0-2.52.51.92.92,0,0,1-.32.14c-.56-1-1.54-.66-2.36-.66-5.48,0-11,0-16.46,0-.17-.63-.34-1.27-.5-1.91,3.14-.38,6.29-.67,9.42-1.17,4.13-.67,8.23-1.62,12.44-1.75C338.21,355.16,338.73,355.06,338.87,354.36Z" />
        <path class="color-shadow-dark"
            d="M293,350c2.47.79,4.83,1.49,7.15,2.31a25.58,25.58,0,0,0,8.44,1.52,134.44,134.44,0,0,0,17.94-.92,81.55,81.55,0,0,1,8.84-.64c8.39-.18,16.78-.33,25.17-.34,6.39,0,12.79.41,19.18.29,8.54-.16,17.08-.78,25.63-1,10.7-.24,21.42-.39,32.13-.3,4.53,0,9.06.74,13.59,1.17,3.66.35,7.31.71,11,1.13a58.86,58.86,0,0,1,14.6,3.65c1,.38,2,.63,3,.95.71.23,1.15.77.81,1.44a1.6,1.6,0,0,1-1.34.58,25,25,0,0,1-4.19-.91,105.18,105.18,0,0,0-18.8-4.64c-6.89-.86-13.8-1.56-20.7-2.31-.79-.08-1.59,0-2.39-.05-5.67-.17-11.35-.57-17-.47-5.42.11-10.83.73-16.24,1.13-.88.06-1.75.13-2.63.17-5.67.22-11.34.45-17,.63-5,.15-9.9.4-14.85.34-6.47-.09-12.93-.61-19.4-.65-5.5,0-11,.32-16.51.56-2.07.09-4.13.41-6.2.51-5,.23-10.07.65-15.08.49a101.54,101.54,0,0,1-11.85-1.6,9.25,9.25,0,0,1-2.23-.83A1.68,1.68,0,0,1,293,350Z" />
        <path class="color-shadow"
            d="M338.87,354.36c-.14.7-.66.8-1.26.81-4.21.13-8.31,1.08-12.44,1.75-3.13.5-6.28.79-9.42,1.17a4.27,4.27,0,0,0,0,3.66c.28.9.64,1.77,1,2.85a15.8,15.8,0,0,1-6.22-.15,4,4,0,0,1-1.68-1.21,17.44,17.44,0,0,1-1.4-1.93c-.17.24-.3.34-.31.45-.21,2.39-.35,2.54-2.51,1.83a8.44,8.44,0,0,1-5-4.81c-.17-.35-.15-.79-.31-1.15-.23-.54-.24-1.51-1.09-1.24-.38.13-.71,1-.72,1.59a33.33,33.33,0,0,0,.3,3.55c-2.06.37-2.5.07-2.85-2-.15-.86-.28-1.73-.47-2.59s-.47-1.64-.79-2.72c2.57.39,4.89.78,7.23,1.11a62.84,62.84,0,0,0,15.26.45c5.08-.54,10.18-.85,15.27-1.19C333.93,354.44,336.4,354.44,338.87,354.36Z" />
        <path class="color-shadow"
            d="M316.25,360c5.49,0,11,0,16.46,0,.82,0,1.8-.35,2.36.66a4,4,0,0,1-.23.41c-2.59,3.27-3,3.44-7.45,3.1l.24-2.37-.32-.14a16.58,16.58,0,0,0-1.32,1.86,2.18,2.18,0,0,1-2.35,1.24c-.24,0-.48,0-.72,0C318.63,364.84,317.84,364.28,316.25,360Z" />
        <path class="color-shadow"
            d="M470.61,363c.66-.15,1.19-.41,1.19-1.23s0-1.58.05-2.37l8.5,2.32c-.13.76-.29,1.73-.5,3l-1.27-1.86c-.37,1.72-.68,3.18-1.05,4.88l-2.86-1.52-.14-.09.17.06c-.14.58-.13,1.52-.46,1.66a4.38,4.38,0,0,1-2.31.16c-.27,0-.57-.65-.66-1C471,365.67,470.82,364.34,470.61,363Z" />
        <path class="light"
            d="M382.1,368.2c-1.75,2.27-3.39,4.63-5.28,6.78a10.62,10.62,0,0,1-3.48,2.4c-1.26.57-2,0-2-1.42a7.81,7.81,0,0,1,.72-3.22,29.81,29.81,0,0,1,3.5-5.67c2.63-3.09,5.5-6,8.36-8.88a20.86,20.86,0,0,1,2.89-2.05l.48.95a48.52,48.52,0,0,0-13.49,14.36,6.22,6.22,0,0,0-.81,2,1.57,1.57,0,0,0,.39,1.22,1.12,1.12,0,0,0,1.08,0,20.69,20.69,0,0,0,2.76-2.27c1.49-1.55,2.89-3.2,4.32-4.8Z" />
        <path class="light"
            d="M391.12,373.9l.3,2.3c.06.35.13.7.19,1a106.53,106.53,0,0,0,5.2,19.86c.75,2.09,1.66,4.13,2.56,6.17.21.47.51.93-.1,1.16a1.86,1.86,0,0,1-1.5,0,4.28,4.28,0,0,1-1-1.59,55.26,55.26,0,0,1-4.58-15.27c-.51-2.9-.88-5.82-1.31-8.73-.06-.36-.11-.72-.17-1.08-.07-1.25-.14-2.5-.22-3.75Z" />
        <path class="color-shadow"
            d="M344.38,359.63l13.71-.11c.36,1,.71,2.08,1.16,3.42-2.95,0-5.73.1-8.49-.06a9.43,9.43,0,0,1-2.82-1.15c-.3.42.28,1.4-.84,1.5a1.55,1.55,0,0,1-1.76-.92C345,361.44,344.7,360.53,344.38,359.63Z" />
        <path class="color-shadow"
            d="M436.49,360.63c1.42.09,2.83.17,4.24.27l8.09.54,1.18,3.95c-2.34-.24-4.28-.43-6.22-.64-1.58-.18-3.16-.34-4.72-.58-1.86-.28-1.91-.35-2.32-2.13C436.64,361.57,436.57,361.1,436.49,360.63Z" />
        <path class="color-shadow"
            d="M451.09,361.94c3.14.26,6.28.5,9.41.81.77.08,1.41.12,1.94-.54,0,0,.48.34.74.52-.9,1.09-.05,2.11.19,3.13a8.26,8.26,0,0,0,.87,1.69,31.21,31.21,0,0,1-5.63-1,24.17,24.17,0,0,1-4.41-2.79c-.05.6-.1,1.27-.15,1.94h0a1.44,1.44,0,0,1-1.94-.9C451.72,363.9,451.42,362.91,451.09,361.94Z" />
        <path class="color-shadow"
            d="M397.42,359.44a15,15,0,0,1,2.29-.38c3.68-.06,7.36-.05,11-.06.07.23.14.46.19.69.53,2.4.33,2.6-2,2.44-1.17-.08-2.36,0-3.54,0s-2.06.09-3.09.08A5,5,0,0,1,397.42,359.44Z" />
        <path class="light"
            d="M384.69,376.35l-.08.87-.13.55c-.71,5.27-1.43,10.53-2.19,16.13l-3.47-1.13c1.74-5.77,3.43-11.39,5.12-17Z" />
        <path class="light"
            d="M396.47,364.06a26,26,0,0,1,4.08,8c.53,1.57.09,3.31-.85,3.7-1.45.6-2.38-.42-3.27-1.33a17.64,17.64,0,0,1-3.73-6.61c-.34-1-.61-2-.91-3l.76-.62a22.23,22.23,0,0,0,1.2,3.13,50.54,50.54,0,0,0,2.95,4.6c.21.3,1,.6,1.16.47a2.08,2.08,0,0,0,.72-1.34,4.54,4.54,0,0,0-.39-1.86c-.58-1.48-1.23-2.94-1.85-4.41Z" />
        <path class="color-shadow"
            d="M366.57,360.05h13.18a5,5,0,0,1-5.07,2.41,26.88,26.88,0,0,0-4.3.14C367.49,362.87,367.49,362.9,366.57,360.05Z" />
        <path class="color-shadow"
            d="M412.55,358.66l3.28.21,3.4.19V357.3c.95,0,1.15.55,1.22,1.23-.11.4-.36.84-.28,1.19a25.72,25.72,0,0,0,.95,2.78c-2.57-.19-4.76-.3-6.92-.54a1.79,1.79,0,0,1-1.12-1A12.31,12.31,0,0,1,412.55,358.66Z" />
        <path class="color-shadow"
            d="M335.39,360.53a15.86,15.86,0,0,1,2.52-.51c1.58-.09,3.18,0,4.77,0a7.15,7.15,0,0,1,.34,1.6c0,1.47-.34,1.74-1.8,1.84l-6.5.46Z" />
        <path class="color-shadow"
            d="M420.89,359l9.45,1.14a1.57,1.57,0,0,1,0,.23c-.63,2.73-.65,2.45-3.3,2.62C423.78,363.23,422.24,361.41,420.89,359Z" />
        <path class="color-shadow"
            d="M463.48,363l5.48-.08c0,1.35,0,2.71.05,4.07,0,.82-.42,1.16-1.22,1-1.18-.19-2.32-.28-2.73-1.82A17.37,17.37,0,0,0,463.48,363Z" />
        <path class="color-shadow"
            d="M359,359.49l5.76,0a3.81,3.81,0,0,1,.15.44c.18.88.88,1.8.06,2.64-.52.53-3.09.25-3.74-.42C360.46,361.35,359.78,360.39,359,359.49Z" />
        <path class="color-shadow"
            d="M432.12,360l3.7.53c-.16.61-.31,1.23-.49,1.83-.44,1.42-.56,1.5-2,1.44-1.82-.08-2-.36-1.6-2.18Z" />
        <path class="color-base"
            d="M391.29,358.62c.19-.52.39-1,.58-1.55a24.5,24.5,0,0,1,4.6,7l-.13.81c-1-1.59-1.91-3.2-2.94-4.76C392.92,359.37,392.5,358.38,391.29,358.62Z" />
        <path class="light" d="M393.55,356c1.34.72,1.8,1.81,1.37,3.74l-1.94-3Z" />
        <path class="light"
            d="M383.5,355.67l.57-.22c.66.42.52.92.09,1.37s-1.13,1.1-1.88,1.8C382.13,357.25,383.11,356.58,383.5,355.67Z" />
        <path class="color-base" d="M393.55,356l-.57.7-.06-1.11Z" />
        <path class="color-base" d="M390.71,377.76c.06.36.11.72.17,1.08C390.82,378.48,390.77,378.12,390.71,377.76Z" />
        <path class="color-base" d="M391.61,377.24c-.06-.34-.13-.69-.19-1Z" />
        <path class="color-shadow" d="M358.09,359.12l.15-.37.28.27A3.34,3.34,0,0,1,358.09,359.12Z" />
        <path class="color-shadow-dark" d="M365.21,357.47l.53.06Z" />
        <path class="color-shadow" d="M454.05,365.74a.39.39,0,0,1,.18.06s0,.09,0,.14l-.22-.19Z" />
        <path class="color-shadow-dark" d="M449.21,356.44l.53.14Z" />
        <path class="color-base" d="M384.48,377.77l.13-.55Z" />
        <path class="outline" d="M474.7,366.21l-.17-.06.14.09Z" />
        <path class="outline"
            d="M387.32,357.09l-.55,2-5.2,8.51c-1.43,1.6-2.83,3.25-4.32,4.8a20.69,20.69,0,0,1-2.76,2.27,1.12,1.12,0,0,1-1.08,0,1.57,1.57,0,0,1-.39-1.22,6.22,6.22,0,0,1,.81-2A48.52,48.52,0,0,1,387.32,357.09Zm-10.07,13q1.9-2.38,3.8-4.79l.36-.55a1.6,1.6,0,0,0-.55.15c-.11.07-.13.27-.18.41-1.25,1.52-2.89,2.77-3.4,4.81l-.13.08Z" />
        <path class="outline"
            d="M391.29,358.62c1.21-.24,1.63.75,2.11,1.49,1,1.56,2,3.17,2.94,4.76.62,1.47,1.27,2.93,1.85,4.41a4.54,4.54,0,0,1,.39,1.86,2.08,2.08,0,0,1-.72,1.34c-.17.13-.95-.17-1.16-.47a50.54,50.54,0,0,1-2.95-4.6,22.23,22.23,0,0,1-1.2-3.13c-.37-1.41-.73-2.82-1.1-4.23Zm3.41,7.32.26-.07a4.27,4.27,0,0,0-.2-.82,5.56,5.56,0,0,0-.48-.81l-.18.1Z" />
        <path class="outline" d="M386.35,361.9l.22-.17s0,.1-.07.12a1,1,0,0,1-.18,0Z" />
        <path class="color-shadow-dark" d="M381.05,365.27h-.37c.05-.14.07-.34.18-.41a1.6,1.6,0,0,1,.55-.15Z" />
        <path class="color-base" d="M377.25,370.06l-.1.11.13-.08Z" />
        <path class="color-shadow-dark" d="M394.7,365.94l-.6-1.6.18-.1a5.56,5.56,0,0,1,.48.81,4.27,4.27,0,0,1,.2.82Z" />
    </g>
</svg>
