<svg id="Crop_Pryamoy" data-name="Crop Pryamoy" xmlns="http://www.w3.org/2000/svg" viewBox="0 0 672 960">

    <g>
        <path class="color-base"
            d="M301.45,344a62.8,62.8,0,0,1,14.94,3.13c2.11.77,4.54.71,6.83.92,5.08.47,10.15.86,15.23,1.28.56,0,1.12.05,1.68,0,7.82-.11,15.64-.13,23.46-.4,3.09-.1,6.15-.82,9.24-1.13,4.92-.5,9.84-.93,14.76-1.33q8.32-.68,16.67-1.25c3.58-.25,7.16-.5,10.75-.64q7.41-.27,14.83-.36c1.9,0,3.81.31,5.72.29,3.43,0,6.85-.34,10.28-.27,4.93.1,9.87.39,14.79.71,2.22.15,4.41.55,6.62.83l1.57.06c-.12,1.74-.33,3.47-.36,5.21-.06,3.75,0,7.51,0,11.27,0,2.62-.51,3.14-3.18,3.33-.24,0-.48,0-.72,0l-10.73.5c-.32,0-.63.1-.95.13a73.54,73.54,0,0,1-7.8.77c-7.66,0-15.31-.28-23-.44-.24,0-.48,0-.71,0-3.8-.31-7.59-.75-11.4-.9-4.07-.15-8.15,0-12.23,0a11.31,11.31,0,0,0-1.42.11c-2.29.27-4.56.58-6.85.83a11.1,11.1,0,0,1-1.91,0c-1.74-.14-3.48-.35-5.22-.42s-3.52,0-5.27,0c-1.1-.05-2.27-.6-3.28-.37-2.94.67-5.89.28-8.83.38-5.65.19-11.31.34-17,.5a5.53,5.53,0,0,0-.71,0,63,63,0,0,1-12.11.92c-2.48-.05-5-.07-7.44,0a49.56,49.56,0,0,1-12.5-1.5,55.7,55.7,0,0,0-8.68-1.42c-.42,0-1.05-.24-1.18-.54-1.07-2.48-2.28-4.91-2.55-7.66-.23-2.37-.59-4.72-.85-7.08C301.77,347.67,301.62,345.85,301.45,344Z" />
        <path class="color-shadow"
            d="M301.45,344c.17,1.81.32,3.63.53,5.44.26,2.36.62,4.71.85,7.08.27,2.75,1.48,5.18,2.55,7.66.13.3.76.51,1.18.54a55.7,55.7,0,0,1,8.68,1.42,49.56,49.56,0,0,0,12.5,1.5c2.48-.08,5-.06,7.44,0a63,63,0,0,0,12.11-.92,5.53,5.53,0,0,1,.71,0c5.66-.16,11.32-.31,17-.5,2.94-.1,5.89.29,8.83-.38,1-.23,2.18.32,3.28.37,1.75.07,3.52,0,5.27,0s3.48.28,5.22.42a11.1,11.1,0,0,0,1.91,0c2.29-.25,4.56-.56,6.85-.83a11.31,11.31,0,0,1,1.42-.11c4.08,0,8.16-.12,12.23,0,3.81.15,7.6.59,11.4.9.23,0,.47,0,.71,0,7.66.16,15.31.4,23,.44a73.54,73.54,0,0,0,7.8-.77c.32,0,.63-.12.95-.13l10.73-.5c.24,0,.48,0,.72,0,2.67-.19,3.17-.71,3.18-3.33,0-3.76,0-7.52,0-11.27,0-1.74.24-3.47.36-5.21h0c.21-1.24.42-2.48.62-3.73h.67l.21,2c.08.12.17.23.26.34.24.68.47,1.36.71,2l1.07.43a.28.28,0,0,1,.39.08l1,.4a.38.38,0,0,1,.44.11,10,10,0,0,1,.87,3c-.06,4.38-.25,8.75-.5,13.12a38.63,38.63,0,0,1-.73,4.21,1.79,1.79,0,0,1-2.13,1.73c-2.3-.17-4.59-.34-6.89-.43a30,30,0,0,0-4.55,0c-3.14.37-6.26,1.08-9.41,1.28-3.54.23-7.07.62-10.6.85a113.58,113.58,0,0,1-14.77-.37c-2.68-.17-5.35-.69-8-.87-3-.19-6-.16-9.06-.4-3.45-.27-7,.25-10.47.45-.2,0-.38.25-.57.39l-7.71-.23-1.36,0-1.57-.05a29.23,29.23,0,0,0-4.22-.62c-8.78-.05-17.56,0-26.34,0a15.64,15.64,0,0,0-1.68,0q-5.29.67-10.59,1.4c-2.9.4-5.78.92-8.69,1.26a55.4,55.4,0,0,1-7.82.58,39,39,0,0,1-6.08-1c-1.48-.27-3-.52-4.43-.84-2.47-.54-5-1-7.39-1.73-1.68-.48-3.22-1.41-4.9-1.87a5.33,5.33,0,0,1-3.85-3.8,56.37,56.37,0,0,1-2.76-14c-.17-2.12-.64-4.21-1-6.32.47-.2,1.14.68,1.5-.42s.86-1.22,1.62-.53A11.85,11.85,0,0,1,301.45,344Z" />
        <path class="outline"
            d="M389.69,370.31l7.71.23a8.05,8.05,0,0,0,1.35.33c3.65.21,7.31.41,11,.58q7.15.33,14.33.59c1.59.06,3.19,0,4.78.07,7.26.07,14.51.19,21.76.2,3.43,0,6.85-.31,10.27-.23,4.14.1,8.27.56,12.4.68,1.72.05,3.75,0,4.55-1.93a41.79,41.79,0,0,0,2.19-7.06c.5-2.33.59-4.74.9-7.11.11-.85.16-1.82,1.38-1.89a9.55,9.55,0,0,1,.48,5.64c-.37,2.13-.6,4.27-1,6.39a37,37,0,0,1-1.25,5.34c-.85,2.44-2.18,3.23-4.74,3.08-3.83-.23-7.65-.58-11.48-.77-4.39-.21-8.79-.51-13.17-.38-11,.31-22.05-.14-33.06-.73-10.37-.56-20.73-1.36-31.12-1.44a208.4,208.4,0,0,0-25.84,1.41c-8.81,1-17.6,2.2-26.4,3.31a70.38,70.38,0,0,1-21.73-.3,25.71,25.71,0,0,1-3.26-.76c-3.2-1-6.38-2.07-9.57-3.1a4.71,4.71,0,0,1-3.45-3.57,30.55,30.55,0,0,0-2.34-6,51.47,51.47,0,0,1-4.95-16.43c-.41-3.17-.9-6.33-1.26-9.51a8.39,8.39,0,0,1,.36-3.58l3.15,11c.2.59.41,1.19.61,1.79q4,11,7.91,22.08a2.46,2.46,0,0,0,1.77,1.44,33.06,33.06,0,0,1,4,1.58c6.68,3.48,14,3.76,21.22,3.95a63.62,63.62,0,0,0,8.34-.74c7.76-.85,15.52-1.79,23.3-2.55,5.95-.57,11.92-1,17.89-1.35,3.35-.21,6.7-.2,10.05-.29l1.57.05Z" />
        <path class="color-shadow-dark"
            d="M386.76,370.24c-3.35.09-6.7.08-10.05.29-6,.37-11.94.78-17.89,1.35-7.78.76-15.54,1.7-23.3,2.55a63.62,63.62,0,0,1-8.34.74c-7.26-.19-14.54-.47-21.22-3.95a33.06,33.06,0,0,0-4-1.58,2.46,2.46,0,0,1-1.77-1.44q-3.94-11-7.91-22.08l.08-1.78c.2-.23.36-.55.61-.67,1.76-.82,1.77-.81,2.4-2.37,1.16.18,1.25,1.26,1.68,2,.33,2.11.8,4.2,1,6.32a56.37,56.37,0,0,0,2.76,14,5.33,5.33,0,0,0,3.85,3.8c1.68.46,3.22,1.39,4.9,1.87,2.43.7,4.92,1.19,7.39,1.73,1.47.32,2.95.57,4.43.84a39,39,0,0,0,6.08,1,55.4,55.4,0,0,0,7.82-.58c2.91-.34,5.79-.86,8.69-1.26q5.29-.73,10.59-1.4a15.64,15.64,0,0,1,1.68,0c8.78,0,17.56,0,26.34,0A29.23,29.23,0,0,1,386.76,370.24Z" />
        <path class="color-shadow-dark"
            d="M482.28,354.77c-1.22.07-1.27,1-1.38,1.89-.31,2.37-.4,4.78-.9,7.11a41.79,41.79,0,0,1-2.19,7.06c-.8,1.94-2.83,2-4.55,1.93-4.13-.12-8.26-.58-12.4-.68-3.42-.08-6.84.24-10.27.23-7.25,0-14.5-.13-21.76-.2-1.59,0-3.19,0-4.78-.07q-7.17-.27-14.33-.59c-3.66-.17-7.32-.37-11-.58a8.05,8.05,0,0,1-1.35-.33c.19-.14.37-.38.57-.39,3.5-.2,7-.72,10.47-.45,3,.24,6.05.21,9.06.4,2.68.18,5.35.7,8,.87a113.58,113.58,0,0,0,14.77.37c3.53-.23,7.06-.62,10.6-.85,3.15-.2,6.27-.91,9.41-1.28a30,30,0,0,1,4.55,0c2.3.09,4.59.26,6.89.43a1.79,1.79,0,0,0,2.13-1.73,38.63,38.63,0,0,0,.73-4.21c.25-4.37.44-8.74.5-13.12a10,10,0,0,0-.87-3c1.37.58,2.77,1.1,4.11,1.74a3.1,3.1,0,0,1,1.73,2.4c0,.15.06.31.08.46C480.37,353.46,480.87,354.49,482.28,354.77Z" />
        <path class="color-shadow-dark" d="M470.15,342.2h-.67a8.76,8.76,0,0,1,.68-4.34A9.93,9.93,0,0,1,470.15,342.2Z" />
        <path class="color-shadow" d="M292.35,344.34c0,.59-.05,1.18-.08,1.78-.2-.6-.41-1.2-.61-1.79Z" />
        <path class="color-shadow-dark" d="M468.86,345.93h0l-1.57-.06Z" />
        <path class="color-shadow-dark" d="M472.4,347l-1.07-.43Z" />
        <path class="color-shadow-dark" d="M473.8,347.48l-1-.4Z" />
        <path class="color-shadow-dark" d="M470.62,344.54c-.09-.11-.18-.22-.26-.34Z" />
        <path class="color-shadow-dark" d="M389.69,370.31l-1.36,0Z" />
    </g>
</svg>
