<svg id="Crop_Pryamoy" data-name="Crop Pryamoy" xmlns="http://www.w3.org/2000/svg" viewBox="0 0 672 960">

    <g>
        <path class="color-base"
            d="M297.08,342.71c2.06.17,4.14.21,6.17.53,3.47.54,6.91,1.26,10.36,1.93a5.1,5.1,0,0,1,1.6.47c3.68,2.11,7.77,2.13,11.82,2.47,3.81.32,7.62.8,11.44,1,4.7.23,9.42.29,14.14.29,3.5,0,7-.15,10.52-.33,1.59-.09,3.16-.39,4.74-.59,7.05-.89,14.08-1.71,21.19-2,7.32-.29,14.63-1.09,21.94-1.65.95-.07,1.92,0,2.87,0,7.43-.37,14.85-.2,22.28,0a88.41,88.41,0,0,0,14.06-1.16,78.91,78.91,0,0,1,19.3-.64,8,8,0,0,1,4.43,1.54c-.91-.2-1.84-.38-2.75-.63s-1.24,0-1.3.83c-.16,2.46-.39,4.91-.47,7.36-.08,2.79,0,5.58,0,8.37l-2.09.2L455,360.32a2.79,2.79,0,0,0-.87-.32c-3.88,0-7.77,0-11.66,0-1.6-.07-3.2,0-4.78-.22a308.15,308.15,0,0,0-44.74-2c-9,.26-18.06.17-27.09.21-10.22,0-20.45-.06-30.67.11-7.11.11-14.21.64-21.31.86-3.51.1-7-.08-10.54-.13-.16-1.57-.35-3.14-.5-4.71-.19-2-.32-4.09-.56-6.13-.14-1.17-.44-2.32-.66-3.48a1.58,1.58,0,0,0-1.83-1.42A16,16,0,0,1,297.08,342.71Z" />
        <path class="outline"
            d="M303.34,358.9c3.52.05,7,.23,10.54.13,7.1-.22,14.2-.75,21.31-.86,10.22-.17,20.45-.07,30.67-.11,9,0,18.06.05,27.09-.21a308.15,308.15,0,0,1,44.74,2c1.58.18,3.18.15,4.78.22l12.53.29,12.31.29,2.12.2,5.72.08,5.21.52c.23-2.08.4-3.89.64-5.69.12-1,0-2.15,1.38-2.45a10,10,0,0,1,.4,6.32c-.51,2.33-.84,4.71-1.41,7a38.06,38.06,0,0,1-1.7,5.2,4.14,4.14,0,0,1-4.34,2.72q-4.68-.15-9.35-.18c-5.83,0-11.66.1-17.49,0-8.7-.2-17.4-.51-26.1-.87q-10.77-.45-21.53-1.12a217.57,217.57,0,0,0-25.15-.22q-14.83.8-29.55,3c-6.24.92-12.51,1.82-18.8,2.14-7.35.36-14.7-.09-21.65-3.08a34.83,34.83,0,0,0-5.29-1.5,5.39,5.39,0,0,1-4.35-4.2c-.91-3.46-2.25-6.81-3.4-10.21a6.49,6.49,0,0,1-.37-1.13q-1-7-2-14a1.31,1.31,0,0,1,0-.71,1.85,1.85,0,0,1,.68-.8c.12-.07.59.23.7.46a19.27,19.27,0,0,1,.81,2c.74,2.75,1.48,5.51,2.24,8.25.49,1.77,1.06,3.51,1.51,5.28a1.71,1.71,0,0,0,2.05,1.46C300,359,301.67,359,303.34,358.9ZM300.49,363l-2.61-.15c.51,1.48.95,2.58,1.27,3.72.57,2,1.66,3.32,3.85,3.6a7.49,7.49,0,0,1,2.22.87,31.89,31.89,0,0,0,9.75,3.14,94.06,94.06,0,0,0,10.7,1.05,72.6,72.6,0,0,0,9.05-.72c7.92-.84,15.83-1.78,23.76-2.57q8.2-.83,16.43-1.31c4.14-.25,8.29-.22,12.44-.31h1l1.33,0,7.73.23a22.69,22.69,0,0,0,2.32.32c2.63.11,5.27.11,7.91.26,3.42.2,6.83.6,10.25.74,6.94.26,13.89.48,20.85.59,5,.08,10.07,0,15.11-.09,4-.05,8-.17,12-.25,2.86-.06,5.73,0,8.58-.2a3.79,3.79,0,0,0,2.67-1.31,15.84,15.84,0,0,0,2.17-5.79l-5-.06-5.64-.14-1.13-.15-14.84-.1c-4.71-.19-9.42-.32-14.13-.59-5.58-.31-11.16-.68-16.74-1.14a170,170,0,0,0-18.2-.65c-5.67.15-11.34.36-17,.38-17.67.07-35.34,0-53,.1-6.55,0-13.1.29-19.66.44l-8.6.1H303.4l-2.5,0A.43.43,0,0,0,300.49,363Zm137.6-.51,6.33.3,6.27.06q14.21.27,28.41.53a2.27,2.27,0,0,0,.74-.26,1.67,1.67,0,0,0-1.24-.71c-1.2-.07-2.39-.05-3.59-.08L463.1,362l-8.47-.17-10.17-.36c-2.15-.13-4.31-.2-6.46-.4-5.25-.49-10.48-1.27-15.74-1.52q-12-.57-24-.57c-12,0-24,.2-36,.29-2.4,0-4.8-.16-7.19-.14-4.88,0-9.76.14-14.63.23-3,.06-5.92.1-8.88.24-3.51.18-7,.58-10.52.68-5.19.14-10.39.09-15.59.13-1.83,0-3.65.08-5.47.11a67.61,67.61,0,0,0,10.5.81c12.64,0,25.28-.17,37.91-.23,20-.11,40-.25,60-.23,5.5,0,11,.59,16.51.89C429.32,362,433.71,362.22,438.09,362.44Z" />
        <path class="color-shadow"
            d="M303.34,358.9c-1.67.05-3.34.05-5,.16a1.71,1.71,0,0,1-2.05-1.46c-.45-1.77-1-3.51-1.51-5.28-.76-2.74-1.5-5.5-2.24-8.25,1.11-1.82,2.8-1.69,4.55-1.36a16,16,0,0,0,2.71.45,1.58,1.58,0,0,1,1.83,1.42c.22,1.16.52,2.31.66,3.48.24,2,.37,4.09.56,6.13C303,355.76,303.18,357.33,303.34,358.9Z" />
        <path class="color-shadow"
            d="M475.15,360.89l-5.72-.08,0-.4c0-2.79-.06-5.58,0-8.37.08-2.45.31-4.9.47-7.36.06-.87.52-1,1.3-.83s1.84.43,2.75.63a.29.29,0,0,1,.26.11l1,.47,0,.05a55.92,55.92,0,0,1,.44,5.63C475.56,354.13,475.31,357.51,475.15,360.89Z" />
        <path class="color-shadow-dark"
            d="M475.15,360.89c.16-3.38.41-6.76.46-10.15a55.92,55.92,0,0,0-.44-5.63l.45.13.54.33a6.11,6.11,0,0,1,4.36,5.31c.23,1.68.4,1.66,1.86,2.39-1.38.3-1.26,1.47-1.38,2.45-.24,1.8-.41,3.61-.64,5.69Z" />
        <path class="color-base" d="M475.21,345.06l-1-.47Z" />
        <path class="color-base" d="M476.16,345.57l-.54-.33Z" />
        <path class="color-shadow-dark" d="M455,360.32,442.47,360c3.89,0,7.78,0,11.66,0A2.79,2.79,0,0,1,455,360.32Z" />
        <path class="color-shadow-dark" d="M469.4,360.41l0,.4-2.12-.2Z" />
        <path class="color-shadow"
            d="M397.4,370.54l-7.73-.23-1.33,0h-1c-.44-1-1.36-.66-2.1-.66q-15,0-30,0a11.57,11.57,0,0,0-1.44.07c-3.29.44-6.59.89-9.88,1.36-3.14.45-6.26,1-9.41,1.34a30.27,30.27,0,0,1-6.64.31c-4.17-.47-8.28-1.43-12.44-2s-7.91-2.32-11.82-3.63a3.7,3.7,0,0,1-2.74-3.79c0-.1,0-.2,0-.3l2.5,0c.46.29,1.07.47,1.36.89.54.79,1.25.81,2.07.91a55.21,55.21,0,0,1,7.05,1.05,54.38,54.38,0,0,0,14.63,1.82c3.36-.06,6.72.05,10.08,0,2.7-.07,5.4-.3,8.1-.5,4.12-.29,8.23-.8,12.36-.88,7.83-.14,15.67-.06,23.51,0,1.67,0,3.32.32,5,.4a27.77,27.77,0,0,0,4.08,0c2.52-.22,5-.81,7.56-.81,6.22,0,12.44.28,18.65.45h.24c4.12.32,8.24.8,12.36.9,6.48.15,13,0,19.44,0a13.76,13.76,0,0,0,1.43-.11c2.68-.28,5.37-.54,8.05-.84,2.36-.27,4.72-.53,7.07-.88a12.49,12.49,0,0,0,2.16-.73l5.64.14c-.09,3.73-.73,4.57-4.31,4.31-6.42-.46-12.63,1.19-19,1.55-3.79.21-7.57.72-11.37.87a95.45,95.45,0,0,1-15.93-.86,126.55,126.55,0,0,0-13.76-1c-4-.08-7.94.3-11.91.49C397.78,370.15,397.59,370.4,397.4,370.54Z" />
        <path class="color-base"
            d="M468.58,364.61a12.49,12.49,0,0,1-2.16.73c-2.35.35-4.71.61-7.07.88-2.68.3-5.37.56-8.05.84a13.76,13.76,0,0,1-1.43.11c-6.48,0-13,.12-19.44,0-4.12-.1-8.24-.58-12.36-.9h-.24c-6.21-.17-12.43-.43-18.65-.45-2.52,0-5,.59-7.56.81a27.77,27.77,0,0,1-4.08,0c-1.66-.08-3.31-.39-5-.4-7.84,0-15.68-.12-23.51,0-4.13.08-8.24.59-12.36.88-2.7.2-5.4.43-8.1.5-3.36.09-6.72,0-10.08,0a54.38,54.38,0,0,1-14.63-1.82,55.21,55.21,0,0,0-7.05-1.05c-.82-.1-1.53-.12-2.07-.91-.29-.42-.9-.6-1.36-.89h1.87a2.59,2.59,0,0,0,.87.33q3.33,0,6.68,0a3.3,3.3,0,0,0,1.05-.42c6.56-.15,13.11-.41,19.66-.44,17.66-.08,35.33,0,53-.1,5.67,0,11.34-.23,17-.38a170,170,0,0,1,18.2.65c5.58.46,11.16.83,16.74,1.14,4.71.27,9.42.4,14.13.59a6.84,6.84,0,0,0,1.55.41q6,0,11.94,0a6,6,0,0,0,1.35-.32Z" />
        <path class="color-shadow"
            d="M454.63,361.84l8.47.17a13.11,13.11,0,0,1-2.05.35c-2.7.05-5.4,0-8.1.05a16.19,16.19,0,0,0-2.26.39l-6.27-.06-6.33-.3c-4.38-.22-8.77-.43-13.16-.67-5.51-.3-11-.88-16.51-.89-20,0-40,.12-60,.23-12.63.06-25.27.2-37.91.23a67.61,67.61,0,0,1-10.5-.81c1.82,0,3.64-.09,5.47-.11,5.2,0,10.4,0,15.59-.13,3.51-.1,7-.5,10.52-.68,3-.14,5.92-.18,8.88-.24,4.87-.09,9.75-.2,14.63-.23,2.39,0,4.79.15,7.19.14,12-.09,24-.31,36-.29q12,0,24,.57c5.26.25,10.49,1,15.74,1.52,2.15.2,4.31.27,6.46.4a3.36,3.36,0,0,0,1.08.39C448.57,361.89,451.6,361.86,454.63,361.84Z" />
        <path class="color-shadow-dark"
            d="M300.91,363.28a3.7,3.7,0,0,0,2.74,3.79c3.91,1.31,7.66,3.08,11.82,3.63s8.27,1.5,12.44,2a30.27,30.27,0,0,0,6.64-.31c3.15-.35,6.27-.89,9.41-1.34,3.29-.47,6.59-.92,9.88-1.36a11.57,11.57,0,0,1,1.44-.07q15,0,30,0c.74,0,1.66-.37,2.1.66-4.15.09-8.3.06-12.44.31q-8.22.48-16.43,1.31c-7.93.79-15.84,1.73-23.76,2.57a72.6,72.6,0,0,1-9.05.72,94.06,94.06,0,0,1-10.7-1.05,31.89,31.89,0,0,1-9.75-3.14,7.49,7.49,0,0,0-2.22-.87c-2.19-.28-3.28-1.61-3.85-3.6-.32-1.14-.76-2.24-1.27-3.72l2.61.15Z" />
        <path class="color-shadow-dark"
            d="M397.4,370.54c.19-.14.38-.39.57-.4,4-.19,7.95-.57,11.91-.49a126.55,126.55,0,0,1,13.76,1,95.45,95.45,0,0,0,15.93.86c3.8-.15,7.58-.66,11.37-.87,6.34-.36,12.55-2,19-1.55,3.58.26,4.22-.58,4.31-4.31l5,.06a15.84,15.84,0,0,1-2.17,5.79,3.79,3.79,0,0,1-2.67,1.31c-2.85.21-5.72.14-8.58.2-4,.08-8,.2-12,.25-5,.07-10.08.17-15.11.09-7-.11-13.91-.33-20.85-.59-3.42-.14-6.83-.54-10.25-.74-2.64-.15-5.28-.15-7.91-.26A22.69,22.69,0,0,1,397.4,370.54Z" />
        <path class="color-shadow-dark"
            d="M450.69,362.8a16.19,16.19,0,0,1,2.26-.39c2.7-.05,5.4,0,8.1-.05a13.11,13.11,0,0,0,2.05-.35l11.91.27c1.2,0,2.39,0,3.59.08a1.67,1.67,0,0,1,1.24.71,2.27,2.27,0,0,1-.74.26Q464.9,363.09,450.69,362.8Z" />
        <path class="color-shadow" d="M467.45,364.46a6,6,0,0,1-1.35.32q-6,0-11.94,0a6.84,6.84,0,0,1-1.55-.41Z" />
        <path class="color-shadow-dark" d="M454.63,361.84c-3,0-6.06.05-9.09,0a3.36,3.36,0,0,1-1.08-.39Z" />
        <path class="color-shadow" d="M313.87,362.9a3.3,3.3,0,0,1-1.05.42q-3.35.06-6.68,0a2.59,2.59,0,0,1-.87-.33Z" />
        <path class="color-shadow-dark" d="M438.09,362.44l6.33.3Z" />
        <path class="color-shadow-dark" d="M388.34,370.28l1.33,0Z" />
        <path class="color-base"
            d="M300.91,363.28l-.42-.33a.43.43,0,0,1,.41,0C300.9,363.08,300.9,363.18,300.91,363.28Z" />
    </g>
</svg>
