<svg id="img_70" data-name="img 70" xmlns="http://www.w3.org/2000/svg" viewBox="0 0 672 960">
    <g id="img_64_img" data-name="img 64 img">
        <path class="outline"
            d="M346.65,183.41l-4.41,1.28c-.75.21-1.51.32-2-.45s-.18-1.38.19-2.11c2.57-5,6-9.44,8.15-14.64,1.69-4.05,2.37-8.35,3.29-12.58.73-3.31,1.17-6.68,1.86-10a21.88,21.88,0,0,1,1.47-4.78,7,7,0,0,1,6-4.44c6.83-.66,13.64-1.43,20.45-2.24,5.82-.68,11.62-1.47,17.43-2.2,5.07-.63,10.12-1.38,15.2-1.81a102.89,102.89,0,0,1,11.11-.18c5.27.13,10.52.52,15.79.67a8.86,8.86,0,0,1,6.19,2.69,4.37,4.37,0,0,0,1.59.92c3.14,1,5.58,2.82,6.67,6.07a12.05,12.05,0,0,0,3.28,4.79,7.5,7.5,0,0,1,2.52,6.44c-.13,1.26-.42,2.5-.58,3.76a14.14,14.14,0,0,0,3.61,11.79,75.51,75.51,0,0,1,6.36,8.68,4.4,4.4,0,0,1-2.13,6.38,22.27,22.27,0,0,1-3.2,1c-4.41,1.06-8.3,3.24-12.16,5.52-3.7,2.19-7.54,4.14-11.29,6.25a11.23,11.23,0,0,0-2,1.69,57.89,57.89,0,0,1-18.27,12.06,33,33,0,0,1-6.85,1.59q-5.88,1-11.8,1.67a53,53,0,0,1-14.56-.52,70.4,70.4,0,0,1-15.71-4.08c-6.89-2.79-13.17-6.53-18-12.31-2.1-2.51-4.24-5-6.26-7.55A25.82,25.82,0,0,1,346.65,183.41Zm16-28.42-1.91-2.74a4.07,4.07,0,0,0,.83,5.19c2.37,4,5.79,7,9.21,10,6.85,6.17,13.65,12.42,21.25,17.73a3.11,3.11,0,0,0-.54-1.19c-.52-.86-1-1.72-1.52-2.59a12.68,12.68,0,0,0,2.13.64,65.31,65.31,0,0,0,12.35.6,89,89,0,0,0,15.49-2.56c.56-.14,1-.87,1.46-1.32l.13-.08h-.07a.25.25,0,0,0,0,.09c-1.34.2-2.69.34-4,.61-7.51,1.55-15.11,1.69-22.73,1.55-1.81,0-3.63-.24-5.44-.37a7.51,7.51,0,0,1-.79-.69c-2.22-2.4-4.39-4.84-6.64-7.21-1.67-1.76-3.42-3.45-5.16-5.15-2.16-2.11-4.26-4.29-6.52-6.29-1.85-1.63-3.88-3-5.84-4.54Zm81.73,4.34a6.14,6.14,0,0,1,.34-.62l4.81-6.75c1-1.77,2-3.54,2.93-5.32a1.1,1.1,0,0,0,0-.92c-1.09-1.76-2.24-3.49-3.32-5.16a151.78,151.78,0,0,1-29.22,43.53c.36-.06.56,0,.66-.11,2.11-1.74,4.37-3.34,6.3-5.27,3.44-3.44,6.73-7.05,10-10.67C439.45,165.2,441.88,162.24,444.37,159.33ZM343,182.91l1.36-.33,3.8-.81c.09.19.13.46.28.56a54.7,54.7,0,0,0,4.78,3.15c2.05,1.11,4.24,2,6.36,3,1.51.69,3,1.41,4.49,2.11-.16.07-.36.23-.5.2-3-.79-5.92-1.55-8.86-2.41-1.27-.37-2.48-.94-3.72-1.42a17.38,17.38,0,0,0,2.27,3.15c3.73,4.38,7.51,8.68,12.62,11.58a50.63,50.63,0,0,0,13.08,5.44L389,209.27c.1.06.19.18.29.19,4.16.33,8.33.7,12.5.93a30.74,30.74,0,0,0,4.58-.31,24.83,24.83,0,0,0,2.72-.43c1.51-.34,3-.77,4.52-1.1,2.75-.61,5.67-.79,8.22-1.87A69,69,0,0,0,432.06,201a74.13,74.13,0,0,0,6.66-5.4l.14-.15-.26,0-6.2,1.41-.09-.32a14.94,14.94,0,0,1,4.77-2.19,27.16,27.16,0,0,0,9.64-3.43c3.7-2.37,7.34-4.84,11.13-7.05,2.86-1.66,5.91-3,8.88-4.46a3.05,3.05,0,0,0,1.4-4.37c-1.78-3-3.59-6-5.48-8.87A14.24,14.24,0,0,1,460,160a52.44,52.44,0,0,1-.53-8.09c.19-3.43-1.82-5.41-4-7.51a2,2,0,0,0-.23.36,37.82,37.82,0,0,1-6.77,12.05c-2.78,3.6-5.68,7.12-8.63,10.59-2.24,2.64-4.52,5.26-7,7.69-2.73,2.7-5.57,5.29-8.55,7.7a37,37,0,0,1-7.51,5.05c-5.23,2.41-10.87,2.68-16.56,2.09a21.78,21.78,0,0,1-12.41-5.42c-2.85-2.48-5.68-5-8.5-7.52-5.13-4.57-10.31-9.09-15.36-13.76s-8.24-10.62-8.44-17.79l.69,0,.3-4-.44-.06-.95,4c-1,4.56-2,9.12-2.86,13.69a57.12,57.12,0,0,1-5.62,15.6c-1.4,2.64-2.52,5.42-3.77,8.14l-.09.15Zm46.21-4c5.78,1.75,11.67,1.09,17.63,1-.13-1.43-.19-2.63-.37-3.8q-1.38-8.79-2.82-17.57a4.36,4.36,0,0,0-.43-1.57c-.52-.85-1.29-1.56-1.74-2.44a5.63,5.63,0,0,1,.18-4.74l.87,2.08c.23-.24.29-.39.27-.54q-1.25-8.22-2.5-16.43c-.11-.75-.54-.83-1.2-.75-3.88.49-7.76,1-11.65,1.4-6,.65-12.08,1.21-18.11,1.86-3.26.36-6.5.82-9.74,1.3a1.48,1.48,0,0,0-1,.82c-1.23,3.31-.53,6.43,1,9.46a4.8,4.8,0,0,1,.78,1c.87,2.21,2.66,3.51,4.59,4.68a29.59,29.59,0,0,1,9.91,9.49,10.12,10.12,0,0,0,2.7,3.16c4.23,2.77,7,7,10.47,10.44Zm55.1-30.58a16.25,16.25,0,0,0,3.15-9c.05-3.46-1.8-5.36-4.59-6.58a15.19,15.19,0,0,0-4.8-.8c-2-.15-4,0-6-.17-4.54-.28-9.06-1.13-13.62-.51-4,.56-8.05,1.2-12.08,1.81-1.56.23-3.12.5-4.68.75.26,2.74.4,5.28.75,7.8.62,4.44,1.19,8.89,2.11,13.27,1.09,5.14,2.32,10.24,3,15.46.39,3.11,1,6.19,1.47,9.37a6.24,6.24,0,0,0,1,0c3.22-.49,6.44-1,9.65-1.52a7.81,7.81,0,0,0,3.37-1,31.9,31.9,0,0,0,4.16-4.14,24.83,24.83,0,0,0,1.71-2.41,9.48,9.48,0,0,0,.81-.87c2.3-3.2,4.66-6.36,6.88-9.62C439.19,156.27,441.71,152.29,444.28,148.34Zm-50.55,37c1.21,2.39,3.46,3.24,5.72,3.47a69.42,69.42,0,0,0,10.4.2c3.57-.2,5.53-2.87,7.35-5.63a10.74,10.74,0,0,0-2.62.17c-2.58.52-5.13,1.18-7.72,1.6a53.49,53.49,0,0,1-7.24.73A48.47,48.47,0,0,1,393.73,185.33Zm59.39-42.83c.5-2.49-1.63-5.41-3.73-5.32Zm-95.31,6.43,1.24,4C359.88,151.05,359.54,150,357.81,148.93Zm45,3.33-.06,0v.08Z" />
        <path class="color-base"
            d="M389,209.27l-10.07-2.19c-.25-.28-.46-.65-.77-.81a57.71,57.71,0,0,1-12.62-8.15c-1.09-1-2.23-1.85-3.35-2.78l.14-.23,14.95,3.32a1,1,0,0,0-.48-.53c-3.11-1.64-6.24-3.23-9.3-4.93a37.15,37.15,0,0,1-3.46-2.43c-1.49-.7-3-1.42-4.49-2.11-2.12-1-4.31-1.84-6.36-3a54.7,54.7,0,0,1-4.78-3.15c-.15-.1-.19-.37-.28-.56q4-13.19,8.1-26.4a7.65,7.65,0,0,1,.3.74c1.7,5.7,5.11,10.33,9.14,14.55A90.84,90.84,0,0,0,379.11,182c3.36,2.38,6.36,5.28,10.06,7.21,4.4,2.29,8.88,4.21,14,4,1.63-.06,3.28-.06,4.89-.27a24.39,24.39,0,0,0,9.44-2.77c2-1.2,4.13-2.25,6.24-3.28,3.48-1.7,6.91-3.47,9.56-6.4,1.39-1.54,2.74-3.11,4.16-4.63q2.74-2.93,5.56-5.79c4.84-4.94,8.47-10.74,11.9-16.7a6,6,0,0,1,.52-.66c.14,1.48.16,2.81.4,4.09a26.7,26.7,0,0,0,4.64,10.13c1.55,2.26,3.76,4.16,4.05,7.2.11,1.08-.08,1.56-1,2-4,2-7.79,4-10.82,7.59C449,188,443.73,190,438.55,192a46.73,46.73,0,0,0-10.44,5q-5.64,3.9-11.38,7.67a24.4,24.4,0,0,1-14.9,4.35c-1.32-.07-2.64,0-4,0-2.54,0-5.08,0-7.62,0A7.83,7.83,0,0,0,389,209.27Zm57.61-33.36,1-.65-.2-.24-.86.75-.24.37Zm-43.19,22.41c-.46-.1-.92-.21-1.38-.28s-1,0-1.43-.13a45,45,0,0,1-20.08-9.75c-3.75-3.2-7-7-10.49-10.51-1.47-1.51-2.91-3.06-4.36-4.59-.12.3-.06.44,0,.55,2,2.31,4,4.6,5.88,6.95a49.24,49.24,0,0,0,21.25,15.64A27.66,27.66,0,0,0,403.42,198.32Zm51.61-36-.28,0a20,20,0,0,1-.66,2.8,28.48,28.48,0,0,1-5.14,8.13c-.43.51-.84,1-1.27,1.55l.28.19c3.31-3.09,6.08-6.54,7.24-11.05A4.88,4.88,0,0,0,455,162.27Z" />
        <path class="color-shadow"
            d="M428.86,170.66a24.83,24.83,0,0,1-1.71,2.41,31.9,31.9,0,0,1-4.16,4.14,7.81,7.81,0,0,1-3.37,1c-3.21.56-6.43,1-9.65,1.52a6.24,6.24,0,0,1-1,0c-.5-3.18-1.08-6.26-1.47-9.37-.68-5.22-1.91-10.32-3-15.46-.92-4.38-1.49-8.83-2.11-13.27-.35-2.52-.49-5.06-.75-7.8,1.56-.25,3.12-.52,4.68-.75,4-.61,8-1.25,12.08-1.81,4.56-.62,9.08.23,13.62.51,2,.13,4,0,6,.17a15.19,15.19,0,0,1,4.8.8c2.79,1.22,4.64,3.12,4.59,6.58a16.25,16.25,0,0,1-3.15,9,4.27,4.27,0,0,0-3.59,2c-1.54,2.41-2.85,5-4.36,7.38-1.61,2.59-3.34,5.1-5,7.64C430.23,167,428.29,168.27,428.86,170.66Z" />
        <path class="color-shadow"
            d="M359.63,149c-1.55-3-2.25-6.15-1-9.46a1.48,1.48,0,0,1,1-.82c3.24-.48,6.48-.94,9.74-1.3,6-.65,12.08-1.21,18.11-1.86,3.89-.42,7.77-.91,11.65-1.4.66-.08,1.09,0,1.2.75q1.25,8.21,2.5,16.43c0,.15,0,.3-.27.54l-.87-2.08a5.63,5.63,0,0,0-.18,4.74c.45.88,1.22,1.59,1.74,2.44a4.36,4.36,0,0,1,.43,1.57q1.44,8.79,2.82,17.57c.18,1.17.24,2.37.37,3.8-6,.09-11.85.75-17.63-1a3.14,3.14,0,0,1,.61-.6c.66-.34,1.39-.56,2-1,1.1-.69,1.07-1.25.09-2.08-1.88-1.59-3.75-3.2-5.58-4.84-1.16-1-2.22-2.18-3.39-3.2-2.33-2-4.83-3.89-7-6.07a83.08,83.08,0,0,1-6.1-7c-2.37-2.92-5.79-4.15-9-5.73C360.58,148.32,360,148.8,359.63,149Z" />
        <path class="color-shadow"
            d="M389,209.27a7.83,7.83,0,0,1,1.25-.23c2.54,0,5.08,0,7.62,0,1.32,0,2.64-.05,4,0a24.4,24.4,0,0,0,14.9-4.35q5.73-3.76,11.38-7.67a46.73,46.73,0,0,1,10.44-5c5.18-2,10.46-4,14.1-8.26,3-3.56,6.82-5.64,10.82-7.59.95-.47,1.14-.95,1-2-.29-3-2.5-4.94-4.05-7.2a26.7,26.7,0,0,1-4.64-10.13c-.24-1.28-.26-2.61-.4-4.09a6,6,0,0,0-.52.66c-3.43,6-7.06,11.76-11.9,16.7q-2.82,2.87-5.56,5.79c-1.42,1.52-2.77,3.09-4.16,4.63-2.65,2.93-6.08,4.7-9.56,6.4-2.11,1-4.22,2.08-6.24,3.28a24.39,24.39,0,0,1-9.44,2.77c-1.61.21-3.26.21-4.89.27-5.09.18-9.57-1.74-14-4-3.7-1.93-6.7-4.83-10.06-7.21a90.84,90.84,0,0,1-13.44-11.29c-4-4.22-7.44-8.85-9.14-14.55a7.65,7.65,0,0,0-.3-.74q-4.07,13.23-8.1,26.4l-3.8.81-1.36.33-.06-.06c1.25-2.72,2.37-5.5,3.77-8.14a57.12,57.12,0,0,0,5.62-15.6c.91-4.57,1.9-9.13,2.86-13.69h.4c.2,7.17,3.28,13,8.44,17.79s10.23,9.19,15.36,13.76c2.82,2.52,5.65,5,8.5,7.52a21.78,21.78,0,0,0,12.41,5.42c5.69.59,11.33.32,16.56-2.09a37,37,0,0,0,7.51-5.05c3-2.41,5.82-5,8.55-7.7,2.46-2.43,4.74-5.05,7-7.69,2.95-3.47,5.85-7,8.63-10.59a37.82,37.82,0,0,0,6.77-12.05,2,2,0,0,1,.23-.36c2.17,2.1,4.18,4.08,4,7.51A52.44,52.44,0,0,0,460,160a14.24,14.24,0,0,0,2.63,6.23c1.89,2.92,3.7,5.89,5.48,8.87a3.05,3.05,0,0,1-1.4,4.37c-3,1.46-6,2.8-8.88,4.46-3.79,2.21-7.43,4.68-11.13,7.05a27.16,27.16,0,0,1-9.64,3.43,14.94,14.94,0,0,0-4.77,2.19l.09.32,6.2-1.41.12.12a74.13,74.13,0,0,1-6.66,5.4,69,69,0,0,1-10.23,5.66c-2.55,1.08-5.47,1.26-8.22,1.87-1.51.33-3,.76-4.52,1.1a24.83,24.83,0,0,1-2.72.43,30.74,30.74,0,0,1-4.58.31c-4.17-.23-8.34-.6-12.5-.93C389.19,209.45,389.1,209.33,389,209.27Z" />
        <path class="color-shadow"
            d="M444.37,159.33c-2.49,2.91-4.92,5.87-7.48,8.71-3.26,3.62-6.55,7.23-10,10.67-1.93,1.93-4.19,3.53-6.3,5.27-.1.08-.3.05-.66.11a151.78,151.78,0,0,0,29.22-43.53c1.08,1.67,2.23,3.4,3.32,5.16a1.1,1.1,0,0,1,0,.92c-.95,1.78-1.95,3.55-2.93,5.32v-2.31l-.38-.06c-.24.52-.44,1-.71,1.55-1.29,2.28-2.61,4.55-3.86,6.86C444.38,158.35,443.57,158.76,444.37,159.33Z" />
        <path class="color-shadow-dark"
            d="M359.63,149c.4-.2.95-.68,1.19-.56,3.2,1.58,6.62,2.81,9,5.73a83.08,83.08,0,0,0,6.1,7c2.19,2.18,4.69,4,7,6.07,1.17,1,2.23,2.17,3.39,3.2,1.83,1.64,3.7,3.25,5.58,4.84,1,.83,1,1.39-.09,2.08-.63.4-1.36.62-2,1a3.14,3.14,0,0,0-.61.6l-1.1-1.11c-3.48-3.48-6.24-7.67-10.47-10.44a10.12,10.12,0,0,1-2.7-3.16,29.59,29.59,0,0,0-9.91-9.49c-1.93-1.17-3.72-2.47-4.59-4.68A4.8,4.8,0,0,0,359.63,149Z" />
        <path class="color-shadow"
            d="M364,190.54A37.15,37.15,0,0,0,367.5,193c3.06,1.7,6.19,3.29,9.3,4.93a1,1,0,0,1,.48.53l-14.95-3.32-.14.23c1.12.93,2.26,1.82,3.35,2.78a57.71,57.71,0,0,0,12.62,8.15c.31.16.52.53.77.81a50.63,50.63,0,0,1-13.08-5.44c-5.11-2.9-8.89-7.2-12.62-11.58a17.38,17.38,0,0,1-2.27-3.15c1.24.48,2.45,1.05,3.72,1.42,2.94.86,5.9,1.62,8.86,2.41C363.68,190.77,363.88,190.61,364,190.54Z" />
        <path class="color-shadow"
            d="M364.28,156.7c2,1.51,4,2.91,5.84,4.54,2.26,2,4.36,4.18,6.52,6.29,1.74,1.7,3.49,3.39,5.16,5.15,2.25,2.37,4.42,4.81,6.64,7.21a7.51,7.51,0,0,0,.79.69h0l.25.38h0l.26.25h0l.26.25h0c.5.87,1,1.73,1.52,2.59a3.11,3.11,0,0,1,.54,1.19c-7.6-5.31-14.4-11.56-21.25-17.73-.33-.65-.62-1.32-1-1.93-1.76-2.73-3.57-5.43-5.34-8.16A2.05,2.05,0,0,1,364.28,156.7Z" />
        <path class="color-shadow-dark"
            d="M393.73,185.33a48.47,48.47,0,0,0,5.89.54,53.49,53.49,0,0,0,7.24-.73c2.59-.42,5.14-1.08,7.72-1.6a10.74,10.74,0,0,1,2.62-.17c-1.82,2.76-3.78,5.43-7.35,5.63a69.42,69.42,0,0,1-10.4-.2C397.19,188.57,394.94,187.72,393.73,185.33Z" />
        <path class="color-shadow-dark"
            d="M389.24,180.57h0c1.81.13,3.63.34,5.44.37,7.62.14,15.22,0,22.73-1.55,1.32-.27,2.67-.41,4-.61h0c-.48.45-.9,1.18-1.46,1.32a89,89,0,0,1-15.49,2.56,65.31,65.31,0,0,1-12.35-.6,12.68,12.68,0,0,1-2.13-.64h0l-.26-.25h0l-.26-.25h0Z" />
        <path class="color-shadow-dark"
            d="M428.86,170.66c-.57-2.39,1.37-3.63,2.45-5.26,1.68-2.54,3.41-5.05,5-7.64,1.51-2.43,2.82-5,4.36-7.38a4.27,4.27,0,0,1,3.59-2c-2.57,3.95-5.09,7.93-7.73,11.83-2.22,3.26-4.58,6.42-6.88,9.62A9.48,9.48,0,0,1,428.86,170.66Z" />
        <path class="color-base"
            d="M364.28,156.7a2.05,2.05,0,0,0,.14.68c1.77,2.73,3.58,5.43,5.34,8.16.39.61.68,1.28,1,1.93-3.42-3-6.84-6-9.21-10,.11-.27.22-.55.34-.81.24-.55.49-1.09.74-1.64Z" />
        <path class="color-base"
            d="M444.37,159.33c-.8-.57,0-1,.2-1.33,1.25-2.31,2.57-4.58,3.86-6.86.27-.5.47-1,.71-1.55l.38.06V152l-4.81,6.75A6.14,6.14,0,0,0,444.37,159.33Z" />
        <path class="color-shadow-dark" d="M453.12,142.5l-3.73-5.32C451.49,137.09,453.62,140,453.12,142.5Z" />
        <path class="color-shadow-dark"
            d="M362.64,155c-.25.55-.5,1.09-.74,1.64-.12.26-.23.54-.34.81a4.07,4.07,0,0,1-.83-5.19Z" />
        <path class="color-shadow-dark" d="M355.56,145.43h-.4c.32-1.34.64-2.68.95-4l.44.06-.3,4Z" />
        <path class="color-shadow-dark" d="M357.81,148.93c1.73,1,2.07,2.12,1.24,4Z" />
        <polygon class="color-shadow" points="402.84 152.26 402.77 152.29 402.78 152.21 402.84 152.26" />
        <path class="color-shadow-dark" d="M421.41,178.79a.25.25,0,0,1,0-.09h.07l-.13.08Z" />
        <path class="color-shadow" d="M343,182.91l-.15.09.09-.15Z" />
        <path class="color-shadow" d="M438.6,195.5l.26,0-.14.15Z" />
        <path class="outline"
            d="M403.42,198.32a27.66,27.66,0,0,1-10.57-2.12,49.24,49.24,0,0,1-21.25-15.64c-1.92-2.35-3.92-4.64-5.88-6.95-.1-.11-.16-.25,0-.55,1.45,1.53,2.89,3.08,4.36,4.59,3.47,3.53,6.74,7.31,10.49,10.51a45,45,0,0,0,20.08,9.75c.47.1,1,.07,1.43.13S403,198.22,403.42,198.32Z" />
        <path class="outline"
            d="M455,162.27a4.88,4.88,0,0,1,.17,1.67c-1.16,4.51-3.93,8-7.24,11.05l-.28-.19c.43-.52.84-1,1.27-1.55a28.48,28.48,0,0,0,5.14-8.13,20,20,0,0,0,.66-2.8Z" />
        <path class="outline" d="M446.51,175.77l.86-.75.2.24-1,.65Z" />
        <path class="outline" d="M446.61,175.91l-.34.23.24-.37Z" />
        <path class="outline" d="M389.24,180.57l.25.38Z" />
        <path class="outline" d="M389.47,180.94l.26.25Z" />
        <path class="outline" d="M389.71,181.18l.26.25Z" />
    </g>
</svg>
