<svg id="img_70" data-name="img 70" xmlns="http://www.w3.org/2000/svg" viewBox="0 0 672 960">
    <g id="img_63_img" data-name="img 63 img">
        <path class="outline"
            d="M400.27,264.55l-.46.05-1.91-.2-.49-.08-1.28-.55-.39-.31-.19-1.61.05-1,.14-1,.2-1.44.06-1,.13-1.45.09-.48.66-4.8.11-1.18.05-.5.39-2.64.18-1.2.05-.48.17-1.2.1-1,.14-1,.11-.95.1-.73.15-1.18.05-.5.18-1.43,0-.49.45-3.58.05-.5.2-1.42.06-.5.17-1.18.12-.74.09-.71L400,227l.1-.72.15-1,.07-.48.07-.72.2-1.2,0-.48.23-1.67.06-.73.2-2.38.08-1.22c.09-.07.26-.15.26-.22,0-1.55.05-3.1,0-4.65,0-.06-.29-.13-.45-.2-14,.17-27.09-2.64-38.9-10.49-3.8-2.52-6.61-6-9.74-9.19a27,27,0,0,1-5.67-8.27c-1.47.42-2.9.85-4.34,1.25-.83.24-1.66.42-2.25-.46s-.16-1.48.27-2.21c2.21-3.65,4.55-7.25,6.52-11a39.42,39.42,0,0,0,3.93-11.24c1-5.45,2.06-10.87,3.15-16.3.22-1.09.7-2.12,1-3.2.56-2.19,2.19-3,4.19-3a42.26,42.26,0,0,1,7.47.51c7.18,1.37,14.33,2.9,21.46,4.5a23.76,23.76,0,0,0,14.17-.82,122.8,122.8,0,0,1,20.35-5.91,89.59,89.59,0,0,1,9.82-1.8c5-.42,10-.57,15-.51a8.46,8.46,0,0,1,6.76,3.78c.55.75.89,1.64,1.38,2.42a27.35,27.35,0,0,0,3.07,4.63,8.67,8.67,0,0,1,2.45,8.5c-1.15,5.3-.24,10,3.67,14.14,2.29,2.41,4,5.38,6,8.08a4.24,4.24,0,0,1,.49,3.65,4,4,0,0,1-3,3.21,49.68,49.68,0,0,0-5.05,1.46c-3,1.26-5.9,2.63-8.73,4.17s-5.76,3.44-8.64,5.14a9.91,9.91,0,0,1-2.36,1.15,7.57,7.57,0,0,0-3.26,2.1,56.16,56.16,0,0,1-17.44,11.81,44.71,44.71,0,0,1-8.3,2.12c-2.42.48-4.89.69-7.52,1v7l-.22,2.87,0,.49-.2,2.63-.09,1-.11,1.2-.1,1.44-.16,1.2-.07,1-.2,1.18-.07.5-.18.94-.12.74-.12.7-.14.74-.08.47-.15,1-.09,1-.13,1.21-.13,1.18-.13.74-.11.7-.11.74-.13.94-.08.5-.16.94-.07.5-.15.95,0,.73-.17,1.44-.16,1.2-.08.48-.11.72-.13,1-.16,1.2-.11.95-.06.49-.17.71-.07.49-.16.72-.17,1-.05.48-.15,1-.09.72-.18,1.44-.1.95-.05,1-.15,1.2-.12,1Zm-3.33-4.68,0,.37v1.29c.12.25.2.68.37.72.93.21,1.88.33,3,.5L400,261.5l0-1.57v-.3l.22-.91v-.51l.16-.94.11-1.19.19-1.59,0-.25.42-2,.23-.65,0-1.21V250l.3-3.63v0l.26-1.07.4-1.94.24-1.11.24-2.18,0-.39.27-1.88c0-.06,0-.12,0-.17.28-1.09-.15-2.26.41-3.3l0-.38,0-1v-.16l.47-2,.28-1.67-.26-.3.21-.46.46-1.83,0-.31v-1.62c.07-.33.14-.65.22-1l0-.42.15-.57.25-1.56c0-.43,0-.86,0-1.3v-.27l.2-3,0-.39-.21-1.21v-.17l.43-1.59v-1.15l.24-1.75-.09-.58-.15-1.59V205l0-.54h0c.7-.26.56-.63.13-1,0-.75,0-1.49.05-2.23l-.53-1.13.07-.38,0-.28c.15-.45.29-.9.44-1.36v-4.56c-.1-1.8-.19-3.6-.29-5.39l-.49,0c.12,1.75.23,3.5.35,5.25l-.25,2.32-.25.1-.08-.06-.05.09-.36,0-1.79-.38.59,1.56.06.7v1.18l0,.28.05.59,0,.86c0,.8,0,1.59,0,2.38l0,.55.2.94-.23.44v1.43l.06.31-.25.64-.18,1.93-.57.73v2.14l-.23,1,.46,1.45v.19c-.07.95-.15,1.9-.22,2.85v1.92a1.79,1.79,0,0,0,0,.23l-.16,2.47,0,1.36-.27,1v.44l-.27,1.26-.2,1c0,.36,0,.72,0,1.08l0,.33c-.14.48-.28,1-.41,1.46l0,.77-.09.91-.07.5.05.48,0,.47-.43,2.16.06.25-.3,1.65a1.48,1.48,0,0,0,0,.21l-.23,2.42v.24l-.4,1.22-.08.49v1.2l-.22.51,0,1.44,0,.24-.49,3.32v.22a3.65,3.65,0,0,0-.36.71c-.36,1.54-.68,3.09-1,4.63l-.24.59c-.13.76-.25,1.52-.38,2.28l-.14,1.45c0,.39,0,.77,0,1.16A.27.27,0,0,0,396.94,259.87Zm5.77-67.17,1.15.29v-1.21l0-.47c.22-.17.62-.33.63-.5,0-1.52,0-3,0-4.55l-.07,0,0,.23-1.52-.19-.91,3.31-.14.5c-.18.77-.34,1.54-.53,2.31-.15.59,0,1,.64,1.14l1.93,1.09.5.18.1-.29-.55-.14c-.12-1.25-1.09-1.16-1.95-1.23,0-.24.11-.47.16-.71Zm-17.56-13.18-.09-.12s0,.06,0,.07l.09,0a6.59,6.59,0,0,0,1.37,1c4.5,1.9,9.3,2.08,14.07,2.25,2.25.09,4.52-.33,6.78-.37,3.31-.05,6.25-1.31,9.54-2.62a10.77,10.77,0,0,0-1.85,0c-6.43,1.25-12.94,1.21-19.44,1.18a38.39,38.39,0,0,1-5.34-.48C388.57,180.26,386.87,179.85,385.15,179.52Zm53.45,16a13.55,13.55,0,0,1-1.52.29c-.67.06-1.34,0-2,0l3.35-1.74c2.57-.93,5.31-1.55,7.68-2.84,3.85-2.1,7.4-4.74,11.2-7,3.06-1.78,6.3-3.26,9.47-4.85a3.07,3.07,0,0,0,1.38-4.29c-1.8-3-3.74-6-5.5-9a27.65,27.65,0,0,1-2.4-5.18c-1-3-.87-6.2-.83-9.37a7.75,7.75,0,0,0-.95-3.86,31.94,31.94,0,0,0-3.47-4.15,48.92,48.92,0,0,1-2.68,5.71c-2.46,3.9-5.11,7.69-7.73,11.48-2.18,3.16-4.37,6.3-7.4,8.75s-6.28,5.18-9.43,7.77a2.37,2.37,0,0,1-.64.31l-15.82,6.5-1.2.17-.48.09-.72.15-.48.1-.72.14-.47.07c-.64.12-.78.5-.68,1.11.17,1.14.27,2.28.4,3.42l.06.47.17,1.21.11.71.13,1.45.14,2.87.11,5.05,0,3.79-.1,1.71-.66,3,.3,0,1.52-.08.71-.1.73-.15.47-.14,1.9-.68a28.11,28.11,0,0,0,9.77-1.91,57.49,57.49,0,0,0,12-7,48.94,48.94,0,0,0,4.45-4l.14-.15ZM343,182.91l5-1.26c.08.21.1.5.26.6,1.78,1.2,3.6,2.36,5.39,3.55,3.21,2.15,7,2.81,10.55,4.08,1.57.56,3.43.41,4.64,1.87-1-.16-2-.24-2.94-.48-4.36-1.11-8.85-1.73-13-3.61-.64-.28-1.3-.48-2-.72a21.4,21.4,0,0,0,2.42,3.28c3.67,4.34,7.43,8.55,12.47,11.41a51,51,0,0,0,13.08,5.45c1.18.35,2.35.77,3.55,1,2.33.51,4.67.94,7,1.4l1.1.18,9.95.55.48-.05.55-.92.23-1.9.1-.74.13-.95.06-1,.16-1.43c-.09-2.5-.21-5-.24-7.49a1.18,1.18,0,0,0-1-1.25c-1.12-.36-1.45-1-.82-2.07l.27-.64.19-.8.17-.47,1.06-5.22h-2.29c-2.75-.67-5.51-1.28-8.24-2a15.67,15.67,0,0,1-4.79-1.74c-4.07-2.82-8.07-5.75-11.88-8.92-4.14-3.45-8.05-7.17-12-10.85a23.26,23.26,0,0,1-5.51-8.47,22.76,22.76,0,0,1-1.63-8.86,1.88,1.88,0,0,0-.36.72c-1,4.6-1.95,9.19-2.85,13.8a56.72,56.72,0,0,1-5.64,15.72c-1.4,2.64-2.52,5.42-3.77,8.14l-.09.15Zm65.89-3.08c1.89-.26,3.58-.44,5.25-.73,3.82-.65,7.76-.7,11.12-3.15s7.52-4.1,10.4-7.39c2.61-3,5.29-5.87,7.72-9,3-3.8,5.82-7.72,8.58-11.68a9.11,9.11,0,0,0,1.21-6.8,6.13,6.13,0,0,0-5.94-5,86.2,86.2,0,0,0-17.22.55c-3.94.6-7.87,1.32-11.79,2.06a68.43,68.43,0,0,0-12.73,3.21c-.86.35-1.18.74-1.1,1.65.18,2.25.24,4.52.44,6.78.38,4.39.66,8.8,1.27,13.17C406.83,168.9,407.89,174.25,408.86,179.83Zm-6.24-36.51a1.72,1.72,0,0,0-.39,0c-.38.15-.76.28-1.11.45-4.15,2.08-8.5,2-12.87,1.08-5.12-1-10.21-2.25-15.32-3.37a55.38,55.38,0,0,0-6.44-1.34,52,52,0,0,0-7.17,0,2.2,2.2,0,0,0-1.47.91c-1.11,1.56-.73,3.32-.54,5.08a21.15,21.15,0,0,0,6.32,13.47c5.5,5.29,11.1,10.47,16.7,15.67,1,1,2,2.23,3.72,2,.24,0,.53.16.79.26A30.41,30.41,0,0,0,395.35,180c3.32.1,6.64,0,9.95,0a8.37,8.37,0,0,0,1.6-.32c-.35-3.26-.68-6.42-1-9.59,0-.28-.18-.77-.32-.79-1.29-.15-1.32-1.3-1.69-2.11-.76-1.69-.48-3.41,0-5.43l1,2.87.27-.08Q403.9,154,402.62,143.32Zm2.26,49.19-.2-.07-.43.87.33.13Zm-1.44-7.81-.13.18.19.05s.07-.07.06-.09A1.49,1.49,0,0,0,403.44,184.7Z" />
        <path class="outline"
            d="M401,211.4c.16.07.45.14.45.2,0,1.55,0,3.1,0,4.65,0,.07-.17.15-.26.22,0-1.31,0-2.62,0-3.94A7.58,7.58,0,0,0,401,211.4Z" />
        <path class="outline" d="M399.15,232.81l-.45,3.58Z" />
        <path class="outline" d="M406.7,220.53l.22-2.87Z" />
        <path class="outline" d="M406.47,223.65c.07-.88.13-1.75.2-2.63Z" />
        <path class="outline" d="M397.43,246.47l-.39,2.64Z" />
        <path class="outline" d="M401.08,217.69l-.2,2.38Z" />
        <path class="outline" d="M397.9,264.4l1.91.2Z" />
        <path class="outline" d="M400.82,220.8l-.23,1.67Z" />
        <path class="outline" d="M395.55,261.85l.19,1.61Z" />
        <path class="outline" d="M403.38,247.18l.17-1.44Z" />
        <path class="outline" d="M398.66,236.88l-.18,1.43Z" />
        <path class="outline" d="M399.4,230.89l-.2,1.42Z" />
        <path class="outline" d="M406,228.46l.16-1.2Z" />
        <path class="outline" d="M405.74,230.6l.2-1.18Z" />
        <path class="outline" d="M397,249.61l-.11,1.18Z" />
        <path class="outline" d="M399.63,229.21l-.17,1.18Z" />
        <path class="outline" d="M406.27,225.82l.11-1.2Z" />
        <path class="outline" d="M401.23,262.78l.15-1.2Z" />
        <path class="outline" d="M396.13,263.77l1.28.55Z" />
        <path class="outline" d="M400.27,264.55l.84-.81Z" />
        <path class="outline" d="M400.55,223l-.2,1.2Z" />
        <path class="outline" d="M404.53,239l.13-1.18Z" />
        <path class="outline" d="M398.43,238.81l-.15,1.18Z" />
        <path class="outline" d="M397.93,242.64l-.1,1Z" />
        <path class="outline" d="M395.74,259.91l-.14,1Z" />
        <path class="outline" d="M404.05,242.12l.13-.94Z" />
        <path class="outline" d="M396,257.52l-.06,1Z" />
        <path class="outline" d="M401.43,260.61l.1-.95Z" />
        <path class="outline" d="M405.49,232l.18-.94Z" />
        <path class="outline" d="M402.63,252.69l.11-.95Z" />
        <path class="outline" d="M404.79,236.61l.09-1Z" />
        <path class="outline" d="M403.81,243.56l.16-.94Z" />
        <path class="outline" d="M402.9,250.54l.13-1Z" />
        <path class="outline" d="M403.59,245l.15-.95Z" />
        <path class="outline" d="M398.18,240.72l-.11.95Z" />
        <path class="outline" d="M404.29,240.44l.11-.7Z" />
        <path class="outline" d="M401.71,258.22l.09-.72Z" />
        <path class="outline" d="M402.4,253.89l.17-.71Z" />
        <path class="outline" d="M400.06,226.31l-.1.72Z" />
        <path class="outline" d="M399.84,227.76l-.09.71Z" />
        <path class="outline" d="M402.17,255.1l.16-.72Z" />
        <path class="outline" d="M405.25,233.48l.12-.7Z" />
        <path class="outline" d="M403.14,248.86l.08-.48Z" />
        <path class="outline" d="M405,234.69l.08-.47Z" />
        <path class="outline" d="M397.66,244.79l-.05.48Z" />
        <path class="outline" d="M400.28,224.87l-.07.48Z" />
        <path class="outline" d="M396.22,255.59l-.09.48Z" />
        <path class="outline" d="M402,256.54l.05-.48Z" />
        <path class="color-shadow"
            d="M408.86,179.83c-1-5.58-2-10.93-2.79-16.31-.61-4.37-.89-8.78-1.27-13.17-.2-2.26-.26-4.53-.44-6.78-.08-.91.24-1.3,1.1-1.65a68.43,68.43,0,0,1,12.73-3.21c3.92-.74,7.85-1.46,11.79-2.06a86.2,86.2,0,0,1,17.22-.55,6.13,6.13,0,0,1,5.94,5,9.11,9.11,0,0,1-1.21,6.8c-2.76,4-5.6,7.88-8.58,11.68-2.43,3.1-5.11,6-7.72,9-2.88,3.29-7,4.89-10.4,7.39s-7.3,2.5-11.12,3.15C412.44,179.39,410.75,179.57,408.86,179.83Z" />
        <path class="color-shadow"
            d="M402.62,143.32q1.28,10.65,2.54,21.25l-.27.08-1-2.87c-.53,2-.81,3.74,0,5.43.37.81.4,2,1.69,2.11.14,0,.29.51.32.79.36,3.17.69,6.33,1,9.59a8.37,8.37,0,0,1-1.6.32c-3.31,0-6.63.08-9.95,0a30.41,30.41,0,0,1-10.51-2.56c-.26-.1-.55-.3-.79-.26-1.74.28-2.68-1-3.72-2-5.6-5.2-11.2-10.38-16.7-15.67a21.15,21.15,0,0,1-6.32-13.47c-.19-1.76-.57-3.52.54-5.08a2.2,2.2,0,0,1,1.47-.91,52,52,0,0,1,7.17,0,55.38,55.38,0,0,1,6.44,1.34c5.11,1.12,10.2,2.32,15.32,3.37,4.37.9,8.72,1,12.87-1.08.35-.17.73-.3,1.11-.45A1.72,1.72,0,0,1,402.62,143.32Z" />
        <path class="color-base"
            d="M389.48,209.51c-2.33-.46-4.67-.89-7-1.4-1.2-.26-2.37-.68-3.55-1-.19-.23-.33-.54-.57-.67a63,63,0,0,1-12.55-8c-1.19-1-2.41-2-3.61-3l.14-.26,17.45,4a3.87,3.87,0,0,0-.38-.4c-2.67-1.95-5.31-3.93-8-5.81a13.26,13.26,0,0,0-2.53-1.07c-1.21-1.46-3.07-1.31-4.64-1.87-3.55-1.27-7.34-1.93-10.55-4.08-1.79-1.19-3.61-2.35-5.39-3.55-.16-.1-.18-.39-.26-.6.39-1.2.81-2.39,1.18-3.6,1.65-5.24,3.32-10.47,4.93-15.72.54-1.76.95-3.56,1.47-5.53.27.35.4.49.5.65a24.07,24.07,0,0,0,2.78,4c4.1,3.89,8.16,7.88,12.6,11.36s9.38,6.56,14.18,9.69c3.39,2.22,7.33,2.78,11.26,3.24a10.87,10.87,0,0,0,2.67-.37h2.29c-.37,1.82-.72,3.52-1.06,5.22l-.17.47c-.06.27-.13.53-.19.8l-.27.64c-.63,1.05-.3,1.71.82,2.07a1.18,1.18,0,0,1,1,1.25c0,2.5.15,5,.24,7.49l-.16,1.43-.06,1-.13.95c0,.25-.07.49-.1.74-.08.63-.16,1.27-.23,1.9l-.55.92-.48.05-9.95-.55Z" />
        <path class="color-base"
            d="M410.14,209.3l-.73.15-.71.1-1.52.08.36-3c0-.57.07-1.14.1-1.71,0-1.26,0-2.53,0-3.79,0-1.68-.07-3.37-.11-5.05-.05-1-.1-1.91-.14-2.87-.05-.48-.09-1-.13-1.45,0-.23-.08-.47-.11-.71l-.17-1.21-.06-.47c-.13-1.14-.23-2.28-.4-3.42-.1-.61,0-1,.68-1.11l.47-.07.72-.13.48-.11.72-.15.48-.09,1.2-.17c.32.08.67.28.94.2a31.55,31.55,0,0,0,3.41-1.11c3.13-1.27,6.28-2.53,9.37-3.93a45.3,45.3,0,0,0,13.85-9c3.93-3.95,7.67-8.09,11.48-12.17.81-.87,1.58-1.79,2.32-2.72s1.63-2.19,2.63-3.54a5.23,5.23,0,0,1,.35,1.08,29.48,29.48,0,0,0,.17,3.89,25.88,25.88,0,0,0,4.63,10.13c1.59,2.27,3.81,4.23,4.07,7.31a1.57,1.57,0,0,1-.95,1.86c-2.64,1.4-5.27,2.82-7.81,4.39-2.06,1.27-4,2.79-6,4.16-1.69,1.15-3.42,2.24-5.13,3.36l.18.36,1.84-.54.14.28q-2.77,2-5.54,3.91c-1,.68-1.91,1.38-2.86,2.07l-3.35,1.74a10.39,10.39,0,0,0-1.23.4c-1.89.88-3.76,1.81-5.66,2.69s-4.42,1.08-6.16,2.71a16.64,16.64,0,0,1-1.9,1.44c-2.48,1.71-5,3.4-7.47,5.11-.08.05-.1.2-.15.31l-1.9.68Z" />
        <path class="color-shadow"
            d="M438.43,194.08c.95-.69,1.9-1.39,2.86-2.07q2.76-2,5.54-3.91l-.14-.28-1.84.54-.18-.36c1.71-1.12,3.44-2.21,5.13-3.36,2-1.37,3.91-2.89,6-4.16,2.54-1.57,5.17-3,7.81-4.39a1.57,1.57,0,0,0,.95-1.86c-.26-3.08-2.48-5-4.07-7.31a25.88,25.88,0,0,1-4.63-10.13,29.48,29.48,0,0,1-.17-3.89,5.23,5.23,0,0,0-.35-1.08c-1,1.35-1.79,2.47-2.63,3.54s-1.51,1.85-2.32,2.72c-3.81,4.08-7.55,8.22-11.48,12.17a45.3,45.3,0,0,1-13.85,9c-3.09,1.4-6.24,2.66-9.37,3.93a31.55,31.55,0,0,1-3.41,1.11c-.27.08-.62-.12-.94-.2l15.82-6.5a2.37,2.37,0,0,0,.64-.31c3.15-2.59,6.26-5.21,9.43-7.77s5.22-5.59,7.4-8.75c2.62-3.79,5.27-7.58,7.73-11.48a48.92,48.92,0,0,0,2.68-5.71,31.94,31.94,0,0,1,3.47,4.15,7.75,7.75,0,0,1,.95,3.86c0,3.17-.16,6.34.83,9.37a27.65,27.65,0,0,0,2.4,5.18c1.76,3,3.7,6,5.5,9a3.07,3.07,0,0,1-1.38,4.29c-3.17,1.59-6.41,3.07-9.47,4.85-3.8,2.21-7.35,4.85-11.2,7C443.74,192.53,441,193.15,438.43,194.08Z" />
        <path class="color-shadow"
            d="M399.58,185.34a10.87,10.87,0,0,1-2.67.37c-3.93-.46-7.87-1-11.26-3.24-4.8-3.13-9.69-6.17-14.18-9.69s-8.5-7.47-12.6-11.36a24.07,24.07,0,0,1-2.78-4c-.1-.16-.23-.3-.5-.65-.52,2-.93,3.77-1.47,5.53-1.61,5.25-3.28,10.48-4.93,15.72-.37,1.21-.79,2.4-1.18,3.6l-5,1.26-.06-.06c1.25-2.72,2.37-5.5,3.77-8.14A56.72,56.72,0,0,0,352.32,159c.9-4.61,1.89-9.2,2.85-13.8a1.88,1.88,0,0,1,.36-.72,22.76,22.76,0,0,0,1.63,8.86,23.26,23.26,0,0,0,5.51,8.47c3.95,3.68,7.86,7.4,12,10.85,3.81,3.17,7.81,6.1,11.88,8.92a15.67,15.67,0,0,0,4.79,1.74C394.07,184.06,396.83,184.67,399.58,185.34Z" />
        <path class="color-shadow"
            d="M368.85,191.75a13.26,13.26,0,0,1,2.53,1.07c2.72,1.88,5.36,3.86,8,5.81a3.87,3.87,0,0,1,.38.4l-17.45-4-.14.26c1.2,1,2.42,2,3.61,3a63,63,0,0,0,12.55,8c.24.13.38.44.57.67a51,51,0,0,1-13.08-5.45c-5-2.86-8.8-7.07-12.47-11.41a21.4,21.4,0,0,1-2.42-3.28c.66.24,1.32.44,2,.72,4.14,1.88,8.63,2.5,13,3.61C366.87,191.51,367.87,191.59,368.85,191.75Z" />
        <path class="color-shadow"
            d="M412.51,208.48c.05-.11.07-.26.15-.31,2.49-1.71,5-3.4,7.47-5.11a16.64,16.64,0,0,0,1.9-1.44c1.74-1.63,4.13-1.77,6.16-2.71s3.77-1.81,5.66-2.69a10.39,10.39,0,0,1,1.23-.4c.66,0,1.33,0,2,0a13.55,13.55,0,0,0,1.52-.29l.12.12a48.94,48.94,0,0,1-4.45,4,57.49,57.49,0,0,1-12,7A28.11,28.11,0,0,1,412.51,208.48Z" />
        <path class="color-shadow"
            d="M385.15,179.52c1.72.33,3.42.74,5.15,1a38.39,38.39,0,0,0,5.34.48c6.5,0,13,.07,19.44-1.18a10.77,10.77,0,0,1,1.85,0c-3.29,1.31-6.23,2.57-9.54,2.62-2.26,0-4.53.46-6.78.37-4.77-.17-9.57-.35-14.07-2.25a6.59,6.59,0,0,1-1.37-1Z" />
        <path class="color-base"
            d="M401.75,246.36l-.3,3.63v.4l0,1.21-1,.59.73.06-.42,2-3.07-.06c.34-1.54.66-3.09,1-4.63a3.65,3.65,0,0,1,.36-.71H401v-.22h-1.88c.16-1.11.33-2.21.49-3.32l1.69,0,.74,0c-.09.36-.17.71-.26,1.07l-.09,0Z" />
        <path class="color-shadow"
            d="M405.57,215l.21,1.21-.48.15.46.24c-.07,1-.14,2-.2,3l-1-.16.56-1.49s.06-.05.07-.08a.32.32,0,0,0,0-.1l-2.45-.12.22-2.85h2v-.19h-2l-.46-1.45,3.54.07-.43,1.59-.16.1Z" />
        <path class="color-base"
            d="M402,193.54c-.66-.13-.79-.55-.64-1.14.19-.77.35-1.54.53-2.31l.14-.5.91-3.31.63,1.34.89-1.15,0-.23.07,0c0,1.52,0,3,0,4.55,0,.17-.41.33-.63.5l-1.51-.56-.24,1.69-.16.71Z" />
        <path class="color-base"
            d="M400.42,257.27l-.16.94c-.68,0-1.36,0-2,0-.94.09-1.22-.36-1.15-1.19s.25-1.52.38-2.28l3.26-.28-.19,1.59-2,.34C399,257,400.26,255.87,400.42,257.27Z" />
        <path class="color-base"
            d="M400.25,258.72c-.07.3-.15.61-.22.91l-.17.1.17.2c0,.52,0,1.05,0,1.57l-3.06,0c0-.43,0-.86,0-1.29l.21-.37-.19-.21,0-1.16Zm-.81,1.09,0-.37-1.41.09,0,.28Z" />
        <path class="color-base"
            d="M399.8,243.11v-1.2l.08-.49.4-1.22.71,0,.48-.16,1.41,0-.24,2.18a1.66,1.66,0,0,1-1.9.85A7.37,7.37,0,0,0,399.8,243.11Z" />
        <path class="color-base" d="M406.25,210.31l-.24,1.75-3.32.07V210Z" />
        <path class="color-shadow"
            d="M403.59,234.34c-.56,1-.13,2.21-.41,3.3l-1-.25.25-1.38-1.62-.33-.06-.25,1.44-1.17-1-1c0-.16,0-.32,0-.47h.52l1.91.2,0,1-1,.08v.13Z" />
        <path class="color-base" d="M403.64,203v-2.38l2.59.59c0,.74,0,1.48-.05,2.23Z" />
        <path class="color-shadow" d="M401.47,240.06l-.48.16-.7-.26c.08-.81.15-1.61.23-2.42l2.65.27-.27,1.88Z" />
        <path class="color-base"
            d="M402.48,223.61c0-.45,0-.91,0-1.36l1.34-.2.13-.3c-1.31-.2-1.07-1.1-1.06-1.89h1.9l-.47,3.32-1.56.46Z" />
        <path class="color-base"
            d="M403.45,207.33c.08-.21.17-.42.25-.64l0,0,.38.18H405v-.34l-1.36-.11V205L406,205v1.59l-.39.95h-1.27Z" />
        <path class="color-shadow" d="M403.45,207.33l.9.23,1.66.58.15,1.59-2.89-.47Z" />
        <path class="color-shadow"
            d="M406.24,198.08l-.44,1.36-1.06-.3-.07.25,1.11.33c0,.13,0,.26-.07.38l-2-.32-.05-.59.56,0V199l-.55-.1c0-.39,0-.78,0-1.18h.27Z" />
        <path class="color-shadow" d="M402,245.31l-.74,0-1.71-.21c0-.48,0-1,0-1.44l2.83-.25Z" />
        <path class="color-shadow" d="M404.14,228.9l.26.3a2.06,2.06,0,0,1-3.09.94l.41-1.46Z" />
        <path class="color-base" d="M405.08,217.93l-.56,1.49-1.82.13V218Z" />
        <path class="outline" d="M402.69,212.13l3.32-.07c0,.38,0,.77,0,1.15l-3.54-.07Z" />
        <path class="color-base" d="M401.74,232.79h-.52c0-.16,0-.32-.05-.48s.05-.33.07-.5l.09-.91,1.58.06v1.76Z" />
        <path class="outline" d="M405.8,193.42c-.12-1.75-.23-3.5-.35-5.25l.49,0c.1,1.79.19,3.59.29,5.39Z" />
        <path class="color-base" d="M401.77,228.35l0-1.08,1.91-.56-.25,1.66Z" />
        <path class="outline"
            d="M397,261.53l3.06,0,.27,1.25c-1.08-.17-2-.29-3-.5C397.15,262.21,397.07,261.78,397,261.53Z" />
        <path class="color-base" d="M400.83,235.68l1.62.33-.25,1.38-1.67-.06Z" />
        <path class="color-shadow" d="M402.48,223.61l.32,0,2.27.07c-.08.33-.15.65-.22,1l-2.64-.06Z" />
        <path class="color-shadow" d="M405.8,193.42l.43.1v4.11l-.67.05v-1.94Z" />
        <path class="color-base" d="M405.55,195.74c0,.65,0,1.29,0,1.94l-1.62,0h-.27l-.06-.7,1.2-1.18.36,0h.06l.07,0Z" />
        <path class="color-shadow" d="M404.36,223.17l.47-3.32h.72c0,.44,0,.87,0,1.3s-.16,1-.25,1.56l-.15.56Z" />
        <path class="color-base" d="M401.93,226.32l.27-1.26,1.67-.14v1.36Z" />
        <path class="color-shadow" d="M402.91,232.73V231l1.21-.1c-.16.65-.31,1.31-.47,2Z" />
        <path class="outline"
            d="M404.12,230.87l-1.21.1-1.58-.06c0-.26,0-.51,0-.77a2.06,2.06,0,0,0,3.09-.94C404.3,229.75,404.21,230.31,404.12,230.87Z" />
        <path class="outline" d="M401.2,233.27l1,1-1.44,1.17C400.91,234.71,401.05,234,401.2,233.27Z" />
        <path class="color-shadow" d="M403.39,228.37l.25-1.66,1.17-.1c-.15.61-.3,1.22-.46,1.83Z" />
        <path class="outline" d="M403.27,209.26l2.89.47.09.58L402.7,210Z" />
        <path class="outline" d="M403.69,199.78l2,.32c.17.38.35.75.53,1.13l-2.59-.59Z" />
        <path class="color-shadow" d="M403.87,204.51c-.07-.32-.13-.63-.2-.94.88.07,2-.37,2.39.91h0Z" />
        <path class="color-shadow" d="M402.93,219.86c0,.79-.25,1.69,1.06,1.89l-.13.3-1.34.2c.05-.83.11-1.65.16-2.47Z" />
        <path class="outline" d="M407.68,201.12c0,1.26,0,2.53,0,3.79C407.65,203.65,407.67,202.38,407.68,201.12Z" />
        <path class="outline" d="M404.41,186.47l-.89,1.15-.63-1.34Z" />
        <path class="color-shadow" d="M402,193.54l0-.39c.86.07,1.83,0,1.95,1.23l-.05.25Z" />
        <path class="color-shadow" d="M404.81,195.85l-1.2,1.18-.59-1.56Z" />
        <path class="color-base" d="M403.86,191.78V193l-1.15-.29v-1.32Z" />
        <path class="outline"
            d="M406.06,204.48c-.43-1.28-1.51-.84-2.39-.91l0-.55,2.55.44C406.62,203.85,406.76,204.22,406.06,204.48Z" />
        <path class="outline" d="M404.81,226.61l-1.17.1-1.91.56.2-1,1.94,0,1,0Z" />
        <path class="outline" d="M403.86,191.78l-1.15-.4v1.32l-.57-.26c.07-.53.15-1.05.24-1.69l1.51.56Z" />
        <path class="color-shadow" d="M404.84,226.3l-1,0v-1.36l1-.08Z" />
        <path class="outline" d="M407.54,206.62l-.36,3-.3,0Z" />
        <path class="outline" d="M407.43,193.2c0,1,.09,1.91.14,2.87C407.52,195.11,407.47,194.16,407.43,193.2Z" />
        <path class="outline"
            d="M400.25,258.72l-3.31-.22c0-.48.09-1,.14-1.45-.07.83.21,1.28,1.15,1.19.67-.07,1.35,0,2,0Z" />
        <path class="outline" d="M402.4,243.37l-2.83.25.23-.51a7.37,7.37,0,0,1,.94,0,1.66,1.66,0,0,0,1.9-.85Z" />
        <path class="outline" d="M403.87,204.51l2.18,0,0,.54-2.37-.07Z" />
        <path class="outline" d="M406,208.14l-1.66-.58h1.27l.39-.95Z" />
        <path class="outline" d="M400.42,257.27c-.16-1.4-1.38-.32-1.93-.85l2-.34Z" />
        <path class="outline" d="M400.72,254.49l-3.26.28.24-.59,3.07.06Z" />
        <path class="outline" d="M402.93,219.86l-.25-.08a1.79,1.79,0,0,1,0-.23l1.82-.13,1,.16v.27h-2.62Z" />
        <path class="outline" d="M404.36,223.17l.75.1c0,.15,0,.29,0,.43l-2.27-.07Z" />
        <path class="outline" d="M404.85,224.84l-1,.08-1.67.14v-.44l2.64.06Z" />
        <path class="outline" d="M401.56,209.27c.07-.63.15-1.27.23-1.9C401.71,208,401.63,208.64,401.56,209.27Z" />
        <path class="outline" d="M405.08,217.93l-2.37,0v-.33l2.45.12a.32.32,0,0,1,0,.1S405.1,217.9,405.08,217.93Z" />
        <path class="outline"
            d="M400.53,237.33l1.67.06,1,.25c0,.05,0,.11,0,.17l-2.65-.27A1.48,1.48,0,0,1,400.53,237.33Z" />
        <path class="outline" d="M403.94,197.73l1.62,0,.67-.05v.45Z" />
        <path class="outline" d="M403.39,228.37l1,.07-.21.46-2.42-.22,0-.33Z" />
        <path class="outline" d="M399.08,248.62H401v.22h-1.89Z" />
        <path class="outline" d="M405.26,222.71c.09-.52.17-1,.25-1.56C405.43,221.67,405.35,222.19,405.26,222.71Z" />
        <path class="outline" d="M402.08,204.71l.16-1.43Z" />
        <path class="outline" d="M403.64,206.38l1.36.11v.34h-.88l-.38-.18,0,0Z" />
        <path class="outline" d="M404.88,192.51l-.3.93-.33-.13.43-.87Z" />
        <path class="outline" d="M402.92,214.59h2v.19h-2Z" />
        <path class="outline" d="M401.89,206.63l.13-.95C402,206,401.93,206.32,401.89,206.63Z" />
        <path class="outline" d="M389.48,209.51l1.1.18Z" />
        <path class="outline" d="M402.91,232.73l.74.1V233l-1.91-.2Z" />
        <path class="outline" d="M405.78,199.72l-1.11-.33.07-.25,1.06.3Z" />
        <path class="outline" d="M399.55,245.06l1.71.21-1.69,0Z" />
        <path class="outline" d="M408.7,209.55l.71-.1Z" />
        <path class="outline" d="M407.19,191c0,.24.07.48.11.71C407.26,191.52,407.22,191.28,407.19,191Z" />
        <path class="outline" d="M403.88,194.63l.05-.25.55.14-.1.29Z" />
        <path class="outline" d="M401.47,240.06l1.43-.37,0,.39Z" />
        <path class="outline" d="M401.19,252.25l-.73-.06,1-.59Z" />
        <path class="outline" d="M403.59,234.34l-.92-.17V234l1-.08Z" />
        <path class="outline" d="M410.11,184.28l-.48.09Z" />
        <path class="outline" d="M400.64,191l.17-.47Z" />
        <path class="outline" d="M400.18,192.47l.27-.64Z" />
        <path class="outline" d="M407,189.36l.06.47Z" />
        <path class="outline" d="M407.71,184.76l-.47.07Z" />
        <path class="outline" d="M399.88,241.42l-.08.49Z" />
        <path class="outline" d="M410.14,209.3l.47-.14Z" />
        <path class="color-shadow" d="M402,189.59l-.14.5Z" />
        <path class="color-shadow" d="M401.24,231.82c0,.17,0,.33-.07.5C401.2,232.15,401.22,232,401.24,231.82Z" />
        <path class="outline" d="M408.91,184.52l-.48.11Z" />
        <path class="outline" d="M400.53,210.24l.48-.05Z" />
        <path class="outline" d="M403.66,198.91l.55.1v.15l-.56,0Z" />
        <path class="outline" d="M400.29,240l.7.26-.71,0Z" />
        <path class="outline" d="M403.44,184.7a1.49,1.49,0,0,1,.12.14s0,.09-.06.09l-.19-.05Z" />
        <path class="outline" d="M401.75,246.36h-.1l.09,0Z" />
        <path class="outline" d="M397.17,259.87l-.21.37,0-.37.11,0Z" />
        <path class="outline" d="M405.76,216.57l-.46-.24.48-.15Z" />
        <polygon class="color-shadow" points="405.3 195.84 405.24 195.87 405.17 195.87 405.22 195.78 405.3 195.84" />
        <path class="outline" d="M401.45,250.39v0Z" />
        <path class="color-shadow" d="M438.6,195.5l.26,0-.14.15Z" />
        <path class="color-shadow" d="M343,182.91l-.15.09.09-.15Z" />
        <path class="outline" d="M405.57,215l-.16-.07.16-.1Z" />
        <path class="color-shadow" d="M397.17,259.87l-.12,0-.11,0a.27.27,0,0,1,0-.21Z" />
        <path class="outline" d="M400,259.93l-.17-.2.17-.1Z" />
        <path class="color-shadow" d="M385.17,179.5l-.09,0s0,0,0-.07l.09.12Z" />
        <path class="color-shadow" d="M399.44,259.81H398l0-.28,1.41-.09Z" />
        <path class="outline" d="M403.73,206.65l.38.18Z" />
    </g>
</svg>
