<svg id="Crop_Classic" data-name="Crop Classic" xmlns="http://www.w3.org/2000/svg" viewBox="0 0 672 960">
    <g>
        <path class="color-shadow"
            d="M477.48,277.39l-.19,1a11.75,11.75,0,0,0-.82,1.72,60.55,60.55,0,0,0-1.68,10.09c-.17,1.4-.1,2.83-.27,4.24-.15,1.26-.54,2.49-.72,3.75-.48,3.31-.82,6.65-1.37,9.95s-1.29,6.49-1.93,9.73c-.36,1.88-.6,3.78-1.05,5.64-.52,2.12-1.19,4.22-1.83,6.32a33.35,33.35,0,0,1-2,5.88,9.65,9.65,0,0,0-.83,5.88c.27,2.53.81,5,.13,7.59a4.91,4.91,0,0,0,.13,2.94,10.25,10.25,0,0,1,.25,5.43c0,.25-.41.68-.58.66-1.33-.15-2.65-.39-4-.61.08-.5.19-1,.24-1.51.12-1.11.25-2.22.28-3.33a78.2,78.2,0,0,0,.12-8.24,20.75,20.75,0,0,1,.44-7.33c1.32-4.49,2.61-9,3.94-13.48,1.42-4.79,1.85-9.74,2.43-14.66.32-2.72.74-5.42,1.08-8.14.21-1.65.42-3.3.54-5a38.23,38.23,0,0,1,.12-4c.73-4.1,1.66-8.17,2.41-12.27.41-2.25.66-4.54.87-6.83.24-2.59.32-5.2.53-7.8.19-2.32.46-4.63.69-6.95.12-1.21.14-2.43.35-3.62.28-1.59.76-3.16,1.05-4.75a31.39,31.39,0,0,1,2.77-7.57,73.85,73.85,0,0,0,3-6.75,45.48,45.48,0,0,0,1.44-6.26c1-4.87,1.67-9.8,3.33-14.51,1.17-3.3,2.41-6.58,3.63-9.86a4,4,0,0,0-.91-3.53c-2.48-1.79-5-3.58-7.38-5.46-3.24-2.51-6.43-5.07-9.6-7.67a2.47,2.47,0,0,0-3-.2c-1.54.74-3.14,1.38-4.65,2.17q-7.12,3.68-14.21,7.45c-3.45,1.83-6.87,3.71-10.31,5.55a11.43,11.43,0,0,0-1.83.87c-2.86,2.38-6.32,3.73-9.59,5.37a122.47,122.47,0,0,1-11.45,4.81,40.73,40.73,0,0,1-12.89,2.81c-2.42.09-4.84,0-7.26,0a4.66,4.66,0,0,1-.82-.13c-1.85-.27-3.7-.48-5.53-.84-3-.57-5.94-1.11-8.83-1.93-1.58-.45-2.94-1.58-4.5-2.18-4.39-1.69-8.21-4.39-12.21-6.75-3-1.8-5.88-3.95-8.78-6a43.71,43.71,0,0,1-3.59-2.75,27.94,27.94,0,0,1-6.17-7.72,1.78,1.78,0,0,0-2.06-1c-3.94.49-7.87,1-11.82,1.41-4.23.4-8.47.79-12.72.93a70.27,70.27,0,0,0-10.35.76c-3.7.68-7.42,1.29-11.14,1.89-.82.13-1,.62-1.13,1.3s-.18,1.5-.24,2.25c-.33,3.68-.71,7.36-.95,11s-.38,7.52-.48,11.28c0,1.63.17,3.26.21,4.89.1,4,.26,7.9.23,11.85A44.59,44.59,0,0,0,297.46,246c1.52,6.47,4.84,12,9,17.11a40.27,40.27,0,0,1,6,9.3,13,13,0,0,1,1.22,5.43,6,6,0,0,0,.54,2.77c1,1.88,2.15,3.63,3.19,5.47A68.08,68.08,0,0,1,323,299c.84,2.62,1.54,5.28,2.5,7.85,1.35,3.56,2.87,7.06,4.33,10.59.68,1.65,1.31,3.33,2.06,5,1.21,2.65,2.56,5.24,3.73,7.9s2.42,5.66,3.51,8.54a19,19,0,0,1,1.34,4.79c.28,2.89.2,5.81.31,8.72,0,1.11.16,2.22.28,3.33.08.78,0,1.86.41,2.27s1.55.31,2.36.39c2.61.24,5.22.6,7.83.64s5.08-.35,7.62-.39,5,.22,7.41.17c3.1-.06,6.2-.33,9.3-.44,2-.07,4.09.06,6.12,0,3.29-.17,6.58-.49,9.87-.67.95-.05,1.9.21,2.85.2a134.07,134.07,0,0,0,14.59-.42c3.71-.42,7.45-.54,11.18-.75,3.54-.19,7.08-.39,10.62-.47,5.47-.14,10.94-.24,16.41-.23,2.54,0,5.08.29,7.62.48.17,0,.33.26.49.4-.56,0-1.11.05-1.67.05-4.56,0-9.12-.1-13.67.09-6.45.26-12.9.74-19.35,1.17-2.42.16-4.84.46-7.25.71-4.4.46-8.78,1.09-13.19,1.35-3.69.22-7.41,0-11.12,0-.76,0-1.52,0-2.27-.06-4.14-.28-8.27-.7-12.41-.82-3.82-.11-7.64.18-11.46.17-5.72,0-11.43-.13-17.14-.19-2.24,0-4.47-.06-6.71,0-.81,0-1.09-.28-1.26-1-.25-1.2-.69-2.36-1.05-3.53l-.13-.95-.12-.49-.08-.47-.17-.72,0-3.84-.85-4.82a16.34,16.34,0,0,0-1.39-6.26c-1.39-3.57-2.6-7.2-4-10.76-1.62-4.11-3.46-8.14-5.05-12.26-2.23-5.77-4.29-11.6-6.47-17.39-1-2.65-2-5.28-3.13-7.89a95.08,95.08,0,0,0-4.17-9.53A82,82,0,0,0,305.9,271c-1.25-1.73-3-3.06-3.78-5.18a23.46,23.46,0,0,0-1.22-2.59,3.7,3.7,0,0,0-.16-.57,63.57,63.57,0,0,1-3.44-11.44c-1-5.07-1.78-10.19-2.7-15.28a59.71,59.71,0,0,1-1.17-14c.36-6.17.82-12.34,1.2-18.5a81.61,81.61,0,0,1,2-13.1c.16-.7.36-1.08,1.21-1.13,2.75-.14,5.49-.39,8.23-.62,2.94-.25,5.88-.46,8.81-.78,4.43-.5,8.87-1,13.27-1.66,2.54-.39,5-1.12,7.54-1.69l.51-.1.46-.11,1.46-.13,1.45,0,1.25-.22.1,0,.07-.09c1.76-.33,3.52-.66,5.27-1a2.32,2.32,0,0,1,2.7,1.71,24.55,24.55,0,0,0,2.29,4.69,12.62,12.62,0,0,0,3.53,4,16.6,16.6,0,0,1,2.6,2.63c.8.81,1.59,1.64,2.44,2.39s1.74,1.4,2.63,2.07c1.61,1.21,3.19,2.49,4.88,3.6,1.26.82,2.68,1.39,4,2.12a43.17,43.17,0,0,0,10.42,4.14c2.52.62,5.05,1.22,7.61,1.6,2.38.35,4.76.88,7.24.43,1.95-.36,4-.4,5.94-.61,2.17-.23,4.37-.25,6.43-1.15a4.32,4.32,0,0,1,1.4-.22c3.76-.26,7.46-.71,10.9-2.4,4.51-2.22,9.08-4.3,13.55-6.6,3.18-1.63,5.51-4.34,7.75-7,1.49-1.8,2.7-3.83,4-5.76a3,3,0,0,0,1-.22c2.33-1.52,4.6-3.13,7-4.6,1.85-1.16,3.79-2.19,5.72-3.23.69-.37.77-.66.2-1.23a8.89,8.89,0,0,1-.94-1.31,4,4,0,0,1,.94.12q4.11,1.64,8.21,3.33c.18.07.29.33.46.48a9.35,9.35,0,0,0,1.29,1.08c.54.32,1.19.46,1.73.79,2.33,1.38,4.7,2.72,6.95,4.23,3.75,2.49,7.43,5.09,11.12,7.67,1.4,1,2.74,2.05,4.1,3.08a1,1,0,0,1,.27,1.43c-4.4,8-7.1,16.65-9.33,25.45-.64,2.55-.87,5.19-1.5,7.74-.46,1.89-1.32,3.67-1.9,5.54-1.09,3.5-2,7-3.15,10.54a30.46,30.46,0,0,0-1.65,8.66c-.06,2.82-.41,5.64-.4,8.46,0,3.43.28,6.85.46,10.28A2.2,2.2,0,0,0,477.48,277.39Z" />
        <path class="outline"
            d="M340.82,183.87l-1.25.22-1.45,0-1.46.13-.46.11-.51.1a2.57,2.57,0,0,0-.67,0c-3.39.59-6.78,1.25-10.18,1.78-2.11.34-4.24.5-6.37.73s-4.49.52-6.73.73-4.27.35-6.41.51c-3,.23-5.93.44-8.89.66l.31-1c.56,0,1.12,0,1.67,0,2.53-.21,5.05-.47,7.58-.68,2.33-.19,4.66-.3,7-.51,4-.36,8-.73,11.94-1.19,2.63-.31,5.24-.76,7.86-1.19,1.79-.29,3.57-.65,5.35-1,1-.18,2.07-.34,3.11-.5l.53-.05,1.15-.46.54-.25,2.58-.77c.94-.29,1.88-.58,2.78.12l.11.18c.2.42.38.85.59,1.26s.56,1,.8,1.56.37,1.12.66,1.61c.7,1.19,1.61,2.27,2.19,3.51.88,1.85,2.65,2.64,4.05,3.88l1.3,1.41c.13.72.36,1.36,1.23,1.45l.2.14,1.71,1.06.69.58,1.85,1.86.29.29,1.73,1.11.69.58,1.5.85c.1,0,.15,0,.18.09l3.65,1.84.19.1c.19.19.34.44.56.55A44.28,44.28,0,0,0,383.15,209c1.36.31,2.77.4,4.15.58l.5.14a5.38,5.38,0,0,0,3.81.61l.51.06a2.65,2.65,0,0,0,2.41.48l.51-.06c.92-.06,1.86-.06,2.77-.2a24.89,24.89,0,0,1,2.88-.58,28.75,28.75,0,0,0,8-.93c1.63-.5,3.46-.3,5.17-.57,1.34-.2,2.65-.64,4-1l.49-.15.47-.13.9-.42a1.42,1.42,0,0,0,.36,0c5.08-1.83,9.71-4.58,14.45-7.1.16-.08.25-.28.37-.43l.18-.11.78-.61.43-.35,2-1.83,1.29-1.27,1.08-1.24.6-.68.84-1,.13-.19,1.78-2.7c0-.1,0-.16.1-.18l.62-1,.11-.19.62-1,.12-.2.36-.53L446,186l.37-.51.14-.21a5,5,0,0,0,.66-.63,24.86,24.86,0,0,0,3.28-6.73c.49-1.24.78-2.56,1.15-3.85l.13-.31a4,4,0,0,1,3.43.29,5.4,5.4,0,0,0,1.22.37l.56.24a3.78,3.78,0,0,0,.74.54c1.25.49,2.54.89,3.77,1.43,2.14.93,4.25,1.95,6.38,2.91a3.43,3.43,0,0,0,.8.15l.55.24,2,1,1.37.92,1.86,1,.79.39,3.92,2.29h.11l.05.1.55.38a.12.12,0,0,1,.17.1l2,1.11.19.11.51.37.45.35.74.62.46.34,1.24.85.2.12.52.36.2.12.79.59c.1,0,.15,0,.17.11l2.23,1.57c.1,0,.16,0,.17.12l.76.61.44.37c1.21,1.78,3.19,2.54,4.87,3.7.11,0,.16,0,.17.13l.55.64c-.88,2.1-1.67,4.25-2.66,6.3a124.46,124.46,0,0,0-6.9,17.3c-.71,2.34-.78,4.87-1.33,7.28-.68,3-1.44,6-2.37,9-1.7,5.4-3.55,10.75-4.48,16.35a71,71,0,0,0-.78,7.85c-.26,5-.4,10.05-.59,15.08a2.2,2.2,0,0,1-.31-.71c-.18-3.43-.44-6.85-.46-10.28,0-2.82.34-5.64.4-8.46a30.46,30.46,0,0,1,1.65-8.66c1.11-3.5,2.06-7,3.15-10.54.58-1.87,1.44-3.65,1.9-5.54.63-2.55.86-5.19,1.5-7.74,2.23-8.8,4.93-17.44,9.33-25.45a1,1,0,0,0-.27-1.43c-1.36-1-2.7-2.1-4.1-3.08-3.69-2.58-7.37-5.18-11.12-7.67-2.25-1.51-4.62-2.85-6.95-4.23-.54-.33-1.19-.47-1.73-.79a9.35,9.35,0,0,1-1.29-1.08c-.17-.15-.28-.41-.46-.48q-4.1-1.69-8.21-3.33a4,4,0,0,0-.94-.12c-1.75-.87-3.51-1.71-5.24-2.62-.85-.46-1.18-.32-1.54.62-1.09,2.87-2.22,5.72-3.52,8.49a34.57,34.57,0,0,1-2.66,4.1c-1.33,1.93-2.54,4-4,5.76-2.24,2.7-4.57,5.41-7.75,7-4.47,2.3-9,4.38-13.55,6.6-3.44,1.69-7.14,2.14-10.9,2.4a4.32,4.32,0,0,0-1.4.22c-2.06.9-4.26.92-6.43,1.15-2,.21-4,.25-5.94.61-2.48.45-4.86-.08-7.24-.43-2.56-.38-5.09-1-7.61-1.6A43.17,43.17,0,0,1,371.34,206c-1.33-.73-2.75-1.3-4-2.12-1.69-1.11-3.27-2.39-4.88-3.6-.89-.67-1.79-1.33-2.63-2.07s-1.64-1.58-2.44-2.39a16.6,16.6,0,0,0-2.6-2.63,12.62,12.62,0,0,1-3.53-4,24.55,24.55,0,0,1-2.29-4.69,2.32,2.32,0,0,0-2.7-1.71c-1.75.35-3.51.68-5.27,1Z" />
        <path class="outline"
            d="M337.18,354.7c.36,1.17.8,2.33,1.05,3.53.17.77.45,1.06,1.26,1,2.24,0,4.47,0,6.71,0,5.71.06,11.42.18,17.14.19,3.82,0,7.64-.28,11.46-.17,4.14.12,8.27.54,12.41.82.75.05,1.51.06,2.27.06,3.71,0,7.43.21,11.12,0,4.41-.26,8.79-.89,13.19-1.35,2.41-.25,4.83-.55,7.25-.71,6.45-.43,12.9-.91,19.35-1.17,4.55-.19,9.11-.07,13.67-.09.56,0,1.11,0,1.67-.05l.47.06,3.13.66,1.43.06c1.32.22,2.64.46,4,.61.17,0,.55-.41.58-.66a10.25,10.25,0,0,0-.25-5.43,4.91,4.91,0,0,1-.13-2.94c.68-2.57.14-5.06-.13-7.59a9.65,9.65,0,0,1,.83-5.88,33.35,33.35,0,0,0,2-5.88c.64-2.1,1.31-4.2,1.83-6.32.45-1.86.69-3.76,1.05-5.64.64-3.24,1.38-6.47,1.93-9.73s.89-6.64,1.37-9.95c.18-1.26.57-2.49.72-3.75.17-1.41.1-2.84.27-4.24a60.55,60.55,0,0,1,1.68-10.09,11.75,11.75,0,0,1,.82-1.72c-.32,1.76-.7,3.5-.92,5.27-.38,3-.66,5.94-1,8.91q-.59,5.83-1.14,11.66c-.12,1.19-.18,2.39-.31,3.58a36.78,36.78,0,0,1-.47,3.92c-1,4.84-2,9.7-3.22,14.51-.89,3.52-2.16,6.95-3.1,10.46a15.73,15.73,0,0,0-.5,4.48c.08,2.87.47,5.73-.24,8.59a2.1,2.1,0,0,0,0,1.29c.89,1.92.64,3.9.47,5.9a14.67,14.67,0,0,0,.1,1.75c0,.16,0,.45-.12.47a6.11,6.11,0,0,1-2.15.53c-1.28-.09-2.54-.49-3.82-.68-1.85-.28-3.71-.5-5.57-.71a64.2,64.2,0,0,0-12.16-.33c-.36,0-.72-.11-1.07-.09-1.07,0-2.13.11-3.19.19a11.64,11.64,0,0,1-1.65.21c-5.16-.28-10.25.53-15.37.92-3.74.29-7.47.7-11.21,1-5.85.48-11.7,1.12-17.56,1.32-4.66.15-9.34-.2-14-.44-4.15-.21-8.28-.77-12.42-.83-8.2-.12-16.4,0-24.6,0-3.74,0-3.69,0-5.39-3.36a15.12,15.12,0,0,1-1.45-6.84c0-2.39-.21-4.77-.33-7.15l.84.46.85,4.82L336,347c-.43,3.61-.57,7.09,1.55,10.24a5.9,5.9,0,0,0-.24-1.32A11.74,11.74,0,0,1,337.18,354.7Z" />
        <path class="outline"
            d="M335.79,343.41,335,343l-.12-.51a2.17,2.17,0,0,0,0-.76c-.78-2.25-1.55-4.51-2.4-6.73q-2.29-6-4.69-12c-2-5-4-9.89-5.92-14.86-1.34-3.45-2.5-7-3.85-10.4-1.65-4.19-3.42-8.33-5.15-12.48a46.94,46.94,0,0,0-2.26-5.13c-2.37-4.18-5.74-7.6-8.76-11.28l-1.64-5.51h.73a23.46,23.46,0,0,1,1.22,2.59c.74,2.12,2.53,3.45,3.78,5.18a82,82,0,0,1,5.67,8.28,95.08,95.08,0,0,1,4.17,9.53c1.09,2.61,2.14,5.24,3.13,7.89,2.18,5.79,4.24,11.62,6.47,17.39,1.59,4.12,3.43,8.15,5.05,12.26,1.41,3.56,2.62,7.19,4,10.76A16.34,16.34,0,0,1,335.79,343.41Z" />
        <path class="outline"
            d="M300.9,263.27h-.73l-.26-.8-.23-.63c-1.19-3.84-2.55-7.63-3.53-11.52-1.13-4.52-2-9.1-2.82-13.68a60.86,60.86,0,0,1-.59-7.76c-.13-3.3-.28-6.62-.18-9.92.11-3.79.41-7.57.78-11.34.44-4.61,1-9.21,1.61-13.79a32.48,32.48,0,0,1,1.49-5c3-.22,5.93-.43,8.89-.66,2.14-.16,4.27-.31,6.41-.51s4.49-.48,6.73-.73,4.26-.39,6.37-.73c3.4-.53,6.79-1.19,10.18-1.78a2.57,2.57,0,0,1,.67,0c-2.51.57-5,1.3-7.54,1.69-4.4.67-8.84,1.16-13.27,1.66-2.93.32-5.87.53-8.81.78-2.74.23-5.48.48-8.23.62-.85,0-1,.43-1.21,1.13a81.61,81.61,0,0,0-2,13.1c-.38,6.16-.84,12.33-1.2,18.5a59.71,59.71,0,0,0,1.17,14c.92,5.09,1.7,10.21,2.7,15.28a63.57,63.57,0,0,0,3.44,11.44A3.7,3.7,0,0,1,300.9,263.27Z" />
        <path class="outline"
            d="M301.81,268.78c3,3.68,6.39,7.1,8.76,11.28a46.94,46.94,0,0,1,2.26,5.13c1.73,4.15,3.5,8.29,5.15,12.48,1.35,3.44,2.51,6.95,3.85,10.4,1.93,5,4,9.9,5.92,14.86q2.38,6,4.69,12c.85,2.22,1.62,4.48,2.4,6.73a2.17,2.17,0,0,1,0,.76c-3-8.61-6.42-17-9.92-25.44-1.79-4.31-3.28-8.75-5-13.11-1.48-3.83-3.05-7.64-4.58-11.46-1.4-3.48-2.64-7-4.26-10.41a42.12,42.12,0,0,0-4.14-6.43c-1.26-1.74-2.77-3.3-4.11-5A12.75,12.75,0,0,1,301.81,268.78Z" />
        <path class="outline"
            d="M341.25,182.84c-1,.16-2.07.32-3.11.5-1.78.31-3.56.67-5.35,1-2.62.43-5.23.88-7.86,1.19-4,.46-7.95.83-11.94,1.19-2.33.21-4.66.32-7,.51-2.53.21-5.05.47-7.58.68-.55,0-1.11,0-1.67,0,.28-.17.55-.46.84-.48,8.12-.67,16.25-1.18,24.35-2,4.56-.45,9.06-1.43,13.6-2.09C337.43,183,339.35,183,341.25,182.84Z" />
        <path class="outline"
            d="M417.81,207.55c-1.32.33-2.63.77-4,1-1.71.27-3.54.07-5.17.57a28.75,28.75,0,0,1-8,.93,24.89,24.89,0,0,0-2.88.58c-.91.14-1.85.14-2.77.2,1.38-.33,2.76-.68,4.15-1a7,7,0,0,1,1.65-.15c2.51.05,5,.15,7.4-.85a4.1,4.1,0,0,1,1.05-.23Z" />
        <path class="outline"
            d="M434.85,199.28c-.12.15-.21.35-.37.43-4.74,2.52-9.37,5.27-14.45,7.1a1.42,1.42,0,0,1-.36,0c1.4-.67,2.81-1.31,4.19-2,2.42-1.21,4.83-2.46,7.25-3.69Z" />
        <path class="outline"
            d="M357.23,193.43c-1.4-1.24-3.17-2-4.05-3.88-.58-1.24-1.49-2.32-2.19-3.51-.29-.49-.42-1.09-.66-1.61s-.54-1-.8-1.56-.39-.84-.59-1.26a8.14,8.14,0,0,1,1.87,3.38,9,9,0,0,0,1.63,3c1.05,1.38,1.84,3,3.43,3.94A6.81,6.81,0,0,1,357.23,193.43Z" />
        <path class="outline"
            d="M387.3,209.57c-1.38-.18-2.79-.27-4.15-.58A44.28,44.28,0,0,1,373,205.34c-.22-.11-.37-.36-.56-.55,2.22.89,4.4,1.89,6.66,2.63s4.4,1.15,6.59,1.71Z" />
        <path class="outline"
            d="M451.58,174.06c-.37,1.29-.66,2.61-1.15,3.85a24.86,24.86,0,0,1-3.28,6.73,5,5,0,0,1-.66.63C448.88,181.85,450,177.87,451.58,174.06Z" />
        <path class="outline"
            d="M468.61,179.68a3.43,3.43,0,0,1-.8-.15c-2.13-1-4.24-2-6.38-2.91-1.23-.54-2.52-.94-3.77-1.43a3.78,3.78,0,0,1-.74-.54C460.79,176.37,465,177.28,468.61,179.68Z" />
        <path class="outline" d="M495.87,197.48c-1.68-1.16-3.66-1.92-4.87-3.7Z" />
        <path class="outline"
            d="M348.83,181.43c-.9-.7-1.84-.41-2.78-.12l-2.58.77c1.33-.47,2.62-1,4-1.36C347.83,180.62,348.36,181.18,348.83,181.43Z" />
        <path class="outline"
            d="M456.36,174.41a5.4,5.4,0,0,1-1.22-.37,4,4,0,0,0-3.43-.29c.77-1,1.76-.64,2.66-.36A12.47,12.47,0,0,1,456.36,174.41Z" />
        <path class="outline" d="M479.08,185.48l-3.92-2.29Z" />
        <path class="outline" d="M391.61,210.32a5.38,5.38,0,0,1-3.81-.61Z" />
        <path class="outline" d="M372.25,204.69l-3.65-1.84Z" />
        <path class="outline" d="M443.94,189.29l-1.78,2.7Z" />
        <path class="outline" d="M364.21,199.93l-1.85-1.86Z" />
        <path class="outline" d="M438.22,196.38l-2,1.83Z" />
        <path class="outline" d="M489.63,192.68l-2.23-1.57Z" />
        <path class="outline" d="M394.53,210.86a2.65,2.65,0,0,1-2.41-.48Z" />
        <path class="outline" d="M471.14,180.92l-2-1Z" />
        <path class="outline" d="M474.37,182.8l-1.86-1Z" />
        <path class="outline" d="M481.93,187.17l-2-1.11Z" />
        <path class="outline" d="M366.23,201.33l-1.73-1.11Z" />
        <path class="outline" d="M361.67,197.49,360,196.43Z" />
        <path class="outline" d="M359.76,196.29c-.87-.09-1.1-.73-1.23-1.45Z" />
        <path class="outline" d="M440.59,193.87l-1.08,1.24Z" />
        <path class="outline" d="M368.42,202.76l-1.5-.85Z" />
        <path class="outline" d="M485.52,189.81l-1.24-.85Z" />
        <path class="outline" d="M442,192.18l-.84,1Z" />
        <path class="outline" d="M342.93,182.33l-1.15.46Z" />
        <path class="outline" d="M444.66,188.1l-.62,1Z" />
        <path class="outline" d="M445.39,186.91l-.62,1Z" />
        <path class="outline" d="M435.81,198.56l-.78.61Z" />
        <path class="outline" d="M490.56,193.41l-.76-.61Z" />
        <path class="outline" d="M483.82,188.62l-.74-.62Z" />
        <path class="outline" d="M487.23,191l-.79-.59Z" />
        <path class="outline" d="M496.59,198.25l-.55-.64Z" />
        <path class="outline" d="M446.35,185.48,446,186Z" />
        <path class="outline" d="M418.77,207.27l-.47.13Z" />
        <path class="outline" d="M482.63,187.65l-.51-.37Z" />
        <path class="outline" d="M486.24,190.29l-.52-.36Z" />
        <path class="outline" d="M479.79,186l-.55-.38Z" />
        <path class="outline" d="M445.87,186.18l-.36.53Z" />
        <path class="outline" d="M299.68,261.84l.23.63Z" />
        <path class="color-base"
            d="M460.76,357.6l-1.43-.06a3.17,3.17,0,0,0-3.13-.66l-.47-.06c-.16-.14-.32-.39-.49-.4-2.54-.19-5.08-.48-7.62-.48-5.47,0-10.94.09-16.41.23-3.54.08-7.08.28-10.62.47-3.73.21-7.47.33-11.18.75a134.07,134.07,0,0,1-14.59.42c-.95,0-1.9-.25-2.85-.2-3.29.18-6.58.5-9.87.67-2,.1-4.08,0-6.12,0-3.1.11-6.2.38-9.3.44-2.46.05-4.94-.22-7.41-.17s-5.08.43-7.62.39-5.22-.4-7.83-.64c-.81-.08-1.86.06-2.36-.39s-.33-1.49-.41-2.27c-.12-1.11-.24-2.22-.28-3.33-.11-2.91,0-5.83-.31-8.72a19,19,0,0,0-1.34-4.79q-1.64-4.32-3.51-8.54c-1.17-2.66-2.52-5.25-3.73-7.9-.75-1.63-1.38-3.31-2.06-5-1.46-3.53-3-7-4.33-10.59-1-2.57-1.66-5.23-2.5-7.85a68.08,68.08,0,0,0-5.59-12.91c-1-1.84-2.23-3.59-3.19-5.47a6,6,0,0,1-.54-2.77,13,13,0,0,0-1.22-5.43,40.27,40.27,0,0,0-6-9.3c-4.13-5.1-7.45-10.64-9-17.11a44.59,44.59,0,0,1-1.36-10.74c0-4-.13-7.9-.23-11.85,0-1.63-.25-3.26-.21-4.89.1-3.76.24-7.52.48-11.28s.62-7.36.95-11c.06-.75.15-1.5.24-2.25s.31-1.17,1.13-1.3c3.72-.6,7.44-1.21,11.14-1.89A70.27,70.27,0,0,1,320,190c4.25-.14,8.49-.53,12.72-.93,3.95-.38,7.88-.92,11.82-1.41a1.78,1.78,0,0,1,2.06,1,27.94,27.94,0,0,0,6.17,7.72,43.71,43.71,0,0,0,3.59,2.75c2.9,2,5.74,4.19,8.78,6,4,2.36,7.82,5.06,12.21,6.75,1.56.6,2.92,1.73,4.5,2.18,2.89.82,5.87,1.36,8.83,1.93,1.83.36,3.68.57,5.53.84a4.66,4.66,0,0,0,.82.13c2.42,0,4.84.09,7.26,0a40.73,40.73,0,0,0,12.89-2.81,122.47,122.47,0,0,0,11.45-4.81c3.27-1.64,6.73-3,9.59-5.37a11.43,11.43,0,0,1,1.83-.87c3.44-1.84,6.86-3.72,10.31-5.55q7.1-3.77,14.21-7.45c1.51-.79,3.11-1.43,4.65-2.17a2.47,2.47,0,0,1,3,.2c3.17,2.6,6.36,5.16,9.6,7.67,2.42,1.88,4.9,3.67,7.38,5.46a4,4,0,0,1,.91,3.53c-1.22,3.28-2.46,6.56-3.63,9.86-1.66,4.71-2.36,9.64-3.33,14.51a45.48,45.48,0,0,1-1.44,6.26,73.85,73.85,0,0,1-3,6.75,31.39,31.39,0,0,0-2.77,7.57c-.29,1.59-.77,3.16-1.05,4.75-.21,1.19-.23,2.41-.35,3.62-.23,2.32-.5,4.63-.69,6.95-.21,2.6-.29,5.21-.53,7.8-.21,2.29-.46,4.58-.87,6.83-.75,4.1-1.68,8.17-2.41,12.27a38.23,38.23,0,0,0-.12,4c-.12,1.66-.33,3.31-.54,5-.34,2.72-.76,5.42-1.08,8.14-.58,4.92-1,9.87-2.43,14.66-1.33,4.49-2.62,9-3.94,13.48a20.75,20.75,0,0,0-.44,7.33,78.2,78.2,0,0,1-.12,8.24c0,1.11-.16,2.22-.28,3.33C461,356.6,460.84,357.1,460.76,357.6Z" />
        <path class="color-base"
            d="M446.61,188.39a34.57,34.57,0,0,0,2.66-4.1c1.3-2.77,2.43-5.62,3.52-8.49.36-.94.69-1.08,1.54-.62,1.73.91,3.49,1.75,5.24,2.62a8.89,8.89,0,0,0,.94,1.31c.57.57.49.86-.2,1.23-1.93,1-3.87,2.07-5.72,3.23-2.36,1.47-4.63,3.08-7,4.6A3,3,0,0,1,446.61,188.39Z" />
        <path class="outline"
            d="M337.18,354.7a11.74,11.74,0,0,0,.1,1.18,5.9,5.9,0,0,1,.24,1.32c-2.12-3.15-2-6.63-1.55-10.24l.67,1.27,0,3.84.17.72.08.47.12.49Z" />
        <path class="outline" d="M338.12,184.12l1.45,0Z" />
        <path class="outline" d="M336.85,352.79l-.17-.72Z" />
        <path class="outline" d="M336.2,184.36l.46-.11Z" />
        <path class="outline" d="M337.05,353.75l-.12-.49Z" />
        <path class="outline" d="M340.82,183.87l.17-.05-.07.09Z" />
        <path class="color-shadow" d="M456.2,356.88a3.17,3.17,0,0,1,3.13.66Z" />
    </g>
</svg>
