<svg id="Classic" xmlns="http://www.w3.org/2000/svg" viewBox="0 0 672 960">
    <g id="img_4_img" data-name="img 4 img">
        <path class="outline"
            d="M296.36,195.59c.15-1.16.34-2.32.44-3.48.13-1.52.22-3,.28-4.55,0-.62.17-.9.88-.94,7.19-.38,14.37-.87,21.56-1.2a80.53,80.53,0,0,0,16.37-2.15,1.55,1.55,0,0,1,.36-.08,25.67,25.67,0,0,0,10.52-2.35c1.07-.49,1.77,0,2.25.93,1,1.86,1.84,3.75,2.83,5.59a14.8,14.8,0,0,0,3.6,4.84,33.07,33.07,0,0,1,3.15,3.42,15.32,15.32,0,0,0,1.58,1.44,26.53,26.53,0,0,1,2.55,2,22.78,22.78,0,0,0,7.92,5.22c3,1.22,5.87,2.8,9,3.69,3.78,1.11,7.71,1.68,11.58,2.46a13.13,13.13,0,0,0,3.06.47,36.33,36.33,0,0,0,4.23-.73,13.34,13.34,0,0,1,2.33-.39,26.91,26.91,0,0,0,7.45-.81,29.33,29.33,0,0,1,5.58-.57,23,23,0,0,0,8.31-2.54c3.8-1.87,7.64-3.68,11.32-5.76s6.45-5.35,8.92-8.76a57.75,57.75,0,0,0,4.69-7.24,72.53,72.53,0,0,0,4.16-9.53c.56-1.62,1.53-2.11,3.1-1.55,5.08,1.79,10.17,3.57,15.11,5.7a62.06,62.06,0,0,1,15.68,9.59q4.25,3.61,8.57,7.12a1.39,1.39,0,0,1,.46,1.85c-1.82,4.85-3.76,9.66-5.33,14.59-1.49,4.67-2.57,9.46-3.8,14.21-3.39,13.1-6,26.37-8.29,39.7a56.64,56.64,0,0,0-.29,8.15c-.06,2.12-.1,4.23-.15,6.35-.13-4.38-.48-8.76-.31-13.13a94.89,94.89,0,0,1,1.38-11.74c.54-3.3,1.47-6.53,2.16-9.81,1.37-6.47,2.52-13,4.07-19.43,1.3-5.35,3.08-10.58,4.58-15.88a64.89,64.89,0,0,1,4.6-12.06,1.39,1.39,0,0,0-.32-1.29c-2-1.79-4-3.59-6.19-5.22-2.8-2.12-5.71-4.1-8.57-6.13a30,30,0,0,0-8.36-4.44c-.21-.07-.55-.24-.55-.38,0-1.08-.93-1-1.6-1.24s-1.09-.46-1.65-.63c-2-.62-4.12-1.21-6.18-1.82-1.67-.75-3.37-1.45-5-2.26-.88-.44-1.18-.26-1.52.67-1.5,4.21-2.92,8.47-5.74,12.06a10.31,10.31,0,0,0-.79,1.42,5.32,5.32,0,0,0-.61.55,80.52,80.52,0,0,1-5.09,6.75,27.8,27.8,0,0,1-6.15,5.27c-3.73,2.21-7.75,3.94-11.66,5.84A26.94,26.94,0,0,1,411,210.21a16.47,16.47,0,0,0-2.93.5c-.69.14-1.37.4-2.07.48-2.25.26-4.54.29-6.76.74a25.66,25.66,0,0,1-9.84.06c-5.67-1.07-11.44-1.9-16.63-4.7-2.69-1.45-5.41-2.88-8-4.46a31.89,31.89,0,0,1-3.4-2.77c-1.76-1.42-3.66-2.62-5-4.54-.92-1.31-2.56-2.12-3.47-3.43-1.61-2.3-3.34-4.58-4-7.41-.28-1.17-1.43-2.1-2.15-2-3,.54-5.94,1-8.9,1.59-3.53.65-7,1.46-10.58,2q-6.21.87-12.49,1.33c-5.41.41-10.83.65-16.25.93-.67,0-.93.31-.94,1-.09,3.47-.32,6.95-.25,10.42.14,6.94.49,13.88.66,20.83.11,4.55-.16,9.11.09,13.65a159.42,159.42,0,0,0,2.84,20.37,104,104,0,0,0,2.77,12,6,6,0,0,0,.8,1.57,38,38,0,0,1,2.49,3.37,62,62,0,0,1,4.48,8.82,72.77,72.77,0,0,1,2.32,9.88c.65,3.08,1.3,6.18,1.75,9.29,1,6.71,1.81,13.44,2.71,20.16.64,4.83,1.36,9.64,1.9,14.47.63,5.71,1.13,11.43,1.66,17.15.32,3.46.61,6.92.89,10.38.36,4.49.68,9,1.05,13.48.27,3.34.52,6.69.93,10s1.07,6.76,1.46,10.16c.26,2.17.19,4.39.35,6.57a158.73,158.73,0,0,1,.74,17.58c-.26,7.24-.05,14.5-.12,21.75-.05,5-.19,10-.36,15-.14,3.78-.38,7.57-.59,11.35-.34,6.29-.72,12.58-1,18.87-.26,5.22-.61,10.44-.61,15.65,0,10.42.19,20.84.41,31.26.09,4.07.46,8.13.75,12.19.43,6,.9,12,1.37,18,.29,3.7.64,7.39,1,11.09.35,4.21.77,8.42,1,12.64.15,2.58,0,5.18,0,7.77a22.21,22.21,0,0,1-.5,3c1.48.16,2.74.36,4,.43q9.15.49,18.3.94c2.26.1,4.54.11,6.81.16l11.49.35.51.08,6.45.17.51.07,3.94.19c5.66.3,11.32.68,17,.85,3.3.11,6.62-.11,9.93-.18l15.7-.32,1.23-.13,2.61-.16a3.92,3.92,0,0,0,.59,0l18.65-.9c2-.09,4.08-.09,6.11-.23,5.13-.36,10.25-.71,15.37-1.18,3.84-.35,7.69-.8,11.5-1.38,5.05-.75,10.06-1.77,15.12-2.48,2.71-.37,5.49-.34,8.24-.46.55,0,1,0,1-.76.11-3.43.39-6.86.4-10.29,0-2.87-.18-5.74-.44-8.6-.34-3.85-.75-7.7-1.3-11.53-.65-4.5-1.57-9-2.21-13.46-.89-6.28-1.52-12.6-2.45-18.87a114.34,114.34,0,0,0-4.76-21.35c-1.75-5-3.17-10.14-4.61-15.25a75.26,75.26,0,0,1-1.91-8.64c-.63-4-1-8.13-1.5-12.2-.3-2.53-.63-5.07-.95-7.6-.61-4.83-1.1-9.68-1.87-14.48-.55-3.43-1.57-6.78-2.18-10.19-1.2-6.8-2.38-13.6-3.37-20.43s-1.73-13.86-2.62-20.79c-.27-2.17-.85-4.32-1-6.5-.27-5.5-.48-11-.48-16.53,0-6.87.27-13.74.42-20.61.06-2.8-.06-5.61.17-8.39.49-5.72,1.27-11.42,1.73-17.14.34-4.33.46-8.7.5-13.05.05-5-.11-10.06-.13-15.09a28.89,28.89,0,0,0,.15-3.81,40.75,40.75,0,0,1-.12-9.62,45.58,45.58,0,0,1,1.1-5.21c-.12,4.08-.23,8.15-.36,12.23a127.22,127.22,0,0,0,.66,20.46,43.39,43.39,0,0,1-.21,8.74c-.56,7.65-1.34,15.29-1.8,22.95-.3,5.11-.19,10.24-.26,15.35-.09,7.12-.4,14.24-.17,21.34.15,4.73,1.07,9.44,1.66,14.16.88,6.9,1.67,13.81,2.69,20.69.83,5.61,1.9,11.18,2.93,16.76.94,5.15,2.18,10.25,2.9,15.42,1.07,7.76,2,15.55,2.63,23.36.75,9.17,3.34,17.86,6,26.58,3.77,12.21,7.62,24.41,8.22,37.35.25,5.21,1.15,10.39,1.92,15.56,1,6.76,2.22,13.48,3.21,20.24a82.13,82.13,0,0,1,.49,17.24,4.28,4.28,0,0,0,0,1.43c.36,1.28-.44,1.68-1.39,1.88a26.64,26.64,0,0,1-2.83.33c-4.08.42-8.17.76-12.24,1.29-5.33.68-10.63,1.67-16,2.23-5.12.53-10.28.69-15.42,1l-22.74,1.38-17.48,1c-6.34.37-12.68.88-19,1.1-5.22.17-10.46.06-15.7,0-5.44-.08-10.88-.2-16.31-.44-6.06-.27-12.14-.57-18.18-1.09-7.08-.61-14.13-1.47-21.19-2.21-3.62-.38-3.61-.43-3-4a7.18,7.18,0,0,0-.18-3.26c-.69-2.21-.39-4.43-.45-6.65-.18-6-.46-12.06-.79-18.08-.37-6.79-.84-13.57-1.26-20.35-.4-6.58-.92-13.16-1.12-19.75-.2-6.75-.2-13.51-.06-20.26.18-8.15.53-16.3.93-24.44.21-4.35.85-8.68,1-13,.31-8,.4-16.06.62-24.09.15-5.55.39-11.09.57-16.65.2-6.34.41-12.69.54-19,.05-2.51-.12-5-.15-7.55a74.79,74.79,0,0,0-1.45-13.33,126.75,126.75,0,0,1-1.56-12.6c-.86-9.52-1.55-19.05-2.41-28.57-.65-7.2-1.34-14.41-2.24-21.59-1.24-9.88-2.58-19.74-4.09-29.58-.69-4.57-2-9.05-2.8-13.61s-3.39-8.29-6.18-11.87a5.06,5.06,0,0,1-1-2c-1.49-7.07-3.07-14.12-4.31-21.23-.79-4.48-.9-9.07-1.58-13.57-.88-5.88,0-11.74-.2-17.61-.18-4.79-.33-9.59-.5-14.39a2.08,2.08,0,0,0-.22-.6Z" />
        <path class="color-shadow-dark"
            d="M459.35,177.05c2.06.61,4.13,1.2,6.18,1.82.56.17,1.1.43,1.65.63s1.56.16,1.6,1.24c0,.14.34.31.55.38a30,30,0,0,1,8.36,4.44c2.86,2,5.77,4,8.57,6.13,2.15,1.63,4.17,3.43,6.19,5.22a1.39,1.39,0,0,1,.32,1.29,64.89,64.89,0,0,0-4.6,12.06c-1.5,5.3-3.28,10.53-4.58,15.88-1.55,6.43-2.7,13-4.07,19.43-.69,3.28-1.62,6.51-2.16,9.81A94.89,94.89,0,0,0,476,267.12c-.17,4.37.18,8.75.31,13.13l-.15,3.39a45.58,45.58,0,0,0-1.1,5.21,40.75,40.75,0,0,0,.12,9.62,28.89,28.89,0,0,1-.15,3.81c0,5,.18,10.06.13,15.09,0,4.35-.16,8.72-.5,13.05-.46,5.72-1.24,11.42-1.73,17.14-.23,2.78-.11,5.59-.17,8.39-.15,6.87-.41,13.74-.42,20.61,0,5.51.21,11,.48,16.53.11,2.18.69,4.33,1,6.5.89,6.93,1.63,13.88,2.62,20.79s2.17,13.63,3.37,20.43c.61,3.41,1.63,6.76,2.18,10.19.77,4.8,1.26,9.65,1.87,14.48.32,2.53.65,5.07.95,7.6.5,4.07.87,8.15,1.5,12.2a75.26,75.26,0,0,0,1.91,8.64c1.44,5.11,2.86,10.24,4.61,15.25a114.34,114.34,0,0,1,4.76,21.35c.93,6.27,1.56,12.59,2.45,18.87.64,4.5,1.56,9,2.21,13.46.55,3.83,1,7.68,1.3,11.53.26,2.86.45,5.73.44,8.6,0,3.43-.29,6.86-.4,10.29,0,.79-.48.73-1,.76-2.75.12-5.53.09-8.24.46-5.06.71-10.07,1.73-15.12,2.48-3.81.58-7.66,1-11.5,1.38-5.12.47-10.24.82-15.37,1.18-2,.14-4.07.14-6.11.23l-18.65.9a3.92,3.92,0,0,1-.59,0c.33-.29.63-.78,1-.83,1.27-.18,2.57-.16,3.86-.29a9.68,9.68,0,0,0,1.63-.46h1.44a9.14,9.14,0,0,0,1.25.23,129.69,129.69,0,0,0,17-.73c3.31-.31,6.62-.72,9.92-1.17,2.51-.34,5-.75,7.51-1.25,2.29-.47,4.56-1.06,6.81-1.68,1.76-.48,3.45-1.24,5.23-1.61,2.36-.49,4.79-.69,7.18-1.08,3.05-.5,6.1-1,9.13-1.64a1.32,1.32,0,0,0,.78-1c0-1.51-.1-3-.2-4.53-.23-3.33-.5-6.66-.72-10-.34-5.08-.62-10.16-1-15.24a80.7,80.7,0,0,0-.79-8.53,102.3,102.3,0,0,1-1.63-17.19c0-3.53,0-7.1-1-10.55-.74-2.64-1.41-5.3-2.32-7.88s-2.31-5.1-3.13-7.75c-1.3-4.17-2.34-8.43-3.39-12.67-.52-2.11-.85-4.28-1.2-6.43-.52-3.21-1-6.43-1.46-9.65-.49-3.37-.94-6.75-1.43-10.13a59,59,0,0,0-1.13-7,154.56,154.56,0,0,1-4-17.9c-.9-6-2.14-11.88-3.07-17.83-.69-4.47-1.11-9-1.68-13.46-.12-1-.32-1.93-.48-2.89,0-.28,0-.56,0-.84q-.22-6.24-.47-12.48c-.16-4-.28-8-.51-11.94-.25-4.45-.83-8.88-.87-13.33-.05-6.18.19-12.36.45-18.54.2-4.72.59-9.44.95-14.16.15-1.86.42-3.71.68-5.55.22-1.56.55-3.11.73-4.67.23-2.09.42-4.19.52-6.3.19-3.82.31-7.64.44-11.46a4.92,4.92,0,0,0-.25-1c-.71-3.74-1.77-7.46-2-11.24-.23-3.41.37-6.89.66-10.34.36-4.19.79-8.38,1.15-12.57.14-1.61.12-3.24.29-4.85.12-1.16.51-2.3.64-3.47.12-1,0-2,.08-3.05.26-2.49.59-5,.92-7.44a59.31,59.31,0,0,1,3.71-14.29,31.28,31.28,0,0,0,1.54-4.9c1.2-5.45,2.26-10.93,3.44-16.39.36-1.67.9-3.31,1.39-4.94,1.21-4,2.44-8,3.66-12,.4-1.32,0-3.54-.86-4-3-1.57-5.25-4-7.74-6.17-2.93-2.57-6-4.91-9.14-7.3a1.47,1.47,0,0,0-1.31-.05c-6,3.61-11.9,7.29-17.88,10.89-3.31,2-6.67,3.91-10.05,5.79-1.22.68-2.59,1.06-3.82,1.72-2.3,1.25-4.47,2.79-6.85,3.86-5.23,2.34-10.48,4.66-15.87,6.6a36.82,36.82,0,0,1-13.85,2.15c-3.48-.13-7-.55-10.43-1a40.14,40.14,0,0,1-8.06-1.53,88.37,88.37,0,0,1-16.44-8.24c-3.16-1.93-6.15-4.13-9.17-6.26a45.41,45.41,0,0,1-4.25-3.29c-2.55-2.3-4.27-5.24-6-8.18-.2-.36-.72-.81-1-.78-3.43.37-6.85.95-10.29,1.23-5.23.42-10.48.67-15.72,1-1.39.08-2.8,0-4.19.09-2.49.23-5,.52-7.45.89-2.78.42-5.56.94-8.32,1.46a.9.9,0,0,0-.59.65c.08,2.91.18,5.82.34,8.72.21,4,.53,7.94.7,11.92.22,5,.41,10,.47,15.06,0,3.55-.14,7.1-.22,10.65a.48.48,0,0,1,0,.12c-.54,2.54.11,5,.67,7.42,1.26,5.51,4,10.39,7,15.1,1.74,2.72,3.9,5.17,4.84,8.35.53,1.79,1.44,3.6.79,5.46a5.57,5.57,0,0,0,.52,4.86,44.89,44.89,0,0,1,5.42,20.49,53.05,53.05,0,0,0,.5,6.42c.83,5.25,1.85,10.48,2.68,15.73.62,3.92,1.1,7.86,1.59,11.8.45,3.67.7,7.36,1.28,11a143.61,143.61,0,0,1,1.64,17.2,30.35,30.35,0,0,0,.67,5.19c1,4.67,2.06,9.32,1.94,14.15a2.55,2.55,0,0,0-.29.87c.4,4.3,1,8.6,1.21,12.91s.23,8.93.26,13.4c0,1-.38,1.92-.43,2.89s.2,1.73.2,2.6c0,4-.05,8,0,11.94.09,4.62.38,9.23.44,13.85,0,3.59-.1,7.18-.23,10.76-.1,2.7-.29,5.4-.49,8.1q-.44,6-.95,12c-.22,2.57-.48,5.13-.77,7.7-.27,2.4-.61,4.79-.89,7.2-.36,3-.73,6.06-1,9.1-.29,3.29-.61,6.58-.64,9.87s.29,6.75.43,10.13c.11,2.83.15,5.66.25,8.49,0,1.47.14,2.94.25,4.41.3,4,.65,8,.93,12,.21,2.93.26,5.88.52,8.81.4,4.46,1,8.91,1.39,13.37s.83,9,.93,13.55a98.72,98.72,0,0,0,1,14.16c.38,2.28.21,2.31,2.44,2.85l1.42,0c.18.2.31.5.53.57a30.17,30.17,0,0,0,4,1.3c4.63,1,9.28,1.76,13.9,2.73a22.82,22.82,0,0,1,3.46,1.33c-2.27-.05-4.55-.06-6.81-.16q-9.15-.43-18.3-.94c-1.27-.07-2.53-.27-4-.43a22.21,22.21,0,0,0,.5-3c.08-2.59.18-5.19,0-7.77-.24-4.22-.66-8.43-1-12.64-.31-3.7-.66-7.39-1-11.09-.47-6-.94-12-1.37-18-.29-4.06-.66-8.12-.75-12.19-.22-10.42-.39-20.84-.41-31.26,0-5.21.35-10.43.61-15.65.31-6.29.69-12.58,1-18.87.21-3.78.45-7.57.59-11.35.17-5,.31-10,.36-15,.07-7.25-.14-14.51.12-21.75a158.73,158.73,0,0,0-.74-17.58c-.16-2.18-.09-4.4-.35-6.57-.39-3.4-1.05-6.76-1.46-10.16s-.66-6.67-.93-10c-.37-4.49-.69-9-1.05-13.48-.28-3.46-.57-6.92-.89-10.38-.53-5.72-1-11.44-1.66-17.15-.54-4.83-1.26-9.64-1.9-14.47-.9-6.72-1.74-13.45-2.71-20.16-.45-3.11-1.1-6.21-1.75-9.29a72.77,72.77,0,0,0-2.32-9.88,62,62,0,0,0-4.48-8.82,38,38,0,0,0-2.49-3.37,6,6,0,0,1-.8-1.57,104,104,0,0,1-2.77-12,159.42,159.42,0,0,1-2.84-20.37c-.25-4.54,0-9.1-.09-13.65-.17-7-.52-13.89-.66-20.83-.07-3.47.16-6.95.25-10.42,0-.64.27-.91.94-1,5.42-.28,10.84-.52,16.25-.93q6.27-.47,12.49-1.33c3.55-.51,7.05-1.32,10.58-2,3-.55,5.93-1.05,8.9-1.59.72-.14,1.87.79,2.15,2,.67,2.83,2.4,5.11,4,7.41.91,1.31,2.55,2.12,3.47,3.43,1.35,1.92,3.25,3.12,5,4.54a31.89,31.89,0,0,0,3.4,2.77c2.61,1.58,5.33,3,8,4.46,5.19,2.8,11,3.63,16.63,4.7a25.66,25.66,0,0,0,9.84-.06c2.22-.45,4.51-.48,6.76-.74.7-.08,1.38-.34,2.07-.48a16.47,16.47,0,0,1,2.93-.5,26.94,26.94,0,0,0,11.76-2.86c3.91-1.9,7.93-3.63,11.66-5.84a27.8,27.8,0,0,0,6.15-5.27,80.52,80.52,0,0,0,5.09-6.75,5.32,5.32,0,0,1,.61-.55,9.35,9.35,0,0,0,1.25-.67c2.44-1.72,4.84-3.48,7.28-5.18,1.95-1.36,3.94-2.64,5.91-4Z" />
        <path class="color-shadow"
            d="M433.4,599a9.68,9.68,0,0,1-1.63.46c-1.29.13-2.59.11-3.86.29-.36.05-.66.54-1,.83l-2.61.16c-.46-.39-.89-.56-1.23.13l-15.7.32c-3.31.07-6.63.29-9.93.18-5.66-.17-11.32-.55-17-.85l-3.94-.19-.51-.07-6.45-.17-.51-.08-11.49-.35a22.82,22.82,0,0,0-3.46-1.33c-4.62-1-9.27-1.78-13.9-2.73a30.17,30.17,0,0,1-4-1.3c-.22-.07-.35-.37-.53-.57,1.71.07,3.43.26,5.13.18,3.41-.15,6.81-.53,10.22-.64,2.31-.08,4.63.29,6.92.17a50.88,50.88,0,0,1,14.74,1.85,93.22,93.22,0,0,0,17.69,2.26q5.47.25,11,.48,9.42.38,18.85.72c1.22.05,2.45.08,3.67.09h9.33C433.29,598.88,433.34,599,433.4,599Z" />
        <path class="color-base"
            d="M459.35,177.05l1.37,2.09c-2,1.31-4,2.59-5.91,4-2.44,1.7-4.84,3.46-7.28,5.18a9.35,9.35,0,0,1-1.25.67,10.31,10.31,0,0,1,.79-1.42c2.82-3.59,4.24-7.85,5.74-12.06.34-.93.64-1.11,1.52-.67C456,175.6,457.68,176.3,459.35,177.05Z" />
        <path class="color-shadow-dark" d="M423.08,600.9c.34-.69.77-.52,1.23-.13Z" />
        <path class="color-shadow-dark" d="M369.06,600l.51.08Z" />
        <path class="color-shadow-dark" d="M376,600.29l.51.07Z" />
        <path class="color-base"
            d="M433.4,599c-.06,0-.11-.15-.17-.15H423.9c-1.22,0-2.45,0-3.67-.09q-9.42-.35-18.85-.72-5.49-.22-11-.48a93.22,93.22,0,0,1-17.69-2.26A50.88,50.88,0,0,0,358,593.47c-2.29.12-4.61-.25-6.92-.17-3.41.11-6.81.49-10.22.64-1.7.08-3.42-.11-5.13-.18l-1.42,0c-.08-2.55-.13-5.1-.26-7.64s-.29-5.32-.49-8c-.29-4-.63-8-.94-12-.17-2.26-.29-4.52-.51-6.77-.36-3.83-.79-7.66-1.16-11.49s-.53-7.37-1-11a100.55,100.55,0,0,1-.92-14.4c0-2.88-.1-5.76,0-8.63.22-4.69.6-9.36.93-14,.15-2.18.31-4.36.52-6.54.27-2.8.61-5.59.91-8.4.26-2.48.49-5,.77-7.46.36-3.23.78-6.46,1.15-9.69.28-2.52.52-5.05.76-7.58.32-3.32.85-6.64.87-10,0-5.42-.2-10.84-.46-16.25a47.33,47.33,0,0,0-.95-7.31,53.41,53.41,0,0,1-.92-10.55c0-.95.25-1.91.2-2.85-.19-3.53-.44-7.06-.7-10.58-.3-4.16-.54-8.33-1-12.47-.27-2.46-.92-4.89-1.4-7.32.12-4.83-1-9.48-1.94-14.15a30.35,30.35,0,0,1-.67-5.19,143.61,143.61,0,0,0-1.64-17.2c-.58-3.65-.83-7.34-1.28-11-.49-3.94-1-7.88-1.59-11.8-.83-5.25-1.85-10.48-2.68-15.73a53.05,53.05,0,0,1-.5-6.42A44.89,44.89,0,0,0,314,280.8a5.57,5.57,0,0,1-.52-4.86c.65-1.86-.26-3.67-.79-5.46-.94-3.18-3.1-5.63-4.84-8.35-3-4.71-5.73-9.59-7-15.1-.56-2.43-1.21-4.88-.67-7.42a.48.48,0,0,0,0-.12c.08-3.55.27-7.1.22-10.65-.06-5-.25-10-.47-15.06-.17-4-.49-7.95-.7-11.92-.16-2.9-.26-5.81-.34-8.72a.9.9,0,0,1,.59-.65c2.76-.52,5.54-1,8.32-1.46,2.47-.37,5-.66,7.45-.89,1.39-.13,2.8,0,4.19-.09,5.24-.29,10.49-.54,15.72-1,3.44-.28,6.86-.86,10.29-1.23.32,0,.84.42,1,.78,1.7,2.94,3.42,5.88,6,8.18a45.41,45.41,0,0,0,4.25,3.29c3,2.13,6,4.33,9.17,6.26a88.37,88.37,0,0,0,16.44,8.24,40.14,40.14,0,0,0,8.06,1.53c3.46.45,6.95.87,10.43,1A36.82,36.82,0,0,0,414.67,215c5.39-1.94,10.64-4.26,15.87-6.6,2.38-1.07,4.55-2.61,6.85-3.86,1.23-.66,2.6-1,3.82-1.72,3.38-1.88,6.74-3.79,10.05-5.79,6-3.6,11.91-7.28,17.88-10.89a1.47,1.47,0,0,1,1.31.05c3.09,2.39,6.21,4.73,9.14,7.3,2.49,2.18,4.76,4.6,7.74,6.17.82.43,1.26,2.65.86,4-1.22,4-2.45,8-3.66,12-.49,1.63-1,3.27-1.39,4.94C482,226,480.9,231.51,479.7,237a31.28,31.28,0,0,1-1.54,4.9,59.31,59.31,0,0,0-3.71,14.29c-.33,2.47-.66,5-.92,7.44-.11,1,0,2-.08,3.05-.13,1.17-.52,2.31-.64,3.47-.17,1.61-.15,3.24-.29,4.85-.36,4.19-.79,8.38-1.15,12.57-.29,3.45-.89,6.93-.66,10.34.26,3.78,1.32,7.5,2,11.24a4.92,4.92,0,0,1,.25,1c-.13,3.82-.25,7.64-.44,11.46-.1,2.11-.29,4.21-.52,6.3-.18,1.56-.51,3.11-.73,4.67-.26,1.84-.53,3.69-.68,5.55-.36,4.72-.75,9.44-.95,14.16-.26,6.18-.5,12.36-.45,18.54,0,4.45.62,8.88.87,13.33.23,4,.35,8,.51,11.94q.24,6.24.47,12.48c0,.28,0,.56,0,.84a3.27,3.27,0,0,0-.45,1.07c-.11,3.54-.23,7.1-.24,10.65a88.66,88.66,0,0,0,.27,9.08,99.76,99.76,0,0,0,1.64,10.46c1,4.78,2.38,9.49,3.3,14.29,1.37,7.09,2.51,14.23,3.67,21.36.71,4.35,1.18,8.73,1.94,13.07,1,5.63,2,11.26,3.28,16.83,1.16,5.08,2.7,10.07,4,15.11.57,2.19,1.11,4.4,1.52,6.63.64,3.42,1.1,6.89,1.74,10.32s1.5,6.82,2.09,10.26c.49,2.85.72,5.75,1.08,8.62.44,3.5.94,7,1.34,10.51.31,2.72.52,5.46.75,8.19.25,2.93.45,5.86.72,8.79.07.86-.27,1.21-1.06,1.39-2.94.7-5.89,1.4-8.8,2.19a135.72,135.72,0,0,0-16.46,5.13,41.68,41.68,0,0,1-8.07,2c-3,.56-6.15.73-9.18,1.32-6,1.18-12,2.3-18.2,2.07a5,5,0,0,0-1.13.23Z" />
        <path class="color-shadow"
            d="M434.84,599a5,5,0,0,1,1.13-.23c6.17.23,12.18-.89,18.2-2.07,3-.59,6.14-.76,9.18-1.32a41.68,41.68,0,0,0,8.07-2,135.72,135.72,0,0,1,16.46-5.13c2.91-.79,5.86-1.49,8.8-2.19.79-.18,1.13-.53,1.06-1.39-.27-2.93-.47-5.86-.72-8.79-.23-2.73-.44-5.47-.75-8.19-.4-3.51-.9-7-1.34-10.51-.36-2.87-.59-5.77-1.08-8.62-.59-3.44-1.45-6.83-2.09-10.26s-1.1-6.9-1.74-10.32c-.41-2.23-.95-4.44-1.52-6.63-1.32-5-2.86-10-4-15.11-1.27-5.57-2.29-11.2-3.28-16.83-.76-4.34-1.23-8.72-1.94-13.07-1.16-7.13-2.3-14.27-3.67-21.36-.92-4.8-2.31-9.51-3.3-14.29a99.76,99.76,0,0,1-1.64-10.46,88.66,88.66,0,0,1-.27-9.08c0-3.55.13-7.11.24-10.65a3.27,3.27,0,0,1,.45-1.07c.16,1,.36,1.92.48,2.89.57,4.48,1,9,1.68,13.46.93,6,2.17,11.86,3.07,17.83a154.56,154.56,0,0,0,4,17.9,59,59,0,0,1,1.13,7c.49,3.38.94,6.76,1.43,10.13.47,3.22.94,6.44,1.46,9.65.35,2.15.68,4.32,1.2,6.43,1.05,4.24,2.09,8.5,3.39,12.67.82,2.65,2.2,5.13,3.13,7.75s1.58,5.24,2.32,7.88c1,3.45.92,7,1,10.55a102.3,102.3,0,0,0,1.63,17.19,80.7,80.7,0,0,1,.79,8.53c.35,5.08.63,10.16,1,15.24.22,3.33.49,6.66.72,10,.1,1.51.22,3,.2,4.53a1.32,1.32,0,0,1-.78,1c-3,.6-6.08,1.14-9.13,1.64-2.39.39-4.82.59-7.18,1.08-1.78.37-3.47,1.13-5.23,1.61-2.25.62-4.52,1.21-6.81,1.68-2.49.5-5,.91-7.51,1.25-3.3.45-6.61.86-9.92,1.17a129.69,129.69,0,0,1-17,.73A9.14,9.14,0,0,1,434.84,599Z" />
        <path class="color-shadow"
            d="M329.72,382.79c.48,2.43,1.13,4.86,1.4,7.32.46,4.14.7,8.31,1,12.47.26,3.52.51,7.05.7,10.58.05.94-.21,1.9-.2,2.85a53.41,53.41,0,0,0,.92,10.55,47.33,47.33,0,0,1,.95,7.31c.26,5.41.49,10.83.46,16.25,0,3.32-.55,6.64-.87,10-.24,2.53-.48,5.06-.76,7.58-.37,3.23-.79,6.46-1.15,9.69-.28,2.49-.51,5-.77,7.46-.3,2.81-.64,5.6-.91,8.4-.21,2.18-.37,4.36-.52,6.54-.33,4.68-.71,9.35-.93,14-.14,2.87,0,5.75,0,8.63a100.55,100.55,0,0,0,.92,14.4c.48,3.66.66,7.35,1,11s.8,7.66,1.16,11.49c.22,2.25.34,4.51.51,6.77.31,4,.65,8,.94,12,.2,2.66.37,5.32.49,8s.18,5.09.26,7.64c-2.23-.54-2.06-.57-2.44-2.85a98.72,98.72,0,0,1-1-14.16c-.1-4.52-.53-9-.93-13.55s-1-8.91-1.39-13.37c-.26-2.93-.31-5.88-.52-8.81-.28-4-.63-8-.93-12-.11-1.47-.2-2.94-.25-4.41-.1-2.83-.14-5.66-.25-8.49-.14-3.38-.46-6.75-.43-10.13s.35-6.58.64-9.87c.27-3,.64-6.07,1-9.1.28-2.41.62-4.8.89-7.2.29-2.57.55-5.13.77-7.7q.52-6,.95-12c.2-2.7.39-5.4.49-8.1.13-3.58.27-7.17.23-10.76-.06-4.62-.35-9.23-.44-13.85-.08-4,0-8,0-11.94,0-.87-.24-1.74-.2-2.6s.43-1.93.43-2.89c0-4.47,0-8.94-.26-13.4s-.81-8.61-1.21-12.91A2.55,2.55,0,0,1,329.72,382.79Z" />
    </g>
</svg>
