<svg id="Classic" xmlns="http://www.w3.org/2000/svg" viewBox="0 0 672 960">
    <g id="midi_img" data-name="midi img">
        <path class="outline"
            d="M460.51,497.51c-2.73.48-5.48.88-8.18,1.46-9.25,2-18.68,1.8-28,2.41-4.83.31-9.54-.71-14.31-1.08-7.21-.58-14.41-1.28-21.62-1.8-10.85-.77-21.7-1.37-32.55-2.15-6.69-.48-13.38-1.14-20.07-1.72a5,5,0,0,1-.94-.15c-3.84-1.2-7.69-2.39-11.51-3.64-2.38-.78-3.05-1.88-2.82-4.4.46-5.17,1-10.33,1.4-15.51.4-5,.67-10,1.07-15.06.19-2.43.6-4.84.83-7.26.15-1.63.08-3.28.23-4.9.4-4.09.89-8.17,1.29-12.26a36.87,36.87,0,0,0,.1-4.07c-.08-4.43-.2-8.86-.31-13.28v-.36c-.11-3.39-.28-6.77-.32-10.16a90,90,0,0,0-1.68-15.95,108,108,0,0,1-1.23-11c-.82-9.35-1.53-18.72-2.36-28.08-.6-6.77-1.18-13.55-2-20.29q-2-15.58-4.32-31.12c-.7-4.57-2-9-2.81-13.6s-3.39-8.29-6.17-11.87a5.29,5.29,0,0,1-1-2.12c-1.47-7-3-14-4.26-21-.79-4.51-.91-9.14-1.6-13.68-.89-5.88,0-11.74-.2-17.61-.18-4.79-.33-9.59-.5-14.38a2.2,2.2,0,0,0-.22-.62v-6.24c.16-1.48.34-3,.47-4.44.13-1.63.22-3.26.34-4.92,3.28-.15,6.47-.24,9.65-.46,7.58-.52,15.16-1,22.72-1.7,3-.27,5.88-1.26,8.85-1.51a21.12,21.12,0,0,0,6.79-1.65c2.77-1.21,4.29-.34,5.22,2.6a17.39,17.39,0,0,0,5.33,8.44,33.72,33.72,0,0,1,2.87,3.2,13.5,13.5,0,0,0,1.58,1.44,25.82,25.82,0,0,1,2.55,2,22.59,22.59,0,0,0,7.92,5.22c3,1.22,5.86,2.79,8.94,3.69a114,114,0,0,0,11.47,2.43,39.16,39.16,0,0,0,4.86.4,2.09,2.09,0,0,0,1.06-.14c2.77-1.44,5.84-.53,8.71-1.11.58-.12,1.16-.26,1.74-.36a20.54,20.54,0,0,1,3.52-.59,25.08,25.08,0,0,0,11.19-2.73c3.83-1.91,7.72-3.7,11.42-5.82s6.48-5.43,9-8.9a56.24,56.24,0,0,0,4.43-6.84,76.65,76.65,0,0,0,4.27-9.74c.58-1.62,1.54-2.11,3.11-1.55,5.11,1.81,10.24,3.6,15.22,5.76a61.57,61.57,0,0,1,15.57,9.53c2.86,2.43,5.75,4.82,8.65,7.2a1.23,1.23,0,0,1,.43,1.64c-1.84,4.89-3.79,9.74-5.38,14.71-1.48,4.67-2.57,9.46-3.8,14.21-3.38,13.11-6,26.38-8.29,39.72a56.45,56.45,0,0,0-.29,8.14c-.06,2.12-.1,4.24-.15,6.36-.12-4.46-.43-8.92-.3-13.37a78.61,78.61,0,0,1,1.2-10.92c.82-4.71,1.93-9.36,2.93-14,.89-4.21,1.7-8.44,2.73-12.62s2.23-8.16,3.41-12.22c1.93-6.61,3.37-13.39,7-19.56-2.32-2-4.56-4-6.94-5.83-2.82-2.16-5.67-4.29-8.67-6.18-2.61-1.64-5.44-2.94-8.17-4.39-.24-.13-.65-.27-.67-.43-.08-1.07-.94-1-1.62-1.22l-3.41-1-4.39-1.4c-1.67-.75-3.37-1.45-5-2.26-.88-.44-1.19-.26-1.52.67-1.5,4.21-2.92,8.47-5.74,12.06a9.76,9.76,0,0,0-.79,1.42,4,4,0,0,0-.61.55,84.51,84.51,0,0,1-5.09,6.75,27.24,27.24,0,0,1-6,5.22c-3.81,2.23-7.91,4-11.88,5.94A24.58,24.58,0,0,1,411,210.23a14.82,14.82,0,0,0-3.35.7,11.61,11.61,0,0,1-1.28.26c-2.57.29-5.15.56-7.72.83a25.65,25.65,0,0,1-5,.46c-2.77-.25-5.49-1-8.25-1.3-6.44-.79-12.14-3.53-17.77-6.49a23.32,23.32,0,0,1-5.85-4.27c-1.68-1.72-3.95-2.75-5.34-4.87s-3.82-3.15-4.92-5.48c-.83-1.76-1.7-3.49-2.59-5.21a7.55,7.55,0,0,0-1.33-2.08c-.24-.22-1,.13-1.54.22l-.24,0c-3,.47-6,.91-8.94,1.44-3.22.57-6.4,1.37-9.63,1.82-4.15.58-8.32,1-12.49,1.33-5.41.41-10.84.64-16.26.93-.68,0-.89.34-.92,1-.08,2-.28,4.07-.27,6.11,0,3.71.13,7.43.22,11.14.14,5.47.34,10.94.44,16.41,0,3-.29,6-.09,9a180,180,0,0,0,3,22.64,109,109,0,0,0,2.74,11.86,7.17,7.17,0,0,0,1,1.88,39.31,39.31,0,0,1,2.35,3.17,63.67,63.67,0,0,1,4.48,8.83,73.93,73.93,0,0,1,2.32,9.88c.64,3.08,1.29,6.18,1.74,9.29,1,6.67,1.8,13.36,2.69,20.05.65,4.86,1.37,9.71,1.92,14.58.63,5.71,1.13,11.44,1.66,17.15.32,3.46.61,6.92.89,10.38.36,4.49.66,9,1.05,13.48.33,3.78.58,7.57,1.15,11.31a87.69,87.69,0,0,1,1.52,14.63c0,1.48,0,3,.08,4.44.18,4.23.44,8.45.56,12.69.06,2-.16,4-.18,6-.05,6,.26,12.06-.17,18.06-.55,7.71-2.28,15.31-2.55,23.07-.22,6-.65,11.95-.81,17.93-.07,2.24-.12,4.58,1.21,6.61.14.23.26.61.44.65,1.37.29,2.74.55,4.11.75.89.12,1.82,0,2.7.2,2.53.48,5,1.11,7.59,1.54,3.72.64,7.46,1.26,11.21,1.7,5.89.71,11.78,1.4,17.7,1.84,6.31.48,12.64.65,19,1,4.42.23,8.84.48,13.25.79,5,.34,9.94.83,14.91,1.13,4.53.27,9.08.43,13.62.54,2.79.08,5.58,0,8.37-.05,6.84-.17,13.56-1.44,20.3-2.45C458.62,497.54,459.57,497.56,460.51,497.51Z" />
        <path class="color-shadow-dark"
            d="M459.35,177.05l4.39,1.4,3.41,1c.68.21,1.54.15,1.62,1.22,0,.16.43.3.67.43,2.73,1.45,5.56,2.75,8.17,4.39,3,1.89,5.85,4,8.67,6.18,2.38,1.84,4.62,3.86,6.94,5.83-3.59,6.17-5,12.95-7,19.56-1.18,4.06-2.39,8.12-3.41,12.22s-1.84,8.41-2.73,12.62c-1,4.68-2.11,9.33-2.93,14a78.61,78.61,0,0,0-1.2,10.92c-.13,4.45.18,8.91.3,13.37l-.15,2.31h0c0,.32,0,.64,0,1a11.13,11.13,0,0,0-.44,1.22,39.55,39.55,0,0,0-.77,11.38c.05,1,.31,2.05.32,3.07,0,2.55,0,5.1,0,7.65-.06,4.15-.17,8.31-.2,12.46a180.13,180.13,0,0,1-1.24,19.83c-.35,3-.77,6-.89,9.05-.17,4.31-.05,8.64-.13,12.95-.09,4.48-.37,8.94-.38,13.42,0,4.23.28,8.46.36,12.69.12,5.36.3,10.71.21,16.07a94.81,94.81,0,0,0,1.48,18.11c1.18,6.75,2.1,13.56,3.44,20.29,1.21,6.06,2.57,12.11,4.36,18s4.3,11.61,6.27,17.48A32.3,32.3,0,0,1,490,493.84c-.15.72-.35,1.14-1.14,1.18-1.63.08-3.26.34-4.88.29a113.62,113.62,0,0,0-19,1.26c-1,.14-2,.48-3.06.72l-1.42.22c-.94.05-1.89,0-2.81.17-6.74,1-13.46,2.28-20.3,2.45-2.79.07-5.58.13-8.37.05-4.54-.11-9.09-.27-13.62-.54-5-.3-9.94-.79-14.91-1.13-4.41-.31-8.83-.56-13.25-.79-6.33-.34-12.66-.51-19-1-5.92-.44-11.81-1.13-17.7-1.84-3.75-.44-7.49-1.06-11.21-1.7-2.55-.43-5.06-1.06-7.59-1.54-.88-.16-1.81-.08-2.7-.2-1.37-.2-2.74-.46-4.11-.75-.18,0-.3-.42-.44-.65-1.33-2-1.28-4.37-1.21-6.61.16-6,.59-11.95.81-17.93.27-7.76,2-15.36,2.55-23.07.43-6,.12-12,.17-18.06,0-2,.24-4,.18-6-.12-4.24-.38-8.46-.56-12.69-.06-1.48-.11-3-.08-4.44a87.69,87.69,0,0,0-1.52-14.63c-.57-3.74-.82-7.53-1.15-11.31-.39-4.49-.69-9-1.05-13.48-.28-3.46-.57-6.92-.89-10.38-.53-5.71-1-11.44-1.66-17.15-.55-4.87-1.27-9.72-1.92-14.58-.89-6.69-1.73-13.38-2.69-20.05-.45-3.11-1.1-6.21-1.74-9.29a73.93,73.93,0,0,0-2.32-9.88,63.67,63.67,0,0,0-4.48-8.83,39.31,39.31,0,0,0-2.35-3.17,7.17,7.17,0,0,1-1-1.88,109,109,0,0,1-2.74-11.86,180,180,0,0,1-3-22.64c-.2-3,.13-6,.09-9-.1-5.47-.3-10.94-.44-16.41-.09-3.71-.21-7.43-.22-11.14,0-2,.19-4.07.27-6.11,0-.62.24-.93.92-1,5.42-.29,10.85-.52,16.26-.93,4.17-.32,8.34-.75,12.49-1.33,3.23-.45,6.41-1.25,9.63-1.82,3-.53,6-1,8.94-1.44l.24,0c.53-.09,1.3-.44,1.54-.22a7.55,7.55,0,0,1,1.33,2.08c.89,1.72,1.76,3.45,2.59,5.21,1.1,2.33,3.57,3.43,4.92,5.48s3.66,3.15,5.34,4.87a23.32,23.32,0,0,0,5.85,4.27c5.63,3,11.33,5.7,17.77,6.49,2.76.33,5.48,1,8.25,1.3a25.65,25.65,0,0,0,5-.46c2.57-.27,5.15-.54,7.72-.83a11.61,11.61,0,0,0,1.28-.26,14.82,14.82,0,0,1,3.35-.7,24.58,24.58,0,0,0,11.71-2.83c4-2,8.07-3.71,11.88-5.94a27.24,27.24,0,0,0,6-5.22,84.51,84.51,0,0,0,5.09-6.75,4,4,0,0,1,.61-.55,10.6,10.6,0,0,0,1.25-.66c2.44-1.72,4.84-3.49,7.28-5.19,1.95-1.36,3.95-2.64,5.91-4Zm9.8,212.21c.09-3,.22-6.06.23-9.09,0-2.27-.21-4.54-.2-6.81,0-7.49-.27-15,.67-22.47.36-2.92.25-5.89.54-8.82.48-4.88,1.16-9.74,1.66-14.62.39-3.76.65-7.52.95-11.29a33.18,33.18,0,0,0-1.3-11.2,39.1,39.1,0,0,1-.44-16c.35-2.35.55-4.73.78-7.1.18-1.78.35-3.56.46-5.34.13-2.06.18-4.12.3-6.18.05-.87.18-1.73.31-2.59.16-1.07.41-2.13.52-3.21.2-2,.23-3.94.5-5.89.29-2.1.77-4.18,1.18-6.26s.65-3.95,1.19-5.86,1.47-3.68,2-5.59c1.3-5.08,2.46-10.19,3.66-15.3.69-2.88,1.24-5.79,2-8.64,1.26-4.49,2.68-8.93,4-13.39.34-1.14-.15-3.61-.86-4a31.33,31.33,0,0,1-7.45-6,59.16,59.16,0,0,0-9.28-7.5,1.4,1.4,0,0,0-1.73-.07c-1.53.93-3.1,1.81-4.63,2.74-5.25,3.24-10.42,6.6-15.75,9.69-5.91,3.43-11.94,6.66-18,9.87a90.74,90.74,0,0,1-16,6.65,40.36,40.36,0,0,1-12.19,2,110.28,110.28,0,0,1-11.76-1,37.63,37.63,0,0,1-8.29-1.58,96.59,96.59,0,0,1-18.37-9.43c-2.46-1.55-4.79-3.29-7.15-5a50.34,50.34,0,0,1-4.33-3.38c-2.55-2.29-4.26-5.23-6-8.18a1.51,1.51,0,0,0-1.06-.74c-3.43.37-6.85.92-10.28,1.23-4.52.41-9,.69-13.57.94-2.07.12-4.16-.06-6.23.09-2.53.19-5.05.53-7.57.9-2.78.42-5.55.94-8.32,1.46a.92.92,0,0,0-.56.68c.08,2.91.19,5.81.34,8.72.21,4,.52,7.94.7,11.91.21,4.62.42,9.24.47,13.86,0,4,0,7.92-.28,11.85a24.7,24.7,0,0,0,.73,7.54c1.27,5.52,4,10.39,7,15.11,1.73,2.71,3.89,5.17,4.82,8.35.64,2.17,1.57,4.31.4,6.6a1.7,1.7,0,0,0,0,.68c0,2.16,1.4,3.78,2.25,5.61a46.7,46.7,0,0,1,4.08,17.2c.13,2.38.16,4.78.52,7.14.82,5.29,1.87,10.55,2.71,15.84.62,3.88,1.07,7.79,1.55,11.69.45,3.67.7,7.36,1.28,11a144,144,0,0,1,1.64,17.2,30.23,30.23,0,0,0,.68,5.19,69.08,69.08,0,0,1,2,13.43c0,2.26.29,4.52.47,6.78q.46,5.52.95,11c.14,1.71.4,3.41.42,5.11,0,2.27-.11,4.54-.19,6.8a16.83,16.83,0,0,0-.69,3.14c-.21,7.21-.32,14.43-.52,21.65a63,63,0,0,1-.52,7,129.23,129.23,0,0,0-1.16,15.09c-.08,3.46-.3,6.92-.48,10.38-.06,1.19-.19,2.37-.3,3.56a26.93,26.93,0,0,0,.39,9.13c.51,2.05,1,4.09,1.64,6.11a1.46,1.46,0,0,0,.88.93c2.65.47,5.32.88,8,1.23,1.37.18,2.8.08,4.15.36,2.8.58,5.54,1.4,8.34,2,3,.66,6.06,1.25,9.12,1.72,2.74.43,5.51.73,8.27,1,3.82.36,7.64.81,11.46.89s7.48-.26,11.22-.45c.24,0,.46-.29.69-.45h4.8a5.83,5.83,0,0,0,.89.23c1.42.15,2.84.25,4.26.41,2.29.25,4.57.56,6.86.79,2.77.28,5.54.51,8.3.75,3.68.32,7.36.82,11,.89,5.43.1,10.86,0,16.28-.24a88.88,88.88,0,0,0,10.29-1.1q7.17-1.17,14.25-2.74c2.38-.52,5-.35,6.95-2.35.2-.21.67-.16,1-.26a5.83,5.83,0,0,0,1.86-.62,10.5,10.5,0,0,0,1.79-1.91,8.06,8.06,0,0,0,2-6.75c-1.06-5.51-2.83-10.93-2.25-16.66a3.21,3.21,0,0,0-.32-1.13c-.85-2.77-1.8-5.51-2.53-8.31s-1.18-5.93-2-8.82c-.67-2.3-1.59-4.45-1.74-7-.21-3.38-1.12-6.72-1.66-10.08s-1.2-7-1.5-10.48c-.35-4-.34-8-.54-11.93-.08-1.75-.29-3.48-.44-5.22-.17-2-.46-4-.47-5.94s.3-3.8.41-5.7A8.62,8.62,0,0,0,469.15,389.26Z" />
        <path class="outline"
            d="M461.93,497.29c1-.24,2-.58,3.06-.72a113.62,113.62,0,0,1,19-1.26c1.62.05,3.25-.21,4.88-.29.79,0,1-.46,1.14-1.18a32.3,32.3,0,0,0-1.49-16.63c-2-5.87-4.49-11.56-6.27-17.48s-3.15-12-4.36-18c-1.34-6.73-2.26-13.54-3.44-20.29a94.81,94.81,0,0,1-1.48-18.11c.09-5.36-.09-10.71-.21-16.07-.08-4.23-.36-8.46-.36-12.69,0-4.48.29-8.94.38-13.42.08-4.31,0-8.64.13-12.95.12-3,.54-6,.89-9.05A180.13,180.13,0,0,0,475,319.3c0-4.15.14-8.31.2-12.46,0-2.55.07-5.1,0-7.65,0-1-.27-2-.32-3.07a39.55,39.55,0,0,1,.77-11.38,11.13,11.13,0,0,1,.44-1.22c-.12,4.15-.23,8.31-.36,12.46a127.32,127.32,0,0,0,.64,20.1,45,45,0,0,1-.18,9c-.56,7.65-1.35,15.29-1.8,22.94-.3,5.23-.19,10.47-.27,15.71-.1,7-.41,13.9-.28,20.85.16,8.91.55,17.82,1.07,26.72.15,2.63,1.08,5.21,1.62,7.82,1.58,7.51,3.21,15,4.7,22.52,1,5,1.52,10.05,2.69,15,1.52,6.32,3.52,12.51,5.23,18.79,1.44,5.3,2.78,10.64,2.8,16.2a8.39,8.39,0,0,0,.17,1.31,2,2,0,0,1-2.06,2.68,60.08,60.08,0,0,1-6.43.23c-6.22-.17-12.36.72-18.52,1.34C464.08,497.25,463,497.24,461.93,497.29Z" />
        <polygon class="outline" points="476.14 282.56 476.14 282.57 476.23 282.56 476.14 282.56" />
        <path class="color-base"
            d="M459.35,177.05l1.37,2.09c-2,1.31-4,2.59-5.91,4-2.44,1.7-4.84,3.47-7.28,5.19a10.6,10.6,0,0,1-1.25.66,9.76,9.76,0,0,1,.79-1.42c2.82-3.59,4.24-7.85,5.74-12.06.33-.93.64-1.11,1.52-.67C456,175.6,457.68,176.3,459.35,177.05Z" />
        <path class="color-base"
            d="M396.68,495.11h-4.8l-12.29-.49c-1.52-.06-3-.14-4.53-.25-3.93-.3-7.85-.9-11.76-.87-5.23,0-10-1.5-14.89-3.07-1.7-.54-3.47-.85-5.19-1.34-2.2-.64-4.42-1.28-6.57-2.08a3.24,3.24,0,0,1-2.1-2.73c-.31-3.32-.67-6.66-.71-10-.07-5.11.19-10.22.18-15.33,0-6.87-.13-13.74-.23-20.6,0-1.72-.14-3.43-.24-5.13a22,22,0,0,0-.31-3.45,73.19,73.19,0,0,1-1.13-11.25c-.12-2.14-.33-4.28-.51-6.41,0-.11-.13-.2-.2-.3.08-2.26.22-4.53.19-6.8,0-1.7-.28-3.4-.42-5.11q-.48-5.52-.95-11c-.18-2.26-.44-4.52-.47-6.78a69.08,69.08,0,0,0-2-13.43,30.23,30.23,0,0,1-.68-5.19,144,144,0,0,0-1.64-17.2c-.58-3.64-.83-7.33-1.28-11-.48-3.9-.93-7.81-1.55-11.69-.84-5.29-1.89-10.55-2.71-15.84-.36-2.36-.39-4.76-.52-7.14a46.7,46.7,0,0,0-4.08-17.2c-.85-1.83-2.24-3.45-2.25-5.61a1.7,1.7,0,0,1,0-.68c1.17-2.29.24-4.43-.4-6.6-.93-3.18-3.09-5.64-4.82-8.35-3-4.72-5.75-9.59-7-15.11a24.7,24.7,0,0,1-.73-7.54c.32-3.93.32-7.9.28-11.85-.05-4.62-.26-9.24-.47-13.86-.18-4-.49-7.94-.7-11.91-.15-2.91-.26-5.81-.34-8.72a.92.92,0,0,1,.56-.68c2.77-.52,5.54-1,8.32-1.46,2.52-.37,5-.71,7.57-.9,2.07-.15,4.16,0,6.23-.09,4.53-.25,9.05-.53,13.57-.94,3.43-.31,6.85-.86,10.28-1.23a1.51,1.51,0,0,1,1.06.74c1.7,2.95,3.41,5.89,6,8.18a50.34,50.34,0,0,0,4.33,3.38c2.36,1.7,4.69,3.44,7.15,5a96.59,96.59,0,0,0,18.37,9.43,37.63,37.63,0,0,0,8.29,1.58,110.28,110.28,0,0,0,11.76,1,40.36,40.36,0,0,0,12.19-2,90.74,90.74,0,0,0,16-6.65c6-3.21,12.06-6.44,18-9.87,5.33-3.09,10.5-6.45,15.75-9.69,1.53-.93,3.1-1.81,4.63-2.74a1.4,1.4,0,0,1,1.73.07,59.16,59.16,0,0,1,9.28,7.5,31.33,31.33,0,0,0,7.45,6c.71.37,1.2,2.84.86,4-1.35,4.46-2.77,8.9-4,13.39-.8,2.85-1.35,5.76-2,8.64-1.2,5.11-2.36,10.22-3.66,15.3-.49,1.91-1.44,3.69-2,5.59s-.81,3.9-1.19,5.86-.89,4.16-1.18,6.26c-.27,1.95-.3,3.93-.5,5.89-.11,1.08-.36,2.14-.52,3.21-.13.86-.26,1.72-.31,2.59-.12,2.06-.17,4.12-.3,6.18-.11,1.78-.28,3.56-.46,5.34-.23,2.37-.43,4.75-.78,7.1a39.1,39.1,0,0,0,.44,16,33.18,33.18,0,0,1,1.3,11.2c-.3,3.77-.56,7.53-.95,11.29-.5,4.88-1.18,9.74-1.66,14.62-.29,2.93-.18,5.9-.54,8.82-.94,7.48-.64,15-.67,22.47,0,2.27.21,4.54.2,6.81,0,3-.14,6.06-.23,9.09a11.26,11.26,0,0,0-.22,1.13c-.19,1.94-.35,3.88-.53,5.82-.3,3.32-.78,6.63-.87,10-.11,4.06,0,8.14.23,12.2a65.21,65.21,0,0,0,.89,7.08c.32,1.95.89,3.87,1.22,5.82.58,3.53,1.05,7.07,1.59,10.59.42,2.75.89,5.49,1.3,8.23s.74,5.75,1.19,8.61,1,5.46,1.45,8.2c.57,3.32,1.07,6.66,1.65,10,.45,2.58,1,5.14,1.42,7.72.16.94.25,1.94-.81,2.54a45.49,45.49,0,0,1-11.4,4.84c-7.06,1.73-14.12,3.47-21.42,3.88-4.37.24-8.72.78-13.09.87a63.74,63.74,0,0,1-9-.71,104.61,104.61,0,0,0-16.59-1.17c-2.73.09-5.47,0-8.21,0A6.86,6.86,0,0,0,396.68,495.11Z" />
        <path class="color-shadow"
            d="M396.68,495.11a6.86,6.86,0,0,1,1.25-.23c2.74,0,5.48.06,8.21,0A104.61,104.61,0,0,1,422.73,496a63.74,63.74,0,0,0,9,.71c4.37-.09,8.72-.63,13.09-.87,7.3-.41,14.36-2.15,21.42-3.88a45.49,45.49,0,0,0,11.4-4.84c1.06-.6,1-1.6.81-2.54-.43-2.58-1-5.14-1.42-7.72-.58-3.32-1.08-6.66-1.65-10-.47-2.74-1-5.46-1.45-8.2s-.77-5.74-1.19-8.61-.88-5.48-1.3-8.23c-.54-3.52-1-7.06-1.59-10.59-.33-1.95-.9-3.87-1.22-5.82a65.21,65.21,0,0,1-.89-7.08c-.2-4.06-.34-8.14-.23-12.2.09-3.33.57-6.64.87-10,.18-1.94.34-3.88.53-5.82a11.26,11.26,0,0,1,.22-1.13,8.62,8.62,0,0,1,.22,1.72c-.11,1.9-.42,3.8-.41,5.7s.3,4,.47,5.94c.15,1.74.36,3.47.44,5.22.2,4,.19,8,.54,11.93.3,3.51.94,7,1.5,10.48s1.45,6.7,1.66,10.08c.15,2.51,1.07,4.66,1.74,7,.84,2.89,1.25,5.9,2,8.82s1.68,5.54,2.53,8.31a3.21,3.21,0,0,1,.32,1.13c-.58,5.73,1.19,11.15,2.25,16.66a8.06,8.06,0,0,1-2,6.75,10.5,10.5,0,0,1-1.79,1.91,5.83,5.83,0,0,1-1.86.62c-.34.1-.81.05-1,.26-1.91,2-4.57,1.83-6.95,2.35q-7.08,1.56-14.25,2.74a88.88,88.88,0,0,1-10.29,1.1c-5.42.24-10.85.34-16.28.24-3.68-.07-7.36-.57-11-.89-2.76-.24-5.53-.47-8.3-.75-2.29-.23-4.57-.54-6.86-.79-1.42-.16-2.84-.26-4.26-.41A5.83,5.83,0,0,1,396.68,495.11Z" />
        <path class="color-shadow"
            d="M331.4,411.82c.07.1.19.19.2.3.18,2.13.39,4.27.51,6.41a73.19,73.19,0,0,0,1.13,11.25,22,22,0,0,1,.31,3.45c.1,1.7.22,3.41.24,5.13.1,6.86.22,13.73.23,20.6,0,5.11-.25,10.22-.18,15.33,0,3.33.4,6.67.71,10a3.24,3.24,0,0,0,2.1,2.73c2.15.8,4.37,1.44,6.57,2.08,1.72.49,3.49.8,5.19,1.34,4.85,1.57,9.66,3.11,14.89,3.07,3.91,0,7.83.57,11.76.87,1.5.11,3,.19,4.53.25l12.29.49c-.23.16-.45.44-.69.45-3.74.19-7.48.53-11.22.45s-7.64-.53-11.46-.89c-2.76-.26-5.53-.56-8.27-1-3.06-.47-6.1-1.06-9.12-1.72-2.8-.6-5.54-1.42-8.34-2-1.35-.28-2.78-.18-4.15-.36-2.67-.35-5.34-.76-8-1.23a1.46,1.46,0,0,1-.88-.93c-.6-2-1.13-4.06-1.64-6.11a26.93,26.93,0,0,1-.39-9.13c.11-1.19.24-2.37.3-3.56.18-3.46.4-6.92.48-10.38a129.23,129.23,0,0,1,1.16-15.09,63,63,0,0,0,.52-7c.2-7.22.31-14.44.52-21.65A16.83,16.83,0,0,1,331.4,411.82Z" />
    </g>
</svg>
