<svg id="Classic" xmlns="http://www.w3.org/2000/svg" viewBox="0 0 672 960">
    <g id="img_6_img" data-name="img 6 img">
        <path class="outline"
            d="M296.36,195.59c.16-1.28.35-2.56.46-3.84.14-1.67.23-3.34.34-5.05,3.31-.15,6.55-.24,9.77-.46,7.54-.52,15.08-1,22.6-1.7,3-.27,5.88-1.25,8.85-1.51a20.85,20.85,0,0,0,6.79-1.64c2.78-1.23,4.29-.36,5.22,2.58a17.53,17.53,0,0,0,5.33,8.44,33.72,33.72,0,0,1,2.87,3.2,14.53,14.53,0,0,0,1.58,1.45,31.41,31.41,0,0,1,2.72,2.12,22.41,22.41,0,0,0,7.63,5c3.06,1.26,6,2.86,9.18,3.78a110.63,110.63,0,0,0,11.47,2.4,41.31,41.31,0,0,0,4.74.39,2.09,2.09,0,0,0,1.06-.14c2.77-1.44,5.84-.52,8.71-1.11l1.74-.36a21.56,21.56,0,0,1,3.52-.59,25,25,0,0,0,11.3-2.78c3.71-1.86,7.48-3.62,11.11-5.65,3.83-2.15,6.63-5.49,9.16-9a56.32,56.32,0,0,0,4.44-6.84c1.63-3.14,3-6.44,4.32-9.72.64-1.58,1.57-2.18,3.17-1.58,4.71,1.76,9.48,3.37,14.09,5.35a90.55,90.55,0,0,1,9.85,5.17,71.2,71.2,0,0,1,11.94,9.19c1.06,1,2.21,1.84,3.36,2.7a1.34,1.34,0,0,1,.48,1.83c-1.82,4.85-3.77,9.67-5.34,14.6-1.48,4.67-2.57,9.46-3.8,14.21-3.38,13.11-6,26.38-8.29,39.72a56.45,56.45,0,0,0-.29,8.14c-.06,2.12-.1,4.24-.15,6.36-.18-2.95-.6-5.91-.5-8.85.15-4.45.51-8.91,1.07-13.33.35-2.8,1.29-5.51,1.87-8.28,1-4.91,1.87-9.87,3-14.77,1.17-5.25,2.48-10.48,3.85-15.69,1.18-4.47,2.54-8.9,3.82-13.34,1.22-2.68,2.44-5.36,3.63-8.05a.8.8,0,0,0-.18-.71,19.59,19.59,0,0,0-1.83-1.7c-2-1.63-4.12-3.2-6.15-4.83a104.7,104.7,0,0,0-11-7.68c-1.81-1.11-4.33-1-5.5-3.22l-6.37-2-2.6-.78c-1.71-.76-3.44-1.47-5.11-2.29-.88-.43-1.1-.13-1.43.67-1.38,3.34-2.79,6.67-4.33,9.94a29.84,29.84,0,0,1-2.31,3.58l-1.59,2.45c-1.38,1.7-2.63,3.52-4.16,5.07a30,30,0,0,1-5.69,4.89c-3.45,2-7.16,3.64-10.78,5.4-1.75.85-3.54,1.64-5.31,2.45-1.23.26-2.45.58-3.69.77-2.61.41-5.37-.2-7.86,1.14a2.16,2.16,0,0,1-.82.08c-2.53.27-5.06.53-7.59.82a29.44,29.44,0,0,1-4.62.52,51.22,51.22,0,0,1-6.49-.93c-2.74-.51-5.47-1.06-8.18-1.73-3.9-1-7.37-3-10.95-4.71a21.56,21.56,0,0,1-6.39-4.47c-1.77-1.85-4.11-3-5.72-5.17-1.8-2.38-4.45-4.09-5.78-6.9l-.18-.26h0c-.54-1.35-1-2.75-1.66-4-.35-.66-1-1.53-1.65-1.6a9.54,9.54,0,0,0-3,.58l-.47.09-.32.17-.4.07-.34.16c-2.09.25-4.2.41-6.27.76-3.06.52-6.09,1.32-9.16,1.75q-6.17.85-12.37,1.31c-5.41.4-10.84.65-16.26.92-.75,0-1,.39-1,1.05,0,5.71-.1,11.42,0,17.13.07,5.51.32,11,.43,16.54.07,3.39-.19,6.8.09,10.17.46,5.35,1.07,10.71,1.94,16,.95,5.77,1.73,11.6,3.63,17.19a7.16,7.16,0,0,0,.92,1.78,39.36,39.36,0,0,1,2.43,3.26,62.65,62.65,0,0,1,4.49,8.83,73.93,73.93,0,0,1,2.32,9.88c.64,3,1.29,6.09,1.73,9.17,1.09,7.58,2.07,15.18,3.07,22.77.68,5.22,1.39,10.44,2,15.67.51,4.68.85,9.38,1.27,14.07.29,3.22.58,6.44.85,9.66.36,4.54.69,9.07,1.06,13.61.27,3.26.36,6.55.9,9.77A96.1,96.1,0,0,1,326.39,404c-.09,3.11.05,6.22.21,9.33s.73,6.42.21,9.66a3.24,3.24,0,0,0,.14,1.18c.35,1.75.68,3.51,1.1,5.25a1,1,0,0,0,.82.51c2.88-.06,5.75-.2,8.63-.28l27.19-.71c.75,0,1.5-.13,2.25-.2l1.67-.1c4.91.17,9.82.32,14.72.52s9.66.55,14.49.59c3.1,0,6.2-.4,9.3-.65,3.9-.31,7.79-.68,11.68-1s7.88-.62,11.82-.89c3.59-.24,7.17-.52,10.76-.63,3.88-.11,7.76-.06,11.64-.06,3.71,0,7.41,0,11.12.06l2.51.41.35.15.64.08.8.13,1.47.09,4.76.68a25.93,25.93,0,0,0-.73-5,8.55,8.55,0,0,1-.5-4.55,7.58,7.58,0,0,0,.09-2c-.12-1.63-.41-3.25-.45-4.88-.12-4.15-.12-8.31-.2-12.45-.17-8.27-.43-16.54-.5-24.81,0-4.18.29-8.37.37-12.56.09-4.72-.12-9.45.19-14.15.37-5.72,1.24-11.41,1.69-17.13.35-4.42.5-8.86.51-13.29,0-6.72-.19-13.45-.21-20.18,0-3.25.1-6.51.31-9.75a19.62,19.62,0,0,1,.92-3.62c-.13,4.11-.34,8.23-.37,12.34-.05,5.12-.39,10.28.2,15.34.82,7.18.37,14.29-.25,21.4-.85,9.8-1.77,19.58-1.61,29.45.12,7.46-.34,14.94-.26,22.41.1,8.8.48,17.59.77,26.38.06,1.75.33,3.5.43,5.26.05.86-.14,1.75-.09,2.62a29.4,29.4,0,0,0,.41,3.23c.14.83.46,1.62.54,2.45.14,1.3.15,2.62.21,4-1.53.83-3.17.25-4.75.15-7-.42-14-.94-20.94-1.34-2.39-.14-4.79-.08-7.18,0-2,0-3.91.19-5.87.32-9.17.62-18.34,1.3-27.51,1.86-7.38.45-14.77.93-22.16,1.08a77,77,0,0,1-10.12-1c-2.1-.23-4.19-.75-6.29-.8a44.26,44.26,0,0,0-6.17.51,227.06,227.06,0,0,1-26.46,1.19c-4,0-8,.11-12,.16a5.15,5.15,0,0,1-.64,0c-.28-1.67-.64-3.18-.76-4.71a51.05,51.05,0,0,1-.07-5.25c.06-2.3.28-4.61.27-6.91,0-3-.18-6.07-.26-9.11a95.79,95.79,0,0,0-1.76-15c-.8-4.31-1.22-8.71-1.61-13.08-.85-9.36-1.54-18.73-2.37-28.08-.6-6.77-1.18-13.55-2-20.29q-2-15.58-4.32-31.12c-.7-4.57-2-9-2.81-13.61s-3.38-8.28-6.18-11.86a4.72,4.72,0,0,1-.95-1.88c-1.5-7.11-3.09-14.2-4.34-21.35-.79-4.48-.89-9.07-1.58-13.57-.89-5.88,0-11.74-.2-17.61-.18-4.79-.33-9.59-.5-14.38a2,2,0,0,0-.22-.61Z" />
        <path class="color-shadow-dark"
            d="M489.37,206c-1.28,4.44-2.64,8.87-3.82,13.34-1.37,5.21-2.68,10.44-3.85,15.69-1.1,4.9-1.95,9.86-3,14.77-.58,2.77-1.52,5.48-1.87,8.28-.56,4.42-.92,8.88-1.07,13.33-.1,2.94.32,5.9.5,8.85l-.15,2.31h0l0,1.19a19.62,19.62,0,0,0-.92,3.62c-.21,3.24-.32,6.5-.31,9.75,0,6.73.24,13.46.21,20.18,0,4.43-.16,8.87-.51,13.29-.45,5.72-1.32,11.41-1.69,17.13-.31,4.7-.1,9.43-.19,14.15-.08,4.19-.41,8.38-.37,12.56.07,8.27.33,16.54.5,24.81.08,4.14.08,8.3.2,12.45,0,1.63.33,3.25.45,4.88a7.58,7.58,0,0,1-.09,2,8.55,8.55,0,0,0,.5,4.55,25.93,25.93,0,0,1,.73,5l-4.76-.68,0-2.52c-.08-4.47-.07-8.94-.26-13.41-.22-5-.73-9.92-.88-14.88-.09-2.9.34-5.8.39-8.7.08-4.5,0-9,.05-13.51.12-7.46.24-14.92.51-22.37.16-4.57.58-9.12.93-13.68.15-1.9.39-3.79.65-5.68.3-2.15.77-4.28,1-6.43.28-2.73.31-5.49.54-8.22a32,32,0,0,0-.69-11.48,31.28,31.28,0,0,1-1.28-12.73c.29-2.12.36-4.28.57-6.41.28-3,.62-5.92.89-8.89.14-1.54.16-3.09.25-4.64.08-1.26.11-2.52.27-3.77.14-1,.52-2.07.63-3.12s0-2.28.09-3.41c.17-1.81.48-3.61.67-5.43a59.28,59.28,0,0,1,3.93-16.26,31.25,31.25,0,0,0,1.59-5c1.24-5.6,2.25-11.26,3.62-16.83,1.13-4.64,2.62-9.19,4-13.76a23.49,23.49,0,0,1,1-2.37Z" />
        <polygon class="outline" points="476.14 282.56 476.14 282.57 476.23 282.56 476.14 282.56" />
        <path class="color-base"
            d="M488.34,204a23.49,23.49,0,0,0-1,2.37c-1.37,4.57-2.86,9.12-4,13.76-1.37,5.57-2.38,11.23-3.62,16.83a31.25,31.25,0,0,1-1.59,5,59.28,59.28,0,0,0-3.93,16.26c-.19,1.82-.5,3.62-.67,5.43-.1,1.13,0,2.29-.09,3.41s-.49,2.07-.63,3.12c-.16,1.25-.19,2.51-.27,3.77-.09,1.55-.11,3.1-.25,4.64-.27,3-.61,5.93-.89,8.89-.21,2.13-.28,4.29-.57,6.41a31.28,31.28,0,0,0,1.28,12.73,32,32,0,0,1,.69,11.48c-.23,2.73-.26,5.49-.54,8.22-.21,2.15-.68,4.28-1,6.43-.26,1.89-.5,3.78-.65,5.68-.35,4.56-.77,9.11-.93,13.68-.27,7.45-.39,14.91-.51,22.37-.07,4.5,0,9-.05,13.51-.05,2.9-.48,5.8-.39,8.7.15,5,.66,9.92.88,14.88.19,4.47.18,8.94.26,13.41l0,2.52-1.47-.09-.8-.13-.64-.08-.35-.15-2.51-.41c-.14-.12-.27-.33-.42-.35-1.57-.19-3.15-.44-4.74-.49-4.15-.13-8.3-.31-12.45-.23-6.85.13-13.7.43-20.55.69-3.34.12-6.68.33-10,.46-4.46.19-8.92.4-13.38.48-4.2.08-8.4,0-12.6,0-1.83,0-3.66.17-5.49.27-2.66.14-5.32.32-8,.42-1.78.06-3.58-.12-5.34.09-.82.1-1.92-.32-2.55.68l-1.67.1a5.37,5.37,0,0,0-1.27-.36c-6-.1-11.94.23-17.92.62-5,.33-10.05-.06-15.08-.18-.27,0-.75-.4-.75-.61,0-3.3,0-6.6,0-9.9,0-1.95.24-3.91.14-5.85-.23-4.57-.59-9.13-.91-13.69q-.24-3.39-.51-6.78c-.3-3.61-.57-7.21-.95-10.81-.29-2.88-.68-5.75-1.12-8.61-.34-2.19-1-4.35-1.22-6.55-.32-2.93-.35-5.88-.54-8.82-.07-1.19-.22-2.37-.37-3.55-.34-2.64-.72-5.28-1-7.91-.37-3-.68-5.92-1-8.88s-.74-5.91-1.13-8.86c-.44-3.22-.86-6.45-1.37-9.66-.7-4.39-1.59-8.76-2.18-13.16-.5-3.62-.54-7.29-1-10.91a37.7,37.7,0,0,0-4.48-13.16c-.91-1.65-1.58-3.29-.66-5.18a2.16,2.16,0,0,0,.12-1.05,18.65,18.65,0,0,0-3.77-9.93,53.85,53.85,0,0,1-8.17-15.2,37.1,37.1,0,0,1-1.64-9c-.19-3.28.31-6.59.36-9.89,0-3-.12-6.07-.22-9.09,0-1.32-.15-2.63-.22-3.94q-.37-7.76-.74-15.51c0-.51-.12-1-.12-1.54,0-2.74,0-5.48,0-8.37,3.33-.55,6.61-1.17,9.91-1.62,2.67-.36,5.37-.6,8.06-.73s5.29.07,7.92-.08c3.73-.2,7.45-.56,11.16-.92,2.37-.23,4.75-.46,7.09-.89,2.75-.49,2.72-.58,4.14,1.89a23.7,23.7,0,0,0,5.73,7.29c3.4,2.63,6.88,5.16,10.46,7.53a123.9,123.9,0,0,0,17,9.09,14.19,14.19,0,0,0,3.18,1c2.18.42,4.39.65,6.58,1.05a51.65,51.65,0,0,0,14,.9,42.41,42.41,0,0,0,11.53-2.37c3.86-1.46,7.74-2.91,11.54-4.52,2.48-1,4.85-2.37,7.25-3.61a12.86,12.86,0,0,0,1.69-1.27l3.37-1.92a42,42,0,0,0,4.19-2c3.77-2.22,7.47-4.55,11.21-6.83l14.35-8.73h.72c.07.1.12.23.21.29a64.86,64.86,0,0,1,11.29,9.36,23.8,23.8,0,0,0,3.8,3.06c1.41.91,2.82,1.69,2.95,3.6Z" />
        <path class="color-shadow-dark"
            d="M436.28,205.19a12.86,12.86,0,0,1-1.69,1.27c-2.4,1.24-4.77,2.56-7.25,3.61-3.8,1.61-7.68,3.06-11.54,4.52A42.41,42.41,0,0,1,404.27,217a51.65,51.65,0,0,1-14-.9c-2.19-.4-4.4-.63-6.58-1.05a14.19,14.19,0,0,1-3.18-1,123.9,123.9,0,0,1-17-9.09c-3.58-2.37-7.06-4.9-10.46-7.53a23.7,23.7,0,0,1-5.73-7.29c-1.42-2.47-1.39-2.38-4.14-1.89-2.34.43-4.72.66-7.09.89-3.71.36-7.43.72-11.16.92-2.63.15-5.28,0-7.92.08s-5.39.37-8.06.73c-3.3.45-6.58,1.07-9.91,1.62,0,2.89,0,5.63,0,8.37,0,.51.1,1,.12,1.54q.38,7.76.74,15.51c.07,1.31.18,2.62.22,3.94.1,3,.26,6.06.22,9.09-.05,3.3-.55,6.61-.36,9.89a37.1,37.1,0,0,0,1.64,9,53.85,53.85,0,0,0,8.17,15.2,18.65,18.65,0,0,1,3.77,9.93,2.16,2.16,0,0,1-.12,1.05c-.92,1.89-.25,3.53.66,5.18a37.7,37.7,0,0,1,4.48,13.16c.5,3.62.54,7.29,1,10.91.59,4.4,1.48,8.77,2.18,13.16.51,3.21.93,6.44,1.37,9.66.39,3,.77,5.91,1.13,8.86s.67,5.92,1,8.88c.32,2.63.7,5.27,1,7.91.15,1.18.3,2.36.37,3.55.19,2.94.22,5.89.54,8.82.23,2.2.88,4.36,1.22,6.55.44,2.86.83,5.73,1.12,8.61.38,3.6.65,7.2.95,10.81q.27,3.39.51,6.78c.32,4.56.68,9.12.91,13.69.1,1.94-.12,3.9-.14,5.85,0,3.3-.05,6.6,0,9.9,0,.21.48.61.75.61,5,.12,10.08.51,15.08.18,6-.39,11.94-.72,17.92-.62a5.37,5.37,0,0,1,1.27.36c-.75.07-1.5.18-2.25.2l-27.19.71c-2.88.08-5.75.22-8.63.28a1,1,0,0,1-.82-.51c-.42-1.74-.75-3.5-1.1-5.25a3.24,3.24,0,0,1-.14-1.18c.52-3.24,0-6.44-.21-9.66s-.3-6.22-.21-9.33a96.1,96.1,0,0,0-1.78-18.92c-.54-3.22-.63-6.51-.9-9.77-.37-4.54-.7-9.07-1.06-13.61-.27-3.22-.56-6.44-.85-9.66-.42-4.69-.76-9.39-1.27-14.07-.58-5.23-1.29-10.45-2-15.67-1-7.59-2-15.19-3.07-22.77-.44-3.08-1.09-6.13-1.73-9.17a73.93,73.93,0,0,0-2.32-9.88,62.65,62.65,0,0,0-4.49-8.83,39.36,39.36,0,0,0-2.43-3.26,7.16,7.16,0,0,1-.92-1.78c-1.9-5.59-2.68-11.42-3.63-17.19-.87-5.31-1.48-10.67-1.94-16-.28-3.37,0-6.78-.09-10.17-.11-5.52-.36-11-.43-16.54-.06-5.71,0-11.42,0-17.13,0-.66.21-1,1-1.05,5.42-.27,10.85-.52,16.26-.92q6.19-.47,12.37-1.31c3.07-.43,6.1-1.23,9.16-1.75,2.07-.35,4.18-.51,6.27-.76l.34-.16.4-.07.32-.17.47-.09a11.19,11.19,0,0,1,1,1.62,5.1,5.1,0,0,0,5.33,3.44h0l.18.26c1.33,2.81,4,4.52,5.78,6.9,1.61,2.15,4,3.32,5.72,5.17a21.56,21.56,0,0,0,6.39,4.47c3.58,1.73,7.05,3.75,10.95,4.71,2.71.67,5.44,1.22,8.18,1.73a51.22,51.22,0,0,0,6.49.93,29.44,29.44,0,0,0,4.62-.52c2.53-.29,5.06-.55,7.59-.82a2.16,2.16,0,0,0,.82-.08c2.49-1.34,5.25-.73,7.86-1.14,1.24-.19,2.46-.51,3.69-.77a7.52,7.52,0,0,0,2.43.17c3.33-.88,6.62-1.92,9.94-2.86C432.76,206,434.53,205.62,436.28,205.19Z" />
        <path class="color-shadow"
            d="M436.28,205.19c-1.75.43-3.52.83-5.26,1.32-3.32.94-6.61,2-9.94,2.86a7.52,7.52,0,0,1-2.43-.17c1.77-.81,3.56-1.6,5.31-2.45,3.62-1.76,7.33-3.36,10.78-5.4a30,30,0,0,0,5.69-4.89c1.53-1.55,2.78-3.37,4.16-5.07.37,0,.81.13,1.08,0,2.34-1.42,4.63-2.94,7-4.35,3.22-1.91,6.14-4.41,10-5.14.91-.17.48-.81.06-1.21s-1.12-1-1.62-1.38l.86-1.46,6.37,2c1.17,2.18,3.69,2.11,5.5,3.22a104.7,104.7,0,0,1,11,7.68c2,1.63,4.11,3.2,6.15,4.83a19.59,19.59,0,0,1,1.83,1.7.8.8,0,0,1,.18.71c-1.19,2.69-2.41,5.37-3.63,8.05l-1-2,0-1.91c.55-1.62,1.14-3.23,1.62-4.87.06-.21-.39-.64-.68-.88-1.81-1.48-3.62-3-5.47-4.4q-5-3.9-10.13-7.73a1.21,1.21,0,0,0-1-.14c-.88.5-1.7,1.13-2.54,1.71h-.72c-1.38-1.05-2.77-2.09-4.13-3.16-.82-.65-1.43-.49-2.18.2-2.06,1.86-4.19,3.65-6.32,5.43s-4.45,3.59-6.64,5.41c-2.94,2.43-5.87,4.86-8.74,7.37a14.06,14.06,0,0,0-1.74,2.27Z" />
        <path class="color-shadow-dark"
            d="M368.61,428.66c.63-1,1.73-.58,2.55-.68,1.76-.21,3.56,0,5.34-.09,2.66-.1,5.32-.28,8-.42,1.83-.1,3.66-.25,5.49-.27,4.2,0,8.4.05,12.6,0,4.46-.08,8.92-.29,13.38-.48,3.35-.13,6.69-.34,10-.46,6.85-.26,13.7-.56,20.55-.69,4.15-.08,8.3.1,12.45.23,1.59.05,3.17.3,4.74.49.15,0,.28.23.42.35-3.71,0-7.41-.05-11.12-.06-3.88,0-7.76-.05-11.64.06-3.59.11-7.17.39-10.76.63q-5.91.4-11.82.89c-3.89.31-7.78.68-11.68,1-3.1.25-6.2.67-9.3.65-4.83,0-9.66-.4-14.49-.59S373.52,428.83,368.61,428.66Z" />
        <path class="color-base"
            d="M446.18,188.94a29.84,29.84,0,0,0,2.31-3.58c1.54-3.27,2.95-6.6,4.33-9.94.33-.8.55-1.1,1.43-.67,1.67.82,3.4,1.53,5.11,2.29l1.33,2.07a1.6,1.6,0,0,1-.28.31c-3.51,2.4-7,4.8-10.54,7.18C448.67,187.42,447.41,188.17,446.18,188.94Z" />
        <path class="color-shadow-dark"
            d="M446.18,188.94c1.23-.77,2.49-1.52,3.69-2.34,3.53-2.38,7-4.78,10.54-7.18a1.6,1.6,0,0,0,.28-.31L459.36,177l2.6.78-.86,1.46c.5.42,1.08.87,1.62,1.38s.85,1-.06,1.21c-3.86.73-6.78,3.23-10,5.14-2.36,1.41-4.65,2.93-7,4.35-.27.16-.71,0-1.08,0Z" />
        <path class="color-shadow"
            d="M350.4,188.36a5.1,5.1,0,0,1-5.33-3.44,11.19,11.19,0,0,0-1-1.62,9.54,9.54,0,0,1,3-.58c.62.07,1.3.94,1.65,1.6C349.41,185.61,349.86,187,350.4,188.36Z" />
        <path class="color-shadow-dark" d="M467.64,427.25l.8.13Z" />
        <path class="color-shadow" d="M343.63,183.39l-.32.17Z" />
        <path class="color-shadow" d="M342.91,183.63l-.34.16Z" />
        <path class="color-shadow" d="M350.56,188.62l-.18-.26Z" />
        <path class="color-shadow-dark" d="M466.65,427l.35.15Z" />
        <path class="color-shadow-dark"
            d="M439.65,203.27a14.06,14.06,0,0,1,1.74-2.27c2.87-2.51,5.8-4.94,8.74-7.37,2.19-1.82,4.45-3.58,6.64-5.41s4.26-3.57,6.32-5.43c.75-.69,1.36-.85,2.18-.2,1.36,1.07,2.75,2.11,4.13,3.16l-14.35,8.73c-3.74,2.28-7.44,4.61-11.21,6.83A42,42,0,0,1,439.65,203.27Z" />
        <path class="color-shadow-dark"
            d="M470.12,185.75c.84-.58,1.66-1.21,2.54-1.71a1.21,1.21,0,0,1,1,.14q5.09,3.82,10.13,7.73c1.85,1.43,3.66,2.92,5.47,4.4.29.24.74.67.68.88-.48,1.64-1.07,3.25-1.62,4.87-.13-1.91-1.54-2.69-2.95-3.6a23.8,23.8,0,0,1-3.8-3.06A64.86,64.86,0,0,0,470.33,186C470.24,186,470.19,185.85,470.12,185.75Z" />
    </g>
</svg>
