<svg id="Nizy_pryamoy" data-name="Nizy pryamoy" xmlns="http://www.w3.org/2000/svg" viewBox="0 0 672 960">
    <g id="Midi_Pryamoy" data-name="Midi Pryamoy">
        <g id="Kashkorse_img" data-name="Kashkorse img">
            <path class="outline"
                d="M307,490.54c3.56.57,6.86,1.07,10.16,1.62a232.88,232.88,0,0,0,25,2.73c12,.65,24,1.48,35.92,2.18,7.26.42,14.54.73,21.8,1.12,7.43.39,14.85.93,22.28,1.18,3.67.12,7.35-.24,11-.44,9.1-.49,18.2-1,27.3-1.55,6.74-.42,13.41.31,20.08,1.1,4.2.49,8.4,1,12.52-.19,1.83,2.51,3.46,16.82,2.6,21.6-6.65,4.54-14.08,5.67-21.77,5.86-12.54.29-25.09.53-37.63,1-8.38.31-16.76.87-25.12,1.55a189.77,189.77,0,0,1-38-.6c-13.83-1.65-27.44-4.45-41.08-7.12-6.35-1.24-12.67-2.63-19-3.92a12.64,12.64,0,0,0-2.61-.17c-2.1,0-2.86-.51-3.33-2.6a9.68,9.68,0,0,1-.3-2.13C306.88,504.76,307,497.75,307,490.54Zm46,6.58-1.18-.21-1.94,0c-6.92-.65-13.82-1.6-20.8-1.36a14.2,14.2,0,0,1-3.57-.27c-5.2-1.15-10.63-1.16-15.66-3.31a4.07,4.07,0,0,0-.26.86c0,4.8-.05,9.6,0,14.39a22.41,22.41,0,0,0,.47,3.81,3.63,3.63,0,0,0,3.12,3.18c2.9.56,5.77,1.28,8.67,1.84,15.52,3,30.95,6.53,46.65,8.52,6.57.83,13.17,1.5,19.78,2,10,.69,19.95-.45,29.92-.94,9.09-.44,18.18-.88,27.28-1.21,7.58-.28,15.17-.32,22.75-.62,4.55-.18,9.09-.54,13.61-1a33.46,33.46,0,0,0,11.9-3.75c-.89-6.16-1.75-12.13-2.59-18-2.12-1.13-4.31-.87-6.45-1l-13.39-.79-6-.08-2.13-.24-1.46-.06a21.37,21.37,0,0,0-2.39-.12q-8.23.54-16.47,1.16c-2.06.15-4.11.38-6.17.57l-10,.36a.52.52,0,0,0-.47,0h-1.48l-8.11-.06-14.17-.2-1.67-.28c-12-.88-24-1.79-36.07-2.62C360.81,497.32,356.91,497.27,353,497.12Z" />
            <path class="color-shadow-dark"
                d="M471.33,499.14l13.39.79c2.14.13,4.33-.13,6.45,1,.84,5.9,1.7,11.87,2.59,18a33.46,33.46,0,0,1-11.9,3.75c-4.52.49-9.06.85-13.61,1-7.58.3-15.17.34-22.75.62-9.1.33-18.19.77-27.28,1.21-10,.49-19.93,1.63-29.92.94-6.61-.46-13.21-1.13-19.78-2-15.7-2-31.13-5.54-46.65-8.52-2.9-.56-5.77-1.28-8.67-1.84a3.63,3.63,0,0,1-3.12-3.18,22.41,22.41,0,0,1-.47-3.81c-.06-4.79,0-9.59,0-14.39a4.07,4.07,0,0,1,.26-.86c5,2.15,10.46,2.16,15.66,3.31a14.2,14.2,0,0,0,3.57.27c7-.24,13.88.71,20.8,1.36-.41.28-.79.74-1.23.81-.86.14-1.75,0-2.62.07-4.19.3-8.37.72-12.55.9a68.24,68.24,0,0,1-15.89-.95c-1-.18-1.94-.32-3-.49-.27,1.73-.58,3.12-.68,4.52s0,3,0,4.54c0,2.2.32,2.61,2.4,3.2a12.91,12.91,0,0,0,1.88.29c2.72,1,5.42,2,8.18,2.81a51.67,51.67,0,0,0,5.27,1c.39.31.74.8,1.18.91,2.3.61,4.61,1.22,6.95,1.65,5.54,1,11,2.5,16.67,2.71,2,.07,4,.32,5.93.54,2.53.26,5,.6,7.56.86,3.56.37,7.11.7,10.67,1.05,3.08.29,6.15.6,9.24.87a18.07,18.07,0,0,1,2.86.07c3.12.77,6.15-.13,9.2-.39,2.84-.24,5.66-1,8.49-1a74,74,0,0,1,11.71.32,96.58,96.58,0,0,0,11.68.56q6.84.12,13.67,0a59.22,59.22,0,0,0,6.65-.55c5.5-.72,11-1.6,16.49-2.27a104.58,104.58,0,0,0,14.06-2.41c2.65-.69,3-1,3-3.71-.05-2.54-.24-5.08-.53-7.61-.15-1.25-.53-2.53-2-2.95a38.84,38.84,0,0,0-3.88-1.12c-2.66-.41-5.35-.66-8-1C472.38,500.06,471.45,500.35,471.33,499.14Z" />
            <path class="color-shadow"
                d="M318.16,509.78a12.91,12.91,0,0,1-1.88-.29c-2.08-.59-2.37-1-2.4-3.2,0-1.51-.08-3,0-4.54s.41-2.79.68-4.52c1.07.17,2,.31,3,.49a68.24,68.24,0,0,0,15.89.95c4.18-.18,8.36-.6,12.55-.9.87-.06,1.76.07,2.62-.07.44-.07.82-.53,1.23-.81l1.94,0,1.18.21c3.9.15,7.8.2,11.7.47,12,.83,24,1.74,36.07,2.62l1.67.28,14.17.2a17.5,17.5,0,0,0,8.11.06h1.48l.47,0,10-.35c.44,1,1.34.76,2.08.7,3.86-.26,7.72-.6,11.57-.87,3.16-.22,6.32-.36,9.48-.55.74-.05,1.68.27,1.9-.9l1.46.06,2.13.24,6,.08c.12,1.21,1.05.92,1.81,1,2.68.29,5.37.54,8,1a38.84,38.84,0,0,1,3.88,1.12c1.51.42,1.89,1.7,2,2.95.29,2.53.48,5.07.53,7.61,0,2.7-.35,3-3,3.71a104.58,104.58,0,0,1-14.06,2.41c-5.51.67-11,1.55-16.49,2.27a59.22,59.22,0,0,1-6.65.55q-6.82.13-13.67,0a96.58,96.58,0,0,1-11.68-.56,74,74,0,0,0-11.71-.32c-2.83.06-5.65.81-8.49,1-3.05.26-6.08,1.16-9.2.39a18.07,18.07,0,0,0-2.86-.07c-3.09-.27-6.16-.58-9.24-.87-3.56-.35-7.11-.68-10.67-1.05-2.52-.26-5-.6-7.56-.86-2-.22-3.95-.47-5.93-.54-5.67-.21-11.13-1.7-16.67-2.71-2.34-.43-4.65-1-6.95-1.65-.44-.11-.79-.6-1.18-.91,2.68.32,5.36.61,8,1,4.24.58,8.48,1.19,12.71,1.86s8.6,1.51,12.92,2.13a80,80,0,0,0,10.88,1.16c11.66,0,23.32.41,35-.41,3.26-.23,6.52-.31,9.78-.52,2-.13,4-.36,5.93-.58,3.7-.42,7.4-.9,11.1-1.31,2.13-.23,4.28-.33,6.41-.56,2.29-.25,4.56-.65,6.85-.86,2.61-.24,5.24-.33,7.85-.52,2.22-.16,4.44-.35,6.65-.59s4.56-.59,6.85-.82,4.46-.2,6.65-.53,4.29-1,6.32-1.45c.41-4,0-4.72-3.24-5.81-.83-.28-1.64-.62-2.46-.93a36.25,36.25,0,0,0-11.8-2.75,270.11,270.11,0,0,0-27.29.44c-1.66.12-3.32.36-5,.55-2.6.28-5.2.68-7.81.84-4.13.25-8.27.35-12.41.51-.32,0-.64.08-.95.1-2.23.12-4.46.41-6.67.31-4.36-.19-8.72-.58-13.08-.9-2.14-.16-4.3-.21-6.41-.57q-6.45-1.1-12.85-2.48a90.93,90.93,0,0,0-16.1-1.65,114.73,114.73,0,0,0-16.26.29c-5.38.56-10.83.43-16.25.56-2.4.06-4.8,0-7.2,0-.61,0-1.22.14-1.9.22a19.75,19.75,0,0,0-.13,2C317.85,504.86,318,507.32,318.16,509.78Z" />
            <path class="color-shadow-dark"
                d="M461.73,498.76c-.22,1.17-1.16.85-1.9.9-3.16.19-6.32.33-9.48.55-3.85.27-7.71.61-11.57.87-.74.06-1.64.26-2.08-.7,2.06-.2,4.11-.43,6.17-.58q8.24-.62,16.47-1.16A21.37,21.37,0,0,1,461.73,498.76Z" />
            <path class="color-shadow-dark" d="M424.73,500.75a17.5,17.5,0,0,1-8.11-.06Z" />
            <path class="color-shadow-dark" d="M465.32,499.06l-2.13-.24Z" />
            <path class="color-shadow-dark" d="M402.45,500.49l-1.67-.28Z" />
            <path class="color-shadow-dark" d="M353,497.12l-1.18-.21Z" />
            <path class="color-shadow-dark" d="M426.68,500.73l-.47,0A.52.52,0,0,1,426.68,500.73Z" />
            <path class="color-base"
                d="M318.16,509.78c-.15-2.46-.31-4.92-.43-7.38a19.75,19.75,0,0,1,.13-2c.68-.08,1.29-.21,1.9-.22,2.4,0,4.8,0,7.2,0,5.42-.13,10.87,0,16.25-.56a114.73,114.73,0,0,1,16.26-.29,90.93,90.93,0,0,1,16.1,1.65q6.39,1.4,12.85,2.48c2.11.36,4.27.41,6.41.57,4.36.32,8.72.71,13.08.9,2.21.1,4.44-.19,6.67-.31.31,0,.63-.08.95-.1,4.14-.16,8.28-.26,12.41-.51,2.61-.16,5.21-.56,7.81-.84,1.65-.19,3.31-.43,5-.55a270.11,270.11,0,0,1,27.29-.44,36.25,36.25,0,0,1,11.8,2.75c.82.31,1.63.65,2.46.93,3.21,1.09,3.65,1.81,3.24,5.81-2,.48-4.15,1.12-6.32,1.45s-4.44.32-6.65.53-4.56.58-6.85.82-4.43.43-6.65.59c-2.61.19-5.24.28-7.85.52-2.29.21-4.56.61-6.85.86-2.13.23-4.28.33-6.41.56-3.7.41-7.4.89-11.1,1.31-2,.22-3.95.45-5.93.58-3.26.21-6.52.29-9.78.52-11.65.82-23.31.45-35,.41a80,80,0,0,1-10.88-1.16c-4.32-.62-8.61-1.45-12.92-2.13s-8.47-1.28-12.71-1.86c-2.67-.38-5.35-.67-8-1a51.67,51.67,0,0,1-5.27-1C323.58,511.77,320.88,510.73,318.16,509.78Z" />
        </g>
    </g>
</svg>
