<svg id="Nizy_pryamoy" data-name="Nizy pryamoy" xmlns="http://www.w3.org/2000/svg" viewBox="0 0 672 960">
    <g id="Midi_Pryamoy" data-name="Midi Pryamoy">
        <g id="img_19_img" data-name="img 19 img">
            <path class="outline"
                d="M489.7,493.31a.68.68,0,0,1,.31.14l.65.34a.61.61,0,0,1,.31.13l2.73.83c.07.35.15.72.23,1.09-.57,1.56-1.11,3.12-1.7,4.67-.79,2.09-1.68,4.14-2.41,6.25-1.09,3.15-2.13,3.95-5.53,4.28a109.58,109.58,0,0,1-18.65,0c-4.62-.33-9.26-.29-13.89-.49-7.74-.33-15.47-.71-23.2-1.09-11.17-.56-22.32-1.6-33.51-1.12-7.49.32-15,1.05-22.45,1.59-1.91.14-3.82.23-5.73.39a21.68,21.68,0,0,0-3.32.42,137.58,137.58,0,0,1-23,3,51.2,51.2,0,0,1-15.23-1.33,32.42,32.42,0,0,1-3.37-1.23c-1.95-.69-3.87-1.47-5.86-2-2.41-.65-4.06-2.08-4.41-4.5a39.85,39.85,0,0,0-2.95-9.08c-1-2.45-1.88-4.92-2.75-7.41-.35-1-.93-2.08.3-3.07,1,.54,1,1.62,1.45,2.4l1.49.5a.52.52,0,0,1,.34.09l1.07.42a.72.72,0,0,1,.35.11l1,.41h0l1.06.42a.6.6,0,0,1,.34.11l1.05.41a1,1,0,0,1,.38.1c3.42.61,6.82,1.39,10.26,1.79a31,31,0,0,0,5.66-.38l1.86-.05,10.62-1.39L344,490c4.09-.37,8.18-.71,12.26-1.11,1.87-.18,3.74-.47,5.61-.71l6.18-.06a13.49,13.49,0,0,0,1.41.15q12.54,0,25.08,0a11.27,11.27,0,0,0,1.41-.16l17.71.05a11.46,11.46,0,0,0,2.06.38c8.4,0,16.79,0,25.19.06h2v.48c-6.29,0-12.58-.05-18.87,0-21,.17-42.05-.62-63.07.73-9.34.59-18.6,1.68-27.87,2.82a76.6,76.6,0,0,1-9.81.54,25,25,0,0,1-9.27-2.18,34.59,34.59,0,0,0-4.58-1.4c-.31-.08-1,.11-1,.31a1.38,1.38,0,0,0,.2,1.22,8.75,8.75,0,0,0,3.08,1.69c5.34.94,10.72,2,16.17,1.56,6.13-.49,12.22-1.43,18.35-1.84,7.57-.51,15.16-.75,22.75-1,3-.09,5.91.35,8.86.28,6.63-.16,13.25-.53,19.88-.73,8.15-.25,16.3-.37,24.45-.63q7.43-.24,14.84,0c9.59.27,19.18-.07,28.75.95,7.05.75,13.89,2.06,20.23,5.44a8.67,8.67,0,0,0,3.42.85c1.72.11,1.77,0,2-2-2-1-3.94-2.15-6-3.05a27.59,27.59,0,0,0-5.4-1.86c-3.47-.7-7-1.15-10.23-1.66.6,0,1.48,0,2.35,0l9.8.31a.48.48,0,0,1,.34.13l.6.37a.63.63,0,0,1,.34.16l.56.35h0l.6.39a.61.61,0,0,1,.3.15l2.07.85a.61.61,0,0,1,.32.13l.65.33a.6.6,0,0,1,.32.12l.67.33a.52.52,0,0,1,.3.14Zm-40,10.16,0,0c.23,1.7.47,3.41.72,5.25h15.46v-3.36c1.16,1.38,1.9,2.93,3.1,3.51s3,.31,4.43.4l-.19-6.25h0c.29.32.77.59.85.95.36,1.69.61,3.4.92,5.25,2.48.18,4.9.29,7.21-.77.1-.79.19-1.51.33-2.59.55.66.82,1,1.15,1.36,1,1,1.78,1,2.56-.05,1.64-2.24,2.6-4.81,3.9-7.59a10,10,0,0,1-6.41-1.77c-.54-.33-1.13-.58-1.7-.86l-2-.71a53.37,53.37,0,0,0-6.75-2.24,57.3,57.3,0,0,0-9.5-1.13c-10.47-.32-20.95-.49-31.42-.65-3.28-.05-6.56.09-9.83.18-3.84.12-7.67.34-11.5.43-7,.15-13.91.23-20.87.37-2.24,0-4.47.16-6.71.24-3.23,0-6.47-.06-9.7-.05-2,0-4.09.12-6.13.18l-.91,0c-.87-.05-1.74-.16-2.61-.13-2.07.07-4.14.29-6.21.32a220,220,0,0,0-22.63,1.8,62.39,62.39,0,0,1-9.51.87c-4.44-.17-8.86-.92-13.29-1.43l-1.8-.18c-.09.32-.21.5-.17.61,1.12,2.89,2.21,5.79,3.41,8.65a2.71,2.71,0,0,0,1.36,1.22,19.46,19.46,0,0,0,2.75.71l.39.11-.11-.39.54-.63a5.43,5.43,0,0,1,1.11,1.2c.78,1.7,2.25,2.26,4.25,2.79-.27-1.42-.48-2.57-.69-3.71v-.87h.19l.19,0c.34.6.68,1.2,1,1.8a14.93,14.93,0,0,0,1.23,2.58,3.46,3.46,0,0,0,1.79,1.36,69.45,69.45,0,0,0,12.69,1.36c.23-.91.43-1.66.62-2.41.38-1,.75-1.94,1.12-2.91l.35.11c-.07,1.55-.14,3.1-.22,4.75a14.57,14.57,0,0,1,1.76,0c2.35.32,3.71-.73,4.45-2.93a22.26,22.26,0,0,1,1.56-3.08l.32.16c-.28,1.68-.55,3.37-.89,5.41l8.38-1v-5.24a9.43,9.43,0,0,1,1.58,2.89c.87,2.21,1.39,2.39,3.66,1.22-.15-.77-.3-1.54-.46-2.31l0,0a2.58,2.58,0,0,0,.39,0c.74,1,1.18,2.45,2.73,2.36,2.77-.16,5.52-.47,8.5-.74l-.81-1.69c-.28-1.27-.56-2.54-.85-3.81l-.07-1.55,1.06,1.11a16.29,16.29,0,0,0,3.17,5.67l3.12-.47c.08-1.06.15-2,.26-3.36l2,3.24c3.26-.14,6.37-.2,9.46-.45.68-.05,1.35-.73,2-1.19.78-.59,1.24-1.58,2.5-2l-.85,2.88c4.07.8,4.81.58,7.2-2a3,3,0,0,1,.58-.4l0,0-.4,2.72h9.08v-1.76l0,0c.22,0,.54,0,.66.18,1.7,2.09,4,2.19,6.47,2.26,3.88.13,7.75.52,11.63.75,1.37.08,2.76,0,4.33,0l-1.4-5.61v-1.7l1.24,1.75c.62,1.46,1.23,2.93,1.86,4.39a2.39,2.39,0,0,0,2.49,1.43c2.08,0,4.14.23,6.22.31.92,0,1.84-.09,2.85-.14l.88-5a.31.31,0,0,0,.22-.22Z" />
            <path class="color-shadow-dark"
                d="M482,489.5l-9.8-.31c-.87,0-1.75,0-2.35,0,3.24.51,6.76,1,10.23,1.66a27.59,27.59,0,0,1,5.4,1.86c2,.9,4,2,6,3.05-.22,1.95-.27,2.1-2,2a8.67,8.67,0,0,1-3.42-.85c-6.34-3.38-13.18-4.69-20.23-5.44-9.57-1-19.16-.68-28.75-.95q-7.43-.21-14.84,0c-8.15.26-16.3.38-24.45.63-6.63.2-13.25.57-19.88.73-2.95.07-5.91-.37-8.86-.28-7.59.21-15.18.45-22.75,1-6.13.41-12.22,1.35-18.35,1.84-5.45.42-10.83-.62-16.17-1.56a8.75,8.75,0,0,1-3.08-1.69,1.38,1.38,0,0,1-.2-1.22c0-.2.7-.39,1-.31a34.59,34.59,0,0,1,4.58,1.4,25,25,0,0,0,9.27,2.18,76.6,76.6,0,0,0,9.81-.54c9.27-1.14,18.53-2.23,27.87-2.82,21-1.35,42-.56,63.07-.73,6.29-.06,12.58,0,18.87,0v-.48h-2c-8.4,0-16.79,0-25.19-.06a11.46,11.46,0,0,1-2.06-.38c1.91-.05,3.81-.13,5.72-.14,9.33,0,18.67-.2,28-.06,10.45.16,20.89.59,31.33.94A24.16,24.16,0,0,1,482,489.5Z" />
            <path class="color-shadow-dark"
                d="M396,488.14a11.27,11.27,0,0,1-1.41.16q-12.54,0-25.08,0a13.49,13.49,0,0,1-1.41-.15c3.25-.11,6.51-.31,9.77-.32,5.57,0,11.15.08,16.73.14A10.94,10.94,0,0,1,396,488.14Z" />
            <path class="color-shadow-dark"
                d="M361.91,488.2c-1.87.24-3.74.53-5.61.71-4.08.4-8.17.74-12.26,1.11a2.15,2.15,0,0,1,.64-.29q8.26-.86,16.54-1.68A2.52,2.52,0,0,1,361.91,488.2Z" />
            <path class="color-shadow-dark"
                d="M330.71,491.55a31,31,0,0,1-5.66.38c-3.44-.4-6.84-1.18-10.26-1.79A80.17,80.17,0,0,0,330.71,491.55Z" />
            <path class="color-shadow-dark" d="M343.19,490.11l-10.62,1.39Z" />
            <path class="color-shadow-dark" d="M493.93,495.84c-.08-.37-.16-.74-.23-1.09l-2.73-.83h3.56Z" />
            <path class="color-shadow-dark" d="M486.8,491.9l-2.07-.85Z" />
            <path class="color-shadow-dark" d="M309.19,488.07l-1.49-.5Z" />
            <path class="color-shadow-dark" d="M310.6,488.58l-1.07-.42Z" />
            <path class="color-shadow-dark" d="M312,489.1l-1-.41Z" />
            <path class="color-shadow-dark" d="M313,489.52,312,489.1Z" />
            <path class="color-shadow-dark" d="M314.41,490l-1.05-.41Z" />
            <path class="color-shadow-dark" d="M488.76,492.81l-.67-.33Z" />
            <path class="color-shadow-dark" d="M490.66,493.79l-.65-.34Z" />
            <path class="color-shadow-dark" d="M487.77,492.36l-.65-.33Z" />
            <path class="color-shadow-dark" d="M484.43,490.9l-.6-.39Z" />
            <path class="color-shadow-dark" d="M483.83,490.51l-.56-.35Z" />
            <path class="color-shadow-dark" d="M482.93,490l-.6-.37Z" />
            <path class="color-shadow-dark" d="M489.7,493.31l-.64-.36Z" />
            <path class="color-base"
                d="M383.48,493.47c2.24-.08,4.47-.2,6.71-.24,7-.14,13.91-.22,20.87-.37,3.83-.09,7.66-.31,11.5-.43,3.27-.09,6.55-.23,9.83-.18,10.47.16,20.95.33,31.42.65a57.3,57.3,0,0,1,9.5,1.13,53.37,53.37,0,0,1,6.75,2.24l2,.71c-.21,1.24-.35,2.5-.65,3.71-.11.47-.55,1.16-.92,1.22-2.33.37-4.68,1.45-7.13-.24l-.11,1.38h0c-3.71.16-7.42.38-11.14.45-4.12.08-8.25,0-12.38,0l0,0-.49,0a.31.31,0,0,1-.22.22c-1.39-.2-2.78-.51-4.18-.59-3.37-.21-6.74-.31-10.12-.45l-1.24-1.75v1.7l-13.12-.49a2.42,2.42,0,0,1-.47,0c-3.82-1-7.56.14-11.33.41a60.84,60.84,0,0,1-6.16.49c-3.4-.13-6.78-.75-10.18-.82-6.14-.13-12.29,0-18.43,0L372.73,501c0,.62,0,1.09.07,1.55-4.05.17-8.11.18-12.14.57a88.15,88.15,0,0,1-11.13.86c-5-.16-10-.15-15-.55a69.8,69.8,0,0,1-8.57-1.75l1.36-1.11c4.73-.91,9.51-1.63,14.19-2.76,6.71-1.62,13.38-3.28,20.37-3a21.88,21.88,0,0,0,4.23-.54c.24,0,.43-.41.64-.63l.91,0a4.63,4.63,0,0,0,1.12.29q6.59,0,13.15,0A6.89,6.89,0,0,0,383.48,493.47Z" />
            <path class="color-shadow"
                d="M327.31,500.58,326,501.69a69.8,69.8,0,0,0,8.57,1.75c5,.4,10,.39,15,.55a88.15,88.15,0,0,0,11.13-.86c4-.39,8.09-.4,12.14-.57.29,1.27.57,2.54.85,3.81l-10.42.07a2.58,2.58,0,0,1-.39,0l-.08-.1.1.08c.16.77.31,1.54.46,2.31-2.27,1.17-2.79,1-3.66-1.22a9.43,9.43,0,0,0-1.58-2.89v5.24l-8.38,1c.34-2,.61-3.73.89-5.41l-.32-.16a22.26,22.26,0,0,0-1.56,3.08c-.74,2.2-2.1,3.25-4.45,2.93a14.57,14.57,0,0,0-1.76,0c.08-1.65.15-3.2.22-4.75l-.35-.11c-.37,1-.74,1.94-1.12,2.91a26.76,26.76,0,0,1-2.83-.23c-4.5-.86-9-1.77-13.5-2.66-.33-.6-.67-1.2-1-1.8-.06-.11-.12-.23-.19-.34l-.19.33v.87c-2.15-.78-4.36-1.41-6.4-2.39-1.55-.75-1.78-1.73-1.37-3.36,3.53.85,7.11,1.41,10.74.5C326.72,500.14,327,500.44,327.31,500.58Z" />
            <path class="color-shadow"
                d="M373.79,502.12c6.14,0,12.29-.13,18.43,0,3.4.07,6.78.69,10.18.82a60.84,60.84,0,0,0,6.16-.49c3.77-.27,7.51-1.39,11.33-.41a2.42,2.42,0,0,0,.47,0l13.12.49,1.4,5.61c-1.57,0-3,.07-4.33,0-3.88-.23-7.75-.62-11.63-.75-2.44-.07-4.77-.17-6.47-2.26-.12-.14-.44-.13-.66-.18a.55.55,0,0,0-.06-.18s-.07,0-.11,0l.2.18v1.76h-9.08l.4-2.72.13-.18-.1.21a3,3,0,0,0-.58.4c-2.39,2.61-3.13,2.83-7.2,2l.85-2.88c-1.26.43-1.72,1.42-2.5,2-.61.46-1.28,1.14-2,1.19-3.09.25-6.2.31-9.46.45l-2-3.24c-.11,1.39-.18,2.3-.26,3.36l-3.12.47A16.29,16.29,0,0,1,373.79,502.12Z" />
            <path class="color-shadow-dark"
                d="M327.31,500.58c-.27-.14-.59-.44-.81-.39-3.63.91-7.21.35-10.74-.5-.41,1.63-.18,2.61,1.37,3.36,2,1,4.25,1.61,6.4,2.39.21,1.14.42,2.29.69,3.71-2-.53-3.47-1.09-4.25-2.79a5.43,5.43,0,0,0-1.11-1.2l-.54.63-.28.29a20.94,20.94,0,0,1-2.75-.72,2.71,2.71,0,0,1-1.36-1.22c-1.2-2.86-2.29-5.76-3.41-8.65,0-.11.08-.29.17-.61l1.8.18c4.43.51,8.85,1.26,13.29,1.43a62.39,62.39,0,0,0,9.51-.87,220,220,0,0,1,22.63-1.8c2.07,0,4.14-.25,6.21-.32.87,0,1.74.08,2.61.13-.21.22-.4.59-.64.63a21.88,21.88,0,0,1-4.23.54c-7-.26-13.66,1.4-20.37,3C336.82,499,332,499.67,327.31,500.58Z" />
            <path class="color-shadow"
                d="M449.75,503.49c4.13,0,8.26.08,12.38,0,3.72-.07,7.43-.29,11.14-.45l.19,6.25c-1.41-.09-3.14.21-4.43-.4s-1.94-2.13-3.1-3.51v3.36H450.47C450.22,506.9,450,505.19,449.75,503.49Z" />
            <path class="color-shadow"
                d="M473.26,503.05l.11-1.38c2.45,1.69,4.8.61,7.13.24.37-.06.81-.75.92-1.22.3-1.21.44-2.47.65-3.71.57.28,1.16.53,1.7.86a10,10,0,0,0,6.41,1.77c-1.3,2.78-2.26,5.35-3.9,7.59-.78,1.06-1.58,1-2.56.05-.33-.32-.6-.7-1.15-1.36-.14,1.08-.23,1.8-.33,2.59-2.31,1.06-4.73.95-7.21.77-.31-1.85-.56-3.56-.92-5.25C474,503.64,473.55,503.37,473.26,503.05Z" />
            <path class="color-shadow"
                d="M434.72,502.61c3.38.14,6.75.24,10.12.45,1.4.08,2.79.39,4.18.59l-.88,5c-1,0-1.93.17-2.85.14-2.08-.08-4.14-.29-6.22-.31a2.39,2.39,0,0,1-2.49-1.43C436,505.54,435.34,504.07,434.72,502.61Z" />
            <path class="color-shadow-dark"
                d="M324.92,506.38c4.5.89,9,1.8,13.5,2.66a26.76,26.76,0,0,0,2.83.23c-.19.75-.39,1.5-.62,2.41a69.45,69.45,0,0,1-12.69-1.36,3.46,3.46,0,0,1-1.79-1.36A14.93,14.93,0,0,1,324.92,506.38Z" />
            <path class="color-shadow-dark"
                d="M363.23,506.44l10.42-.07.81,1.69c-3,.27-5.73.58-8.5.74C364.41,508.89,364,507.43,363.23,506.44Z" />
            <path class="color-shadow-dark"
                d="M383.48,493.47a6.89,6.89,0,0,1-1.56.4q-6.57,0-13.15,0a4.63,4.63,0,0,1-1.12-.29c2-.06,4.09-.16,6.13-.18C377,493.41,380.25,493.45,383.48,493.47Z" />
            <path class="color-shadow" d="M449.24,503.43l.49,0Z" />
            <path class="color-shadow-dark" d="M323.53,504.57l.19-.33c.07.11.13.23.19.34l-.19,0Z" />
            <path class="color-shadow-dark" d="M318.32,505.79l.11.39-.39-.11Z" />
            <polygon class="outline" points="362.86 506.38 362.76 506.31 362.84 506.4 362.86 506.38" />
            <path class="outline" d="M403.17,504l.1-.21-.13.18Z" />
            <path class="outline" d="M411.82,504.93l-.2-.18s.1,0,.11,0a.55.55,0,0,1,.06.18Z" />
        </g>
    </g>
</svg>
