<svg id="Nizy_pryamoy" data-name="Nizy pryamoy" xmlns="http://www.w3.org/2000/svg" viewBox="0 0 672 960">
    <g id="Midi_Pryamoy" data-name="Midi Pryamoy">
        <g id="img_25_img" data-name="img 25 img">
            <path class="outline"
                d="M398.59,527.11c-.75,4.38-1.49,8.77-2.3,13.48-1.91-.57-3.74-1-5.48-1.7-.37-.15-.65-1.08-.6-1.62a12.4,12.4,0,0,1,.75-2.51q3-9.6,6-19.2l1-3.14-.61-.26-2,3.63c-1.45,1.91-2.77,3.93-4.38,5.68a9.89,9.89,0,0,1-3.54,2.35c-2.25.9-4.16-.36-4.51-2.77a9.24,9.24,0,0,1,1.27-6c1-1.79,2.26-3.47,3.43-5.18.44-.64.95-1.24,1.61-2.09a8.16,8.16,0,0,0-1.65-.45c-6.46-.3-12.93-.45-19.39-.86-9-.57-18-.27-27.06-.17-4.87.05-9.75-.12-14.6-.44a43.92,43.92,0,0,1-6.53-1.39c-1.87-.43-3.72-.92-5.59-1.34-2.5-.56-3.43-1.63-4-4.13a30.31,30.31,0,0,0-1.5-4.52c-.88-2.29-1.85-4.55-2.78-6.82a8.35,8.35,0,0,1,2.13.11c.93.3,2.17.1,2.65,1.33l-3.29-.81c.92,1.93,1.66,2.79,2.83,3a49.13,49.13,0,0,0,8.34,1.48c5.09.15,10.15.62,15.29.28a150.7,150.7,0,0,1,34.12,2,138.1,138.1,0,0,0,22.87,2.13c5.27,0,10.55,0,15.82-.13,2.87-.08,5.73-.44,8.59-.71,4-.37,7.93-.78,11.9-1.17l3.06-.32c3.19-.07,6.39,0,9.57-.25,7.72-.57,15.45-.89,23.19-.8,7.94.1,15.76.81,23.25,3.72a11.47,11.47,0,0,0,3.76.5c.86,0,1.24-.59,1-1.47l-2.4-1,.25-.29,4.83.56c-.65,1.61-1.28,3.23-1.94,4.84-.49,1.18-1.07,2.32-1.52,3.51-1,2.55-1.81,3.21-4.64,3.24q-6.45.07-12.92,0c-9.58-.08-19.16-.22-28.74-.32-6.63-.08-13.26-.22-19.89-.17-4.22,0-8.43.35-12.95.55.33.77.58,1.31.8,1.86.92,2.21,2,4.37,2.7,6.63a8.65,8.65,0,0,1,.28,3.55c-.27,2.63-2.43,3.73-4.67,2.29a19.2,19.2,0,0,1-3-3l-.37-.52-.06-.1a.27.27,0,0,0-.19-.33l-.32-.54c-.31-.79-.57-1.6-.94-2.36s-.88-.34-1.34,0c0-2.57-.1-5.15-.08-7.72a4.81,4.81,0,0,1,.5-1.45,23.08,23.08,0,0,0,4,11.76,9.36,9.36,0,0,0,1.93,2.09c1.74,1.36,3.12.81,3.24-1.36a10.2,10.2,0,0,0-.66-3.16,20.35,20.35,0,0,0-.87-2.11,9.14,9.14,0,0,0-.63-1.73c-1.35-2.32-2.76-4.6-4.15-6.9l.65-.59c.63-1.62-.43-2.61-1.35-3.66,1.84-.19,2.08-.06,2.73,1.41.28.64.58,1.28.87,1.92.75,1.37,1.78,2.62,3.34,2.79,3.52.37,7-.26,10.8-.46-.27-1.13-.48-1.95-.68-2.77.19-1.46-.51-3.08.9-4.78.39,1.69.69,3,1,4.27a10.46,10.46,0,0,0,.62,2.26,2,2,0,0,0,1.35,1c2.1.11,4.21.05,6.66.05-.57-1.33-1-2.32-1.43-3.31l-.27-1.07.73.13.9,1c2.43,3.61,3.76,4.08,8.61,3l.68-2.95c.36-1.09.71-2.17,1.06-3.26l.6,0c0,1.05.09,2.11.14,3.16l-.65,3.25h3.47c.26-1.14.48-2.15.71-3.16l.74-.06c.29,1.05.57,2.1.83,3.06,3.15.5,10.45.39,12.22-.2l-1-2.89c-.22-4.35-.22-4.35.71-5.61.43,1.77.84,3.43,1.24,5.1.45,1.5.21,3.47,2.49,3.91.1-.93.17-1.63.27-2.55,3,2.7,4.45,3.08,7.53,2.18-.1-1.35-.19-2.68-.29-4a.51.51,0,0,0,.11-.31h.29l.34.47,1.21,4c2.48.36,2.5.36,2.9-1.61.17-.85.26-1.71.39-2.57l.82-2.94.71,2.47c-.11,1.56-.22,3.11-.35,4.9a6.11,6.11,0,0,0,2.23-.39c.46-.3.6-1.09.89-1.67l2.17,1.55c.81-1.72,1.51-3.18,2.39-5,.26.94.39,1.39.61,2.2l1.51-2.72-7.51-2.29c-.44-.18-.87-.38-1.32-.52a53.82,53.82,0,0,0-17.75-2.09c-9,.25-18,.49-27,.82-3.74.14-7.48.47-11.21.78-3.5.3-7,.7-10.48,1.06-1.17,0-2.34,0-3.5,0s-2.42.28-3.63.43H386.93c-3.65-.26-7.3-.42-10.93-.81-7.91-.84-15.8-1.79-23.69-2.7a13.79,13.79,0,0,0-2.1-.3c-6.15,0-12.31-.26-18.43.12a77.58,77.58,0,0,1-16.2-.94c-1.92-.28-3.83-.62-5.75-.93,1.65,1.9,2.26,4.13,3,6.28.49,1.38.86,1.54,2.63,1.39-1.64-3.59-1.74-4.27-.74-5.72,2,3.42,3.34,7.54,8.23,8.61-.07-1.22-.12-2.14-.17-3,1.13,1.23,2.07,2.94,3.5,3.6a7.46,7.46,0,0,0,4.9.53c-.54-2.23-1-4.3-1.52-6.39,0-.15.3-.38.45-.58l.44,1.92c.75,1.39,1.44,2.82,2.27,4.16a2.4,2.4,0,0,0,1.44,1.08c1.56.26,3.14.32,4.68.45l2.16-3.19.41.16c-.16.94-.33,1.89-.51,2.94a17.33,17.33,0,0,1,2.29,0,3.65,3.65,0,0,0,4.22-2.27c.18-.38.66-.63,1.33-1.24-.2,1.43-.33,2.33-.48,3.39h8.31c-.22-1.5-.41-2.81-.61-4.12l.08-3.75H357c.21,1.4.41,2.8.61,4.21a31.8,31.8,0,0,0,1.39,3c.72,1.24,1.89,1.19,2.94,0,3.3,1.76,6.83,1.25,10.35,1.38-.14-1.36-.25-2.38-.36-3.4l.85.57c2,3.23,3,3.89,6.06,2.84-.21-.95-.42-1.93-.64-2.9l.27-2.17.52,0c.3.93.6,1.86.91,2.79.91,3,1,3.1,4.09,3.14,1.35,0,2.72-.09,4.05.06a4.75,4.75,0,0,0,5-2.34c.13,0,.25-.05.37-.09l.53-.44h0c.15-.17.3-.33.44-.5h0l1.81.13c-.54.57-1.07,1.17-1.63,1.73-3.41,3.38-6.75,6.82-8.74,11.27a12.5,12.5,0,0,0-1,4.1c-.09,1.39.75,1.95,2,1.36a9.68,9.68,0,0,0,3.26-2.33c1.91-2.23,3.6-4.66,5.37-7l4.27-6.06c-.81,4.61-1.56,8.91-2.32,13.22-1.71,6-3.42,11.91-5.15,18l3.3,1.17c.79-6,1.55-11.85,2.31-17.67.05-.2.11-.4.16-.61l.1-.79q1.09-5.79,2.21-11.56l.56,0a.26.26,0,0,0,.13.3l-.42,4c-.06.34-.12.68-.17,1l-1.74,12.9Zm10.83-22.66c0,1.31.39,1.81,1.66,2.31-.42-.68-.56-.94-.73-1.18S409.9,505,409.42,504.45Z" />
            <path class="outline"
                d="M430.54,494.92l-3.06.32a3.82,3.82,0,0,0-1.08-.33c-3.58.14-7.17.28-10.74.51s-7,.68-10.47.77c-4.95.14-9.9.1-14.85,0-2.63-.05-5.26-.3-7.87-.58-3.72-.38-7.43-.88-11.15-1.3-3.24-.37-6.49-.74-9.74-1-5.39-.47-10.78-1-16.19-1.26-2.69-.13-5.4.29-8.11.34-3.91.08-7.83,0-11.74.07A36,36,0,0,1,311,489.1c-.48-1.23-1.72-1-2.65-1.33a8.35,8.35,0,0,0-2.13-.11c-.23-.93.5-.64.83-.55,2,.52,4,1.1,6,1.67,1.37.39,2.74.83,4.14,1.12.45.1,1-.2,1.48-.32a6.22,6.22,0,0,0-.46-1.46c-1.61-2.55-3.27-5.06-4.91-7.59L313,480l-.69-1.85.57-.55a.58.58,0,0,1,.12.36l.33.6a.7.7,0,0,1,.14.37l.34.59c1.54,2.32,3,4.7,4.66,6.93a18.68,18.68,0,0,0,5.95,4.69,5.39,5.39,0,0,0,1.33.33q6.39,0,12.77,0a5.42,5.42,0,0,0,1.33-.34l18.63.54,2.31.31.37-.7-1.18-.67-.51-.65-.26-.37-.3-.46-.34-.47-.06-.11-.26-.4-.28-.47-.3-.48-.23-.44-.32-.5-.05-.1.45-.86.57.85.43.56h0l.4.52c2.42,3.87,5.84,5.68,10.48,5.85,4.29.17,8.55,1,13,1.56.83-2.3,1.64-4.52,2.45-6.74l.29,0c-.32,2-.63,3.95-.95,5.93-.05,0-.16.09-.16.14a3.2,3.2,0,0,0,.07.41l.31.35.56.07,1.33.08,4,.35,6.61.13a2.66,2.66,0,0,0,2.94,0l10-.11,4.89-.38,1.34-.1,2,0,4.71-.51,4.91-.4,2.3,0,3.35.19v.36h-4.16v.29Zm-111.45-5.16-.17-.18a2,2,0,0,0-.15.33s.1.1.15.16Z" />
            <path class="outline"
                d="M404.24,515c.46-.29,1-.7,1.34,0s.63,1.57.94,2.36c-1.21-.75-1.4,0-1.24.93.44,2.68.82,5.37,1.43,8,1.77,7.69,3.73,15.34,7.35,22.43a4.09,4.09,0,0,1,.2,1.1L411,551.31c-.93-1.72-1.92-3.33-2.68-5a60.19,60.19,0,0,1-4.65-18.73c-.65-6.5-.83-13-1.22-19.57-.4-.9-.92-.48-1.43-.12l-.56,0c.14-1.1.27-2.19.41-3.29,1.09-.81,2-.71,2.48.28l.48,14.58c.78,6.48,1.44,13,3.22,19.29a96,96,0,0,0,3.42,9.4c.57,1.42.77,1.37,2.29.58a110.07,110.07,0,0,1-8.26-29.3C404.4,517.93,404.32,516.46,404.24,515Z" />
            <path class="color-shadow"
                d="M430.54,494.92l-1.36-.19v-.29h4.16v-.36l-3.35-.19,8.24-1,.14-.13.2,0,3.55.09,1.26-.06c5.23-.29,10.46-.6,15.69-.84,1.74-.08,3.49,0,5.23,0,1.21.49,2.42.82,3.63,0h1a3.76,3.76,0,0,0,1.05.43c5.48.33,11,.59,16.26,2.36l2.6.81,2.4,1c.28.88-.1,1.49-1,1.47a11.47,11.47,0,0,1-3.76-.5c-7.49-2.91-15.31-3.62-23.25-3.72-7.74-.09-15.47.23-23.19.8C436.93,494.91,433.73,494.85,430.54,494.92Z" />
            <path class="outline"
                d="M443.38,492.83l-1.26.06a3.92,3.92,0,0,1-.08-1.39c1.47-4.08,1-8.32,1-12.51a5.56,5.56,0,0,1,.34-2.29c.42,2.88.92,5.76,1.23,8.65.16,1.49,0,3,0,4.51A4.21,4.21,0,0,1,443.38,492.83Z" />
            <path class="outline"
                d="M486.27,494.79c-5.28-1.77-10.78-2-16.26-2.36A3.76,3.76,0,0,1,469,492c3.84,0,7.67-.05,11.51,0a11,11,0,0,1,2.75.71c1.29.39,2.57.8,3.87,1.21l3.3-11.12c.15.39.31.78.47,1.17-.2.74-.39,1.48-.59,2.22a.47.47,0,0,0-.35,0,59.14,59.14,0,0,0-1.71,5.9A3.23,3.23,0,0,1,486.27,494.79Z" />
            <path class="outline"
                d="M412.64,494.27q1-7.53,2.05-15h.3c0,.5,0,1,0,1.5q-.12,4.51-.25,9c-.05,1.59-.05,3.19-1.07,4.55Z" />
            <path class="outline"
                d="M467.93,492c-1.21.84-2.42.51-3.63,0,.59-3,1.17-6.05,1.77-9.07a13.56,13.56,0,0,1,.51-1.52l.6.12c-.25,3.36-.09,6.77-1.38,10.18Z" />
            <path class="color-shadow"
                d="M339.85,491.13a5.42,5.42,0,0,1-1.33.34q-6.39,0-12.77,0a5.39,5.39,0,0,1-1.33-.33h7.15c-1.29-2.07-3.65-2.81-3.5-5.35a42.28,42.28,0,0,1,3.08,3.35,4.47,4.47,0,0,0,4.9,2A18.52,18.52,0,0,1,339.85,491.13Z" />
            <path class="color-shadow" d="M357.52,485.3l-.45.86q-2.19-3.57-4.4-7.14l.51-.33Z" />
            <path class="outline"
                d="M486.27,494.79a3.23,3.23,0,0,0,1.94-2.66,59.14,59.14,0,0,1,1.71-5.9c.05.47.09.95.14,1.42l-.52,3.88-.26,1.54-.12,1.65,0,.59-.25.29Z" />
            <path class="color-shadow"
                d="M312.88,477.61l-.57.55c-.59-1.81-1.19-3.62-1.78-5.42a2.17,2.17,0,0,1,.31-.37Z" />
            <path class="outline" d="M438.57,492.8l-.2,0-.14.13.21-3.71h.19l.48.4Z" />
            <path class="color-base"
                d="M467.18,481.54l-.6-.12c.14-1.45.29-2.9.43-4.35l.54.06A7.35,7.35,0,0,1,467.18,481.54Z" />
            <path class="color-base" d="M490.57,481.43l.64-3,.53.13a6.54,6.54,0,0,1-.55,3.5Z" />
            <path class="outline" d="M489.12,495.31l0-.59,4.8.76a.22.22,0,0,1,.07.17.58.58,0,0,1-.08.22Z" />
            <path class="color-base"
                d="M310.84,472.37a2.17,2.17,0,0,0-.31.37l-1-2.71C310.55,470.78,310.55,470.78,310.84,472.37Z" />
            <path class="color-base" d="M412.64,494.27l1,.06,1,.58-4.89.38Z" />
            <path class="color-base" d="M399.83,495.4a2.66,2.66,0,0,1-2.94,0Z" />
            <path class="color-base" d="M427.69,493.93l-4.91.4Z" />
            <path class="color-shadow" d="M360,490.61l1.18.67-.37.7-2.31-.31C359,491.28,360.27,492.09,360,490.61Z" />
            <path class="color-base" d="M390.28,495.27l-4-.35Z" />
            <path class="color-shadow"
                d="M489.28,493.07c.09-.51.17-1,.26-1.54C489.45,492.05,489.37,492.56,489.28,493.07Z" />
            <path class="color-shadow" d="M490.06,487.65c-.05-.47-.09-.95-.14-1.42a.47.47,0,0,1,.35,0Z" />
            <path class="color-shadow" d="M490.57,481.43l.62.63-.33,1.94c-.16-.39-.32-.78-.47-1.17Z" />
            <path class="color-base" d="M401,507.84c.51-.36,1-.78,1.43.12l-1.3.18A.26.26,0,0,1,401,507.84Z" />
            <path class="color-base" d="M400.53,513.2c.05-.35.11-.69.17-1C400.64,512.51,400.58,512.86,400.53,513.2Z" />
            <path class="color-base" d="M418.07,494.84l-2,0Z" />
            <path class="color-base" d="M398.59,527.11l.2-1Z" />
            <path class="color-base" d="M385,494.84l-.56-.07Z" />
            <path class="color-shadow"
                d="M359.21,489.59c.08.13.17.25.26.37C359.38,489.84,359.29,489.72,359.21,489.59Z" />
            <path class="color-shadow" d="M439.11,489.61l-.48-.4Z" />
            <path class="color-shadow" d="M358.52,486.71l-.43-.56Z" />
            <path class="color-shadow" d="M313,480l.28.52Z" />
            <path class="color-shadow" d="M313.81,479.53l-.34-.59Z" />
            <path class="color-shadow" d="M313.33,478.57,313,478Z" />
            <path class="color-shadow" d="M358.92,487.23l-.4-.52Z" />
            <path class="color-shadow" d="M357.67,487.2l.3.48Z" />
            <path class="color-shadow" d="M358.25,488.15l.26.4Z" />
            <path class="color-shadow" d="M358.57,488.66l.34.47Z" />
            <path class="color-shadow" d="M438.54,489.21h-.1l.07-.28Z" />
            <path class="color-shadow" d="M357.12,486.26l.32.5Z" />
            <path class="outline" d="M406.84,517.94a.27.27,0,0,1,.19.33l-.19-.11Z" />
            <path class="outline" d="M407.09,518.37l.37.52Z" />
            <path class="color-base" d="M384.1,494.42A3.2,3.2,0,0,1,384,494c0-.05.11-.1.16-.14Z" />
            <path class="color-base"
                d="M407,498.19h.53l7.13-.47c3.49-.36,7-.76,10.48-1.06,3.73-.31,7.47-.64,11.21-.78,9-.33,18-.57,27-.82a53.82,53.82,0,0,1,17.75,2.09c.45.14.88.34,1.32.52-.18.85-.38,1.7-.52,2.55s-.75.9-1.42.88l-.71-2.47-.82,2.94-4.5.19c-.12-.15-.23-.31-.34-.47l-.13-.37-.16.36a.51.51,0,0,1-.11.31l-10,.46c-.4-1.67-.81-3.33-1.24-5.1-.93,1.26-.93,1.26-.71,5.61l-12.09,0-.74.06-3.53-.09c-.05-1.05-.1-2.11-.14-3.16l-.6,0c-.35,1.09-.7,2.17-1.06,3.26l-9.29,0-.9-1-.75-.7,0,.57.27,1.07h-7.2c-.29-1.29-.59-2.58-1-4.27-1.41,1.7-.71,3.32-.9,4.78l-13.46.44c-.29-.64-.59-1.28-.87-1.92-.65-1.47-.89-1.6-2.73-1.41l-.62,0-1.86-1.47Z" />
            <path class="color-base"
                d="M357.64,501.08c-.2-1.41-.4-2.81-.61-4.21-.1-.27-.21-.53-.32-.8l-.54.8c0,1.25-.05,2.5-.08,3.75l-16.59-.48c-.31,0-.62-.11-.93-.14-2.66-.26-5.33-.5-8-.75-.14-.64-.29-1.28-.44-1.92a11,11,0,0,1,1.75-.53c.79-.1,1.6,0,2.39-.08,5.37-.54,10.71-1.53,16.14-1.42a6.1,6.1,0,0,0,1.89-.63c7.89.91,15.78,1.86,23.69,2.7,3.63.39,7.28.55,10.93.81a24.67,24.67,0,0,0,2.55.32c2.77.06,5.54.05,8.31.08.6,0,1.2.12,2.06.21-1.34.79-1.34.79-2.59.56h0c-2.07.46-2.42.91-2.84,3.6h0c-.14.17-.29.33-.44.5h0l-.53.44c-.12,0-.24.06-.37.09l-13.18-.86c-.31-.93-.61-1.86-.91-2.79l-.52,0-.27,2.17-5.42.06-.85-.57,0,0,0-.49-.28-.27c-.05.13-.1.25-.14.38a.87.87,0,0,1,0,.36c-.87,0-1.75.06-2.61,0C365.17,501.74,361.41,501.4,357.64,501.08Z" />
            <path class="color-shadow"
                d="M352.31,494.67a6.1,6.1,0,0,1-1.89.63c-5.43-.11-10.77.88-16.14,1.42-.79.07-1.6,0-2.39.08a11,11,0,0,0-1.75.53c-.15.2-.48.43-.45.58.47,2.09,1,4.16,1.52,6.39a7.46,7.46,0,0,1-4.9-.53c-1.43-.66-2.37-2.37-3.5-3.6.05.87.1,1.79.17,3-4.89-1.07-6.19-5.19-8.23-8.61-1,1.45-.9,2.13.74,5.72-1.77.15-2.14,0-2.63-1.39-.77-2.15-1.38-4.38-3-6.28,1.92.31,3.83.65,5.75.93a77.58,77.58,0,0,0,16.2.94c6.12-.38,12.28-.13,18.43-.12A13.79,13.79,0,0,1,352.31,494.67Z" />
            <path class="color-shadow"
                d="M311,489.1a36,36,0,0,0,14.53,3.35c3.91,0,7.83,0,11.74-.07,2.71-.05,5.42-.47,8.11-.34,5.41.28,10.8.79,16.19,1.26,3.25.28,6.5.65,9.74,1,3.72.42,7.43.92,11.15,1.3,2.61.28,5.24.53,7.87.58,5,.09,9.9.13,14.85,0,3.5-.09,7-.55,10.47-.77s7.16-.37,10.74-.51a3.82,3.82,0,0,1,1.08.33c-4,.39-7.93.8-11.9,1.17-2.86.27-5.72.63-8.59.71-5.27.14-10.55.09-15.82.13a138.1,138.1,0,0,1-22.87-2.13,150.7,150.7,0,0,0-34.12-2c-5.14.34-10.2-.13-15.29-.28a49.13,49.13,0,0,1-8.34-1.48c-1.17-.24-1.91-1.1-2.83-3Z" />
            <path class="color-shadow"
                d="M330.58,499.25c2.66.25,5.33.49,8,.75.31,0,.62.13.93.14l16.59.48c.2,1.31.39,2.62.61,4.12h-8.31c.15-1.06.28-2,.48-3.39-.67.61-1.15.86-1.33,1.24a3.65,3.65,0,0,1-4.22,2.27,17.33,17.33,0,0,0-2.29,0c.18-1.05.35-2,.51-2.94l-.41-.16L339,504.94c-1.54-.13-3.12-.19-4.68-.45a2.4,2.4,0,0,1-1.44-1.08C332,502.07,331.33,500.64,330.58,499.25Z" />
            <path class="transparent"
                d="M403.32,504.86c-.5-1-1.39-1.1-2.48-.29l-1.15-.58.7-1.9.19-.71a1.64,1.64,0,0,0-.6.1,4.3,4.3,0,0,0-.62.59c-5.65,4.38-10.43,9.5-13.46,16,1,1.23,2,1.13,3,.18,2.1-2.18,4.14-4.43,6.2-6.64l.49.6c-1.77,2.35-3.46,4.78-5.37,7a9.68,9.68,0,0,1-3.26,2.33c-1.27.59-2.11,0-2-1.36a12.5,12.5,0,0,1,1-4.1c2-4.45,5.33-7.89,8.74-11.27.56-.56,1.09-1.16,1.63-1.73,1.14-.86,2.24-1.77,3.43-2.56,2.45-1.61,3.69-1.34,5.5,1.08l-.57.95-.05,1.92Z" />
            <path class="color-shadow"
                d="M357.64,501.08c3.77.32,7.53.66,11.3,1,.86.07,1.74,0,2.61,0a3,3,0,0,1,.43,0l0,0c.11,1,.22,2,.36,3.4-3.52-.13-7.05.38-10.35-1.38-1.05,1.22-2.22,1.27-2.94,0A31.8,31.8,0,0,1,357.64,501.08Z" />
            <path class="color-shadow"
                d="M480.47,501.09c.67,0,1.28,0,1.42-.88s.34-1.7.52-2.55l7.51,2.29-1.51,2.72c-.22-.81-.35-1.26-.61-2.2-.88,1.83-1.58,3.29-2.39,5l-2.17-1.55c-.29.58-.43,1.37-.89,1.67a6.11,6.11,0,0,1-2.23.39C480.25,504.2,480.36,502.65,480.47,501.09Z" />
            <path class="color-shadow"
                d="M449.66,502.58l12.09,0,1,2.89c-1.77.59-9.07.7-12.22.2C450.23,504.68,450,503.63,449.66,502.58Z" />
            <path class="transparent"
                d="M398.22,519.42l-.1.79c-.05.21-.11.41-.16.61-.76,5.82-1.52,11.65-2.31,17.67l-3.3-1.17c1.73-6,3.44-12,5.15-18Z" />
            <path class="color-shadow"
                d="M410.4,503.49l13.46-.44c.2.82.41,1.64.68,2.77-3.78.2-7.28.83-10.8.46C412.18,506.11,411.15,504.86,410.4,503.49Z" />
            <path class="color-shadow"
                d="M463.7,502l10-.46c.1,1.32.19,2.65.29,4-3.08.9-4.53.52-7.53-2.18-.1.92-.17,1.62-.27,2.55C463.91,505.51,464.15,503.54,463.7,502Z" />
            <path class="color-shadow"
                d="M379.93,503.15l13.18.86a4.75,4.75,0,0,1-5,2.34c-1.33-.15-2.7,0-4.05-.06C380.94,506.25,380.84,506.18,379.93,503.15Z" />
            <path class="transparent"
                d="M412.28,513a20.35,20.35,0,0,1,.87,2.11,10.2,10.2,0,0,1,.66,3.16c-.12,2.17-1.5,2.72-3.24,1.36a9.36,9.36,0,0,1-1.93-2.09,23.08,23.08,0,0,1-4-11.76.23.23,0,0,0,.21-.33c.85,3.34,1.53,6.76,3.74,9.54.68.86,1.28,2.54,2.63,1.84,1.17-.6.64-2.09.24-3.22Z" />
            <path class="outline"
                d="M405.2,501.61c-1.82-2.42-3.06-2.69-5.51-1.08-1.19.79-2.29,1.7-3.43,2.56l-1.81-.13c.42-2.69.77-3.14,2.84-3.6l-1.76,2.74a3.37,3.37,0,0,0,1.8-1.31c.21-.34,0-1-.07-1.44,1.25.23,1.25.23,2.59-.56-.86-.09-1.46-.2-2.06-.21-2.77,0-5.54,0-8.31-.08a24.67,24.67,0,0,1-2.55-.32h20l-2.63.55,1.86,1.47,2,3.61-.65.59-.51,0,0,0Z" />
            <path class="color-shadow"
                d="M434.3,502.58l9.29,0c-.23,1-.46,2-.68,2.95C438.06,506.66,436.73,506.19,434.3,502.58Z" />
            <path class="color-shadow"
                d="M425.74,502.54h7.2c.43,1,.86,2,1.43,3.31-2.45,0-4.56.06-6.66-.05a2,2,0,0,1-1.35-1A10.46,10.46,0,0,1,425.74,502.54Z" />
            <path class="color-shadow"
                d="M372.81,502.62l5.42-.06c.22,1,.43,1.95.64,2.9C375.78,506.51,374.84,505.85,372.81,502.62Z" />
            <path class="color-shadow" d="M474.44,501.75l4.5-.19c-.13.86-.22,1.72-.39,2.57-.4,2-.42,2-2.9,1.61Z" />
            <path class="color-shadow" d="M445.39,502.55l3.53.09c-.23,1-.45,2-.71,3.16h-3.47Z" />
            <path class="transparent" d="M408.15,503.82l-2-3.61.62,0C407.72,501.21,408.78,502.2,408.15,503.82Z" />
            <path class="outline" d="M414.61,497.71l-7.13.47c1.21-.15,2.41-.35,3.63-.43S413.44,497.72,414.61,497.71Z" />
            <path class="outline"
                d="M409.42,504.45c.48.58.72.84.93,1.13s.31.5.73,1.18C409.81,506.26,409.42,505.76,409.42,504.45Z" />
            <path class="color-shadow" d="M356.17,496.87l.54-.8c.11.27.22.53.32.8Z" />
            <path class="color-shadow" d="M432.67,501.48l0-.57.75.7Z" />
            <path class="outline" d="M393.48,503.92l.53-.44Z" />
            <path class="outline" d="M394,503.47c.15-.17.3-.33.44-.5C394.32,503.14,394.17,503.3,394,503.47Z" />
            <path class="color-shadow" d="M473.81,501.27l.16-.36.13.37Z" />
            <path class="color-base" d="M398,520.82c.05-.2.11-.4.16-.61C398.07,520.42,398,520.62,398,520.82Z" />
            <path class="transparent" d="M319.09,489.76l-.17.31c-.05-.06-.16-.12-.15-.16a2,2,0,0,1,.15-.33Z" />
            <path class="transparent"
                d="M403.8,519.43l.67,0a110.11,110.11,0,0,0,8.26,29.29c-1.52.79-1.72.84-2.29-.58a96,96,0,0,1-3.42-9.4C405.24,532.42,404.58,525.91,403.8,519.43Z" />
            <path class="transparent" d="M397.26,499.35c0,.49.28,1.1.07,1.44a3.37,3.37,0,0,1-1.8,1.31l1.76-2.74Z" />
            <path class="outline" d="M372,502.07a3,3,0,0,0-.43,0,.93.93,0,0,0,0-.37,2.13,2.13,0,0,0,.42-.1Z" />
            <path class="color-shadow" d="M372,501.58a2.13,2.13,0,0,1-.42.1c0-.12.09-.24.14-.37Z" />
            <path class="outline"
                d="M399.69,504c-.59.81-1.18,1.63-1.78,2.44,0-.48,0-1,0-1.45l.62-.66-.28-.21-.44.78-1.76,1.61,1.86-.08-2.86,5.19c-2.06,2.21-4.1,4.46-6.2,6.64-.92,1-1.95,1-3-.18,3-6.5,7.81-11.62,13.46-16l1,0Zm-3.95,3.52a28.09,28.09,0,0,0-6.84,8.62A27.09,27.09,0,0,0,395.74,507.51Z" />
            <path class="outline"
                d="M407,504.45l4.49,9.2c.4,1.13.93,2.62-.24,3.22-1.35.7-1.95-1-2.63-1.84-2.21-2.78-2.89-6.2-3.74-9.54l-.3-1,.05-1.92,2.39,1.92Zm.05,3.09a10.47,10.47,0,0,0,3.61,7.41C409.53,512.1,408.76,509.6,407,507.54Z" />
            <path class="outline" d="M400.39,502.09l-1,0a4.3,4.3,0,0,1,.62-.59,1.64,1.64,0,0,1,.6-.1Z" />
            <path class="transparent" d="M395.74,507.51a27.09,27.09,0,0,1-6.84,8.62A28.09,28.09,0,0,1,395.74,507.51Z" />
            <path class="outline" d="M397.92,505c0,.48,0,1,0,1.45h0l-1.86.08,1.76-1.61Z" />
            <path class="outline" d="M397.82,504.89l.44-.78.28.21-.62.66Z" />
        </g>
    </g>
</svg>
