<svg id="Nizy_pryamoy" data-name="Nizy pryamoy" xmlns="http://www.w3.org/2000/svg" viewBox="0 0 672 960">
    <g id="Midi_Pryamoy" data-name="Midi Pryamoy">
        <g id="img_23_img" data-name="img 23 img">
            <path class="transparent"
                d="M.44.49H672.87V960.86H.44Zm491.21,494c-5.15-1.58-9.95-3-14.74-4.52-5.88-1.84-12-2.1-18-2.16-9.83-.1-19.67.1-29.5.2-14.08.14-28.15.37-42.22.45-6.88,0-13.77.07-20.62-.32-11-.63-21.85,1.19-32.75,2.1a61.38,61.38,0,0,1-12.92.18c-4.78-.62-9.71-1.26-12.95-5.64-.53-.71-1.33-.46-1.78.29a10.17,10.17,0,0,0-.63,1.56c-2,5.29-4,10.61-6.08,15.89a83.69,83.69,0,0,0-4.34,12.94,15.15,15.15,0,0,1-1.5,3.5c-1.47,2.92-.95,4.54,1.93,6,3.21,1.63,6.41,3.27,9.57,5,.64.34,1.47,1,1.55,1.58a3.76,3.76,0,0,0,2.31,2.83,26.86,26.86,0,0,0,19.24,2.89c2.16-.43,3.91-1.33,4.51-3.68,4.27.16,8.42.34,12.57.44A48.17,48.17,0,0,1,365,538.48a18.61,18.61,0,0,0,2.94,1,67.59,67.59,0,0,0,21.37,2.33,20.85,20.85,0,0,0,9.47-2.31c2.54-1.4,2.56-3.1.14-4.68-.83-.54-1.7-1-2.55-1.49l.08-.54a14.23,14.23,0,0,1,2.6-.88c2.77-.35,5.55-.73,8.34-.83,5.67-.19,11.34-.2,17-.28,1.52,0,3,0,4.56,0a7.7,7.7,0,0,1,5.09,1.82c3.92,3.35,8.69,4.81,13.62,5.41,6.42.77,12.9,1,19.36,1.43a15.23,15.23,0,0,0,3.81-.27c2.69-.53,3.28-1.88,1.58-4-1.28-1.59-1.05-2.56.78-3.6a12.24,12.24,0,0,1,2.62-1.16c2.53-.74,5.07-1.48,7.64-2a45.2,45.2,0,0,0,12.63-4.38c1.88-1.06,3.79-2.06,5.68-3.1,2.82-1.54,3.11-2.72,1.63-5.63-1.16-2.27-2.17-4.61-3.23-6.94-2.19-4.79-4.36-9.6-6.56-14.39a3.65,3.65,0,0,0-.6-.71Z" />
            <path class="outline"
                d="M491.65,494.51l1.36-1.2a3.65,3.65,0,0,1,.6.71c2.2,4.79,4.37,9.6,6.56,14.39,1.06,2.33,2.07,4.67,3.23,6.94,1.48,2.91,1.19,4.09-1.63,5.63-1.89,1-3.8,2-5.68,3.1a45.2,45.2,0,0,1-12.63,4.38c-2.57.55-5.11,1.29-7.64,2a12.24,12.24,0,0,0-2.62,1.16c-1.83,1-2.06,2-.78,3.6,1.7,2.1,1.11,3.45-1.58,4a15.23,15.23,0,0,1-3.81.27c-6.46-.4-12.94-.66-19.36-1.43-4.93-.6-9.7-2.06-13.62-5.41a7.7,7.7,0,0,0-5.09-1.82c-1.52,0-3,0-4.56,0-5.67.08-11.34.09-17,.28-2.79.1-5.57.48-8.34.83a14.23,14.23,0,0,0-2.6.88l-.08.54c.85.49,1.72.95,2.55,1.49,2.42,1.58,2.4,3.28-.14,4.68a20.85,20.85,0,0,1-9.47,2.31,67.59,67.59,0,0,1-21.37-2.33,18.61,18.61,0,0,1-2.94-1A48.17,48.17,0,0,0,345.27,534c-4.15-.1-8.3-.28-12.57-.44-.6,2.35-2.35,3.25-4.51,3.68A26.86,26.86,0,0,1,309,534.38a3.76,3.76,0,0,1-2.31-2.83c-.08-.6-.91-1.24-1.55-1.58-3.16-1.71-6.36-3.35-9.57-5-2.88-1.47-3.4-3.09-1.93-6a15.15,15.15,0,0,0,1.5-3.5,83.69,83.69,0,0,1,4.34-12.94c2.07-5.28,4.06-10.6,6.08-15.89a10.17,10.17,0,0,1,.63-1.56c.45-.75,1.25-1,1.78-.29,3.24,4.38,8.17,5,12.95,5.64a61.38,61.38,0,0,0,12.92-.18c10.9-.91,21.73-2.73,32.75-2.1,6.85.39,13.74.36,20.62.32,14.07-.08,28.14-.31,42.22-.45,9.83-.1,19.67-.3,29.5-.2,6.06.06,12.15.32,18,2.16C481.7,491.49,486.5,492.93,491.65,494.51Zm-125,3.21,0,0,1.58-6.77H364c-.3,1.52-.57,2.9-.85,4.28l-.36-.05v-4.72l-10.07.5c-.32,2.54-.58,4.89-.91,7.24-.42,3-.88,5.93-1.32,8.9l.5-14.65.18-1.33-14,1.57L335.3,501l-.14,0c.15-2.6.29-5.19.45-8l-10.87.72c-.52,1.63-1,3.11-1.45,4.59l-.29-.07c.1-1.49.19-3,.29-4.51-1.39-.49-2.39-.34-2.85,1.19-.08.25-.36.43-.64.74-.06-.88-.11-1.56-.16-2.16l-6.35-1.8c-1.81-.51-2.1-.31-2.62,1.82q-2.07,4.42-4.15,8.87l-4.19,7.47c2.4-6.45,5.56-12.58,8.07-19.09l-3.17-2c-.49,1.16-.9,2-1.22,2.89-1.4,3.82-2.83,7.63-4.15,11.48-1.84,5.42-5,10.39-5.57,16.24a3,3,0,0,1-.22.68c-.71,2-.71,2,1.26,3.08l10.59,5.58a2.84,2.84,0,0,0,.78.12c2.26-5.27,4.52-10.51,6.77-15.76a6.38,6.38,0,0,1-.41,2.59c-1.53,4.56-3.09,9.11-4.64,13.66-.94,2.76-.83,2.81,1.87,4.09,4.6,2.18,9.42,2.26,14.31,1.72a15.21,15.21,0,0,0,2.95-.94c.22-1.65.4-3,.57-4.31q1.54-8,3.08-16a8.37,8.37,0,0,1,.28,1.83c-.21,2.94-.47,5.88-.74,8.82-.18,2.13-.4,4.25-.63,6.6,1,.08,1.78.17,2.56.21,4.62.2,9.25.32,13.87.62a43.06,43.06,0,0,1,13.74,3,69.07,69.07,0,0,0,7.88,2.82,61,61,0,0,0,20.18,1.72,30.56,30.56,0,0,0,5.16-1,13.45,13.45,0,0,0,2.35-1.16L395,535.61a4.82,4.82,0,0,1-2.56-5.62c.7-3.27,1.31-6.56,1.95-9.85.36-1.87.68-3.75,1-5.62q1.53-6.06,3.07-12.12l.2.05-.75,5.84c-.48,3.69-1.39,7.29-1.61,11s-1.16,7.3-1.35,11.42c6.18-2.33,12.2-1.78,18.18-1.79,2.88,0,5.76,0,8.64-.1,1.83,0,3.67-.29,5.5-.23,2.83.09,5.62.52,7.82,2.54,3.79,3.47,8.57,4.74,13.37,5.37,6.09.78,12.27.84,18.41,1.18.93,0,1.87-.08,3.13-.14-.5-1.45-.9-2.63-1.3-3.82-.25-.8-.49-1.61-.73-2.41-.32-1.38-.6-2.77-1-4.14-1.35-5-2.74-10.06-4.11-15.09-.4-1.75-.79-3.5-1.19-5.26a19.63,19.63,0,0,1,.93,1.9c1.15,3.18,2.29,6.38,3.41,9.57,1.26,3.6,2.48,7.2,3.74,10.79a10.42,10.42,0,0,0,.78,1.44l3.16-2,6.23-2c8.18-1.26,15.5-4.68,22.7-9a31.75,31.75,0,0,0-2-4.36A96.59,96.59,0,0,1,493,498.8c-.22-.5-.44-1.19-.86-1.39-2-.94-4-1.74-6-2.6l-.35.44,7.36,11.12c-3.52-3.53-7-7-9.6-11.29-.57-.93-1.15-1.63-2.42-1.44.11,1.24.21,2.34.31,3.44l.24,3.05a4.3,4.3,0,0,1-1-1.94c-1.78-6.25-1.78-6.26-8.26-7.2-1-.14-1.89-.3-2.85-.38-.76-.07-1.52,0-2.51,0,0,1.58.07,2.93,0,4.27s.28,2.7-.63,4.37l-1.08-8.81c-4,0-7.73-.81-11.57-.3.09,1.84.17,3.43.24,5l-.38.06c-.51-1.72-1-3.44-1.53-5.19a66.92,66.92,0,0,0-10.11.1c.82,2.18,1.52,4,2.21,5.85a5.62,5.62,0,0,1-1.67-1.92c-.58-1-1.12-1.94-1.7-2.9a1.25,1.25,0,0,0-2-.41c-.1.75-.19,1.45-.27,2.16l-.33,0c-.17-.74-.34-1.49-.5-2.22H426.14c.05.91,0,1.62.13,2.3.86,5.85,1.74,11.69,2.58,17.54a6.28,6.28,0,0,1-.2,1.58q-2.06-8.92-4.1-17.85c-.26-1.15-.51-2.31-.75-3.38-3.21-.48-3.32-.45-4.06.89-.22-.33-.46-1-.75-1-1.54-.1-3.09-.05-4.52-.05v8.51c-.66-3.14-1.22-5.75-1.78-8.39H408.2l-1.31,4.1-.27-.09c.13-1.31.26-2.62.43-4.3l-20.6.49.31,4.18-.28,0c-.38-1.36-.77-2.72-1.22-4.29h-7.4c-.16.6-.36,1.2-.48,1.82-1.18,5.7-2.33,11.41-3.54,17.1a35,35,0,0,1-1.09,3.43q1.38-9.9,2.74-19.81l.38-2.86c-1.32,0-2.34.06-3.35,0a2.72,2.72,0,0,0-2.94,1.82C368.73,494.21,367.65,495.94,366.66,497.72Z" />
            <path class="color-base"
                d="M424.55,494.2q2.06,8.93,4.1,17.85l.16,1.41,3.05-.63c-.25-6-1.74-11.75-1.83-18,1.88,0,3.46,0,5,0s3.46-.34,4.68.36,1.46,2.56,2.27,3.84c1.19,1.87,2.45,3.71,3.76,5.49a2,2,0,0,0,2.85.5c.64-3.39-1.13-6.61-1-10h3.78c.54,2.51,1,4.85,1.56,7.16.24.93.27,2.32,1.74,2.17,1.65-.18,1.21-1.61,1.24-2.66.05-2,0-4.09,0-6.31,3,0,5.72-.4,8.46.69.44,1.28.87,2.64,1.38,4,.4,1.05,1,1.86,2.53,1.18.27-1.68.56-3.44.85-5.25,2.66.27,5.18.55,7.71.78,2.26.2,2.27.34,2.64,2.48.49,2.9,1.21,5.75,1.83,8.62.2.91.76,1.59,1.65,1.28a2.73,2.73,0,0,0,1.6-1.5,15.81,15.81,0,0,0,.14-3.1c.08-1-.29-2.14.4-3.44.88,1,1.6,1.71,2.27,2.5,2,2.37,3.83,4.89,6.71,6.32a1.71,1.71,0,0,1,.65.68c1.13,2,2.25,4,3.44,6.13a18.85,18.85,0,0,1-2.38,2.08,47.52,47.52,0,0,1-11.44,5.39,30.69,30.69,0,0,0-3.8,1.46c-.29.12-.44.57-.65.88l-6.23,2c-.17-.52-.3-1.06-.51-1.57-2.27-5.34-4.53-10.68-6.85-16-.86-2-1.85-3.86-2.87-5.75a1.4,1.4,0,0,0-1.12-.65c-.29.05-.49.67-.73,1l.09,1.22,0,0c.4,1.76.79,3.51,1.19,5.26-.19.39-.59.81-.52,1.15A103.76,103.76,0,0,0,466.84,530c.22.58.26,1.3,1.14,1.3.24.8.48,1.61.73,2.41-1.66.14-3.32.37-5,.38-1.34,0-2.69-.4-4-.33-3.71.19-7.26-.81-10.88-1.23-4.32-.51-8.23-2.43-12.3-3.78a53.74,53.74,0,0,0-16.78-3.21c-1.26,0-2.52-.38-3.77-.31-3.09.19-6.16.7-9.24.75a76.49,76.49,0,0,1-7.84-.55c-.13,0-.24-.19-.53-.43.23-2.47.46-5.07.71-7.66.22-2.13.56-4.25.66-6.39.05-1.2-.31-2.41-1.82-2.7l.75-5.84-.2-.05q-1.53,6.06-3.07,12.12c-1,.12-1.23.83-1.46,1.65-1.55,5.42-3.18,10.82-4.67,16.25-.45,1.66-.87,3-3,2.92a18.2,18.2,0,0,0-2.82.33c-3.23.33-6.32-.6-9.42-1.2-3.26-.65-6.39-2-9.66-2.57-5.39-.92-10.59-2.72-16.11-3.07-2.31-.14-4.54-.47-6.84.07a36.83,36.83,0,0,1-4.41.45,33.65,33.65,0,0,1,0-5.14c.79-4.78.24-9.52-.19-14.26a1.47,1.47,0,0,0-1.36-1.56c-1.56,1.44-1.86,3.48-2.28,5.46q-1.53,8-3.08,16a6.5,6.5,0,0,1-2.15.93c-3.75.07-7.5,0-11.26,0a5.06,5.06,0,0,1-1.59-.5c-1.69-.67-1.89-1.07-1.44-2.91.94-3.78,1.92-7.55,2.79-11.35.48-2.08.81-4.2,1.11-6.32a1.48,1.48,0,0,0-.62-1.14,1.13,1.13,0,0,0-1.08.08,6.51,6.51,0,0,0-1.45,1.56c-1.41,2.22-2.77,4.47-4.11,6.73s-2.52,4.37-3.74,6.51L299.46,518c.52-.81.94-1.48,1.37-2.14a42.81,42.81,0,0,0,5.36-11.18,15.86,15.86,0,0,0,.33-2.31q2.07-4.44,4.15-8.87a7.09,7.09,0,0,1,1.39.24c1.72.59,3.43,1.22,5.15,1.85.52.19,1.31.28,1.48.64.59,1.28,1.51.08,2.42.45,0,1.24,0,2.5,0,3.76,0,.88.16,1.87,1.24,2s1.73-.61,2.05-1.6c.18-.53.35-1.06.53-1.59.82-2.43.82-2.41,3.28-2.5.7,0,1.41-.24,2.11-.27,1-.05,2,0,3.23,0-.2,2.87-.94,5.59-.16,8.4,1.73-.19,2.14-1.4,2.5-2.61.54-1.83,1-3.7,1.58-5.5.24-.69.8-1.64,1.38-1.78,4-.94,8.06-1.7,12.09-2.52q-.24,7.32-.5,14.65c0,2.07,0,4.14-.06,6.22,0,.77.18,1.51,1.1,1.56s1.18-.63,1.23-1.42c.16-2.62.33-5.23.49-7.84,0-.56,0-1.12.09-1.67a71.67,71.67,0,0,0,.82-7.55c0-4.86,1.08-4,4.49-3.92a3.6,3.6,0,0,1,.89.39V499c1.63.13,2.49.67,2.45,2.26,0,1,.7,1.55,1.67,1.75.51.1,1,.22,1.65.37a7.41,7.41,0,0,0-.27,1.75,1.44,1.44,0,0,0,.61,1.09,1.69,1.69,0,0,0,1.24-.38,2.4,2.4,0,0,0,.57-1c1-2.53,1.94-5,2.85-7.59,1.56-4.35.59-3.75,5.21-3.77q-1.37,9.91-2.74,19.81c-.08.52-.16,1-.23,1.51a1.89,1.89,0,0,0,2.6-.87,8.84,8.84,0,0,0,1-1.92q1.86-5.67,3.63-11.37c.72-2.34,1.36-4.71,2-7,1.95.1,2.2.29,2.67,1.9a30.06,30.06,0,0,0,1.12,3.64,1.93,1.93,0,0,0,1.42.9c.36,0,.91-.59,1.09-1a5.84,5.84,0,0,0,.21-1.88c.06-1,.08-2,.12-3.05L405,495.12c.05.86,0,1.58.15,2.28.21,1.24,1.14,1.64,2,.8a7.1,7.1,0,0,0,1.39-2.15,1.69,1.69,0,0,1,1.82-1.2c1,.1,1.29.67,1.46,1.57.41,2.18.86,4.36,1.44,6.5a29.69,29.69,0,0,0,1.38,3.39,2.45,2.45,0,0,0,2.41-2.56c.16-2.46.34-4.91.5-7.37.11-1.68.31-1.91,2-2S422.88,494.26,424.55,494.2Z" />
            <path class="color-shadow"
                d="M480,526.55c.21-.31.36-.76.65-.88a30.69,30.69,0,0,1,3.8-1.46,47.52,47.52,0,0,0,11.44-5.39,18.85,18.85,0,0,0,2.38-2.08c-1.19-2.13-2.31-4.14-3.44-6.13a1.71,1.71,0,0,0-.65-.68c-2.88-1.43-4.72-3.95-6.71-6.32-.67-.79-1.39-1.53-2.27-2.5-.69,1.3-.32,2.41-.4,3.44a15.81,15.81,0,0,1-.14,3.1,2.73,2.73,0,0,1-1.6,1.5c-.89.31-1.45-.37-1.65-1.28-.62-2.87-1.34-5.72-1.83-8.62-.37-2.14-.38-2.28-2.64-2.48-2.53-.23-5-.51-7.71-.78-.29,1.81-.58,3.57-.85,5.25-1.53.68-2.13-.13-2.53-1.18-.51-1.33-.94-2.69-1.38-4-2.74-1.09-5.43-.73-8.46-.69,0,2.22,0,4.27,0,6.31,0,1.05.41,2.48-1.24,2.66-1.47.15-1.5-1.24-1.74-2.17-.57-2.31-1-4.65-1.56-7.16h-3.78c-.12,3.39,1.65,6.61,1,10a2,2,0,0,1-2.85-.5c-1.31-1.78-2.57-3.62-3.76-5.49-.81-1.28-1.15-3.18-2.27-3.84s-3.09-.32-4.68-.36-3.15,0-5,0c.09,6.23,1.58,12,1.83,18l-3.05.63-.16-1.41a6.28,6.28,0,0,0,.2-1.58c-.84-5.85-1.72-11.69-2.58-17.54-.1-.68-.08-1.39-.13-2.3h11.49c.16.73.33,1.48.5,2.22l.33,0c.08-.71.17-1.41.27-2.16a1.25,1.25,0,0,1,2,.41c.58,1,1.12,1.94,1.7,2.9a5.62,5.62,0,0,0,1.67,1.92c-.69-1.84-1.39-3.67-2.21-5.85A66.92,66.92,0,0,1,452,490c.52,1.75,1,3.47,1.53,5.19l.38-.06c-.07-1.58-.15-3.17-.24-5,3.84-.51,7.6.32,11.57.3l1.08,8.81c.91-1.67.55-3.06.63-4.37s0-2.69,0-4.27c1,0,1.75,0,2.51,0,1,.08,1.9.24,2.85.38,6.48.94,6.48.95,8.26,7.2a4.3,4.3,0,0,0,1,1.94l-.24-3.05c-.1-1.1-.2-2.2-.31-3.44,1.27-.19,1.85.51,2.42,1.44,2.57,4.26,6.08,7.76,9.6,11.29l-7.36-11.12.35-.44c2,.86,4.06,1.66,6,2.6.42.2.64.89.86,1.39a96.59,96.59,0,0,0,7.61,14.4,31.75,31.75,0,0,1,2,4.36C495.46,521.87,488.14,525.29,480,526.55Z" />
            <path class="color-shadow"
                d="M306.52,502.34a15.86,15.86,0,0,1-.33,2.31,42.81,42.81,0,0,1-5.36,11.18c-.43.66-.85,1.33-1.37,2.14l7.12,5.45c1.22-2.14,2.46-4.34,3.74-6.51s2.7-4.51,4.11-6.73a6.51,6.51,0,0,1,1.45-1.56,1.13,1.13,0,0,1,1.08-.08,1.48,1.48,0,0,1,.62,1.14c-.3,2.12-.63,4.24-1.11,6.32-.87,3.8-1.85,7.57-2.79,11.35-.45,1.84-.25,2.24,1.44,2.91a5.06,5.06,0,0,0,1.59.5c3.76.07,7.51.12,11.26,0a6.5,6.5,0,0,0,2.15-.93c-.17,1.33-.35,2.66-.57,4.31a15.21,15.21,0,0,1-2.95.94c-4.89.54-9.71.46-14.31-1.72-2.7-1.28-2.81-1.33-1.87-4.09,1.55-4.55,3.11-9.1,4.64-13.66a6.38,6.38,0,0,0,.41-2.59c-2.25,5.25-4.51,10.49-6.77,15.76a2.84,2.84,0,0,1-.78-.12l-10.59-5.58c-2-1-2-1-1.26-3.08a3,3,0,0,0,.22-.68c.6-5.85,3.73-10.82,5.57-16.24,1.32-3.85,2.75-7.66,4.15-11.48.32-.88.73-1.73,1.22-2.89l3.17,2c-2.51,6.51-5.67,12.64-8.07,19.09Z" />
            <path class="color-shadow"
                d="M333.2,513.85c.42-2,.72-4,2.28-5.46a1.47,1.47,0,0,1,1.36,1.56c.43,4.74,1,9.48.19,14.26a33.65,33.65,0,0,0,0,5.14,36.83,36.83,0,0,0,4.41-.45c2.3-.54,4.53-.21,6.84-.07,5.52.35,10.72,2.15,16.11,3.07,3.27.57,6.4,1.92,9.66,2.57,3.1.6,6.19,1.53,9.42,1.2a18.2,18.2,0,0,1,2.82-.33c2.15.12,2.57-1.26,3-2.92,1.49-5.43,3.12-10.83,4.67-16.25.23-.82.48-1.53,1.46-1.65-.34,1.87-.66,3.75-1,5.62-.64,3.29-1.25,6.58-1.95,9.85a4.82,4.82,0,0,0,2.56,5.62l2.86,1.69a13.45,13.45,0,0,1-2.35,1.16,30.56,30.56,0,0,1-5.16,1,61,61,0,0,1-20.18-1.72,69.07,69.07,0,0,1-7.88-2.82,43.06,43.06,0,0,0-13.74-3c-4.62-.3-9.25-.42-13.87-.62-.78,0-1.55-.13-2.56-.21.23-2.35.45-4.47.63-6.6.27-2.94.53-5.88.74-8.82A8.37,8.37,0,0,0,333.2,513.85Z" />
            <path class="color-shadow"
                d="M424.55,494.2c-1.67.06-3.34.11-5,.19s-1.87.31-2,2c-.16,2.46-.34,4.91-.5,7.37a2.45,2.45,0,0,1-2.41,2.56,29.69,29.69,0,0,1-1.38-3.39c-.58-2.14-1-4.32-1.44-6.5-.17-.9-.47-1.47-1.46-1.57a1.69,1.69,0,0,0-1.82,1.2,7.1,7.1,0,0,1-1.39,2.15c-.88.84-1.81.44-2-.8-.11-.7-.1-1.42-.15-2.28l-16.62-1.07c0,1-.06,2-.12,3.05A5.84,5.84,0,0,1,388,499c-.18.44-.73,1-1.09,1a1.93,1.93,0,0,1-1.42-.9,30.06,30.06,0,0,1-1.12-3.64c-.47-1.61-.72-1.8-2.67-1.9-.67,2.3-1.31,4.67-2,7q-1.77,5.7-3.63,11.37a8.84,8.84,0,0,1-1,1.92,1.89,1.89,0,0,1-2.6.87c.07-.48.15-1,.23-1.51a35,35,0,0,0,1.09-3.43c1.21-5.69,2.36-11.4,3.54-17.1.12-.62.32-1.22.48-1.82h7.4c.45,1.57.84,2.93,1.22,4.29l.28,0-.31-4.18,20.6-.49c-.17,1.68-.3,3-.43,4.3l.27.09,1.31-4.1h4.49c.56,2.64,1.12,5.25,1.78,8.39v-8.51c1.43,0,3-.05,4.52.05.29,0,.53.69.75,1,.74-1.34.85-1.37,4.06-.89C424,491.89,424.29,493.05,424.55,494.2Z" />
            <path class="color-shadow"
                d="M397.92,508.29c1.51.29,1.87,1.5,1.82,2.7-.1,2.14-.44,4.26-.66,6.39-.25,2.59-.48,5.19-.71,7.66.29.24.4.42.53.43a76.49,76.49,0,0,0,7.84.55c3.08,0,6.15-.56,9.24-.75,1.25-.07,2.51.31,3.77.31a53.74,53.74,0,0,1,16.78,3.21c4.07,1.35,8,3.27,12.3,3.78,3.62.42,7.17,1.42,10.88,1.23,1.33-.07,2.68.34,4,.33,1.66,0,3.32-.24,5-.38.4,1.19.8,2.37,1.3,3.82-1.26.06-2.2.19-3.13.14-6.14-.34-12.32-.4-18.41-1.18-4.8-.63-9.58-1.9-13.37-5.37-2.2-2-5-2.45-7.82-2.54-1.83-.06-3.67.19-5.5.23-2.88.06-5.76.1-8.64.1-6,0-12-.54-18.18,1.79.19-4.12,1.14-7.74,1.35-11.42S397.44,512,397.92,508.29Z" />
            <path class="color-shadow"
                d="M375.49,493.42c-4.62,0-3.65-.58-5.21,3.77-.91,2.54-1.88,5.06-2.85,7.59a2.4,2.4,0,0,1-.57,1,1.69,1.69,0,0,1-1.24.38,1.44,1.44,0,0,1-.61-1.09,7.41,7.41,0,0,1,.27-1.75c-.63-.15-1.14-.27-1.65-.37-1-.2-1.7-.79-1.67-1.75,0-1.59-.82-2.13-2.45-2.26v-6.08a3.6,3.6,0,0,0-.89-.39c-3.41,0-4.48-.94-4.49,3.92a71.67,71.67,0,0,1-.82,7.55c-.06.55-.05,1.11-.09,1.67-.16,2.61-.33,5.22-.49,7.84-.05.79-.32,1.48-1.23,1.42s-1.11-.79-1.1-1.56c0-2.08,0-4.15.06-6.22.44-3,.9-5.93,1.32-8.9.33-2.35.59-4.7.91-7.24l10.07-.5v4.72l.36.05c.28-1.38.55-2.76.85-4.28h4.3l-1.58,6.77c-.1.16-.21.32-.05.08-.07.27,0,.09,0-.1,1-1.78,2.07-3.51,2.92-5.35a2.72,2.72,0,0,1,2.94-1.82c1,.07,2,0,3.35,0Z" />
            <path class="color-shadow"
                d="M351,492.47c-4,.82-8.09,1.58-12.09,2.52-.58.14-1.14,1.09-1.38,1.78-.62,1.8-1,3.67-1.58,5.5-.36,1.21-.77,2.42-2.5,2.61-.78-2.81,0-5.53.16-8.4-1.23,0-2.23,0-3.23,0-.7,0-1.41.24-2.11.27-2.46.09-2.46.07-3.28,2.5-.18.53-.35,1.06-.53,1.59-.32,1-.92,1.78-2.05,1.6s-1.21-1.16-1.24-2c-.05-1.26,0-2.52,0-3.76-.91-.37-1.83.83-2.42-.45-.17-.36-1-.45-1.48-.64-1.72-.63-3.43-1.26-5.15-1.85a7.09,7.09,0,0,0-1.39-.24c.52-2.13.81-2.33,2.62-1.82l6.35,1.8c.05.6.1,1.28.16,2.16.28-.31.56-.49.64-.74.46-1.53,1.46-1.68,2.85-1.19-.1,1.53-.19,3-.29,4.51l.29.07c.47-1.48.93-3,1.45-4.59l10.87-.72c-.16,2.81-.3,5.4-.45,8l.14,0,1.85-8.27,14-1.57Z" />
            <path class="color-shadow"
                d="M461.65,505.67c.24-.37.44-1,.73-1a1.4,1.4,0,0,1,1.12.65c1,1.89,2,3.79,2.87,5.75,2.32,5.31,4.58,10.65,6.85,16,.21.51.34,1.05.51,1.57l-3.16,2a10.42,10.42,0,0,1-.78-1.44c-1.26-3.59-2.48-7.19-3.74-10.79-1.12-3.19-2.26-6.39-3.41-9.57a19.63,19.63,0,0,0-.93-1.9l0,0Z" />
            <path class="color-shadow"
                d="M468,531.34c-.88,0-.92-.72-1.14-1.3a103.76,103.76,0,0,1-4.46-16.78c-.07-.34.33-.76.52-1.15,1.37,5,2.76,10.06,4.11,15.09C467.38,528.57,467.66,530,468,531.34Z" />
            <path class="outline" d="M461.65,505.67l.09,1.22Z" />
            <path class="outline" d="M366.66,497.72c-.05.19-.09.37,0,.1-.16.24-.05.08.05-.08Z" />
        </g>
    </g>
</svg>
