<svg id="Nizy_pryamoy" data-name="Nizy pryamoy" xmlns="http://www.w3.org/2000/svg" viewBox="0 0 672 960">
    <g id="Midi_Pryamoy" data-name="Midi Pryamoy">
        <g id="img_22_img" data-name="img 22 img">
            <path class="color-base"
                d="M322,480.49a48.92,48.92,0,0,1,9.68,2.66,13.14,13.14,0,0,0,4,.67c6,.51,11.91,1.13,17.88,1.41,4.95.24,9.91,0,14.87,0,.72,0,1.44-.12,2.15-.07,6.11.45,12.07-.9,18.09-1.53,2.14-.22,4.27-.57,6.41-.71,6-.4,11.94-.71,17.91-1.08,6.92-.43,13.84-1,20.77-1.29,4.3-.19,8.63,0,12.94,0,3.68,0,7.35-.11,11,0,5.18.14,10.36.41,15.54.68,2.38.12,4.75.38,7.13.57-.47,1.61-1,3.19-1.39,4.81-1,4.25-1.9,8.52-2.89,12.77-.53,2.28-1,2.53-3.25,2.66-2.46.13-4.92.34-7.37.56-2.84.26-5.67.76-8.52.81-3.33.06-6.67-.28-10-.41-4.46-.18-8.92-.33-13.37-.49l-12.89-.5a1.91,1.91,0,0,1-.48,0c-4-1.2-7.91.37-11.87.15-.22,0-.45.2-.68.22-1.89.18-3.82.67-5.66.43a54.17,54.17,0,0,0-8.05-.77c-9.81.2-19.62.34-29.44.5-.39,0-.79,0-1.19.07-3.16.3-6.31.73-9.48.85-4,.15-8,0-12,0a49,49,0,0,1-13.18-1.8,3.05,3.05,0,0,1-2.25-1.83,30.19,30.19,0,0,1-3.08-9.74C323.07,486.91,322.49,483.71,322,480.49Z" />
            <path class="color-shadow"
                d="M322,480.49c.46,3.22,1,6.42,1.35,9.65a30.19,30.19,0,0,0,3.08,9.74,3.05,3.05,0,0,0,2.25,1.83,49,49,0,0,0,13.18,1.8c4,0,8,.11,12,0,3.17-.12,6.32-.55,9.48-.85.4,0,.8-.06,1.19-.07,9.82-.16,19.63-.3,29.44-.5a54.17,54.17,0,0,1,8.05.77c1.84.24,3.77-.25,5.66-.43.23,0,.46-.23.68-.22,4,.22,7.9-1.35,11.87-.15a1.91,1.91,0,0,0,.48,0l12.89.5c4.45.16,8.91.31,13.37.49,3.34.13,6.68.47,10,.41,2.85-.05,5.68-.55,8.52-.81,2.45-.22,4.91-.43,7.37-.56,2.29-.13,2.72-.38,3.25-2.66,1-4.25,1.89-8.52,2.89-12.77.38-1.62.92-3.2,1.39-4.81.71-2.74.77-2.78,3.92-2.71,1.69.79,1.46,2.26,1.31,3.7-.13,1.26-.31,2.52-.4,3.78-.19,2.77-.21,5.57-.55,8.33-.3,2.51-.91,5-1.44,7.47a2.3,2.3,0,0,1-2.46,2.1c-1.94,0-3.84.53-5.83.6-3.46.11-6.89,1-10.34,1.5-2.12.3-4.25.56-6.38.72-1.64.12-3.36-.23-4.94.11-4.87,1.05-9.68,0-14.51-.19-3.33-.11-6.64-.58-10-.86-.71-.06-1.46.09-2.15,0-4.76-.92-9.56-.23-14.33-.43-.65,0-1.32-.06-1.54.78l-21.08-.27c-.34-.17-.67-.47-1-.49-3.74-.2-7.47-.46-11.21-.47-3.18,0-6.36.23-9.53.45-2.21.16-4.42.44-6.62.73-2.67.36-5.32.84-8,1.16-2.28.28-4.61.24-6.87.63a17.58,17.58,0,0,1-7.33-.07c-1.69-.41-3.42-.72-5.13-1a50.86,50.86,0,0,1-11.72-3.12,4.86,4.86,0,0,1-2.54-2.32,54.41,54.41,0,0,1-4.92-16.13c-.37-2.15-.58-4.32-.88-6.58h5.59l.61-.13,1-.07Z" />
            <path class="outline"
                d="M389.74,506.43l21.08.27c4.53.34,9.05.75,13.58,1,6.93.39,13.86.78,20.8,1,5.59.16,11.18.08,16.78,0,3.42,0,6.85-.35,10.28-.42,3.59-.07,7.19.07,10.78,0,1.93,0,3.81-.28,4.74-2.47a77,77,0,0,0,4.37-11.64c.25-1,.62-1.94.93-2.91.73-.82,1.52-1,1.54.33a15.06,15.06,0,0,1-.64,4.2c-.75,2.69-1.63,5.34-2.52,8a47.07,47.07,0,0,1-1.73,4.45,4.07,4.07,0,0,1-4.22,2.5c-4.63-.2-9.26-.33-13.89-.47-1,0-2.09-.07-3.12,0a311.73,311.73,0,0,1-34.72-.53q-10.77-.62-21.53-1.29a197.28,197.28,0,0,0-33.5.69c-9.13,1-18.24,2.18-27.35,3.36-8,1-15.91,1.4-23.84-.26a26.24,26.24,0,0,1-2.78-.69c-3-1-5.88-2-8.84-3a5.28,5.28,0,0,1-3.89-4,100.62,100.62,0,0,0-3.82-11.08,26.88,26.88,0,0,1-1.51-13.88,16.26,16.26,0,0,1,.54,1.93c.19,1.28.3,2.57.44,3.86a16.21,16.21,0,0,0,.41-3.81,19.08,19.08,0,0,1,.48-2.46h0c.21,3.66.35,7.32,1.72,10.82,1.51,3.86,2.94,7.76,4.23,11.71.8,2.44,2,4.29,4.71,4.69a3.6,3.6,0,0,1,1.09.47c7,3.8,14.62,4.49,22.32,4.34a136.41,136.41,0,0,0,15.73-1.44c10-1.36,19.95-2.42,30-2.88A7.34,7.34,0,0,0,389.74,506.43Z" />
            <path class="color-shadow-dark"
                d="M493.08,491.24c-.31,1-.68,1.92-.93,2.91a77,77,0,0,1-4.37,11.64c-.93,2.19-2.81,2.43-4.74,2.47-3.59.07-7.19-.07-10.78,0-3.43.07-6.86.38-10.28.42-5.6.08-11.19.16-16.78,0-6.94-.19-13.87-.58-20.8-1-4.53-.26-9-.67-13.58-1,.22-.84.89-.81,1.54-.78,4.77.2,9.57-.49,14.33.43.69.13,1.44,0,2.15,0,3.32.28,6.63.75,10,.86,4.83.16,9.64,1.24,14.51.19,1.58-.34,3.3,0,4.94-.11,2.13-.16,4.26-.42,6.38-.72,3.45-.5,6.88-1.39,10.34-1.5,2-.07,3.89-.56,5.83-.6a2.3,2.3,0,0,0,2.46-2.1c.53-2.48,1.14-5,1.44-7.47.34-2.76.36-5.56.55-8.33.09-1.26.27-2.52.4-3.78.15-1.44.38-2.91-1.31-3.7l1.26.13c.95-2,1.19-4.48,3.24-5.87,2.26.71,2.25.71,2.21,2.69-.05,2.63-.1,5.27-.11,7.9,0,.53,0,1.35.3,1.55,1.71,1.13,1.41,2.91,1.67,4.52C493,490.45,493,490.84,493.08,491.24Z" />
            <path class="color-shadow-dark"
                d="M389.74,506.43a7.34,7.34,0,0,1-1.35.32c-10.05.46-20,1.52-30,2.88a136.41,136.41,0,0,1-15.73,1.44c-7.7.15-15.34-.54-22.32-4.34a3.6,3.6,0,0,0-1.09-.47c-2.75-.4-3.91-2.25-4.71-4.69-1.29-3.95-2.72-7.85-4.23-11.71-1.37-3.5-1.51-7.16-1.72-10.82a4.14,4.14,0,0,0,.7.06,4.2,4.2,0,0,0,.84-.21c0-.84,0-1.69,0-2.54,0-1.08-.21-2.15,1.05-2.91.47-.29.45-1.39.66-2.16.89,1.07.89,1.07,1.33,3.3.23,1.16.43,2.32.62,3.36,1.86,1.23,3.82,1.21,5.77,1.24H314c.3,2.26.51,4.43.88,6.58a54.41,54.41,0,0,0,4.92,16.13,4.86,4.86,0,0,0,2.54,2.32A50.86,50.86,0,0,0,334,507.33c1.71.32,3.44.63,5.13,1a17.58,17.58,0,0,0,7.33.07c2.26-.39,4.59-.35,6.87-.63,2.68-.32,5.33-.8,8-1.16,2.2-.29,4.41-.57,6.62-.73,3.17-.22,6.35-.46,9.53-.45,3.74,0,7.47.27,11.21.47C389.07,506,389.4,506.26,389.74,506.43Z" />
            <path class="color-shadow-dark"
                d="M308.59,479a19.08,19.08,0,0,0-.48,2.46,16.21,16.21,0,0,1-.41,3.81c-.14-1.29-.25-2.58-.44-3.86a16.26,16.26,0,0,0-.54-1.93c.14-1.13.29-2.26.44-3.47C309.1,476.62,308.58,477.94,308.59,479Z" />
            <path class="color-base" d="M321.17,479l-1,.07Z" />
        </g>
    </g>
</svg>
