<svg id="Nizy_pryamoy" data-name="Nizy pryamoy" xmlns="http://www.w3.org/2000/svg" viewBox="0 0 672 960">
    <g id="Midi_Pryamoy" data-name="Midi Pryamoy">
        <g id="img_21_img" data-name="img 21 img">
            <path class="outline"
                d="M307,491.7,305.87,487a11.44,11.44,0,0,1,2.14.75,30.58,30.58,0,0,0,11.11,4.06c5.17.83,10.16.07,15.23-.48,6.35-.7,12.7-1.42,19.07-2,5.73-.49,11.48-.89,17.23-1.1,3.38-.12,6.78.26,10.17.31,5.56.09,11.11.09,16.66.13,7.08.05,14.16.23,21.23.12,6.2-.1,12.38-.67,18.57-.74,4.71-.06,9.42.33,14.13.53,3.95.17,7.9.35,11.85.51s8,.21,12,.54c4.58.38,8.83,2.14,13.15,3.59,1.26.43,2.55.76,3.81,1.13,0-1.59-.06-2.93,0-4.27,0-.34.54-.65.84-1,.3.27.79.5.86.82.38,1.66.69,3.33.95,5a6.11,6.11,0,0,1-.14,1.52c-.24.52-.47,1.05-.7,1.57l0,1.85c-.2,1.77-.44,3.53-.59,5.31q-.27,3.33-.42,6.66a32.21,32.21,0,0,1-.05,3.81c-.53,3.31-1.3,6.58-1.83,9.88a2,2,0,0,1-1.83,1.89c-2.33.34-4.67.59-7,.82-3.29.31-6.59.53-9.88.86-4.84.48-9.67,1-14.51,1.54a7,7,0,0,0-1.08.31l-.45,0a7.76,7.76,0,0,0-1.26-.11c-5,.29-10,.63-14.94.89-4.74.25-9.48.42-14.22.6-3.83.15-7.66.26-11.49.42a22.32,22.32,0,0,0-2.28.32l-.45,0H406c-1.42-.05-2.84-.13-4.26-.13q-13.54-.09-27.1-.15-11.15-.06-22.31-.12a3.61,3.61,0,0,0-.78.16l-1.17,0a4.75,4.75,0,0,0-1.08-.27c-2-.07-3.91-.09-5.87-.12l-2.2-.07-.45,0a7.09,7.09,0,0,0-1.09-.31c-3.19-.44-6.45-.59-9.58-1.33-4.26-1-8.43-2.38-12.61-3.71a4.48,4.48,0,0,1-3.4-3.9c-.11-.91-.38-1.79-.58-2.69-1.1-4.72-2.19-9.44-3.3-14.15-.22-.95-.53-1.89-.8-2.83l-.05-.4-.19-2-.06-.64L309,499l-.06-.4-.67-2.78-.1-.44Zm99.7,39.72H410c3.63,0,7.26,0,10.89-.12s7.49-.4,11.23-.58c2.7-.14,5.42-.17,8.12-.36,4.65-.32,9.3-.87,14-1.06a115.34,115.34,0,0,0,16.15-1.81c3.35-.63,6.82-.61,10.22-1,2.64-.32,5.27-.85,7.89-1.36a1.54,1.54,0,0,0,.9-1,40.87,40.87,0,0,0,1.1-4.78q.51-3.18.74-6.4c.15-2.29.13-4.6.21-6.9.09-2.75.27-5.5.29-8.25a1.89,1.89,0,0,0-.87-1.49c-3.94-1.3-7.89-2.62-11.92-3.64-5.34-1.36-10.83-1.38-16.31-1.35-1.6,0-3.2.06-4.8,0-4.86-.26-9.72-.76-14.59-.83-5.52-.08-11,.18-16.55.33-1.84.05-3.67.28-5.5.33-3.2.1-6.39.13-9.58.16q-7.68,0-15.36.05c-4.83,0-9.66,0-14.49-.09-3.11-.06-6.23-.5-9.33-.42-5.27.15-10.54.52-15.8.9-3.66.27-7.32.67-11,1.07-6.43.71-12.85,1.59-19.29,2.17-5.43.49-10.74-.53-16-2L309,492.6c.38,1.36.79,2.44,1,3.56.43,2.48.67,5,1.15,7.44.62,3.2,1.44,6.37,2.1,9.56s1.21,6.43,1.87,9.64a1.39,1.39,0,0,0,.82.84c1.61.55,3.29.94,4.88,1.53,2.32.87,4.53,2.06,6.9,2.76a86,86,0,0,0,17.11,2.71c4,.34,8.11.3,12.16.38q10.25.22,20.49.37c3,.05,6,0,8.94.06,2,0,4,.11,6,.11s4-.09,6.05-.12l6.13,0Z" />
            <path class="color-shadow-dark"
                d="M456.88,531a7,7,0,0,1,1.08-.31c4.84-.53,9.67-1.06,14.51-1.54,3.29-.33,6.59-.55,9.88-.86,2.34-.23,4.68-.48,7-.82a2,2,0,0,0,1.83-1.89c.53-3.3,1.3-6.57,1.83-9.88a32.21,32.21,0,0,0,.05-3.81q.15-3.33.42-6.66c.15-1.78.39-3.54.59-5.31,0,1.49.05,3,0,4.48-.12,2.06-.63,4.15-.47,6.19.37,4.88-1,9.51-1.78,14.22-.11.63-.09,1.45-.47,1.82a4.62,4.62,0,0,1-2.39,1.33c-6.27.72-12.56,1.3-18.84,1.92l-12.27,1.2A5,5,0,0,1,456.88,531Z" />
            <path class="color-shadow-dark"
                d="M351.58,533a3.61,3.61,0,0,1,.78-.16q11.16,0,22.31.12,13.56.08,27.1.15c1.42,0,2.84.08,4.26.13-1.62.09-3.23.22-4.84.26-3.23.06-6.47.11-9.7.08-5.94,0-11.88-.16-17.82-.22-5,0-9.91,0-14.86-.08-2.08,0-4.15,0-6.23-.08A5.71,5.71,0,0,1,351.58,533Z" />
            <path class="color-shadow-dark"
                d="M309.45,503.51c.27.94.58,1.88.8,2.83,1.11,4.71,2.2,9.43,3.3,14.15.2.9.47,1.78.58,2.69a4.48,4.48,0,0,0,3.4,3.9c4.18,1.33,8.35,2.71,12.61,3.71,3.13.74,6.39.89,9.58,1.33a7.09,7.09,0,0,1,1.09.31c-2.14-.15-4.29-.2-6.41-.48a44.73,44.73,0,0,1-11.14-2.74c-1.5-.61-3.17-.81-4.72-1.35a15.83,15.83,0,0,1-3.3-1.63,2.71,2.71,0,0,1-1-1.54c-1-4.24-1.82-8.51-2.79-12.74-.56-2.45-1.27-4.86-1.89-7.29A5.47,5.47,0,0,1,309.45,503.51Z" />
            <path class="color-shadow-dark"
                d="M412.24,533.16a22.32,22.32,0,0,1,2.28-.32c3.83-.16,7.66-.27,11.49-.42,4.74-.18,9.48-.35,14.22-.6,5-.26,10-.6,14.94-.89a7.76,7.76,0,0,1,1.26.11c-1.45.19-2.9.46-4.36.56-3.86.25-7.73.44-11.6.63-5.43.27-10.86.53-16.29.75-3.55.14-7.1.21-10.65.29A11.22,11.22,0,0,1,412.24,533.16Z" />
            <path class="color-shadow-dark"
                d="M341.26,532.47l2.2.07c2,0,3.91.05,5.87.12a4.75,4.75,0,0,1,1.08.27C347.34,533.12,344.27,533.32,341.26,532.47Z" />
            <path class="color-shadow-dark" d="M406.54,533.19h0Z" />
            <path class="color-shadow-dark" d="M307,491.7l1.11,3.63Z" />
            <path class="color-shadow-dark" d="M308.25,495.77l.67,2.78Z" />
            <path class="color-shadow-dark" d="M309.21,501.11l.19,2Z" />
            <path class="color-shadow-dark" d="M494.05,498.07c.23-.52.46-1.05.7-1.57Z" />
            <path class="color-shadow-dark" d="M309,499l.17,1.52Z" />
            <path class="color-shadow"
                d="M406.74,531.42h-2.13a3.54,3.54,0,0,0-1.12-.52c-1-.07-2,0-3.06,0-3.61-.14-7.24-.25-10.85-.49s-7.35-.66-11-1c-4-.33-7.91-.72-11.87-.9-2.5-.11-5,.17-7.53.2q-5.5.06-11,0a19.65,19.65,0,0,1-3.66-.42c-2.52-.51-5-1.31-7.55-1.68A123.85,123.85,0,0,1,319,522.27a2,2,0,0,1-1.5-1.93c-.08-.79-.21-1.57-.33-2.36-.29-1.92-.59-3.84-.87-5.76-.37-2.51-.69-5-1.1-7.53s-1-4.67-1.26-7c-.21-1.6.39-2.1,2-2.07,1.36,0,2.7.16,4.05.22,5.33.25,10.65.63,16,.69,4.42.05,8.84-.27,13.25-.42-.39.23-.76.63-1.17.67-1.46.16-2.94.19-4.41.29-4.68.31-9.35.8-14,.89-4.13.09-8.28-.27-12.42-.42-.41,0-.83,0-1.38.07.6,2.93,1.17,5.69,1.73,8.44.72,3.5,1.38,7,2.21,10.5.23,1,.71,2.38,1.46,2.71a66.51,66.51,0,0,0,9.12,3.18,55.89,55.89,0,0,0,7.87,1.28c4,.46,8.05,1,12.09,1.12,4.34.16,8.7-.15,13-.17,2.67,0,5.34.09,8,.24,3.46.18,6.9.48,10.36.69q6.28.39,12.59.73c3,.17,6.08.31,9.12.5a13.31,13.31,0,0,0,2.21.3c1.85-.21,3.68-.63,5.52-.91,3.18-.47,6.36-1.07,9.56-1.28,5-.32,10-.35,14.93-.53,3.83-.13,7.65-.3,11.46-.48q4.67-.21,9.31-.49a42.25,42.25,0,0,0,4.5-.4c3.1-.52,6.19-1.08,9.24-1.77,3.53-.8,7-1.73,10.52-2.67a1.82,1.82,0,0,0,1-1.06,8,8,0,0,0,.28-2.24c0-2.68,0-5.36,0-8a39.73,39.73,0,0,1,.25-4.76,2.69,2.69,0,0,0-1.82-3.1,31.09,31.09,0,0,0-5.48-2.33,84.19,84.19,0,0,0-9.64-1.42c-2.29-.25-4.62-.11-6.92-.32-3.52-.31-7-.74-10.53-1.18a18.34,18.34,0,0,1-2.59-.69l4.76.24c1.35.08,2.7.24,4.05.25q4.77.06,9.53,0c1.35,0,2.7-.26,4.05-.22a53.17,53.17,0,0,1,5.34.46c3.93.51,7.85,1,11.76,1.68a2.61,2.61,0,0,1,2.27,2.9c0,1.26.07,2.52,0,3.78-.22,3.85-.53,7.69-.73,11.54-.09,1.84,0,3.69,0,5.54a4.28,4.28,0,0,1-3.06,4.35,9,9,0,0,1-3.05.41,46.5,46.5,0,0,0-13.86,2.06,67.59,67.59,0,0,1-6.63,1.32c-1.21.2-2.45.18-3.68.3-3,.29-5.91.76-8.87.87-4.11.15-8.23,0-12.35,0-1.06,0-2.12,0-3.18,0-1.74.11-3.47.31-5.22.43a48.17,48.17,0,0,0-5.11.32,60.81,60.81,0,0,1-12.33,1.16A7.91,7.91,0,0,0,406.74,531.42Z" />
            <path class="color-shadow-dark"
                d="M406.74,531.42a7.91,7.91,0,0,1,2.12-.52,60.81,60.81,0,0,0,12.33-1.16,48.17,48.17,0,0,1,5.11-.32c1.75-.12,3.48-.32,5.22-.43,1.06-.06,2.12,0,3.18,0,4.12,0,8.24.11,12.35,0,3-.11,5.91-.58,8.87-.87,1.23-.12,2.47-.1,3.68-.3a67.59,67.59,0,0,0,6.63-1.32,46.5,46.5,0,0,1,13.86-2.06,9,9,0,0,0,3.05-.41,4.28,4.28,0,0,0,3.06-4.35c0-1.85-.11-3.7,0-5.54.2-3.85.51-7.69.73-11.54.08-1.26,0-2.52,0-3.78a2.61,2.61,0,0,0-2.27-2.9c-3.91-.64-7.83-1.17-11.76-1.68a53.17,53.17,0,0,0-5.34-.46c-1.35,0-2.7.2-4.05.22q-4.75.06-9.53,0c-1.35,0-2.7-.17-4.05-.25l-4.76-.24h-1.92l-2.39-.22c-2.86.07-5.73.23-8.59.19s-5.63-.46-8.44-.4c-3.73.07-7.45.43-11.17.71-1.17.08-2.32.29-3.49.44h-2.87c-.76,0-1.52,0-2.28,0-4.14-.3-8.29-.78-12.44-.88-4.46-.12-8.92.12-13.37.2h-4.56L366,495.33l-.49.23-1.19,0h-.48a15.4,15.4,0,0,1-1.64.23c-4.33.1-8.66.18-13,.27s-8.83.47-13.25.42c-5.33-.06-10.65-.44-16-.69-1.35-.06-2.69-.19-4.05-.22-1.58,0-2.18.47-2,2.07.29,2.36.88,4.68,1.26,7s.73,5,1.1,7.53c.28,1.92.58,3.84.87,5.76.12.79.25,1.57.33,2.36a2,2,0,0,0,1.5,1.93,123.85,123.85,0,0,0,17.93,4.32c2.54.37,5,1.17,7.55,1.68a19.65,19.65,0,0,0,3.66.42q5.52.07,11,0c2.51,0,5-.31,7.53-.2,4,.18,7.91.57,11.87.9,3.68.31,7.35.72,11,1s7.24.35,10.85.49c1,0,2.05,0,3.06,0a3.54,3.54,0,0,1,1.12.52l-6.13,0c-2,0-4,.12-6.05.12s-4-.09-6-.11c-3,0-6,0-8.94-.06q-10.24-.15-20.49-.37c-4-.08-8.12,0-12.16-.38a86,86,0,0,1-17.11-2.71c-2.37-.7-4.58-1.89-6.9-2.76-1.59-.59-3.27-1-4.88-1.53a1.39,1.39,0,0,1-.82-.84c-.66-3.21-1.21-6.43-1.87-9.64s-1.48-6.36-2.1-9.56c-.48-2.46-.72-5-1.15-7.44-.2-1.12-.61-2.2-1-3.56l1.43.37c5.22,1.49,10.53,2.51,16,2,6.44-.58,12.86-1.46,19.29-2.17,3.65-.4,7.31-.8,11-1.07,5.26-.38,10.53-.75,15.8-.9,3.1-.08,6.22.36,9.33.42,4.83.1,9.66.09,14.49.09q7.68,0,15.36-.05c3.19,0,6.38-.06,9.58-.16,1.83,0,3.66-.28,5.5-.33,5.51-.15,11-.41,16.55-.33,4.87.07,9.73.57,14.59.83,1.6.08,3.2,0,4.8,0,5.48,0,11,0,16.31,1.35,4,1,8,2.34,11.92,3.64a1.89,1.89,0,0,1,.87,1.49c0,2.75-.2,5.5-.29,8.25-.08,2.3-.06,4.61-.21,6.9s-.4,4.28-.74,6.4a40.87,40.87,0,0,1-1.1,4.78,1.54,1.54,0,0,1-.9,1c-2.62.51-5.25,1-7.89,1.36-3.4.42-6.87.4-10.22,1a115.34,115.34,0,0,1-16.15,1.81c-4.66.19-9.31.74-14,1.06-2.7.19-5.42.22-8.12.36-3.74.18-7.49.46-11.23.58s-7.26.09-10.89.12Z" />
            <path class="color-base"
                d="M440.85,493.2l2.39.22h1.92a18.34,18.34,0,0,0,2.59.69c3.5.44,7,.87,10.53,1.18,2.3.21,4.63.07,6.92.32a84.19,84.19,0,0,1,9.64,1.42,31.09,31.09,0,0,1,5.48,2.33,2.69,2.69,0,0,1,1.82,3.1,39.73,39.73,0,0,0-.25,4.76c0,2.68,0,5.36,0,8a8,8,0,0,1-.28,2.24,1.82,1.82,0,0,1-1,1.06c-3.49.94-7,1.87-10.52,2.67-3.05.69-6.14,1.25-9.24,1.77a42.25,42.25,0,0,1-4.5.4q-4.65.29-9.31.49c-3.81.18-7.63.35-11.46.48-5,.18-10,.21-14.93.53-3.2.21-6.38.81-9.56,1.28-1.84.28-3.67.7-5.52.91a13.31,13.31,0,0,1-2.21-.3c-3-.19-6.08-.33-9.12-.5q-6.3-.34-12.59-.73c-3.46-.21-6.9-.51-10.36-.69-2.66-.15-5.33-.25-8-.24-4.35,0-8.71.33-13,.17-4-.14-8.07-.66-12.09-1.12a55.89,55.89,0,0,1-7.87-1.28,66.51,66.51,0,0,1-9.12-3.18c-.75-.33-1.23-1.72-1.46-2.71-.83-3.48-1.49-7-2.21-10.5-.56-2.75-1.13-5.51-1.73-8.44.55,0,1-.09,1.38-.07,4.14.15,8.29.51,12.42.42,4.69-.09,9.36-.58,14-.89,1.47-.1,3-.13,4.41-.29.41,0,.78-.44,1.17-.67,4.33-.09,8.66-.17,13-.27a15.4,15.4,0,0,0,1.64-.23h.48l1.19,0,.49-.23,7.68-1.91h4.56c.23.16.45.43.7.45,2.09.19,4.18.44,6.27.48,6.73.13,13.45.19,20.18.24.31,0,.62-.29.94-.45h2.87a3.25,3.25,0,0,0,.89.23c6.26-.06,12.51-.1,18.77-.24,3.7-.08,7.39-.3,11.08-.49C440.22,493.63,440.54,493.35,440.85,493.2Z" />
            <path class="color-shadow"
                d="M440.85,493.2c-.31.15-.63.43-1,.44-3.69.19-7.38.41-11.08.49-6.26.14-12.51.18-18.77.24a3.25,3.25,0,0,1-.89-.23c1.17-.15,2.32-.36,3.49-.44,3.72-.28,7.44-.64,11.17-.71,2.81-.06,5.62.36,8.44.4S438,493.27,440.85,493.2Z" />
            <path class="color-shadow"
                d="M406.29,494.15c-.32.16-.63.45-.94.45-6.73-.05-13.45-.11-20.18-.24-2.09,0-4.18-.29-6.27-.48-.25,0-.47-.29-.7-.45,4.45-.08,8.91-.32,13.37-.2,4.15.1,8.3.58,12.44.88C404.77,494.17,405.53,494.14,406.29,494.15Z" />
            <path class="color-shadow" d="M376.76,493.43h0Z" />
            <path class="color-shadow" d="M444.2,493.43h0Z" />
            <path class="color-shadow" d="M366,495.33l-.49.23Z" />
            <path class="color-shadow" d="M364.28,495.58h0Z" />
        </g>
    </g>
</svg>
