<svg id="Nizy_pryamoy" data-name="Nizy pryamoy" xmlns="http://www.w3.org/2000/svg" viewBox="0 0 672 960">
    <g id="Midi_Pryamoy" data-name="Midi Pryamoy">
        <g id="img_24_img" data-name="img 24 img">
            <path class="color-base"
                d="M324.49,484.21c5,.86,10,1.8,15.09,2.56,5.21.78,10.44,1.43,15.67,2.05,4.35.52,8.71,1.09,13.09,1.31a76.41,76.41,0,0,0,9.31-.41c2.71-.18,5.41-.41,8.1-.78,2.31-.32,4.16,0,5,2.6,2.6-.15,5.14-.28,7.67-.45,4.3-.29,8.59-.58,12.88-.94,7.15-.61,14.29-1.32,21.44-1.9,4.46-.36,8.93-.44,13.38-.86,4.6-.42,9.17-1.19,13.77-1.64,5.87-.57,11.76-1,17.63-1.45.86-.07,1.7-.28,2.56-.42.11.2.31.4.31.61a45.62,45.62,0,0,1-.64,11.31c-.49,2.21-.83,4.46-1.24,6.7-4,.14-8,.33-12,.41-7.1.13-14.2.84-21.31.23-11.56-1-23.14-1.07-34.74-.9-11,.17-22.05.2-33.07.25-8.87,0-17.73,0-26.6.06-3.51,0-7,.28-10.53.43-.39-.31-.75-.81-1.18-.87-1.79-.25-3.62-.29-5.41-.56-2.66-.4-5.38-.81-7.25-3a3.87,3.87,0,0,1-1-2.27A58.45,58.45,0,0,0,324.49,484.21Z" />
            <path class="outline"
                d="M340.29,503c3.51-.15,7-.41,10.53-.43,8.87-.08,17.73,0,26.6-.06,11-.05,22.05-.08,33.07-.25,11.6-.17,23.18-.08,34.74.9,7.11.61,14.21-.1,21.31-.23,4-.08,8-.27,12-.41l5.74-.12,4.76.23c1.08-3.33,2.06-6.32,3-9.32.87-.41,1,.22,1,.79a48.56,48.56,0,0,1-.77,5.65c-.69,3-1.55,6-2.4,9a58.14,58.14,0,0,1-1.88,5.92,4,4,0,0,1-4.09,2.71c-3.67-.07-7.35-.08-11,0-3.51.09-7,.27-10.53.52a233.8,233.8,0,0,1-26.34.15c-7.9-.34-15.79-.92-23.69-1.18-7.5-.24-15-.5-22.5-.22a303,303,0,0,0-32.63,3.4c-7.1,1.06-14.22,2.19-21.47,1.64-5.2-.4-10.31-1.07-15.09-3.4a37.91,37.91,0,0,0-5-1.62,4.74,4.74,0,0,1-3.51-3.79c-1.61-7.08-3.45-14.11-5.12-21.17a34.26,34.26,0,0,1-.6-4.75,2,2,0,0,1,.63-1.46l1.08,2.38c1,3.56,1.86,7.15,2.94,10.68,1.48,4.86,1.54,4.85,6.7,4.41,1.19,0,2.38.13,3.57.15,3.33,0,6.69-.21,10,.12A38.12,38.12,0,0,0,340.29,503Zm-1,1.51h-24a63.5,63.5,0,0,0,15.44.88c.8,0,1.59.07,2.39.07q30.08,0,60.15.06c7.91,0,15.82.05,23.72-.21,6.41-.21,12.77.12,19.14.51,4.39.27,8.79.58,13.17.43,8.45-.29,16.9-.89,25.34-1.36,6.76.33,13,0,14-.72-.67-.85-1.61-.56-2.42-.53-4.06.12-8.13.29-12.19.47-1.58.07-3.16.21-4.74.32-4.31.1-8.62.22-12.93.29-2.55,0-5.11.08-7.66,0-7.58-.35-15.14-1.05-22.72-1.11-13.57-.12-27.15.16-40.72.21-5.43,0-10.86-.16-16.29-.16-4.23,0-8.46.11-12.69.24C350.63,504,345,504.28,339.31,504.49Zm-22,2.48h-3.56c.54,1.63,1.1,3,1.46,4.47a3.54,3.54,0,0,0,2.72,2.65c1.5.48,2.89,1.35,4.36,1.95a44.22,44.22,0,0,0,5.16,1.87,54.41,54.41,0,0,0,19.93,1.3c8.48-.86,16.94-2,25.43-2.83,6.58-.63,13.19-1,19.79-1.42.8-.05,1.59-.12,2.38-.18l1.07,0,4.2,0,1.55,0,1.38,0,7.21.18a3,3,0,0,0,.88.31q6,.33,11.93.61c4,.18,7.95.46,11.93.44,8.69,0,17.37-.21,26.06-.4,2.46-.06,4.91-.48,7.37-.61,4.14-.22,8.28-.33,12.43-.5,1.7-.07,3.55-.29,4.48-1.79a27.07,27.07,0,0,0,2.54-6.69c-1.86,0-3.37,0-4.89,0a3.51,3.51,0,0,0-.91.24l-4.5.08c-3.2.08-6.39.08-9.58.25a302.69,302.69,0,0,1-31.88,0q-9.46-.5-18.94-.51c-9.11,0-18.22.18-27.34.26s-18.38.1-27.58.15c-.63,0-1.27-.09-1.91-.09l-25.66,0c-1.52,0-3,.09-4.55.14Z" />
            <path class="color-shadow"
                d="M340.29,503a38.12,38.12,0,0,1-9,.26c-3.3-.33-6.66-.09-10-.12-1.19,0-2.38-.1-3.57-.15-.48-3.12-.84-6.27-1.48-9.36-1.19-5.71-1.62-11.57-3.36-17.18a14,14,0,0,0,.83-1.58,2.38,2.38,0,0,1,2.33-1.72,2.21,2.21,0,0,1,2.17,1.59,19.3,19.3,0,0,0,1.88,4.21c.07-.72.15-1.45.23-2.3,2.23,2.11,3.24,4.82,4.16,7.58a58.45,58.45,0,0,1,1,12,3.87,3.87,0,0,0,1,2.27c1.87,2.23,4.59,2.64,7.25,3,1.79.27,3.62.31,5.41.56C339.54,502.17,339.9,502.67,340.29,503Z" />
            <path class="color-shadow"
                d="M484.25,502.38l-5.74.12c.41-2.24.75-4.49,1.24-6.7a45.62,45.62,0,0,0,.64-11.31c0-.21-.2-.41-.31-.61-.11-3.26,1.23-6.21,2-9.27a2.32,2.32,0,0,1,1.38-1.41c.88-.25,1.43.52,1.71,1.31s.44,1.53.65,2.29c.37,1.26,0,2.68,1,3.81.27.29,0,1.07,0,1.62-.06,1.19-.13,2.37-.2,3.55a7.6,7.6,0,0,0-.44,1.35c-.34,2.42-.65,4.84-1,7.27C484.92,497.06,484.59,499.72,484.25,502.38Z" />
            <path class="color-shadow-dark"
                d="M312.89,476.43c1.74,5.61,2.17,11.47,3.36,17.18.64,3.09,1,6.24,1.48,9.36-5.16.44-5.22.45-6.7-4.41-1.08-3.53-2-7.12-2.94-10.68,1.63-1,1.77-2.36,1.4-4.09-.42-1.93-.83-3.91,0-5.88.41-1,.78-1.93,1.9-2.29l.93.07Z" />
            <path class="color-shadow-dark"
                d="M484.25,502.38c.34-2.66.67-5.32,1-8,.32-2.43.63-4.85,1-7.27a7.6,7.6,0,0,1,.44-1.35c.8.32,1.61.61,2.41.94a3.32,3.32,0,0,1,2.14,3.34c0,1.12-.27,2.37.82,3.23-1,3-2,6-3,9.32Z" />
            <path class="color-shadow" d="M312.31,475.69l-.93-.07.66-.87Z" />
            <path class="color-shadow"
                d="M396,514.81l-1.07,0a9.09,9.09,0,0,0-2.47-.67c-10.26.17-20.54-.68-30.76.89-3.91.6-7.85,1-11.77,1.56a40.63,40.63,0,0,1-13.74-.25c-1.09-.22-2.15-.63-3.24-.77a45.75,45.75,0,0,1-14.2-4.61,6.92,6.92,0,0,1-2.25-2.34c-.5-.71,0-1.18.79-1.25.91.14,2.13,0,2.67.5a5.81,5.81,0,0,0,4.15,1.44,13.31,13.31,0,0,1,3.28.45,51.25,51.25,0,0,0,16,2.4c5.58-.1,11.16-.24,16.73-.5,4.68-.21,9.35-.79,14-.89,7.28-.15,14.55-.06,21.83,0,1.5,0,3,.33,4.5.39a40.14,40.14,0,0,0,4.78-.08c2.61-.2,5.2-.74,7.81-.76,4.06,0,8.11.26,12.17.43,3.58.15,7.16.47,10.74.44,7.73-.05,15.47-.29,23.2-.46a5,5,0,0,0,.94-.16c3.44-.58,6.9-1.08,10.32-1.77,2.45-.49,5.09-.43,7.25-2l4.5-.08c.22.4.64.81.62,1.21-.09,2.43-.94,3.92-3.49,3.79a41.42,41.42,0,0,0-13.41,1.72,37.79,37.79,0,0,1-5.58,1.13,114.83,114.83,0,0,1-17.58,1c-1.35,0-2.71,0-4.06-.1-3-.25-6-.66-9-.83-2.63-.15-5.36.39-7.87-.16-3.73-.81-7.28.32-10.9.22-.19,0-.38.26-.57.4l-7.21-.18-1.38,0-1.55,0Z" />
            <path class="color-base"
                d="M477.67,506.74c-2.16,1.58-4.8,1.52-7.25,2-3.42.69-6.88,1.19-10.32,1.77a5,5,0,0,1-.94.16c-7.73.17-15.47.41-23.2.46-3.58,0-7.16-.29-10.74-.44-4.06-.17-8.11-.46-12.17-.43-2.61,0-5.2.56-7.81.76a40.14,40.14,0,0,1-4.78.08c-1.5-.06-3-.38-4.5-.39-7.28,0-14.55-.13-21.83,0-4.68.1-9.35.68-14,.89-5.57.26-11.15.4-16.73.5a51.25,51.25,0,0,1-16-2.4,13.31,13.31,0,0,0-3.28-.45,5.81,5.81,0,0,1-4.15-1.44c-.54-.53-1.76-.36-2.67-.5l0-.37,13,0a9.81,9.81,0,0,0,1.83.34q14.13,0,28.27,0a9.69,9.69,0,0,0,2-.42c9.2,0,18.39-.08,27.58-.15s18.23-.28,27.34-.26q9.48,0,18.94.51a302.69,302.69,0,0,0,31.88,0C471.28,506.82,474.47,506.82,477.67,506.74Z" />
            <path class="color-shadow"
                d="M474.63,504.87c-8.44.47-16.89,1.07-25.34,1.36-4.38.15-8.78-.16-13.17-.43-6.37-.39-12.73-.72-19.14-.51-7.9.26-15.81.21-23.72.21q-30.08,0-60.15-.06c-.8,0-1.59-.05-2.39-.07,1.79-.14,3.58-.27,5.37-.44,1.08-.11,2.15-.29,3.22-.44,5.66-.21,11.32-.46,17-.64,4.23-.13,8.46-.24,12.69-.24,5.43,0,10.86.19,16.29.16,13.57,0,27.15-.33,40.72-.21,7.58.06,15.14.76,22.72,1.11,2.55.11,5.11.07,7.66,0,4.31-.07,8.62-.19,12.93-.29Z" />
            <path class="color-shadow-dark"
                d="M317.27,507l0,.37c-.82.07-1.29.54-.79,1.25a6.92,6.92,0,0,0,2.25,2.34,45.75,45.75,0,0,0,14.2,4.61c1.09.14,2.15.55,3.24.77a40.63,40.63,0,0,0,13.74.25c3.92-.57,7.86-1,11.77-1.56,10.22-1.57,20.5-.72,30.76-.89a9.09,9.09,0,0,1,2.47.67c-.79.06-1.58.13-2.38.18-6.6.46-13.21.79-19.79,1.42-8.49.82-16.95,2-25.43,2.83a54.41,54.41,0,0,1-19.93-1.3,44.22,44.22,0,0,1-5.16-1.87c-1.47-.6-2.86-1.47-4.36-1.95a3.54,3.54,0,0,1-2.72-2.65c-.36-1.45-.92-2.84-1.46-4.47Z" />
            <path class="color-shadow-dark"
                d="M410.35,515c.19-.14.38-.4.57-.4,3.62.1,7.17-1,10.9-.22,2.51.55,5.24,0,7.87.16,3,.17,6,.58,9,.83,1.35.11,2.71.06,4.06.1a114.83,114.83,0,0,0,17.58-1,37.79,37.79,0,0,0,5.58-1.13,41.42,41.42,0,0,1,13.41-1.72c2.55.13,3.4-1.36,3.49-3.79,0-.4-.4-.81-.62-1.21a3.51,3.51,0,0,1,.91-.24c1.52,0,3,0,4.89,0a27.07,27.07,0,0,1-2.54,6.69c-.93,1.5-2.78,1.72-4.48,1.79-4.15.17-8.29.28-12.43.5-2.46.13-4.91.55-7.37.61-8.69.19-17.37.36-26.06.4-4,0-8-.26-11.93-.44s-8-.39-11.93-.61A3,3,0,0,1,410.35,515Z" />
            <path class="color-shadow-dark"
                d="M474.63,504.87l-5.32-.46c1.58-.11,3.16-.25,4.74-.32,4.06-.18,8.13-.35,12.19-.47.81,0,1.75-.32,2.42.53C487.64,504.9,481.39,505.2,474.63,504.87Z" />
            <path class="color-shadow-dark"
                d="M339.31,504.49c-1.07.15-2.14.33-3.22.44-1.79.17-3.58.3-5.37.44a63.5,63.5,0,0,1-15.44-.88Z" />
            <path class="color-shadow"
                d="M362.35,506.9a9.69,9.69,0,0,1-2,.42q-14.15,0-28.27,0a9.81,9.81,0,0,1-1.83-.34c1.52-.05,3-.14,4.55-.14l25.66,0C361.08,506.81,361.72,506.87,362.35,506.9Z" />
            <path class="color-shadow-dark" d="M396,514.81l4.2,0Z" />
            <path class="color-shadow-dark" d="M401.76,514.82l1.38,0Z" />
        </g>
    </g>
</svg>
