<svg id="Manzhet" xmlns="http://www.w3.org/2000/svg" viewBox="0 0 672 960">
    <g id="kashkorse_img" data-name="kashkorse img">
        <path class="color-shadow"
            d="M476.07,289.22l.11-1a6.13,6.13,0,0,0,.39-1.19c.15-1.11.26-2.22.33-3.34.29-4.5.47-9,.85-13.5.39-4.68.77-9.38,1.49-14,.59-3.81,1.74-7.54,2.52-11.32,1.2-5.78,2.11-11.62,3.48-17.35,1.27-5.36,3-10.6,4.5-15.9.41-1.49.68-3,1-4.53l0,0a6.22,6.22,0,0,0,.66-1.06c.53-1.29,1-2.62,1.52-3.9.39-1,.88-1.86,1.42-3a8.55,8.55,0,0,1,.55,1.06c.7,2.25,1.48,4.48,2.06,6.76,1.18,4.68,2.24,9.39,3.39,14.08,1.05,4.31,2.44,8.55,3.16,12.91,1.12,6.76,1.81,13.6,2.67,20.4.78,6.21,1.52,12.43,2.33,18.64.36,2.73.91,5.44,1.26,8.17.72,5.74,1.22,11.51,2.08,17.22a149.31,149.31,0,0,1,1.93,19.53,53.81,53.81,0,0,0,3.6,19,78.26,78.26,0,0,1,4.53,18.34c.63,4.67,1.05,9.36,1.65,14a107.88,107.88,0,0,0,3.09,15.6c1.38,4.87,2.3,9.87,3.58,14.78a47.9,47.9,0,0,1,1.19,14.85c-.08,1.46-.42,2.93-.41,4.39,0,2.43.19,4.86.35,7.28.1,1.67.32,3.34.43,5,.13,2.05.27,4.11.3,6.17,0,1.56-.13,3.11-.18,4.67,0,.73,0,1.47,0,2.26H528c.07-1.91.1-3.82.22-5.73s.46-4,.48-6.06c0-3.89,0-7.79-.23-11.68-.18-2.8-.92-5.56-1.19-8.36-.36-3.84-.42-7.71-.78-11.55-.3-3.24-.8-6.46-1.29-9.68-.47-3.06-1.06-6.1-1.57-9.15-.56-3.29-1-6.59-1.65-9.87-.57-3-1.24-6-2-9-1.33-5.49-2.65-11-4.12-16.44-1.36-5.07-3-10.06-4.34-15.14a59,59,0,0,1-1.1-7.65c-.3-2.57-.52-5.14-.74-7.71-.12-1.31-.14-2.63-.28-3.93-.44-4.19-.88-8.37-1.41-12.55-.55-4.37-1.12-8.74-1.84-13.08-.81-4.94-1.77-9.85-2.71-14.77-1.33-6.94-2.72-13.88-4.06-20.82-.68-3.51-1.38-7-1.91-10.55s-.88-7.09-1.27-10.64c-.41-3.71-.76-7.43-1.18-11.14-.21-1.87-.52-3.72-.79-5.59l-.3,0c-.19.49-.41,1-.57,1.48-2.66,8.11-5.34,16.2-7.94,24.33a140,140,0,0,0-4,13.5,153.66,153.66,0,0,0-2.22,15.43c-.55,5.18-.95,10.38-1.17,15.58-.19,4.71,0,9.44,0,14.16,0,.35,0,.72,0,1.07.3,3.57.59,7.13.93,10.69a7.68,7.68,0,0,0,.53,2.16c1.5,3.73,3.22,7.39,4.55,11.18a93.36,93.36,0,0,1,2.7,9.9q2,8.47,3.7,17c1.09,5.37,2,10.77,3.06,16.15s2,10.7,3.25,16c1.5,6.54,3.15,13.06,4.85,19.56,1,3.85,2.28,7.63,3.3,11.47.81,3.07,1.3,6.23,2.12,9.29,1.76,6.57,4.34,12.9,5.61,19.62a29.88,29.88,0,0,0,2.15,5.41l-3.74,1.73c-.58-1.32-1.17-2.42-1.55-3.59a11,11,0,0,1-.52-3c-.12-3,.33-6.09-.68-9-.73-2.15-1.65-4.24-2.4-6.39-1.2-3.43-2.18-6.93-3.5-10.31a152.92,152.92,0,0,1-7.89-26.48c-1.07-5.48-2.35-10.91-3.59-16.36s-2.65-10.84-3.8-16.3c-.71-3.43-.94-7-1.62-10.39q-2-9.85-4.24-19.64c-1.07-4.62-1.71-9.36-3.7-13.73a7.56,7.56,0,0,1-.79-4,36.86,36.86,0,0,0,.18-3.94c0-1.39-.11-2.78-.18-4.17-.13-2.84-.24-5.68-.4-8.52C476.35,291.76,476.19,290.49,476.07,289.22Z" />
        <path class="outline"
            d="M37.06,237.28c.87-2.36,1.67-4.76,2.65-7.07a3.8,3.8,0,0,1,1.76-1.8c3.63-1.63,7.34-3.1,11-4.69a18.3,18.3,0,0,0,6.88-4.67c1.47-1.72,3.53-1.72,5.51-1.81,6.39-.31,12.79-.52,19.19-.82,3.45-.16,6.89-.44,10.24-.65.13-.24.2-.3.2-.37-.06-2.68.28-3,3-3.44q4.74-.71,9.45-1.57a16.76,16.76,0,0,0,2.7-.95c.11.59.57,1,1.18.26,1.08-1.24,2.64-1.2,4-1.68.59-.21,1.2-.37,1.8-.57a26.19,26.19,0,0,1,2.71-.92c5.64-1.29,11.3-2.48,16.94-3.8,3.11-.73,6.17-1.68,9.27-2.45a23.66,23.66,0,0,1,4-.61c8.94-.56,17.88-1.07,26.81-1.6,3.34-1.38,6.88-.64,10.32-.94s7.08-.72,10.63-.92c5.58-.33,11.18-.5,16.76-.78,1.64-.08,3.26-.34,4.9-.46,4.58-.37,9.17-.6,13.73-1.09,4.85-.51,9.66-1.31,14.5-1.89,3.1-.37,6.22-.52,9.31-.85q13.71-1.47,27.4-3c3-.35,6-.93,9-1.3,1.42-.17,2.87-.1,4.31-.13a134.67,134.67,0,0,0-.58,18.52q.62,11.43.3,22.89c-.11,4,.6,8,1,12,.26,2.72.48,5.45.88,8.15.38,2.53,1,5,1.48,7.53l2.82,14c.05.23.15.44.22.66-.84-1.14-1.64-2.31-2.54-3.4a8,8,0,0,0-1.6-1.34c-.59-.41-1.27-.69-1.84-1.11-8-5.88-17.28-9-26.72-11.71q-6.21-1.77-12.43-3.51c-4.45-1.24-8.89-2.57-13.38-3.68a48.12,48.12,0,0,0-6-.72l-.49-.07c-3-.48-5.89-1.08-8.86-1.44-4.39-.53-8.8-.89-13.21-1.33l-1-.08-1.92-.17-.73-.09c-2.72-.36-5.44-.77-8.17-1a28.57,28.57,0,0,0-3.81.1l-1.21,0-6.15-.39-.56-.07c-1.95-.37-3.9-.78-5.86-1.08s-4.19-.52-6.28-.78l-.83-.06c-.54-.11-1.08-.25-1.63-.32L168.71,237l-1.47-.12-2.07-.18-1.29-.12-2.88-.19-1-.07-8.06-.81-2.49,0-7,0-.72-.06-1.8-.16-.6-.06-1.35-.16-.81-.08-10.08-.26-1.27.11-1.13.16-.33,0-4.4-.2-.77-.06c-.9.13-1.82.22-2.71.42-1.09.23-2.17.56-3.25.85l-1-.05-3.14-.1-.49.05c-1.79.36-3.58.7-5.37,1.1s-3.66,1.17-5.59.14c-.63.81-1.34,1.59-1.9,2.46a7.91,7.91,0,0,1-4.12,3.13c-1.12.41-2.3.66-3.44,1-4.19,1.36-8.75,1.28-12.73,3.59-2.68,1.55-5.7,2.51-8.49,3.89a16.43,16.43,0,0,1-9.27,1.74,3,3,0,0,1-1.86-1.06,3.16,3.16,0,0,1,.56-4.76c2.19-1.67,4.49-3.19,6.74-4.78,2.08-1.48,4.17-3,6.23-4.45.72-.53.76-1,.09-1.84a1.85,1.85,0,0,0-2.47-.59c-.67.24-1.37.41-2.06.61l-.48.06c-.7.25-1.76.29-2.06.79-1.44,2.4-3.73,3.84-5.88,5.41s-4.55,3-7.39,3.28l-.52-.45a2.55,2.55,0,0,1,.67-2.73c1.4-1.63,2.78-3.29,4.16-4.94l-.26-.29c-1.84.95-3.83,1.6-4.77,3.84a60.66,60.66,0,0,1-3,6.22c-1.3,2.3-2.81,2.87-5.39,2.39a1,1,0,0,0-.81.24,11,11,0,0,1-5.43,3.53l-.95.1c-1.71-.14-2.15-1-1.4-2.57,1.14-2.44,2.24-4.89,3.37-7.34l1-1-.18,4.82h-.39l-.31-1.41-.25-.06-2.35,6a8.05,8.05,0,0,0,5.84-2.8,31.31,31.31,0,0,0,5.91-9.11,9.9,9.9,0,0,1,3.48-4.33A27.1,27.1,0,0,1,58,231.81c3-.55,6-1.05,8.92-1.8a11.5,11.5,0,0,1,6.11.35c.22.06.37.32.77.68-1.33.16-2.39.27-3.44.42-.85.13-1.7,1.08-1.43,1.73.45,1.07,1.06,2.07,1.66,3.19l6.85-6.85.3.28a1.71,1.71,0,0,1-.17.39c-1.39,1.63-2.75,3.3-4.21,4.88a29.79,29.79,0,0,1-4.07,4c-3.85,2.83-7.84,5.46-11.77,8.19a6.13,6.13,0,0,0-.81.87c1.48-.4,2.78-1,4.15-1.42,2-.56,3.31-.12,3.89,1.06-2.46-1.07-6.68.77-7.74,3.52a7.11,7.11,0,0,0,1.42.46,12,12,0,0,0,7-.93c2.32-1.17,4.74-2.13,7.09-3.22A40,40,0,0,1,83.47,244a62.55,62.55,0,0,0,7.21-1.75,6.8,6.8,0,0,0,4.56-3.42c.5-.94,1.26-1.75,1.8-2.69a4.15,4.15,0,0,0,.59-1.86A37.71,37.71,0,0,0,96.36,224c-.61-2.47-1.08-5-1.62-7.49l-1.35.08L74,217.88c-3.3.21-6.6.39-9.9.66-2,.16-3.41,1.47-5.35,2.47H69.11a2.12,2.12,0,0,1-1.18.54,61.51,61.51,0,0,0-6.52.86c-6.67,1.65-13.33,3.38-19.41,6.74a3.6,3.6,0,0,0-1.35,1.58c-1,2.18-1.9,4.4-2.8,6.63-.71,1.75-1.36,3.52-2,5.28l-.22-.82,1.26-3.93ZM295.93,188.5c-1.32.06-2.71.08-4.09.19-3,.25-5.95.58-8.93.81s-6,.28-8.94.63c-7.6.9-15.07,2.68-22.75,3.12-4,.23-7.91,1-11.87,1.48-2.88.35-5.77.74-8.67,1-2.47.17-5-.22-7.42.21-5.39,1-10.81.8-16.22,1.13l-10,.6c-2.87.17-5.74.37-8.62.51-1.66.08-3.33,0-5,.09-5.05.42-10.09.91-15.13,1.4-5.28.51-10.55,1.25-15.84,1.5a62.31,62.31,0,0,0-11.22,1.7c-6.28,1.49-12.53,3.18-18.88,4.32a48.91,48.91,0,0,0-8.85,2.76c-1.35.51-2.79,1.42-2.54,3.39.17,1.38.23,2.78.4,4.16.38,3,.73,6.07,1.23,9.08.31,1.87,1,3.68,1.3,5.55.15.81.41,1.14,1.21,1l1.64-.29a6.17,6.17,0,0,1,2-.35,37.71,37.71,0,0,0,7.73.37,63.84,63.84,0,0,1,13.72.83c3.42.6,7,.32,10.49.59,4.18.32,8.35.74,12.51,1.23,7.65.9,15.31,1.72,22.92,2.88,4.58.69,9.12,1.6,13.78,1.5,1.36,0,2.71-.16,4.06-.08,3.59.2,7.17.53,10.76.72,2.43.13,4.89-.07,7.3.18,4.69.48,9.35,1.18,14,1.78,2.92.37,5.91.48,8.77,1.13,4.39,1,8.72,2.31,13.05,3.56,2.38.69,4.69,1.61,7.06,2.29,4.34,1.23,8.79,2.1,13,3.61a139.88,139.88,0,0,1,13.63,5.87A65.61,65.61,0,0,1,298,263c.9.58,1.85,1.07,3.06,1.76-.59-3.22-1.15-6-1.6-8.75-.84-5.15-1.68-10.31-2.42-15.47a87.17,87.17,0,0,1-.81-15.06c.11-3.28.19-6.56.15-9.83-.09-7.07-.27-14.14-.39-21.21C295.91,192.57,295.93,190.66,295.93,188.5ZM112.78,232.91c0-.17,0-.53-.11-.87q-1.64-9.12-3.26-18.23c-.28-1.59-.5-1.69-2.16-1.35-2.85.58-5.7,1.18-8.58,1.58-2.09.28-2.48.51-2.23,2.67.28,2.49.57,5,1,7.44.6,3.17,1.41,6.29,2,9.45.23,1.11.79,1.21,1.72,1a41,41,0,0,1,4.08-.83C107.74,233.43,110.17,233.2,112.78,232.91ZM49.54,244.59l.4.32c4-1.61,7.72-3.63,10.33-7.27A16.63,16.63,0,0,1,61.6,236c1.24-1.34,2.95-1.68,4.61-2.11s1.93-.7,1.71-2.3c-3.6.66-7.3.91-10.4,3.17a9.45,9.45,0,0,0-1.79,1.54c-1.91,2.36-3.76,4.76-5.61,7.17A6.28,6.28,0,0,0,49.54,244.59Zm-8.93,3.61a3.73,3.73,0,0,0,4.11-2,51.59,51.59,0,0,0,2.53-4.9,7.17,7.17,0,0,1,3-3.3c1.56-1,3.06-2,4.57-3.07.64-.44,1.24-.92,2.11-1.57a16.71,16.71,0,0,0-10,4.1,8.73,8.73,0,0,0-1.72,2.41c-.84,1.58-1.51,3.25-2.36,4.83C42.2,245.85,41.41,247,40.61,248.2Zm18.31-27.14-.16.08s.06.08.08.08a.48.48,0,0,0,.16-.08Z" />
        <path class="outline"
            d="M528,444.28h3.89c0-.79,0-1.53,0-2.26.05-1.56.2-3.11.18-4.67,0-2.06-.17-4.12-.3-6.17-.11-1.67-.33-3.34-.43-5-.16-2.42-.34-4.85-.35-7.28,0-1.46.33-2.93.41-4.39a47.9,47.9,0,0,0-1.19-14.85c-1.28-4.91-2.2-9.91-3.58-14.78a107.88,107.88,0,0,1-3.09-15.6c-.6-4.67-1-9.36-1.65-14a78.26,78.26,0,0,0-4.53-18.34,53.81,53.81,0,0,1-3.6-19,149.31,149.31,0,0,0-1.93-19.53c-.86-5.71-1.36-11.48-2.08-17.22-.35-2.73-.9-5.44-1.26-8.17-.81-6.21-1.55-12.43-2.33-18.64-.86-6.8-1.55-13.64-2.67-20.4-.72-4.36-2.11-8.6-3.16-12.91-1.15-4.69-2.21-9.4-3.39-14.08-.58-2.28-1.36-4.51-2.06-6.76a8.55,8.55,0,0,0-.55-1.06c-.54,1.12-1,2-1.42,3-.54,1.28-1,2.61-1.52,3.9a6.22,6.22,0,0,1-.66,1.06c.34-1.3.59-2.64,1-3.91.75-2.21,1.6-4.38,2.43-6.57,0-.12.22-.2.61-.53l2.09,3.8.14.47.1.49.12.48.33,1.44.28.69c.24.73.47,1.46.71,2.19l.15.47.35,1.45.11.48.09.48.13.49.63,2.39.35,1.2c.11.4.22.8.32,1.2l.15.48.1.48.14.48.14.72.11.48.08.48.15.72.08.48.18,1,.07.48.16,1,.08.72.18.71.29.73.3.69.24.75.14.47.1.49.12.48.07.48.15.72.07.48.17,1,.1.72.16,1,.09.72.16.95c0,.25,0,.49.08.73l.15.95.06.49.18,1,.14.72.09.48.15.72.09.48.08.48.18.95.09.73.13,1,.08,1c.06.4.11.8.16,1.2l.16,1.2.07.48.15,1,.1.72.13,1,.11,1c0,.4.07.8.1,1.2l.12,1,.11,1,.15.72.12.72.11.48.1.72.16,1,.06.49.18,1.68.06.72c.05.48.11,1,.16,1.44l.07.48c.06.32.12.64.17,1l.13.72.11.48.08.48.16.72.1.72.15,1,.12,1,.11,1c0,.32.07.64.1,1l.15,1.2c.05.4.1.8.14,1.2l.08.48c.06.4.11.8.16,1.2l.08.48.14,1.2.11.72c0,.24.05.48.08.72l.17,1,.07.48.41,1.92.08.48.18.95.07.73c.06.48.11,1,.16,1.43l.09,1.21.15,1.2.08.72.15,1,.12,1,.13,1.2.08,1c0,.48.09,1,.14,1.44l.13,1.2.12.72.16,1,.09.48.11.72.12.72.09.72.16,1.19.08.73.17,1.19.06.49.17,1,.07.48.17,1,.06.49.17,1,.08.72.16,1.44.06.72c.07.56.13,1.12.19,1.68l.09.72c0,.24.09.48.13.72l.1.72c0,.56.11,1.12.16,1.67l.09,3.85c0,.4.09.8.13,1.2l.13,1.44.12,1.68.1,3.36.13,1.44.12,1,.14.72.11.72.13.71.08.49.16.71.12.49c.11.4.22.8.34,1.2.35,1.12.71,2.24,1.07,3.36l.38,1.2.12.48.14.47.1.49.12.48.08.48.16.72.08.48.16.72.13.72.11.48.13.72.11.48.1.48.14.48.1.48c.13.48.27,1,.4,1.43l.11.49.12.47.11.49.12.48.08.48.17.72.08.48.39,1.68.11.48.63,2.39.1.49.12.48.08.48c.13.88.27,1.76.4,2.64l.07.72c.06.4.12.8.17,1.2l.09.72c0,.24.1.48.14.72l.07.48.18,1,.07.48.18,1,.07.49c0,.32.11.64.17,1l.08.72.15,1c0,.24,0,.48.07.72.06.4.11.8.17,1.2l.11,1,.13.72.09.72.15.72.11.72c0,.24.09.48.13.72l.17,1,.08.48.12.72.1.48c.05.32.1.64.16,1l.08.48.1.72c0,.24.1.48.14.72l.12.72.12.48.1.48.15.48.35,1.2.6,1.92.11.48.13.48.15.72.09.48.14,1,.1.48c.05.24.09.48.14.72l.11.48.11.48.12.48.1.48.14.48.1.48.14.48.11.48.14.48.1.48.13.48.09.48.16.72.11.72.6,2.4.14.48c.19.64.39,1.28.59,1.92l.13.48.12.47.1.49c0,.24.09.48.14.72l.06.48c.06.32.11.64.16,1s.09.64.14,1l.09.49c0,.39.11.79.16,1.19l.1,1c0,1.68.06,3.36.1,5V413l-.09,1.44-.12.72c-.12.72-.24,1.44-.37,2.16v.95l.14,1.68c0,.24.07.48.11.72l.07.72c0,1.07-.05,2.14,0,3.2,0,1.5.12,3,.19,4.48l.08.72c.14.8.27,1.6.41,2.4l.06.48v2.65l-.06,1c-.06.4-.11.8-.16,1.2l-.09.72c0,.4-.09.8-.14,1.2,0,.56,0,1.11,0,1.67s.09,1,.13,1.44c0,.32,0,.65,0,1s0,.63,0,.95l.61.79c-2,1.15-.66,2.89-.55,4.4.22,3,.64,6,.92,9.05a3.33,3.33,0,0,1-1.23,2.8,3.17,3.17,0,0,0-.45,2.17c.05,1.49.27,3,.43,4.47.32,3,.61,6,1,9a139.42,139.42,0,0,0,2.8,18.17c.55,2.2-.32,4.16-1.26,6.07-2.32,4.73-4.67,9.44-7,14.17a11.89,11.89,0,0,1-3.31,3.83,91.5,91.5,0,0,0-6.83,6.53c-1.44,1.48-2.7,3.14-4,4.74a1.57,1.57,0,0,1-2.82-.33c-.86-1.63-.47-3.24,0-4.85.29-.94.66-1.85,1.13-3.16-1,.59-1.76,1-2.49,1.47-1,.61-1.92,1.3-2.92,1.88-2.09,1.23-3.13-.33-3.26-2-.21-2.56,1.13-4.5,3-6.11.78-.68,1.67-1.23,2.71-2-1.24-.39-2.3-.72-3.36-1.07-.62-.21-1.25-.43-1.85-.7-2.32-1-1.87-2.31-.39-3.85a3.07,3.07,0,0,0,.93-1.51,2.33,2.33,0,0,1,1.65-1.47c1.95,0,2.36-1,2.67-2.7.6-3.31,1.68-6.53,2.46-9.82.94-4,2.37-7.95,2.24-12.13-.06-1.59-.74-3.14-.9-4.73a57.14,57.14,0,0,1-.46-8.85,18.36,18.36,0,0,0-1-6l-.07-.48-.81-3.36-.16-.48c-.63-2.24-1.21-4.5-1.93-6.72-.15-.48-.81-.81-1.24-1.2l0-1.93c0-.4,0-.79,0-1.19l-.32-.64-.15-.32-.65-1.91v-1c.07-.39.13-.79.2-1.19,0-1.52,0-3,.05-4.56a10.53,10.53,0,0,0-1.18-6.23l-.31-.72c-.37-1-.75-2.08-1.13-3.12l-.1-.48-.15-.48-.11-.48-.14-.47c-.11-.41-.23-.81-.34-1.21l-.48-1.42-.44-1.22-.53-1.41-.45-1.47-.16-.47c-.26-.73-.51-1.45-.76-2.17l-.29-.7-.2-.5c-.18-.47-.37-.94-.55-1.4-.39-1.22-.79-2.43-1.18-3.64l-.15-.47-.56-1.93-.25-.69c-.15-.49-.31-1-.46-1.47s-.42-1.28-.62-1.92l-1.05-3.6-.16-.48-.11-.48-.12-.48-.14-.72-.1-.48-.13-.72-.11-.48-.14-.72-.11-.48-.14-.72-.1-.48-.15-.72-.1-.47-.1-.49-.13-.48-.57-2.64-.15-.72-.11-.72-.13-.72-.16-1-.08-.48-.14-.72-.1-.48-.14-.72-.1-.48-.14-.72-.11-.48c-.18-.8-.37-1.6-.56-2.4L491,379c-.2-.8-.41-1.6-.61-2.4l-.14-.47-.31-1.21-.15-.48-.57-1.92-.16-.47c-.27-.89-.55-1.77-.82-2.65l-.15-.47-.61-2.41-.1-.47-.1-.49-.12-.48-.15-.72-.11-.47-.11-.49-.12-.48-.39-1.92-.1-.48-.13-.72-.1-.48-.12-.72-.12-.72c-.06-.32-.11-.64-.16-1l-.08-.48-.13-1-.1-.72c0-.48-.09-1-.13-1.44,0-.24-.07-.48-.11-.72l-.16-1.2-.08-.48-.11-.72-.15-.71-.08-.49-.16-.71-.11-.49-.13-.47c-.19-.65-.38-1.29-.56-1.93l-.15-.48-.12-.48-.12-.48-.1-.48-.12-.48-.15-.72-.11-.48c0-.24-.08-.48-.13-.72l-.1-.48-.14-.72-.11-.48-.14-.72-.1-.48-.14-.72-.1-.48-.1-.48-.14-.48-.12-.48-.13-.47-.12-.49-.12-.47-.12-.49-.12-.48-.13-.72-.09-.48-.16-1-.08-.48c-.14-.88-.27-1.76-.4-2.64l-.09-.48-.11-.72-.11-.49-.14-.71-.13-.47-1.08-4.33-.11-.48-.36-1.68-.12-.48-.11-.48c-.24-.65.07-1.63-1.05-1.74-.23-2.58-.52-5.17-.69-7.76s-.34-5-.27-7.47c.11-3.78.42-7.55.65-11.32.12,1.27.28,2.54.34,3.81.16,2.84.27,5.68.4,8.52.07,1.39.18,2.78.18,4.17a36.86,36.86,0,0,1-.18,3.94,7.56,7.56,0,0,0,.79,4c2,4.37,2.63,9.11,3.7,13.73q2.25,9.78,4.24,19.64c.68,3.43.91,7,1.62,10.39,1.15,5.46,2.56,10.86,3.8,16.3s2.52,10.88,3.59,16.36a152.92,152.92,0,0,0,7.89,26.48c1.32,3.38,2.3,6.88,3.5,10.31.75,2.15,1.67,4.24,2.4,6.39,1,2.94.56,6,.68,9a11,11,0,0,0,.52,3c.38,1.17,1,2.27,1.55,3.59l3.74-1.73c1.35-.32,2.7-.66,4.06-.95,2.89-.62,5.62-2,8.68-1.77C527.71,444.46,527.86,444.34,528,444.28Zm-9.63,3.36a17,17,0,0,0-6.69,2c-.92.44-1.14.88-.89,1.83.77,3,1.49,5.95,2.2,8.93.33,1.38.61,2.78.92,4.2a7.85,7.85,0,0,0,.9-.05c3.57-.77,7.17-1.44,10.7-2.37,2.3-.6,4.5-1.58,6.74-2.41.73-.27.84-.82.74-1.54-.48-3.76-.89-7.52-1.39-11.27-.05-.35-.5-.93-.77-.93-1.68,0-3.36.12-5,.2Zm13.13,15.08c-2.75.79-5.13,1.61-7.57,2.15s-4.93.82-7.44,1.21c-.12,2.19-.31,4.21-.34,6.24,0,2.39.07,4.78.16,7.18.14,4.25-1.23,8.24-2.16,12.29-1.35,5.93-2.87,11.81-4.24,17.73a5.91,5.91,0,0,0,.14,2.57c.21.93.9,1.1,1.44.34a10.36,10.36,0,0,0,1.76-3.22,4.56,4.56,0,0,0-.52-2.78c-.16-.34-1.14-.3-1.74-.42,1-1.45,2.32-1,3.5,1.34.2-.29.39-.52.55-.78,2-3.17,3.92-6.41,6-9.5a14.65,14.65,0,0,0,2.54-5.58,9.89,9.89,0,0,1,.41-1.38q2-5.83,3.91-11.68c.16-.47.33-.93.49-1.4l.4.08a16.55,16.55,0,0,1-.33,2.36c-1.27,4.19-2.6,8.36-3.88,12.54a2.9,2.9,0,0,0-.08,1.37c.36,1.87.92,3.72,1.13,5.6.18,1.69.7,3.38-.1,5.15-1.17,2.57-2,5.29-3.11,7.9a11.51,11.51,0,0,1-1.63,2.59c-1.93,2.43-4,4.74-5.82,7.25a11.12,11.12,0,0,0-1.61,3.94,9.89,9.89,0,0,0,.09,3.25c0,.22.53.39.8.58.15-.29.46-.6.43-.86-.27-2,1-3.06,2.47-4.06l-1.21,2a.68.68,0,0,0,.6-.16c3.23-2.91,6.48-5.8,9.69-8.73a6,6,0,0,0,1.3-1.7c2.5-5,5-10,7.43-15,1-2.06,1.76-4.12.61-6.38a1.59,1.59,0,0,1-.14-.58c-.64-5.69-1.22-11.4-1.93-17.09C532.94,472.25,532.19,467.49,531.5,462.72Zm-8.11,34.5-.27,0c-.16,1.28-.26,2.57-.5,3.84a46.9,46.9,0,0,1-3.53,10.63,4.69,4.69,0,0,1-3,2.7,30,30,0,0,0-4,1.56,14.54,14.54,0,0,0-5.45,4,3.53,3.53,0,0,0-.72,3.78c.42,1,.91,1.32,1.87.72l7.44-4.58a3.45,3.45,0,0,0,.5-.51c1.61-1.76,3.24-3.51,4.83-5.3a5.36,5.36,0,0,0,1-1.56c1.14-3,2.23-6,3.32-9a1.76,1.76,0,0,0,.2-.91C524.55,500.84,524,499,523.39,497.22Zm-14.61,12.44a19.57,19.57,0,0,0-3.73,1.14c-1.05.55-.94,1.44.12,1.9,1.35.59,2.77,1,4.13,1.57a4.93,4.93,0,0,0,4.63-.18,19.74,19.74,0,0,1,2.6-.84,2.29,2.29,0,0,0,1.2-.83c.73-1.32,1.35-2.71,2-4.09a23.08,23.08,0,0,0,2.36-11.74c-.17.6-.25.93-.36,1.24a43,43,0,0,1-1.53,4.21c-.84,1.75-1.91,3.4-2.82,5.12-.51,1-1,1.9-2.14,2.23-.37.11-.66.62-.9,1-.68,1.07-1.24,2.23-2,3.26-.58.8-1.36.79-2.17.12C509,512.81,508.82,511.5,508.78,509.66Zm5.52-43.48c-.84,5.76-.51,7.78.53,10.93.26-3.59.51-7.19.77-10.83-.15,0-.34-.08-.53-.1S514.61,466.18,514.3,466.18Zm1.07,42,.4.27,4.13-7.66-.4-.22Zm-6.09.56c-.18-.37-.24-.82-.47-1-.73-.38-1.86.21-2.29,1.22Z" />
        <path class="outline"
            d="M490.76,207.08c-.34,1.51-.61,3-1,4.53-1.49,5.3-3.23,10.54-4.5,15.9-1.37,5.73-2.28,11.57-3.48,17.35-.78,3.78-1.93,7.51-2.52,11.32-.72,4.63-1.1,9.33-1.49,14-.38,4.5-.56,9-.85,13.5-.07,1.12-.18,2.23-.33,3.34a6.13,6.13,0,0,1-.39,1.19c0-.6,0-1.2-.05-1.81,0-1,0-1.91,0-2.87.09-3.29.21-6.59.29-9.89,0-.91,0-1.83-.06-2.74-.2-3.31.5-6.52,1.06-9.75.52-2.94,1-5.89,1.6-8.83s1.13-5.77,1.74-8.65c.83-3.87,1.65-7.74,2.59-11.59q2.06-8.37,4.28-16.69c.7-2.57,1.61-5.09,2.46-7.62C490.17,207.5,490.53,207.31,490.76,207.08Z" />
        <path class="transparent"
            d="M65,236.06c.69-.2,1.39-.37,2.06-.61a1.85,1.85,0,0,1,2.47.59c.67.83.63,1.31-.09,1.84-2.06,1.5-4.15,3-6.23,4.45-2.25,1.59-4.55,3.11-6.74,4.78a3.16,3.16,0,0,0-.56,4.76,3,3,0,0,0,1.86,1.06A16.43,16.43,0,0,0,67,251.19c2.79-1.38,5.81-2.34,8.49-3.89,4-2.31,8.54-2.23,12.73-3.59,1.14-.36,2.32-.61,3.44-1a7.91,7.91,0,0,0,4.12-3.13c.56-.87,1.27-1.65,1.9-2.46,1.93,1,3.75.27,5.59-.14s3.58-.74,5.37-1.1c-.05.63-.33.93-1,1a39.46,39.46,0,0,0-6,1.25,8.4,8.4,0,0,1-3.2.43,1.41,1.41,0,0,0-1,.55c-2.47,3.92-6.47,5-10.62,5.9a64.29,64.29,0,0,0-8.64,2.06c-3.26,1.19-6.29,3-9.49,4.37-2.09.89-4.31,1.48-6.46,2.21a9.91,9.91,0,0,1-5.21.14,4.13,4.13,0,0,1-1.61-7,82.08,82.08,0,0,1,7.22-5.24l5.83-4.15a2.62,2.62,0,0,0,.45-.56c-.81-1.08-1.77-.41-2.64-.34C65.71,236.55,65.14,236.91,65,236.06Z" />
        <path class="transparent"
            d="M238.76,245a48.12,48.12,0,0,1,6,.72c4.49,1.11,8.93,2.44,13.38,3.68q6.22,1.74,12.43,3.51c9.44,2.69,18.68,5.83,26.72,11.71.57.42,1.25.7,1.84,1.11a8,8,0,0,1,1.6,1.34c.9,1.09,1.7,2.26,2.54,3.4l.09.49h0l.56,1c-.41-.09-1-.05-1.19-.3-1-1.25-1.81-2.62-2.78-3.88a5.78,5.78,0,0,0-1.43-1.15c-1.38-.94-2.72-1.94-4.18-2.75-2.95-1.64-5.89-3.34-9-4.7a105,105,0,0,0-10.62-4c-3.44-1.08-7-1.71-10.48-2.74s-6.62-2.27-10-3.32c-1.84-.59-3.75-1-5.63-1.45s-3.86-.91-5.81-1.28c-.91-.17-1.86-.08-2.79-.19C239.41,246.12,238.77,245.86,238.76,245Z" />
        <path class="transparent"
            d="M33.79,253.41a11,11,0,0,0,5.43-3.53,1,1,0,0,1,.81-.24c2.58.48,4.09-.09,5.39-2.39a60.66,60.66,0,0,0,3-6.22c.94-2.24,2.93-2.89,4.77-3.84l.26.29c-1.38,1.65-2.76,3.31-4.16,4.94a2.55,2.55,0,0,0-.67,2.73A1.65,1.65,0,0,0,47,246.41a7.33,7.33,0,0,1-4.3,4.2c-.62.24-1.41,0-2,.29a27.25,27.25,0,0,0-2.75,1.39c-1.08.56-2.15,1.15-3.26,1.63C34.48,254,34.09,253.59,33.79,253.41Z" />
        <path class="transparent"
            d="M216.2,242.13c4.41.44,8.82.8,13.21,1.33,3,.36,5.91,1,8.86,1.44.07.79-.32,1.14-1.07,1a54.32,54.32,0,0,1-6.49-1.27c-1.32-.39-2.59-.13-3.87-.34s-2.54-.31-3.8-.51c-1.46-.22-2.9-.5-4.71-.81C217,243.63,216.35,243.48,216.2,242.13Z" />
        <path class="transparent"
            d="M49.19,245.6c2.84-.24,5.18-1.67,7.39-3.28s4.44-3,5.88-5.41c.3-.5,1.36-.54,2.06-.79-.07.26,0,.61-.22.77-1.06,1.09-2.15,2.17-3.26,3.21a24.56,24.56,0,0,1-7.54,5c-1,.42-2,.9-3.08,1.24C49.83,246.58,49.06,246.69,49.19,245.6Z" />
        <path class="transparent"
            d="M200.61,240.85a28.57,28.57,0,0,1,3.81-.1c2.73.27,5.45.68,8.17,1-.23.28-.43.76-.7.79a9,9,0,0,1-2.32,0c-1.47-.18-2.91-.52-4.38-.69a36.1,36.1,0,0,0-3.75-.21C200.84,241.67,200.53,241.48,200.61,240.85Z" />
        <path class="transparent"
            d="M180.55,238.56c2.09.26,4.19.46,6.28.78s3.91.71,5.86,1.08c-.07.69-.48.81-1.1.69-2.16-.39-4.38-.6-6.48-1.19-1.27-.35-2.52,0-3.75-.39C180.78,239.36,180.37,239.27,180.55,238.56Z" />
        <path class="transparent"
            d="M127.16,234.64l10.08.26c-.21.24-.39.67-.64.71a12.68,12.68,0,0,1-1.95,0c-2,0-3.93,0-5.89,0C128,235.66,127.29,235.6,127.16,234.64Z" />
        <path class="transparent"
            d="M168.71,237l9.38,1.23c.55.07,1.09.21,1.63.32-.05.82-.64.83-1.21.74s-1.22-.36-1.85-.43c-1.21-.15-2.43-.16-3.63-.33s-2.64-.46-3.93-.76C168.92,237.67,168.84,237.21,168.71,237Z" />
        <path class="transparent"
            d="M152,235.46l8.06.81c.05,1-.52,1.1-1.31,1-1.91-.24-3.82-.44-5.73-.7C152.39,236.5,151.78,236.31,152,235.46Z" />
        <path class="transparent"
            d="M142.52,235.42l7,0c-.25,1-.89,1.33-2.27,1.18a9.93,9.93,0,0,0-2.18,0C143.63,236.78,142.74,236.39,142.52,235.42Z" />
        <path class="transparent"
            d="M193.25,240.49l6.15.39c-.39,1-1.53,1.34-3,1a14.87,14.87,0,0,0-2.31-.4C193.48,241.37,193.09,241.21,193.25,240.49Z" />
        <path class="transparent"
            d="M113.3,236c1.08-.29,2.16-.62,3.25-.85.89-.2,1.81-.29,2.71-.42-.15.24-.26.6-.47.69-1.35.53-2.73,1-4.09,1.48C113.82,237.18,113.3,237,113.3,236Z" />
        <path class="transparent"
            d="M533.5,429.1c-.07-1.49-.15-3-.19-4.48,0-1.06,0-2.13,0-3.2.13.18.36.35.36.53q0,3.38,0,6.74C533.7,428.83,533.57,429,533.5,429.1Z" />
        <path class="transparent" d="M120,234.75l4.4.2c0,1-1.09,1.39-1.37,1.12C122.17,235.2,120.28,236.8,120,234.75Z" />
        <path class="transparent" d="M505.87,431.51a10.53,10.53,0,0,1,1.18,6.23Q506.47,434.62,505.87,431.51Z" />
        <path class="transparent"
            d="M109.17,235.81l3.14.1c-.09.2-.14.57-.26.59a9.76,9.76,0,0,1-2.28.24C109.56,236.73,109.37,236.13,109.17,235.81Z" />
        <path class="transparent" d="M161,236.34l2.88.19c.08.73-.39,1.16-1,1S161,237.8,161,236.34Z" />
        <path class="transparent"
            d="M476.38,315.77c1.12.11.81,1.09,1.05,1.74l-.56-.52-.05,1.19h-.15C476.57,317.39,476.48,316.58,476.38,315.77Z" />
        <path class="transparent" d="M165.17,236.65l2.07.18c.06,1-.7.72-1.23.75S165,237.35,165.17,236.65Z" />
        <path class="transparent" d="M140,235.2l1.8.16c-.29.33-.57.93-.87.94C140.38,236.31,139.75,236,140,235.2Z" />
        <path class="transparent" d="M213.32,241.88l1.92.17c-.34.27-.71.79-1,.75S213.62,242.21,213.32,241.88Z" />
        <path class="transparent"
            d="M504.43,427.67c.38,1,.76,2.08,1.13,3.12C505.19,429.75,504.81,428.71,504.43,427.67Z" />
        <path class="transparent" d="M534,435.35c0-.88,0-1.77,0-2.65A2,2,0,0,1,534,435.35Z" />
        <path class="transparent" d="M523.66,356.62c-.13-.88-.27-1.76-.4-2.64A2.52,2.52,0,0,1,523.66,356.62Z" />
        <path class="transparent" d="M534,432.22c-.14-.8-.27-1.6-.41-2.4C533.72,430.62,533.85,431.42,534,432.22Z" />
        <path class="transparent" d="M523,352.53l-.63-2.39Z" />
        <path class="transparent" d="M531.57,397.18l-.6-2.4Z" />
        <path class="transparent" d="M507.94,448.54l0,1.93A1.24,1.24,0,0,1,507.94,448.54Z" />
        <path class="transparent" d="M138.05,235l1.35.16-.85.74Z" />
        <path class="transparent" d="M124.76,234.91l1.13-.16-.39.89Z" />
        <path class="transparent" d="M506.81,444.48c.22.63.44,1.27.65,1.91C507.25,445.75,507,445.11,506.81,444.48Z" />
        <path class="transparent" d="M511.18,277.66c-.14-.64-.27-1.28-.41-1.92C510.91,276.38,511,277,511.18,277.66Z" />
        <path class="transparent" d="M515.51,311.25c0-.55-.11-1.11-.16-1.67C515.4,310.14,515.46,310.7,515.51,311.25Z" />
        <path class="transparent" d="M508.07,256.54l-.18-1.68Z" />
        <path class="transparent" d="M496.51,403.67c.2.64.41,1.28.62,1.92C496.92,405,496.71,404.31,496.51,403.67Z" />
        <path class="transparent" d="M532.3,399.58c-.2-.64-.4-1.28-.59-1.92C531.9,398.3,532.1,398.94,532.3,399.58Z" />
        <path class="transparent" d="M528.45,383.26l-.6-1.92Z" />
        <path class="transparent" d="M515,307.42l-.19-1.68Z" />
        <path class="transparent" d="M516,319.42l-.12-1.68Z" />
        <path class="transparent" d="M522.22,349.66l-.39-1.68Z" />
        <path class="transparent" d="M514.78,305l-.16-1.44Z" />
        <path class="transparent" d="M508.29,258.7l-.16-1.44Z" />
        <path class="transparent" d="M516.21,324.22c0-.48-.09-1-.13-1.44C516.12,323.26,516.17,323.74,516.21,324.22Z" />
        <path class="transparent" d="M512.61,289.9c-.05-.48-.09-1-.14-1.44C512.52,288.94,512.56,289.42,512.61,289.9Z" />
        <path class="transparent" d="M533.73,442.54c0-.48-.09-1-.13-1.44C533.64,441.58,533.69,442.06,533.73,442.54Z" />
        <path class="transparent"
            d="M511.67,281.25c-.05-.47-.1-.95-.16-1.43C511.57,280.3,511.62,280.78,511.67,281.25Z" />
        <path class="transparent" d="M521,344.37c-.13-.47-.27-.95-.4-1.43C520.77,343.42,520.91,343.9,521,344.37Z" />
        <path class="transparent" d="M533.6,413v-1.21C534.14,412.22,534.14,412.62,533.6,413Z" />
        <path class="transparent" d="M513.84,298.53l-.17-1.19C513.72,297.74,513.78,298.14,513.84,298.53Z" />
        <path class="transparent" d="M513.59,296.61l-.16-1.19Z" />
        <path class="transparent" d="M506.14,242.38c-.05-.4-.1-.8-.16-1.2C506,241.58,506.09,242,506.14,242.38Z" />
        <path class="transparent" d="M525.34,367.9c-.06-.4-.11-.8-.17-1.2C525.23,367.1,525.28,367.5,525.34,367.9Z" />
        <path class="transparent" d="M509.74,268.3l-.15-1.2Z" />
        <path class="transparent" d="M507,442.3c-.07.4-.13.8-.2,1.19C506.87,443.1,506.93,442.7,507,442.3Z" />
        <path class="transparent" d="M533.59,439.43l.14-1.2C533.69,438.63,533.64,439,533.59,439.43Z" />
        <path class="transparent" d="M533.82,437.51l.16-1.2Z" />
        <path class="transparent" d="M523.9,358.54c0-.4-.11-.8-.17-1.2C523.79,357.74,523.85,358.14,523.9,358.54Z" />
        <path class="transparent" d="M511.91,283.66l-.15-1.2Z" />
        <path class="transparent" d="M515.73,316.3c0-.4-.08-.8-.13-1.2C515.65,315.5,515.69,315.9,515.73,316.3Z" />
        <path class="transparent" d="M512.39,287.5l-.13-1.2Z" />
        <path class="transparent" d="M500.38,212.62l-.35-1.2C500.14,211.82,500.26,212.22,500.38,212.62Z" />
        <path class="transparent" d="M502.14,420.5c.18.47.36.94.53,1.41Z" />
        <path class="transparent" d="M499.73,413.79c.18.46.37.93.55,1.4C500.1,414.72,499.91,414.25,499.73,413.79Z" />
        <path class="transparent"
            d="M517.41,330.22c-.12-.4-.23-.8-.34-1.2C517.18,329.42,517.29,329.82,517.41,330.22Z" />
        <path class="transparent" d="M518.86,334.78l-.38-1.2Z" />
        <path class="transparent" d="M503.11,423.13l.48,1.42Z" />
        <path class="transparent" d="M510.7,275.26l-.17-1Z" />
        <path class="transparent" d="M511.44,279.09l-.18-.95Z" />
        <path class="transparent" d="M512.14,285.34l-.15-1Z" />
        <path class="transparent" d="M514.07,300l-.17-1Z" />
        <path class="transparent" d="M514.31,301.41l-.17-1Z" />
        <path class="transparent" d="M514.54,302.86l-.17-1Z" />
        <path class="transparent" d="M533,418.3v0Z" />
        <path class="transparent" d="M524.38,361.42l-.18-1Z" />
        <path class="transparent" d="M524.63,362.85l-.18-1Z" />
        <path class="transparent" d="M524.87,364.3c-.06-.32-.12-.64-.17-1C524.75,363.66,524.81,364,524.87,364.3Z" />
        <path class="transparent" d="M501.83,219.1l-.18-1Z" />
        <path class="transparent" d="M502.06,220.54l-.16-1Z" />
        <path class="transparent" d="M525.1,366l-.15-1Z" />
        <path class="transparent" d="M533,403.18l-.16-1Z" />
        <path class="transparent" d="M533.5,406.78c0-.32-.07-.64-.1-1C533.43,406.14,533.46,406.46,533.5,406.78Z" />
        <path class="transparent" d="M533.73,444.46c0-.32,0-.63,0-.95C533.74,443.83,533.74,444.14,533.73,444.46Z" />
        <path class="transparent" d="M504,228.22l-.17-1C503.85,227.58,503.91,227.9,504,228.22Z" />
        <path class="transparent" d="M504.23,229.9l-.16-1Z" />
        <path class="transparent" d="M504.48,231.57l-.16-.95Z" />
        <path class="transparent" d="M504.71,233.25l-.15-.95Z" />
        <path class="transparent" d="M505,234.7l-.18-1Z" />
        <path class="transparent" d="M505.68,238.53l-.18-.95Z" />
        <path class="transparent" d="M505.9,240.22l-.13-1Z" />
        <path class="transparent" d="M506.86,247.66l-.11-1Z" />
        <path class="transparent" d="M507.08,249.82l-.12-1Z" />
        <path class="transparent" d="M507.83,254.37l-.16-1Z" />
        <path class="transparent" d="M508.53,260.14c0-.32-.11-.64-.17-1C508.42,259.5,508.48,259.82,508.53,260.14Z" />
        <path class="transparent" d="M509.26,264.22l-.15-1Z" />
        <path class="transparent" d="M509.49,266.14l-.11-1C509.42,265.5,509.46,265.82,509.49,266.14Z" />
        <path class="transparent" d="M485.23,354.71l.1.72C485.29,355.19,485.26,355,485.23,354.71Z" />
        <path class="transparent" d="M517,328.53l-.16-.71Z" />
        <path class="transparent" d="M519.82,339.1l-.16-.72Z" />
        <path class="transparent" d="M485,352.55l.11.72Z" />
        <path class="transparent" d="M526.06,372.46c0-.24-.09-.48-.13-.72C526,372,526,372.22,526.06,372.46Z" />
        <path class="transparent" d="M527,378c0-.24-.09-.48-.14-.72C526.92,377.5,527,377.74,527,378Z" />
        <path class="transparent" d="M519.58,337.9l-.16-.72Z" />
        <path class="transparent" d="M521.75,347.5l-.17-.72Z" />
        <path class="transparent" d="M525.58,369.58l-.13-.72Z" />
        <path class="transparent" d="M501.57,217.66l-.15-.72Z" />
        <path class="transparent" d="M492.9,388.31l.15.72Z" />
        <path class="transparent" d="M502.32,222l-.18-.71Z" />
        <path class="transparent" d="M525.82,371l-.15-.72Z" />
        <path class="transparent" d="M484.25,348.24l.16.71Z" />
        <path class="transparent" d="M484.49,349.44l.15.71Z" />
        <path class="transparent" d="M485.7,357.83l.12.72Z" />
        <path class="transparent" d="M530.86,394.06l-.16-.72Z" />
        <path class="transparent" d="M532.79,401.74c0-.24-.1-.48-.14-.72C532.69,401.26,532.74,401.5,532.79,401.74Z" />
        <path class="transparent" d="M516.71,327.33l-.13-.71Z" />
        <path class="transparent" d="M516.47,325.9l-.14-.72C516.37,325.42,516.42,325.66,516.47,325.9Z" />
        <path class="transparent" d="M533.39,415.19l.12-.72Z" />
        <path class="transparent" d="M492.66,386.87c0,.24.09.48.13.72Z" />
        <path class="transparent" d="M524.13,360c0-.24-.09-.48-.14-.72C524,359.5,524.09,359.74,524.13,360Z" />
        <path class="transparent" d="M533.27,420.7c0-.24-.07-.48-.11-.72C533.2,420.22,533.23,420.46,533.27,420.7Z" />
        <path class="transparent" d="M515.25,308.86l-.13-.72Z" />
        <path class="transparent" d="M513.34,294.7l-.12-.72Z" />
        <path class="transparent" d="M512.86,291.82l-.12-.72Z" />
        <path class="transparent" d="M510.45,273.58l-.11-.72Z" />
        <path class="transparent" d="M509,262.54l-.16-.72Z" />
        <path class="transparent" d="M507.34,251.5l-.15-.72Z" />
        <path class="transparent" d="M506.62,245.74l-.1-.72Z" />
        <path class="transparent" d="M503.73,226.78l-.15-.72Z" />
        <path class="transparent" d="M521.5,346.3l-.12-.48Z" />
        <path class="transparent" d="M484,347.28l.13.47Z" />
        <path class="transparent" d="M481.38,336l.14.48Z" />
        <path class="transparent" d="M519.12,335.73l-.14-.47Z" />
        <path class="transparent" d="M484.75,350.87l.08.48Z" />
        <path class="transparent" d="M523.18,353.5l-.12-.48Z" />
        <path class="transparent" d="M481.13,335l.13.47Z" />
        <path class="transparent" d="M482.84,343l.12.48Z" />
        <path class="transparent" d="M485.46,356.39l.08.48Z" />
        <path class="transparent" d="M480.89,334.08l.12.47Z" />
        <path class="transparent" d="M485.94,359.27l.1.48Z" />
        <path class="transparent" d="M481.62,337l.1.48Z" />
        <path class="transparent" d="M486.17,360.47l.1.48Z" />
        <path class="transparent" d="M481.86,338.15l.1.48Z" />
        <path class="transparent" d="M486.66,362.87l.12.48Z" />
        <path class="transparent" d="M486.89,363.84l.11.47Z" />
        <path class="transparent" d="M487.15,365l.12.48Z" />
        <path class="transparent" d="M482.1,339.35l.11.48Z" />
        <path class="transparent" d="M487.37,366l.1.47Z" />
        <path class="transparent" d="M480.65,333.11l.12.48Z" />
        <path class="transparent" d="M488.08,368.88l.15.47Z" />
        <path class="transparent" d="M489.05,372l.16.47Z" />
        <path class="transparent" d="M526.31,373.9l-.08-.48Z" />
        <path class="transparent" d="M489.78,374.39l.15.48Z" />
        <path class="transparent" d="M526.53,375.1l-.1-.48Z" />
        <path class="transparent" d="M490.24,376.08l.14.47Z" />
        <path class="transparent" d="M526.77,376.54l-.08-.48Z" />
        <path class="transparent" d="M527.25,379.18l-.12-.48Z" />
        <path class="transparent" d="M491,379l.14.48Z" />
        <path class="transparent" d="M527.5,380.14l-.15-.48Z" />
        <path class="transparent" d="M480.43,331.91l.09.48Z" />
        <path class="transparent" d="M491.69,381.83l.11.48Z" />
        <path class="transparent" d="M491.94,383l.1.48Z" />
        <path class="transparent" d="M528.69,384.22l-.13-.48Z" />
        <path class="transparent" d="M497,200.37c0-.15-.09-.31-.14-.47Z" />
        <path class="transparent" d="M528.93,385.42l-.09-.48Z" />
        <path class="transparent" d="M492.42,385.43l.08.48Z" />
        <path class="transparent" d="M529.17,386.86l-.1-.48Z" />
        <path class="transparent" d="M480.19,330.47l.08.48Z" />
        <path class="transparent" d="M529.42,388.06l-.11-.48Z" />
        <path class="transparent" d="M529.65,389l-.12-.48Z" />
        <path class="transparent" d="M529.89,390l-.14-.48Z" />
        <path class="transparent" d="M530.13,390.94l-.14-.48Z" />
        <path class="transparent" d="M530.38,391.9l-.14-.48Z" />
        <path class="transparent" d="M493.62,391.67l.13.48Z" />
        <path class="transparent" d="M530.61,392.86l-.13-.48Z" />
        <path class="transparent" d="M493.85,392.64l.1.47Z" />
        <path class="transparent" d="M497.25,201.34l-.12-.48Z" />
        <path class="transparent" d="M494.1,393.83l.1.48Z" />
        <path class="transparent" d="M492.18,384.23l.1.48Z" />
        <path class="transparent" d="M494.34,395c0,.16.07.32.11.48Z" />
        <path class="transparent" d="M494.59,396.23l.11.48Z" />
        <path class="transparent" d="M494.83,397.43l.1.48C494.89,397.75,494.86,397.59,494.83,397.43Z" />
        <path class="transparent" d="M479.7,327.35l.09.48Z" />
        <path class="transparent" d="M495.07,398.63l.12.48Z" />
        <path class="transparent" d="M495.3,399.59l.16.48Z" />
        <path class="transparent" d="M532.55,400.53l-.12-.47Z" />
        <path class="transparent" d="M497.86,203.47c-.1-.23-.19-.46-.28-.69Z" />
        <path class="transparent" d="M520.06,340.3l-.11-.48Z" />
        <path class="transparent" d="M498.72,206.13l-.15-.47Z" />
        <path class="transparent" d="M533.24,404.63l-.09-.49Z" />
        <path class="transparent" d="M482.35,340.55l.1.48Z" />
        <path class="transparent" d="M497.59,407.06l.25.69Z" />
        <path class="transparent" d="M498.4,409.68l.15.47Z" />
        <path class="transparent" d="M479.48,326.14l.11.49Z" />
        <path class="transparent" d="M499.18,208.06l-.11-.48Z" />
        <path class="transparent" d="M499.4,209l-.13-.49Z" />
        <path class="transparent" d="M500.85,214.3l-.15-.48Z" />
        <path class="transparent" d="M501.09,215.26l-.14-.48Z" />
        <path class="transparent" d="M501.53,418.56l.16.47Z" />
        <path class="transparent" d="M501.34,216.46l-.11-.48Z" />
        <path class="transparent" d="M479.21,325l.13.47Z" />
        <path class="transparent" d="M478,320.15l.11.48Z" />
        <path class="transparent" d="M477.54,318l.12.48Z" />
        <path class="transparent" d="M503.93,425.76l.14.47Z" />
        <path class="transparent" d="M504.18,426.71l.15.48Z" />
        <path class="transparent" d="M502.91,223.39l-.3-.69Z" />
        <path class="transparent" d="M503.29,224.61l-.14-.47Z" />
        <path class="transparent" d="M513.11,293.26l-.09-.48Z" />
        <path class="transparent" d="M482.58,341.75l.11.48Z" />
        <path class="transparent" d="M520.54,342.46l-.14-.48Z" />
        <path class="transparent" d="M510.2,271.66l-.08-.48Z" />
        <path class="transparent" d="M500.48,415.69l.29.7Z" />
        <path class="transparent" d="M520.3,341.5l-.11-.48Z" />
        <path class="transparent" d="M519.34,336.7l-.12-.48Z" />
        <path class="transparent" d="M508.77,261.34l-.11-.48Z" />
        <path class="transparent" d="M507.57,252.7l-.11-.48Z" />
        <path class="transparent" d="M507.61,446.71l.32.64Z" />
        <path class="transparent" d="M483.06,343.91l.12.48Z" />
        <path class="transparent" d="M511.14,458.39l.16.48Z" />
        <path class="transparent" d="M512.11,462.23l.07.48Z" />
        <path class="transparent" d="M483.3,344.87l.15.48Z" />
        <path class="transparent" d="M506.37,244.06l-.07-.48Z" />
        <path class="transparent" d="M505.42,237.1l-.09-.48Z" />
        <path class="transparent" d="M505.18,235.9l-.09-.48Z" />
        <path class="transparent" d="M521.27,345.33l-.12-.47Z" />
        <path class="transparent" d="M503.51,225.58l-.12-.48Z" />
        <path class="transparent" d="M510,270l-.08-.48Z" />
        <path class="outline" d="M303.38,270.92h0Z" />
        <path class="color-shadow" d="M35.82,242.64l-1,1,.78-1.78c.08.28.15.55.22.82Z" />
        <path class="color-shadow" d="M37.06,237.28l-.21.61Z" />
        <path class="color-base"
            d="M528,444.28c-.14.06-.29.18-.43.17-3.06-.23-5.79,1.15-8.68,1.77-1.36.29-2.71.63-4.06.95a29.88,29.88,0,0,1-2.15-5.41c-1.27-6.72-3.85-13.05-5.61-19.62-.82-3.06-1.31-6.22-2.12-9.29-1-3.84-2.3-7.62-3.3-11.47-1.7-6.5-3.35-13-4.85-19.56-1.22-5.31-2.21-10.66-3.25-16s-2-10.78-3.06-16.15q-1.74-8.52-3.7-17a93.36,93.36,0,0,0-2.7-9.9c-1.33-3.79-3-7.45-4.55-11.18a7.68,7.68,0,0,1-.53-2.16c-.34-3.56-.63-7.12-.93-10.69,0-.35,0-.72,0-1.07,0-4.72-.16-9.45,0-14.16.22-5.2.62-10.4,1.17-15.58a153.66,153.66,0,0,1,2.22-15.43,140,140,0,0,1,4-13.5c2.6-8.13,5.28-16.22,7.94-24.33.16-.5.38-1,.57-1.48l.3,0c.27,1.87.58,3.72.79,5.59.42,3.71.77,7.43,1.18,11.14.39,3.55.74,7.11,1.27,10.64s1.23,7,1.91,10.55c1.34,6.94,2.73,13.88,4.06,20.82.94,4.92,1.9,9.83,2.71,14.77.72,4.34,1.29,8.71,1.84,13.08.53,4.18,1,8.36,1.41,12.55.14,1.3.16,2.62.28,3.93.22,2.57.44,5.14.74,7.71a59,59,0,0,0,1.1,7.65c1.31,5.08,3,10.07,4.34,15.14,1.47,5.46,2.79,10.95,4.12,16.44.72,3,1.39,6,2,9,.62,3.28,1.09,6.58,1.65,9.87.51,3.05,1.1,6.09,1.57,9.15.49,3.22,1,6.44,1.29,9.68.36,3.84.42,7.71.78,11.55.27,2.8,1,5.56,1.19,8.36.26,3.89.25,7.79.23,11.68,0,2-.35,4-.48,6.06S528.07,442.37,528,444.28Z" />
        <path class="color-shadow"
            d="M295.93,188.5c0,2.16,0,4.07,0,6,.12,7.07.3,14.14.39,21.21,0,3.27,0,6.55-.15,9.83a87.17,87.17,0,0,0,.81,15.06c.74,5.16,1.58,10.32,2.42,15.47.45,2.77,1,5.53,1.6,8.75-1.21-.69-2.16-1.18-3.06-1.76a65.61,65.61,0,0,0-6.43-4.14A139.88,139.88,0,0,0,277.89,253c-4.23-1.51-8.68-2.38-13-3.61-2.37-.68-4.68-1.6-7.06-2.29-4.33-1.25-8.66-2.57-13.05-3.56-2.86-.65-5.85-.76-8.77-1.13-4.67-.6-9.33-1.3-14-1.78-2.41-.25-4.87,0-7.3-.18-3.59-.19-7.17-.52-10.76-.72-1.35-.08-2.7.05-4.06.08-4.66.1-9.2-.81-13.78-1.5-7.61-1.16-15.27-2-22.92-2.88-4.16-.49-8.33-.91-12.51-1.23-3.49-.27-7.07,0-10.49-.59a63.84,63.84,0,0,0-13.72-.83,37.71,37.71,0,0,1-7.73-.37,6.17,6.17,0,0,0-2,.35l-1.64.29c-.8.14-1.06-.19-1.21-1-.35-1.87-1-3.68-1.3-5.55-.5-3-.85-6.05-1.23-9.08-.17-1.38-.23-2.78-.4-4.16-.25-2,1.19-2.88,2.54-3.39a48.91,48.91,0,0,1,8.85-2.76c6.35-1.14,12.6-2.83,18.88-4.32a62.31,62.31,0,0,1,11.22-1.7c5.29-.25,10.56-1,15.84-1.5,5-.49,10.08-1,15.13-1.4,1.65-.14,3.32,0,5-.09,2.88-.14,5.75-.34,8.62-.51l10-.6c5.41-.33,10.83-.16,16.22-1.13,2.41-.43,5,0,7.42-.21,2.9-.21,5.79-.6,8.67-1,4-.49,7.9-1.25,11.87-1.48,7.68-.44,15.15-2.22,22.75-3.12,3-.35,6-.39,8.94-.63s5.95-.56,8.93-.81C293.22,188.58,294.61,188.56,295.93,188.5Zm-1.48,5.37c.15-.72-.25-1-1.08-.93-.31,0-.64,0-.95,0-4,.39-7.91.8-11.86,1.17-1.46.14-2.94.17-4.4.3-3.13.28-6.24.67-9.37.88-2.78.19-5.59.1-8.37.3-4.31.31-8.62.78-12.93,1.15-3.13.27-6.27.47-9.39.76-3.84.35-7.67.76-11.5,1.17-3,.32-6.07.68-9.11,1s-6.17.61-9.25.93c-1.81.18-3.63.39-5.44.61l-11,1.3-8.86,1.07c-3.12.38-6.23.75-9.34,1.09-1.19.13-2.39.14-3.57.28-3.63.45-7.24,1-10.86,1.39A87.58,87.58,0,0,0,144,208.5c-5.17,1.43-10.42,2.59-15.63,3.88-3.85,1-7.7,1.91-11.54,2.92a1.06,1.06,0,0,0-.51.88q.83,5.35,1.76,10.69a1.19,1.19,0,0,0,.78.83,20.88,20.88,0,0,0,3.79.05,59.15,59.15,0,0,1,11.29,0c4.51.36,9,.76,13.56.92s8.79,0,13.19.06a58.66,58.66,0,0,1,7.5.48c5.73.83,11.44,1.8,17.15,2.79,2.73.48,5.44,1.13,8.15,1.73,4.93,1.07,9.84,2.19,14.77,3.24,2.72.58,5.45,1.13,8.19,1.57,2.54.42,5.1.74,7.67,1,2.33.22,4.68.39,7,.42s4.78-.14,7.17-.22c.44,0,.87-.08,1.31-.08,2.23,0,4.46-.07,6.68,0s4.69.36,7,.53c.7.05,1.41-.05,2.1,0,1.55.18,3.08.46,4.63.65,1.34.17,2.71.2,4.05.43,1.5.25,3,.67,4.46,1,2.63.59,5.26,1.16,7.88,1.77,1.81.42,3.62.86,5.42,1.36,3.28.92,6.55,1.91,9.84,2.82.2.06.72-.3.76-.53a16.13,16.13,0,0,0,.26-2.6c.1-4.35.22-8.7.24-13,0-8.32,0-16.64,0-25a52.91,52.91,0,0,1,.45-5.34C293.77,199.21,294.12,196.62,294.45,193.87Z" />
        <path class="transparent"
            d="M35.81,242.64c.68-1.76,1.33-3.53,2-5.28.9-2.23,1.81-4.45,2.8-6.63A3.6,3.6,0,0,1,42,229.15c6.08-3.36,12.74-5.09,19.41-6.74a61.51,61.51,0,0,1,6.52-.86,2.12,2.12,0,0,0,1.18-.54H58.79c1.94-1,3.39-2.31,5.35-2.47,3.3-.27,6.6-.45,9.9-.66l19.35-1.25,1.35-.08c.54,2.52,1,5,1.62,7.49a37.71,37.71,0,0,1,1.27,10.19,4.15,4.15,0,0,1-.59,1.86c-.54.94-1.3,1.75-1.8,2.69a6.8,6.8,0,0,1-4.56,3.42A62.55,62.55,0,0,1,83.47,244a40,40,0,0,0-10.92,3.69c-2.35,1.09-4.77,2.05-7.09,3.22a12,12,0,0,1-7,.93,7.11,7.11,0,0,1-1.42-.46c1.06-2.75,5.28-4.59,7.74-3.52-.58-1.18-1.92-1.62-3.89-1.06-1.37.38-2.67,1-4.15,1.42a6.13,6.13,0,0,1,.81-.87c3.93-2.73,7.92-5.36,11.77-8.19a29.79,29.79,0,0,0,4.07-4c1.46-1.58,2.82-3.25,4.21-4.88a1.71,1.71,0,0,0,.17-.39l-.3-.28-6.85,6.85c-.6-1.12-1.21-2.12-1.66-3.19-.27-.65.58-1.6,1.43-1.73,1-.15,2.11-.26,3.44-.42-.4-.36-.55-.62-.77-.68A11.5,11.5,0,0,0,67,230c-2.93.75-5.93,1.25-8.92,1.8a27.1,27.1,0,0,0-10.47,3.92,9.9,9.9,0,0,0-3.48,4.33,31.31,31.31,0,0,1-5.91,9.11,8.05,8.05,0,0,1-5.84,2.8l2.35-6,.25.06.31,1.41h.39l.18-4.82Z" />
        <path class="color-shadow"
            d="M112.78,232.91c-2.61.29-5,.52-7.46.85a41,41,0,0,0-4.08.83c-.93.22-1.49.12-1.72-1-.63-3.16-1.44-6.28-2-9.45-.47-2.46-.76-5-1-7.44-.25-2.16.14-2.39,2.23-2.67,2.88-.4,5.73-1,8.58-1.58,1.66-.34,1.88-.24,2.16,1.35q1.62,9.12,3.26,18.23C112.73,232.38,112.76,232.74,112.78,232.91Zm-5.43-18.56a5.09,5.09,0,0,0-.88,0c-1.9.39-3.8.82-5.71,1.17-1,.19-1.05.8-.93,1.58a26.81,26.81,0,0,1,.43,3.06c.11,2.84.08,2.84,2.95,3.28.16,0,.31.09.47.11l4.62.69C108,220.79,107.66,217.64,107.35,214.35Z" />
        <path class="transparent"
            d="M49.54,244.59a6.28,6.28,0,0,1,.58-1.16c1.85-2.41,3.7-4.81,5.61-7.17a9.45,9.45,0,0,1,1.79-1.54c3.1-2.26,6.8-2.51,10.4-3.17.22,1.6,0,1.86-1.71,2.3s-3.37.77-4.61,2.11a16.63,16.63,0,0,0-1.33,1.68c-2.61,3.64-6.33,5.66-10.33,7.27Z" />
        <path class="transparent"
            d="M40.61,248.2c.8-1.25,1.59-2.35,2.23-3.53.85-1.58,1.52-3.25,2.36-4.83a8.73,8.73,0,0,1,1.72-2.41,16.71,16.71,0,0,1,10-4.1c-.87.65-1.47,1.13-2.11,1.57-1.51,1-3,2.11-4.57,3.07a7.17,7.17,0,0,0-3,3.3,51.59,51.59,0,0,1-2.53,4.9A3.73,3.73,0,0,1,40.61,248.2Z" />
        <path class="transparent" d="M58.92,221.06l.08.08a.48.48,0,0,1-.16.08s-.05-.05-.08-.08Z" />
        <path class="transparent"
            d="M531.5,462.72c.69,4.77,1.44,9.53,2,14.3.71,5.69,1.29,11.4,1.93,17.09a1.59,1.59,0,0,0,.14.58c1.15,2.26.4,4.32-.61,6.38-2.48,5-4.93,10-7.43,15a6,6,0,0,1-1.3,1.7c-3.21,2.93-6.46,5.82-9.69,8.73a.68.68,0,0,1-.6.16l1.21-2c-1.43,1-2.74,2-2.47,4.06,0,.26-.28.57-.43.86-.27-.19-.77-.36-.8-.58a9.89,9.89,0,0,1-.09-3.25,11.12,11.12,0,0,1,1.61-3.94c1.81-2.51,3.89-4.82,5.82-7.25a11.51,11.51,0,0,0,1.63-2.59c1.09-2.61,1.94-5.33,3.11-7.9.8-1.77.28-3.46.1-5.15-.21-1.88-.77-3.73-1.13-5.6a2.9,2.9,0,0,1,.08-1.37c1.28-4.18,2.61-8.35,3.88-12.54a16.55,16.55,0,0,0,.33-2.36l-.4-.08c-.16.47-.33.93-.49,1.4Q526,484.28,524,490.11a9.89,9.89,0,0,0-.41,1.38,14.65,14.65,0,0,1-2.54,5.58c-2.11,3.09-4,6.33-6,9.5-.16.26-.35.49-.55.78C513.31,505,512,504.56,511,506c.6.12,1.58.08,1.74.42a4.56,4.56,0,0,1,.52,2.78,10.36,10.36,0,0,1-1.76,3.22c-.54.76-1.23.59-1.44-.34a5.91,5.91,0,0,1-.14-2.57c1.37-5.92,2.89-11.8,4.24-17.73.93-4.05,2.3-8,2.16-12.29-.09-2.4-.18-4.79-.16-7.18,0-2,.22-4.05.34-6.24,2.51-.39,5-.67,7.44-1.21S528.75,463.51,531.5,462.72Z" />
        <path class="color-shadow"
            d="M525.79,446.24c1.68-.08,3.36-.21,5-.2.27,0,.72.58.77.93.5,3.75.91,7.51,1.39,11.27.1.72,0,1.27-.74,1.54-2.24.83-4.44,1.81-6.74,2.41-3.53.93-7.13,1.6-10.7,2.37a7.85,7.85,0,0,1-.9.05c-.31-1.42-.59-2.82-.92-4.2-.71-3-1.43-6-2.2-8.93-.25-1,0-1.39.89-1.83a17,17,0,0,1,6.69-2,16.62,16.62,0,0,0-.07,2.44c.2,1.89.5,3.77.78,5.66.25,1.66.51,3.31.78,5.05l9.54-3.45c0-.35,0-.78-.07-1.21-.29-2.64-.66-5.28-.85-7.92a1.24,1.24,0,0,0-1.13-1.34A13,13,0,0,1,525.79,446.24Z" />
        <path class="color-base"
            d="M525.79,446.24a13,13,0,0,0,1.56.63,1.24,1.24,0,0,1,1.13,1.34c.19,2.64.56,5.28.85,7.92,0,.43,0,.86.07,1.21l-9.54,3.45c-.27-1.74-.53-3.39-.78-5.05-.28-1.89-.58-3.77-.78-5.66a16.62,16.62,0,0,1,.07-2.44Z" />
        <path class="transparent"
            d="M523.39,497.22c.57,1.82,1.16,3.62,1.7,5.45a1.76,1.76,0,0,1-.2.91c-1.09,3-2.18,6-3.32,9a5.36,5.36,0,0,1-1,1.56c-1.59,1.79-3.22,3.54-4.83,5.3a3.45,3.45,0,0,1-.5.51l-7.44,4.58c-1,.6-1.45.28-1.87-.72a3.53,3.53,0,0,1,.72-3.78,14.54,14.54,0,0,1,5.45-4,30,30,0,0,1,4-1.56,4.69,4.69,0,0,0,3-2.7,46.9,46.9,0,0,0,3.53-10.63c.24-1.27.34-2.56.5-3.84Z" />
        <path class="transparent"
            d="M508.78,509.66c0,1.84.19,3.15,1.38,4.12.81.67,1.59.68,2.17-.12.74-1,1.3-2.19,2-3.26.24-.39.53-.9.9-1,1.19-.33,1.63-1.26,2.14-2.23.91-1.72,2-3.37,2.82-5.12a43,43,0,0,0,1.53-4.21c.11-.31.19-.64.36-1.24a23.08,23.08,0,0,1-2.36,11.74c-.62,1.38-1.24,2.77-2,4.09a2.29,2.29,0,0,1-1.2.83,19.74,19.74,0,0,0-2.6.84,4.93,4.93,0,0,1-4.63.18c-1.36-.56-2.78-1-4.13-1.57-1.06-.46-1.17-1.35-.12-1.9A19.57,19.57,0,0,1,508.78,509.66Z" />
        <path class="transparent"
            d="M514.3,466.18c.31,0,.54,0,.77,0s.38.07.53.1c-.26,3.64-.51,7.24-.77,10.83C513.79,474,513.46,471.94,514.3,466.18Z" />
        <path class="transparent" d="M515.37,508.17l4.13-7.61.4.22-4.13,7.66Z" />
        <path class="transparent"
            d="M509.28,508.73l-2.76.27c.43-1,1.56-1.6,2.29-1.22C509,507.91,509.1,508.36,509.28,508.73Z" />
        <path class="color-base"
            d="M294.45,193.87c-.33,2.75-.68,5.34-1,7.95a52.91,52.91,0,0,0-.45,5.34c0,8.31,0,16.63,0,25,0,4.35-.14,8.7-.24,13a16.13,16.13,0,0,1-.26,2.6c0,.23-.56.59-.76.53-3.29-.91-6.56-1.9-9.84-2.82-1.8-.5-3.61-.94-5.42-1.36-2.62-.61-5.25-1.18-7.88-1.77-1.49-.34-3-.76-4.46-1-1.34-.23-2.71-.26-4.05-.43-1.55-.19-3.08-.47-4.63-.65-.69-.08-1.4,0-2.1,0-2.35-.17-4.69-.44-7-.53s-4.45,0-6.68,0c-.44,0-.87.07-1.31.08-2.39.08-4.78.25-7.17.22s-4.69-.2-7-.42c-2.57-.26-5.13-.58-7.67-1-2.74-.44-5.47-1-8.19-1.57-4.93-1.05-9.84-2.17-14.77-3.24-2.71-.6-5.42-1.25-8.15-1.73-5.71-1-11.42-2-17.15-2.79a58.66,58.66,0,0,0-7.5-.48c-4.4-.08-8.8.1-13.19-.06s-9-.56-13.56-.92a59.15,59.15,0,0,0-11.29,0,20.88,20.88,0,0,1-3.79-.05,1.19,1.19,0,0,1-.78-.83q-.95-5.34-1.76-10.69a1.06,1.06,0,0,1,.51-.88c3.84-1,7.69-2,11.54-2.92,5.21-1.29,10.46-2.45,15.63-3.88a87.58,87.58,0,0,1,13.16-2.13c3.62-.43,7.23-.94,10.86-1.39,1.18-.14,2.38-.15,3.57-.28,3.11-.34,6.22-.71,9.34-1.09l8.86-1.07,11-1.3c1.81-.22,3.63-.43,5.44-.61,3.08-.32,6.17-.6,9.25-.93s6.07-.68,9.11-1c3.83-.41,7.66-.82,11.5-1.17,3.12-.29,6.26-.49,9.39-.76,4.31-.37,8.62-.84,12.93-1.15,2.78-.2,5.59-.11,8.37-.3,3.13-.21,6.24-.6,9.37-.88,1.46-.13,2.94-.16,4.4-.3,3.95-.37,7.9-.78,11.86-1.17.31,0,.64,0,.95,0C294.2,192.84,294.6,193.15,294.45,193.87Z" />
        <path class="color-base"
            d="M107.35,214.35c.31,3.29.62,6.44,1,9.9l-4.62-.69c-.16,0-.31-.09-.47-.11-2.87-.44-2.84-.44-2.95-3.28a26.81,26.81,0,0,0-.43-3.06c-.12-.78-.07-1.39.93-1.58,1.91-.35,3.81-.78,5.71-1.17A5.09,5.09,0,0,1,107.35,214.35Z" />
    </g>
</svg>
