<svg id="Manzhet" xmlns="http://www.w3.org/2000/svg" viewBox="0 0 672 960">
    <g id="img_44_img" data-name="img 44 img">
        <path class="color-shadow"
            d="M476,290.43c0-.83,0-1.66,0-2.49.18-.19.51-.37.53-.58.42-5.8.74-11.62,1.22-17.42.38-4.56.76-9.14,1.48-13.66.61-3.85,1.76-7.61,2.55-11.43,1.22-5.89,2.17-11.85,3.56-17.7,1.24-5.23,2.95-10.36,4.41-15.54.42-1.49.69-3,1-4.53l0,0a6.22,6.22,0,0,0,.66-1.06c.53-1.29,1-2.62,1.52-3.9.39-1,.88-1.86,1.42-3a7.48,7.48,0,0,1,.61,1.17c.69,2.17,1.44,4.32,2,6.52,2.14,8.52,4.17,17.06,6.3,25.58,1.79,7.16,1.72,14.56,2.89,21.81.78,4.88,1.21,9.81,1.85,14.72.75,5.81,1.56,11.62,2.32,17.43.53,4,.91,8.09,1.55,12.1A142.42,142.42,0,0,1,513.78,318a54.06,54.06,0,0,0,3.57,18.83A78.92,78.92,0,0,1,522,356.49c.58,5,1,10.1,1.87,15.09.88,5.3,2.11,10.54,3.29,15.79s2.71,10.61,3.74,16a34.1,34.1,0,0,1,.21,12.62,13.66,13.66,0,0,0-.16,2.86c.08,2.35.23,4.7.36,7.05a37.84,37.84,0,0,0,.34,4.77,21.16,21.16,0,0,1,.42,7,38.08,38.08,0,0,0-.19,4.41c0,.78,0,1.55,0,2.41H528c.09-2,.13-4.07.26-6.09s.47-4,.49-5.94c0-3.82.33-7.7-.23-11.44-.83-5.59-1.39-11.19-1.74-16.82-.22-3.4-.61-6.8-1.11-10.18-.55-3.77-1.32-7.51-2-11.26-.82-4.69-1.48-9.42-2.44-14.08a237,237,0,0,0-7.75-29.53c-2.12-6.21-2.75-12.72-3.49-19.19-.28-2.48-.28-5-.52-7.49-.42-4.19-.9-8.37-1.41-12.55s-1.05-8.59-1.75-12.85c-.83-5-1.83-10-2.79-15-1.25-6.52-2.56-13-3.81-19.53-.69-3.63-1.4-7.26-2-10.9-.5-3.22-.86-6.46-1.22-9.69-.5-4.42-.93-8.84-1.44-13.26-.21-1.83-.53-3.64-.8-5.46l-.3,0c-.18.46-.39.91-.54,1.37-1.05,3.22-2.08,6.46-3.14,9.67-2.05,6.17-4.07,12.34-6.18,18.48a81.81,81.81,0,0,0-3.63,14.7c-.51,3.49-.9,7-1.25,10.52-.44,4.47-1.08,8.94-1.12,13.41-.09,7.81-.32,15.63.55,23.44.44,3.88.71,7.66,2.94,11a2.43,2.43,0,0,1,.28.66c1.13,3.48,2.36,6.94,3.37,10.46,1.14,4,2.21,8.05,3.08,12.13,1.37,6.44,2.53,12.93,3.8,19.4q1.44,7.36,3,14.72c1.4,6.73,2.68,13.49,4.31,20.16,1.4,5.71,3.28,11.31,4.86,17,.7,2.53,1.12,5.13,1.8,7.65,1.09,4,2.3,8,3.42,12.06,1.07,3.83,2,7.68,3.13,11.5.52,1.83,1.26,3.6,1.9,5.4l-3.6,1.47a33.5,33.5,0,0,1-1.4-3.11,9.83,9.83,0,0,1-.51-2.74c-.1-3.18.37-6.4-.77-9.49-.52-1.42-1.18-2.8-1.67-4.23-1.39-4-2.56-8.15-4.11-12.13a141,141,0,0,1-7.87-26.59c-1.16-6.6-2.72-13.1-4.52-19.57-1.38-4.94-2.21-10-3.19-15.08-.53-2.73-.74-5.53-1.3-8.26-1.36-6.6-2.77-13.19-4.28-19.75-1.06-4.58-1.71-9.27-3.65-13.61a7.57,7.57,0,0,1-.85-4A19.44,19.44,0,0,0,477,307c0-1.63-.16-3.26-.18-4.89,0-.95.27-1.92.18-2.85C476.72,296.32,476.31,293.38,476,290.43Z" />
        <path class="outline"
            d="M35.41,242.34l1.44-4.45.21-.61c.87-2.36,1.67-4.76,2.66-7.07a3.73,3.73,0,0,1,1.75-1.8c3.75-1.68,7.55-3.24,11.35-4.81.86-.35,1.15-.72.74-1.68-.65-1.52-.44-1.83,1.08-2.41a100.44,100.44,0,0,1,20-5c4-.62,8.07-.69,12.07-1.24,3.53-.49,7-1.18,10.52-2a54.84,54.84,0,0,1,9.58-1.8c.71-.05,1.42-.25,2.13-.26a13.88,13.88,0,0,1,2,.33c1-1.12,2.76-1.25,4.47-1.59a6.88,6.88,0,0,0,1.1-.45,24.2,24.2,0,0,1,2.82-1c5.29-1.2,10.61-2.3,15.89-3.54,3.46-.81,6.87-1.84,10.32-2.7a21.49,21.49,0,0,1,3.91-.6c9.21-.58,18.43-1.11,27.65-1.66l1-.06-.39-.81c2.61,0,5.08.07,7.54,0,2.71-.11,5.42-.39,8.13-.55,6.74-.4,13.49-.76,20.23-1.15,1.4-.08,2.79-.2,4.18-.31,4.86-.39,9.73-.69,14.57-1.21,5-.54,10-1.3,15-2,1.35-.18,2.7-.36,4.05-.5,3-.32,6-.62,9.06-.93,7.59-.78,15.18-1.52,22.77-2.36,3.05-.34,6.08-.94,9.14-1.31,1.62-.19,3.27-.14,4.9-.19a136.46,136.46,0,0,0-.57,18.53c.41,7.62.56,15.24.28,22.89a76.71,76.71,0,0,0,.76,9.89c.33,3.44.64,6.87,1.12,10.29.35,2.53,1,5,1.47,7.53l2.82,14a5.11,5.11,0,0,0,.22.66,3,3,0,0,1-.64-.65c-1.26-2.21-2.78-4.15-5.25-5.12l-.1-.07c-8-5.89-17.27-9-26.71-11.72q-6-1.71-12.09-3.38c-4.57-1.28-9.11-2.66-13.72-3.81a48.12,48.12,0,0,0-6-.72l-.49-.07c-2.91-.48-5.81-1.07-8.74-1.42-4.43-.54-8.88-.91-13.33-1.35l-1-.08-1.92-.17-.73-.09c-2.72-.36-5.44-.78-8.17-1a30.34,30.34,0,0,0-3.81.09l-1.21,0-6.15-.39-.56-.07c-1.95-.37-3.9-.78-5.86-1.08s-4.19-.52-6.28-.78l-.83-.06c-.54-.11-1.08-.25-1.63-.32L168.71,237l-1.47-.12-2.07-.18-1.29-.12-2.88-.19-1-.07-8.06-.81-2.49,0-7,0-.72-.06-1.8-.16-.6-.06-1.35-.16-.81-.08-10.08-.26-1.27.11-1.13.16-.33,0-4.4-.2-.77-.06c-.68,0-1.5-.17-2,.13a6.85,6.85,0,0,1-5.12.66l-1.27,0-2.68-.21-.46,0-2.18.66-1,.24a4.38,4.38,0,0,0-.82.13c-2.4.84-4.8,1.68-7.19,2.56a1.23,1.23,0,0,0-.58.55A8.23,8.23,0,0,1,90.84,243c-2,.55-4,1.08-6,1.57a64.92,64.92,0,0,0-7,1.68A91.14,91.14,0,0,0,69.47,250c-3.49,1.71-6.95,3.36-11,3a3.17,3.17,0,0,1-3.27-3c-.14-1.77.94-2.71,2.16-3.59,1.58-1.13,3.18-2.24,4.69-3.3l-1.42-3.75c-1.43,1.09-2.76,2.24-4.23,3.18-2.21,1.42-4.44,2.87-7.18,3.07l-.52-.45a2.63,2.63,0,0,1,.74-2.82q2.06-2.42,4.09-4.85l-.28-.37c-.82.49-1.6,1-2.45,1.46a5,5,0,0,0-2.41,2.8,57.49,57.49,0,0,1-3,6c-1.3,2.24-2.76,2.77-5.32,2.29a1,1,0,0,0-.81.25,11.15,11.15,0,0,1-5.43,3.53l-.95.1c-1.71-.14-2.15-1-1.4-2.57,1.14-2.44,2.24-4.89,3.37-7.34Zm260.53-53.71c-1.25,0-2.53-.1-3.8,0-4.52.4-9,1.08-13.55,1.26s-8.72.93-13.06,1.51c-3.56.47-7.09,1.12-10.65,1.6-1.9.25-3.83.23-5.73.46-5.5.66-11,1.5-16.5,2.05-3.13.31-6.36-.14-9.44.38-5.32.88-10.66.77-16,1.1-3.35.21-6.7.44-10.05.59-3.58.17-7.17.26-10.76.37-.67,0-1.36,0-2,0-3.48.37-7,.8-10.45,1.14-4.05.4-8.1.73-12.16,1.11-2.93.28-5.86.73-8.8.83a58.3,58.3,0,0,0-12.05,1.82c-6.23,1.53-12.46,3.16-18.77,4.27-3.09.54-5.84,1.8-8.75,2.72a3.62,3.62,0,0,0-2.32,3.88c.18,1.58.5,3.15.71,4.73A78.14,78.14,0,0,0,114.43,232c.35,1.08.89,1.35,1.85.95a7.33,7.33,0,0,1,4-.28,19.32,19.32,0,0,0,3.79.25,71.08,71.08,0,0,1,12.8.21c3.87.5,7.76.8,11.65,1.15.78.07,1.59-.1,2.38,0,3,.31,6,.85,9,1,8.72.37,17.29,2,25.92,3.06,3.56.45,7.09,1.24,10.66,1.53,4.53.35,9.09.31,13.63.51,6.63.29,13.27.23,19.85,1.3,3,.49,6.07,1,9.13,1.26a66.28,66.28,0,0,1,15.8,3.27c5.51,1.79,11,3.62,16.64,4.91,3.78.87,7.38,2.54,11.08,3.82A54.59,54.59,0,0,1,298,263.07a27.15,27.15,0,0,0,3,1.73c-.1-.7-.12-1-.18-1.3-.37-1.67-.88-3.33-1.08-5-.81-6.69-2.72-13.21-3-20-.19-4.43-.4-8.86-.48-13.29-.07-3.27.13-6.55.08-9.82-.06-3.92-.32-7.83-.39-11.74-.07-3.24,0-6.48,0-9.72C296,192.2,295.94,190.46,295.94,188.63ZM63.24,241.15c.54-.27.84-.43,1.15-.57l4.09-1.94c1.25-.6,2.46-1.29,3.74-1.81a50.9,50.9,0,0,1,6.34-2.35c4.25-1.1,8.63-.86,13-.73a21,21,0,0,1,6.3,1.13,4.74,4.74,0,0,0,3.34,0,19.17,19.17,0,0,1,8.47-1.08,21.4,21.4,0,0,0,2.9,0c-2.16-7.44-2-15-3.12-22.22-3.35.5-6.72,1-10.07,1.52-3,.48-5.94,1.08-8.92,1.53-1.84.28-3.71.37-5.57.57-2.56.27-5.12.64-7.69.81a41.78,41.78,0,0,0-10.51,1.91c-1.57.53-3.23.81-4.84,1.21l-7,1.8C58.52,227.45,61.83,233.82,63.24,241.15Zm1.86,6.54a8.59,8.59,0,0,0-2.48-.28,8.9,8.9,0,0,0-5,2.72c-.86,1-.72,1.43.59,1.61a11.92,11.92,0,0,0,7.33-.93,71.61,71.61,0,0,1,7.1-3.19c2.52-1,4.75-2.55,7.5-3,3-.5,6-1.42,9-2,3.81-.67,6-3,7.38-6.49-5.68-.94-11.45-1.29-17.09,0-7.14,1.62-13.34,5.43-19.45,9.31-.86.55-1.67,1.2-2.48,1.83a7.45,7.45,0,0,0-.81.87C59.51,247.43,62,245.26,65.1,247.69ZM58,231.57l-3.37-7.26a51,51,0,0,0-12.77,4.89,2.65,2.65,0,0,0-1.1,1.2c-1.71,4.27-3.36,8.55-5,12.84a2,2,0,0,0-.07.69c0,1.16-.06,2.32-.09,3.47h-.38L34.91,246h-.26l-2.29,6a8.13,8.13,0,0,0,5.71-2.71A26.27,26.27,0,0,0,43.66,241a12.44,12.44,0,0,1,7.69-7.21C53.49,233,55.67,232.33,58,231.57ZM40.55,248.41c.71-.08,1.3,0,1.65-.21a9,9,0,0,0,2.56-2.2c1.07-1.63,1.77-3.49,2.75-5.17a7.65,7.65,0,0,1,2-2.29c2.1-1.58,4.32-3,6.48-4.52a9.25,9.25,0,0,0,.73-.67A17.38,17.38,0,0,0,48,236.53a7.79,7.79,0,0,0-3,3.9,18,18,0,0,1-1.37,2.92C42.66,245,41.67,246.54,40.55,248.41Zm9-3.83.36.29A22.18,22.18,0,0,0,60,238.1a1.46,1.46,0,0,0,.16-1.21c-.33-1-.79-1.89-1.33-3.13a23.87,23.87,0,0,0-3.1,2.6c-1.94,2.28-3.73,4.69-5.55,7.06A6.65,6.65,0,0,0,49.54,244.58Z" />
        <path class="outline"
            d="M476,290.43c.35,2.95.76,5.89,1,8.85.09.93-.19,1.9-.18,2.85,0,1.63.17,3.26.18,4.89a19.44,19.44,0,0,1-.21,2.74,7.57,7.57,0,0,0,.85,4c1.94,4.34,2.59,9,3.65,13.61,1.51,6.56,2.92,13.15,4.28,19.75.56,2.73.77,5.53,1.3,8.26,1,5.05,1.81,10.14,3.19,15.08,1.8,6.47,3.36,13,4.52,19.57a141,141,0,0,0,7.87,26.59c1.55,4,2.72,8.09,4.11,12.13.49,1.43,1.15,2.81,1.67,4.23,1.14,3.09.67,6.31.77,9.49a9.83,9.83,0,0,0,.51,2.74,33.5,33.5,0,0,0,1.4,3.11l3.6-1.47L528,444.47h3.95c0-.86,0-1.63,0-2.41a38.08,38.08,0,0,1,.19-4.41,21.16,21.16,0,0,0-.42-7,37.84,37.84,0,0,1-.34-4.77c-.13-2.35-.28-4.7-.36-7.05a13.66,13.66,0,0,1,.16-2.86,34.1,34.1,0,0,0-.21-12.62c-1-5.36-2.54-10.63-3.74-16s-2.41-10.49-3.29-15.79c-.84-5-1.29-10.05-1.87-15.09a78.92,78.92,0,0,0-4.69-19.64A54.06,54.06,0,0,1,513.78,318a142.42,142.42,0,0,0-1.93-19.53c-.64-4-1-8.07-1.55-12.1-.76-5.81-1.57-11.62-2.32-17.43-.64-4.91-1.07-9.84-1.85-14.72-1.17-7.25-1.1-14.65-2.89-21.81-2.13-8.52-4.16-17.06-6.3-25.58-.55-2.2-1.3-4.35-2-6.52a7.48,7.48,0,0,0-.61-1.17c-.54,1.13-1,2-1.42,3-.54,1.28-1,2.61-1.52,3.9a6.22,6.22,0,0,1-.66,1.06c.33-1.3.58-2.63,1-3.9.76-2.24,1.63-4.43,2.47-6.64,0-.09.19-.14.52-.38l1.88,3,.4,1.2.1.48.12.48.15.72c.15.47.31.94.46,1.41.24.73.48,1.46.71,2.19l.15.47.13.49.11.47.11.49.11.48.09.48.13.49.63,2.39c.11.4.23.8.35,1.2l.13.48c.11.4.23.8.34,1.2l.1.48.14.48.14.72.11.48.08.48.15.72.08.48.18,1,.07.48.16,1,.08.72.18.71.29.73.29.69.25.75.14.47.1.49.12.48.07.48.42,2.39.07.49.16,1,.09.72.15.95.09.73.15.95.06.49.18,1,.14.72.09.48.15.72.09.48.08.48.18.95.09.73c.05.32.09.64.13,1l.08,1,.16,1.2.15,1.2.08.48.15,1c0,.24.07.48.1.72l.13,1,.11,1c0,.4.07.8.1,1.2l.15,1.2.08.72.15.72.12.72.14.71.07.49.16,1,.06.49.19,1.91.05.49c.06.56.13,1.11.19,1.67l.07.49.18.95.09.49c.13.64.25,1.28.38,1.91l.07.49.15,1,.12,1,.13,1.19.08.73.15,1.2c.05.4.09.8.14,1.2l.11.71.13,1,.11.72.11,1,.13.95.06.49c.3,1.6.6,3.2.91,4.79l.07.73c.06.48.11,1,.16,1.43l.09,1.21.15,1.2.08.72.17,1.19.1.73c0,.4.08.8.13,1.2l.1,1.2c0,.48.1,1,.14,1.43l.11,1,.12.72.16,1,.09.48.11.72.12.72.09.72c.05.4.11.8.16,1.19l.08.73c.05.4.11.8.17,1.19l.06.49.17,1,.06.48.18,1,.06.48.19,1.19.06.49.18,1.67.07.73.18,1.67.07.49.17.95.06.49.16,1.67.09,3.85.15,1.43.11,1.21.12,1.68c0,1.12.07,2.24.1,3.36l.15,1.67.1.73.14.72.11.72.13.71.08.49.16.71.12.49.12.47c.12.41.23.81.34,1.21.45,1.36.89,2.72,1.33,4.08l.12.48.14.47.1.49.11.48.09.48.16.72.08.48.16.72.13.72.11.48.13.72.11.48.1.48.14.48.1.48.4,1.43.11.49.12.47.11.49.12.48.08.48.17.72.08.48.39,1.68.1.48c.22.8.43,1.6.64,2.39l.1.49.63,3.83,0,.49c.06.4.12.8.17,1.2l.09.72.39,2.16.07.48.18,1,.07.49.16,1,.09.72c.06.4.11.8.17,1.19l0,.49c.07.48.13,1,.19,1.43l.09.73.13.72.09.72.15.72c0,.24.07.48.11.72l.13.72.16,1,.09.48c0,.24.08.48.11.72s.09.48.14.71.08.49.13.73l.11.71.07.49c0,.24.1.48.14.72l.12.72.12.48.1.48.15.48.14.48.81,2.64.11.48c.06.24.12.47.17.71s.07.33.11.49l.12.71.11.73c0,.24.09.47.14.71l.1.49.11.48.11.48,1.36,5.75.08.49.6,2.4.13.48.6,1.92.12.48.13.47.1.49c0,.24.09.48.14.72l.06.48.16,1,.14,1,.12.72.13,1c0,.4.07.8.1,1.2l.1,5v.73l-.09,1.68-.12.72-.1.49c0,.15-.07.31-.1.47l-.17,1.2c0,.48,0,.95,0,1.43l.13,1.2c0,.24.07.48.11.72s.05.48.07.72c0,1.07-.06,2.14,0,3.2,0,1.57.14,3.14.21,4.71l.06.49c.14.8.27,1.6.41,2.4l.06.48c0,.88,0,1.77,0,2.65,0,.24,0,.48,0,.73l-.18,1.43-.06.49-.17,1.43c0,.56,0,1.11,0,1.67l0,4.09c.23,2.71.37,5.43.71,8.13.63,4.89,1.35,9.76,2.08,14.63.45,3,1,6,1.49,9.06.3,1.92.57,3.84.69,5.77.21,3.41.28,6.83.45,10.25.07,1.22,0,2.22-1.76,2.1.68,2.58-.49,4.63-1.5,6.69-2.23,4.59-4.52,9.16-6.77,13.74a11.69,11.69,0,0,1-3.31,3.83,91.64,91.64,0,0,0-6.84,6.53c-1.44,1.49-2.7,3.15-4,4.74a1.56,1.56,0,0,1-2.81-.33c-.87-1.64-.46-3.25,0-4.85.29-.94.66-1.85,1.13-3.16-1,.59-1.76,1-2.49,1.47-1,.61-1.93,1.3-2.93,1.88-2.07,1.22-3.12-.32-3.25-2-.21-2.56,1.13-4.51,3-6.11.78-.68,1.67-1.23,2.71-2-1.24-.39-2.3-.72-3.35-1.07a17.32,17.32,0,0,1-1.86-.7c-1.88-.9-2.09-2.64-.41-3.86a2.27,2.27,0,0,0,1-1.5,2.33,2.33,0,0,1,1.65-1.47c1.95,0,2.36-1,2.67-2.7.6-3.31,1.68-6.53,2.45-9.81.82-3.47,1.53-7,2.28-10.46.42-2-.68-3.71-.93-5.58-.21-1.64-.55-3.27-.76-4.92-.42-3.4-.76-6.8-1.21-10.2-.33-2.41-.72-4.82-1.19-7.22a34.76,34.76,0,0,0-1.23-4.32c-.12-.34-.65-.54-1-.8l-.22-3.12-.08-.49-.32-.64-.15-.32c-.21-.64-.43-1.28-.65-1.91v-1l.2-1.19,0-4.33a13.64,13.64,0,0,0-.14-3.27c-.7-2.38-1.63-4.69-2.47-7l-.1-.48-.15-.48-.11-.48-.14-.47-.34-1.21c-.25-.71-.5-1.42-.74-2.12l-.18-.52-1.14-3.35-.56-1.69c-.42-1-.83-2.06-1.24-3.08l-1.18-3.64-.15-.47-.33-1.21-.73-2.13-.21-.75c-.21-.64-.42-1.28-.62-1.92l-.36-1.2L496,402c-.11-.41-.23-.81-.34-1.21l-.36-1.2-.11-.48-.12-.48-.14-.72-.1-.48-.13-.72-.11-.48-.14-.72-.11-.48-.14-.72-.1-.48-.15-.72-.1-.47-.1-.49-.13-.48-.39-1.68-.1-.47-.08-.49-.15-.72-.11-.72c0-.24-.09-.48-.13-.72l-.16-1-.08-.48-.14-.72-.1-.48-.14-.72-.1-.48-.14-.72-.11-.48c-.44-1.76-.87-3.52-1.31-5.28l-.14-.47c-.1-.41-.21-.81-.31-1.21l-.15-.48c-.12-.4-.24-.8-.35-1.2s-.25-.8-.38-1.19c-.27-.89-.55-1.77-.82-2.65l-.14-.47-.62-2.41-.1-.47-.1-.49-.12-.48-.15-.72-.11-.47-.11-.49-.12-.48-.16-.72-.09-.47-.14-.73-.09-.48-.14-.72-.1-.48-.12-.72-.12-.72-.16-1-.08-.48-.13-1-.12-.95-.11-1.21c0-.24-.07-.48-.11-.72-.05-.4-.11-.8-.16-1.2l-.08-.48-.11-.72-.15-.71-.08-.49-.16-.71-.11-.49-.13-.47c-.19-.65-.38-1.29-.56-1.93l-.15-.48-.12-.48-.12-.48-.1-.48-.12-.48-.15-.72-.1-.48-.14-.72-.1-.48-.14-.72-.11-.48-.14-.72-.1-.48c-.05-.24-.09-.48-.14-.72l-.1-.48-.1-.48-.14-.48-.12-.48-.13-.47-.12-.49-.12-.47-.12-.49-.12-.48-.13-.72-.09-.48-.16-1-.08-.48c-.14-.88-.27-1.76-.4-2.64l-.09-.48-.11-.72-.14-.71-.11-.49-.13-.47-.12-.49L479,324l-.13-.49-.11-.47-.13-.49-.11-.47c-.12-.49-.23-1-.35-1.45l-.11-.48-.16-.72-.1-.47-.1-.49-.12-.48-.11-.48c-.18-.74-.08-1.63-1.07-1.91-.23-2.71-.48-5.42-.69-8.13-.12-1.73-.3-3.48-.25-5.21C475.53,298.32,475.77,294.38,476,290.43Zm61.46,200.09-.14-.93c-.22-2.44-.33-4.91-.68-7.33-.81-5.58-1.72-11.15-2.62-16.72-.54-3.36-1.24-6.71-1.66-10.09-.33-2.68-.37-5.39-.51-8.09-.07-1.51-.2-1.78-1.64-1.65-2.68.24-5.36.57-8,1-3.71.53-7.35,1.29-10.61,3.33a1.53,1.53,0,0,0-.74,2.07,44.12,44.12,0,0,1,1.33,4.33c.7,3.29,1.31,6.61,1.91,9.93.28,1.59.45,3.2.64,4.63q.84-2.55,1.78-5.44c3,6.84,5.86,13.42,8.73,20l.36-.09,1-2.67.33.07a8.68,8.68,0,0,1,0,1.84c-.53,2.25-1.13,4.47-1.7,6.7-.34,1.34-.93,2.64-.19,4.05.3.58.56.74,1.2.5a24.52,24.52,0,0,1,4-1.29c2.18-.42,4.4-.63,6.59-1a1.29,1.29,0,0,0,.79-.85A14.21,14.21,0,0,0,537.42,490.52Zm-26.55,15.66c1.16-1.63,2.44-1.17,3.62,1.17.2-.28.39-.52.55-.77,2-3.18,3.94-6.4,6-9.51a11.27,11.27,0,0,0,1.87-4.44,28.42,28.42,0,0,1,1.16-3.36,2.8,2.8,0,0,0,.12-1.68c-2.39-6-4.85-11.9-7.29-17.85a3.79,3.79,0,0,0-.43-.56c-.12,1.21-.29,2.11-.3,3,0,2.44,0,4.87.11,7.3.15,4.3-1.26,8.32-2.2,12.42-1.35,5.89-2.84,11.74-4.2,17.62a6.06,6.06,0,0,0,.14,2.57c.22,1,.93,1.08,1.52.26a13.42,13.42,0,0,0,1.64-2.9,4.1,4.1,0,0,0,.09-2.12C513.08,506,512.07,505.89,510.87,506.18ZM516,526.66l.2.18a2.22,2.22,0,0,0,.35-.25c3.26-2.93,6.53-5.85,9.77-8.8a4.8,4.8,0,0,0,1.12-1.39c2.88-5.92,5.71-11.86,8.56-17.79a3,3,0,0,0-.3-3.11c-2.92,1-5.84,2-8.79,2.91-1.13.37-1.24,1-1.07,2.1a5.56,5.56,0,0,1-.1,2.6c-.82,2.5-1.78,4.94-2.73,7.4a17,17,0,0,1-1.61,3.67c-.9,1.3-2.21,2.3-3.23,3.52-2,2.39-4.14,4.71-4.73,7.92-.21,1.15-.67,2.35.08,3.47.17.25.56.37.85.54.13-.29.38-.6.37-.89a4.22,4.22,0,0,1,2.53-4.06Zm7.47-29.27-.35,0a24.22,24.22,0,0,1-.51,3.74c-1,3.31-2.08,6.58-3.17,9.85a5.72,5.72,0,0,1-3.83,3.61,47.12,47.12,0,0,0-6.72,3.32,5.68,5.68,0,0,0-3.08,3.8c-.15.91.4,1.94.63,2.91a8.13,8.13,0,0,0,2-.56c2.21-1.28,4.36-2.66,6.52-4a3.79,3.79,0,0,0,.79-.71c1.56-1.66,3.14-3.3,4.62-5a8.28,8.28,0,0,0,1.38-2.3c.8-2,1.5-4.14,2.24-6.21.37-1,1.14-2.13,1-3.1A34.18,34.18,0,0,0,523.43,497.39Zm-1.46-.5c-.09.29-.17.57-.27.86a33.92,33.92,0,0,1-1.42,4.12c-.92,1.94-2.08,3.76-3.1,5.65a3.24,3.24,0,0,1-1.89,1.84c-.39.12-.71.58-.95,1-.7,1.11-1.27,2.31-2,3.36-.59.81-1.36.74-2.17.08-1.18-1-1.29-2.3-1.36-3.73-1.34-.08-2.66-.17-3.77.75-.93.76-.88,1.48.2,1.94,1.39.59,2.85,1,4.24,1.6a4.75,4.75,0,0,0,4.41-.2c.75-.41,1.69-.47,2.48-.82a3.33,3.33,0,0,0,1.56-1.11,39.42,39.42,0,0,0,1.77-3.78C521.3,504.78,522.42,501,522,496.89Zm-2.06,3.95-.39-.32c-1.39,2.58-2.79,5.15-4.18,7.72l.4.22ZM506.37,509l3.09-.31c-.34-.44-.52-.9-.76-.94A2,2,0,0,0,506.37,509Z" />
        <path class="outline"
            d="M490.76,207.08c-.34,1.51-.61,3-1,4.53-1.46,5.18-3.17,10.31-4.41,15.54-1.39,5.85-2.34,11.81-3.56,17.7-.79,3.82-1.94,7.58-2.55,11.43-.72,4.52-1.1,9.1-1.48,13.66-.48,5.8-.8,11.62-1.22,17.42,0,.21-.35.39-.53.58,0-3,.08-5.95.14-8.93.06-2.7.27-5.39.2-8.08a49,49,0,0,1,1.09-9.75q.76-4.43,1.6-8.83c.55-2.89,1.12-5.78,1.74-8.66.83-3.87,1.65-7.74,2.59-11.59q1.92-7.87,4-15.7c.79-2.91,1.78-5.76,2.72-8.62C490.17,207.5,490.53,207.31,490.76,207.08Z" />
        <path class="transparent"
            d="M238.76,245a48.12,48.12,0,0,1,6,.72c4.61,1.15,9.15,2.53,13.72,3.81q6,1.68,12.09,3.38c9.44,2.68,18.68,5.83,26.71,11.72l.1.07c2.47,1,4,2.91,5.25,5.12a3,3,0,0,0,.64.65l.09.49h0l.56,1c-.4-.09-1-.05-1.19-.3-1-1.25-1.81-2.62-2.78-3.88a5.6,5.6,0,0,0-1.43-1.15c-1.19-.79-2.49-1.43-3.61-2.32a34,34,0,0,0-8.42-4.72c-3.46-1.41-6.93-2.83-10.5-4-3.85-1.22-7.84-2-11.73-3.16-3.35-1-6.61-2.28-9.94-3.33-1.85-.59-3.75-1-5.64-1.45s-3.85-.91-5.8-1.28c-.91-.17-1.86-.08-2.79-.19C239.41,246.11,238.77,245.86,238.76,245Z" />
        <path class="transparent"
            d="M49.19,245.6c2.74-.2,5-1.65,7.18-3.07,1.47-.94,2.8-2.09,4.23-3.18L62,243.1c-1.51,1.06-3.11,2.17-4.69,3.3-1.22.88-2.3,1.82-2.16,3.59a3.17,3.17,0,0,0,3.27,3c4.08.34,7.54-1.31,11-3a91.14,91.14,0,0,1,8.38-3.79,64.92,64.92,0,0,1,7-1.68c2-.49,4-1,6-1.57a8.23,8.23,0,0,0,5.08-3.54,1.23,1.23,0,0,1,.58-.55c2.39-.88,4.79-1.72,7.19-2.56a4.38,4.38,0,0,1,.82-.13c-.21.27-.36.67-.63.78-2,.81-4,1.47-6,2.37a8.19,8.19,0,0,0-2.34,1.91,11.81,11.81,0,0,1-5.6,3c-1.6.47-3.22.85-4.84,1.21-1.35.3-2.76.41-4.08.79A37.53,37.53,0,0,0,77,247.78c-1.58.64-3.16,1.31-4.72,2-1.81.81-3.58,1.72-5.43,2.46a27,27,0,0,1-4.48,1.39,34.06,34.06,0,0,1-4.3.46c-2.22.19-4.54-2.84-4-5.05s2.14-3.17,3.75-4.28c.66-.45,1.32-.89,1.95-1.37,1.08-.82,1.07-.83.38-2.27a44.36,44.36,0,0,1-3.81,2.55c-2,1-4,1.89-6.06,2.74C49.75,246.64,49,246.57,49.19,245.6Z" />
        <path class="transparent"
            d="M33.79,253.41a11.15,11.15,0,0,0,5.43-3.53,1,1,0,0,1,.81-.25c2.56.48,4,0,5.32-2.29a57.49,57.49,0,0,0,3-6,5,5,0,0,1,2.41-2.8c.85-.41,1.63-1,2.45-1.46l.28.37q-2,2.43-4.09,4.85a2.63,2.63,0,0,0-.74,2.82A1.62,1.62,0,0,0,47,246.41a7.17,7.17,0,0,1-4.3,4.2c-.61.25-1.41,0-2,.29a27.25,27.25,0,0,0-2.75,1.39c-1.08.56-2.15,1.15-3.26,1.63C34.48,254,34.09,253.59,33.79,253.41Z" />
        <path class="transparent"
            d="M216.2,242.13c4.45.44,8.9.81,13.33,1.35,2.93.35,5.83.94,8.74,1.42.06.78-.32,1.16-1.07,1-2.61-.54-5.22-1.15-7.84-1.68-.49-.1-1.06.18-1.57.12-.93-.11-1.85-.39-2.79-.51-1.59-.19-3.18-.3-4.77-.49a11.88,11.88,0,0,1-1.68-.49C217,243.63,216.35,243.48,216.2,242.13Z" />
        <path class="transparent"
            d="M200.61,240.84a30.34,30.34,0,0,1,3.81-.09c2.73.26,5.45.68,8.17,1-.23.27-.43.76-.7.79a9,9,0,0,1-2.32,0c-1.47-.18-2.91-.52-4.38-.69a36.1,36.1,0,0,0-3.75-.21C200.83,241.67,200.53,241.48,200.61,240.84Z" />
        <path class="transparent"
            d="M180.55,238.56c2.09.26,4.19.46,6.28.78s3.91.71,5.86,1.08c-.07.69-.48.81-1.1.69-2.16-.39-4.38-.6-6.48-1.19-1.27-.35-2.52,0-3.75-.39C180.78,239.36,180.37,239.27,180.55,238.56Z" />
        <path class="transparent"
            d="M127.16,234.64l10.08.26c-.21.24-.39.66-.64.71a10.13,10.13,0,0,1-1.83,0h-6C128,235.66,127.29,235.6,127.16,234.64Z" />
        <path class="transparent"
            d="M168.71,237l9.38,1.23c.55.07,1.09.21,1.63.32-.32.25-.62.66-1,.72a3.24,3.24,0,0,1-1.38-.23,13.81,13.81,0,0,0-4.44-.54,14.55,14.55,0,0,1-3.81-.68C168.92,237.73,168.84,237.23,168.71,237Z" />
        <path class="transparent"
            d="M152,235.46l8.06.81c.05,1-.52,1.1-1.31,1-1.87-.24-3.74-.43-5.61-.68C152.48,236.52,151.8,236.39,152,235.46Z" />
        <path class="transparent"
            d="M142.52,235.42l7,0c-.25,1-.89,1.33-2.27,1.18a9.93,9.93,0,0,0-2.18,0C143.63,236.78,142.74,236.39,142.52,235.42Z" />
        <path class="transparent"
            d="M112.11,235.48a6.85,6.85,0,0,0,5.12-.66c.53-.3,1.35-.1,2-.13-.15.23-.26.61-.47.69-1.32.47-2.68.87-4,1.31A2,2,0,0,1,112.11,235.48Z" />
        <path class="transparent"
            d="M193.25,240.49l6.15.39c-.39,1-1.52,1.34-3,1a14.87,14.87,0,0,0-2.31-.4C193.48,241.37,193.09,241.21,193.25,240.49Z" />
        <path class="transparent"
            d="M504.43,427.67c.84,2.34,1.77,4.65,2.47,7A13.64,13.64,0,0,1,507,438c-.45-2.07-.85-4.16-1.39-6.21-.29-1.14-.82-2.23-1.21-3.35A2.28,2.28,0,0,1,504.43,427.67Z" />
        <path class="transparent"
            d="M533.52,429.33c-.07-1.57-.17-3.14-.21-4.71,0-1.06,0-2.13,0-3.2.13.22.36.44.36.66,0,2.27,0,4.55,0,6.83C533.71,429.05,533.59,429.19,533.52,429.33Z" />
        <path class="transparent" d="M120,234.75l4.4.2c0,1-1.09,1.39-1.37,1.12C122.17,235.2,120.28,236.8,120,234.75Z" />
        <path class="transparent"
            d="M530.89,394.29l-1.36-5.75c.44,1.47.9,2.94,1.31,4.42A5.86,5.86,0,0,1,530.89,394.29Z" />
        <path class="transparent" d="M161,236.34l2.88.19c.08.73-.39,1.16-1,1S161,237.8,161,236.34Z" />
        <path class="transparent"
            d="M511.44,279.09c-.31-1.59-.61-3.19-.91-4.79a9,9,0,0,1,.5,1.46C511.21,276.87,511.31,278,511.44,279.09Z" />
        <path class="transparent" d="M533.57,445.19l0-4.09A5.32,5.32,0,0,1,533.57,445.19Z" />
        <path class="transparent" d="M523.69,356.85l-.63-3.83A4.92,4.92,0,0,1,523.69,356.85Z" />
        <path class="transparent"
            d="M518.86,334.78c-.44-1.36-.88-2.72-1.33-4.08C518,332.06,518.42,333.42,518.86,334.78Z" />
        <path class="transparent" d="M476.36,315.6c1,.28.89,1.17,1.07,1.91l-.58-.54v1.24h-.19Z" />
        <path class="transparent" d="M165.17,236.65l2.07.18c.06,1-.7.72-1.23.75S165,237.35,165.17,236.65Z" />
        <path class="transparent" d="M140,235.2l1.8.16c-.29.33-.57.93-.87.94C140.38,236.31,139.75,236,140,235.2Z" />
        <path class="transparent" d="M508,447.84c.07,1,.14,2.08.22,3.12C507.19,450,507.45,448.92,508,447.84Z" />
        <path class="transparent" d="M213.32,241.88l1.92.17c-.34.27-.71.79-1,.75S213.62,242.21,213.32,241.88Z" />
        <path class="transparent" d="M105.52,235.94l2.18-.66C107.35,236.54,106.54,236.79,105.52,235.94Z" />
        <path class="transparent" d="M501.53,418.56l1.14,3.35Z" />
        <path class="transparent" d="M108.16,235.25l2.68.21A2.42,2.42,0,0,1,108.16,235.25Z" />
        <path class="transparent" d="M534,435.35V432.7A2,2,0,0,1,534,435.35Z" />
        <path class="transparent" d="M499.73,413.79c.41,1,.82,2,1.24,3.08C500.55,415.84,500.14,414.81,499.73,413.79Z" />
        <path class="transparent" d="M534,432.22c-.14-.8-.27-1.6-.41-2.4C533.72,430.62,533.85,431.42,534,432.22Z" />
        <path class="transparent" d="M504,228.45l-.42-2.39Z" />
        <path class="transparent" d="M528.45,383.26l-.81-2.64Z" />
        <path class="transparent" d="M531.57,397.18l-.6-2.4Z" />
        <path class="transparent" d="M523,352.53c-.21-.79-.42-1.59-.64-2.39C522.54,350.94,522.75,351.74,523,352.53Z" />
        <path class="transparent" d="M524.38,361.42l-.39-2.16Z" />
        <path class="transparent" d="M508.08,256.77l-.19-1.91Z" />
        <path class="transparent" d="M138.05,235l1.35.16-.85.74Z" />
        <path class="transparent" d="M509,262.77l-.38-1.91Z" />
        <path class="transparent" d="M124.76,234.91l1.13-.16-.39.89Z" />
        <path class="transparent" d="M506.81,444.48c.22.63.44,1.27.65,1.91C507.25,445.75,507,445.11,506.81,444.48Z" />
        <path class="transparent"
            d="M508.32,258.93c-.06-.56-.13-1.11-.19-1.67C508.19,257.82,508.26,258.37,508.32,258.93Z" />
        <path class="transparent" d="M516.23,324.45l-.15-1.67Z" />
        <path class="transparent" d="M532.3,399.58l-.6-1.92Z" />
        <path class="transparent" d="M502.85,422.43c.24.7.49,1.41.74,2.12C503.34,423.84,503.09,423.13,502.85,422.43Z" />
        <path class="transparent" d="M497.34,406.34l.73,2.13Z" />
        <path class="transparent" d="M514.8,305.25l-.18-1.67Z" />
        <path class="transparent" d="M515.05,307.65l-.18-1.67Z" />
        <path class="transparent" d="M515.51,311.25l-.16-1.67Z" />
        <path class="transparent" d="M516,319.42l-.12-1.68Z" />
        <path class="transparent" d="M496.51,403.67c.2.64.41,1.28.62,1.92Z" />
        <path class="transparent" d="M522.22,349.66l-.39-1.68Z" />
        <path class="transparent"
            d="M525.36,368.13c-.06-.47-.12-.95-.19-1.43C525.24,367.18,525.3,367.66,525.36,368.13Z" />
        <path class="transparent" d="M533,418.78c0-.48,0-.95,0-1.43C533,417.83,533,418.3,533,418.78Z" />
        <path class="transparent" d="M533.82,437.51l.18-1.43Z" />
        <path class="transparent"
            d="M511.67,281.25c-.05-.47-.1-.95-.16-1.43C511.57,280.3,511.62,280.78,511.67,281.25Z" />
        <path class="transparent" d="M512.63,290.13l-.14-1.43Z" />
        <path class="transparent" d="M515.75,316.53l-.15-1.43Z" />
        <path class="transparent" d="M533.59,439.43l.17-1.43C533.7,438.47,533.65,439,533.59,439.43Z" />
        <path class="transparent" d="M521,344.37l-.4-1.43Z" />
        <path class="transparent" d="M533.5,407c0-.4-.07-.8-.1-1.2C533.43,406.22,533.47,406.62,533.5,407Z" />
        <path class="transparent" d="M513.59,296.61l-.16-1.19Z" />
        <path class="transparent"
            d="M513.84,298.53c-.06-.39-.12-.79-.17-1.19C513.72,297.74,513.78,298.14,513.84,298.53Z" />
        <path class="transparent" d="M523.9,358.54c0-.4-.11-.8-.17-1.2C523.79,357.74,523.85,358.14,523.9,358.54Z" />
        <path class="transparent" d="M506.14,242.38l-.16-1.2Z" />
        <path class="transparent" d="M514.56,303.09l-.19-1.19Z" />
        <path class="transparent"
            d="M525.12,366.21c-.06-.39-.11-.79-.17-1.19C525,365.42,525.06,365.82,525.12,366.21Z" />
        <path class="transparent" d="M509.51,266.37l-.13-1.19Z" />
        <path class="transparent" d="M511.91,283.66l-.15-1.2Z" />
        <path class="transparent"
            d="M512.16,285.57c-.06-.39-.11-.79-.17-1.19C512.05,284.78,512.1,285.18,512.16,285.57Z" />
        <path class="transparent" d="M512.39,287.5c0-.4-.09-.8-.13-1.2C512.3,286.7,512.34,287.1,512.39,287.5Z" />
        <path class="transparent" d="M509.74,268.3l-.15-1.2Z" />
        <path class="transparent" d="M507.11,250.06l-.15-1.2Z" />
        <path class="transparent" d="M507,442.3l-.2,1.19Z" />
        <path class="transparent"
            d="M497.86,203.47c-.15-.47-.31-.94-.46-1.41C497.55,202.53,497.71,203,497.86,203.47Z" />
        <path class="transparent" d="M497,200.38l-.4-1.2Z" />
        <path class="transparent" d="M500.38,212.62l-.35-1.2Z" />
        <path class="transparent" d="M489.05,372c.13.39.25.79.38,1.19C489.3,372.79,489.18,372.39,489.05,372Z" />
        <path class="transparent" d="M500.85,214.3c-.11-.4-.23-.8-.34-1.2C500.62,213.5,500.74,213.9,500.85,214.3Z" />
        <path class="transparent" d="M495.3,399.59l.36,1.2Z" />
        <path class="transparent" d="M501.83,219.1l-.18-1Z" />
        <path class="transparent" d="M502.06,220.54l-.16-1Z" />
        <path class="transparent" d="M504.23,229.9l-.16-1Z" />
        <path class="transparent" d="M504.47,231.57l-.15-.95Z" />
        <path class="transparent" d="M505,234.7l-.18-1Z" />
        <path class="transparent" d="M505.68,238.53l-.18-.95Z" />
        <path class="transparent" d="M505.9,240.22l-.13-1Z" />
        <path class="transparent" d="M504.71,233.25l-.15-.95Z" />
        <path class="transparent" d="M506.86,247.66l-.11-1Z" />
        <path class="transparent" d="M507.83,254.37l-.16-1Z" />
        <path class="transparent" d="M508.57,260.37l-.18-.95Z" />
        <path class="transparent" d="M509.26,264.22l-.15-1Z" />
        <path class="transparent" d="M510.47,273.81l-.13-.95Z" />
        <path class="transparent" d="M514.07,300l-.17-1Z" />
        <path class="transparent" d="M514.31,301.42l-.18-1Z" />
        <path class="transparent" d="M515.29,309.09l-.17-.95Z" />
        <path class="transparent" d="M485.21,354.48l.12.95Z" />
        <path class="transparent" d="M524.63,362.85l-.18-1Z" />
        <path class="transparent" d="M524.86,364.3l-.16-1Z" />
        <path class="transparent" d="M533,403.18l-.16-1Z" />
        <path class="transparent" d="M517,328.53l-.16-.71Z" />
        <path class="transparent" d="M528.73,384.45c-.05-.24-.11-.47-.17-.71C528.62,384,528.68,384.21,528.73,384.45Z" />
        <path class="transparent" d="M519.58,337.9l-.16-.72Z" />
        <path class="transparent" d="M525.58,369.58l-.13-.72Z" />
        <path class="transparent" d="M519.82,339.1l-.16-.72Z" />
        <path class="transparent" d="M484.25,348.24l.16.71Z" />
        <path class="transparent" d="M484.49,349.44l.15.71Z" />
        <path class="transparent" d="M525.82,371l-.15-.72Z" />
        <path class="transparent" d="M526.06,372.46l-.13-.72Z" />
        <path class="transparent" d="M485,352.55c0,.24.07.48.11.72C485.06,353,485,352.79,485,352.55Z" />
        <path class="transparent" d="M516.47,325.9l-.14-.72Z" />
        <path class="transparent" d="M526.8,376.77l-.11-.71Z" />
        <path class="transparent" d="M527,378c0-.24-.09-.48-.14-.72C526.92,377.5,527,377.74,527,378Z" />
        <path class="transparent" d="M516.71,327.33l-.13-.71C516.63,326.86,516.67,327.1,516.71,327.33Z" />
        <path class="transparent" d="M485.7,357.83l.12.72Z" />
        <path class="transparent" d="M526.56,375.33c0-.23-.09-.47-.14-.71C526.47,374.86,526.51,375.1,526.56,375.33Z" />
        <path class="transparent" d="M479.45,325.92l.14.71Z" />
        <path class="transparent" d="M521.75,347.5l-.17-.72Z" />
        <path class="transparent" d="M529,385.65l-.12-.71Z" />
        <path class="transparent"
            d="M529.21,387.09c-.05-.24-.09-.47-.14-.71C529.12,386.62,529.16,386.85,529.21,387.09Z" />
        <path class="transparent" d="M492.66,386.87l.13.72Z" />
        <path class="transparent" d="M492.9,388.31l.15.72Z" />
        <path class="transparent" d="M532.79,401.74c0-.24-.1-.48-.14-.72C532.69,401.26,532.74,401.5,532.79,401.74Z" />
        <path class="transparent" d="M533.27,404.86l-.12-.72Z" />
        <path class="transparent" d="M513.34,294.7l-.12-.72Z" />
        <path class="transparent" d="M533.6,412.79v0Z" />
        <path class="transparent" d="M512.86,291.82l-.12-.72Z" />
        <path class="transparent" d="M533.39,415.19l.12-.72Z" />
        <path class="transparent" d="M510.23,271.9l-.11-.72Z" />
        <path class="transparent" d="M533.27,420.7c0-.24-.07-.48-.11-.72C533.2,420.22,533.23,420.46,533.27,420.7Z" />
        <path class="transparent" d="M510,270.21l-.11-.71Z" />
        <path class="transparent" d="M507.6,252.93l-.14-.71Z" />
        <path class="transparent" d="M507.34,251.5l-.15-.72Z" />
        <path class="transparent" d="M506.62,245.74c0-.24-.07-.48-.1-.72Z" />
        <path class="transparent" d="M502.32,222l-.18-.71Z" />
        <path class="transparent" d="M501.57,217.66l-.15-.72Z" />
        <path class="transparent" d="M517.19,329.49l-.12-.47Z" />
        <path class="transparent" d="M480.89,334.08l.12.47Z" />
        <path class="transparent" d="M485.46,356.39c0,.16.05.32.08.48Z" />
        <path class="transparent" d="M483.3,344.87l.15.48Z" />
        <path class="transparent" d="M485.94,359.27l.1.48Z" />
        <path class="transparent" d="M479.7,327.35l.09.48Z" />
        <path class="transparent" d="M486.18,360.47l.09.48Z" />
        <path class="transparent" d="M486.41,361.68l.09.47Z" />
        <path class="transparent" d="M481.13,335l.13.47Z" />
        <path class="transparent" d="M486.66,362.87l.12.48Z" />
        <path class="transparent" d="M519.12,335.73l-.14-.47Z" />
        <path class="transparent" d="M486.89,363.84l.11.47Z" />
        <path class="transparent" d="M487.15,365l.12.48Z" />
        <path class="transparent" d="M487.37,366l.1.47Z" />
        <path class="transparent" d="M488.09,368.88l.14.47Z" />
        <path class="transparent" d="M526.31,373.9l-.09-.48Z" />
        <path class="transparent" d="M489.78,374.39l.15.48Z" />
        <path class="transparent" d="M490.24,376.08l.14.47Z" />
        <path class="transparent" d="M527.25,379.18l-.12-.48Z" />
        <path class="transparent" d="M527.5,380.14l-.15-.48Z" />
        <path class="transparent" d="M479.21,325l.13.47Z" />
        <path class="transparent" d="M491.69,381.83l.11.48Z" />
        <path class="transparent" d="M479,324l.13.47Z" />
        <path class="transparent" d="M492.18,384.23l.1.48Z" />
        <path class="transparent" d="M481.62,337l.1.48Z" />
        <path class="transparent" d="M492.42,385.43l.08.48Z" />
        <path class="transparent" d="M481.86,338.15l.1.48Z" />
        <path class="transparent" d="M482.1,339.35l.11.48Z" />
        <path class="transparent" d="M529.42,388.06l-.11-.48Z" />
        <path class="transparent" d="M520.06,340.3l-.11-.48Z" />
        <path class="transparent" d="M478.72,323l.11.47Z" />
        <path class="transparent" d="M493.13,389.52l.1.47Z" />
        <path class="transparent" d="M493.62,391.67l.13.48Z" />
        <path class="transparent" d="M493.85,392.64l.1.47Z" />
        <path class="transparent" d="M494.1,393.83l.1.48Z" />
        <path class="transparent" d="M478.48,322.08l.11.47Z" />
        <path class="transparent" d="M494.34,395l.11.48Z" />
        <path class="transparent" d="M494.59,396.23l.11.48Z" />
        <path class="transparent" d="M494.83,397.43l.1.48Z" />
        <path class="transparent" d="M478,320.15l.11.48Z" />
        <path class="transparent" d="M495.07,398.63l.12.48Z" />
        <path class="transparent" d="M477.76,319l.1.47Z" />
        <path class="transparent" d="M532.55,400.53l-.13-.47Z" />
        <path class="transparent" d="M482.35,340.55l.1.48Z" />
        <path class="transparent" d="M496,402l.15.47Z" />
        <path class="transparent" d="M481.38,336l.14.48Z" />
        <path class="transparent" d="M477.54,318l.12.48Z" />
        <path class="transparent" d="M520.3,341.5l-.11-.48Z" />
        <path class="transparent" d="M482.59,341.75l.1.48Z" />
        <path class="transparent" d="M513.11,293.26l-.09-.48Z" />
        <path class="transparent" d="M498.4,409.68l.15.47Z" />
        <path class="transparent" d="M520.54,342.46l-.14-.48Z" />
        <path class="transparent" d="M482.84,343l.12.48Z" />
        <path class="transparent" d="M480.65,333.11l.12.48Z" />
        <path class="transparent" d="M533.19,416.15l.1-.47Z" />
        <path class="transparent" d="M483.06,343.91l.12.48Z" />
        <path class="transparent" d="M519.33,336.7l-.11-.48Z" />
        <path class="transparent" d="M521.27,345.33l-.12-.47Z" />
        <path class="transparent" d="M521.5,346.3l-.12-.48Z" />
        <path class="transparent" d="M503.93,425.76l.14.47Z" />
        <path class="transparent" d="M504.18,426.71l.15.48Z" />
        <path class="transparent" d="M484,347.28l.13.47Z" />
        <path class="transparent" d="M480.43,331.91l.09.48Z" />
        <path class="transparent" d="M506.37,244.06l-.08-.48Z" />
        <path class="transparent" d="M505.42,237.1l-.09-.48Z" />
        <path class="transparent" d="M505.18,235.9l-.09-.48Z" />
        <path class="transparent" d="M503.51,225.58l-.12-.48Z" />
        <path class="transparent" d="M503.29,224.61l-.14-.47Z" />
        <path class="transparent" d="M507.61,446.71l.32.64Z" />
        <path class="transparent" d="M502.9,223.39l-.29-.69Z" />
        <path class="transparent" d="M480.19,330.47l.08.48Z" />
        <path class="transparent" d="M484.75,350.87l.08.48Z" />
        <path class="transparent" d="M501.34,216.46l-.11-.48Z" />
        <path class="transparent" d="M501.09,215.26c0-.16-.09-.32-.14-.48Z" />
        <path class="transparent" d="M499.4,209l-.13-.49Z" />
        <path class="transparent" d="M499.18,208.06l-.11-.48Z" />
        <path class="transparent" d="M499,207.09l-.11-.47Z" />
        <path class="transparent" d="M498.72,206.13l-.15-.47Z" />
        <path class="transparent" d="M497.25,201.34l-.12-.48Z" />
        <path class="transparent" d="M491.94,383l.1.48Z" />
        <path class="outline" d="M303.38,270.92h0Z" />
        <path class="color-shadow" d="M35.41,242.34l-.6,1.26Z" />
        <path class="color-shadow" d="M37.06,237.28l-.21.61Z" />
        <path class="color-base"
            d="M528,444.47l-13.45,2.42c-.64-1.8-1.38-3.57-1.9-5.4-1.1-3.82-2.06-7.67-3.13-11.5-1.12-4-2.33-8-3.42-12.06-.68-2.52-1.1-5.12-1.8-7.65-1.58-5.67-3.46-11.27-4.86-17-1.63-6.67-2.91-13.43-4.31-20.16q-1.53-7.35-3-14.72c-1.27-6.47-2.43-13-3.8-19.4-.87-4.08-1.94-8.12-3.08-12.13-1-3.52-2.24-7-3.37-10.46a2.43,2.43,0,0,0-.28-.66c-2.23-3.34-2.5-7.12-2.94-11-.87-7.81-.64-15.63-.55-23.44,0-4.47.68-8.94,1.12-13.41.35-3.51.74-7,1.25-10.52a81.81,81.81,0,0,1,3.63-14.7c2.11-6.14,4.13-12.31,6.18-18.48,1.06-3.21,2.09-6.45,3.14-9.67.15-.46.36-.91.54-1.37l.3,0c.27,1.82.59,3.63.8,5.46.51,4.42.94,8.84,1.44,13.26.36,3.23.72,6.47,1.22,9.69.57,3.64,1.28,7.27,2,10.9,1.25,6.51,2.56,13,3.81,19.53,1,5,2,10,2.79,15,.7,4.26,1.21,8.56,1.75,12.85s1,8.36,1.41,12.55c.24,2.49.24,5,.52,7.49.74,6.47,1.37,13,3.49,19.19a237,237,0,0,1,7.75,29.53c1,4.66,1.62,9.39,2.44,14.08.65,3.75,1.42,7.49,2,11.26.5,3.38.89,6.78,1.11,10.18.35,5.63.91,11.23,1.74,16.82.56,3.74.27,7.62.23,11.44,0,2-.36,3.95-.49,5.94S528.05,442.44,528,444.47Z" />
        <path class="color-shadow"
            d="M295.94,188.63c0,1.83,0,3.57,0,5.31,0,3.24-.09,6.48,0,9.72.07,3.91.33,7.82.39,11.74.05,3.27-.15,6.55-.08,9.82.08,4.43.29,8.86.48,13.29.31,6.76,2.22,13.28,3,20,.2,1.69.71,3.35,1.08,5,.06.3.08.6.18,1.3a27.15,27.15,0,0,1-3-1.73,54.59,54.59,0,0,0-15.36-8.22c-3.7-1.28-7.3-2.95-11.08-3.82-5.67-1.29-11.13-3.12-16.64-4.91a66.28,66.28,0,0,0-15.8-3.27c-3.06-.22-6.1-.77-9.13-1.26-6.58-1.07-13.22-1-19.85-1.3-4.54-.2-9.1-.16-13.63-.51-3.57-.29-7.1-1.08-10.66-1.53-8.63-1.09-17.2-2.69-25.92-3.06-3-.12-6-.66-9-1-.79-.08-1.6.09-2.38,0-3.89-.35-7.78-.65-11.65-1.15a71.08,71.08,0,0,0-12.8-.21,19.32,19.32,0,0,1-3.79-.25,7.33,7.33,0,0,0-4,.28c-1,.4-1.5.13-1.85-.95a78.14,78.14,0,0,1-2.64-13.46c-.21-1.58-.53-3.15-.71-4.73a3.62,3.62,0,0,1,2.32-3.88c2.91-.92,5.66-2.18,8.75-2.72,6.31-1.11,12.54-2.74,18.77-4.27A58.3,58.3,0,0,1,153,201.08c2.94-.1,5.87-.55,8.8-.83,4.06-.38,8.11-.71,12.16-1.11,3.49-.34,7-.77,10.45-1.14.67-.07,1.36,0,2,0,3.59-.11,7.18-.2,10.76-.37,3.35-.15,6.7-.38,10.05-.59,5.33-.33,10.67-.22,16-1.1,3.08-.52,6.31-.07,9.44-.38,5.52-.55,11-1.39,16.5-2.05,1.9-.23,3.83-.21,5.73-.46,3.56-.48,7.09-1.13,10.65-1.6,4.34-.58,8.65-1.33,13.06-1.51s9-.86,13.55-1.26C293.41,188.53,294.69,188.63,295.94,188.63Zm-3.53,59.8c.13-1.16.31-2.1.34-3.05.11-4.14.22-8.3.24-12.45,0-8.59,0-17.19,0-25.79a42.74,42.74,0,0,1,.33-4.52c.33-2.84.71-5.67,1.1-8.5.13-1-.29-1.27-1.22-1.18-2.73.26-5.46.47-8.19.74-5.49.54-11,1.2-16.48,1.63-5,.38-9.94.48-14.91.76-3.29.19-6.58.45-9.87.73q-6.47.55-12.93,1.18c-3,.3-6.08.67-9.12,1l-12.91,1.4c-2.6.28-5.22.49-7.82.8-3.71.42-7.41.91-11.11,1.36L181,203.59c-3.15.37-6.31.76-9.46,1.11-1.19.13-2.38.15-3.57.29-3.07.36-6.14.78-9.21,1.15s-6,.48-8.87,1.06c-5.41,1.09-10.78,2.43-16.16,3.67-5.7,1.32-11.1,3.75-17,4.43-.2,0-.52.56-.48.81.55,3.6,1.14,7.21,1.79,10.8a1.3,1.3,0,0,0,.93.8,11.67,11.67,0,0,0,3.59,0c3.83-.94,7.61-.08,11.41.11s7.6.77,11.4.87c5.8.15,11.6,0,17.4.07a53.14,53.14,0,0,1,7,.66c2.71.39,5.39,1,8.09,1.45,4.18.71,8.41,1.23,12.56,2.08,4.94,1,9.81,2.36,14.74,3.44q5.86,1.31,11.8,2.31a69.44,69.44,0,0,0,15.65,1.13c4.73-.27,9.48-.07,14.22-.07A84.87,84.87,0,0,1,263,241.2c5.07,1,10.14,2,15.15,3.19C282.91,245.56,287.57,247,292.41,248.43Z" />
        <path class="color-shadow"
            d="M63.24,241.15c-1.41-7.33-4.72-13.7-8.46-20.22l7-1.8c1.61-.4,3.27-.68,4.84-1.21A41.78,41.78,0,0,1,77.17,216c2.57-.17,5.13-.54,7.69-.81,1.86-.2,3.73-.29,5.57-.57,3-.45,5.94-1,8.92-1.53,3.35-.54,6.72-1,10.07-1.52,1.08,7.26,1,14.78,3.12,22.22a21.4,21.4,0,0,1-2.9,0,19.17,19.17,0,0,0-8.47,1.08,4.74,4.74,0,0,1-3.34,0,21,21,0,0,0-6.3-1.13c-4.34-.13-8.72-.37-13,.73a50.9,50.9,0,0,0-6.34,2.35c-1.28.52-2.49,1.21-3.74,1.81l-4.09,1.94C64.08,240.72,63.78,240.88,63.24,241.15ZM65,237.73c.61-.37.89-.53,1.15-.7s.25-.21.37-.31a24.48,24.48,0,0,1,9.77-5.08,50.08,50.08,0,0,1,6.61-.76c1.59-.15,3.19-.12,4.77-.32a17,17,0,0,1,8.51,1.11c1.47.56,2.83,1.17,4.57.53a25.19,25.19,0,0,1,5.69-1.06c1.38-.15,1.54-.25,1.24-1.67a18.11,18.11,0,0,1-.59-3.39c-.08-3.57,0-7.15,0-10.68-3,.48-5.88,1-8.74,1.36-2.59.35-5.2.6-7.8.9-3,.34-6,.52-9,1.07-3.83.7-7.62,1.61-11.38,2.58-3.14.81-6.22,1.84-9.51,2.83C63.42,228.17,65.48,232.42,65,237.73Z" />
        <path class="transparent"
            d="M65.1,247.69c-3.08-2.43-5.59-.26-8.35.48a7.45,7.45,0,0,1,.81-.87c.81-.63,1.62-1.28,2.48-1.83,6.11-3.88,12.31-7.69,19.45-9.31,5.64-1.27,11.41-.92,17.09,0-1.36,3.46-3.57,5.82-7.38,6.49-3,.53-6,1.45-9,2-2.75.45-5,2-7.5,3a71.61,71.61,0,0,0-7.1,3.19,11.92,11.92,0,0,1-7.33.93c-1.31-.18-1.45-.62-.59-1.61a8.9,8.9,0,0,1,5-2.72A8.59,8.59,0,0,1,65.1,247.69Z" />
        <path class="transparent"
            d="M58,231.57c-2.36.76-4.54,1.41-6.68,2.18A12.44,12.44,0,0,0,43.66,241a26.27,26.27,0,0,1-5.59,8.32A8.13,8.13,0,0,1,32.36,252l2.29-6h.26l.33,1.35h.38c0-1.15.05-2.31.09-3.47a2,2,0,0,1,.07-.69c1.65-4.29,3.3-8.57,5-12.84a2.65,2.65,0,0,1,1.1-1.2,51,51,0,0,1,12.77-4.89Z" />
        <path class="transparent"
            d="M40.55,248.41c1.12-1.87,2.11-3.44,3-5.06a18,18,0,0,0,1.37-2.92,7.79,7.79,0,0,1,3-3.9,17.38,17.38,0,0,1,8.72-3.18A9.25,9.25,0,0,1,56,234c-2.16,1.5-4.38,2.94-6.48,4.52a7.65,7.65,0,0,0-2,2.29c-1,1.68-1.68,3.54-2.75,5.17a9,9,0,0,1-2.56,2.2C41.85,248.44,41.26,248.33,40.55,248.41Z" />
        <path class="transparent"
            d="M49.54,244.58a6.65,6.65,0,0,1,.59-1.16c1.82-2.37,3.61-4.78,5.55-7.06a23.87,23.87,0,0,1,3.1-2.6c.54,1.24,1,2.16,1.33,3.13A1.46,1.46,0,0,1,60,238.1a22.18,22.18,0,0,1-10.05,6.77Z" />
        <path class="color-base"
            d="M537.28,489.59c.05.31.09.62.14.93-.18.46-.36.91-.55,1.37l-8.53.39c-.07-3.89.64-7.86-.58-11.94l-1.21.69c-1-2.79-1.94-5.65-3-8.45-.64-1.62-1.53-3.15-2.32-4.72a69.3,69.3,0,0,1-5.13-14c-.32-1.21,0-1.47,1-1.75,1.88-.53,3.7-1.23,5.57-1.75,1.65-.45,3.33-.76,5-1.12a.91.91,0,0,1,1.2.81c.42,1.86.89,3.7,1.27,5.56.62,3,1.1,6.09,1.78,9.11,1,4.61,2.28,9.17,3.24,13.8.73,3.49,1.15,7,1.73,10.56C536.9,489.28,537.14,489.43,537.28,489.59Z" />
        <path class="color-shadow"
            d="M537.28,489.59c-.14-.16-.38-.31-.41-.49-.58-3.52-1-7.07-1.73-10.56-1-4.63-2.21-9.19-3.24-13.8-.68-3-1.16-6.08-1.78-9.11-.38-1.86-.85-3.7-1.27-5.56a.91.91,0,0,0-1.2-.81c-1.67.36-3.35.67-5,1.12-1.87.52-3.69,1.22-5.57,1.75-1,.28-1.35.54-1,1.75a69.3,69.3,0,0,0,5.13,14c.79,1.57,1.68,3.1,2.32,4.72,1.11,2.8,2,5.66,3,8.45l1.21-.69c1.22,4.08.51,8.05.58,11.94l8.53-.39c.19-.46.37-.91.55-1.37a14.21,14.21,0,0,1,.12,2.25,1.29,1.29,0,0,1-.79.85c-2.19.37-4.41.58-6.59,1a24.52,24.52,0,0,0-4,1.29c-.64.24-.9.08-1.2-.5-.74-1.41-.15-2.71.19-4.05.57-2.23,1.17-4.45,1.7-6.7a8.68,8.68,0,0,0,0-1.84l-.33-.07-1,2.67-.36.09c-2.87-6.58-5.75-13.16-8.73-20q-.94,2.89-1.78,5.44c-.19-1.43-.36-3-.64-4.63-.6-3.32-1.21-6.64-1.91-9.93a44.12,44.12,0,0,0-1.33-4.33,1.53,1.53,0,0,1,.74-2.07c3.26-2,6.9-2.8,10.61-3.33,2.67-.38,5.35-.71,8-1,1.44-.13,1.57.14,1.64,1.65.14,2.7.18,5.41.51,8.09.42,3.38,1.12,6.73,1.66,10.09.9,5.57,1.81,11.14,2.62,16.72C537,484.68,537.06,487.15,537.28,489.59Z" />
        <path class="transparent"
            d="M510.87,506.18c1.2-.29,2.21-.15,2.43,1.15a4.1,4.1,0,0,1-.09,2.12,13.42,13.42,0,0,1-1.64,2.9c-.59.82-1.3.7-1.52-.26a6.06,6.06,0,0,1-.14-2.57c1.36-5.88,2.85-11.73,4.2-17.62.94-4.1,2.35-8.12,2.2-12.42-.09-2.43-.11-4.86-.11-7.3,0-.89.18-1.79.3-3a3.79,3.79,0,0,1,.43.56c2.44,5.95,4.9,11.89,7.29,17.85a2.8,2.8,0,0,1-.12,1.68,28.42,28.42,0,0,0-1.16,3.36,11.27,11.27,0,0,1-1.87,4.44c-2.09,3.11-4,6.33-6,9.51-.16.25-.35.49-.55.77C513.31,505,512,504.55,510.87,506.18Z" />
        <path class="transparent"
            d="M516,526.66l1.27-2a4.22,4.22,0,0,0-2.53,4.06c0,.29-.24.6-.37.89-.29-.17-.68-.29-.85-.54-.75-1.12-.29-2.32-.08-3.47.59-3.21,2.74-5.53,4.73-7.92,1-1.22,2.33-2.22,3.23-3.52a17,17,0,0,0,1.61-3.67c.95-2.46,1.91-4.9,2.73-7.4a5.56,5.56,0,0,0,.1-2.6c-.17-1.05-.06-1.73,1.07-2.1,3-.94,5.87-1.94,8.79-2.91a3,3,0,0,1,.3,3.11c-2.85,5.93-5.68,11.87-8.56,17.79a4.8,4.8,0,0,1-1.12,1.39c-3.24,3-6.51,5.87-9.77,8.8a2.22,2.22,0,0,1-.35.25Z" />
        <path class="transparent"
            d="M523.43,497.39a34.18,34.18,0,0,1,1.55,5.34c.13,1-.64,2.06-1,3.1-.74,2.07-1.44,4.16-2.24,6.21a8.28,8.28,0,0,1-1.38,2.3c-1.48,1.72-3.06,3.36-4.62,5a3.79,3.79,0,0,1-.79.71c-2.16,1.36-4.31,2.74-6.52,4a8.13,8.13,0,0,1-2,.56c-.23-1-.78-2-.63-2.91a5.68,5.68,0,0,1,3.08-3.8,47.12,47.12,0,0,1,6.72-3.32A5.72,5.72,0,0,0,519.4,511c1.09-3.27,2.19-6.54,3.17-9.85a24.22,24.22,0,0,0,.51-3.74Z" />
        <path class="transparent"
            d="M522,496.89c.45,4.14-.67,7.89-2.31,11.52a39.42,39.42,0,0,1-1.77,3.78,3.33,3.33,0,0,1-1.56,1.11c-.79.35-1.73.41-2.48.82a4.75,4.75,0,0,1-4.41.2c-1.39-.58-2.85-1-4.24-1.6-1.08-.46-1.13-1.18-.2-1.94,1.11-.92,2.43-.83,3.77-.75.07,1.43.18,2.75,1.36,3.73.81.66,1.58.73,2.17-.08.77-1,1.34-2.25,2-3.36.24-.38.56-.84.95-1a3.24,3.24,0,0,0,1.89-1.84c1-1.89,2.18-3.71,3.1-5.65a33.92,33.92,0,0,0,1.42-4.12C521.8,497.46,521.88,497.18,522,496.89Z" />
        <path class="transparent" d="M519.91,500.84l-4.17,7.62-.4-.22c1.39-2.57,2.79-5.14,4.18-7.72Z" />
        <path class="transparent" d="M506.37,509a2,2,0,0,1,2.33-1.25c.24,0,.42.5.76.94Z" />
        <path class="color-base"
            d="M292.41,248.43c-4.84-1.39-9.5-2.87-14.24-4-5-1.23-10.08-2.22-15.15-3.19a84.87,84.87,0,0,0-16.14-1.46c-4.74,0-9.49-.2-14.22.07A69.44,69.44,0,0,1,217,238.68q-5.92-1-11.8-2.31c-4.93-1.08-9.8-2.43-14.74-3.44-4.15-.85-8.38-1.37-12.56-2.08-2.7-.45-5.38-1.06-8.09-1.45a53.14,53.14,0,0,0-7-.66c-5.8-.1-11.6.08-17.4-.07-3.8-.1-7.6-.68-11.4-.87s-7.58-1.05-11.41-.11a11.67,11.67,0,0,1-3.59,0,1.3,1.3,0,0,1-.93-.8c-.65-3.59-1.24-7.2-1.79-10.8,0-.25.28-.78.48-.81,5.86-.68,11.26-3.11,17-4.43,5.38-1.24,10.75-2.58,16.16-3.67,2.91-.58,5.91-.71,8.87-1.06s6.14-.79,9.21-1.15c1.19-.14,2.38-.16,3.57-.29,3.15-.35,6.31-.74,9.46-1.11l8.87-1.05c3.7-.45,7.4-.94,11.11-1.36,2.6-.31,5.22-.52,7.82-.8l12.91-1.4c3-.33,6.07-.7,9.12-1q6.47-.63,12.93-1.18c3.29-.28,6.58-.54,9.87-.73,5-.28,10-.38,14.91-.76,5.51-.43,11-1.09,16.48-1.63,2.73-.27,5.46-.48,8.19-.74.93-.09,1.35.19,1.22,1.18-.39,2.83-.77,5.66-1.1,8.5a42.74,42.74,0,0,0-.33,4.52c0,8.6,0,17.2,0,25.79,0,4.15-.13,8.31-.24,12.45C292.72,246.33,292.54,247.27,292.41,248.43Z" />
        <path class="color-base"
            d="M65,237.73c.53-5.31-1.53-9.56-4.35-13.59,3.29-1,6.37-2,9.51-2.83,3.76-1,7.55-1.88,11.38-2.58,3-.55,6-.73,9-1.07,2.6-.3,5.21-.55,7.8-.9,2.86-.4,5.7-.88,8.74-1.36,0,3.53-.05,7.11,0,10.68a18.11,18.11,0,0,0,.59,3.39c.3,1.42.14,1.52-1.24,1.67a25.19,25.19,0,0,0-5.69,1.06c-1.74.64-3.1,0-4.57-.53a17,17,0,0,0-8.51-1.11c-1.58.2-3.18.17-4.77.32a50.08,50.08,0,0,0-6.61.76,24.48,24.48,0,0,0-9.77,5.08c-.12.1-.24.22-.37.31S65.56,237.36,65,237.73Z" />
    </g>
</svg>
