<svg id="Manzhet" xmlns="http://www.w3.org/2000/svg" viewBox="0 0 672 960">
    <g id="img_47_img" data-name="img 47 img">
        <path class="color-shadow"
            d="M476,290.43c.07-.81.15-1.62.23-2.44.1-.16.29-.31.31-.48.15-1.26.32-2.53.4-3.8.28-4.66.44-9.33.83-14s.85-9.37,1.59-14c.58-3.65,1.69-7.22,2.44-10.85,1.36-6.48,2.47-13,4-19.45,1.08-4.62,2.65-9.12,4-13.69.43-1.52.71-3.09,1.06-4.64l0,0a6.22,6.22,0,0,0,.66-1.06c.53-1.29,1-2.62,1.52-3.9.39-1,.88-1.86,1.42-3a7.48,7.48,0,0,1,.61,1.17c.69,2.17,1.44,4.32,2,6.52,2.14,8.51,4.19,17.05,6.31,25.57,1.79,7.2,1.73,14.64,2.88,21.92.86,5.43,1.38,10.92,2.11,16.37.45,3.44,1.07,6.86,1.51,10.31.73,5.77,1.26,11.57,2.1,17.33A152.37,152.37,0,0,1,513.77,318a54.57,54.57,0,0,0,3.57,18.83A78.8,78.8,0,0,1,522,356.33c.5,4.28,1,8.56,1.52,12.84a109.33,109.33,0,0,0,3.07,15.59c1.48,5.22,2.64,10.53,3.86,15.82a46.51,46.51,0,0,1,.88,14.51c-.15,1.65-.21,3.32-.22,5,0,1.08.18,2.15.22,3.22a40.43,40.43,0,0,0,.44,6.75c.59,2.83.47,5.8.9,8.67.6,3.91,1.47,7.76,2.13,11.65a47.78,47.78,0,0,1,.62,5.59,3.31,3.31,0,0,1-1.62,3.07l-.17-1a2.77,2.77,0,0,0-.38-3.2l-.08-.68-.16-.52c0-.2-.09-.41-.13-.62a2.43,2.43,0,0,0,.17-.72c-.25-2.17-.53-4.33-.78-6.5-.42-3.67-.71-7.36-1.26-11q-1-6.83-2.42-13.58a105.56,105.56,0,0,1-1.86-18.25,28.46,28.46,0,0,0-.28-3.57c-.59-3.76-1.22-7.52-1.86-11.28-1-6-1.92-12.07-3.13-18.06a239.78,239.78,0,0,0-7.87-30.49,56.18,56.18,0,0,1-1.95-7.5c-.54-2.68-.86-5.4-1.19-8.12-.31-2.56-.52-5.14-.75-7.71-.11-1.27-.13-2.54-.26-3.81-.45-4.18-.9-8.36-1.42-12.54s-1.09-8.66-1.8-13c-.82-5-1.79-9.93-2.74-14.88-1.35-7-2.75-14-4.1-21.05-.66-3.43-1.36-6.86-1.88-10.31s-.87-7.1-1.26-10.65c-.42-3.75-.76-7.5-1.19-11.25-.2-1.84-.52-3.66-.79-5.48a1.94,1.94,0,0,0-.75,1c-1,3.11-2,6.23-3,9.33-2.12,6.39-4.37,12.74-6.36,19.18A129.49,129.49,0,0,0,480.76,256c-.78,4-1.12,8-1.54,12-.46,4.46-1.05,8.93-1.12,13.41a193.6,193.6,0,0,0,.77,25.7,20,20,0,0,0,2.18,7.55,10.45,10.45,0,0,1,.81,1.73c1.21,3.63,2.45,7.24,3.55,10.9.84,2.81,1.6,5.67,2.22,8.54,1.07,4.89,2,9.81,3,14.72,1.18,6,2.3,11.93,3.51,17.88,1.58,7.75,3.1,15.51,4.88,23.21,1.18,5.12,2.75,10.14,4.15,15.2,1.15,4.14,2.51,8.23,3.4,12.42,1.11,5.24,1.94,10.54,2.7,15.84.55,3.85.8,7.74,1.19,11.61.23,2.29.49,4.58.66,6.87.1,1.36,0,2.72,0,4.08-.7,1.63.08,3,.79,4.42-1.94.78-2.34.6-2.94-1.27a5.63,5.63,0,0,1-.25-1.53c-.11-2.62-.06-5.26-.3-7.86-.42-4.57-.9-9.14-1.57-13.68-.64-4.3-1.49-8.57-2.37-12.84a52,52,0,0,0-2.1-8.32,143.79,143.79,0,0,1-7.79-26.37c-1.19-6.65-2.73-13.19-4.55-19.7-1.38-4.94-2.21-10-3.19-15.08-.53-2.74-.74-5.53-1.3-8.26-1.35-6.6-2.76-13.19-4.28-19.76-1.06-4.58-1.71-9.28-3.65-13.62a7.47,7.47,0,0,1-.84-4A20.91,20.91,0,0,0,477,307c0-1.63-.17-3.27-.19-4.9,0-.95.28-1.92.18-2.85C476.72,296.32,476.31,293.38,476,290.43Z" />
        <path class="outline"
            d="M37.06,237.28c.87-2.36,1.67-4.76,2.65-7.07a3.8,3.8,0,0,1,1.76-1.8c3.63-1.63,7.34-3.1,11-4.69a18.3,18.3,0,0,0,6.88-4.67c1.51-1.76,3.61-1.72,5.63-1.81,6.31-.3,12.63-.54,19-.8a29.67,29.67,0,0,1,3-.1,2.51,2.51,0,0,0,2.76-1.78,1.84,1.84,0,0,1,1.66-1.31c1.74-.23,3.47-.53,5.2-.81a3.77,3.77,0,0,1,3,.76c1.21.92,1.89.85,2.45-.5.92-2.26,2.69-3.06,4.89-3.49,5-1,10-2,14.89-3.09q8.81-2,17.56-4.31a54,54,0,0,1,13.79-2.27c4,0,8-.61,12-.87s7.83-.42,11.74-.63l1.21-.08-.36-.74c1.67,0,3.23.08,4.78,0,8.3-.51,16.59-1.07,24.89-1.59,4-.26,8-.45,11.95-.72,4.39-.29,8.78-.53,13.15-1,4.92-.53,9.82-1.29,14.73-1.94,1.63-.21,3.26-.37,4.89-.54,2.74-.3,5.48-.6,8.22-.88,7.63-.79,15.26-1.54,22.88-2.39,3.06-.33,6.09-.92,9.14-1.31,1.54-.19,3.1-.2,4.81-.29-.11,2.18-.25,4.23-.3,6.29-.09,4.11-.27,8.23-.15,12.33.22,7.64.45,15.26.25,22.9-.11,4,.67,8.11,1,12.17.79,10.18,3.53,20,5.18,30.15-.36-.51-.72-1-1.07-1.54a13.37,13.37,0,0,0-1.1-1.57,14.58,14.58,0,0,0-1.94-1.65c-.67-.5-1.44-.86-2.11-1.35a62.54,62.54,0,0,0-13.53-7.15c-6.36-2.63-13-4.25-19.6-5.92-3.59-.9-7-2.4-10.57-3.53-5.9-1.89-12.06-2.37-18.13-3.4-8.29-1.4-16.68-1.88-25-2.91-5.1-.63-10.21-.37-15.3-.85-2.38-.23-4.74-.67-7.12-1-9.17-1.38-18.32-2.84-27.6-3.31-1.4-.07-2.79-.31-4.18-.39-2.47-.15-4.94-.23-7.41-.36-3.75-.2-7.52-.23-11.24-.68a41.25,41.25,0,0,0-22.13,3.12c-1.6.71-3.27,1.28-4.9,2a3.67,3.67,0,0,1-3.43-.23c-1.42-.8-2-.62-2.75.9a4.92,4.92,0,0,1-3.62,2.84c-1.17.25-2.34.52-3.53.68-2.27.3-2.71,0-3.62-1.92-4.42,1.79-9.19,2.3-13.74,3.59-3.42,1-6.59,2.79-9.88,4.23a42.5,42.5,0,0,1-6.07,2.52,26.28,26.28,0,0,1-5.9.5c-1.34,0-1.94-1-2.3-2.13a3,3,0,0,1,.89-3.48c2-1.53,4.05-3,6.12-4.42,1.74-1.21,3.54-2.32,5.3-3.49a6.71,6.71,0,0,0,1.46-1.23c.38-.47,1-1.25.8-1.59-.63-1.4-1.27-1.62-2.52-1.24l-.12,0a14.55,14.55,0,0,0-6.67,3.8A31.58,31.58,0,0,1,52,244.9a6.76,6.76,0,0,1-1.71.53c-.49.06-1.38,0-1.46-.26a2.76,2.76,0,0,1,0-2,15.4,15.4,0,0,1,2-2.56c.88-1.06,1.79-2.1,2.77-3.24-1.74,0-4.3,1.85-5.05,3.5-.86,1.89-1.73,3.78-2.69,5.62-1.5,2.87-2.71,3.44-5.93,3.1-.32,0-.75.34-1,.63a9.11,9.11,0,0,1-5.76,3.15,2.19,2.19,0,0,1-1.74-.55,2.23,2.23,0,0,1,0-1.84c.87-2,1.88-3.88,2.81-5.82a14,14,0,0,0,.55-1.58l.78-1.77,1.26-3.94Zm60,1.44.22.2L95,240.33c.08,1.65,1.06,2.37,2.75,1.91l2.76-.74c2.58-.68,3.34-2,2.69-4.65l-2.77-18.69c0-.5-.11-1-.14-1.52A2.52,2.52,0,0,0,98,214.09a43.35,43.35,0,0,0-5.68.38,1.25,1.25,0,0,0-.9.76,21.27,21.27,0,0,0,0,2.8c2.08-1.23,2.21-1.26,3.36-.84a.35.35,0,0,1,0,.2,9.49,9.49,0,0,0-1.19.06c-1,.16-2,1.16-1.81,1.85.33,1.29.72,2.56,1.59,3.12l.52,8.72,3-.21.09.25-3.1.91a7.83,7.83,0,0,0,0,1.18c.21,1.45.49,2.9.66,4.36s.47,1.69,1.91,1.29Zm12.79-2.86a3.49,3.49,0,0,1-1.21.51c-.88,0-1.76-.18-2.66-.28.28,2.42,1.52,3.28,3.6,2.45a144.46,144.46,0,0,1,15.22-5.08c3.88-1.07,7.66-.76,11.5-.41,4.09.37,8.16.82,12.25,1.19.82.08,1.67-.1,2.5,0,2.94.3,5.86.85,8.8,1,8.84.37,17.52,2,26.27,3.11,3.87.49,7.73,1.14,11.62,1.48,2.58.23,5.2,0,7.79.06,2.91.12,5.81.45,8.72.63,4.1.27,8.21.37,12.3.76s8.37,1.28,12.58,1.61a65.51,65.51,0,0,1,15,3c6.12,2,12.29,3.71,18.47,5.45,9.11,2.57,18,5.93,25.6,11.9a19.65,19.65,0,0,0,2.78,1.54c-.59-3.17-1.21-5.92-1.58-8.7-.68-5.1-2.26-10-2.43-15.23-.16-4.46-.68-8.91-.81-13.38-.11-3.91.18-7.83.14-11.74-.07-7.11-.26-14.22-.39-21.33,0-1.9,0-3.8,0-5.76-1.23,0-2.54-.09-3.83,0-4.49.4-8.95,1.08-13.44,1.26s-8.8.92-13.18,1.52c-3.55.48-7.09,1.12-10.64,1.6-1.9.25-3.83.23-5.73.46-5.46.66-10.91,1.49-16.38,2-3.17.31-6.44-.13-9.56.38-5.28.86-10.58.79-15.86,1.11l-10.17.6c-2.91.17-5.81.37-8.73.51-1.66.08-3.33,0-5,.08-5,.42-10,.91-15,1.39-5.28.51-10.55,1-15.83,1.58-2.93.3-5.87.57-8.76,1.1-2.51.46-5,1.27-7.42,1.9-5.57,1.41-11.32,2-16.79,3.83-2.82,1-5.74,1.63-8.63,2.33-2,.5-4.16.71-6.16,1.31a3,3,0,0,0-2,3.1,25.26,25.26,0,0,0,.46,3.31c3.07-2.59,3.07-2.59,4.47-2.55a2.61,2.61,0,0,1-.47.24c-2.46.6-4.15,3.49-3.23,5.44l1.48-.09c-.57.6-1.68.42-1.45,1.65s.44,2.66.66,4l1.65-.17c-1.51,1.06-1.52,1.06-1.24,2.94.08.55.2,1.09.31,1.65l1.16.27-1.07.56c.12.83.2,1.62.36,2.39,0,.27.25.66.45.72C107.5,235.41,108.7,235.62,109.89,235.86ZM57,251.35a8.47,8.47,0,0,0,1.53.47,12.71,12.71,0,0,0,7.1-1c2.75-1.37,5.61-2.52,8.43-3.76a36.38,36.38,0,0,1,4.8-2c3.08-.84,6.24-1.41,9.34-2.16,1.36-.32,2.67-.82,4-1.23a1.38,1.38,0,0,0,1-1.95,16.75,16.75,0,0,1-.68-2.66c-.36-3.21-.59-6.44-1-9.66-.39-3.46-.86-6.92-1.3-10.45l-1.42.08-14.46.88c-3.42.21-6.84.39-10.26.67-2,.16-3.41,1.47-5.37,2.47H69.11a5.5,5.5,0,0,1-2.25.69,52.42,52.42,0,0,0-11.14,2.18c-4.54,1.53-9.24,2.63-13.41,5.11a3.53,3.53,0,0,0-1.51,1.42c-1.74,4.25-3.37,8.55-5,12.83a2,2,0,0,0-.06.7c0,1.17-.06,2.33-.09,3.5h-.39l-.29-1.39-.27,0-2.33,6a8.21,8.21,0,0,0,5.86-2.85A31.45,31.45,0,0,0,44.11,240a9.79,9.79,0,0,1,3.5-4.32,26.89,26.89,0,0,1,10.48-3.9c2.91-.52,5.85-.95,8.69-1.74a12.09,12.09,0,0,1,6,.18,3.06,3.06,0,0,1,.85.49l0,.32c-1,.13-2.09.27-3.13.38s-1.65.82-1.47,1.56a17.82,17.82,0,0,0,1.63,3.45,82.17,82.17,0,0,1,7-6.71c-1.84,2.52-3.81,4.9-5.87,7.2a15,15,0,0,1-2.61,2.29c-3.87,2.73-7.79,5.4-11.67,8.12a3.92,3.92,0,0,0-.74.87c3.92-1.74,6.59-2.65,8-.43C62.29,246.78,58.23,248.53,57,251.35Zm-7.47-6.7c.32.1.4.16.46.13,4.14-1.46,7.78-3.62,10.37-7.29a14.77,14.77,0,0,1,1.27-1.57c1.25-1.33,3-1.64,4.63-2.08s1.8-.64,1.71-2.19a1.32,1.32,0,0,0-.44-.05c-3.48.66-7.08.94-10.07,3.14a8.85,8.85,0,0,0-1.7,1.46c-1.93,2.4-3.81,4.83-5.69,7.27A6.4,6.4,0,0,0,49.54,244.65Zm-8.94,3.54a3.69,3.69,0,0,0,4.11-2,48.32,48.32,0,0,0,2.49-4.79,7.34,7.34,0,0,1,3.09-3.49c1.53-.93,3-2,4.47-3,.64-.44,1.26-.92,2.07-1.53a16.74,16.74,0,0,0-10.17,4.27,9.28,9.28,0,0,0-1.5,2.28c-.87,1.66-1.61,3.39-2.5,5C42.09,246.05,41.34,247,40.6,248.19Zm64.75-10.6-3.3-22c-.41.14-.68.4-.67.64a26.64,26.64,0,0,0,.27,3c.59,4.14,1.27,8.26,1.81,12.4.28,2.11.34,4.25.51,6.51ZM58.92,221.06l-.16.08s.06.08.08.08a.48.48,0,0,0,.16-.08Z" />
        <path class="outline"
            d="M476,290.43c.35,2.95.76,5.89,1,8.85.1.93-.19,1.9-.18,2.85,0,1.63.17,3.27.19,4.9a20.91,20.91,0,0,1-.21,2.73,7.47,7.47,0,0,0,.84,4c1.94,4.34,2.59,9,3.65,13.62,1.52,6.57,2.93,13.16,4.28,19.76.56,2.73.77,5.52,1.3,8.26,1,5.05,1.81,10.14,3.19,15.08,1.82,6.51,3.36,13.05,4.55,19.7a143.79,143.79,0,0,0,7.79,26.37,52,52,0,0,1,2.1,8.32c.88,4.27,1.73,8.54,2.37,12.84.67,4.54,1.15,9.11,1.57,13.68.24,2.6.19,5.24.3,7.86a5.63,5.63,0,0,0,.25,1.53c.6,1.87,1,2.05,2.94,1.27-.71-1.38-1.49-2.79-.79-4.42a18.19,18.19,0,0,0,.34,2.11c.28,1,1.52,2.07,2.26,2,2.08-.32,4.16-.67,6.3-1-.08-.56-.14-1-.2-1.52.31.22.34.55.52.75s.59.59.86.56c1.25-.14,2.5-.39,3.73-.6.08-.48.15-.87.22-1.27h.23c.11.38.21.76.33,1.17.83-.15,1.61-.31,2.4-.43s1.57-.22,2.38-.32c.15-.42.29-.83.52-1.47l.12,1.45c1.84.06,1.89.06,1.83-1.7-.05-1.47-.24-2.93-.36-4.39a.46.46,0,0,1,.17,0s.07,0,.11.05c0,.21.08.42.13.62l.16.52.08.68c.13,1.07.26,2.13.38,3.2l.17,1a3.31,3.31,0,0,0,1.62-3.07,47.78,47.78,0,0,0-.62-5.59c-.66-3.89-1.53-7.74-2.13-11.65-.43-2.87-.31-5.84-.9-8.67a40.43,40.43,0,0,1-.44-6.75c0-1.07-.23-2.14-.22-3.22,0-1.66.07-3.33.22-5a46.51,46.51,0,0,0-.88-14.51c-1.22-5.29-2.38-10.6-3.86-15.82a109.33,109.33,0,0,1-3.07-15.59c-.55-4.28-1-8.56-1.52-12.84a78.8,78.8,0,0,0-4.68-19.51A54.57,54.57,0,0,1,513.77,318a152.37,152.37,0,0,0-1.92-19.64c-.84-5.76-1.37-11.56-2.1-17.33-.44-3.45-1.06-6.87-1.51-10.31-.73-5.45-1.25-10.94-2.11-16.37-1.15-7.28-1.09-14.72-2.88-21.92-2.12-8.52-4.17-17.06-6.31-25.57-.55-2.2-1.3-4.35-2-6.52a7.48,7.48,0,0,0-.61-1.17c-.54,1.13-1,2-1.42,3-.54,1.28-1,2.61-1.52,3.9a6.22,6.22,0,0,1-.66,1.06,10.72,10.72,0,0,1,.35-1.61c1.1-3.06,2.23-6.11,3.37-9.21a7.1,7.1,0,0,1,2.47,3.94c1.05,4,2.17,7.94,3.21,11.92.57,2.16,1,4.35,1.53,6.53.82,3.65,1.83,7.28,2.4,11,1.46,9.48,2.7,19,4.07,28.49,1,6.64,2.07,13.27,3,19.91.55,3.88.87,7.79,1.38,11.68.81,6.22,1.79,12.42,2.52,18.65.46,4,.71,8,.85,12a50.48,50.48,0,0,0,2.1,12.12c1.52,5.38,2.59,10.88,4,16.31,2.33,9.29,3,18.87,4.82,28.24.23,1.18.48,2.35.76,3.51,1.09,4.63,2.21,9.25,3.3,13.88.78,3.34,1.72,6.66,2.24,10.05a34.64,34.64,0,0,1,0,11.93,14.5,14.5,0,0,0-.05,3.23c.06,1.63.17,3.26.28,4.9.18,2.54.4,5.08.58,7.63a14.09,14.09,0,0,1,.09,2.75c-.69,5.33.18,10.51,1.48,15.65a18.72,18.72,0,0,1,.74,4.72,9,9,0,0,1-1.14,3.38c-.86,1.91-.86,1.85.62,3.36a4.87,4.87,0,0,1,1.25,2.1,6.92,6.92,0,0,1-.45,5.46,5.72,5.72,0,0,1-2,1.71c-.58.34-.75.44-.53,1.22a22.08,22.08,0,0,1,.42,3.75,136,136,0,0,0,2.89,19.15c.56,2.23-.4,4.09-1.29,5.94-2.3,4.78-4.69,9.52-7,14.28a11.76,11.76,0,0,1-3.24,3.75c-2.44,2.06-4.7,4.33-6.93,6.61-1.44,1.48-2.69,3.15-4,4.74a1.41,1.41,0,0,1-2.55-.3,5.44,5.44,0,0,1-.21-4.19c.38-1.28.83-2.54,1.34-4.1-.51.27-.8.4-1.07.58-1.39.93-2.74,1.93-4.17,2.8-1.89,1.15-3.42.29-3.49-1.94-.1-2.89,1.53-4.86,3.66-6.51.66-.51,1.37-.95,2.23-1.55-1.1-.34-2-.62-3-.93s-1.59-.54-2.36-.87c-2-.86-2.2-2.41-.46-3.74a2.43,2.43,0,0,0,.92-1.47,3.12,3.12,0,0,1,1.62-1.53,7.72,7.72,0,0,1,2.16-.37c.58-2.49,1.18-5,1.79-7.57,1.13-4.77,2.4-9.51,3.35-14.3a15.86,15.86,0,0,0-.28-5.07,36,36,0,0,0-1-4.28,1.08,1.08,0,0,0-.59-.6,5.06,5.06,0,0,1-3.37-4.8c-.08-1.34.31-2.69.32-4a4.38,4.38,0,0,0-.46-2.59c-1.26-1.62-1.34-3.4-1.42-5.3-.17-4.19-.36-8.39-.8-12.55-.52-5.05-1.22-10.09-2-15.09a55.15,55.15,0,0,0-2-8c-2.34-7.31-5-14.5-7.16-21.87-1.53-5.33-2.3-10.87-3.5-16.29-.78-3.51-1.55-7-2.61-10.47a139.93,139.93,0,0,1-4.72-21.89c-.71-4.93-2.09-9.76-3.15-14.65-1.34-6.17-2.64-12.34-4-18.51-.19-.87-.48-1.71-.73-2.56l-.39.06V318H477C474.87,308.85,475.63,299.64,476,290.43Zm54.94,178.5v1.59c2.51.28,3.08.08,3.46-1.11.77.78,1.34.72,1.42-.3a31.29,31.29,0,0,0,0-5.56c-.11-1.12-2-2.29-3-2.19-.51.06-1,.11-1.54.18l-18.11,2.68c-.77.29-2.07.41-2.22.89a13.78,13.78,0,0,0-.66,4.68c.09,2.07,2,3.65,3.33,3.4l-.94-2.54.38.51c1.24,2,2,2.22,3.94,1.22a.45.45,0,0,1,.18-.07h3.55l-.61-2.17.07-.4.47.39.61,1.87c2.2,0,2.41-.1,3.09-1.78.08.47.14.87.2,1.28,1.52-.22,3-.4,4.43-.63s1.54-.46,1.22-1.92c0-.61-.07-1.23-.1-1.84l.11-.11Zm2.14,2.84c-5.31.77-10.37,1.53-15.43,2.23-1.14.16-1.56.6-1.51,1.83.12,3,.43,6-.29,8.92q-3,12.35-5.87,24.7a7.35,7.35,0,0,0,.17,2.79c.14.77.79.87,1.24.33,1.22-1.45,2.37-3,2-5.05-.16-.9-.53-1.72-1.76-1.38a2,2,0,0,1-.63,0l-.09-.35c.51-.19,1.19-.68,1.51-.51a15,15,0,0,1,2.32,1.86,5.14,5.14,0,0,0,.31-.46c2-3.24,4.07-6.49,6.13-9.73a16.38,16.38,0,0,0,2.22-4.3c1.47-5.09,3.21-10.11,4.86-15.14,0-.16.21-.27.32-.41l.36.11a40.24,40.24,0,0,1-.84,4.1c-1.09,3.58-2.31,7.13-3.44,10.7a2.77,2.77,0,0,0-.11,1.37c.35,1.87.86,3.72,1.16,5.6.33,2.11.51,4.18-.53,6.27s-1.73,4.54-2.68,6.78a11.32,11.32,0,0,1-1.62,2.6c-1.92,2.43-4,4.74-5.82,7.25a12.24,12.24,0,0,0-1.66,4,8.09,8.09,0,0,0,.06,3c0,.28.61.48.94.72a3.24,3.24,0,0,0,.31-1,4.16,4.16,0,0,1,2.5-3.84l-1.2,1.93a1,1,0,0,0,.74-.3c3.18-2.85,6.37-5.69,9.53-8.56a5.6,5.6,0,0,0,1.25-1.58q3.9-7.83,7.73-15.7c.87-1.79,1.47-3.61.46-5.6a4.61,4.61,0,0,1-.35-1.63c-.64-6.18-1.26-12.36-1.9-18.55C533.34,473.83,533.19,472.89,533,471.77Zm-9.63,25.5-.3,0c-.16,1.3-.26,2.6-.5,3.89a47.55,47.55,0,0,1-3.47,10.5,4.87,4.87,0,0,1-3.19,2.84,26.34,26.34,0,0,0-3.89,1.52,14.67,14.67,0,0,0-5.44,4,3.55,3.55,0,0,0-.63,4c.42.9.88,1,1.64.58q3.84-2.32,7.65-4.69a2.74,2.74,0,0,0,.48-.53c1.59-1.73,3.19-3.44,4.75-5.19a6,6,0,0,0,1.09-1.66c1.13-2.93,2.2-5.89,3.26-8.84a2,2,0,0,0,.18-1.14C524.54,500.74,524,499,523.41,497.27Zm-1.45-.38c-.09.32-.15.65-.26,1a38.62,38.62,0,0,1-1.48,4.11c-.9,1.86-2,3.61-3,5.44a3.29,3.29,0,0,1-1.93,2,2.1,2.1,0,0,0-.95,1c-.71,1.11-1.27,2.31-2,3.36-.59.81-1.36.76-2.17.09-1.19-1-1.31-2.3-1.36-3.73-1.3-.06-2.57-.18-3.68.66s-1,1.58.19,2.09,2.62.93,3.91,1.47a5,5,0,0,0,4.75-.18,4.92,4.92,0,0,1,1.91-.61,2.88,2.88,0,0,0,2.48-2q1.35-3.13,2.6-6.31A18.14,18.14,0,0,0,522,496.89Zm-11.27-33.83.09.56c.8-.14,1.59-.31,2.4-.42,6.54-.88,13.09-1.75,19.64-2.66.31-.05.59-.39.89-.59l-.18-.34C525.89,460.55,518.27,461.68,510.69,463.06ZM520,500.72l-.43-.23-4.17,7.72.41.22Q517.86,504.58,520,500.72Zm-10.89,8,.29-.3c-.28-.25-.54-.69-.83-.71a1.82,1.82,0,0,0-2.09,1.28Zm6-34.11c-1,.44-1,.44-.21,2.56C514.89,476.4,515,475.61,515,474.63Z" />
        <path class="outline"
            d="M490.76,207.08c-.35,1.55-.63,3.12-1.06,4.64-1.31,4.57-2.88,9.07-4,13.69-1.51,6.44-2.62,13-4,19.45-.75,3.63-1.86,7.2-2.44,10.85-.74,4.64-1.19,9.33-1.59,14s-.55,9.33-.83,14c-.08,1.27-.25,2.54-.4,3.8,0,.17-.21.32-.31.48.13-7.23.12-14.46.48-21.68.16-3.2,1.09-6.36,1.65-9.54,2.55-14.54,6.14-28.84,9.82-43.12a63.2,63.2,0,0,1,2.21-6.18C490.41,207.31,490.62,207.21,490.76,207.08Z" />
        <path class="color-shadow" d="M35.59,241.83l-.78,1.77Z" />
        <path class="color-shadow" d="M37.06,237.28l-.21.61Z" />
        <polygon class="outline" points="303.43 271.02 303.48 270.92 303.41 270.91 303.43 271.02" />
        <path class="color-base"
            d="M532.9,453s-.07-.05-.11-.05a.46.46,0,0,0-.17,0c.12,1.46.31,2.92.36,4.39.06,1.76,0,1.76-1.83,1.7l-.12-1.45c-.23.64-.37,1.05-.52,1.47-.81.1-1.6.2-2.38.32s-1.57.28-2.4.43c-.12-.41-.22-.79-.33-1.17h-.23c-.07.4-.14.79-.22,1.27-1.23.21-2.48.46-3.73.6-.27,0-.64-.3-.86-.56s-.21-.53-.52-.75c.06.48.12,1,.2,1.52-2.14.35-4.22.7-6.3,1-.74.11-2-.92-2.26-2a18.19,18.19,0,0,1-.34-2.11c0-1.36.06-2.72,0-4.08-.17-2.29-.43-4.58-.66-6.87-.39-3.87-.64-7.76-1.19-11.61-.76-5.3-1.59-10.6-2.7-15.84-.89-4.19-2.25-8.28-3.4-12.42-1.4-5.06-3-10.08-4.15-15.2-1.78-7.7-3.3-15.46-4.88-23.21-1.21-5.95-2.33-11.92-3.51-17.88-1-4.91-1.91-9.83-3-14.72-.62-2.87-1.38-5.73-2.22-8.54-1.1-3.66-2.34-7.27-3.55-10.9a10.45,10.45,0,0,0-.81-1.73,20,20,0,0,1-2.18-7.55,193.6,193.6,0,0,1-.77-25.7c.07-4.48.66-8.95,1.12-13.41.42-4,.76-8.09,1.54-12a129.49,129.49,0,0,1,3.37-13.16c2-6.44,4.24-12.79,6.36-19.18,1-3.1,2-6.22,3-9.33a1.94,1.94,0,0,1,.75-1c.27,1.82.59,3.64.79,5.48.43,3.75.77,7.5,1.19,11.25.39,3.55.73,7.11,1.26,10.65s1.22,6.88,1.88,10.31c1.35,7,2.75,14,4.1,21.05.95,4.95,1.92,9.9,2.74,14.88.71,4.31,1.26,8.64,1.8,13s1,8.36,1.42,12.54c.13,1.27.15,2.54.26,3.81.23,2.57.44,5.15.75,7.71.33,2.72.65,5.44,1.19,8.12a56.18,56.18,0,0,0,1.95,7.5A239.78,239.78,0,0,1,521.48,370c1.21,6,2.11,12,3.13,18.06.64,3.76,1.27,7.52,1.86,11.28a28.46,28.46,0,0,1,.28,3.57,105.56,105.56,0,0,0,1.86,18.25q1.39,6.75,2.42,13.58c.55,3.65.84,7.34,1.26,11,.25,2.17.53,4.33.78,6.5A2.43,2.43,0,0,1,532.9,453Z" />
        <path class="color-base" d="M533.65,458c-.12-1.07-.25-2.13-.38-3.2A2.77,2.77,0,0,1,533.65,458Z" />
        <path class="color-base" d="M533.19,454.11l-.16-.52Z" />
        <path class="color-base"
            d="M109.89,235.86c-1.19-.24-2.39-.45-3.57-.75-.2-.06-.4-.45-.45-.72-.16-.77-.24-1.56-.36-2.39l1.07-.56-1.16-.27c-.11-.56-.23-1.1-.31-1.65-.28-1.88-.27-1.88,1.24-2.94l-1.65.17c-.22-1.34-.42-2.67-.66-4s.88-1.05,1.45-1.65l-1.48.09c-.92-1.95.77-4.84,3.23-5.44a2.61,2.61,0,0,0,.47-.24c3-.25,6-.43,9-.75a57.37,57.37,0,0,0,7.3-1.1c5.18-1.25,10.29-2.77,15.46-4,3.85-1,7.74-1.8,11.65-2.52,2.73-.49,5.51-.71,8.27-1,4.42-.48,8.85-.92,13.27-1.38,1.77-.18,3.55-.35,5.32-.59,3.7-.5,7.39-1.09,11.09-1.55,2.68-.33,5.39-.47,8.07-.78,5.21-.59,10.4-1.27,15.61-1.86,4-.46,8.06-.83,12.09-1.23,5.69-.56,11.38-1.13,17.08-1.66,3.16-.29,6.34-.53,9.51-.73,5.32-.35,10.64-.64,16-1,1.31-.08,2.63-.16,3.93-.28q5-.44,10-.92c1.93-.19,3.86-.44,5.8-.63,2.1-.21,4.2-.36,6.29-.58.89-.08,1.14.32,1.05,1.12-.19,1.58-.38,3.15-.55,4.73-.31,3-.81,5.92-.85,8.89-.18,12.43-.2,24.86-.3,37.29,0,1.1-.21,2.2-.33,3.34a2.79,2.79,0,0,1-.62,0c-2.1-.51-4.21-1-6.29-1.55-5-1.41-10-3-15.08-4.27-2.39-.61-4.89-.72-7.34-1.11-2-.32-4.07-.84-6.12-1-2.43-.25-4.89-.23-7.34-.39-1.66-.1-3.32-.45-5-.43-4.58.07-9.16.39-13.74.41a58.42,58.42,0,0,1-9.17-.51c-5.42-.82-10.79-1.89-16.16-3-3.81-.78-7.58-1.76-11.37-2.65-1.47-.34-2.93-.75-4.42-1-4.18-.73-8.39-1.29-12.56-2.11a83.45,83.45,0,0,0-17.26-2c-5,.07-10.08,0-15.12,0-1.38,0-2.76-.33-4.15-.37a25.71,25.71,0,0,0-5.89.11c-3.45.74-6.81,1.9-10.22,2.86-4.67,1.31-9.34,2.59-14,3.92C110.31,235.29,110.12,235.64,109.89,235.86Z" />
        <path class="color-shadow"
            d="M109.89,235.86c.23-.22.42-.57.7-.65,4.66-1.33,9.33-2.61,14-3.92,3.41-1,6.77-2.12,10.22-2.86a25.71,25.71,0,0,1,5.89-.11c1.39,0,2.77.35,4.15.37,5,0,10.08.07,15.12,0a83.45,83.45,0,0,1,17.26,2c4.17.82,8.38,1.38,12.56,2.11,1.49.26,3,.67,4.42,1,3.79.89,7.56,1.87,11.37,2.65,5.37,1.09,10.74,2.16,16.16,3a58.42,58.42,0,0,0,9.17.51c4.58,0,9.16-.34,13.74-.41,1.66,0,3.32.33,5,.43,2.45.16,4.91.14,7.34.39,2,.21,4.08.73,6.12,1,2.45.39,5,.5,7.34,1.11,5.06,1.3,10.05,2.86,15.08,4.27,2.08.58,4.19,1,6.29,1.55a2.79,2.79,0,0,0,.62,0c.12-1.14.32-2.24.33-3.34.1-12.43.12-24.86.3-37.29,0-3,.54-5.93.85-8.89.17-1.58.36-3.15.55-4.73.09-.8-.16-1.2-1.05-1.12-2.09.22-4.19.37-6.29.58-1.94.19-3.87.44-5.8.63q-5,.48-10,.92c-1.3.12-2.62.2-3.93.28-5.32.32-10.64.61-16,1-3.17.2-6.35.44-9.51.73-5.7.53-11.39,1.1-17.08,1.66-4,.4-8.07.77-12.09,1.23-5.21.59-10.4,1.27-15.61,1.86-2.68.31-5.39.45-8.07.78-3.7.46-7.39,1.05-11.09,1.55-1.77.24-3.55.41-5.32.59-4.42.46-8.85.9-13.27,1.38-2.76.3-5.54.52-8.27,1-3.91.72-7.8,1.57-11.65,2.52-5.17,1.28-10.28,2.8-15.46,4a57.37,57.37,0,0,1-7.3,1.1c-3,.32-6,.5-9,.75-1.4,0-1.4,0-4.47,2.55a25.26,25.26,0,0,1-.46-3.31,3,3,0,0,1,2-3.1c2-.6,4.12-.81,6.16-1.31,2.89-.7,5.81-1.37,8.63-2.33,5.47-1.86,11.22-2.42,16.79-3.83,2.47-.63,4.91-1.44,7.42-1.9,2.89-.53,5.83-.8,8.76-1.1,5.28-.56,10.55-1.07,15.83-1.58,5-.48,10-1,15-1.39,1.65-.13,3.32,0,5-.08,2.92-.14,5.82-.34,8.73-.51l10.17-.6c5.28-.32,10.58-.25,15.86-1.11,3.12-.51,6.39-.07,9.56-.38,5.47-.55,10.92-1.38,16.38-2,1.9-.23,3.83-.21,5.73-.46,3.55-.48,7.09-1.12,10.64-1.6,4.38-.6,8.73-1.35,13.18-1.52s8.95-.86,13.44-1.26c1.29-.11,2.6,0,3.83,0,0,2,0,3.86,0,5.76.13,7.11.32,14.22.39,21.33,0,3.91-.25,7.83-.14,11.74.13,4.47.65,8.92.81,13.38.17,5.19,1.75,10.13,2.43,15.23.37,2.78,1,5.53,1.58,8.7a19.65,19.65,0,0,1-2.78-1.54c-7.6-6-16.49-9.33-25.6-11.9-6.18-1.74-12.35-3.47-18.47-5.45a65.51,65.51,0,0,0-15-3c-4.21-.33-8.38-1.2-12.58-1.61s-8.2-.49-12.3-.76c-2.91-.18-5.81-.51-8.72-.63-2.59-.1-5.21.17-7.79-.06-3.89-.34-7.75-1-11.62-1.48-8.75-1.12-17.43-2.74-26.27-3.11-2.94-.12-5.86-.67-8.8-1-.83-.08-1.68.1-2.5,0-4.09-.37-8.16-.82-12.25-1.19-3.84-.35-7.62-.66-11.5.41a144.46,144.46,0,0,0-15.22,5.08c-2.08.83-3.32,0-3.6-2.45.9.1,1.78.27,2.66.28A3.49,3.49,0,0,0,109.89,235.86Z" />
        <path class="transparent"
            d="M57,251.35c1.22-2.82,5.28-4.57,7.82-3.56-1.46-2.22-4.13-1.31-8,.43a3.92,3.92,0,0,1,.74-.87c3.88-2.72,7.8-5.39,11.67-8.12a15,15,0,0,0,2.61-2.29c2.06-2.3,4-4.68,5.87-7.2a82.17,82.17,0,0,0-7,6.71A17.82,17.82,0,0,1,69,233c-.18-.74.52-1.45,1.47-1.56s2.09-.25,3.13-.38l0-.32a3.06,3.06,0,0,0-.85-.49,12.09,12.09,0,0,0-6-.18c-2.84.79-5.78,1.22-8.69,1.74a26.89,26.89,0,0,0-10.48,3.9,9.79,9.79,0,0,0-3.5,4.32,31.45,31.45,0,0,1-5.91,9.11A8.21,8.21,0,0,1,32.34,252l2.33-6,.27,0,.29,1.39h.39c0-1.17.05-2.33.09-3.5a2,2,0,0,1,.06-.7c1.66-4.28,3.29-8.58,5-12.83A3.53,3.53,0,0,1,42.31,229c4.17-2.48,8.87-3.58,13.41-5.11a52.42,52.42,0,0,1,11.14-2.18,5.5,5.5,0,0,0,2.25-.69H58.77c2-1,3.41-2.31,5.37-2.47,3.42-.28,6.84-.46,10.26-.67L88.86,217l1.42-.08c.44,3.53.91,7,1.3,10.45.36,3.22.59,6.45,1,9.66a16.75,16.75,0,0,0,.68,2.66,1.38,1.38,0,0,1-1,1.95c-1.33.41-2.64.91-4,1.23-3.1.75-6.26,1.32-9.34,2.16a36.38,36.38,0,0,0-4.8,2c-2.82,1.24-5.68,2.39-8.43,3.76a12.71,12.71,0,0,1-7.1,1A8.47,8.47,0,0,1,57,251.35Z" />
        <path class="color-base"
            d="M94.74,217.39a.35.35,0,0,0,0-.2,15.52,15.52,0,0,1,2.89,0,18.07,18.07,0,0,1,2.84,1q1.38,9.34,2.77,18.69c-1.18,1.55-2.59,2.64-4.85,2.25-.09-1-.17-2.08-.29-3.13-.38-3.39-.71-6.78-1.19-10.15a49.38,49.38,0,0,0-1.21-5.19C95.41,219.54,95.06,218.47,94.74,217.39Z" />
        <path class="color-shadow"
            d="M94.74,217.39c.32,1.08.67,2.15.94,3.24a49.38,49.38,0,0,1,1.21,5.19c.48,3.37.81,6.76,1.19,10.15.12,1.05.2,2.11.29,3.13,2.26.39,3.67-.7,4.85-2.25.65,2.66-.11,4-2.69,4.65l-2.76.74c-1.69.46-2.67-.26-2.75-1.91l2.3-1.41.24-.31-.46.11-.68.2c-1.44.4-1.74.16-1.91-1.29s-.45-2.91-.66-4.36a7.83,7.83,0,0,1,0-1.18l3.1-.91-.09-.25-3,.21-.52-8.72c-.87-.56-1.26-1.83-1.59-3.12-.17-.69.84-1.69,1.81-1.85A9.49,9.49,0,0,1,94.74,217.39Z" />
        <path class="transparent"
            d="M49.54,244.65a6.4,6.4,0,0,1,.54-1.18c1.88-2.44,3.76-4.87,5.69-7.27a8.85,8.85,0,0,1,1.7-1.46c3-2.2,6.59-2.48,10.07-3.14a1.32,1.32,0,0,1,.44.05c.09,1.55-.07,1.76-1.71,2.19s-3.38.75-4.63,2.08a14.77,14.77,0,0,0-1.27,1.57c-2.59,3.67-6.23,5.83-10.37,7.29C49.94,244.81,49.86,244.75,49.54,244.65Z" />
        <path class="transparent"
            d="M40.6,248.19c.74-1.15,1.49-2.14,2.06-3.22.89-1.65,1.63-3.38,2.5-5a9.28,9.28,0,0,1,1.5-2.28,16.74,16.74,0,0,1,10.17-4.27c-.81.61-1.43,1.09-2.07,1.53-1.48,1-2.94,2.07-4.47,3a7.34,7.34,0,0,0-3.09,3.49,48.32,48.32,0,0,1-2.49,4.79A3.69,3.69,0,0,1,40.6,248.19Z" />
        <path class="color-shadow"
            d="M100.45,218.16a18.07,18.07,0,0,0-2.84-1,15.52,15.52,0,0,0-2.89,0c-1.15-.42-1.28-.39-3.36.84a21.27,21.27,0,0,1,0-2.8,1.25,1.25,0,0,1,.9-.76,43.35,43.35,0,0,1,5.68-.38,2.52,2.52,0,0,1,2.33,2.55C100.34,217.15,100.4,217.66,100.45,218.16Z" />
        <path class="color-shadow"
            d="M105.35,237.59l-1.38.48c-.17-2.26-.23-4.4-.51-6.51-.54-4.14-1.22-8.26-1.81-12.4a26.64,26.64,0,0,1-.27-3c0-.24.26-.5.67-.64Z" />
        <path class="transparent" d="M58.92,221.06l.08.08a.48.48,0,0,1-.16.08s-.05-.05-.08-.08Z" />
        <path class="transparent"
            d="M533,471.77c.15,1.12.3,2.06.39,3,.64,6.19,1.26,12.37,1.9,18.55a4.61,4.61,0,0,0,.35,1.63c1,2,.41,3.81-.46,5.6q-3.83,7.88-7.73,15.7a5.6,5.6,0,0,1-1.25,1.58c-3.16,2.87-6.35,5.71-9.53,8.56a1,1,0,0,1-.74.3l1.2-1.93a4.16,4.16,0,0,0-2.5,3.84,3.24,3.24,0,0,1-.31,1c-.33-.24-.9-.44-.94-.72a8.09,8.09,0,0,1-.06-3,12.24,12.24,0,0,1,1.66-4c1.81-2.51,3.9-4.82,5.82-7.25a11.32,11.32,0,0,0,1.62-2.6c.95-2.24,1.6-4.62,2.68-6.78s.86-4.16.53-6.27c-.3-1.88-.81-3.73-1.16-5.6a2.77,2.77,0,0,1,.11-1.37c1.13-3.57,2.35-7.12,3.44-10.7a40.24,40.24,0,0,0,.84-4.1l-.36-.11c-.11.14-.27.25-.32.41-1.65,5-3.39,10-4.86,15.14a16.38,16.38,0,0,1-2.22,4.3c-2.06,3.24-4.09,6.49-6.13,9.73a5.14,5.14,0,0,1-.31.46,15,15,0,0,0-2.32-1.86c-.32-.17-1,.32-1.51.51l.09.35a2,2,0,0,0,.63,0c1.23-.34,1.6.48,1.76,1.38.37,2.07-.78,3.6-2,5.05-.45.54-1.1.44-1.24-.33a7.35,7.35,0,0,1-.17-2.79q2.87-12.36,5.87-24.7c.72-3,.41-5.95.29-8.92-.05-1.23.37-1.67,1.51-1.83C522.67,473.3,527.73,472.54,533,471.77Z" />
        <path class="color-base"
            d="M530,467.11c0,.61.06,1.23.1,1.84l-9.55,1.18-.47-.39-.07.4-7.06,1-.38-.51a3.69,3.69,0,0,1-.59-3.4c.31-1,.72-2,1.08-3l18.11-2.68c.51-.07,1-.12,1.54-.18a12.8,12.8,0,0,1,1.58,2.73,20.68,20.68,0,0,1,.36,3.63c.09.89-.37,1.23-1.18,1.23l-2.61,0-.75-1.93-.19-.13Z" />
        <path class="transparent"
            d="M523.41,497.27c.55,1.74,1.13,3.47,1.63,5.23a2,2,0,0,1-.18,1.14c-1.06,2.95-2.13,5.91-3.26,8.84a6,6,0,0,1-1.09,1.66c-1.56,1.75-3.16,3.46-4.75,5.19a2.74,2.74,0,0,1-.48.53q-3.81,2.35-7.65,4.69c-.76.47-1.22.32-1.64-.58a3.55,3.55,0,0,1,.63-4,14.67,14.67,0,0,1,5.44-4,26.34,26.34,0,0,1,3.89-1.52,4.87,4.87,0,0,0,3.19-2.84,47.55,47.55,0,0,0,3.47-10.5c.24-1.29.34-2.59.5-3.89Z" />
        <path class="transparent"
            d="M522,496.89a18.14,18.14,0,0,1-1,8.31q-1.25,3.18-2.6,6.31a2.88,2.88,0,0,1-2.48,2,4.92,4.92,0,0,0-1.91.61,5,5,0,0,1-4.75.18c-1.29-.54-2.63-.93-3.91-1.47s-1.22-1.3-.19-2.09,2.38-.72,3.68-.66c.05,1.43.17,2.75,1.36,3.73.81.67,1.58.72,2.17-.09.77-1,1.33-2.25,2-3.36a2.1,2.1,0,0,1,.95-1,3.29,3.29,0,0,0,1.93-2c1-1.83,2.09-3.58,3-5.44a38.62,38.62,0,0,0,1.48-4.11C521.81,497.54,521.87,497.21,522,496.89Z" />
        <path class="color-shadow"
            d="M510.69,463.06c7.58-1.38,15.2-2.51,22.84-3.45l.18.34c-.3.2-.58.54-.89.59-6.55.91-13.1,1.78-19.64,2.66-.81.11-1.6.28-2.4.42Z" />
        <path class="color-shadow"
            d="M530.9,468.93l2.61,0c.81,0,1.27-.34,1.18-1.23a20.68,20.68,0,0,0-.36-3.63,12.8,12.8,0,0,0-1.58-2.73c1-.1,2.9,1.07,3,2.19a31.29,31.29,0,0,1,0,5.56c-.08,1-.65,1.08-1.42.3-.38,1.19-1,1.39-3.46,1.11Z" />
        <path class="color-shadow"
            d="M520.59,470.13l9.55-1.18c.32,1.46.19,1.69-1.22,1.92s-2.91.41-4.43.63c-.06-.41-.12-.81-.2-1.28-.68,1.68-.89,1.8-3.09,1.78Z" />
        <path class="color-shadow"
            d="M513.1,464.22c-.36,1-.77,2-1.08,3a3.69,3.69,0,0,0,.59,3.4l.94,2.54c-1.35.25-3.24-1.33-3.33-3.4a13.78,13.78,0,0,1,.66-4.68C511,464.63,512.33,464.51,513.1,464.22Z" />
        <path class="color-shadow"
            d="M513,471.16l7.06-1,.61,2.17h-3.55a.45.45,0,0,0-.18.07C515,473.38,514.23,473.15,513,471.16Z" />
        <path class="transparent" d="M520,500.72q-2.1,3.86-4.19,7.71l-.41-.22,4.17-7.72Z" />
        <path class="transparent" d="M509.07,508.74l-2.63.27a1.82,1.82,0,0,1,2.09-1.28c.29,0,.55.46.83.71Z" />
        <path class="transparent" d="M515,474.63c-.08,1-.14,1.77-.21,2.56C514.07,475.07,514.07,475.07,515,474.63Z" />
        <path class="outline" d="M97.1,238.72l.46-.11-.24.31Z" />
        <path class="outline" d="M530,467.11l-.08-.24.19.13Z" />
    </g>
</svg>
