<svg id="Manzhet" xmlns="http://www.w3.org/2000/svg" viewBox="0 0 672 960">
    <g id="img_45_img" data-name="img 45 img">
        <path class="color-shadow"
            d="M476.07,289.22l.09-1a4,4,0,0,0,.4-1.05c.4-5.37.75-10.75,1.17-16.13.33-4.29.61-8.6,1.16-12.86.34-2.64,1.21-5.2,1.74-7.82,1.37-6.72,2.42-13.52,4.08-20.18,2.1-8.43,4.63-16.77,7.08-25.11a57.76,57.76,0,0,1,2.49-6,10.69,10.69,0,0,1,.66,1.25c.69,2.17,1.44,4.32,2,6.52,2.15,8.56,4.2,17.13,6.33,25.69,1.78,7.17,1.72,14.57,2.87,21.82.86,5.43,1.39,10.92,2.1,16.37.56,4.4,1.19,8.78,1.76,13.17.63,4.83,1.12,9.67,1.86,14.48A147.39,147.39,0,0,1,513.77,318a54.13,54.13,0,0,0,3.58,18.84A79.3,79.3,0,0,1,522,356.34c.5,4.28,1,8.55,1.51,12.84a145.68,145.68,0,0,0,3.67,18.28c1.29,5.31,2.75,10.6,3.75,16a33.73,33.73,0,0,1,.19,12.63,12.07,12.07,0,0,0-.17,2.62c.09,2.67.23,5.34.36,8a13.22,13.22,0,0,0,.11,1.66c.41,2.71.88,5.42,1.27,8.13s.62,5.3,1,7.94c.48,3.15,1.21,6.26,1.6,9.42s.48,6.52.75,9.78c.14,1.79.36,3.57.55,5.36.07.55,0,.85-.71.94q-5.56.75-11.13,1.6c-3.63.56-7.24,1.26-10.88,1.73-2.14.28-2.49-.19-3-2.26-1.4-5.58-1.65-11.29-2.19-17-.35-3.66-.55-7.34-1.11-11-.95-6.19-2.08-12.36-3.24-18.52a45.5,45.5,0,0,0-1.95-7.87,145.8,145.8,0,0,1-7.84-26.5,172.4,172.4,0,0,0-4.09-18.08c-1.24-4.21-2.2-8.51-3.05-12.81-.72-3.72-.95-7.53-1.69-11.24-1.4-7-3-14-4.55-20.93-1.11-4.89-1.87-9.89-4-14.51a7.2,7.2,0,0,1-.36-2.81c0-.95.19-1.9.18-2.85,0-1.75-.11-3.5-.19-5.26-.14-2.95-.28-5.91-.44-8.87C476.31,291.6,476.17,290.41,476.07,289.22Zm58.54,178.83a5.05,5.05,0,0,0,.07-.68c-.16-2.14-.31-4.28-.5-6.42-.15-1.7-.33-3.4-.54-5.09-.43-3.31-.94-6.6-1.34-9.91-.45-3.75-.72-7.52-1.28-11.25q-1-6.81-2.41-13.57a111.12,111.12,0,0,1-1.87-18,66.76,66.76,0,0,0-.82-7.58c-.68-4.27-1.52-8.52-2.26-12.78-.82-4.73-1.47-9.5-2.45-14.2A241.08,241.08,0,0,0,513.45,339a51.66,51.66,0,0,1-1.78-6.92c-.53-2.69-.86-5.41-1.2-8.13-.31-2.48-.52-5-.74-7.46-.12-1.39-.13-2.79-.28-4.17-.44-4.19-.89-8.37-1.41-12.54-.54-4.34-1.09-8.67-1.8-13-.82-5-1.8-9.92-2.75-14.87-1.33-6.94-2.72-13.88-4.06-20.82-.68-3.51-1.38-7-1.91-10.55s-.87-7.09-1.27-10.64c-.41-3.71-.76-7.43-1.18-11.13-.21-1.88-.52-3.74-.78-5.6l-.3-.06c-.17.42-.37.82-.51,1.24-1.08,3.3-2.13,6.61-3.22,9.9-2,6.13-4.19,12.22-6.09,18.39a132.08,132.08,0,0,0-3.39,13.15c-.79,4-1,8-1.58,12a120.45,120.45,0,0,0-1.15,16.54c0,4.32,0,8.64,0,12.95q0,.54,0,1.08c.31,3.72.61,7.45.94,11.17a4.29,4.29,0,0,0,.35,1.6,79,79,0,0,1,5.6,14.46c2.72,9.17,4.39,18.56,6.27,27.91,1.76,8.76,3.43,17.54,5.18,26.3.78,3.93,1.55,7.88,2.55,11.76,1.36,5.32,3,10.58,4.42,15.87,1.16,4.21,2.52,8.39,3.39,12.66,1.13,5.51,1.92,11.1,2.74,16.67.44,2.95.66,5.92.92,8.88.15,1.71.12,3.43.29,5.13.34,3.32.75,6.62,1.16,9.93.38,3.15.81,6.3,1.18,9.45.09.77.5.92,1.14.83l3.3-.47Z" />
        <path class="outline"
            d="M92.77,242.43c-1.74.48-3.4,1-5.09,1.4-2.37.55-4.82.85-7.14,1.57a79.39,79.39,0,0,0-7.65,3c-2.38,1-4.7,2.21-7.06,3.3A16.18,16.18,0,0,1,57.64,253a2.63,2.63,0,0,1-2.3-2.14,3,3,0,0,1,.87-3.49c2-1.55,4.11-3,6.22-4.49,1.7-1.18,3.48-2.27,5.2-3.43a6.4,6.4,0,0,0,1.46-1.22c.39-.47,1-1.24.82-1.59-.62-1.41-1.29-1.59-2.64-1.23-1.15.3-2.35.46-3.5.78a2.31,2.31,0,0,0-1.37.78c-1.47,2.5-3.82,4-6.13,5.52a41.3,41.3,0,0,1-5.7,2.91,1.9,1.9,0,0,1-1.72-.21A1.59,1.59,0,0,1,49,243l4.54-5.52-.21-.33a22.64,22.64,0,0,0-2.94,1.64,6.82,6.82,0,0,0-1.75,2.13c-1,1.86-1.8,3.83-2.79,5.71-1.47,2.79-2.71,3.36-5.87,3-.32,0-.75.33-1,.61a9,9,0,0,1-5.75,3.16,2.18,2.18,0,0,1-1.75-.55,2.27,2.27,0,0,1,0-1.84c1.5-3.6,3.18-7.13,4.62-10.75,1.28-3.2,2.34-6.5,3.47-9.76A3.9,3.9,0,0,1,42,228.15c4.73-2,9.4-4.19,14.06-6.38A6.58,6.58,0,0,0,58.45,220c1.69-2.22,4-2.65,6.57-2.75,6.32-.22,12.64-.51,19-.77,1-.05,2.07-.11,3.11-.11a2.79,2.79,0,0,0,2.66-1.84A2.33,2.33,0,0,1,91,213.37c5.48-1.46,11-2.84,16.48-4.26a86.72,86.72,0,0,1,13.23-2.8,15.32,15.32,0,0,0,2-.38c7.64-1.89,15.27-3.81,22.91-5.67a22.91,22.91,0,0,1,4-.59c8.86-.56,17.78-.59,26.55-1.75,7-.92,13.93-.65,20.86-1.61,5.64-.77,11.41-.6,17.12-.87,1.23-.06,2.46-.23,3.7-.33,4.9-.4,9.8-.69,14.69-1.21s9.82-1.34,14.74-1.93c3.09-.37,6.21-.51,9.31-.84q13.57-1.47,27.16-3c2.93-.34,5.84-.9,8.78-1.28,1.46-.18,3-.18,4.53-.27a21.42,21.42,0,0,1,0,2.41c-.93,8-.3,16-.12,24,.09,4.23.18,8.48,0,12.7-.24,4.92.64,9.72,1,14.58.81,10.06,3.43,19.8,5.29,29.67a.75.75,0,0,1-.1.55c-.75-1.11-1.46-2.26-2.29-3.3a7.43,7.43,0,0,0-1.67-1.43c-.71-.5-1.53-.87-2.23-1.39a62.93,62.93,0,0,0-13.75-7.24c-6.28-2.61-12.83-4.18-19.38-5.84-3.63-.92-7.11-2.42-10.69-3.56-5.89-1.89-12.06-2.36-18.13-3.39-8.29-1.41-16.68-1.86-25-2.91-5.06-.64-10.14-.34-15.18-.84-2.38-.24-4.75-.67-7.12-1-9.13-1.37-18.25-2.81-27.49-3.31-1.51-.08-3-.34-4.53-.43-2.43-.14-4.87-.18-7.3-.32-4.06-.24-8.12-.67-12.19-.74a83.83,83.83,0,0,0-12.18.4c-2.76.37-5.4,1.68-8.06,2.66-5,1.83-9.84,3.79-14.81,5.55a47.44,47.44,0,0,1-6.17,1.5c-1.64.35-2.21-.21-2.09-1.86A3.27,3.27,0,0,0,92.77,242.43Zm203.17-53.94c-1.37.07-2.76.07-4.14.22-2.18.22-4.35.64-6.53.8-3.7.26-7.41.39-11.11.58a2,2,0,0,0-.35,0c-5.36.85-10.7,1.77-16.07,2.53-2.88.41-5.81.49-8.7.84-5.06.61-10.1,1.48-15.18,2-5.64.53-11.32.27-17,1.18-2.54.41-5.19,0-7.78.2-5.54.31-11.07.78-16.61,1.09-3.06.18-6.13.07-9.18.28-4.37.31-8.74.77-13.1,1.19q-9.36.89-18.7,1.81A58.43,58.43,0,0,0,145,202c-4.45,1-8.84,2.17-13.26,3.23-3.14.74-6.31,1.34-9.44,2.12-1.86.46-3.63,1.24-5.49,1.7-6.92,1.75-13.87,3.43-20.81,5.12-4,1-4.69,1.83-3.62,5.63a52.89,52.89,0,0,1,1.41,10.75c.25,3.37.79,6.72,1.3,10.07.22,1.38.83,1.71,2.21,1.52a19.3,19.3,0,0,0,2.12-.4,83.21,83.21,0,0,0,13.43-4.45,55.11,55.11,0,0,1,7.35-2.57c4.57-1.32,9.17-2.61,14-1.94,2.09.29,4.16.77,6.26.93,3.22.25,6.45.23,9.67.47s6.44.87,9.68,1c9,.39,17.86,1.86,26.73,3.24a79.48,79.48,0,0,0,14.75,1.39c1.4,0,2.8-.07,4.19,0,3,.18,6.05.46,9.08.66,4.06.26,8.13.37,12.18.77s8.21,1.25,12.34,1.58a68.84,68.84,0,0,1,15.8,3.28c5.5,1.79,11,3.62,16.63,4.91,3.79.87,7.39,2.54,11.08,3.82A54.45,54.45,0,0,1,298,263.07a25.79,25.79,0,0,0,2.89,1.67,7.4,7.4,0,0,0,0-1c-.49-2.58-1.05-5.15-1.48-7.74-.84-5.11-1.66-10.22-2.4-15.35a87.12,87.12,0,0,1-.82-15.06c.1-3.35.19-6.71.14-10.06-.06-3.75-.33-7.5-.4-11.26-.07-3.35,0-6.71,0-10.07ZM32.31,252a8.25,8.25,0,0,0,5.9-2.85,31.39,31.39,0,0,0,5.9-9.12,9.86,9.86,0,0,1,3.51-4.32,27,27,0,0,1,10.48-3.89,84.9,84.9,0,0,0,8.57-1.71,12.21,12.21,0,0,1,6,.11,3.76,3.76,0,0,1,1,.52l-.06.33-3.13.39c-1,.1-1.64.83-1.46,1.56a17.54,17.54,0,0,0,1.62,3.41,73.3,73.3,0,0,1,7.08-6.65c-1.86,2.5-3.84,4.88-5.9,7.18a15.41,15.41,0,0,1-2.61,2.29c-3.87,2.73-7.79,5.4-11.67,8.12a3.92,3.92,0,0,0-.73.87c4.82-2.14,6.94-2.29,8-.58a6.35,6.35,0,0,0-2.09-.25A8.71,8.71,0,0,0,57.77,250a5.13,5.13,0,0,0-.6,1.22,5.22,5.22,0,0,0,1.28.54,11.85,11.85,0,0,0,7.1-1c2.32-1.17,4.72-2.17,7.1-3.21,2.15-.93,4.28-1.89,6.48-2.68,1.27-.45,2.66-.54,4-.87,2.94-.74,5.87-1.53,8.8-2.31,1.08-.28,1.34-1,1.08-2a22.25,22.25,0,0,1-.68-2.79c-.33-2.65-.59-5.31-.84-8-.18-2-.25-4-.46-6s-.5-4-.75-5.92c-1.13,0-2,0-3,0l-12.67.78c-3.5.22-7,.39-10.5.67-2,.15-3.41,1.47-5.37,2.48H69.11a5.64,5.64,0,0,1-2.25.68,52.42,52.42,0,0,0-11.14,2.18c-4.54,1.53-9.24,2.63-13.41,5.1a3.85,3.85,0,0,0-1.47,1.32c-1.1,2.24-2.16,4.5-3.07,6.82-.77,2-1.32,4-2,6a3.15,3.15,0,0,0-.1.81c0,1.16-.06,2.32-.09,3.48h-.39L34.94,246l-.26,0ZM68,231.69a1.5,1.5,0,0,0-.52-.09c-3.47.68-7.08,1-10.07,3.16a8.63,8.63,0,0,0-1.62,1.38q-2.93,3.65-5.75,7.36a4.82,4.82,0,0,0-.49,1.16l.33.23a22.11,22.11,0,0,0,10.24-7,22.66,22.66,0,0,1,1.45-1.9c1.23-1.33,2.94-1.68,4.61-2.11C67.22,233.59,68.26,233.3,68,231.69ZM40.64,248.24a3.8,3.8,0,0,0,4.08-2.08,46.93,46.93,0,0,0,2.48-4.77,7.37,7.37,0,0,1,3.09-3.48c1.53-.93,3-2,4.46-3,.65-.44,1.26-.92,2.15-1.57a17.35,17.35,0,0,0-9.22,3.41,7.55,7.55,0,0,0-2.74,3.67,17.65,17.65,0,0,1-1.37,2.92C42.66,245,41.67,246.53,40.64,248.24ZM59,221.18l-.09-.16s-.08.06-.07.08a.77.77,0,0,0,.07.16Z" />
        <path class="outline"
            d="M476.07,289.22c.1,1.19.24,2.38.3,3.58.16,3,.3,5.92.44,8.87.08,1.76.18,3.51.19,5.26,0,.95-.2,1.9-.18,2.85a7.2,7.2,0,0,0,.36,2.81c2.16,4.62,2.92,9.62,4,14.51,1.59,7,3.15,13.93,4.55,20.93.74,3.71,1,7.52,1.69,11.24.85,4.3,1.81,8.6,3.05,12.81a172.4,172.4,0,0,1,4.09,18.08,145.8,145.8,0,0,0,7.84,26.5,45.5,45.5,0,0,1,1.95,7.87c1.16,6.16,2.29,12.33,3.24,18.52.56,3.62.76,7.3,1.11,11,.54,5.68.79,11.39,2.19,17,.51,2.07.86,2.54,3,2.26,3.64-.47,7.25-1.17,10.88-1.73s7.42-1.1,11.13-1.6c.69-.09.78-.39.71-.94-.19-1.79-.41-3.57-.55-5.36-.27-3.26-.36-6.54-.75-9.78s-1.12-6.27-1.6-9.42c-.41-2.64-.66-5.3-1-7.94s-.86-5.42-1.27-8.13a13.22,13.22,0,0,1-.11-1.66c-.13-2.67-.27-5.34-.36-8a12.07,12.07,0,0,1,.17-2.62,33.73,33.73,0,0,0-.19-12.63c-1-5.36-2.46-10.65-3.75-16a145.68,145.68,0,0,1-3.67-18.28c-.47-4.29-1-8.56-1.51-12.84a79.3,79.3,0,0,0-4.67-19.52A54.13,54.13,0,0,1,513.77,318a147.39,147.39,0,0,0-1.92-19.64c-.74-4.81-1.23-9.65-1.86-14.48-.57-4.39-1.2-8.77-1.76-13.17-.71-5.45-1.24-10.94-2.1-16.37-1.15-7.25-1.09-14.65-2.87-21.82-2.13-8.56-4.18-17.13-6.33-25.69-.55-2.2-1.3-4.35-2-6.52a10.69,10.69,0,0,0-.66-1.25,57.76,57.76,0,0,0-2.49,6c-2.45,8.34-5,16.68-7.08,25.11-1.66,6.66-2.71,13.46-4.08,20.18-.53,2.62-1.4,5.18-1.74,7.82-.55,4.26-.83,8.57-1.16,12.86-.42,5.38-.77,10.76-1.17,16.13a4,4,0,0,1-.4,1.05c.15-7.22.17-14.44.5-21.66a65.72,65.72,0,0,1,1.43-8.49c2.59-14.9,6.2-29.58,10-44.21.61-2.32,1.75-4.49,2.58-6.76s1.62-4.78,2.44-7.17c.39-1.13.83-2.24,1.25-3.35l.64.26,1.6,2.55.18.54.13.4.11.56.1.41.18.85.51,1.56c.22.68.45,1.36.67,2l.14.44.33,1.42.11.4.11.56.1.41.37,1.51.13.4,1.08,3.92.1.41.17.79.09.4.15.8.09.4.14.86.13.68.11.7.07.41.17,1.27c.1.3.2.59.31.89l.24.6.24.6.66,2.71.08.4c.06.35.11.69.17,1l.07.41.16,1,.06.41.18,1.27.07.41c.06.42.12.84.17,1.27l.07.41.42,2.53.1.44.62,3.58.09.64c.05.5.1,1,.14,1.52l.1.64c0,.45.11.89.16,1.34l.08.44.15,1,.11.68.12.94.1.88.12,1.28c.05.37.09.74.13,1.12l.14,1,.08.4.13.8.09.41c.06.34.12.68.17,1l.07.41.19,1.51.06.64c.06.59.11,1.17.16,1.76l.08.64,1.14,6.86.08.68.15,1.42.08.64c.05.35.09.69.13,1l.1.65.13,1,.15,1,.1.94.1.64.17,1.28.08.4.38,2,.09.4c.14.91.27,1.81.41,2.72l0,.41c.07.74.13,1.49.19,2.23l.07.41c.06.52.13,1,.2,1.57l.07.44.14,1.18.08.64.15,1.76.09.88.14,1.28.11.64.12.8.13.64c0,.29.08.57.13.86l.12.68c0,.31.08.62.11.94l.09.64.15,1.28.08.65.15,1,.07.42c.22,1.46.45,2.92.67,4.38l.08.65c.05.58.11,1.16.16,1.75l.07.65c.06.42.12.84.17,1.27l.08.4.17,1.28c0,.14,0,.28.05.41.06,1.71.13,3.41.19,5.11l.08.64c0,.51.09,1,.14,1.52l.12,1.7L516,323c0,.37.07.75.1,1.12l.18,1.34.09.44.11.7.07.41.41,2,.11.4c.44,1.38.87,2.77,1.31,4.16l.13.4.37,1.28.12.4.12.56.1.4.11.56c0,.21.08.43.13.64l.11.56.13.64.15.8.09.4.14.8.1.4.12.56.11.41.14.55.12.4.6,2.48.1.4,1.83,8,.07.41.18,1.27.06.41.42,3.19.08.4c.13.75.25,1.49.38,2.24,0,.14.05.28.07.41.14.91.29,1.81.43,2.71l.09.64.15,1.28.09.64c0,.35.09.69.13,1s.07.43.11.64.11.69.16,1l.08.4.14.86c0,.23.08.45.13.68s.07.46.1.7.09.42.13.64l.12.8.09.41c.05.34.11.68.17,1l.07.4.16,1,.08.4.14.8.1.4c.53,1.95,1.06,3.89,1.6,5.84l.08.41a4.51,4.51,0,0,0,0,1c.85,3.72,1.7,7.43,2.6,11.14.29,1.18.75,2.32,1.13,3.49l.08.41.16,1c0,.21.07.43.11.64s.09.69.14,1l.13.64.13,1.1c0,.39.07.77.11,1.16q0,3.87,0,7.74l-.08.41a13.75,13.75,0,0,0-.49,2.64c0,3.3.18,6.59.3,9.89a2.38,2.38,0,0,0,.2.66l.05.42.57,7.73A50.42,50.42,0,0,0,535.25,449c1.09,5.57,1.73,11.24,2.53,16.87a30.36,30.36,0,0,1,.35,3.93c0,1.45-.39,1.78-1.87,1.89-.78.06-1.56.17-2.28.24.2,2.08.3,4,.57,5.92.83,5.72,1.56,11.46,2.65,17.13a9.72,9.72,0,0,1-1.25,6.4c-2.28,4.75-4.66,9.45-7,14.17a11.82,11.82,0,0,1-3.31,3.84,93.62,93.62,0,0,0-6.84,6.53c-1.46,1.51-2.74,3.21-4.09,4.83-.79.94-1.92.93-2.38-.2a6.53,6.53,0,0,1-.53-3.21,41.74,41.74,0,0,1,1.41-5.09,4.66,4.66,0,0,0-.8.35c-1.43.95-2.81,2-4.27,2.86-1.95,1.2-3.49.35-3.56-2-.08-2.84,1.52-4.79,3.62-6.42.68-.53,1.41-1,2.24-1.56-1.81-.62-3.49-1.1-5.09-1.77-.71-.3-1.81-1-1.77-1.48a6.94,6.94,0,0,1,1.35-2.51c.15-.24.55-.39.61-.64.44-1.7,1.05-2.27,2.77-2.43.35,0,.7,0,1.11,0,1.78-7.53,3.73-15,5.2-22.48.42-2.17-.54-4.61-.89-6.92-.07-.43-.29-.84-.33-1.27-.06-.68-.4-.82-1-.83-1.57,0-2-.33-2.47-1.9a46.94,46.94,0,0,1-2-12.51,217.67,217.67,0,0,0-2.59-26.24c-.44-2.77-.6-5.59-1.27-8.29-.83-3.29-2-6.5-3.13-9.69a158.43,158.43,0,0,1-6.65-22.38c-1.72-8.58-3.49-17.14-6-25.55-1.5-5-2-10.26-3-15.38-1.08-5.37-2.27-10.71-3.41-16.06q-2-9.19-3.95-18.39c-.19-.88-.47-1.74-.71-2.6h-.47l-.13,1.73h.27c-.36-3.1-.85-6.2-1-9.32s-.14-6.48-.08-9.71S475.92,292.45,476.07,289.22Zm40,185.15c.09,1.88.17,3.51.24,5.13.16,4.25-1.23,8.24-2.15,12.3-1.36,5.92-2.87,11.8-4.24,17.72a5.91,5.91,0,0,0,.14,2.57c.22,1,.93,1.08,1.52.26a9.16,9.16,0,0,0,1.62-2.9,4.64,4.64,0,0,0-.3-2.84c-.18-.42-1.21-.47-1.83-.68.95-1.38,2.25-.92,3.42,1.42.21-.28.4-.51.56-.77,2-3.24,4-6.54,6.17-9.7a14.29,14.29,0,0,0,2.37-5.26,12.74,12.74,0,0,1,.44-1.49q2-5.85,3.91-11.68l.48-1.41.4.07a15.23,15.23,0,0,1-.32,2.36c-1.27,4.19-2.6,8.36-3.89,12.54a3,3,0,0,0-.08,1.37c.36,1.87.93,3.71,1.13,5.6.18,1.69.71,3.37-.09,5.15-1.17,2.57-2,5.28-3.11,7.89a11.57,11.57,0,0,1-1.63,2.6c-1.92,2.43-4,4.74-5.82,7.24a11.38,11.38,0,0,0-1.61,3.94,8.74,8.74,0,0,0,0,3.14c0,.26.62.45,1,.68a3.47,3.47,0,0,0,.28-1.06,4.12,4.12,0,0,1,2.51-3.79l-1.2,1.91a.85.85,0,0,0,.68-.23q4.8-4.31,9.6-8.64a4.82,4.82,0,0,0,1.14-1.37q4.33-8.94,8.58-17.93a3.16,3.16,0,0,0,.11-2.06c-1.41-4.62-1.6-9.42-2.11-14.16-.33-3.05-.55-6.12-.73-9.18-.06-1-.54-1.07-1.32-.95-1.66.24-3.33.44-5,.67Zm7.23,22.54c-.19.9-.37,1.46-.43,2a41.12,41.12,0,0,1-3.6,12.42,5.07,5.07,0,0,1-3.39,3.12A15.34,15.34,0,0,0,512,516a37.63,37.63,0,0,0-5.33,4,3.23,3.23,0,0,0-.58,4.17c.33.62.65.87,1.29.49l8-4.84a2.14,2.14,0,0,0,.39-.45c1.58-1.73,3.18-3.45,4.74-5.2a5.48,5.48,0,0,0,1.1-1.65c1.15-3,2.23-6,3.32-8.95a1.72,1.72,0,0,0,.19-.91C524.55,500.83,524,499,523.29,496.91Zm-1.35,0c-.08.33-.13.66-.24,1a38.55,38.55,0,0,1-1.5,4.1c-.88,1.82-2,3.54-2.93,5.33a3.46,3.46,0,0,1-2,2.05c-.38.12-.7.59-.94,1-.67,1.08-1.21,2.26-2,3.28s-1.38.82-2.25.12c-1.2-1-1.27-2.3-1.35-3.71-1.32,0-2.59-.17-3.7.69s-1,1.54.14,2c1.28.56,2.62,1,3.9,1.49a5.13,5.13,0,0,0,4.87-.15,24.33,24.33,0,0,1,2.37-.77,3.36,3.36,0,0,0,1.54-1.12,39.5,39.5,0,0,0,1.78-3.78C521.31,504.77,522.41,501,521.94,496.9Zm-2,3.82-.43-.22-4.18,7.72.42.22Q517.86,504.57,520,500.72Zm-10.45,8c-.39-.46-.58-.91-.84-.95A1.92,1.92,0,0,0,506.4,509Zm5.31-31.52c.06-.74.11-1.48.18-2.33C514.12,475.27,514.12,475.27,514.82,477.18Z" />
        <path class="color-shadow"
            d="M532.56,401c-.38-1.17-.84-2.31-1.13-3.49-.9-3.71-1.75-7.42-2.6-11.14a4.51,4.51,0,0,1,0-1c.62,2.55,1.23,5.11,1.86,7.66.55,2.25,1.14,4.49,1.69,6.74C532.47,400.16,532.5,400.59,532.56,401Z" />
        <path class="color-shadow"
            d="M533.3,428.38a2.38,2.38,0,0,1-.2-.66c-.12-3.3-.27-6.59-.3-9.89a13.75,13.75,0,0,1,.49-2.64q.06,6.19.1,12.38A7.43,7.43,0,0,1,533.3,428.38Z" />
        <path class="color-shadow" d="M533.37,414.78q0-3.87,0-7.74Q533.41,410.91,533.37,414.78Z" />
        <path class="color-shadow" d="M533.92,436.53l-.57-7.73A17,17,0,0,1,533.92,436.53Z" />
        <path class="color-shadow" d="M523.21,354.22l-1.83-8Z" />
        <path class="color-shadow" d="M509.32,265.48l-1.14-6.86Z" />
        <path class="color-shadow"
            d="M528.74,384.94c-.54-1.95-1.07-3.89-1.6-5.84C527.67,381.05,528.2,383,528.74,384.94Z" />
        <path class="color-shadow"
            d="M515.55,315.58c-.06-1.7-.13-3.4-.19-5.11C515.42,312.18,515.49,313.88,515.55,315.58Z" />
        <path class="color-shadow" d="M514.58,304.06c-.22-1.46-.45-2.92-.67-4.38Z" />
        <path class="color-shadow" d="M516,323l-.12-3.58Z" />
        <path class="color-shadow"
            d="M518.39,333.58c-.44-1.39-.87-2.78-1.31-4.16C517.52,330.8,518,332.19,518.39,333.58Z" />
        <path class="color-shadow" d="M500.87,214.78l-1.08-3.92Z" />
        <path class="color-shadow" d="M505.71,239.5l-.62-3.58C505.3,237.11,505.5,238.31,505.71,239.5Z" />
        <path class="color-shadow" d="M523.94,359.5l-.42-3.19Z" />
        <path class="color-shadow"
            d="M524.9,365.26c-.14-.9-.29-1.8-.43-2.71C524.61,363.46,524.76,364.36,524.9,365.26Z" />
        <path class="color-shadow"
            d="M511.47,280.3c-.14-.91-.27-1.81-.41-2.72C511.2,278.49,511.33,279.39,511.47,280.3Z" />
        <path class="color-shadow" d="M503.54,226.3l-.66-2.71Z" />
        <path class="color-shadow" d="M505,235.48l-.42-2.53Z" />
        <path class="color-shadow"
            d="M511.71,282.94c-.06-.74-.12-1.49-.19-2.23C511.59,281.45,511.65,282.2,511.71,282.94Z" />
        <path class="color-shadow" d="M521.28,345.82l-.6-2.48Z" />
        <path class="color-shadow"
            d="M524.4,362.14c-.13-.75-.25-1.49-.38-2.24C524.15,360.65,524.27,361.39,524.4,362.14Z" />
        <path class="color-shadow" d="M517,329l-.41-2C516.7,327.69,516.83,328.35,517,329Z" />
        <path class="color-shadow" d="M511,277.18c-.13-.67-.26-1.33-.38-2C510.71,275.85,510.84,276.51,511,277.18Z" />
        <path class="color-shadow" d="M498.5,205.72c-.22-.68-.45-1.36-.67-2C498.05,204.36,498.28,205,498.5,205.72Z" />
        <path class="color-shadow" d="M512.42,288.94l-.15-1.76Z" />
        <path class="color-shadow"
            d="M514.82,306.46c-.05-.59-.11-1.17-.16-1.75C514.71,305.29,514.77,305.87,514.82,306.46Z" />
        <path class="color-shadow" d="M508.1,258c-.05-.59-.1-1.17-.16-1.76C508,256.81,508.05,257.39,508.1,258Z" />
        <path class="color-shadow" d="M509.55,267.58l-.15-1.42Z" />
        <path class="color-shadow" d="M512,284.92c-.07-.53-.14-1.05-.2-1.57Z" />
        <path class="color-shadow" d="M515.77,317.74c0-.51-.1-1-.14-1.52Z" />
        <path class="color-shadow" d="M505.94,241.66c0-.51-.09-1-.14-1.52Z" />
        <path class="color-shadow" d="M507.88,255.58l-.19-1.51C507.76,254.57,507.82,255.07,507.88,255.58Z" />
        <path class="color-shadow" d="M499.66,210.46l-.37-1.51C499.41,209.45,499.54,210,499.66,210.46Z" />
        <path class="color-shadow" d="M499,207.58l-.33-1.42Z" />
        <path class="color-shadow" d="M525.14,367.18,525,365.9Z" />
        <path class="color-shadow"
            d="M512.19,286.54c-.05-.39-.1-.79-.14-1.18C512.09,285.75,512.14,286.15,512.19,286.54Z" />
        <path class="color-shadow" d="M516.29,325.48l-.18-1.34Z" />
        <path class="color-shadow" d="M513.61,297.58l-.15-1.28Z" />
        <path class="color-shadow" d="M510.51,274.78l-.17-1.28Z" />
        <path class="color-shadow" d="M515.06,308.38c0-.43-.11-.85-.17-1.27Z" />
        <path class="color-shadow" d="M502.09,221.5l-.17-1.27C502,220.66,502,221.08,502.09,221.5Z" />
        <path class="color-shadow" d="M523.46,355.9l-.18-1.27Z" />
        <path class="color-shadow" d="M515.31,310.06l-.17-1.28Z" />
        <path class="color-shadow" d="M504.5,232.54l-.17-1.27C504.39,231.69,504.45,232.11,504.5,232.54Z" />
        <path class="color-shadow" d="M512.65,291.1l-.14-1.28C512.56,290.25,512.6,290.67,512.65,291.1Z" />
        <path class="color-shadow" d="M504.26,230.86l-.18-1.27Z" />
        <path class="color-shadow" d="M506.88,248.86l-.12-1.28Z" />
        <path class="color-shadow" d="M506.2,243.64,506,242.3C506.09,242.75,506.15,243.19,506.2,243.64Z" />
        <path class="color-shadow" d="M518.89,335.26l-.37-1.28C518.65,334.4,518.77,334.83,518.89,335.26Z" />
        <path class="color-shadow" d="M513.84,299.26l-.15-1Z" />
        <path class="color-shadow" d="M513.37,295.66l-.11-.94Z" />
        <path class="color-shadow" d="M525.36,368.86c0-.35-.09-.69-.13-1C525.27,368.17,525.32,368.51,525.36,368.86Z" />
        <path class="color-shadow" d="M525.63,370.54c0-.35-.11-.69-.16-1Z" />
        <path class="color-shadow"
            d="M526.59,376.06c-.06-.35-.12-.69-.17-1C526.47,375.37,526.53,375.71,526.59,376.06Z" />
        <path class="color-shadow" d="M526.82,377.5l-.16-1C526.72,376.81,526.77,377.15,526.82,377.5Z" />
        <path class="color-shadow" d="M509.76,269.26c0-.35-.08-.69-.13-1Z" />
        <path class="color-shadow" d="M510,270.94l-.13-1C509.9,270.25,510,270.59,510,270.94Z" />
        <path class="color-shadow" d="M533.05,404.14c0-.35-.09-.69-.14-1C533,403.45,533,403.79,533.05,404.14Z" />
        <path class="color-shadow" d="M533.31,405.88l-.13-1.1C533.22,405.15,533.27,405.51,533.31,405.88Z" />
        <path class="color-shadow" d="M507.62,253.66c-.05-.35-.11-.69-.17-1Z" />
        <path class="color-shadow" d="M507.15,251l-.14-1C507.06,250.32,507.1,250.67,507.15,251Z" />
        <path class="color-shadow" d="M510.24,272.86l-.1-.94Z" />
        <path class="color-shadow" d="M506.66,246.7l-.12-.94Z" />
        <path class="color-shadow" d="M506.43,245.08l-.15-1Z" />
        <path class="color-shadow"
            d="M503.79,227.74c-.06-.35-.11-.69-.17-1C503.68,227.05,503.73,227.39,503.79,227.74Z" />
        <path class="color-shadow" d="M504,229.18l-.16-1Z" />
        <path class="color-shadow" d="M532.8,402.46l-.16-1C532.7,401.77,532.75,402.12,532.8,402.46Z" />
        <path class="color-shadow" d="M495,196.81l-.64-.26.18-.34Z" />
        <path class="color-shadow" d="M513.14,294c0-.29-.09-.57-.13-.86C513.05,293.47,513.09,293.75,513.14,294Z" />
        <path class="color-shadow" d="M516.49,326.62l-.11-.7Z" />
        <path class="color-shadow" d="M501.61,218.44l-.14-.86Z" />
        <path class="color-shadow" d="M519.86,339.82l-.15-.8Z" />
        <path class="color-shadow" d="M520.09,341l-.14-.8Z" />
        <path class="color-shadow" d="M497.32,202.12l-.18-.85Z" />
        <path class="color-shadow" d="M507.36,252.22c0-.27-.08-.53-.13-.8Z" />
        <path class="color-shadow" d="M501.38,217.18l-.15-.8Z" />
        <path class="color-shadow" d="M525.85,371.8l-.14-.86Z" />
        <path class="color-shadow" d="M526.08,373.18c0-.24-.07-.47-.1-.7C526,372.71,526.05,372.94,526.08,373.18Z" />
        <path class="color-shadow" d="M526.33,374.62l-.12-.8Z" />
        <path class="color-shadow" d="M501.85,219.82l-.11-.7Z" />
        <path class="color-shadow" d="M512.88,292.54l-.12-.8Z" />
        <path class="color-shadow" d="M501.14,216l-.17-.79Z" />
        <path class="color-shadow" d="M527,378.7l-.14-.8C527,378.17,527,378.43,527,378.7Z" />
        <path class="color-shadow" d="M519.13,336.22l-.12-.56Z" />
        <path class="color-shadow" d="M519.34,337.18l-.11-.56Z" />
        <path class="color-shadow" d="M502.64,223l-.24-.6Z" />
        <path class="color-shadow" d="M499.19,208.54c0-.19-.08-.37-.11-.56Z" />
        <path class="color-shadow" d="M497,200.86l-.11-.56Z" />
        <path class="color-shadow" d="M496.8,199.9l-.18-.54Z" />
        <path class="color-shadow" d="M519.58,338.38l-.11-.56Z" />
        <path class="color-shadow" d="M520.31,342l-.12-.56Z" />
        <path class="color-shadow" d="M520.56,342.94l-.14-.55Z" />
        <polygon class="outline" points="303.47 270.98 303.45 270.87 303.41 270.97 303.47 270.98" />
        <path class="color-base"
            d="M534.61,468.05l-17.11,2.56-3.3.47c-.64.09-1.05-.06-1.14-.83-.37-3.15-.8-6.3-1.18-9.45-.41-3.31-.82-6.61-1.16-9.93-.17-1.7-.14-3.42-.29-5.13-.26-3-.48-5.93-.92-8.88-.82-5.57-1.61-11.16-2.74-16.67-.87-4.27-2.23-8.45-3.39-12.66-1.47-5.29-3.06-10.55-4.42-15.87-1-3.88-1.77-7.83-2.55-11.76-1.75-8.76-3.42-17.54-5.18-26.3-1.88-9.35-3.55-18.74-6.27-27.91a79,79,0,0,0-5.6-14.46,4.29,4.29,0,0,1-.35-1.6c-.33-3.72-.63-7.45-.94-11.17q0-.54,0-1.08c0-4.31,0-8.63,0-12.95a120.45,120.45,0,0,1,1.15-16.54c.6-4,.79-8.08,1.58-12a132.08,132.08,0,0,1,3.39-13.15c1.9-6.17,4.06-12.26,6.09-18.39,1.09-3.29,2.14-6.6,3.22-9.9.14-.42.34-.82.51-1.24l.3.06c.26,1.86.57,3.72.78,5.6.42,3.7.77,7.42,1.18,11.13.4,3.55.74,7.11,1.27,10.64s1.23,7,1.91,10.55c1.34,6.94,2.73,13.88,4.06,20.82.95,4.95,1.93,9.9,2.75,14.87.71,4.31,1.26,8.64,1.8,13,.52,4.17,1,8.35,1.41,12.54.15,1.38.16,2.78.28,4.17.22,2.49.43,5,.74,7.46.34,2.72.67,5.44,1.2,8.13a51.66,51.66,0,0,0,1.78,6.92,241.08,241.08,0,0,1,7.76,29.53c1,4.7,1.63,9.47,2.45,14.2.74,4.26,1.58,8.51,2.26,12.78a66.76,66.76,0,0,1,.82,7.58,111.12,111.12,0,0,0,1.87,18Q530,427.88,531,434.7c.56,3.73.83,7.5,1.28,11.25.4,3.31.91,6.6,1.34,9.91.21,1.69.39,3.39.54,5.09.19,2.14.34,4.28.5,6.42A5.05,5.05,0,0,1,534.61,468.05Z" />
        <path class="color-shadow"
            d="M295.94,188.49v5.7c0,3.36-.09,6.72,0,10.07.07,3.76.34,7.51.4,11.26.05,3.35,0,6.71-.14,10.06a87.12,87.12,0,0,0,.82,15.06c.74,5.13,1.56,10.24,2.4,15.35.43,2.59,1,5.16,1.48,7.74a7.4,7.4,0,0,1,0,1,25.79,25.79,0,0,1-2.89-1.67,54.45,54.45,0,0,0-15.36-8.22c-3.69-1.28-7.29-2.95-11.08-3.82-5.66-1.29-11.13-3.12-16.63-4.91a68.84,68.84,0,0,0-15.8-3.28c-4.13-.33-8.22-1.18-12.34-1.58s-8.12-.51-12.18-.77c-3-.2-6.05-.48-9.08-.66-1.39-.08-2.79-.06-4.19,0a79.48,79.48,0,0,1-14.75-1.39c-8.87-1.38-17.73-2.85-26.73-3.24-3.24-.14-6.45-.76-9.68-1s-6.45-.22-9.67-.47c-2.1-.16-4.17-.64-6.26-.93-4.85-.67-9.45.62-14,1.94a55.11,55.11,0,0,0-7.35,2.57,83.21,83.21,0,0,1-13.43,4.45,19.3,19.3,0,0,1-2.12.4c-1.38.19-2-.14-2.21-1.52-.51-3.35-1.05-6.7-1.3-10.07a52.89,52.89,0,0,0-1.41-10.75c-1.07-3.8-.41-4.65,3.62-5.63,6.94-1.69,13.89-3.37,20.81-5.12,1.86-.46,3.63-1.24,5.49-1.7,3.13-.78,6.3-1.38,9.44-2.12,4.42-1.06,8.81-2.26,13.26-3.23a58.43,58.43,0,0,1,6.51-.78q9.35-.93,18.7-1.81c4.36-.42,8.73-.88,13.1-1.19,3-.21,6.12-.1,9.18-.28,5.54-.31,11.07-.78,16.61-1.09,2.59-.15,5.24.21,7.78-.2,5.63-.91,11.31-.65,17-1.18,5.08-.48,10.12-1.35,15.18-2,2.89-.35,5.82-.43,8.7-.84,5.37-.76,10.71-1.68,16.07-2.53a2,2,0,0,1,.35,0c3.7-.19,7.41-.32,11.11-.58,2.18-.16,4.35-.58,6.53-.8C293.18,188.56,294.57,188.56,295.94,188.49Zm-3.54,59.93c.13-1.36.31-2.5.35-3.65.11-3.47.21-6.94.24-10.41.1-10,.09-20,.3-30a95.62,95.62,0,0,1,1.11-9.94c.18-1.38.11-1.62-1.29-1.5-3.45.28-6.89.64-10.33,1-4.78.47-9.55,1-14.34,1.38s-9.78.48-14.67.76c-3.26.19-6.51.46-9.75.73q-6.66.55-13.3,1.19c-3,.29-6,.67-9,1q-6.45.72-12.9,1.4c-2.61.28-5.22.5-7.83.8-3.7.42-7.4.9-11.11,1.36l-9,1.09c-3,.36-6.07.73-9.1,1.07-1.27.14-2.55.14-3.81.29-3.08.36-6.14.78-9.22,1.15s-6,.48-8.86,1.06c-5.42,1.09-10.79,2.4-16.16,3.68-4.06,1-8.07,2.11-12.14,3a60.35,60.35,0,0,1-6,.85c-3.66.46-7.33.83-11,1.35-2.39.33-4.75.95-7.14,1.27-1.73.24-2.36,1.22-1.81,2.87a26.94,26.94,0,0,1,1.22,5.07c.51,3.93.83,7.89,1.26,11.84.17,1.6.78,2.12,2.2,1.82a13.58,13.58,0,0,0,3.27-1.05,78.38,78.38,0,0,1,12.91-4.67q6.35-1.87,12.78-3.44a50.16,50.16,0,0,1,8.29-1.53c2.51-.19,5.07.35,7.61.38,5.88.07,11.76,0,17.64.06a53,53,0,0,1,7,.66c2.71.39,5.39,1,8.09,1.45,4.18.71,8.41,1.23,12.56,2.08,4.94,1,9.82,2.36,14.74,3.44,3.92.87,7.85,1.65,11.8,2.31a69.12,69.12,0,0,0,15.41,1.13c4.81-.27,9.64-.07,14.46-.07A84.87,84.87,0,0,1,263,241.2c5.07,1,10.14,2,15.15,3.19C282.92,245.56,287.58,247.05,292.4,248.42Z" />
        <path class="transparent"
            d="M32.31,252l2.37-6,.26,0,.29,1.39h.39c0-1.16.05-2.32.09-3.48a3.15,3.15,0,0,1,.1-.81c.64-2,1.19-4.06,2-6,.91-2.32,2-4.58,3.07-6.82A3.85,3.85,0,0,1,42.31,229c4.17-2.47,8.87-3.57,13.41-5.1a52.42,52.42,0,0,1,11.14-2.18,5.64,5.64,0,0,0,2.25-.68H58.77c2-1,3.41-2.33,5.37-2.48,3.5-.28,7-.45,10.5-.67l12.67-.78c.91-.05,1.82,0,3,0,.25,1.91.55,3.91.75,5.92s.28,4,.46,6c.25,2.67.51,5.33.84,8a22.25,22.25,0,0,0,.68,2.79c.26,1,0,1.73-1.08,2-2.93.78-5.86,1.57-8.8,2.31-1.32.33-2.71.42-4,.87-2.2.79-4.33,1.75-6.48,2.68-2.38,1-4.78,2-7.1,3.21a11.85,11.85,0,0,1-7.1,1,5.22,5.22,0,0,1-1.28-.54,5.13,5.13,0,0,1,.6-1.22,8.71,8.71,0,0,1,4.87-2.63,6.35,6.35,0,0,1,2.09.25c-1-1.71-3.13-1.56-8,.58a3.92,3.92,0,0,1,.73-.87c3.88-2.72,7.8-5.39,11.67-8.12A15.41,15.41,0,0,0,71.79,237c2.06-2.3,4-4.68,5.9-7.18a73.3,73.3,0,0,0-7.08,6.65A17.54,17.54,0,0,1,69,233c-.18-.73.5-1.46,1.46-1.56l3.13-.39.06-.33a3.76,3.76,0,0,0-1-.52,12.21,12.21,0,0,0-6-.11,84.9,84.9,0,0,1-8.57,1.71,27,27,0,0,0-10.48,3.89A9.86,9.86,0,0,0,44.11,240a31.39,31.39,0,0,1-5.9,9.12A8.25,8.25,0,0,1,32.31,252Z" />
        <path class="transparent"
            d="M68,231.69c.24,1.61-.8,1.9-1.82,2.17-1.67.43-3.38.78-4.61,2.11a22.66,22.66,0,0,0-1.45,1.9,22.11,22.11,0,0,1-10.24,7l-.33-.23a4.82,4.82,0,0,1,.49-1.16q2.84-3.7,5.75-7.36a8.63,8.63,0,0,1,1.62-1.38c3-2.21,6.6-2.48,10.07-3.16A1.5,1.5,0,0,1,68,231.69Z" />
        <path class="transparent"
            d="M40.64,248.24c1-1.71,2-3.28,2.93-4.9a17.65,17.65,0,0,0,1.37-2.92,7.55,7.55,0,0,1,2.74-3.67,17.35,17.35,0,0,1,9.22-3.41c-.89.65-1.5,1.13-2.15,1.57-1.47,1-2.93,2.07-4.46,3a7.37,7.37,0,0,0-3.09,3.48,46.93,46.93,0,0,1-2.48,4.77A3.8,3.8,0,0,1,40.64,248.24Z" />
        <path class="transparent" d="M59,221.18l-.09.08a.77.77,0,0,1-.07-.16s0,0,.07-.08Z" />
        <path class="transparent"
            d="M516.06,474.37l10.87-1.54c1.66-.23,3.33-.43,5-.67.78-.12,1.26-.06,1.32.95.18,3.06.4,6.13.73,9.18.51,4.74.7,9.54,2.11,14.16a3.16,3.16,0,0,1-.11,2.06q-4.23,9-8.58,17.93a4.82,4.82,0,0,1-1.14,1.37q-4.79,4.35-9.6,8.64a.85.85,0,0,1-.68.23l1.2-1.91a4.12,4.12,0,0,0-2.51,3.79,3.47,3.47,0,0,1-.28,1.06c-.33-.23-.92-.42-1-.68a8.74,8.74,0,0,1,0-3.14,11.38,11.38,0,0,1,1.61-3.94c1.81-2.5,3.9-4.81,5.82-7.24a11.57,11.57,0,0,0,1.63-2.6c1.09-2.61,1.94-5.32,3.11-7.89.8-1.78.27-3.46.09-5.15-.2-1.89-.77-3.73-1.13-5.6a3,3,0,0,1,.08-1.37c1.29-4.18,2.62-8.35,3.89-12.54a15.23,15.23,0,0,0,.32-2.36l-.4-.07-.48,1.41Q526,484.29,524,490.13a12.74,12.74,0,0,0-.44,1.49,14.29,14.29,0,0,1-2.37,5.26c-2.17,3.16-4.13,6.46-6.17,9.7-.16.26-.35.49-.56.77-1.17-2.34-2.47-2.8-3.42-1.42.62.21,1.65.26,1.83.68a4.64,4.64,0,0,1,.3,2.84,9.16,9.16,0,0,1-1.62,2.9c-.59.82-1.3.7-1.52-.26a5.91,5.91,0,0,1-.14-2.57c1.37-5.92,2.88-11.8,4.24-17.72.92-4.06,2.31-8.05,2.15-12.3C516.23,477.88,516.15,476.25,516.06,474.37Z" />
        <path class="transparent"
            d="M523.29,496.91c.67,2.11,1.26,3.92,1.8,5.74a1.72,1.72,0,0,1-.19.91c-1.09,3-2.17,6-3.32,8.95a5.48,5.48,0,0,1-1.1,1.65c-1.56,1.75-3.16,3.47-4.74,5.2a2.14,2.14,0,0,1-.39.45l-8,4.84c-.64.38-1,.13-1.29-.49a3.23,3.23,0,0,1,.58-4.17,37.63,37.63,0,0,1,5.33-4,15.34,15.34,0,0,1,3.87-1.54,5.07,5.07,0,0,0,3.39-3.12,41.12,41.12,0,0,0,3.6-12.42C522.92,498.37,523.1,497.81,523.29,496.91Z" />
        <path class="transparent"
            d="M521.94,496.9c.47,4.12-.63,7.87-2.27,11.5a39.5,39.5,0,0,1-1.78,3.78,3.36,3.36,0,0,1-1.54,1.12,24.33,24.33,0,0,0-2.37.77,5.13,5.13,0,0,1-4.87.15c-1.28-.53-2.62-.93-3.9-1.49-1.1-.48-1.13-1.25-.14-2s2.38-.74,3.7-.69c.08,1.41.15,2.75,1.35,3.71.87.7,1.58.78,2.25-.12s1.29-2.2,2-3.28c.24-.38.56-.85.94-1a3.46,3.46,0,0,0,2-2.05c1-1.79,2.05-3.51,2.93-5.33a38.55,38.55,0,0,0,1.5-4.1C521.81,497.56,521.86,497.23,521.94,496.9Z" />
        <path class="transparent" d="M520,500.72q-2.1,3.86-4.19,7.72l-.42-.22,4.18-7.72Z" />
        <path class="transparent"
            d="M509.51,508.7l-3.11.31a1.92,1.92,0,0,1,2.27-1.26C508.93,507.79,509.12,508.24,509.51,508.7Z" />
        <path class="transparent"
            d="M514.82,477.18c-.7-1.91-.7-1.91.18-2.33C514.93,475.7,514.88,476.44,514.82,477.18Z" />
        <path class="color-base"
            d="M292.4,248.42c-4.82-1.37-9.48-2.86-14.22-4-5-1.23-10.08-2.22-15.15-3.19a84.87,84.87,0,0,0-16.14-1.46c-4.82,0-9.65-.2-14.46.07A69.12,69.12,0,0,1,217,238.68c-4-.66-7.88-1.44-11.8-2.31-4.92-1.08-9.8-2.42-14.74-3.44-4.15-.85-8.38-1.37-12.56-2.08-2.7-.45-5.38-1.06-8.09-1.45a53,53,0,0,0-7-.66c-5.88-.1-11.76,0-17.64-.06-2.54,0-5.1-.57-7.61-.38a50.16,50.16,0,0,0-8.29,1.53q-6.44,1.57-12.78,3.44a78.38,78.38,0,0,0-12.91,4.67,13.58,13.58,0,0,1-3.27,1.05c-1.42.3-2-.22-2.2-1.82-.43-3.95-.75-7.91-1.26-11.84a26.94,26.94,0,0,0-1.22-5.07c-.55-1.65.08-2.63,1.81-2.87,2.39-.32,4.75-.94,7.14-1.27,3.66-.52,7.33-.89,11-1.35a60.35,60.35,0,0,0,6-.85c4.07-.93,8.08-2.07,12.14-3,5.37-1.28,10.74-2.59,16.16-3.68,2.91-.58,5.91-.71,8.86-1.06s6.14-.79,9.22-1.15c1.26-.15,2.54-.15,3.81-.29,3-.34,6.07-.71,9.1-1.07l9-1.09c3.71-.46,7.41-.94,11.11-1.36,2.61-.3,5.22-.52,7.83-.8q6.45-.69,12.9-1.4c3-.32,6-.7,9-1q6.65-.65,13.3-1.19c3.24-.27,6.49-.54,9.75-.73,4.89-.28,9.79-.4,14.67-.76s9.56-.91,14.34-1.38c3.44-.33,6.88-.69,10.33-1,1.4-.12,1.47.12,1.29,1.5a95.62,95.62,0,0,0-1.11,9.94c-.21,10-.2,20-.3,30,0,3.47-.13,6.94-.24,10.41C292.71,245.92,292.53,247.06,292.4,248.42Z" />
    </g>
</svg>
