<svg id="Manzhet" xmlns="http://www.w3.org/2000/svg" viewBox="0 0 672 960">
    <g id="img_46_img" data-name="img 46 img">
        <path class="color-shadow"
            d="M476.07,289.22l.09-1a2.11,2.11,0,0,0,.34-.69c.42-5.81.76-11.63,1.24-17.44.38-4.6.76-9.22,1.47-13.79.61-3.85,1.76-7.61,2.56-11.44,1.24-6,2.27-12,3.62-17.94.86-3.81,2.11-7.54,3.25-11.28,1.38-4.49,2.82-9,4.28-13.44a23.75,23.75,0,0,1,1.32-2.8h.34c.23.73.48,1.46.68,2.2,1.61,6.09,3.24,12.18,4.82,18.27,1.1,4.25,2.12,8.53,3.19,12.78,1.81,7.12,1.71,14.48,2.86,21.69.86,5.43,1.39,10.91,2.1,16.37.56,4.39,1.19,8.77,1.76,13.16.62,4.82,1.12,9.67,1.85,14.47A147.41,147.41,0,0,1,513.77,318a53.89,53.89,0,0,0,3.57,18.84,76.84,76.84,0,0,1,4.44,17.61c.68,4.9,1.13,9.83,1.76,14.74a108.09,108.09,0,0,0,3.07,15.6c1.48,5.21,2.62,10.53,3.86,15.81a37.76,37.76,0,0,1,.86,14c-.64,4.46.51,8.84,0,13.25a1.1,1.1,0,0,0,0,.35c.41,2.47.87,4.93,1.21,7.41s.49,4.84.85,7.25c.66,4.45,1.45,8.89,2.13,13.34.32,2.07.21,2.17-1.62,2.2-.31-2.24-.67-4.47-.94-6.72-.6-5-1-10.05-1.77-15-.74-4.57-1.07-9.2-2.26-13.71-1.47-5.59-1.78-11.37-2.23-17.11-.32-4.08-.6-8.17-1.22-12.21-1.23-7.92-2.52-15.84-4.08-23.7a230.59,230.59,0,0,0-7.76-30.14,44,44,0,0,1-2-7.61c-.87-5.73-1.54-11.48-2.18-17.24-.5-4.58-.74-9.19-1.26-13.77s-1.18-9.37-1.94-14c-.86-5.33-1.87-10.64-2.88-15.95-1.16-6.08-2.45-12.15-3.57-18.24s-2.2-12.11-3-18.2c-.83-5.94-1.32-11.92-2-17.88-.13-1.22-.4-2.44-.61-3.66a3.55,3.55,0,0,0-.8,1.39c-1.05,3.23-2.08,6.46-3.15,9.68-2,6.16-4.21,12.29-6.12,18.49a120,120,0,0,0-3.2,12.47c-.81,4.2-1.27,8.48-1.72,12.74-.49,4.82-1,9.66-1.14,14.49s0,9.92,0,14.88c0,.36,0,.72,0,1.08q.45,5.64.94,11.28a4.88,4.88,0,0,0,.39,1.6c.8,1.74,1.81,3.4,2.46,5.19,1.28,3.55,2.43,7.16,3.54,10.77.82,2.7,1.6,5.43,2.2,8.19,1.08,5,2,10,3,15.07,1.17,6,2.31,11.93,3.52,17.89,1.58,7.74,3.1,15.51,4.87,23.21,1.18,5.11,2.74,10.14,4.15,15.2,1.14,4.13,2.54,8.21,3.4,12.41,1.2,5.78,2.08,11.64,2.94,17.48.48,3.26.66,6.56.95,9.84.13,1.47.15,2.94.3,4.41.36,3.67.77,7.34,1.16,11l-2.35.48c-.43-4.35-.74-8.6-1.28-12.83q-1.29-10.1-2.83-20.14c-.41-2.64-1.16-5.22-1.77-7.82a35.86,35.86,0,0,0-1.24-5.08,152.32,152.32,0,0,1-7.86-26.35c-1.08-5.52-2.36-11-3.6-16.47s-2.65-10.85-3.8-16.31c-.71-3.38-.91-6.88-1.59-10.27q-2-9.9-4.28-19.75c-1.06-4.62-1.7-9.36-3.69-13.73a7.56,7.56,0,0,1-.79-4.05,36.8,36.8,0,0,0,.18-3.93c0-1.39-.11-2.78-.18-4.17-.13-2.84-.24-5.68-.4-8.52C476.35,291.76,476.19,290.49,476.07,289.22Z" />
        <path class="outline"
            d="M534,458.39c1.83,0,1.94-.13,1.62-2.2-.68-4.45-1.47-8.89-2.13-13.34-.36-2.41-.51-4.84-.85-7.25s-.8-4.94-1.21-7.41a1.1,1.1,0,0,1,0-.35c.5-4.41-.65-8.79,0-13.25a37.76,37.76,0,0,0-.86-14c-1.24-5.28-2.38-10.6-3.86-15.81a108.09,108.09,0,0,1-3.07-15.6c-.63-4.91-1.08-9.84-1.76-14.74a76.84,76.84,0,0,0-4.44-17.61A53.89,53.89,0,0,1,513.77,318a147.41,147.41,0,0,0-1.93-19.64c-.73-4.8-1.23-9.65-1.85-14.47-.57-4.39-1.2-8.77-1.76-13.16-.71-5.46-1.24-10.94-2.1-16.37-1.15-7.21-1.05-14.57-2.86-21.69-1.07-4.25-2.09-8.53-3.19-12.78-1.58-6.09-3.21-12.18-4.82-18.27-.2-.74-.45-1.47-.68-2.2h-.34a23.75,23.75,0,0,0-1.32,2.8c-1.46,4.47-2.9,9-4.28,13.44-1.14,3.74-2.39,7.47-3.25,11.28-1.35,6-2.38,12-3.62,17.94-.8,3.83-1.95,7.59-2.56,11.44-.71,4.57-1.09,9.19-1.47,13.79-.48,5.81-.82,11.63-1.24,17.44a2.11,2.11,0,0,1-.34.69c.15-7.22.17-14.44.5-21.66a65.72,65.72,0,0,1,1.43-8.49c2.56-14.79,6.16-29.35,9.92-43.87.64-2.47,1.86-4.79,2.73-7.21s1.6-4.79,2.42-7.18c.4-1.16.87-2.29,1.31-3.45a6.56,6.56,0,0,1,2.46,4c1.08,3.93,2.17,7.86,3.2,11.8.56,2.16,1.05,4.35,1.52,6.54.92,4.2,2,8.38,2.65,12.63,1.4,9,2.56,18,3.87,27.06,1,6.64,2,13.27,3,19.92.36,2.45.58,4.92.91,7.38,1,7.92,2.19,15.84,3.11,23.78.46,4,.56,8,.73,12A47.65,47.65,0,0,0,517.83,332c1.46,5.28,2.57,10.64,3.93,15.95,2.44,9.55,3.11,19.41,5,29.06.17.86.3,1.74.51,2.59,1.73,7,3.58,13.93,5.16,20.94a40.46,40.46,0,0,1,.65,16,14.43,14.43,0,0,0,0,3.22c.05,1.52.16,3,.27,4.54.19,2.67.43,5.33.58,8,.09,1.55.11,3.11.06,4.67A37.79,37.79,0,0,0,535.16,448c1.61,5.82,1.88,11.83,2.62,17.78.17,1.38.28,2.77.36,4.17.06,1.08-.53,1.6-1.59,1.68-.87.06-1.73.17-2.57.25.2,2.06.3,4,.57,5.89.82,5.72,1.55,11.46,2.64,17.14a9.79,9.79,0,0,1-1.22,6.4c-2.3,4.78-4.69,9.52-7,14.28a11.76,11.76,0,0,1-3.25,3.74,93.72,93.72,0,0,0-6.84,6.53c-1.47,1.51-2.75,3.21-4.1,4.83-.82,1-2,.94-2.45-.25a6.45,6.45,0,0,1-.49-3.11,28.31,28.31,0,0,1,1.24-4.23c.08-.24.15-.49.33-1.08-.6.35-.93.51-1.23.71-1.36.91-2.68,1.89-4.07,2.74-1.85,1.12-3.32.31-3.48-1.85a6.43,6.43,0,0,1,1.7-4.73,14.89,14.89,0,0,1,1.9-1.82c.67-.55,1.42-1,2.26-1.58-1.75-.6-3.4-1.06-5-1.72-.75-.32-1.77-.91-1.91-1.54a2.56,2.56,0,0,1,1.43-2.56,1.32,1.32,0,0,0,.54-.56c.23-.51.22-1.28.59-1.53a9.12,9.12,0,0,1,2.4-.92,2.93,2.93,0,0,1,.84,0c.62-2.61,1.21-5.15,1.82-7.69,1.14-4.77,2.29-9.53,3.42-14.29.54-2.27-.23-4.42-.68-6.6a11.12,11.12,0,0,1-.33-1.26c-.11-1.14-.48-1.81-1.84-1.68-.94.08-1.45-.69-1.76-1.54a39.19,39.19,0,0,1-2-10.45c-.64-7.6-1.18-15.21-2-22.79-.51-4.85-1.18-9.7-2.16-14.46a71.4,71.4,0,0,0-3-9.47,158.2,158.2,0,0,1-6.62-22.27c-1.72-8.58-3.49-17.14-6-25.55-1.51-5-2-10.26-3-15.39-1.08-5.36-2.27-10.7-3.41-16.05q-2-9.21-3.95-18.4c-.19-.88-.47-1.74-.71-2.6h-.47l-.13,1.73h.27c-.35-3.11-.85-6.21-1-9.32s-.14-6.48-.08-9.72.27-6.46.42-9.69c.12,1.27.28,2.54.34,3.81.16,2.84.27,5.68.4,8.52.07,1.39.18,2.78.18,4.17a36.8,36.8,0,0,1-.18,3.93,7.56,7.56,0,0,0,.79,4.05c2,4.37,2.63,9.11,3.69,13.73q2.28,9.84,4.28,19.75c.68,3.39.88,6.89,1.59,10.27,1.15,5.46,2.56,10.86,3.8,16.31s2.52,10.95,3.6,16.47a152.32,152.32,0,0,0,7.86,26.35,35.86,35.86,0,0,1,1.24,5.08c.61,2.6,1.36,5.18,1.77,7.82q1.54,10,2.83,20.14c.54,4.23.85,8.48,1.28,12.83l2.35-.48a5.58,5.58,0,0,0,.71,0l12-2C527.71,459.48,530.84,458.93,534,458.39Zm.22,1q-11,1.65-22.09,3.32a4.07,4.07,0,0,0-1.06.45,3.47,3.47,0,0,0,1.75.16l14.68-2.09,6.73-1c.69-.07,1.74.37,1.57-1.16Zm-22,5a6,6,0,0,1-.83.09c-1.51-.1-1.55.81-1.33,1.9.34,1.64.65,3.28,1,4.91.46,1.82.79,2,2.67,1.94.47,0,.95-.09,1.42-.16l11.09-1.79c3.45-.56,6.9-1.1,10.51-1.67-.3-2.85-.61-5.72-.93-8.7l-1.59.22Zm2.31,43c.33-.51.57-.87.79-1.23,2.09-3.3,4.12-6.66,6.31-9.9a14.89,14.89,0,0,0,1.88-4.19c1.53-4.95,3.2-9.86,4.82-14.78a3.17,3.17,0,0,1,.19-.42l.46.2c-.27,1.37-.43,2.77-.83,4.1-1.1,3.58-2.31,7.13-3.45,10.7a2.91,2.91,0,0,0-.12,1.37c.36,1.87.89,3.72,1.15,5.6a11.09,11.09,0,0,1,.06,4.44,90.06,90.06,0,0,1-3.27,8.73,11.28,11.28,0,0,1-1.67,2.58c-1.9,2.39-4,4.67-5.74,7.15a12.24,12.24,0,0,0-1.66,4,8.08,8.08,0,0,0,0,3c0,.29.61.5.93.74a3,3,0,0,0,.33-1,4.24,4.24,0,0,1,2.49-3.88l-1.19,2a.69.69,0,0,0,.65-.21c3.2-2.88,6.41-5.75,9.6-8.65a4.82,4.82,0,0,0,1.15-1.36q4.36-9,8.64-18a2.89,2.89,0,0,0,.11-1.84c-1.64-5.68-1.87-11.55-2.37-17.39-.2-2.29-.36-4.59-.56-7.13l-17.12,2.35c.08,1.85.17,3.47.23,5.1.15,4.29-1.25,8.31-2.2,12.41-1.36,5.88-2.85,11.73-4.2,17.62a5.78,5.78,0,0,0,.16,2.57c.21.91.9,1.06,1.45.3a12.88,12.88,0,0,0,1.74-3.11,2.46,2.46,0,0,0-.49-2.89c-.43-.35-1.18-.3-1.78-.42C511.72,504.62,513.62,505,514.45,507.47Zm8.95-10.21h-.27a28.91,28.91,0,0,1-.59,4c-1,3.31-2.08,6.58-3.18,9.85a5.66,5.66,0,0,1-3.75,3.53,50.34,50.34,0,0,0-6.83,3.37,5.52,5.52,0,0,0-3,3.71c-.15.95.41,2,.65,3a9,9,0,0,0,2-.64c2.17-1.26,4.29-2.62,6.41-3.95a4.16,4.16,0,0,0,.81-.7c1.65-1.78,3.3-3.56,4.91-5.37a4.81,4.81,0,0,0,.95-1.47c1.15-3,2.25-6,3.36-9.07a1.56,1.56,0,0,0,.15-.91C524.55,500.8,524,499,523.4,497.26Zm-1.46-.36c-.08.32-.13.66-.24,1a38.67,38.67,0,0,1-1.49,4.11c-.89,1.82-2,3.54-2.94,5.33a3.46,3.46,0,0,1-2,2.05c-.38.12-.7.59-.93,1-.68,1.08-1.22,2.25-2,3.27s-1.39.83-2.25.14c-1.21-1-1.29-2.3-1.35-3.69-1.37-.12-2.68-.18-3.79.73-.92.75-.85,1.49.22,2,1.39.59,2.85,1,4.24,1.6a4.78,4.78,0,0,0,4.41-.21c.75-.41,1.69-.47,2.48-.82a3.37,3.37,0,0,0,1.55-1.11c.7-1.2,1.2-2.51,1.78-3.78C521.31,504.78,522.41,501,521.94,496.9Zm-6.58,11.27.41.27,4.14-7.67-.41-.22Zm-5.87.53c-.4-.45-.62-.93-.89-1a2,2,0,0,0-2.24,1.28ZM515,475c-1.21.63-.4,1.4-.16,2.13Z" />
        <path class="outline"
            d="M178.05,198l-.28-.58c.18,0,.33-.06.48-.07,4.44-.17,8.88-.28,13.31-.52,7.58-.41,15.15-.9,22.73-1.36,1.16-.07,2.31-.22,3.46-.31,4.9-.4,9.81-.7,14.69-1.22s9.91-1.3,14.86-1.95c1.59-.21,3.18-.36,4.77-.53,2.74-.3,5.48-.6,8.22-.88,7.63-.79,15.26-1.54,22.88-2.38,3.06-.34,6.09-.93,9.14-1.32,1.54-.19,3.1-.2,4.83-.3-.11,2.18-.25,4.23-.3,6.29-.09,4.11-.27,8.22-.15,12.33.22,7.63.46,15.25.25,22.9-.11,4,.66,8.11,1,12.17.81,10.06,3.43,19.8,5.3,29.67,0,.14,0,.28.09.78-1-1.46-1.78-2.66-2.64-3.79a5.34,5.34,0,0,0-1.32-1.13c-.87-.57-1.81-1-2.65-1.63a56.28,56.28,0,0,0-12.56-6.68,104.54,104.54,0,0,0-18.65-5.76,45.42,45.42,0,0,1-6.85-2.18,83.63,83.63,0,0,0-19.31-4.61c-5.44-.62-10.84-1.65-16.27-2.29-5-.6-10.11-1-15.17-1.37-4.26-.31-8.54-.38-12.79-.71-2.5-.19-5-.67-7.48-1-9.13-1.36-18.25-2.83-27.49-3.31-1.43-.07-2.86-.31-4.29-.4-2.51-.14-5-.2-7.54-.35-4.06-.24-8.12-.67-12.19-.75a76.64,76.64,0,0,0-11.94.41c-2.83.39-5.54,1.75-8.27,2.77-5,1.85-10,3.85-15,5.63a40.81,40.81,0,0,1-6,1.32c-1.64.32-2.21-.24-2.08-1.88a2.05,2.05,0,0,0-.07-.5c-1.71.47-3.33,1-5,1.37-2.41.56-4.9.86-7.25,1.6a79.39,79.39,0,0,0-7.65,3c-2.9,1.24-5.74,2.63-8.64,3.86a14.55,14.55,0,0,1-6.49.68,2.62,2.62,0,0,1-2.41-2.16,3,3,0,0,1,.9-3.48c2-1.53,4-3,6.11-4.43,1.74-1.2,3.55-2.31,5.31-3.49a6.4,6.4,0,0,0,1.46-1.23c.38-.46,1-1.25.79-1.59-.67-1.42-1.26-1.61-2.53-1.23l-.12,0a10.28,10.28,0,0,0-6.77,3.73A21.21,21.21,0,0,1,52,244.9a6.59,6.59,0,0,1-1.7.54c-.5.05-1.39,0-1.47-.27a2.75,2.75,0,0,1,0-2,17.88,17.88,0,0,1,2.05-2.65c.85-1,1.73-2,2.67-3.16-1.86,0-4.32,1.94-5.13,3.74-.94,2.08-1.92,4.14-3,6.12-1.3,2.3-2.8,2.86-5.4,2.41a1.44,1.44,0,0,0-1,.51,9.14,9.14,0,0,1-5.84,3.23,2.16,2.16,0,0,1-1.74-.56,2.28,2.28,0,0,1,.05-1.84c1.5-3.56,3.16-7.06,4.59-10.64,1.28-3.21,2.33-6.5,3.46-9.77a4,4,0,0,1,2.55-2.44c4.73-2,9.4-4.19,14.06-6.38a6.46,6.46,0,0,0,2.35-1.82c1.67-2.17,3.94-2.64,6.46-2.73,6.36-.23,12.71-.51,19.07-.78a19.25,19.25,0,0,1,2.62-.1,2.66,2.66,0,0,0,2.92-2,2.09,2.09,0,0,1,1.68-1.31q6.62-1.63,13.22-3.38c5.21-1.37,10.4-2.85,15.8-3.35a30.5,30.5,0,0,0,3.85-.86c3-.65,5.94-1.24,8.89-2,4.19-1,8.35-2.2,12.54-3.24a22.68,22.68,0,0,1,4-.6c9.22-.58,18.43-1.11,27.65-1.65ZM105.53,238.3c-.1-.83-.16-1.67-.29-2.49q-1.55-9.66-3.12-19.32l-.5-3.49-.27-.12c-.15.26-.43.54-.41.79.07.94.24,1.87.37,2.81s.2,1.57.32,2.36q1.4,9.72,2.81,19.44l.3,1.95C106.21,240,105.87,239.14,105.53,238.3ZM100.25,217a24.5,24.5,0,0,0-.29-2.73,1.17,1.17,0,0,0-1-.6,26.36,26.36,0,0,0-3.16.63c-3.88.92-4.49,1.81-3.4,5.64s1.15,7.52,1.38,11.34c.2,3.21.86,6.39,1.37,9.57.14.84.66,1.55,1.66,1.36,2.41-.47,4.81-1,7.29-1.54-.2-1-.35-1.8-.51-2.57a4.69,4.69,0,0,0,0-.84c-.63-4-1.26-7.94-1.92-11.9C101.22,222.53,100.73,219.74,100.25,217Zm6,19.66.39,3c.93-.33,1.65-.56,2.35-.84a107.77,107.77,0,0,1,16.49-5.4,33,33,0,0,1,11.3-.28c3.83.46,7.68.82,11.52,1.14,1.59.14,3.21,0,4.79.11q6.08.58,12.13,1.33c6.81.83,13.61,1.7,20.41,2.56,4.07.52,8.13,1.19,12.21,1.56,2.58.23,5.19,0,7.79.06s4.92.58,7.38.59a145.49,145.49,0,0,1,21.47,1.75c3.39.52,6.85.65,10.19,1.37,4.33.93,8.58,2.21,12.84,3.44,2.45.71,4.81,1.77,7.28,2.39,5.22,1.31,10.46,2.45,15.51,4.47,6.41,2.55,12.7,5.22,18.16,9.56A15.21,15.21,0,0,0,301,264.7c0-.5,0-.68-.07-.87-.49-2.62-1.11-5.22-1.47-7.86-.71-5.13-2.25-10.12-2.45-15.34-.12-3.11-.63-6.2-.75-9.3-.1-2.83.16-5.68.12-8.51-.07-5.39-.33-10.78-.37-16.17s.09-10.94.15-16.42v-1.6c-1.43,0-2.72-.1-4,0-4.48.4-8.95.88-13.43,1.32-2.74.26-5.48.48-8.21.75-6.74.68-13.35,2.36-20.16,2.68a102.63,102.63,0,0,0-10.44,1.3,93.8,93.8,0,0,1-15.15,1.12c-.72,0-1.44.06-2.15.12-3.34.31-6.66.72-10,.92-5,.31-10.05.46-15.07.71-3.11.16-6.22.4-9.33.55-1.58.08-3.17,0-4.74.09-5,.42-10,.9-15,1.39-5.2.5-10.4,1.05-15.6,1.56a61,61,0,0,0-6.78.62c-4.76,1-9.46,2.3-14.2,3.41-2.67.63-5.41,1-8.06,1.7-4.25,1.1-8.44,2.41-12.68,3.57-2.87.79-5.78,1.47-8.77,2.22l.64,3.56c.63,4,1.25,7.94,1.89,11.9C105.34,231,105.83,233.79,106.3,236.62ZM69.11,221l0,.26c-.76.15-1.52.34-2.28.42a52.39,52.39,0,0,0-11.15,2.18c-4.54,1.53-9.23,2.63-13.41,5.1a3.68,3.68,0,0,0-1.46,1.32c-1.11,2.23-2.17,4.5-3.08,6.81-.77,2-1.32,4-2,6a2.77,2.77,0,0,0-.1.81c0,1.17-.06,2.33-.09,3.5h-.39l-.29-1.4-.27,0-2.33,6a8.24,8.24,0,0,0,5.87-2.85,31.62,31.62,0,0,0,5.9-9.11,9.8,9.8,0,0,1,3.5-4.32,27,27,0,0,1,10.48-3.9,85.65,85.65,0,0,0,8.58-1.71,12.21,12.21,0,0,1,6,.11,4,4,0,0,1,1,.51l0,.34c-1,.13-2.09.27-3.13.38s-1.65.83-1.47,1.56a17.48,17.48,0,0,0,1.63,3.44,80.71,80.71,0,0,1,7.06-6.7c-1.85,2.52-3.82,4.9-5.88,7.21a15.75,15.75,0,0,1-2.61,2.28c-3.87,2.73-7.79,5.4-11.68,8.12a4.43,4.43,0,0,0-.73.87c3.88-1.72,6.58-2.67,8-.43-2.53-1-6.6.74-7.78,3.51a6.78,6.78,0,0,0,1.39.49,12.09,12.09,0,0,0,7.1-1c2.31-1.17,4.74-2.13,7.09-3.22A41,41,0,0,1,83.43,244c2.86-.48,5.64-1.45,8.45-2.19a1.31,1.31,0,0,0,1-1.82,30.25,30.25,0,0,1-.72-3.27c-.31-2.37-.53-4.76-.74-7.14-.2-2.15-.28-4.31-.53-6.45s-.63-4.08-.93-6c-1,0-1.84,0-2.67,0l-12.78.78c-3.47.22-6.93.39-10.39.67-2,.15-3.41,1.47-5,2.48ZM68,231.53a43.77,43.77,0,0,0-6.89,1.34A14,14,0,0,0,56,236a84.77,84.77,0,0,0-5.95,7.5,4.2,4.2,0,0,0-.43,1.14l.35.21c4.06-1.6,7.8-3.65,10.4-7.37a14.88,14.88,0,0,1,1.27-1.58c1.25-1.33,3-1.66,4.62-2.09S68.05,233.21,68,231.53Zm-11.36,2a15.16,15.16,0,0,0-8.57,2.91,7.66,7.66,0,0,0-3.14,4,17,17,0,0,1-1.37,2.93c-.91,1.61-1.9,3.19-2.87,4.8a3.57,3.57,0,0,0,4-1.95,33.35,33.35,0,0,0,2.14-4.16,9.76,9.76,0,0,1,4.41-4.8C53.12,236.16,54.84,234.81,56.64,233.57ZM58.88,221s-.08.06-.07.08a.77.77,0,0,0,.07.16s.08,0,.08-.07A.65.65,0,0,0,58.88,221Z" />
        <polygon class="outline" points="303.47 270.98 303.45 270.87 303.41 270.97 303.47 270.98" />
        <path class="color-base"
            d="M534,458.39c-3.12.54-6.25,1.09-9.38,1.61l-12,2a5.58,5.58,0,0,1-.71,0c-.39-3.67-.8-7.34-1.16-11-.15-1.47-.17-2.94-.3-4.41-.29-3.28-.47-6.58-.95-9.84-.86-5.84-1.74-11.7-2.94-17.48-.86-4.2-2.26-8.28-3.4-12.41-1.41-5.06-3-10.09-4.15-15.2-1.77-7.7-3.29-15.47-4.87-23.21-1.21-6-2.35-11.93-3.52-17.89-1-5-1.92-10.07-3-15.07-.6-2.76-1.38-5.49-2.2-8.19-1.11-3.61-2.26-7.22-3.54-10.77-.65-1.79-1.66-3.45-2.46-5.19a4.88,4.88,0,0,1-.39-1.6q-.5-5.64-.94-11.28c0-.36,0-.72,0-1.08,0-5-.15-9.92,0-14.88s.65-9.67,1.14-14.49c.45-4.26.91-8.54,1.72-12.74a120,120,0,0,1,3.2-12.47c1.91-6.2,4.08-12.33,6.12-18.49,1.07-3.22,2.1-6.45,3.15-9.68a3.55,3.55,0,0,1,.8-1.39c.21,1.22.48,2.44.61,3.66.67,6,1.16,11.94,2,17.88.84,6.09,1.93,12.15,3,18.2s2.41,12.16,3.57,18.24c1,5.31,2,10.62,2.88,15.95q1.14,7,1.94,14c.52,4.58.76,9.19,1.26,13.77.64,5.76,1.31,11.51,2.18,17.24a44,44,0,0,0,2,7.61,230.59,230.59,0,0,1,7.76,30.14c1.56,7.86,2.85,15.78,4.08,23.7.62,4,.9,8.13,1.22,12.21.45,5.74.76,11.52,2.23,17.11,1.19,4.51,1.52,9.14,2.26,13.71.79,5,1.17,10,1.77,15C533.29,453.92,533.65,456.15,534,458.39Z" />
        <path class="transparent"
            d="M514.45,507.47c-.83-2.49-2.73-2.85-3.47-1.47.6.12,1.35.07,1.78.42a2.46,2.46,0,0,1,.49,2.89,12.88,12.88,0,0,1-1.74,3.11c-.55.76-1.24.61-1.45-.3a5.78,5.78,0,0,1-.16-2.57c1.35-5.89,2.84-11.74,4.2-17.62.95-4.1,2.35-8.12,2.2-12.41-.06-1.63-.15-3.25-.23-5.1l17.12-2.35c.2,2.54.36,4.84.56,7.13.5,5.84.73,11.71,2.37,17.39a2.89,2.89,0,0,1-.11,1.84q-4.26,9-8.64,18a4.82,4.82,0,0,1-1.15,1.36c-3.19,2.9-6.4,5.77-9.6,8.65a.69.69,0,0,1-.65.21l1.19-2a4.24,4.24,0,0,0-2.49,3.88,3,3,0,0,1-.33,1c-.32-.24-.89-.45-.93-.74a8.08,8.08,0,0,1,0-3,12.24,12.24,0,0,1,1.66-4c1.78-2.48,3.84-4.76,5.74-7.15a11.28,11.28,0,0,0,1.67-2.58,90.06,90.06,0,0,0,3.27-8.73,11.09,11.09,0,0,0-.06-4.44c-.26-1.88-.79-3.73-1.15-5.6a2.91,2.91,0,0,1,.12-1.37c1.14-3.57,2.35-7.12,3.45-10.7.4-1.33.56-2.73.83-4.1l-.46-.2a3.17,3.17,0,0,0-.19.42c-1.62,4.92-3.29,9.83-4.82,14.78a14.89,14.89,0,0,1-1.88,4.19c-2.19,3.24-4.22,6.6-6.31,9.9C515,506.6,514.78,507,514.45,507.47Z" />
        <path class="color-base"
            d="M512.14,464.44l22.06-3.26q.24,3.46.48,7c-2.9.39-5.61.74-8.32,1.13-4,.59-8.07,1.22-12.11,1.81-.6.09-1.08,0-1.19-.79C512.78,468.34,512.45,466.39,512.14,464.44Z" />
        <path class="transparent"
            d="M523.4,497.26c.57,1.77,1.15,3.54,1.67,5.33a1.56,1.56,0,0,1-.15.91c-1.11,3-2.21,6.06-3.36,9.07a4.81,4.81,0,0,1-.95,1.47c-1.61,1.81-3.26,3.59-4.91,5.37a4.16,4.16,0,0,1-.81.7c-2.12,1.33-4.24,2.69-6.41,3.95a9,9,0,0,1-2,.64c-.24-1-.8-2.06-.65-3a5.52,5.52,0,0,1,3-3.71,50.34,50.34,0,0,1,6.83-3.37,5.66,5.66,0,0,0,3.75-3.53c1.1-3.27,2.2-6.54,3.18-9.85a28.91,28.91,0,0,0,.59-4Z" />
        <path class="color-shadow"
            d="M512.14,464.44c.31,1.95.64,3.9.92,5.86.11.78.59.88,1.19.79,4-.59,8.07-1.22,12.11-1.81,2.71-.39,5.42-.74,8.32-1.13q-.24-3.51-.48-7l1.59-.22c.32,3,.63,5.85.93,8.7-3.61.57-7.06,1.11-10.51,1.67l-11.09,1.79c-.47.07-1,.13-1.42.16-1.88.09-2.21-.12-2.67-1.94-.4-1.63-.71-3.27-1-4.91-.22-1.09-.18-2,1.33-1.9A6,6,0,0,0,512.14,464.44Z" />
        <path class="transparent"
            d="M521.94,496.9c.47,4.13-.63,7.88-2.27,11.51-.58,1.27-1.08,2.58-1.78,3.78a3.37,3.37,0,0,1-1.55,1.11c-.79.35-1.73.41-2.48.82a4.78,4.78,0,0,1-4.41.21c-1.39-.58-2.85-1-4.24-1.6-1.07-.46-1.14-1.2-.22-2,1.11-.91,2.42-.85,3.79-.73.06,1.39.14,2.73,1.35,3.69.86.69,1.58.77,2.25-.14s1.28-2.19,2-3.27c.23-.38.55-.85.93-1a3.46,3.46,0,0,0,2-2.05c1-1.79,2.05-3.51,2.94-5.33a38.67,38.67,0,0,0,1.49-4.11C521.81,497.56,521.86,497.22,521.94,496.9Z" />
        <path class="color-base"
            d="M534.19,460.27l-6.73,1-14.68,2.09a3.47,3.47,0,0,1-1.75-.16,4.07,4.07,0,0,1,1.06-.45q11-1.68,22.09-3.32Z" />
        <path class="transparent" d="M515.36,508.17l4.14-7.62.41.22-4.14,7.67Z" />
        <path class="transparent"
            d="M509.49,508.7l-3.13.31a2,2,0,0,1,2.24-1.28C508.87,507.77,509.09,508.25,509.49,508.7Z" />
        <path class="color-shadow" d="M534.19,460.27v-.85l1.58-.31C535.93,460.64,534.88,460.2,534.19,460.27Z" />
        <path class="transparent" d="M515,475l-.16,2.13C514.59,476.42,513.78,475.65,515,475Z" />
        <path class="color-base"
            d="M106.3,236.62c-.47-2.83-1-5.65-1.42-8.48-.64-4-1.26-7.93-1.89-11.9,1-.13,2.05-.25,3.07-.39l9.91-1.3c3-.39,6-.55,9-1.2,4.89-1.09,9.69-2.55,14.56-3.74,3.82-.93,7.66-1.79,11.53-2.49,2.77-.51,5.59-.74,8.39-1,4.42-.48,8.85-.92,13.27-1.38,1.78-.18,3.56-.36,5.33-.59,3.69-.5,7.38-1.09,11.08-1.55,2.68-.33,5.39-.47,8.07-.78,5.21-.59,10.4-1.27,15.61-1.86,4-.46,8.06-.83,12.09-1.23,5.69-.56,11.39-1.13,17.08-1.66q4.76-.43,9.51-.73c5.24-.35,10.49-.64,15.73-1,1.39-.09,2.78-.16,4.17-.28q5-.44,10-.92c1.93-.19,3.86-.44,5.8-.63s4.19-.36,6.29-.58c.89-.09,1.13.34,1,1.12-.19,1.58-.39,3.16-.55,4.74-.31,3-.81,5.92-.85,8.89-.18,12.43-.2,24.86-.3,37.29,0,1.09-.21,2.19-.34,3.43-4.17-1.18-8.24-2.43-12.36-3.46-5-1.26-10.1-2.53-15.22-3.46A116.06,116.06,0,0,0,251.94,240c-4.24-.28-8.5-.24-12.76-.28-4.74,0-9.48,0-14.22,0a21.22,21.22,0,0,1-3.56-.31c-4.18-.73-8.37-1.48-12.53-2.33s-8.53-1.87-12.79-2.81c-3-.67-6-1.41-9.09-2-3.23-.61-6.52-.94-9.74-1.61a82.67,82.67,0,0,0-18.35-2c-4.67.09-9.36,0-14,0-.47,0-.94-.1-1.42-.12-3-.18-6.06-.75-9.13.11-4.48,1.25-9,2.22-13.51,3.48C115.94,233.55,111.13,235.13,106.3,236.62Z" />
        <path class="color-shadow"
            d="M106.3,236.62c4.83-1.49,9.64-3.07,14.5-4.45,4.47-1.26,9-2.23,13.51-3.48,3.07-.86,6.09-.29,9.13-.11.48,0,.95.12,1.42.12,4.68,0,9.37.08,14,0a82.67,82.67,0,0,1,18.35,2c3.22.67,6.51,1,9.74,1.61,3,.57,6.06,1.31,9.09,2,4.26.94,8.52,1.94,12.79,2.81s8.35,1.6,12.53,2.33a21.22,21.22,0,0,0,3.56.31c4.74,0,9.48,0,14.22,0,4.26,0,8.52,0,12.76.28a116.06,116.06,0,0,1,12.89,1.46c5.12.93,10.18,2.2,15.22,3.46,4.12,1,8.19,2.28,12.36,3.46.13-1.24.33-2.34.34-3.43.1-12.43.12-24.86.3-37.29,0-3,.54-5.93.85-8.89.16-1.58.36-3.16.55-4.74.09-.78-.15-1.21-1-1.12-2.1.22-4.2.37-6.29.58s-3.87.44-5.8.63q-5,.48-10,.92c-1.39.12-2.78.19-4.17.28-5.24.32-10.49.61-15.73,1q-4.75.3-9.51.73c-5.69.53-11.39,1.1-17.08,1.66-4,.4-8.06.77-12.09,1.23-5.21.59-10.4,1.27-15.61,1.86-2.68.31-5.39.45-8.07.78-3.7.46-7.39,1.05-11.08,1.55-1.77.23-3.55.41-5.33.59-4.42.46-8.85.9-13.27,1.38-2.8.3-5.62.53-8.39,1-3.87.7-7.71,1.56-11.53,2.49-4.87,1.19-9.67,2.65-14.56,3.74-2.93.65-6,.81-9,1.2l-9.91,1.3c-1,.14-2,.26-3.07.39-.2-1.13-.41-2.26-.64-3.56,3-.75,5.9-1.43,8.77-2.22,4.24-1.16,8.43-2.47,12.68-3.57,2.65-.69,5.39-1.07,8.06-1.7,4.74-1.11,9.44-2.41,14.2-3.41a61,61,0,0,1,6.78-.62c5.2-.51,10.4-1.06,15.6-1.56,5-.49,10-1,15-1.39,1.57-.13,3.16,0,4.74-.09,3.11-.15,6.22-.39,9.33-.55,5-.25,10-.4,15.07-.71,3.34-.2,6.66-.61,10-.92.71-.06,1.43-.13,2.15-.12a93.8,93.8,0,0,0,15.15-1.12,102.63,102.63,0,0,1,10.44-1.3c6.81-.32,13.42-2,20.16-2.68,2.73-.27,5.47-.49,8.21-.75,4.48-.44,8.95-.92,13.43-1.32,1.26-.12,2.55,0,4,0v1.6c-.06,5.48-.19,11-.15,16.42s.3,10.78.37,16.17c0,2.83-.22,5.68-.12,8.51.12,3.1.63,6.19.75,9.3.2,5.22,1.74,10.21,2.45,15.34.36,2.64,1,5.24,1.47,7.86,0,.19,0,.37.07.87a15.21,15.21,0,0,1-2.44-1.28c-5.46-4.34-11.75-7-18.16-9.56-5.05-2-10.29-3.16-15.51-4.47-2.47-.62-4.83-1.68-7.28-2.39-4.26-1.23-8.51-2.51-12.84-3.44-3.34-.72-6.8-.85-10.19-1.37a145.49,145.49,0,0,0-21.47-1.75c-2.46,0-4.92-.48-7.38-.59s-5.21.17-7.79-.06c-4.08-.37-8.14-1-12.21-1.56-6.8-.86-13.6-1.73-20.41-2.56q-6-.73-12.13-1.33c-1.58-.15-3.2,0-4.79-.11-3.84-.32-7.69-.68-11.52-1.14a33,33,0,0,0-11.3.28,107.77,107.77,0,0,0-16.49,5.4c-.7.28-1.42.51-2.35.84Z" />
        <path class="transparent"
            d="M69.11,221h-10c1.58-1,3-2.33,5-2.48,3.46-.28,6.92-.45,10.39-.67l12.78-.78c.83-.05,1.66,0,2.67,0,.3,1.93.69,4,.93,6s.33,4.3.53,6.45c.21,2.38.43,4.77.74,7.14A30.25,30.25,0,0,0,92.9,240a1.31,1.31,0,0,1-1,1.82c-2.81.74-5.59,1.71-8.45,2.19a41,41,0,0,0-10.81,3.65c-2.35,1.09-4.78,2-7.09,3.22a12.09,12.09,0,0,1-7.1,1A6.78,6.78,0,0,1,57,251.3c1.18-2.77,5.25-4.52,7.78-3.51-1.46-2.24-4.16-1.29-8,.43a4.43,4.43,0,0,1,.73-.87c3.89-2.72,7.81-5.39,11.68-8.12A15.75,15.75,0,0,0,71.8,237c2.06-2.31,4-4.69,5.88-7.21a80.71,80.71,0,0,0-7.06,6.7A17.48,17.48,0,0,1,69,233c-.18-.73.51-1.45,1.47-1.56s2.08-.25,3.13-.38l0-.34a4,4,0,0,0-1-.51,12.21,12.21,0,0,0-6-.11,85.65,85.65,0,0,1-8.58,1.71,27,27,0,0,0-10.48,3.9,9.8,9.8,0,0,0-3.5,4.32,31.62,31.62,0,0,1-5.9,9.11A8.24,8.24,0,0,1,32.34,252l2.33-6,.27,0,.29,1.4h.39c0-1.17.05-2.33.09-3.5a2.77,2.77,0,0,1,.1-.81c.64-2,1.19-4.06,2-6,.91-2.31,2-4.58,3.08-6.81A3.68,3.68,0,0,1,42.31,229c4.18-2.47,8.87-3.57,13.41-5.1a52.39,52.39,0,0,1,11.15-2.18c.76-.08,1.52-.27,2.28-.42Z" />
        <path class="color-shadow"
            d="M103.62,238.06l.51,2.57c-2.48.53-4.88,1.07-7.29,1.54-1,.19-1.52-.52-1.66-1.36-.51-3.18-1.17-6.36-1.37-9.57-.23-3.82-.31-7.62-1.38-11.34s-.48-4.72,3.4-5.64a26.36,26.36,0,0,1,3.16-.63,1.17,1.17,0,0,1,1,.6,24.5,24.5,0,0,1,.29,2.73c-1,.15-2,.36-2.94.45a1.79,1.79,0,0,0-1.8,2.39c.25,1.07.58,2.14.74,3.22.42,2.86.75,5.73,1.15,8.59.36,2.53.76,5.06,1.17,7.79Z" />
        <path class="color-base"
            d="M103.62,238.06l-5.05,1.34c-.41-2.73-.81-5.26-1.17-7.79-.4-2.86-.73-5.73-1.15-8.59-.16-1.08-.49-2.15-.74-3.22a1.79,1.79,0,0,1,1.8-2.39c1-.09,2-.3,2.94-.45.48,2.78,1,5.57,1.43,8.36.66,4,1.29,7.93,1.92,11.9A4.69,4.69,0,0,1,103.62,238.06Z" />
        <path class="transparent"
            d="M68,231.53c0,1.68-.13,1.9-1.76,2.32s-3.37.76-4.62,2.09a14.88,14.88,0,0,0-1.27,1.58c-2.6,3.72-6.34,5.77-10.4,7.37l-.35-.21a4.2,4.2,0,0,1,.43-1.14A84.77,84.77,0,0,1,56,236a14,14,0,0,1,5.13-3.17A43.77,43.77,0,0,1,68,231.53Z" />
        <path class="transparent"
            d="M56.64,233.57c-1.8,1.24-3.52,2.59-5.4,3.69a9.76,9.76,0,0,0-4.41,4.8,33.35,33.35,0,0,1-2.14,4.16,3.57,3.57,0,0,1-4,1.95c1-1.61,2-3.19,2.87-4.8a17,17,0,0,0,1.37-2.93,7.66,7.66,0,0,1,3.14-4A15.16,15.16,0,0,1,56.64,233.57Z" />
        <path class="color-base"
            d="M102.12,216.49q1.56,9.66,3.12,19.32c.13.82.19,1.66.29,2.49l-1.09,0q-1.41-9.72-2.81-19.44c-.12-.79-.21-1.57-.32-2.36Z" />
        <path class="color-shadow" d="M102.12,216.49h-.81c-.13-.94-.3-1.87-.37-2.81,0-.25.26-.53.41-.79l.27.12Z" />
        <path class="color-shadow" d="M104.44,238.28l1.09,0c.34.84.68,1.67-.79,1.93Z" />
        <path class="transparent"
            d="M58.88,221a.65.65,0,0,1,.08.17s-.05.05-.08.07a.77.77,0,0,1-.07-.16S58.86,221.05,58.88,221Z" />
    </g>
</svg>
