<svg id="img_70" data-name="img 70" xmlns="http://www.w3.org/2000/svg" viewBox="0 0 672 960">
    <g id="img_68_img" data-name="img 68 img">
        <path class="outline"
            d="M416.44,289.37c1.17-.17,1,.69.87,1.55-.28,1.36-.53,2.74-.91,4.07a1.42,1.42,0,0,1-1,.86,41.13,41.13,0,0,1-4.84,0c-.25,0-.69-.73-.64-1.07.19-1.44.58-2.86.81-4.29.25-1.61.45-3.23.58-4.85,1.23-14.86.37-29.74.51-44.61.09-10.2.39-20.39.6-30.58a2.55,2.55,0,0,0,0-.38l-15.79,1.73c.08,1.51.23,3.25.24,5q.14,15.6.22,31.2c.05,8.31,0,16.63.11,25,0,3.22.37,6.45.72,9.66a31.29,31.29,0,0,0,1,4.08c.43,1.69.2,2.14-1.52,2.31a18,18,0,0,1-3.88-.08c-.37,0-.81-.64-1-1.07-.36-1.09-.54-2.23-.86-3.34s-.26-1.68,1-1.59c-1.61-11.52-1.59-23-1.36-34.51q.36-18.16.7-36.33a4.16,4.16,0,0,0,0-.55c-5.05-1.14-10-2.12-14.88-3.4a43.54,43.54,0,0,1-18.39-9.69c-4.71-4.27-9.33-8.78-12.18-14.93l-4.13,1.15a1.65,1.65,0,0,1-.69.16c-.57-.12-1.36-.15-1.64-.53a1.92,1.92,0,0,1-.09-1.73c1.93-3.4,4-6.73,5.95-10.11a38.77,38.77,0,0,0,4.55-12c1-5.24,2-10.49,3.07-15.71.32-1.56.92-3.05,1.33-4.59.55-2,2.09-2.64,3.94-2.82a9.43,9.43,0,0,1,1.68,0c2.1.17,4.2.28,6.28.58,2.79.39,5.57.84,8.32,1.44,4.51,1,9,2.15,13.48,3.16a22.93,22.93,0,0,0,13.59-1,119,119,0,0,1,20.35-5.89,107.08,107.08,0,0,1,11.85-2,113.87,113.87,0,0,1,14.07-.06,7.6,7.6,0,0,1,5.55,3.43c.66.9,1,2,1.62,3A35.8,35.8,0,0,0,459,144.4a7.86,7.86,0,0,1,2.29,7.08,34,34,0,0,0-.55,5.33,13.33,13.33,0,0,0,3.54,9.35,91.36,91.36,0,0,1,6.52,8.86,4.43,4.43,0,0,1-2.45,6.62c-1.5.51-3.11.75-4.58,1.34a75.51,75.51,0,0,0-7.84,3.51c-3.26,1.76-6.37,3.8-9.57,5.69-1,.56-2,1-3,1.52a25.36,25.36,0,0,0-3.16,2c-1.58,1.27-3,2.74-4.62,4-4,3-8.12,6-12.85,7.84a29.35,29.35,0,0,1-4.8,1.4c-.85.17-1.11.43-1.1,1.29.12,9.8.18,19.59.3,29.39.12,10.67.45,21.35.39,32C417.52,277.49,416.84,283.35,416.44,289.37Zm-3.2-90.91c-1,1.28-1.17,2.89-.62,3.5.19-1.06.41-2.27.63-3.48l.1-.2Zm-17.78-.69.2.13-.1-.24a15.78,15.78,0,0,0-1.52-1.43,1.51,1.51,0,0,0-2.15,0,1.65,1.65,0,0,0-.1,2.21c.24-.56.34-1.33.77-1.68.68-.53,1.41-.09,2,.44A6.75,6.75,0,0,0,395.46,197.77Zm-2.17,88.79c0,.74-.06,1.61,1,1.65s2.07,0,3.1,0c.57,0,1.08-.18.79-1a18.84,18.84,0,0,1-.48-2.54l-1.81-.15-3.07-.21Zm22.42,6.74.42-2.43-2.87.28-2.07.15a6.67,6.67,0,0,0-.05.76c0,1-1,2.15,0,2.79.74.49,2,.28,3,.29C415.53,295.14,415.63,295,415.71,293.3ZM385.18,179.49l-.14-.1.11.13a7.45,7.45,0,0,0,1.38,1c4.49,1.9,9.29,2.15,14.06,2.25a57.61,57.61,0,0,0,14.9-1.68c3.79-.93,7.55-2,11.31-3a6,6,0,0,0,1.26-.74l-.15-.28c-.92.25-1.82.52-2.74.74A109.65,109.65,0,0,1,396,181a30.26,30.26,0,0,1-3.93-.22C389.77,180.41,387.48,179.92,385.18,179.49Zm53.42,16c-3.27.76-6.53,1.51-9.79,2.3-3.76.92-7.56,1.75-11,3.74-.35.2-.87.55-.88.85-.08,1.81,0,3.62,0,5.77a38.63,38.63,0,0,0,5.45-1.66c2.95-1.41,5.82-3,8.62-4.69a33.15,33.15,0,0,0,7.72-6.19l.14-.15ZM413,249.58c0,13.5.58,27-1.31,40.55l3.48-.57c.17-1.23.39-2.43.49-3.65a9.52,9.52,0,0,0-.22-1.81,18.45,18.45,0,0,0,.51-2.52c.26-4.74.69-9.49.65-14.23-.07-9.86-.47-19.72-.61-29.58-.12-8.63-.08-17.26-.06-25.89,0-3.67.13-7.35.2-11,.09-.82.23-1.64.26-2.46,0-.56-.29-.72-.88-.5a2.93,2.93,0,0,0-1.93,2.79c-.1,2.95,0,5.9,0,8.85l-.2,5.93-.19,2.42-.06.75c0,1.08-.07,2.15-.08,3.23,0,3.68,0,7.36-.05,11q-.06,7.38-.11,14.74Zm-17.34-36,0-4.28-.13-.75-.06-.46c0-2.63.06-5.26,0-7.88,0-1.59-.82-2.37-2.6-2.89a4.28,4.28,0,0,0,.05,3.09c.07,5.83.27,11.67.19,17.5-.15,11-.57,22-.65,33.08-.05,7.79.26,15.58.46,23.37,0,1.27.28,2.53.43,3.8l.44,4.9,3.51.56c-.13-1.48-.27-2.89-.37-4.3-.32-4.68-.83-9.35-.9-14-.1-7,.17-14,.16-20.95,0-8.15-.11-16.29-.21-24.43C395.92,217.79,395.76,215.68,395.66,213.57Zm-3.58-7.41a3.19,3.19,0,0,0-1.49-3.59c-2.46-1.76-4.78-3.82-7.45-5.2a83.05,83.05,0,0,0-16.4-5.88c-4.61-1.25-9.39-1.84-13.8-3.82-.64-.28-1.31-.49-2-.73a19.92,19.92,0,0,0,2.39,3.27c3.66,4.34,7.43,8.55,12.47,11.42a51.08,51.08,0,0,0,13.09,5.45A54.56,54.56,0,0,0,392,209.65a6.15,6.15,0,0,0,.13-.74C392.11,208,392.09,207.08,392.08,206.16ZM343,182.92c.45-.11.9-.24,1.36-.34l3.79-.81c.06.17.06.42.18.5,1.72,1.16,3.4,2.39,5.2,3.41a30.4,30.4,0,0,0,5.39,2.53c6.72,2.26,13.52,4.28,20.21,6.59a31,31,0,0,1,6.55,3.38c2.24,1.46,4.26,3.27,6.64,5.13a12,12,0,0,0-.61-3.35,6.9,6.9,0,0,1-1-3.6c2.09-2.77,3.83-.58,5.71.41a3.71,3.71,0,0,0-.58-1.14c-1.63-2.11-3.26-4.24-4.94-6.32A103.39,103.39,0,0,0,378,175.71c-5.29-4.56-10.44-9.29-15.53-14.07a23,23,0,0,1-5.3-8.33,22.43,22.43,0,0,1-1.61-8.84,1,1,0,0,0-.32.5c-1,4.68-2,9.35-2.89,14a56.71,56.71,0,0,1-5.64,15.7c-1.4,2.64-2.53,5.42-3.77,8.14l-.09.15Zm74.35,12.66,1,1.42-.14,1.73c2.6-.74,5-1.58,7.56-2.12,4-.88,8.14-1.53,12.2-2.33,5.53-1.09,10.23-4,14.86-7,3.65-2.37,7.08-5.09,11.22-6.62a25.12,25.12,0,0,0,2.93-1.37,3,3,0,0,0,1.21-4.06c-1.88-3.11-3.86-6.16-5.68-9.3a26.09,26.09,0,0,1-2.25-4.86c-1.06-3.19-.82-6.54-.89-9.85a7.36,7.36,0,0,0-1-3.61,34.61,34.61,0,0,0-3.43-4.06,53.88,53.88,0,0,1-2.34,5.23,141.76,141.76,0,0,1-15.57,22c-5.9,6.78-12.28,13.12-18.41,19.7-5,5.37-10,10.77-14.88,16.27-.43.48-.12,1.87.2,2.69.21.53,2.47-.14,3-.76,1.38-1.71,2.81-3.37,4.17-5.1a2.8,2.8,0,0,0,.47-1.35,25.62,25.62,0,0,1,.35-3.3C412.59,196.55,415.3,195,417.33,195.58Zm-8.45-15.86a6.48,6.48,0,0,0,1.18,0q9.26-1.71,18.51-3.47a2.19,2.19,0,0,0,1.1-.61,159.14,159.14,0,0,0,13.79-16.12c2.83-3.86,5.74-7.67,8.47-11.61a9.15,9.15,0,0,0,1.21-6.8c-.51-3.2-3-4.85-6-4.95a145,145,0,0,0-15.32.32,99.93,99.93,0,0,0-11.11,1.78c-5.17,1-10.4,1.7-15.33,3.69-.8.33-1.12.69-1.06,1.55.24,3.57.35,7.16.66,10.72s.64,7.06,1.19,10.55C407,169.71,408,174.62,408.88,179.72Zm-4.05-15.23.32-.06c-.85-7.05-1.69-14.1-2.56-21.3-.59.24-1,.38-1.39.58-4.13,2.09-8.49,2-12.86,1.13q-7.63-1.54-15.2-3.36A54.81,54.81,0,0,0,359.52,140a1.85,1.85,0,0,0-1.8,1.08c-.91,1.63-.59,3.3-.41,5a21,21,0,0,0,6.19,13.29c5.55,5.36,11.22,10.59,16.87,15.84,1,1,2,2.2,3.74,1.93.14,0,.3.09.45.13,3,.85,6,2.09,9.08,2.43a113,113,0,0,0,12.08.2,4.9,4.9,0,0,0,1-.23,31.21,31.21,0,0,0-.33-5.17c-.45-2,.18-4.15-1.82-6-1.72-1.57-1.5-4.19-.69-6.74Zm18.28,17.76c-2.83.41-5.54.74-8.22,1.22-3.25.58-6.47,1.35-9.72,1.92a27,27,0,0,1-14.46-1.13c-.51-.19-1-.33-1.47-.47,4.1,5.58,8.2,11.14,12.34,16.75l.56-.45c5-4,9.89-8.07,14.89-12A36.18,36.18,0,0,0,423.11,182.25Zm-26,15.81c.49,1.8.76,3.53-.52,5.11a.8.8,0,0,0-.14.45q0,3.13,0,6.31h4.64A17.84,17.84,0,0,0,397.12,198.06Zm15.55-4.52-.11-.19a6.91,6.91,0,0,0-1.16.65q-4.22,3.52-8.4,7.1c-1.15,1-1.15,2.08,0,3.37Zm-.2,10.93-4.59,4.3.22.3c.35,0,.7,0,1-.08C412.79,208.6,412.79,208.6,412.47,204.47Zm2.3-7.45c1.7-.2,2.7.26,2.25,2.14.73-1.36.64-2.55-.21-2.91A1.48,1.48,0,0,0,414.77,197Zm-18.21.19s.08-.05.08-.08-.05-.06-.07-.09-.07.06-.07.09S396.54,197.18,396.56,197.21Z" />
        <path class="color-shadow-dark"
            d="M408.88,179.72c-.92-5.1-1.89-10-2.67-15-.55-3.49-.89-7-1.19-10.55s-.42-7.15-.66-10.72c-.06-.86.26-1.22,1.06-1.55,4.93-2,10.16-2.7,15.33-3.69a99.93,99.93,0,0,1,11.11-1.78,145,145,0,0,1,15.32-.32c3,.1,5.45,1.75,6,4.95a9.15,9.15,0,0,1-1.21,6.8c-2.73,3.94-5.64,7.75-8.47,11.61a159.14,159.14,0,0,1-13.79,16.12,2.19,2.19,0,0,1-1.1.61q-9.26,1.77-18.51,3.47A6.48,6.48,0,0,1,408.88,179.72Z" />
        <path class="color-shadow-dark"
            d="M404.83,164.49l-.92-2.66c-.81,2.55-1,5.17.69,6.74,2,1.83,1.37,4,1.82,6a31.21,31.21,0,0,1,.33,5.17,4.9,4.9,0,0,1-1,.23,113,113,0,0,1-12.08-.2c-3.08-.34-6.06-1.58-9.08-2.43-.15,0-.31-.16-.45-.13-1.72.27-2.7-.95-3.74-1.93-5.65-5.25-11.32-10.48-16.87-15.84a21,21,0,0,1-6.19-13.29c-.18-1.71-.5-3.38.41-5a1.85,1.85,0,0,1,1.8-1.08,54.81,54.81,0,0,1,13.62,1.44q7.56,1.83,15.2,3.36c4.37.88,8.73,1,12.86-1.13.39-.2.8-.34,1.39-.58.87,7.2,1.71,14.25,2.56,21.3Z" />
        <path class="color-base"
            d="M390.73,196.36a6.9,6.9,0,0,0,1,3.6,12,12,0,0,1,.61,3.35c-2.38-1.86-4.4-3.67-6.64-5.13a31,31,0,0,0-6.55-3.38c-6.69-2.31-13.49-4.33-20.21-6.59a30.4,30.4,0,0,1-5.39-2.53c-1.8-1-3.48-2.25-5.2-3.41-.12-.08-.12-.33-.18-.5,2.69-8.79,5.38-17.57,8.08-26.41a4.53,4.53,0,0,1,.26.6c1.8,5.91,5.36,10.71,9.57,15.09a101.83,101.83,0,0,0,14.06,11.63c2.39,1.72,4.83,3.54,6.37,6.21C387.9,191.37,389.31,193.87,390.73,196.36Z" />
        <path class="color-shadow"
            d="M417.33,195.58c-2-.63-4.74,1-5.4,3.35a25.62,25.62,0,0,0-.35,3.3,2.8,2.8,0,0,1-.47,1.35c-1.36,1.73-2.79,3.39-4.17,5.1-.49.62-2.75,1.29-3,.76-.32-.82-.63-2.21-.2-2.69,4.87-5.5,9.86-10.9,14.88-16.27,6.13-6.58,12.51-12.92,18.41-19.7a141.76,141.76,0,0,0,15.57-22,53.88,53.88,0,0,0,2.34-5.23,34.61,34.61,0,0,1,3.43,4.06,7.36,7.36,0,0,1,1,3.61c.07,3.31-.17,6.66.89,9.85a26.09,26.09,0,0,0,2.25,4.86c1.82,3.14,3.8,6.19,5.68,9.3a3,3,0,0,1-1.21,4.06,25.12,25.12,0,0,1-2.93,1.37c-4.14,1.53-7.57,4.25-11.22,6.62-4.63,3-9.33,5.89-14.86,7-4.06.8-8.16,1.45-12.2,2.33-2.51.54-5,1.38-7.56,2.12l.14-1.73c.68-.4,1.38-.78,2-1.23a38.23,38.23,0,0,1,14-6.45c4-.83,7.84-2,11.74-3.09a2.41,2.41,0,0,0,1.2-1.14,17.87,17.87,0,0,0,.76-2.13c.46-1.19.94-2.36,1.41-3.55l.25.09-1.51,5.93a23.2,23.2,0,0,0,2.07-1.12c1.64-1.13,3.19-2.4,4.89-3.43,2.82-1.71,5.73-3.27,8.58-4.94.37-.22.86-.81.79-1.1a18.57,18.57,0,0,0-1.32-4,23.94,23.94,0,0,0-2.34-3.31,25,25,0,0,1-4.84-9.77c-.34-1.61-.47-3.27-.72-5-.18.26-.32.43-.43.62A85.58,85.58,0,0,1,440,173.26c-2,2-3.95,4.06-5.89,6.13-4.28,4.57-8.53,9.16-13.57,12.94A31,31,0,0,0,417.33,195.58Z" />
        <path class="color-base"
            d="M417.33,195.58a31,31,0,0,1,3.23-3.25c5-3.78,9.29-8.37,13.57-12.94,1.94-2.07,3.87-4.15,5.89-6.13a85.58,85.58,0,0,0,14.88-19.94c.11-.19.25-.36.43-.62.25,1.77.38,3.43.72,5a25,25,0,0,0,4.84,9.77,23.94,23.94,0,0,1,2.34,3.31,18.57,18.57,0,0,1,1.32,4c.07.29-.42.88-.79,1.1-2.85,1.67-5.76,3.23-8.58,4.94-1.7,1-3.25,2.3-4.89,3.43a23.2,23.2,0,0,1-2.07,1.12l1.51-5.93-.25-.09c-.47,1.19-1,2.36-1.41,3.55a17.87,17.87,0,0,1-.76,2.13,2.41,2.41,0,0,1-1.2,1.14c-3.9,1.09-7.78,2.26-11.74,3.09a38.23,38.23,0,0,0-14,6.45c-.65.45-1.35.83-2,1.23Z" />
        <path class="color-shadow"
            d="M390.73,196.36c-1.42-2.49-2.83-5-4.26-7.47-1.54-2.67-4-4.49-6.37-6.21A101.83,101.83,0,0,1,366,171.05c-4.21-4.38-7.77-9.18-9.57-15.09a4.53,4.53,0,0,0-.26-.6c-2.7,8.84-5.39,17.62-8.08,26.41l-3.79.81c-.46.1-.91.23-1.36.34l-.07-.07c1.24-2.72,2.37-5.5,3.77-8.14a56.71,56.71,0,0,0,5.64-15.7c.91-4.69,1.92-9.36,2.89-14a1,1,0,0,1,.32-.5,22.43,22.43,0,0,0,1.61,8.84,23,23,0,0,0,5.3,8.33c5.09,4.78,10.24,9.51,15.53,14.07a103.39,103.39,0,0,1,12.95,13.6c1.68,2.08,3.31,4.21,4.94,6.32a3.71,3.71,0,0,1,.58,1.14C394.56,195.78,392.82,193.59,390.73,196.36Z" />
        <path class="color-shadow-dark"
            d="M423.11,182.25a36.18,36.18,0,0,1-6.08,5.8c-5,4-9.93,8-14.89,12l-.56.45c-4.14-5.61-8.24-11.17-12.34-16.75.44.14,1,.28,1.47.47a27,27,0,0,0,14.46,1.13c3.25-.57,6.47-1.34,9.72-1.92C417.57,183,420.28,182.66,423.11,182.25Z" />
        <path class="color-shadow"
            d="M378.93,207.08a51.08,51.08,0,0,1-13.09-5.45c-5-2.87-8.81-7.08-12.47-11.42a19.92,19.92,0,0,1-2.39-3.27c.65.24,1.32.45,2,.73,4.41,2,9.19,2.57,13.8,3.82a83.05,83.05,0,0,1,16.4,5.88c2.67,1.38,5,3.44,7.45,5.2a3.19,3.19,0,0,1,1.49,3.59,2.28,2.28,0,0,1-.62-.33c-4-4.16-9.37-5.8-14.64-7.49-2.93-1-6-1.39-9.06-2.05l-5.43-1.18a33.66,33.66,0,0,0,5.34,4.76c3.44,2.29,7.05,4.34,10.57,6.51A3.82,3.82,0,0,1,378.93,207.08Z" />
        <path class="color-base"
            d="M378.93,207.08a3.82,3.82,0,0,0-.69-.7c-3.52-2.17-7.13-4.22-10.57-6.51a33.66,33.66,0,0,1-5.34-4.76l5.43,1.18c3,.66,6.13,1.1,9.06,2.05,5.27,1.69,10.61,3.33,14.64,7.49a2.28,2.28,0,0,0,.62.33c0,.92,0,1.83,0,2.75a6.15,6.15,0,0,1-.13.74A54.56,54.56,0,0,1,378.93,207.08Z" />
        <path class="color-base"
            d="M416.13,200.86c-.07,3.67-.19,7.35-.2,11,0,8.63-.06,17.26.06,25.89.14,9.86.54,19.72.61,29.58,0,4.74-.39,9.49-.65,14.23a18.45,18.45,0,0,1-.51,2.52l-.91,1.14a4.21,4.21,0,0,1-.09-1.47c.08-5.3.26-10.61.22-15.92-.05-6.17-.35-12.35-.43-18.52-.05-3.47.23-6.94.19-10.4-.09-7.54-.3-15.07-.47-22.6,0-.16.05-.36,0-.47a2.69,2.69,0,0,0-.53-.39c.07-2,.13-3.95.2-5.93a2.93,2.93,0,0,0,.35-.68c.42-2.3.8-4.61,1.24-6.91C415.27,201.45,415.29,200.76,416.13,200.86Z" />
        <path class="color-base"
            d="M393.32,278.15c-.15-1.27-.4-2.53-.43-3.8-.2-7.79-.51-15.58-.46-23.37.08-11,.5-22,.65-33.08.08-5.83-.12-11.67-.19-17.5.65-.25.82.14.92.67.39,2.13.79,4.27,1.21,6.39,0,.23.27.41.42.62l.06.46.13.75,0,4.28c-.14.21-.38.41-.4.63-.11,1.06-.2,2.13-.24,3.2-.18,4.82-.37,9.63-.47,14.45-.05,2.06.23,4.13.19,6.2-.1,5.06-.4,10.11-.43,15.16,0,6.11.14,12.21.22,18.31,0,.24.06.47.06.71v6.55Z" />
        <path class="color-shadow-dark"
            d="M413.39,215.47a2.69,2.69,0,0,1,.53.39c.08.11,0,.31,0,.47.17,7.53.38,15.06.47,22.6,0,3.46-.24,6.93-.19,10.4.08,6.17.38,12.35.43,18.52,0,5.31-.14,10.62-.22,15.92a4.21,4.21,0,0,0,.09,1.47l.91-1.14a9.52,9.52,0,0,1,.22,1.81c-.1,1.22-.32,2.42-.49,3.65l-3.48.57c1.89-13.54,1.32-27.05,1.31-40.55l-.1-1.93q0-7.36.11-14.74c0-3.68,0-7.36.05-11,0-1.08.05-2.15.08-3.23l.06-.75Z" />
        <path class="color-shadow-dark"
            d="M393.32,278.15l1.27.63v-6.55c0-.24-.06-.47-.06-.71-.08-6.1-.25-12.2-.22-18.31,0-5.05.33-10.1.43-15.16,0-2.07-.24-4.14-.19-6.2.1-4.82.29-9.63.47-14.45,0-1.07.13-2.14.24-3.2,0-.22.26-.42.4-.63.1,2.11.26,4.22.29,6.33.1,8.14.21,16.28.21,24.43,0,7-.26,14-.16,20.95.07,4.68.58,9.35.9,14,.1,1.41.24,2.82.37,4.3l-3.51-.56Z" />
        <path class="color-shadow"
            d="M438.72,195.62a33.15,33.15,0,0,1-7.72,6.19c-2.8,1.69-5.67,3.28-8.62,4.69a38.63,38.63,0,0,1-5.45,1.66c0-2.15,0-4,0-5.77,0-.3.53-.65.88-.85,3.4-2,7.2-2.82,11-3.74,3.26-.79,6.52-1.54,9.79-2.3Z" />
        <path class="color-shadow-dark"
            d="M385.18,179.49c2.3.43,4.59.92,6.91,1.27A30.26,30.26,0,0,0,396,181a109.65,109.65,0,0,0,29.15-3.15c.92-.22,1.82-.49,2.74-.74l.15.28a6,6,0,0,1-1.26.74c-3.76,1-7.52,2.07-11.31,3a57.61,57.61,0,0,1-14.9,1.68c-4.77-.1-9.57-.35-14.06-2.25a7.45,7.45,0,0,1-1.38-1Z" />
        <path class="color-shadow"
            d="M397.12,198.06a17.84,17.84,0,0,1,4,11.87h-4.64q0-3.18,0-6.31a.8.8,0,0,1,.14-.45C397.88,201.59,397.61,199.86,397.12,198.06Z" />
        <path class="color-shadow"
            d="M412.67,193.54,403,204.47c-1.11-1.29-1.11-2.39,0-3.37q4.19-3.58,8.4-7.1a6.91,6.91,0,0,1,1.16-.65Z" />
        <path class="color-shadow-dark"
            d="M416.13,200.86c-.84-.1-.86.59-.95,1.09-.44,2.3-.82,4.61-1.24,6.91a2.93,2.93,0,0,1-.35.68c0-2.95-.11-5.9,0-8.85a2.93,2.93,0,0,1,1.93-2.79c.59-.22.89-.06.88.5C416.36,199.22,416.22,200,416.13,200.86Z" />
        <path class="color-shadow-dark"
            d="M395.44,208.08c-.15-.21-.38-.39-.42-.62-.42-2.12-.82-4.26-1.21-6.39-.1-.53-.27-.92-.92-.67a4.28,4.28,0,0,1-.05-3.09c1.78.52,2.56,1.3,2.6,2.89C395.5,202.82,395.44,205.45,395.44,208.08Z" />
        <path class="color-shadow"
            d="M415.71,293.3c-.08,1.69-.18,1.84-1.6,1.84-1,0-2.26.2-3-.29-1-.64.07-1.83,0-2.79a6.67,6.67,0,0,1,.05-.76l2.07-.15a6,6,0,0,0-.37,1c-.07.38-.18.87,0,1.13s.68.14,1.05.13C414.53,293.38,415.12,293.33,415.71,293.3Z" />
        <path class="color-shadow-dark"
            d="M395.94,284.47l1.81.15a18.84,18.84,0,0,0,.48,2.54c.29.86-.22,1-.79,1-1,.05-2.07,0-3.1,0s-1-.91-1-1.65l1.67,0,1.36,0c-.08-.51-.17-1-.26-1.55C396,284.86,396,284.67,395.94,284.47Z" />
        <path class="color-shadow" d="M412.47,204.47c.32,4.13.32,4.13-3.32,4.52-.35,0-.7.06-1,.08l-.22-.3Z" />
        <path class="color-base"
            d="M395.94,284.47c0,.2.09.39.12.58.09.52.18,1,.26,1.55l-1.36,0-1.67,0c-.14-.75-.27-1.5-.42-2.3Z" />
        <path class="color-base"
            d="M415.71,293.3c-.59,0-1.18.08-1.77.08-.37,0-.92.07-1.05-.13s-.07-.75,0-1.13a6,6,0,0,1,.37-1l2.87-.28Z" />
        <path class="color-shadow-dark"
            d="M395.46,197.77a6.75,6.75,0,0,1-.88-.59c-.61-.53-1.34-1-2-.44-.43.35-.53,1.12-.77,1.68a1.65,1.65,0,0,1,.1-2.21,1.51,1.51,0,0,1,2.15,0,15.78,15.78,0,0,1,1.52,1.43Z" />
        <path class="color-shadow-dark"
            d="M414.77,197a1.48,1.48,0,0,1,2-.77c.85.36.94,1.55.21,2.91C417.47,197.28,416.47,196.82,414.77,197Z" />
        <path class="color-shadow-dark" d="M413.26,198.48l-.64,3.48c-.55-.61-.36-2.22.62-3.5Z" />
        <path class="color-shadow-dark" d="M412.9,247.65l.1,1.93Z" />
        <path class="color-shadow-dark" d="M395.63,209.29l-.13-.75Z" />
        <path class="color-shadow-dark" d="M413.2,217.89l-.06.75Z" />
        <path class="color-shadow" d="M438.6,195.5l.26,0-.14.15Z" />
        <path class="color-shadow-dark" d="M413.24,198.46l.11-.18a1.86,1.86,0,0,1-.1.2Z" />
        <path class="color-shadow" d="M343,182.92l-.16.08.09-.15Z" />
        <path class="color-shadow-dark" d="M385.15,179.52l-.11-.13.14.1Z" />
        <path class="color-shadow-dark" d="M395.56,197.66l.1.24-.2-.13Z" />
        <path class="color-shadow"
            d="M396.56,197.21s-.06-.06-.06-.08,0-.06.07-.09.07.06.07.09S396.59,197.18,396.56,197.21Z" />
    </g>
</svg>
