<svg id="img_70" data-name="img 70" xmlns="http://www.w3.org/2000/svg" viewBox="0 0 672 960">
    <g id="img_62_img" data-name="img 62 img">
        <path class="outline"
            d="M351.65,154.81l.1-.5.37-1.66.12-.5a3.62,3.62,0,0,0,.28-.6c.61-2.12,1.2-4.24,1.81-6.36.23-.78.52-1.54.78-2.32a6.53,6.53,0,0,1,3.62-3.94c3.48-1.53,7.15-1.56,10.78-1.85,1.27-.11,2.61.64,3.93.93,4.39,1,8.75,2.09,13.18,2.78a16.55,16.55,0,0,0,9.6-1.82,78.3,78.3,0,0,1,24.65-7.23c1.9-.21,3.81-.45,5.71-.7a2.26,2.26,0,0,0,.58-.25h2.64l3.6,1V132l-3.87.18-.43,0-2.44.23h-.44c-5.54,1.17-11.1,2.31-16.63,3.54a42.6,42.6,0,0,0-10.54,3.47,1.53,1.53,0,0,0-.79,1.08c.17,3.22.31,6.45.71,9.65.57,4.65,1.31,9.29,2,13.93.35,2.18.85,4.33,1.28,6.53l5.55-2.13.22.49-3,1.71-.73.26-.24.17-9.35,2.22c-.36,0-.72,0-1.07,0-3.8.27-7.63.41-11.26-.88a77.44,77.44,0,0,1-7.95-3.59,36.27,36.27,0,0,1-5.21-2.9c-3-2.16-5.89-4.51-8.81-6.81-3.29-2.59-4.69-6.12-5-10.18v-.88l.15-2,.17-1-.31-.09-.36,1-3.22,10.46Zm47.66,6.83.31-.08c-1-6.9-2-13.8-3-20.87a13.63,13.63,0,0,0-1.63.73,13.82,13.82,0,0,1-9.38,1.6c-3.11-.43-6.17-1.27-9.27-1.82-4.69-.82-9.31-2.19-14.19-1.36a5.44,5.44,0,0,0-4.9,5,15.18,15.18,0,0,0-.09,2.13c.12,2.39.1,4.88,1.51,6.92,2.33,3.37,4.58,6.85,8.4,8.84a12.51,12.51,0,0,1,3,2.14,10.52,10.52,0,0,0,3.88,2.72,10.71,10.71,0,0,1,2.64,1.12,15.88,15.88,0,0,0,7.8,3l.12,0c2.18.42,4.27,1.42,6.57,1,3.07-.55,6.12-1.13,9.18-1.67.68-.11.87-.45.77-1.07-.19-1.05-.36-2.11-.53-3.16-2-.83-3.11-5-1.93-7.47Z" />
        <path class="outline"
            d="M433.4,132v-.22a51.78,51.78,0,0,1,6.71,2.1,11.65,11.65,0,0,1,5.14,5.33,21.1,21.1,0,0,0,2.89,3.61c.63.72,1.44,1.27,2.11,2a4,4,0,0,1,1.22,4.06,7.76,7.76,0,0,0,.83,6c.34.67.62,1.37.92,2.06l.06,1.27-.11.67-.17,1c.14.95.27,1.89.41,2.84l.3.58c1.17,1.09,2.38,2.15,3.5,3.3,1.8,1.85,3.51,3.79,5.3,5.66,2.09,2.2,1,5.36-1.84,6.37a69.93,69.93,0,0,0-8.29,3.72,12.38,12.38,0,0,0-2.77,2.47c-2.77,2.82-5.5,5.66-8.25,8.5-.87,0-.62-.67-.58-1.14.07-.71.25-1.41.28-2.13.09-2.6.13-5.21.19-7.81,0-2.13-.23-2.34-2.31-1.76l-.23.06,0-.49c2.49,0,2.69-.25,2.27-2.58,0-.08-.05-.16-.06-.23-.51-4.84-2.36-9.41-2.83-14.28a16.72,16.72,0,0,1,0-5.69,5,5,0,0,0,0-1.17h-1.8v-.33c1.72.1,2.39-1.09,2.48-3.16l-2.21.18,0-.58.93-.14-.51-1.05a11.43,11.43,0,0,0,1.87-1.17,13.05,13.05,0,0,0,1.39-1.91,1.77,1.77,0,0,0-2.37.21c-.94,1.07-1.79,2.22-2.67,3.33l-.68.17c-.06.51,1.2.84,0,1.29l-.81-1.13a27.64,27.64,0,0,1,2.31-2.85c1-.94,2.08-2.22,3.27-2.4A5,5,0,0,0,443,144a4.67,4.67,0,0,0,1-2.3,6.33,6.33,0,0,0-2.83-5.54C438.68,134.57,436,133.33,433.4,132Zm8.12,18.23a18.18,18.18,0,0,0-2.21,8.24c-.22,2.64-.64,5.24.28,7.91a56.09,56.09,0,0,1,3.07,22l-.24,2.62c.6-.46.93-.67,1.2-.93,1.41-1.42,2.87-2.79,4.18-4.29a29.34,29.34,0,0,1,8.45-7.11c1.24-.64,2.42-1.38,3.62-2.1s1.81-2.28,1.16-3.14a79.76,79.76,0,0,0-5.94-7.47,10,10,0,0,1-3.24-7.18,26.82,26.82,0,0,0-.37-3.43c-.26-2-.49-4-.8-6-.17-1.12-.18-2.45-.81-3.29a46.72,46.72,0,0,0-4.34-4.55c-.68,1.44-1.28,2.68-1.86,3.93C442.94,147,442.24,148.62,441.52,150.2Z" />
        <path class="outline"
            d="M432.64,201c-3.11,2.45-6.76,3.91-10.36,5.38-2.52,1-5.22,1.6-7.84,2.37l-.72.07-2.88.42-.72.09-3.85.37-1.43.1-1.2.15-.48.1-2.4.39-.48,0-2.88.2-.48,0-1.43.06-1.44-.09-1.92-.15-1-.09-.72-.13-.95-.14-.49-.09-.72-.12-1-.17-.47-.1-.73-.09-.48-.12-1-.15-.72-.1a34.45,34.45,0,0,1-11.09-3.55,135.57,135.57,0,0,1-12.44-7.32c-2.39-1.66-4.19-4.19-6.26-6.33l-2.94-2.9-1.62-1.65-1.08-1.27c-.1,0-.14-.06-.13-.16l-.6-.8c-.1,0-.14-.07-.11-.17-.51-2-1-2.26-2.95-1.7a16.81,16.81,0,0,1-3.13.61,1.74,1.74,0,0,1-1.28-.66,1.47,1.47,0,0,1,0-1.28c.51-1,1.24-1.85,1.75-2.83.95-1.82,2.26-3.5,2.3-5.69a6,6,0,0,1,1.52-4.38,3.87,3.87,0,0,0,.57-1.25h0l.66.1-.9,1.88c-.19.23-.56.46-.56.68,0,1.29.08,2.58.14,3.87l-.07.49-1.06,3-.37,1.06-.59,1.1-1.1,2.51-.23.46.56-.11,1.06-.17.62-.3.49-.1.71-.13c.82-.27,1.63-.58,2.39.12a.17.17,0,0,1,0,.12l3.19,1.77.44.31c.12.2.19.47.36.58a24.86,24.86,0,0,0,7.38,3.71,17.05,17.05,0,0,1,2.56.93c.1,0,.09.37.13.57l-1.06-.22-.47-.16-1.21-.31-.48-.14-.49-.11-2.76-1-4.42-2-1.16-1-.31.37,1,.87,5.44,5.9c1.25,1.34,2.39,2.81,3.76,4,4,3.49,8.71,5.9,13.49,8.14,1.64.77,3.41,1.26,5.13,1.88l.69.36.5.14,1.44.42,1.43.33,6.25,1.06,1.58.3,3.46.27,3.6-.09,1.68,0H400l.51-.08.69-.12.74-.13.94-.14.76-.07.92-.11,1.68-.05h3.12l.75-.12,1.42-.4,1.42-.41c2.15-.39,4.43-.44,6.41-1.25,4.35-1.77,8.54-3.93,12.8-5.93Z" />
        <path class="outline"
            d="M438.68,180l0,.49c.08.95.15,1.89.23,2.83v.33c-.08,1.72-.15,3.44-.23,5.16v.39l-.24,2.74-.06.4-.11.62-.29.6-.5,3.27L432.64,201l-.44-.4a10.94,10.94,0,0,1,1.23-.92,3.56,3.56,0,0,0,2.24-3.46l-.88-.44,1.37-1.17.13-.48v-1l.38-2.66.08-.71.16-1.69L437,187l0-1.7v-.45l-.07-2.89-.05-.71-.2-2.17,0-.47-.2-1.69-.07-.71-.17-1.21-.12-.7-.13-.74-.12-.7-.32-1.47-.11-.46-.15-.5-.1-.45-.6-2.19-.09-.46-.42-3.13.74-.25.53.69q1.28,4.09,2.54,8.21l-.21.71.19.74.15.49.18,1.63.06.74.21.93,0,.52V179l.1.5Z" />
        <path class="color-shadow"
            d="M437.51,196.81c.16-1.09.33-2.18.49-3.27l.48-.11,1.34-.37-.73-.65.08-.47c1.57-.52,1.57-.52,1.31-2.44l-1.06-.32-.71-.39c.08-1.72.15-3.44.23-5.16l1.13-.15-.06-.36-1.07.18c-.08-.94-.15-1.88-.23-2.83l.23-.06c2.08-.58,2.35-.37,2.31,1.76-.06,2.6-.1,5.21-.19,7.81,0,.72-.21,1.42-.28,2.13,0,.47-.29,1.11.58,1.14l-2.3,2.12-.63-.25-.05.15.59.19Z" />
        <path class="outline"
            d="M346.45,167.91a3.87,3.87,0,0,1-.57,1.25,6,6,0,0,0-1.52,4.38c0,2.19-1.35,3.87-2.3,5.69-.51,1-1.24,1.85-1.75,2.83a1.47,1.47,0,0,0,0,1.28,1.74,1.74,0,0,0,1.28.66,16.81,16.81,0,0,0,3.13-.61c2-.56,2.44-.31,2.95,1.7-.81-1.78-2.12-1.74-3.7-1.13a5,5,0,0,1-2.35.32,2.64,2.64,0,0,1-1.71-1,2.06,2.06,0,0,1,.26-1.7c1.79-3.1,3.91-6,4-9.87C344.21,170.11,345.43,169,346.45,167.91Z" />
        <path class="outline"
            d="M347.1,168l-.66-.1a23.44,23.44,0,0,0,3-6.86c.61-2.12,1.44-4.17,2.18-6.25.1.55.19,1.1.28,1.65-1.35,3.62-2.69,7.23-4.08,10.83C347.74,167.59,347.36,167.78,347.1,168Z" />
        <path class="outline"
            d="M355.11,142.87c-.26.78-.55,1.54-.78,2.32-.61,2.12-1.2,4.24-1.81,6.36a3.62,3.62,0,0,1-.28.6A22.71,22.71,0,0,1,355.11,142.87Z" />
        <path class="outline" d="M351.24,189.14l2.94,2.9Z" />
        <path class="outline" d="M352.12,152.65l-.37,1.66Z" />
        <path class="outline" d="M348.54,186.22l1.08,1.27Z" />
        <path class="outline" d="M404.84,209.82l1.43-.1Z" />
        <path class="outline" d="M394.05,210.69l1.44.09Z" />
        <path class="color-shadow" d="M453.28,158.13l-.06-1.27Z" />
        <path class="color-shadow" d="M453,159.81l.17-1Z" />
        <path class="outline" d="M389.5,210.18l.95.14Z" />
        <path class="outline" d="M391.17,210.45l1,.09Z" />
        <path class="outline" d="M347.81,185.26l.6.8Z" />
        <path class="outline" d="M413.72,208.84l.72-.07Z" />
        <path class="outline" d="M384,209.24l.72.1Z" />
        <path class="outline" d="M410.12,209.35l.72-.09Z" />
        <path class="outline" d="M388.29,210l.72.12Z" />
        <path class="color-shadow" d="M453.71,163.23l-.3-.58Z" />
        <path class="outline" d="M385.65,209.49l.48.12Z" />
        <path class="outline" d="M386.86,209.7l.47.1Z" />
        <path class="outline" d="M403.16,210.07l.48-.1Z" />
        <path class="outline" d="M400.28,210.5l.48,0Z" />
        <path class="outline" d="M396.92,210.72l.48,0Z" />
        <path class="color-base"
            d="M437,181.2l.05.71.07,2.89c0,.15,0,.3,0,.45,0,.57,0,1.13,0,1.7,0,.39-.07.78-.1,1.18-.05.56-.11,1.13-.16,1.69,0,.24-.05.47-.08.71-.13.88-.26,1.77-.38,2.66v1l-.13.48-1.37,1.17a2.58,2.58,0,0,0-.69.17,17.42,17.42,0,0,1-2.41,1.49c-2,.76-4.09,1.32-6.1,2.07a17.47,17.47,0,0,0-3.4,1.64c-2.92,1.92-5.77,3.93-8.64,5.93a3,3,0,0,0-.56.7l-1.42.41-1.42.4-.75.12h-3.12l-1.68.05-.92.11-.76.07-.94.14-.74.13-.69.12-.51.08h-.72l-1.68,0-3.6.09-3.46-.27-1.58-.3-6.25-1.06-1.43-.33-1.44-.42-.5-.14-.69-.36L376,204.77q-5.83-4-11.65-8.09a23.85,23.85,0,0,1-1.88-1.61l.16-.28,17.26,4.32c-.59-.53-.9-.88-1.27-1.14-1.93-1.34-3.85-2.68-5.81-4-1-.64-2-1.17-3.06-1.76a17,17,0,0,0-2-1c-5.49-1.8-11.08-3.35-15.93-6.69l-.44-.31-3.19-1.77a.17.17,0,0,0,0-.12,23.64,23.64,0,0,1,.41-2.94,14.37,14.37,0,0,0,.61-6.58,8.28,8.28,0,0,1,.14-3.32c.43-1.85,1-3.66,1.64-5.46.91-2.76,1.88-5.5,2.83-8.24,0-.12.21-.2.29-.28a15.91,15.91,0,0,0,1.52,1.7c2.68,2.24,5.43,4.41,8.09,6.68a54.58,54.58,0,0,0,13.91,8.29c4.47,1.94,9.18,2.22,13.94,1.93a16.92,16.92,0,0,0,3.21-.85l9.35-2.22.24-.17.73-.26a4.41,4.41,0,0,0,1.17-.16c2.63-1.23,5.23-2.55,7.88-3.75,4.06-1.82,8.23-3.42,12.21-5.41,2.65-1.33,5-3.18,7.54-4.77a2.52,2.52,0,0,1,.94-.13l-.12.7-.12.5c0,.24-.07.47-.1.7s-.09.34-.14.51l.09.48-.17.22-.18,1,.08.49-.16.21-.15,1.94v1a3.3,3.3,0,0,0,.66,3.13l.09.46.6,2.19.1.45.15.5.11.46c.11.49.22,1,.32,1.47l.12.7.13.74.12.7.17,1.21.07.71.2,1.69,0,.47C436.59,179.77,436.18,180.54,437,181.2Z" />
        <path class="color-shadow"
            d="M434.84,156.46a2.52,2.52,0,0,0-.94.13c-2.52,1.59-4.89,3.44-7.54,4.77-4,2-8.15,3.59-12.21,5.41-2.65,1.2-5.25,2.52-7.88,3.75a4.41,4.41,0,0,1-1.17.16l3-1.71-.22-.49-5.55,2.13c-.43-2.2-.93-4.35-1.28-6.53-.73-4.64-1.47-9.28-2-13.93-.4-3.2-.54-6.43-.71-9.65a1.53,1.53,0,0,1,.79-1.08A42.6,42.6,0,0,1,409.59,136c5.53-1.23,11.09-2.37,16.63-3.54h.44l2.44-.23.43,0,3.87-.18c2.61,1.36,5.28,2.6,7.78,4.14a6.33,6.33,0,0,1,2.83,5.54,4.67,4.67,0,0,1-1,2.3,5,5,0,0,1-3.74,2.54c-1.19.18-2.28,1.46-3.27,2.4a27.64,27.64,0,0,0-2.31,2.85l.81,1.13-4.7,3.86-.58.42-8.77,5.24.26.41A38.47,38.47,0,0,0,434.84,154l.44.14Zm-26.4,11.77,0,.56,3.71-2-.3-.54Zm3.66-2.12.23.49,6.46-3-.25-.53Zm7.76-3.85a1.63,1.63,0,0,0-.16.47c0,.09.19.24.25.23a.71.71,0,0,0,.29-.28A3.14,3.14,0,0,0,419.86,162.26Zm-.38.8s-.06-.08-.08-.08a1,1,0,0,0-.15.07s.05.08.07.07A.76.76,0,0,0,419.48,163.06Z" />
        <path class="color-shadow"
            d="M399.31,161.64l-.77-2.25c-1.18,2.49-.07,6.64,1.93,7.47.17,1,.34,2.11.53,3.16.1.62-.09,1-.77,1.07-3.06.54-6.11,1.12-9.18,1.67-2.3.41-4.39-.59-6.57-1l-.12,0a15.88,15.88,0,0,1-7.8-3,10.71,10.71,0,0,0-2.64-1.12,10.52,10.52,0,0,1-3.88-2.72,12.51,12.51,0,0,0-3-2.14c-3.82-2-6.07-5.47-8.4-8.84-1.41-2-1.39-4.53-1.51-6.92a15.18,15.18,0,0,1,.09-2.13,5.44,5.44,0,0,1,4.9-5c4.88-.83,9.5.54,14.19,1.36,3.1.55,6.16,1.39,9.27,1.82a13.82,13.82,0,0,0,9.38-1.6,13.63,13.63,0,0,1,1.63-.73c1,7.07,2,14,3,20.87Z" />
        <path class="color-shadow"
            d="M394.78,173.33a16.92,16.92,0,0,1-3.21.85c-4.76.29-9.47,0-13.94-1.93A54.58,54.58,0,0,1,363.72,164c-2.66-2.27-5.41-4.44-8.09-6.68a15.91,15.91,0,0,1-1.52-1.7c-.08.08-.25.16-.29.28-.95,2.74-1.92,5.48-2.83,8.24-.6,1.8-1.21,3.61-1.64,5.46a8.28,8.28,0,0,0-.14,3.32,14.37,14.37,0,0,1-.61,6.58,23.64,23.64,0,0,0-.41,2.94c-.76-.7-1.57-.39-2.39-.12l-.71.13-.49.1-.62.3-1.06.17-.33-.35c.37-.84.74-1.67,1.1-2.51l.59-1.1.37-1.06c.35-1,.71-2,1.06-3,0-.16,0-.32.07-.49.06-.41.16-.83.19-1.25.09-1.1.16-2.2.23-3.3l.9-1.88c.26-.24.64-.43.75-.73,1.39-3.6,2.73-7.21,4.08-10.83q1.62-5.22,3.22-10.46l.5.13-.15,2c0,.29,0,.58,0,.88.3,4.06,1.7,7.59,5,10.18,2.92,2.3,5.8,4.65,8.81,6.81a36.27,36.27,0,0,0,5.21,2.9,77.44,77.44,0,0,0,7.95,3.59c3.63,1.29,7.46,1.15,11.26.88C394.06,173.32,394.42,173.33,394.78,173.33Z" />
        <path class="outline" d="M355.65,146.13l-.5-.13.36-1,.31.09Z" />
        <path class="outline" d="M355.49,149c0-.3,0-.59,0-.88C355.5,148.4,355.5,148.69,355.49,149Z" />
        <path class="outline" d="M426.66,132.4h0Z" />
        <path class="outline" d="M429.53,132.15l-.43,0Z" />
        <path class="color-shadow" d="M404.37,170.94l-.24.17Z" />
        <path class="color-base"
            d="M442.66,188.39a56.09,56.09,0,0,0-3.07-22c-.92-2.67-.5-5.27-.28-7.91a18.18,18.18,0,0,1,2.21-8.24l6.07-4.08a1.88,1.88,0,0,1,.42.61,14.65,14.65,0,0,1,.75,2.64c.45,3.26.87,6.53,1.19,9.8a9.81,9.81,0,0,0,3.26,6.7,23.34,23.34,0,0,1,3.16,3.43,11.28,11.28,0,0,1,1.45,3.1,1.47,1.47,0,0,1-.45,1.31c-1.32.89-2.75,1.6-4.09,2.48a14.52,14.52,0,0,0-3,2.31c-2,2.27-3.84,4.68-5.73,7-.29.36-.67.73.13.93h0C444.18,187.29,444,188.4,442.66,188.39Z" />
        <path class="color-shadow"
            d="M442.66,188.39c1.3,0,1.52-1.1,2-1.92l.08,0s0,0,0-.06l-.1.09c-.8-.2-.42-.57-.13-.93,1.89-2.35,3.73-4.76,5.73-7a14.52,14.52,0,0,1,3-2.31c1.34-.88,2.77-1.59,4.09-2.48a1.47,1.47,0,0,0,.45-1.31,11.28,11.28,0,0,0-1.45-3.1,23.34,23.34,0,0,0-3.16-3.43,9.81,9.81,0,0,1-3.26-6.7c-.32-3.27-.74-6.54-1.19-9.8a14.65,14.65,0,0,0-.75-2.64,1.88,1.88,0,0,0-.42-.61l-6.07,4.08c.72-1.58,1.42-3.18,2.15-4.76.58-1.25,1.18-2.49,1.86-3.93a46.72,46.72,0,0,1,4.34,4.55c.63.84.64,2.17.81,3.29.31,2,.54,4,.8,6a26.82,26.82,0,0,1,.37,3.43,10,10,0,0,0,3.24,7.18,79.76,79.76,0,0,1,5.94,7.47c.65.86,0,2.46-1.16,3.14s-2.38,1.46-3.62,2.1a29.34,29.34,0,0,0-8.45,7.11c-1.31,1.5-2.77,2.87-4.18,4.29-.27.26-.6.47-1.2.93Z" />
        <path class="color-shadow"
            d="M438.68,180c0-.15-.07-.31-.1-.47s-.07-.33-.1-.5,0-.3,0-.45,0-.35,0-.52l-.21-.93-.06-.74-.18-1.63-.15-.49-.19-.74.21-.71q-1.26-4.11-2.54-8.21c.48-.16.95-.37,1.43-.48.8-.17,1.08-.55.67-1.4l-2.19.47.13-1.63.09-.53c.06-.89.07-1.8.2-2.68a23.58,23.58,0,0,1,.57-2.31h1.8a5,5,0,0,1,0,1.17,16.72,16.72,0,0,0,0,5.69c.47,4.87,2.32,9.44,2.83,14.28,0,.07.05.15.06.23C441.37,179.73,441.17,180,438.68,180Z" />
        <path class="outline"
            d="M435.43,161.55c0,.54-.09,1.08-.13,1.63l-.44.25-.78-.26-.06-1.93.16-.21c.05-.17.11-.33.16-.5l-.06-1,.17-.22.15-.49-.1-.5.1-.7.12-.5.12-.7.44-2.28c-.06-.16-.13-.32-.19-.49l-.25.35a38.47,38.47,0,0,1-14.12,8.76l-.26-.41,8.77-5.24.58-.42,4.7-3.86c1.17-.45-.09-.78,0-1.29l.68-.17,1.36.73c0,.2,0,.39,0,.58l-.27,3V156a23.58,23.58,0,0,0-.57,2.31c-.13.88-.14,1.79-.2,2.68Z" />
        <path class="color-shadow"
            d="M436.52,152.14l-1.36-.73c.88-1.11,1.73-2.26,2.67-3.33a1.77,1.77,0,0,1,2.37-.21,13.05,13.05,0,0,1-1.39,1.91,11.43,11.43,0,0,1-1.87,1.17l.51,1.05Z" />
        <path class="color-shadow" d="M436.29,155.7l.27-3,2.21-.18C438.68,154.61,438,155.8,436.29,155.7Z" />
        <path class="color-shadow"
            d="M369.76,192.24c1,.59,2.08,1.12,3.06,1.76,2,1.29,3.88,2.63,5.81,4,.37.26.68.61,1.27,1.14l-17.26-4.32-.16.28a23.85,23.85,0,0,0,1.88,1.61q5.81,4.06,11.65,8.09l2.68,1.84c-1.72-.62-3.49-1.11-5.13-1.88-4.78-2.24-9.48-4.65-13.49-8.14-1.37-1.2-2.51-2.67-3.76-4l-5.44-5.9.47-.26,4.42,2,2.76,1,.49.11.48.14,1.21.31.47.16,1.06.22,7.45,1.93S369.73,192.27,369.76,192.24Z" />
        <path class="color-shadow"
            d="M413,207.8a3,3,0,0,1,.56-.7c2.87-2,5.72-4,8.64-5.93a17.47,17.47,0,0,1,3.4-1.64c2-.75,4.09-1.31,6.1-2.07A17.42,17.42,0,0,0,434.1,196a2.58,2.58,0,0,1,.69-.17l.88.44a3.56,3.56,0,0,1-2.24,3.46,10.94,10.94,0,0,0-1.23.92c-4.26,2-8.45,4.16-12.8,5.93C417.42,207.36,415.14,207.41,413,207.8Z" />
        <path class="outline"
            d="M369.76,192.24s-.06.08-.08.08l-7.45-1.93c0-.2,0-.53-.13-.57a17.05,17.05,0,0,0-2.56-.93,24.86,24.86,0,0,1-7.38-3.71c-.17-.11-.24-.38-.36-.58,4.85,3.34,10.44,4.89,15.93,6.69A17,17,0,0,1,369.76,192.24Z" />
        <path class="outline"
            d="M346.2,169.9c-.07,1.1-.14,2.2-.23,3.3,0,.42-.13.84-.19,1.25-.06-1.29-.14-2.58-.14-3.87C345.64,170.36,346,170.13,346.2,169.9Z" />
        <path class="outline" d="M394,209.49l3.6-.09Z" />
        <path class="outline" d="M348.17,182.52l3.19,1.77Z" />
        <path class="outline" d="M406.28,208.72h0Z" />
        <path class="outline" d="M345.71,174.94c-.35,1-.71,2-1.06,3C345,177,345.36,176,345.71,174.94Z" />
        <path class="outline" d="M358.52,189.45l-2.76-1Z" />
        <path class="outline" d="M351.34,186.42l-.47.26-1-.87.31-.37Z" />
        <path class="outline" d="M410.15,208.61l1.42-.4Z" />
        <path class="outline" d="M389,208.92l1.58.3Z" />
        <path class="outline" d="M381.32,207.53l1.43.33Z" />
        <path class="outline" d="M344.28,179l-.59,1.1Z" />
        <path class="outline" d="M403.68,208.88l.92-.11Z" />
        <path class="outline" d="M402,209.09l.94-.14Z" />
        <path class="outline" d="M342.59,182.63l.33.35-.56.11Z" />
        <path class="outline" d="M345.09,182.41l.71-.13Z" />
        <path class="outline" d="M400.55,209.34l.69-.12Z" />
        <path class="outline" d="M399.32,209.43h0Z" />
        <path class="outline" d="M361.17,190.17l-.47-.16Z" />
        <path class="outline" d="M379.38,207l.5.14Z" />
        <path class="outline" d="M344,182.81l.62-.3Z" />
        <path class="outline" d="M359.49,189.7l-.48-.14Z" />
        <path class="color-base" d="M439.42,189.18l1.06.32c.26,1.92.26,1.92-1.31,2.44l-.7,0,.24-2.74Z" />
        <path class="color-base"
            d="M434.86,163.43l.44-.25,2.19-.47c.41.85.13,1.23-.67,1.4-.48.11-.95.32-1.43.48l-.53-.69Z" />
        <path class="color-shadow" d="M437.07,184.8l-.07-2.89Z" />
        <path class="color-base" d="M439.09,192.41l.73.65-1.34.37-.18-.49c0-.2.07-.41.11-.62Z" />
        <path class="color-shadow" d="M434.54,167.28a3.3,3.3,0,0,1-.66-3.13h.24Z" />
        <path class="color-shadow" d="M436.3,193.19c.12-.89.25-1.78.38-2.66C436.55,191.41,436.42,192.3,436.3,193.19Z" />
        <path class="color-shadow" d="M437,181.2c-.77-.66-.36-1.43-.2-2.17C436.82,179.75,436.89,180.47,437,181.2Z" />
        <path class="color-shadow" d="M435.23,169.93l-.6-2.19Z" />
        <path class="color-shadow" d="M437,187c0-.57,0-1.13,0-1.7C437.05,185.82,437,186.38,437,187Z" />
        <path class="color-shadow" d="M436.72,178.56l-.2-1.69Z" />
        <path class="outline" d="M434.12,164.15h-.24v-1h.21l.78.26v.47Z" />
        <path class="color-shadow"
            d="M436.76,189.82c.05-.56.11-1.13.16-1.69C436.87,188.69,436.81,189.26,436.76,189.82Z" />
        <path class="color-shadow"
            d="M435.91,172.81c-.1-.49-.21-1-.32-1.47C435.7,171.83,435.81,172.32,435.91,172.81Z" />
        <path class="color-shadow" d="M436.45,176.16l-.17-1.21Z" />
        <path class="outline" d="M438.94,183.3l1.07-.18.06.36-1.13.15Z" />
        <path class="outline" d="M437.93,172.8l-.21.71Z" />
        <path class="outline" d="M439.09,192.41l-.68-.09.06-.4.7,0Z" />
        <path class="color-shadow" d="M436.16,174.25l-.13-.74Z" />
        <path class="outline" d="M438.24,176.37l.06.74Z" />
        <path class="outline" d="M438.3,192.94l.18.49-.48.11Z" />
        <path class="outline" d="M436.16,194.63l.13-.48Z" />
        <path class="outline" d="M438.51,178c0,.17,0,.35,0,.52C438.49,178.39,438.5,178.21,438.51,178Z" />
        <path class="outline" d="M437.91,174.25l.15.49Z" />
        <path class="outline" d="M438.48,179c0,.17.07.33.1.5C438.54,179.34,438.51,179.18,438.48,179Z" />
        <path class="color-shadow" d="M435.48,170.88l-.15-.5Z" />
        <path class="outline" d="M439.42,189.18h-.71v-.39Z" />
        <path class="outline" d="M439,195.46l-.59-.19.05-.15.63.25A.2.2,0,0,1,439,195.46Z" />
        <path class="color-shadow" d="M434.08,163.17h-.21l.15-1.94Z" />
        <path class="color-shadow" d="M434.28,159.57l.06,1a1,1,0,0,1-.24,0Z" />
        <path class="outline"
            d="M434.1,160.54a1,1,0,0,0,.24,0c0,.17-.11.33-.16.5C434.16,160.86,434.13,160.7,434.1,160.54Z" />
        <path class="color-shadow" d="M434.72,157.16l-.12.5Z" />
        <path class="outline" d="M434.6,158.86l-.15.49-.09-.48h.24Z" />
        <path class="color-shadow"
            d="M434.6,158.86h-.24c.05-.17.09-.34.14-.51C434.53,158.53,434.56,158.7,434.6,158.86Z" />
        <path class="outline" d="M412.1,166.11l6.44-3.05.25.53-6.46,3Z" />
        <path class="outline" d="M408.44,168.23l3.39-1.95.3.54-3.71,2C408.43,168.6,408.44,168.42,408.44,168.23Z" />
        <path class="outline"
            d="M419.86,162.26a3.14,3.14,0,0,1,.38.42.71.71,0,0,1-.29.28c-.06,0-.24-.14-.25-.23A1.63,1.63,0,0,1,419.86,162.26Z" />
        <path class="outline" d="M434.84,154l.25-.35c.06.17.13.33.19.49Z" />
        <path class="outline" d="M429.81,156.73l-.58.42Z" />
        <path class="outline" d="M408.44,168.23c0,.19,0,.37,0,.56C408.43,168.6,408.44,168.42,408.44,168.23Z" />
        <path class="outline"
            d="M419.48,163.06a.76.76,0,0,1-.16.06s-.05,0-.07-.07a1,1,0,0,1,.15-.07S419.45,163,419.48,163.06Z" />
        <path class="color-base" d="M444.68,186.46l.1-.09s0,0,0,.06l-.08,0Z" />
        <path class="outline" d="M435.43,161.55l.09-.53Z" />
    </g>
</svg>
