<svg id="img_70" data-name="img 70" xmlns="http://www.w3.org/2000/svg" viewBox="0 0 672 960">
    <g id="img_67_img" data-name="img 67 img">
        <path class="outline"
            d="M346.65,183.42l-4.39,1.26c-.76.22-1.51.34-2.05-.43s-.21-1.37.17-2.1c2.62-5,6.31-9.49,8.17-14.88,1.29-3.74,2.05-7.67,3-11.53a8.33,8.33,0,0,1,1.52-3.4c2-2.53,4.73-4,7.56-5.28.41-.19.64-.75,1-1.1a3,3,0,0,1,.9-.69c4.65-1.72,9.3-3.48,14-5.1,4.28-1.47,8.57-2.91,12.93-4.12,2.76-.78,5.65-1.12,8.48-1.64,6.53-1.2,13.06-2.41,19.6-3.59,1.56-.28,3.14-.5,4.71-.74,1.36-.2,2,.34,2,1.77,0,1.07,0,2.14,0,3.22l7.61-1.23c4.71-.74,9.45-.58,14.19-.63a9.79,9.79,0,0,1,6.53,2.22,7.94,7.94,0,0,1,3,4,10.73,10.73,0,0,0,3.21,4.83c2,2,3.11,4.3,2.49,7.21-.21,1-.31,2-.43,3.06a14.16,14.16,0,0,0,3.66,11.89,71.09,71.09,0,0,1,6.28,8.59,4.4,4.4,0,0,1-2.29,6.49,31.45,31.45,0,0,1-3.55,1.06,33.26,33.26,0,0,0-9.12,3.88c-3.19,1.89-6.36,3.83-9.55,5.72a15.53,15.53,0,0,1-2.89,1.43,8.44,8.44,0,0,0-3.23,2.13A56.5,56.5,0,0,1,423,207.39a36.13,36.13,0,0,1-7.69,2.09c-3.92.71-7.88,1.18-11.83,1.68a53.3,53.3,0,0,1-14.92-.48,70.33,70.33,0,0,1-15.82-4.12c-6.93-2.82-13.21-6.6-18.07-12.44-2-2.45-4.14-4.86-6.11-7.37A25.63,25.63,0,0,1,346.65,183.42Zm47,7.84,7.39,9.63,2.91-2.36c2.69-2,5.36-4.1,8.07-6.11,2-1.46,4.08-2.73,5.92-4.34,2.68-2.34,5.21-4.87,7.71-7.4,2.8-2.83,5.49-5.75,8.23-8.63l1.48-1.9,1.39-1.57a3,3,0,0,0-.65-.31,8.81,8.81,0,0,1-5.38-3.46,21.58,21.58,0,0,1-4.24-9.07c-.75-3.27-1.45-6.55-2.18-9.83a50.35,50.35,0,0,1-1.2-12.42,2.76,2.76,0,0,0-.29-.81c-.38.27-.68.45-.95.68-2.51,2.18-5.08,4.29-7.5,6.55a46.16,46.16,0,0,1-15.12,9.66,54.9,54.9,0,0,1-13.61,3.2,30.65,30.65,0,0,1-8.61,0,101.23,101.23,0,0,1-10.8-3c-.62-.18-1.21-.47-2-.78l1.71,5.6a45.38,45.38,0,0,1,.75,5,12.76,12.76,0,0,0,4.84,9.33c1.11,1,2.18,2,3.35,2.89a89,89,0,0,1,12.76,12.25,11.67,11.67,0,0,0,.71,1.07Q391,188.21,393.61,191.26ZM365,160.79l.16.08-.13-.1c-.24-4-.48-8-2.62-11.61l-4.19,1.47A20.94,20.94,0,0,0,365,160.79Zm52.07-28.58a7.74,7.74,0,0,0-1.08,0c-4.9.79-9.8,1.58-14.7,2.41-3.58.6-7.18,1.14-10.73,1.93-2.12.48-4.14,1.42-6.22,2.09s-3.93,1.17-5.89,1.75l-.18.18-.28.24a2.31,2.31,0,0,0-.82,0c-1.32.4-2.62.85-3.93,1.26a35.2,35.2,0,0,0-8.78,3.78c-.33.21-.63.48-1,.79L374.6,151l5.28.48a5,5,0,0,0,1.13.19c2.09-.12,4.18-.25,6.27-.45a29.74,29.74,0,0,0,4.91-.66c2.49-.69,4.91-1.63,7.37-2.47,1.1-.41,2.24-.75,3.31-1.24a43.51,43.51,0,0,0,10.51-7.33c1.35-1.2,2.78-2.3,4.18-3.45,2.22-1.65,4.24-3.78,4.19-4.57Zm21.53,63.29c-1.82.43-3.63.9-5.47,1.3-6.73,1.45-13.37,3.09-19.27,6.92a32.58,32.58,0,0,0-5.86,5.2,3.21,3.21,0,0,0,1.19,0c1.3-.14,2.63-.19,3.91-.43,3-.55,6.07-.78,8.83-1.89a56.68,56.68,0,0,0,9.75-5.33,86.27,86.27,0,0,0,7.05-5.68l.14-.15ZM389,209.27a10,10,0,0,0,1.59.33c3.31.17,6.61.3,9.92.4.22,0,.67-.41.65-.59-.31-2.77-.36-5.61-2-8.06a52.34,52.34,0,0,0-2.93-4.39c-3.07-3.83-6.15-7.66-9.4-11.34-2.85-3.23-5.88-6.31-8.92-9.36-1.38-1.37-3.07-2.43-4.48-3.78-3.43-3.26-6.78-6.62-10.17-9.92a25.4,25.4,0,0,1-6.41-10,5.23,5.23,0,0,0-.37-.7c-2.64,1.75-3.1,2.39-3.78,5.26-.16.7-.33,1.4-.47,2.1a55.52,55.52,0,0,1-5.59,15.48c-1.4,2.64-2.53,5.42-3.77,8.14l-.09.15.16-.08,1.25-.29,3.9-.86c.06.17.06.42.18.5,1.72,1.16,3.4,2.39,5.2,3.41a30.26,30.26,0,0,0,5.28,2.49c6.19,2.09,12.4,4.12,18.66,6a33.29,33.29,0,0,1,11.79,6.66c1,.8,1.77,1.78,2.66,2.68a4.09,4.09,0,0,1-.7-.33c-2.71-2-5.18-4.47-8.17-5.8a161.76,161.76,0,0,0-16.29-5.84c-4.24-1.36-8.6-2.34-12.9-3.53-1-.27-1.9-.71-2.85-1.08l-.19.24c.85,1,1.71,2,2.56,3,3.67,4.35,7.44,8.56,12.48,11.43a51.08,51.08,0,0,0,13.09,5.45Zm66-65.69a37.42,37.42,0,0,1-2.51,5.47c-4.06,6.12-8.1,12.27-12.51,18.15a115.4,115.4,0,0,1-17.33,18.5c-2.46,2.1-5,4.11-7.54,6.11-4.14,3.25-8.32,6.46-12.49,9.67a1.13,1.13,0,0,0-.43,1.42c.55,2,1,4,1.47,6a1,1,0,0,0,.34.58,3,3,0,0,0,3-.88c2.74-4.46,6.84-7.3,11.37-9.62,3.94-2,8.25-2.71,12.54-3.33,7.61-1.1,14.73-3.37,21.12-7.77,3.84-2.64,7.53-5.57,12-7.17a26.87,26.87,0,0,0,2.93-1.37,3,3,0,0,0,1.23-4.15c-1.85-3.08-3.82-6.09-5.61-9.21a27.7,27.7,0,0,1-2.31-5.08c-1.06-3.19-.75-6.54-.87-9.85a7.64,7.64,0,0,0-1.14-3.68A32.1,32.1,0,0,0,455,143.58Zm-30.61-6.07c.39,2.21.7,4.22,1.1,6.21.67,3.28,1.33,6.57,2.13,9.83a38.92,38.92,0,0,0,2.24,7.16,10.64,10.64,0,0,0,5.95,5.93,2,2,0,0,0,2.72-.76c3.63-4.77,7.32-9.49,11-14.25,2-2.62,3.75-5.31,3.74-8.86,0-2.06-.42-3.74-2.08-5A7.73,7.73,0,0,0,446,136c-5.14.17-10.29.3-15.43.58C428.58,136.68,426.59,137.17,424.38,137.51Z" />
        <path class="color-base"
            d="M435.32,170.15c-.49.63-1,1.26-1.48,1.9a11.7,11.7,0,0,0-1.64.88c-1.1.85-2.07,1.88-3.23,2.63-7.24,4.76-14.52,9.45-21.78,14.18-2.32,1.51-4.61,3.09-6.91,4.64a5.88,5.88,0,0,1-1.26-.53c-.66-.49-1.25-1.08-1.86-1.62a4.74,4.74,0,0,0-.53-.64c-2.15-1.91-4.3-3.84-6.49-5.72-.79-.67-1.69-1.21-2.54-1.81a89,89,0,0,0-12.76-12.25c-1.17-.89-2.24-1.92-3.35-2.89a11.25,11.25,0,0,0-.16-2.61c-1-3.3-2.1-6.56-3.13-9.85a4.35,4.35,0,0,1,0-1.21c.48.12.79.18,1.08.27a27.82,27.82,0,0,0,9.39,1.39c3.12-.17,6.25-.52,9.35-.94a49.68,49.68,0,0,0,16.4-5.21,21,21,0,0,0,3.1-2.44l3.34-1.46,5.92-2.45c.1.39.21.81.31,1.23.73,3.33,1.4,6.68,2.25,10,.16.62,1.1,1,1.67,1.53.41-.52,1-1,1.17-1.57a36.32,36.32,0,0,0,.45-4.25c.95,2.67,1.74,5,2.61,7.3a19.8,19.8,0,0,0,6.78,9.49C433.05,168.87,434.21,169.47,435.32,170.15Zm-32-4.8-.05-.33c-2.77.47-5.54,1-8.31,1.42-3.17.53-6.34,1.06-9.52,1.54-1.95.29-3.93.46-5.89.73a1.23,1.23,0,0,0-.79,2,7.46,7.46,0,0,0,2.36,1.56,30.11,30.11,0,0,0,13.05,1.05,19.41,19.41,0,0,0,12.2-6.1c.31-.31.62-1,.49-1.28s-.8-.55-1.26-.61A17.33,17.33,0,0,0,403.31,165.35Z" />
        <path class="color-base"
            d="M391.9,203.5c-.89-.9-1.7-1.88-2.66-2.68a33.29,33.29,0,0,0-11.79-6.66c-6.26-1.87-12.47-3.9-18.66-6a30.26,30.26,0,0,1-5.28-2.49c-1.8-1-3.48-2.25-5.2-3.41-.12-.08-.12-.33-.18-.5,2.69-8.79,5.38-17.58,8.09-26.46a11.92,11.92,0,0,0,.45,1.24c1.3,2.63,2.43,5.38,4,7.86a47.39,47.39,0,0,0,9.77,10.76c2.12,1.8,4.37,3.45,6.55,5.17a89,89,0,0,1,7.13,5.78,29.73,29.73,0,0,1,4,5.59,55.74,55.74,0,0,1,5.7,12.34,6.11,6.11,0,0,1,.1,1.25l-1.74-1.57-.31-.24Z" />
        <path class="color-shadow-dark"
            d="M455,143.58a32.1,32.1,0,0,1,3.24,3.8,7.64,7.64,0,0,1,1.14,3.68c.12,3.31-.19,6.66.87,9.85a27.7,27.7,0,0,0,2.31,5.08c1.79,3.12,3.76,6.13,5.61,9.21a3,3,0,0,1-1.23,4.15,26.87,26.87,0,0,1-2.93,1.37c-4.47,1.6-8.16,4.53-12,7.17-6.39,4.4-13.51,6.67-21.12,7.77-4.29.62-8.6,1.31-12.54,3.33-4.53,2.32-8.63,5.16-11.37,9.62a3,3,0,0,1-3,.88,1,1,0,0,1-.34-.58c-.49-2-.92-4-1.47-6a1.13,1.13,0,0,1,.43-1.42c4.17-3.21,8.35-6.42,12.49-9.67,2.54-2,5.08-4,7.54-6.11A115.4,115.4,0,0,0,440,167.2c4.41-5.88,8.45-12,12.51-18.15A37.42,37.42,0,0,0,455,143.58Zm-6.79,41.85c.9-.48,1.53-.73,2.08-1.11,1.64-1.13,3.19-2.4,4.88-3.43,2.82-1.72,5.74-3.27,8.59-4.95.37-.22.87-.8.8-1.09a18,18,0,0,0-1.32-4,25.57,25.57,0,0,0-2.41-3.4,25,25,0,0,1-4.77-9.69c-.34-1.61-.47-3.27-.72-5-.18.26-.32.43-.43.62a85.46,85.46,0,0,1-14.89,20c-2,2-3.9,4.11-5.9,6.12-3.65,3.69-7.26,7.43-11,11s-7.59,6.69-11.39,10a9.27,9.27,0,0,0-.75.78l.2.23a10.09,10.09,0,0,0,1.15-.55c3.39-2.13,6.79-4.27,10.17-6.44a32.51,32.51,0,0,1,9.69-4.53c4-1,8-1.9,12-3a7.43,7.43,0,0,0,3-1.51c.55-.48.59-1.52.89-2.3.46-1.24.94-2.48,1.42-3.71l.27.08Z" />
        <path class="color-shadow-dark"
            d="M424.38,137.51c2.21-.34,4.2-.83,6.22-.94,5.14-.28,10.29-.41,15.43-.58a7.73,7.73,0,0,1,5.11,1.75c1.66,1.29,2.08,3,2.08,5,0,3.55-1.74,6.24-3.74,8.86-3.64,4.76-7.33,9.48-11,14.25a2,2,0,0,1-2.72.76,10.64,10.64,0,0,1-5.95-5.93,38.92,38.92,0,0,1-2.24-7.16c-.8-3.26-1.46-6.55-2.13-9.83C425.08,141.73,424.77,139.72,424.38,137.51Z" />
        <path class="color-shadow-dark"
            d="M392.2,203.73l1.74,1.57a6.11,6.11,0,0,0-.1-1.25,55.74,55.74,0,0,0-5.7-12.34,29.73,29.73,0,0,0-4-5.59,89,89,0,0,0-7.13-5.78c-2.18-1.72-4.43-3.37-6.55-5.17a47.39,47.39,0,0,1-9.77-10.76c-1.55-2.48-2.68-5.23-4-7.86a11.92,11.92,0,0,1-.45-1.24c-2.71,8.88-5.4,17.67-8.09,26.46l-3.9.86-1.25.29-.07-.07c1.24-2.72,2.37-5.5,3.77-8.14a55.52,55.52,0,0,0,5.59-15.48c.14-.7.31-1.4.47-2.1.68-2.87,1.14-3.51,3.78-5.26a5.23,5.23,0,0,1,.37.7,25.4,25.4,0,0,0,6.41,10c3.39,3.3,6.74,6.66,10.17,9.92,1.41,1.35,3.1,2.41,4.48,3.78,3,3.05,6.07,6.13,8.92,9.36,3.25,3.68,6.33,7.51,9.4,11.34a52.34,52.34,0,0,1,2.93,4.39c1.6,2.45,1.65,5.29,2,8.06,0,.18-.43.6-.65.59-3.31-.1-6.61-.23-9.92-.4a10,10,0,0,1-1.59-.33,7.92,7.92,0,0,1,1.24-.23c1.62,0,3.24,0,4.91,0l-.28-.88-.2.27a9.36,9.36,0,0,1-1.67-.85,15,15,0,0,1-1.34-1.51c-4.16-4.36-9.69-6.11-15.21-7.8-2.35-.72-4.8-1.1-7.2-1.63L362,195a6.57,6.57,0,0,0,.66.76c2.51,2,4.93,4.16,7.58,6,2.43,1.65,5.11,2.92,7.67,4.39a5.66,5.66,0,0,1,1,.92,51.08,51.08,0,0,1-13.09-5.45c-5-2.87-8.81-7.08-12.48-11.43-.85-1-1.71-2-2.56-3l.19-.24c.95.37,1.88.81,2.85,1.08,4.3,1.19,8.66,2.17,12.9,3.53A161.76,161.76,0,0,1,383,197.37c3,1.33,5.46,3.83,8.17,5.8a4.09,4.09,0,0,0,.7.33h0Z" />
        <path class="color-base"
            d="M399.56,148c-2.46.84-4.88,1.78-7.37,2.47a29.74,29.74,0,0,1-4.91.66c-2.09.2-4.18.33-6.27.45a5,5,0,0,1-1.13-.19,2.64,2.64,0,0,0-.54-.52c-1.77-.91-3.59-1.72-5.3-2.72a3,3,0,0,1-1.27-1.69c-.08-.32.63-1,1.13-1.29,3.66-1.93,7.34-3.8,11-5.66A14.32,14.32,0,0,1,388,138.3c2.51-.59,5-1.05,7.57-1.53,3.58-.69,7.15-1.45,10.75-2,2.62-.41,5.28-.62,7.93-.81a1.87,1.87,0,0,1,1.49.68c.17.27-.16,1.11-.51,1.43a81.37,81.37,0,0,1-7.08,6.2c-2.24,1.63-4.83,2.76-7.22,4.2A7.19,7.19,0,0,0,399.56,148Z" />
        <path class="color-shadow-dark"
            d="M410.84,146.86l-3.34,1.46-6.18,2c-2.47.8-4.9,1.68-7.4,2.36a49.64,49.64,0,0,1-8.11,1.8,88.48,88.48,0,0,1-11.4.25,27.11,27.11,0,0,1-5.67-1.22c-.85-.21-1.28-.2-1,.85a4.42,4.42,0,0,1,0,1l-1.88-.76-1.71-5.6c.78.31,1.37.6,2,.78a101.23,101.23,0,0,0,10.8,3,30.65,30.65,0,0,0,8.61,0,54.9,54.9,0,0,0,13.61-3.2,46.16,46.16,0,0,0,15.12-9.66c2.42-2.26,5-4.37,7.5-6.55.27-.23.57-.41.95-.68a2.76,2.76,0,0,1,.29.81,50.35,50.35,0,0,0,1.2,12.42c-1,0-.75.88-.91,1.39-.45,1.48-.16,3.25-2.13,4-1,.37-1.65.31-2.07-.77a1.93,1.93,0,0,1,.47,0c1.78.3,2.52-.48,2-2.25s-1-3.43-1.56-5.14a4.53,4.53,0,0,0-.53-.83l-2.77,1.81-.5-2.16c-.79.66-1.38,1.12-1.93,1.63C413.18,144.64,412,145.75,410.84,146.86Z" />
        <path class="color-base"
            d="M378.93,207.08a5.66,5.66,0,0,0-1-.92c-2.56-1.47-5.24-2.74-7.67-4.39-2.65-1.81-5.07-4-7.58-6A6.57,6.57,0,0,1,362,195l7.21,1.59c2.4.53,4.85.91,7.2,1.63,5.52,1.69,11.05,3.44,15.21,7.8a15,15,0,0,0,1.34,1.51,9.36,9.36,0,0,0,1.67.85l.2-.27.28.88c-1.67,0-3.29,0-4.91,0a7.92,7.92,0,0,0-1.24.23Z" />
        <path class="color-shadow-dark"
            d="M438.72,195.62a86.27,86.27,0,0,1-7.05,5.68,56.68,56.68,0,0,1-9.75,5.33c-2.76,1.11-5.86,1.34-8.83,1.89-1.28.24-2.61.29-3.91.43a3.21,3.21,0,0,1-1.19,0,32.58,32.58,0,0,1,5.86-5.2c5.9-3.83,12.54-5.47,19.27-6.92,1.84-.4,3.65-.87,5.47-1.3Z" />
        <path class="color-shadow"
            d="M400.28,194.38c2.3-1.55,4.59-3.13,6.91-4.64,7.26-4.73,14.54-9.42,21.78-14.18,1.16-.75,2.13-1.78,3.23-2.63a11.7,11.7,0,0,1,1.64-.88c-2.74,2.88-5.43,5.8-8.23,8.63-2.5,2.53-5,5.06-7.71,7.4-1.84,1.61-4,2.88-5.92,4.34-2.71,2-5.38,4.07-8.07,6.11-.62-.67-1.25-1.32-1.84-2S400.88,195.1,400.28,194.38Z" />
        <path class="color-shadow"
            d="M410.84,146.86c1.17-1.11,2.34-2.22,3.53-3.31.55-.51,1.14-1,1.93-1.63l.5,2.16,2.77-1.81a4.53,4.53,0,0,1,.53.83c.54,1.71,1.09,3.41,1.56,5.14s-.26,2.55-2,2.25a1.93,1.93,0,0,0-.47,0c.42,1.08,1.12,1.14,2.07.77,2-.76,1.68-2.53,2.13-4,.16-.51-.11-1.41.91-1.39.73,3.28,1.43,6.56,2.18,9.83a21.58,21.58,0,0,0,4.24,9.07,8.81,8.81,0,0,0,5.38,3.46,3,3,0,0,1,.65.31l-1.39,1.57c-1.11-.68-2.27-1.28-3.32-2a19.8,19.8,0,0,1-6.78-9.49c-.87-2.3-1.66-4.63-2.61-7.3a36.32,36.32,0,0,1-.45,4.25c-.13.58-.76,1-1.17,1.57-.57-.5-1.51-.91-1.67-1.53-.85-3.3-1.52-6.65-2.25-10-.1-.42-.21-.84-.31-1.23Z" />
        <path class="color-shadow"
            d="M365.9,154.57l1.88.76a4.42,4.42,0,0,0,0-1c-.31-1,.12-1.06,1-.85a27.11,27.11,0,0,0,5.67,1.22,88.48,88.48,0,0,0,11.4-.25,49.64,49.64,0,0,0,8.11-1.8c2.5-.68,4.93-1.56,7.4-2.36l6.18-2a21,21,0,0,1-3.1,2.44A49.68,49.68,0,0,1,388,156c-3.1.42-6.23.77-9.35.94a27.82,27.82,0,0,1-9.39-1.39c-.29-.09-.6-.15-1.08-.27a4.35,4.35,0,0,0,0,1.21c1,3.29,2.14,6.55,3.13,9.85a11.25,11.25,0,0,1,.16,2.61,12.76,12.76,0,0,1-4.84-9.33A45.38,45.38,0,0,0,365.9,154.57Z" />
        <path class="color-shadow"
            d="M399.56,148a7.19,7.19,0,0,1,1.39-1.59c2.39-1.44,5-2.57,7.22-4.2a81.37,81.37,0,0,0,7.08-6.2c.35-.32.68-1.16.51-1.43a1.87,1.87,0,0,0-1.49-.68c-2.65.19-5.31.4-7.93.81-3.6.57-7.17,1.33-10.75,2-2.53.48-5.06.94-7.57,1.53a14.32,14.32,0,0,0-3.08,1.25c-3.7,1.86-7.38,3.73-11,5.66-.5.27-1.21,1-1.13,1.29a3,3,0,0,0,1.27,1.69c1.71,1,3.53,1.81,5.3,2.72a2.64,2.64,0,0,1,.54.52L374.6,151a3.76,3.76,0,0,0-.57-1.09c-1.08-1.09-2.28-2.05-3.3-3.18s-.86-1.62.52-2.34c.28-.14.6-.22.88-.37l5.85-3.11.28-.24.18-.18c2-.58,3.94-1.12,5.89-1.75s4.1-1.61,6.22-2.09c3.55-.79,7.15-1.33,10.73-1.93,4.9-.83,9.8-1.62,14.7-2.41a7.74,7.74,0,0,1,1.08,0,2.61,2.61,0,0,1,.53,3.24c-.08.15,0,.38,0,.57-1.4,1.15-2.83,2.25-4.18,3.45a43.51,43.51,0,0,1-10.51,7.33C401.8,147.29,400.66,147.63,399.56,148Z" />
        <path class="color-shadow-dark"
            d="M365,160.79a20.94,20.94,0,0,1-6.78-10.16l4.19-1.47c2.14,3.66,2.38,7.64,2.62,11.61Z" />
        <path class="color-shadow-dark"
            d="M378,140.86,372.13,144c-.28.15-.6.23-.88.37-1.38.72-1.55,1.21-.52,2.34s2.22,2.09,3.3,3.18a3.76,3.76,0,0,1,.57,1.09l-11.18-4.3c.4-.31.7-.58,1-.79a35.2,35.2,0,0,1,8.78-3.78c1.31-.41,2.61-.86,3.93-1.26A2.31,2.31,0,0,1,378,140.86Z" />
        <path class="color-shadow-dark"
            d="M400.28,194.38c.6.72,1.18,1.44,1.79,2.14s1.22,1.34,1.84,2L401,200.89l-7.39-9.63,3.55,1c.61.54,1.2,1.13,1.86,1.62A5.88,5.88,0,0,0,400.28,194.38Z" />
        <path class="color-shadow"
            d="M397.16,192.23l-3.55-1q-2.66-3.06-5.3-6.13a11.67,11.67,0,0,1-.71-1.07c.85.6,1.75,1.14,2.54,1.81,2.19,1.88,4.34,3.81,6.49,5.72A4.74,4.74,0,0,1,397.16,192.23Z" />
        <path class="color-shadow-dark"
            d="M417.56,136c0-.19-.05-.42,0-.57a2.61,2.61,0,0,0-.53-3.24l4.69-.76C421.8,132.24,419.78,134.37,417.56,136Z" />
        <path class="color-shadow-dark" d="M378.44,140.44l-.18.18Z" />
        <path class="color-shadow-dark" d="M365,160.77l.13.1-.16-.08Z" />
        <path class="color-shadow-dark" d="M343,182.92l-.16.08.09-.15Z" />
        <path class="color-shadow-dark" d="M438.59,195.5l.27,0-.14.15Z" />
        <path class="color-shadow"
            d="M403.31,165.35a17.33,17.33,0,0,1,2.28,0c.46.06,1.11.28,1.26.61s-.18,1-.49,1.28a19.41,19.41,0,0,1-12.2,6.1,30.11,30.11,0,0,1-13.05-1.05,7.46,7.46,0,0,1-2.36-1.56,1.23,1.23,0,0,1,.79-2c2-.27,3.94-.44,5.89-.73,3.18-.48,6.35-1,9.52-1.54,2.77-.46,5.54-.95,8.31-1.42Z" />
        <path class="outline" d="M392.2,203.73l-.31-.24Z" />
        <path class="color-base"
            d="M448.2,185.43l1.54-6-.27-.08c-.48,1.23-1,2.47-1.42,3.71-.3.78-.34,1.82-.89,2.3a7.43,7.43,0,0,1-3,1.51c-4,1.06-8,2-12,3a32.51,32.51,0,0,0-9.69,4.53c-3.38,2.17-6.78,4.31-10.17,6.44a10.09,10.09,0,0,1-1.15.55l-.2-.23a9.27,9.27,0,0,1,.75-.78c3.8-3.34,7.7-6.58,11.39-10s7.39-7.28,11-11c2-2,3.87-4.14,5.9-6.12a85.46,85.46,0,0,0,14.89-20c.11-.19.25-.36.43-.62.25,1.77.38,3.43.72,5a25,25,0,0,0,4.77,9.69,25.57,25.57,0,0,1,2.41,3.4,18,18,0,0,1,1.32,4c.07.29-.43.87-.8,1.09-2.85,1.68-5.77,3.23-8.59,4.95-1.69,1-3.24,2.3-4.88,3.43C449.73,184.7,449.1,185,448.2,185.43Z" />
    </g>
</svg>
