<svg id="Nizy_bochonki" data-name="Nizy bochonki" xmlns="http://www.w3.org/2000/svg" viewBox="0 0 672 960">
    <g id="img_35" data-name="img 35">
        <g id="img_28_img" data-name="img 28 img">
            <path class="outline"
                d="M491.62,441.64l-2.15,5.7-.35.46-.07.09-.38.38-.11.09-.4.34-.16.09-.34.21a11.49,11.49,0,0,1-2.49.71,145.14,145.14,0,0,1-18.66.28c-7.87-.57-15.8-.47-23.7-.78-8.05-.33-16.1-.86-24.15-1.21q-12.33-.51-24.65-.84c-11.52-.3-22.95,1-34.41,1.84-8.14.59-16.1,2.33-24.22,3a92.89,92.89,0,0,1-21.73-.35,21.57,21.57,0,0,1-4.65-1.1,51,51,0,0,0-8.64-2.8,4.54,4.54,0,0,1-3.79-3.6c-.78-4.66-3.21-8.66-4.87-13-.45-1.19-.92-2.38-1.38-3.57-.12-.31-.25-.61-.38-.91l-.06-1.93,1.35.05a1.74,1.74,0,0,1,.13.36l.32.59.25.75c.39.85,1.12.68,1.81.6h0l1.44.49h0l1.44.49h0l1.43.5h0l1.07.4a.81.81,0,0,1,.34.08l2.44.47h0a9.21,9.21,0,0,0,1.11.4c6.57,1.45,13.19,1.2,19.79.41,10.39-1.24,20.77-2.62,31.25-2.91a6,6,0,0,0,1.15-.26l5.22,0c.79.05,1.58.13,2.37.14H380c1.35,0,2.7-.09,4-.14l11.47,0a8.32,8.32,0,0,0,1.61.31q19.92.08,39.83.11h2.29c-6.06.52-12.11.71-18.17.75-3.43,0-6.86-.33-10.29-.28-21,.27-42.06-.57-63.07.87-8.13.56-16.23,1.3-24.31,2.28a118.14,118.14,0,0,1-13.14,1,28.66,28.66,0,0,1-10.55-1.91c-2.18-.85-4.48-1.35-6.84-2.05.08,2.78,2,3.4,3.74,3.64a116.56,116.56,0,0,0,14.52,1.49c5.25.05,10.51-.65,15.77-1,5.57-.42,11.13-.9,16.71-1.3,2-.14,4-.14,6-.17,5-.07,10.07-.14,15.1-.15,2.64,0,5.27.24,7.9.17,5.67-.17,11.34-.55,17-.69,6.31-.15,12.63-.12,18.95-.19,1.2,0,2.39-.16,3.59-.21,4.95-.19,9.9-.51,14.85-.53,5.27,0,10.55.38,15.82.35A206.39,206.39,0,0,1,468.6,431a55.48,55.48,0,0,1,17.91,5,8.56,8.56,0,0,0,3.22.73c2,.11,2,0,2.39-2-2.2-1-4.33-2.12-6.52-3.05a26.06,26.06,0,0,0-5-1.65c-3.38-.65-6.81-1.08-10.23-1.6a10,10,0,0,1,2.66-.21l8.85.41h0l.95.5h0l1,.49h0l.61.38a.71.71,0,0,1,.31.13l2.45.91h0l1,.43h0l1.05.45a.6.6,0,0,1,.32.12l.64.35a.88.88,0,0,1,.32.12l1,.46h0l3.5.48a26.06,26.06,0,0,1-.91,3.31c-.62,1.5-1.43,2.94-2.16,4.4Zm-19.46,4.24c0-1.28,0-2.56,0-3.84l.78-.28c.38,2.09.75,4.19,1.14,6.32a16.91,16.91,0,0,0,8-.75c.06-.87.11-1.54.16-2.21l.51-.32a9,9,0,0,0,1.08,1.49,1.45,1.45,0,0,0,2.45-.13,37,37,0,0,0,4.35-7.74A9.72,9.72,0,0,1,484,437c-.62-.36-1.29-.62-2-.92a48.5,48.5,0,0,0-19.3-4.14c-9.1-.25-18.21-.17-27.3-.5-14.55-.54-29.06.76-43.59.66-5.83,0-11.66.27-17.48.42-2.92,0-5.84-.05-8.76,0-2.68,0-5.36.09-8,.13l-1.39,0a19.2,19.2,0,0,0-2.14-.13c-6.94.3-13.87.56-20.8,1-3.74.22-7.48.58-11.19,1.09a70.19,70.19,0,0,1-21.46-.08c-1.89-.32-3.81-.5-5.72-.74a67.16,67.16,0,0,1,3.29,7.58,4.29,4.29,0,0,0,3.51,3.37c.67.14,1.32.37,2,.56l.44-1.67a18.61,18.61,0,0,0,2.45,3,19.21,19.21,0,0,0,3.6,1.69l-.92-4.39.47-.27c.41.63.8,1.28,1.19,1.93.71,1.59,1.22,3.44,3.33,3.67,4.05.44,8.1.76,12.15,1.16,1.44.14,2-.58,2.12-1.93l1.36-3.43.42.1-.44,5c1.35-.08,2.67-.23,4-.21a2.16,2.16,0,0,0,2.18-1.46c.74-1.55,1.63-3,2.46-4.53l.29.15c-.3,1.69-.59,3.38-.92,5.25a38.31,38.31,0,0,0,9.26-.77v-5a14.53,14.53,0,0,1,1.79,3.65,1.44,1.44,0,0,0,1.84,1.07c.66-.12,1.31-.37,2-.57l-.84-2.33a10.32,10.32,0,0,1,1.95,1.42,3,3,0,0,0,1.66.72c3-.15,6-.43,8.92-.66-.55-2.05-1.05-3.87-1.55-5.7,0-.36.06-.71.12-1.35.4.59.64,1,.88,1.33.52,1,1,2,1.55,3,1.55,2.63,2.32,2.89,5.52,1.94.06-1,.12-1.92.21-3.26a6.43,6.43,0,0,1,.72,1.13c.56,1.88,1.83,2.32,3.67,2.14,2.53-.26,5.08-.33,7.62-.41a3.37,3.37,0,0,0,2.53-1.1c.83-.89,1.75-1.7,2.63-2.55l.25.22-1.25,3.31c2,0,3.72.06,5.44,0a2.37,2.37,0,0,0,1.35-.82,23.22,23.22,0,0,0,1.55-2.1.4.4,0,0,0,.31-.29c1,1.14-.94,1.9-.22,3.28,3.17-.12,6.48.64,10,.17l-1-2.41a4.57,4.57,0,0,1,1,.57c2.07,2.32,4.81,2.47,7.64,2.51s5.73.31,8.6.38,5.5,0,8.38,0c-.47-1.79-.92-3.48-1.37-5.16l-.28-2.28c.6,1,1,1.62,1.41,2.28.7,1.42,1.37,2.86,2.13,4.25a2.73,2.73,0,0,0,2.73,1.52c2.14-.06,4.29.07,6.44.1,1.09,0,2.18,0,3.39,0,.44-1.92.82-3.61,1.21-5.3l.56.07.84,5.18c5.68.11,11.13.65,16.59.31.09-1.24.16-2.29.26-3.56l2.6,3.11c1.81,1.22,3.8.86,6.05,1C472.59,447.21,472.38,446.55,472.16,445.88Z" />
            <path class="color-shadow-dark"
                d="M481.89,428.62l-8.85-.41a10,10,0,0,0-2.66.21c3.42.52,6.85.95,10.23,1.6a26.06,26.06,0,0,1,5,1.65c2.19.93,4.32,2,6.52,3.05-.39,2.06-.4,2.14-2.39,2a8.56,8.56,0,0,1-3.22-.73,55.48,55.48,0,0,0-17.91-5,206.39,206.39,0,0,0-25.83-1.37c-5.27,0-10.55-.37-15.82-.35-4.95,0-9.9.34-14.85.53-1.2.05-2.39.2-3.59.21-6.32.07-12.64,0-18.95.19-5.67.14-11.34.52-17,.69-2.63.07-5.26-.17-7.9-.17-5,0-10.07.08-15.1.15-2,0-4,0-6,.17-5.58.4-11.14.88-16.71,1.3-5.26.39-10.52,1.09-15.77,1a116.56,116.56,0,0,1-14.52-1.49c-1.78-.24-3.66-.86-3.74-3.64,2.36.7,4.66,1.2,6.84,2.05a28.66,28.66,0,0,0,10.55,1.91,118.14,118.14,0,0,0,13.14-1c8.08-1,16.18-1.72,24.31-2.28,21-1.44,42-.6,63.07-.87,3.43-.05,6.86.3,10.29.28,6.06,0,12.11-.23,18.17-.75H436.9q-19.9,0-39.83-.11a8.32,8.32,0,0,1-1.61-.31c.47,0,.94-.13,1.41-.13,18.79,0,37.58,0,56.37.14,8.31.06,16.62.48,24.93.79A30,30,0,0,1,481.89,428.62Z" />
            <path class="color-shadow-dark"
                d="M355.19,427.22a6,6,0,0,1-1.15.26c-10.48.29-20.86,1.67-31.25,2.91-6.6.79-13.22,1-19.79-.41a9.21,9.21,0,0,1-1.11-.4,9.19,9.19,0,0,1,1.66.06c7.13,1.48,14.26.86,21.42.1,9.27-1,18.56-1.78,27.85-2.62A17.15,17.15,0,0,1,355.19,427.22Z" />
            <path class="color-shadow-dark"
                d="M384,427.18c-1.34.05-2.69.13-4,.14H362.78c-.79,0-1.58-.09-2.37-.14,2.46-.07,4.92-.23,7.38-.21C373.19,427,378.59,427.11,384,427.18Z" />
            <path class="color-shadow-dark"
                d="M495,433.43l-3.5-.48c.92,0,1.84,0,2.75,0C494.49,433,494.73,433.27,495,433.43Z" />
            <path class="color-shadow-dark" d="M487.16,431l-2.45-.91Z" />
            <path class="color-shadow-dark" d="M301.89,429.58l-2.44-.47Z" />
            <path class="color-shadow-dark" d="M293.74,427.15c-.69.08-1.42.25-1.81-.6Z" />
            <path class="color-shadow-dark" d="M291.23,424.85l-1.35-.05C290.36,424,290.82,423.82,291.23,424.85Z" />
            <path class="color-shadow-dark" d="M295.18,427.64l-1.44-.49Z" />
            <path class="color-shadow-dark" d="M296.61,428.13l-1.44-.49Z" />
            <path class="color-shadow-dark" d="M298,428.63l-1.43-.5Z" />
            <path class="color-shadow-dark" d="M483.79,429.6l-1-.49Z" />
            <path class="color-shadow-dark" d="M488.16,431.45l-1-.43Z" />
            <path class="color-shadow-dark" d="M489.2,431.9l-1.05-.45Z" />
            <path class="color-shadow-dark" d="M491.48,433l-1-.46Z" />
            <path class="color-shadow-dark"
                d="M289.94,426.73c.13.3.26.6.38.91C290.2,427.33,290.07,427,289.94,426.73Z" />
            <path class="color-shadow-dark" d="M299.11,429l-1.07-.4Z" />
            <path class="color-shadow-dark" d="M482.84,429.11l-.95-.5Z" />
            <path class="color-shadow-dark" d="M484.4,430l-.61-.38C484,429.73,484.19,429.86,484.4,430Z" />
            <path class="color-shadow-dark" d="M491.62,441.64l.29-.5C491.82,441.31,491.72,441.47,491.62,441.64Z" />
            <path class="color-shadow-dark" d="M490.16,432.37l-.64-.35Z" />
            <path class="color-shadow-dark" d="M291.68,425.8l-.32-.59Z" />
            <path class="color-shadow-dark" d="M489.12,447.8l.35-.46Z" />
            <path class="color-shadow-dark" d="M488.67,448.27l.38-.38Z" />
            <path class="color-shadow-dark" d="M488.16,448.7l.4-.34Z" />
            <path class="color-shadow-dark" d="M487.66,449l.34-.21Z" />
            <path class="color-base"
                d="M446.58,442.21l-.56-.07-15.9-.57c-.41-.66-.81-1.32-1.41-2.28l.28,2.28c-1.41-.15-2.83-.36-4.25-.44-3.25-.19-6.5-.48-9.75-.46-4.45,0-8.9.28-13.35.48-1.5.07-3,.26-4.49.47a4.26,4.26,0,0,0-1.19.59.4.4,0,0,1-.31.29c-.27-.27-.51-.73-.81-.78a43.15,43.15,0,0,0-5.42-.58c-8.52-.07-17,0-25.56-.05-.24-.37-.48-.74-.88-1.33-.06.64-.09,1-.12,1.35a26.78,26.78,0,0,1-2.8.46q-4.28.3-8.56.48c-4.44.19-8.89.32-13.34.51-2.53.11-5.06.41-7.59.42a48.8,48.8,0,0,1-6.16-.44c-3.46-.43-6.9-1-10.34-1.48-.78-.12-1.58-.41-1.64-1.44,1.95-.31,3.91-.59,5.85-.94,4.12-.75,8.25-1.44,12.35-2.32,6.28-1.36,12.53-2.77,19-2.52a36.19,36.19,0,0,0,5.67-.5c.3,0,.56-.46.84-.71l1.39,0a4.41,4.41,0,0,0,1.12.32q7.19,0,14.36,0a4.76,4.76,0,0,0,1.32-.4c5.82-.15,11.65-.45,17.48-.42,14.53.1,29-1.2,43.59-.66,9.09.33,18.2.25,27.3.5a48.5,48.5,0,0,1,19.3,4.14l-.63,3c-.31,1.53-.75,1.9-2.37,2.06-2,.2-4.06.43-6.08.65l-.78.28c-5,0-10.05,0-15.07,0C453.59,442.1,450.08,442.16,446.58,442.21Z" />
            <path class="color-shadow"
                d="M312.43,439.62c.06,1,.86,1.32,1.64,1.44,3.44.53,6.88,1.05,10.34,1.48a48.8,48.8,0,0,0,6.16.44c2.53,0,5.06-.31,7.59-.42,4.45-.19,8.9-.32,13.34-.51q4.29-.18,8.56-.48a26.78,26.78,0,0,0,2.8-.46c.5,1.83,1,3.65,1.55,5.7-3,.23-5.94.51-8.92.66a3,3,0,0,1-1.66-.72,10.32,10.32,0,0,0-1.95-1.42l.84,2.33c-.71.2-1.36.45-2,.57a1.44,1.44,0,0,1-1.84-1.07,14.53,14.53,0,0,0-1.79-3.65v5a38.31,38.31,0,0,1-9.26.77c.33-1.87.62-3.56.92-5.25l-.29-.15c-.83,1.51-1.72,3-2.46,4.53a2.16,2.16,0,0,1-2.18,1.46c-1.32,0-2.64.13-4,.21l.44-5-.42-.1-1.36,3.43c-3.62-.65-7.24-1.33-10.87-1.94-2.24-.37-4.49-.64-6.73-1-.39-.65-.78-1.3-1.19-1.93l-.47.27c-.25.16-.57.51-.75.45-2.15-.78-4.33-1.51-6.4-2.47a3.51,3.51,0,0,1-2-3.12l2.37.28c2.73.32,5.42,1.24,8.22.29C311.16,439.1,311.84,439.49,312.43,439.62Z" />
            <path class="color-shadow-dark"
                d="M312.43,439.62c-.59-.13-1.27-.52-1.75-.35-2.8,1-5.49,0-8.22-.29l-2.37-.28a3.51,3.51,0,0,0,2,3.12c2.07,1,4.25,1.69,6.4,2.47.18.06.5-.29.75-.45l.92,4.39a19.21,19.21,0,0,1-3.6-1.69,18.61,18.61,0,0,1-2.45-3l-.44,1.67c-.66-.19-1.31-.42-2-.56a4.29,4.29,0,0,1-3.51-3.37,67.16,67.16,0,0,0-3.29-7.58c1.91.24,3.83.42,5.72.74a70.19,70.19,0,0,0,21.46.08c3.71-.51,7.45-.87,11.19-1.09,6.93-.41,13.86-.67,20.8-1a19.2,19.2,0,0,1,2.14.13c-.28.25-.54.67-.84.71a36.19,36.19,0,0,1-5.67.5c-6.5-.25-12.75,1.16-19,2.52-4.1.88-8.23,1.57-12.35,2.32C316.34,439,314.38,439.31,312.43,439.62Z" />
            <path class="color-shadow"
                d="M396,442.21a4.26,4.26,0,0,1,1.19-.59c1.49-.21,3-.4,4.49-.47,4.45-.2,8.9-.45,13.35-.48,3.25,0,6.5.27,9.75.46,1.42.08,2.84.29,4.25.44.45,1.68.9,3.37,1.37,5.16-2.88,0-5.63,0-8.38,0s-5.73-.34-8.6-.38-5.57-.19-7.64-2.51a4.57,4.57,0,0,0-1-.57l1,2.41c-3.51.47-6.82-.29-10-.17C395,444.11,397,443.35,396,442.21Z" />
            <path class="color-shadow"
                d="M363.86,441.09c8.52,0,17,0,25.56.05a43.15,43.15,0,0,1,5.42.58c.3,0,.54.51.81.78a23.22,23.22,0,0,1-1.55,2.1,2.37,2.37,0,0,1-1.35.82c-1.72.1-3.45,0-5.44,0l1.25-3.31-.25-.22c-.88.85-1.8,1.66-2.63,2.55a3.37,3.37,0,0,1-2.53,1.1c-2.54.08-5.09.15-7.62.41-1.84.18-3.11-.26-3.67-2.14a6.43,6.43,0,0,0-.72-1.13c-.09,1.34-.15,2.31-.21,3.26-3.2.95-4,.69-5.52-1.94C364.85,443.09,364.38,442.08,363.86,441.09Z" />
            <path class="color-shadow"
                d="M446.58,442.21c3.5,0,7-.11,10.52-.13,5,0,10,0,15.07,0,0,1.28,0,2.56,0,3.84-1.1,0-2.21.05-3.32,0a1.77,1.77,0,0,0-2,1.34l-2.6-3.11c-.1,1.27-.17,2.32-.26,3.56-5.46.34-10.91-.2-16.59-.31C447.13,445.61,446.85,443.91,446.58,442.21Z" />
            <path class="color-shadow"
                d="M473,441.76c2-.22,4.05-.45,6.08-.65,1.62-.16,2.06-.53,2.37-2.06l.63-3c.66.3,1.33.56,2,.92a9.72,9.72,0,0,0,6.62,1.45,37,37,0,0,1-4.35,7.74,1.45,1.45,0,0,1-2.45.13,9,9,0,0,1-1.08-1.49l-.51.32c0,.67-.1,1.34-.16,2.21a16.91,16.91,0,0,1-8,.75C473.7,446,473.33,443.85,473,441.76Z" />
            <path class="color-shadow"
                d="M430.12,441.57l15.9.56c-.39,1.7-.77,3.39-1.21,5.31-1.21,0-2.3,0-3.39,0-2.15,0-4.3-.16-6.44-.1a2.73,2.73,0,0,1-2.73-1.52C431.49,444.43,430.82,443,430.12,441.57Z" />
            <path class="color-shadow-dark"
                d="M310.87,445.5c2.24.32,4.49.59,6.73,1,3.63.61,7.25,1.29,10.87,1.94-.07,1.35-.68,2.07-2.12,1.93-4.05-.4-8.1-.72-12.15-1.16C312.09,448.94,311.58,447.09,310.87,445.5Z" />
            <path class="color-shadow-dark"
                d="M466.87,447.25a1.77,1.77,0,0,1,2-1.34c1.11,0,2.22,0,3.32,0,.22.67.43,1.33.76,2.35C470.67,448.11,468.68,448.47,466.87,447.25Z" />
            <path class="color-shadow-dark"
                d="M374.36,432.49a4.76,4.76,0,0,1-1.32.4q-7.19.06-14.36,0a4.41,4.41,0,0,1-1.12-.32c2.68,0,5.36-.12,8-.13C368.52,432.44,371.44,432.48,374.36,432.49Z" />
        </g>
    </g>
</svg>
