<svg id="Nizy_bochonki" data-name="Nizy bochonki" xmlns="http://www.w3.org/2000/svg" viewBox="0 0 672 960">
    <g id="img_35" data-name="img 35">
        <g id="Kashkorse_img" data-name="Kashkorse img">
            <path class="color-shadow-dark"
                d="M469.37,429.59a90.58,90.58,0,0,1,11.61,1.5c1.35.21,2.59,1.17,3.87,1.79-.11.27-1.32.05-.4.74a13.42,13.42,0,0,0,4.77,2.13c.8.21,1,.62.79,1.39-1.07,3.33-2.12,6.67-3.19,10a1.89,1.89,0,0,1-2,1.43c-2.94,0-5.88.12-8.81.2-3.67.1-7.33-.5-11-.15-3.49.32-7,.66-10.48.65l-12.92,0a3.79,3.79,0,0,1-2.1-.26c.67-1,1.73-.64,2.62-.65,5.17-.05,10.37.28,15.49-.55,4.06-.67,8.17-.95,12.22-1.69,1.65-.3,3.42-1.11,5.15-.42,1.43.56,2.65-.14,4-.34a1,1,0,0,0,.89-1c0-.92.39-1.91-.38-2.73.08-.47.12-.95.22-1.41.84-3.71.56-4.24-3-5.35-.6-.19-1.24-.28-1.84-.47-2.31-.73-4.74-.55-7.1-.83a26.4,26.4,0,0,0-7.62.2c-2,.34-4,.9-6.15.56a63.21,63.21,0,0,0-9-.89,11.72,11.72,0,0,1-2.14-.12,34,34,0,0,0-10.26-.21c-3.8.39-7.63.64-11.41.71-12.94.25-25.9.09-38.85.11a142.1,142.1,0,0,1-15.71-.91,9.77,9.77,0,0,0-3.56.23,72.92,72.92,0,0,1-20.52,2.61,7.59,7.59,0,0,0-1.43.1c-6.73,1.18-13.3,3.13-20.06,4.11-3.22.46-6.36,1.44-9.64,1.53-.21-.25-.48-.5-.81-.38-2.79,1-5.5-.05-8.23-.32-.84-.08-1.93-.69-2.28.35s.8,1.58,1.54,2.15a1.33,1.33,0,0,0,.45.15c3.83,1.07,7.38,3,11.35,3.64,1.95.3,3.89.69,5.85,1,4.43.66,8.74,1.74,13.39,1.3,4.9-.47,9.79-1.05,14.64-1.76a108.79,108.79,0,0,1,11.33-1.18c7.49-.32,15-.1,22.51-.1.71,0,1.48-.12,1.87.71a2.38,2.38,0,0,1-.68.19c-6,0-12,.53-17.93,1.12-4.37.43-8.76.62-13.11,1.27a191.08,191.08,0,0,1-22.65,2.11c-7.7.19-15.35-.33-22.54-3.52a37.57,37.57,0,0,0-7.71-2.58,2.09,2.09,0,0,1-1.88-2,92.82,92.82,0,0,0-2.89-11.37c-.2-.65-.67-1.29-.23-2.27,2.12.6,4.29,1.06,6.34,1.83a30.81,30.81,0,0,0,12,1.95c6.72-.24,13.37-1.06,20-1.94,8.64-1.14,17.37-1.19,26.05-1.81,7.34-.52,14.71-.09,22.06-.14,10.39-.06,20.78-.18,31.17-.09,9.51.09,19,.17,28.52-.25,9.11-.4,18.22,0,27.32.42C467.73,430,468.69,430.49,469.37,429.59Z" />
            <path class="outline"
                d="M439.56,449a3.79,3.79,0,0,0,2.1.26l12.92,0c3.51,0,7-.33,10.48-.65,3.66-.35,7.32.25,11,.15,2.93-.08,5.87-.17,8.81-.2a1.89,1.89,0,0,0,2-1.43c1.07-3.33,2.12-6.67,3.19-10,.25-.77,0-1.18-.79-1.39a13.42,13.42,0,0,1-4.77-2.13c-.92-.69.29-.47.4-.74a36.13,36.13,0,0,0,9.18,2.75c-1.61,1.2-2,2.76-2.43,4.23-1,3-1.85,5.94-2.84,8.9-.73,2.2-1.1,2.42-3.46,2.37-3.6-.08-7.19-.14-10.79-.3a105.42,105.42,0,0,0-13.42.07c-5.36.44-10.71.07-16,0-7.67-.1-15.32-.68-23-1-10.7-.47-21.38-1.23-32.1-1.17-9.85.06-19.64.88-29.42,1.81s-19.48,2.74-29.29,3.37c-8.84.57-17.57.33-26-3a43.33,43.33,0,0,0-5.09-1.37,5.82,5.82,0,0,1-4.77-4.65c-1.48-6.09-3.42-12.07-5.17-18.11a1.81,1.81,0,0,1,1.9.18c1.39,1,3.08,1.32,4.51,2.16a14.9,14.9,0,0,0,5.9,1.77,21.31,21.31,0,0,1,5.64,1,3.72,3.72,0,0,0,1.67.09A96,96,0,0,0,320,431a12.75,12.75,0,0,1,4-.25,16.53,16.53,0,0,0,5-.18A121.56,121.56,0,0,1,344.55,429c4-.21,8-.07,11.95-.68a11.58,11.58,0,0,1,3.11-.07,117.64,117.64,0,0,0,16,.57c3.73-.06,7.46.28,11.22-.1s7.5-.15,11.26-.19c5.83-.05,11.68,0,17.49.39,5,.36,9.89-.21,14.82-.39,4.3-.15,8.63-.18,12.92-.69a2.18,2.18,0,0,1,.72,0c4,1,8.13.07,12.13.87a23.65,23.65,0,0,0,6.45.3,18.09,18.09,0,0,1,3.82.17,2.87,2.87,0,0,0,2.51.41,1.72,1.72,0,0,1,.39,0c-.68.9-1.64.44-2.44.4-9.1-.46-18.21-.82-27.32-.42-9.51.42-19,.34-28.52.25-10.39-.09-20.78,0-31.17.09-7.35,0-14.72-.38-22.06.14-8.68.62-17.41.67-26.05,1.81-6.66.88-13.31,1.7-20,1.94a30.81,30.81,0,0,1-12-1.95c-2.05-.77-4.22-1.23-6.34-1.83-.44,1,0,1.62.23,2.27a92.82,92.82,0,0,1,2.89,11.37,2.09,2.09,0,0,0,1.88,2,37.57,37.57,0,0,1,7.71,2.58c7.19,3.19,14.84,3.71,22.54,3.52a191.08,191.08,0,0,0,22.65-2.11c4.35-.65,8.74-.84,13.11-1.27,6-.59,11.93-1.11,17.93-1.12a2.38,2.38,0,0,0,.68-.19l1.31,0a.81.81,0,0,0,1.07,0c7.81-.18,15.61.26,23.42.5a2.92,2.92,0,0,0,1.62.27c4.53.21,9.06.51,13.6.61,4.86.1,9.71.74,14.58.37Z" />
            <path class="color-shadow-dark" d="M469,429.55a2.87,2.87,0,0,1-2.51-.41A3.5,3.5,0,0,1,469,429.55Z" />
            <path class="color-base"
                d="M311.47,441.56c3.28-.09,6.42-1.07,9.64-1.53,6.76-1,13.33-2.93,20.06-4.11a7.59,7.59,0,0,1,1.43-.1,72.92,72.92,0,0,0,20.52-2.61,9.77,9.77,0,0,1,3.56-.23,142.1,142.1,0,0,0,15.71.91c12.95,0,25.91.14,38.85-.11,3.78-.07,7.61-.32,11.41-.71a34,34,0,0,1,10.26.21,11.72,11.72,0,0,0,2.14.12,63.21,63.21,0,0,1,9,.89c2.11.34,4.15-.22,6.15-.56a26.4,26.4,0,0,1,7.62-.2c2.36.28,4.79.1,7.1.83.6.19,1.24.28,1.84.47,3.52,1.11,3.8,1.64,3,5.35-.1.46-.14.94-.22,1.41a3.36,3.36,0,0,0-.71,0c-5.53,1.18-11.2,1.11-16.78,1.82a43.94,43.94,0,0,1-4.73.58c-9.26.27-18.49-.45-27.74-.5a4.28,4.28,0,0,1-.72-.05c-4.15-.92-8.4-.24-12.6-.81a60.18,60.18,0,0,0-10.05-.07,83.16,83.16,0,0,0-8.76.82,11.48,11.48,0,0,1-4.05,0,23.63,23.63,0,0,0-5.23-.37c-6.55,0-13.1.11-19.65,0-5.75-.14-11.47.46-17.2.52a4.36,4.36,0,0,0-.72.05,71.67,71.67,0,0,1-11.15.91c-3.51,0-7,0-10.54,0a60.06,60.06,0,0,1-15.33-1.89A3.36,3.36,0,0,1,311.47,441.56Z" />
            <path class="color-shadow"
                d="M311.47,441.56a3.36,3.36,0,0,0,2.08,1,60.06,60.06,0,0,0,15.33,1.89c3.51,0,7,0,10.54,0a71.67,71.67,0,0,0,11.15-.91,4.36,4.36,0,0,1,.72-.05c5.73-.06,11.45-.66,17.2-.52,6.55.15,13.1,0,19.65,0a23.63,23.63,0,0,1,5.23.37,11.48,11.48,0,0,0,4.05,0,83.16,83.16,0,0,1,8.76-.82,60.18,60.18,0,0,1,10.05.07c4.2.57,8.45-.11,12.6.81a4.28,4.28,0,0,0,.72.05c9.25.05,18.48.77,27.74.5a43.94,43.94,0,0,0,4.73-.58c5.58-.71,11.25-.64,16.78-1.82a3.36,3.36,0,0,1,.71,0c.77.82.41,1.81.38,2.73a1,1,0,0,1-.89,1c-1.31.2-2.53.9-4,.34-1.73-.69-3.5.12-5.15.42-4.05.74-8.16,1-12.22,1.69-5.12.83-10.32.5-15.49.55-.89,0-1.95-.39-2.62.65l-.88-.15a1,1,0,0,0-1.11-1,55.12,55.12,0,0,1-6.16-.44,117.66,117.66,0,0,0-14.3-.55,6,6,0,0,1-1.88-.21c-1.58-.46-3.17-.17-4.76-.24a1.49,1.49,0,0,0-1.59,1.17c-7.81-.24-15.61-.68-23.42-.5-.35-.71-.71-.73-1.07,0l-1.31,0c-.39-.83-1.16-.71-1.87-.71-7.5,0-15-.22-22.51.1a108.79,108.79,0,0,0-11.33,1.18c-4.85.71-9.74,1.29-14.64,1.76-4.65.44-9-.64-13.39-1.3-2-.29-3.9-.68-5.85-1-4-.63-7.52-2.57-11.35-3.64a1.33,1.33,0,0,1-.45-.15c-.74-.57-1.9-1.11-1.54-2.15s1.44-.43,2.28-.35c2.73.27,5.44,1.33,8.23.32C311,441.06,311.26,441.31,311.47,441.56Z" />
            <path class="color-shadow-dark"
                d="M408.88,447.57a1.49,1.49,0,0,1,1.59-1.17c1.59.07,3.18-.22,4.76.24a6,6,0,0,0,1.88.21,117.66,117.66,0,0,1,14.3.55,55.12,55.12,0,0,0,6.16.44,1,1,0,0,1,1.11,1c-4.87.37-9.72-.27-14.58-.37-4.54-.1-9.07-.4-13.6-.61A2.92,2.92,0,0,1,408.88,447.57Z" />
            <path class="color-shadow-dark" d="M384.39,447.06c.36-.72.72-.7,1.07,0A.81.81,0,0,1,384.39,447.06Z" />
        </g>
    </g>
</svg>
