<svg id="i_43" data-name="i 43" xmlns="http://www.w3.org/2000/svg" viewBox="0 0 672 960">
    <g id="i_42" data-name="i 42">
        <g id="i_35_i" data-name="i 35 i">
            <path class="outline"
                d="M290.84,423.83c.18.62.36,1.24.52,1.87.24.93,1,.6,1.64.78,1.27.4,2.52.87,3.76,1.36,3,1.16,6.17,1.45,9.3,1.93,5.9.9,11.79.3,17.66-.34l18.58-2c10.6-1.16,21.25-.75,31.88-.8,8.28-.05,16.56.06,24.84.08,12.71,0,25.43,0,38.15.11,10.11.06,20.22.25,30.33.4,2.44,0,4.88.1,7.31.23,2.07.1,4.12.29,6.18.47a2.91,2.91,0,0,1,.87.34c2.11.92,4.2,1.85,6.3,2.78a14.37,14.37,0,0,1,1.7.75,5.32,5.32,0,0,0,4,.83c.7-.15,1.22.13,1,1a22.08,22.08,0,0,1-1,3.54c-.71,1.62-1.7,3.12-2.44,4.73a49.41,49.41,0,0,0-1.81,4.75,4.57,4.57,0,0,1-3.85,3.14c-2.1.34-4.24.34-6.36.53-1.25.11-2.49.3-3.73.46a4,4,0,0,1-.6,0c-3.88-.15-7.76-.29-11.65-.49-1.56-.08-3.12-.35-4.69-.43-.85,0-1.74.29-2.58.18-5.5-.72-11-.36-16.55-.46-2,0-4-.14-6.06-.24q-6.76-.35-13.52-.72c-2.72-.15-5.44-.33-8.16-.47-3.65-.18-7.29-.38-10.94-.47-5.3-.13-10.6-.2-15.9-.24-2.18,0-4.36.12-6.53.25-1.13.07-2.24.32-3.37.44-.59.06-1.19,0-1.79,0q-1.95.09-3.9.24c-1.72.15-3.44.34-5.16.47-2.52.19-5,.26-7.55.52s-4.8.64-7.2,1c-1.88.28-3.76.62-5.65.89q-3.6.51-7.21.95c-1.13.14-2.28.14-3.42.26-1.86.21-3.72.57-5.58.67-1.62.08-3.24-.12-4.86-.2l-4.39-.23A35.36,35.36,0,0,1,305.81,450a56.06,56.06,0,0,0-6.05-1.93,6.18,6.18,0,0,1-4.59-5.57,20.32,20.32,0,0,0-2-5.75,55.41,55.41,0,0,1-4.24-11v-1.23l.75-.7Zm79.67,22.06-.25-.25V445l.44-2.19.55.27.19.23c-.33.68-.27,1.2.59,1.38v0l.2.28a.33.33,0,0,1,.07.17c.16.33.25.89.48.95a4.94,4.94,0,0,0,1.63,0c2-.12,4-.35,5.93-.39,4.29-.1,3.15.27,6.09-2.6a8.92,8.92,0,0,0,.94-1.44l.46-.25a.55.55,0,0,0,.18,0l0,1.12c-.16,0-.41,0-.46.13-.35.74-.66,1.51-1,2.27-.57.4-.29.52.19.53,1.23,0,2.46,0,3.69,0,.82,0,1.63-.14,2.45-.21.73-.84,1.49-1.67,2.18-2.54a3.83,3.83,0,0,0,.45-1h.62l0,.41c-.52.8-1,1.62-1.57,2.41s-.37,1,.5,1c2.81.06,5.63.16,8.44.21a2.71,2.71,0,0,0,.84-.26l.48,0,.44-.22.11.3.12-.09c0-.09-.11-.17-.17-.26l-.51-1.42h0a4.26,4.26,0,0,1,.71.35c.73.52,1.43,1.06,2.15,1.59a1.83,1.83,0,0,0,.53.21c3,.25,6.1.56,9.15.69,3.87.18,7.74.21,11.61.29.4,0,.81-.05,1.15-.07-.54-2-1-3.92-1.55-5.79a5.25,5.25,0,0,0-.67-1.13l.09-.67.38-.06.47.47c0,.2-.16.44-.1.59.77,1.65,1.54,3.3,2.37,4.92a3.63,3.63,0,0,0,3.89,2.25,49.24,49.24,0,0,1,5.94.18c.83,0,1.66,0,2.49,0l0-.08-2.6-.44H444c.83.3.64-.41.73-.77.29-1.29.55-2.6.76-3.65l.87-.05,0,.69-.22,1.05.44-.06.05.69c-.09.56-.17,1.13-.25,1.69-.1.75.26.94,1,.95,3.34.05,6.68.16,10,.22,1.92,0,3.83,0,5.74,0,.26,0,.52,0,.78-.06-2.15-.18-4.29-.16-6.44-.19a6.54,6.54,0,0,1-1.21-.26h7.18c.67,0,.47-.46.43-.85-.08-.84-.13-1.68-.19-2.54,1,1.29,1.95,2.48,2.89,3.66l2.2-.05,3.13.06.14.18-.12,0h-2.71v.4c1.43,0,2.87,0,4.3,0,.09,0,.17-.28.26-.44h.49c.2.18.4.51.61.51,1.16,0,2.33-.06,3.5-.1v-.35h-1.25l1.7-.29c1,.9,1.9-.36,2.88-.23,0-.48,0-1,0-1.44v-1a2.64,2.64,0,0,1,.84.82c1.26,1.63,2.56,1.61,3.71-.1.67-1,1.3-2,1.87-3.06.84-1.51,1.61-3.07,2.49-4.78a22,22,0,0,1-2.72,0,12.24,12.24,0,0,1-2.88-.63c-1.74-.68-3.38-1.6-5.12-2.23-2.46-.89-5-1.62-7.46-2.37a10.35,10.35,0,0,0-2.32-.45,6.79,6.79,0,0,0-1.66.24l-.92-.1.56-.41c-1.58-.17-3-.39-4.5-.46-1.67-.09-3.35-.06-5-.05-.15,0-.29.21-.44.33l-5-.11,4.54-.34c-2.69-.15-5.39-.15-8.08-.15a3.92,3.92,0,0,0-.84,0c-.16,0-.3.2-.45.31l-3.34,0a2.28,2.28,0,0,0-.73-.28c-3,0-5.91,0-8.87,0a2.31,2.31,0,0,0-.73.27l-3.09-.06,2.77-.32c-4.69-.53-15.53-.48-17.66.05l2.34.26-3.07.11-3.12-.42,0,.26,1.91.3-2.6.09a4.26,4.26,0,0,0-1.07-.29q-7.2,0-14.4,0c-.28,0-.55,0-.83.06a2.75,2.75,0,0,0,1.19.18c3.8,0,7.6,0,11.4,0a9.21,9.21,0,0,1,1.27.17l-14.36.09a3.79,3.79,0,0,0-1.07-.29q-6.81.09-13.64.23c-3.79.07-7.57.21-11.36.25-5,0-10,0-15,0H353a2.58,2.58,0,0,0,1.31.24q8.28,0,16.55,0a9.21,9.21,0,0,1,1.27.17l-1.67,0-14.37.05-11.52.25c-.12-.1-.24-.28-.35-.27-3.07,0-6.15.13-9.22.2v.18l2.31.27-2.82.1c-.88-.45-2.77-.4-4.75.12l1.34.26-1.87.1-1.89-.39-.05.23.93.31-1.39.08c-.08-.08-.17-.24-.24-.23l-6.45.44.18.45-.69.06a4.28,4.28,0,0,0-1.08-.27c-3.77.13-7.54.3-11.31.47-.2,0-.39.19-.58.3l-2.18-.29h1.73l0-.33-1.69.34-2.1-.07,1.66-.28-.05-.26-1.91.41-1.39-.1,1-.32a34.06,34.06,0,0,0-4.36-.59,3,3,0,0,0-1,.27l-.68-.08.25-.26c-.64-.21-1.28-.42-1.92-.6,0,0-.26.32-.22.44a8.36,8.36,0,0,0,.42.85c1.11,2.45,2.34,4.87,3.28,7.39.46,1.22.79,2.25,2.2,2.62s2.66.87,4.15,1.38l-.53-1.92.24-.19c1.34,2.45,3.11,4.27,6.19,4.53-.29-.25-.55-.38-.54-.5,0-.36.25-.74.19-1.07-.19-1.19-.48-2.36-.73-3.53a2.54,2.54,0,0,1,.74.95c.72,1.37,1.39,2.77,2.2,4.09.23.38.86.52,1.31.76l1-.08.69.1-.11.5,2.32-.09,2.33.08-1.9.31,0,.25,2.14-.45,2.12.12-1.65.32c1-.16,2.15.84,3.13-.18l2.36.1-2,.34c.86.11,1.61.26,2.35.29,1.74.09,1.74.06,2.3-1.64l1.32-4.06.34.07-1,4.94c-.35.7.25.51.51.49,1.21-.07,2.42-.19,3.9-.31l-2.41-.35,2.6-.13c.72.59,1.27.55,1.74-.34.83-1.56,1.72-3.08,2.58-4.61h0c0,.47,0,.93,0,1.39s0,.84,0,1.26l-.06.91-.33-.51-.18.1.36.7c.15.24.25.63.46.69a3.84,3.84,0,0,0,1.17,0l1.68.39.05-.25-1.43-.28,1.87-.11a3.84,3.84,0,0,0,1.06.3c1.18,0,2.35-.15,3.53-.23v-.13l-1.2-.32,1.4-.05c.85.45.69-.09.65-.62-.1-1.46-.15-2.92-.23-4.37a32.84,32.84,0,0,1,1.73,4.12c.13.35.22.87.75.33h1.2l-.94.64c.68-.11,1.11-.17,1.52-.25l1.91-.38-.59-1.85h0c.35.25.7.48,1,.73s.58.49.87.73l1.21.29,0-.32H354V447h1.66a3.27,3.27,0,0,0,1.05.3c1.58,0,3.16-.17,5-.28l-1.7-.4,1.88-.1c.76.1,1.51.22,2.26.28.19,0,.39-.18.59-.28-.1-.16-.22-.31-.3-.47a17.65,17.65,0,0,1-1.35-2.72,35.67,35.67,0,0,1-.81-3.75,13.1,13.1,0,0,1,1,1.62c.95,1.6,1.91,3.2,2.9,4.79.06.1.36.06.54.09l.45,0,2.15.42,0-.24-1.66-.32,2.12-.07.74.05.19-.52-.16,0Zm112.37-11.78.25.13.08.05c.08.16.12.37.25.46a10.19,10.19,0,0,0,7.15,2c.48-.05,1.93-1.9,1.69-2.25a3.29,3.29,0,0,0-1.39-.88c-1.41-.61-2.83-1.21-4.27-1.75a6.18,6.18,0,0,0-1.44-.2.1.1,0,0,1-.1-.07l-.37-.16a.11.11,0,0,1-.11-.08,4.56,4.56,0,0,0-4.38-1.59s0,.06-.07.09l-1.19-.27.79,0c-.65-.43-1.3-.72-2-.17l-1.91-.27h1.25l0-.31c-1.74-.22-3.49-.48-5.24-.64a7.37,7.37,0,0,0-1.79.26c-.6,0-1.19,0-1.79-.05-1.08-.06-2.17-.14-3.25-.22h4.09v-.31l-7.38-.17-3.59-.1c-1.71-.05-3.42-.11-5.14-.14-.14,0-.29.21-.44.32l-9.86,0a6.3,6.3,0,0,1,1.31-.29c2.69,0,5.38,0,8.06,0v0H439.43v.21l2.08.25-2.58.09a5.21,5.21,0,0,0-1.2-.28c-3,0-5.92,0-8.88,0h-1.18a10.24,10.24,0,0,0,2.51.25c1.22,0,2.45.12,3.67.19l-7.64.11a13.09,13.09,0,0,0-6.49,0l-6.45-.1a9.13,9.13,0,0,1,1.26-.19c1.57,0,3.13,0,4.7,0-4.27-.3-8.53-.44-12.79-.46-3.55,0-7.1.14-10.65.19-2.43,0-4.85,0-7.28,0-4,0-8,0-12,0-6.31.06-12.62.08-18.93.25-5.21.14-10.42.46-15.63.72-1.12.06-2.23.21-3.64.35l3.36.31-3.55.13-2.61-.47,0,.29,2.37.29-2.83.13a2.64,2.64,0,0,0-.92-.31c-1.22.07-2.44.21-3.66.35L318.75,431c-1.2.13-2.41.22-3.62.33v.15h3.33l-3.84.27a10.45,10.45,0,0,0-1.44-.28c-3.24-.18-6.5-.16-9.71-.56a36.47,36.47,0,0,1-5.61-1.71c-.31-.1-.7.09-1.05.15l-1-.26.59-.12-.07-.39-1.47.34-.9-.13.45-.3-2.67-.86c.19.62.38,1.29.62,1.95.14.39.26,1,.55,1.1a18.16,18.16,0,0,0,3.82,1.25c3.05.5,6.13.86,9.21,1.18a10.88,10.88,0,0,0,2.38-.25h5.76a6.44,6.44,0,0,1-1.2.26c-1.35,0-2.7,0-4.05,0v.06h7.85V433l-2.08-.28,2.59-.11a3.3,3.3,0,0,0,1.06.29q3.29-.21,6.55-.51c4.83-.45,9.65-1.06,14.49-1.35,5.33-.32,10.68-.41,16-.51,2.59,0,5.18.2,7.77.19,4.39,0,8.79-.12,13.18-.21,3.31-.06,6.62-.18,9.93-.25,1.44,0,2.88,0,4.32,0,1.63-.06,3.25-.2,4.88-.3v-.06l-3-.29,4.28-.09a5.5,5.5,0,0,0,1.31.29c6.57,0,13.15.08,19.73-.41,4.37-.32,8.78-.05,13.18-.07a6.3,6.3,0,0,0,1.31-.29c.47,0,1,.05,1.43.05l16.29,0a9,9,0,0,1-1.25.19H432.91a.54.54,0,0,0,.45.24q9.33,0,18.66,0a2.53,2.53,0,0,0,.83-.3l3.55.1-3,.3a15.71,15.71,0,0,0,3,.14,7.7,7.7,0,0,0,1.31-.29l2.83.09-2.33.3,0,.26,3.07-.42,2.35.1-1.89.31,0,.24,2.39-.41,1.87.1-1.47.32c2.37.36,4.67.75,7,1a20.28,20.28,0,0,0,2.7,0l.67.09-.22.41.51-.27.67.1-.22.41.51-.28.67.12-.2.51,1.18-.16.7.12c-.42.32-.37.52.13.68,1,.31,2,.69,3,1a4,4,0,0,0,1.23,0ZM337,449c0,.68,0,.68,1.57.46Zm67.9-3.15s0-.07-.05-.08-.06,0-.1,0l.07.12Z" />
            <path class="color-base" d="M288.68,424.55l.21,0c0,.41,0,.82,0,1.23l-.11,0-.11,0Z" />
            <path class="color-base"
                d="M453.1,431.49l5,.11,3.15.11,1.9.06,1.95.17,1.17.09,1.23.16.92.1.75.14.7.07a2.57,2.57,0,0,0,.52.21,46.9,46.9,0,0,1,10.75,3.16c-.17,1.33-.27,2.67-.54,4-.06.31-.65.68-1,.74-2.26.38-4.53.67-6.8,1l-.86-1-.6,1c-3.73.16-7.46.4-11.18.47-4.59.08-9.17,0-13.76,0-.33-.44-.68-.8-1.21-.24-.52,0-1,0-1.55,0L430,441.4l-1.11-1.77-.47-.47-.25-.34-.13.4-.09.67.19,1.45c-2.22-.16-4.44-.35-6.66-.45-2.95-.13-5.9-.17-8.85-.27-1.19,0-2.38-.22-3.56-.18-1.63.06-3.24.28-4.86.43l-8.06.77h-.62a.27.27,0,0,0-.2,0,17.21,17.21,0,0,0-2-.24c-1.76,0-3.53,0-5.29,0a.55.55,0,0,1-.18,0,1.89,1.89,0,0,0-.62-.28c-1.73-.1-3.46-.24-5.19-.23-6.06,0-12.13.13-18.2.21a17,17,0,0,0-1-1.71c-.14-.2-.5-.24-.76-.36a2.19,2.19,0,0,0-.29.82,6.85,6.85,0,0,0,.32,1.24c-3.69.17-7.38.29-11.06.53a35.15,35.15,0,0,0-4,.73l-1.17,0c-1.31.07-2.62.23-3.93.22-6.19-.05-12.38-.08-18.57-.25a44,44,0,0,1-10.68-1.67c-.62-.17-1.21-.41-1.81-.62,2.46-.68,4.88-1.09,7.28-1.55,4.95-.95,9.93-1.79,14.83-2.92a72.43,72.43,0,0,1,15.71-1.91,55.05,55.05,0,0,0,6.27-.65,5.61,5.61,0,0,0,1.21-.47l14.37-.05,1.67,0,3.39-.19,2.61-.05,4.11-.17,10.05-.07,2.92-.15,14.36-.09,2.44-.15,2.6-.09,1.24-.14,3.07-.11,1.48-.12h8.16l2.91.13,3.09.06s0,.09.08.09h10.17s0-.05.08-.08l3.34,0Z" />
            <path class="color-shadow"
                d="M356.13,432.5a5.61,5.61,0,0,1-1.21.47,55.05,55.05,0,0,1-6.27.65,72.43,72.43,0,0,0-15.71,1.91c-4.9,1.13-9.88,2-14.83,2.92-2.4.46-4.82.87-7.28,1.55.6.21,1.19.45,1.81.62a44,44,0,0,0,10.68,1.67c6.19.17,12.38.2,18.57.25,1.31,0,2.62-.15,3.93-.22l.25,1.19v3.8l0,1-1.4.05-.52.14-1.41.09-1.47.15-1.87.11-.3.14a3.84,3.84,0,0,1-1.17,0c-.21-.06-.31-.45-.46-.69l.15-.29.06-.91c.24-.87.53-1.72.68-2.6a3.15,3.15,0,0,0-.25-1.16,3.79,3.79,0,0,0-1,.79,35.75,35.75,0,0,0-2,3.76c-.38.86-.79,1.48-1.78,1.52l-2.6.13-.52.11-.93.06c.22-1.6.48-3.19.64-4.79,0-.29-.33-.61-.51-.92-.22.24-.54.44-.65.72a18.9,18.9,0,0,0-1.13,3.38,1.74,1.74,0,0,1-2.25,1.67l-2.36-.1-1.48-.14-2.12-.12-.29-.11-2.33-.08v0l-1.46-.3-.74-.14-.69-.1-.28-.13-.68-.1c-.73-1-1.48-2-2.16-3s-1.32-2.09-2-3.13a.11.11,0,0,0-.15,0c-.14.35-.42.73-.37,1.06.19,1.27.49,2.54.75,3.8l-.2.21a24.29,24.29,0,0,1-3.28-2A11.73,11.73,0,0,1,304,443.2a.86.86,0,0,0-.66-.35.76.76,0,0,0-.46.57c.09,1.36-.61,1.07-1.4.75a9.73,9.73,0,0,0-1.79-.62c-.84-.16-1.15-.7-1.38-1.43a36.35,36.35,0,0,0-1.3-3.72c-.68-1.55-1.5-3-2.28-4.62l1,.08.68.08,4.36.64,1.39.1.3.13,2.1.07h0l2.18.29,1.95.16,5,0,1-.15,1.64-.09,1-.15,1.4-.09,1-.16.69-.06,1.46-.17,1.88-.09,1-.16,1.4-.08.77-.16,1.39-.08,1-.15,1.87-.1,3.41-.38,2.82-.1,1.25-.14,2.61-.08,3.4-.16Z" />
            <path class="color-shadow"
                d="M314.13,432.9h-5.76l-.77-.14-1.4-.09-.75-.16-1.41-.09-1-.15-1.41-.09-.75-.15-1.17-.09-.52-.14-1.4-.1-.51-.14-.93-.09-.28-.14-.68-.07a8.45,8.45,0,0,0-1.76-.92c-.81-.21-.62-.89-.85-1.38l1.22-.13.9.13.28.11.69.07h0l1,.26v0l.74.31,4.2,1.37.84.29,1.48.38,1.89.06h0l3.13.35,1.68,0,3.86-.31v0l3.84-.27h0l3.14-.25h0l1.7-.25h0l1.64-.06.76-.12,1.7-.31h0l1.41-.05.51-.1,1.41-.15.27-.09,1.94-.34,0,0,1.65-.06.52-.12,2.83-.13.29-.11,3.55-.13.28-.11,4.28-.13.76-.1,1.43-.1,2.67-.23h0l2.84-.06,1-.1,3.09-.13,1.23-.14,2.85-.09h20.17c2.33,0,4.67-.09,7-.08,3.82,0,7.63.08,11.44.1A7.69,7.69,0,0,0,402,428l1.2,0,3.36,0,3.6,0,3.15.14,6.45.1h6.49l7.64-.11,5.08-.17,2.58-.09,1.23-.12,9.86,0,1.94.13,2.87,0h0a9.06,9.06,0,0,0,1.25.21c2.15,0,4.3,0,6.46,0h0c1.08.08,2.17.16,3.25.22.6,0,1.19,0,1.79.05v0l2.43.25h0l1.94.34.28.1,1.17.05h0l1.91.27v0l1.23.25h0l1.19.27v0l1,.34,3.46,1.19a.11.11,0,0,0,.11.08l.37.16a.1.1,0,0,0,.1.07c1.53,1.38,3.46,1.85,5.35,2.44l.69.16c.21,1-.15,1.55-1.2,2h-1.2l-.75-.12-1-.08-3.88-1.74-.08-.05-.25-.13h0l-4.39-1.59-.7-.12-1-.35-.67-.12-.29-.13-.67-.1-.29-.14-.67-.09-.52-.16-.69-.1-.51-.14-.93-.11-.28-.12-1.16-.12-.28-.11-1.4-.12-.52-.13-1.4-.11-.52-.13-1.87-.1-.53-.14-2.35-.1-.77-.14-2.83-.09-1.25-.15-3.55-.1-2.92-.15-16.29,0c-.48,0-1,0-1.43-.05l-2.2-.16-4.05-.09h-3.12l-4.77.08-2.43.17-2.36.09-1.24.13-2.85.1q-6,0-12,0a1.54,1.54,0,0,0-.53.19l-4.28.09-4.36.14-5.73.08-3.15.16-2.61.08-2.91.16H363.8l-.77-.13H352.56l-2.44.15-3.09.07-3.39.16-3.09.08-2.67.17-1.89.07-1.71.16-1.88.1-.76.15-1.64.09-.76.14-1.87.1-.53.14-1.63.1-.53.14-1.88.1-.76.14-1.88.1-.76.16-1.4.08-.76.14-2.59.11Z" />
            <path class="color-shadow"
                d="M396.12,441.64l8.06-.77c1.62-.15,3.23-.37,4.86-.43,1.18,0,2.37.14,3.56.18,2.95.1,5.9.14,8.85.27,2.22.1,4.44.29,6.66.45.43,1.65.86,3.3,1.34,5.11l-5.45-.26-6.92-.12-.5-.14-1.66-.11c-.46-.05-.92-.14-1.39-.16-1.47-.08-2.93-.13-4.4-.2l-1.41-.06L404.87,443c-1-.57-.71.19-.68.67l.66,1.74-.48,0-.3-.15-7.63-.09-1.29-.35,1-2.76Z" />
            <path class="color-shadow"
                d="M446.37,442.06c4.59,0,9.17.07,13.76,0,3.72-.07,7.45-.31,11.18-.47l.07.77v3.5l.46,1.76-3.13-.06v0l-2.17-.3c-.75-1.21-1.48-2.44-2.26-3.63a.75.75,0,0,0-.67-.28.79.79,0,0,0-.39.64c0,1.1.11,2.21.17,3.32H456.2l0,0a7.62,7.62,0,0,0-1.24-.2c-2.72-.06-5.43-.09-8.14-.13L446.6,445l-.05-.69-.22-1,0-.69Z" />
            <path class="color-shadow"
                d="M472.77,441.58c2.27-.31,4.54-.6,6.8-1,.39-.06,1-.43,1-.74.27-1.32.37-2.66.54-4,.43.2.85.43,1.29.62l4,1.7,1.17.12,1.94.35c-1.48,2.5-2.82,4.88-4.28,7.18a1.06,1.06,0,0,1-1.83.06c-.37-.45-.65-1-1-1.43-.18-.22-.62-.49-.75-.41a1.18,1.18,0,0,0-.49.8c-.12.67.12,1.59-.24,2s-1.32.38-2,.55c-.07,0-.12.09-.18.14l-1.7.29h0l-.73,0h-2.64C473.4,445.7,473.09,443.64,472.77,441.58Z" />
            <path class="color-shadow"
                d="M363.81,441.1c6.07-.08,12.14-.17,18.2-.21,1.73,0,3.46.13,5.19.23a1.89,1.89,0,0,1,.62.28l-.46.25c-.56.49-1.1,1-1.68,1.45-.87.69-1.78,1.35-2.68,2l-2.61.1-3.15.17-2.36.08-2.59-.35a.33.33,0,0,0-.07-.17l-.2-.28v0l-.59-1.38-.19-.23-.66-.94a2.81,2.81,0,0,0-.5,1,10.61,10.61,0,0,0,.17,1.85v.69l-.46.23-2.12.07-.53.14-.45,0a11.33,11.33,0,0,0-.5-1.06C365.42,443.73,364.61,442.42,363.81,441.1Z" />
            <path class="color-shadow"
                d="M347,442.35a35.15,35.15,0,0,1,4-.73c3.68-.24,7.37-.36,11.06-.53l1.68,5.25-1.36.08-.53.14-1.88.1-1.71.12-2.12.13-.53.13H354l-2.19-2.28c-.78-.36-.72.14-.65.64l.66,2.18-.92,0-.73.14h-1.2Z" />
            <path class="color-shadow"
                d="M430,441.4l13.64.43c.52,0,1,0,1.55,0q-.62,2.63-1.21,5.23h-3.12l-.5-.15-6.69-.09c-.5-.4-1.16-.7-1.46-1.21C431.36,444.25,430.7,442.8,430,441.4Z" />
            <path class="outline"
                d="M413.27,428.11l-3.15-.14a4.24,4.24,0,0,0-3.6,0l-3.36,0-1.2,0a7.69,7.69,0,0,1-1.25.18c-3.81,0-7.62-.09-11.44-.1-2.34,0-4.68,0-7,.08a3.2,3.2,0,0,0-.78-.2h-9a3.2,3.2,0,0,0-.78.2h-9.66l-2.85.09-1.23.14c-1-.2-2.09-.54-3.09.13l-1,.1-2.84.06h0c-1,0-2.05,0-3.07,0a4.08,4.08,0,0,0-1,.32l-.76.1c-1.12-.06-2.24-.16-3.36-.18a2.78,2.78,0,0,0-.92.31l-.28.11-3.36-.31c1.41-.14,2.52-.29,3.64-.35,5.21-.26,10.42-.58,15.63-.72,6.31-.17,12.62-.19,18.93-.25,4,0,8,0,12,0,2.43,0,4.85,0,7.28,0,3.55-.05,7.1-.2,10.65-.19,4.26,0,8.52.16,12.79.46-1.57,0-3.13,0-4.7,0A9.13,9.13,0,0,0,413.27,428.11Z" />
            <path class="outline"
                d="M319.4,432.43l.76-.16,1.88-.1.76-.14,1.88-.1.53-.14,1.63-.1.53-.14,1.87-.1.76-.14,1.64-.09.76-.15,1.88-.1,1.71-.16,1.89-.07,2.67-.17,3.09-.08,3.39-.16,3.09-.07,2.44-.15a7.6,7.6,0,0,0,1.15.17q3.78,0,7.56,0c.59,0,1.17-.1,1.76-.16l.77.13a2.13,2.13,0,0,0,.71.29q4.22,0,8.43,0a2.09,2.09,0,0,0,.7-.29l2.91-.16,2.61-.08,3.15-.16c1.86,0,3.73.08,5.6.1,0,0,.09-.12.13-.18l4.36-.14,3,.29V430c-1.63.1-3.25.24-4.88.3-1.44.05-2.88,0-4.32,0-3.31.07-6.62.19-9.93.25-4.39.09-8.79.19-13.18.21-2.59,0-5.18-.23-7.77-.19-5.35.1-10.7.19-16,.51-4.84.29-9.66.9-14.49,1.35q-3.27.3-6.55.51a3.3,3.3,0,0,1-1.06-.29l.76-.14Z" />
            <path class="outline"
                d="M295.68,433.86l-1-.08c.78,1.58,1.6,3.07,2.28,4.62a36.35,36.35,0,0,1,1.3,3.72c.23.73.54,1.27,1.38,1.43a9.73,9.73,0,0,1,1.79.62c.79.32,1.49.61,1.4-.75a.76.76,0,0,1,.46-.57.86.86,0,0,1,.66.35,11.73,11.73,0,0,0,1.56,2.22,24.29,24.29,0,0,0,3.28,2l.2-.21c-.26-1.26-.56-2.53-.75-3.8,0-.33.23-.71.37-1.06l.07.08.08-.08c.65,1,1.28,2.11,2,3.13s1.43,2,2.16,3v.28l0,0c-.45-.24-1.08-.38-1.31-.76-.81-1.32-1.48-2.72-2.2-4.09a2.54,2.54,0,0,0-.74-.95c.25,1.17.54,2.34.73,3.53.06.33-.17.71-.19,1.07,0,.12.25.25.54.5-3.08-.26-4.85-2.08-6.19-4.53l-.24.19.53,1.92c-1.49-.51-2.8-1-4.15-1.38s-1.74-1.4-2.2-2.62c-.94-2.52-2.17-4.94-3.28-7.39a8.36,8.36,0,0,1-.42-.85c0-.12.18-.45.22-.44.64.18,1.28.39,1.92.6Z" />
            <path class="outline"
                d="M486.47,438.19l-4-1.7c-.44-.19-.86-.42-1.29-.62a46.9,46.9,0,0,0-10.75-3.16,2.57,2.57,0,0,1-.52-.21l-.7-.07-.75-.14a6.79,6.79,0,0,1,1.66-.24,10.35,10.35,0,0,1,2.32.45c2.49.75,5,1.48,7.46,2.37,1.74.63,3.38,1.55,5.12,2.23a12.24,12.24,0,0,0,2.88.63,22,22,0,0,0,2.72,0c-.88,1.71-1.65,3.27-2.49,4.78-.57,1.05-1.2,2.07-1.87,3.06-1.15,1.71-2.45,1.73-3.71.1a2.64,2.64,0,0,0-.84-.82v1c0,.48,0,1,0,1.44-1-.13-1.85,1.13-2.88.23.06,0,.11-.12.18-.14.69-.17,1.6-.12,2-.55s.12-1.3.24-2a1.18,1.18,0,0,1,.49-.8c.13-.08.57.19.75.41.39.44.67,1,1,1.43a1.06,1.06,0,0,0,1.83-.06c1.46-2.3,2.8-4.68,4.28-7.18l-1.94-.35Zm3.4-.08c-.06,0-.12-.1-.18-.1a.56.56,0,0,0-.2.08c.06,0,.12.1.19.1A.52.52,0,0,0,489.87,438.11Z" />
            <path class="color-shadow"
                d="M388,441.38c1.76,0,3.53,0,5.29,0a17.21,17.21,0,0,1,2,.24l-2.46,3.28-5.76,0,.9-2.44Z" />
            <path class="outline"
                d="M415.64,429.06l2.43-.17c1.28.08,2.55.17,3.83.21a3.09,3.09,0,0,0,.94-.29H426l4.05.09,2.2.16a6.3,6.3,0,0,1-1.31.29c-4.4,0-8.81-.25-13.18.07-6.58.49-13.16.37-19.73.41a5.5,5.5,0,0,1-1.31-.29,1.54,1.54,0,0,1,.53-.19q6,0,12,0l2.85-.1,1.24-.13Z" />
            <path class="outline"
                d="M382.28,432l-4.11.17-2.61.05-3.39.19a9.21,9.21,0,0,0-1.27-.17q-8.28,0-16.55,0A2.58,2.58,0,0,1,353,432h1.15c5,0,10,0,15,0,3.79,0,7.57-.18,11.36-.25q6.82-.14,13.64-.23a3.79,3.79,0,0,1,1.07.29l-2.92.15a2,2,0,0,0-.56-.16c-2.92,0-5.83,0-8.75,0A2.43,2.43,0,0,0,382.28,432Z" />
            <path class="outline"
                d="M416.58,445.93l.5.14c.08.09.15.25.23.25,2.23,0,4.46-.08,6.69-.13l5.45.26c-.48-1.81-.91-3.46-1.34-5.11l-.19-1.45a5.25,5.25,0,0,1,.67,1.13c.53,1.87,1,3.76,1.55,5.79-.34,0-.75.08-1.15.07-3.87-.08-7.74-.11-11.61-.29-3.05-.13-6.1-.44-9.15-.69a1.83,1.83,0,0,1-.53-.21l0,0,1.39-.19c1.47.07,2.93.12,4.4.2.47,0,.93.11,1.39.16Z" />
            <path class="outline"
                d="M488.09,436.11l.75.12a.67.67,0,0,0,1.2,0c1-.41,1.41-1,1.2-2l-.69-.16c-1.89-.59-3.82-1.06-5.35-2.44a6.18,6.18,0,0,1,1.44.2c1.44.54,2.86,1.14,4.27,1.75a3.29,3.29,0,0,1,1.39.88c.24.35-1.21,2.2-1.69,2.25a10.19,10.19,0,0,1-7.15-2c-.13-.09-.17-.3-.25-.46l3.88,1.74Z" />
            <path class="outline"
                d="M363.76,446.34l-1.68-5.25a6.85,6.85,0,0,1-.32-1.24,2.19,2.19,0,0,1,.29-.82c.26.12.62.16.76.36a17,17,0,0,1,1,1.71c.8,1.32,1.61,2.63,2.39,4a11.33,11.33,0,0,1,.5,1.06c-.18,0-.48,0-.54-.09-1-1.59-2-3.19-2.9-4.79a13.1,13.1,0,0,0-1-1.62,35.67,35.67,0,0,0,.81,3.75,17.65,17.65,0,0,0,1.35,2.72c.08.16.2.31.3.47-.2.1-.4.3-.59.28-.75-.06-1.5-.18-2.26-.28l.53-.14,1.61.18Z" />
            <path class="outline"
                d="M296.08,431.32l.28.14.93.09.51.14,1.4.1.52.14,1.17.09.75.15,1.41.09,1,.15,1.41.09.75.16,1.4.09.77.14a10.88,10.88,0,0,1-2.38.25c-3.08-.32-6.16-.68-9.21-1.18a18.16,18.16,0,0,1-3.82-1.25c-.29-.12-.41-.71-.55-1.1-.24-.66-.43-1.33-.62-1.95l2.67.86-.45.3-1.22.13c.23.49,0,1.17.85,1.38a8.45,8.45,0,0,1,1.76.92Z" />
            <path class="outline"
                d="M472.77,441.58c.32,2.06.63,4.12,1,6.17-.09.16-.17.44-.26.44-1.43,0-2.87,0-4.3,0v-.4h2.71l.12,0-.14-.18-.46-1.76v-3.5l-.07-.77.6-1Zm-.28,1.53a3.44,3.44,0,0,0,.67,4.65Zm-.24-.91-.09-.21c0,.07-.1.13-.1.19s.05.14.08.2A1.74,1.74,0,0,0,472.25,442.2Z" />
            <path class="outline"
                d="M325.37,449.78a1.74,1.74,0,0,0,2.25-1.67,18.9,18.9,0,0,1,1.13-3.38c.11-.28.43-.48.65-.72.18.31.54.63.51.92-.16,1.6-.42,3.19-.64,4.79l-.47,0-.08,0,1-4.94-.34-.07L328,448.77c-.56,1.7-.56,1.73-2.3,1.64-.74,0-1.49-.18-2.35-.29Z" />
            <path class="outline"
                d="M440.33,446.9l.5.15,2.6.44,0,.08c-.83,0-1.66,0-2.49,0a49.24,49.24,0,0,0-5.94-.18,3.63,3.63,0,0,1-3.89-2.25c-.83-1.62-1.6-3.27-2.37-4.92-.06-.15.06-.39.1-.59L430,441.4c.73,1.4,1.39,2.85,2.21,4.2.3.51,1,.81,1.46,1.21a9.87,9.87,0,0,0,1.77.28C437.05,447.07,438.69,447,440.33,446.9Z" />
            <path class="outline"
                d="M383,445.11c.9-.66,1.81-1.32,2.68-2,.58-.45,1.12-1,1.68-1.45a8.92,8.92,0,0,1-.94,1.44c-2.94,2.87-1.8,2.5-6.09,2.6-2,0-4,.27-5.93.39a4.94,4.94,0,0,1-1.63,0c-.23-.06-.32-.62-.48-.95l2.59.35,2.36-.08,3.15-.17Z" />
            <path class="outline"
                d="M304.08,431.7l-1.48-.38-.84-.29-4.2-1.37-.74-.31v0c.35-.06.74-.25,1.05-.15a36.47,36.47,0,0,0,5.61,1.71c3.21.4,6.47.38,9.71.56a10.45,10.45,0,0,1,1.44.28v0c-.82,0-1.65,0-2.47,0a8.63,8.63,0,0,0-1.39.3l-1.68,0a3.25,3.25,0,0,0-.89-.34c-.75-.05-1.5,0-2.24,0h0Z" />
            <path class="outline"
                d="M330.92,430.17l-.27.09-1.41.15-.51.1-1.41.05h0l-1.7.31-.76.12-1.64.06h0l-1.7.25h0l-3.14.25h-3.3v-.15c1.21-.11,2.42-.2,3.62-.33l11.68-1.32c1.22-.14,2.44-.28,3.66-.35a2.64,2.64,0,0,1,.92.31l-.52.12-1.65.06,0,0Z" />
            <path class="outline"
                d="M333.32,449.42c1,0,1.4-.66,1.78-1.52a35.75,35.75,0,0,1,2-3.76,3.79,3.79,0,0,1,1-.79,3.15,3.15,0,0,1,.25,1.16c-.15.88-.44,1.73-.68,2.6,0-.42,0-.84,0-1.26s0-.92,0-1.39l.1-.32-.1.33c-.86,1.53-1.75,3-2.58,4.61C334.59,450,334,450,333.32,449.42Z" />
            <path class="outline"
                d="M347,442.35l1.95,5.41c-.53.54-.62,0-.75-.33a32.84,32.84,0,0,0-1.73-4.12c.08,1.45.13,2.91.23,4.37,0,.53.2,1.07-.65.62l0-1v-3.8l-.25-1.19Z" />
            <path class="outline"
                d="M420.44,431.09l-1.48.12-2.34-.26c2.13-.53,13-.58,17.66-.05l-2.77.32-2.91-.13a2.09,2.09,0,0,0-.7-.29q-3.37,0-6.75,0A2.16,2.16,0,0,0,420.44,431.09Z" />
            <path class="outline"
                d="M446.6,445l.24,2.06a4.6,4.6,0,0,0,1.16.33c2.74,0,5.48,0,8.22,0l0,0a6.54,6.54,0,0,0,1.21.26c2.15,0,4.29,0,6.44.19-.26,0-.52.06-.78.06-1.91,0-3.82,0-5.74,0-3.33-.06-6.67-.17-10-.22-.71,0-1.07-.2-1-.95C446.43,446.08,446.51,445.51,446.6,445Z" />
            <path class="outline"
                d="M449.93,429.14l2.92.15a2.53,2.53,0,0,1-.83.3q-9.33,0-18.66,0a.54.54,0,0,1-.45-.24h15.77A9,9,0,0,0,449.93,429.14Z" />
            <path class="outline"
                d="M454.54,427.88l-1.94-.13c.15-.11.3-.32.44-.32,1.72,0,3.43.09,5.14.14l3.59.1,7.38.17v.31h-4.06a6.51,6.51,0,0,0-1.21-.25c-2.16,0-4.33,0-6.5,0h0Z" />
            <path class="outline"
                d="M444.93,431.29s-.06.08-.08.08H434.68s-.05-.06-.08-.09a2.31,2.31,0,0,1,.73-.27c3,0,5.91,0,8.87,0A2.28,2.28,0,0,1,444.93,431.29Z" />
            <path class="outline"
                d="M396.16,442.05l-1,2.76,1.29.35,7.63.09.3.15a2.71,2.71,0,0,1-.84.26c-2.81-.05-5.63-.15-8.44-.21-.87,0-1-.3-.5-1S395.64,442.85,396.16,442.05Z" />
            <path class="outline"
                d="M463.38,447.33c-.06-1.11-.15-2.22-.17-3.32a.79.79,0,0,1,.39-.64.75.75,0,0,1,.67.28c.78,1.19,1.51,2.42,2.26,3.63v.29l0,0c-.94-1.18-1.87-2.37-2.89-3.66.06.86.11,1.7.19,2.54C463.85,446.87,464.05,447.31,463.38,447.33Z" />
            <path class="outline"
                d="M351.79,447.57l-.66-2.18.65-.64L354,447v.3l0,0c-.29-.24-.57-.5-.87-.73s-.69-.48-1-.73l-.09-.32-.09.06.18.27.59,1.85-1.91.38c-.41.08-.84.14-1.52.25l.94-.64.73-.14Z" />
            <path class="outline"
                d="M412.05,431.55l-2.44.15a9.21,9.21,0,0,0-1.27-.17c-3.8,0-7.6,0-11.4,0a2.75,2.75,0,0,1-1.19-.18c.28,0,.55-.06.83-.06q7.2,0,14.4,0A4.26,4.26,0,0,1,412.05,431.55Z" />
            <path class="outline"
                d="M319.65,434.66l-1,.16-1.4.09-1,.15-1.64.09-1,.15-5,0-1.95-.16c.19-.11.38-.29.58-.3,3.77-.17,7.54-.34,11.31-.47A4.28,4.28,0,0,1,319.65,434.66Z" />
            <path class="outline"
                d="M465.11,431.94l-1.95-.17-1.9-.06-3.15-.11c.15-.12.29-.33.44-.33,1.67,0,3.35,0,5,.05,1.47.07,2.92.29,4.5.46l-.56.41-1.23-.16Z" />
            <path class="outline"
                d="M438.93,427.94l-5.08.17c-1.22-.07-2.45-.15-3.67-.19a10.24,10.24,0,0,1-2.51-.25h1.18c3,0,5.92,0,8.88,0A5.21,5.21,0,0,1,438.93,427.94Z" />
            <path class="outline"
                d="M444,447.05q.6-2.61,1.21-5.23c.53-.56.88-.2,1.21.24l-.06.52-.87.05c-.21,1.05-.47,2.36-.76,3.65C444.59,446.64,444.78,447.35,444,447.05Z" />
            <path class="outline"
                d="M442.74,427.73l-1.23.12-2.08-.25v-.21h12.68v0c-2.68,0-5.37,0-8.06,0A6.3,6.3,0,0,0,442.74,427.73Z" />
            <path class="outline"
                d="M472.49,431.06l.51.14.69.1.52.16a20.28,20.28,0,0,1-2.7,0c-2.31-.29-4.61-.68-7-1l1.47-.32.52.13,1.4.11.52.13,1.4.12.28.11,1.16.12.28.12Z" />
            <path class="outline"
                d="M338.6,433l-1.25.14-2.31-.27v-.18c3.07-.07,6.15-.15,9.22-.2.11,0,.23.17.35.27l-3.4.16Z" />
            <path class="outline"
                d="M453.1,431.49l-4.83-.15c.15-.11.29-.28.45-.31a3.92,3.92,0,0,1,.84,0c2.69,0,5.39,0,8.08.15Z" />
            <path class="outline"
                d="M404.87,443l2.85,2.38,0,.25,0,0c-.72-.53-1.42-1.07-2.15-1.59a4.26,4.26,0,0,0-.71-.35.32.32,0,0,0,0-.09l-.06,0,.09.1.51,1.42-.06,0-.44.22-.66-1.74Z" />
            <path class="outline" d="M426.21,428.22h-6.49A13.09,13.09,0,0,1,426.21,428.22Z" />
            <path class="outline" d="M300.72,434.58l-4.36-.64a3,3,0,0,1,1-.27,34.06,34.06,0,0,1,4.36.59Z" />
            <path class="outline"
                d="M326.85,433.94l-.77.16-1.4.08-1,.16-1.88.09-1.46.17-.18-.45,6.45-.44C326.68,433.7,326.77,433.86,326.85,433.94Z" />
            <path class="outline" d="M484.62,431.36l-3.46-1.19-1-.34v0s0-.08.07-.09A4.56,4.56,0,0,1,484.62,431.36Z" />
            <path class="outline"
                d="M478.48,432.51l4.39,1.59a4,4,0,0,1-1.23,0c-1-.27-2-.65-3-1C478.11,433,478.06,432.83,478.48,432.51Z" />
            <path class="outline"
                d="M474.72,429.07l-.28-.1-1.94-.34h0l-2.43-.25v0a7.37,7.37,0,0,1,1.79-.26c1.75.16,3.5.42,5.24.64l0,.31h-1.22Z" />
            <path class="outline"
                d="M314.13,432.9l.52-.14,2.08.28v.2h-7.85v-.06c1.35,0,2.7,0,4.05,0A6.44,6.44,0,0,0,314.13,432.9Z" />
            <path class="outline"
                d="M355.63,447l.53-.13,2.12-.13,1.71-.12,1.7.4c-1.85.11-3.43.23-5,.28A3.27,3.27,0,0,1,355.63,447Z" />
            <path class="outline" d="M334.53,433.23l-3.41.38-1.34-.26C331.76,432.83,333.65,432.78,334.53,433.23Z" />
            <path class="outline"
                d="M474.21,447.75h2.15l.73,0h1.22v.35c-1.17,0-2.34.11-3.5.1C474.61,448.26,474.41,447.93,474.21,447.75Z" />
            <path class="outline"
                d="M392.84,444.92l2.46-3.28a.27.27,0,0,1,.2,0,3.83,3.83,0,0,1-.45,1c-.69.87-1.45,1.7-2.18,2.54l-.06-.06Z" />
            <path class="outline" d="M370.25,445a10.61,10.61,0,0,1-.17-1.85,2.81,2.81,0,0,1,.5-1l.66.94-.55-.27Z" />
            <path class="outline"
                d="M392.87,445.22c-.82.07-1.63.19-2.45.21-1.23,0-2.46,0-3.69,0-.48,0-.76-.13-.19-.53l.11.08a2.71,2.71,0,0,0,.66.18h5.5Z" />
            <path class="outline"
                d="M344.12,448.49l.52-.14,1.2.32v.13c-1.18.08-2.35.19-3.53.23a3.84,3.84,0,0,1-1.06-.3l1.47-.15Z" />
            <path class="outline"
                d="M388,442.5l-.9,2.44-.43,0-.11-.08c.32-.76.63-1.53,1-2.27C387.57,442.54,387.82,442.54,388,442.5Z" />
            <path class="outline" d="M456.4,429.39l1.25.15a7.7,7.7,0,0,1-1.31.29,15.71,15.71,0,0,1-3-.14Z" />
            <path class="outline"
                d="M330.2,449.66l.52-.11,2.41.35c-1.48.12-2.69.24-3.9.31-.26,0-.86.21-.51-.49l.08,0Z" />
            <path class="outline" d="M321.53,449.54l1.48.14c-1,1-2.09,0-3.13.18Z" />
            <path class="outline" d="M415.89,431.32l-1.24.14-1.91-.3,0-.26Z" />
            <path class="outline" d="M460.48,429.63l.77.14-3.07.42,0-.26Z" />
            <path class="outline" d="M314.58,448.82l.74.14,1.46.3v0l-2.32.09Z" />
            <path class="outline" d="M463.6,429.87l.53.14-2.39.41,0-.24Z" />
            <path class="outline" d="M338.13,429.43l-.29.11-2.37-.29,0-.29Z" />
            <path class="outline" d="M329.25,433.71l-1,.15-.93-.31.05-.23Z" />
            <path class="outline" d="M367.15,446.08l.53-.14,1.66.32,0,.24Z" />
            <path class="outline" d="M371.43,443.26l.59,1.38C371.16,444.46,371.1,443.94,371.43,443.26Z" />
            <path class="outline" d="M477.77,429.38c.7-.55,1.35-.26,2,.17l-.79,0h0l-1.23-.25Z" />
            <path class="outline" d="M476.8,432l1,.35-1.18.16Z" />
            <path class="outline" d="M337,449l1.57.46C337.07,449.63,337.06,449.63,337,449Z" />
            <path class="outline" d="M319.12,449.31l.29.11-2.14.45,0-.25Z" />
            <path class="outline" d="M295.19,429.06l-.28-.11,1.47-.34.07.39-.59.12h0Z" />
            <path class="outline" d="M302.41,434.81l-.3-.13,1.91-.41.05.26Z" />
            <path class="outline" d="M446.33,443.27l.22,1-.44.06Z" />
            <path class="outline" d="M468.71,447.55l-2.2.05,0,0h2.16Z" />
            <path class="outline" d="M339.07,449l.3-.14,1.43.28-.05.25Z" />
            <path class="outline" d="M304.51,434.88l1.69-.34,0,.33h-1.72Z" />
            <path class="outline" d="M354,447.33h1.22l0,.32-1.21-.29Z" />
            <path class="outline" d="M369.8,445.87l.46-.23.25.25,0,0Z" />
            <path class="outline" d="M337.59,448l-.15.29-.36-.7.18-.1Z" />
            <path class="outline" d="M313.61,448.59l.28.13-1,.08,0,0Z" />
            <path class="outline" d="M475.84,431.79l.29.13-.51.28Z" />
            <path class="outline" d="M428,439.22l.13-.4.25.34Z" />
            <path class="outline" d="M474.88,431.55l.29.14-.51.27Z" />
            <path class="outline" d="M370.51,445.89l.06-.53.16,0-.19.52Z" />
            <path class="outline" d="M404.93,445.8l-.08.05-.07-.12s.07,0,.1,0S404.92,445.77,404.93,445.8Z" />
            <path class="outline" d="M405.35,445.16c.06.09.12.17.17.26l-.12.09-.11-.3Z" />
            <path class="outline" d="M485.1,431.6l-.37-.16Z" />
            <path class="outline" d="M482.88,434.11l.25.13Z" />
            <path class="outline" d="M372,444.66l.2.28Z" />
            <path class="outline" d="M382.28,432a2.43,2.43,0,0,1,.74-.26c2.92,0,5.83,0,8.75,0a2,2,0,0,1,.56.16Z" />
            <path class="outline" d="M420.44,431.09a2.16,2.16,0,0,1,.71-.3q3.38,0,6.75,0a2.09,2.09,0,0,1,.7.29Z" />
            <path class="outline" d="M375.56,432.23l2.61-.05Z" />
            <path class="outline" d="M461.26,431.71l1.9.06Z" />
            <path class="outline" d="M465.11,431.94l1.17.09Z" />
            <path class="outline" d="M469.18,432.43l.7.07Z" />
            <path class="outline" d="M308.63,435.32l5,0Z" />
            <path class="outline" d="M346.07,443.51v0Z" />
            <path class="outline" d="M338.6,433l2.61-.08Z" />
            <path class="outline" d="M321.8,434.43l1.88-.09Z" />
            <path class="outline" d="M314.6,435.15l1.64-.09Z" />
            <path class="outline" d="M317.24,434.91l1.4-.09Z" />
            <path class="outline" d="M330.2,449.66l-1.4.11.47,0Z" />
            <path class="outline" d="M344.12,448.49l-1.41.09Z" />
            <path class="outline" d="M324.68,434.18l1.4-.08Z" />
            <path class="outline" d="M316.78,449.26l-1.46-.3Z" />
            <path class="outline" d="M313.61,448.59l-.67.18v-.28Z" />
            <path class="outline" d="M308.8,442.38l-.08.08-.07-.08A.11.11,0,0,1,308.8,442.38Z" />
            <path class="outline" d="M371.75,428.12a3.2,3.2,0,0,1,.78-.2h9a3.2,3.2,0,0,1,.78.2Z" />
            <path class="outline" d="M363,430.12c-.59.06-1.17.15-1.76.16q-3.78,0-7.56,0a7.6,7.6,0,0,1-1.15-.17Z" />
            <path class="outline" d="M373.64,430.25a2.09,2.09,0,0,1-.7.29q-4.21,0-8.43,0a2.13,2.13,0,0,1-.71-.29Z" />
            <path class="outline"
                d="M457.38,427.91c2.17,0,4.34,0,6.5,0a6.51,6.51,0,0,1,1.21.25c-2.16,0-4.31,0-6.46,0A9.06,9.06,0,0,1,457.38,427.91Z" />
            <path class="outline" d="M388,429.77c0,.06-.09.18-.13.18-1.87,0-3.74-.06-5.6-.1Z" />
            <path class="outline" d="M422.84,428.81a3.09,3.09,0,0,1-.94.29c-1.28,0-2.55-.13-3.83-.21Z" />
            <path class="outline" d="M342,429.19a2.78,2.78,0,0,1,.92-.31c1.12,0,2.24.12,3.36.18Z" />
            <path class="outline" d="M430,428.9l-4.05-.09Z" />
            <path class="outline" d="M347,429a4.08,4.08,0,0,1,1-.32c1,0,2.05,0,3.07,0l-2.67.23Z" />
            <path class="outline" d="M310.76,432.06a8.63,8.63,0,0,1,1.39-.3c.82-.05,1.65,0,2.47,0Z" />
            <path class="outline" d="M406.52,428a4.24,4.24,0,0,1,3.6,0Z" />
            <path class="outline" d="M350.12,430.26l-3.09.07Z" />
            <path class="outline" d="M343.64,430.49l-3.09.08Z" />
            <path class="outline" d="M318.44,431.52l3.14-.25Z" />
            <path class="outline" d="M354.92,428.48c1-.67,2.05-.33,3.09-.13Z" />
            <path class="outline" d="M306,431.75c.74,0,1.49,0,2.24,0a3.25,3.25,0,0,1,.89.34Z" />
            <path class="outline" d="M454.54,427.88l2.87,0Z" />
            <path class="outline" d="M359.24,428.21l2.85-.09Z" />
            <path class="outline" d="M351.08,428.64l2.84-.06Z" />
            <path class="outline" d="M412,429.28l-2.85.1Z" />
            <path class="outline" d="M379.16,430l-2.61.08Z" />
            <path class="outline" d="M470.1,428.39l2.43.25Z" />
            <path class="outline" d="M415.64,429.06l-2.36.09Z" />
            <path class="outline" d="M337.88,430.74l-1.89.07Z" />
            <path class="outline" d="M472.5,428.63l1.94.34Z" />
            <path class="outline" d="M304.08,431.7l1.89.06Z" />
            <path class="outline" d="M329.24,431.45l-1.87.1Z" />
            <path class="outline" d="M324.68,431.93l-1.88.1Z" />
            <path class="outline" d="M330.92,430.17l1.94-.34Z" />
            <path class="outline" d="M322,432.17l-1.88.1Z" />
            <path class="outline" d="M334.28,431l-1.88.1Z" />
            <path class="outline" d="M331.64,431.22l-1.64.09Z" />
            <path class="outline" d="M326.84,431.69l-1.63.1Z" />
            <path class="outline" d="M325.64,430.86l1.7-.31Z" />
            <path class="outline" d="M321.56,431.28l1.7-.25Z" />
            <path class="outline" d="M323.24,431l1.64-.06Z" />
            <path class="outline" d="M332.84,429.85l1.65-.06Z" />
            <path class="outline" d="M327.32,430.56l1.41-.05Z" />
            <path class="outline" d="M305.45,432.5l-1.41-.09Z" />
            <path class="outline" d="M303.05,432.26l-1.41-.09Z" />
            <path class="outline" d="M329.24,430.41l1.41-.15Z" />
            <path class="outline" d="M299.2,431.79l-1.4-.1Z" />
            <path class="outline" d="M469.84,430.6l-1.4-.12Z" />
            <path class="outline" d="M467.92,430.35l-1.4-.11Z" />
            <path class="outline" d="M319.4,432.43l-1.4.08Z" />
            <path class="outline" d="M307.6,432.75l-1.4-.09Z" />
            <path class="outline" d="M300.89,432l-1.17-.09Z" />
            <path class="outline" d="M471.28,430.83l-1.16-.12Z" />
            <path class="outline" d="M490,436.23a.67.67,0,0,1-1.2,0Z" />
            <path class="outline" d="M474.72,429.07l1.17.05Z" />
            <path class="outline" d="M402,428l1.2,0Z" />
            <path class="outline" d="M477.78,429.35l1.23.25Z" />
            <path class="outline" d="M472.49,431.06l-.93-.11Z" />
            <path class="outline" d="M488.09,436.11l-1-.08Z" />
            <path class="outline" d="M480.18,429.83l1,.34Z" />
            <path class="outline" d="M297.29,431.55l-.93-.09Z" />
            <path class="outline" d="M473.69,431.3l-.69-.1Z" />
            <path class="outline" d="M301.76,431l.84.29Z" />
            <path class="outline" d="M296.08,431.32l-.68-.07Z" />
            <path class="outline" d="M490.55,434.11l.69.16Z" />
            <path class="outline" d="M296.82,429.35l.74.31Z" />
            <path class="outline" d="M295.19,429.06l.69.07Z" />
            <path class="outline" d="M404.07,445.25l-7.63-.09Z" />
            <path class="outline" d="M424,446.19c-2.23.05-4.46.1-6.69.13-.08,0-.15-.16-.23-.25Z" />
            <path class="outline" d="M416.58,445.93l-1.66-.11Z" />
            <path class="outline" d="M404.87,443l-.68.67C404.16,443.21,403.86,442.45,404.87,443Z" />
            <path class="outline" d="M407.74,445.65l0-.25,1.41.06Z" />
            <path class="outline"
                d="M456.22,447.34c-2.74,0-5.48,0-8.22,0a4.6,4.6,0,0,1-1.16-.33c2.71,0,5.42.07,8.14.13A7.62,7.62,0,0,1,456.22,447.34Z" />
            <path class="outline" d="M471.38,442.35v0Z" />
            <path class="outline" d="M468.7,447.58h-2.16v-.29Z" />
            <path class="outline" d="M486.47,438.19l1.17.12Z" />
            <path class="outline" d="M477.09,447.8l-.73,0Z" />
            <path class="outline" d="M383,445.11l-2.61.1Z" />
            <path class="outline" d="M377.24,445.38l-2.36.08Z" />
            <path class="outline" d="M351.78,444.75l-.65.64C351.06,444.89,351,444.39,351.78,444.75Z" />
            <path class="outline" d="M358.28,446.78l-2.12.13Z" />
            <path class="outline" d="M363.76,446.34l.25.26-1.61-.18Z" />
            <path class="outline" d="M351.79,447.57l-.92,0Z" />
            <path class="outline" d="M440.33,446.9c-1.64.07-3.28.17-4.92.19a9.87,9.87,0,0,1-1.77-.28Z" />
            <path class="outline"
                d="M489.87,438.11a.52.52,0,0,1-.19.08c-.07,0-.13-.07-.19-.1a.56.56,0,0,1,.2-.08C489.75,438,489.81,438.07,489.87,438.11Z" />
            <path class="outline" d="M386.65,445l.43,0,5.76,0,0,.24h-5.5A2.71,2.71,0,0,1,386.65,445Z" />
            <path class="outline" d="M472.49,443.11l.67,4.65A3.44,3.44,0,0,1,472.49,443.11Z" />
            <path class="outline" d="M472.25,442.2l-.11.18c0-.06-.09-.13-.08-.2s.06-.12.1-.19Z" />
            <path class="outline" d="M337.64,444.47l.1-.33-.1.32Z" />
            <path class="outline" d="M352,445.91l-.18-.27.09-.06.09.32Z" />
            <path class="outline" d="M404.84,443.74l-.09-.1.06,0a.32.32,0,0,1,0,.09Z" />
        </g>
    </g>
</svg>
