<svg id="Nizy_bochonki" data-name="Nizy bochonki" xmlns="http://www.w3.org/2000/svg" viewBox="0 0 672 960">
    <g id="Bochonok">
        <g>
            <path class="outline stroke"
                d="M388.87,446.43c-1.15,1.6-2.25,3.23-3.45,4.79a18.28,18.28,0,0,1-5.35,5c-2,1.13-4,1.25-5.41.17-1.21-.9-1.67-3.3-1.11-5.29.91-3.23,3-5.72,5.07-8.21.6-.72,1.24-1.41,2.06-2.33-2.35.19-4.43.42-6.51.51s-4.13,0-6.19,0c-4,.07-8,.11-12.06.24-3.71.11-7.41.29-11.11.5s-7.12.38-10.66.74a118.94,118.94,0,0,1-15.56.95c-2.93-.08-5.87.2-8.77-.11a74.74,74.74,0,0,1-7.7-1.71c-1.21-.27-2.48-.35-3.68-.66-2.24-.57-3.72-1.85-3.79-4.38a3.49,3.49,0,0,0-.54-1.51c-1-1.89-2.17-3.72-3.16-5.63a34.48,34.48,0,0,1-1.3-3.34l.34-.44,15,3.62.2-.38c-6.2-5.09-9.16-12-11.09-19.41l.32-.23a5.34,5.34,0,0,1,.71.95c1.41,3,2.58,6.19,4.24,9.06a28,28,0,0,0,4.71,5.83,53.65,53.65,0,0,0,5.5,4.29,1.28,1.28,0,0,0,.65.27c2.66,0,5.32,0,8,0l.1-.34c-1.09-.74-2.17-1.51-3.27-2.24a2.14,2.14,0,0,1-.87-2.68c.89.8,1.74,1.58,2.61,2.35a17.28,17.28,0,0,1,2,1.81,2.74,2.74,0,0,0,2.66.86q10-.75,20-1.42c2.62-.18,5.26-.24,7.63-.34l-8.16-11.24.28-.32a3.93,3.93,0,0,1,.89.59c1.94,2.24,3.77,4.59,5.82,6.73a59.94,59.94,0,0,0,4.89,4.22,1,1,0,0,0,.55.13l19.55.49.06,0,2.89-7.07.6.15c-.37,2.29-.73,4.58-1.15,7.18l30.2-.83c1.14-5.54,1.51-11,2.71-16.31l.49,0c0,1.16,0,2.32,0,3.48-.06,2.83-.16,5.66-.22,8.49,0,1.5-.17,2.95-1.36,4l26.17-.56c.1-1.42.2-2.86.31-4.32,1.52.41,1.56.67.76,4.32h3.38a8.37,8.37,0,0,1,0-1.66,35.62,35.62,0,0,0,1.09-4.88c.18-2.93.05-5.87.08-8.81a5.44,5.44,0,0,1,.29-1.24,3.93,3.93,0,0,1,.57,1.09c.54,3.1,1.19,6.19,1.49,9.31a24,24,0,0,1-.49,5.38c0,.34-.55.62-.78.87l21.74,1.31c2-4.82,2.55-10.11,3.93-15.16l.76.17c-1.13,5-.45,10.28-2.63,15.22l6.82.54,9.86.76a3.2,3.2,0,0,1,.91.23l5.23,2c1.22-3.21,2.4-6.24,3.51-9.29.69-1.93,1.25-3.9,1.91-5.84.09-.27.43-.46.65-.69a3,3,0,0,1,.11.93c-.79,3.67-1.62,7.34-2.41,11-.32,1.51-.57,3-.86,4.64,1.59,1.2,3.61.62,5.81.84-1.27,2.32-2.47,4.45-3.62,6.61a26,26,0,0,0-1.54,3.24c-.69,1.9-2.3,2.36-4,2.57a32.17,32.17,0,0,1-3.65-.17c-1.26,0-2.52.24-3.78.18-2-.08-4.09-.27-6.13-.49-2.3-.26-4.59-.62-6.88-.91-2.11-.27-4.21-.52-6.32-.76-1.45-.17-2.9-.29-4.35-.45-3.4-.39-6.8-.81-10.2-1.18-1.76-.19-3.53-.32-5.3-.49-3.13-.31-6.26-.73-9.4-.93q-6-.39-12-.5c-4.47-.08-8.95,0-13.63,0,.49.84.94,1.56,1.35,2.29,1.64,3,3.28,6,2.83,9.59-.31,2.47-2.26,3.66-4.51,2.79-2.71-1.06-4.32-3.28-5.7-5.7a2.32,2.32,0,0,0-.72-.82,102.35,102.35,0,0,0,8.77,30.83c.27.57.63,1.1.92,1.66.51,1,.3,1.48-.68,1.85a15.81,15.81,0,0,1-2.08.78,1.22,1.22,0,0,1-1-.49,68.2,68.2,0,0,1-4.23-8.13,66.82,66.82,0,0,1-4-18.5c-.42-5.25-.69-10.51-1-15.86l-.68-.05c-.08.11-.15.17-.16.23q-2.18,13.47-4.34,26.92c-.23,1.43-.43,2.87-.63,4.3-.12.82-.94,1.2-2,.9s-2.18-.66-3.28-.94c-2.37-.61-2.75-1.31-1.8-3.61a182,182,0,0,0,7.23-20.55c.12-.45.19-.91.29-1.37Zm84.63-2.72c2.4,1.07,3.32.65,3.6-1.64l.67-2.65.54-1.67h.47l.42,1.46-.21,2.86-.71,2.23,3.8-.31-.18-2.09c.75.65,1.25,1.14,1.8,1.57s1.06.44,1.44-.33c.58-1.17,1.25-2.31,1.89-3.46h.55l-.27,2,.21.06,2.88-4,.18-.37-.78.19a10,10,0,0,1-5.34-.79c-.92-.36-1.85-.69-2.78-1l-.5-.18-2.17-.79-.48-.16-11.75-2.54v-.75c.55.07,1.1.13,1.64.21a86.92,86.92,0,0,1,16.6,4.07,29.63,29.63,0,0,0,4.53,1,2,2,0,0,0,2.41-1.2l.42-.53-.89-.18a44.82,44.82,0,0,1-4.47-1.27,37.41,37.41,0,0,0-9.45-2.58c-5.51-.64-11-1.33-16.54-1.81-6.16-.53-12.34-1.09-18.53-1.21-8.39-.16-16.78.06-25.18.15-3.12,0-6.23.17-9.35.29-8.42.35-16.83.86-25.26,1-6,.12-12.06-.27-18.1-.3-7.83,0-15.66,0-23.5.13-3,0-5.91.16-8.86.35-7.17.44-14.34,1-21.52,1.39a29.36,29.36,0,0,1-10.17-1.34c-2.68-.82-5.42-1.48-8.13-2.2l-.21.23c.38.61.63,1.45,1.19,1.78a7.23,7.23,0,0,0,2.82.89c4.39.58,8.8,1.53,13.19,1.49,7.82-.07,15.63-.86,23.45-1.15,7-.26,14-.38,21-.32,7.55.06,15.1.62,22.64.55,8.91-.09,17.81-.59,26.72-1,2.71-.11,5.41-.4,8.12-.55,4.95-.28,9.9-.81,14.84-.69,9.54.24,19.08.78,28.6,1.35,3.86.23,7.69.9,11.54,1.36V432c-3.65-.35-7.3-.71-11-1-2.5-.22-5-.4-7.51-.6l-.49,0c-3.39-.13-6.78-.31-10.17-.38-6-.12-12-.39-18-.21-8.06.25-16.11.87-24.16,1.34l-1,.23.08.27.95-.3c1.24-.13,1.85,1.27,3.3,1.1,2.61-.3,4.48.86,4.64,3.82a.53.53,0,0,0,0,.12l3.53,2.68a6.58,6.58,0,0,0,1.13.21c3.36,0,6.71,0,10.06,0h1.38l-.41-1-.6-2.4,0-1.92v-.47a3.84,3.84,0,0,1,.15-.69c.17-.34.39-.66.59-1a5.89,5.89,0,0,1,.51,1.08c.25,1,.43,2,.63,3l.71,2.41c0,.77.45,1,1.17,1a19,19,0,0,1,2.12.14l5.47.41.14-.35-.72-.95-.94-2.65.58,0,.37.29a6.49,6.49,0,0,0,6.53,4.09c3.18-.09,3.19.08,3.94-3.07l.84-2.46h.9c0,.87-.07,1.75-.11,2.63-.3,1.06-.61,2.12-.92,3.18,3.89.86,4.27.63,5-2.91h.63l.75,3.11c.25.16.49.44.76.47,2.05.25,4.1.46,6.16.67s4.31.41,6.7.64l-.42-1.06-.78-2.89c0-1.52.09-3,.13-4.55h.88l1,4.79.89,2.91c.27,1.16.64,1.34,2.41,1l-.49-1.07.19-1.56,1.71,1.84c.48.4.9,1.05,1.43,1.17,1.91.41,3.86.64,5.8.93ZM327.09,440.4l.19-.26,1-1-.65,2.57a9,9,0,0,0,1.15,0c1-.12,2-.37,3-.39,1.2,0,2.19-.24,2.72-1.44l2-1.84.23.16-.42,1.41-1,1.38,9.9-.54-.26-1.31-.21-2.39c-.14-1.43-.44-2.87.49-4.56a12,12,0,0,1,.51,1.3c.26,1.08.48,2.17.71,3.26l.89,2.2c.67,1.59,1.11,1.72,3.57,1l-.35-1.07c.65.35,1,.57,1.38.75a3.57,3.57,0,0,0,1.2.44c3.3,0,6.59,0,9.89,0l.1-.44-1.11-1-.44-1.93.47-.26.2,0,1.95,2.38c.41.4.8,1.1,1.23,1.13a20.32,20.32,0,0,0,3.64-.3c.09,0,.11-.54.16-.83-.2-.72-.41-1.44-.61-2.17l.22-2.56h.49l.75,2.57c.3,1.93,1.37,3.09,2.88,3q4.29-.15,8.59-.38a2,2,0,0,0,1.07-.4c.87-.7,1.67-1.47,2.5-2.22a6.6,6.6,0,0,0,1.14-1.65c.5-1.6,1.32-2.53,2.63-2.67l-2.06,3.13.35.27a17.72,17.72,0,0,1,1.85-1.73,1.2,1.2,0,0,0,.53-1.65c1.74,1.19,2.41-.92,3.7-1.15a21.37,21.37,0,0,0-2.39-.08c-7.94.14-15.88.35-23.82.4-4.06,0-8.13-.23-12.2-.37-2.79-.07-5.58-.25-8.37-.21-5.11.08-10.22.18-15.32.45-4.54.24-9.06.8-13.6,1.06a88.18,88.18,0,0,1-10.28.12c-4.36-.27-8.7-.91-13.06-1.39,0-.05,0,.09,0,.17q1.71,3.13,3.46,6.24a1.48,1.48,0,0,0,.78.66c.79.24,1.61.37,2.65.59a9.48,9.48,0,0,1-.74-1.15c-.49-1.09-1-2.17-1.37-3.3-.19-.55-.2-1.21.71-1.33l1.24,1.91,1.58,2.38a10.11,10.11,0,0,0,6.43,3.77,10.73,10.73,0,0,1-.24-1.6,5,5,0,0,1,.27-1.17l.55.66a3.45,3.45,0,0,0,3.24,2.46c.59,0,1.18.14,1.78.16,1.15,0,2.31,0,3.64,0L317,439.66l-.94-2.89-.3-1.42.7-.24L317,437l1.69,2.87a3.05,3.05,0,0,0,3.53,2,10.53,10.53,0,0,1,2.51,0,1.94,1.94,0,0,0,2.36-1.45Zm69.55-2.64c.79,2.69,1.44,5.69,2.56,8.51s2.56,5.19,5.33,6.57c1.22.61,2.07.16,2.5-1.15a5.13,5.13,0,0,0-.63-4.23c-1.53-2.76-3.21-5.43-4.81-8.15a24.28,24.28,0,0,0-6-6.88,1.91,1.91,0,0,0-1.73-.15,58.94,58.94,0,0,0-6.36,4.46,48.43,48.43,0,0,0-10,11,10.11,10.11,0,0,0-1.93,5.14c0,1.25.52,2,1.36,1.83a5.2,5.2,0,0,0,2.33-.9,37.88,37.88,0,0,0,4.68-4.44c2.12-2.52,4.05-5.2,6-7.87.87-1.2,1.54-2.54,2.31-3.82-1.84,11-4.43,21.83-8.84,32.06l3.94,1.3c.87-5.7,1.66-11.45,2.64-17.16s2.15-11.5,3.2-17H396c0,3.84,0,7.84,0,11.84a33,33,0,0,0,.31,4.77c.63,4.21,1.3,8.43,2.09,12.62a48.11,48.11,0,0,0,5,14.59c.88,1.59,1.62,1.67,2.87.29C401,475.32,393.85,442.27,396.64,437.76Zm4.34-1.12c.55-2.06-.06-3.07-2.44-4C399,434.41,400.23,435.37,401,436.64Zm3.22,2.67-1.81-2.42A2,2,0,0,0,404.2,439.31Z" />
            <path class="color-base"
                d="M479.2,439.2l-.42-1.46-.12-1.13-.35,0v1.11l-.54,1.67h-5.24l-.48-.28c-.1-.11-.2-.32-.28-.31a9.42,9.42,0,0,1-1.78.33c-3.07-.11-6.14-.3-9.21-.46l-1-4.79-.22-.71-.66.71c0,1.52-.09,3-.13,4.55-1.82-.1-3.65-.15-5.47-.29-2.57-.19-5.14-.43-7.7-.65H445l-4-.27.11-2.63-.27-1.09h-.26l-.37,1.09-.84,2.46c-2-.18-4.09-.35-6.13-.55-1.45-.14-2.89-.32-4.34-.47l-.37-.29-.94-1.27-.15.06.3,1.18a9.37,9.37,0,0,1-1.8.29c-2,0-4-.13-5.94-.21-.2-1-.38-2-.63-3a5.89,5.89,0,0,0-.51-1.08c-.2.33-.42.65-.59,1a3.84,3.84,0,0,0-.15.69v.47l0,1.92L403,436.3a.53.53,0,0,1,0-.12c-.16-3-2-4.12-4.64-3.82-1.45.17-2.06-1.23-3.3-1.1a1.41,1.41,0,0,0,0-.2c8.05-.47,16.1-1.09,24.16-1.34,6-.18,12,.09,18,.21,3.39.07,6.78.25,10.17.38l.49,0c2.51.2,5,.38,7.51.6,3.66.33,7.31.69,11,1l.5.07,11.75,2.54.48.16,2.17.79.23.77-.24,1.19-.23.5v.71Z" />
            <path class="color-base"
                d="M317,437l-.51-1.92c1.1-.16,2.2-.35,3.3-.49,2.79-.36,5.61-.59,8.38-1.07a103.74,103.74,0,0,1,17.76-1.81c2.63,0,5.27,0,7.9,0a3.21,3.21,0,0,0,1.1-.41c4.07.14,8.14.4,12.2.37,7.94-.05,15.88-.26,23.82-.4a21.37,21.37,0,0,1,2.39.08c-1.29.23-2,2.34-3.7,1.15h.07l-.45-.06-.29,0c-1.31.14-2.13,1.07-2.63,2.67a6.6,6.6,0,0,1-1.14,1.65l-15,0-.75-2.57h-.49c-.07.86-.15,1.71-.22,2.56l-6.37-.21-.2,0-.66-.9-.18.08.12.85-14.88.23c-.23-1.09-.45-2.18-.71-3.26a12,12,0,0,0-.51-1.3c-.93,1.69-.63,3.13-.49,4.56Z" />
            <path class="color-shadow-dark"
                d="M492,435.34a2,2,0,0,1-2.41,1.2,29.63,29.63,0,0,1-4.53-1,86.92,86.92,0,0,0-16.6-4.07c-.54-.08-1.09-.14-1.64-.21l-.48-.06c-3.85-.46-7.68-1.13-11.54-1.36-9.52-.57-19.06-1.11-28.6-1.35-4.94-.12-9.89.41-14.84.69-2.71.15-5.41.44-8.12.55-8.91.37-17.81.87-26.72,1-7.54.07-15.09-.49-22.64-.55-7-.06-14,.06-21,.32-7.82.29-15.63,1.08-23.45,1.15-4.39,0-8.8-.91-13.19-1.49a7.23,7.23,0,0,1-2.82-.89c-.56-.33-.81-1.17-1.19-1.78l.21-.23c2.71.72,5.45,1.38,8.13,2.2a29.36,29.36,0,0,0,10.17,1.34c7.18-.38,14.35-.95,21.52-1.39,2.95-.19,5.91-.32,8.86-.35,7.84-.09,15.67-.16,23.5-.13,6,0,12.07.42,18.1.3,8.43-.17,16.84-.68,25.26-1,3.12-.12,6.23-.25,9.35-.29,8.4-.09,16.79-.31,25.18-.15,6.19.12,12.37.68,18.53,1.21,5.53.48,11,1.17,16.54,1.81a37.41,37.41,0,0,1,9.45,2.58,44.82,44.82,0,0,0,4.47,1.27Z" />
            <path class="color-shadow-dark"
                d="M354.93,431.3a3.21,3.21,0,0,1-1.1.41c-2.63,0-5.27,0-7.9,0a103.74,103.74,0,0,0-17.76,1.81c-2.77.48-5.59.71-8.38,1.07-1.1.14-2.2.33-3.3.49l-.7.24-4.07.22h-1.2a29.94,29.94,0,0,1-3.41.16c-2-.13-4.06-.41-6.08-.63l-1.24-1.91c-.91.12-.9.78-.71,1.33.38,1.13.88,2.21,1.37,3.3a9.48,9.48,0,0,0,.74,1.15c-1-.22-1.86-.35-2.65-.59a1.48,1.48,0,0,1-.78-.66q-1.75-3.11-3.46-6.24c0-.08,0-.22,0-.17,4.36.48,8.7,1.12,13.06,1.39a88.18,88.18,0,0,0,10.28-.12c4.54-.26,9.06-.82,13.6-1.06,5.1-.27,10.21-.37,15.32-.45C349.35,431.05,352.14,431.23,354.93,431.3Z" />
            <path class="color-shadow"
                d="M317,437l27.82-.25.21,2.39-8.66.47.42-1.41-.23-.16-2,1.84a19.36,19.36,0,0,0-2.64.06c-1.33.2-2.65.61-3.61-.79l-1,1-.19.26h0l-8.4-.49Zm20.05.75a.88.88,0,0,0,.19-.12s0-.09-.05-.09a.65.65,0,0,0-.19,0Z" />
            <path class="color-shadow-dark"
                d="M480.94,438.71V438c.08-.16.16-.33.23-.5l.24-1.19.27-.59c.93.34,1.86.67,2.78,1a10,10,0,0,0,5.34.79l.6.18-2.88,4-.21-.06.27-2-.27-1-.17.06-.11.91c-.64,1.15-1.31,2.29-1.89,3.46-.38.77-.87.77-1.44.33s-1.05-.92-1.8-1.57l.18,2.09-3.8.31.71-2.23c.47-.14,1.24-.16,1.34-.43A20.17,20.17,0,0,0,480.94,438.71Z" />
            <path class="color-shadow"
                d="M301,435.12c2,.22,4.05.5,6.08.63a29.94,29.94,0,0,0,3.41-.16c.29.21.56.58.88.63,1.56.23,3.13.37,4.69.55.32,1,.63,1.93.94,2.89l-7.41-.5-.55-.66-.34-.82-.58.95-5.54-1.13Z" />
            <path class="color-shadow"
                d="M445.61,437.52c2.56.22,5.13.46,7.7.65,1.82.14,3.65.19,5.47.29l.78,2.89c-.88,0-1.76,0-2.63,0-3.53-.22-7.05-.47-10.57-.71Z" />
            <path class="color-shadow" d="M403,436.3l15.09-.48.6,2.4c-3,.08-6,.13-8.95.27a29.65,29.65,0,0,0-3.21.49Z" />
            <path class="color-shadow"
                d="M370.16,436.77l15,0c-.83.75-1.63,1.52-2.5,2.22a2,2,0,0,1-1.07.4q-4.31.22-8.59.38C371.53,439.86,370.46,438.7,370.16,436.77Z" />
            <path class="color-shadow"
                d="M346.53,436.78l14.88-.23.25.23.44,1.93c-3.49,0-7,0-10.48,0-.55,0-1.12-.22-1.66-.17a25,25,0,0,0-2.54.45Z" />
            <path class="color-shadow"
                d="M428.84,436.07c1.45.15,2.89.33,4.34.47,2,.2,4.09.37,6.13.55-.75,3.15-.76,3-3.94,3.07A6.49,6.49,0,0,1,428.84,436.07Z" />
            <path class="color-shadow"
                d="M460.78,438.7c3.07.16,6.14.35,9.21.46a9.42,9.42,0,0,0,1.78-.33c.08,0,.18.2.28.31l-.25,2.68-6.31,0L463.78,440c-.07.61-.13,1.08-.19,1.56l-1.92,0Z" />
            <path class="color-shadow"
                d="M419.94,435.83c2,.08,4,.18,5.94.21a9.37,9.37,0,0,0,1.8-.29l.21.07.94,2.65a3.74,3.74,0,0,1-.9.2c-2.43-.13-4.85-.28-7.28-.43Z" />
            <path class="color-shadow-dark"
                d="M347.42,439a25,25,0,0,1,2.54-.45c.54,0,1.11.17,1.66.17,3.5,0,7,0,10.48,0l1.11,1-.1.44c-3.3,0-6.59,0-9.89,0a3.57,3.57,0,0,1-1.2-.44c-.38-.18-.73-.4-1.38-.75L351,440C348.53,440.7,348.09,440.57,347.42,439Z" />
            <path class="color-shadow-dark"
                d="M309.62,439.16l7.41.5,1.25,2.12c-1.33,0-2.49,0-3.64,0-.6,0-1.19-.15-1.78-.16A3.45,3.45,0,0,1,309.62,439.16Z" />
            <path class="color-shadow"
                d="M440.94,437.26l4,.27c-.69,3.54-1.07,3.77-5,2.91C440.33,439.38,440.64,438.32,440.94,437.26Z" />
            <path class="color-shadow" d="M362.33,436.56l6.37.21c.2.73.41,1.45.61,2.17h-5Z" />
            <path class="color-shadow-dark" d="M336.37,439.64l8.66-.47c.07.39.15.78.26,1.31l-9.9.54Z" />
            <path class="color-shadow-dark"
                d="M318.69,439.9l8.4.49a1.94,1.94,0,0,1-2.36,1.45,10.53,10.53,0,0,0-2.51,0A3.05,3.05,0,0,1,318.69,439.9Z" />
            <path class="color-shadow-dark"
                d="M302.61,437.5l5.54,1.13.58-.95.34.82a5,5,0,0,0-.27,1.17,10.73,10.73,0,0,0,.24,1.6A10.11,10.11,0,0,1,302.61,437.5Z" />
            <path class="color-shadow" d="M472.53,439.42h5.24l-.67,2.65-3.69-.21Z" />
            <path class="color-shadow-dark"
                d="M465.49,441.86l6.31,0,.92,2.14c-1.94-.29-3.89-.52-5.8-.93C466.39,442.91,466,442.26,465.49,441.86Z" />
            <path class="color-shadow-dark"
                d="M446.36,440.63c3.52.24,7,.49,10.57.71.87.05,1.75,0,2.63,0l.42,1.06c-2.39-.23-4.55-.42-6.7-.64s-4.11-.42-6.16-.67C446.85,441.07,446.61,440.79,446.36,440.63Z" />
            <path class="color-shadow-dark"
                d="M406.51,439a29.65,29.65,0,0,1,3.21-.49c3-.14,6-.19,8.95-.27.11.25.21.5.41,1H417.7c-3.35,0-6.7,0-10.06,0A6.58,6.58,0,0,1,406.51,439Z" />
            <path class="color-shadow-dark"
                d="M328.29,439.18c1,1.4,2.28,1,3.61.79a19.36,19.36,0,0,1,2.64-.06c-.53,1.2-1.52,1.42-2.72,1.44-1,0-2,.27-3,.39a9,9,0,0,1-1.15,0Z" />
            <path class="color-shadow-dark"
                d="M420.65,438.24c2.43.15,4.85.3,7.28.43a3.74,3.74,0,0,0,.9-.2l.72.95-.14.35-5.47-.41a19,19,0,0,0-2.12-.14C421.1,439.23,420.67,439,420.65,438.24Z" />
            <path class="color-shadow-dark" d="M473.41,441.86l3.69.21c-.28,2.29-1.2,2.71-3.6,1.64Z" />
            <path class="color-base"
                d="M316.09,436.77c-1.56-.18-3.13-.32-4.69-.55-.32-.05-.59-.42-.88-.63h1.2l4.07-.22Z" />
            <path class="color-shadow-dark"
                d="M364.28,438.94h5c-.05.29-.07.82-.16.83a20.32,20.32,0,0,1-3.64.3C365.08,440,364.69,439.34,364.28,438.94Z" />
            <path class="outline stroke"
                d="M473.41,441.86l.09,1.85-.78.25c-.31-.71-.62-1.42-.92-2.14.08-.89.16-1.78.25-2.68l.48.28Z" />
            <path class="color-shadow" d="M480.94,438.71a20.17,20.17,0,0,1-.61,2.92c-.1.27-.87.29-1.34.43l.21-2.86Z" />
            <path class="color-shadow-dark"
                d="M461.67,441.61l1.92,0,.49,1.07C462.31,443,461.94,442.77,461.67,441.61Z" />
            <path class="color-shadow-dark" d="M404.2,439.31a2,2,0,0,1-1.81-2.42Z" />
            <path class="outline stroke" d="M361.66,436.78l-.25-.23-.12-.85.18-.08.66.9Z" />
            <path class="outline stroke" d="M440.15,434.63l.37-1.09h.26l.27,1.09Z" />
            <path class="outline stroke" d="M427.89,435.82l-.21-.07-.3-1.18.15-.06.94,1.27Z" />
            <path class="outline stroke" d="M478.31,437.75v-1.11l.35,0,.12,1.13Z" />
            <path class="outline stroke" d="M492,435.34l-.47-.71.89.18Z" />
            <path class="outline stroke" d="M458.91,433.91l.66-.71.22.71Z" />
            <path class="outline stroke" d="M395,431.06a1.41,1.41,0,0,1,0,.2l-.95.3-.08-.27Z" />
            <path class="outline stroke" d="M490.4,437.72l-.6-.18.78-.19Z" />
            <path class="outline stroke" d="M487,439.67l.11-.91.17-.06.27,1Z" />
            <path class="outline stroke" d="M466.29,431.24l.48.06v.75l-.5-.07Z" />
            <path class="color-shadow" d="M481.68,435.72l-.27.59-.23-.77Z" />
            <path class="outline stroke" d="M418.05,433.9v0Z" />
            <path class="outline stroke" d="M479,434.75l-.48-.16Z" />
            <path class="outline stroke" d="M447.81,430.34l-.49,0Z" />
            <path class="color-shadow-dark" d="M327.09,440.4l.19-.26Z" />
            <path class="color-shadow" d="M481.17,437.5c-.07.17-.15.34-.23.5C481,437.84,481.1,437.67,481.17,437.5Z" />
            <path class="outline stroke" d="M389.71,432.51l-.45-.06Z" />
            <path class="outline stroke"
                d="M393.06,434.09c-.29.63-.54,1.27-.87,1.87-1.83,3.4-3.7,6.79-6.5,9.53-2.05,2-4.1,4-6.24,5.93a2,2,0,0,1-1.78.25c-.88-.36-.41-1.26-.13-1.74a45.1,45.1,0,0,1,3.2-5,31.67,31.67,0,0,1,3.94-4.4c2.58-2.33,5.32-4.48,8-6.7Zm-12.31,14.18a34.08,34.08,0,0,0,6.7-7.66A30,30,0,0,0,380.75,448.27Zm7.31-9.17c1.29.23,1.51-.68,1.7-1.63Z" />
            <path class="outline stroke"
                d="M397.44,434.83a30.13,30.13,0,0,1,2.34,2.73,35.61,35.61,0,0,1,4.86,9.23,4.09,4.09,0,0,1,.13,2.29c-.24.77-.9.94-1.67.27a15.67,15.67,0,0,1-4.2-6.77,65.74,65.74,0,0,1-1.74-7.17,2,2,0,0,1,0-.42Zm.81,2.09-.23-.34-.14.06.16.46c.36.82.18,2,1.33,2.28l.33-.22Zm1.2,3.67,3.15,6.32C402.62,445.17,400.56,441,399.45,440.59Z" />
            <path class="color-shadow" d="M311.72,435.57h0Z" />
            <path class="outline stroke"
                d="M337.05,437.78l-.05-.17a.65.65,0,0,1,.19,0s.06.09.05.09A.88.88,0,0,1,337.05,437.78Z" />
            <path class="color-shadow-dark" d="M388.06,439.1l1.7-1.63C389.57,438.42,389.35,439.33,388.06,439.1Z" />
            <path class="color-shadow-dark" d="M398.25,436.92l1.45,2.24-.33.22c-1.15-.27-1-1.46-1.33-2.28Z" />
            <path class="color-shadow-dark" d="M398,437.1l-.16-.46.14-.06.23.34Z" />
        </g>
    </g>
</svg>
