<svg id="Nizy_bochonki" data-name="Nizy bochonki" xmlns="http://www.w3.org/2000/svg" viewBox="0 0 672 960">
    <g id="img_35" data-name="img 35">
        <g id="img_32_img" data-name="img 32 img">
            <path class="outline"
                d="M388.77,472c.67.37,1.36.71,2,1.12a11.62,11.62,0,0,1,2.16,1.48,1.56,1.56,0,0,1-.06,2.52,6.22,6.22,0,0,1-2.44,1.44,47.22,47.22,0,0,1-8.64,1.79,76.28,76.28,0,0,1-24.48-2.29,41.09,41.09,0,0,1-5-1.69,51.17,51.17,0,0,0-18-3.58c-5.11-.17-10.22-.38-15.45-.58-.53,2.35-2.3,3.13-4.34,3.57a31.35,31.35,0,0,1-22.07-3c-.73-.39-1.71-1.1-1.79-1.76-.18-1.6-1.25-2.06-2.4-2.59q-5.21-2.44-10.42-4.87c-2.73-1.27-3.26-3.07-1.88-5.78a59,59,0,0,0,2.29-5.5c1.54-3.93,3-7.9,4.58-11.82,2-5,4.14-9.87,6.21-14.8a12.83,12.83,0,0,1,.55-1.33c.67-1.23,1.7-1.47,2.4-.33,1.27,2.05,3.3,2.66,5.31,3.4a39.24,39.24,0,0,0,12.21,2.2c6.43.25,12.76-.78,19.14-1.21,6.93-.47,13.82-1.53,20.8-1.43,8.95.12,17.91.32,26.86.32,10.24,0,20.47-.16,30.71-.26l17.51-.15c11-.06,21.91-.17,32.86-.16a79.21,79.21,0,0,1,24.36,3.44c3.63,1.17,7.35,2.07,11.43,3.2l1.66-1.17a9.82,9.82,0,0,1,.87,1.3c2.71,5.51,5.39,11.05,8.11,16.56.71,1.43,1.53,2.8,2.33,4.18,1.55,2.71,1.21,4-1.51,5.37-7.05,3.64-14.25,6.79-22.21,7.95a57.23,57.23,0,0,0-7.41,1.92,10.09,10.09,0,0,0-2.19.95c-1.92,1.09-2,1.72-.62,3.5,1.63,2.07,1.25,3.27-1.34,3.86a13.88,13.88,0,0,1-3.8.34c-7.58-.43-15.18-.68-22.71-1.51-5.15-.58-10.19-2-14.42-5.37a8.93,8.93,0,0,0-5.86-1.75c-3.44.06-6.87.3-10.3.35-5.76.08-11.52,0-17.27.15a31.21,31.21,0,0,0-5,.68,25.52,25.52,0,0,0-2.68.77Zm-84.06-36.73c-.13,0-.27,0-.4,0a.76.76,0,0,0,0-.42l.87-2.48-9.26-2.26-1,1.92-.23.48-.29.43q-2.39,4.53-4.75,9.08l-5,8.58-.21-.13,10.2-20.83-3.57-2c-.57,1.19-1.11,2.14-1.52,3.14-1.56,3.85-3.16,7.68-4.6,11.57-1.92,5.21-5.33,9.88-5.82,15.62a2,2,0,0,1-.16.45c-.88,2.36-.89,2.37,1.44,3.49q5.17,2.5,10.37,5l1.79.86c1.24-2.6,2.37-5.06,3.57-7.49s2.58-5.07,3.87-7.61l0,0a23.91,23.91,0,0,1-.66,2.52c-1.64,4.45-3.32,8.89-5,13.34-.24.66-.45,1.32-.65,1.89a3.74,3.74,0,0,0,.45.5c.27.17.55.33.83.47a25.82,25.82,0,0,0,11.73,2.81,50.1,50.1,0,0,0,7.1-.72,2.36,2.36,0,0,0,1.64-1.09,25.51,25.51,0,0,0,.77-3.91c.31-1.41.6-2.82.93-4.22q1.45-6.15,2.93-12.3c-.56,5.92-1.13,11.83-1.7,17.86.59.05,1,.11,1.37.12,4.71.19,9.42.33,14.13.56,6.49.32,12.88,1.18,19,3.69a46,46,0,0,0,6.14,2A75.16,75.16,0,0,0,383.21,478a33.34,33.34,0,0,0,5.59-1.25,8,8,0,0,0,1.6-.92c-1.29-.66-2.29-1.14-3.26-1.67-1.92-1.05-3.05-2.57-2.69-4.87.24-1.58.47-3.16.82-4.71.84-3.82,1.75-7.62,2.63-11.43l3.12-12,.36.08-1.11,6c-.29,2.05-.57,4.1-.87,6.15q-1.09,7.66-2.21,15.35l-.18.33.48,0a64.46,64.46,0,0,1,15.67-1.59c5,.1,9.91,0,14.87,0,2.15,0,4.31-.05,6.47,0a12.08,12.08,0,0,1,6.88,2.43,20.71,20.71,0,0,0,5.4,3,48.37,48.37,0,0,0,13.8,2.78c4.79.16,9.56.56,14.35.75a41.71,41.71,0,0,0,4.7-.34l-1.56-3.87c-.2-.64-.41-1.27-.61-1.9Q464.72,461,462,451.63l-.31-.91c.08-.62-.07-1.09-.78-1.18-.07-1.15-.13-2.29-.2-3.43a7,7,0,0,1,.58,1q3.33,8.6,6.62,17.18,1,2.53,2,5.06l4.45-2.21,5.16-1.58a75.4,75.4,0,0,0,25.93-9.28c-1-1.78-1.82-3.39-2.74-5-2.28-3.93-4.77-7.76-6.84-11.81-1.12-2.21-2.44-3.8-4.84-4.46-1.32-.36-2.6-.82-3.9-1.24l-.23.44,8,11a5,5,0,0,1-.88-.38c-3.41-3.59-7.11-6.93-9.8-11.16-.55-.86-1.16-1.48-2.48-.95.21,2.28.41,4.53.61,6.78A40.79,40.79,0,0,1,480,433a2.27,2.27,0,0,0-1.92-1.85c-3.3-.57-6.6-1.15-9.91-1.67a9.63,9.63,0,0,0-2,.14v8.88l-.45,0-1.38-9.33-12.62-.42v5l-.28,0-1.52-5.12c-3.72,0-7.35-.37-11.12.45l3,7a50.08,50.08,0,0,1-4.08-5.94c-.58-1-1.21-1.47-2.31-.87-.21.73-.42,1.46-.73,2.51-.23-1.06-.38-1.72-.57-2.55-4.28.05-8.46,0-12.61.3a5.78,5.78,0,0,0-.07,1c.89,5.59,1.81,11.19,2.66,16.79a8.93,8.93,0,0,1-.21,2.22q-2-8.22-4.07-16.45c-.3-1.21-.61-2.42-.95-3.77-1.64.53-3.63-1.07-4.3,1.21-.38-.33-.83-1.06-1.33-1.1a46.71,46.71,0,0,0-4.72.06c.17,3,.32,5.68.47,8.37l-.34.05c-.62-2.76-1.23-5.53-1.9-8.52-1.08,0-2.19.06-3.29,0s-2,.29-2.22,1.59a18.87,18.87,0,0,1-.8,2.37l-.25-.09c.06-1.22.12-2.44.18-3.8-7.66-.22-15,0-22.37.38.09,1.63.16,3,.23,4.27l-.23,0c-.4-1.42-.81-2.84-1.27-4.43-2.17-.09-4.23-.19-6.29-.25a17.36,17.36,0,0,0-1.95.14c-.14.54-.27,1-.37,1.45-1.42,6.15-2.81,12.3-4.26,18.44a9.51,9.51,0,0,1-.89,1.85,2.8,2.8,0,0,0,.27-.65q1.37-9.17,2.7-18.34l.42-3c-1.47,0-2.66.06-3.84,0a2.73,2.73,0,0,0-3,1.73c-.93,2-2.12,3.8-3.19,5.69l-.35-.16c.74-2.29,1.48-4.59,2.28-7h-5.08c-.31,1.78-.61,3.43-.9,5.08l-.42-.07.4-5.2c-3.83,0-7.54-.2-11.33.5-.22,1.36-.43,2.61-.6,3.87q-.91,6.6-1.81,13.22l.56-14.63c.08-.75.16-1.49.26-2.49l-15.53,1.56c-.67,2.87-1.26,5.43-1.86,8-.28-2.55.61-5.06-.05-7.7l-11.66.76c-.59,1.81-1.21,3.68-1.82,5.54l-.16,0,.44-5.46c-1.64-.55-2.64-.25-3.2,1.14-.2.51-.49,1-.74,1.48Z" />
            <path class="color-base"
                d="M320,451.92q-1.47,6.15-2.93,12.3c-.33,1.4-.62,2.81-.93,4.22a7.64,7.64,0,0,1-4.77,1,16.37,16.37,0,0,0-4.54.09c-2.63.66-5-.1-7.47-.72a8.11,8.11,0,0,1-1.85-1c.46-1.57.9-2.93,1.26-4.31,1.17-4.62,2.34-9.23,3.46-13.87.28-1.2-.06-2.21-2-2.83-.41.56-1,1.3-1.53,2.1-1.49,2.26-2.95,4.53-4.42,6.81-1.31,2-2.62,4.1-4,6.21l-7.92-5.11c.7-1,1.26-1.87,1.85-2.7a51,51,0,0,0,5.81-11.21c.08-.2-.28-.58-.44-.88q2.37-4.54,4.75-9.08c.09-.15.19-.29.29-.43s.15-.32.23-.48a3.28,3.28,0,0,1,1.12.2,24,24,0,0,0,8.23,2.62.76.76,0,0,1,0,.42l.2.34.2-.34h0c.9,0,1.54.24,1.53,1.35a13.11,13.11,0,0,0,.2,3.32c.48,1.83,1.73,2.1,2.87.61a13,13,0,0,0,1.26-2.78c.38-.87.61-1.84,1.82-2,2.48-.26,5-.56,7.52-.85-.22,2.93-.42,5.63-.62,8.33,2,.45,2.59-.73,3.05-1.93a40.51,40.51,0,0,0,1.68-5.21,3.21,3.21,0,0,1,2.92-2.67c3.19-.56,6.43-1,9.58-1.68a2.5,2.5,0,0,1,2.51.69q-.27,7.32-.56,14.63c0,1.76-.07,3.51,0,5.26a1.39,1.39,0,0,0,.82,1,1.34,1.34,0,0,0,1.08-.59,5.77,5.77,0,0,0,.82-2.2c.25-2.52.35-5.06.52-7.59s.31-4.91.54-7.36c.15-1.47.45-2.94.74-4.75l5.51.79v5.77l2,.49c.38,1.14.43,2.37,1.08,3s2,.74,3,1.07c.13.95.24,1.87.36,2.8,1.68-.41,1.86-.51,2.38-1.76.93-2.2,1.84-4.4,2.7-6.63,1.53-4,1.52-4,5.91-3.92q-1.33,9.16-2.7,18.34a2.8,2.8,0,0,1-.27.65c0,.8-.89,1.55-.22,2.46a4.41,4.41,0,0,0,3.88-3.15c.86-2.39,1.73-4.79,2.53-7.2,1.15-3.48,2.25-7,3.38-10.45a3,3,0,0,1,.48-.66l2.15.12c.45,1.53.82,3,1.32,4.4.59,1.64.9,1.74,3.06,1.4.1-1.74.19-3.52.3-5.51l18.43,1.23a12,12,0,0,0,.19,2.15c.12.49.43,1.15.81,1.28a1.67,1.67,0,0,0,1.43-.49c.67-.75,1.07-1.74,1.76-2.47a3.64,3.64,0,0,1,1.95-1.05c.85-.1,1.12.68,1.23,1.46a16.2,16.2,0,0,0,.46,2.09c.63,2.22,1.29,4.42,1.91,6.64a1.54,1.54,0,0,0,1.79,1.21,1.41,1.41,0,0,0,1.54-1.45c.14-1.5.33-3,.5-4.49.2-1.79.4-3.58.62-5.43l7.35-.33q2,8.22,4.07,16.45c.17.92.35,1.83.51,2.69h3.23c.2-6.22-1.76-12.17-2.06-18.32,2.32-.21,4.52-.53,6.73-.59,4.16-.1,4.06,0,6.19,3.7a78.35,78.35,0,0,0,4.48,6.46,2.08,2.08,0,0,0,2.58.7c1.06-.41.84-1.42.81-2.28a5.93,5.93,0,0,0-.2-.93l-1.57-7.73,4.52.66c.24.88.47,1.71.68,2.55.39,1.62.72,3.26,1.18,4.86.24.86.72,1.66,1.84,1.53s1.27-1,1.27-2v-2.15c0-1.57,0-3.14,0-4.76a11.8,11.8,0,0,1,1.5-.16c1.9.13,3.79.33,5.69.42s2.23.18,2.9,2.15c.3.9.49,1.84.8,2.74s.77,1.42,1.75,1.32,1.18-.83,1.29-1.7c.17-1.31.47-2.61.76-4.17,3.5.41,6.8.78,10.1,1.18.87.11,1,.8,1.17,1.57.57,2.87,1.2,5.74,1.87,8.59.39,1.64.79,1.89,2.24,1.76,1.27-.11,1.56-.46,1.59-2.13,0-1.87,0-3.75,0-6.06.86.76,1.34,1.14,1.78,1.57,1.7,1.69,3.34,3.45,5.11,5.06,1.21,1.1,2.86,1.8,3.87,3.05a68.68,68.68,0,0,1,4.18,6.37,48.26,48.26,0,0,1-12.32,6.27c-2.51.81-5,1.64-7.47,2.54a5.52,5.52,0,0,0-1.38,1.07l-5.16,1.58c-.34-.32-.81-.57-1-1q-3.18-6.37-6.3-12.78c-1.46-3-2.88-6-4.38-8.94a6.64,6.64,0,0,0-1.37-1.44l-.59.17c.2,1-1.65,1.76,0,2.94.07,1.14.13,2.28.2,3.43-.15.66.06,1.09.78,1.18.1.3.21.6.31.91-.81.29-.77.93-.62,1.58a100.75,100.75,0,0,0,4.84,15.92c.21.51.82.85,1.25,1.26.2.63.41,1.26.61,1.9a15.07,15.07,0,0,1-2.79.47c-3.33-.08-6.68-.17-10-.46A79.53,79.53,0,0,1,445.15,471c-3.88-.85-7.67-2.09-11.46-3.29a75.24,75.24,0,0,0-21.56-3.48c-2.77-.05-5.55.37-8.33.43-3.51.08-7,0-10.55,0-.61,0-1.22-.11-1.92-.18a8.19,8.19,0,0,1-.17-1.51c.39-3.63.83-7.25,1.2-10.88a14.23,14.23,0,0,0,0-3.06,1.71,1.71,0,0,0-2.12-1.67l1.11-6-.36-.08-3.12,12c-1.61.46-2,1.83-2.47,3.19-1.58,5.27-3.16,10.53-4.7,15.8a2.45,2.45,0,0,1-2.49,2.1A57.71,57.71,0,0,1,363.29,473c-3.11-.67-6.14-1.71-9.24-2.38-3.49-.77-7.07-1.14-10.53-2a48.86,48.86,0,0,0-17.79-.7,18,18,0,0,1-2.08,0,12.87,12.87,0,0,1-.15-1.49c.14-4.3.35-8.6.42-12.9a24.27,24.27,0,0,0-.5-4.73,7.54,7.54,0,0,0-1.11-2A6.48,6.48,0,0,0,320,451.92Z" />
            <path class="color-shadow"
                d="M479.47,465.54a5.52,5.52,0,0,1,1.38-1.07c2.47-.9,5-1.73,7.47-2.54a48.26,48.26,0,0,0,12.32-6.27,68.68,68.68,0,0,0-4.18-6.37c-1-1.25-2.66-2-3.87-3.05-1.77-1.61-3.41-3.37-5.11-5.06-.44-.43-.92-.81-1.78-1.57,0,2.31,0,4.19,0,6.06,0,1.67-.32,2-1.59,2.13-1.45.13-1.85-.12-2.24-1.76-.67-2.85-1.3-5.72-1.87-8.59-.15-.77-.3-1.46-1.17-1.57-3.3-.4-6.6-.77-10.1-1.18-.29,1.56-.59,2.86-.76,4.17-.11.87-.26,1.59-1.29,1.7s-1.47-.52-1.75-1.32-.5-1.84-.8-2.74c-.67-2-.87-2.05-2.9-2.15s-3.79-.29-5.69-.42a11.8,11.8,0,0,0-1.5.16c0,1.62,0,3.19,0,4.76V441c0,.93-.08,1.81-1.27,2s-1.6-.67-1.84-1.53c-.46-1.6-.79-3.24-1.18-4.86-.21-.84-.44-1.67-.68-2.55l-4.52-.66,1.57,7.73a5.93,5.93,0,0,1,.2.93c0,.86.25,1.87-.81,2.28a2.08,2.08,0,0,1-2.58-.7,78.35,78.35,0,0,1-4.48-6.46c-2.13-3.68-2-3.8-6.19-3.7-2.21.06-4.41.38-6.73.59.3,6.15,2.26,12.1,2.06,18.32h-3.23c-.16-.86-.34-1.77-.51-2.69a8.93,8.93,0,0,0,.21-2.22c-.85-5.6-1.77-11.2-2.66-16.79a5.78,5.78,0,0,1,.07-1c4.15-.34,8.33-.25,12.61-.3.19.83.34,1.49.57,2.55.31-1.05.52-1.78.73-2.51,1.1-.6,1.73-.1,2.31.87a50.08,50.08,0,0,0,4.08,5.94l-3-7c3.77-.82,7.4-.45,11.12-.45l1.52,5.12.28,0v-5l12.62.42,1.38,9.33.45,0v-8.88a9.63,9.63,0,0,1,2-.14c3.31.52,6.61,1.1,9.91,1.67A2.27,2.27,0,0,1,480,433a40.79,40.79,0,0,0,2.39,6.51c-.2-2.25-.4-4.5-.61-6.78,1.32-.53,1.93.09,2.48.95,2.69,4.23,6.39,7.57,9.8,11.16a5,5,0,0,0,.88.38l-8-11,.23-.44c1.3.42,2.58.88,3.9,1.24,2.4.66,3.72,2.25,4.84,4.46,2.07,4,4.56,7.88,6.84,11.81.92,1.58,1.76,3.19,2.74,5A75.4,75.4,0,0,1,479.47,465.54Z" />
            <path class="color-shadow"
                d="M289.66,442c.16.3.52.68.44.88a51,51,0,0,1-5.81,11.21c-.59.83-1.15,1.68-1.85,2.7l7.92,5.11c1.36-2.11,2.67-4.16,4-6.21,1.47-2.28,2.93-4.55,4.42-6.81.52-.8,1.12-1.54,1.53-2.1,1.92.62,2.26,1.63,2,2.83-1.12,4.64-2.29,9.25-3.46,13.87-.36,1.38-.8,2.74-1.26,4.31a8.11,8.11,0,0,0,1.85,1c2.44.62,4.84,1.38,7.47.72a16.37,16.37,0,0,1,4.54-.09,7.64,7.64,0,0,0,4.77-1,25.51,25.51,0,0,1-.77,3.91,2.36,2.36,0,0,1-1.64,1.09,50.1,50.1,0,0,1-7.1.72,25.82,25.82,0,0,1-11.73-2.81c-.28-.14-.56-.3-.83-.47a3.74,3.74,0,0,1-.45-.5c.2-.57.41-1.23.65-1.89,1.66-4.45,3.34-8.89,5-13.34a23.91,23.91,0,0,0,.66-2.52l.5-1-.32-.09-.15,1.13c-1.29,2.54-2.61,5.06-3.87,7.61s-2.33,4.89-3.57,7.49l-1.79-.86q-5.19-2.47-10.37-5c-2.33-1.12-2.32-1.13-1.44-3.49a2,2,0,0,0,.16-.45c.49-5.74,3.9-10.41,5.82-15.62,1.44-3.89,3-7.72,4.6-11.57.41-1,1-2,1.52-3.14l3.57,2-10.2,20.83.21.13Z" />
            <path class="color-shadow"
                d="M320,451.92a6.48,6.48,0,0,1,2.27-5.11,7.54,7.54,0,0,1,1.11,2,24.27,24.27,0,0,1,.5,4.73c-.07,4.3-.28,8.6-.42,12.9a12.87,12.87,0,0,0,.15,1.49,18,18,0,0,0,2.08,0,48.86,48.86,0,0,1,17.79.7c3.46.85,7,1.22,10.53,2,3.1.67,6.13,1.71,9.24,2.38a57.71,57.71,0,0,0,14.95,1.25,2.45,2.45,0,0,0,2.49-2.1c1.54-5.27,3.12-10.53,4.7-15.8.42-1.36.86-2.73,2.47-3.19-.88,3.81-1.79,7.61-2.63,11.43-.35,1.55-.58,3.13-.82,4.71-.36,2.3.77,3.82,2.69,4.87,1,.53,2,1,3.26,1.67a8,8,0,0,1-1.6.92,33.34,33.34,0,0,1-5.59,1.25,75.16,75.16,0,0,1-24.28-1.83,46,46,0,0,1-6.14-2c-6.07-2.51-12.46-3.37-19-3.69-4.71-.23-9.42-.37-14.13-.56-.39,0-.78-.07-1.37-.12C318.91,463.75,319.48,457.84,320,451.92Z" />
            <path class="color-shadow"
                d="M419.77,433.22l-7.35.33c-.22,1.85-.42,3.64-.62,5.43-.17,1.5-.36,3-.5,4.49a1.41,1.41,0,0,1-1.54,1.45,1.54,1.54,0,0,1-1.79-1.21c-.62-2.22-1.28-4.42-1.91-6.64a16.2,16.2,0,0,1-.46-2.09c-.11-.78-.38-1.56-1.23-1.46a3.64,3.64,0,0,0-1.95,1.05c-.69.73-1.09,1.72-1.76,2.47a1.67,1.67,0,0,1-1.43.49c-.38-.13-.69-.79-.81-1.28a12,12,0,0,1-.19-2.15l-18.43-1.23c-.11,2-.2,3.77-.3,5.51-2.16.34-2.47.24-3.06-1.4-.5-1.41-.87-2.87-1.32-4.4l-2.15-.12a3,3,0,0,0-.48.66c-1.13,3.48-2.23,7-3.38,10.45-.8,2.41-1.67,4.81-2.53,7.2a4.41,4.41,0,0,1-3.88,3.15c-.67-.91.19-1.66.22-2.46a9.51,9.51,0,0,0,.89-1.85c1.45-6.14,2.84-12.29,4.26-18.44.1-.46.23-.91.37-1.45a17.36,17.36,0,0,1,1.95-.14c2.06.06,4.12.16,6.29.25.46,1.59.87,3,1.27,4.43l.23,0c-.07-1.32-.14-2.64-.23-4.27,7.35-.38,14.71-.6,22.37-.38-.06,1.36-.12,2.58-.18,3.8l.25.09a18.87,18.87,0,0,0,.8-2.37c.25-1.3,1-1.67,2.22-1.59s2.21,0,3.29,0c.67,3,1.28,5.76,1.9,8.52l.34-.05c-.15-2.69-.3-5.38-.47-8.37a46.71,46.71,0,0,1,4.72-.06c.5,0,.95.77,1.33,1.1.67-2.28,2.66-.68,4.3-1.21C419.16,430.8,419.47,432,419.77,433.22Z" />
            <path class="color-shadow"
                d="M390.27,447.32a1.71,1.71,0,0,1,2.12,1.67,14.23,14.23,0,0,1,0,3.06c-.37,3.63-.81,7.25-1.2,10.88a8.19,8.19,0,0,0,.17,1.51c.7.07,1.31.18,1.92.18,3.52,0,7,.08,10.55,0,2.78-.06,5.56-.48,8.33-.43a75.24,75.24,0,0,1,21.56,3.48c3.79,1.2,7.58,2.44,11.46,3.29a79.53,79.53,0,0,0,10.13,1.34c3.32.29,6.67.38,10,.46a15.07,15.07,0,0,0,2.79-.47l1.56,3.87a41.71,41.71,0,0,1-4.7.34c-4.79-.19-9.56-.59-14.35-.75a48.37,48.37,0,0,1-13.8-2.78,20.71,20.71,0,0,1-5.4-3,12.08,12.08,0,0,0-6.88-2.43c-2.16-.08-4.32,0-6.47,0-5,0-9.91.15-14.87,0a64.46,64.46,0,0,0-15.67,1.59l-.3-.3q1.11-7.68,2.21-15.35C389.7,451.42,390,449.37,390.27,447.32Z" />
            <path class="color-shadow"
                d="M365.89,432.47c-4.39-.08-4.38-.07-5.91,3.92-.86,2.23-1.77,4.43-2.7,6.63-.52,1.25-.7,1.35-2.38,1.76-.12-.93-.23-1.85-.36-2.8-1-.33-2.26-.41-3-1.07s-.7-1.83-1.08-3l-2-.49v-5.77l-5.51-.79c-.29,1.81-.59,3.28-.74,4.75-.23,2.45-.37,4.9-.54,7.36s-.27,5.07-.52,7.59a5.77,5.77,0,0,1-.82,2.2,1.34,1.34,0,0,1-1.08.59,1.39,1.39,0,0,1-.82-1c-.07-1.75,0-3.5,0-5.26q.9-6.62,1.81-13.22c.17-1.26.38-2.51.6-3.87,3.79-.7,7.5-.48,11.33-.5l-.4,5.2.42.07c.29-1.65.59-3.3.9-5.08h5.08c-.8,2.45-1.54,4.75-2.28,7l.35.16c1.07-1.89,2.26-3.73,3.19-5.69a2.73,2.73,0,0,1,3-1.73c1.18.08,2.37,0,3.84,0Z" />
            <path class="color-shadow"
                d="M339,432.49a2.5,2.5,0,0,0-2.51-.69c-3.15.73-6.39,1.12-9.58,1.68a3.21,3.21,0,0,0-2.92,2.67,40.51,40.51,0,0,1-1.68,5.21c-.46,1.2-1.07,2.38-3.05,1.93.2-2.7.4-5.4.62-8.33-2.56.29-5,.59-7.52.85-1.21.13-1.44,1.1-1.82,2a13,13,0,0,1-1.26,2.78c-1.14,1.49-2.39,1.22-2.87-.61a13.11,13.11,0,0,1-.2-3.32c0-1.11-.63-1.34-1.53-1.35.25-.49.54-1,.74-1.48.56-1.39,1.56-1.69,3.2-1.14l-.44,5.46.16,0c.61-1.86,1.23-3.73,1.82-5.54l11.66-.76c.66,2.64-.23,5.15.05,7.7.6-2.56,1.19-5.12,1.86-8L339.28,430C339.18,431,339.1,431.74,339,432.49Z" />
            <path class="color-shadow"
                d="M460.7,446.11c-1.69-1.18.16-1.94,0-2.94l.59-.17a6.64,6.64,0,0,1,1.37,1.44c1.5,2.95,2.92,6,4.38,8.94q3.13,6.39,6.3,12.78c.2.39.67.64,1,1l-4.45,2.21q-1-2.52-2-5.06-3.3-8.58-6.62-17.18A7,7,0,0,0,460.7,446.11Z" />
            <path class="color-shadow"
                d="M304.28,434.86a24,24,0,0,1-8.23-2.62,3.28,3.28,0,0,0-1.12-.2l1-1.92,9.26,2.26Z" />
            <path class="color-shadow"
                d="M467.46,470.39c-.43-.41-1-.75-1.25-1.26a100.75,100.75,0,0,1-4.84-15.92c-.15-.65-.19-1.29.62-1.58Q464.72,461,467.46,470.39Z" />
            <path class="color-shadow"
                d="M461.68,450.72c-.72-.09-.93-.52-.78-1.18C461.61,449.63,461.76,450.1,461.68,450.72Z" />
            <path class="color-shadow" d="M294.7,432.52l-.29.43Z" />
            <path class="color-shadow" d="M304.71,435.28l-.2.34-.2-.34C304.44,435.29,304.58,435.28,304.71,435.28Z" />
            <path class="color-shadow" d="M387.49,469.12l-.48,0,.18-.33Z" />
            <path class="outline" d="M300,452.65l.15-1.13.32.09-.5,1Z" />
        </g>
    </g>
</svg>
