<svg id="Nizy_bochonki" data-name="Nizy bochonki" xmlns="http://www.w3.org/2000/svg" viewBox="0 0 672 960">
    <g id="img_35" data-name="img 35">
        <g id="img_31_img" data-name="img 31 img">
            <path class="color-base"
                d="M297.56,421a89,89,0,0,1,18.8,3.3,38.66,38.66,0,0,0,8,1.11c5.39.49,10.8.86,16.21,1.26.71.06,1.43.06,2.15,0,8.31-.1,16.62-.11,24.92-.38,3.49-.11,7-.85,10.45-1.17,5.32-.5,10.64-.92,16-1.31,5.88-.44,11.77-.83,17.65-1.22,4-.26,8-.54,11.95-.68,5.35-.19,10.7-.27,16-.33,1.83,0,3.66.29,5.49.27,3.83,0,7.66-.32,11.49-.26a189.88,189.88,0,0,1,25.76,1.81,3.25,3.25,0,0,1,.85.39l-2.18.14c-.24,1.36-.53,2.59-.67,3.84-.36,3.23-.63,6.48-1,9.71a21.53,21.53,0,0,1-.61,3.28,2.05,2.05,0,0,1-2,1.76c-4,.27-8.08.62-12.11.95-.48,0-.95.11-1.42.17a49.7,49.7,0,0,1-6.38.74c-8.86-.06-17.71-.28-26.57-.44-.16,0-.32,0-.48,0-4-.3-8.07-.81-12.11-.88-7.17-.13-14.35-.34-21.47.88a10.7,10.7,0,0,1-2.4,0c-2.14-.13-4.27-.31-6.41-.44-2.62-.17-5.24-.33-7.86-.45a25,25,0,0,0-2.87.06c-1.27.09-2.52.33-3.79.37-7.33.19-14.67.33-22,.5a11.93,11.93,0,0,0-1.19.1c-2.68.28-5.36.75-8,.82-5.12.13-10.24.11-15.35,0a58.68,58.68,0,0,1-6.86-.73c-4.4-.62-8.66-2.07-13.15-2.12a1.53,1.53,0,0,1-1.63-1.11c-1.06-3.09-2.23-6.13-3.22-9.24-.86-2.73-1.55-5.51-2.27-8.28A3.77,3.77,0,0,0,297.56,421Z" />
            <path class="color-shadow"
                d="M297.56,421a3.77,3.77,0,0,1,1.73,2.44c.72,2.77,1.41,5.55,2.27,8.28,1,3.11,2.16,6.15,3.22,9.24a1.53,1.53,0,0,0,1.63,1.11c4.49.05,8.75,1.5,13.15,2.12a58.68,58.68,0,0,0,6.86.73c5.11.11,10.23.13,15.35,0,2.68-.07,5.36-.54,8-.82A11.93,11.93,0,0,1,351,444c7.34-.17,14.68-.31,22-.5,1.27,0,2.52-.28,3.79-.37a25,25,0,0,1,2.87-.06c2.62.12,5.24.28,7.86.45,2.14.13,4.27.31,6.41.44a10.7,10.7,0,0,0,2.4,0c7.12-1.22,14.3-1,21.47-.88,4,.07,8.08.58,12.11.88.16,0,.32,0,.48,0,8.86.16,17.71.38,26.57.44a49.7,49.7,0,0,0,6.38-.74c.47-.06.94-.13,1.42-.17,4-.33,8.07-.68,12.11-.95a2.05,2.05,0,0,0,2-1.76,21.53,21.53,0,0,0,.61-3.28c.36-3.23.63-6.48,1-9.71.14-1.25.43-2.48.67-3.84l2.18-.14,3.39,1c1.61,1.22,1.08,2.94.78,4.4-.93,4.67-2.06,9.3-3.15,13.93-.63,2.68-1.26,3.23-3.9,3.18-2.14,0-4.3-.52-6.41-.35-3.63.28-7.23.95-10.85,1.42a101.6,101.6,0,0,1-11.08,1.28c-6.05.1-12.11-.26-18.16-.42l-.48-.06c-3.08-.29-6.15-.68-9.23-.85-2.71-.15-5.53.4-8.13-.16-3.89-.83-7.61.39-11.4.22-.18,0-.38.26-.57.4l-8.18-.2-1.37,0-1.54,0-4.69,0-1.06,0a16.85,16.85,0,0,0-3.45-.68c-9.65.12-19.31-.47-28.95.45-2.36.23-4.73.48-7.08.8-4.72.63-9.39,1.63-14.18,1.61-.63,0-1.26.15-1.89.2a14.42,14.42,0,0,1-3.32.22c-4.23-.64-8.43-1.49-12.67-2.11-4.05-.6-7.73-2.37-11.64-3.4a5.41,5.41,0,0,1-4-4c-.68-2.2-1.12-4.47-1.76-6.68-1-3.52-2.11-7-3.15-10.5-.22-.73-.33-1.48-.57-2.55H297Z" />
            <path class="outline"
                d="M393,447.58l1.54,0,1.37,0,8.18.2a5.08,5.08,0,0,0,1.12.32c6.68.35,13.36.79,20,1,10.38.3,20.75.52,31.13.57,6,0,12-.33,17.95-.47,2.87-.06,5.75.07,8.62,0,1.82-.06,3.83-.14,4.76-2.09,1.41-2.95,2.62-6,3.95-9,1-2.17,1.16-4.67,2.77-6.56.31.25.93.54.91.76a21.75,21.75,0,0,1-.68,4.43c-.74,2.44-1.7,4.8-2.6,7.19-.61,1.63-1.18,3.29-1.9,4.88a4.49,4.49,0,0,1-4.61,2.75c-5.12-.17-10.23-.33-15.34-.43-2.4-.05-4.81,0-7.2.09-10.71.48-21.4.08-32.1-.5-8-.44-16-.91-23.95-1.12-8.79-.23-17.6-.59-26.36-.14-10.44.54-20.84,1.85-31.26,2.89-6.91.69-13.81,1.83-20.74,2.13-7.83.34-15.68-.05-23.1-3.17a27.37,27.37,0,0,0-4.86-1.29c-2.6-.59-4.29-1.8-5.08-4.65-1.55-5.61-3.65-11.06-5.35-16.63a66.86,66.86,0,0,1-1.55-7.47,6.51,6.51,0,0,1,.17-1.74l.57-.09,1.26,2.94c0,.07-.1.16-.08.22,3,7.58,6,15.15,8.9,22.74a2.54,2.54,0,0,0,1.87,1.59c2.12.69,4.19,1.57,6.29,2.33a31.8,31.8,0,0,0,4.31,1.39,63.25,63.25,0,0,0,19.25,1.51c10.47-1.05,20.95-2.11,31.44-3,6.51-.58,13.05-.94,19.58-1.37,1.67-.12,3.34-.16,5-.24l1.06,0Z" />
            <path class="color-shadow-dark"
                d="M387.27,447.58c-1.68.08-3.35.12-5,.24-6.53.43-13.07.79-19.58,1.37-10.49.92-21,2-31.44,3A63.25,63.25,0,0,1,312,450.71a31.8,31.8,0,0,1-4.31-1.39c-2.1-.76-4.17-1.64-6.29-2.33a2.54,2.54,0,0,1-1.87-1.59c-2.94-7.59-5.93-15.16-8.9-22.74,0-.06.05-.15.08-.22a2.08,2.08,0,0,1,2.27-1.71c1.35,0,2.69.14,4,.23h-2.41c.24,1.07.35,1.82.57,2.55,1,3.5,2.14,7,3.15,10.5.64,2.21,1.08,4.48,1.76,6.68a5.41,5.41,0,0,0,4,4c3.91,1,7.59,2.8,11.64,3.4,4.24.62,8.44,1.47,12.67,2.11a14.42,14.42,0,0,0,3.32-.22c.63,0,1.26-.2,1.89-.2,4.79,0,9.46-1,14.18-1.61,2.35-.32,4.72-.57,7.08-.8,9.64-.92,19.3-.33,28.95-.45A16.85,16.85,0,0,1,387.27,447.58Z" />
            <path class="color-shadow-dark"
                d="M494.46,431.61c-1.61,1.89-1.8,4.39-2.77,6.56-1.33,3-2.54,6-3.95,9-.93,1.95-2.94,2-4.76,2.09-2.87.09-5.75,0-8.62,0-6,.14-12,.51-17.95.47-10.38,0-20.75-.27-31.13-.57-6.69-.19-13.37-.63-20-1a5.08,5.08,0,0,1-1.12-.32c.19-.14.39-.4.57-.4,3.79.17,7.51-1.05,11.4-.22,2.6.56,5.42,0,8.13.16,3.08.17,6.15.56,9.23.85l.48.06c6.05.16,12.11.52,18.16.42a101.6,101.6,0,0,0,11.08-1.28c3.62-.47,7.22-1.14,10.85-1.42,2.11-.17,4.27.32,6.41.35,2.64.05,3.27-.5,3.9-3.18,1.09-4.63,2.22-9.26,3.15-13.93.3-1.46.83-3.18-.78-4.4,1.68.62,3.39,1.2,5,1.89a2.83,2.83,0,0,1,1.65,2.65C493.45,430.17,493,431.43,494.46,431.61Z" />
            <path class="color-shadow-dark" d="M393,447.58l-4.69,0Z" />
            <path class="color-shadow-dark" d="M395.93,447.64l-1.37,0Z" />
        </g>
    </g>
</svg>
