<svg id="Nizy_bochonki" data-name="Nizy bochonki" xmlns="http://www.w3.org/2000/svg" viewBox="0 0 672 960">
    <g id="img_35" data-name="img 35">
        <g id="img_30_img" data-name="img 30 img">
            <path class="color-shadow-dark"
                d="M466,429.1l9.16,1.08c1,.13,2,.35,3.06.39,2.45.1,4.46,1.42,6.62,2.31l-1.11.5,6.34,2.86a15.25,15.25,0,0,1,.29,6.62c-.22,2.06-.62,4.1-.79,6.16-.15,1.73.12,3.51-.17,5.2-.46,2.75-1.22,5.45-1.87,8.17a2.37,2.37,0,0,1-2.31,2c-3.09.34-6.15.85-9.23,1.22-2.77.33-5.56.51-8.33.85-3.48.43-6.94,1-10.43,1.39-2.51.26-5.06.24-7.59.35.35-1,1.18-1.07,2.11-1.2a98,98,0,0,0,11.49-1.77c5.21-1.33,10.5-1.64,15.79-2,2.72-.19,4.41-1.4,4.74-4.08s.32-5.15.52-7.72c.09-1.26.35-2.51.45-3.77.21-2.53.28-5.08.54-7.61.29-2.9,0-3.79-2.54-4.42a91.43,91.43,0,0,0-11.68-2.12,93,93,0,0,0-9.74-.07c-3.44,0-6.87,0-10.31,0a13,13,0,0,0-2.26.43c-1,0-2.07,0-3.1-.14-2.45-.24-4.89-.69-7.34-.76s-4.76.31-7.14.41c-4.54.19-9.08.37-13.62.49-2.64.06-5.28-.06-7.92,0-4.78.15-9.58-.45-14.34.43a4.65,4.65,0,0,1-1.43-.1c-.94-.1-1.89-.29-2.83-.32-7.58-.19-15.16-.34-22.74-.51a2.16,2.16,0,0,1-.72,0c-2.67-1-5.17,0-7.72.61a38.93,38.93,0,0,1-8.93,1.39c-4.06,0-8.12.29-12.19.45a4.38,4.38,0,0,0-.95.1,14.08,14.08,0,0,1-7.09-.06c-6.69-.27-13.41.39-20.1-.47-2.75-.36-5.56-.31-8.33-.51-2.56-.19-3.54.78-3.25,3.37,0,.31.14.62.21.93.57,2.72,1.21,5.42,1.69,8.16.7,4.06,1.32,8.14,1.89,12.23a1.84,1.84,0,0,0,1.55,1.8c3.46.9,6.88,2,10.37,2.76,3.72.81,7.57,1.05,11.24,2,5.29,1.41,10.71,1.36,16.08,1.79,2.51.19,5.07-.35,7.61-.4a131.07,131.07,0,0,1,19.09.87c4.64.59,9.35.71,14,1,.7.05,1.5-.12,1.67.9-.8,0-1.59.13-2.39.12-8.23-.13-16.46-.35-24.69-.4-11.74-.08-23.51.2-35.17-1.53a84,84,0,0,1-11-2.4c-3.67-1.06-7.21-2.52-11-3.88q-3.41-15.8-6.94-32.29c2.33.66,4.45,1.11,6.45,1.87a30.4,30.4,0,0,0,12,2c6.72-.24,13.36-1.24,20-1.89,8.66-.83,17.35-1.62,26-1.81,15.49-.33,31-.22,46.51-.26,9.35,0,18.7.06,28.06,0,5.27,0,10.54-.33,15.81-.35s10.55.19,15.83.25C464.69,429.76,465.64,430.22,466,429.1Z" />
            <path class="outline"
                d="M466,429.1c-.37,1.12-1.32.66-2,.65-5.28-.06-10.55-.26-15.83-.25s-10.54.32-15.81.35c-9.36.06-18.71,0-28.06,0-15.51,0-31-.07-46.51.26-8.7.19-17.39,1-26,1.81-6.67.65-13.31,1.65-20,1.89a30.4,30.4,0,0,1-12-2c-2-.76-4.12-1.21-6.45-1.87q3.54,16.49,6.94,32.29c3.81,1.36,7.35,2.82,11,3.88a84,84,0,0,0,11,2.4c11.66,1.73,23.43,1.45,35.17,1.53,8.23.05,16.46.27,24.69.4.8,0,1.59-.08,2.39-.12l21.1-.07,3.91-.17,1.37,0a13.46,13.46,0,0,0,2.09.21c4.52-.21,9-.49,13.56-.7,5.33-.26,10.65-.42,16-.72,2.13-.12,4.25-.48,6.37-.74l.83,0c2.53-.11,5.08-.09,7.59-.35,3.49-.36,6.95-1,10.43-1.39,2.77-.34,5.56-.52,8.33-.85,3.08-.37,6.14-.88,9.23-1.22a2.37,2.37,0,0,0,2.31-2c.65-2.72,1.41-5.42,1.87-8.17.29-1.69,0-3.47.17-5.2.17-2.06.57-4.1.79-6.16a15.25,15.25,0,0,0-.29-6.62l-6.34-2.86,1.11-.5,8.58,2.95a15.13,15.13,0,0,0-.44,1.95c-.25,2.54-.43,5.08-.67,7.61-.19,2-.44,4-.65,5.94s-.23,4-.58,5.91c-.43,2.35-1.08,4.67-1.7,7-.58,2.13-1.12,2.58-3.26,2.77-5.41.49-10.83.92-16.24,1.43-2.78.26-5.55.77-8.34.95-9.57.6-19.14,1.11-28.71,1.63-5.83.31-11.66.69-17.49.84-18.38.46-36.75.75-55.14.2-8.55-.26-17.12.12-25.66-.25a184.07,184.07,0,0,1-20-2.06c-4-.61-7.87-2.06-11.77-3.23a5.12,5.12,0,0,1-4-4.27c-.69-3.84-1.67-7.64-2.58-11.45-.28-1.15-.81-2.26-1.05-3.42-.56-2.73-1-5.48-1.52-8.22-.28-1.41-.58-2.82-1-4.2-.78-2.73-1.63-5.44-2.54-8.46a10.3,10.3,0,0,1,2,.44c2,.94,3.93,2.12,6,2.89a35.1,35.1,0,0,0,5.35,1.16c1.48.3,3,.59,4.45.85a7.17,7.17,0,0,0,1.9.14c3.39-.3,6.78-.66,10.17-1,1.34-.13,2.69-.18,4-.24a44.18,44.18,0,0,0,5-.25A99.06,99.06,0,0,1,344.56,429c4,0,8-.5,11.94-.76,1-.06,2.08-.1,3.11-.06,5.35.21,10.69.53,16,.64,3.74.07,7.48-.16,11.22-.22,4.23-.07,8.47-.16,12.7-.12,5.36,0,10.71.27,16.07.29q7.53,0,15.06-.24c4.23-.15,8.45-.5,12.68-.76a3.85,3.85,0,0,1,.48,0c3.88.27,7.77.55,11.66.8,2.46.15,4.93.25,7.4.37Z" />
            <path class="color-base"
                d="M330.7,435.85a14.08,14.08,0,0,0,7.09.06,4.38,4.38,0,0,1,.95-.1c4.07-.16,8.13-.42,12.19-.45a38.93,38.93,0,0,0,8.93-1.39c2.55-.61,5.05-1.6,7.72-.61a2.16,2.16,0,0,0,.72,0c7.58.17,15.16.32,22.74.51.94,0,1.89.22,2.83.32a4.65,4.65,0,0,0,1.43.1c4.76-.88,9.56-.28,14.34-.43,2.64-.08,5.28,0,7.92,0,4.54-.12,9.08-.3,13.62-.49,2.38-.1,4.77-.47,7.14-.41s4.89.52,7.34.76c1,.1,2.07.1,3.1.14.27.16.52.43.8.46,2,.2,3.95.41,5.93.52,3.66.2,7.32.44,11,.46,4.65,0,8.67,1.89,12.65,3.94a2.41,2.41,0,0,1,1.31,2.58c-.35,4.28-.69,8.55-.92,12.83-.13,2.54-.36,3-2.86,3.63s-5.31,1-7.92,1.7c-8.35,2.25-17,2.44-25.48,3.17-3.25.28-6.52.38-9.78.49-6,.19-11.95.47-17.93.45a86.51,86.51,0,0,0-13.26,1.36,48,48,0,0,1-6.88.54c-2.06,0-4.12-.31-6.18-.41-4.21-.19-8.43-.31-12.65-.51-2.38-.11-4.76-.32-7.14-.49-4.27-.3-8.55-.74-12.83-.88-2.77-.08-5.56.35-8.34.42A159.2,159.2,0,0,1,324,462.8a83.89,83.89,0,0,1-15.54-3.52,4.36,4.36,0,0,1-3.28-3.4c-.9-4-1.86-8-2.77-12.06-.5-2.22-.94-4.45-1.48-7,1.15.07,2,.1,2.83.18a17.29,17.29,0,0,0,1.88.25q11.85-.21,23.69-.47C330,436.77,330.58,436.69,330.7,435.85Z" />
            <path class="color-shadow"
                d="M330.7,435.85c-.12.84-.72.92-1.41.93q-11.85.24-23.69.47a17.29,17.29,0,0,1-1.88-.25c-.84-.08-1.68-.11-2.83-.18.54,2.55,1,4.78,1.48,7,.91,4,1.87,8,2.77,12.06a4.36,4.36,0,0,0,3.28,3.4A83.89,83.89,0,0,0,324,462.8a159.2,159.2,0,0,0,24.29,1.33c2.78-.07,5.57-.5,8.34-.42,4.28.14,8.56.58,12.83.88,2.38.17,4.76.38,7.14.49,4.22.2,8.44.32,12.65.51,2.06.1,4.12.44,6.18.41a48,48,0,0,0,6.88-.54,86.51,86.51,0,0,1,13.26-1.36c6,0,12-.26,17.93-.45,3.26-.11,6.53-.21,9.78-.49,8.53-.73,17.13-.92,25.48-3.17,2.61-.7,5.3-1.07,7.92-1.7s2.73-1.09,2.86-3.63c.23-4.28.57-8.55.92-12.83a2.41,2.41,0,0,0-1.31-2.58c-4-2.05-8-3.91-12.65-3.94-3.65,0-7.31-.26-11-.46-2-.11-4-.32-5.93-.52-.28,0-.53-.3-.8-.46a13,13,0,0,1,2.26-.43c3.44,0,6.87,0,10.31,0a93,93,0,0,1,9.74.07,91.43,91.43,0,0,1,11.68,2.12c2.58.63,2.83,1.52,2.54,4.42-.26,2.53-.33,5.08-.54,7.61-.1,1.26-.36,2.51-.45,3.77-.2,2.57-.22,5.16-.52,7.72s-2,3.89-4.74,4.08c-5.29.38-10.58.69-15.79,2A98,98,0,0,1,451.76,467c-.93.13-1.76.16-2.11,1.2l-.83,0c-.58-1-1.55-.67-2.37-.64-3,.11-6,.36-9,.44-7.54.21-15.08.32-22.62.52a14,14,0,0,0-3.27.57c-.31.09-.48.7-.71,1.06l-1.37,0c-1.63-1-2.73-.94-3.91.17l-21.1.07c-.17-1-1-.85-1.67-.9-4.68-.32-9.39-.44-14-1a131.07,131.07,0,0,0-19.09-.87c-2.54.05-5.1.59-7.61.4-5.37-.43-10.79-.38-16.08-1.79-3.67-1-7.52-1.21-11.24-2-3.49-.76-6.91-1.86-10.37-2.76a1.84,1.84,0,0,1-1.55-1.8c-.57-4.09-1.19-8.17-1.89-12.23-.48-2.74-1.12-5.44-1.69-8.16-.07-.31-.17-.62-.21-.93-.29-2.59.69-3.56,3.25-3.37,2.77.2,5.58.15,8.33.51C317.29,436.24,324,435.58,330.7,435.85Z" />
            <path class="color-shadow-dark"
                d="M410.83,470.12c.23-.36.4-1,.71-1.06a14,14,0,0,1,3.27-.57c7.54-.2,15.08-.31,22.62-.52,3-.08,6-.33,9-.44.82,0,1.79-.35,2.37.64-2.12.26-4.24.62-6.37.74-5.32.3-10.64.46-16,.72-4.52.21-9,.49-13.56.7A13.46,13.46,0,0,1,410.83,470.12Z" />
            <path class="color-shadow-dark" d="M405.55,470.26c1.18-1.11,2.28-1.16,3.91-.17Z" />
        </g>
    </g>
</svg>
