<svg id="Nizy_bochonki" data-name="Nizy bochonki" xmlns="http://www.w3.org/2000/svg" viewBox="0 0 672 960">
    <g id="img_35" data-name="img 35">
        <g id="img_33_img" data-name="img 33 img">
            <path class="color-base"
                d="M297.55,421c3.16.36,6.36.55,9.49,1.13,3.35.62,6.64,1.65,10,2.42a30.89,30.89,0,0,0,4.48.69c6.51.51,13,1.16,19.56,1.38,5.73.19,11.49-.12,17.24-.2,2.31,0,4.64.09,6.95-.08,4.05-.28,8.09-.74,12.14-1.12,5-.46,10-1,15-1.37,7.31-.53,14.64-.95,22-1.37,4.3-.25,8.61-.43,12.92-.57s8.45-.29,12.68-.3c2.95,0,5.9.26,8.85.27,2.63,0,5.26-.31,7.89-.27a188.17,188.17,0,0,1,25.76,1.81,3,3,0,0,1,.85.4L481,424c-.5,3.85-1,7.6-1.45,11.35a27.41,27.41,0,0,0,0,2.87c-.8,0-1.6,0-2.4,0q-13.31-.45-26.61-.92c-1.52,0-3-.19-4.55-.29-8.13-.57-16.26-1.36-24.4-1.64s-16.31-.05-24.46,0q-27.46,0-54.94.07c-2.8,0-5.6.14-8.39.35-10.3.77-20.61.77-30.92.65-1.19-4.32-2.39-8.63-3.55-13A3.65,3.65,0,0,0,297.55,421Z" />
            <path class="outline"
                d="M302.81,436.38c10.31.12,20.62.12,30.92-.65,2.79-.21,5.59-.34,8.39-.35q27.47-.08,54.94-.07c8.15,0,16.32-.23,24.46,0s16.27,1.07,24.4,1.64c1.52.1,3,.24,4.55.29q13.3.48,26.61.92c.8,0,1.6,0,2.4,0l5.58.19,6.1.69c1.16-2.62,2.22-5,3.29-7.46.32.25.94.54.92.76a21.75,21.75,0,0,1-.68,4.43c-.74,2.43-1.7,4.8-2.6,7.18-.61,1.64-1.18,3.29-1.9,4.88a4.48,4.48,0,0,1-4.61,2.76c-5.11-.16-10.22-.33-15.33-.43-2.48-.05-5,0-7.44.1-10.62.46-21.24.07-31.85-.51-7.9-.43-15.8-.91-23.7-1.11-8.87-.23-17.76-.6-26.59-.14-10.52.54-21,1.86-31.49,2.91-6.84.68-13.65,1.8-20.5,2.1-7.83.34-15.67-.05-23.11-3.15a35.24,35.24,0,0,0-5.31-1.44,5.59,5.59,0,0,1-4.57-4.25c-1.8-6.2-4-12.28-5.88-18.46a44.21,44.21,0,0,1-1.15-6.09,2.11,2.11,0,0,1,.7-1.67l.95,2a2.32,2.32,0,0,0,0,.7c1.84,4.8,3.7,9.6,5.64,14.62Zm-.37,1.52a25.35,25.35,0,0,0-4.93.07v.67h14a5.71,5.71,0,0,0,.71.08q20.26-.06,40.53-.13a15.14,15.14,0,0,0,2.1-.29c.32,0,.64.06,1,.05q30.1-.09,60.21-.18c3.51,0,7,.08,10.54.28,6.62.37,13.23,1,19.86,1.25,8.78.29,17.58.23,26.37.38,4.15.08,8.3.31,12.46.43,1.81.05,3.63,0,5.7,0a3.18,3.18,0,0,0-2.56-.78c-5.75-.19-11.5-.34-17.25-.58-11.41-.48-22.84-.51-34.22-1.81-10.41-1.18-20.91-1.18-31.38-1.09-10.23.09-20.46.3-30.7.37-4.71,0-9.43-.22-14.14-.21-6.4,0-12.79.16-19.18.27-2.64.05-5.28.12-7.91.26-3.59.19-7.17.58-10.76.67C316,437.8,309.24,437.82,302.44,437.9Zm2.23,2.51-4.75-.11-2.59-.13c1,2.3,1.45,4.47,2.71,6,.88,1.05,2.85,1.18,4.32,1.76,1.11.44,2.19,1,3.31,1.39a29.64,29.64,0,0,0,3.61,1.25,72.88,72.88,0,0,0,25.45,1.33c5.95-.64,11.87-1.51,17.83-2.07,7.46-.71,14.94-1.24,22.42-1.78,3.42-.25,6.85-.32,10.28-.47l1.07,0,4.68,0,1.55,0,1.37,0,8.18.21a3.27,3.27,0,0,0,.88.3c6.77.35,13.53.8,20.31,1,10.38.29,20.76.51,31.15.57,6,0,12-.34,18-.48,2.87-.06,5.75.08,8.62,0,1.64-.06,3.51,0,4.51-1.69s1.59-3.25,2.53-5.23l-5.76-.29-4.08,0a32.18,32.18,0,0,0-3.5-.44c-9.51-.21-19-.28-28.53-.58-6-.2-12-.79-17.94-1.07-6.38-.3-12.77-.6-19.16-.63-8.87,0-17.74.23-26.61.28-6.31,0-12.63-.18-18.94-.11q-29.61.31-59.23.76C305.77,440.26,305.22,440.36,304.67,440.41Z" />
            <path class="color-shadow-dark"
                d="M302.81,436.38l-6.83.43c-1.94-5-3.8-9.82-5.64-14.62a2.32,2.32,0,0,1,0-.7,11.88,11.88,0,0,1,7.24-.47,3.65,3.65,0,0,1,1.71,2.4C300.42,427.75,301.62,432.06,302.81,436.38Z" />
            <path class="color-shadow"
                d="M485.06,438.38l-5.58-.19a27.41,27.41,0,0,1,0-2.87c.45-3.75,1-7.5,1.45-11.35l2.33-.13,3.39,1a2.09,2.09,0,0,1,.95,2.23c-.43,2.7-.81,5.41-1.35,8.08A19.73,19.73,0,0,1,485.06,438.38Z" />
            <path class="color-shadow-dark"
                d="M485.06,438.38a19.73,19.73,0,0,0,1.23-3.22c.54-2.67.92-5.38,1.35-8.08a2.09,2.09,0,0,0-.95-2.23c1.68.62,3.39,1.2,5,1.9a2.82,2.82,0,0,1,1.65,2.64c.07.78-.41,2,1.07,2.22-1.07,2.42-2.13,4.84-3.29,7.46Z" />
            <path class="color-shadow"
                d="M404.11,447.85l-8.18-.21-1.37,0-1.55,0-4.68,0-1.07,0a8.72,8.72,0,0,0-2.48-.67c-11.38.17-22.79-.68-34.14.9-4.08.57-8.16,1.1-12.26,1.52s-8.13,1.28-12.28.45c-4.58-.92-9.23-1.52-13.8-2.5-2.38-.51-4.62-1.74-7-2.27-2.76-.61-4.67-1.9-5.38-4.71l4.75.11c.13,1.15.76,1.58,1.91,1.69a57.74,57.74,0,0,1,7.78,1A61.69,61.69,0,0,0,329,445c4,0,8,.06,12,0,2.7-.05,5.4-.3,8.1-.49,4.2-.3,8.39-.82,12.59-.88,9.12-.14,18.24-.07,27.35,0,1.58,0,3.16.32,4.74.4a32.51,32.51,0,0,0,4.07,0c3.08-.24,6.16-.78,9.24-.82,4.46,0,8.92-.29,13.38.37a80.22,80.22,0,0,0,9.05.53c5.58.19,11.16.46,16.74.46s11-.16,16.48-.49c4.28-.26,8.52-.9,12.78-1.37l4.73-.53,4.07,0c-.11,3.84-.68,4.43-4.55,4.37-1.9,0-3.82-.53-5.69-.37-3.63.31-7.23.95-10.85,1.42a99.58,99.58,0,0,1-11.1,1.29c-6.05.1-12.11-.25-18.17-.42l-.48-.05c-3.16-.3-6.31-.69-9.48-.86-2.79-.15-5.69.4-8.37-.16-3.74-.79-7.29.42-10.93.23C404.5,447.44,404.3,447.71,404.11,447.85Z" />
            <path class="color-base"
                d="M480.23,442l-4.73.53c-4.26.47-8.5,1.11-12.78,1.37-5.48.33-11,.49-16.48.49s-11.16-.27-16.74-.46a80.22,80.22,0,0,1-9.05-.53c-4.46-.66-8.92-.41-13.38-.37-3.08,0-6.16.58-9.24.82a32.51,32.51,0,0,1-4.07,0c-1.58-.08-3.16-.39-4.74-.4-9.11,0-18.23-.11-27.35,0-4.2.06-8.39.58-12.59.88-2.7.19-5.4.44-8.1.49-4,.09-8,0-12,0a61.69,61.69,0,0,1-14.63-1.8,57.74,57.74,0,0,0-7.78-1c-1.15-.11-1.78-.54-1.91-1.69.55-.05,1.1-.15,1.65-.16q29.61-.4,59.23-.76c6.31-.07,12.63.15,18.94.11,8.87-.05,17.74-.31,26.61-.28,6.39,0,12.78.33,19.16.63,6,.28,12,.87,17.94,1.07,9.51.3,19,.37,28.53.58A32.18,32.18,0,0,1,480.23,442Z" />
            <path class="color-shadow"
                d="M311.49,438.64h-6.26l-2.79-.74c6.8-.08,13.6-.1,20.39-.28,3.59-.09,7.17-.48,10.76-.67,2.63-.14,5.27-.21,7.91-.26,6.39-.11,12.78-.25,19.18-.27,4.71,0,9.43.24,14.14.21,10.24-.07,20.47-.28,30.7-.37,10.47-.09,21-.09,31.38,1.09,11.38,1.3,22.81,1.33,34.22,1.81,5.75.24,11.5.39,17.25.58a3.18,3.18,0,0,1,2.56.78c-2.07,0-3.89,0-5.7,0-4.16-.12-8.31-.35-12.46-.43-8.79-.15-17.59-.09-26.37-.38-6.63-.22-13.24-.88-19.86-1.25-3.51-.2-7-.29-10.54-.28q-30.11.06-60.21.18c-.32,0-.64,0-1-.05s-.63-.08-.95-.08q-20.29,0-40.6,0A8.2,8.2,0,0,0,311.49,438.64Z" />
            <path class="color-shadow-dark"
                d="M299.92,440.3c.71,2.81,2.62,4.1,5.38,4.71,2.38.53,4.62,1.76,7,2.27,4.57,1,9.22,1.58,13.8,2.5,4.15.83,8.2,0,12.28-.45s8.18-.95,12.26-1.52c11.35-1.58,22.76-.73,34.14-.9a8.72,8.72,0,0,1,2.48.67c-3.43.15-6.86.22-10.28.47-7.48.54-15,1.07-22.42,1.78-6,.56-11.88,1.43-17.83,2.07a72.88,72.88,0,0,1-25.45-1.33,29.64,29.64,0,0,1-3.61-1.25c-1.12-.43-2.2-.95-3.31-1.39-1.47-.58-3.44-.71-4.32-1.76-1.26-1.53-1.73-3.7-2.71-6Z" />
            <path class="color-shadow-dark"
                d="M404.11,447.85c.19-.14.39-.41.57-.4,3.64.19,7.19-1,10.93-.23,2.68.56,5.58,0,8.37.16,3.17.17,6.32.56,9.48.86l.48.05c6.06.17,12.12.52,18.17.42a99.58,99.58,0,0,0,11.1-1.29c3.62-.47,7.22-1.11,10.85-1.42,1.87-.16,3.79.34,5.69.37,3.87.06,4.44-.53,4.55-4.37l5.77.29c-.94,2-1.6,3.68-2.53,5.23s-2.87,1.63-4.51,1.69c-2.87.11-5.75,0-8.62,0-6,.14-12,.51-18,.48-10.39-.06-20.77-.28-31.15-.57-6.78-.2-13.54-.65-20.31-1A3.27,3.27,0,0,1,404.11,447.85Z" />
            <path class="color-shadow-dark"
                d="M311.49,438.64a8.2,8.2,0,0,1,1.79-.39q20.3,0,40.6,0c.32,0,.63,0,.95.08a15.14,15.14,0,0,1-2.1.29q-20.26.09-40.53.13A5.71,5.71,0,0,1,311.49,438.64Z" />
            <path class="color-shadow-dark" d="M302.44,437.9l2.79.74h-7.71V438A25.35,25.35,0,0,1,302.44,437.9Z" />
            <path class="color-shadow-dark" d="M388.33,447.61l4.68,0Z" />
            <path class="color-shadow-dark" d="M394.56,447.62l1.37,0Z" />
        </g>
    </g>
</svg>
