<svg id="Nizy_classic" data-name="Nizy classic" xmlns="http://www.w3.org/2000/svg" viewBox="0 0 672 960">
    <g id="Classic_MIDI" data-name="Classic MIDI">
        <g id="Kashkorse_MIDI_img" data-name="Kashkorse MIDI img">
            <path class="outline"
                d="M321.53,490.31c3.1,1,6.13,1.82,9.08,2.89a39.9,39.9,0,0,0,10.31,1.9c10,.83,20,1.78,30,2.54,5.54.42,11.1.64,16.65.79a220.94,220.94,0,0,1,24.25,2.08,95.87,95.87,0,0,0,20,.49c1.88-.13,3.76-.27,5.63-.27,6.77,0,13.3-1.72,19.95-2.6,5.15-.68,10.3-1.39,15.47-1.78,5.34-.41,10.7-.44,16.05-.66a19.08,19.08,0,0,0,2.16-.3c.38-.57.54-1.1.85-1.21.54-.2.62.27.86.75,2.46,5,2.65,10.43,3.26,15.78a15,15,0,0,1-.24,3.33,1.15,1.15,0,0,1-.45.8c-3.12,1.48-6.06,3.42-9.64,3.79s-7.3.87-10.94,1.31c-7.26.88-14.51,1.87-21.78,2.61-8.83.9-17.66,1.86-26.51,2.31-7.93.42-15.9.26-23.85.22a413.76,413.76,0,0,1-49.5-3.38,213.62,213.62,0,0,1-28.26-5.36,3.9,3.9,0,0,0-1.52-.1c-1.55.24-2.5-.19-2.75-1.71a25.84,25.84,0,0,1-.33-5.48C320.59,502.86,321.08,496.69,321.53,490.31Zm145.6,8.1-1.08-.11a6.78,6.78,0,0,0-1.19,0c-3.54.57-7.08,1.11-10.61,1.75a128.91,128.91,0,0,1-20.64,2.25c-3.51.06-7,0-10.53.05l-1.43-.05-1.22-.13-2.38-.12-.5-.06-2.14-.19-.5-.09-2.38-.13-2.65-.2-.95,0-4.58-.37-1.91-.13c-5.57-.38-11.14-.81-16.72-1.12-3.75-.21-7.51-.18-11.26-.37-5.22-.26-10.44-.62-15.67-.94-1.82-.18-3.64-.34-5.46-.56-3.69-.44-7.37-.91-11.05-1.36-.67-.09-1.35-.14-2-.18-1.85-.11-3.61-.09-5.39-1.12-1.44-.82-3.38-.85-5.12-1.07a9.85,9.85,0,0,1-4.93-1.64c-.83-.63-1.31-.39-1.36.65-.25,4.55-.53,9.09-.7,13.64a36.14,36.14,0,0,0,.29,4.53,3,3,0,0,0,2.67,2.8c6.56,1.37,13.08,2.94,19.68,4.08s13.27,1.91,19.92,2.69c4.2.49,8.43.7,12.65,1,5.24.38,10.49.85,15.74,1.06,4.8.19,9.62.07,14.43.12,3,0,6,.16,9,.14,4.42,0,8.85,0,13.26-.26,4.58-.24,9.15-.69,13.71-1.18,5.15-.56,10.28-1.27,15.43-1.91,3.6-.45,7.19-.9,10.8-1.33,3.87-.46,7.75-.89,11.63-1.33a27.23,27.23,0,0,0,10-2.61c2.27-1.2,2.34-1.16,1.9-3.69-.75-4.28-1.53-8.56-2.37-12.82-.27-1.35-1-1.64-2.36-1.51-2.66.26-5.32.45-8,.62-3.14.2-6.28.33-9.42.5l-1.41.1-1.22.16-1.41.16Z" />
            <path class="color-shadow-dark"
                d="M471.77,497.66c3.14-.17,6.28-.3,9.42-.5,2.66-.17,5.32-.36,8-.62,1.37-.13,2.09.16,2.36,1.51.84,4.26,1.62,8.54,2.37,12.82.44,2.53.37,2.49-1.9,3.69a27.23,27.23,0,0,1-10,2.61c-3.88.44-7.76.87-11.63,1.33-3.61.43-7.2.88-10.8,1.33-5.15.64-10.28,1.35-15.43,1.91-4.56.49-9.13.94-13.71,1.18-4.41.24-8.84.24-13.26.26-3,0-6-.12-9-.14-4.81,0-9.63.07-14.43-.12-5.25-.21-10.5-.68-15.74-1.06-4.22-.31-8.45-.52-12.65-1-6.65-.78-13.32-1.56-19.92-2.69s-13.12-2.71-19.68-4.08a3,3,0,0,1-2.67-2.8,36.14,36.14,0,0,1-.29-4.53c.17-4.55.45-9.09.7-13.64.05-1,.53-1.28,1.36-.65a9.85,9.85,0,0,0,4.93,1.64c1.74.22,3.68.25,5.12,1.07,1.78,1,3.54,1,5.39,1.12.68,0,1.36.09,2,.18,3.68.45,7.36.92,11.05,1.36,1.82.22,3.64.38,5.46.56a38.67,38.67,0,0,1-5,.76c-4.88.1-9.77,0-14.65.05A34.21,34.21,0,0,1,328,497.45c-.91-.3-1.14,0-1.19.85-.12,2.06-.33,4.12-.45,6.18a26.94,26.94,0,0,0,0,3.48,1.41,1.41,0,0,0,.66,1,26.38,26.38,0,0,0,2.65,1,22.07,22.07,0,0,0,6.72,2.41,3.07,3.07,0,0,0,.79.59,32.08,32.08,0,0,0,3.55,1.06c4,.84,7.91,1.78,11.91,2.35,3.85.55,7.75.73,11.63,1,2,.14,4,.16,6,.25s3.74.12,5.6.26c3.73.29,7.44.63,11.16.93,1.51.12,3,.22,4.53.27,3.07.09,6.15.34,9.2.16,4.4-.27,8.77-1,13.21-.44q5.07.6,10.19,1c3.25.24,6.51.37,9.77.45,1.67,0,3.34-.13,5-.22.28,0,.56,0,.83-.08,2.4-.29,4.81-.56,7.21-.88,2.71-.35,5.45-.59,8.12-1.15,4.7-1,9.34-2.24,14-3.25,2.71-.59,5.47-1,8.22-1.33a45.15,45.15,0,0,0,10.6-2.15,1.81,1.81,0,0,0,1.33-1.75,22.9,22.9,0,0,0-1.06-8.71,3.31,3.31,0,0,0-1.73-1.55,10.16,10.16,0,0,0-2.77-.63c-1.68-.23-3.38-.47-5.08-.55-1.3-.06-2.62.21-3.93.16A20.44,20.44,0,0,1,471.77,497.66Z" />
            <path class="color-shadow"
                d="M471.77,497.66a20.44,20.44,0,0,0,3,.53c1.31.05,2.63-.22,3.93-.16,1.7.08,3.4.32,5.08.55a10.16,10.16,0,0,1,2.77.63,3.31,3.31,0,0,1,1.73,1.55,22.9,22.9,0,0,1,1.06,8.71,1.81,1.81,0,0,1-1.33,1.75,45.15,45.15,0,0,1-10.6,2.15c-2.75.34-5.51.74-8.22,1.33-4.7,1-9.34,2.26-14,3.25-2.67.56-5.41.8-8.12,1.15-2.4.32-4.81.59-7.21.88-.27,0-.55.07-.83.08-1.67.09-3.34.26-5,.22-3.26-.08-6.52-.21-9.77-.45q-5.12-.37-10.19-1c-4.44-.53-8.81.17-13.21.44-3,.18-6.13-.07-9.2-.16-1.51,0-3-.15-4.53-.27-3.72-.3-7.43-.64-11.16-.93-1.86-.14-3.73-.18-5.6-.26s-4-.11-6-.25c-3.88-.29-7.78-.47-11.63-1-4-.57-7.95-1.51-11.91-2.35a32.08,32.08,0,0,1-3.55-1.06,3.07,3.07,0,0,1-.79-.59c6.54,1.62,13.24,2.07,19.9,2.85,3.31.39,6.65.57,9.95,1a112.59,112.59,0,0,0,16.3,1.15c3.27,0,6.53-.22,9.8-.22,4.19,0,8.38.19,12.57.21q10.2.06,20.4,0a36.16,36.16,0,0,0,4.16-.27q4.32-.52,8.61-1.16c3.85-.56,7.71-1.08,11.53-1.8,4.91-.92,9.8-2,14.7-3a103.28,103.28,0,0,1,15.59-1.92,19.93,19.93,0,0,0,5.23-1.06c2.82-1,2.78-1.05,2.23-3.92a1.37,1.37,0,0,0-1.18-1.28c-1.2-.26-2.34-.81-3.55-1.06a79.07,79.07,0,0,0-9-1.7c-4.42-.41-8.78.63-13.14,1.26-4.16.6-8.32,1.25-12.49,1.79-3.15.4-6.31.71-9.48,1-4.11.35-8.23.74-12.35.91-3.6.15-7.2.06-10.8,0-1.95,0-3.9-.11-5.85-.25-3.72-.28-7.44-.63-11.16-.93-3.17-.26-6.35-.38-9.5-.77-4.25-.53-8.47-1.38-12.72-1.86s-8.47-.88-12.72-.93c-8.1-.08-16.21.14-24.32.18-1.67,0-3.33-.24-5-.3-1.44-.05-2.89,0-4.44,0V510a26.38,26.38,0,0,1-2.65-1,1.41,1.41,0,0,1-.66-1,26.94,26.94,0,0,1,0-3.48c.12-2.06.33-4.12.45-6.18.05-.84.28-1.15,1.19-.85a34.21,34.21,0,0,0,11.14,1.75c4.88-.05,9.77.05,14.65-.05a38.67,38.67,0,0,0,5-.76c5.23.32,10.45.68,15.67.94,3.75.19,7.51.16,11.26.37,5.58.31,11.15.74,16.72,1.12l1.91.13a6.42,6.42,0,0,0,4.58.37l.95,0c.83.86,1.74.5,2.65.2l2.38.13.5.09,2.14.19.5.06,2.38.12,1.22.13,1.43.05c.2.15.39.41.6.43A40.79,40.79,0,0,0,428,503c4.85-.12,9.71-.17,14.55-.51,3.83-.26,7.64-.79,11.43-1.41s7.36-1.47,11-2.24a5,5,0,0,0,1.08-.55l1.08.11.6-.33,1.41-.16c.47.39.91.58,1.22-.16Z" />
            <path class="color-shadow-dark"
                d="M466.05,498.3a5,5,0,0,1-1.08.55c-3.67.77-7.33,1.63-11,2.24s-7.6,1.15-11.43,1.41c-4.84.34-9.7.39-14.55.51a40.79,40.79,0,0,1-4.28-.25c-.21,0-.4-.28-.6-.43,3.51,0,7,0,10.53-.05A128.91,128.91,0,0,0,454.25,500c3.53-.64,7.07-1.18,10.61-1.75A6.78,6.78,0,0,1,466.05,498.3Z" />
            <path class="color-shadow-dark" d="M408.93,501.32a6.42,6.42,0,0,1-4.58-.37Z" />
            <path class="color-shadow-dark" d="M412.53,501.56c-.91.3-1.82.66-2.65-.2Z" />
            <path class="color-shadow-dark" d="M470.36,497.76c-.31.74-.75.55-1.22.16Z" />
            <path class="color-shadow-dark" d="M421.65,502.28l-1.22-.13Z" />
            <path class="color-shadow-dark" d="M467.73,498.08l-.6.33Z" />
            <path class="color-shadow-dark" d="M415.41,501.78l-.5-.09Z" />
            <path class="color-shadow-dark" d="M418.05,502l-.5-.06Z" />
            <path class="color-base"
                d="M329.71,510V500.3c1.55,0,3,0,4.44,0,1.67.06,3.33.31,5,.3,8.11,0,16.22-.26,24.32-.18,4.25.05,8.5.46,12.72.93s8.47,1.33,12.72,1.86c3.15.39,6.33.51,9.5.77,3.72.3,7.44.65,11.16.93,1.95.14,3.9.23,5.85.25,3.6,0,7.2.13,10.8,0,4.12-.17,8.24-.56,12.35-.91,3.17-.28,6.33-.59,9.48-1,4.17-.54,8.33-1.19,12.49-1.79,4.36-.63,8.72-1.67,13.14-1.26a79.07,79.07,0,0,1,9,1.7c1.21.25,2.35.8,3.55,1.06a1.37,1.37,0,0,1,1.18,1.28c.55,2.87.59,3-2.23,3.92a19.93,19.93,0,0,1-5.23,1.06,103.28,103.28,0,0,0-15.59,1.92c-4.9,1-9.79,2.12-14.7,3-3.82.72-7.68,1.24-11.53,1.8q-4.29.63-8.61,1.16a36.16,36.16,0,0,1-4.16.27q-10.2,0-20.4,0c-4.19,0-8.38-.2-12.57-.21-3.27,0-6.53.18-9.8.22a112.59,112.59,0,0,1-16.3-1.15c-3.3-.45-6.64-.63-9.95-1-6.66-.78-13.36-1.23-19.9-2.85A22.07,22.07,0,0,1,329.71,510Z" />
        </g>
    </g>
</svg>
