<svg id="Nizy_classic" data-name="Nizy classic" xmlns="http://www.w3.org/2000/svg" viewBox="0 0 672 960">
    <g id="Classic_MIDI" data-name="Classic MIDI">
        <g id="img_19_img" data-name="img 19 img">
            <path class="outline"
                d="M379.28,493.33l1.79.14,4.41.38,1.83.11,4.4.39,1.36.09,4.89.37,2.31.11a8.21,8.21,0,0,0,1.78.42q10.24.06,20.48,0a7.61,7.61,0,0,0,1.77-.43l4.23-.11,11.6-.19a75.25,75.25,0,0,1-8,1.06c-4.86.26-9.74.4-14.6.44-9.67.07-19.32.16-29-.8-8.65-.86-17.36-1.23-26.05-1.49-8.07-.25-16.15-.06-24.23-.09a27.41,27.41,0,0,1-2.85-.25,20.83,20.83,0,0,1-7.86-2.73c-1.35-.75-2.68-1.71-4.35-1.68-.47,2.14-.22,2.79,1.58,3.37a40.76,40.76,0,0,0,4.88,1.17c3.75.73,7.46,1.73,11.34,1.66a280.57,280.57,0,0,1,32.8,1.08c2.22.22,4.43.53,6.66.73,4.36.41,8.73.9,13.11,1.1s8.8.16,13.19.06c6.15-.14,12.32-.17,18.44-.72,5.24-.47,10.44-1.25,15.73-1.31a50.47,50.47,0,0,0,7.15-.6,147.24,147.24,0,0,1,21-1.79,36.23,36.23,0,0,1,17.11,3.85,8,8,0,0,0,3.47.58c.42,0,1-.65,1.22-1.13.26-.65-.15-1.15-.86-1.46-1.54-.66-3-1.47-4.56-2.13a22,22,0,0,0-4.65-1.73c-3.21-.54-6.48-.78-9.22-1.08l2.22-.48,7.75-.31c2.67,1.28,5.3,2.61,8,3.8a16,16,0,0,0,3.3.61,17.26,17.26,0,0,1,.08,2.94,81.85,81.85,0,0,0-1,12.9c.08,2.47-1.06,3.38-3.52,4a75.26,75.26,0,0,1-17.58,1.74c-5.74.06-11.48.62-17.22.93-9.83.54-19.64.13-29.46-.31-12.61-.57-25.23-.89-37.86-.31-3.51.16-7,0-10.54.07a24.83,24.83,0,0,0-3.11.17,120.08,120.08,0,0,1-18.19.61,90.47,90.47,0,0,1-14.79-1.15c-4.42-.81-8.78-1.64-12.61-4.24a15.47,15.47,0,0,0-3.75-1.53c-2.44-.81-3.63-2.16-3.19-4.62,1.08-6,.37-12.13,1-18.17.12-1.21,0-2.54,1.69-3.36.12,1.1.21,1.94.3,2.78l1.79.89,1.33.8,1.08.63h0l.61.37a.6.6,0,0,1,.32.15l5.94,1.77.77.19,1.09.33.87.12,6.3.39.89.05a8.68,8.68,0,0,0,5.8,0l2.8-.08,10.65,0,3.32.07,8.24.38,1.36.11Zm-7.82,5-4.27-.27-1.49-.21-3.76-.27a24.68,24.68,0,0,0-2.82-.35c-5.67-.05-11.35-.13-17,0A49.18,49.18,0,0,1,330,496c-2.39-.55-4.79-1-7.3-1.54a10.84,10.84,0,0,0-.17,1.28c0,2.7,0,5.4.06,8.09,0,.53,0,1.28.36,1.53a8.24,8.24,0,0,0,2.73,1.44c.52.14,1.21-.36,2-.63.51,2,1.41,3.69,3.93,4.09.17-1.34.34-2.59.51-3.83a.5.5,0,0,0,.05-.36l.85.44.39,1.42c.2,3.67.24,3.81,3.79,4.63,2.94.68,5.92,1.16,8.88,1.71,2.8.51,2.8.5,3.8-2.08.6-1,1.2-2.08,1.81-3.12l.45.22c-.41,1.67-.83,3.33-1.28,5.14.76.06,1.39.07,2,.18a4.18,4.18,0,0,0,5.06-2.51,21.79,21.79,0,0,1,2.07-2.95c.1,2-1.23,3.67-.86,5.79a62.94,62.94,0,0,0,8.26-.09c.27-2.07.49-3.79.71-5.52a11,11,0,0,1,1.25,3.15c.65,2.45.88,2.57,3.55,1.75l-.3-2.34c2.67,2.69,2.67,2.69,6.53,2.67.72,0,1.44,0,2.16,0s1.36-.22,2.12-.36c-.33-2.08-.63-3.95-.92-5.82l.09-.93a1,1,0,0,0,.37.08l.47.89c.49,1.26.89,2.56,1.47,3.77,1.11,2.3,1.29,2.34,4.26,1.75.12-.76.25-1.59.44-2.85.46.68.76,1,.83,1.28.37,1.54,1.36,2,2.84,1.86a35,35,0,0,1,5,0,4.52,4.52,0,0,0,4.56-1.9,9.37,9.37,0,0,1,1.61-1.39c-.36,1.34-.57,2.14-.78,2.94,4.15,1.09,4.26,1.06,6.78-1.86a1.36,1.36,0,0,1,.4-.25l0,0c-.11.85-.21,1.7-.33,2.75a85.74,85.74,0,0,0,8.64.1c-.13-.91-.22-1.49-.34-2.23.39.19.66.24.78.4,1.58,2.07,3.77,2.35,6.19,2.36,3.74,0,7.48.27,11.23.37,1.3,0,2.62-.07,4.14-.12-.69-2.22-1.28-4.1-1.86-6l-.16-1.49.5.06.84,1.47c.79,1.57,1.53,3.16,2.38,4.7a2.44,2.44,0,0,0,2.57,1.36c2.06-.19,4.14-.25,6.21-.33,2.28-.1,2.35-.19,2.47-2.51.05-1-.28-2.13.62-3.34.59,2,1.08,3.61,1.61,5.4l14.34-1.14c-.13-1.41-.25-2.55-.39-4,1.3,1.4,2.13,2.85,3.38,3.47s3,.32,4.69.1c-1.11-2.3-1.75-4.38-1.29-6.75.81,2.21,1.63,4.41,2.48,6.7,2.22-.17,4.44-.11,6.18-1.71l-.39-2.8,3,2.47c1.45-3.5,1.57-6.79,1.79-10.38-2.73.47-4.6-1-6.61-2.09a4.83,4.83,0,0,0-.67-.24,31.18,31.18,0,0,0-18.24-2.4l-5.78.58-2.78.18-1,.14-1.41.13-2.43.35-1.86.22-2,.28-2.35.18-4.37.3-1.42.07c-3.5.22-7,.39-10.48.68a38.27,38.27,0,0,0-3.94.7l-1.88.14c-1.81,0-3.63-.08-5.45,0-1.24,0-2.47.24-3.71.37l-4.29.1-2.95,0-10-.15-7.73-.27-2.83-.19-2.45-.29-2.35-.21-2.4-.18-5.27-.34Z" />
            <path class="color-shadow-dark"
                d="M473.78,490.26l-2.22.48c2.74.3,6,.54,9.22,1.08a22,22,0,0,1,4.65,1.73c1.54.66,3,1.47,4.56,2.13.71.31,1.12.81.86,1.46-.19.48-.8,1.13-1.22,1.13a8,8,0,0,1-3.47-.58,36.23,36.23,0,0,0-17.11-3.85,147.24,147.24,0,0,0-21,1.79,50.47,50.47,0,0,1-7.15.6c-5.29.06-10.49.84-15.73,1.31-6.12.55-12.29.58-18.44.72-4.39.1-8.8.13-13.19-.06s-8.75-.69-13.11-1.1c-2.23-.2-4.44-.51-6.66-.73a280.57,280.57,0,0,0-32.8-1.08c-3.88.07-7.59-.93-11.34-1.66a40.76,40.76,0,0,1-4.88-1.17c-1.8-.58-2-1.23-1.58-3.37,1.67,0,3,.93,4.35,1.68a20.83,20.83,0,0,0,7.86,2.73,27.41,27.41,0,0,0,2.85.25c8.08,0,16.16-.16,24.23.09,8.69.26,17.4.63,26.05,1.49,9.65,1,19.3.87,29,.8,4.86,0,9.74-.18,14.6-.44a75.25,75.25,0,0,0,8-1.06l-11.6.19a6.76,6.76,0,0,1,1.37-.31c7.36-.17,14.6-1.43,21.89-2.35s14.6-1.49,21.91-2.22C473.72,490.05,473.75,490.15,473.78,490.26Z" />
            <path class="color-shadow-dark"
                d="M424.3,494.93a7.61,7.61,0,0,1-1.77.43q-10.25,0-20.48,0a8.21,8.21,0,0,1-1.78-.42c.78,0,1.56-.12,2.35-.13q9.66,0,19.33,0C422.73,494.78,423.52,494.88,424.3,494.93Z" />
            <path class="color-shadow-dark" d="M374.91,492.91l-8.24-.38A21,21,0,0,1,374.91,492.91Z" />
            <path class="color-shadow"
                d="M473.78,490.26c0-.11-.06-.21-.08-.32,2.35-.15,4.71-.31,7.07-.43.25,0,.51.29.76.44Z" />
            <path class="color-shadow-dark" d="M349.9,492.51a8.68,8.68,0,0,1-5.8,0Z" />
            <path class="color-shadow-dark" d="M363.35,492.46l-10.65,0A34.89,34.89,0,0,1,363.35,492.46Z" />
            <path class="color-shadow-dark" d="M343.21,492.44l-6.3-.39Z" />
            <path class="color-shadow-dark" d="M334.18,491.41l-5.94-1.77Z" />
            <path class="color-shadow-dark" d="M398,494.81l-4.89-.37Z" />
            <path class="color-shadow-dark" d="M385.48,493.85l-4.41-.38Z" />
            <path class="color-shadow-dark" d="M391.71,494.35l-4.4-.39Z" />
            <path class="color-shadow-dark" d="M379.28,493.33l-3-.31Z" />
            <path class="color-shadow-dark" d="M324.9,487.69l-1.79-.89Z" />
            <path class="color-shadow-dark" d="M327.31,489.12l-1.08-.63Z" />
            <path class="color-shadow-dark" d="M336,491.93,335,491.6Z" />
            <path class="color-shadow-dark" d="M327.92,489.49l-.61-.37Z" />
            <path class="color-base"
                d="M445,497.9l2.35-.18c.77.64,1.45.74,2-.28l1.86-.22c.93.7,1.78.9,2.43-.35l1.41-.13c.45.68.77.4,1-.14l2.78-.18c.25.26.49.75.75.76,1.8.07,3.7.39,5-1.34a31.18,31.18,0,0,1,18.24,2.4c0,1.28.05,2.56,0,3.83,0,.53-.12,1.34-.45,1.51-1.19.59-2.53.88-3.73,1.46-1,.47-1.62-.18-2.67-.75-.1,1.69-1.32,1.57-2.4,1.75-1.33.21-2.64.51-4,.69-2.89.4-5.8.74-8.7,1.11-2.12.28-4.22.89-6.36.17a.73.73,0,0,0-.45.12c-2.2,1-4.59,1.05-6.94,1.13s-4.47.06-6.7.08l-.84-1.47-.39-1.24a2.09,2.09,0,0,0-.39.15c.07.35.18.69.28,1,.06.49.11,1,.16,1.49q-9.33,0-18.66,0c-.71,0-1.41.18-2.12.24-2.92.24-5.84.54-8.77.67-1.16.05-2.34-.36-3.52-.43-3.81-.2-7.62-.34-11.42-.51l-.72-.06-10.65-.86c-.15-.3-.31-.6-.47-.89a6.94,6.94,0,0,0-.25-.81s-.26,0-.4,0l.28.69-.09.93c-3.5-.15-7-.37-10.48-.44-5.08-.1-10.16.13-15.21-.91-3.87-.8-7.87-.92-11.77-1.57a19.13,19.13,0,0,1-7.89-3,21.5,21.5,0,0,1,4.12-.83c2.28-.23,4.58-.35,6.87-.56.27,0,.51-.32.77-.49h1.42a23.21,23.21,0,0,0,2.36,0c4.37-.45,8.73-.94,13.09-1.42l.92,0a5,5,0,0,0,4.79.08l1.93-.54,5.27.34c.73,1,1.55.83,2.4.18l2.35.21c.69,1.12,1.54.95,2.45.29l2.83.19c.36.24.73.71,1.08.68,2.22-.14,4.49.59,6.65-.41l10,.15c1.2,1.1,1.81,1.1,2.95,0l4.29-.1c.19.13.38.38.57.38,2.59,0,5.19.05,7.78,0,.28,0,.54-.47.81-.72l1.88-.14c.35.15.7.45,1,.43,3.12-.18,6.25-.42,9.38-.66a18.62,18.62,0,0,0,2.79-.32c.44-.1.81-.55,1.21-.83l1.42-.07C442.11,498.78,443.6,499.2,445,497.9Z" />
            <path class="color-shadow"
                d="M348.9,500.54c-.26.17-.5.47-.77.49-2.29.21-4.59.33-6.87.56a21.5,21.5,0,0,0-4.12.83,19.13,19.13,0,0,0,7.89,3c3.9.65,7.9.77,11.77,1.57,5.05,1,10.13.81,15.21.91,3.49.07,7,.29,10.48.44.29,1.87.59,3.74.92,5.82-.76.14-1.44.3-2.12.36s-1.44,0-2.16,0c-3.86,0-3.86,0-6.53-2.67l.3,2.34c-2.67.82-2.9.7-3.55-1.75a11,11,0,0,0-1.25-3.15c-.22,1.73-.44,3.45-.71,5.52a62.94,62.94,0,0,1-8.26.09c-.37-2.12,1-3.75.86-5.79a21.79,21.79,0,0,0-2.07,2.95,4.18,4.18,0,0,1-5.06,2.51c-.6-.11-1.23-.12-2-.18.45-1.81.87-3.47,1.28-5.14l-.45-.22c-.61,1-1.21,2.08-1.81,3.12a11.64,11.64,0,0,1-1.88-.23c-3-.87-6.05-1.82-9.09-2.67-1.82-.52-3.66-.91-5.5-1.36l-.39-1.42-.43-1.29-.42.85a.5.5,0,0,1-.05.36,12.37,12.37,0,0,1-6.11-3c-.18-.15-.33-.34-.5-.51a2.14,2.14,0,0,1-.44-2.43c.37-.93,1.29-.89,2.06-.78a11.06,11.06,0,0,1,2.52.68c3.09,1.2,6.27.76,9.42.55,2.76-.18,5.51-.55,8.26-.76A5,5,0,0,1,348.9,500.54Z" />
            <path class="color-shadow"
                d="M440.46,509.34c2.23,0,4.47,0,6.7-.08s4.74-.09,6.94-1.13a.73.73,0,0,1,.45-.12c2.14.72,4.24.11,6.36-.17,2.9-.37,5.81-.71,8.7-1.11,1.33-.18,2.64-.48,4-.69,1.08-.18,2.3-.06,2.4-1.75,1,.57,1.67,1.22,2.67.75,1.2-.58,2.54-.87,3.73-1.46.33-.17.43-1,.45-1.51.06-1.27,0-2.55,0-3.83a4.83,4.83,0,0,1,.67.24c2,1.09,3.88,2.56,6.61,2.09-.22,3.59-.34,6.88-1.79,10.38l-3-2.47.39,2.8c-1.74,1.6-4,1.54-6.18,1.71-.85-2.29-1.67-4.49-2.48-6.7-.46,2.37.18,4.45,1.29,6.75-1.68.22-3.38.57-4.69-.1s-2.08-2.07-3.38-3.47c.14,1.46.26,2.6.39,4l-14.34,1.14c-.53-1.79-1-3.44-1.61-5.4-.9,1.21-.57,2.33-.62,3.34-.12,2.32-.19,2.41-2.47,2.51-2.07.08-4.15.14-6.21.33a2.44,2.44,0,0,1-2.57-1.36C442,512.5,441.25,510.91,440.46,509.34Z" />
            <path class="color-shadow"
                d="M383.42,508.34l10.65.86.72.06c3.8.17,7.61.31,11.42.51,1.18.07,2.36.48,3.52.43,2.93-.13,5.85-.43,8.77-.67.71-.06,1.41-.24,2.12-.24q9.33,0,18.66,0c.58,1.89,1.17,3.77,1.86,6-1.52.05-2.84.16-4.14.12-3.75-.1-7.49-.36-11.23-.37-2.42,0-4.61-.29-6.19-2.36-.12-.16-.39-.21-.78-.4.12.74.21,1.32.34,2.23a85.74,85.74,0,0,1-8.64-.1l.33-2.75.11-.15-.09.17a1.36,1.36,0,0,0-.4.25c-2.52,2.92-2.63,2.95-6.78,1.86.21-.8.42-1.6.78-2.94a9.37,9.37,0,0,0-1.61,1.39,4.52,4.52,0,0,1-4.56,1.9,35,35,0,0,0-5,0c-1.48.1-2.47-.32-2.84-1.86-.07-.32-.37-.6-.83-1.28-.19,1.26-.32,2.09-.44,2.85-3,.59-3.15.55-4.26-1.75C384.31,510.9,383.91,509.6,383.42,508.34Z" />
            <path class="color-shadow-dark"
                d="M348.9,500.54a5,5,0,0,0-1.56-.38c-2.75.21-5.5.58-8.26.76-3.15.21-6.33.65-9.42-.55a11.06,11.06,0,0,0-2.52-.68c-.77-.11-1.69-.15-2.06.78a2.14,2.14,0,0,0,.44,2.43c.17.17.32.36.5.51a12.37,12.37,0,0,0,6.11,3c-.17,1.24-.34,2.49-.51,3.83-2.52-.4-3.42-2.11-3.93-4.09-.8.27-1.49.77-2,.63a8.24,8.24,0,0,1-2.73-1.44c-.32-.25-.35-1-.36-1.53,0-2.69,0-5.39-.06-8.09a10.84,10.84,0,0,1,.17-1.28c2.51.53,4.91,1,7.3,1.54a49.18,49.18,0,0,0,12.1,1.26c5.67-.1,11.35,0,17,0a24.68,24.68,0,0,1,2.82.35c-.65,1-1.67,1-2.71,1.12-2.73.27-5.46.63-8.18,1-.27,0-.49.53-.73.8Z" />
            <path class="color-shadow-dark"
                d="M333.42,507.89c1.84.45,3.68.84,5.5,1.36,3,.85,6.06,1.8,9.09,2.67a11.64,11.64,0,0,0,1.88.23c-1,2.58-1,2.59-3.8,2.08-3-.55-5.94-1-8.88-1.71C333.66,511.7,333.62,511.56,333.42,507.89Z" />
            <path class="color-shadow"
                d="M350.32,500.54c.24-.27.46-.76.73-.8,2.72-.39,5.45-.75,8.18-1,1-.11,2.06-.12,2.71-1.12l3.76.27c0,.41,0,.82.07,1.24-4.36.48-8.72,1-13.09,1.42A23.21,23.21,0,0,1,350.32,500.54Z" />
            <path class="color-shadow-dark"
                d="M439.18,498.27c-.4.28-.77.73-1.21.83a18.62,18.62,0,0,1-2.79.32c-3.13.24-6.26.48-9.38.66-.34,0-.69-.28-1-.43a38.27,38.27,0,0,1,3.94-.7C432.19,498.66,435.68,498.49,439.18,498.27Z" />
            <path class="color-shadow-dark"
                d="M422.88,499.79c-.27.25-.53.71-.81.72-2.59.05-5.19,0-7.78,0-.19,0-.38-.25-.57-.38,1.24-.13,2.47-.33,3.71-.37C419.25,499.71,421.07,499.77,422.88,499.79Z" />
            <path class="color-shadow-dark" d="M396.44,500.11c-2.16,1-4.43.27-6.65.41-.35,0-.72-.44-1.08-.68Z" />
            <path class="color-shadow"
                d="M371.48,499.17a5,5,0,0,1-4.79-.08c.17-.33.33-.67.5-1l4.27.27C371.46,498.62,371.47,498.9,371.48,499.17Z" />
            <path class="color-shadow" d="M464.6,495.84c-1.33,1.73-3.23,1.41-5,1.34-.26,0-.5-.5-.75-.76Z" />
            <path class="color-shadow-dark" d="M445,497.9c-1.37,1.3-2.86.88-4.37.3Z" />
            <path class="color-shadow-dark" d="M409.43,500.23c-1.14,1.13-1.75,1.13-2.95,0Z" />
            <path class="color-shadow-dark" d="M453.59,496.87c-.65,1.25-1.5,1.05-2.43.35Z" />
            <path class="color-shadow-dark" d="M381.08,499.15c-.85.65-1.67.81-2.4-.18Z" />
            <path class="color-shadow-dark" d="M385.88,499.65c-.91.66-1.76.83-2.45-.29Z" />
            <path class="color-shadow-dark" d="M367.19,498.08c-.17.34-.33.68-.5,1l-.92,0c0-.42,0-.83-.07-1.24Z" />
            <path class="color-shadow-dark" d="M371.48,499.17c0-.27,0-.55,0-.82l2,.28Z" />
            <path class="color-shadow-dark" d="M449.3,497.44c-.53,1-1.21.92-2,.28Z" />
            <path class="color-shadow" d="M439.12,507.81c-.1-.34-.21-.68-.28-1a2.09,2.09,0,0,1,.39-.15l.39,1.24Z" />
            <path class="color-shadow-dark" d="M332.18,506l.42-.85.43,1.29Z" />
            <path class="color-shadow-dark" d="M456,496.6c-.27.54-.59.82-1,.14Z" />
            <path class="color-shadow"
                d="M382.58,507.37l-.28-.69c.14,0,.38-.08.4,0a6.94,6.94,0,0,1,.25.81A1,1,0,0,1,382.58,507.37Z" />
            <path class="outline" d="M410.85,511.68l.09-.17-.11.15Z" />
        </g>
    </g>
</svg>
