<svg id="Nizy_classic" data-name="Nizy classic" xmlns="http://www.w3.org/2000/svg" viewBox="0 0 672 960">
    <g id="Classic_MIDI" data-name="Classic MIDI">
        <g id="img_25_img" data-name="img 25 img">
            <path class="outline"
                d="M329,472.07l.3-4.88c0-.29,0-.59,0-.89H330c-.31,5.65-.48,11.28,1.12,16.81.86,2.95,1.76,5.89,3.86,8.25.28.32.62.75,1,.8,2,.29,4.09.49,6.24.73v-1.16l.78,1.47-4.61-.19-.92-.09-1-.12c-.47-.18-1.08-.23-1.39-.57a15,15,0,0,1-2.31-3c-.79-1.51-1.33-3.17-2-4.76l-1.35-6.74h-.23l-.22,1.32a4.28,4.28,0,0,1-.27-1.08c.07-1.74.18-3.49.28-5.23.05.77.11,1.54.16,2.31h.35a18.1,18.1,0,0,0,0-2A3.73,3.73,0,0,0,329,472.07Z" />
            <path class="outline"
                d="M320.83,499.66v-1.43l-.16-2-.07-1.41-.15-2.19c0-1.42,0-2.84,0-4.26.07-.28.15-.55.22-.83l.08-.09c.58.17,1,.35.72,1.15a5.79,5.79,0,0,0-.15,1.63c-.06,1,.38,1.57,1.48,1.41l.88.36,1.23.43.44.07.6.3.4,0,.56.2.4.05.48.08,1.17.26.83.32.64.06.48.08.44.05.52.16.45.06.83.31.64.05.48.05,4.56.44,1.44.06,5.76.18,2.4.05,7.68.2.48,0,9.14.93c.14.16.28.44.42.45,1.8.09,3.6.13,5.4.19l.88,0,1.28.2.64,0,1.27.21.65.05,1,.09,1.2.16.72.07.67.09.86.22.87.08,1,.18.64.06,1,.18c4.51.24,9,.66,13.52.69,5.43,0,10.86-.21,16.29-.46,2.86-.13,5.72-.5,8.58-.8,4.56-.49,9.11-1.08,13.68-1.5,3.14-.29,6.3-.33,9.45-.53,5.53-.36,11.06-.91,16.6-1.09a118.89,118.89,0,0,1,14.13.26c3.51.3,7,1.36,10.41,2.08.23.23.45.64.7.67a21.32,21.32,0,0,0,3.74.19c1-.08,1.54-1.4,1.19-2.38a3.88,3.88,0,0,1-.1-1l.68-.16.85,1.33-.09,1.11c-1,.77-.38,1.64-.15,2.49l-.14,1.87-.37.24.32.28-.05,1.86v1.2c-.11.19-.3.37-.3.56a2.38,2.38,0,0,1-2,2.64,2,2,0,0,0-.52.37l-5,.1-.76.11-1.64.13h-2.17l-4.52-.15-2.2-.08-13.91-.24-1,0c-1.9.05-3.8.09-5.69.16-1.45.06-2.89.15-4.34.23h-1.7a4.81,4.81,0,0,0-.9-.19q-5.86,0-11.74,0a14.78,14.78,0,0,0-1.74.22l-1.67.09-4.57.16-1,.05-4.31.19-1.42.09h-1.69l-1,.13c0,.24-.21.55-.11.7.49.84,1.05,1.64,1.58,2.46l.49.47.41.56,1.43,2.81.31.74.37,1.17.13.49c0,1.65-.06,3.3-.1,4.95l-.15.23-1,.69-.53.1H420l-.53-.1-.43-.14-.9-.45-.47-.31-.06,0-.87-.7-1-1-1.52-2.13c-.11-.21-.23-.41-.35-.61l-.86-2.16-.46-.67-.25.65.48,3.36,0,.06,0-.07.16,1.21h-.58l-.54-2.87-.15-1q-.3-3.09-.58-6.16l-.22-4.22c.32.74.63,1.49,1,2.23l.57,2.14.23.6.23.61.48,1.31.25.6.24.6,1.44,2.77.3.57a39,39,0,0,0,3.61,3.55c1,.74,1.92.26,2-1a7.61,7.61,0,0,0-.33-3.47,62.47,62.47,0,0,0-3-5.65c-.57-1.31-1.89-2.78-2.7-2.78l2.15,3.3c.65,1.57,1.38,3.12,1.9,4.73.15.45-.34,1.1-.53,1.65a4,4,0,0,1-1.28-.61c-2.47-2.49-3.7-5.7-5-8.87l-.84-3.4.15-2.27a.12.12,0,0,0,0,.18l.84.82,2.14,3.28.41-.27L414,506.14l.52-.33c.17-.18.48-.34.49-.52a3.5,3.5,0,0,0-1.76-3.15l.09-.42.63,0,.61.21a21.42,21.42,0,0,1,1.51,1.82,14.45,14.45,0,0,1,1,1.93,9.15,9.15,0,0,0,.59.89c1.23,1.44,2.56,2.52,4.7,2.19,1.71-.27,3.48-.21,5.22-.31.51,0,1-.19,1.52-.18,1.36,0,1.43-.64,1-1.65l-.9-2.93-.05-.94.06-1,.18-1.44.47,0c.15.4.35.79.46,1.19.26,1,.49,2,.74,2.95s.6,2,1,2.92c.09.25.43.58.65.58,2.32,0,4.64-.07,7.19-.12-.74-1.43-1.35-2.58-1.95-3.73l.16-.66,1.16,1c.8,1,1.55,2,2.4,2.89a2,2,0,0,0,1.28.49c1.35.06,2.71,0,4.05,0,.3,0,.81-.35.84-.59.22-1.72.34-3.45.49-5.18l.07-.71.19-.5,0,0,.45.15.47,2a23.18,23.18,0,0,1-.05,2.36c-.31,2.66-.33,2.64,2.39,2.48.74,0,1.08-.28,1.12-1s.2-1.66.31-2.49l.31,0a24.8,24.8,0,0,1,1.05,2.37,1.19,1.19,0,0,0,1.34,1c3.44-.06,6.88-.05,10.31-.07.33,0,.66-.07,1-.1-.75-1.66-1.43-3.17-2.12-4.68l-.27-1-.1-.27-.2-.79a.12.12,0,0,0,0-.12v-.26c.16-.78.33-1.56.5-2.34l.51,1.1.74,2.06.19.58q1.1,2.42,2.21,4.83c.51,1.12,1.38,1.05,2.3.81l-1-2.6,3.53,2.56,1,.13,4.34.07,1-.18,2.61.19.34.07-.11-.33-.25-1.69-.11-.52-.19-3.09v-.7l.77-.23.49.95v.48l.17.51.11.68.11.53c.2,1,.39,2,.59,3.07.16.63.43.57.76.11l.91-.11.52-.15.44-.07.61-.14-.57-.61-.32-1,2.86,1.49c.18-2.2.33-4,.51-6.13l.78,2.3.34,1,.28-.06.08-.87.45-3.72c-2.79.64-5.1-.36-7.43-1.29a1.8,1.8,0,0,0-.47,0l-.72-.25-.5-.14-1.42-.33-.74-.17-.46-.08-.5-.12-2.37-.38-.52-.08-11-.29c-2.27.06-4.53.11-6.8.19a4.85,4.85,0,0,0-.9.2l-1.9.08-2.18.14-2.37.15-1,.1-3.61.21-3.62.2-.46,0-4.07.19h-.61c-1.14,0-2.3-.12-3.44,0a19.51,19.51,0,0,0-2.7.53l-.69.06-3.15.41-.93.1-1,.13-.46.07-1.22.18-.46.05-1.46.2-.93.08-.76.1-1.16.14-1,.08-1.44.14-1.44.11L415,500a4.37,4.37,0,0,0-.7-.1q-6.54.12-13.08.27a2.34,2.34,0,0,0-.73.28l-2.63,0-5.76-.14-2.85-.13-1-.07-1.17-.1-4.34-.41-.7-.07-1.22-.18-4.06-.22-1.26-.32-.94-.1c-1.37-.18-2.73-.38-4.11-.54-8.05-.9-16.1-1.8-24.23-1.65-6.8.13-13.58-.13-20.21-1.91-1.33-.36-2.67-.7-4.15-1.09,0,.49,0,.8,0,1.1.2,2.26.47,4.51.61,6.78.09,1.64.67,2.2,2.42,2.06-.1-1.26-.26-2.51-.27-3.76s-.19-2.51,1-3.67a8.26,8.26,0,0,1,.24,1.05,15.72,15.72,0,0,0,2.2,7.36c.87,1.32,2.14,1.57,3.43,2.25l.39-3.76a9.68,9.68,0,0,1,1.2,2.73,2.25,2.25,0,0,0,2.08,1.82c1.27.12,2.53.35,3.81.42.23,0,.73-.48.71-.71-.2-2-.49-3.94-.75-5.91l0-1.16.71-.47,0,2.14q.6,2.19,1.17,4.38c.4,1.5,1.21,2.36,2.91,2.12a7.67,7.67,0,0,1,1.78.13c1.13.11,2.07,0,2.64-1.24a15.35,15.35,0,0,1,1.66-2.4l.35.17L349,508.31c1.42,0,2.82.09,4.19,0a3.57,3.57,0,0,0,1.8-.87,24.21,24.21,0,0,0,2.05-2.12l.32.24-.33,1.09-.31.59-.17.61-.37.48.5.1,8.05-.07.62-.16-.33-.6v-.66l.14-.52V505l-.11-.52L365,504l0-.68V502l.14-.91.3-1.54,0-.06.7.18.11,1.15.15,2.43.08.45a1.49,1.49,0,0,0,.41,2l.09.44.19.5.16.62c0,.56-.05,1.18.83,1.05h2.16l.37-.15-.3-.36L370,507l.58-.45a4.21,4.21,0,0,0,.64,1.14,2.14,2.14,0,0,0,1.21.62c2,.12,4,.15,6,.21l.48,0h2.4l.36.08-.34-.33-1.09-3.36.57,0a.37.37,0,0,1,.09.16l.36.58c.54.73,1.06,1.48,1.65,2.17a2.39,2.39,0,0,0,1.13.86,14,14,0,0,0,2.25.08c.64,0,.89-.28.78-.86-.16-.85-.37-1.69-.57-2.54a13,13,0,0,1,.12-1.88c0-.21.46-.34.71-.5l.17.5.47,2.18a13.32,13.32,0,0,0,.39,1.37c.69,1.8.73,1.8,2.71,1.77s4.22,0,6.34-.08a2.56,2.56,0,0,0,1.52-.47,24.63,24.63,0,0,0,2.07-2.14,7.88,7.88,0,0,0,.9-1.29c.34-.74.56-1.52.83-2.29l.41-.52,1-.23c-.44.85-.89,1.68-1.29,2.55-.05.11.18.35.28.53l.43.31c-.38.51-.74,1-1.12,1.53-2.15,2.79-4.5,5.45-6.39,8.4a30.55,30.55,0,0,0-3,6.83,2.87,2.87,0,0,0,.64,2.55c.41.36,1.63-.23,2.49-.4,0,0,.07,0,.1-.08a48.38,48.38,0,0,0,3.69-4,51.81,51.81,0,0,0,3-5.11c.89-1.57,1.73-3.18,2.59-4.77.37-.69.76-1.38,1.14-2.06l.32.12c-.07.7-.15,1.39-.22,2.08-.13,1.33-.25,2.67-.39,4,0,.23-.08.46-.12.69l-.75,5.36c-.09.54-.2,1.07-.25,1.61a114.69,114.69,0,0,1-3.55,17.8l-.11.5c.19.19.35.47.58.56.84.34,1.71.62,2.56.92l1.42.46.1.5-.19.09.2.06c-.12,1.1-.87.77-1.49.63-1.13-.24-2.25-.53-3.38-.81l-.5-.07-.65-.21-.52-.48a16.34,16.34,0,0,1,.18-2.22c.61-2.7,1.28-5.38,1.93-8.07l.12-.49,1-3.3.11-.52.38-1.88.11-.52.37-2.12.09-.52.43-2.88.1-.5.14-.71.08-.49c.22-.87.43-1.75.65-2.62l.24-1.07-.38-.11-.38.81-1.92,4.13-.39.7-.58,1-.14.24-.33.51-.14.21-.34.49-.15.23-.33.5-.16.21-1.28,1.7-.51.51a25.89,25.89,0,0,1-2.38,1.52c-2.34,1.16-4.48.12-4.93-2.45a6.3,6.3,0,0,1,0-2.7c.52-1.82,1.25-3.58,1.9-5.36l.13-.22.59-1,.14-.23,3.25-4.38.29-.3-.36-.22c-2.35,0-4.69,0-7,0a7.67,7.67,0,0,0-1.13.2H388l-4.56-.18-2.16,0a1.47,1.47,0,0,0-.53-.21l-12.17-.25-6.31-.12c-.07,0-.13.18-.2.28l-3.64.26-.63-.07h-.78v.08c-3.07.06-6.13.14-9.2.16-2,0-4.06-.05-6.1-.09l-.76-.05-6.94-.53-4.46-1L329,508c-.75-.71-1.5-1.42-2.67-1.14l-.45-.08-1.71-.41-.45-.06-2.2-.88-.56-.63c-.13-1-.27-2-.4-3,0-.23.05-.46.08-.69C320.72,500.64,320.78,500.15,320.83,499.66ZM416.56,514c-.64-1.23-1.26-2.48-1.95-3.69-.16-.28-.59-.4-.9-.59,0,.34-.25.76-.12,1,1,2,2.13,3.88,3.21,5.82l.89,1.37.42-.25A8.1,8.1,0,0,0,416.56,514Zm-2.73-5.3-1.44-2.55C412.29,507.87,412.7,508.6,413.83,508.72Zm3.91,0-1.62-2.27A1.74,1.74,0,0,0,417.74,508.74Z" />
            <path class="color-shadow"
                d="M333.8,494.57l-.64-.05-.83-.31-.45-.06-.52-.16-.44-.05-.48-.08-.64-.06-.83-.32-1.17-.26-.48-.08-.4-.05-.56-.2-.4,0-.6-.3-.44-.07-1.23-.43-.88-.36a2.4,2.4,0,0,1-.83-3l5.76,2.58h0a6.3,6.3,0,0,0,4.36,1.71l.4,0,.8.2,2.88.42c1.57.15,3.13.4,4.71.44,4.38.14,8.77.18,13.15.27,1.15,0,2.31.09,3.46.18,2.1.15,4.2.33,6.3.5l.94.05,1,.14,1.4.09.48,0,7.92.69a9.18,9.18,0,0,0,1,.23c1.42.15,2.84.3,4.26.42,2.08.19,4.17.35,6.26.52L395,498c.14.07.28.2.41.2,4.48,0,8.95.11,13.42,0s9.12-.57,13.68-.86c1.5-.09,3-.13,4.52-.27,2.8-.28,5.59-.65,8.4-.91,3.28-.3,6.58-.51,9.87-.81.28,0,.54-.41.81-.64l1.53-.32.3,0,1.27-.09,1.13-.15,2.74-.19.4,0a4.17,4.17,0,0,0,.71.05q4.35-.22,8.7-.5c.18,0,.34-.16.51-.25l1.08-.07,2.22-.24.44.1,3.46-.24.63-.07,1.48.07c1.08.87,2.3.42,3.47.39l5,.13.72,0,2.15.39,8.11,2.77c.09,1.25-.13,1.6-1.44,1.56s-2.51-.31-3.76-.48c-3.46-.72-6.9-1.78-10.41-2.08a118.89,118.89,0,0,0-14.13-.26c-5.54.18-11.07.73-16.6,1.09-3.15.2-6.31.24-9.45.53-4.57.42-9.12,1-13.68,1.5-2.86.3-5.72.67-8.58.8-5.43.25-10.86.49-16.29.46-4.51,0-9-.45-13.52-.69l-1-.18-.64,0-1-.19-.87-.08-.86-.22-.67-.09-.72-.07-1.2-.16-1-.09-.65-.05-1.27-.21-.64,0-1.28-.2-.88,0c-.2-.11-.39-.31-.59-.32-1.74-.13-3.49-.22-5.23-.32l-9.14-.93-.48,0-7.68-.2-2.4-.05-5.76-.18-1.44-.06-4.56-.44Z" />
            <path class="outline"
                d="M410.65,522l0-.52-.19-1.66-.09-.71-.16-1.43-.07-.74-.16-2.38-.05-.53-.19-2.35-.07-.51.14-.42.53,0,.29,1.2c.1,1.74.18,3.48.33,5.22a15.33,15.33,0,0,0,.41,2,25.54,25.54,0,0,0,.41,3.94c1.37,5.38,2.44,10.83,4.53,16a50.13,50.13,0,0,0,6.85,12.39c.73.93,1.47,1.72,2.77,1a1.46,1.46,0,0,1,1.65.06,4.53,4.53,0,0,1-.81.92,3.08,3.08,0,0,1-1.32.47c-.39,0-1,0-1.18-.2-1.33-1.46-2.66-2.92-3.84-4.5-3.06-4.1-4.68-8.91-6.42-13.64-.74-2-1.26-4.07-1.88-6.11l-.07-.49-.87-4.54-.08-.51Z" />
            <path class="outline"
                d="M407.69,521l0,.78-.18,3.57-.13.95-.13.5,0,3.11-.13.47-.15.74-.18,2.61-.06,1.47c-.16,2.07-.31,4.15-.47,6.23h-.69c0-2.79.09-5.58.13-8.37l.05-1,.22-2.36,0-.53c0-1,0-2.07,0-3.11v-.45l0-2v-.53l.22-2.35,1.14-9.3.08-1.73,0-.47.23-.48c.07-.43.15-.86.19-1.29.07-.71.15-1.23,1.16-1.2s1.1.53,1.06,1.29c0,.48,0,1,0,1.44l-.72.69c-.49.07-1.24-.29-1.28.6-.09,2.28-.12,4.56-.17,6.84h-.09l-.17,1Z" />
            <path class="outline"
                d="M472.71,492.69l-1.48-.07c.8-.13,1.61-.33,2.42-.4,2.67-.21,5.33-.46,8-.51a11,11,0,0,1,2.75.77c.94.25,1.9.45,2.82.67.19-3.22.31-6.23.57-9.23s.13-5.92,1-8.77h.41c0,.39.06.79.05,1.19,0,4.08,0,8.16,0,12.23,0,1.4.24,2.79.3,4.18a1.43,1.43,0,0,0,1.6,1.51,7,7,0,0,0,1.89-.16c1-.24,1.45.14,1.44,1a24.55,24.55,0,0,1-.34,2.83l-.21-.75.09-1.11c0-.61.72-1.7-.85-1.33l-.68.16-1.68-.1c-1.33-.31-1.77-1.09-1.75-2.48,0-2.59-.17-5.18-.28-7.77v-3.73h-.33l-.2,3.73c-.12,2.3-.32,4.6-.34,6.91s.05,2.42-1.65,2.14l-1.73-.44a27.26,27.26,0,0,0-4.1-.94,27.86,27.86,0,0,0-4.26.27Z" />
            <path class="outline"
                d="M427.55,552.49a1.46,1.46,0,0,0-1.65-.06c.62-.93-.41-1.15-.76-1.58-2.85-3.51-4.68-7.59-6.78-11.53-2.93-5.49-4.53-11.39-6-17.34h.58c.1.25.23.49.31.75,1,3.23,1.95,6.49,3.09,9.68.73,2,1.76,4,2.66,6l.24.48.23.48,1.44,2.89.24.48.24.48c.26.48.52,1,.77,1.44l.43.72.3.48.65,1,.31.45.17.26.32.46.17.24.33.48.16.23.69.91.26.31.79,1,.87,1Z" />
            <path class="outline"
                d="M446.11,494.65c-.27.22-.53.61-.81.63-3.29.3-6.59.51-9.87.81-2.81.26-5.6.63-8.4.91-1.5.14-3,.18-4.52.27-4.56.29-9.12.71-13.68.86s-8.94.05-13.42,0c-.13,0-.27-.13-.41-.2l0-.42,3.89-.11,6.43,0a110.57,110.57,0,0,0,15.55-.49c3.18-.31,6.37-.64,9.56-.9s6.62-.43,9.92-.72a28.53,28.53,0,0,0,3.38-.69l1.41-.11Z" />
            <path class="outline"
                d="M443.71,494.66a28.53,28.53,0,0,1-3.38.69c-3.3.29-6.62.45-9.92.72s-6.38.59-9.56.9a110.57,110.57,0,0,1-15.55.49,6.49,6.49,0,0,1,1.19-.3c3.37-.11,6.75-.19,10.13-.29.47,0,.94-.07,1.32-.1l.54-1.2.35.65.83-.43c-.06.67.21.88.9.82q10.11-1,20.21-1.86c.76-.06.91-.39.88-1.07a15.64,15.64,0,0,1,.19-3.4c1.68,1.06.91,2.61.87,4Z" />
            <path class="outline"
                d="M363.82,495.08c-2.1-.17-4.2-.35-6.3-.5-1.15-.09-2.31-.15-3.46-.18-4.38-.09-8.77-.13-13.15-.27-1.58,0-3.14-.29-4.71-.44.4-.08.82-.13,1.21-.25a7,7,0,0,0,.92-.43l4.61.19h.93l.51.1,4.8.1h.68l2.65,0,4.11.11,1.18.12,1.85.11,1.3.09,1.44.15,1.42.27Z" />
            <path class="outline"
                d="M427.55,552.49l0-.4c.79.63.79,1.27,0,1.67a7,7,0,0,1-2.07.86A2.2,2.2,0,0,1,424,554a31.18,31.18,0,0,1-6.22-8.3A72.85,72.85,0,0,1,412,530.06c0-.18.09-.42.14-.63.62,2,1.14,4.12,1.88,6.11,1.74,4.73,3.36,9.54,6.42,13.64,1.18,1.58,2.51,3,3.84,4.5.21.24.79.25,1.18.2a3.08,3.08,0,0,0,1.32-.47A4.53,4.53,0,0,0,427.55,552.49Z" />
            <path class="outline"
                d="M447.24,484.78l.06.52c0,.63,0,1.26,0,1.89l.15.52.05,0,0,0c0,.43-.08.86-.08,1.28,0,1.23.06,2.45,0,3.67,0,.41-.51.79-.78,1.18l-1-.88.08-.5.15-1.19.14-.46.17-.49c0-1,0-2.08-.05-3.12v-2.65l.13-1.87.48,0C446.89,483.35,447.07,484.06,447.24,484.78Z" />
            <path class="outline"
                d="M363.82,495.08v-.81l.93-.12,1.24.14.7.08.7.06,1.94.41.75-.18.42-.28-.44-.47-1.9-3.34c.34.25.69.49,1,.76s.78.72,1.17,1.08l.37.43.84,1,1.34,1.13.53.17.71,0,.45.09.51.18.5-.06,0,.08,0,.7-7.92-.69-.48,0-1.4-.09-1-.14Z" />
            <path class="outline"
                d="M466.7,492.83l-2.22.24a2.92,2.92,0,0,1,.78-.24c.7,0,.84-.35.89-1q.66-6.8,1.36-13.59c0-.33.13-.66.2-1,.2.09.33.11.33.14q.13,3.28.23,6.57c0,.12-.17.23-.27.35-.09-.35-.19-.69-.37-1.34-.32,2.17-.65,4-.83,5.85C466.67,490.15,466.72,491.5,466.7,492.83Z" />
            <path class="outline"
                d="M419.66,495.79l-.83.43-.35-.65.18-1,.07-.47.14-1.21.11-1.18.15-2.18.08-1.19.11-.92.75,0c0,2.15,0,4.29,0,6.44l-.09.71Z" />
            <path class="outline"
                d="M375.56,496.08l0-.7,1.48.07.5.06,1.42.16.73.09,1.19.15.72.11,1.16.13.5.16,1-.06,1.43.14.73.1.7.07c.08.1.17.19.25.28l-.25.41c-2.09-.17-4.18-.33-6.26-.52-1.42-.12-2.84-.27-4.26-.42A9.18,9.18,0,0,1,375.56,496.08Z" />
            <path class="outline"
                d="M387.09,497.25c.09-.13.17-.27.25-.41l.25-.18a.32.32,0,0,0,.17,0l.76.09,1.15.15.34.35.25-.32c.26-.46.52-.92.77-1.38l1.47-3.86.15,1-.06.72a28.64,28.64,0,0,1-.74,2.9c-.25.68,0,.87.57,1,.85.11,1.71.18,2.56.26l0,.42Z" />
            <path class="outline"
                d="M466.7,492.83c0-1.33,0-2.68.1-4,.18-1.85.51-3.68.83-5.85.18.65.28,1,.37,1.34,0,1,0,2.08,0,3.12-.07.33-.17.65-.22,1-.21,1.5-.41,3-.62,4.5Z" />
            <path class="outline"
                d="M406.25,541.41c.16-2.08.31-4.16.47-6.23H407c0,1.21.08,2.43.07,3.64s-.11,2.6-.12,3.89c0,.78-.35,1.39-1.1,1.22-1.47-.32-2.89-.86-4.33-1.31,1.13.28,2.25.57,3.38.81.62.14,1.37.47,1.49-.63a.16.16,0,0,0,0-.15l-.1-.5Z" />
            <path class="outline"
                d="M368.15,490.57l1.9,3.34c0,.25,0,.5,0,.75l-.75.18v-.4a7.41,7.41,0,0,0-.29-1.17c-.93-2-1.88-4-2.83-6.08,1,.08.5-.55.48-1,.53,1,1.07,1.92,1.6,2.89l-1-.18Z" />
            <path class="color-base"
                d="M368.61,509.29l12.17.25a1.47,1.47,0,0,1,.53.21c-.14.06-.28.18-.41.18q-6.15-.19-12.29-.43A.74.74,0,0,1,368.61,509.29Z" />
            <path class="color-base"
                d="M395,497.55c-.85-.08-1.71-.15-2.56-.26-.55-.08-.82-.27-.57-1a28.64,28.64,0,0,0,.74-2.9v3.4c1.59.09,3.33.19,5.07.31a7.34,7.34,0,0,1,1.21.29Z" />
            <path class="outline"
                d="M446.24,482.67l-.13,1.87-.11,0a60.33,60.33,0,0,1-.3-7,8.47,8.47,0,0,1,1.12,4.38l-.71-1.68Z" />
            <path class="outline"
                d="M404.06,522.75c-.13.7-.25,1.41-.37,2.12l-.11.52c-.13.62-.25,1.25-.38,1.88l-.11.52-1,3.3a1.57,1.57,0,0,1-.09-.51c.7-3.37,1.4-6.74,2.13-10.11a5.52,5.52,0,0,1,.49-1.12c-.14,1-.28,1.92-.43,2.88Z" />
            <path class="color-base"
                d="M401.93,531.58c-.65,2.69-1.32,5.37-1.93,8.07a16.34,16.34,0,0,0-.18,2.22c-.18-.43-.58-.91-.5-1.27.73-3,1.55-5.89,2.35-8.82C401.69,531.69,401.84,531.64,401.93,531.58Z" />
            <path class="outline"
                d="M365.42,485.33l-2.09-4.5.55-.26a28.72,28.72,0,0,1,2.42,4.95l-.78-.77c0-.1-.09-.2-.13-.3s-.09.06-.08.07a2.49,2.49,0,0,0,.15.28Z" />
            <path class="color-shadow"
                d="M343.63,493.19h-.69l-.78-1.47-.91-1.23-.56-.94c-.08-.13-.15-.26-.22-.4l-.24-2.12.77.64.27.68c.25.49.49,1,.73,1.49l1.39,2.66Z" />
            <path class="outline"
                d="M445.62,493l1,.88c.27-.39.74-.77.78-1.18.1-1.22,0-2.44,0-3.67,0-.42.05-.85.08-1.28.12.17.36.34.35.51-.1,1.89-.24,3.77-.35,5.66a1.48,1.48,0,0,0,.11.45l-1.53.32-1-.09c.08-.33.14-.67.24-1A4.53,4.53,0,0,1,445.62,493Z" />
            <path class="color-base"
                d="M463.4,493.14c-.17.09-.33.24-.51.25q-4.35.27-8.7.5a4.17,4.17,0,0,1-.71-.05c.09-.07.18-.2.28-.21Z" />
            <path class="color-base"
                d="M392.65,492.72l-.15-1L391,495.57a1.53,1.53,0,0,1,0-.59q.7-2.46,1.47-4.9a.94.94,0,0,1,.49-.55A4.63,4.63,0,0,1,392.65,492.72Z" />
            <path class="outline" d="M467.14,492.93c.21-1.5.41-3,.62-4.5.05-.34.15-.66.22-1v5l2.62.21Z" />
            <path class="outline"
                d="M420.07,487.48l-.75,0,.05-.37h0v-.73c.05-.53.09-1.05.14-1.58l.1-.82.12-1.09.11-.68c0-.31.05-.63.07-.94.13.65.25,1.31.38,2C420.22,484.63,420.14,486.05,420.07,487.48Z" />
            <path class="outline" d="M367.43,509.58l-5.33-.13c.07-.1.13-.28.2-.28l6.31.12a.74.74,0,0,0,0,.21Z" />
            <path class="color-shadow"
                d="M368.15,490.57l-.83-1.63,1,.18.31.5.3.47.17.26.45.67,0,.05.47.67.31.67c-.39-.36-.77-.74-1.17-1.08S368.49,490.82,368.15,490.57Z" />
            <path class="color-base" d="M349.18,493.38l-4.8-.1Z" />
            <path class="outline" d="M422.29,524.05c0-1.65.07-3.3.1-4.95C423.24,520.43,423.19,523.24,422.29,524.05Z" />
            <path class="outline"
                d="M419.25,512.86c-.53-.82-1.09-1.62-1.58-2.46-.1-.15.07-.46.11-.7l.52.09c.16.46.28.93.48,1.37s.57,1.16.86,1.74Z" />
            <path class="color-base" d="M427.17,509.24l4.57-.16Z" />
            <path class="color-base" d="M383.47,509.79,388,510Z" />
            <path class="outline" d="M341,487.68l-.77-.64.24,2.12a2.32,2.32,0,0,1-.32-2.77l.42-.09Z" />
            <path class="color-base" d="M411.16,524.4l.87,4.54Z" />
            <path class="color-base" d="M421.89,509.48l4.31-.19Z" />
            <path class="outline" d="M406.78,533.71l.18-2.61h.26c-.08,1.19-.15,2.38-.23,3.57Z" />
            <path class="outline"
                d="M420.29,483.2c-.13-.65-.25-1.31-.38-2,0-.3.07-.59.11-.89l.37,0A3.88,3.88,0,0,1,420.29,483.2Z" />
            <path class="outline" d="M365.52,484.75l.78.77.39.71c0,.41.48,1-.48,1l-.79-1.86c0-.18,0-.35,0-.53Z" />
            <path class="outline" d="M407.48,525.33l.18-3.57Z" />
            <path class="outline" d="M407.24,529.89c0-1,0-2.07,0-3.11h.12l.11,0Z" />
            <path class="outline"
                d="M494,499.4l-.26.3c-.23-.85-.82-1.72.15-2.49l.21.75,0,1,0,.29A.48.48,0,0,1,494,499.4Z" />
            <path class="outline" d="M446.11,487.19c0,1,0,2.08.05,3.12h-.26Z" />
            <path class="color-base" d="M407.69,521v-2.84h.25Z" />
            <path class="color-base" d="M421.58,516.7l-1.43-2.81Z" />
            <path class="color-base" d="M352.51,493.42l-2.65,0Z" />
            <path class="color-base" d="M453.08,493.87l-2.74.19Z" />
            <path class="color-base" d="M414.2,520.21l1.52,2.13A2.18,2.18,0,0,1,414.2,520.21Z" />
            <path class="outline" d="M446.24,482.67l-.13-2.46.71,1.68.07.47-.17.28Z" />
            <path class="color-base" d="M364.74,494.15l-.93.12-1.42-.27Z" />
            <path class="color-base" d="M410,514.56l.16,2.38Z" />
            <path class="color-base" d="M409.71,511.68l.19,2.35Z" />
            <path class="outline"
                d="M446.72,482.64l.17-.28c.12.81.23,1.61.35,2.42C447.07,484.06,446.89,483.35,446.72,482.64Z" />
            <path class="color-base" d="M399.27,524.54l1.28-1.7Z" />
            <path class="outline" d="M447.28,487.19c0-.63,0-1.26,0-1.89l.24,1.88Z" />
            <path class="color-base" d="M410.65,522l.43,1.89Z" />
            <path class="color-shadow" d="M369.33,494.44v.4l-1.94-.41Z" />
            <path class="color-base" d="M410.43,519.82l.19,1.66Z" />
            <path class="color-base" d="M418.78,509.57h1.69l-1.7.19C418.77,509.7,418.78,509.63,418.78,509.57Z" />
            <path class="color-base" d="M410.18,517.68l.16,1.43Z" />
            <path class="color-base"
                d="M422.13,544.62c-.25-.48-.51-1-.77-1.44C421.62,543.66,421.88,544.14,422.13,544.62Z" />
            <path class="color-base" d="M342,489.85c-.24-.5-.48-1-.73-1.49C341.52,488.85,341.76,489.35,342,489.85Z" />
            <path class="outline" d="M406.78,533.71l.21,1,0,.51h-.25Z" />
            <path class="color-base" d="M421.17,525l1-.69C422.19,525,421.81,525.19,421.17,525Z" />
            <path class="color-shadow" d="M371.54,493.83l-.84-1Z" />
            <path class="color-base" d="M449.21,494.21l-1.27.09Z" />
            <path class="color-base" d="M419,491.75l-.11,1.18Z" />
            <path class="color-base" d="M445.85,491.26l-.15,1.19Z" />
            <path class="outline" d="M419.21,488.38l-.08,1.19Z" />
            <path class="color-base" d="M426.71,551.1l-.79-1Z" />
            <path class="color-base" d="M361,493.85l-1.3-.09Z" />
            <path class="color-base" d="M357.8,493.65l-1.18-.12Z" />
            <path class="color-base" d="M422.26,518.61l-.37-1.17Z" />
            <path class="color-base" d="M340.69,489.56l.56.94Z" />
            <path class="color-base" d="M402.14,520.45l.58-1Z" />
            <path class="outline" d="M407.94,518.15h-.25l.17-1Z" />
            <path class="color-base" d="M384.23,496.25l-1,.06v-.21Z" />
            <path class="color-base" d="M394.1,514.87l-.59,1Z" />
            <path class="color-base" d="M425.66,549.84l-.69-.91Z" />
            <path class="outline" d="M418.78,509.57c0,.06,0,.13,0,.19l-.47,0-.52-.09Z" />
            <path class="color-base" d="M416.74,523.34l.87.7Z" />
            <path class="outline" d="M419.61,484l-.1.82Z" />
            <path class="color-base" d="M400.34,542.35l.65.21Z" />
            <path class="outline" d="M357.05,509.65h0Z" />
            <path class="outline" d="M419.84,482.18l-.11.68Z" />
            <path class="color-base" d="M366.68,494.37l-.7-.08Z" />
            <path class="color-base" d="M420,494.63l.09-.71Z" />
            <path class="color-base" d="M374.12,495.09l-.71,0a.74.74,0,0,1,0-.21Z" />
            <path class="color-base" d="M404.82,518.14l-.14.71Z" />
            <path class="color-base" d="M386.39,496.49l-.73-.1Z" />
            <path class="color-base" d="M381.58,496l-.72-.11Z" />
            <path class="color-base" d="M420,525.08h.64a4,4,0,0,1-.26.32Z" />
            <path class="color-base" d="M379.67,495.76l-.73-.09Z" />
            <path class="outline" d="M407.22,531.11H407l.15-.74Z" />
            <path class="color-base" d="M388.52,496.77l-.76-.09Z" />
            <path class="color-base" d="M370,491.74l-.47-.67Z" />
            <path class="color-base" d="M343.63,493.19l-.24-.68.48.67Z" />
            <path class="color-base" d="M369.52,491l-.45-.67Z" />
            <path class="color-shadow" d="M390.26,497l-.25.32-.34-.35Z" />
            <path class="outline" d="M419.25,512.86l.39,0,.1.43Z" />
            <path class="outline" d="M419.37,486.35v0Z" />
            <path class="outline" d="M447.28,487.19h.26l-.11.53Z" />
            <path class="color-base" d="M368.9,490.09l-.3-.47Z" />
            <path class="outline" d="M445.9,490.3h.26l-.17.49Z" />
            <path class="color-shadow" d="M383.24,496.1v.21l-.5-.16Z" />
            <path class="color-base" d="M418.73,494.14l-.07.47-.21-.2Z" />
            <path class="color-base" d="M401.67,521.2l.33-.51Z" />
            <path class="color-base" d="M401.19,521.9l.34-.49Z" />
            <path class="color-shadow" d="M373.41,494.92a.74.74,0,0,0,0,.21l-.53-.17Z" />
            <path class="color-base" d="M400.71,522.63l.33-.5Z" />
            <path class="color-base" d="M375.58,495.3l-.5.06v-.23Z" />
            <path class="color-base" d="M419,524.84l.43.14-.21.18Z" />
            <path class="outline" d="M407.45,526.79l-.11,0h-.12l.13-.5Z" />
            <path class="color-base" d="M377.52,495.51l-.5-.06Z" />
            <path class="color-base" d="M417.67,524.08l.47.31Z" />
            <path class="color-shadow" d="M375.08,495.13v.23l-.51-.18Z" />
            <path class="color-base" d="M419.44,539.33l-.23-.48Z" />
            <path class="color-base" d="M421.12,542.7l-.24-.48Z" />
            <path class="color-base" d="M422.86,545.82l-.3-.48Z" />
            <path class="color-base" d="M423.82,547.26l-.31-.45Z" />
            <path class="color-base" d="M424.31,548l-.32-.46Z" />
            <path class="color-base" d="M424.81,548.7l-.33-.48Z" />
            <path class="color-base" d="M387.59,496.66l-.25.18c-.08-.09-.17-.18-.25-.28Z" />
            <path class="color-base" d="M494.07,499.23l0-.29a1.66,1.66,0,0,1,.06.21S494.09,499.21,494.07,499.23Z" />
            <path class="outline" d="M419.36,487v.12h0A.53.53,0,0,1,419.36,487Z" />
            <path class="outline"
                d="M328.94,479.05l.22-1.32h.23l1.35,6.74-.53.31c-.31-1.51-.62-3-.94-4.52,0-.25-.13-.5-.2-.74S329,479.21,328.94,479.05Z" />
            <path class="outline"
                d="M329,472.07a3.73,3.73,0,0,1,.47,1,18.1,18.1,0,0,1,0,2h-.35c-.05-.77-.11-1.54-.16-2.31C329,472.52,329,472.3,329,472.07Z" />
            <path class="outline"
                d="M330.21,484.79l.53-.31c.64,1.59,1.18,3.25,2,4.76a15,15,0,0,0,2.31,3c.31.34.92.39,1.39.57l1,.12.92.09a7,7,0,0,1-.92.43c-.39.12-.81.17-1.21.25l-2.88-.42-.8-.2-.4,0-4.36-1.71h0l.3-.75c1.25.41,2.5.83,3.75,1.22.19.06.55.06.6,0a1,1,0,0,0,.06-.73C331.72,488.94,331,486.86,330.21,484.79Z" />
            <path class="outline"
                d="M328,490.56l-.3.75L322,488.73a2.4,2.4,0,0,0,.83,3c-1.1.16-1.54-.37-1.48-1.41a5.79,5.79,0,0,1,.15-1.63c.29-.8-.14-1-.72-1.15a8.78,8.78,0,0,1,2.5.4C324.91,488.68,326.45,489.66,328,490.56Z" />
            <path class="outline" d="M329.6,508.21l4.46,1Z" />
            <path class="outline" d="M320.59,501.82c.13,1,.27,2,.4,3C320,503.92,320.28,502.88,320.59,501.82Z" />
            <path class="outline" d="M326.36,506.87c1.17-.28,1.92.43,2.67,1.14Z" />
            <path class="outline" d="M320.45,492.68l.15,2.19Z" />
            <path class="outline" d="M320.67,496.28l.16,2Z" />
            <path class="outline" d="M321.55,505.44l2.2.88Z" />
            <path class="outline" d="M324.2,506.38l1.71.41Z" />
            <path class="outline"
                d="M320.83,499.66c-.05.49-.11,1-.16,1.47C320.72,500.64,320.78,500.15,320.83,499.66Z" />
            <path class="outline" d="M320.68,487.59c-.07.28-.15.55-.22.83C320.54,488.14,320.61,487.87,320.68,487.59Z" />
            <path class="outline" d="M341,509.75l.76.05Z" />
            <path class="outline" d="M337.41,492.92l-1-.12Z" />
            <path class="color-base"
                d="M482,501.35c0,.23,0,.46,0,.7l-4.53.77a.59.59,0,0,1-.17-.1l-.52-.94-.34,0c.08,1.42-.79,1.26-1.66,1.3-1.66.08-3.32.22-5,.44s-2.29.06-3.25-1.58c0-.06-.14-.07-.21-.11-.07-.19-.13-.39-.19-.58-.25-.69-.49-1.38-.74-2.06l-.51-1.1c-.86.22-1.09,1.26-.5,2.34a2.26,2.26,0,0,0,0,.26l-.19.1.22,0c.07.26.13.52.2.79l-.19.12.29.15.27,1c-.29.39-.23,1-1.07,1-2.94,0-5.88.14-8.82.19a11.88,11.88,0,0,1-1.95-.27l.06.2-3.33.54-.54-1.45c-.16-.68-.31-1.36-.47-2.05l-.18-.46-.27.32,0,0c-.07.17-.13.33-.19.5s0,.47-.07.71a3.26,3.26,0,0,0-.31,1c0,1-.28,1.52-1.44,1.48-2.44-.08-4.87,0-7.31,0l-1.16-1c-.06.26-.11.46-.16.66l-6.86.35c-.25-1-.48-2-.74-2.95-.11-.4-.31-.79-.46-1.19l-.47,0-.18,1.44-.06,1,.05.94,0,1-12.15,1a14.45,14.45,0,0,0-1-1.93,21.42,21.42,0,0,0-1.51-1.82l-.61-.21-.63,0c-1-.46-2.41.13-3-1.37.54,0,1.06,0,1.57,0,1-.08,2.08-.21,3.12-.32l1.09,0,1.44-.1,1.44-.14,1-.08,1.16-.14.76-.1.93-.08,1.46-.2.46-.05,1.22-.18.46-.07,1-.13.93-.1,3.15-.41.69-.06,5.75-.25c.14,0,.26-.16.39-.24h.61l4.07-.19.46,0,3.62-.2,3.61-.21,1-.1,2.37-.15,2.18-.14,1.9-.08c1.76,0,3.52.14,5.28.1a13.85,13.85,0,0,0,2.42-.49l11,.29.52.08,2.37.38.5.12.46.07.74.18,1.42.33.5.14.72.25c.08,1,.15,2,.26,3.06.07.76-.21,1.13-1,1l-.49-.95-1-1.77-.45.25Zm-44.63,1.29c0,.06-.09.15-.08.19s.13.07.2.1.09-.15.07-.2S437.48,502.67,437.41,502.64Z" />
            <path class="color-base"
                d="M387.11,500.05l1.17.1,1,.07,2.85.13,5.76.14,2.63,0h6.57c-.55.93-1,1.92-2.12,1,0,0-.23.19-.36.29l-.45,0-1,.23-.41.52c-.27.77-.49,1.55-.83,2.29a7.88,7.88,0,0,1-.9,1.29l-13-.45c-.16-.73-.32-1.46-.47-2.18-.06-.17-.11-.34-.17-.5-.25.16-.67.29-.71.5a13,13,0,0,0-.12,1.88,8.64,8.64,0,0,1-1.24.1c-1.34-.07-2.68-.16-4-.25l-.34-.14a.37.37,0,0,0-.09-.16l-.22-.48-.72-1-.41,1.43-12.77-.71-.26-.48c0-.15-.05-.3-.08-.45l-.15-2.43c0-.38-.08-.77-.11-1.15-.11-.56-.31-.73-.7-.18l0,.06-.3,1.54c-.05.3-.09.61-.14.91-.61.42-.61.83,0,1.25l0,.68a5.16,5.16,0,0,1-1.15.21c-4.24-.29-8.47-.7-12.71-.88a60.72,60.72,0,0,1-11.31-1.47c0-.71,0-1.43,0-2.14a4.27,4.27,0,0,1,.91-.26c2.3-.17,4.6-.3,6.89-.49s4.35-.46,6.52-.61a63.74,63.74,0,0,1,7-.28c4.2.19,8.4.59,12.6.89a3.29,3.29,0,0,0,.9-.19l.94.1,1.26.32,4.06.22,1.22.18.7.07Z" />
            <path class="color-shadow"
                d="M374.59,498.75a3.29,3.29,0,0,1-.9.19c-4.2-.3-8.4-.7-12.6-.89a63.74,63.74,0,0,0-7,.28c-2.17.15-4.34.43-6.52.61s-4.59.32-6.89.49a4.27,4.27,0,0,0-.91.26l-.71.47c-.88-.56-3.85-.37-4.48.39,1.06.29,2.07.6,3.09.82a5.59,5.59,0,0,0,1.35-.05c.26,2,.55,3.94.75,5.91,0,.23-.48.73-.71.71-1.28-.07-2.54-.3-3.81-.42a2.25,2.25,0,0,1-2.08-1.82,9.68,9.68,0,0,0-1.2-2.73l-.39,3.76c-1.29-.68-2.56-.93-3.43-2.25a15.72,15.72,0,0,1-2.2-7.36,8.26,8.26,0,0,0-.24-1.05c-1.21,1.16-1,2.46-1,3.67s.17,2.5.27,3.76c-1.75.14-2.33-.42-2.42-2.06-.14-2.27-.41-4.52-.61-6.78,0-.3,0-.61,0-1.1,1.48.39,2.82.73,4.15,1.09,6.63,1.78,13.41,2,20.21,1.91,8.13-.15,16.18.75,24.23,1.65C371.86,498.37,373.22,498.57,374.59,498.75Z" />
            <path class="color-shadow"
                d="M339.78,501.83a60.72,60.72,0,0,0,11.31,1.47c4.24.18,8.47.59,12.71.88A5.16,5.16,0,0,0,365,504c.05.15.09.3.14.46s.07.34.11.52v1.43c-.05.17-.09.35-.14.52s0,.44,0,.66-.19.51-.29.76l-8.06.07-.12-.58c.06-.2.11-.41.17-.61l.31-.59.33-1.09-.32-.24A24.21,24.21,0,0,1,355,507.4a3.57,3.57,0,0,1-1.8.87c-1.37.13-2.77,0-4.19,0l1.26-3.32-.35-.17a15.35,15.35,0,0,0-1.66,2.4c-.57,1.25-1.51,1.35-2.64,1.24a7.67,7.67,0,0,0-1.78-.13c-1.7.24-2.51-.62-2.91-2.12S340.18,503.29,339.78,501.83Zm17.84,3.39.45-.75-.32-.21-.44.67Z" />
            <path class="transparent"
                d="M407.5,509.27l0,.47-.11.44h0a.25.25,0,0,0-.18.08h-.38l.22-2.08-.32-.12c-.38.68-.77,1.37-1.14,2.06-.86,1.59-1.7,3.2-2.59,4.77a51.81,51.81,0,0,1-3,5.11,48.38,48.38,0,0,1-3.69,4s-.06.07-.1.08c-.86.17-2.08.76-2.49.4a2.87,2.87,0,0,1-.64-2.55,30.55,30.55,0,0,1,3-6.83c1.89-2.95,4.24-5.61,6.39-8.4.38-.5.74-1,1.12-1.53,1.55-1.16,3.08-2.38,4.7-3.46a1.88,1.88,0,0,1,1.59,0,4.27,4.27,0,0,1,2.36,2.51l-.51.13-.15,2.27c-.69.08-.89.47-.73,1.11.08,1.4.15,2.81.22,4.22l-.46,0-.29-1.2-.19-1.69c0-.48,0-1,0-1.44,0-.76,0-1.26-1.06-1.29s-1.09.49-1.16,1.2c0,.43-.12.86-.19,1.29Zm.19-5.61-.25-.19a6,6,0,0,0-.83.55,37.63,37.63,0,0,0-3,2.92,93.14,93.14,0,0,0-5.85,7.31,41.41,41.41,0,0,0-3.12,6.12,1.4,1.4,0,0,0,.31,1.33,1.52,1.52,0,0,0,1.38-.12,14.42,14.42,0,0,0,2.22-2c3.93-4.27,6.49-9.37,8.74-14.65C407.46,504.54,407.56,504.09,407.69,503.66Z" />
            <path class="color-shadow"
                d="M449.41,503l.54,1.45,3.33-.54-.06-.2a11.88,11.88,0,0,0,1.95.27c2.94-.05,5.88-.2,8.82-.19.84,0,.78-.61,1.07-1,.69,1.51,1.37,3,2.12,4.68-.33,0-.66.09-1,.1-3.43,0-6.87,0-10.31.07a1.19,1.19,0,0,1-1.34-1,24.8,24.8,0,0,0-1.05-2.37l-.31,0c-.11.83-.27,1.66-.31,2.49s-.38,1-1.12,1c-2.72.16-2.7.18-2.39-2.48A23.18,23.18,0,0,0,449.41,503Z" />
            <path class="transparent"
                d="M412.33,522c1.5,5.95,3.1,11.85,6,17.34,2.1,3.94,3.93,8,6.78,11.53.35.43,1.38.65.76,1.58-1.3.75-2,0-2.77-1a50.13,50.13,0,0,1-6.85-12.39c-2.09-5.19-3.16-10.64-4.53-16a25.54,25.54,0,0,1-.41-3.94h.45Z" />
            <path class="color-shadow"
                d="M483.3,502.07c.79.11,1.07-.26,1-1-.11-1-.18-2-.26-3.06a1.8,1.8,0,0,1,.47,0c2.33.93,4.64,1.93,7.43,1.29l-.45,3.72-.7,0-.78-2.3c-.18,2.11-.33,3.93-.51,6.13l-2.86-1.49.32,1c0,.25,0,.5,0,.75l-.44.06-.52.16-.91.11-.76-.11c-.2-1-.39-2-.59-3.07,0-.18-.07-.35-.11-.53s-.07-.45-.11-.68-.11-.34-.17-.51Z" />
            <path class="color-shadow"
                d="M366.7,504.22l12.77.71.41-1.43.72,1-.35.46c.36,1.12.73,2.24,1.09,3.36l0,.25h-2.4l-.48,0c-2-.06-4-.09-6-.21a2.14,2.14,0,0,1-1.21-.62,4.21,4.21,0,0,1-.64-1.14L370,507l.3.8-.06.51h-2.16l-.83-1.05c-.05-.21-.11-.41-.16-.62s-.13-.33-.19-.5l-.09-.44Z" />
            <path class="color-shadow"
                d="M417,505.72l12.15-1c.28.65.57,1.3.86,2,.45,1,.38,1.68-1,1.65-.5,0-1,.15-1.52.18-1.74.1-3.51,0-5.22.31-2.14.33-3.47-.75-4.7-2.19A9.15,9.15,0,0,1,417,505.72Z" />
            <path class="color-shadow"
                d="M466.39,501.8c.07,0,.17.05.21.11,1,1.64,1.45,1.82,3.25,1.58s3.32-.36,5-.44c.87,0,1.74.12,1.66-1.3l.34,0c.17.31.34.63.52.94-.13.29-.44.66-.35.87.54,1.36,1.18,2.68,1.78,4l-4.34-.07-1-.13-3.53-2.56,1,2.6c-.92.24-1.79.31-2.3-.81Q467.49,504.22,466.39,501.8Z" />
            <path class="transparent"
                d="M412.36,512.11l-.57-2.14.62.06c1.27,3.17,2.5,6.38,5,8.87a4,4,0,0,0,1.28.61c.19-.55.68-1.2.53-1.65-.52-1.61-1.25-3.16-1.9-4.73l.55-.52a62.47,62.47,0,0,1,3,5.65,7.61,7.61,0,0,1,.33,3.47c-.12,1.25-1.07,1.73-2,1a39,39,0,0,1-3.61-3.55l-.3-.57-1.44-2.77-.24-.6-.25-.6-.48-1.31-.23-.61Z" />
            <path class="color-shadow"
                d="M388,505.7l13,.45a24.63,24.63,0,0,1-2.07,2.14,2.56,2.56,0,0,1-1.52.47c-2.12.07-4.23.05-6.34.08s-2,0-2.71-1.77A13.32,13.32,0,0,1,388,505.7Z" />
            <path class="color-shadow"
                d="M439.15,504.47c2.44,0,4.87-.06,7.31,0,1.16,0,1.44-.48,1.44-1.48a3.26,3.26,0,0,1,.31-1c-.15,1.73-.27,3.46-.49,5.18,0,.24-.54.57-.84.59-1.34.07-2.7.09-4.05,0a2,2,0,0,1-1.28-.49C440.7,506.45,440,505.44,439.15,504.47Z" />
            <path class="color-shadow"
                d="M431,504.49l6.86-.35c.6,1.15,1.21,2.3,1.95,3.73-2.55.05-4.87.12-7.19.12-.22,0-.56-.33-.65-.58C431.57,506.45,431.28,505.46,431,504.49Z" />
            <path class="outline"
                d="M412.23,504.23a4.27,4.27,0,0,0-2.36-2.51,1.88,1.88,0,0,0-1.59,0c-1.62,1.08-3.15,2.3-4.7,3.46l-.43-.31a3,3,0,0,0,.6-.8c.25-.79,1.75-1.11.86-2.31.13-.1.34-.31.36-.29,1.13.89,1.57-.1,2.12-1h-6.57a2.34,2.34,0,0,1,.73-.28q6.54-.15,13.08-.27a4.37,4.37,0,0,1,.7.1c-1,.11-2.08.24-3.12.32-.51,0-1,0-1.57,0,.54,1.5,2,.91,3,1.37l-.09.42c-.89.14-.44.64-.23,1,.48.9,1,1.77,1.5,2.66l-.52.33Z" />
            <path class="color-shadow"
                d="M477.52,502.82l4.53-.77c.06,1,.12,2.06.19,3.09,0,.17.07.35.11.52.09.56.17,1.13.25,1.69l-.23.26-2.61-.19c-.34-.74-.68-1.47-1-2.2S477.92,503.62,477.52,502.82Z" />
            <path class="color-shadow"
                d="M381.25,505.25c1.34.09,2.68.18,4,.25a8.64,8.64,0,0,0,1.24-.1c.2.85.41,1.69.57,2.54.11.58-.14.9-.78.86a14,14,0,0,1-2.25-.08,2.39,2.39,0,0,1-1.13-.86c-.59-.69-1.11-1.44-1.65-2.17C381.27,505.55,381.26,505.4,381.25,505.25Z" />
            <path class="outline"
                d="M484.51,493.2l1.73.44-.19.3c1.43.47,2.86.95,4.3,1.38.09,0,.29-.32.44-.49l1.68.1a3.88,3.88,0,0,0,.1,1c.35,1-.19,2.3-1.19,2.38a21.32,21.32,0,0,1-3.74-.19c-.25,0-.47-.44-.7-.67,1.25.17,2.5.43,3.76.48s1.53-.31,1.44-1.56L484,493.63Z" />
            <path class="color-base"
                d="M339,501.32a5.59,5.59,0,0,1-1.35.05c-1-.22-2-.53-3.09-.82.63-.76,3.6-.95,4.48-.39C339,500.55,339,500.94,339,501.32Z" />
            <path class="outline"
                d="M477.52,502.82c.4.8.82,1.59,1.21,2.4s.69,1.46,1,2.2l-1,.18c-.6-1.33-1.24-2.65-1.78-4-.09-.21.22-.58.35-.87A.59.59,0,0,0,477.52,502.82Z" />
            <path class="transparent"
                d="M414.47,505.81c-.5-.89-1-1.76-1.5-2.66-.21-.37-.66-.87.23-1a3.5,3.5,0,0,1,1.76,3.15C415,505.47,414.64,505.63,414.47,505.81Z" />
            <path class="color-shadow"
                d="M465.82,496.15a13.85,13.85,0,0,1-2.42.49c-1.76,0-3.52-.06-5.28-.1a4.85,4.85,0,0,1,.9-.2C461.29,496.26,463.55,496.21,465.82,496.15Z" />
            <path class="transparent"
                d="M404.61,501.79c.89,1.2-.61,1.52-.86,2.31a3,3,0,0,1-.6.8c-.1-.18-.33-.42-.28-.53.4-.87.85-1.7,1.29-2.55Z" />
            <path class="outline"
                d="M493.52,505.15c.28,1.07.46,2.13-.47,3l-2.31.56a2,2,0,0,1,.52-.37,2.38,2.38,0,0,0,2-2.64C493.22,505.52,493.41,505.34,493.52,505.15Z" />
            <path class="outline"
                d="M365.74,496.52c1.74.1,3.49.19,5.23.32.2,0,.39.21.59.32-1.8-.06-3.6-.1-5.4-.19C366,497,365.88,496.68,365.74,496.52Z" />
            <path class="outline"
                d="M438.31,497.64c-.13.08-.25.23-.39.24l-5.75.25a19.51,19.51,0,0,1,2.7-.53C436,497.52,437.17,497.62,438.31,497.64Z" />
            <path class="outline" d="M397.89,500.49l-5.76-.14Z" />
            <path class="outline" d="M387.11,500.05l-4.34-.41Z" />
            <path class="outline" d="M443,497.45l-4.07.19Z" />
            <path class="outline" d="M413.83,508.72c-1.13-.12-1.54-.85-1.44-2.55Z" />
            <path class="outline" d="M447.07,497.22l-3.62.2Z" />
            <path class="outline" d="M417.74,508.74a1.74,1.74,0,0,1-1.62-2.27Z" />
            <path class="outline" d="M482,501.35l-.71-1.75.45-.25,1,1.77Z" />
            <path class="outline" d="M431.48,498.19l-3.15.41Z" />
            <path class="outline" d="M430,506.66c-.29-.65-.58-1.3-.86-2,0-.33,0-.65,0-1Z" />
            <path class="outline" d="M366.21,500.86l.15,2.43Z" />
            <path class="outline" d="M346,495.3l2.4.05Z" />
            <path class="color-shadow"
                d="M464.45,500.4c-.59-1.08-.36-2.12.5-2.34C464.78,498.84,464.61,499.62,464.45,500.4Z" />
            <path class="color-shadow" d="M456.22,496.62l-2.18.14Z" />
            <path class="outline" d="M476.64,508.9l-2.2-.08Z" />
            <path class="outline" d="M483.33,509.06h0Z" />
            <path class="outline" d="M404.83,541.7l.73-.28h.69v.75Z" />
            <path class="outline" d="M493.15,494.77c1.57-.37.83.72.85,1.33Z" />
            <path class="outline" d="M366.7,504.22l.15,1.48a1.49,1.49,0,0,1-.41-2Z" />
            <path class="color-shadow" d="M465.46,499.16c.25.68.49,1.37.74,2.06Z" />
            <path class="outline" d="M405.55,515l-.51-.37.37-.81.38.11Z" />
            <path class="outline" d="M338.84,495.06l1.44.06Z" />
            <path class="outline" d="M424.27,499.13l-1.46.2Z" />
            <path class="outline" d="M417.56,499.87l-1.44.1Z" />
            <path class="outline" d="M365.06,501.13l.3-1.54Z" />
            <path class="outline" d="M367.29,507.26l.83,1.05C367.24,508.44,367.3,507.82,367.29,507.26Z" />
            <path class="outline" d="M372.44,497.2l1.28.2Z" />
            <path class="outline" d="M382.07,499.57l-1.22-.18Z" />
            <path class="outline" d="M374.36,497.44l1.27.21Z" />
            <path class="color-shadow" d="M376.79,499.17l-1.26-.32Z" />
            <path class="color-shadow" d="M364.92,503.29c-.61-.42-.61-.83,0-1.25Z" />
            <path class="outline" d="M426,498.9l-1.22.18Z" />
            <path class="outline" d="M490.79,503l.7,0-.08.87-.28.06Z" />
            <path class="outline" d="M411.32,519.12l.32-1,.15,1Z" />
            <path class="outline" d="M486.92,507.12c0-.25,0-.5,0-.75l.57.61Z" />
            <path class="outline" d="M364.76,508.32c.1-.25.2-.51.29-.76l.33.6Z" />
            <path class="outline" d="M323.69,492.05l1.23.43Z" />
            <path class="color-base" d="M412.82,513.32l.48,1.31Z" />
            <path class="outline" d="M413,517.44l-.71,0,.25-.65Z" />
            <path class="outline" d="M429.06,502.79l.06-1Z" />
            <path class="outline" d="M473.45,507.4l1,.13Z" />
            <path class="outline" d="M427.4,498.7l-1,.13Z" />
            <path class="outline" d="M383.24,498.65l1,.18Z" />
            <path class="outline" d="M420,499.65l-1,.08Z" />
            <path class="outline" d="M411.77,504.54l.84.82Z" />
            <path class="outline" d="M376.28,497.7l1,.09Z" />
            <path class="color-shadow" d="M451.67,496.91l-1,.1Z" />
            <path class="outline" d="M381.56,498.41l1,.19Z" />
            <path class="outline" d="M460.53,508.58l-1,0Z" />
            <path class="outline" d="M389.28,500.22l-1-.07Z" />
            <path class="outline" d="M484.29,507.34l.76.11C484.72,507.91,484.45,508,484.29,507.34Z" />
            <path class="outline" d="M493.52,504v0Z" />
            <path class="outline" d="M329,493.48l.83.32Z" />
            <path class="outline" d="M421.88,499.41l-.76.1Z" />
            <path class="outline" d="M332.33,494.21l.83.31Z" />
            <path class="color-shadow" d="M481.4,497.27l-.74-.18Z" />
            <path class="outline" d="M378.44,498l.72.07Z" />
            <path class="outline" d="M379.83,498.11l.86.22Z" />
            <path class="outline" d="M356.58,507.81l.12.58-.49-.1Z" />
            <path class="outline" d="M485.73,508.82l-.76.11Z" />
            <path class="outline" d="M380.25,504.93l.35-.46.22.48Z" />
            <path class="outline" d="M365.4,499.53c.39-.55.59-.38.7.18Z" />
            <path class="outline" d="M357.06,506.61l-.31.59Z" />
            <path class="color-shadow" d="M483.32,497.74l-.5-.14Z" />
            <path class="outline" d="M397.49,510.26c0-.18-.05-.35-.07-.52l.36.22Z" />
            <path class="outline" d="M365.06,506.9c.05-.17.09-.35.14-.52C365.15,506.55,365.11,506.73,365.06,506.9Z" />
            <path class="color-shadow" d="M480.2,497l-.5-.12Z" />
            <path class="outline" d="M366.94,506.14c.06.17.13.34.19.5C367.07,506.48,367,506.31,366.94,506.14Z" />
            <path class="color-base" d="M412.36,512.11l.23.6Z" />
            <path class="outline" d="M378.44,508.51l.48,0Z" />
            <path class="outline" d="M482.35,505.66c0-.17-.08-.35-.11-.52C482.28,505.31,482.31,505.49,482.35,505.66Z" />
            <path class="outline" d="M381.25,505.25c0,.15,0,.3,0,.44l-.36-.58Z" />
            <path class="color-shadow" d="M477.33,496.52l-.52-.08Z" />
            <path class="color-base" d="M413.55,515.23l.24.6Z" />
            <path class="outline" d="M381.32,508.54l0-.25.34.33Z" />
            <path class="outline" d="M365.2,505c0-.18-.08-.35-.11-.52C365.13,504.6,365.16,504.77,365.2,505Z" />
            <path class="outline" d="M325.36,492.55l.6.3Z" />
            <path class="color-base" d="M415.23,518.6l.3.57Z" />
            <path class="outline" d="M326.36,492.89l.56.2Z" />
            <path class="outline" d="M330.44,493.86l.48.08Z" />
            <path class="outline" d="M331.36,494l.52.16Z" />
            <path class="outline" d="M483.59,503.74c0,.18.08.35.11.53C483.66,504.09,483.63,503.92,483.59,503.74Z" />
            <path class="color-shadow" d="M448.49,500.81l.27-.32.18.46Z" />
            <path class="outline" d="M333.8,494.57l.48.05Z" />
            <path class="outline" d="M404.06,522.75l.09-.52Z" />
            <path class="outline" d="M327.32,493.14l.48.08Z" />
            <path class="outline" d="M402.74,502.57l.41-.52Z" />
            <path class="color-shadow" d="M387.34,503c.06.16.11.33.17.5C387.45,503.35,387.4,503.18,387.34,503Z" />
            <path class="outline" d="M403.58,525.39l.11-.52Z" />
            <path class="outline" d="M356.12,495.55l.48,0Z" />
            <path class="color-shadow" d="M448.28,501.34c.06-.17.12-.33.19-.5C448.4,501,448.34,501.17,448.28,501.34Z" />
            <path class="outline" d="M403.09,527.79l.11-.52Z" />
            <path class="outline" d="M493.62,501.57c0,.18,0,.35-.05.52l-.32-.28Z" />
            <path class="outline" d="M370.28,508.3l.06-.51.31.36Z" />
            <path class="outline" d="M401.8,539.72l-.11.5Z" />
            <path class="outline" d="M482.37,507.61l.23-.26.11.33Z" />
            <path class="outline" d="M413.92,501.76l.61.21Z" />
            <path class="outline" d="M486,507.34l.52-.16Z" />
            <path class="outline" d="M483.31,502.55c.06.17.12.34.17.51Z" />
            <path class="color-shadow" d="M464.79,501.84l-.29-.15.19-.12C464.72,501.66,464.75,501.75,464.79,501.84Z" />
            <path class="outline" d="M406.35,542.66a.16.16,0,0,1,0,.15l-.2-.06Z" />
            <polygon class="color-base" points="412.75 520.77 412.73 520.84 412.76 520.78 412.75 520.77" />
            <path class="color-shadow" d="M464.49,500.78l-.22,0,.19-.1A.12.12,0,0,1,464.49,500.78Z" />
            <path class="outline"
                d="M484.51,493.2l-.48.43-2.15-.39-.72,0-5-.13,0-.55a27.86,27.86,0,0,1,4.26-.27A27.26,27.26,0,0,1,484.51,493.2Z" />
            <path class="outline" d="M327.76,491.32l4.36,1.71A6.3,6.3,0,0,1,327.76,491.32Z" />
            <path class="outline" d="M476.15,492.53l0,.55c-1.17,0-2.39.48-3.47-.39Z" />
            <path class="outline" d="M364.76,495.13l1,.14Z" />
            <path class="outline" d="M332.52,493.07l.8.2Z" />
            <path class="outline" d="M481.16,493.21l.72,0Z" />
            <path class="outline" d="M367.16,495.36l.48,0Z" />
            <path class="outline" d="M410.12,509l.19,1.69-.53,0c-.13-.34-.25-.68-.38-1Z" />
            <path class="outline" d="M407.44,511.47c-.07-.41-.13-.82-.2-1.22a.25.25,0,0,1,.18-.08h0l.11-.44Z" />
            <path class="outline" d="M405.69,533.05l.05-1Z" />
            <path class="outline" d="M406.07,523.65v0Z" />
            <path class="outline" d="M406,526.05v0Z" />
            <path class="outline" d="M406,529.69l0-.53Z" />
            <path class="outline" d="M407.5,509.27l.23-.48Z" />
            <path class="outline"
                d="M490.79,494.83c-.15.17-.35.52-.44.49-1.44-.43-2.87-.91-4.3-1.38l.19-.3c1.7.28,1.63.28,1.65-2.14s.22-4.61.34-6.91h.53c.11,2.59.31,5.18.28,7.77C489,493.74,489.46,494.52,490.79,494.83Z" />
            <path class="outline" d="M488.76,484.58h-.53c.07-1.25.13-2.49.2-3.73h.33Z" />
            <path class="color-shadow" d="M370.07,494.66c0-.25,0-.5,0-.75l.44.47Z" />
            <path class="outline" d="M365.46,484.8a2.49,2.49,0,0,1-.15-.28s.05,0,.08-.07.08.2.13.3Z" />
            <path class="color-shadow"
                d="M437.41,502.64c.07,0,.17,0,.19.09s-.05.13-.07.2-.18-.05-.2-.1S437.38,502.7,437.41,502.64Z" />
            <path class="outline" d="M357.31,504.93l.44-.67.32.21-.45.75Z" />
            <path class="outline" d="M357.31,504.93l.31.29Z" />
            <path class="outline"
                d="M407.69,503.66c-.13.43-.23.88-.4,1.29-2.25,5.28-4.81,10.38-8.74,14.65a14.42,14.42,0,0,1-2.22,2,1.52,1.52,0,0,1-1.38.12,1.4,1.4,0,0,1-.31-1.33,41.41,41.41,0,0,1,3.12-6.12,93.14,93.14,0,0,1,5.85-7.31,37.63,37.63,0,0,1,3-2.92,6,6,0,0,1,.83-.55ZM397,518.61l-.32.65.31.17.65-.82a33.26,33.26,0,0,0,5.83-8.78,1.9,1.9,0,0,0-1.25.63C400.42,513.16,398.7,515.89,397,518.61Z" />
            <path class="outline" d="M407.41,510.18h0Z" />
            <path class="transparent"
                d="M397,518.61c1.73-2.72,3.45-5.45,5.22-8.15a1.9,1.9,0,0,1,1.25-.63,33.26,33.26,0,0,1-5.83,8.78Z" />
        </g>
    </g>
</svg>
