<svg id="Nizy_classic" data-name="Nizy classic" xmlns="http://www.w3.org/2000/svg" viewBox="0 0 672 960">
    <g id="Classic_MIDI" data-name="Classic MIDI">
        <g id="img_23_img" data-name="img 23 img">
            <path class="outline"
                d="M345.46,538.88a4.61,4.61,0,0,1-4,4,21.15,21.15,0,0,1-17.82-3.23,3.72,3.72,0,0,1-1.6-2.21,2.91,2.91,0,0,0-1.68-2.4q-4.2-2.54-8.43-5.05c-2.56-1.53-3.36-3.3-2.16-6a53.44,53.44,0,0,0,2.51-8.23c1.13-4.16,2.45-8.27,3.74-12.38,1.63-5.19,3.3-10.36,5-15.53a10.59,10.59,0,0,1,.53-1.59c.41-.78,1.28-.95,1.73-.23,2.76,4.39,7.38,5.17,11.84,5.7a62,62,0,0,0,11.23-.14c6.94-.44,13.85-1.17,20.79-1.57a58.11,58.11,0,0,1,7.89.41c6.29.48,12.57,1.27,18.87,1.45,9.59.27,19.18.19,28.77.16A198.81,198.81,0,0,0,448,490c6-.79,12.09-1.2,18.15-1.51A34.28,34.28,0,0,1,475,489c5.29,1.13,10.65,2.14,15.66,4.56l1.72-1.61a12.67,12.67,0,0,1,.85,1.62c2.32,6.36,4.93,12.62,6.57,19.22a48.77,48.77,0,0,0,2.17,6c.86,2.2.67,3.79-1.17,5.06-5.51,3.82-10.88,7.88-17.63,9.46a65.69,65.69,0,0,0-7.91,2.77,8.82,8.82,0,0,0-2.26,1.31c-1.49,1.15-1.59,1.88-.69,3.48.2.34.46.66.63,1,.72,1.5.34,2.73-1.21,3.29a8.83,8.83,0,0,1-3.28.57c-6.22-.32-12.47-.44-18.64-1.21a21,21,0,0,1-12.5-5.57,6.51,6.51,0,0,0-4.8-1.85c-2.07,0-4.15.19-6.22.23-3.2.08-6.39.07-9.59.18-3.43.11-6.86.26-10.27.55a3,3,0,0,0-2.92,1.62c.74.57,1.49,1.11,2.2,1.7,1.95,1.62,1.9,3.26-.25,4.63a17.73,17.73,0,0,1-9.65,2.44c-8.23,0-16.27-1-23.64-5.13a28.29,28.29,0,0,0-11.64-3.43C355.55,539.56,350.62,539.24,345.46,538.88ZM334,497.28v-2.21l-7.3-2.24c-.32.9-.61,1.69-.9,2.49-.75,1.8-1.44,3.63-2.28,5.39-.55,1.15-1.32,2.2-2,3.3.31-1.22.54-2.48,1-3.66,1-2.69,2-5.34,3-8.11l-3-1.77c-.4,1-.73,1.73-1,2.46-1.6,5.19-3.22,10.37-4.77,15.57-1.47,5-3.82,9.66-4.17,14.94a4.77,4.77,0,0,1-.33,1.14c-.66,2.06-.65,2.12,1.19,3.25q4.68,2.89,9.4,5.74a3.1,3.1,0,0,0,.82.16L330,516.36a3.72,3.72,0,0,1-.07,1.94q-1.46,5.31-3,10.6c-.62,2.15-1.33,4.27-1.95,6.42-.52,1.81-.38,2.12,1.31,3.06a20.44,20.44,0,0,0,2.57,1.27,18.16,18.16,0,0,0,12,.64c.74-.21,1.64-.33,1.78-1.35.17-1.25.29-2.51.44-3.77l.14-.93.21-1q1.32-7.82,2.65-15.62a5.48,5.48,0,0,1,.27,1.35c-.22,3.51-.47,7-.73,10.5-.17,2.19-.38,4.38-.58,6.72,4.22.32,8.11.7,12,.9a41.9,41.9,0,0,1,17.2,4.64c7.92,4.06,16.39,5.08,25.14,4,1.66-.2,3.46-.43,4.77-2a17.33,17.33,0,0,0-1.61-1.21c-2.72-1.56-3.61-3.81-3-6.88.88-4.22,1.59-8.47,2.33-12.71a22.73,22.73,0,0,0,.18-2.61,14.7,14.7,0,0,0,.5-1.55c.68-3.3,1.34-6.6,2-9.9l.17.06.17-.05c-.11,1.58-.21,3.15-.32,4.73-.94,7.64-1.89,15.29-2.89,23.4,4.64-2,9.11-1.79,13.57-1.81,4.23,0,8.45-.19,12.68-.29,1.12,0,2.24-.1,3.36,0,2.41.16,4.84.45,6.61,2.34,3.3,3.53,7.68,4.84,12.16,5.67a92.26,92.26,0,0,0,17.66,1,19.9,19.9,0,0,0,2.31-.32c-.48-1.53-.88-2.8-1.27-4.08l-.42-1.9a15.32,15.32,0,0,0-.21-1.64c-.57-2.64-1.17-5.28-1.76-7.92l-2.64-11.59-.25-1.39c-.09-.34-.17-.67-.25-1l-.57-3.79a6.05,6.05,0,0,1,.64,1.27c.87,3.68,2.23,7.21,3,11,.88,4.4,2.65,8.63,4.06,12.92,0,.11.23.17.54.38l2.78-2,5.38-2.28A52.22,52.22,0,0,0,497.2,523c4-2.88,4.07-2.73,2.1-7.39-2.29-5.44-4.53-10.91-6.77-16.37-.54-1.32-.89-2.66-2.58-3.17-1.38-.41-2.58-1.39-4.38-1.74,1.8,4.84,4.92,8.58,6.34,13.16-3.05-4.12-5.82-8.4-8.57-12.69-.5-.79-.75-1.87-2.13-1.33v7a64,64,0,0,1-1.71-6.39,2.48,2.48,0,0,0-2.13-2.24c-2.05-.32-4.09-.7-6.14-.92a28.43,28.43,0,0,0-3.73.1v9.38l-.47,0c-.39-3.12-.77-6.23-1.16-9.42l-10.77.62c.11,1.93.2,3.53.29,5.13l-.47.08c-.24-.8-.48-1.6-.71-2.4s-.48-1.63-.7-2.36a19.77,19.77,0,0,0-9.14,1.35l1.4,4.41-.49.22c-.78-1.05-1.21-2.32-1.89-3.43-.3-.48-.84-1.1-1.3-1.13-.93-.06-1,.82-1.06,1.56a4.89,4.89,0,0,1-.15.72l-.63-2.09c-3.5.56-6.95.27-10.32,1.28.95,7.91,1.88,15.58,2.8,23.26a24.3,24.3,0,0,1-1.11-3.24c-1.09-5.26-2.09-10.54-3.12-15.81a8.53,8.53,0,0,0-1-4.22h-8v7.88h-.28c-.48-2.52-.95-5-1.44-7.61h-3.89c-.26.81-.49,1.48-.7,2.16s-.4,1.34-.6,2l-.21-.06c.1-1.32.2-2.64.33-4.24-6.16-.65-12.11-.15-18.06-.45l-.45,2.24h-.34l-.62-2.31c-2.43-.1-4.78-1-7.12-.3-.14,1.61-.19,3-.39,4.28-.1.67-.61,1.28-.72,1.95-.58,3.52-1.08,7.06-1.66,10.58,0,.16-.47.25-.73.38q.89-7.36,1.76-14.73c.05-.92.1-1.84.17-3-1.19-.07-2.14-.08-3.07-.17a1.9,1.9,0,0,0-2.18,1.4c-.62,1.51-1.45,2.93-2.41,4.81-.28-2.49,1.28-4.27.67-6.42h-3.51c-.31,1.54-.58,2.92-.86,4.29l-.12,0V493a79.29,79.29,0,0,0-9.12,0c-.11.66-.18,1-.21,1.29q-.48,5.24-.95,10.49c0,.49,0,1-.76.64.09-3.5.19-7,.28-10.5V493.1l-12.66,1.39c-.49,2.61-1,5.05-1.42,7.49l-.29,0c.12-2.44.24-4.87.37-7.44l-9.87,1c-.42,1.37-.86,2.78-1.45,4.68,0-1.7.05-2.88,0-4.05,0-.32-.33-.84-.59-.89a1.5,1.5,0,0,0-1.25.28A9.71,9.71,0,0,0,334,497.28Z" />
            <path class="color-base"
                d="M346.12,517.6q-1.32,7.8-2.65,15.62c-.66.22-1,.51-.21,1,0,.31-.09.62-.14.93-5.49,2-12.28,1.41-15.1-1.22,1-4.86,2.05-9.67,3-14.49.43-2.17.76-4.37,1-6.57a2,2,0,0,0-.79-1.5c-.25-.17-1,.26-1.41.52a1.74,1.74,0,0,0-.55.76c-1.79,3.65-3.55,7.31-5.34,11-.64,1.32-1,2.82-2.32,3.88-1.81-1.55-3.59-3-5.24-4.56a2,2,0,0,1-.29-1.69,15.27,15.27,0,0,1,1.24-2.58,48.56,48.56,0,0,0,4.36-11.59c.09-.37-.15-.8-.23-1.21l.15-1.91,0,0c.66-1.1,1.43-2.15,2-3.3.84-1.76,1.53-3.59,2.28-5.39,2.81.82,5.65,1.55,8,3.7l.3-1.18c.83.33.81,1,.89,1.78.16,1.56.42,3.1.65,4.78a2.28,2.28,0,0,0,2.43-2c.31-3.12,2.29-3.94,4.95-4,1.09,0,2.17,0,3.55,0a20.75,20.75,0,0,0-.28,8.46,2,2,0,0,0,2.09-1.8c.55-2.16,1.11-4.32,1.78-6.44.19-.62.64-1.49,1.14-1.63a39.88,39.88,0,0,1,11-2c-.09,3.5-.19,7-.28,10.5-.13.1-.33.18-.36.31-.81,3.25.09,6.46.35,9.69,0,.2.63.52.92.48a1.12,1.12,0,0,0,.75-.72,32.28,32.28,0,0,0,.54-3.77c.21-3,.33-6,.52-9,.13-2.06.3-4.11.47-6.17.12-1.49.7-2,2.18-1.73a25.26,25.26,0,0,1,2.65.76c0,1.66,0,3.24,0,4.82,0,.54.1,1.41.39,1.53,1.63.67,1.69,2.14,2,3.49a1.49,1.49,0,0,0,1.44,1.33,6.89,6.89,0,0,1,1.07.25c.92,1-.9,2.44,1.19,3.08a11.39,11.39,0,0,0,1.43-2.29c1-3,1.84-6.09,2.75-9.13.6-2,.63-2,2.64-1.6a13.56,13.56,0,0,0,1.43.13q-.88,7.36-1.76,14.73a22,22,0,0,0-.93,8.7,2.82,2.82,0,0,0,2.73-2.21c.51-1.51,1-3,1.43-4.56q1.94-7.26,3.8-14.55c.18-.73.24-1.5,1.16-1.57,1.07-.08,1.25.8,1.44,1.58.28,1.16.6,2.31.8,3.48a2.1,2.1,0,0,0,1.56,1.94c2.49-1.42.56-4.06,1.79-6.11l14.77,1.61a5.46,5.46,0,0,1,0,1.47c-.26.82-.49,1.65.51,2s1.46-.41,1.9-1.08c.25-.4.37-.88.59-1.31a5,5,0,0,1,.7-1.21c.73-.77,1.44-.65,1.89.28a4.81,4.81,0,0,1,.32,1.14c.49,2.57,1,5.15,1.48,7.72a3.14,3.14,0,0,0,2.23,2.74c2.22-3.89,1.25-8.23,1.69-12.4h6c1,5.27,2,10.55,3.12,15.81a24.3,24.3,0,0,0,1.11,3.24,2.15,2.15,0,0,0,2.3-.64c-.09-6.31-1.51-12.2-1.63-18.51,2.67-.2,5.05-.25,7.38-.62a1.76,1.76,0,0,1,2.19,1.24c1,2.17,2,4.38,3.13,6.47a12.69,12.69,0,0,0,2.39,2.94c1,1,2,.56,2.12-.82a19.33,19.33,0,0,0-.19-3.8c-.28-2.18-.67-4.35-1-6.66h3.7c.34,1.87.64,3.65,1,5.43a19.8,19.8,0,0,0,.81,3.46,1.77,1.77,0,0,0,1.48.87c.39-.05.89-.83,1-1.35a20.14,20.14,0,0,0,.06-3.11c0-1.89,0-3.78,0-5.91,2.49,0,4.63,0,6.77,0,.84,0,1.24.53,1.41,1.35.25,1.17.6,2.31.9,3.46a2,2,0,0,0,1.76,1.75c1.51-1.88.86-4.26,1.44-6.58,2.45,0,4.83,0,7.2,0s2.4.17,2.66,2.59c.34,3.23.92,6.43,1.44,9.64.15.88.47,1.8,1.66,1.63a1.69,1.69,0,0,0,1.64-1.95c-.07-1.52,0-3,0-4.56,0-.66.14-1.32.29-2.59a18.67,18.67,0,0,1,1.68,1.61c2.18,2.81,3.92,6,6.94,8.1a1.8,1.8,0,0,1,.57.76c1,2.33,2,4.68,2.94,7a24.2,24.2,0,0,1-7.57,6.29c-2.95,1.71-6.09,3.1-9.17,4.57-.57.27-1,.48-.86,1.19l-5.38,2.28c-.26-.84-.5-1.68-.79-2.51-2.05-5.86-4.08-11.73-6.17-17.58a53.11,53.11,0,0,0-2.2-5.29,1.8,1.8,0,0,0-1.42-.89,1.92,1.92,0,0,0-1.24,1.24c-.09.42.52,1,.82,1.48l.57,3.79c-.82.55-.47.83.25,1,.08.46.16.92.25,1.39-.18.47-.59,1-.51,1.42q1.86,9,3.88,17.92c.15.68.13,1.7,1.24,1.81l.42,1.9a19.67,19.67,0,0,1-3.28.48,95.87,95.87,0,0,1-9.75-.5,44.59,44.59,0,0,1-12.22-3c-6.23-2.71-12.62-4.85-19.55-4.67-.31,0-.62-.12-.94-.13-1.09,0-2.18-.09-3.27,0-2.61.16-5.21.49-7.82.56a49.94,49.94,0,0,1-5.45-.4,11.57,11.57,0,0,1-1.48-.34c0-1-.05-1.83,0-2.7.12-1.66.3-3.31.47-5,.26-2.52.55-5,.79-7.55.12-1.31-.22-2.37-1.7-2.7.11-1.58.21-3.15.32-4.73.62-1.14.62-1.14-.34-2.16v2.15c-.66,3.3-1.32,6.6-2,9.9a14.7,14.7,0,0,1-.5,1.55c-.45.6-1.13,1.13-1.32,1.8-1.19,4.29-2.27,8.6-3.38,12.91-.55,2.13-1.08,4.27-1.61,6.42a42,42,0,0,1-4.29.48,37.3,37.3,0,0,1-12.33-2.44c-3.53-1.2-6.91-2.82-10.65-3.4a18.17,18.17,0,0,1-3.44-1,20,20,0,0,0-8-1.31c-2.51.13-5,.3-7.74.47,0-.82-.05-1.76,0-2.7.11-1.5.38-3,.42-4.5.07-2.63.09-5.27,0-7.9-.07-2.38-.28-4.76-.52-7.13,0-.43-.49-.81-.95-1.5A18.51,18.51,0,0,0,346.12,517.6Z" />
            <path class="color-shadow"
                d="M479.11,531.52c-.13-.71.29-.92.86-1.19,3.08-1.47,6.22-2.86,9.17-4.57a24.2,24.2,0,0,0,7.57-6.29c-1-2.31-1.95-4.66-2.94-7a1.8,1.8,0,0,0-.57-.76c-3-2.1-4.76-5.29-6.94-8.1a18.67,18.67,0,0,0-1.68-1.61c-.15,1.27-.28,1.93-.29,2.59,0,1.52-.08,3,0,4.56a1.69,1.69,0,0,1-1.64,1.95c-1.19.17-1.51-.75-1.66-1.63-.52-3.21-1.1-6.41-1.44-9.64-.26-2.42-.23-2.56-2.66-2.59s-4.75,0-7.2,0c-.58,2.32.07,4.7-1.44,6.58a2,2,0,0,1-1.76-1.75c-.3-1.15-.65-2.29-.9-3.46-.17-.82-.57-1.34-1.41-1.35-2.14,0-4.28,0-6.77,0,0,2.13,0,4,0,5.91a20.14,20.14,0,0,1-.06,3.11c-.08.52-.58,1.3-1,1.35a1.77,1.77,0,0,1-1.48-.87,19.8,19.8,0,0,1-.81-3.46c-.34-1.78-.64-3.56-1-5.43h-3.7c.37,2.31.76,4.48,1,6.66a19.33,19.33,0,0,1,.19,3.8c-.08,1.38-1.11,1.78-2.12.82a12.69,12.69,0,0,1-2.39-2.94c-1.16-2.09-2.11-4.3-3.13-6.47a1.76,1.76,0,0,0-2.19-1.24c-2.33.37-4.71.42-7.38.62.12,6.31,1.54,12.2,1.63,18.51a2.15,2.15,0,0,1-2.3.64c-.92-7.68-1.85-15.35-2.8-23.26,3.37-1,6.82-.72,10.32-1.28l.63,2.09a4.89,4.89,0,0,0,.15-.72c.06-.74.13-1.62,1.06-1.56.46,0,1,.65,1.3,1.13.68,1.11,1.11,2.38,1.89,3.43l.49-.22-1.4-4.41a19.77,19.77,0,0,1,9.14-1.35c.22.73.46,1.55.7,2.36s.47,1.6.71,2.4l.47-.08c-.09-1.6-.18-3.2-.29-5.13l10.77-.62c.39,3.19.77,6.3,1.16,9.42l.47,0v-9.38a28.43,28.43,0,0,1,3.73-.1c2,.22,4.09.6,6.14.92a2.48,2.48,0,0,1,2.13,2.24,64,64,0,0,0,1.71,6.39v-7c1.38-.54,1.63.54,2.13,1.33,2.75,4.29,5.52,8.57,8.57,12.69-1.42-4.58-4.54-8.32-6.34-13.16,1.8.35,3,1.33,4.38,1.74,1.69.51,2,1.85,2.58,3.17,2.24,5.46,4.48,10.93,6.77,16.37,2,4.66,1.91,4.51-2.1,7.39A52.22,52.22,0,0,1,479.11,531.52Z" />
            <path class="color-shadow"
                d="M321.44,505.89c.08.41.32.84.23,1.21a48.56,48.56,0,0,1-4.36,11.59,15.27,15.27,0,0,0-1.24,2.58,2,2,0,0,0,.29,1.69c1.65,1.57,3.43,3,5.24,4.56,1.3-1.06,1.68-2.56,2.32-3.88,1.79-3.66,3.55-7.32,5.34-11a1.74,1.74,0,0,1,.55-.76c.44-.26,1.16-.69,1.41-.52a2,2,0,0,1,.79,1.5c-.23,2.2-.56,4.4-1,6.57-.95,4.82-2,9.63-3,14.49,2.82,2.63,9.61,3.21,15.1,1.22-.15,1.26-.27,2.52-.44,3.77-.14,1-1,1.14-1.78,1.35a18.16,18.16,0,0,1-12-.64,20.44,20.44,0,0,1-2.57-1.27c-1.69-.94-1.83-1.25-1.31-3.06.62-2.15,1.33-4.27,1.95-6.42q1.51-5.29,3-10.6a3.72,3.72,0,0,0,.07-1.94l-6.29,17.37a3.1,3.1,0,0,1-.82-.16q-4.71-2.85-9.4-5.74c-1.84-1.13-1.85-1.19-1.19-3.25a4.77,4.77,0,0,0,.33-1.14c.35-5.28,2.7-10,4.17-14.94,1.55-5.2,3.17-10.38,4.77-15.57.23-.73.56-1.43,1-2.46l3,1.77c-1.05,2.77-2.09,5.42-3,8.11-.42,1.18-.65,2.44-1,3.66l0,0c-.33.8-.65,1.61-1,2.41-.14.34-.28.67-.43,1l.35.09.05-1.12Z" />
            <path class="color-shadow"
                d="M346.12,517.6a18.51,18.51,0,0,1,2.25-7.09c.46.69.91,1.07.95,1.5.24,2.37.45,4.75.52,7.13.09,2.63.07,5.27,0,7.9,0,1.51-.31,3-.42,4.5-.06.94,0,1.88,0,2.7,2.73-.17,5.23-.34,7.74-.47a20,20,0,0,1,8,1.31,18.17,18.17,0,0,0,3.44,1c3.74.58,7.12,2.2,10.65,3.4a37.3,37.3,0,0,0,12.33,2.44,42,42,0,0,0,4.29-.48c.53-2.15,1.06-4.29,1.61-6.42,1.11-4.31,2.19-8.62,3.38-12.91.19-.67.87-1.2,1.32-1.8a22.73,22.73,0,0,1-.18,2.61c-.74,4.24-1.45,8.49-2.33,12.71-.64,3.07.25,5.32,3,6.88a17.33,17.33,0,0,1,1.61,1.21c-1.31,1.57-3.11,1.8-4.77,2-8.75,1.1-17.22.08-25.14-4a41.9,41.9,0,0,0-17.2-4.64c-3.89-.2-7.78-.58-12-.9.2-2.34.41-4.53.58-6.72.26-3.49.51-7,.73-10.5A5.48,5.48,0,0,0,346.12,517.6Z" />
            <path class="color-shadow"
                d="M428.5,499.22h-6c-.44,4.17.53,8.51-1.69,12.4a3.14,3.14,0,0,1-2.23-2.74c-.52-2.57-1-5.15-1.48-7.72a4.81,4.81,0,0,0-.32-1.14c-.45-.93-1.16-1-1.89-.28a5,5,0,0,0-.7,1.21c-.22.43-.34.91-.59,1.31-.44.67-1,1.44-1.9,1.08s-.77-1.21-.51-2a5.46,5.46,0,0,0,0-1.47l-14.77-1.61c-1.23,2,.7,4.69-1.79,6.11a2.1,2.1,0,0,1-1.56-1.94c-.2-1.17-.52-2.32-.8-3.48-.19-.78-.37-1.66-1.44-1.58-.92.07-1,.84-1.16,1.57q-1.86,7.29-3.8,14.55c-.41,1.54-.92,3-1.43,4.56a2.82,2.82,0,0,1-2.73,2.21,22,22,0,0,1,.93-8.7c.26-.13.71-.22.73-.38.58-3.52,1.08-7.06,1.66-10.58.11-.67.62-1.28.72-1.95.2-1.32.25-2.67.39-4.28,2.34-.67,4.69.2,7.12.3l.62,2.31h.34l.45-2.24c5.95.3,11.9-.2,18.06.45-.13,1.6-.23,2.92-.33,4.24l.21.06c.2-.68.39-1.35.6-2s.44-1.35.7-2.16h3.89c.49,2.57,1,5.09,1.44,7.61h.28V495h8A8.53,8.53,0,0,1,428.5,499.22Z" />
            <path class="color-shadow"
                d="M404.64,513.57c1.48.33,1.82,1.39,1.7,2.7-.24,2.52-.53,5-.79,7.55-.17,1.66-.35,3.31-.47,5-.06.87,0,1.74,0,2.7a11.57,11.57,0,0,0,1.48.34,49.94,49.94,0,0,0,5.45.4c2.61-.07,5.21-.4,7.82-.56,1.09-.07,2.18,0,3.27,0,.32,0,.63.14.94.13,6.93-.18,13.32,2,19.55,4.67a44.59,44.59,0,0,0,12.22,3,95.87,95.87,0,0,0,9.75.5,19.67,19.67,0,0,0,3.28-.48c.39,1.28.79,2.55,1.27,4.08a19.9,19.9,0,0,1-2.31.32,92.26,92.26,0,0,1-17.66-1c-4.48-.83-8.86-2.14-12.16-5.67-1.77-1.89-4.2-2.18-6.61-2.34-1.12-.07-2.24,0-3.36,0-4.23.1-8.45.27-12.68.29-4.46,0-8.93-.16-13.57,1.81C402.75,528.86,403.7,521.21,404.64,513.57Z" />
            <path class="color-shadow"
                d="M384.4,496.8a13.56,13.56,0,0,1-1.43-.13c-2-.37-2-.38-2.64,1.6-.91,3-1.76,6.11-2.75,9.13a11.39,11.39,0,0,1-1.43,2.29c-2.09-.64-.27-2.09-1.19-3.08a6.89,6.89,0,0,0-1.07-.25,1.49,1.49,0,0,1-1.44-1.33c-.29-1.35-.35-2.82-2-3.49-.29-.12-.37-1-.39-1.53-.05-1.58,0-3.16,0-4.82a25.26,25.26,0,0,0-2.65-.76c-1.48-.26-2.06.24-2.18,1.73-.17,2.06-.34,4.11-.47,6.17-.19,3-.31,6-.52,9a32.28,32.28,0,0,1-.54,3.77,1.12,1.12,0,0,1-.75.72c-.29,0-.9-.28-.92-.48-.26-3.23-1.16-6.44-.35-9.69,0-.13.23-.21.36-.31.76.39.72-.15.76-.64q.46-5.25.95-10.49c0-.32.1-.63.21-1.29a79.29,79.29,0,0,1,9.12,0v4.75l.12,0c.28-1.37.55-2.75.86-4.29h3.51c.61,2.15-.95,3.93-.67,6.42,1-1.88,1.79-3.3,2.41-4.81a1.9,1.9,0,0,1,2.18-1.4c.93.09,1.88.1,3.07.17C384.5,495,384.45,495.88,384.4,496.8Zm-7.78,3.83-.07-.2a.58.58,0,0,0-.11.18.6.6,0,0,0,.07.2Z" />
            <path class="color-shadow"
                d="M362.33,494.88a39.88,39.88,0,0,0-11,2c-.5.14-1,1-1.14,1.63-.67,2.12-1.23,4.28-1.78,6.44a2,2,0,0,1-2.09,1.8,20.75,20.75,0,0,1,.28-8.46c-1.38,0-2.46,0-3.55,0-2.66.09-4.64.91-4.95,4a2.28,2.28,0,0,1-2.43,2c-.23-1.68-.49-3.22-.65-4.78-.08-.74-.06-1.45-.89-1.78l-.17-.18a1.25,1.25,0,0,1,.08-.42l0,0a9.71,9.71,0,0,1,1.12-1.8,1.5,1.5,0,0,1,1.25-.28c.26.05.57.57.59.89.07,1.17,0,2.35,0,4.05.59-1.9,1-3.31,1.45-4.68l9.87-1c-.13,2.57-.25,5-.37,7.44l.29,0c.46-2.44.93-4.88,1.42-7.49l12.66-1.39Z" />
            <path class="color-shadow"
                d="M462.73,510.25c-.3-.5-.91-1.06-.82-1.48a1.92,1.92,0,0,1,1.24-1.24,1.8,1.8,0,0,1,1.42.89,53.11,53.11,0,0,1,2.2,5.29c2.09,5.85,4.12,11.72,6.17,17.58.29.83.53,1.67.79,2.51l-2.78,2c-.31-.21-.51-.27-.54-.38-1.41-4.29-3.18-8.52-4.06-12.92-.75-3.75-2.11-7.28-3-11A6.05,6.05,0,0,0,462.73,510.25Z" />
            <path class="color-shadow"
                d="M334.15,497.84l-.3,1.18c-2.37-2.15-5.21-2.88-8-3.7.29-.8.58-1.59.9-2.49l7.3,2.24v2.21l0,0c-.05,0-.16.08-.16.11a1.09,1.09,0,0,0,.08.31Z" />
            <path class="color-shadow"
                d="M468.41,537.59c-1.11-.11-1.09-1.13-1.24-1.81q-2-8.94-3.88-17.92c-.08-.42.33-1,.51-1.42L466.44,528c.59,2.64,1.19,5.28,1.76,7.92A15.32,15.32,0,0,1,468.41,537.59Z" />
            <path class="color-shadow" d="M404.62,508.83v-2.15c1,1,1,1,.34,2.16l-.17.05Z" />
            <path class="color-shadow"
                d="M463.55,515.05c-.72-.18-1.07-.46-.25-1C463.38,514.38,463.46,514.71,463.55,515.05Z" />
            <path class="color-shadow" d="M343.26,534.24c-.76-.51-.45-.8.21-1Z" />
            <path class="outline" d="M320.61,506.39c.33-.8.65-1.61,1-2.41l-.15,1.91-.86.48Z" />
            <path class="outline" d="M320.58,506.37l-.05,1.12-.35-.09c.15-.34.29-.67.43-1Z" />
            <path class="outline" d="M376.62,500.63l-.11.18a.6.6,0,0,1-.07-.2.58.58,0,0,1,.11-.18Z" />
            <path class="outline" d="M334,497.66a1.09,1.09,0,0,1-.08-.31s.11-.07.16-.11A1.25,1.25,0,0,0,334,497.66Z" />
        </g>
    </g>
</svg>
