<svg id="Nizy_classic" data-name="Nizy classic" xmlns="http://www.w3.org/2000/svg" viewBox="0 0 672 960">
    <g id="Classic_MIDI" data-name="Classic MIDI">
        <g id="img_22_img" data-name="img 22 img">
            <path class="color-base"
                d="M338.16,487.47l3.61.41,11.92,2.2,4.82.56,1.11-.09c1.25.19,2.49.37,3.72.57l1.83-.07,3.76,0,10.51,0,4.43-.57c2-.35,4-1.15,6.11-.4l4.23-.36.2,0,.2,0,3.43-.6.87.06,4.41-.48c.78,0,1.57.06,2.37.09l8.55-.65,3.53.22,5.76-.65c.62.06,1.26.1,1.91.15l4.09-.62,1.08.08,4.89-.63,1.31.09,5.26-.18v0c.83-.16,1.65-.36,2.48-.46,1.62-.19,3.24-.32,4.85-.47l2.3.19,6-.51h.46l5.05-.12,2.45.13,3.88-.69c1.89,0,3.82,0,5.74.06h4.22c.18,2.3.33,4.6.53,6.89.14,1.58.37,3.15.53,4.73q.45,4.38.86,8.77a9.45,9.45,0,0,1,0,1.19,1.38,1.38,0,0,1-1.3,1.46c-5.31.71-10.44,2.28-16,1.6-6.15-.74-12.42-.43-18.64-.63-3.5-.11-7-.32-10.49-.49-.24,0-.48-.09-.71-.09-4.07-.11-8.13-.36-12.19-.26-3.56.08-7.11.65-10.68.81-1.73.08-3.47-.36-5.21-.42-7.74-.26-15.47-.08-23.22-.37-13.24-.48-26.51.09-39.76-.62-2.06-.11-4.12-.29-6.17-.56a19,19,0,0,1-3.47-.83,2.88,2.88,0,0,1-2.36-3.36c.06-1.35.33-2.68.46-4,.2-2.14.3-4.28.56-6.41.4-3.31,1-6.6,1.31-9.91a10.54,10.54,0,0,0-.48-2.77c.32-.7.65-1.39,1-2.08.71-.3.95,0,1.05.71.12.91.38,1.81.59,2.71l0,0,.53,1.23-.09-.08a18,18,0,0,1,.81,2.91,3.71,3.71,0,0,0,1.33,2.64Z" />
            <path class="color-shadow"
                d="M333,479.47a10.54,10.54,0,0,1,.48,2.77c-.35,3.31-.91,6.6-1.31,9.91-.26,2.13-.36,4.27-.56,6.41-.13,1.34-.4,2.67-.46,4a2.88,2.88,0,0,0,2.36,3.36,19,19,0,0,0,3.47.83c2.05.27,4.11.45,6.17.56,13.25.71,26.52.14,39.76.62,7.75.29,15.48.11,23.22.37,1.74.06,3.48.5,5.21.42,3.57-.16,7.12-.73,10.68-.81,4.06-.1,8.12.15,12.19.26.23,0,.47.08.71.09,3.49.17,7,.38,10.49.49,6.22.2,12.49-.11,18.64.63,5.57.68,10.7-.89,16-1.6a1.38,1.38,0,0,0,1.3-1.46,9.45,9.45,0,0,0,0-1.19q-.4-4.39-.86-8.77c-.16-1.58-.39-3.15-.53-4.73-.2-2.29-.35-4.59-.53-6.89l.23-.48c.43-.08,1.15.64,1.22-.44l.27-.53c1.35.23,2.53.58,3.21,2.05,2.4,5.16,2.84,10.7,3.2,16.24a45.93,45.93,0,0,1-.43,6.17c-.12,1.66-.34,2-2,2.45s-3.72.55-5.47,1.17c-6.29,2.22-12.82,2.55-19.38,2.65-1.81,0-3.63-.3-5.45-.45-2.45-.19-4.91-.33-7.36-.55-3.07-.27-6.14-.79-9.22-.85-6.78-.13-13.57-.06-20.35,0a12.07,12.07,0,0,0-2.27.42l-19.23,0H394.5a42.22,42.22,0,0,0-5.09-.85c-4.69-.26-9.39-.52-14.08-.48-6,0-11.94-.27-17.93.35a98.09,98.09,0,0,1-13.17,0,33,33,0,0,1-7.29-1,63.24,63.24,0,0,1-8.52-3.08,5.37,5.37,0,0,1-3.5-5.7c.15-1.82.27-3.64.48-5.45.42-3.54.9-7.08,1.34-10.61.36-2.91.76-5.82,1-8.74a9.64,9.64,0,0,0-.46-2.5l1.25-.71c-.11-1.21-.23-2.41,1.36-2.77l0,0c.33.26.91.48,1,.8.34,1.9.56,3.82.84,5.74.12.78-.29,1.83,1,2Z" />
            <path class="outline"
                d="M396.42,512.55l19.23,0a4.68,4.68,0,0,0,1.1.35c7.09.35,14.17.65,21.25,1,6.05.3,12.09.75,18.14.94a179.52,179.52,0,0,0,25.08-.55c2-.22,4.11-.16,6.17-.29,1.76-.12,2.25-.5,2.65-2.19s.72-3.43,1-5.16c.79-5.55.23-11.1-.07-16.65.43-1.38-.61-3,.88-4.45a4.87,4.87,0,0,1,.56,1,57.53,57.53,0,0,1,.07,26.36,8.43,8.43,0,0,1-.64,2,2.45,2.45,0,0,1-2.45,1.57c-1.44-.08-2.88,0-4.32,0-3.75.07-7.5.24-11.25.23q-7.67,0-15.32-.25c-3.75-.11-7.5-.35-11.25-.56l-25.11-1.42a290.48,290.48,0,0,0-29.95-.11c-10.53.48-21.07,1.06-31.61,1.3-7.58.17-15.18,0-22.77-.31a30.68,30.68,0,0,1-11.4-2.54,19.06,19.06,0,0,1-2.52-1.36c-1.74-1.14-3.41-2.37-5.14-3.51a3.29,3.29,0,0,1-1.86-3.1c.35-4.7.5-9.43,1.11-14.09.48-3.63,1.48-7.19,2.32-10.76,1.08-4.57,2.24-9.13,3.43-13.94a5.92,5.92,0,0,1-.05,4.22c-.59,1.89.92,2.82,1.58,4.08.45.85,2.1.44,3.3-.62l-1.24.72-3.75-.17c-.45,2.63-.78,5.16-1.33,7.65a107.46,107.46,0,0,0-2.15,21.38,3.22,3.22,0,0,0,.6,2.17,33.67,33.67,0,0,0,5.16,4.23c4,2.46,8.48,3.25,13,3.6s9.24.45,13.86.47c4.95,0,9.89-.16,14.83-.28q12.45-.33,24.88-.7a16.15,16.15,0,0,0,2.06-.36h1.92Z" />
            <path class="color-shadow-dark"
                d="M490.94,490c.3,5.55.86,11.1.07,16.65-.25,1.73-.57,3.46-1,5.16s-.89,2.07-2.65,2.19c-2.06.13-4.13.07-6.17.29a179.52,179.52,0,0,1-25.08.55c-6.05-.19-12.09-.64-18.14-.94-7.08-.35-14.16-.65-21.25-1a4.68,4.68,0,0,1-1.1-.35,12.07,12.07,0,0,1,2.27-.42c6.78,0,13.57-.11,20.35,0,3.08.06,6.15.58,9.22.85,2.45.22,4.91.36,7.36.55,1.82.15,3.64.47,5.45.45,6.56-.1,13.09-.43,19.38-2.65,1.75-.62,3.66-.72,5.47-1.17s1.9-.79,2-2.45a45.93,45.93,0,0,0,.43-6.17c-.36-5.54-.8-11.08-3.2-16.24-.68-1.47-1.86-1.82-3.21-2.05l1.94-.49c.36-1.09.8-2.35,1.19-3.62.24-.75,1.58-.55,1.37-1.78a7.37,7.37,0,0,1,.44-2.35c1.51.4,1.42,1.54,1.64,2.5q1.34,5.69,2.69,11.38A7,7,0,0,0,490.94,490Z" />
            <path class="outline"
                d="M353.69,490.08l-11.92-2.2-.21-.1-.09.36c1.38.34,2.75.75,4.15,1,2.65.44,5.32.77,8,1.14.13,0,.29-.09.43-.14Z" />
            <path class="outline" d="M379.44,491.06l-10.51,0-.17.07s.08.06.12.06l10.45,0a.5.5,0,0,0,.21-.1l-.08.22Z" />
            <path class="outline"
                d="M333,479.47l-.26.2a12.2,12.2,0,0,0,.46-1.75c.13-1.1.16-2.2.2-2.83.14.22.47.75.84,1.26a1.18,1.18,0,0,0,.54-.31,1,1,0,0,0,.09-.49c-.27.54-.58,1.17-.89,1.82S333.35,478.77,333,479.47Z" />
            <path class="outline"
                d="M390,490.09c-2.1-.75-4.1.05-6.11.4a1.32,1.32,0,0,0-.4,0c-.06,0-.1.13-.15.2a21,21,0,0,0,2.38,0c1.34-.1,2.67-.31,4-.47l.23,0S390,490.13,390,490.09Z" />
            <path class="outline"
                d="M475.25,484.76c-1.92,0-3.85,0-5.74-.06-.05,0-.16,0-.2,0s0,.15,0,.23l5.91,0c.06,0,.13-.06.2-.09Z" />
            <path class="outline"
                d="M417.77,488.36l-3.53-.22-.37,0c.14.05.27.16.41.16C415.44,488.36,416.61,488.36,417.77,488.36Z" />
            <path class="outline" d="M465.63,485.39l-2.45-.13c-.06.06-.14.11-.21.17l2.55-.05c.05,0,.09-.11.14-.17Z" />
            <path class="outline" d="M451.7,485.88l-2.3-.19-.36.16c.79,0,1.57,0,2.36,0,.13,0,.27-.12.4-.19Z" />
            <path class="outline"
                d="M405.69,488.79c-.8,0-1.59-.05-2.37-.09,0,.06-.05.13-.08.2l-.05-.22,2.33.05c.06,0,.13-.08.19-.13Z" />
            <path class="outline" d="M365.17,491.05l-1.83.07c.81,0,1.6.07,2.8.14Z" />
            <path class="outline" d="M436.81,486.78l-1.31-.09a2.71,2.71,0,0,0-.37.05c-.05,0-.08.05-.13.08l-.05-.07Z" />
            <path class="outline" d="M425.44,487.86c-.65-.05-1.29-.09-1.91-.15a1,1,0,0,1-.08.2l-.1-.2Z" />
            <path class="outline" d="M359.62,490.55l-1.11.09h1.91Z" />
            <path class="outline" d="M430.61,487.32l-1.08-.08-.26.06h1.06a3.91,3.91,0,0,0,.48-.05Z" />
            <path class="outline" d="M398.91,489.18l-.87-.06c-.16,0-.33.09-.5.12s-.1-.07-.09-.06Z" />
            <path class="outline" d="M458.13,485.38H458a1.85,1.85,0,0,1,.23,0s.08.07.12.11Z" />
            <path class="outline" d="M394.61,489.72l-.2,0-.2,0-.22,0c.05,0,.1-.09.15-.09a3.77,3.77,0,0,1,.47,0Z" />
            <path class="outline" d="M336,481.94l.09.08.17-.09h-.07Z" />
            <path class="color-shadow-dark" d="M480.92,483.84c-.07,1.08-.79.36-1.22.44Z" />
            <path class="outline" d="M442.07,486.62v0Z" />
            <path class="outline" d="M338.16,487.47l0,0,.09-.16Z" />
            <path class="outline" d="M329.94,471.12l0,0,.08.05Z" />
            <path class="outline" d="M335.6,480.79l0,0Z" />
            <path class="color-shadow-dark"
                d="M394.5,512.56a16.15,16.15,0,0,1-2.06.36q-12.44.38-24.88.7c-4.94.12-9.88.3-14.83.28-4.62,0-9.26-.11-13.86-.47s-9.07-1.14-13-3.6a33.67,33.67,0,0,1-5.16-4.23,3.22,3.22,0,0,1-.6-2.17,107.46,107.46,0,0,1,2.15-21.38c.55-2.49.88-5,1.33-7.65l3.75.17a10.05,10.05,0,0,1,.45,2.5c-.26,2.92-.66,5.83-1,8.74-.44,3.53-.92,7.07-1.34,10.61-.21,1.81-.33,3.63-.48,5.45a5.37,5.37,0,0,0,3.5,5.7,63.24,63.24,0,0,0,8.52,3.08,33,33,0,0,0,7.29,1,98.09,98.09,0,0,0,13.17,0c6-.62,12-.3,17.93-.35,4.69,0,9.39.22,14.08.48A42.22,42.22,0,0,1,394.5,512.56Z" />
            <path class="color-shadow-dark" d="M396.42,512.55h0Z" />
        </g>
    </g>
</svg>
