<svg id="Nizy_classic" data-name="Nizy classic" xmlns="http://www.w3.org/2000/svg" viewBox="0 0 672 960">
    <g id="Classic_MIDI" data-name="Classic MIDI">
        <g id="img_21_img" data-name="img 21 img">
            <path class="color-base"
                d="M435.32,529.2a2.14,2.14,0,0,1-.69.32q-6.53.16-13.06.28c-3.77.08-7.55.17-11.33.19q-12.28,0-24.56,0c-3.22,0-6.45-.21-9.67-.16-6.47.1-12.94.28-19.41.48a101.87,101.87,0,0,1-17.28-1c-2.36-.33-4.67-1-7-1.53-1.75-.38-3.52-.69-5.26-1.13a20.12,20.12,0,0,1-2.91-1,3,3,0,0,1-1.94-2.55c-.52-4.39-1-8.79-1.49-13.18-.17-1.46-.33-2.93-.54-4.38,0-.15-.35-.25-.54-.37v-5.28a4.33,4.33,0,0,0,.55-.84c.18-.5.27-1,.4-1.56,0,.35.06.7.07,1.05,0,2.39,0,4.78.06,7.16.06,1.55.33,3.09.52,4.63.53,4.36,1,8.72,1.64,13.06a2.42,2.42,0,0,0,1,1.5,11.87,11.87,0,0,0,3,1.23c2.47.65,5,1.12,7.45,1.78,5.89,1.57,11.94,1.75,18,1.87,6.35.13,12.7-.29,19.05-.36,5.95-.06,11.91.05,17.86.05q8.39,0,16.77-.09c8.23-.08,16.45-.21,24.68-.29C432.21,529.08,433.77,529.16,435.32,529.2Z" />
            <path class="transparent"
                d="M320.59,497.51c-.13.52-.22,1.06-.4,1.56a4.33,4.33,0,0,1-.55.84v-9.12l.74,0,0,.76.21,5.26Z" />
            <path class="color-base" d="M320.38,490.75l-.74,0v-2.4h.71Z" />
            <path class="color-base"
                d="M319.64,485.51h1c-.07.8-.13,1.59-.19,2.39a4.89,4.89,0,0,0-.21-1.09c-.09-.23-.36-.39-.56-.58Z" />
            <path class="transparent" d="M319.64,486.23c.2.19.47.35.56.58a4.89,4.89,0,0,1,.21,1.09l-.06.49h-.71Z" />
            <path class="outline"
                d="M320.35,488.39l.06-.49c.06-.8.12-1.59.19-2.39l1,.07,1.63,1.16.42.2,2.19,1,.2.15.51.34.46.21.82.18,1,.09,1.91.15,1,.09,2.65.35.45,0,2.16-.16,1.17-.15.51-.07.72-.11,1.2-.35,1.69-.11.71-.14.72-.13.72-.15.47-.09.49-.13.48-.09.49-.13.49-.09,1.9-.17.94-.14.51-.09.48-.09.71-.14.71-.15.49-.1.7-.14.5-.12.48-.09.72-.16.47-.1.5-.11a171,171,0,0,1,25.23-2.92,37,37,0,0,1,5.86.18c6.47.86,12.94.35,19.41.35,3.32,0,6.64.19,10,.11,7.07-.19,14.13-.62,21.2-.73,5.31-.08,10.62.22,15.93.3,3.8.06,7.59,0,11.38,0l1.18-.09,5.78-.16h4.06l1.61.13.79.13.65.12.55.13.41.09.55.15.41.09.55.14.42.09.54.16.41.1.55.14.41.08c1.45.51,2.89,1.05,4.36,1.5a8,8,0,0,0,1.71.15H491l2,.68,0,.81-.2.86-.55,1.64v1.15l.18,2.21v4c0,1,0,2-.05,3l.11.62.15,1.52.09,1.12c0,.2.07.4.11.61l.13.59.15.57.1.39.12.58.36,1.34.13.57.09.62.13.85.12,1.12.17,2.18.3,1.37.14.6c.19.84.39,1.68.58,2.52,0,.21.07.42.11.63l.45,2.13.3.72c-.06.82-.07,1.66-1.09,1.92l-.7.2c-1.7.22-3.4.42-5.09.68-.81.12-1.61.33-2.41.5l-.83.12-3.73.36-.85.1c-1.84.19-3.68.32-5.5.59-2.38.36-4.73.82-7.1,1.24l-.67.06-4.09.19-1.08.11-1.36.13-.43,0-1.7,0-.52,0-1.23.21-1.47,0-5.68.35-1.78.11-1.59.13-1.17,0h-1.23l-1.53.1-2.07.14h-1.68l-1,.11-2.06.24-1.21.1c-1.55,0-3.11-.12-4.66-.1-8.23.08-16.45.21-24.68.29q-8.39.09-16.77.09c-5.95,0-11.91-.11-17.86-.05-6.35.07-12.7.49-19.05.36-6-.12-12.07-.3-18-1.87-2.47-.66-5-1.13-7.45-1.78a11.87,11.87,0,0,1-3-1.23,2.42,2.42,0,0,1-1-1.5c-.6-4.34-1.11-8.7-1.64-13.06-.19-1.54-.46-3.08-.52-4.63-.1-2.38-.05-4.77-.06-7.16,0-.35-.05-.7-.07-1.05l0-.74-.21-5.26,0-.76Zm88.79,39.2h2.64l2.15,0c1.33,0,2.66.15,4,.12,4.51-.09,9-.23,13.53-.37,2.59-.08,5.17-.13,7.75-.29,5.49-.35,11-.75,16.46-1.15,1.55-.11,3.1-.3,4.64-.46,3.77-.37,7.55-.65,11.3-1.14,2.76-.36,5.46-1.14,8.22-1.48a76.29,76.29,0,0,0,12.64-2.45,1.13,1.13,0,0,0,.65-.86c-.21-1.84-.49-3.69-.8-5.52-.53-3.14-1.14-6.26-1.63-9.4a41.67,41.67,0,0,1-.45-5c-.09-3.15-.06-6.3-.14-9.45a1.43,1.43,0,0,0-1.2-1.54c-3.26-.8-6.48-1.75-9.75-2.5-5.21-1.18-10.49-.56-15.75-.38a66,66,0,0,1-9.22,0,110.15,110.15,0,0,0-16-.19c-5.82.23-11.64.74-17.47.88-7.47.19-15,.21-22.42.14-4.14,0-8.29-.61-12.43-.58a135.77,135.77,0,0,0-16,.8c-7.59,1-15.11,2.54-22.66,3.82-3.66.62-7.31,1.32-11,1.7a38.5,38.5,0,0,1-12.37-1l-1.78-.44c.07,1,.18,1.71.16,2.45,0,2.31-.24,4.63-.16,6.93.11,3.19.42,6.36.67,9.53.31,3.9.63,7.79,1,11.68a1.27,1.27,0,0,0,.77.83c2.78.85,5.58,1.62,8.36,2.44a36.72,36.72,0,0,0,4.34,1.34,108.84,108.84,0,0,0,20.72,1.64c8.46-.25,16.93-.11,25.39-.12C391.87,527.57,400.5,527.59,409.14,527.59Z" />
            <path class="color-base"
                d="M486.92,524.65c.8-.17,1.6-.38,2.41-.5,1.69-.26,3.39-.46,5.09-.68l.7-.2c1-.26,1-1.1,1.09-1.92.21.35.68.86.59,1-.35.56-.81,1.25-1.38,1.44a22.4,22.4,0,0,1-3.74.69c-1.34.19-2.68.34-4,.46C487.42,525,487.17,524.76,486.92,524.65Z" />
            <path class="color-base"
                d="M468.91,527.06c2.37-.42,4.72-.88,7.1-1.24,1.82-.27,3.66-.4,5.5-.59-.2.16-.37.44-.58.47-3.56.57-7.12,1.13-10.69,1.64A4.12,4.12,0,0,1,468.91,527.06Z" />
            <path class="color-base"
                d="M450.68,528.26l5.68-.35s0,.1,0,.11C455.53,528.65,451.53,528.81,450.68,528.26Z" />
            <path class="color-shadow"
                d="M489.79,486.34a8,8,0,0,1-1.71-.15c-1.47-.45-2.91-1-4.36-1.5.95.21,1.9.38,2.83.63C487.64,485.62,488.71,486,489.79,486.34Z" />
            <path class="color-base"
                d="M482.36,525.13l3.73-.36c0,.13-.08.36-.13.36C484.76,525.15,483.56,525.14,482.36,525.13Z" />
            <path class="color-base" d="M464.15,527.31l4.09-.19a2.1,2.1,0,0,1,0,.21Z" />
            <path class="color-shadow" d="M475.87,483.14h0Z" />
            <path class="color-base" d="M492.42,497.71v-4A5.19,5.19,0,0,1,492.42,497.71Z" />
            <path class="color-base" d="M334.3,489.52l-2.65-.35A2.47,2.47,0,0,1,334.3,489.52Z" />
            <path class="color-base" d="M495.35,517.87c-.19-.84-.39-1.68-.58-2.52A2,2,0,0,1,495.35,517.87Z" />
            <path class="color-shadow" d="M493,487l-2-.68C492.32,485.69,492.81,485.86,493,487Z" />
            <path class="color-base" d="M336.91,489.39l-2.16.16Z" />
            <path class="color-base" d="M436.53,529.1l2.06-.24C438,529.65,437.25,529.37,436.53,529.1Z" />
            <path class="color-base" d="M441.31,528.75l2.07-.14A1.43,1.43,0,0,1,441.31,528.75Z" />
            <path class="color-base" d="M323.2,486.74l-1.63-1.16C322.53,485.37,322.86,486.07,323.2,486.74Z" />
            <path class="color-base" d="M495.91,520.63l-.45-2.13Z" />
            <path class="color-base" d="M325.81,488l-2.19-1Z" />
            <path class="color-base" d="M330.68,489.08l-1.91-.15Z" />
            <path class="color-base" d="M459.58,527.61l1.7,0c-.41.91-1.09.49-1.71.37Z" />
            <path class="color-base" d="M348.67,487.48l-1.9.17Z" />
            <path class="color-base" d="M457.83,527.87l1.23-.21,0,.34C458.62,528.43,458.18,528.59,457.83,527.87Z" />
            <path class="color-base" d="M447.31,528.5l1.59-.13C448.43,529.11,447.89,529,447.31,528.5Z" />
            <path class="color-base" d="M461.71,527.55l1.36-.13C462.67,528.05,462.22,528.08,461.71,527.55Z" />
            <path class="color-base" d="M494.63,514.75l-.3-1.37C494.91,513.74,495.13,514.16,494.63,514.75Z" />
            <path class="color-base" d="M493.69,508l-.36-1.34C494,507,494.14,507.44,493.69,508Z" />
            <path class="color-base" d="M444.91,528.51h0Z" />
            <path class="color-base" d="M492.25,491.48v-1.15C492.26,490.71,492.25,491.1,492.25,491.48Z" />
            <path class="color-shadow" d="M466,483.29l-1.18.09Z" />
            <path class="color-base" d="M494.16,511.2l-.12-1.12C494.74,510.38,494.6,510.77,494.16,511.2Z" />
            <path class="color-base" d="M492.72,504l-.09-1.12Z" />
            <path class="color-base" d="M340.51,488.71l-1.2.35Z" />
            <path class="color-base" d="M439.63,528.75h0Z" />
            <path class="color-shadow" d="M478.27,483.4l-.79-.13Z" />
            <path class="color-base" d="M493.91,509.23l-.09-.62.38.27Z" />
            <path class="color-base" d="M493,505.16l-.13-.59.4.22Z" />
            <path class="color-base" d="M327.8,488.84l-.82-.18Z" />
            <path class="color-base" d="M342.91,488.46l-.71.14Z" />
            <path class="color-base" d="M344.35,488.18l-.72.15Z" />
            <path class="color-base" d="M351.31,487l-.71.14Z" />
            <path class="color-shadow" d="M492.81,488.69l.2-.86Z" />
            <path class="color-base" d="M492.48,501.32l-.11-.62.38.26Z" />
            <path class="color-base" d="M354.91,486.26l-.72.16Z" />
            <path class="color-shadow" d="M479.47,483.65l-.55-.13Z" />
            <path class="color-shadow" d="M480.43,483.89l-.55-.15Z" />
            <path class="color-shadow" d="M481.39,484.12l-.55-.14Z" />
            <path class="color-shadow" d="M482.35,484.37l-.54-.16Z" />
            <path class="color-shadow" d="M483.31,484.61l-.55-.14Z" />
            <path class="color-base" d="M355.88,486.05l-.5.11Z" />
            <path class="color-base" d="M338.59,489.17l-.51.07Z" />
            <path class="color-base" d="M493.21,506.12l-.1-.39.34.15Z" />
            <path class="color-base" d="M326.52,488.45l-.51-.34Z" />
            <path class="color-base" d="M346.28,487.74l-.49.13Z" />
            <path class="color-base" d="M350.12,487.25l-.51.09Z" />
            <path class="color-base" d="M345.31,488l-.49.13Z" />
            <path class="color-base" d="M352.51,486.77l-.49.1Z" />
            <path class="color-base" d="M353.71,486.51l-.5.12Z" />
            <path class="color-shadow" d="M459.09,528l0-.34.52,0c0,.11,0,.22,0,.33Z" />
            <path class="color-base" d="M320.42,491.51l.21,5.26Z" />
            <path class="color-shadow"
                d="M413.93,527.62l-2.15,0a1.2,1.2,0,0,0-2.11,0h-.53a3.65,3.65,0,0,0-1.2-.54c-4-.2-8-.25-11.93-.54-3.32-.25-6.61-.84-9.93-1.13-3.17-.28-6.36-.39-9.54-.5-1.92-.07-3.85-.09-5.76,0-2.62.15-5.22.57-7.83.65a57.92,57.92,0,0,1-14.74-1c-3.4-.77-6.91-1-10.34-1.64s-7.06-1.52-10.57-2.4a1.85,1.85,0,0,1-1.13-1.3q-.37-4.76-.52-9.53c-.13-4.47-.18-8.94-.24-13.41a2.72,2.72,0,0,1,3-3.1c5.55-.07,11.1-.06,16.64-.27,4.57-.17,9.12-.61,13.68-.93.48,0,1,0,1.45,0a9.68,9.68,0,0,1-1.56.48c-3.49.52-7,.94-10.47,1.52a92.38,92.38,0,0,1-14.46,1.36c-1.63,0-3.26-.11-4.89-.24-1.14-.09-1.57.29-1.52,1.48.21,4.41.24,8.84.55,13.25a44.45,44.45,0,0,0,1.19,6.54,2.06,2.06,0,0,0,1,1.24,29.19,29.19,0,0,0,2.83.91,43.81,43.81,0,0,0,12,2.3c1.79.09,3.56.4,5.34.5,3.34.19,6.68.48,10,.38,4.52-.13,9-.66,13.56-.87a63,63,0,0,1,6.44.21c3.77.21,7.54.5,11.31.7,5,.27,10,.48,15,.75,1.15.06,2.29.28,3.43.37a17.12,17.12,0,0,0,3.77.16c2.5-.37,4.95-1.15,7.46-1.46,3.3-.4,6.64-.6,10-.74,3.82-.17,7.65-.17,11.48-.27,1.46,0,2.92-.14,4.38-.25,4.36-.31,8.72-.61,13.08-.95a42.57,42.57,0,0,0,5.43-.63c2.91-.62,5.79-1.42,8.65-2.22,2.45-.69,4.88-1.45,7.29-2.26,1.55-.52,2-1,1.8-2.64-.33-3-.93-6-1.27-9.06-.25-2.23-.28-4.48-.38-6.73,0-.87.11-1.67-.88-2.26A23.37,23.37,0,0,0,469,490.05c-4.78-.1-9.57-.13-14.33-.52-4-.33-8-1.1-12.12-.9-4.33.21-8.65.53-13,.69-2.94.11-5.88,0-8.82,0-.4,0-.8.1-1.19.07-1-.08-2-.2-3-.31.1-.07.19-.19.29-.2,2.81-.26,5.61-.63,8.42-.73,2.43-.09,4.86.19,7.29.19,2.63,0,5.26-.21,7.89-.21,3.35,0,6.7.11,10.05.24,1.66.07,3.32.39,5,.43a55.51,55.51,0,0,0,5.62-.15c2.61-.2,5.21-.67,7.82-.74,3.39-.08,6.78.05,10.17.24A22.54,22.54,0,0,1,484,489a2.72,2.72,0,0,1,1.85,3.4,6.6,6.6,0,0,0-.11,1.66c.12,1.69.34,3.37.43,5.06.13,2.43.13,4.86.28,7.29a16.7,16.7,0,0,0,.58,3c.57,2.18,1.29,4.33,1.75,6.53a3.09,3.09,0,0,1-2.35,3.55,15.82,15.82,0,0,1-2.49.29A35.4,35.4,0,0,0,472.43,522c-4.51,1.74-9.28,2.18-14,2.77-4.3.54-8.68.43-13,.55-2.11.07-4.25-.12-6.35,0-4.75.35-9.51.23-14.24,1.1-2.95.55-6,.37-9,.58A8.12,8.12,0,0,0,413.93,527.62Z" />
            <path class="color-shadow-dark"
                d="M413.93,527.62a8.12,8.12,0,0,1,1.86-.57c3-.21,6.09,0,9-.58,4.73-.87,9.49-.75,14.24-1.1,2.1-.16,4.24,0,6.35,0,4.35-.12,8.73,0,13-.55,4.7-.59,9.47-1,14-2.77A35.4,35.4,0,0,1,484,519.82a15.82,15.82,0,0,0,2.49-.29A3.09,3.09,0,0,0,488.8,516c-.46-2.2-1.18-4.35-1.75-6.53a16.7,16.7,0,0,1-.58-3c-.15-2.43-.15-4.86-.28-7.29-.09-1.69-.31-3.37-.43-5.06a6.6,6.6,0,0,1,.11-1.66A2.72,2.72,0,0,0,484,489a22.54,22.54,0,0,0-4.89-.83c-3.39-.19-6.78-.32-10.17-.24-2.61.07-5.21.54-7.82.74a55.51,55.51,0,0,1-5.62.15c-1.66,0-3.32-.36-5-.43-3.35-.13-6.7-.23-10.05-.24-2.63,0-5.26.2-7.89.21-2.43,0-4.86-.28-7.29-.19-2.81.1-5.61.47-8.42.73-.1,0-.19.13-.29.2h-.47c-2.64,0-5.29.08-7.92-.08-2.8-.17-5.59-.78-8.4-.84-4.66-.09-9.33.11-14,.2a2.77,2.77,0,0,0-.65.22,16.07,16.07,0,0,0-6.23.75l-.5.45-2.14.27-1.45.47h-.47l-.73.23h-1.19l-1.22.45h-1.67c-.54-.26-1.08-.55-1.45.23l-2.87,0c-.54-.26-1.08-.57-1.45.22l-1.19,0-1,.22H360.2c-.48,0-1,0-1.45,0-4.56.32-9.11.76-13.68.93-5.54.21-11.09.2-16.64.27a2.72,2.72,0,0,0-3,3.1c.06,4.47.11,8.94.24,13.41q.15,4.77.52,9.53a1.85,1.85,0,0,0,1.13,1.3c3.51.88,7,1.73,10.57,2.4s6.94.87,10.34,1.64a57.92,57.92,0,0,0,14.74,1c2.61-.08,5.21-.5,7.83-.65,1.91-.11,3.84-.09,5.76,0,3.18.11,6.37.22,9.54.5,3.32.29,6.61.88,9.93,1.13,4,.29,8,.34,11.93.54a3.65,3.65,0,0,1,1.2.54c-8.64,0-17.27,0-25.91,0-8.46,0-16.93-.13-25.39.12a108.84,108.84,0,0,1-20.72-1.64,36.72,36.72,0,0,1-4.34-1.34c-2.78-.82-5.58-1.59-8.36-2.44a1.27,1.27,0,0,1-.77-.83c-.37-3.89-.69-7.78-1-11.68-.25-3.17-.56-6.34-.67-9.53-.08-2.3.12-4.62.16-6.93,0-.74-.09-1.48-.16-2.45l1.78.44a38.5,38.5,0,0,0,12.37,1c3.69-.38,7.34-1.08,11-1.7,7.55-1.28,15.07-2.84,22.66-3.82a135.77,135.77,0,0,1,16-.8c4.14,0,8.29.54,12.43.58,7.47.07,14.95.05,22.42-.14,5.83-.14,11.65-.65,17.47-.88a110.15,110.15,0,0,1,16,.19,66,66,0,0,0,9.22,0c5.26-.18,10.54-.8,15.75.38,3.27.75,6.49,1.7,9.75,2.5a1.43,1.43,0,0,1,1.2,1.54c.08,3.15.05,6.3.14,9.45a41.67,41.67,0,0,0,.45,5c.49,3.14,1.1,6.26,1.63,9.4.31,1.83.59,3.68.8,5.52a1.13,1.13,0,0,1-.65.86,76.29,76.29,0,0,1-12.64,2.45c-2.76.34-5.46,1.12-8.22,1.48-3.75.49-7.53.77-11.3,1.14-1.54.16-3.09.35-4.64.46-5.48.4-11,.8-16.46,1.15-2.58.16-5.16.21-7.75.29-4.51.14-9,.28-13.53.37C416.59,527.77,415.26,527.66,413.93,527.62Z" />
            <path class="color-shadow-dark" d="M409.67,527.59a1.2,1.2,0,0,1,2.11,0Z" />
            <path class="color-shadow" d="M495.12,523.27l-.7.2Z" />
            <path class="color-base"
                d="M360.2,492h1.43l1-.22h1.19l1.45-.23,2.87,0,1.45-.23h1.67l1.22-.45h1.19l.73-.23h.47l1.45-.47,2.14-.27.5-.45a16.07,16.07,0,0,1,6.23-.75c.13.08.26.22.4.23,3.29.26,6.57.65,9.86.71,6.59.11,13.18,0,19.77,0,.31,0,.62-.29.94-.45h.47c1,.11,2,.23,3,.31.39,0,.79-.07,1.19-.07,2.94,0,5.88.08,8.82,0,4.33-.16,8.65-.48,13-.69,4.08-.2,8.08.57,12.12.9,4.76.39,9.55.42,14.33.52a23.37,23.37,0,0,1,11.72,3.49c1,.59.84,1.39.88,2.26.1,2.25.13,4.5.38,6.73.34,3,.94,6,1.27,9.06.18,1.6-.25,2.12-1.8,2.64-2.41.81-4.84,1.57-7.29,2.26-2.86.8-5.74,1.6-8.65,2.22a42.57,42.57,0,0,1-5.43.63c-4.36.34-8.72.64-13.08.95-1.46.11-2.92.21-4.38.25-3.83.1-7.66.1-11.48.27-3.34.14-6.68.34-10,.74-2.51.31-5,1.09-7.46,1.46a17.12,17.12,0,0,1-3.77-.16c-1.14-.09-2.28-.31-3.43-.37-5-.27-10-.48-15-.75-3.77-.2-7.54-.49-11.31-.7a63,63,0,0,0-6.44-.21c-4.53.21-9,.74-13.56.87-3.34.1-6.68-.19-10-.38-1.78-.1-3.55-.41-5.34-.5a43.81,43.81,0,0,1-12-2.3,29.19,29.19,0,0,1-2.83-.91,2.06,2.06,0,0,1-1-1.24,44.45,44.45,0,0,1-1.19-6.54c-.31-4.41-.34-8.84-.55-13.25-.05-1.19.38-1.57,1.52-1.48,1.63.13,3.26.25,4.89.24A92.38,92.38,0,0,0,348.17,494c3.48-.58,7-1,10.47-1.52A9.68,9.68,0,0,0,360.2,492Z" />
            <path class="color-shadow"
                d="M416.13,489.11c-.32.16-.63.45-.94.45-6.59,0-13.18.1-19.77,0-3.29-.06-6.57-.45-9.86-.71-.14,0-.27-.15-.4-.23a2.77,2.77,0,0,1,.65-.22c4.67-.09,9.34-.29,14-.2,2.81.06,5.6.67,8.4.84C410.84,489.19,413.49,489.09,416.13,489.11Z" />
            <path class="color-shadow" d="M365.24,491.5l-1.45.23C364.16,490.93,364.7,491.24,365.24,491.5Z" />
            <path class="color-shadow" d="M369.56,491.25l-1.45.23C368.48,490.7,369,491,369.56,491.25Z" />
            <path class="color-shadow" d="M376.29,490.08l-1.45.47Z" />
            <path class="color-shadow" d="M372.45,490.8l-1.22.45Z" />
            <path class="color-shadow" d="M362.6,491.74l-1,.22Z" />
            <path class="color-shadow" d="M374.37,490.56l-.73.23Z" />
            <path class="color-shadow" d="M378.93,489.36l-.5.45Z" />
        </g>
    </g>
</svg>
