<svg id="Nizy_classic" data-name="Nizy classic" xmlns="http://www.w3.org/2000/svg" viewBox="0 0 672 960">
    <g id="Classic_MIDI" data-name="Classic MIDI">
        <g id="img_24_img" data-name="img 24 img">
            <path class="transparent"
                d="M316.28,517.43V463.19h13.44c-.09.19-.18.38-.26.58-.32,1.08-.63,2.17-.94,3.25-.26.32-.73.62-.75,1a29.93,29.93,0,0,0,0,3.14l-.05.87-.16,1.28-.06.66a10.27,10.27,0,0,0-2.93,6.24c-.21,1.93-.24,3.88-.31,5.83-.06,1.67-.24,1.92-2,2.38a13.9,13.9,0,0,0-.33-1.61c-.09-.24-.41-.4-.62-.6l-.57.32-.28.38a2.19,2.19,0,0,0-.47,2.73l-.07.39-.15,1.75-.08.55-.24,3.05-.09,1-.16,2.4-.06.73-.17,2.39-.08,1.68-.16,1.92-.07.73a11.83,11.83,0,0,0-.34,1.3c-.47,3.09-.92,6.18-1.41,9.27C316.85,517,316.49,517.19,316.28,517.43Z" />
            <path class="color-base"
                d="M316.28,517.43c.21-.24.57-.46.62-.72.49-3.09.94-6.18,1.41-9.27a11.83,11.83,0,0,1,.34-1.3,3,3,0,0,1,.07.58c-.47,3.52-.91,7-1.45,10.54-.19,1.2,0,2,1.17,2.53l9.93,4.16a4.91,4.91,0,0,0,.58.17,76.32,76.32,0,0,0,19.89,1.54c1.86-.1,3.74,0,5.61,0a3,3,0,0,1-.8.32,98.16,98.16,0,0,1-20.42-.47,25.11,25.11,0,0,1-8.9-2.67A25.31,25.31,0,0,0,320,521a6,6,0,0,1-3.33-2.17c-.05-.06-.27,0-.41,0Z" />
            <path class="color-base" d="M329.45,463.77l.27-.58h.48c.12.54,1.18,1.16-.13,1.58Z" />
            <path class="color-base"
                d="M333.82,470.12a3.56,3.56,0,0,1,3.58,2.49c1.72,4.07,3.75,8,4.4,12.5a1.62,1.62,0,0,0,1,1c4.84,1.37,9.66,2.82,14.55,4,3.05.71,6.21,1,9.33,1.4s6.3,1,9.47,1.31c5.63.61,11.27,1.22,16.92.19a10.07,10.07,0,0,1,2.39-.13,12.07,12.07,0,0,0,6.24-1.59l0,0-1,1.05c.33.05.57.12.82.13,3.27.08,6.55.15,9.82.24,1,0,1.92.13,2.17,1.41,0,.22.7.48,1.06.46,3.46-.2,6.92-.38,10.37-.71,3.6-.36,7.18-.9,10.77-1.3,2.89-.32,5.78-.55,8.67-.81,5-.47,10.09-.83,15.11-1.45,3.54-.43,7-1.27,10.57-1.84,2.11-.34,4.25-.52,6.53-.79-.18-1.44-.35-2.75-.53-4.17.84,1.13,2.6.05,3.14,1.55a1.22,1.22,0,0,1,.22.4c.21,1.37.34,2.75.59,4.11.66,3.59,1.38,7.16,2.07,10.74.33,1.73.64,3.47,1,5.21l-3.22.2c-3.19.18-6.38.35-9.56.55-4.62.28-9.23.75-13.86.85-4.06.08-8.13-.34-12.2-.36-8.15,0-16.29.08-24.44.06-7.63,0-15.25-.11-22.88-.19-1,0-2.07-.07-3.11-.1l-.76-.06L390,506.3l-2.19-.09c-2.32,0-4.64-.07-6.95-.08-4.64,0-9.27,0-13.9-.05a4.5,4.5,0,0,0-3.89,0l-4.77.1c-.69-.42-1.35-.57-1.94.16l-1.9.07c-2.53-.79-5,0-7.56.12-.05,0-.08.21-.13.32l-7.42-.11c-.24-.28-.43-.65-.73-.81a34.05,34.05,0,0,1-3.73-1.85,3.33,3.33,0,0,1-1.5-2.06,75.49,75.49,0,0,1-.05-8c.19-5.17.54-10.32.68-15.49C334.09,475.77,333.89,472.94,333.82,470.12Z" />
            <path class="outline"
                d="M339.34,506.76l7.42.11,7.69-.44,1.9-.07,1.94-.16,4.77-.1,3.89,0c4.63,0,9.26,0,13.9.05,2.31,0,4.63.05,6.95.08l2.19.09,3.09.15.76.06c1,0,2.07.09,3.11.1,7.63.08,15.25.18,22.88.19,8.15,0,16.29-.1,24.44-.06,4.07,0,8.14.44,12.2.36,4.63-.1,9.24-.57,13.86-.85,3.18-.2,6.37-.37,9.56-.55l3.22-.2,2.13-.07h8c-.23-3.13-.39-6.17-.7-9.2-.2-2-.59-4-.9-6l-5.37-24,.34-.1a151.74,151.74,0,0,1,8.09,27.24l.1.51.15,1.17.1.51.15.69.12.51.1.69.13.75.07.47a24.58,24.58,0,0,1,.08,3.09c-.42,4,.27,8,1,11.88a33.58,33.58,0,0,1,.48,5,2.44,2.44,0,0,1-2.17,2.59c-1.6,0-3.19-.09-4.79-.09-4.23,0-8.47-.16-12.69.07-6,.33-12,1.12-18,1.4-5.69.26-11.41.14-17.12.17-2.58,0-5.17,0-7.76,0l-1,0a12.48,12.48,0,0,0-1.48-.29c-2-.13-4-.25-5.95-.33-3.12-.12-6.25-.2-9.38-.3h-3.11a1.45,1.45,0,0,0-.52-.22q-6.24,0-12.49,0c-.13,0-.27.13-.41.2l-.49,0h-1.43l-6.72.44-1,0-2.63.21-.48,0a17.2,17.2,0,0,0-1.9,0q-13.38,1.29-26.76,2.62c-1.33.13-2.65.31-4,.48l-.48,0c-1.87,0-3.75-.06-5.61,0A76.32,76.32,0,0,1,329,524.12a4.91,4.91,0,0,1-.58-.17l-9.93-4.16c-1.18-.49-1.36-1.33-1.17-2.53.54-3.5,1-7,1.45-10.54a3,3,0,0,0-.07-.58c0-.24,0-.49.07-.73,0-.64.1-1.28.16-1.92s.05-1.12.08-1.68c.06-.79.11-1.59.17-2.39l.06-.73c.06-.8.11-1.6.16-2.4l.09-1,.24-3.05.08-.55.15-1.75.07-.39c.16-.91.31-1.82.47-2.73l.28-.38c.27.17.53.35.79.53.08.94.17,1.88.25,2.83v.48c.15,2.18.38,4.36.44,6.54.07,2.83,0,5.67,0,8.5,0,.72.13,1.13,1,1.14,1.79,0,3.58.08,5.37.12l.7.09h5.28l1.23.1Zm17.51,2.47,6.51.17c.24,0,.47.06.71.06h30.7l2.43.15,2.61.1,1.95.14,2.13.1,3.15.15,12.16,0,2.2-.12,2.85-.09,3.63-.13h9.6l2.44.14,3.32.11,3.88.14h4.73l4.83-.15,3.8-.11,1.72-.13,2.12-.13,1-.1,1.64-.11,1-.13,1.4-.12.76-.12,1.4-.13.76-.12.92-.09,1-.16.92-.09.88-.22.48,0c1,0,2-.08,3.08-.1,4.34-.08,8.69-.14,13-.25a4.28,4.28,0,0,0,1.26-.46c-.4-.23-.8-.48-1.21-.68-.13-.07-.32,0-.48,0-2.78.14-5.56.3-8.35.41s-5.58.17-8.37.28a3.19,3.19,0,0,0-.77.22l-1.16.08-1.72.15-1.88.1-1.95.15-2.13.12-1.48.12-2.12.12-1.71.12h-6l-3.87-.17-2.37-.09-2.67-.14-3.33-.08a6.83,6.83,0,0,0-1.25-.22c-4.8,0-9.6,0-14.4,0-.63,0-1.27.06-1.9.09l-1.85,0-2.92.13-4.52.09h-6.31l-5-.09L396.4,508l-5.24-.12-1.72-.09-5.24-.12h-5.51l-11.54,0c-1.15-.09-2.31-.24-3.47-.24-1.32,0-2.63.15-3.95.24l-1.89.06-1.95.15-2.13.1-2.67.16-1.65.07a2.6,2.6,0,0,0-.47-.09H325a2.94,2.94,0,0,0-.71.17,1.49,1.49,0,0,0,1,.48c3.38.17,6.76.4,10.14.46,5,.09,10.06.05,15.09.06.44,0,.87-.07,1.31-.1Zm68.18,2-3.63.17-3.09.09H406l-1.89-.08-2.19-.16-1.65-.08-2.19-.14-2.61-.1-4.35-.16-18.41,0h-3.84l-7.26-.06-3.58,0a4.57,4.57,0,0,0-1-.22H339.61a4.37,4.37,0,0,0-1,.22l-10.31.08-1.46-.09c-1.38-.09-2.76-.17-4.13-.28-.79-.06-1.07.33-1.13,1.05-.14,1.58-.36,3.16-.45,4.75a1.39,1.39,0,0,0,.65,1c1.79,1,3.61,2,5.46,3a19.32,19.32,0,0,0,3.53,1.46,60.73,60.73,0,0,0,15.87,1.93c4.46,0,8.94-.24,13.4-.48,2.9-.15,5.8-.44,8.69-.73,3.49-.34,7-.79,10.45-1.11s7-.56,10.49-.76c4.56-.26,9.13-.5,13.7-.66,2.1-.07,4.21.09,6.31.16,4.86.16,9.73.3,14.59.51s9.55.55,14.33.7c3.35.11,6.72.07,10.07,0,4.47-.1,8.94-.28,13.4-.49,2.39-.12,4.78-.32,7.15-.59,4-.46,7.91-1.49,12-1.34,2.37.08,4.76-.13,7.14-.2.82,0,1.65,0,2.48,0a3,3,0,0,0,3.32-3.36c0-1.62-.07-3.25-.07-4.87,0-.75-.41-.84-1-.82-.79,0-1.58,0-2.37,0l-5.94.18-1.45.05-1.88,0-2.63.29-1-.05-2.15.29-.5-.08-1.67.3-.73-.05-2.22.39-.89-.14-2.22.38-1.38-.12-2.7.37-2.81-.11c-1.14,0-2.28-.07-3.41-.05-.25,0-.5.26-.75.39l-2.34-.15-1.49,0h-1.38l-4.61,0-1.9,0-4.34-.2-1.66,0a2.83,2.83,0,0,0-.76-.22q-4.76,0-9.5,0a3.7,3.7,0,0,0-.78.19Z" />
            <path class="color-shadow"
                d="M334.5,506.71h-5.28l-.7-.09a5.14,5.14,0,0,1-1-.49c-.56-.42-1.32-.82-1.54-1.4a7.34,7.34,0,0,1-.3-2.7c0-3,.14-6,.23-8.94,0-1,.18-2,.21-3,0-1.18,0-2.36,0-3.66l-1.17.24c.08-1.9.23-3.8.22-5.7a9.84,9.84,0,0,1,1.5-5.07,17.36,17.36,0,0,0,.88-2l.06-.66c.05-.43.11-.86.16-1.28l.05-.87.72-4.09c.31-1.08.62-2.17.94-3.25l.61,1q-.13,2.93-.25,5.84c-.19.32-.59.7-.52.95a4.49,4.49,0,0,0,.78,1.25l.32-.17v-1.15c.11-.82.17-1.65.35-2.46.08-.35.41-.64.6-1s.37-.69.56-1c.29-.49.53-1.32.9-1.39.83-.14.76.69.8,1.27.08,1.06.14,2.13.21,3.2.07,2.82.27,5.65.19,8.47-.14,5.17-.49,10.32-.68,15.49a75.49,75.49,0,0,0,.05,8,3.33,3.33,0,0,0,1.5,2.06,34.05,34.05,0,0,0,3.73,1.85c.3.16.49.53.73.81l-3.61.05C335.37,506.16,335,506.28,334.5,506.71Z" />
            <path class="color-shadow-dark"
                d="M491.65,490.24c.31,2,.7,4,.9,6,.31,3,.47,6.07.7,9.2h-8a2.66,2.66,0,0,1,.81-.46c.59-.07,1.2,0,1.8,0,.25,0,.7-.27.7-.41a8,8,0,0,0-.22-3.12,90.51,90.51,0,0,1-4.87-14.56c-.88-3.24-1.81-6.53-1.58-10l-.27-2c0-1-.06-2-.08-3.05.11-.18.22-.36.34-.54l1-.95c-.05-.41-.1-.81-.16-1.22s.09-.93.13-1.39c.72-.26,1-.62.31-1.24l-.07-.46.18-.89c.51.35,1.28.59,1.48,1.07A41.71,41.71,0,0,1,488.61,480c.19,2.77.62,5.52.89,8.29C489.63,489.62,490.55,490,491.65,490.24Z" />
            <path class="color-shadow"
                d="M481.88,476.87c-.23,3.44.7,6.73,1.58,10a90.51,90.51,0,0,0,4.87,14.56,8,8,0,0,1,.22,3.12c0,.14-.45.38-.7.41-.6.06-1.21,0-1.8,0a2.66,2.66,0,0,0-.81.46l-2.13.07c-.32-1.74-.63-3.48-1-5.21-.69-3.58-1.41-7.15-2.07-10.74-.25-1.36-.38-2.74-.59-4.11a1.22,1.22,0,0,0-.22-.4l-.72-5.53,2-.37-.24-.55c-.11-.82-.21-1.64-.32-2.46l0-.46c-.06-.64-.11-1.27-.16-1.91.95-.09.83.74,1.09,1.26S481.55,476.25,481.88,476.87Z" />
            <path class="color-base"
                d="M434.59,522.75c2.59,0,5.18,0,7.76,0,5.71,0,11.43.09,17.12-.17,6-.28,12-1.07,18-1.4,4.22-.23,8.46-.07,12.69-.07,1.6,0,3.19.1,4.79.09a2.44,2.44,0,0,0,2.17-2.59,33.58,33.58,0,0,0-.48-5c-.68-3.93-1.37-7.86-1-11.88a24.58,24.58,0,0,0-.08-3.09c.17,1.27.4,2.53.49,3.8.18,2.7.18,5.41.43,8.09s.85,5.35,1,8a2.83,2.83,0,0,1-3.17,3.11c-3.33-.26-6.71.15-10-.15-5.8-.51-11.42.9-17.14,1.19-3.66.19-7.33.27-11,.37-3.11.09-6.22.21-9.33.19-3.87,0-7.74-.16-11.61-.27A2.35,2.35,0,0,1,434.59,522.75Z" />
            <path class="color-base"
                d="M354.93,525.59c1.33-.17,2.65-.35,4-.48q13.38-1.33,26.76-2.62a17.2,17.2,0,0,1,1.9,0c-1.22.2-2.44.45-3.67.58-5,.55-10,1.08-15.09,1.56-4.32.42-8.66.76-13,1.12A3.18,3.18,0,0,1,354.93,525.59Z" />
            <path class="color-base"
                d="M416.82,521.81c3.13.1,6.26.18,9.38.3,2,.08,4,.2,5.95.33a12.48,12.48,0,0,1,1.48.29c-2.3,0-4.6,0-6.9-.11-2.87-.11-5.74-.29-8.6-.47A6.83,6.83,0,0,1,416.82,521.81Z" />
            <path class="color-base"
                d="M400.29,521.74c.14-.07.28-.2.41-.2q6.24,0,12.49,0a1.45,1.45,0,0,1,.52.22c-.62.05-1.24.13-1.87.14l-10.89,0A3.14,3.14,0,0,1,400.29,521.74Z" />
            <path class="color-base"
                d="M391.65,522.22l6.72-.44c-.15.1-.29.29-.45.3-2,.12-4,.22-6,.32C391.85,522.4,391.75,522.28,391.65,522.22Z" />
            <path class="color-base"
                d="M481.88,476.87c-.33-.62-.67-1.23-1-1.85s-.14-1.35-1.09-1.26v-1.32l.35-.06c.26.59.49,1.19.79,1.75a4.87,4.87,0,0,0,.66.78Z" />
            <path class="color-base"
                d="M330.4,471.49v1.15l-.32.17a4.49,4.49,0,0,1-.78-1.25c-.07-.25.33-.63.52-.95C330,470.91,330.2,471.2,330.4,471.49Z" />
            <path class="color-base" d="M480.32,478.59l.24.55-2,.37C478.79,478.53,479.61,478.67,480.32,478.59Z" />
            <path class="color-base" d="M388.05,522.45l2.63-.21Z" />
            <path class="color-base" d="M414.19,521.79h0Z" />
            <path class="color-base" d="M483.19,466.52c.73.62.41,1-.31,1.24C483,467.34,483.09,466.93,483.19,466.52Z" />
            <path class="color-base" d="M482.75,469.15c.06.41.11.81.16,1.22C482.86,470,482.81,469.56,482.75,469.15Z" />
            <path class="color-base" d="M398.84,521.77h0Z" />
            <path class="color-base" d="M483.3,465.17l-.18.89Z" />
            <path class="color-base" d="M495.56,498.21l-.13-.75Z" />
            <path class="color-base" d="M495.06,495.57l-.1-.51Z" />
            <path class="color-base"
                d="M481.87,471.32c-.12.18-.23.36-.34.54C481.64,471.68,481.75,471.5,481.87,471.32Z" />
            <path class="color-base" d="M480,475.67l0,.46Z" />
            <path class="color-base" d="M495.33,496.77l-.12-.51Z" />
            <path class="color-base" d="M494.81,493.89l-.1-.51Z" />
            <path class="color-base" d="M401.71,491.25l.16-.51.28.33-.42.2Z" />
            <path class="color-base"
                d="M327.53,473.92a17.36,17.36,0,0,1-.88,2,9.84,9.84,0,0,0-1.5,5.07c0,1.9-.14,3.8-.22,5.7a5.78,5.78,0,0,1-.76,1.51,16.33,16.33,0,0,1-1.88,1.62h-.52c-.08-.95-.17-1.89-.25-2.83-.07-.29-.15-.57-.22-.85.21.2.53.36.62.6a13.9,13.9,0,0,1,.33,1.61c1.8-.46,2-.71,2-2.38.07-1.95.1-3.9.31-5.83A10.27,10.27,0,0,1,327.53,473.92Z" />
            <path class="color-base"
                d="M328.52,467l-.72,4.09a29.93,29.93,0,0,1,0-3.14C327.79,467.64,328.26,467.34,328.52,467Z" />
            <path class="color-base" d="M320.45,486.86c-.16.91-.31,1.82-.47,2.73A2.19,2.19,0,0,1,320.45,486.86Z" />
            <path class="color-base" d="M319.68,492.28l-.24,3.05Z" />
            <path class="color-base"
                d="M319.35,496.29c-.05.8-.1,1.6-.16,2.4C319.25,497.89,319.3,497.09,319.35,496.29Z" />
            <path class="color-base" d="M319.13,499.42c-.06.8-.11,1.6-.17,2.39C319,501,319.07,500.22,319.13,499.42Z" />
            <path class="color-base" d="M319.91,490l-.15,1.75Z" />
            <path class="color-base"
                d="M318.88,503.49c-.06.64-.11,1.28-.16,1.92C318.77,504.77,318.82,504.13,318.88,503.49Z" />
            <path class="color-base" d="M327.75,472c-.05.42-.11.85-.16,1.28C327.64,472.83,327.7,472.4,327.75,472Z" />
            <path class="color-shadow" d="M321.3,486.16c.07.28.15.56.22.85-.26-.18-.52-.36-.79-.53Z" />
            <path class="color-shadow-dark"
                d="M354.45,506.43l-7.69.44c.05-.11.08-.31.13-.32C349.41,506.42,351.92,505.64,354.45,506.43Z" />
            <path class="color-shadow-dark" d="M367,506.08l-3.89,0A4.5,4.5,0,0,1,367,506.08Z" />
            <path class="color-shadow-dark" d="M390,506.3l-2.19-.09Z" />
            <path class="color-shadow-dark" d="M358.29,506.2l-1.94.16C356.94,505.63,357.6,505.78,358.29,506.2Z" />
            <path class="color-shadow-dark" d="M393.84,506.51l-.76-.06Z" />
            <path class="color-shadow"
                d="M326.84,510.72l1.46.09c0,1.71.13,2,1.55,2a26.53,26.53,0,0,1,6.64,1.12,53.58,53.58,0,0,0,15.18,2c2.28,0,4.56,0,6.84,0,3.22,0,6.44.1,9.65,0,4.88-.22,9.76-.85,14.63-.87,8.54,0,17.07.26,25.61.43a3.91,3.91,0,0,1,.82.14,17.86,17.86,0,0,0,6.48.3,75.67,75.67,0,0,1,9.11-.87c4.66,0,9.32.41,14,.39,6.82,0,13.63-.28,20.45-.46a31.75,31.75,0,0,0,4.88-.3c3.35-.6,6.68-1.4,10-2.11,2.64-.56,5.28-1.1,7.91-1.69.57-.13,1.37-.15,1.27-1.11l1.45-.05a14.58,14.58,0,0,0,1.85.22c2.39,0,2.39,0,2.87,2.27s-.08,3-2.44,3-4.51.05-6.75.26a26.5,26.5,0,0,0-3.52.93c-4,1-8,2.46-12.19,2.72-4,.24-7.9,1-11.86,1s-8.09-.48-12.14-.63c-4.33-.16-8.66-.25-13-.23-2.5,0-5,.44-7.5.41-4.18,0-8.36-.3-12.54-.44-5.26-.17-10.52-.42-15.78-.45-5.75,0-11.5.12-17.24.23a25,25,0,0,0-2.84.35c-2.16.28-4.32.59-6.49.82q-4.26.44-8.54.75a44.78,44.78,0,0,1-11.68-.18c-1.71-.32-3.41-.81-5.14-1a41.09,41.09,0,0,1-14.94-5,2.53,2.53,0,0,1-.91-1.48,3.33,3.33,0,0,1,0-1.66,1.18,1.18,0,0,1,.76-.73A13,13,0,0,1,326.84,510.72Z" />
            <path class="color-base"
                d="M483.31,509.8c.1,1-.7,1-1.27,1.11-2.63.59-5.27,1.13-7.91,1.69-3.34.71-6.67,1.51-10,2.11a31.75,31.75,0,0,1-4.88.3c-6.82.18-13.63.43-20.45.46-4.65,0-9.31-.43-14-.39a75.67,75.67,0,0,0-9.11.87,17.86,17.86,0,0,1-6.48-.3,3.91,3.91,0,0,0-.82-.14c-8.54-.17-17.07-.46-25.61-.43-4.87,0-9.75.65-14.63.87-3.21.14-6.43,0-9.65,0-2.28,0-4.56,0-6.84,0a53.58,53.58,0,0,1-15.18-2,26.53,26.53,0,0,0-6.64-1.12c-1.42-.05-1.59-.33-1.55-2l10.31-.08a5.09,5.09,0,0,0,1,.21H357a5.19,5.19,0,0,0,1-.21l3.58,0s0,.11,0,.11l7.22-.05h3.84l18.41,0,4.35.16,2.61.1,2.19.14,1.65.08,2.19.16,1.89.08a2.61,2.61,0,0,0,.9.36q5.25,0,10.5,0a2.8,2.8,0,0,0,.9-.35l3.09-.09a4.54,4.54,0,0,0,3.63-.17l2.61-.08a2.73,2.73,0,0,0,.76.22q4.75,0,9.51,0a3.16,3.16,0,0,0,.77-.21l1.66,0c1.41.8,2.88.43,4.34.2l1.9,0c.25.13.49.38.75.39q1.55.06,3.09,0c.26,0,.51-.24.77-.36h1.38c.51.6,1,.63,1.49,0l2.34.15c.84,0,1.68.09,2.52,0a9.68,9.68,0,0,0,1.64-.37l2.81.11,2.7-.37,1.38.12,2.22-.38.89.14,2.22-.39.73.05,1.67-.3.5.08,2.15-.29,1,0,2.63-.28Z" />
            <path class="color-shadow-dark"
                d="M326.84,510.72a13,13,0,0,0-2.08.26,1.18,1.18,0,0,0-.76.73,3.33,3.33,0,0,0,0,1.66,2.53,2.53,0,0,0,.91,1.48,41.09,41.09,0,0,0,14.94,5c1.73.2,3.43.69,5.14,1a44.78,44.78,0,0,0,11.68.18q4.27-.31,8.54-.75c2.17-.23,4.33-.54,6.49-.82a25,25,0,0,1,2.84-.35c5.74-.11,11.49-.27,17.24-.23,5.26,0,10.52.28,15.78.45,4.18.14,8.36.41,12.54.44,2.5,0,5-.4,7.5-.41,4.33,0,8.66.07,13,.23,4.05.15,8.1.7,12.14.63s7.9-.81,11.86-1c4.23-.26,8.14-1.75,12.19-2.72a26.5,26.5,0,0,1,3.52-.93c2.24-.21,4.5-.22,6.75-.26s2.93-.71,2.44-3S489,510,486.61,510a14.58,14.58,0,0,1-1.85-.22l5.94-.18c.79,0,1.58,0,2.37,0,.6,0,1,.07,1,.82,0,1.62,0,3.25.07,4.87a3,3,0,0,1-3.32,3.36c-.83,0-1.66,0-2.48,0-2.38.07-4.77.28-7.14.2-4.08-.15-8,.88-12,1.34-2.37.27-4.76.47-7.15.59-4.46.21-8.93.39-13.4.49-3.35.08-6.72.12-10.07,0-4.78-.15-9.55-.5-14.33-.7s-9.73-.35-14.59-.51c-2.1-.07-4.21-.23-6.31-.16-4.57.16-9.14.4-13.7.66q-5.25.3-10.49.76c-3.49.32-7,.77-10.45,1.11-2.89.29-5.79.58-8.69.73-4.46.24-8.94.5-13.4.48a60.73,60.73,0,0,1-15.87-1.93,19.32,19.32,0,0,1-3.53-1.46c-1.85-.92-3.67-1.92-5.46-3a1.39,1.39,0,0,1-.65-1c.09-1.59.31-3.17.45-4.75.06-.72.34-1.11,1.13-1.05C324.08,510.55,325.46,510.63,326.84,510.72Z" />
            <path class="color-base"
                d="M476.48,508.19l-.48,0-.88.22-.92.09-1,.16-.92.09-.76.12-1.4.13-.76.12-1.4.12-1,.13-1.64.11-1,.1-2.12.13-1.72.13-3.8.11c-1.43-.07-2.86-.15-4.29-.19-.18,0-.36.22-.54.34h-4.73l-3.88-.14-3.32-.11-2.44-.14h-9.6l-3.63.13-2.85.09-2.2.12-12.16,0-3.15-.15-2.13-.1-1.95-.14-2.61-.1-2.43-.15h-30.7c-.24,0-.47,0-.71-.06-.07-.09-.14-.27-.21-.27-2.1,0-4.2.06-6.3.1l-5-.07a5.09,5.09,0,0,0-1.28-.35c-3.66,0-7.32,0-11,0,2.87-.25,5.73-.23,8.59-.27a5.09,5.09,0,0,0,1.28-.35l1.65-.07,2.67-.16,2.13-.1,1.95-.15,1.89-.06a14.66,14.66,0,0,0,1.86.19c1.85,0,3.71-.12,5.56-.19l11.54,0h5.51l5.24.12,1.72.09,5.24.12a3.8,3.8,0,0,0,1,.33c1.58,0,3.16,0,4.74,0,.65,0,1.29-.14,1.94-.21l5,.09c.07.09.13.27.2.27,2,0,3.93,0,5.9,0,.07,0,.14-.18.21-.27l4.52-.09,2.92-.13,1.85,0a4.91,4.91,0,0,0,1.27.35q7.58,0,15.15,0a6.41,6.41,0,0,0,1.13-.21l3.33.08,2.67.14,2.37.09,3.87.17h6l1.71-.12,2.12-.12,1.48-.12,2.13-.12,1.95-.15,1.88-.1,1.72-.15,1.16-.08Z" />
            <path class="color-shadow-dark"
                d="M322.29,489.84a16.33,16.33,0,0,0,1.88-1.62,5.78,5.78,0,0,0,.76-1.51l1.17-.24c0,1.3,0,2.48,0,3.66,0,1-.17,2-.21,3-.09,3-.19,6-.23,8.94a7.34,7.34,0,0,0,.3,2.7c.22.58,1,1,1.54,1.4a5.14,5.14,0,0,0,1,.49c-1.79,0-3.58-.11-5.37-.12-.83,0-1-.42-1-1.14,0-2.83.09-5.67,0-8.5-.06-2.18-.29-4.36-.44-6.54Z" />
            <path class="color-shadow-dark"
                d="M349.44,508.17a5.09,5.09,0,0,1-1.28.35c-2.86,0-5.72,0-8.59.27,3.67,0,7.33,0,11,0a5.09,5.09,0,0,1,1.28.35c-.44,0-.87.1-1.31.1-5,0-10.06,0-15.09-.06-3.38-.06-6.76-.29-10.14-.46a1.49,1.49,0,0,1-1-.48,2.94,2.94,0,0,1,.71-.17h24A2.6,2.6,0,0,1,349.44,508.17Z" />
            <path class="color-shadow-dark"
                d="M476.48,508.19l-1.8-.59a3.19,3.19,0,0,1,.77-.22c2.79-.11,5.58-.17,8.37-.28s5.57-.27,8.35-.41c.16,0,.35-.06.48,0,.41.2.81.45,1.21.68a4.28,4.28,0,0,1-1.26.46c-4.35.11-8.7.17-13,.25C478.53,508.11,477.51,508.16,476.48,508.19Z" />
            <path class="color-shadow-dark"
                d="M358,510.73a5.19,5.19,0,0,1-1,.21H339.61a5.09,5.09,0,0,1-1-.21,4.37,4.37,0,0,1,1-.22H357A4.57,4.57,0,0,1,358,510.73Z" />
            <path class="color-shadow-dark"
                d="M442.28,508.09a6.41,6.41,0,0,1-1.13.21q-7.57,0-15.15,0a4.91,4.91,0,0,1-1.27-.35c.63,0,1.27-.09,1.9-.09,4.8,0,9.6,0,14.4,0A6.83,6.83,0,0,1,442.28,508.09Z" />
            <path class="color-shadow-dark"
                d="M418.31,511.52a2.8,2.8,0,0,1-.9.35q-5.25,0-10.5,0a2.61,2.61,0,0,1-.9-.36Z" />
            <path class="color-shadow-dark"
                d="M438.68,511.21a3.16,3.16,0,0,1-.77.21q-4.76,0-9.51,0a2.73,2.73,0,0,1-.76-.22,3.7,3.7,0,0,1,.78-.19q4.74,0,9.5,0A2.83,2.83,0,0,1,438.68,511.21Z" />
            <path class="color-shadow-dark"
                d="M404.12,508.08c-.65.07-1.29.2-1.94.21-1.58,0-3.16,0-4.74,0a3.8,3.8,0,0,1-1-.33Z" />
            <path class="color-shadow-dark"
                d="M367.15,507.63c-1.85.07-3.71.16-5.56.19a14.66,14.66,0,0,1-1.86-.19c1.32-.09,2.63-.23,3.95-.24C364.84,507.39,366,507.54,367.15,507.63Z" />
            <path class="color-shadow-dark" d="M368.88,510.83l-7.22.05s0-.07,0-.11Z" />
            <path class="color-shadow-dark" d="M356.85,509.23c2.1,0,4.2-.08,6.3-.1.07,0,.14.18.21.27Z" />
            <path class="color-shadow-dark"
                d="M415.44,508.17c-.07.09-.14.27-.21.27-2,0-3.93,0-5.9,0-.07,0-.13-.18-.2-.27Z" />
            <path class="color-shadow-dark" d="M451.85,510.12c.18-.12.36-.35.54-.34,1.43,0,2.86.12,4.29.19Z" />
            <path class="color-shadow-dark"
                d="M451.19,511.51c-.26.12-.51.35-.77.36q-1.55.06-3.09,0c-.26,0-.5-.26-.75-.39Z" />
            <path class="color-shadow-dark" d="M444.68,511.44c-1.46.23-2.93.6-4.34-.2Z" />
            <path class="color-shadow-dark" d="M395.48,511l-4.35-.16Z" />
            <path class="color-shadow-dark"
                d="M460.56,511.29a9.68,9.68,0,0,1-1.64.37c-.84.06-1.68,0-2.52,0,.25-.13.5-.38.75-.39C458.28,511.22,459.42,511.26,460.56,511.29Z" />
            <path class="color-shadow-dark" d="M443.24,510l3.88.14Z" />
            <path class="color-shadow-dark" d="M454.52,508.57l-3.87-.17Z" />
            <path class="color-shadow-dark" d="M424.25,509.87l3.63-.13Z" />
            <path class="color-shadow-dark" d="M425,511.26a4.54,4.54,0,0,1-3.63.17Z" />
            <path class="color-shadow-dark" d="M403.89,510l3.15.15Z" />
            <path class="color-shadow-dark" d="M422.88,508l-2.92.13Z" />
            <path class="color-shadow-dark" d="M481.43,509.82l-2.63.28Z" />
            <path class="color-shadow-dark" d="M353.76,507.94l-2.67.16Z" />
            <path class="color-shadow-dark" d="M466.07,511l-2.7.37Z" />
            <path class="color-shadow-dark" d="M448.28,508.31l-2.67-.14Z" />
            <path class="color-shadow-dark" d="M384.2,507.62h0Z" />
            <path class="color-shadow-dark" d="M437.48,509.73l2.44.14Z" />
            <path class="color-shadow-dark" d="M394.77,509.47l2.43.15Z" />
            <path class="color-shadow-dark" d="M469.67,510.77l-2.22.38Z" />
            <path class="color-shadow-dark" d="M419.2,510.08l2.2-.12Z" />
            <path class="color-shadow-dark" d="M472.78,510.52l-2.22.39Z" />
            <path class="color-shadow-dark" d="M380.84,507.61h0Z" />
            <path class="color-shadow-dark" d="M400.28,511.19l-2.19-.14Z" />
            <path class="color-shadow-dark" d="M404.12,511.43l-2.19-.16Z" />
            <path class="color-shadow-dark" d="M477.83,510.06l-2.15.29Z" />
            <path class="color-shadow-dark" d="M357.84,507.69l-1.95.15Z" />
            <path class="color-shadow-dark" d="M399.81,509.72l1.95.14Z" />
            <path class="color-shadow-dark" d="M469.92,507.93l-1.95.15Z" />
            <path class="color-shadow-dark" d="M460.48,509.86l1.72-.13Z" />
            <path class="color-shadow-dark" d="M391.16,507.83l-1.72-.09Z" />
            <path class="color-shadow-dark" d="M475.18,510.27l-1.67.3Z" />
            <path class="color-shadow-dark" d="M462.24,508.44l-1.71.12Z" />
            <path class="color-shadow-dark" d="M473.52,507.68l-1.72.15Z" />
            <path class="color-shadow-dark" d="M465.84,508.2l-1.48.12Z" />
            <path class="color-shadow-dark" d="M372.72,510.84h0Z" />
            <path class="color-shadow-dark" d="M454.06,511.48c-.49.65-1,.62-1.49,0Z" />
            <path class="color-shadow-dark" d="M329.22,506.71h0Z" />
            <path class="color-shadow-dark" d="M334.5,506.71c.45-.43.87-.55,1.23.1Z" />
            <path class="color-shadow-dark" d="M467,509.39l1-.13Z" />
            <path class="color-shadow-dark" d="M473.2,508.68l1-.16Z" />
            <path class="color-shadow-dark" d="M464.32,509.6l1-.1Z" />
            <path class="color-shadow-dark" d="M370.8,510.84h0Z" />
            <path class="color-shadow-dark" d="M475.12,508.43l.88-.22Z" />
            <path class="color-shadow-dark" d="M471.52,508.89l.76-.12Z" />
            <path class="color-shadow-dark" d="M469.36,509.14l.76-.12Z" />
            <path class="color-shadow" d="M322.29,489.84l-.52.48v-.48Z" />
        </g>
    </g>
</svg>
