<svg id="Crop_Pryamoy" data-name="Crop Pryamoy" xmlns="http://www.w3.org/2000/svg" viewBox="0 0 672 960">

    <g>
        <path class="outline"
            d="M493.3,259.28c-4.3,2.55-8.63,5.06-12.89,7.69a7.78,7.78,0,0,0-4,6.64c-.08,2.07-.29,4.13-.44,6.2l-.3,2c-.27,3.75-.58,7.49-.79,11.24a24.3,24.3,0,0,0,.09,4.75c1.24,8.7,2.62,17.36,3.81,26.06.53,3.87.68,7.8,1.08,11.69.56,5.4,1.17,10.79,1.8,16.19.6,5.11.19,10.22.11,15.33a5.15,5.15,0,0,1-.41,1.42c-1.6-.29-3.08-.49-4.52-.85a7,7,0,0,1-2.16-1,24.26,24.26,0,0,0-11.42-3.82c-2.47-.27-4.92-.25-7.37-.38s-4.93-.39-7.4-.57c-2-.14-4-.32-6-.36a116.52,116.52,0,0,0-14.83.32,15.41,15.41,0,0,1-1.92.08c-3.18-.05-6.36-.1-9.55-.19-3.82-.11-7.64-.28-11.46-.38-1.92-.05-3.84,0-5.76,0-1.35,0-2.71-.07-4.07-.11-1.83-.05-3.66-.07-5.49-.17-4.06-.22-8.14-.32-12.18-.8-3.22-.38-6.47-.11-9.7-1.05-2.61-.76-5.51-.53-8.29-.75-.63-.06-1.26-.17-1.89-.24-.79-.1-1.58-.24-2.37-.29-1.82-.12-3.65-.23-5.47-.28-2.15-.07-4.3-.17-6.44-.1-4.71.15-9.42.43-14.12.62-4.06.16-8.12.32-12.18.38a58.63,58.63,0,0,1-7.62-.26c-2.83-.34-5.6-1.06-8.41-1.56-2.51-.45-5-.87-7.56-1.23-.86-.12-1.26-.44-1.37-1.31-1.18-9-3.65-17.68-5.18-26.57-.61-3.55-1.2-7.09-2.9-10.33a3.17,3.17,0,0,1,0-3.18,5.93,5.93,0,0,0,.54-2.55c.08-3.35.13-6.71.08-10.07,0-2.79-.26-5.59-.36-8.38-.35-9.43-.54-18.87-1.06-28.29-.7-12.62-.76-25.25-.94-37.88-.13-8.71-.56-17.42-.83-26.13-.07-2.24-.11-4.48-.09-6.72a18.74,18.74,0,0,1,.34-2.35c.16-1.16.88-1.52,2-1.6,8-.64,16-1.36,24.07-1.95,4.38-.33,8.77-.39,13.15-.65a105.88,105.88,0,0,0,18.9-2.94c2-.49,3.91-1.36,5.87-2a10.77,10.77,0,0,1,2.27-.62,1.47,1.47,0,0,1,1.78,1.25c.17,1.79,1.32,3,2.29,4.35,7.84,10.82,18.42,17.52,31.32,20.69A55.91,55.91,0,0,0,405,209.36c4.57-.68,9.18-1.21,13.71-2.09,10.21-2,18-7.73,23.56-16.34,3.52-5.41,7-10.91,9.15-17.07a1.55,1.55,0,0,1,2.2-1.12c3.22.9,6.52,1.62,9.65,2.79,4.92,1.86,9.72,4.06,14.59,6.06a22.24,22.24,0,0,1,6.09,3.75c2,1.71,4.13,3.28,6.26,4.83A35.89,35.89,0,0,1,502.67,206a83.9,83.9,0,0,1,3.19,11c2.57,10.22,5.06,20.46,7.58,30.68.49,2,.52,2-1.3,2.95-2.83,1.46-5.69,2.85-8.54,4.27l6.12-4.07c1.8-1.19,1.82-1.21,1.35-3.31-.9-4.05-1.84-8.1-2.75-12.15-1.77-7.87-3.44-15.76-5.31-23.6a32.17,32.17,0,0,0-9.43-15.87c-3.33-3.19-6.65-6.4-10.74-8.77a49.06,49.06,0,0,0-7.42-3.82c-1.72-.63-3.41-1.37-5.07-2.15a77.57,77.57,0,0,0-15.39-5.3c-.91-.22-1.62-.41-2,.86-1.45,4.61-3.91,8.75-6.26,12.92a43.65,43.65,0,0,1-9.52,11.94,40.7,40.7,0,0,1-20.79,9.13c-1.57.25-3.12.56-4.68.84-3,.34-6,.75-9,1-6,.51-11.92.53-17.75-1.05-4.14-1.11-8.2-2.51-12.3-3.78l-.65-.29-.9-.35-6.25-3.26L362.33,202a52.2,52.2,0,0,1-9.16-8.07c-2.15-2.57-4.1-5.31-6.09-8-1.1-1.47-1.06-1.47-2.73-1a59.88,59.88,0,0,1-6.28,1.54c-6.23,1-12.47,1.91-18.73,2.61-4.52.51-9.08.6-13.62.92-6.77.48-13.54,1-20.31,1.49-2.24.17-2.81.72-2.82,2.95,0,2.39.08,4.79.1,7.19q.15,14.26.3,28.53c.1,11.58.19,23.16,1,34.73.28,4.3.44,8.61.71,12.91.4,6.29.92,12.57,1.26,18.87a121.23,121.23,0,0,0,1.57,16.91c.74,3.83,2.06,7.55,2.12,11.51,0,1.27.21,2.54.32,3.82.2,2.38.25,4.79.63,7.14.76,4.73,1.72,9.42,2.55,14.14a5.59,5.59,0,0,0,5.17,5c2,.29,3.93.67,5.9,1a40.74,40.74,0,0,0,6.62,1c6,0,12-.34,18-.54l6.27-.21.66-.17h2.44l.92,0,5.32,0h1l.68.21,2.87.16c6.05.41,12.14.48,18.13,1.34,7.44,1.05,14.91,1.62,22.39,2,7.09.32,14.19.54,21.29.61,6.13.06,12.28-.15,18.42-.25l1.59-.2,3.17-.09c2.88,0,5.76,0,8.63.11,5.1.23,10.19.65,15.3.81,5.81.19,11.42,1,16.65,3.81a10.31,10.31,0,0,0,3.42,1c2,.29,2.8-.39,3-2.37a8.65,8.65,0,0,0,0-1.44c-.16-3.35-.32-6.69-.49-10,0-.4-.06-.8-.1-1.19q-.65-5.83-1.3-11.66c-.43-3.88-.83-7.77-1.28-11.66-.51-4.35-1.05-8.71-1.59-13.07s-.73-9.07-1.86-13.5a23.72,23.72,0,0,1-.38-8.1c.22-2.3.55-4.6.79-6.9.2-2,.34-4,.51-6l.15-.91a13.47,13.47,0,0,1,.51-3.15,7.85,7.85,0,0,0,.37-4.09l.05-.93c0-.36.05-.72.08-1.07l1.29-9.79c1,0,.74.81.8,1.39.14,1.51-.47,3.1.46,4.82l2.6-1.54,5.73-2.76Z" />
        <path class="color-shadow-dark"
            d="M411.69,211.55c1.56-.28,3.11-.59,4.68-.84a40.7,40.7,0,0,0,20.79-9.13,43.65,43.65,0,0,0,9.52-11.94c2.35-4.17,4.81-8.31,6.26-12.92.4-1.27,1.11-1.08,2-.86a77.57,77.57,0,0,1,15.39,5.3c1.66.78,3.35,1.52,5.07,2.15a49.06,49.06,0,0,1,7.42,3.82c4.09,2.37,7.41,5.58,10.74,8.77A32.17,32.17,0,0,1,503,211.77c1.87,7.84,3.54,15.73,5.31,23.6.91,4,1.85,8.1,2.75,12.15.47,2.1.45,2.12-1.35,3.31l-6.12,4.07a7.07,7.07,0,0,1-1.32.91c-3,1.18-6,2.32-9,3.47l-6,2.53a9.68,9.68,0,0,1,.44-1.17c.27-.5.6-1,.91-1.44,2.05-1.36,4.14-2.65,6.13-4.07,3.85-2.75,8.12-4.71,12.31-6.85,1.93-1,2.08-1.19,1.44-3.1-1.9-5.66-3.87-11.29-5.79-16.94-.41-1.2-.75-2.41-1.12-3.62.13-.26.42-.56.38-.8-.3-2-.57-4.07-1-6.08a94.34,94.34,0,0,0-4.33-14.34,13.43,13.43,0,0,0-3.11-4.73,75.64,75.64,0,0,0-8.13-6.58,46.26,46.26,0,0,0-8.56-5.16c-4.68-1.94-9.6-3.34-14.44-4.89-1.85-.59-3.77-1-5.58-1.45L454,187.18a14.11,14.11,0,0,1-3.68,5.77,62.81,62.81,0,0,1-12.88,10.55A66.52,66.52,0,0,1,418,211.84a16.15,16.15,0,0,1-4.23.06A15.22,15.22,0,0,1,411.69,211.55Z" />
        <path class="color-shadow-dark" d="M475.72,281.78l.3-2Z" />
        <path class="color-base"
            d="M411.69,211.55a15.22,15.22,0,0,0,2.11.35,16.15,16.15,0,0,0,4.23-.06,66.52,66.52,0,0,0,19.45-8.34A62.81,62.81,0,0,0,450.36,193a14.11,14.11,0,0,0,3.68-5.77c1.17.2,2.37.3,3.5.61,2.69.73,5.36,1.52,8,2.35,5,1.58,10,3.11,15,4.85a23.43,23.43,0,0,1,7.59,4.48,54.83,54.83,0,0,1,8.53,9.66,12.69,12.69,0,0,1,1.79,3.61c.68,2.27,1.07,4.64,1.7,6.93.45,1.66.22,3.52,1.43,5,.37,1.21.71,2.42,1.12,3.62,1.92,5.65,3.89,11.28,5.79,16.94.64,1.91.49,2.12-1.44,3.1-4.19,2.14-8.46,4.1-12.31,6.85-2,1.42-4.08,2.71-6.13,4.07l-4.27,1.29c.24-1.5.48-2.88.68-4.26.51-3.54,1.27-7,1.21-10.64-.11-6.06.14-12.14-.53-18.17a35.82,35.82,0,0,0-1-5.13c-.14-.52-.9-1.32-1.22-1.26a2.35,2.35,0,0,0-1.48,1.26,23.56,23.56,0,0,0-1,3.92c-.84,4.2-1.49,8.44-2.5,12.6-.89,3.71-2,7.33-2.42,11.17-.47,4.8-1.24,9.58-1.8,14.39-.39,3.39-.82,6.79-.91,10.19-.14,4.81-1.75,9.36-2.15,14.11-.33,3.95-1.21,7.89-1.19,11.83,0,5.08-.85,10.15-.11,15.23a8.26,8.26,0,0,1-.05,1.92c-.12,1.42-.38,2.84-.39,4.26,0,5.59,0,11.19,0,16.79a10.63,10.63,0,0,0,.35,2.82,30.73,30.73,0,0,1,1.1,10.14,11.77,11.77,0,0,0,.24,2.12c0,.32.16.62.19.93.16,1.71-.35,2.15-2.08,1.78-.23-.05-.45-.2-.68-.24a44.36,44.36,0,0,0-9-1.08c-8.79.05-17.59,0-26.39,0-3.42,0-6.83.31-10.25.48a3.91,3.91,0,0,0-.48.05c-3.16.29-6.31.78-9.48.84a69.65,69.65,0,0,1-10.5-.32c-2.64-.35-5.39.31-8.09.34-5.67.07-11.35,0-17,0a5.78,5.78,0,0,1-.72,0c-4.26-.46-8.51-1.23-12.77-1.32-5.12-.11-10.08-1.34-15.16-1.59-3.81-.18-7.6-.63-11.4-.88-3.57-.23-7.16-.34-10.73-.51-.32,0-.63-.11-.94-.15-2.29-.27-4.57-.56-6.86-.79s-4.44-.27-6.65-.56c-2.74-.37-5.46-1-8.21-1.35-1.09-.16-1.44-.7-1.56-1.73a33.37,33.37,0,0,0-.78-4.2c-1.73-7.19-3.58-14.34-5.2-21.55-1-4.25-2-8.53-1.69-13a5.37,5.37,0,0,0-.06-1.2c-.44-3.46-.9-6.91-1.36-10.37-.66-5-1-10.14-2.08-15.08-1.23-5.57-1.14-11.21-1.72-16.8-.38-3.72-.15-7.47-.43-11.22-.5-6.75-.44-13.55-.57-20.33-.06-2.48,0-5,0-7.44a8.11,8.11,0,0,0-.09-1.91,29.18,29.18,0,0,1-.26-9.77c.46-4.92.29-9.86.8-14.76.17-1.49.34-3,.53-4.48.11-.85.67-1.18,1.48-1.25,3.31-.31,6.61-.78,9.92-.93,4.36-.2,8.73,0,13.09-.49,3.3-.37,6.65-.38,10-.55a3.91,3.91,0,0,0,.48,0l10.16-.85a5.85,5.85,0,0,0,.79,1.09,65.65,65.65,0,0,0,17,10c4.91,2,9.74,4.28,15.06,5,1.27.18,2.66.79,3.73-.54l.9.35.65.29c4.1,1.27,8.16,2.67,12.3,3.78,5.83,1.58,11.79,1.56,17.75,1.05C405.69,212.3,408.68,211.89,411.69,211.55Z" />
        <path class="color-shadow"
            d="M288.88,200.12c-.51,4.9-.34,9.84-.8,14.76a29.18,29.18,0,0,0,.26,9.77,8.11,8.11,0,0,1,.09,1.91c0,2.48,0,5,0,7.44.13,6.78.07,13.58.57,20.33.28,3.75.05,7.5.43,11.22.58,5.59.49,11.23,1.72,16.8,1.09,4.94,1.42,10,2.08,15.08.46,3.46.92,6.91,1.36,10.37a5.37,5.37,0,0,1,.06,1.2c-.31,4.43.73,8.71,1.69,13,1.62,7.21,3.47,14.36,5.2,21.55a33.37,33.37,0,0,1,.78,4.2c.12,1,.47,1.57,1.56,1.73,2.75.4,5.47,1,8.21,1.35,2.21.29,4.44.35,6.65.56s4.57.52,6.86.79c.31,0,.62.14.94.15,3.57.17,7.16.28,10.73.51,3.8.25,7.59.7,11.4.88,5.08.25,10,1.48,15.16,1.59,4.26.09,8.51.86,12.77,1.32a5.78,5.78,0,0,0,.72,0c5.68,0,11.36.05,17,0,2.7,0,5.45-.69,8.09-.34a69.65,69.65,0,0,0,10.5.32c3.17-.06,6.32-.55,9.48-.84a3.91,3.91,0,0,1,.48-.05c3.42-.17,6.83-.45,10.25-.48,8.8-.07,17.6,0,26.39,0a44.36,44.36,0,0,1,9,1.08c.23,0,.45.19.68.24,1.73.37,2.24-.07,2.08-1.78,0-.31-.15-.61-.19-.93a11.77,11.77,0,0,1-.24-2.12,30.73,30.73,0,0,0-1.1-10.14,10.63,10.63,0,0,1-.35-2.82c0-5.6,0-11.2,0-16.79,0-1.42.27-2.84.39-4.26a8.26,8.26,0,0,0,.05-1.92c-.74-5.08.14-10.15.11-15.23,0-3.94.86-7.88,1.19-11.83.4-4.75,2-9.3,2.15-14.11.09-3.4.52-6.8.91-10.19.56-4.81,1.33-9.59,1.8-14.39.39-3.84,1.53-7.46,2.42-11.17,1-4.16,1.66-8.4,2.5-12.6a23.56,23.56,0,0,1,1-3.92,2.35,2.35,0,0,1,1.48-1.26c.32-.06,1.08.74,1.22,1.26a35.82,35.82,0,0,1,1,5.13c.67,6,.42,12.11.53,18.17.06,3.61-.7,7.1-1.21,10.64-.2,1.38-.44,2.76-.68,4.26l4.27-1.29c-.31.48-.64.94-.91,1.44a9.68,9.68,0,0,0-.44,1.17l-5.73,2.76a4.74,4.74,0,0,1-.58-1.46c-.21-4.19-.33-8.38-.53-12.57a6.55,6.55,0,0,0-.48-2.28.91.91,0,0,0-1.67.07,3.9,3.9,0,0,0-.22.91c-.8,3.53-.47,7.1-.38,10.66l-1.29,9.79c-.75.3-.85.65-.08,1.07l-.05.93c-.35.25-.9.43-1,.75a10.25,10.25,0,0,0-.51,3c0,1.17-.65,2.53.63,3.5l-.15.91c-.86,0-1,.59-1,1.3-.46,3.93-.77,7.9-1.5,11.78-.91,4.8-.3,9.53.22,14.26a63.32,63.32,0,0,1,.82,9.23,19.68,19.68,0,0,0,.11,2.87c.24,2,.72,4.07.81,6.11.25,5.57.39,11.15.5,16.72.07,3.36,0,6.72,0,10.07a6.37,6.37,0,0,0,.08,1.91,9.45,9.45,0,0,1-.05,5.4c-.35,1.47-.26,1.48-1.83,1.09-3.78-.95-7.57-1.89-11.53-1.58a8.55,8.55,0,0,1-1.64-.24c-2.13-.24-4.25-.57-6.38-.68-6.3-.31-12.55.54-18.82.95-.65,0-1.06.28-1.12,1l-3.17.09-1.59.2c-6.14.1-12.29.31-18.42.25-7.1-.07-14.2-.29-21.29-.61-7.48-.34-15-.91-22.39-2-6-.86-12.08-.93-18.13-1.34l-2.87-.16-.68-.21h-1l-5.32,0-.92,0h-2.44l-.66.17-6.27.21c-.29-.31-.57-.87-.89-.89-.94-.07-1.9.1-2.85.12-1.33,0-2.67,0-4,0-1.51,0-3.09-.42-4.52-.11-4.06.89-7.92,0-11.74-1a8.79,8.79,0,0,1-6.71-7.58c-.09-.63-.22-1.25-.37-1.86-1.13-4.39-2.55-8.73-3.35-13.18-1.54-8.51-4.46-16.74-5-25.44-.19-2.92-.76-5.83-.82-8.76-.13-6.31,0-12.63,0-19,0-2.36.63-4.64.1-7.1-.7-3.23-.6-6.63-1.12-9.92A98.91,98.91,0,0,1,286,246.77c0-.24,0-.48,0-.72-.3-4.2-.74-8.39-.87-12.6-.09-2.77.41-5.55.39-8.33,0-3.58.22-7.15-.37-10.75-.72-4.45.6-8.69,2.34-12.77C287.76,201,288,200.19,288.88,200.12Z" />
        <path class="color-shadow-dark"
            d="M288.88,200.12c-.91.07-1.12.84-1.39,1.48-1.74,4.08-3.06,8.32-2.34,12.77.59,3.6.35,7.17.37,10.75,0,2.78-.48,5.56-.39,8.33.13,4.21.57,8.4.87,12.6,0,.24,0,.48,0,.72a98.91,98.91,0,0,0,1.38,15.17c.52,3.29.42,6.69,1.12,9.92.53,2.46-.11,4.74-.1,7.1,0,6.32-.09,12.64,0,19,.06,2.93.63,5.84.82,8.76.57,8.7,3.49,16.93,5,25.44.8,4.45,2.22,8.79,3.35,13.18.15.61.28,1.23.37,1.86a8.79,8.79,0,0,0,6.71,7.58c3.82,1.07,7.68,1.93,11.74,1,1.43-.31,3,.08,4.52.11,1.33,0,2.67,0,4,0,1,0,1.91-.19,2.85-.12.32,0,.6.58.89.89-6,.2-12,.51-18,.54a40.74,40.74,0,0,1-6.62-1c-2-.32-3.93-.7-5.9-1a5.59,5.59,0,0,1-5.17-5c-.83-4.72-1.79-9.41-2.55-14.14-.38-2.35-.43-4.76-.63-7.14-.11-1.28-.3-2.55-.32-3.82-.06-4-1.38-7.68-2.12-11.51a121.23,121.23,0,0,1-1.57-16.91c-.34-6.3-.86-12.58-1.26-18.87-.27-4.3-.43-8.61-.71-12.91-.77-11.57-.86-23.15-1-34.73q-.14-14.27-.3-28.53c0-2.4-.1-4.8-.1-7.19,0-2.23.58-2.78,2.82-2.95,6.77-.49,13.54-1,20.31-1.49,4.54-.32,9.1-.41,13.62-.92,6.26-.7,12.5-1.65,18.73-2.61a59.88,59.88,0,0,0,6.28-1.54c1.67-.45,1.63-.45,2.73,1,2,2.7,3.94,5.44,6.09,8a52.2,52.2,0,0,0,9.16,8.07l2.49,1.85c-.26.56-.65.57-1.16.32-1.77-.9-3.55-1.8-5.34-2.65a28.5,28.5,0,0,1-9-6.49c-1.28-1.41-2.7-2.69-4-4.07a2.46,2.46,0,0,0-2.56-.69c-2.7.54-5.45.86-8.18,1.27l-10.16.85a3.91,3.91,0,0,1-.48,0c-3.32.17-6.67.18-10,.55-4.36.5-8.73.29-13.09.49-3.31.15-6.61.62-9.92.93-.81.07-1.37.4-1.48,1.25C289.22,197.13,289.05,198.63,288.88,200.12Z" />
        <path class="color-shadow-dark"
            d="M433.88,360c.06-.68.47-.92,1.12-1,6.27-.41,12.52-1.26,18.82-.95,2.13.11,4.25.44,6.38.68a8.55,8.55,0,0,0,1.64.24c4-.31,7.75.63,11.53,1.58,1.57.39,1.48.38,1.83-1.09a9.45,9.45,0,0,0,.05-5.4,6.37,6.37,0,0,1-.08-1.91c0-3.35.05-6.71,0-10.07-.11-5.57-.25-11.15-.5-16.72-.09-2-.57-4.07-.81-6.11a19.68,19.68,0,0,1-.11-2.87,63.32,63.32,0,0,0-.82-9.23c-.52-4.73-1.13-9.46-.22-14.26.73-3.88,1-7.85,1.5-11.78.08-.71.17-1.28,1-1.3-.17,2-.31,4-.51,6-.24,2.3-.57,4.6-.79,6.9a23.72,23.72,0,0,0,.38,8.1c1.13,4.43,1.3,9,1.86,13.5s1.08,8.72,1.59,13.07c.45,3.89.85,7.78,1.28,11.66s.87,7.77,1.3,11.66c0,.39.08.79.1,1.19.17,3.35.33,6.69.49,10a8.65,8.65,0,0,1,0,1.44c-.23,2-1,2.66-3,2.37a10.31,10.31,0,0,1-3.42-1c-5.23-2.76-10.84-3.62-16.65-3.81-5.11-.16-10.2-.58-15.3-.81C439.64,360,436.76,360,433.88,360Z" />
        <path class="color-shadow"
            d="M334.51,191.52c2.73-.41,5.48-.73,8.18-1.27a2.46,2.46,0,0,1,2.56.69c1.33,1.38,2.75,2.66,4,4.07a28.5,28.5,0,0,0,9,6.49c1.79.85,3.57,1.75,5.34,2.65.51.25.9.24,1.16-.32l6.25,3.26c-1.07,1.33-2.46.72-3.73.54-5.32-.76-10.15-3.06-15.06-5a65.65,65.65,0,0,1-17-10A5.85,5.85,0,0,1,334.51,191.52Z" />
        <path class="color-shadow-dark"
            d="M477.67,259.9c-.09-3.56-.42-7.13.38-10.66a3.9,3.9,0,0,1,.22-.91.91.91,0,0,1,1.67-.07,6.55,6.55,0,0,1,.48,2.28c.2,4.19.32,8.38.53,12.57a4.74,4.74,0,0,0,.58,1.46l-2.6,1.54c-.93-1.72-.32-3.31-.46-4.82C478.41,260.71,478.67,259.94,477.67,259.9Z" />
        <path class="color-shadow-dark"
            d="M475.37,278.93c-1.28-1-.6-2.33-.63-3.5a10.25,10.25,0,0,1,.51-3c.1-.32.65-.5,1-.75a7.85,7.85,0,0,1-.37,4.09A13.47,13.47,0,0,0,475.37,278.93Z" />
        <path class="color-shadow-dark"
            d="M476.3,270.76c-.77-.42-.67-.77.08-1.07C476.35,270,476.33,270.4,476.3,270.76Z" />
        <path class="color-shadow-dark" d="M429.12,360.28l1.59-.2Z" />
        <path class="color-shadow" d="M372.62,207.73l-.65-.29Z" />
        <path class="color-shadow-dark" d="M335,356.42l.66-.17Z" />
        <path class="color-shadow-dark" d="M338.13,356.26l.92,0Z" />
        <path class="color-shadow-dark" d="M344.37,356.26h0Z" />
        <path class="color-shadow-dark" d="M345.34,356.25l.68.21Z" />
        <path class="color-shadow"
            d="M501.58,224.62c-1.21-1.43-1-3.29-1.43-5-.63-2.29-1-4.66-1.7-6.93a12.69,12.69,0,0,0-1.79-3.61,54.83,54.83,0,0,0-8.53-9.66,23.43,23.43,0,0,0-7.59-4.48c-5-1.74-10-3.27-15-4.85-2.65-.83-5.32-1.62-8-2.35-1.13-.31-2.33-.41-3.5-.61l2.75-6.59c1.81.47,3.73.86,5.58,1.45,4.84,1.55,9.76,3,14.44,4.89a46.26,46.26,0,0,1,8.56,5.16,75.64,75.64,0,0,1,8.13,6.58,13.43,13.43,0,0,1,3.11,4.73,94.34,94.34,0,0,1,4.33,14.34c.45,2,.72,4,1,6.08C502,224.06,501.71,224.36,501.58,224.62Z" />
    </g>
</svg>
