<svg id="pryamoy" xmlns="http://www.w3.org/2000/svg" viewBox="0 0 672 960">
    <g id="img_4_img" data-name="img 4 img">
        <path class="outline"
            d="M280.76,193.18l.42-3.05c1.14-.13,2.38-.29,3.63-.39,4.94-.39,9.89-.79,14.84-1.15q7.19-.53,14.38-1a134.14,134.14,0,0,0,18.67-1.95c4.48-.9,9-1.67,13.14-3.76a3.36,3.36,0,0,1,2.28,0c.8.23.76,1,.91,1.82a8.09,8.09,0,0,0,1.61,2.77c8.23,11.69,19.51,18.77,33.39,21.78,2.79.6,5.65.87,8.48,1.21,5.63.68,11.18-.26,16.74-.94a61.37,61.37,0,0,0,14.87-3.26,35.24,35.24,0,0,0,17.5-14.54c3.16-5.07,5.82-10.45,8.7-15.7a2.72,2.72,0,0,0,.22-.56c.9-2.64.63-2.53,3.61-1.79a89.19,89.19,0,0,1,18.09,6.5c2,1,4.28,1.62,6.26,2.71a43.39,43.39,0,0,1,5.58,3.87q5.1,4,10.08,8.11c3.24,2.69,5.08,6.41,7.08,10s2.72,7.63,3.7,11.57q3.53,14.17,7,28.38l1.43,5.88-6.28,2.52a1.24,1.24,0,0,1-.14-.18s0-.07,0-.09c1.08-.69,2.14-1.39,3.23-2.06a1.09,1.09,0,0,0,.62-1.35q-4.05-17.92-8-35.86a34.51,34.51,0,0,0-9.85-17.22,65.83,65.83,0,0,0-12.86-10.11,22.27,22.27,0,0,0-2.67-1.35c-3.37-1.45-6.79-2.82-10.14-4.31a77.51,77.51,0,0,0-14.53-4.53,21.51,21.51,0,0,1-1,2.74c-2.34,4.59-4.5,9.29-7.16,13.69-5,8.25-12,14.15-21.37,17-3.42,1-7,1.61-10.5,2.39-3.56.42-7.12.88-10.69,1.24a55.81,55.81,0,0,1-16.06-.67,79.86,79.86,0,0,1-15-4.6l-3.37-1.6c-.2-.13-.39-.27-.6-.38a53,53,0,0,1-14.75-11.73,97,97,0,0,1-6.08-8.16c-.66-1-1.17-1.12-2.2-.66a16.08,16.08,0,0,1-3.54,1.07c-3.84.71-7.68,1.48-11.55,1.94-5.85.69-11.73,1.17-17.61,1.68-4.84.43-9.69.8-14.54,1.15-4.14.3-8.28.54-12.42.79a2.38,2.38,0,0,0-2.46,2.5c0,1.56.18,3.11.18,4.67.06,10.31.06,20.63.15,30.95.05,5.14.27,10.28.41,15.42.14,5.43.26,10.85.42,16.28q.12,3.83.36,7.64c.24,3.9.56,7.78.81,11.68.23,3.54.4,7.08.6,10.62.28,4.77.58,9.55.83,14.32,0,.79-.18,1.59-.14,2.38.12,2.27.46,4.53.45,6.79a10.41,10.41,0,0,0,2.37,7,7.67,7.67,0,0,1,1.53,4.28c.05.31.08.63.13.94.48,3.15,1,6.3,1.44,9.46.7,5.17,1.33,10.35,2,15.54.45,3.79.83,7.6,1.24,11.4.37,3.45.57,6.93,1.15,10.34.89,5.31,2.14,10.55,3.06,15.86,1.29,7.39,3,14.67,4.56,22,1.72,8.14,3,16.38,4.15,24.62.74,5.2,1,10.46,1.41,15.7q.69,8.77,1.22,17.54c.28,4.54.44,9.08.7,13.62q.48,8.13,1.07,16.26c.35,4.68.78,9.36,1.18,14.05q.68,7.79,1.37,15.59c.49,5.4,1,10.79,1.52,16.19.46,4.76.94,9.52,1.37,14.28.45,5,.69,10,1.32,15a102.82,102.82,0,0,1,.85,16.35,18.26,18.26,0,0,1-.67,3.22c-.58-.95-1.67-1.61-1.37-3,.17-.8-.07-1.82-1.24-1.79s-1.05,1-1.36,1.84a12.3,12.3,0,0,1-.43-3c.94-8.5-.28-16.92-.81-25.37-.3-4.62-.6-9.25-1-13.86-.65-7.08-1.42-14.15-2.08-21.23-.33-3.46-.53-6.94-.8-10.4-.52-6.49-1.1-13-1.57-19.46-.34-4.66-.58-9.33-.81-14q-.75-15.45-1.46-30.89c-.14-3-.14-6-.46-9-.64-6.05-1.5-12.07-2.14-18.12a7.67,7.67,0,0,0-.86-3.5,1.31,1.31,0,0,1-.18-.81c.49-3.13-.54-6.09-1.12-9.07-2.07-10.54-4.41-21-6.41-31.58-1.09-5.72-1.73-11.53-2.49-17.31-1-7.32-1.82-14.66-2.82-22-.73-5.38-1.59-10.74-2.45-16.1a6.52,6.52,0,0,0-.76-1.84c-.86-1.67-1.78-3.31-2.59-5a3.54,3.54,0,0,1-.05-1.46c.16-7.92.56-15.84.42-23.75-.11-6.67-.91-13.32-1.27-20-.29-5.51-.41-11-.54-16.54q-.64-28.43-1.26-56.86a4.75,4.75,0,0,0-.22-1Z" />
        <path class="color-shadow-dark"
            d="M318.91,593.53a18.26,18.26,0,0,0,.67-3.22,102.82,102.82,0,0,0-.85-16.35c-.63-5-.87-10-1.32-15-.43-4.76-.91-9.52-1.37-14.28-.51-5.4-1-10.79-1.52-16.19q-.7-7.8-1.37-15.59c-.4-4.69-.83-9.37-1.18-14.05q-.6-8.13-1.07-16.26c-.26-4.54-.42-9.08-.7-13.62q-.54-8.77-1.22-17.54c-.4-5.24-.67-10.5-1.41-15.7-1.18-8.24-2.43-16.48-4.15-24.62-1.55-7.33-3.27-14.61-4.56-22-.92-5.31-2.17-10.55-3.06-15.86-.58-3.41-.78-6.89-1.15-10.34-.41-3.8-.79-7.61-1.24-11.4-.62-5.19-1.25-10.37-2-15.54-.42-3.16-1-6.31-1.44-9.46,0-.31-.08-.63-.13-.94a7.67,7.67,0,0,0-1.53-4.28,10.41,10.41,0,0,1-2.37-7c0-2.26-.33-4.52-.45-6.79,0-.79.18-1.59.14-2.38-.25-4.77-.55-9.55-.83-14.32-.2-3.54-.37-7.08-.6-10.62-.25-3.9-.57-7.78-.81-11.68q-.24-3.81-.36-7.64c-.16-5.43-.28-10.85-.42-16.28-.14-5.14-.36-10.28-.41-15.42-.09-10.32-.09-20.64-.15-30.95,0-1.56-.16-3.11-.18-4.67a2.38,2.38,0,0,1,2.46-2.5c4.14-.25,8.28-.49,12.42-.79,4.85-.35,9.7-.72,14.54-1.15,5.88-.51,11.76-1,17.61-1.68,3.87-.46,7.71-1.23,11.55-1.94a16.08,16.08,0,0,0,3.54-1.07c1-.46,1.54-.31,2.2.66a97,97,0,0,0,6.08,8.16A53,53,0,0,0,367.07,205c.21.11.4.25.6.38-.19.05-.43.19-.58.13a79.37,79.37,0,0,1-13.77-6.8,34.24,34.24,0,0,1-7.84-7.25c-1.28-1.52-2.27-1.77-4.17-1.23a52.36,52.36,0,0,1-7.75,1.06h-2.4c-.48-.33-.93-.48-1.21.23h-1.19c-.48-.33-.93-.48-1.21.23h-3.83l-3.12.23-.73.22-1.91,0-1,.22-1.9-.2-1,.44-2.63,0h-1.2l-11,.47h-.48l-2.16.23h-.48c-1.52.16-3.05.36-4.58.46-2.62.17-2.63.14-3.14,2.7-.12.61-.14,1.24-.21,1.87-.11,0-.29.06-.32.13-.87,2.43-1.78,4.84-2.56,7.3a15.9,15.9,0,0,0-.88,4.18c-.06,1.77.36,3.55.39,5.33.07,3.76,0,7.52,0,11.28,0,3.1-.09,6.2,0,9.3.17,4.77.45,9.54.72,14.3.13,2.3.24,4.61.52,6.9.65,5.51,1.53,11,2.06,16.52.39,4,.37,8,.53,12.05q0,.6,0,1.2c0,2.58.08,5.17-.1,7.74-.22,3-.48,6,.31,8.9,1.3,4.84,2.84,9.62,4.2,14.44a51.66,51.66,0,0,1,1.75,7.3c.53,4,.78,8,1.94,11.85,2.13,7.14,3.16,14.49,4.34,21.82.59,3.68,1.12,7.37,1.74,11.05.58,3.48,1.29,6.94,1.86,10.42s1,6.83,1.49,10.25c.64,4.63,1.34,9.26,1.85,13.91.4,3.58,1.43,7.05,1.32,10.72-.07,2.29.77,4.6,1.09,6.92.47,3.46.8,6.94,1.27,10.4.58,4.28,1.37,8.54,1.83,12.83.48,4.46.76,8.95,1,13.43.19,4,.26,8.06.24,12.09,0,8.51-.17,17-.2,25.52q0,5.08.25,10.17c.13,2.49.47,5,.77,7.45.34,2.8.77,5.58,1.11,8.38.37,3,.67,6,1,9,.55,4.93,1.12,9.85,1.64,14.78.36,3.36.66,6.72,1,10.07.47,4.78,1.06,9.55,1.38,14.34.26,3.9.1,7.82.31,11.72.16,2.81.6,5.6,1,8.39,0,.28.43.62.73.72a8.91,8.91,0,0,0,1.64.27l1.66,0a3.92,3.92,0,0,0,1.07.82,33.17,33.17,0,0,0,3.78,1.07c5.15,1.07,10.32,2.06,15.47,3.15a16.25,16.25,0,0,1,2.74,1.15,7.72,7.72,0,0,1-1,.05c-4.81-.31-9.61-.65-14.42-1-2.3-.15-4.6-.23-6.91-.34C324.55,596.58,321.45,595.81,318.91,593.53Z" />
        <path class="color-shadow"
            d="M350.13,598a16.25,16.25,0,0,0-2.74-1.15c-5.15-1.09-10.32-2.08-15.47-3.15a33.17,33.17,0,0,1-3.78-1.07,3.92,3.92,0,0,1-1.07-.82c1.15.07,2.3.21,3.45.2,4.19,0,8.38-.27,12.57-.19,4.37.09,8.74.45,13.11.71a17.36,17.36,0,0,1,2.59.36c4.65,1,9.3,2.08,14,3.12a105.06,105.06,0,0,0,15.73,1.78c1.27.08,2.54.15,3.8.27,3.05.29,6.08.63,9.12.92s5.86.53,8.79.74c4.8.33,9.6.81,14.4.9,6,.11,12,0,18-.23,2.33-.06,4.66-.46,7-.75,2.71-.35,5.42-1.09,8.13-1A44.61,44.61,0,0,0,469,597c4.54-1.13,9-2.69,13.64-3.38s9.52-1.75,14.26-2.74c2.71-.57,2.27,0,2.3-2.73,0-.36,0-.72,0-1.08-.31-4.6-.59-9.21-1-13.8-.2-2.53-.54-5.05-.84-7.57-.34-2.88-.66-5.76-1.08-8.63-.37-2.5-.82-5-1.35-7.48s-1.33-4.76-1.72-7.18c-.69-4.19-1.07-8.42-2.3-12.52a138.08,138.08,0,0,1-5-20.74c-.78-5.7-1.59-11.39-2.29-17.1-.55-4.49-.92-9-1.46-13.5-.6-4.92-1.11-9.86-2-14.74-1.48-8.29-3.28-16.51-4.81-24.79-.63-3.43-1-6.92-1.34-10.39-.32-2.92-.52-5.85-.77-8.78-.47-5.34-1-10.68-1.39-16-.19-2.59-.17-5.18-.25-7.77-.16-5.14-.31-10.28-.49-15.42-.13-3.38-.32-6.76-.47-10.14q-.36-8.11-.73-16.23c-.08-1.87-.15-3.74-.25-5.61-.05-1-.16-2-.27-3-.3-2.8-.62-5.6-.91-8.4s-.52-5.3-.77-7.95c-.31-3.4-.86-6.8-.86-10.2,0-4.69.44-9.38.65-14.07.07-1.44,0-2.88,0-4.32a3.85,3.85,0,0,1,.56.92c.95,3.65,2.07,7.28,2.76,11,.91,4.87,1.52,9.8,2.18,14.71.27,2,.35,4,.5,6.05.32,4.16.67,8.32.94,12.48.15,2.47.15,4.94.25,7.41.15,3.34.4,6.68.47,10,.13,6.55.17,13.1.25,19.65,0,.36,0,.72,0,1.08.14,3.67,1.36,7.19,1.29,10.93a29.42,29.42,0,0,0,1.29,7.84,76.84,76.84,0,0,1,2.41,13c.39,4.32.47,8.66.78,13a63.19,63.19,0,0,0,.9,7.67c1.23,6.12,2.64,12.19,4,18.29a98.89,98.89,0,0,1,2,16.89c.24,5.58.18,11.18.28,16.76,0,1.2.14,2.39.27,3.57.45,4.06.81,8.14,1.44,12.17a88.68,88.68,0,0,0,2.21,10.48c1.16,4.09,2.77,8.06,4,12.12a39.93,39.93,0,0,1,2.13,13.85c-.13,2.9-.05,5.8,0,8.7a19,19,0,0,0,.28,3.45,87.12,87.12,0,0,1,1.65,17.72c-.06,3.67.12,7.34.22,11,0,1.23.25,2.46.26,3.69,0,3,0,6,0,9.06-3.73.49-7.53,1-11.35,1.49a119.16,119.16,0,0,0-12.11,1.82c-5.17,1.17-10.48,1.73-15.74,2.51a140.21,140.21,0,0,1-18.32,1.2l-1,0c-2.59.07-5.18.2-7.77.19-3.63,0-7.26-.18-10.89-.17-.63,0-1.6-.16-1.86.87l-15.51.08c-1.39,0-2.78,0-4.17,0-.23-.17-.44-.48-.67-.48-2.09,0-4.19,0-6.29,0s-3.95-.16-5.92-.32c-4.29-.36-8.57-.79-12.86-1.16-5.24-.46-10.49-.89-15.73-1.32C357.2,598.55,353.66,598.3,350.13,598Z" />
        <path class="color-shadow-dark"
            d="M421.89,602.1c.26-1,1.23-.87,1.86-.87,3.63,0,7.26.16,10.89.17,2.59,0,5.18-.12,7.77-.19l1,0a140.21,140.21,0,0,0,18.32-1.2c5.26-.78,10.57-1.34,15.74-2.51a119.16,119.16,0,0,1,12.11-1.82c3.82-.47,7.62-1,11.35-1.49,0-3.1,0-6.08,0-9.06,0-1.23-.22-2.46-.26-3.69-.1-3.67-.28-7.34-.22-11a87.12,87.12,0,0,0-1.65-17.72,19,19,0,0,1-.28-3.45c0-2.9-.12-5.8,0-8.7a39.93,39.93,0,0,0-2.13-13.85c-1.28-4.06-2.89-8-4-12.12a88.68,88.68,0,0,1-2.21-10.48c-.63-4-1-8.11-1.44-12.17-.13-1.18-.25-2.37-.27-3.57-.1-5.58,0-11.18-.28-16.76a98.89,98.89,0,0,0-2-16.89c-1.33-6.1-2.74-12.17-4-18.29a63.19,63.19,0,0,1-.9-7.67c-.31-4.33-.39-8.67-.78-13a76.84,76.84,0,0,0-2.41-13,29.42,29.42,0,0,1-1.29-7.84c.07-3.74-1.15-7.26-1.29-10.93,0-.36,0-.72,0-1.08-.08-6.55-.12-13.1-.25-19.65-.07-3.34-.32-6.68-.47-10-.1-2.47-.1-4.94-.25-7.41-.27-4.16-.62-8.32-.94-12.48-.15-2-.23-4.05-.5-6.05-.66-4.91-1.27-9.84-2.18-14.71-.69-3.7-1.81-7.33-2.76-11a3.85,3.85,0,0,0-.56-.92l.24-5.51c.32-.31.8-.56.92-.93q1-3.17,1.87-6.38c1.5-5.56,3.57-11,4.39-16.7a9.9,9.9,0,0,1,.87-2.19,5.79,5.79,0,0,1,.12,1.16c-.12,1.35-.28,2.7-.44,4-.61,5.23-1.3,10.45-1.81,15.69a34.43,34.43,0,0,0-.24,8.1c1.49,10.22,3.4,20.38,4.86,30.6,1,6.78,1.56,13.62,2.1,20.45.34,4.3.29,8.62.37,12.94.1,4.83,0,9.67.24,14.5a51.36,51.36,0,0,0,1.71,12.43,45.8,45.8,0,0,1,1.79,13.48c-.05,4.19-.09,8.39-.09,12.58a24.06,24.06,0,0,0,1.72,9.72,25.82,25.82,0,0,1,1.54,5.28c.92,4.78,1.71,9.58,2.58,14.37A110,110,0,0,1,492,463.5q.11,18.28.32,36.57a37.9,37.9,0,0,0,2.81,14.38c3.51,8.29,5,17.07,6.23,25.89.64,4.55,1,9.13,1.56,13.68.8,6.25,1.76,12.49,2.59,18.74a70.38,70.38,0,0,1,.66,15.28c-.24,2.9-.71,5.78-.95,8.68-.08.94-.31,1.17-1.25,1.18-3.55.06-7.11.07-10.64.41-7.27.7-14.51,1.66-21.77,2.4-4.11.43-8.25.67-12.38.94-1.47.09-3,0-4.43,0-.31,0-.61.28-.91.43-1,0-2.07.09-3.1.09L423,602.16C422.6,602.15,422.24,602.12,421.89,602.1Z" />
        <path class="outline"
            d="M453.81,602.12c.3-.15.6-.42.91-.43,1.47-.05,3,0,4.43,0,4.13-.27,8.27-.51,12.38-.94,7.26-.74,14.5-1.7,21.77-2.4,3.53-.34,7.09-.35,10.64-.41.94,0,1.17-.24,1.25-1.18.24-2.9.71-5.78.95-8.68a70.38,70.38,0,0,0-.66-15.28c-.83-6.25-1.79-12.49-2.59-18.74-.59-4.55-.92-9.13-1.56-13.68-1.24-8.82-2.72-17.6-6.23-25.89a37.9,37.9,0,0,1-2.81-14.38q-.24-18.29-.32-36.57a110,110,0,0,0-1.74-19.17c-.87-4.79-1.66-9.59-2.58-14.37a25.82,25.82,0,0,0-1.54-5.28,24.06,24.06,0,0,1-1.72-9.72c0-4.19,0-8.39.09-12.58a45.8,45.8,0,0,0-1.79-13.48A51.36,51.36,0,0,1,481,376.47c-.2-4.83-.14-9.67-.24-14.5-.08-4.32,0-8.64-.37-12.94-.54-6.83-1.13-13.67-2.1-20.45-1.46-10.22-3.37-20.38-4.86-30.6a34.43,34.43,0,0,1,.24-8.1c.51-5.24,1.2-10.46,1.81-15.69.16-1.34.32-2.69.44-4a5.79,5.79,0,0,0-.12-1.16c.13-.62.27-1.24.4-1.86l.09-1c.31-2.22.63-4.43.94-6.64a4.3,4.3,0,0,1,.56,1.22c.18,1.73-.41,3.52.48,5.39l2-1.36,4.35-2.11c3-1.39,6-2.8,9-4.14,1.61-.72,3.29-1.32,4.93-2q-10.32,5.78-20.66,11.54a1.78,1.78,0,0,0-1,1.54c-.72,6.71-1.59,13.41-2.23,20.14a48.35,48.35,0,0,0,.23,6.46c.3,8.25,1.82,16.35,3,24.5.86,6,1.62,12.05,2.46,18.08,1.15,8.31,1,16.68,1.43,25,.24,5.28.17,10.57.65,15.82a66.29,66.29,0,0,0,2.11,9.55c.62,2.56,1.46,5.07,2,7.64a26.81,26.81,0,0,1,.34,4.83c.09,4,.13,8,.2,12a21.55,21.55,0,0,0,.15,4.18c.52,2.52,1.44,5,2,7.48,1.16,5.57,2.21,11.17,3.23,16.76q.84,4.59,1.39,9.21c.34,2.76.64,5.54.71,8.32.21,8.54.25,17.09.47,25.63.13,5.34.46,10.68.71,16a49.72,49.72,0,0,0,3.88,15.86,61.67,61.67,0,0,1,3.45,14.41c.85,6.32,1.36,12.68,2.12,19q1,8.13,2.22,16.23c1.15,7.43,2.35,14.85,2,22.4-.11,2.87-.51,5.73-.8,8.59,0,.15-.21.28-.47.6l-.51-2.3-.24-.06c-.23.91-.47,1.82-.74,2.84-1,0-2.06,0-3.09,0-4.44,0-8.82.69-13.23,1.18-6.83.76-13.7,1.22-20.56,1.63C464.36,601.94,459.08,602,453.81,602.12Z" />
        <path class="color-shadow-dark"
            d="M498.46,256.53c-1.64.65-3.32,1.25-4.93,2-3,1.34-6,2.75-9,4.14a10.63,10.63,0,0,1,.87-1c1.28-1.14,2.59-2.26,3.9-3.39a6,6,0,0,0,1-.54,73.22,73.22,0,0,1,12.57-7.84l5.72-2.86c-.82-2.45-1.61-4.82-2.39-7.2q-2-6.14-4-12.27c-.82-4.21-1.48-8.46-2.52-12.61-1-3.86-2.26-7.63-3.53-11.41a9.17,9.17,0,0,0-1.79-3.33,66.09,66.09,0,0,0-5.76-5.34c-4.58-3.79-9.37-7.31-15.07-9.24s-11.19-3.46-16.77-5.21c-.74-.23-.89.11-1.1.66-.7,1.89-1.44,3.77-2.17,5.66a28.09,28.09,0,0,1-2.22,4,57.85,57.85,0,0,1-9.77,9.25,68.39,68.39,0,0,1-11.33,6.79,55,55,0,0,1-14.68,5.14c-1,.2-2.17.38-2.81-.85,3.51-.78,7.08-1.35,10.5-2.39,9.33-2.82,16.38-8.72,21.37-17,2.66-4.4,4.82-9.1,7.16-13.69a21.51,21.51,0,0,0,1-2.74,77.51,77.51,0,0,1,14.53,4.53c3.35,1.49,6.77,2.86,10.14,4.31a22.27,22.27,0,0,1,2.67,1.35,65.83,65.83,0,0,1,12.86,10.11,34.51,34.51,0,0,1,9.85,17.22q4,17.92,8,35.86a1.09,1.09,0,0,1-.62,1.35c-1.09.67-2.15,1.37-3.23,2.06,0,0-.05.08,0,.09a1.24,1.24,0,0,0,.14.18l-7.23,3.58-.46.23h0l-.48.24,0,0-.5.27Z" />
        <path class="outline"
            d="M350.13,598c3.53.26,7.07.51,10.61.79,5.24.43,10.49.86,15.73,1.32,4.29.37,8.57.8,12.86,1.16,2,.16,3.95.22,5.92.32v.49c-7.71-.35-15.42-.57-23.12-1.07-12.68-.82-25.35-1.78-38-2.78a32.34,32.34,0,0,1-5.2-1.28c-.34-.08-.7-.12-1.06-.19,2.31.11,4.61.19,6.91.34,4.81.3,9.61.64,14.42,1A7.72,7.72,0,0,0,350.13,598Z" />
        <path class="color-shadow-dark" d="M395.24,602.12v-.49c2.1,0,4.2,0,6.29,0,.23,0,.44.31.67.48Z" />
        <path class="outline" d="M499.4,256.06l.46-.23Z" />
        <path class="outline" d="M498.92,256.31l.48-.24Z" />
        <path class="outline" d="M498.44,256.56l.5-.27Z" />
        <path class="color-base"
            d="M502.27,227.52q2,6.14,4,12.27c.78,2.38,1.57,4.75,2.39,7.2l-5.72,2.86a73.22,73.22,0,0,0-12.57,7.84,6,6,0,0,1-1,.54,8.17,8.17,0,0,0-1,.27c-1.45.61-2.88,1.25-4.42,1.91a3.8,3.8,0,0,1-.07-.78c.35-2.47.75-4.94,1.07-7.41a64.65,64.65,0,0,0,.79-7.69c0-4.3-.22-8.6-.44-12.9-.15-2.81-.42-5.62-.74-8.42-.13-1.07-.35-2.25-2-2.67a8.6,8.6,0,0,0-1.37,2.11,36.65,36.65,0,0,0-.91,4.31c-.67,3.42-1.28,6.86-2,10.28-.87,4-2,8-2.74,12.08-.92,4.75-1.58,9.55-2.38,14.32-.64,3.79-1.33,7.58-2,11.37-.77,4.45-1.56,8.9-2.31,13.36-.38,2.27-.69,4.55-1,6.82l-.24,5.51c0,1.44.05,2.88,0,4.32-.21,4.69-.65,9.38-.65,14.07,0,3.4.55,6.8.86,10.2.25,2.65.49,5.3.77,7.95s.61,5.6.91,8.4c.11,1,.22,2,.27,3,.1,1.87.17,3.74.25,5.61q.36,8.11.73,16.23c.15,3.38.34,6.76.47,10.14.18,5.14.33,10.28.49,15.42.08,2.59.06,5.18.25,7.77.41,5.34.92,10.68,1.39,16,.25,2.93.45,5.86.77,8.78.38,3.47.71,7,1.34,10.39,1.53,8.28,3.33,16.5,4.81,24.79.88,4.88,1.39,9.82,2,14.74.54,4.5.91,9,1.46,13.5.7,5.71,1.51,11.4,2.29,17.1a138.08,138.08,0,0,0,5,20.74c1.23,4.1,1.61,8.33,2.3,12.52.39,2.42,1.21,4.77,1.72,7.18s1,5,1.35,7.48c.42,2.87.74,5.75,1.08,8.63.3,2.52.64,5,.84,7.57.37,4.59.65,9.2,1,13.8,0,.36,0,.72,0,1.08,0,2.74.41,2.16-2.3,2.73-4.74,1-9.48,2-14.26,2.74S473.5,595.82,469,597a44.61,44.61,0,0,1-11.29,1.68c-2.71,0-5.42.7-8.13,1-2.32.29-4.65.69-7,.75-6,.18-12,.34-18,.23-4.8-.09-9.6-.57-14.4-.9-2.93-.21-5.86-.47-8.79-.74s-6.07-.63-9.12-.92c-1.26-.12-2.53-.19-3.8-.27a105.06,105.06,0,0,1-15.73-1.78c-4.66-1-9.31-2.1-14-3.12a17.36,17.36,0,0,0-2.59-.36c-4.37-.26-8.74-.62-13.11-.71-4.19-.08-8.38.15-12.57.19-1.15,0-2.3-.13-3.45-.2l-1.66,0c-.16-4.78-.29-9.57-.5-14.34-.19-4.37-.46-8.74-.72-13.11-.06-1.11-.17-2.22-.29-3.33-.29-2.64-.61-5.28-.89-7.92s-.43-5.23-.78-7.82c-.57-4.21-1.37-8.38-1.85-12.6-.53-4.57-1-9.16-1.18-13.76q-.45-9.15-.49-18.3c0-7,.12-14,.21-21,.06-4.07.18-8.13.23-12.2,0-3.08,0-6.16,0-9.24,0-1.52.08-3.05-.05-4.56-.24-2.88-.58-5.76-.91-8.64s-.7-5.67-1.09-8.5c-.57-4.08-1.22-8.16-1.78-12.25-.52-3.87-.9-7.77-1.47-11.63-.46-3.06-1.14-6.09-1.68-9.14q-2.19-12.36-4.32-24.74c-1-5.91-1.92-11.83-2.89-17.74q-1.79-10.92-3.6-21.84c-1.09-6.42-2.19-12.83-3.34-19.24-.89-5-1.73-9.94-2.85-14.85-1.28-5.58-3.14-11-4.22-16.65-1-5.09-1.3-10.31-1.77-15.48-.3-3.33-.35-6.68-.5-10-.17-3.66-.32-7.32-.49-11-.15-3.22-.38-6.43-.46-9.66-.2-7.85-.38-15.71-.47-23.57,0-2.38.33-4.76.43-7.14.2-4.38.33-8.76.49-13.14.07-.63.09-1.26.21-1.87.51-2.56.52-2.53,3.14-2.7,1.53-.1,3.06-.3,4.58-.46h.48l2.16-.23h.48l11-.47h1.2l2.63,0,1-.44,1.9.21,1-.23,1.91,0,.73-.22,3.12-.23h3.83l1.21-.23H330l1.21-.23h2.4a2.49,2.49,0,0,0,.46.55c3.24,2.22,6.42,4.54,9.76,6.61a47.9,47.9,0,0,0,7,3.55c3.51,1.45,7.14,2.63,10.7,4a20.86,20.86,0,0,0,8.77,1.38A2.49,2.49,0,0,0,371,207a79.86,79.86,0,0,0,15,4.6,55.81,55.81,0,0,0,16.06.67c3.57-.36,7.13-.82,10.69-1.24.64,1.23,1.84,1.05,2.81.85a55,55,0,0,0,14.68-5.14,68.39,68.39,0,0,0,11.33-6.79,57.85,57.85,0,0,0,9.77-9.25,28.09,28.09,0,0,0,2.22-4,6.05,6.05,0,0,1,1.05.17c7.94,2.58,16.13,4.34,23.95,7.35,4.55,1.76,8.66,4,11.92,7.7,1.27,1.42,2.44,2.93,3.68,4.38a19.32,19.32,0,0,1,4.52,8.7c.69,3.3,1.38,6.61,2.2,9.88A12,12,0,0,0,502.27,227.52Z" />
        <path class="color-shadow"
            d="M371,207a2.49,2.49,0,0,1-.79.38,20.86,20.86,0,0,1-8.77-1.38c-3.56-1.35-7.19-2.53-10.7-4a47.9,47.9,0,0,1-7-3.55c-3.34-2.07-6.52-4.39-9.76-6.61a2.49,2.49,0,0,1-.46-.55,52.36,52.36,0,0,0,7.75-1.06c1.9-.54,2.89-.29,4.17,1.23a34.24,34.24,0,0,0,7.84,7.25,79.37,79.37,0,0,0,13.77,6.8c.15.06.39-.08.58-.13Z" />
        <path class="color-shadow"
            d="M288.19,198.46c-.16,4.38-.29,8.76-.49,13.14-.1,2.38-.46,4.76-.43,7.14.09,7.86.27,15.72.47,23.57.08,3.23.31,6.44.46,9.66.17,3.66.32,7.32.49,11,.15,3.34.2,6.69.5,10,.47,5.17.8,10.39,1.77,15.48,1.08,5.62,2.94,11.07,4.22,16.65,1.12,4.91,2,9.89,2.85,14.85,1.15,6.41,2.25,12.82,3.34,19.24Q303.2,350.1,305,361c1,5.91,1.88,11.83,2.89,17.74q2.11,12.38,4.32,24.74c.54,3.05,1.22,6.08,1.68,9.14.57,3.86.95,7.76,1.47,11.63.56,4.09,1.21,8.17,1.78,12.25q.58,4.25,1.09,8.5c.33,2.88.67,5.76.91,8.64.13,1.51.05,3,.05,4.56,0,3.08,0,6.16,0,9.24,0,4.07-.17,8.13-.23,12.2-.09,7-.25,14-.21,21q0,9.15.49,18.3c.22,4.6.65,9.19,1.18,13.76.48,4.22,1.28,8.39,1.85,12.6.35,2.59.5,5.21.78,7.82s.6,5.28.89,7.92c.12,1.11.23,2.22.29,3.33.26,4.37.53,8.74.72,13.11.21,4.77.34,9.56.5,14.34a8.91,8.91,0,0,1-1.64-.27c-.3-.1-.7-.44-.73-.72-.37-2.79-.81-5.58-1-8.39-.21-3.9-.05-7.82-.31-11.72-.32-4.79-.91-9.56-1.38-14.34-.33-3.35-.63-6.71-1-10.07-.52-4.93-1.09-9.85-1.64-14.78-.33-3-.63-6-1-9-.34-2.8-.77-5.58-1.11-8.38-.3-2.48-.64-5-.77-7.45q-.28-5.08-.25-10.17c0-8.51.18-17,.2-25.52,0-4-.05-8.06-.24-12.09-.22-4.48-.5-9-1-13.43-.46-4.29-1.25-8.55-1.83-12.83-.47-3.46-.8-6.94-1.27-10.4-.32-2.32-1.16-4.63-1.09-6.92.11-3.67-.92-7.14-1.32-10.72-.51-4.65-1.21-9.28-1.85-13.91-.47-3.42-.93-6.84-1.49-10.25s-1.28-6.94-1.86-10.42c-.62-3.68-1.15-7.37-1.74-11.05-1.18-7.33-2.21-14.68-4.34-21.82-1.16-3.87-1.41-7.88-1.94-11.85a51.66,51.66,0,0,0-1.75-7.3c-1.36-4.82-2.9-9.6-4.2-14.44-.79-2.91-.53-5.91-.31-8.9.18-2.57.08-5.16.1-7.74q0-.6,0-1.2c-.16-4-.14-8.05-.53-12.05-.53-5.52-1.41-11-2.06-16.52-.28-2.29-.39-4.6-.52-6.9-.27-4.76-.55-9.53-.72-14.3-.1-3.1,0-6.2,0-9.3,0-3.76.05-7.52,0-11.28,0-1.78-.45-3.56-.39-5.33a15.9,15.9,0,0,1,.88-4.18c.78-2.46,1.69-4.87,2.56-7.3C287.9,198.52,288.08,198.5,288.19,198.46Z" />
        <path class="color-shadow" d="M325.16,191.74h0Z" />
        <path class="color-shadow" d="M331.16,191.26l-1.21.23C330.23,190.78,330.68,190.93,331.16,191.26Z" />
        <path class="color-shadow" d="M328.76,191.5l-1.21.23C327.83,191,328.28,191.17,328.76,191.5Z" />
        <path class="color-shadow" d="M311.48,192.7h0Z" />
        <path class="color-shadow" d="M318,192.22l-1,.23Z" />
        <path class="color-shadow" d="M315.09,192.24l-1,.44Z" />
        <path class="color-shadow" d="M320.6,192l-.73.22Z" />
        <path class="color-shadow" d="M299.24,193.18h0Z" />
        <path class="color-shadow" d="M296.6,193.42h0Z" />
        <path class="color-shadow"
            d="M467.73,295.19c.34-2.27.65-4.55,1-6.82.75-4.46,1.54-8.91,2.31-13.36.67-3.79,1.36-7.58,2-11.37.8-4.77,1.46-9.57,2.38-14.32.78-4,1.87-8,2.74-12.08.74-3.42,1.35-6.86,2-10.28a36.65,36.65,0,0,1,.91-4.31,8.6,8.6,0,0,1,1.37-2.11c1.65.42,1.87,1.6,2,2.67.32,2.8.59,5.61.74,8.42.22,4.3.46,8.6.44,12.9a64.65,64.65,0,0,1-.79,7.69c-.32,2.47-.72,4.94-1.07,7.41a3.8,3.8,0,0,0,.07.78c1.54-.66,3-1.3,4.42-1.91a8.17,8.17,0,0,1,1-.27c-1.31,1.13-2.62,2.25-3.9,3.39a10.63,10.63,0,0,0-.87,1l-4.35,2.11c0-2.22,0-4.44,0-6.65s-.12-4.31-.25-6.45a18.52,18.52,0,0,0-.45-3.41c-.1-.41-.7-.7-1.07-1-.29.38-.79.74-.83,1.14-.3,3.4-.52,6.81-.73,10.22,0,.31.23.63.35.94-.31,2.21-.63,4.42-.94,6.64l-.09,1c-.13.62-.27,1.24-.4,1.86a9.9,9.9,0,0,0-.87,2.19c-.82,5.74-2.89,11.14-4.39,16.7q-.87,3.21-1.87,6.38C468.53,294.63,468.05,294.88,467.73,295.19Z" />
        <path class="color-shadow-dark"
            d="M477.21,259.5c-.12-.31-.37-.63-.35-.94.21-3.41.43-6.82.73-10.22,0-.4.54-.76.83-1.14.37.34,1,.63,1.07,1a18.52,18.52,0,0,1,.45,3.41c.13,2.14.21,4.3.25,6.45s0,4.43,0,6.65l-2,1.36c-.89-1.87-.3-3.66-.48-5.39A4.3,4.3,0,0,0,477.21,259.5Z" />
        <path class="color-shadow-dark" d="M476.18,267.13l.09-1Z" />
        <path class="color-shadow"
            d="M502.27,227.52a12,12,0,0,1-1.39-2.64c-.82-3.27-1.51-6.58-2.2-9.88a19.32,19.32,0,0,0-4.52-8.7c-1.24-1.45-2.41-3-3.68-4.38-3.26-3.66-7.37-5.94-11.92-7.7-7.82-3-16-4.77-23.95-7.35a6.05,6.05,0,0,0-1.05-.17c.73-1.89,1.47-3.77,2.17-5.66.21-.55.36-.89,1.1-.66,5.58,1.75,11.22,3.34,16.77,5.21s10.49,5.45,15.07,9.24a66.09,66.09,0,0,1,5.76,5.34,9.17,9.17,0,0,1,1.79,3.33c1.27,3.78,2.57,7.55,3.53,11.41C500.79,219.06,501.45,223.31,502.27,227.52Z" />
    </g>
</svg>
