<svg id="pryamoy" xmlns="http://www.w3.org/2000/svg" viewBox="0 0 672 960">
    <g id="img_6_img" data-name="img 6 img">
        <path class="outline"
            d="M280.76,193.18l.42-3.05c1.11-.12,2.31-.29,3.52-.39,4.28-.33,8.55-.66,12.83-1,5.55-.4,11.09-.8,16.64-1.14a137.41,137.41,0,0,0,18.56-1.95c4.47-.9,9-1.7,13.13-3.79,1.75-.88,2.9-.11,3.09,1.76a2.21,2.21,0,0,0,.42.84,51.41,51.41,0,0,0,24,20.41,59.78,59.78,0,0,0,15.87,4.32,48,48,0,0,0,13.44.07c5.53-.87,11.12-1.41,16.58-2.57,9.91-2.11,17.35-8,22.67-16.43,3.09-4.93,5.64-10.2,8.43-15.31a1.57,1.57,0,0,0,.09-.23c1.1-2.89,1.07-2.73,4.13-2,8.61,2.07,16.49,6,24.55,9.43a12.5,12.5,0,0,1,2.66,1.61c2.88,2.21,5.71,4.49,8.59,6.7,7.44,5.73,11.84,13.31,14,22.38,2.54,10.72,5.25,21.4,7.88,32.1.38,1.55.74,3.1,1.14,4.75l-6.28,2.52c.13-.21.21-.49.39-.61.93-.62,1.93-1.14,2.81-1.82a1.53,1.53,0,0,0,.5-1.24q-4-17.94-8-35.86a34.6,34.6,0,0,0-9.93-17.31,65.6,65.6,0,0,0-12.78-10,23.71,23.71,0,0,0-2.66-1.35c-3.38-1.45-6.79-2.82-10.15-4.31a76.75,76.75,0,0,0-14.53-4.52,22.07,22.07,0,0,1-1,2.74c-2.34,4.58-4.5,9.29-7.16,13.68-5.14,8.48-12.41,14.44-22.05,17.19-3.22.92-6.54,1.46-9.82,2.17-3.56.42-7.12.88-10.69,1.24a55.81,55.81,0,0,1-16.06-.66A80.64,80.64,0,0,1,371,207l-3.37-1.6c-.27-.16-.53-.34-.81-.49a51.35,51.35,0,0,1-14-11c-2.52-2.87-4.64-6.09-7-9.13a1.4,1.4,0,0,0-1.07-.54c-3,.68-6,1.65-9.06,2.15-5.77.95-11.57,1.77-17.38,2.42-4.16.46-8.36.51-12.53.79-7.17.49-14.33,1-21.49,1.51a2.42,2.42,0,0,0-2.48,2.61c0,2.55.18,5.11.2,7.66.06,9.23,0,18.47.14,27.71.06,5.22.28,10.44.41,15.66.14,5.55.26,11.09.42,16.64.07,2.39.2,4.78.35,7.16.26,4,.57,7.94.82,11.91.23,3.46.4,6.92.6,10.38.28,4.82.58,9.63.83,14.44,0,.79-.16,1.59-.12,2.38.12,2.31.43,4.61.44,6.91a11.53,11.53,0,0,0,2.91,7.51,2.58,2.58,0,0,1,.62,1.13c.61,3.7,1.22,7.4,1.73,11.11.38,2.84.56,5.71.9,8.56.87,7.28,1.79,14.55,2.68,21.82.4,3.36.62,6.75,1.19,10.08.84,4.88,1.94,9.71,2.87,14.57q1.74,9,3.39,18.1c.92,5.05,1.93,10.1,2,15.28-1.75-.15-1.77-1.41-2-2.77-.73-5-1.47-9.95-2.43-14.88-1.93-9.91-4.2-19.77-6-29.71-1.12-6.28-1.57-12.68-2.36-19-.62-5-1.26-9.9-2-14.85-.78-5.49-1.63-11-2.5-16.45a6.75,6.75,0,0,0-.8-2c-.85-1.67-1.77-3.31-2.58-5a3.59,3.59,0,0,1-.05-1.47c.16-8,.55-16,.42-24-.11-6.55-.91-13.08-1.26-19.63-.29-5.51-.42-11-.55-16.55q-.64-28.48-1.26-57a4.75,4.75,0,0,0-.22-1Z" />
        <path class="color-base"
            d="M371,207a80.64,80.64,0,0,0,15,4.61,55.81,55.81,0,0,0,16.06.66c3.57-.36,7.13-.82,10.69-1.24.73,1.36,2,1,3.05.8,7.84-1.45,14.89-4.9,21.6-9a79.74,79.74,0,0,0,8.14-6.23,26.32,26.32,0,0,0,8-9.82c1.68.47,3.37.92,5,1.41,6.71,2,13.53,3.6,20.07,6.16,4.14,1.63,8,3.59,11,6.89,1.57,1.69,3,3.47,4.53,5.23a19.16,19.16,0,0,1,4.44,8.61c.68,3.3,1.38,6.61,2.2,9.88a12,12,0,0,0,1.39,2.64.65.65,0,0,0,0,.24c1.56,4.64,3.13,9.28,4.67,13.93.59,1.76,1.09,3.55,1.63,5.33-.59.3-1,.48-1.37.69-4.43,2.46-8.88,4.87-13.27,7.39-1.61.92-3.09,2.08-4.62,3.13a8.17,8.17,0,0,0-1,.27c-1.45.61-2.88,1.25-4.42,1.91a3.8,3.8,0,0,1-.07-.78c.35-2.47.75-4.94,1.07-7.41a64.65,64.65,0,0,0,.79-7.69c0-4.3-.22-8.6-.44-12.9-.15-2.81-.42-5.62-.74-8.42-.13-1.07-.35-2.25-2-2.67a10.17,10.17,0,0,0-1.41,2.23,36.75,36.75,0,0,0-.86,4.07c-1,4.7-1.93,9.4-2.92,14.1-.6,2.84-1.35,5.65-1.86,8.5-.84,4.68-1.53,9.39-2.32,14.08-.65,3.84-1.36,7.66-2,11.49q-1.18,6.67-2.32,13.36c-.38,2.27-.69,4.55-1,6.82l-.24,5.51c-.24,4.89-.69,9.78-.67,14.67,0,4.6.54,9.2.89,13.8.28,3.64.65,7.28,1,10.91.38,4.15.84,8.3,1.16,12.45.25,3.22.34,6.44.5,9.66s.34,6.36.47,9.54q.27,6.09.49,12.18.26,6.81.47,13.62c.11,3.39.22,6.78.24,10.17,0,5.72,0,11.44,0,17.16,0,1.14-.21,2.27-.32,3.5-.39,0-.7,0-1-.06-2.69-.29-5.36-.77-8-.84-5.13-.13-10.26-.06-15.39,0-2.83,0-5.67,0-8.49.25-3.24.24-6.47.67-9.7,1.06s-6.59,1.07-9.91,1.26-6.54-.1-9.81-.18c-6-.16-12,0-17.92,1.45a2.91,2.91,0,0,0-.7.36l.09.35c.45,0,.91,0,1.37,0,1.71-.06,3.43-.28,5.12-.17,3.05.19,6.09.53,9.11.91,2.57.33,5.13.82,7.69,1.23,2.36.39,4.72.91,7.1,1.11a48.44,48.44,0,0,0,5.37-.19c4.65-.13,9.3.26,13.94-.88,2.48-.61,5.16-1.08,7.76-.1,1.83.17,3.67.3,5.51.51,1.21.13,2.42.37,3.63.56a37,37,0,0,1-5.59-.24,37.31,37.31,0,0,0-14,.37,47,47,0,0,1-7,.44c-2.83.1-5.68.33-8.5.15-3.21-.21-6.39-.83-9.58-1.25-4-.54-8-1.22-12.1-1.53-4.45-.34-8.94-.18-13.39-.52a111,111,0,0,1-11.62-1.56c-5.8-1.06-11.53-2.51-17.34-3.52a81.56,81.56,0,0,0-22.29-1c-5.17.52-10,2.25-15.1,3a16.86,16.86,0,0,1-12.33-3.06l2,.67a41.63,41.63,0,0,0,6.47,1.83,14.36,14.36,0,0,0,5.43-.39c2.73-.49,5.4-1.31,8.09-2,.9-.22,1.81-.39,2.72-.58l0-.45a25.48,25.48,0,0,0-3.25-.29c-1.59,0-3.17.38-4.75.39-2.95,0-5.9-.16-8.85-.2-.86,0-1-.39-1.1-1.17-.2-2.65-.33-5.33-.77-7.94-1-6-2.23-12-3.33-18-1-5.74-2.1-11.48-3.05-17.23-1.35-8.06-2.6-16.14-3.9-24.21-.95-5.83-1.89-11.67-2.88-17.5q-1.62-9.51-3.32-19c-.91-5-1.74-10.1-2.87-15.09-1.27-5.58-3.15-11-4.21-16.65-1-5.17-1.31-10.47-1.78-15.73-.3-3.33-.35-6.68-.5-10-.17-3.58-.32-7.16-.49-10.73-.15-3.3-.38-6.6-.46-9.9-.2-7.78-.38-15.56-.47-23.34,0-2.38.33-4.76.43-7.14.2-4.38.33-8.76.49-13.14.17-1.17.3-2.34.54-3.5a1.14,1.14,0,0,1,.71-.77c2.22-.3,4.45-.52,6.68-.76h.48l13.68-.71h1l2.87,0,1-.44,1.9.21,1-.23,1.91,0,.73-.22,3.12-.23h3.83l1.21-.23H330l1.21-.23h2.4a2.49,2.49,0,0,0,.46.55c3.24,2.22,6.42,4.54,9.76,6.61a47.9,47.9,0,0,0,7,3.55c3.51,1.45,7.14,2.63,10.7,4a20.83,20.83,0,0,0,8.77,1.38A2.49,2.49,0,0,0,371,207Z" />
        <path class="color-shadow-dark"
            d="M330,191.49h-1.19c-.48-.33-.93-.48-1.21.23h-3.83l-3.12.23-.73.22-1.91,0-1,.23-1.9-.21-1,.44-2.87,0h-1l-13.68.71h-.48c-2.23.24-4.46.46-6.68.76a1.14,1.14,0,0,0-.71.77c-.24,1.16-.37,2.33-.54,3.5-.13.07-.34.12-.38.23-.55,1.4-1,2.84-1.6,4.23a24.63,24.63,0,0,0-1.63,11.19c.24,4.26.2,8.53.25,12.8,0,3-.09,6,0,9.06.17,4.49.46,9,.71,13.46.15,2.54.23,5.09.51,7.61.48,4.26,1.21,8.48,1.63,12.74.45,4.55.75,9.11.95,13.67.15,3.18,0,6.36,0,9.54,0,.6-.07,1.19-.06,1.79.07,2.89-.29,5.88.32,8.66,1.09,4.92,2.8,9.7,4.17,14.57a54.27,54.27,0,0,1,1.76,7.41c.54,3.89.77,7.82,1.89,11.61,2.19,7.37,3.3,15,4.42,22.53.51,3.41,1.08,6.82,1.66,10.22.54,3.12,1.17,6.23,1.68,9.37.62,3.83,1.15,7.68,1.72,11.53.47,3.25.94,6.51,1.39,9.77s.87,6.36,1.28,9.55c.63,4.95,1.25,9.91,1.83,14.87a9.25,9.25,0,0,1-.22,2.08l-2-.67-.64-.38-.54-.36a.29.29,0,0,1-.18-.12l-.82-.58-2.1-1.93,0-.29v.05c0-5.18-1-10.23-2-15.28q-1.64-9.06-3.39-18.1c-.93-4.86-2-9.69-2.87-14.57-.57-3.33-.79-6.72-1.19-10.08-.89-7.27-1.81-14.54-2.68-21.82-.34-2.85-.52-5.72-.9-8.56-.51-3.71-1.12-7.41-1.73-11.11a2.58,2.58,0,0,0-.62-1.13,11.53,11.53,0,0,1-2.91-7.51c0-2.3-.32-4.6-.44-6.91,0-.79.16-1.59.12-2.38-.25-4.81-.55-9.62-.83-14.44-.2-3.46-.37-6.92-.6-10.38-.25-4-.56-7.94-.82-11.91-.15-2.38-.28-4.77-.35-7.16-.16-5.55-.28-11.09-.42-16.64-.13-5.22-.35-10.44-.41-15.66-.1-9.24-.08-18.48-.14-27.71,0-2.55-.16-5.11-.2-7.66a2.42,2.42,0,0,1,2.48-2.61c7.16-.49,14.32-1,21.49-1.51,4.17-.28,8.37-.33,12.53-.79,5.81-.65,11.61-1.47,17.38-2.42,3.06-.5,6-1.47,9.06-2.15a1.4,1.4,0,0,1,1.07.54c2.34,3,4.46,6.26,7,9.13a51.35,51.35,0,0,0,14,11c.28.15.54.33.81.49-.2.05-.43.19-.58.13a78.32,78.32,0,0,1-13.77-6.8,32.71,32.71,0,0,1-7.76-7.17c-1.32-1.63-2.42-1.82-4.37-1.29a53.46,53.46,0,0,1-7.63,1h-2.4C330.68,190.93,330.23,190.78,330,191.49Z" />
        <path class="color-shadow"
            d="M448.29,433.89c-2.6-1-5.28-.51-7.76.1-4.64,1.14-9.29.75-13.94.88a48.44,48.44,0,0,1-5.37.19c-2.38-.2-4.74-.72-7.1-1.11-2.56-.41-5.12-.9-7.69-1.23-3-.38-6.06-.72-9.11-.91-1.69-.11-3.41.11-5.12.17-.46,0-.92,0-1.37,0l-.09-.35a2.91,2.91,0,0,1,.7-.36c5.89-1.49,11.9-1.61,17.92-1.45,3.27.08,6.55.36,9.81.18s6.6-.85,9.91-1.26,6.46-.82,9.7-1.06c2.82-.21,5.66-.23,8.49-.25,5.13,0,10.26-.11,15.39,0,2.69.07,5.36.55,8,.84.3,0,.61,0,1,.06.11-1.23.31-2.36.32-3.5,0-5.72,0-11.44,0-17.16,0-3.39-.13-6.78-.24-10.17q-.21-6.81-.47-13.62-.22-6.09-.49-12.18c-.13-3.18-.31-6.36-.47-9.54s-.25-6.44-.5-9.66c-.32-4.15-.78-8.3-1.16-12.45-.34-3.63-.71-7.27-1-10.91-.35-4.6-.86-9.2-.89-13.8,0-4.89.43-9.78.67-14.67a4.05,4.05,0,0,1,.56.92c.95,3.61,2,7.19,2.75,10.85.9,4.67,1.54,9.39,2.18,14.1.3,2.24.35,4.52.51,6.78.32,4.39.69,8.79.94,13.19s.33,8.6.49,12.89c.16,4.58.35,9.16.46,13.74,0,1.3-.23,2.62-.19,3.92.09,2.7.27,5.4.46,8.1a33.64,33.64,0,0,0,2.35,11,2.37,2.37,0,0,1,.23,1.16c-.2,1.69-.58,3.36-.68,5.06a71.22,71.22,0,0,0-.18,8c.28,5.2.77,10.38,1.15,15.57.27,3.72.5,7.45.75,11.18l-1,.28c-.22-.33-.36-.8-.67-1a19.56,19.56,0,0,0-7.45-2.34c-2.08-.27-4.16-.57-6.23-.92-1.75-.29-3.5-1-5.24-.93-3.28.09-6.55.57-9.82.93C448.65,433.24,448.48,433.66,448.29,433.89Z" />
        <path class="color-shadow-dark"
            d="M479.27,437.18c-.25-3.73-.48-7.46-.75-11.18-.38-5.19-.87-10.37-1.15-15.57a71.22,71.22,0,0,1,.18-8c.1-1.7.48-3.37.68-5.06a2.37,2.37,0,0,0-.23-1.16,33.64,33.64,0,0,1-2.35-11c-.19-2.7-.37-5.4-.46-8.1,0-1.3.23-2.62.19-3.92-.11-4.58-.3-9.16-.46-13.74-.16-4.29-.26-8.6-.49-12.89s-.62-8.8-.94-13.19c-.16-2.26-.21-4.54-.51-6.78-.64-4.71-1.28-9.43-2.18-14.1-.71-3.66-1.8-7.24-2.75-10.85a4.05,4.05,0,0,0-.56-.92l.24-5.51c.32-.31.8-.56.92-.93q1-3.17,1.87-6.38c1.5-5.56,3.57-11,4.39-16.7a9.9,9.9,0,0,1,.87-2.19,5.79,5.79,0,0,1,.12,1.16c-.12,1.35-.29,2.69-.44,4-.61,5.23-1.28,10.45-1.82,15.68a35.16,35.16,0,0,0,0,9.88c1.54,8.56,3.06,17.12,4.26,25.73,1.08,7.77,1.94,15.59,2.47,23.42.45,6.84.29,13.73.42,20.6a65,65,0,0,0,.28,7.78c.69,5.09,1.62,10.16,2.5,15.22.53,3,1.29,6.07.67,9.15a51.68,51.68,0,0,0-.27,17.37c.6,4.5.88,9.05,1.31,13.58-.85,1-1.64,2.13-2.58,3.07a7,7,0,0,1-2,1.15A9.14,9.14,0,0,1,479.27,437.18Z" />
        <path class="color-shadow-dark"
            d="M489.33,258.23c1.53-1.05,3-2.21,4.62-3.13,4.39-2.52,8.84-4.93,13.27-7.39.39-.21.78-.39,1.37-.69-.54-1.78-1-3.57-1.63-5.33-1.54-4.65-3.11-9.29-4.67-13.93a.65.65,0,0,1,0-.24c-.82-4.21-1.48-8.46-2.52-12.61-1-3.86-2.26-7.63-3.53-11.41a9.17,9.17,0,0,0-1.79-3.33,66.09,66.09,0,0,0-5.76-5.34c-4.58-3.79-9.37-7.31-15.07-9.24s-11.19-3.46-16.77-5.21c-.74-.23-.89.11-1.1.66-.7,1.89-1.44,3.77-2.17,5.66a26.32,26.32,0,0,1-8,9.82,79.74,79.74,0,0,1-8.14,6.23c-6.71,4.13-13.76,7.58-21.6,9-1.06.2-2.32.56-3.05-.8,3.28-.71,6.6-1.25,9.82-2.17,9.64-2.75,16.91-8.71,22.05-17.19,2.66-4.39,4.82-9.1,7.16-13.68a22.07,22.07,0,0,0,1-2.74,76.75,76.75,0,0,1,14.53,4.52c3.36,1.49,6.77,2.86,10.15,4.31a23.71,23.71,0,0,1,2.66,1.35,65.6,65.6,0,0,1,12.78,10,34.6,34.6,0,0,1,9.93,17.31q4,17.92,8,35.86a1.53,1.53,0,0,1-.5,1.24c-.88.68-1.88,1.2-2.81,1.82-.18.12-.26.4-.39.61-1.11.63-2.19,1.34-3.35,1.89-2,.93-4,1.77-6,2.65s-3.87,1.63-5.79,2.49c-2.46,1.1-4.91,2.24-7.36,3.36A2.14,2.14,0,0,1,485,262c.78-.62,1.62-1.17,2.37-1.81S488.66,258.88,489.33,258.23Z" />
        <path class="outline"
            d="M484.56,262.64c2.45-1.12,4.9-2.26,7.36-3.36,1.92-.86,3.86-1.66,5.79-2.49a5.13,5.13,0,0,1-.53.42q-9.8,5.51-19.59,11a1.77,1.77,0,0,0-.75,1.16c-.82,6.78-1.77,13.56-2.28,20.36a53.44,53.44,0,0,0,.51,10.41c1.15,9.35,2.46,18.68,3.76,28a236.79,236.79,0,0,1,2.58,28.63c.14,7.56.34,15.12.86,22.65.23,3.26,1.33,6.46,2.1,9.68.46,1.93,1,3.86,1.56,5.77.87,2.9.29,5.76-.21,8.61a39.08,39.08,0,0,0,.06,13.3c.68,4,.89,8.16,1.26,12.25a9,9,0,0,1-.17,1.78,1.77,1.77,0,0,1-1.62,1.75c-.43-4.53-.71-9.08-1.31-13.58a51.68,51.68,0,0,1,.27-17.37c.62-3.08-.14-6.12-.67-9.15-.88-5.06-1.81-10.13-2.5-15.22a65,65,0,0,1-.28-7.78c-.13-6.87,0-13.76-.42-20.6-.53-7.83-1.39-15.65-2.47-23.42-1.2-8.61-2.72-17.17-4.26-25.73a35.16,35.16,0,0,1,0-9.88c.54-5.23,1.21-10.45,1.82-15.68.15-1.35.32-2.69.44-4a5.79,5.79,0,0,0-.12-1.16c.13-.62.27-1.24.4-1.87l.08-1c.32-2.22.63-4.43.95-6.64a4.18,4.18,0,0,1,.56,1.22c.18,1.73-.41,3.52.48,5.39l2-1.36Z" />
        <path class="color-shadow-dark"
            d="M448.29,433.89c.19-.23.36-.65.58-.67,3.27-.36,6.54-.84,9.82-.93,1.74,0,3.49.64,5.24.93,2.07.35,4.15.65,6.23.92a19.56,19.56,0,0,1,7.45,2.34c.31.18.45.65.67,1l-7.43.72c0-.07,0-.18-.08-.21a23.81,23.81,0,0,0-7.87-2.62c-.13,0-.28.1-.43.15l-.49-.07-4-.47h-.58c-1.21-.19-2.42-.43-3.63-.56C452,434.19,450.12,434.06,448.29,433.89Z" />
        <path class="color-base"
            d="M462.47,435.5c.15-.05.3-.17.43-.15a23.81,23.81,0,0,1,7.87,2.62c.05,0,.05.14.08.21l-2.78-.91C466.21,436.67,464.34,436.09,462.47,435.5Z" />
        <path class="color-base" d="M458,435l4,.47Z" />
        <path class="color-base" d="M306.36,424.84l.82.58Z" />
        <path class="color-base" d="M307.36,425.54l.54.36Z" />
        <path class="outline" d="M304.24,422.62l0,.29a.62.62,0,0,1-.07-.19S304.22,422.66,304.24,422.62Z" />
        <path class="color-shadow"
            d="M333.56,191.26a53.46,53.46,0,0,0,7.63-1c1.95-.53,3.05-.34,4.37,1.29a32.71,32.71,0,0,0,7.76,7.17,78.32,78.32,0,0,0,13.77,6.8c.15.06.38-.08.58-.13L371,207a2.49,2.49,0,0,1-.79.38,20.83,20.83,0,0,1-8.77-1.38c-3.56-1.35-7.19-2.53-10.7-4a47.9,47.9,0,0,1-7-3.55c-3.34-2.07-6.52-4.39-9.76-6.61A2.49,2.49,0,0,1,333.56,191.26Z" />
        <path class="color-shadow"
            d="M310.52,427a9.25,9.25,0,0,0,.22-2.08c-.58-5-1.2-9.92-1.83-14.87q-.62-4.78-1.28-9.55c-.45-3.26-.92-6.52-1.39-9.77-.57-3.85-1.1-7.7-1.72-11.53-.51-3.14-1.14-6.25-1.68-9.37-.58-3.4-1.15-6.81-1.66-10.22C300.06,352,299,344.4,296.76,337c-1.12-3.79-1.35-7.72-1.89-11.61a54.27,54.27,0,0,0-1.76-7.41c-1.37-4.87-3.08-9.65-4.17-14.57-.61-2.78-.25-5.77-.32-8.66,0-.6.06-1.19.06-1.79,0-3.18.12-6.36,0-9.54-.2-4.56-.5-9.12-.95-13.67-.42-4.26-1.15-8.48-1.63-12.74-.28-2.52-.36-5.07-.51-7.61-.25-4.49-.54-9-.71-13.46-.11-3,0-6,0-9.06-.05-4.27,0-8.54-.25-12.8a24.63,24.63,0,0,1,1.63-11.19c.58-1.39,1.05-2.83,1.6-4.23,0-.11.25-.16.38-.23-.16,4.38-.29,8.76-.49,13.14-.1,2.38-.46,4.76-.43,7.14.09,7.78.27,15.56.47,23.34.08,3.3.31,6.6.46,9.9.17,3.57.32,7.15.49,10.73.15,3.34.2,6.69.5,10,.47,5.26.8,10.56,1.78,15.73,1.06,5.61,2.94,11.07,4.21,16.65,1.13,5,2,10.05,2.87,15.09q1.69,9.48,3.32,19c1,5.83,1.93,11.67,2.88,17.5,1.3,8.07,2.55,16.15,3.9,24.21,1,5.75,2,11.49,3.05,17.23,1.1,6,2.31,12,3.33,18,.44,2.61.57,5.29.77,7.94.06.78.24,1.16,1.1,1.17,3,0,5.9.21,8.85.2,1.58,0,3.16-.35,4.75-.39a25.48,25.48,0,0,1,3.25.29l0,.45c-.91.19-1.82.36-2.72.58-2.69.67-5.36,1.49-8.09,2a14.36,14.36,0,0,1-5.43.39A41.63,41.63,0,0,1,310.52,427Z" />
        <path class="color-shadow"
            d="M477.21,259.5c-.32,2.21-.63,4.42-.95,6.64,0,.33-.05.65-.08,1-.13.63-.27,1.25-.4,1.87a9.9,9.9,0,0,0-.87,2.19c-.82,5.74-2.89,11.14-4.39,16.7q-.87,3.21-1.87,6.38c-.12.37-.6.62-.92.93.34-2.27.65-4.55,1-6.82q1.13-6.69,2.32-13.36c.67-3.83,1.38-7.65,2-11.49.79-4.69,1.48-9.4,2.32-14.08.51-2.85,1.26-5.66,1.86-8.5,1-4.7,1.95-9.4,2.92-14.1a36.75,36.75,0,0,1,.86-4.07,10.17,10.17,0,0,1,1.41-2.23c1.66.42,1.88,1.6,2,2.67.32,2.8.59,5.61.74,8.42.22,4.3.46,8.6.44,12.9a64.65,64.65,0,0,1-.79,7.69c-.32,2.47-.72,4.94-1.07,7.41a3.8,3.8,0,0,0,.07.78c1.54-.66,3-1.3,4.42-1.91a8.17,8.17,0,0,1,1-.27c-.67.65-1.3,1.34-2,1.94s-1.59,1.19-2.37,1.81a2.14,2.14,0,0,0-.39.66l-4.35,2.11c0-2.22,0-4.44,0-6.65s-.12-4.31-.25-6.45a18.52,18.52,0,0,0-.45-3.41c-.1-.41-.7-.7-1.07-1-.29.38-.79.74-.83,1.14-.3,3.4-.52,6.81-.73,10.22C476.84,258.86,477.09,259.19,477.21,259.5Z" />
        <path class="color-shadow"
            d="M453.56,186.7c.73-1.89,1.47-3.77,2.17-5.66.21-.55.36-.89,1.1-.66,5.58,1.75,11.22,3.34,16.77,5.21s10.49,5.45,15.07,9.24a66.09,66.09,0,0,1,5.76,5.34,9.17,9.17,0,0,1,1.79,3.33c1.27,3.78,2.57,7.55,3.53,11.41,1,4.15,1.7,8.4,2.52,12.61a12,12,0,0,1-1.39-2.64c-.82-3.27-1.52-6.58-2.2-9.88a19.16,19.16,0,0,0-4.44-8.61c-1.49-1.76-3-3.54-4.53-5.23-3-3.3-6.9-5.26-11-6.89-6.54-2.56-13.36-4.19-20.07-6.16C456.93,187.62,455.24,187.17,453.56,186.7Z" />
        <path class="color-shadow" d="M330,191.49c.28-.71.73-.56,1.21-.23Z" />
        <path class="color-shadow" d="M327.55,191.73c.28-.71.73-.56,1.21-.23Z" />
        <path class="color-shadow" d="M323.72,191.75h0Z" />
        <path class="color-shadow" d="M317,192.45l1-.23Z" />
        <path class="color-shadow" d="M314.11,192.68l1-.44Z" />
        <path class="color-shadow" d="M310.28,192.71h0Z" />
        <path class="color-shadow" d="M319.87,192.2l.73-.22Z" />
        <path class="color-shadow" d="M296.12,193.43h0Z" />
        <path class="color-shadow-dark"
            d="M477.21,259.5c-.12-.31-.37-.64-.35-.94.21-3.41.43-6.82.73-10.22,0-.4.54-.76.83-1.14.37.34,1,.63,1.07,1a18.52,18.52,0,0,1,.45,3.41c.13,2.14.21,4.3.25,6.45s0,4.43,0,6.65l-2,1.36c-.89-1.87-.3-3.66-.48-5.39A4.18,4.18,0,0,0,477.21,259.5Z" />
        <path class="color-shadow-dark"
            d="M476.18,267.12c0-.33.06-.65.08-1C476.24,266.47,476.21,266.79,476.18,267.12Z" />
    </g>
</svg>
