<svg id="manshety" xmlns="http://www.w3.org/2000/svg" viewBox="0 0 672 960">
    <g>
        <path class="color-base" d="M527.19,443.64l.77-.38h1.2v.36Z" />
        <path class="outline"
            d="M538.17,493.43c1.7-3.79-.07-7.3-.94-10.86-1.06-4.29-2.3-8.54-3.36-12.84-.61-2.47-1-5-1.52-7.56-1.36.5-2.77,1.14-4.25,1.55-2.07.58-4.17,1.09-6.28,1.46-2.35.42-4.74.64-7.1,1a1.09,1.09,0,0,0-.64.67c-1.19,4.09-2.45,8.17-3.45,12.3a15.79,15.79,0,0,0,.07,4.28q.17,3.75.35,7.5c0,.36,0,.71.06,1.07l0,2.14,0,6.24-.66-1.43,0-4.33-.12-1.44-.08-3.13-.09-1.19-.17-1.92-.05-1c-.38-2.11-.8-4.22-1.09-6.34a4,4,0,0,1,.45-1.59q1.81-5.32,3.67-10.63a3.22,3.22,0,0,0-.07-2.36c-.6-1.64-.83-3.4-1.28-5.1-.81-3.08-1.68-6.15-2.52-9.22-3.91.78-4.74.65-6.24-1.12a35.3,35.3,0,0,1,3.47-1.23c3.51-.89,7.1-1.51,10.55-2.59a37.39,37.39,0,0,1,6-1.41c1-.14,2.05-.34,3.08-.5l.78-.14.42-.11,2,0c.6,0,1.2.11,1.79.11,2,0,2,0,3.38,1.61-1.29.35-1,1.26-.86,2.2.67,3.64,1.44,7.27,1.27,11a3.64,3.64,0,0,1-1,2.6,1.66,1.66,0,0,0-.26,1.27,139.27,139.27,0,0,0,5.9,23.21c1,2.76.18,5.24-.6,7.78,0,.18-.28.31-.43.46Zm-5.07-34.54c-.52-4.26-1-8.25-1.51-12.24a.89.89,0,0,0-.62-.57,18.18,18.18,0,0,0-3.61-.07c-2.33.31-4.63.87-7,1.23a25.82,25.82,0,0,0-8.71,2.4,1.41,1.41,0,0,0-.88,1.93c1,4.13,2,8.28,2.9,12.44.19.84.7.62,1.17.52,3.54-.75,7.1-1.41,10.59-2.34a63.43,63.43,0,0,0,6.83-2.48C532.67,459.57,532.9,459.11,533.1,458.89Z" />
        <path class="outline"
            d="M510.47,499l.66,1.43c-.05,1.51-.14,3-.13,4.53,0,.29.41.58.68.93-1.15.84-1.09,2.22-1.09,3.55s.13,2.54.13,3.81c0,.93.53,1.26,1.32,1.35s1.67,0,2-1c.38-1.3.67-2.62,1-3.93.21-.92.39-1.84.58-2.75l.44,0-.25,3.76c-.07.16-.15.31-.22.47s.09.07.14.1l.3-.55,1.13-4.1c.07-.22.15-.44.22-.67l.43,1.19c-.17.8,0,1.21.86.69a2.83,2.83,0,0,0,.87-.74c.94-1.28,1.86-2.59,2.76-3.89a2.61,2.61,0,0,0,.46-.93,17.59,17.59,0,0,0,.4-2.7c.13-2.93.19-5.86.28-8.79h.49c0,1.12,0,2.24.06,3.35.08,1.67.35,3.33.3,5a47.31,47.31,0,0,1-.63,4.83c-.24,1.88-.44,3.77-.73,5.65a4.78,4.78,0,0,1-.64,1.88q-2.37,3.74-4.86,7.4a4.66,4.66,0,0,1-1.17,1,11.81,11.81,0,0,0-4.69,6.43c-.3,1.06-.18,1.11.9.82,1.72-.46,3.45-.89,5.18-1.34a6.36,6.36,0,0,0,2.89-1.78c2.45-2.4,5-4.68,7.54-7l.09-.08c1.62-1,1.8-2.71,2-4.45.65-4.52,1.42-9,2.23-13.53a8.78,8.78,0,0,1,1.07-2.39c.15-.26.51-.41.78-.62a3.08,3.08,0,0,1,.1,1.07c-.52,1.81-1.22,3.56-1.62,5.38-.8,3.64-1.61,7.29-2.09,11-.26,2.06-1.43,3.27-2.71,4.57l-.13.53a13,13,0,0,1,1.29-.65c1.94-.71,2.72-2.14,3.09-4.14.51-2.77,1.28-5.5,2.06-8.21.89-3.15,1.9-6.26,2.88-9.38a7.58,7.58,0,0,1,.45-1l.39.52c-1.15,4-2.32,7.95-3.44,11.93-.72,2.61-1.38,5.23-2,7.85a3.64,3.64,0,0,1-1.91,2.46c-2,1.07-4,2.09-5.83,3.3a20.91,20.91,0,0,0-3.32,2.86,7.71,7.71,0,0,1-2.95,2.16c-2.72.91-5.42,1.89-8.14,2.77-.38.13-.87-.09-1.31-.15.2-.34.42-.67.59-1,.48-1,.94-2,1.46-3.09a3.84,3.84,0,0,1-1,0,1.29,1.29,0,0,1-.73-.48c-.08-.14.17-.45.23-.7a1.57,1.57,0,0,0,.08-.84c-.89-2-.76-2.73.85-4.22a2.31,2.31,0,0,0-.24-2.92,1.85,1.85,0,0,1-.64-1.28c.12-2.83.36-5.64.5-8.46.08-1.76.05-3.52.1-5.27A13.42,13.42,0,0,1,510.47,499Zm16.87,19.79.11-.34-.26.18-.14.17Zm-9.25-2.16c-2.05.66-3.85,1.16-5.58,1.82a6.1,6.1,0,0,0-2.11,1.44,2.51,2.51,0,0,0,.19,3.09c.37.34,1.8-.27,2.41-.91a13.55,13.55,0,0,1,2.61-2.42A6.92,6.92,0,0,0,518.09,516.58Zm-6.09,1c.63-.24,1.25-.49,1.88-.72,1.42-.51,2.84-1,4.24-1.54a2.57,2.57,0,0,0,1.1-.68c.85-1.11,1.63-2.26,2.41-3.42a7,7,0,0,0,.47-1l-.25-.13c-.23.21-.54.36-.68.62a3.66,3.66,0,0,1-2.51,1.62,6.67,6.67,0,0,0-.79.27c-1.31.58-2.66,1.05-3.44,2.43a2,2,0,0,1-1.3.75C512.07,515.93,511.69,516.46,512,517.58Zm4.69-5.94c2.88-.54,4.26-1.32,5.29-3.33a10.15,10.15,0,0,0,.54-2.86l-.38-.12c-.38.45-.73.91-1.13,1.34-.67.71-1.24,1.7-2.07,2A4.06,4.06,0,0,0,516.69,511.64Z" />
        <path class="outline" d="M510.33,493.18l.12,1.44Z" />
        <path class="outline" d="M510.16,488.86l.09,1.19Z" />
        <path class="outline" d="M509.94,486l.05,1Z" />
        <path class="outline" d="M538,495.6l-.39-.52.24-.34C538.61,494.9,538.09,495.28,538,495.6Z" />
        <path class="color-base" d="M526.77,443.75l-.78.14Z" />
        <path class="outline" d="M538,494l.31.23-.21.22-.23-.31,0-.11Z" />
        <path class="outline"
            d="M523.87,490.78h-.49L519.66,488c-.4,1.19-1,3.06-1.66,4.93a1.79,1.79,0,0,0,0,.83,44,44,0,0,1-.24,13.41l-.43-1.19.06-.53.1-.46,0-.93.11-.53c0-3.7.47-7.41-.63-11.06a4.25,4.25,0,0,1,.17-2.22c.7-2.54,1.47-5.06,2.26-7.58a11,11,0,0,1,.87-1.7,2.08,2.08,0,0,1,.55,2.75c-.54,1.34,0,2.19.8,3.21A34.39,34.39,0,0,1,523.87,490.78Z" />
        <path class="outline" d="M535.53,487.71a5.14,5.14,0,0,1-.9,6.16Z" />
        <path class="outline" d="M511.15,494.14l0-2.14Z" />
        <path class="color-base" d="M516,510.73l-.3.55s-.14-.08-.14-.1.15-.31.22-.47A.22.22,0,0,1,516,510.73Z" />
        <path class="color-base" d="M517.62,503.51l-.11.53Z" />
        <path class="outline" d="M517.48,505l-.1.46Z" />
        <path class="color-base" d="M527.79,518.42l.13-.53Z" />
        <path class="color-base"
            d="M533.1,458.89c-.2.22-.43.68-.79.82a63.43,63.43,0,0,1-6.83,2.48c-3.49.93-7.05,1.59-10.59,2.34-.47.1-1,.32-1.17-.52-.93-4.16-1.88-8.31-2.9-12.44a1.41,1.41,0,0,1,.88-1.93,25.82,25.82,0,0,1,8.71-2.4c2.32-.36,4.62-.92,7-1.23a18.18,18.18,0,0,1,3.61.07.89.89,0,0,1,.62.57C532.1,450.64,532.58,454.63,533.1,458.89Z" />
        <path class="color-base" d="M527.19,518.58l.26-.18-.11.34A.75.75,0,0,0,527.19,518.58Z" />
        <path class="color-base" d="M527.34,518.74h-.29l.14-.17A.75.75,0,0,1,527.34,518.74Z" />
    </g>
</svg>
