<svg id="manshety" xmlns="http://www.w3.org/2000/svg" viewBox="0 0 672 960">
    <g>
        <path class="outline"
            d="M56.82,239.27c-.71-.92-1.7-.69-2.62-.55a19.78,19.78,0,0,0-3.24.65,2.61,2.61,0,0,0-2.07,3l.16.47c.5,1,1.13,1.68,2.38,1.22.12,0,.36.26.55.4l-.26.3.56,0a20.77,20.77,0,0,0,2.85-.18c3-.57,6-1.13,8.94-1.87,2.27-.57,4.45-1.52,6.72-2.06a31.72,31.72,0,0,1,6-.79,72.08,72.08,0,0,0,14.13-1.78,13.06,13.06,0,0,0,5.68-2.7,2.9,2.9,0,0,0,1.08-2.49,43.18,43.18,0,0,0-1.24-8.63c-.5-2.18-1-4.36-1.44-6.54-.13-.61-.27-.92-1.09-.79-4.79.77-9.59,1.54-14.4,2.12-3.56.43-7.15.58-10.73.82a21.7,21.7,0,0,0-3.43.11,25.08,25.08,0,0,0-4.24,1.48c-1.83.76-3.62,1.64-5.43,2.46l-.5-.25c2.68-1.49,5.33-3,8.05-4.46a5.11,5.11,0,0,1,2.3-.48c7.64-.07,15.15-1.35,22.68-2.49,1.84-.27,3.69-.53,5.54-.75.5-.06.74-.09.77-.73.07-2.06.46-2.41,2.54-2.73q4.38-.69,8.74-1.41c1.53-.25,3.09-.45,4.12-1.85.17-.23.53-.32,1-.61.19,2.21.52,4.26.52,6.31,0,5.15,1.33,10,2.77,14.89.65,2.16,1.53,4.24,2.27,6.38a13.86,13.86,0,0,1,.36,1.76,4,4,0,0,1-1.11-.37C113,235.06,110,235.52,107,236c-1.84.32-3.63.95-5.46,1.35-1.22.27-2.48.58-3.62-.35-.1-.08-.45,0-.6.11-2.94,2.09-6.35,2.77-9.82,3.06s-6.84.24-10.26.47a7.93,7.93,0,0,0-3,.93c-1.72.91-3.36,2-5,3l-.52-.1c.54-.55,1.06-1.14,1.64-1.65s1.42-1.12,2.13-1.68a.93.93,0,0,0-.75,0c-2.25.8-4.48,1.65-6.75,2.39a3.31,3.31,0,0,0-2,1.26l-.51-.26c-1.07.12-2.14.21-3.2.35a22.31,22.31,0,0,1-3.39.48c-1.08,0-1.13.61-1.27,1.29-.36,1.85-.71,3.71-1.07,5.57l-.72-.24c.22-1.73.4-3.46.67-5.18.14-.95-.08-1.23-1.12-1.26-3.39-.09-4.38-1.23-4.2-4.82.45-.86.45-.86.1-1.11h0c.14,0,.33.06.41,0a20.62,20.62,0,0,1,8-3.87c.88-.24,1.74-.57,2.62-.82.19-.06.43.06.65.09-.15.19-.26.47-.46.56-1.62.67-3.24,1.32-4.87,2l-.52.16,0,.14.63-.11.57-.11c1.5-.3,1.91.06,1.87,1.63Zm51.34-27-.82.13c-3.1.56-6.19,1.14-9.29,1.67-1.42.24-1.55.34-1.64,1.79a3.47,3.47,0,0,0,0,.72c.34,2.52.59,5,1.06,7.55.6,3.2,1.39,6.36,2.06,9.55.19.88.64,1.11,1.45.94,1.64-.35,3.26-.73,4.91-1a37.11,37.11,0,0,1,5.45-.53c1.57,0,1.58.2,1.26-1.4-.42-2.15-.88-4.3-1.27-6.45q-1.08-6-2.07-12.11C109.14,212.47,108.88,212.16,108.16,212.3Z" />
        <path class="outline"
            d="M47.73,240.47a5.91,5.91,0,0,0-.9,3.59c-.08,2.68-.43,5.35-.49,8a47.75,47.75,0,0,0,.41,5.18l-.43.23c-1.09-2.95-.68-6-.59-9,0-1.15.08-2.3.13-3.45l.08-.9-.34.25-.31-.3c.4-.95.75-1.91,1.21-2.83s1.23-2,1.68-3A4.38,4.38,0,0,1,51,235.64c2.18-.77,4.3-1.71,6.45-2.55.8-.3,1.33-.68,1-1.65-.05-.15.08-.36.13-.57.17.07.3.08.37.15.57.57,1,1.42,1.72,1.66a6.71,6.71,0,0,0,5,0c1.09-.48,2.13-1.07,3.19-1.61l-1-3.36c1,.2,1.33,1,1.68,1.68.48.93.9,1,1.83.48,2.64-1.47,5.37-2.81,8.07-4.18.51-.26,1.07-.44,1.6-.65l.18.31c-.43.29-.84.6-1.28.86-2.44,1.44-4.94,2.79-7.32,4.32-3.21,2.05-6.8,3.13-10.36,4.3a4.46,4.46,0,0,1-1.32,0l1-.83.51-.29a13.09,13.09,0,0,1-2.51-.24,2.87,2.87,0,0,0-2.2.41c-2.22,1-4.44,2-6.72,2.84a3.79,3.79,0,0,0-2.36,2.18,4.8,4.8,0,0,1-.43.71h0Z" />
        <path class="outline"
            d="M53.48,225.11c-2.53,1.51-5.07,3-7.58,4.55a3.18,3.18,0,0,0-1.24,1.2c-1.52,3.29-2.91,6.64-4.48,9.9a18.2,18.2,0,0,0-1.56,5.94c-.17,1.42-.27,2.84-.41,4.26-.07.77.09,1.1,1,.79a6.56,6.56,0,0,0,3.75-3c.62-1.06,1.14-2.18,1.7-3.28.28-.56.56-.8.8,0-.72,1.66-1.34,3.38-2.21,5a6.38,6.38,0,0,1-3.86,2.79,2.67,2.67,0,0,0-1.54.84c-.62.76-.87-.23-1.15-.68l.11-2.13c.66-3.1,1.23-6.22,2-9.28a42.1,42.1,0,0,1,2-4.73c.89-2.17,1.72-4.37,2.64-6.52a3.3,3.3,0,0,1,1.17-1.57c2.75-1.51,5.57-2.91,8.36-4.35Z" />
        <path class="outline"
            d="M46.52,258.59c.17.09.46.15.49.28.24,1,.42,2,.63,3s.49,1.27,1.53.67A6.61,6.61,0,0,0,52.59,257c0-.55.09-1.1.14-1.65h.44c.3,2.83-.07,5.44-2.41,7.41l-.27.28.29.2a5.91,5.91,0,0,0,2.95-2.36l.41.35a4.61,4.61,0,0,1-2.37,2.37,15.4,15.4,0,0,1-1.33,1,1.12,1.12,0,0,1-1-.22c-.62-.62-.95-.61-1.44.14-.15.22-.44.5-.64.48a1.11,1.11,0,0,1-.66-.54,1.75,1.75,0,0,1-.19-.8c-.08-1.54-.15-3.08-.21-4.63C46.3,258.89,46.44,258.74,46.52,258.59Z" />
        <path class="outline"
            d="M62.92,244.8a7.43,7.43,0,0,1-.7,1.11c-3,3.27-3.43,7.59-4.66,11.57-.31,1,.45,1.52,1.91,1.43l.51.28-2,.28-.94.12c-.29,0-.75.16-.85,0a1.19,1.19,0,0,1-.16-.94c.21-.77.56-1.49.81-2.24.62-1.87,1.22-3.76,1.82-5.64l.31-1.93v0l.49-.44,2.92-3.87Z" />
        <path class="outline"
            d="M60,258.67a16.37,16.37,0,0,0,4.15-7.3,5.88,5.88,0,0,1,.81-1.67c1-1.31,2-2.56,3-3.84.76,0,.41.39.21.66-.91,1.26-1.86,2.49-2.75,3.76a6.35,6.35,0,0,0-.81,1.52,17.51,17.51,0,0,1-3.74,6.86,2.67,2.67,0,0,1-.48.32Z" />
        <path class="outline"
            d="M58.27,250l-2.08,3.42-.55,0c1.22-2.36,2.44-4.72,3.67-7.06.07-.12.31-.14.47-.2,0,.17.18.38.13.52-.24.58-.54,1.15-.81,1.72l-.1.44v0Z" />
        <path class="outline" d="M55.64,253.43l.55,0L55.09,258h-.42Z" />
        <path class="outline" d="M53.48,225.11l-.51-.26,2.19-1.19.5.25Z" />
        <path class="outline" d="M54.67,258h.42l-1,3.24-.41-.35Z" />
        <path class="color-base" d="M58.27,250l.72-1.16-.31,1.93Z" />
        <path class="outline" d="M68.13,245.63l.55-1.13.52.1C68.9,245,69,245.84,68.13,245.63Z" />
        <path class="color-base" d="M45.6,244.36l.34-.25-.08.9-.3.15a.94.94,0,0,1-.06-.15s0-.06.06-.08Z" />
        <path class="outline" d="M46.32,257.5l.43-.23-.23,1.07Z" />
        <path class="outline" d="M60,258.67l.37.31-.34.21-.51-.28Z" />
        <path class="outline"
            d="M51.94,244.47c.19-.21.35-.53.58-.6,1.29-.36,2.59-.68,3.9-1,.24,0,.53.12.79.18-.21.21-.38.54-.63.6-1.42.35-2.85.64-4.28,1Z" />
        <path class="color-base" d="M52.28,244.75l-.56,0,.26-.3,0,0,.36.15.05.07Z" />
        <path class="outline" d="M56.82,239.27h.36l0,.39Z" />
        <path class="outline" d="M49.05,242.87l-.16-.47Z" />
        <path class="outline" d="M45.6,244.36l0,.57-.5-.05.23-.82Z" />
        <path class="color-base" d="M54.74,237.74l-.63.11,0-.14.52-.16Z" />
        <path class="color-base"
            d="M108.16,212.3c.72-.14,1,.17,1.1.88q1,6.06,2.07,12.11c.39,2.15.85,4.3,1.27,6.45.32,1.6.31,1.42-1.26,1.4a37.11,37.11,0,0,0-5.45.53c-1.65.25-3.27.63-4.91,1-.81.17-1.26-.06-1.45-.94-.67-3.19-1.46-6.35-2.06-9.55-.47-2.5-.72-5-1.06-7.55a3.47,3.47,0,0,1,0-.72c.09-1.45.22-1.55,1.64-1.79,3.1-.53,6.19-1.11,9.29-1.67Z" />
        <path class="outline" d="M53.48,252.23l-.13.48-.57.47,0-1.19Z" />
        <path class="color-base" d="M47.73,240.47l.48-.85c.35.25.35.25-.1,1.11Z" />
        <path class="outline" d="M52.78,253.18l.57-.47-.06,2.18-.51-.26Z" />
        <path class="outline" d="M52.78,254.63l.51.26-.12.46h-.44Z" />
        <path class="color-base" d="M50.76,262.76l0,.48-.29-.2Z" />
        <path class="color-base" d="M59.1,248.41h.39l-.49.44Z" />
    </g>
</svg>
