<svg xmlns="http://www.w3.org/2000/svg" viewBox="0 0 672 960">
    <path class="cls-1" d="M398.12,345.34v-.24h8.4l0,.3c-.65,0-1.3,0-1.95,0Z" />
    <path class="cls-1" d="M315.08,900.7a.23.23,0,0,1,.21,0v2.69h-.11l-.1,0Z" />
    <path class="cls-1" d="M408.44,345.1l0,.55-.69-.08v-.47Z" />
    <path class="cls-2"
        d="M406.5,345.41l1.23.16.69.08,1,.16.85.13.59.1.84.15.6.1.47.07.69.14.75.13.45.12.65.12.59.14.47.08.69.16.63.15.37.09.47.08.45.13.51.11.45.14.64.17.36.09.59.17,1.77.53,1.34.44,2,.72.62.24.59.22.6.27,1.07.45,1.08.51,1.33.64L433,353l1.62.94A3.23,3.23,0,0,0,435,355c.84,1,1.75,2,2.65,2.92a11.93,11.93,0,0,1,3,5.35,56.6,56.6,0,0,0,2.07,6.47,16.9,16.9,0,0,1,1.25,6.88c-.13,3.65.11,7.31-.43,11-.5,3.41.43,6.8.91,10.18a61.57,61.57,0,0,0,3.86,14.6c1.41,3.47,2.84,6.93,4.36,10.36,1.8,4.07,3.63,8.13,5.58,12.13,1.45,3,3.23,5.78,4.63,8.78,1.76,3.78,3.32,7.66,4.88,11.54,1.4,3.47,2.83,6.94,4,10.49a143.51,143.51,0,0,1,5,19.14c.45,2.54,1,5.07,1.31,7.62.27,2.05.34,4.12.52,6.17.3,3.48.63,7,.93,10.44.12,1.39.17,2.78.26,4.17q.35,5.1.7,10.22c.16,2.22.3,4.44.52,6.66.36,3.71.76,7.41,1.16,11.12s.77,7.5,1.25,11.23c.4,3.11.91,6.2,1.4,9.29.65,4.16,1.36,8.3,2,12.46q.57,3.89.89,7.8c.24,2.93.28,5.88.52,8.81.25,3.12.64,6.24,1,9.35s.63,5.92.93,8.88c.16,1.58.34,3.15.44,4.74s.48,3.27.07,4.73a60.69,60.69,0,0,1-3,7.65,27.23,27.23,0,0,1-1.73,3l.14.12,4.89-5c.17,1.09.27,1.83.4,2.56.57,3.08,1.12,6.17,1.76,9.23a1.8,1.8,0,0,1-.39,1.84,12.09,12.09,0,0,0-1.6,2.21c-.66,1.15.36,3.62,1.61,4.07,1.87.68,1.85.69,2,2.82.05.82.23,1.64.35,2.47.27,1.78.53,3.57.8,5.41-1.34-.48-1.6-.27-1.66,1.06-.07,1.79-.22,3.57-.29,5.36a44.27,44.27,0,0,0-.1,6.09c.31,3,.94,5.92,1.39,8.67.56-1.17.63-2.91,1.88-4.09l.05-2.13.38-.82,0-.38.86-1.87c.16.66.22,1,.33,1.4.89,3,1.84,6,2.69,9,1.67,6,3.24,12,4.95,17.93a66.12,66.12,0,0,1,2.09,9.53c.52,4,1.22,7.91,1.84,11.87.58,3.68,1.31,7.34,1.69,11.05s.41,7.23.52,10.85c.13,4.43.26,8.86.22,13.28,0,3.54-.38,7.08-.43,10.62q-.1,9.24,0,18.48a44.57,44.57,0,0,0,.52,6.53c.75,4.57,1.72,9.11,2.49,13.69a12.71,12.71,0,0,1,0,4,8.7,8.7,0,0,1-1.22,2.7c-.61,1.13-1.29,2.21-2,3.32l.1.12,3.73-3.22c.39,2.46.69,4.69,1.11,6.89.31,1.65.85,3.32.19,4.94-.95,2.32-2.06,4.58-3.17,6.82-.12.24-.76.37-1.11.3a46.25,46.25,0,0,0-13.54-.57c-.33,0-.67,0-1,.06a3.31,3.31,0,0,1,.25-1.22,8.88,8.88,0,0,1,4.39-3.69c.49-.17,1-.4,1.61-.68a27,27,0,0,0-4.26.05c-1.23.21-1.15-.34-1.14-1.19q0-4.7,0-9.41c0-.62.09-1,.79-1s1.28-.19,1.66-.25a7.05,7.05,0,0,1-.73-2,7.86,7.86,0,0,0-.8-4.05.78.78,0,0,1-.08-.56,5.71,5.71,0,0,0-.58-3.59c-.88-2.39-2-4.72-2.63-7.17-1.11-4.13-1.9-8.36-2.92-12.52-1-4-2-7.93-3.12-11.88-1.9-6.9-3.85-13.78-5.74-20.68-1.09-4-2.17-7.89-3.15-11.87a51.11,51.11,0,0,0-3.8-11.53,43.14,43.14,0,0,1-3.86-12.26c-.52-2.88-.94-5.79-1.41-8.68s-.91-6-1.51-8.91c-.52-2.52-1.22-5-1.9-7.49-.48-1.76-1.1-3.49-1.55-5.26a3.24,3.24,0,0,1,.25-1.56c.15-.53.46-1,.6-1.55.27-1,.48-1.94.71-2.94l1.69,1.62c1.22,1.4,2.54,2.64,4.57,2.64h.45l2.78.26a15.1,15.1,0,0,1-5.55-6.4c-1.79-4.3-3.45-8.65-5.2-13-1.23-3-2.5-6-3.76-9.05a2.23,2.23,0,0,1,.21-2.13c.77-1.38,1.34-2.87,2-4.35-4.08-1-7.14,2.74-5.43,6,.09.18,0,.48-.07.79a7,7,0,0,1-3-3.62c-.74-2.71-1.38-5.45-1.9-8.22a103.73,103.73,0,0,0-4.5-16.79c-2.63-7.12-5.93-13.94-9.17-20.79-1.7-3.59-3.4-7.21-4.79-10.93-2.45-6.57-4.74-13.19-6.95-19.84-1.44-4.34-2.69-8.75-3.87-13.17-1.64-6.14-3.08-12.34-4.73-18.48-1.12-4.16-2.46-8.24-3.67-12.37-1.82-6.18-3.59-12.38-5.42-18.56-1.08-3.63-2.26-7.22-3.36-10.84q-.78-2.61-1.44-5.27a6.78,6.78,0,0,0-6.74-5.24c-3.49.13-7,.35-10.46.75a23.5,23.5,0,0,0-5.52,1.38c-2.69,1-5.28,2.24-7.9,3.41-.6.27-1.17.63-1.72.94a27.58,27.58,0,0,1,4.26.42c2.93.74,5.81,1.69,8.72,2.53a.91.91,0,0,1,.78,1c0,2.43.15,4.86.22,7.29.09,3.15.23,6.3.22,9.45,0,5.59-.13,11.18-.23,16.77,0,1.43-.14,2.86-.28,4.28-.19,2-.45,4-.67,6-.26,2.41-.51,4.82-.77,7.22-.3,2.65-.63,5.28-.9,7.92-.14,1.47-.16,2.94-.28,4.41-.21,2.45-.47,4.9-.68,7.35-.19,2.18-.33,4.36-.51,6.54-.22,2.73-.5,5.45-.69,8.19-.2,2.93-.34,5.87-.48,8.81-.17,3.66-.38,7.32-.46,11-.05,2.07.11,4.14.21,6.21.23,4.93.64,9.86.68,14.79.06,7.45.43,14.92-.92,22.31-.33,1.77-.68,3.54-1,5.31a12.83,12.83,0,0,1-3.11-6,2.09,2.09,0,0,0-.18.92c.07,1.67.07,3.35.26,5,.21,1.88.61,3.74.88,5.62a28.85,28.85,0,0,1,.26,3.08c.07,2.17.06,4.35.15,6.52.1,2.37.76,4.72,0,7.1a5.74,5.74,0,0,0-.31,2.35,38.15,38.15,0,0,0,3.13,11.08A30.5,30.5,0,0,1,387,699.09c.05,9,.48,18-.43,27.06-.17,1.77-.44,3.54-.65,5.31-.19,1.57-.38,3.15-.53,4.73-.19,1.94-.33,3.88-.52,5.82-.29,2.8-.75,5.59-.89,8.4-.21,3.86-.26,7.73-.26,11.6s.12,8,.23,12c.13,4.86.3,9.72.48,14.58.05,1.47.13,2.94.25,4.41.1,1.18.32,2.36.4,3.54.14,1.91.25,3.82.28,5.73,0,1.39-.11,2.78-.22,4.17-.1,1.18-.28,2.35-.43,3.53a12.72,12.72,0,0,0-.26,2.36,4.54,4.54,0,0,1-2.67,4.51c1.23,1.1,2.11,2.52,3.79,3.07a1.72,1.72,0,0,1,1,1.07c.4,1.9.69,3.82,1,5.74a1.37,1.37,0,0,1-.33,1,3.66,3.66,0,0,0-.36,4.81,2.71,2.71,0,0,1,.45,1.32c0,1.47-.14,2.93-.22,4.5a3,3,0,0,1-2.47-2,9.55,9.55,0,0,0-.67-1.26l-.77,1.38c0,.06-.13.08,0,0-2.45-1.63-4.81-3.24-7.21-4.77-1.48-.95-2.56-.67-3.53.78l-1.19-.36c-.5-.54-1-1.09-1.5-1.6s-.46-.78.16-.94c1.15-.31,2.31-.55,3.46-.82.22-.05.43-.12.81-.23l-8.91-2.58c2-3.32,1.39-6.46-.63-9.61l9.83-.7c-.11-.17-.19-.43-.36-.53-.48-.27-1-.42-1.49-.73-2-1.31-4-2.65-5.91-4a1.73,1.73,0,0,1-.49-1c-.95-4.58-1.9-9.16-2.78-13.76-.5-2.65-.86-5.32-1.31-8-.58-3.4-1-6.84-1.83-10.18-2.07-8.54-4.44-17-6.43-25.55-1.11-4.78-1.77-9.67-2.51-14.53s-1.27-9.83-2-14.74a65.83,65.83,0,0,1-.94-13.37c.09-1.56-.09-3.13.06-4.68a25.79,25.79,0,0,0-.82-11,9.3,9.3,0,0,1-.32-6.09c.54-1.62,1.26-3.19,1.74-4.83a21.86,21.86,0,0,0,1.21-5.45c.11-4.43-.16-8.86-.16-13.29,0-4.23.14-8.46.24-12.68a4.42,4.42,0,0,1,.35-1,13,13,0,0,0,1-3.73,51.53,51.53,0,0,0-2.08-12.18c-1.13-4.3-2.36-8.58-3.35-12.92-1.79-7.94-3.36-15.93-5.17-23.86-1.35-5.93-3-11.79-4.42-17.7-1-3.93-1.91-7.87-2.73-11.84-.79-3.8-1.43-7.64-2.12-11.47-.56-3.12-1.12-6.24-1.66-9.37-.77-4.45-1.54-8.91-2.28-13.36-.4-2.39-.78-4.78-1.07-7.18q-.57-4.6-1-9.23c-.28-3.05-.62-6.1-.67-9.15a99.78,99.78,0,0,1,.42-14.46c.34-2.67.44-5.38.77-8.06q.74-6,1.66-11.89c.69-4.39,1.35-8.79,2.27-13.13,1.37-6.45,2.95-12.85,4.44-19.28,1.07-4.6,2.06-9.23,3.22-13.81s1.91-9,3.88-13.14q1.68-3.54,3.42-7.05a61.55,61.55,0,0,0,2.82-5.55c1.64-4.36,2-9,2.26-13.57.1-1.63.14-3.26.28-4.89.28-3.16.6-6.32.93-9.48.17-1.69.37-3.39.63-5.07.31-2.08.85-4.13,1-6.22.17-2.51,0-5,0-7.56a54.51,54.51,0,0,1,16.23-7.74,32.62,32.62,0,0,1,9.91-1.49c3,0,6-.08,9-.13l.33,1.74.34,0v-1.72l9.14-.29,6.43,0C405.2,345.37,405.85,345.4,406.5,345.41ZM377.26,657.16c-.12-1.36-.32-3.37-.49-5.39a59.27,59.27,0,0,0-2.74-12c-.08-.29-.42-.51-.64-.77-.17.28-.45.55-.48.84-.26,2.33-.49,4.65-.71,7-.25,2.76-.36,5.55-.77,8.29a48.09,48.09,0,0,1-3.8,14.1,4.46,4.46,0,0,0,1,4.15c1.06.83,4.22.71,5.12-.31a8.53,8.53,0,0,0,1.55-2.52C376.89,666.41,377.1,662.12,377.26,657.16Zm-19.44,10.52.23-.22a2.49,2.49,0,0,1-1-2.66,17.62,17.62,0,0,0-2.74-11,4.67,4.67,0,0,0-.65-.69c-.23.3-.63.58-.67.9-.15,1.22-.22,2.45-.26,3.68a11.78,11.78,0,0,0,4.17,9.5A5.55,5.55,0,0,0,357.82,667.68Z" />
    <path class="cls-3"
        d="M372.43,832.42c1-1.45,2.05-1.73,3.53-.78,2.4,1.53,4.76,3.14,7.21,4.77-.13.08,0,.06,0,0l.77-1.38a9.55,9.55,0,0,1,.67,1.26,3,3,0,0,0,2.47,2c.08-1.57.2-3,.22-4.5a2.71,2.71,0,0,0-.45-1.32,3.66,3.66,0,0,1,.36-4.81,1.37,1.37,0,0,0,.33-1c-.27-1.92-.56-3.84-1-5.74a1.72,1.72,0,0,0-1-1.07c-1.68-.55-2.56-2-3.79-3.07a4.54,4.54,0,0,0,2.67-4.51,12.72,12.72,0,0,1,.26-2.36c.15-1.18.33-2.35.43-3.53.11-1.39.23-2.78.22-4.17,0-1.91-.14-3.82-.28-5.73-.08-1.18-.3-2.36-.4-3.54-.12-1.47-.2-2.94-.25-4.41-.18-4.86-.35-9.72-.48-14.58-.11-4-.23-8-.23-12s.05-7.74.26-11.6c.14-2.81.6-5.6.89-8.4.19-1.94.33-3.88.52-5.82.15-1.58.34-3.16.53-4.73.21-1.77.48-3.54.65-5.31.91-9,.48-18,.43-27.06a30.5,30.5,0,0,0-2.77-12.37,38.15,38.15,0,0,1-3.13-11.08,5.74,5.74,0,0,1,.31-2.35c.77-2.38.11-4.73,0-7.1-.09-2.17-.08-4.35-.15-6.52a28.85,28.85,0,0,0-.26-3.08c-.27-1.88-.67-3.74-.88-5.62-.19-1.66-.19-3.34-.26-5a2.09,2.09,0,0,1,.18-.92,12.83,12.83,0,0,0,3.11,6c.34-1.77.69-3.54,1-5.31,1.35-7.39,1-14.86.92-22.31,0-4.93-.45-9.86-.68-14.79-.1-2.07-.26-4.14-.21-6.21.08-3.66.29-7.32.46-11,.14-2.94.28-5.88.48-8.81.19-2.74.47-5.46.69-8.19.18-2.18.32-4.36.51-6.54.21-2.45.47-4.9.68-7.35.12-1.47.14-2.94.28-4.41.27-2.64.6-5.27.9-7.92.26-2.4.51-4.81.77-7.22.22-2,.48-4,.67-6,.14-1.42.25-2.85.28-4.28.1-5.59.21-11.18.23-16.77,0-3.15-.13-6.3-.22-9.45-.07-2.43-.18-4.86-.22-7.29a.91.91,0,0,0-.78-1c-2.91-.84-5.79-1.79-8.72-2.53a27.58,27.58,0,0,0-4.26-.42c.55-.31,1.12-.67,1.72-.94,2.62-1.17,5.21-2.41,7.9-3.41a23.5,23.5,0,0,1,5.52-1.38c3.47-.4,7-.62,10.46-.75a6.78,6.78,0,0,1,6.74,5.24q.66,2.65,1.44,5.27c1.1,3.62,2.28,7.21,3.36,10.84,1.83,6.18,3.6,12.38,5.42,18.56,1.21,4.13,2.55,8.21,3.67,12.37,1.65,6.14,3.09,12.34,4.73,18.48,1.18,4.42,2.43,8.83,3.87,13.17,2.21,6.65,4.5,13.27,6.95,19.84,1.39,3.72,3.09,7.34,4.79,10.93,3.24,6.85,6.54,13.67,9.17,20.79a103.73,103.73,0,0,1,4.5,16.79c.52,2.77,1.16,5.51,1.9,8.22a7,7,0,0,0,3,3.62c0-.31.16-.61.07-.79-1.71-3.25,1.35-7,5.43-6-.68,1.48-1.25,3-2,4.35a2.23,2.23,0,0,0-.21,2.13c1.26,3,2.53,6,3.76,9.05,1.75,4.32,3.41,8.67,5.2,13a15.1,15.1,0,0,0,5.55,6.4l-2.78-.26h-.45a5.43,5.43,0,0,0-3.32-3.38,2.12,2.12,0,0,1-1-1.22c-.87-2.3-1.65-4.64-2.46-7-2-5.82-4-11.64-6-17.48a4.7,4.7,0,0,1,0-1.5c0-.34,0-.68,0-1-.4.17-.94.24-1.15.54a2.14,2.14,0,0,0-.32,1.44,13.22,13.22,0,0,0,.74,2.52c2.52,6.59,5.07,13.16,7.56,19.76.57,1.51.94,3.11,1.4,4.67l-1.69-1.62c-.23,1-.44,2-.71,2.94-.14.53-.45,1-.6,1.55a3.24,3.24,0,0,0-.25,1.56c.45,1.77,1.07,3.5,1.55,5.26.68,2.48,1.38,5,1.9,7.49.6,3,1,5.94,1.51,8.91s.89,5.8,1.41,8.68a43.14,43.14,0,0,0,3.86,12.26,51.11,51.11,0,0,1,3.8,11.53c1,4,2.06,7.92,3.15,11.87,1.89,6.9,3.84,13.78,5.74,20.68,1.08,4,2.15,7.9,3.12,11.88,1,4.16,1.81,8.39,2.92,12.52.65,2.45,1.75,4.78,2.63,7.17a5.71,5.71,0,0,1,.58,3.59.78.78,0,0,0,.08.56,7.86,7.86,0,0,1,.8,4.05,7.05,7.05,0,0,0,.73,2c-.38.06-1,.2-1.66.25s-.8.42-.79,1q0,4.71,0,9.41c0,.85-.09,1.4,1.14,1.19a27,27,0,0,1,4.26-.05c-.65.28-1.12.51-1.61.68a8.88,8.88,0,0,0-4.39,3.69,3.31,3.31,0,0,0-.25,1.22c.34,0,.68,0,1-.06a46.25,46.25,0,0,1,13.54.57c.35.07,1-.06,1.11-.3,1.11-2.24,2.22-4.5,3.17-6.82.66-1.62.12-3.29-.19-4.94-.42-2.2-.72-4.43-1.11-6.89l-3.73,3.22L512,811c.66-1.11,1.34-2.19,2-3.32a8.7,8.7,0,0,0,1.22-2.7,12.71,12.71,0,0,0,0-4c-.77-4.58-1.74-9.12-2.49-13.69a44.57,44.57,0,0,1-.52-6.53q-.09-9.24,0-18.48c.05-3.54.41-7.08.43-10.62,0-4.42-.09-8.85-.22-13.28-.11-3.62-.15-7.26-.52-10.85s-1.11-7.37-1.69-11.05c-.62-4-1.32-7.9-1.84-11.87a66.12,66.12,0,0,0-2.09-9.53c-1.71-6-3.28-12-4.95-17.93-.85-3-1.8-6-2.69-9-.11-.36-.17-.74-.33-1.4l-.86,1.87a5.58,5.58,0,0,1-.16-.68c-.17-2.3-.21-4.61-.53-6.89a16.75,16.75,0,0,0-1.26-3.41l-.3.12a1.4,1.4,0,0,0,0,.35c.47,3.34,1,6.67,1.42,10,.18,1.27.31,2.56.46,3.83-1.25,1.18-1.32,2.92-1.88,4.09-.45-2.75-1.08-5.7-1.39-8.67a44.27,44.27,0,0,1,.1-6.09c.07-1.79.22-3.57.29-5.36.06-1.33.32-1.54,1.66-1.06-.27-1.84-.53-3.63-.8-5.41-.12-.83-.3-1.65-.35-2.47-.15-2.13-.13-2.14-2-2.82-1.25-.45-2.27-2.92-1.61-4.07a12.09,12.09,0,0,1,1.6-2.21,1.8,1.8,0,0,0,.39-1.84c-.64-3.06-1.19-6.15-1.76-9.23-.13-.73-.23-1.47-.4-2.56l-4.89,5-.14-.12a27.23,27.23,0,0,0,1.73-3,60.69,60.69,0,0,0,3-7.65c.41-1.46,0-3.15-.07-4.73s-.28-3.16-.44-4.74c-.3-3-.62-5.92-.93-8.88s-.72-6.23-1-9.35c-.24-2.93-.28-5.88-.52-8.81q-.31-3.91-.89-7.8c-.6-4.16-1.31-8.3-2-12.46-.49-3.09-1-6.18-1.4-9.29-.48-3.73-.85-7.48-1.25-11.23s-.8-7.41-1.16-11.12c-.22-2.22-.36-4.44-.52-6.66q-.36-5.11-.7-10.22c-.09-1.39-.14-2.78-.26-4.17-.3-3.48-.63-7-.93-10.44-.18-2.05-.25-4.12-.52-6.17-.35-2.55-.86-5.08-1.31-7.62a143.51,143.51,0,0,0-5-19.14c-1.15-3.55-2.58-7-4-10.49-1.56-3.88-3.12-7.76-4.88-11.54-1.4-3-3.18-5.81-4.63-8.78-1.95-4-3.78-8.06-5.58-12.13-1.52-3.43-2.95-6.89-4.36-10.36a61.57,61.57,0,0,1-3.86-14.6c-.48-3.38-1.41-6.77-.91-10.18.54-3.67.3-7.33.43-11a16.9,16.9,0,0,0-1.25-6.88,56.6,56.6,0,0,1-2.07-6.47,11.93,11.93,0,0,0-3-5.35c-.9-1-1.81-1.92-2.65-2.92a3.23,3.23,0,0,1-.38-1.07l3.55,2.29.56.39a.29.29,0,0,1,.16.11l.55.38,9.5,7.6,1.57,1.27c-.18.17-.5.33-.52.53-.35,2.72-.69,5.44-1,8.17-.16,1.67-.18,3.34-.32,5-.35,4.08-1,8.15-1,12.24-.08,4.67,2,8.9,3.68,13.14.75,1.86,2.05,3.5,3,5.3,2.23,4.23,4.5,8.45,6.55,12.78,2.17,4.57,4.08,9.28,6.14,13.91,1.41,3.17,3,6.28,4.3,9.49,2.12,5.12,4.22,10.26,6.09,15.48s3.73,10.46,5.07,15.82A149.11,149.11,0,0,1,485,492.73c.53,3.59,1.46,7.15,1.26,10.83,0,.57.37,1.15.39,1.74.06,2.21,0,4.44.09,6.65.24,4.46.6,8.91.86,13.37.06,1-.19,2-.18,3,0,1.73.12,3.46.23,5.19q.34,5.79.73,11.56c.08,1.24.16,2.47.26,3.7.3,3.93.61,7.85.9,11.78.08,1.14.06,2.29.16,3.44.24,2.77.52,5.54.8,8.31.41,4.15.8,8.31,1.27,12.45q.85,7.44,1.85,14.86c.35,2.6.81,5.19,1.33,7.76.46,2.29.94,4.49-.47,6.68a29.51,29.51,0,0,0-1.77,3.82l.21.12,1.85-2.61c-.21,2.12-.48,4.15-.6,6.19a24.78,24.78,0,0,0,.2,3.09c.12,1.77,0,3.56.75,5.25a2.22,2.22,0,0,1,.12,1.39,3.32,3.32,0,0,0,.61,3.17c1.18,1.4.21,3.74-1.13,4.49-.55.31-.87,1.05-1.25,1.63-.07.1,0,.41.15.52s.36,0,.51,0c.74-.36,1.47-.76,2.33-1.21a10.44,10.44,0,0,1,.51,1.52c.47,2.74.83,5.5,1.35,8.24.63,3.38,1.36,6.74,2.1,10.1a33.32,33.32,0,0,0,1,3.41c.65,2,1.4,4,2,6,.46,1.55.7,3.17,1.13,4.73.71,2.6,1.48,5.2,2.26,7.78q1.24,4.11,2.57,8.19c.47,1.47,1.13,2.89,1.52,4.39.85,3.27,1.66,6.55,2.33,9.85.49,2.46.75,5,1.07,7.44.18,1.42.24,2.84.4,4.26.24,2.1.56,4.19.78,6.3.11,1.06.08,2.13.13,3.2.2,3.76.45,7.51.6,11.28.08,2.09,0,4.2,0,6.3s.14,4.11.19,6.16c.1,3.86.12,7.73.3,11.59.14,3,.51,6.07.69,9.11.21,3.37.33,6.74.47,10.11,0,.9-.07,1.82,0,2.72.1,1.79.39,3.57.4,5.35s-.14,3.67,1,5.33a2.77,2.77,0,0,1,.07,3,4.33,4.33,0,0,0-.6,2.73,13.29,13.29,0,0,1,.08,4.31l-.22.25-.31.08.06.09.24-.18.25-.22a1.57,1.57,0,0,0,.45-.13c1.17-.77,1.29-.8,1.5.61a43.51,43.51,0,0,1,.41,5.58c0,1.26-.48,2.54-.36,3.78a29.41,29.41,0,0,0,1.07,5.58,10,10,0,0,0,1.73,3.07,1.24,1.24,0,0,1,0,1.85c-1.34,1.71-2.57,3.49-3.86,5.27a1.85,1.85,0,0,0,.58-.13,14.66,14.66,0,0,0,1.83-1.12c.78-.59,1.22-.39,1.7.4,1.45,2.42,1.48,2.41-.31,4.49a.84.84,0,0,0-.15.18c-.39.94-1,.72-1.75.44a72.45,72.45,0,0,0-7.84-2.79,38.21,38.21,0,0,0-8.81-1.3,41.42,41.42,0,0,0-8.2,1.25,34,34,0,0,0-4,1.29c-.22-.52-.31-1.22-.7-1.54a1.45,1.45,0,0,1-.22-2.2,7.66,7.66,0,0,1,1.45-1.56c1.5-1.23,3.05-2.4,4.58-3.6l.33-.09-.07-.08a2.27,2.27,0,0,0-.25.18l-4.06,1.14a19.15,19.15,0,0,1,0-3.48c.46-2.5,1.06-5,.77-7.54-.21-1.92,0-3.92-1.06-5.67a1.11,1.11,0,0,1,.35-1.66,2.37,2.37,0,0,1,1.72,0,21.56,21.56,0,0,1,2,1.21,15,15,0,0,0,1.67.6c-1.18-1.21-2.45-2.2-3.6-3.32-.82-.8-1.54-1.72-1.06-3a3,3,0,0,0,.15-1.41c-.38-2.38-.79-4.75-1.25-7.12-.29-1.49-.7-3-1-4.45-.55-2.66-1-5.36-1.63-8-1.26-5.17-2.68-10.29-4-15.45-1.05-4.19-2-8.42-3.07-12.61-.95-3.69-2-7.36-3-11-1.15-4-2.25-8-3.62-11.85-1.62-4.62-3.51-9.14-5.25-13.71a29.57,29.57,0,0,1-1.22-3.88c-.76-3.4-1.45-6.83-2.12-10.26-.77-3.93-1.49-7.88-2.22-11.82-.18-.94-.37-1.87-.46-2.82-.18-1.92-.28-3.85-.44-5.78-.18-2.26-.48-4.52-.55-6.78a10.11,10.11,0,0,0-1-4.71c-1.62-3-3.95-5.57-4.93-8.92-.66-2.28-1.43-4.54-2.08-6.83a9.18,9.18,0,0,1-.13-2l1.69.76a2,2,0,0,0,.24,0l.22.36.13-.13-.37-.22A22.12,22.12,0,0,0,455.4,649c-3.35-2.08-3.42-2-4.24-5.27s-1.59-6.82-2.6-10.17c-1.39-4.65-3-9.24-4.5-13.86-2.51-7.65-5-15.31-7.57-22.94-1.37-4.07-2.85-8.11-4.38-12.12S429,576.83,427.44,573c-1.18-3-2.32-5.91-3.51-8.86-1.05-2.61-2.21-5.19-3.21-7.83-1.31-3.45-2.54-6.93-3.75-10.42q-2.39-6.89-4.69-13.8c-.77-2.34-1.46-4.71-2.13-7.08-1-3.43-2-6.85-2.86-10.33s-1.32-6.89-2-10.34c-.53-2.9-1.25-5.78-1.49-8.7-.13-1.53-.61-1.83-2-2.14a20.25,20.25,0,0,0-5.58-.42c-.44,0-1.17.53-1.21.88a33.86,33.86,0,0,0-.27,5.13c.11,2.84.39,5.67.57,8.51.1,1.66.19,3.33.21,5,0,4,.16,8,.06,12-.07,2.55-.5,5.09-.48,7.66a49.8,49.8,0,0,1-.62,5.68q-.68,6.55-1.33,13.12c-.3,3-.54,6-.86,9-.37,3.43-.83,6.86-1.18,10.3-.23,2.24-.33,4.49-.51,6.73-.23,2.65-.49,5.3-.72,8s-.48,5.58-.72,8.37-.49,5.62-.71,8.43c-.12,1.55-.27,3.1-.27,4.65,0,4.22.1,8.44.16,12.66,0,0,0,.07,0,.11.18,2.58.4,5.16.53,7.75s.13,5.13.22,7.7a36.12,36.12,0,0,1,.17,4.28c-.19,2.15-.64,4.29-1,6.43-.28,1.75-.59,3.49-.84,5.24-.42,2.79-.81,5.59-1.2,8.38-.12.86-.22,1.72-.32,2.58h-.28c-1-2-1.91-3.94-2.87-5.92l-.26.09a2.68,2.68,0,0,0,0,.75c.7,2,1.42,4,2.13,5.94a18.71,18.71,0,0,0,1.08,2.91,5.43,5.43,0,0,1,.43,5.22,6.62,6.62,0,0,0-.16,5.23,22.8,22.8,0,0,1,1.21,6.66c.33,3.19.35,6.43,1.48,9.5a7.77,7.77,0,0,1,.66,2c.22,2.74.37,5.48.48,8.23s.18,5.34.24,8c.1,4.07.31,8.15.24,12.22-.07,3.74-.46,7.47-.66,11.2q-.39,7.64-.71,15.28-.27,6.56-.48,13.1c-.05,1.5,0,3,0,4.5q-.12,8.21-.26,16.41c0,.24,0,.48-.05.72,0,1.51-.1,3-.1,4.53,0,2.62.08,5.24.08,7.86,0,1.36-.15,2.71-.12,4.06.13,4.75.33,9.51.45,14.26,0,1.34-.4,1.65-1.75,1.63-.66,0-1.33.1-2,.16v.43c1.28.41,2.55.9,3.95.33.39-.16.73-.67,1.24-.07s.68.81.44,1.54a10.77,10.77,0,0,0-.46,3,17.79,17.79,0,0,0,.27,3.57,16.4,16.4,0,0,0,.85,2.47l.06.25a1.93,1.93,0,0,1-1.83,2c-.92.13-.95,1.49-.16,2.06a2.7,2.7,0,0,1,.69.61c.51.76,1,1.56,1.47,2.32a4.13,4.13,0,0,1,.11,5.1,1.13,1.13,0,0,1-1.39.55c-1.5-.33-3-.57-4.52-.85a1.06,1.06,0,0,0,.54.75c1.11.54,2.26,1,3.34,1.58a1.84,1.84,0,0,1,.8,1c.32,1.06.49,2.16.78,3.23a2.85,2.85,0,0,1-.26,2.48c-1,1.54-2.4,1.37-3.8,1.33-.73,0-1.61.24-2.18-.62s-1.42-1.91-2.11-2.87a.62.62,0,0,1-.1-.56,4.26,4.26,0,0,0,.14-4.31,13.89,13.89,0,0,0-4.94-5.71C376.05,834.59,374.21,833.55,372.43,832.42Zm120-213.95-.71.7.33.21.36-.92.1,0s0,0,0-.07Z" />
    <path class="cls-4"
        d="M458.85,652.3a2,2,0,0,1-.24,0l-1.69-.76a9.18,9.18,0,0,0,.13,2c.65,2.29,1.42,4.55,2.08,6.83,1,3.35,3.31,5.94,4.93,8.92a10.11,10.11,0,0,1,1,4.71c.07,2.26.37,4.52.55,6.78.16,1.93.26,3.86.44,5.78.09,1,.28,1.88.46,2.82.73,3.94,1.45,7.89,2.22,11.82.67,3.43,1.36,6.86,2.12,10.26a29.57,29.57,0,0,0,1.22,3.88c1.74,4.57,3.63,9.09,5.25,13.71,1.37,3.89,2.47,7.89,3.62,11.85,1.06,3.67,2.09,7.34,3,11,1.08,4.19,2,8.42,3.07,12.61,1.3,5.16,2.72,10.28,4,15.45.65,2.63,1.08,5.33,1.63,8,.31,1.49.72,3,1,4.45.46,2.37.87,4.74,1.25,7.12a3,3,0,0,1-.15,1.41c-.48,1.32.24,2.24,1.06,3,1.15,1.12,2.42,2.11,3.6,3.32a15,15,0,0,1-1.67-.6,21.56,21.56,0,0,0-2-1.21,2.37,2.37,0,0,0-1.72,0,1.11,1.11,0,0,0-.35,1.66c1.08,1.75.85,3.75,1.06,5.67.29,2.58-.31,5-.77,7.54a19.15,19.15,0,0,0,0,3.48l4.06-1.14h0c-1.53,1.2-3.08,2.37-4.58,3.6a7.66,7.66,0,0,0-1.45,1.56,1.45,1.45,0,0,0,.22,2.2c.39.32.48,1,.7,1.54a34,34,0,0,1,4-1.29,41.42,41.42,0,0,1,8.2-1.25,38.21,38.21,0,0,1,8.81,1.3,72.45,72.45,0,0,1,7.84,2.79c.74.28,1.36.5,1.75-.44a.84.84,0,0,1,.15-.18c1.79-2.08,1.76-2.07.31-4.49-.48-.79-.92-1-1.7-.4a14.66,14.66,0,0,1-1.83,1.12,1.85,1.85,0,0,1-.58.13c1.29-1.78,2.52-3.56,3.86-5.27a1.24,1.24,0,0,0,0-1.85,10,10,0,0,1-1.73-3.07,29.41,29.41,0,0,1-1.07-5.58c-.12-1.24.37-2.52.36-3.78a43.51,43.51,0,0,0-.41-5.58c-.21-1.41-.33-1.38-1.5-.61a1.57,1.57,0,0,1-.45.13l0,0a13.29,13.29,0,0,0-.08-4.31,4.33,4.33,0,0,1,.6-2.73,2.77,2.77,0,0,0-.07-3c-1.13-1.66-1-3.47-1-5.33s-.3-3.56-.4-5.35c-.06-.9,0-1.82,0-2.72-.14-3.37-.26-6.74-.47-10.11-.18-3-.55-6.07-.69-9.11-.18-3.86-.2-7.73-.3-11.59-.05-2.05-.16-4.1-.19-6.16s0-4.21,0-6.3c-.15-3.77-.4-7.52-.6-11.28,0-1.07,0-2.14-.13-3.2-.22-2.11-.54-4.2-.78-6.3-.16-1.42-.22-2.84-.4-4.26-.32-2.48-.58-5-1.07-7.44-.67-3.3-1.48-6.58-2.33-9.85-.39-1.5-1.05-2.92-1.52-4.39q-1.32-4.08-2.57-8.19c-.78-2.58-1.55-5.18-2.26-7.78-.43-1.56-.67-3.18-1.13-4.73-.59-2-1.34-4-2-6a33.32,33.32,0,0,1-1-3.41c-.74-3.36-1.47-6.72-2.1-10.1-.52-2.74-.88-5.5-1.35-8.24a10.44,10.44,0,0,0-.51-1.52c-.86.45-1.59.85-2.33,1.21-.15.08-.42.12-.51,0s-.22-.42-.15-.52c.38-.58.7-1.32,1.25-1.63,1.34-.75,2.31-3.09,1.13-4.49a3.32,3.32,0,0,1-.61-3.17,2.22,2.22,0,0,0-.12-1.39c-.73-1.69-.63-3.48-.75-5.25a24.78,24.78,0,0,1-.2-3.09c.12-2,.39-4.07.6-6.19L492.94,618l-.21-.12A29.51,29.51,0,0,1,494.5,614c1.41-2.19.93-4.39.47-6.68-.52-2.57-1-5.16-1.33-7.76q-1-7.43-1.85-14.86c-.47-4.14-.86-8.3-1.27-12.45-.28-2.77-.56-5.54-.8-8.31-.1-1.15-.08-2.3-.16-3.44-.29-3.93-.6-7.85-.9-11.78-.1-1.23-.18-2.46-.26-3.7q-.37-5.77-.73-11.56c-.11-1.73-.2-3.46-.23-5.19,0-1,.24-2,.18-3-.26-4.46-.62-8.91-.86-13.37-.12-2.21,0-4.44-.09-6.65,0-.59-.42-1.17-.39-1.74.2-3.68-.73-7.24-1.26-10.83a149.11,149.11,0,0,0-2.54-14.93c-1.34-5.36-3.2-10.61-5.07-15.82s-4-10.36-6.09-15.48c-1.32-3.21-2.89-6.32-4.3-9.49-2.06-4.63-4-9.34-6.14-13.91-2.05-4.33-4.32-8.55-6.55-12.78-.94-1.8-2.24-3.44-3-5.3-1.71-4.24-3.76-8.47-3.68-13.14.08-4.09.7-8.16,1-12.24.14-1.67.16-3.34.32-5,.28-2.73.62-5.45,1-8.17,0-.2.34-.36.52-.53a6.63,6.63,0,0,1,.23,1.45c-.29,5.6-.62,11.21-.92,16.81a51.66,51.66,0,0,0-.28,7.65,46.59,46.59,0,0,0,1.73,7.06c.1.38.34.73.41,1.12.71,4.21,2.91,7.76,5.1,11.27a143,143,0,0,1,8.6,16.86c2.81,6.19,5.73,12.34,8.23,18.65,3.94,9.94,8.34,19.76,10.7,30.25,1.12,5,1.83,10.1,2.61,15.17.51,3.26.83,6.54,1.19,9.82.15,1.39.19,2.78.23,4.18.1,2.95.16,5.9.26,8.85q.21,6.75.47,13.51c.12,2.83.26,5.65.45,8.47.31,4.81.68,9.61,1,14.42.28,4,.47,8,.83,12,.51,5.58,1.14,11.14,1.72,16.71.44,4.23.81,8.47,1.35,12.69s1.15,8.75,2,13.08c.7,3.73,1,7.39-.05,11.11a12.15,12.15,0,0,0-.31,3c-.06,1.63-.11,3.27-.05,4.9.05,1.11.31,2.2.45,3.3.18,1.45.3,2.91.51,4.36a4.17,4.17,0,0,0,.5,1.45,3.59,3.59,0,0,1,.42,3.2,2.79,2.79,0,0,0-.06,1.41c.63,3.27,1.34,6.53,1.93,9.81a115,115,0,0,0,4.39,17.63c1.12,3.23,1.66,6.66,2.66,9.94,1.78,5.8,3.77,11.54,5.54,17.34a82.17,82.17,0,0,1,3.22,14.81c.42,3.78,1,7.55,1.41,11.34.31,2.84.52,5.7.7,8.55.23,3.81.4,7.62.56,11.43.08,2,.07,4,.14,6.07.23,6.62.44,13.24.72,19.85.09,2.14.47,4.27.54,6.41.11,3.62,0,7.24.14,10.85.09,2.8.32,5.59.61,8.37a6.22,6.22,0,0,0,1,1.89,3.58,3.58,0,0,1-.07,3.66c-.25.41-.43.86-.66,1.27a2.65,2.65,0,0,0-.07,2.38c1,2.83,2.34,5.6,2.11,8.74-.14,1.89-.34,3.78-.37,5.67,0,2.35,0,4.76,2.09,6.43a2.27,2.27,0,0,1,.67,3.09c-1.26,2.2-.41,4,.84,5.74a1.81,1.81,0,0,1,.08,2.27c-.44.76-.9,1.52-1.4,2.24a1,1,0,0,0-.05,1.28,6.4,6.4,0,0,1,.73,3.8c0,1.58,0,3.16.07,4.74,0,.28.07.56.06.84a3.17,3.17,0,0,0,1.53,3,5.45,5.45,0,0,1,2.59,4,3.4,3.4,0,0,1-.12,1.74,6.17,6.17,0,0,0,0,4.7c.68,2,.91,4.19,1.59,6.2a34.93,34.93,0,0,0,4.88,9.6,25.12,25.12,0,0,1,5,11.11,28.46,28.46,0,0,1,.35,8.88,1.73,1.73,0,0,0,.34,1.1c4,5.62,2.39,12.7-.85,17.25s-7.82,6.71-12.9,8.11a83.25,83.25,0,0,1-17.21,3.07c-9,.53-17.48-1.15-25.24-6a10.14,10.14,0,0,1-5.1-10.52,35.78,35.78,0,0,0,.4-5.35,18.88,18.88,0,0,0-1-5.61,12,12,0,0,1,0-8.39c1.19-3.46,2.58-6.86,3.76-10.32a17.15,17.15,0,0,0,.85-4.31c.19-2.74.2-5.5.26-8.25,0-1,0-2,0-3a2.79,2.79,0,0,0-.43-1.23c-2-3.46-1.32-7-.37-10.56a10.41,10.41,0,0,1,2.67-4.88,2.12,2.12,0,0,0,.17-1.86c-1.55-3.87.47-6.61,2.83-9.23a25.43,25.43,0,0,1,2.22-1.94,16.23,16.23,0,0,1-1.48-1.76c-.32-.54-.73-1.3-.57-1.8a21.57,21.57,0,0,1,1.58-3.15,12.18,12.18,0,0,0,1.34-2.74,54.3,54.3,0,0,0,1.5-8.44c.17-2.57.26-5.27-1.27-7.67a2.28,2.28,0,0,1,.11-1.92,2.18,2.18,0,0,0,.06-2.15A3.47,3.47,0,0,1,493,800a6,6,0,0,0-.05-2.77c-.81-4.31-1.58-8.63-2.55-12.91-1.23-5.45-2.64-10.86-4-16.28-1.89-7.72-3.73-15.45-5.65-23.16A163.66,163.66,0,0,0,473,721.59a89.35,89.35,0,0,1-5.68-19.89c-.82-5-1.88-9.9-2.53-14.88-.62-4.82-.86-9.7-1.27-14.55a2.58,2.58,0,0,0-.17-1c-1.3-2.14-2.64-4.25-4-6.37a5.57,5.57,0,0,1-.68-1c-1.15-3.68-3-7.13-3.46-11a3.17,3.17,0,0,0-1.15-2c-2.75-2-4-4.72-4.65-7.94-2-9.41-5.41-18.38-8.26-27.53q-5.65-18.09-12.52-35.74c-2.88-7.42-6.13-14.69-9-22.11-4.23-11-8.45-22.12-11.49-33.56-1.42-5.32-2.38-10.76-3.53-16.15-.69-3.27-1.35-6.56-2-9.84,0-.28-.08-.56-.11-.83-.22-2-.22-2.1-2.29-2.14-4.22-.09-3.37-.75-3.59,3.25-.18,3.41.29,6.85.43,10.27s.37,7,.3,10.56c-.07,3.37-.52,6.73-.75,10.1-.19,2.7-.23,5.41-.45,8.11-.28,3.45-.67,6.89-1,10.33-.28,2.77-.56,5.54-.86,8.31s-.61,5.68-.9,8.53-.54,5.47-.79,8.2c-.3,3.25-.61,6.49-.89,9.74-.18,2.14-.31,4.28-.49,6.43-.26,3.17-.54,6.34-.81,9.51-.15,1.78-.41,3.57-.43,5.35,0,4.23-.06,8.45.07,12.67.15,5.07.45,10.12.7,15.18.06,1,.19,2.06.27,3.09.33,4.06-.35,8-1,12-.57,3.58-1.4,7.13-1.77,10.73a38.19,38.19,0,0,0,.18,7.85c.2,1.89.45,3.72-.37,5.49-1,2.25-.3,4.35.32,6.52a13.19,13.19,0,0,1,.16,2.68c.12,1.82.24,3.63.38,5.44a9.55,9.55,0,0,0,.2,1.53,29.61,29.61,0,0,0,1.11,4.11,14.45,14.45,0,0,1,1.15,7,42.63,42.63,0,0,0,0,4.66c0,.24.05.48.05.72,0,3.87.07,7.75.05,11.62,0,5-.07,10-.17,15-.09,4.43-.24,8.85-.39,13.28-.18,5-.38,10-.55,15-.15,4.3-.3,8.6-.41,12.9-.1,4-.16,8-.21,12,0,3.43,0,6.87,0,10.3s-.08,7.11,0,10.66c.07,3.27.3,6.53.51,9.78a2.93,2.93,0,0,0,.55,1.14c.32.54.74,1,1,1.6a1.47,1.47,0,0,1-.24,1.76,4.37,4.37,0,0,0-1,3.78c.29,1.76.35,3.55.51,5.33a16.4,16.4,0,0,1-.85-2.47,17.79,17.79,0,0,1-.27-3.57,10.77,10.77,0,0,1,.46-3c.24-.73,0-1-.44-1.54s-.85-.09-1.24.07c-1.4.57-2.67.08-3.95-.33v-.43c.66-.06,1.33-.16,2-.16,1.35,0,1.79-.29,1.75-1.63-.12-4.75-.32-9.51-.45-14.26,0-1.35.13-2.7.12-4.06,0-2.62-.07-5.24-.08-7.86,0-1.51.06-3,.1-4.53,0-.24.05-.48.05-.72q.13-8.21.26-16.41c0-1.5,0-3,0-4.5q.21-6.54.48-13.1.33-7.63.71-15.28c.2-3.73.59-7.46.66-11.2.07-4.07-.14-8.15-.24-12.22-.06-2.67-.12-5.34-.24-8s-.26-5.49-.48-8.23a7.77,7.77,0,0,0-.66-2c-1.13-3.07-1.15-6.31-1.48-9.5a22.8,22.8,0,0,0-1.21-6.66,6.62,6.62,0,0,1,.16-5.23,5.43,5.43,0,0,0-.43-5.22,18.71,18.71,0,0,1-1.08-2.91c-.71-2-1.43-4-2.13-5.94a2.68,2.68,0,0,1,0-.75l.26-.09c1,2,1.91,4,2.87,5.92H386c.1-.86.2-1.72.32-2.58.39-2.79.78-5.59,1.2-8.38.25-1.75.56-3.49.84-5.24.34-2.14.79-4.28,1-6.43a36.12,36.12,0,0,0-.17-4.28c-.09-2.57-.1-5.14-.22-7.7s-.35-5.17-.53-7.75c0,0,0-.07,0-.11-.06-4.22-.15-8.44-.16-12.66,0-1.55.15-3.1.27-4.65.22-2.81.47-5.62.71-8.43s.47-5.58.72-8.37.49-5.31.72-8c.18-2.24.28-4.49.51-6.73.35-3.44.81-6.87,1.18-10.3.32-3,.56-6,.86-9q.66-6.56,1.33-13.12a49.8,49.8,0,0,0,.62-5.68c0-2.57.41-5.11.48-7.66.1-4,0-8-.06-12,0-1.67-.11-3.34-.21-5-.18-2.84-.46-5.67-.57-8.51a33.86,33.86,0,0,1,.27-5.13c0-.35.77-.86,1.21-.88a20.25,20.25,0,0,1,5.58.42c1.35.31,1.83.61,2,2.14.24,2.92,1,5.8,1.49,8.7.64,3.45,1.17,6.93,2,10.34s1.87,6.9,2.86,10.33c.67,2.37,1.36,4.74,2.13,7.08q2.3,6.91,4.69,13.8c1.21,3.49,2.44,7,3.75,10.42,1,2.64,2.16,5.22,3.21,7.83,1.19,2.95,2.33,5.91,3.51,8.86,1.55,3.88,3.18,7.74,4.67,11.65s3,8,4.38,12.12c2.57,7.63,5.06,15.29,7.57,22.94,1.52,4.62,3.11,9.21,4.5,13.86,1,3.35,1.75,6.77,2.6,10.17s.89,3.19,4.24,5.27a22.12,22.12,0,0,1,3.43,3.35Zm69.58,225c-.14.54-.29,1.09-.44,1.64a8.51,8.51,0,0,0,1.86-3,15.14,15.14,0,0,0,.62-5.15,81.72,81.72,0,0,0-1.65-8.27,30.66,30.66,0,0,0-1.11-4.39,6.44,6.44,0,0,1-.33-4.28,4.25,4.25,0,0,0-1.9-4l-.93-1.06-.39-1.83a1.5,1.5,0,0,0-.29-1.81c-.08-1.87-.26-3.74-.23-5.6a3,3,0,0,0-1.57-2.76,32.15,32.15,0,0,0-4-2.38C510.7,831,503.2,830.2,495.47,833c-5.21,1.88-7.83,6.25-6.41,11.54,1.05,3.92,2.45,7.75,3.86,11.57,1,2.61,2.19,5.11,3.3,7.67l-.9,1.7a8.27,8.27,0,0,0-.3-.88c-2.13-4.61-4.29-9.2-6.4-13.82-.54-1.18-.94-2.42-1.42-3.68-.19.12-.32.16-.37.25a20.86,20.86,0,0,0-2.75,7.61,5.72,5.72,0,0,0,.65,3.82,9.74,9.74,0,0,1,1.09,5.74c-.24,3.18-.09,6.38,0,9.58,0,1,.34,2,.35,2.94,0,2.64-.06,5.27-.06,7.9,0,1.67-.33,3.46.16,5a16.56,16.56,0,0,0,9.14,10.1,24.39,24.39,0,0,0,6.83,2.06,13.73,13.73,0,0,0,7.27-.44c5.43-2.13,10.9-2.13,16,1.12a4.3,4.3,0,0,0,1,.38,7.75,7.75,0,0,0,4.66-.53,21.43,21.43,0,0,0,7.54-4.77,1.62,1.62,0,0,0,.52-.9,24.45,24.45,0,0,0,.47-3.39,30.16,30.16,0,0,0-4.1-17.11c-1.07-1.76-2.25-3.45-3.48-5.33-.38,1.58-.67,2.94-1,4.28-.9,3.16-2.54,5.76-5.68,7.17-.95.43-1.84,1-2.79,1.38a11,11,0,0,1-7.7.59,25.27,25.27,0,0,1-12.83-9l-.21-.56.64-1a21.55,21.55,0,0,0,1.74,2.37c4.39,4.52,9.32,7.78,16.07,6.38a8.58,8.58,0,0,0,6.67-5.4ZM486.22,894l-.16-.21s0,.1,0,.1l.2.08c-.19,5,2.51,8.51,6.51,10.9s7.52.12,11.12-1.32a2.48,2.48,0,0,0-.71-.1c-5.05-.34-9.62-1.84-13.28-5.52C488.62,896.63,487.43,895.28,486.22,894Zm54.39,4.5c-.78,1.71-1.53,3.46-2.36,5.16a9.09,9.09,0,0,1-3.33,3.84c-1.75,1.11-4.28,1.47-6.06-.53a14,14,0,0,0-8.37-4.67,20.2,20.2,0,0,0-9.68.86c-3.51,1.19-7,2.35-10.58,3.39-3.18.93-6.33.7-9-1.43-2.26-1.82-4.5-3.77-5.34-6.75-.35-1.21-.64-2.44-.93-3.66-.13-.53-.2-1.08-.34-1.86-.17.4-.24.54-.29.68a45.32,45.32,0,0,0-2.81,13.72c-.1,3,.41,5.8,2.71,7.87a24,24,0,0,0,5.24,3.74,39.09,39.09,0,0,0,16.82,3.87,80.36,80.36,0,0,0,11.25-.91,45.81,45.81,0,0,0,16.62-5.2,14,14,0,0,0,7-7.94,20.83,20.83,0,0,0,.88-5.26A7.23,7.23,0,0,0,540.61,898.47ZM484.8,878.21a52.67,52.67,0,0,0-4.09,11.92,11.28,11.28,0,0,0,0,3.28,37.68,37.68,0,0,0,1.1,4.13A54.84,54.84,0,0,0,484.8,878.21Zm54.05,21.48c-3.37,2.43-6.58,5-11.08,4.75.54.66,1.14,1.07,1.56,1.62,1.35,1.78,3.28,1.5,4.88.44a13.54,13.54,0,0,0,4.41-5.68A5,5,0,0,0,538.85,899.69Z" />
    <path class="cls-4"
        d="M372.43,832.42c1.78,1.13,3.62,2.17,5.32,3.41a13.89,13.89,0,0,1,4.94,5.71,4.26,4.26,0,0,1-.14,4.31.62.62,0,0,0,.1.56c.69,1,1.45,1.88,2.11,2.87s1.45.59,2.18.62c1.4,0,2.84.21,3.8-1.33a2.85,2.85,0,0,0,.26-2.48c-.29-1.07-.46-2.17-.78-3.23a1.84,1.84,0,0,0-.8-1c-1.08-.58-2.23-1-3.34-1.58a1.06,1.06,0,0,1-.54-.75c1.5.28,3,.52,4.52.85a1.13,1.13,0,0,0,1.39-.55,4.13,4.13,0,0,0-.11-5.1c-.51-.76-1-1.56-1.47-2.32a2.7,2.7,0,0,0-.69-.61c-.79-.57-.76-1.93.16-2.06a1.93,1.93,0,0,0,1.83-2c.19,1.13.81,2.28-.54,3.23-.18.13.16,1.36.55,1.87a7.11,7.11,0,0,1,1.76,4.2,19.46,19.46,0,0,1-.31,3A2.74,2.74,0,0,0,393.8,843c3.31,2.36,4.21,6.05,5.05,9.74a27.19,27.19,0,0,1,.64,9.47,1.6,1.6,0,0,0,.91,1.89,2.71,2.71,0,0,1,1,1.78c.56,3.32,1,6.67,1.48,10,.15,1.06.18,2.13.23,3.2a5.61,5.61,0,0,1-3.53,5.73c-1.88.85-3.85,1.48-5.8,2.17-4.62,1.63-9.27,3.17-13.85,4.87a27.25,27.25,0,0,0-4.43,2.35,2.44,2.44,0,0,0-.91,1.27c-1.89,5.23-4.61,9.86-9.58,12.74a24.85,24.85,0,0,1-10.73,3c-6.51.46-13.05.8-19.58.78a43.38,43.38,0,0,1-16.59-3.45,4.66,4.66,0,0,1-2.78-4.16c0-.35-.05-.71-.07-1.07v-2.69c1.88-3.39,1.64-7.28,2.58-10.9a9.56,9.56,0,0,1,2.15-4.45c2.17-2.22,4.42-4.36,6.7-6.46,2-1.81,4-3.54,6-5.28a11,11,0,0,1,1.06-.72v0c.29.82.71,1.64-.68,1.94-.29.06-.48.63-.71,1l-2.28,2.12c-2.7,2.53-5.44,5-8.1,7.62a8.61,8.61,0,0,0-2.31,4.53c-.26,1.25-.6,2.48-.81,3.73a1.8,1.8,0,0,0,.36,1.21c1.47,1.93,3.74,1.86,5.83,2.27a35.78,35.78,0,0,1,7.12,1.63,24.37,24.37,0,0,0,15.19,1.49,40,40,0,0,0,19.1-9.88A63.56,63.56,0,0,1,378,881.31c4.19-2.41,8.46-4.67,12.71-7a15.65,15.65,0,0,0,6-5,3.06,3.06,0,0,0,.47-1.19c.19-1.5.21-3,.5-4.51,1.06-5.43-.24-10.38-2.86-15.09-.24-.43-.54-.84-.89-1.35-1,3.06-2.58,4.24-5.63,4.26-.44,0-.88,0-1.32,0s-.8.17-1,.75c-.76,2.49-2.94,3.7-4.83,5.19a3.11,3.11,0,0,1,.39-1,29.05,29.05,0,0,0,2-4.55,4.41,4.41,0,0,0-1.4-4.46,1.08,1.08,0,0,0-1.67-.09c-1,.86-2.08,1.63-3.08,2.48a8.15,8.15,0,0,0-.93,1.16l-2.3-1.08c.31-.23.63-.45.93-.7l4.16-3.61c.56-.48,1.55-1,1.56-1.47,0-.73-.66-1.48-1.06-2.22a2.67,2.67,0,0,0-.43-.57,33.67,33.67,0,0,0-8.17-6.22,6.2,6.2,0,0,0-6.41,0c-1.67.92-3.34,1.87-5.05,2.71a2.32,2.32,0,0,0-1.41,2.3,14.86,14.86,0,0,1-1,6.2l-1.47.24.24-2.31c-1.82.87-2.18,1.22-2.9,2.7l-.46.3a.86.86,0,0,0-.93,1.15c.25.89-.13,1.12-.88,1.22a4.32,4.32,0,0,0-.88.29c1.23-2.49,2.16-5.17,4.86-6.62a2.34,2.34,0,0,0,.94-1.57,9.22,9.22,0,0,1,4.76-6.91,1.81,1.81,0,0,0,.55-1c.18-.65.19-1.36.42-2a3.89,3.89,0,0,0-.26-3.22,1.73,1.73,0,0,1,.51-2.51,1.67,1.67,0,0,0,.64-1.78c-.19-1.36-.14-2.76-.34-4.11a3.55,3.55,0,0,0-.85-1.75,3.1,3.1,0,0,1-.62-3.63c.17-.36.28-.75.45-1.11a4.73,4.73,0,0,0-.44-4.77,2.68,2.68,0,0,1-.5-1.64c.4-2.64-.17-5.17-.68-7.72-1.3-6.49-2.56-13-3.85-19.5-2.29-11.51-4.77-23-6.82-34.54-1.28-7.18-1.95-14.46-2.84-21.7-.62-5-1.17-10.06-1.74-15.09-.12-1.07-.24-2.14-.27-3.22-.13-4.27-.22-8.55-.32-12.83,0-1.59,0-3.19-.14-4.77a9.14,9.14,0,0,1,1.09-5.09,9.22,9.22,0,0,0,1-4.62c0-4,.06-7.91.07-11.86a17.26,17.26,0,0,0-.27-2.25c-.16-1.11-.29-2.22-.5-3.31a40.86,40.86,0,0,0-.9-4.09,10.25,10.25,0,0,1,.14-7.16,9,9,0,0,0,.5-5.38c-2.47-13.31-5-26.61-8.26-39.75-2.78-11.06-5.59-22.12-8.21-33.23a174.4,174.4,0,0,1-4.3-24c-.6-6.47-1.32-12.93-1.91-19.4-.48-5.4-.85-10.81-1.24-16.22-.06-.79.09-1.59.07-2.39,0-1.38-.09-2.75-.14-4.13s-.14-2.94-.16-4.4q0-3.24,0-6.46c.05-3.47.05-6.94.22-10.4.22-4.54.44-9.1.93-13.62a97.87,97.87,0,0,1,1.78-9.88c1.86-8.66,3.63-17.34,5.76-25.93,2.57-10.42,5.37-20.79,8.31-31.11a67.15,67.15,0,0,1,4.18-10.06,31.9,31.9,0,0,0,3-10.3c.28-2.77.33-5.56.54-8.33a11,11,0,0,1,.51-2.09c.76-2.56,1.5-5.12,2.31-7.66a5.83,5.83,0,0,0,0-3.76c-.5-1.51-.47-1.52.95-2.57.23.64.46,1.27.68,1.91a6.85,6.85,0,0,1-.13,5.13,27.16,27.16,0,0,0-.77,2.75,16.43,16.43,0,0,1-1,3,15.66,15.66,0,0,0-1.63,7.87,29.46,29.46,0,0,1-2.27,13.57,119.91,119.91,0,0,0-5.13,13c-1.08,3.38-2.36,6.7-3.33,10.11-.88,3.13-1.4,6.37-2.19,9.53-.83,3.32-1.88,6.59-2.67,9.92-1.9,8.13-3.59,16.32-5.59,24.43a101.43,101.43,0,0,0-2.9,24.83c0,.4-.07.8-.06,1.2a53.39,53.39,0,0,0,.09,6.07,33.14,33.14,0,0,1,.28,8.44,27.23,27.23,0,0,0,0,4.14c0,.87.19,1.74.15,2.6-.06,1.31-.37,2.61-.35,3.91.05,2.14.3,4.28.42,6.43.21,3.67.33,7.36.57,11,.15,2.42.4,4.83.68,7.23.52,4.56,1.1,9.11,1.63,13.66a116.81,116.81,0,0,0,2.36,13.62c1.07,4.47,1.77,9,2.79,13.51,1.28,5.66,2.7,11.3,4.11,16.93,1.49,5.95,3,11.88,4.57,17.81.46,1.75,1.09,3.45,1.49,5.21.65,2.85,1.16,5.72,1.76,8.58.79,3.81,1.68,7.61,2.38,11.43a61.06,61.06,0,0,0,3.68,13,10.72,10.72,0,0,0-1.58-.39c-.28,0-.79.1-.83.26a13.45,13.45,0,0,0-.75,3.7,40.92,40.92,0,0,0,.87,4.27c.33,2.28.64,4.58.74,6.87.17,4.07.11,8.15.26,12.22a18.77,18.77,0,0,1-1.42,8.28,7.54,7.54,0,0,0-.69,2.61c-.05,1.62.16,3.25.19,4.88s0,3.49,0,5.23.18,3.3.23,5c0,1.17-.06,2.34,0,3.5.12,2,.32,4,.49,5.94.13,1.55.22,3.1.41,4.64.29,2.38.71,4.75,1,7.13.45,3.83.7,7.69,1.25,11.5.67,4.72,1.51,9.41,2.36,14.11.56,3.11,1.3,6.2,1.89,9.31,1.12,5.8,2.13,11.63,3.28,17.43,1.24,6.19,2.64,12.35,3.88,18.54.69,3.45,1.22,6.94,1.76,10.42a18.22,18.22,0,0,1,0,2.34,3.49,3.49,0,0,0,.16,1.17c.6,1.41,1.25,2.81,1.83,4.09a6.59,6.59,0,0,0-.76,1,18.47,18.47,0,0,1-1.27,2.78c-.49.69-.51,1.1.12,1.59a3.52,3.52,0,0,1,1.36,3.38c-.12,1.14-.13,2.3-.27,3.45a4.87,4.87,0,0,1-.56,1.84c-.37.63-.45,1,.35,1.21,1.57.49,3.12,1,4.2,1.38-.54,0-1.62.07-2.69,0s-1.06-.17-.8,1a6.3,6.3,0,0,1,0,1.84,8.66,8.66,0,0,1-.32,1.36,9.36,9.36,0,0,1,8-1Zm7.42,49.07.19,0v-.17l-.14.14-.33.16c-1,.63-2.05,1.22-3,1.89-5.27,3.59-9.73,8.14-14.38,12.46a53.51,53.51,0,0,1-9.93,7.65,14.11,14.11,0,0,1-15,0c-1.45-.84-2.83-1.8-4.23-2.72-3.39-2.22-6.93-3.18-10.82-1.3-1.48.72-3,1.36-4.44,2.09a1.16,1.16,0,0,0-.5.8,4.58,4.58,0,0,0,0,2,5.09,5.09,0,0,0,1.36,2.27,10.57,10.57,0,0,0,2.85,1.48,39.14,39.14,0,0,0,14,2.55c4.25.09,8.53,0,12.78-.35a59.93,59.93,0,0,0,9-1.38c6.78-1.57,11.44-5.73,14.15-12.12a61.07,61.07,0,0,1,5.72-11.18c.9-1.31,1.81-2.61,2.72-3.92Zm-44.58,19.67-.19-.07.14.11.6.44.12-.27Zm23.74-3.8a4.21,4.21,0,0,0-.87.28,39,39,0,0,1-11.74,4.29c-3,.54-6.14,1-9.21,0l-.89-.33-.15.29.73.5c.56.32,1.09.67,1.66,1,2.9,1.43,5.94,2.22,9.1,1.19a21.65,21.65,0,0,0,5.27-2.46c2.14-1.41,4.07-3.16,6.08-4.76a.2.2,0,0,0,.08,0s0,0,0,0Zm40.44-28.75c-.34.53-.59,1-.88,1.39a17,17,0,0,1-8.58,6.22,22.21,22.21,0,0,0-10.94,8.54,38.14,38.14,0,0,0-2.55,4.87c-.39.8-.71,1.64-1.17,2.71,1.41-.67,2.48-1.29,3.62-1.7,5.69-2,11.41-4,17.1-6.06a18.17,18.17,0,0,0,3.05-1.38,3.23,3.23,0,0,0,2-3A54.31,54.31,0,0,0,399.45,868.61Zm-81.3,28.46a9,9,0,0,0,0,1.58c0,.2.44.53.59.49a17.2,17.2,0,0,0,2-.78Z" />
    <path class="cls-1" d="M424.62,349.35l-1.34-.44Z" />
    <path class="cls-1" d="M433,353l-1.08-.55Z" />
    <path class="cls-1" d="M430.6,351.76l-1.08-.51Z" />
    <path class="cls-1" d="M410.25,345.94l-.85-.13Z" />
    <path class="cls-1" d="M411.68,346.19l-.84-.15Z" />
    <path class="cls-1" d="M414.19,346.63l-.75-.13Z" />
    <path class="cls-1" d="M438.74,356.57l-.56-.39Z" />
    <path class="cls-1" d="M418.51,347.57l-.47-.08Z" />
    <path class="cls-1" d="M428.45,350.8l-.6-.27Z" />
    <path class="cls-1" d="M427.26,350.31l-.62-.24Z" />
    <path class="cls-1" d="M417.67,347.4l-.63-.15Z" />
    <path class="cls-1" d="M415.29,346.87l-.65-.12Z" />
    <path class="cls-1" d="M412.75,346.36l-.47-.07Z" />
    <path class="cls-1" d="M416.35,347.09l-.47-.08Z" />
    <path class="cls-1" d="M421.51,348.38l-.59-.17Z" />
    <path class="cls-1" d="M439.45,357.06l-.55-.38Z" />
    <path class="cls-1" d="M419.47,347.81l-.51-.11Z" />
    <path class="cls-1" d="M420.56,348.12l-.64-.17Z" />
    <path class="cls-3"
        d="M371.24,832.06a9.36,9.36,0,0,0-8,1,8.66,8.66,0,0,0,.32-1.36,6.3,6.3,0,0,0,0-1.84c-.26-1.16-.33-1.08.8-1s2.15,0,2.69,0c-1.08-.35-2.63-.89-4.2-1.38-.8-.25-.72-.58-.35-1.21a4.87,4.87,0,0,0,.56-1.84c.14-1.15.15-2.31.27-3.45a3.52,3.52,0,0,0-1.36-3.38c-.63-.49-.61-.9-.12-1.59a18.47,18.47,0,0,0,1.27-2.78,6.59,6.59,0,0,1,.76-1c-.58-1.28-1.23-2.68-1.83-4.09a3.49,3.49,0,0,1-.16-1.17,18.22,18.22,0,0,0,0-2.34c-.54-3.48-1.07-7-1.76-10.42-1.24-6.19-2.64-12.35-3.88-18.54-1.15-5.8-2.16-11.63-3.28-17.43-.59-3.11-1.33-6.2-1.89-9.31-.85-4.7-1.69-9.39-2.36-14.11-.55-3.81-.8-7.67-1.25-11.5-.27-2.38-.69-4.75-1-7.13-.19-1.54-.28-3.09-.41-4.64-.17-2-.37-4-.49-5.94-.07-1.16,0-2.33,0-3.5,0-1.66-.19-3.31-.23-5s0-3.49,0-5.23-.24-3.26-.19-4.88a7.54,7.54,0,0,1,.69-2.61,18.77,18.77,0,0,0,1.42-8.28c-.15-4.07-.09-8.15-.26-12.22-.1-2.29-.41-4.59-.74-6.87a40.92,40.92,0,0,1-.87-4.27,13.45,13.45,0,0,1,.75-3.7c0-.16.55-.28.83-.26a10.72,10.72,0,0,1,1.58.39,61.06,61.06,0,0,1-3.68-13c-.7-3.82-1.59-7.62-2.38-11.43-.6-2.86-1.11-5.73-1.76-8.58-.4-1.76-1-3.46-1.49-5.21-1.54-5.93-3.08-11.86-4.57-17.81-1.41-5.63-2.83-11.27-4.11-16.93-1-4.49-1.72-9-2.79-13.51a116.81,116.81,0,0,1-2.36-13.62c-.53-4.55-1.11-9.1-1.63-13.66-.28-2.4-.53-4.81-.68-7.23-.24-3.67-.36-7.36-.57-11-.12-2.15-.37-4.29-.42-6.43,0-1.3.29-2.6.35-3.91,0-.86-.14-1.73-.15-2.6a27.23,27.23,0,0,1,0-4.14,33.14,33.14,0,0,0-.28-8.44,53.39,53.39,0,0,1-.09-6.07c0-.4.06-.8.06-1.2a101.43,101.43,0,0,1,2.9-24.83c2-8.11,3.69-16.3,5.59-24.43.79-3.33,1.84-6.6,2.67-9.92.79-3.16,1.31-6.4,2.19-9.53,1-3.41,2.25-6.73,3.33-10.11a119.91,119.91,0,0,1,5.13-13,29.46,29.46,0,0,0,2.27-13.57,15.66,15.66,0,0,1,1.63-7.87,16.43,16.43,0,0,0,1-3,27.16,27.16,0,0,1,.77-2.75,6.85,6.85,0,0,0,.13-5.13c-.22-.64-.45-1.27-.68-1.91l4.28-3.33c0,2.52.16,5.05,0,7.56-.15,2.09-.69,4.14-1,6.22-.26,1.68-.46,3.38-.63,5.07-.33,3.16-.65,6.32-.93,9.48-.14,1.63-.18,3.26-.28,4.89-.29,4.6-.62,9.21-2.26,13.57a61.55,61.55,0,0,1-2.82,5.55q-1.74,3.51-3.42,7.05c-2,4.18-2.76,8.71-3.88,13.14s-2.15,9.21-3.22,13.81c-1.49,6.43-3.07,12.83-4.44,19.28-.92,4.34-1.58,8.74-2.27,13.13q-.93,5.93-1.66,11.89c-.33,2.68-.43,5.39-.77,8.06a99.78,99.78,0,0,0-.42,14.46c.05,3.05.39,6.1.67,9.15s.61,6.16,1,9.23c.29,2.4.67,4.79,1.07,7.18.74,4.45,1.51,8.91,2.28,13.36.54,3.13,1.1,6.25,1.66,9.37.69,3.83,1.33,7.67,2.12,11.47.82,4,1.77,7.91,2.73,11.84,1.45,5.91,3.07,11.77,4.42,17.7,1.81,7.93,3.38,15.92,5.17,23.86,1,4.34,2.22,8.62,3.35,12.92a51.53,51.53,0,0,1,2.08,12.18,13,13,0,0,1-1,3.73,4.42,4.42,0,0,0-.35,1c-.1,4.22-.24,8.45-.24,12.68,0,4.43.27,8.86.16,13.29a21.86,21.86,0,0,1-1.21,5.45c-.48,1.64-1.2,3.21-1.74,4.83a9.3,9.3,0,0,0,.32,6.09,25.79,25.79,0,0,1,.82,11c-.15,1.55,0,3.12-.06,4.68a65.83,65.83,0,0,0,.94,13.37c.71,4.91,1.24,9.84,2,14.74s1.4,9.75,2.51,14.53c2,8.55,4.36,17,6.43,25.55.81,3.34,1.25,6.78,1.83,10.18.45,2.66.81,5.33,1.31,8,.88,4.6,1.83,9.18,2.78,13.76a1.73,1.73,0,0,0,.49,1c1.94,1.37,3.92,2.71,5.91,4,.46.31,1,.46,1.49.73.17.1.25.36.36.53l-9.83.7c2,3.15,2.6,6.29.63,9.61l8.91,2.58c-.38.11-.59.18-.81.23-1.15.27-2.31.51-3.46.82-.62.16-.59.51-.16.94S370.74,831.52,371.24,832.06Zm-2.59-17.79.07-.38-4.24-1.12-.1.36Z" />
    <path class="cls-1"
        d="M376.51,850.93a8.15,8.15,0,0,1,.93-1.16c1-.85,2.08-1.62,3.08-2.48a1.08,1.08,0,0,1,1.67.09,4.41,4.41,0,0,1,1.4,4.46,29.05,29.05,0,0,1-2,4.55,3.11,3.11,0,0,0-.39,1c1.89-1.49,4.07-2.7,4.83-5.19.18-.58.42-.79,1-.75s.88,0,1.32,0c3.05,0,4.67-1.2,5.63-4.26.35.51.65.92.89,1.35,2.62,4.71,3.92,9.66,2.86,15.09-.29,1.48-.31,3-.5,4.51a3.06,3.06,0,0,1-.47,1.19,15.65,15.65,0,0,1-6,5c-4.25,2.31-8.52,4.57-12.71,7a63.56,63.56,0,0,0-11.53,9.15,40,40,0,0,1-19.1,9.88,24.37,24.37,0,0,1-15.19-1.49,35.78,35.78,0,0,0-7.12-1.63c-2.09-.41-4.36-.34-5.83-2.27a1.8,1.8,0,0,1-.36-1.21c.21-1.25.55-2.48.81-3.73a8.61,8.61,0,0,1,2.31-4.53c2.66-2.58,5.4-5.09,8.1-7.62l2.28-2.12.48.86a8.23,8.23,0,0,0-.5,1.75c-.1,1.56.17,1.87,1.64,2.29a12.2,12.2,0,0,0,2.31.63c1.81.16,3.64.17,5.46.25a15,15,0,0,0,3.45.15c2.69-.56,5.32-1.35,8-2.08.27-.08.46-.43.7-.65l.71-.35a3.19,3.19,0,0,0,1.24-.31c.91-.68,1.74-1.47,2.6-2.22l1.24-.67a11.2,11.2,0,0,0,1-.6c1-.79,2.06-1.6,3.09-2.41.4,2.76.75,5.53,1.24,8.27a33.87,33.87,0,0,0,1.16,4c.23.77.76,1.19,1.54.83a1.13,1.13,0,0,0,.55-1.69,28.81,28.81,0,0,1-2-9.08c-.13-1.57-.11-3.16-.15-4.73a8,8,0,0,0,.95-.66c1.52-1.37,3-2.76,4.51-4.14.79,1.49,1.59,3,2.37,4.48a5.48,5.48,0,0,0,2.43,2.83c2.09,1,3.72.06,3.86-2.22a13.57,13.57,0,0,0-1.78-7.68c-.6-1-1.21-2.05-1.82-3.08l3-2.9.2-.28.22-.27.23-.24.24-.24.24-.24.19-.06-.09-.12-.1.17-.24.24-.24.24-.24.24-.25.23-.25.23L376.55,859c-.22-.34-.67-.72-.62-1,.15-.9-.38-1.36-.86-1.94-.65-.78-1.17-1.66-1.74-2.5l1.18-.88a2.74,2.74,0,0,1,2.18,1.42c.3.68.77,1,1.42.62a1.1,1.1,0,0,0,.59-1.59,10,10,0,0,0-1.58-1.54C376.91,851.34,376.71,851.13,376.51,850.93Zm-26.3,37.22c-.85.3-1.5.55-2.17.76A26.69,26.69,0,0,1,335.46,890a31.71,31.71,0,0,1-8.33-2.46,2.5,2.5,0,0,0-2.57-.09C327.57,892.39,346.62,893.07,350.21,888.15Z" />
    <path class="cls-1"
        d="M357.34,846.24a14.86,14.86,0,0,0,1-6.2,2.32,2.32,0,0,1,1.41-2.3c1.71-.84,3.38-1.79,5.05-2.71a6.2,6.2,0,0,1,6.41,0,33.67,33.67,0,0,1,8.17,6.22,2.67,2.67,0,0,1,.43.57c.4.74,1.08,1.49,1.06,2.22,0,.51-1,1-1.56,1.47l-4.16,3.61c-.3.25-.62.47-.93.7-1.42-.22-2.71-.52-3.36-2.11a3.23,3.23,0,0,0-3.78-2c-1,.16-1.91.55-2.87.77a1.36,1.36,0,0,1-1-.13,3.31,3.31,0,0,0-4.09-.75C358.52,845.84,357.92,846,357.34,846.24Z" />
    <path class="cls-1"
        d="M366.22,869c.07-1.56.15-3.13.21-4.7,0-.74.33-.84.88-.37l.34.33c.5.47,1.11.51,1.45,0a1.45,1.45,0,0,0,0-1.36,20.51,20.51,0,0,0-2.14-2c.5-.61,1-1.18,1.46-1.82.19-.28.37-.88.25-1a.87.87,0,0,0-1.42.09c-.28.36-.62.68-.93,1L365.8,857c-.21-.91-.42-1.81-.61-2.72-.07-.34-.11-.67-.16-1a5.15,5.15,0,0,1,1,.18c1.2.48,2.38,1,3.56,1.48-.34.71-.19,1.12.67,1.09.28,1.73.55,3.47.85,5.2.17,1,.4,2,.61,3a4.09,4.09,0,0,0-1.08.56C369.13,866.19,367.69,867.61,366.22,869Z" />
    <path class="cls-1"
        d="M334.41,876.69a8.27,8.27,0,0,1,2.33,0c2.56.7,5.1,1.53,7.63,2.33.19.06.32.3.48.45-.09.12-.15.3-.26.34a11.65,11.65,0,0,1-9.91-.13,1.58,1.58,0,0,1-.79-2.18A6.09,6.09,0,0,1,334.41,876.69Z" />
    <path class="cls-4"
        d="M334.41,876.69a6.09,6.09,0,0,0-.52.8,1.58,1.58,0,0,0,.79,2.18,11.65,11.65,0,0,0,9.91.13c.11,0,.17-.22.26-.34.75.35,1.53.66,2.27,1a1.32,1.32,0,0,0,2-.69l3.7-1.2,1.06.32c-.24.22-.43.57-.7.65-2.65.73-5.28,1.52-8,2.08a15,15,0,0,1-3.45-.15c-1.82-.08-3.65-.09-5.46-.25a12.2,12.2,0,0,1-2.31-.63c-1.47-.42-1.74-.73-1.64-2.29a8.23,8.23,0,0,1,.5-1.75Z" />
    <path class="cls-4"
        d="M342.87,864.15c-1.74.48-1.9.74-1.37,2.14l-1,1.51-1,.32c-1.38.39-1.62.91-1,2.26l-.87,1.45c-.92.15-1.84.31-2.76.44-.14,0-.3-.13-.44-.2h0c3.77-3.4,6.45-7.65,9.16-11.88.62-1,1.23-1.94,1.83-2.89l.82,1.54c-.3.52-.59,1-.89,1.55l-.89.32c-1.31.45-1.51,1-.8,2.2Z" />
    <path class="cls-1" d="M375.21,861.56c2,2.34,3.2,6.82,2.27,9.58-1.78-2.82-3.42-5.42-3.83-8.6Z" />
    <path class="cls-1"
        d="M342.47,870c2.4-.33,4.66.4,6.94.9.53.11.55.38.24.75a10.75,10.75,0,0,1-1.36,1.49,1.55,1.55,0,0,1-1.19.24c-1.89-.44-3.76-1-5.64-1.46C341.8,871.23,342.14,870.59,342.47,870Z" />
    <path class="cls-1"
        d="M345.08,866.24c.06,0,.12-.14.18-.13,2.25.23,4.51.42,6.76.73,1,.14,1,.4.41,1.26a1.74,1.74,0,0,1-2.19.84c-1.93-.54-3.92-.86-5.88-1.27Z" />
    <path class="cls-1"
        d="M335.78,874c1.76,0,3.52-.11,5.26,0a32,32,0,0,1,4.09.78c.68.15,1.24.39.76,1.3a2.42,2.42,0,0,0-.12,1l-9.93-2.85Z" />
    <path class="cls-1"
        d="M353.87,858.56c1.32.28,2.64.55,4,.86a.77.77,0,0,1,.48.45c.2.85-1.15,2.12-2,1.89-1-.28-2-.55-3-.87-.39-.13-1.11-.09-.84-.84S352.7,858.42,353.87,858.56Z" />
    <path class="cls-1" d="M359.14,870a20.63,20.63,0,0,1,2.06,1,7.21,7.21,0,0,1,1.16,1.12l-2.76,2.22-2-2.26Z" />
    <path class="cls-1"
        d="M355.66,854.6l2.75.38c1.52.22.6,1.28.63,2,0,.85-.62.48-1,.4-1-.2-2.1-.41-3.13-.69A3.87,3.87,0,0,1,354,856c.35-.48.69-1,1.06-1.43C355.07,854.53,355.31,854.6,355.66,854.6Z" />
    <path class="cls-1"
        d="M362.5,863.75c-.92-.31-1.85-.6-2.75-1-.13,0-.22-.47-.16-.66a6.71,6.71,0,0,1,.66-1.41c.12-.19.49-.43.63-.37,1.12.47,2.22,1,3.31,1.54.08,0,.05.28.07.43Z" />
    <path class="cls-1"
        d="M350.06,849.83a4.32,4.32,0,0,1,.88-.29c.75-.1,1.13-.33.88-1.22a.86.86,0,0,1,.93-1.15c-.26,1.58-.26,1.58,1.14,1.79-.87,1.07-1.72,2.23-2.68,3.27-.32.34-.93.41-1.4.6.73-.84.09-1.42-.4-2Z" />
    <path class="cls-1"
        d="M364.62,849.09c1,.27,2.33.61,3.63,1a1.07,1.07,0,0,1,.62.52,10.3,10.3,0,0,1,.41,1.47A8.31,8.31,0,0,1,368,852a19.92,19.92,0,0,1-3-.92,3.11,3.11,0,0,1-1.25-1.14C363.37,849.34,363.61,849,364.62,849.09Z" />
    <path class="cls-1" d="M355.75,873.82a2.42,2.42,0,0,1,1.82,2L355,877.43l-1.76-1.55Z" />
    <path class="cls-1"
        d="M352.42,875.55a.78.78,0,0,1-.22,0c-2.21-1.26-2.2-1.26-.43-3.12a1,1,0,0,1,1.44-.27c.57.37,1.16.72,1.74,1.08Z" />
    <path class="cls-1"
        d="M356.48,871.46a9.83,9.83,0,0,1-1.45-.73c-.46-.32-1.57-.23-1-1.32.69-1.34,1.27-1.61,2.39-1a11.77,11.77,0,0,1,1.39.95Z" />
    <path class="cls-1"
        d="M351.67,862.59c1.33.37,2.38.63,3.4,1,.17.05.4.53.35.58-.38.41-.83,1.1-1.22,1.07a16.27,16.27,0,0,1-3.26-.72.69.69,0,0,1-.26-.6A14.47,14.47,0,0,1,351.67,862.59Z" />
    <path class="cls-4"
        d="M349.41,850.8c.49.61,1.13,1.19.4,2l-1.15.58a2.92,2.92,0,0,0-.49.82c-.13.67-.17,1.35-.25,2l-2.27.76C347,854.79,348.2,852.79,349.41,850.8Z" />
    <path class="cls-1"
        d="M359.59,867.35c-.86-.35-1.72-.67-2.56-1.06a.64.64,0,0,1-.09-.59c.41-.44,1-1.23,1.33-1.15a12.34,12.34,0,0,1,2.65,1.21Z" />
    <path class="cls-4"
        d="M366.22,869c1.47-1.41,2.91-2.83,4.4-4.21a4.09,4.09,0,0,1,1.08-.56l-.05.94c-1.5,1.38-3,2.77-4.51,4.14a8,8,0,0,1-.95.66Z" />
    <path class="cls-1"
        d="M364.12,859.34c-1-.37-1.71-.62-2.41-.9-1.16-.46-.49-1.42-.54-2.17,0-.21.38-.66.49-.63.71.2,1.7,0,2,1C363.83,857.44,363.93,858.26,364.12,859.34Z" />
    <path class="cls-1" d="M362.22,866.35c1.93.65,2.08,1,1.57,4l-2.87-2.24Z" />
    <path class="cls-1" d="M352.85,878.62l-3.7,1.2-.5-1.07,2.26-1.61C351.55,877.64,352.2,878.13,352.85,878.62Z" />
    <path class="cls-1" d="M337.59,871.83l.87-1.45,3.28-.37-1,1.9Z" />
    <path class="cls-4"
        d="M359.6,874.31l2.76-2.22,1.55-.87-.11,1.16c-1,.81-2.05,1.62-3.09,2.41a11.2,11.2,0,0,1-1,.6Z" />
    <path class="cls-4"
        d="M366.28,859.18c.31-.34.65-.66.93-1a.87.87,0,0,1,1.42-.09c.12.1-.06.7-.25,1-.44.64-1,1.21-1.46,1.82C366,860.59,366.21,859.85,366.28,859.18Z" />
    <path class="cls-1" d="M340.5,867.8l1-1.51,3,.05-.63,1.38Z" />
    <path class="cls-1"
        d="M356.9,851.41c.83.12,1.55.17,2.24.34.23.06.4.39.6.6-.23.21-.47.62-.7.62a24.93,24.93,0,0,1-3-.31.64.64,0,0,1-.41-.46.74.74,0,0,1,.32-.59A4,4,0,0,1,356.9,851.41Z" />
    <path class="cls-4" d="M355,877.43l2.59-1.58.89.21c-.86.75-1.69,1.54-2.6,2.22a3.19,3.19,0,0,1-1.24.31Z" />
    <path class="cls-2" d="M353.21,846.87c.72-1.48,1.08-1.83,2.9-2.7l-.24,2.31Z" />
    <path class="cls-4" d="M352.42,875.55l2.53-2.33.8.6-2.53,2.06Z" />
    <path class="cls-4" d="M356.48,871.46l1.33-2.15,1.33.66-1.58,2.08Z" />
    <path class="cls-1"
        d="M359.34,848.51c1.54,0,1.85.28,1.39.93a1.32,1.32,0,0,1-.88.4,4.1,4.1,0,0,1-1.29-.21,3.86,3.86,0,0,1-.76-.38c.22-.22.4-.52.66-.62A3,3,0,0,1,359.34,848.51Z" />
    <path class="cls-1"
        d="M342.87,864.15l.78-1.23a9.29,9.29,0,0,1,1.38-.17c.27,0,.53.24.8.37-.17.31-.3.85-.52.89A18,18,0,0,1,342.87,864.15Z" />
    <path class="cls-4" d="M362.22,866.35l-1.3,1.76-1.33-.76,1.33-1.59Z" />
    <path class="cls-1" d="M348.06,878.15l-1.06-.06c.45-.54.82-.92,1.13-1.35.64-.86,1.2-.61,1.75.08Z" />
    <path class="cls-4" d="M376.55,859l3.07-2.43.09.1-3,2.9Z" />
    <path class="cls-3" d="M349.41,860.36c-.17-.16-.51-.41-.48-.47a16.93,16.93,0,0,1,.91-1.46l.81.31-.58,1.37Z" />
    <path class="cls-1" d="M350.65,858.74l-.81-.31,1.23-2.13h.49Z" />
    <path class="cls-4" d="M348.06,878.15l1.82-1.33,1,.32-2.26,1.61Z" />
    <path class="cls-4" d="M362.5,863.75l1.76-1.43-.11,1.82-.34.4Z" />
    <path class="cls-3" d="M374.51,852.62l-1.18.88-.82-1.57.3-.3Z" />
    <path class="cls-4" d="M375.21,861.56l-1.56,1,0-1,.51-.46C374.8,860.52,375.14,860.69,375.21,861.56Z" />
    <path class="cls-1"
        d="M345.34,860.4c.3-.51.59-1,.89-1.55l.78.29a6.15,6.15,0,0,1-.77,1.26C346.1,860.55,345.65,860.41,345.34,860.4Z" />
    <path class="cls-1"
        d="M347.92,856.26c.08-.68.12-1.36.25-2a2.92,2.92,0,0,1,.49-.82c.08.54.2,1.09.23,1.64S348.89,856.37,347.92,856.26Z" />
    <path class="cls-3" d="M351.56,856.31h-.49c-.07-.8.31-1.28,1.29-1.39Z" />
    <path class="cls-1" d="M347.58,863.67c.29-.44.57-.88.88-1.31,0,0,.26.09.4.14l-.72,1.47Z" />
    <path class="cls-3" d="M340.76,871.91l1-1.9.73-.06c-.33.64-.67,1.28-1,1.92Z" />
    <path class="cls-1"
        d="M362.14,852.22a7.73,7.73,0,0,1,.68,1.07c0,.06-.33.41-.37.39a2.61,2.61,0,0,1-.78-.65C361.61,853,361.89,852.63,362.14,852.22Z" />
    <path class="cls-4" d="M389,345.63v1.72l-.34,0-.33-1.74Z" />
    <path class="cls-3" d="M370.24,856.05c-.86,0-1-.38-.67-1.09C370.26,855,370.29,855.52,370.24,856.05Z" />
    <path class="cls-4" d="M343.88,867.72l.63-1.38.57-.1-.72,1.43Z" />
    <path class="cls-1" d="M349.41,860.36l.66-.25Z" />
    <path class="cls-1" d="M374.13,861.12l-.51.46C373.27,860.86,373.81,861.1,374.13,861.12Z" />
    <path class="cls-1" d="M363.81,864.54l.34-.4v.51Z" />
    <path class="cls-4" d="M334.39,872.07l.17.2-.16.11,0-.3Z" />
    <path class="cls-4" d="M333.8,872.87l.19-.15,0,.1-.22,0Z" />
    <path class="cls-3"
        d="M377.26,657.16c-.16,5-.37,9.25-1.92,13.32a8.53,8.53,0,0,1-1.55,2.52c-.9,1-4.06,1.14-5.12.31a4.46,4.46,0,0,1-1-4.15,48.09,48.09,0,0,0,3.8-14.1c.41-2.74.52-5.53.77-8.29.22-2.33.45-4.65.71-7,0-.29.31-.56.48-.84.22.26.56.48.64.77a59.27,59.27,0,0,1,2.74,12C376.94,653.79,377.14,655.8,377.26,657.16ZM374,648l-.26,0c-.81,7.58-.59,15.35-4.39,22.57,2.39-.51,2.93-2.21,3.27-3.79a50,50,0,0,0,1-7.31C373.88,655.66,373.9,651.84,374,648Z" />
    <path class="cls-3"
        d="M357.82,667.68a5.55,5.55,0,0,1-.88-.53,11.78,11.78,0,0,1-4.17-9.5c0-1.23.11-2.46.26-3.68,0-.32.44-.6.67-.9a4.67,4.67,0,0,1,.65.69,17.62,17.62,0,0,1,2.74,11,2.49,2.49,0,0,0,1,2.66Zm-2.8-4.94.53-.11c-.06-.61-.11-1.22-.17-1.83-.16-1.45-.3-2.91-.49-4.36,0-.18-.25-.33-.38-.49a2.3,2.3,0,0,0-.34.43,1.09,1.09,0,0,0-.14.57C354.35,658.88,354.69,660.81,355,662.74Z" />
    <path class="cls-4"
        d="M471.08,676.07c-.46-1.56-.83-3.16-1.4-4.67-2.49-6.6-5-13.17-7.56-19.76a13.22,13.22,0,0,1-.74-2.52,2.14,2.14,0,0,1,.32-1.44c.21-.3.75-.37,1.15-.54,0,.34,0,.68,0,1a4.7,4.7,0,0,0,0,1.5c2,5.84,4,11.66,6,17.48.81,2.33,1.59,4.67,2.46,7a2.12,2.12,0,0,0,1,1.22,5.43,5.43,0,0,1,3.32,3.38C473.62,678.71,472.3,677.47,471.08,676.07Z" />
    <path class="cls-4"
        d="M497,672c-.15-1.27-.28-2.56-.46-3.83-.46-3.34-.95-6.67-1.42-10a1.4,1.4,0,0,1,0-.35l.3-.12a16.75,16.75,0,0,1,1.26,3.41c.32,2.28.36,4.59.53,6.89a5.58,5.58,0,0,0,.16.68l0,.38-.38.82Z" />
    <path class="cls-3" d="M497,669.83l.38-.82Z" />
    <path class="cls-4" d="M475.63,678.7h0Z" />
    <path class="cls-4" d="M492.43,618.46l-.36.92-.33-.21.71-.7Z" />
    <path class="cls-4" d="M458.83,652.31l.37.22-.13.13-.22-.36Z" />
    <path class="cls-4" d="M498,822.71a2.27,2.27,0,0,1,.25-.18l.07.08-.33.09Z" />
    <path class="cls-4" d="M518.6,803.5l-.24.18-.06-.09.31-.08Z" />
    <path class="cls-4" d="M518.61,803.51l.22-.25,0,0-.25.22Z" />
    <path class="cls-4" d="M492.45,618.47l.1-.12s0,.06,0,.07l-.1,0Z" />
    <path class="cls-1"
        d="M502.08,875.47a25.27,25.27,0,0,0,12.83,9,11,11,0,0,0,7.7-.59c.95-.4,1.84-.95,2.79-1.38,3.14-1.41,4.78-4,5.68-7.17.38-1.34.67-2.7,1-4.28,1.23,1.88,2.41,3.57,3.48,5.33a30.16,30.16,0,0,1,4.1,17.11,24.45,24.45,0,0,1-.47,3.39,1.62,1.62,0,0,1-.52.9,21.43,21.43,0,0,1-7.54,4.77,7.75,7.75,0,0,1-4.66.53,4.3,4.3,0,0,1-1-.38c-5.15-3.25-10.62-3.25-16-1.12a13.73,13.73,0,0,1-7.27.44,24.39,24.39,0,0,1-6.83-2.06,16.56,16.56,0,0,1-9.14-10.1c-.49-1.52-.16-3.31-.16-5,0-2.63.09-5.26.06-7.9,0-1-.33-2-.35-2.94,0-3.2-.2-6.4,0-9.58a9.74,9.74,0,0,0-1.09-5.74,5.72,5.72,0,0,1-.65-3.82,20.86,20.86,0,0,1,2.75-7.61c.05-.09.18-.13.37-.25.48,1.26.88,2.5,1.42,3.68,2.11,4.62,4.27,9.21,6.4,13.82a8.27,8.27,0,0,1,.3.88,2.47,2.47,0,0,1-.1.67,12.4,12.4,0,0,0-.86,7.73c.69,3.51.9,7-.7,10.33-.07.14-.16.35-.1.46.22.46.41,1.06.8,1.28.21.13,1-.28,1.18-.63a13.64,13.64,0,0,0,1.55-7.17c-.17-2-.51-3.88-.7-5.82a5.51,5.51,0,0,1,.61-4c.62.89,1.22,1.81,1.88,2.68.46.62,1,1.17,1.5,1.76a2.07,2.07,0,0,1-.14.42,14.42,14.42,0,0,0-1.73,7.58c0,.8.21,1.71,1.28,1.67s1-.91,1-1.76a9.19,9.19,0,0,1,1-5.2Zm-13.75-14.68.48.43-.24-.62-.52-.73-.22.18Zm44.31,30.66-.08-.22c-4.23.28-8.46.61-12.7.81a43.73,43.73,0,0,1-14-1.76,9.32,9.32,0,0,1-3.15-1.84c-.94-.77-1.65-1.83-2.53-2.7a4.15,4.15,0,0,0-1.2-.63,10.16,10.16,0,0,0-.24,1.43,1.87,1.87,0,0,0,.23.8,6.13,6.13,0,0,0,5.05,4.09c4,.55,8,1.08,12,1.35a59.08,59.08,0,0,0,12.87-.72C530.11,891.87,531.38,891.65,532.64,891.45Zm-46.35-41.17c-1.62,2.59-.69,7,1.42,9.25C487.25,856.57,486.78,853.48,486.29,850.28Z" />
    <path class="cls-1"
        d="M497,862.2l-.8,1.55c-1.11-2.56-2.34-5.06-3.3-7.67-1.41-3.82-2.81-7.65-3.86-11.57-1.42-5.29,1.2-9.66,6.41-11.54,7.73-2.77,15.23-2,22.58,1.32a32.15,32.15,0,0,1,4,2.38,3,3,0,0,1,1.57,2.76c0,1.86.15,3.73.23,5.6-1.69-.55-3.37-1.15-5.09-1.63a6.77,6.77,0,0,1-2.7-1.36c-1.94-1.62-5.88-2.72-8.25-.93a10.76,10.76,0,0,1-4.66,1.6c-3,.62-6,1.5-9,2.28l-1.37.32c-.27-2-.53-4.08-.8-6.12l-.26,0a37.06,37.06,0,0,0-.71,4.65,25,25,0,0,0,1.84,9.09,21.38,21.38,0,0,0,1.07,2.21v0a3.76,3.76,0,0,0,.19,1C495.05,858.14,496,860.17,497,862.2Z" />
    <path class="cls-1"
        d="M502.51,873.94c.07-.86.28-1.43,1.26-.71a1.79,1.79,0,0,0,.68.13c.58,1.61,1.9,2.58,3.14,3.62.22,1.32.57,1.47,1.84,1.09a29,29,0,0,1,9.48-1.65c2.43.1,4.85.3,7.26.49a2.63,2.63,0,0,1,.82.38,8.58,8.58,0,0,1-6.67,5.4c-6.75,1.4-11.68-1.86-16.07-6.38A21.55,21.55,0,0,1,502.51,873.94Z" />
    <path class="cls-1"
        d="M528.43,877.28l0-1.7c.84-.69.4-1.53.28-2.34v-1.67l-.5-2.44a1.77,1.77,0,0,0,0-1.89L528,865a2.06,2.06,0,0,0-.74-2.36l0-2.42a1.93,1.93,0,0,0-.48-2c-.09-.73.33-1.57-.5-2.13l0-1.17c-.13-.56.44-1.34-.51-1.64l0-1.53c.08-.51.51-1.16-.52-1.18l.2-.93a4.25,4.25,0,0,1,1.9,4,6.44,6.44,0,0,0,.33,4.28,30.66,30.66,0,0,1,1.11,4.39,81.72,81.72,0,0,1,1.65,8.27,15.14,15.14,0,0,1-.62,5.15,8.51,8.51,0,0,1-1.86,3C528.14,878.37,528.29,877.82,528.43,877.28Z" />
    <path class="cls-1"
        d="M538.85,899.69a5,5,0,0,1-.23,1.13,13.54,13.54,0,0,1-4.41,5.68c-1.6,1.06-3.53,1.34-4.88-.44-.42-.55-1-1-1.56-1.62C532.27,904.68,535.48,902.12,538.85,899.69Z" />
    <path class="cls-1"
        d="M524.55,848.67c-.6-.19-1.2-.36-1.78-.58-1.11-.41-2.21-.85-3.32-1.27-.22-.08-.51-.08-.66-.23a3.28,3.28,0,0,1-.44-.75c.25-.06.53-.22.75-.16,1.1.32,2.16.76,3.27,1.05a8.84,8.84,0,0,0,1.79.11Z" />
    <path class="cls-2" d="M501.75,875.46l.12-.55.21.56Z" />
    <path class="cls-1"
        d="M359,897.34c-2,1.6-3.94,3.35-6.08,4.76a21.65,21.65,0,0,1-5.27,2.46c-3.16,1-6.2.24-9.1-1.19-.57-.29-1.1-.64-1.66-1l.31-.46c3.07,1,6.16.52,9.21,0a39,39,0,0,0,11.74-4.29,4.21,4.21,0,0,1,.87-.28Z" />
    <path class="cls-1"
        d="M318.15,897.07l2.57,1.29a17.2,17.2,0,0,1-2,.78c-.15,0-.55-.29-.59-.49A9,9,0,0,1,318.15,897.07Z" />
    <path class="cls-3" d="M337.19,902l-.31.46-.73-.5.15-.29Z" />
    <path class="cls-3" d="M335.27,901.16l.67.21-.12.27-.6-.44Z" />
    <path class="cls-1" d="M359,897.36l.08-.11s0,0,0,0a.2.2,0,0,1-.08,0Z" />
    <path class="cls-3" d="M335.22,901.2l-.14-.11.19.07Z" />
    <path class="cls-4" d="M368.65,814.27l-4.27-1.14.1-.36,4.24,1.12Z" />
    <path class="cls-4"
        d="M350.21,888.15c-3.59,4.92-22.64,4.24-25.65-.72a2.5,2.5,0,0,1,2.57.09,31.71,31.71,0,0,0,8.33,2.46A26.69,26.69,0,0,0,348,888.91C348.71,888.7,349.36,888.45,350.21,888.15Z" />
    <path class="cls-4" d="M380.84,855.34l.1-.17.09.12-.19.06Z" />
    <path class="cls-4" d="M380.36,855.83l-.23.24h0l.24-.24Z" />
    <path class="cls-4" d="M379.91,856.34l-.2.28-.09-.1.25-.23Z" />
    <path class="cls-4" d="M380.6,855.58l.24-.24h0l-.24.24Z" />
    <path class="cls-4" d="M380.6,855.59l-.24.24h0l.24-.24Z" />
    <path class="cls-4" d="M379.87,856.29l.25-.23h0l-.22.27Z" />
    <path class="cls-4"
        d="M374,648c-.12,3.81-.14,7.63-.38,11.44a50,50,0,0,1-1,7.31c-.34,1.58-.88,3.28-3.27,3.79,3.8-7.22,3.58-15,4.39-22.57Z" />
    <path class="cls-4"
        d="M355,662.74c-.33-1.93-.67-3.86-1-5.79a1.09,1.09,0,0,1,.14-.57,2.3,2.3,0,0,1,.34-.43c.13.16.36.31.38.49.19,1.45.33,2.91.49,4.36.06.61.11,1.22.17,1.83Z" />
    <path class="cls-4"
        d="M532.64,891.45c-1.26.2-2.53.42-3.79.61a59.08,59.08,0,0,1-12.87.72c-4-.27-8-.8-12-1.35a6.13,6.13,0,0,1-5.05-4.09,1.87,1.87,0,0,1-.23-.8,10.16,10.16,0,0,1,.24-1.43,4.15,4.15,0,0,1,1.2.63c.88.87,1.59,1.93,2.53,2.7a9.32,9.32,0,0,0,3.15,1.84,43.73,43.73,0,0,0,14,1.76c4.24-.2,8.47-.53,12.7-.81Z" />
    <path class="cls-4" d="M486.29,850.28c.49,3.2,1,6.29,1.42,9.25C485.6,857.24,484.67,852.87,486.29,850.28Z" />
    <path class="cls-4"
        d="M500.74,872.22l-.36.53c-.5-.59-1-1.14-1.5-1.76-.66-.87-1.26-1.79-1.88-2.68l.42-1.55Q499.07,869.49,500.74,872.22Z" />
    <path class="cls-4" d="M488.33,860.79l-.5-.74.22-.18.52.73Z" />
    <path class="cls-3" d="M488.57,860.6l.24.62-.48-.43Z" />
    <path class="cls-1"
        d="M527.49,875c-2.61-.21-5.21-.46-7.82-.62a31.18,31.18,0,0,0-12,2.08l-2.54-3.22a19.88,19.88,0,0,1,3.08-1.1,34.14,34.14,0,0,1,16.77.54c.9.28,1.81.54,2.72.81Z" />
    <path class="cls-1"
        d="M527.24,871a8.65,8.65,0,0,1-1.27-.15,37,37,0,0,0-20.55,0c-.29.09-.59.13-.93.2a5.16,5.16,0,0,1,4.57-4,49.93,49.93,0,0,1,15.32,1.17,23.63,23.63,0,0,1,2.89,1.12Z" />
    <path class="cls-1"
        d="M526.75,866.63c-2.54-.47-5-1.15-7.61-1.37-3.29-.29-6.61-.22-9.91-.31a4.67,4.67,0,0,1-.6-.12c.54-.9,1-1.73,1.51-2.52a1,1,0,0,1,.67-.43c1.32-.08,2.64-.14,3.95-.1.26,0,.55.4.74.68,1.46,2.15,3.54,2.34,5.44.53a1.58,1.58,0,0,1,1.33-.34,11,11,0,0,1,4.53,2.57Z" />
    <path class="cls-1"
        d="M499.64,864.7a8.85,8.85,0,0,1,1.52-.8c2-.59,3.95-1.1,6.06-1.68-.51,2.55-3.56,4.49-6.48,4.42Z" />
    <path class="cls-4"
        d="M493.91,855.11a21.38,21.38,0,0,1-1.07-2.21,25,25,0,0,1-1.84-9.09,37.06,37.06,0,0,1,.71-4.65l.26,0c.27,2,.53,4.08.8,6.12-.83.61-1.5,1.24-.51,2.28.09.09,0,.36,0,.56-.52.64-.29,1,.44,1.18l.63.14.18.42c-.79,1.09-.69,1.47.54,2l.37,1.57Z" />
    <path class="cls-1"
        d="M509,856.35c.87.09,1.06.43.82,1.1a9.37,9.37,0,0,0-.31,1,2.12,2.12,0,0,1-2,1.8c-2.12.32-4.19,1-6.29,1.44a8.6,8.6,0,0,1-1,.11c0-.18-.08-.45,0-.54a2.71,2.71,0,0,1,1-.65,24.8,24.8,0,0,0,3.85-1.09,15.86,15.86,0,0,0,2.82-2.34C508.22,856.9,508.62,856.63,509,856.35Z" />
    <path class="cls-1"
        d="M500.74,872.22q-1.67-2.73-3.32-5.46c.42-.68.85-1.36,1.28-2l1.19,2.72a1.34,1.34,0,0,0,1.31,1.79l.64,1.1C501.47,871,501.1,871.59,500.74,872.22Z" />
    <path class="cls-4"
        d="M497,862.2c-1-2-2-4.06-2.93-6.1a3.76,3.76,0,0,1-.19-1l1.38.33c.2.85.4,1.71.62,2.56a3.25,3.25,0,0,0,.32.74c.48.83,1,1.65,1.46,2.47Z" />
    <path class="cls-1"
        d="M520.17,858.75c-.08,1-.53,1.34-1.39,1.17-.31-.07-.62-.12-.94-.17a1.59,1.59,0,0,1-1.42-2.14.84.84,0,0,1,.71-.37,10.09,10.09,0,0,1,2.32.49C519.77,857.86,519.94,858.4,520.17,858.75Z" />
    <path class="cls-1"
        d="M497.68,861.18c-.48-.82-1-1.64-1.46-2.47a3.25,3.25,0,0,1-.32-.74c-.22-.85-.42-1.71-.62-2.56.13-.09.25-.24.39-.26.42-.07.86-.08,1.29-.11a15.08,15.08,0,0,1-.15,1.78c-.08.39-.55.81-.46,1.11s.62.55,1,.73.91.13,1.05.36a1.63,1.63,0,0,1-.11,1.15A5,5,0,0,1,497.68,861.18Z" />
    <path class="cls-1"
        d="M526.24,862.1a35.54,35.54,0,0,1-3.69-1.57c-.31-.17-.25-1-.37-1.55.33-.06.74-.26,1-.14,1,.54,1.93,1.16,2.89,1.76Z" />
    <path class="cls-1"
        d="M513,859.72c-1.5,0-1.52,0-1.09-1.48.19-.69.06-1.77,1.31-1.49.35.08.64.51.91.82.11.13.07.38.11.57C514.48,859.68,514.48,859.68,513,859.72Z" />
    <path class="cls-1"
        d="M501.12,851.94l-1.22-.29c.4-.44.71-1.1,1.2-1.29a8.17,8.17,0,0,1,2.34-.32c.58,0,.76.34.4.72a4.08,4.08,0,0,1-1.4.91,5,5,0,0,1-1.29.17Z" />
    <path class="cls-1"
        d="M494.41,853.46l-.37-1.57c.92-.25,1.84-.48,2.75-.76s.87.19.64.73a1.68,1.68,0,0,1-.78.8C495.93,853,495.16,853.2,494.41,853.46Z" />
    <path class="cls-1"
        d="M518.81,855.45a12.18,12.18,0,0,1-2.2-.4c-.29-.1-.43-.63-.64-1,.31-.14.63-.42.92-.39a6,6,0,0,1,1.92.51c.26.12.35.64.45,1C519.28,855.23,518.92,855.39,518.81,855.45Z" />
    <path class="cls-1"
        d="M493.5,849.89l-.18-.42c1.73-.83,4.95-1.63,6.14-1.27a6.31,6.31,0,0,1-1.11.54C496.74,849.15,495.11,849.51,493.5,849.89Z" />
    <path class="cls-1" d="M525.57,857.5c-2.24-.45-3.51-1.21-3.86-2.57l3.94,1.74Z" />
    <path class="cls-1"
        d="M504.26,854.61a2,2,0,0,1,2.6-1.15c.13.08.28.38.22.47-.13.26-.36.62-.58.65A20.78,20.78,0,0,1,504.26,854.61Z" />
    <path class="cls-1"
        d="M501.68,854.48a9.16,9.16,0,0,1-1.47,1c-.25.11-.65-.13-1-.21.12-.39.16-1,.37-1.1a7.87,7.87,0,0,1,2-.16A3.25,3.25,0,0,1,501.68,854.48Z" />
    <path class="cls-1" d="M505.11,857.13l-3,1.46C502.34,856.9,503.07,856.53,505.11,857.13Z" />
    <path class="cls-4" d="M505.16,873.26l2.54,3.22-.11.5c-1.24-1-2.56-2-3.14-3.62Z" />
    <path class="cls-4" d="M499.89,867.45l-1.19-2.72.94,0,1.1,1.94Z" />
    <path class="cls-4" d="M527.24,871l0-1.65.92-.17.5,2.44Z" />
    <path class="cls-4" d="M527.49,875l.24-1.51.95-.27c.12.81.56,1.65-.28,2.34Z" />
    <path class="cls-4" d="M526.24,862.1l-.2-1.5,1.2-.34,0,2.42Z" />
    <path class="cls-4" d="M526.75,866.63l0-1.41L528,865l.24,2.2Z" />
    <path class="cls-1" d="M506.12,844.9l2.11-1.13C508.14,845.23,507.85,845.43,506.12,844.9Z" />
    <path class="cls-1"
        d="M518,851.78a20,20,0,0,1-2.06-.27c-.18,0-.29-.38-.44-.59.22-.11.47-.34.64-.3.68.18,1.33.44,2,.67Z" />
    <path class="cls-1"
        d="M508.35,850.47a16.53,16.53,0,0,1-1.48,1c-.09,0-.34-.19-.52-.3.41-.42.82-.85,1.27-1.24A5.47,5.47,0,0,1,508.35,850.47Z" />
    <path class="cls-1" d="M524.26,853.65a8.42,8.42,0,0,1-3.47-1.31L521,852l3.45,1.35Z" />
    <path class="cls-4" d="M525.57,857.5l.08-.83.61-.49c.83.56.41,1.4.5,2.13Z" />
    <path class="cls-1" d="M498.89,845.52l3.44-.83.09.38c-1,.8-2.3.34-3.39.76Z" />
    <path class="cls-1" d="M512.25,853.79c.3-.14.63-.44.87-.38s.45.48.67.74c-.24.17-.48.5-.72.49s-.56-.3-.83-.47Z" />
    <path class="cls-4" d="M501.84,870.34l-.64-1.1,1.23-.31C502.23,869.4,502,869.87,501.84,870.34Z" />
    <path class="cls-1" d="M503.1,847.86c.79-.85,1.76-.43,2.68-.38C505,848.28,504,847.83,503.1,847.86Z" />
    <path class="cls-4"
        d="M525.77,853.37c1,.3.38,1.08.51,1.64l-1-.86,0-.46C525.48,853.58,525.62,853.47,525.77,853.37Z" />
    <path class="cls-1" d="M515.12,847.82l1.59.38-.1.48-1.59-.3Z" />
    <path class="cls-1" d="M514.81,844.79l.69.61c-.15.13-.33.39-.44.36a2.91,2.91,0,0,1-.74-.43Z" />
    <path class="cls-1"
        d="M510,853a3.67,3.67,0,0,1,.2,1c0,.17-.28.29-.43.43-.09-.18-.29-.37-.26-.54S509.68,853.46,510,853Z" />
    <path class="cls-4" d="M525.28,850.66c1,0,.6.67.52,1.18C525.45,851.52,524.61,851.43,525.28,850.66Z" />
    <path class="cls-1" d="M513.39,850.89c-.17.16-.36.39-.41.37s-.38-.26-.4-.41.2-.33.32-.49Z" />
    <path class="cls-1" d="M492.69,849.33c-.73-.17-1-.54-.44-1.18Z" />
    <path class="cls-1" d="M525.34,853.69l0,.46-.6-.39Z" />
</svg>
