<svg id="pryamoy" xmlns="http://www.w3.org/2000/svg" viewBox="0 0 672 960">
    <g id="midi_img" data-name="midi&nbsp;img">
        <path class="outline"
            d="M498.46,256.54q-10.32,5.76-20.66,11.53a1.77,1.77,0,0,0-1,1.54c-.72,6.71-1.59,13.41-2.23,20.13a46.82,46.82,0,0,0,.23,6.47c.44,10.41,2.53,20.6,3.94,30.89a248.17,248.17,0,0,1,2.72,29.95c.12,7.51.33,15,.86,22.53.23,3.26,1.35,6.46,2.12,9.67a65.08,65.08,0,0,1,1.7,6.59,27,27,0,0,1-.12,6c-.21,2.53-.78,5-.87,7.58a20.83,20.83,0,0,0,.78,4.77c2.08,9.83,4.35,19.62,6.21,29.49a171.27,171.27,0,0,1,2.24,17.65,127.89,127.89,0,0,1,.41,15.29,94.25,94.25,0,0,1-2.12,17.61,5.15,5.15,0,0,0-.14,1.18c0,2-.93,3.12-3,3.18a48.9,48.9,0,0,1-8.12-.27c-11-1.6-22-1.43-33-.68-8.38.57-16.76,1.23-25.14,1.46-5.18.14-10.38-.46-15.57-.73-7-.37-14-.72-21-1.12-8.78-.51-17.56-1.07-26.34-1.59-7.46-.44-14.94-.68-22.39-1.32-7.24-.63-14.45-1.59-21.66-2.51-2.85-.36-5.67-.94-8.48-1.52-1.66-.34-2.83-2.1-2.84-4.19,0-.94.27-1.89.34-2.84a142.1,142.1,0,0,0,0-20.94c-.26-3.58-.37-7.18-.59-10.76-.28-4.43-.6-8.84-.89-13.26-.06-.92-.05-1.84,0-2.76a81.59,81.59,0,0,0-1.41-14c-.34-2.12-.21-4.31-.62-6.41-2.29-11.59-4.78-23.14-7-34.75-1.09-5.73-1.73-11.53-2.5-17.31-1-7.37-1.83-14.75-2.83-22.11-.72-5.34-1.57-10.66-2.42-16a6.7,6.7,0,0,0-.8-2c-.85-1.68-1.77-3.31-2.58-5a3.54,3.54,0,0,1-.05-1.46c.16-8,.54-16.07.41-24.11-.1-6.5-.9-13-1.25-19.5-.29-5.51-.42-11-.55-16.55q-.64-28.48-1.26-57a4.75,4.75,0,0,0-.22-1v-5.28l.42-3.07c1.14-.12,2.38-.28,3.63-.38,4.94-.39,9.89-.79,14.84-1.15q7.19-.53,14.38-1a134.14,134.14,0,0,0,18.67-1.95c4.48-.9,9-1.67,13.14-3.76a3.36,3.36,0,0,1,2.28,0c.8.23.76,1,.91,1.82a8.09,8.09,0,0,0,1.61,2.77c8.23,11.69,19.51,18.77,33.39,21.78,2.79.6,5.65.87,8.48,1.21,5.63.68,11.18-.26,16.74-.94a61.37,61.37,0,0,0,14.87-3.26,35.24,35.24,0,0,0,17.5-14.54c3.16-5.07,5.82-10.45,8.7-15.7a3,3,0,0,0,.22-.56c.9-2.64.63-2.53,3.61-1.79a89,89,0,0,1,18.09,6.5c2,1,4.28,1.62,6.26,2.71a43.39,43.39,0,0,1,5.58,3.87q5.1,4,10.08,8.11c3.24,2.69,5.08,6.41,7.08,10s2.72,7.63,3.7,11.57q3.53,14.17,7,28.38l1.43,5.88-6.28,2.52c.13-.21.2-.49.39-.61.93-.62,1.93-1.14,2.81-1.82a1.53,1.53,0,0,0,.5-1.24q-4-17.94-8-35.86a34.6,34.6,0,0,0-9.93-17.31,65.84,65.84,0,0,0-12.77-10,24.74,24.74,0,0,0-2.67-1.35c-3.38-1.45-6.79-2.82-10.15-4.31a76.75,76.75,0,0,0-14.53-4.52,20.55,20.55,0,0,1-1,2.74c-2.34,4.58-4.5,9.29-7.16,13.68a37.13,37.13,0,0,1-22.05,17.19c-3.22.92-6.54,1.46-9.82,2.17-3.56.42-7.12.88-10.69,1.24a55.81,55.81,0,0,1-16.06-.66A81.4,81.4,0,0,1,371,207l-3.37-1.6c-.27-.16-.53-.34-.81-.49a51.16,51.16,0,0,1-14-11c-2.51-2.88-4.64-6.09-7-9.13a1.42,1.42,0,0,0-1.07-.54c-3,.69-6,1.65-9.06,2.15-5.77.95-11.57,1.81-17.39,2.41s-11.45.83-17.18,1.21-11.3.74-17,1.11a2.38,2.38,0,0,0-2.35,2.48c0,1.56.17,3.11.19,4.66.19,15.54.35,31.08.56,46.62.08,5.55.25,11.09.41,16.64.07,2.35.2,4.7.36,7.05.25,3.93.56,7.86.81,11.79.23,3.5.4,7,.6,10.5.28,4.85.58,9.71.83,14.56,0,.75-.16,1.51-.12,2.26.12,2.27.44,4.53.44,6.79a10.31,10.31,0,0,0,2.35,6.86,7.51,7.51,0,0,1,1.54,4.28c0,.31.07.63.12.94.49,3,1.05,6,1.44,9,.68,5.22,1.26,10.45,1.87,15.68.52,4.42,1,8.86,1.52,13.29.57,4.62,1,9.28,1.83,13.85,2,10.86,4.32,21.67,6.34,32.53,1.25,6.65,2.27,13.35,3.22,20.05.56,3.94,1,7.92,1.14,11.89.28,6.78.31,13.57.47,20.35.16,7.14.36,14.29.52,21.43a10.37,10.37,0,0,0,2,5.19.65.65,0,0,0,.37.27c1.7.2,3.4.4,5.1.56,1.18.1,2.37.05,3.53.21,1.46.21,2.94.92,4.33.73a11.61,11.61,0,0,1,3.6.24c.55.09,1.1.18,1.66.22,3.53.27,7.06.5,10.6.78,6.86.55,13.72,1.13,20.59,1.67,2.9.22,5.8.38,8.7.58l11.43.81c2.62.19,5.25.34,7.87.56,4.36.36,8.71.87,13.08,1.12s8.62.36,12.93.34c7.51,0,15-.18,22.52-.33,2,0,4-.29,5.95-.45,3.77-.3,7.53-.75,11.3-.88s7.27.07,10.9.18c2.78.09,5.57.23,8.35.42,4.81.33,9.61.72,14.41,1.07,1.66.13,1.64.11,2.1-1.57.18-.65.48-1.27.7-1.91a47.33,47.33,0,0,0,1.63-4.88,60.83,60.83,0,0,0,.82-23.2c-1.33-8.59-3.27-17.09-5-25.62-1.08-5.4-2.32-10.77-3.3-16.19-.46-2.54-.33-5.18-.74-7.73a33.82,33.82,0,0,1-.25-9.89,42.54,42.54,0,0,0,.79-6.89,51.25,51.25,0,0,0-1.13-8.88,94.58,94.58,0,0,1-2.42-19.1c-.09-10.66,0-21.33-1.22-31.94-.71-6.06-1.34-12.14-2.22-18.17-1-6.75-2.16-13.48-3.35-20.19a29.27,29.27,0,0,1-.67-8.44c.74-6.66,1.54-13.31,2.27-20,.16-1.41.14-2.84.2-4.26.13-.62.27-1.24.4-1.87l.08-1c.32-2.22.63-4.43.95-6.64a4.18,4.18,0,0,1,.56,1.22c.18,1.73-.41,3.52.48,5.39l2-1.36,4.35-2.11c3-1.39,6-2.8,9-4.14C495.14,257.78,496.82,257.18,498.46,256.54Z">
        </path>
        <path class="color-shadow-dark"
            d="M412.75,211c3.28-.71,6.6-1.25,9.82-2.17a37.13,37.13,0,0,0,22.05-17.19c2.66-4.39,4.82-9.1,7.16-13.68a20.55,20.55,0,0,0,1-2.74,76.75,76.75,0,0,1,14.53,4.52c3.36,1.49,6.77,2.86,10.15,4.31a24.74,24.74,0,0,1,2.67,1.35,65.84,65.84,0,0,1,12.77,10,34.6,34.6,0,0,1,9.93,17.31q4,17.92,8,35.86a1.53,1.53,0,0,1-.5,1.24c-.88.68-1.88,1.2-2.81,1.82-.19.12-.26.4-.39.61l-7.23,3.58-.46.24h0l-.48.25,0,0-.5.27,0,0c-1.64.64-3.32,1.24-4.94,2-3,1.34-6,2.75-9,4.14a10.63,10.63,0,0,1,.87-1c1.28-1.14,2.59-2.26,3.9-3.39a6,6,0,0,0,1-.54,73.22,73.22,0,0,1,12.57-7.84l5.72-2.86c-.82-2.45-1.61-4.82-2.39-7.2q-2-6.14-4-12.27c-.82-4.21-1.48-8.46-2.52-12.61-1-3.86-2.26-7.63-3.53-11.41a9.17,9.17,0,0,0-1.79-3.33,66.09,66.09,0,0,0-5.76-5.34c-4.58-3.79-9.37-7.31-15.07-9.24s-11.19-3.46-16.77-5.21c-.74-.23-.89.11-1.1.66-.7,1.89-1.44,3.77-2.17,5.66a28.09,28.09,0,0,1-2.22,4,57.85,57.85,0,0,1-9.77,9.25,68.39,68.39,0,0,1-11.33,6.79,55,55,0,0,1-14.68,5.14C414.59,212,413.4,212.21,412.75,211Z">
        </path>
        <path class="outline" d="M499.4,256.07l.46-.24Z"></path>
        <path class="outline" d="M498.92,256.32l.48-.25Z"></path>
        <path class="outline" d="M498.44,256.56l.5-.27Z"></path>
        <path class="color-base"
            d="M502.27,227.52q2,6.14,4,12.27c.78,2.38,1.57,4.75,2.39,7.2l-5.72,2.86a73.22,73.22,0,0,0-12.57,7.84,6,6,0,0,1-1,.54,8.17,8.17,0,0,0-1,.27c-1.45.61-2.88,1.25-4.42,1.91a3.8,3.8,0,0,1-.07-.78c.35-2.47.75-4.94,1.07-7.41a64.65,64.65,0,0,0,.79-7.69c0-4.3-.22-8.6-.44-12.9-.15-2.81-.42-5.62-.74-8.42-.13-1.07-.35-2.25-2-2.67a8.6,8.6,0,0,0-1.37,2.11,36.65,36.65,0,0,0-.91,4.31c-.67,3.42-1.28,6.86-2,10.28-.87,4-2,8-2.74,12.08-.92,4.75-1.58,9.55-2.38,14.32-.64,3.79-1.33,7.58-2,11.37-.77,4.45-1.56,8.9-2.31,13.36-.38,2.27-.69,4.55-1,6.82l-.24,5.51c-.24,4.89-.69,9.78-.66,14.67,0,4.6.53,9.2.88,13.8.28,3.64.65,7.28,1,10.91.38,4.16.86,8.3,1.16,12.46.33,4.68.5,9.37.74,14.06.16,3.3.35,6.6.47,9.9.19,5.3.32,10.6.5,15.9.05,1.63.19,3.26.22,4.89.1,6.07.17,12.14.25,18.21a45.44,45.44,0,0,0,.08,6.29c.58,3.8,1.43,7.56,2.28,11.3.9,4,1.89,7.89,2.93,11.81a112.65,112.65,0,0,1,3.32,22.35,59.5,59.5,0,0,1-1.39,17.44,3.06,3.06,0,0,1-1.67,2.35,49.43,49.43,0,0,1-15.33,3.75c-2.85.23-5.7.51-8.55.73-4.2.33-8.4.61-12.6,1-2.14.17-4.26.45-6.4.63a41.82,41.82,0,0,1-5.24.28c-4.56-.23-9.11-.71-13.68-.88-3.14-.11-6.3.13-9.45.2s-6.45.15-9.68.26a3,3,0,0,0-1,.46l-5.74-.23-10-.72-10-.74c-4.6-.32-9.2-.91-13.8-.87-5.66.05-11-1.27-16.45-2.52a34.49,34.49,0,0,0-5.36-1.11,34.9,34.9,0,0,1-9.23-1.65,4,4,0,0,1-3.09-3.4c-.46-3.22-.86-6.44-1.2-9.68-.19-1.78-.15-3.58-.29-5.36-.28-3.56-.6-7.12-.93-10.68-.31-3.28-.63-6.56-1-9.83-.34-2.88-.72-5.75-1.16-8.61-.49-3.18-1-6.35-1.61-9.5-.34-1.83-1.11-3.61-1.2-5.44-.2-3.89-.06-7.78-1-11.63-.85-3.55-1.37-7.17-2-10.76-.93-5.16-1.92-10.3-2.78-15.47-1.35-8.06-2.59-16.14-3.9-24.2-1.09-6.62-2.22-13.23-3.32-19.84-.77-4.58-1.46-9.17-2.27-13.74s-1.67-8.82-2.55-13.21c-1.09-5.45-2.14-10.91-3.37-16.33-.81-3.6-2.18-7.1-2.79-10.73-.77-4.61-1.1-9.3-1.48-14-.28-3.41-.35-6.83-.5-10.25-.17-3.66-.32-7.32-.49-11-.15-3.22-.38-6.44-.46-9.66-.2-7.86-.38-15.72-.47-23.57,0-2.38.33-4.76.43-7.14.2-4.38.33-8.76.49-13.14.17-1.17.3-2.34.54-3.5a1.14,1.14,0,0,1,.71-.77c2.22-.3,4.45-.52,6.68-.76h.48l6.24-.48h.48l7-.23h1.2l2.63,0,1-.44,1.9.21,1-.23,1.91,0,.73-.22,3.12-.23h3.83l1.21-.23H330l1.21-.23h2.4a2.49,2.49,0,0,0,.46.55c3.24,2.22,6.42,4.54,9.76,6.61a47.9,47.9,0,0,0,7,3.55c3.51,1.45,7.14,2.63,10.7,4a20.83,20.83,0,0,0,8.77,1.38A2.49,2.49,0,0,0,371,207a81.4,81.4,0,0,0,15,4.61,55.81,55.81,0,0,0,16.06.66c3.57-.36,7.13-.82,10.69-1.24.65,1.23,1.84,1.05,2.81.85a55,55,0,0,0,14.68-5.14,68.39,68.39,0,0,0,11.33-6.79,57.85,57.85,0,0,0,9.77-9.25,28.09,28.09,0,0,0,2.22-4,6.05,6.05,0,0,1,1.05.17c7.94,2.58,16.13,4.34,23.95,7.35,4.55,1.76,8.66,4,11.92,7.7,1.27,1.42,2.44,2.93,3.68,4.38a19.32,19.32,0,0,1,4.52,8.7c.69,3.3,1.38,6.61,2.2,9.88A12,12,0,0,0,502.27,227.52Z">
        </path>
        <path class="color-shadow-dark"
            d="M330,191.49h-1.19c-.48-.33-.93-.48-1.21.23h-3.83l-3.12.23-.73.22-1.91,0-1,.23-1.9-.21-1,.44-2.63,0h-1.2l-7,.23h-.48l-6.24.48h-.48c-2.23.24-4.46.46-6.68.76a1.14,1.14,0,0,0-.71.77c-.24,1.16-.37,2.33-.54,3.5-.24.49-.52,1-.72,1.49-.75,1.93-1.55,3.84-2.18,5.81a16.09,16.09,0,0,0-.86,4.31c-.06,1.77.36,3.55.39,5.33.07,3.76,0,7.52,0,11.28,0,3.1-.09,6.2,0,9.3.17,4.77.45,9.54.72,14.31.13,2.3.25,4.61.52,6.9.65,5.51,1.53,11,2.06,16.52.39,4,.37,8.12.53,12.18,0,.4,0,.8,0,1.2,0,2.54.09,5.08-.09,7.61-.22,3-.47,6,.31,8.91,1.3,4.84,2.85,9.62,4.21,14.44a51.63,51.63,0,0,1,1.74,7.3,107.53,107.53,0,0,0,1.95,12.09q1.73,7.13,3.14,14.31c.69,3.5,1.11,7.05,1.67,10.58.46,2.86,1,5.71,1.45,8.56.76,4.54,1.55,9.07,2.29,13.62.47,2.93.91,5.88,1.3,8.83.46,3.42.87,6.84,1.24,10.28.45,4.24,1.79,8.35,1.7,12.68-.06,2.65.27,5.32.43,8,.08,1.31.15,2.62.26,3.93.3,3.52.64,7,.93,10.55.13,1.59.15,3.18.27,4.77q.45,6.3.95,12.6c.17,2.18.43,4.35.56,6.53.1,1.78.06,3.58.1,5.37.06,3.22-.25,6.5.32,9.62s2,6.27,3.1,9.39a1,1,0,0,0,.52.57,13.31,13.31,0,0,0,2.57.52c3.77.2,7.56.32,11.33.51a30.51,30.51,0,0,1,3.43.39c2.11.32,4.22.71,6.34,1,3.1.45,6.21.88,9.31,1.29,2.32.31,4.64.62,7,.87,2.72.28,5.45.52,8.18.76,3.64.31,7.28.78,10.92.88,4.11.11,8.22-.12,12.33-.19a4.28,4.28,0,0,0,.95,0c.22-.06.39-.29.59-.45l5.74.23c2.05.24,4.09.55,6.15.71,4.76.36,9.51.7,14.28,1,3.1.16,6.22.23,9.33.24,2.27,0,4.54-.18,6.81-.21,3.27-.05,6.56.06,9.83-.06s6.58-.47,9.87-.66c2.19-.13,4.38-.17,6.57-.25,4.22-.16,8.44-.31,12.66-.51a5.31,5.31,0,0,0,1.36-.49,9,9,0,0,1,2.64-.87,4.13,4.13,0,0,0,2.79-1.09c.69-.59,1.5-1.07,2.12-1.72,1.76-1.85,3.67-3.72,4.14-6.3.81-4.52,1.31-9.1,1.94-13.66.26-1.84.21-3.83.91-5.49a7.67,7.67,0,0,0,.17-4.63c-.39-2.43-.88-4.84-1.31-7.26a71.93,71.93,0,0,0-1.35-7.37c-1.66-5.57-3.62-11.05-5.3-16.61a24.16,24.16,0,0,1-.94-7.38c.05-3.5-.82-7-1-10.53a48.06,48.06,0,0,1,.74-12.49,3,3,0,0,0-.2-1.71c-1.72-4.07-2.12-8.4-2.47-12.71-.21-2.68,0-5.39-.05-8.09s-.11-5.66-.23-8.49c-.21-4.81-.5-9.62-.71-14.43-.19-4.26-.28-8.52-.5-12.78-.16-3.13-.42-6.26-.71-9.39-.35-3.75-.7-7.51-1.21-11.24a117.78,117.78,0,0,0-4.09-17.76c-.05-.18-.29-.3-.45-.45l.24-5.51c.32-.31.8-.56.92-.93q1-3.17,1.87-6.38c1.5-5.56,3.57-11,4.39-16.7a9.9,9.9,0,0,1,.87-2.19c-.06,1.42,0,2.85-.2,4.26-.73,6.66-1.53,13.31-2.27,20a29.27,29.27,0,0,0,.67,8.44c1.19,6.71,2.36,13.44,3.35,20.19.88,6,1.51,12.11,2.22,18.17,1.24,10.61,1.13,21.28,1.22,31.94a94.58,94.58,0,0,0,2.42,19.1,51.25,51.25,0,0,1,1.13,8.88,42.54,42.54,0,0,1-.79,6.89,33.82,33.82,0,0,0,.25,9.89c.41,2.55.28,5.19.74,7.73,1,5.42,2.22,10.79,3.3,16.19,1.7,8.53,3.64,17,5,25.62a60.83,60.83,0,0,1-.82,23.2,47.33,47.33,0,0,1-1.63,4.88c-.22.64-.52,1.26-.7,1.91-.46,1.68-.44,1.7-2.1,1.57-4.8-.35-9.6-.74-14.41-1.07-2.78-.19-5.57-.33-8.35-.42-3.63-.11-7.27-.29-10.9-.18s-7.53.58-11.3.88c-2,.16-4,.41-5.95.45-7.51.15-15,.3-22.52.33-4.31,0-8.63-.1-12.93-.34s-8.72-.76-13.08-1.12c-2.62-.22-5.25-.37-7.87-.56L368.8,495c-2.9-.2-5.8-.36-8.7-.58-6.87-.54-13.73-1.12-20.59-1.67-3.54-.28-7.07-.51-10.6-.78-.56,0-1.11-.13-1.66-.22a11.61,11.61,0,0,0-3.6-.24c-1.39.19-2.87-.52-4.33-.73-1.16-.16-2.35-.11-3.53-.21-1.7-.16-3.4-.36-5.1-.56a.65.65,0,0,1-.37-.27,10.37,10.37,0,0,1-2-5.19c-.16-7.14-.36-14.29-.52-21.43-.16-6.78-.19-13.57-.47-20.35-.17-4-.58-7.95-1.14-11.89-1-6.7-2-13.4-3.22-20.05-2-10.86-4.33-21.67-6.34-32.53-.85-4.57-1.26-9.23-1.83-13.85-.53-4.43-1-8.87-1.52-13.29-.61-5.23-1.19-10.46-1.87-15.68-.39-3-.95-6-1.44-9-.05-.31-.08-.63-.12-.94a7.51,7.51,0,0,0-1.54-4.28,10.31,10.31,0,0,1-2.35-6.86c0-2.26-.32-4.52-.44-6.79,0-.75.16-1.51.12-2.26-.25-4.85-.55-9.71-.83-14.56-.2-3.5-.37-7-.6-10.5-.25-3.93-.56-7.86-.81-11.79-.16-2.35-.29-4.7-.36-7.05-.16-5.55-.33-11.09-.41-16.64-.21-15.54-.37-31.08-.56-46.62,0-1.55-.17-3.1-.19-4.66a2.38,2.38,0,0,1,2.35-2.48q8.48-.56,17-1.11c5.73-.38,11.48-.61,17.18-1.21s11.62-1.46,17.39-2.41c3-.5,6-1.46,9.06-2.15a1.42,1.42,0,0,1,1.07.54c2.34,3,4.47,6.25,7,9.13a51.16,51.16,0,0,0,14,11c.28.15.54.33.81.49-.27,0-.58.13-.8,0-2-.84-4.08-1.6-6-2.61a65.16,65.16,0,0,1-8.44-4.87,43.43,43.43,0,0,1-6.94-6.48,3.37,3.37,0,0,0-4.17-1.22,52.36,52.36,0,0,1-7.75,1.06h-2.4C330.68,190.93,330.23,190.78,330,191.49Z">
        </path>
        <path class="color-shadow"
            d="M475.78,269a9.9,9.9,0,0,0-.87,2.19c-.82,5.74-2.89,11.14-4.39,16.7q-.87,3.21-1.87,6.38c-.12.37-.6.62-.92.93.34-2.27.65-4.55,1-6.82.75-4.46,1.54-8.91,2.31-13.36.67-3.79,1.36-7.58,2-11.37.8-4.77,1.46-9.57,2.38-14.32.78-4,1.87-8,2.74-12.08.74-3.42,1.35-6.86,2-10.28a36.65,36.65,0,0,1,.91-4.31,8.6,8.6,0,0,1,1.37-2.11c1.65.42,1.87,1.6,2,2.67.32,2.8.59,5.61.74,8.42.22,4.3.46,8.6.44,12.9a64.65,64.65,0,0,1-.79,7.69c-.32,2.47-.72,4.94-1.07,7.41a3.8,3.8,0,0,0,.07.78c1.54-.66,3-1.3,4.42-1.91a8.17,8.17,0,0,1,1-.27c-1.31,1.13-2.62,2.25-3.9,3.39a10.63,10.63,0,0,0-.87,1l-4.35,2.11c0-2.22,0-4.44,0-6.65s-.12-4.31-.25-6.45a18.52,18.52,0,0,0-.45-3.41c-.1-.41-.7-.7-1.07-1-.29.38-.79.74-.83,1.14-.3,3.4-.52,6.81-.73,10.22,0,.3.23.63.35.94-.32,2.21-.63,4.42-.95,6.64,0,.33-.05.66-.08,1C476.05,267.75,475.91,268.37,475.78,269Z">
        </path>
        <path class="color-shadow"
            d="M333.56,191.26a52.36,52.36,0,0,0,7.75-1.06,3.37,3.37,0,0,1,4.17,1.22,43.43,43.43,0,0,0,6.94,6.48,65.16,65.16,0,0,0,8.44,4.87c1.93,1,4,1.77,6,2.61.22.1.53,0,.8,0L371,207a2.49,2.49,0,0,1-.79.38,20.83,20.83,0,0,1-8.77-1.38c-3.56-1.35-7.19-2.53-10.7-4a47.9,47.9,0,0,1-7-3.55c-3.34-2.07-6.52-4.39-9.76-6.61A2.49,2.49,0,0,1,333.56,191.26Z">
        </path>
        <path class="color-shadow-dark"
            d="M477.21,259.5c-.12-.31-.37-.64-.35-.94.21-3.41.43-6.82.73-10.22,0-.4.54-.76.83-1.14.37.34,1,.63,1.07,1a18.52,18.52,0,0,1,.45,3.41c.13,2.14.21,4.3.25,6.45s0,4.43,0,6.65l-2,1.36c-.89-1.87-.3-3.66-.48-5.39A4.18,4.18,0,0,0,477.21,259.5Z">
        </path>
        <path class="color-shadow-dark" d="M476.18,267.12c0-.32.06-.65.08-1C476.24,266.47,476.21,266.8,476.18,267.12Z">
        </path>
        <path class="color-shadow"
            d="M502.27,227.52a12,12,0,0,1-1.39-2.64c-.82-3.27-1.51-6.58-2.2-9.88a19.32,19.32,0,0,0-4.52-8.7c-1.24-1.45-2.41-3-3.68-4.38-3.26-3.66-7.37-5.94-11.92-7.7-7.82-3-16-4.77-23.95-7.35a6.05,6.05,0,0,0-1.05-.17c.73-1.89,1.47-3.77,2.17-5.66.21-.55.36-.89,1.1-.66,5.58,1.75,11.22,3.34,16.77,5.21s10.49,5.45,15.07,9.24a66.09,66.09,0,0,1,5.76,5.34,9.17,9.17,0,0,1,1.79,3.33c1.27,3.78,2.57,7.55,3.53,11.41C500.79,219.06,501.45,223.31,502.27,227.52Z">
        </path>
        <path class="color-shadow"
            d="M390,493.19c-.2.16-.37.39-.59.45a4.28,4.28,0,0,1-.95,0c-4.11.07-8.22.3-12.33.19-3.64-.1-7.28-.57-10.92-.88-2.73-.24-5.46-.48-8.18-.76-2.33-.25-4.65-.56-7-.87-3.1-.41-6.21-.84-9.31-1.29-2.12-.32-4.23-.71-6.34-1a30.51,30.51,0,0,0-3.43-.39c-3.77-.19-7.56-.31-11.33-.51a13.31,13.31,0,0,1-2.57-.52,1,1,0,0,1-.52-.57c-1.08-3.12-2.52-6.17-3.1-9.39s-.26-6.4-.32-9.62c0-1.79,0-3.59-.1-5.37-.13-2.18-.39-4.35-.56-6.53q-.49-6.3-.95-12.6c-.12-1.59-.14-3.18-.27-4.77-.29-3.52-.63-7-.93-10.55-.11-1.31-.18-2.62-.26-3.93-.16-2.66-.49-5.33-.43-8,.09-4.33-1.25-8.44-1.7-12.68-.37-3.44-.78-6.86-1.24-10.28-.39-2.95-.83-5.9-1.3-8.83-.74-4.55-1.53-9.08-2.29-13.62-.48-2.85-1-5.7-1.45-8.56-.56-3.53-1-7.08-1.67-10.58q-1.41-7.19-3.14-14.31a107.53,107.53,0,0,1-1.95-12.09,51.63,51.63,0,0,0-1.74-7.3c-1.36-4.82-2.91-9.6-4.21-14.44-.78-2.91-.53-5.92-.31-8.91.18-2.53.07-5.07.09-7.61,0-.4,0-.8,0-1.2-.16-4.06-.14-8.14-.53-12.18-.53-5.52-1.41-11-2.06-16.52-.27-2.29-.39-4.6-.52-6.9-.27-4.77-.55-9.54-.72-14.31-.1-3.1,0-6.2,0-9.3,0-3.76.05-7.52,0-11.28,0-1.78-.45-3.56-.39-5.33a16.09,16.09,0,0,1,.86-4.31c.63-2,1.43-3.88,2.18-5.81.2-.52.48-1,.72-1.49-.16,4.38-.29,8.76-.49,13.14-.1,2.38-.46,4.76-.43,7.14.09,7.85.27,15.71.47,23.57.08,3.22.31,6.44.46,9.66.17,3.66.32,7.32.49,11,.15,3.42.22,6.84.5,10.25.38,4.67.71,9.36,1.48,14,.61,3.63,2,7.13,2.79,10.73,1.23,5.42,2.28,10.88,3.37,16.33.88,4.39,1.76,8.79,2.55,13.21s1.5,9.16,2.27,13.74c1.1,6.61,2.23,13.22,3.32,19.84,1.31,8.06,2.55,16.14,3.9,24.2.86,5.17,1.85,10.31,2.78,15.47.66,3.59,1.18,7.21,2,10.76.92,3.85.78,7.74,1,11.63.09,1.83.86,3.61,1.2,5.44.59,3.15,1.12,6.32,1.61,9.5.44,2.86.82,5.73,1.16,8.61.38,3.27.7,6.55,1,9.83.33,3.56.65,7.12.93,10.68.14,1.78.1,3.58.29,5.36.34,3.24.74,6.46,1.2,9.68a4,4,0,0,0,3.09,3.4,34.9,34.9,0,0,0,9.23,1.65,34.49,34.49,0,0,1,5.36,1.11c5.42,1.25,10.79,2.57,16.45,2.52,4.6,0,9.2.55,13.8.87l10,.74Z">
        </path>
        <path class="color-shadow"
            d="M467.49,300.7c.16.15.4.27.45.45A117.78,117.78,0,0,1,472,318.91c.51,3.73.86,7.49,1.21,11.24.29,3.13.55,6.26.71,9.39.22,4.26.31,8.52.5,12.78.21,4.81.5,9.62.71,14.43.12,2.83.19,5.66.23,8.49s-.16,5.41.05,8.09c.35,4.31.75,8.64,2.47,12.71a3,3,0,0,1,.2,1.71,48.06,48.06,0,0,0-.74,12.49c.19,3.52,1.06,7,1,10.53a24.16,24.16,0,0,0,.94,7.38c1.68,5.56,3.64,11,5.3,16.61a71.93,71.93,0,0,1,1.35,7.37c.43,2.42.92,4.83,1.31,7.26a7.67,7.67,0,0,1-.17,4.63c-.7,1.66-.65,3.65-.91,5.49-.63,4.56-1.13,9.14-1.94,13.66-.47,2.58-2.38,4.45-4.14,6.3-.62.65-1.43,1.13-2.12,1.72a4.13,4.13,0,0,1-2.79,1.09,9,9,0,0,0-2.64.87,5.31,5.31,0,0,1-1.36.49c-4.22.2-8.44.35-12.66.51-2.19.08-4.38.12-6.57.25-3.29.19-6.57.54-9.87.66s-6.56,0-9.83.06c-2.27,0-4.54.22-6.81.21-3.11,0-6.23-.08-9.33-.24-4.77-.26-9.52-.6-14.28-1-2.06-.16-4.1-.47-6.15-.71a3,3,0,0,1,1-.46c3.23-.11,6.46-.17,9.68-.26s6.31-.31,9.45-.2c4.57.17,9.12.65,13.68.88a41.82,41.82,0,0,0,5.24-.28c2.14-.18,4.26-.46,6.4-.63,4.2-.34,8.4-.62,12.6-1,2.85-.22,5.7-.5,8.55-.73A49.43,49.43,0,0,0,477.59,487a3.06,3.06,0,0,0,1.67-2.35,59.5,59.5,0,0,0,1.39-17.44,112.65,112.65,0,0,0-3.32-22.35c-1-3.92-2-7.85-2.93-11.81-.85-3.74-1.7-7.5-2.28-11.3a45.44,45.44,0,0,1-.08-6.29c-.08-6.07-.15-12.14-.25-18.21,0-1.63-.17-3.26-.22-4.89-.18-5.3-.31-10.6-.5-15.9-.12-3.3-.31-6.6-.47-9.9-.24-4.69-.41-9.38-.74-14.06-.3-4.16-.78-8.3-1.16-12.46-.34-3.63-.71-7.27-1-10.91-.35-4.6-.86-9.2-.88-13.8C466.8,310.48,467.25,305.59,467.49,300.7Z">
        </path>
        <path class="color-shadow" d="M323.72,191.75h0Z"></path>
        <path class="color-shadow" d="M330,191.49c.28-.71.73-.56,1.21-.23Z"></path>
        <path class="color-shadow" d="M327.55,191.73c.28-.71.73-.56,1.21-.23Z"></path>
        <path class="color-shadow" d="M310.28,192.71h0Z"></path>
        <path class="color-shadow" d="M317,192.45l1-.23Z"></path>
        <path class="color-shadow" d="M314.11,192.68l1-.44Z"></path>
        <path class="color-shadow" d="M319.87,192.2l.73-.22Z"></path>
        <path class="color-shadow" d="M302.84,192.94h0Z"></path>
        <path class="color-shadow" d="M296.12,193.43h0Z"></path>
    </g>
</svg>
