<svg id="hooli_logo_img" data-name="hooli logo img" xmlns="http://www.w3.org/2000/svg" viewBox="0 0 672 960">
    <path
        d="M382.76,233.74l-.71,1.39c0,.63,0,1.49,0,2.4h-2.8a13,13,0,0,1-.08-2.08l.48-.51V233.5l-1.39-1.39v-4.42c.1-.08.16-.18.22-.18h1.89l.78.78v3h3.59c.08-.08.18-.14.18-.19,0-.32,0-.64,0-1l-.47-.5v-1.92c.15-.08.28-.21.41-.22h2.43v3.09l.45.45.13,1.17.7.14.64.64c.08.7,0,1.39,0,2l-1,.33v.54l.46.5v.95a.77.77,0,0,1-.18.18.38.38,0,0,1-.21.05h-2.28c-.12-.18-.19-.25-.19-.31,0-.63,0-1.27,0-1.87.67-.39.41-1,.49-1.41-.14-.14-.19-.25-.25-.25Z" />
    <path
        d="M401.37,232.08l1.26.83c.23.62-.25.8-.44,1.15v1l-.76.23-1.56,1.64-1.5.65H395.3c-.2-.13-.45-.29-.71-.44a.83.83,0,0,0-.29,0l-1.68-1.83v-1.21a2.59,2.59,0,0,1-.65-1.19l-.65-.17c-.05,0-.15-.11-.15-.17,0-.8,0-1.59,0-2.4a2.07,2.07,0,0,0,.56-1,1.19,1.19,0,0,1,1.1-.75c.28,0,.54-.54.78-.79a6.15,6.15,0,0,1,1.94-.12c.55,0,1.1,0,1.54,0,1,.76,2.3.86,2.92,1.91C400.53,230.29,401,231.24,401.37,232.08Zm-5.13,3.62,1.47-.11c.32-.66,1-.24,1.29-.68l1.3-.87-.05-1.16a1.94,1.94,0,0,1-.69-.12,5,5,0,0,1-.7-.68v-1a9.54,9.54,0,0,0-1-1,10.36,10.36,0,0,0-1.32-.7h-1.26c-.25.45-.82.38-1.16.66s-.68.68-1,1v1c.64.37,1.5.5,1.5,1.5.37.23.33.67.53,1A8,8,0,0,0,396.24,235.7Z" />
    <path
        d="M406.06,236v-1.47l-.49-.55v-.92a2.77,2.77,0,0,1-1.45-1c-.15-1.07.64-1.81,1-2.7s1.24-1.31,2.38-1.78h3a12,12,0,0,0,1.75.9c.5.17.9.46,1,.89.09.66.67.84,1,1.29v1.14l1.42,1.32v1.36l-.68.75h-.5a3.85,3.85,0,0,1-2.63,2.37h-3.1c-.26-.15-.46-.52-.94-.48-.27,0-.36-.51-.76-.46S406.45,236.09,406.06,236Zm3.63-.34h1.38l.52-.48h.73l.23,0a7.48,7.48,0,0,0,1.2-2.31,1.41,1.41,0,0,1-1.56-1.33,4.11,4.11,0,0,0-.67-1.13l-.68,0-.61-.88h-1.79l-1.92,1.91,0,.82.77.16a2.64,2.64,0,0,0,.29.78c.21.26.42.47.33.84Z" />
    <path
        d="M425.06,235.66a2.71,2.71,0,0,0,.3.81c.18.26.44.45.35.83-.09.09-.2.27-.31.27-2.23,0-4.46,0-6.8,0a13,13,0,0,1-.08-2.14l.48-.52V233l-1.39-.8V229.4c-.38-.59-.75-1.09-.43-1.75.06-.05.12-.14.18-.14h2.37c.46.51.14,1.1.24,1.65l.46.52V232l1.32.78c.29.76,0,1.47.15,2.07l-.46.57c.09.09.15.2.2.2Z" />
    <path
        d="M430.87,237.59h-2.49c-.06,0-.12-.1-.22-.19v-2l.39-.39v-2.05a2.15,2.15,0,0,1-1.38-.87v-2.36l-.48-.53v-1.42c.11-.08.23-.24.35-.24.79,0,1.57,0,2.26,0,.15.14.25.19.25.25,0,.63,0,1.27,0,1.92l.46.42c.08.59,0,1.29,0,2l1.38.78V235l-.34.34C430.85,236.07,431.17,236.88,430.87,237.59Z" />
</svg>
