<svg id="manshety" xmlns="http://www.w3.org/2000/svg" viewBox="0 0 672 960">
    <g>
        <path class="outline"
            d="M476.82,312.22c-.82-4.47-1.73-8.93-2.43-13.43a18.91,18.91,0,0,1,.09-4.63c.73-7.28,1.52-14.55,2.29-21.82a18.13,18.13,0,0,0,.25-2.62c-.06-1.34.57-2,1.68-2.68,10.77-6.71,22.49-11.49,33.95-16.8.51-.24.81-.36,1,.34,3.84,11.76,7.94,23.44,11.48,35.29a254.78,254.78,0,0,1,6.89,30.59c.77,4.61,1.39,9.26,1.91,13.91.4,3.63.65,7.29.78,10.95.26,6.79-.65,13.51-1.66,20.21q-1.23,8.21-2.28,16.43c-.36,2.8-.61,5.62-.84,8.43-.37,4.5.93,8.67,2.5,12.81a22.49,22.49,0,0,0,3.48,6c1.88,2.35,3.57,4.88,3.69,8a11.36,11.36,0,0,1-.5,4.11c-.7,2-1.79,3.82-2.65,5.75-.76,1.7-1.45,3.44-2.11,5.19a3.67,3.67,0,0,0,.39,3.45c1.24,1.79,1.28,3.81,1.48,5.83.09,1,.24,1.89.34,2.84a5.61,5.61,0,0,1-1.63,4.35,3.68,3.68,0,0,1-3.3,1.2c-4.79-.31-9.29,1.13-13.85,2.32a25,25,0,0,1-5.3.79,8.72,8.72,0,0,0-4.57,1.58,3.64,3.64,0,0,1-4.76-.54,7.94,7.94,0,0,1-2.09-4.87A19.06,19.06,0,0,0,495.9,433a4,4,0,0,1-1-1.72c-.53-2.57-1.07-5.16-1.37-7.77-.47-4.08-.72-8.19-1.13-12.29-.25-2.54-.61-5.07-1-7.6a1.91,1.91,0,0,0-.62-1c-1.55-1.49-3.23-2.88-4.21-4.87a7.09,7.09,0,0,1-.57-1.4c-1.07-4.5-2.3-9-3.12-13.52a70.52,70.52,0,0,1-.76-9.42c-.37-8.11-.53-16.23-1-24.33a232.59,232.59,0,0,0-3.23-28.45c-.34-1.84-.55-3.71-.82-5.57C477.63,314.08,477,313.17,476.82,312.22Zm20.89,92-1.66,0c-.43-.06-.87-.11-1.3-.18-1.23-.2-1.21-.21-.93,1a42.76,42.76,0,0,1,1.24,9.95c0,3.12.05,6.23.19,9.34a55.57,55.57,0,0,0,.6,6.05,3.3,3.3,0,0,0,1.1,1.78,16,16,0,0,1,5.28,8.77c.35,1.5.43,3.07.73,4.59.47,2.33,2.09,3.29,4.37,2.74,1.15-.28,2.33-.48,3.49-.75.46-.11.89-.34,1.34-.49,2-.68,3.93-1.5,6-2a41,41,0,0,1,5.66-.78c2.7-.28,5.4-.46,8.1-.72a3.41,3.41,0,0,0,2.88-3.79c-.14-1-.08-2-.28-3a13.42,13.42,0,0,0-1.06-3.36,7.51,7.51,0,0,1-1.15-4.07,17.75,17.75,0,0,1,2.48-7.43,46.94,46.94,0,0,0,2.78-6.08,7.41,7.41,0,0,0,.18-3.29c-.35-2.72-2-4.71-3.86-6.59a13.41,13.41,0,0,1-2.6-3.11c-2.1-4.25-3.71-8.71-3.5-13.54.14-3.3.51-6.6,1-9.88.79-5.81,1.69-11.6,2.58-17.4,1.13-7.33,2.3-14.66,1.75-22.11-.34-4.77-.69-9.55-1.23-14.29a209.59,209.59,0,0,0-4.51-24.23,323,323,0,0,0-9.49-31c-2-5.9-3.95-11.83-5.89-17.75-.21-.64-.46-.87-1.1-.56s-1.4.6-2.1.89c-7.38,3.06-14.8,6-21.77,10-2.95,1.68-6,3.24-8.31,5.82a2.46,2.46,0,0,0-.66,1.08c-.34,2-.68,4-.89,6-.33,3.3-.57,6.6-.81,9.89-.31,4.09-1,8.16-.71,12.28.11,1.19.33,2.37.46,3.55.39,3.37.7,6.74,1.16,10.1.52,3.9,1.22,7.77,1.74,11.67.78,5.87,1.54,11.75,2.17,17.64.57,5.29,1.06,10.61,1.4,15.92.26,4.22.33,8.46.32,12.69a86,86,0,0,0,1,13.23,39.79,39.79,0,0,0,1.25,5.83,41.71,41.71,0,0,0,2.16,5.07A16.45,16.45,0,0,0,489,397c1.93,2.48,4,4.79,7.57,4.85a23.68,23.68,0,0,1,4,.33c3.05.61,6.07,1.35,9.1,2,.43.2.87.38,1.29.59a49.21,49.21,0,0,1,4.6,2.45,9.2,9.2,0,0,1,2,2.31c.31.43.13.6-.34.29a5,5,0,0,0-3.37-2.85c-3.19-.85-6.41-1.63-9.65-2.21C502.1,404.42,499.89,404.43,497.71,404.26Z" />
        <path class="color-shadow" d="M476.82,312.22c.19.95.81,1.86.26,2.87Z" />
        <path class="color-shadow-dark"
            d="M509.69,404.22c-3-.68-6.05-1.42-9.1-2a23.68,23.68,0,0,0-4-.33c-3.54-.06-5.64-2.37-7.57-4.85a16.45,16.45,0,0,1-1.75-3.26,41.71,41.71,0,0,1-2.16-5.07,39.79,39.79,0,0,1-1.25-5.83,86,86,0,0,1-1-13.23c0-4.23-.06-8.47-.32-12.69-.34-5.31-.83-10.63-1.4-15.92-.63-5.89-1.39-11.77-2.17-17.64-.52-3.9-1.22-7.77-1.74-11.67-.46-3.36-.77-6.73-1.16-10.1-.13-1.18-.35-2.36-.46-3.55-.34-4.12.4-8.19.71-12.28.24-3.29.48-6.59.81-9.89.21-2,.55-4,.89-6a2.46,2.46,0,0,1,.66-1.08c2.32-2.58,5.36-4.14,8.31-5.82,7-4,14.39-6.94,21.77-10,.7-.29,1.41-.56,2.1-.89s.89-.08,1.1.56c1.94,5.92,3.86,11.85,5.89,17.75a323,323,0,0,1,9.49,31,209.59,209.59,0,0,1,4.51,24.23c.54,4.74.89,9.52,1.23,14.29.55,7.45-.62,14.78-1.75,22.11-.89,5.8-1.79,11.59-2.58,17.4-.44,3.28-.81,6.58-1,9.88-.21,4.83,1.4,9.29,3.5,13.54a13.41,13.41,0,0,0,2.6,3.11c1.85,1.88,3.51,3.87,3.86,6.59a7.41,7.41,0,0,1-.18,3.29,46.94,46.94,0,0,1-2.78,6.08,17.75,17.75,0,0,0-2.48,7.43,7.51,7.51,0,0,0,1.15,4.07,13.42,13.42,0,0,1,1.06,3.36c.2,1,.14,2,.28,3a3.41,3.41,0,0,1-2.88,3.79c-2.7.26-5.4.44-8.1.72a41,41,0,0,0-5.66.78c-2,.49-4,1.31-6,2-.45.15-.88.38-1.34.49-1.16.27-2.34.47-3.49.75-2.28.55-3.9-.41-4.37-2.74-.3-1.52-.38-3.09-.73-4.59A16,16,0,0,0,497,432.2a3.3,3.3,0,0,1-1.1-1.78,55.57,55.57,0,0,1-.6-6.05c-.14-3.11-.22-6.22-.19-9.34a42.76,42.76,0,0,0-1.24-9.95c-.28-1.24-.3-1.23.93-1,.43.07.87.12,1.3.18.35,2.51.59,5,1.07,7.53a59.34,59.34,0,0,1,1.55,14.05,14.31,14.31,0,0,0,1.44,6.58,10.89,10.89,0,0,0,1.25,1.87,10.21,10.21,0,0,1,1.57,2c1.14,2.89,2.17,5.81,3.15,8.75a1.27,1.27,0,0,0,1.68,1c1.84-.31,3.69-.53,5.52-.89,1.15-.22,2.27-.62,3.4-.94,2.75-.74,5.52-1.41,8.25-2.25,1.54-.47,3-1.2,4.5-1.81,1.33,0,1.43-.06,1.15-1.29-.38-1.68-.94-3.31-1.43-5a17.49,17.49,0,0,1,.4-8.44c.2-.72-.06-1-.75-.92-2.53.2-5.06.39-7.59.61-2,.18-4,.44-6,.56-.42,0-.86-.39-1.29-.6l.62-1.17c2.37-.7,4.74-1.38,7.11-2.09,3.73-1.12,7.26-3.22,11.42-2.16a.87.87,0,0,0,.47-1.66,3.32,3.32,0,0,0-1.6-.3c-2.92.12-5.57,1.23-8.25,2.27-2.15.84-4.33,1.58-6.5,2.36a4.37,4.37,0,0,1,.76-.84c1.5-1,3-1.95,4.56-2.84a29.64,29.64,0,0,1,9.09-3.49,11.69,11.69,0,0,1,1.65-.23c.68,0,.88-.36.71-.91a26.61,26.61,0,0,0-1.23-3.48c-.26-.55-.89-.94-1.35-1.4a3.38,3.38,0,0,0-.24-1c-1.09-1.85-2.31-3.64-3.31-5.54a31,31,0,0,1-2-4.8,17.46,17.46,0,0,1-.53-3.4,54.42,54.42,0,0,1-.6-5.68,20.18,20.18,0,0,1,.66-3.72c.57-3.32,1.14-6.65,1.69-10s1.15-6.89,1.64-10.35c.33-2.36.51-4.74.76-7.1l.23-1.22-.21-2.13.45-1.23-.21-4.53c.15-.24.43-.47.44-.71.12-1.91.28-3.82.24-5.73-.09-3.9-.27-7.8-.48-11.69-.08-1.58-.3-3.16-.52-4.73-.43-3.06-1-6.11-1.36-9.17-.53-4-.89-8-1.47-11.92-.75-5.19-1.61-10.32-3.77-15.21-2.52-5.71-4.71-11.58-7-17.4-1-2.62-2-5.27-2.9-7.95-.68-2.12-1.15-4.3-1.66-6.46-.18-.73-.36-1-1.2-.66-2,.71-4,1.29-6.05,1.85a49.76,49.76,0,0,0-10.77,3.85c-2.2,1.19-4.38,2.45-6.59,3.65a20.9,20.9,0,0,0-6,4.47,3.12,3.12,0,0,0-.86,2.14c0,1.59-.12,3.18-.25,4.77-.29,3.2-.61,6.39-.93,9.59-.3,3-.69,6.07-.92,9.11a14.07,14.07,0,0,0,.12,4.81,102.66,102.66,0,0,1,3.22,13.8c.81,5.41,1.49,10.83,2.12,16.26.35,3.08.55,6.17.72,9.27.22,3.89.34,7.79.5,11.69l.24,5.37c.16,4.09.36,8.19.47,12.29.07,2.56,0,5.12,0,7.68a4.77,4.77,0,0,1-.06,1.07,10.38,10.38,0,0,0,.62,7.31c.92,1.9,1.57,3.93,3.21,5.41s3,2.88,4.54,4.26a12.51,12.51,0,0,0,2,1.21c2.69,1.34,5.35,2.71,8.06,4a25.27,25.27,0,0,0,3.22,1.06c.35.32.7.65,1.07.94C508.33,403.22,509,403.71,509.69,404.22Z" />
        <path class="color-shadow"
            d="M516.68,444.22c-1.13.32-2.25.72-3.4.94-1.83.36-3.68.58-5.52.89a1.27,1.27,0,0,1-1.68-1c-1-2.94-2-5.86-3.15-8.75a10.21,10.21,0,0,0-1.57-2,10.89,10.89,0,0,1-1.25-1.87,14.31,14.31,0,0,1-1.44-6.58,59.34,59.34,0,0,0-1.55-14.05c-.48-2.49-.72-5-1.07-7.53l1.66,0a2.15,2.15,0,0,0,.67.35,49,49,0,0,1,5.84.91c3.5,1,6.91,2.29,10.37,3.45l2.67.89c.47.31.65.14.34-.29a9.2,9.2,0,0,0-2-2.31,49.21,49.21,0,0,0-4.6-2.45c-.42-.21-.86-.39-1.29-.59-.68-.51-1.36-1-2-1.52-.37-.29-.72-.62-1.07-.94l.92.22A30.67,30.67,0,0,1,523,410.56a5.09,5.09,0,0,1,1,1.57c.43,1.05-.14,2.83-.92,3a5.12,5.12,0,0,1-2,.25,80.11,80.11,0,0,1-8.58-1.94,73.27,73.27,0,0,0-11.95-3.16c-2.76-.37-3-.16-2.21,2.54,2.42,7.87,4.42,15.84,6.12,23.89a3.85,3.85,0,0,0,3.43,2.41A9.73,9.73,0,0,1,511,439a6.55,6.55,0,0,1,4.36,2.82C515.84,442.58,516.24,443.42,516.68,444.22Z" />
        <path class="color-shadow-dark"
            d="M517.26,409.86l-2.67-.89c-3.46-1.16-6.87-2.44-10.37-3.45a49,49,0,0,0-5.84-.91,2.15,2.15,0,0,1-.67-.35c2.18.17,4.39.16,6.53.54,3.24.58,6.46,1.36,9.65,2.21A5,5,0,0,1,517.26,409.86Z" />
        <path class="color-base"
            d="M516.68,444.22c-.44-.8-.84-1.64-1.34-2.41A6.55,6.55,0,0,0,511,439a9.73,9.73,0,0,0-3.08.15,3.85,3.85,0,0,1-3.43-2.41c-1.7-8.05-3.7-16-6.12-23.89-.83-2.7-.55-2.91,2.21-2.54a73.27,73.27,0,0,1,11.95,3.16,80.11,80.11,0,0,0,8.58,1.94,5.12,5.12,0,0,0,2-.25c.78-.19,1.35-2,.92-3a5.09,5.09,0,0,0-1-1.57A30.67,30.67,0,0,0,507.51,402l-.92-.22a25.27,25.27,0,0,1-3.22-1.06c-2.71-1.28-5.37-2.65-8.06-4a5.29,5.29,0,0,1,.26-1.62,6.12,6.12,0,0,0,.29-4.44c-1.2-4.24-2.69-8.41-3.83-12.67-1-3.71-1.8-7.49-2.42-11.28-.67-4.15-1.05-8.34-1.49-12.52s-.88-8.37-1.17-12.56a49.29,49.29,0,0,0-1.76-10.19,81.93,81.93,0,0,1-2.35-13c-.28-2.36-.57-4.72-.9-7.08-.46-3.34-1.22-6.65-1-10.06.18-3.22.32-6.43.49-9.65.06-1.15.12-2.31.25-3.45.46-4.14.86-8.28,1.47-12.4.28-2,.89-3.95,2.73-5.09a34.07,34.07,0,0,1,5.53-3c5.22-2,10.53-3.86,15.79-5.82,1-.38,1.57-.22,1.89.81,1,3.26,2.14,6.49,3,9.78,1.18,4.37,2,8.84,3.32,13.17,2.25,7.47,4.76,14.85,7.13,22.28,1,3.22,2.07,6.45,3,9.7a74.21,74.21,0,0,1,2.69,13.29c.31,3.31.84,6.61,1.12,9.92.22,2.54.2,5.1.29,7.65l.21,4.53-.45,1.23.21,2.13c-.7.29-.57.73-.23,1.22-.25,2.36-.43,4.74-.76,7.1-.49,3.46-1.07,6.9-1.64,10.35s-1.12,6.65-1.69,10a20.18,20.18,0,0,0-.66,3.72,54.42,54.42,0,0,0,.6,5.68,17.46,17.46,0,0,0,.53,3.4,31,31,0,0,0,2,4.8c1,1.9,2.22,3.69,3.31,5.54a3.38,3.38,0,0,1,.24,1l.22,6a29.64,29.64,0,0,0-9.09,3.49c-1.55.89-3.06,1.87-4.56,2.84a4.37,4.37,0,0,0-.76.84,9.73,9.73,0,0,0-1.19.52c-.51.32-1,.7-1.46,1.06l-.62,1.17c.43.21.87.62,1.29.6,2-.12,4-.38,6-.56,2.53-.22,5.06-.41,7.59-.61.69-.06,1,.2.75.92a17.49,17.49,0,0,0-.4,8.44,4.5,4.5,0,0,0-.21,1.12c.13,1.71.32,3.43.49,5.14-1.5.61-3,1.34-4.5,1.81C522.2,442.81,519.43,443.48,516.68,444.22Z" />
        <path class="color-shadow"
            d="M529.66,348.48c-.09-2.55-.07-5.11-.29-7.65-.28-3.31-.81-6.61-1.12-9.92a74.21,74.21,0,0,0-2.69-13.29c-.93-3.25-2-6.48-3-9.7-2.37-7.43-4.88-14.81-7.13-22.28-1.3-4.33-2.14-8.8-3.32-13.17-.9-3.29-2-6.52-3-9.78-.32-1-.88-1.19-1.89-.81-5.26,2-10.57,3.78-15.79,5.82a34.07,34.07,0,0,0-5.53,3c-1.84,1.14-2.45,3.13-2.73,5.09-.61,4.12-1,8.26-1.47,12.4-.13,1.14-.19,2.3-.25,3.45-.17,3.22-.31,6.43-.49,9.65-.2,3.41.56,6.72,1,10.06.33,2.36.62,4.72.9,7.08a81.93,81.93,0,0,0,2.35,13A49.29,49.29,0,0,1,487,341.62c.29,4.19.73,8.38,1.17,12.56s.82,8.37,1.49,12.52c.62,3.79,1.43,7.57,2.42,11.28,1.14,4.26,2.63,8.43,3.83,12.67a6.12,6.12,0,0,1-.29,4.44,5.29,5.29,0,0,0-.26,1.62,12.51,12.51,0,0,1-2-1.21c-1.56-1.38-3-2.87-4.54-4.26s-2.29-3.51-3.21-5.41a10.38,10.38,0,0,1-.62-7.31,4.77,4.77,0,0,0,.06-1.07c0-2.56.06-5.12,0-7.68-.11-4.1-.31-8.2-.47-12.29l-.24-5.37c-.16-3.9-.28-7.8-.5-11.69-.17-3.1-.37-6.19-.72-9.27-.63-5.43-1.31-10.85-2.12-16.26a102.66,102.66,0,0,0-3.22-13.8,14.07,14.07,0,0,1-.12-4.81c.23-3,.62-6.07.92-9.11.32-3.2.64-6.39.93-9.59.13-1.59.23-3.18.25-4.77a3.12,3.12,0,0,1,.86-2.14,20.9,20.9,0,0,1,6-4.47c2.21-1.2,4.39-2.46,6.59-3.65a49.76,49.76,0,0,1,10.77-3.85c2-.56,4.07-1.14,6.05-1.85.84-.3,1-.07,1.2.66.51,2.16,1,4.34,1.66,6.46.86,2.68,1.87,5.33,2.9,7.95,2.29,5.82,4.48,11.69,7,17.4,2.16,4.89,3,10,3.77,15.21.58,4,.94,8,1.47,11.92.4,3.06.93,6.11,1.36,9.17.22,1.57.44,3.15.52,4.73.21,3.89.39,7.79.48,11.69,0,1.91-.12,3.82-.24,5.73C530.09,348,529.81,348.24,529.66,348.48Z" />
        <path class="outline"
            d="M514.5,423.94c.49-.36,1-.74,1.46-1.06a9.73,9.73,0,0,1,1.19-.52c2.17-.78,4.35-1.52,6.5-2.36,2.68-1,5.33-2.15,8.25-2.27a3.32,3.32,0,0,1,1.6.3.87.87,0,0,1-.47,1.66c-4.16-1.06-7.69,1-11.42,2.16C519.24,422.56,516.87,423.24,514.5,423.94Z" />
        <path class="color-shadow"
            d="M531.56,415.19l-.22-6c.46.46,1.09.85,1.35,1.4a26.61,26.61,0,0,1,1.23,3.48c.17.55,0,.91-.71.91A11.69,11.69,0,0,0,531.56,415.19Z" />
        <path class="color-shadow"
            d="M529.43,440.16c-.17-1.71-.36-3.43-.49-5.14a4.5,4.5,0,0,1,.21-1.12c.49,1.66,1.05,3.29,1.43,5C530.86,440.1,530.76,440.12,529.43,440.16Z" />
        <path class="color-shadow" d="M529.42,354.24l.45-1.23Z" />
        <path class="color-shadow" d="M529.4,357.59c-.34-.49-.47-.93.23-1.22Z" />
    </g>
</svg>
