<svg xmlns="http://www.w3.org/2000/svg" viewBox="0 0 672 960">
    <g>
        <path class="outline"
            d="M108.92,209.5c2.87-2,6.35-2.34,9.54-3.49,1.1-.4,2.45-.08,3.67-.23,1.81-.21,3.62-.46,5.4-.83,4-.83,7.93-1.72,11.88-2.64,4.92-1.13,9.81-2.4,14.76-3.43a49.34,49.34,0,0,1,8.12-1.07c6.58-.25,13.17-.25,19.76-.41,3.18-.07,6.36-.26,9.54-.38,3.78-.14,7.56-.29,11.34-.4,4.74-.13,9.49-.15,14.23-.39,3-.14,5.91-.62,8.87-.89,3.2-.3,6.41-.53,9.61-.81,2.05-.18,4.1-.42,6.15-.63,1.77-.18,3.55-.34,5.33-.51,4.57-.45,9.14-.92,13.72-1.35,2.25-.22,4.51-.37,6.76-.58,3-.28,6-.6,9-.9l5.63-.53c-1.83,2.51-1.28,5.12-1.23,7.7.27,14,.42,27.91.75,41.86.22,9.68.68,19.35,1,29q.47,13.31.88,26.61c.14,4.2.32,8.4.37,12.59,0,2.88-.08,5.76-.15,8.64a6.82,6.82,0,0,1-.36,1.26c-.37-1-.58-1.8-.92-2.5a1.37,1.37,0,0,0-.9-.71A65,65,0,0,1,265,310.92c-9.4-3.11-18.81-6.25-28.12-9.62-5.56-2-10.91-4.57-16.41-6.73-6.69-2.63-13.52-5-19.67-8.79-4.07-2.52-8-5.24-11.88-8.09A25.44,25.44,0,0,0,177.49,273a42.41,42.41,0,0,1-20.87-9.32c-1-.84-2.17-1.49-3.25-2.23s-2.4-1.6-3.54-2.47a12.61,12.61,0,0,1-4-5.57c-.92-2.29-2.14-4.46-3.23-6.68a1.41,1.41,0,0,0-1.91-.75c-.72.23-1.44.48-2.16.73a4.54,4.54,0,0,1-5.4-1.5c-3.48-4.46-8.49-6.15-13.57-7.76a1.79,1.79,0,0,0-.93-.12c-1.9.54-3.34-.39-4.74-1.43a1.49,1.49,0,0,1-.54-.71c-.6-2.45-1.3-4.88-1.71-7.36-.84-5.11-1.51-10.26-2.25-15.39-.07-.52-.16-1-.24-1.54l-.23-1Zm6,22.09c.67,3.08,1.44,3.75,4.6,4.06a4.55,4.55,0,0,1,1.5.39c2.88,1.37,5.71,2.83,8.62,4.13a10.56,10.56,0,0,1,4.11,3c1,1.29,2.22,1.76,3.77.95a9,9,0,0,1,1.36-.45c.82-.26,2.08-.3,2.34-.83s-.3-1.64-.51-2.49c-.61-2.42-1-5-3.79-6.16a2.4,2.4,0,0,1,3,1,25.63,25.63,0,0,1,2.59,4.43c.94,2.27,1.56,4.68,2.41,7,.91,2.48,1.87,4.93,2.92,7.35a12,12,0,0,0,1.75,2.81c2.19,2.64,5.2,4.26,8.13,5.86,3.42,1.88,7.07,3.33,10.62,5a40.68,40.68,0,0,0,9.71,3c3.93.72,7.66,1.91,10.77,4.59,1.12,1,2.36,1.79,3.5,2.73a71.52,71.52,0,0,0,18.28,10.87c5,2.06,10.18,3.77,15.2,5.85,7.76,3.22,15.61,6.13,23.63,8.63,6.17,1.92,12.3,4,18.47,5.94a55.53,55.53,0,0,0,13.81,2.73c.59,0,1.08.18,1.09-.73.06-3.16.3-6.31.25-9.46-.07-4.59-.33-9.17-.5-13.76-.09-2.15-.16-4.31-.24-6.46-.08-2.31-.17-4.63-.27-6.94-.23-5.5-.51-11-.69-16.51-.14-4.15-.15-8.3-.22-12.45-.07-3.44-.17-6.87-.2-10.31-.07-7.27-.08-14.55-.15-21.83,0-2.31-.08-4.63-.23-6.94-.32-5-.71-9.95-1.08-14.94l-10.39.89c-2.82.24-5.64.48-8.46.76q-6.6.66-13.19,1.36l-10.23,1.07c-3.52.36-7.06.69-10.58,1.06-2,.21-4,.46-6,.7l-2.13.22a9.63,9.63,0,0,0-1.07-.08l-13.4.42c-3.9.13-7.8.3-11.71.42l-25.12.76c-1.75,0-3.51.11-5.25.25-5.84.5-11.43,2.17-17.05,3.68-7,1.89-14,3.91-21.44,4a14.77,14.77,0,0,0-7.35,1.7,34.86,34.86,0,0,1-4.34,1.69.91.91,0,0,0-.43.71c.09,2.15.1,4.32.37,6.45.32,2.51.89,5,1.35,7.49l.41,1.48Z" />
        <path class="color-base " d="M108.92,210l.23,1h-.23Z" />
        <path class="color-base "
            d="M218.39,197.63l2.13-.22c.19,1.21.39,1.36,1.52,1.15a6,6,0,0,1,1-.09l10.15-.24,9.44-.24c5-.15,10-.34,15-.48,4-.11,8-.16,11.95-.25a9.49,9.49,0,0,0,1.18-.14c2-.35,4-.73,6-1,1.22-.19,1.45,0,1.65,1.24.17,1,.31,2,.47,3.06a2.79,2.79,0,0,0-.45.94c-.05,1.24.05,2.49-.05,3.72-.26,2.92-.68,5.83-.91,8.75-.24,3.13-.33,6.28-.5,9.42-.15,2.69-.32,5.39-.47,8.09-.17,2.86-.32,5.72-.49,8.58-.07,1.19-.16,2.38-.26,3.56-.23,2.61-.47,5.22-.7,7.83-.18,2.06-.32,4.12-.51,6.17-.21,2.21-.46,4.42-.69,6.63-.18,1.74-.33,3.48-.52,5.21-.3,2.64-.62,5.28-.92,7.92-.26,2.32-.49,4.65-.77,7s-.6,4.71-.91,7.07c-.21,1.61-.46,3.22-.65,4.83-.09.72-.34.78-1,.6q-10.87-3-21.77-5.83c-4.23-1.12-8.5-2.07-12.69-3.32-5.49-1.63-10.88-3.59-16.37-5.22A57.73,57.73,0,0,1,208.07,278c-1.78-.92-3.51-1.91-5.31-2.76-4.68-2.22-9.42-4.33-14.08-6.59a149.87,149.87,0,0,0-19-7.73c-3.4-1.11-6.64-2.72-8.93-5.57-2.63-3.28-5.17-6.65-7.51-10.15-2.84-4.28-5.39-8.77-9.72-11.8-1.49-1-3.09-1.94-4.67-2.84a1.29,1.29,0,0,0-1.1,0c-.76.46-1.55,1-1.7,2l-4.23-.74,4.25,3.87a3.73,3.73,0,0,1-1.2,0,56.73,56.73,0,0,1-9.29-3.74c-3.19-1.7-6.61-3-9.93-4.4-.75-.33-1.52-.63-2.28-.94l-.41-1.48a4.41,4.41,0,0,0,.27-1.2c-.13-2.73-.3-5.45-.46-8.18a21.67,21.67,0,0,0,4.19-.06c4.5-.9,9-1.89,13.46-3s8.87-2.47,13.32-3.66c3.56-.95,7.15-1.83,10.73-2.71,4.24-1,8.49-2,12.73-3.07a5.68,5.68,0,0,0,1.26-.67c1.11-.08,2.22-.21,3.33-.23,4.06-.11,8.12-.1,12.18-.28,3-.13,5.94-.42,8.9-.75,3.58-.4,7.15-.93,10.72-1.38,4-.5,8.11-.94,12.15-1.48A17.24,17.24,0,0,0,218.39,197.63Zm-40.63,11.18-1.92-1.87c-.34-1.49-1.75-1.71-2.81-2.31-.72-.42-1.26,0-1.79.49s-.24,1,0,1.5a11.46,11.46,0,0,0,1.11,1.41c1.06,1.29,2.18,2.53,3.17,3.88,2.1,2.86,3.32,6.15,4.62,9.42,1.93,4.85,4.06,9.62,6.12,14.42.11.25.4.43.61.64,1.14,5.5,2,11,1.2,16.65,1.17-3.62.62-7.31.45-11-.13-2.72-.74-5.42-1.12-8.13-1.27-8.87-3.86-17.25-9.19-24.61Z" />
        <path class="color-shadow"
            d="M136.06,235.66l-4.25-3.87,4.23.74.9.28c2.84.82,5.09,2.34,6,5.28A34.19,34.19,0,0,0,155.55,256c2.06,1.41,4.23,2.66,6.36,4,2.38,1.45,4.71,3,7.17,4.31a61,61,0,0,0,14.2,5.21,21.71,21.71,0,0,1,8.89,4.16A58.21,58.21,0,0,0,204,281.19c4.73,2.3,9.4,4.73,14.18,6.93,3.57,1.65,7.21,3.18,10.92,4.5,6.52,2.33,13.1,4.49,19.67,6.65,3.36,1.11,6.73,2.23,10.16,3.09,6,1.51,12.14,2.82,18.21,4.24.76.18,1.15,0,1.19-.81.06-1.43.17-2.86.23-4.29.17-4.26.31-8.51.49-12.77,0-1,.18-1.9.26-2.85.32-3.55.78-7.11.89-10.67s-.14-7.25-.19-10.88c-.05-3.82,0-7.65-.1-11.46-.16-5.85-.53-11.7-.59-17.55,0-4.3.38-8.6.42-12.9,0-4.54-.12-9.09-.22-13.64,0-1.67-.12-3.34-.26-5-.09-1.14-.31-2.27-.47-3.4s-.3-2-.47-3.06c-.2-1.22-.43-1.43-1.65-1.24-2,.31-4,.69-6,1a9.49,9.49,0,0,1-1.18.14c-4,.09-8,.14-11.95.25-5,.14-10,.33-15,.48l-9.44.24-10.15.24a6,6,0,0,0-1,.09c-1.13.21-1.33.06-1.52-1.15,2-.24,4-.49,6-.7,3.52-.37,7.06-.7,10.58-1.06l10.23-1.07q6.6-.69,13.19-1.36c2.82-.28,5.64-.52,8.46-.76l10.39-.89c.37,5,.76,10,1.08,14.94.15,2.31.21,4.63.23,6.94.07,7.28.08,14.56.15,21.83,0,3.44.13,6.87.2,10.31.07,4.15.08,8.3.22,12.45.18,5.51.46,11,.69,16.51.1,2.31.19,4.63.27,6.94.08,2.15.15,4.31.24,6.46.17,4.59.43,9.17.5,13.76.05,3.15-.19,6.3-.25,9.46,0,.91-.5.76-1.09.73a55.53,55.53,0,0,1-13.81-2.73c-6.17-1.95-12.3-4-18.47-5.94-8-2.5-15.87-5.41-23.63-8.63-5-2.08-10.18-3.79-15.2-5.85a71.52,71.52,0,0,1-18.28-10.87c-1.14-.94-2.38-1.76-3.5-2.73-3.11-2.68-6.84-3.87-10.77-4.59a40.68,40.68,0,0,1-9.71-3c-3.55-1.63-7.2-3.08-10.62-5-2.93-1.6-5.94-3.22-8.13-5.86a12,12,0,0,1-1.75-2.81c-1.05-2.42-2-4.87-2.92-7.35-.85-2.31-1.47-4.72-2.41-7a25.63,25.63,0,0,0-2.59-4.43,2.4,2.4,0,0,0-3-1c2.78,1.18,3.18,3.74,3.79,6.16.21.85.81,1.89.51,2.49s-1.52.57-2.34.83a9,9,0,0,0-1.36.45c-1.55.81-2.74.34-3.77-.95a10.56,10.56,0,0,0-4.11-3c-2.91-1.3-5.74-2.76-8.62-4.13a4.55,4.55,0,0,0-1.5-.39c-3.16-.31-3.93-1-4.6-4.06a16.49,16.49,0,0,1,6.18,2.41c1.67.92,3.35,1.84,5.1,2.6s3.86,1.28,5.66,2.18a7.93,7.93,0,0,0,6.41.76c.69-.23.82-.4.38-.93C137.79,237.62,136.92,236.64,136.06,235.66Z" />
        <path class="color-shadow"
            d="M218.39,197.63a17.24,17.24,0,0,1-2.66.8c-4,.54-8.1,1-12.15,1.48-3.57.45-7.14,1-10.72,1.38-3,.33-5.93.62-8.9.75-4.06.18-8.12.17-12.18.28-1.11,0-2.22.15-3.33.23-1.58.16-3.16.27-4.73.48-2.9.4-5.8.83-8.69,1.31-4.37.73-8.74,1.53-13.11,2.28-3,.5-5.95.94-8.91,1.47-3.7.67-7.4,1.34-11.07,2.14-3,.67-6,1.51-9,2.32a1.06,1.06,0,0,0-.64.79,20.19,20.19,0,0,0,.44,2.4c.16,2.73.33,5.45.46,8.18a4.41,4.41,0,0,1-.27,1.2c-.46-2.5-1-5-1.35-7.49-.27-2.13-.28-4.3-.37-6.45a.91.91,0,0,1,.43-.71,34.86,34.86,0,0,0,4.34-1.69,14.77,14.77,0,0,1,7.35-1.7c7.39-.09,14.39-2.11,21.44-4,5.62-1.51,11.21-3.18,17.05-3.68,1.74-.14,3.5-.2,5.25-.25l25.12-.76c3.91-.12,7.81-.29,11.71-.42l13.4-.42A9.63,9.63,0,0,1,218.39,197.63Z" />
        <path class="color-shadow-dark"
            d="M136.06,235.66c.86,1,1.73,2,2.57,3,.44.53.31.7-.38.93a7.93,7.93,0,0,1-6.41-.76c-1.8-.9-3.81-1.37-5.66-2.18s-3.43-1.68-5.1-2.6a16.49,16.49,0,0,0-6.18-2.41l-1.54-5c.76.31,1.53.61,2.28.94,3.32,1.44,6.74,2.7,9.93,4.4a56.73,56.73,0,0,0,9.29,3.74A3.73,3.73,0,0,0,136.06,235.66Z" />
        <path class="color-shadow-dark"
            d="M278.83,200.38c.16,1.13.38,2.26.47,3.4.14,1.66.22,3.33.26,5,.1,4.55.25,9.1.22,13.64,0,4.3-.46,8.6-.42,12.9.06,5.85.43,11.7.59,17.55.1,3.81.05,7.64.1,11.46.05,3.63.3,7.26.19,10.88s-.57,7.12-.89,10.67c-.08.95-.22,1.9-.26,2.85-.18,4.26-.32,8.51-.49,12.77-.06,1.43-.17,2.86-.23,4.29,0,.84-.43,1-1.19.81-6.07-1.42-12.17-2.73-18.21-4.24-3.43-.86-6.8-2-10.16-3.09-6.57-2.16-13.15-4.32-19.67-6.65-3.71-1.32-7.35-2.85-10.92-4.5-4.78-2.2-9.45-4.63-14.18-6.93a58.21,58.21,0,0,1-11.87-7.55,21.71,21.71,0,0,0-8.89-4.16,61,61,0,0,1-14.2-5.21c-2.46-1.31-4.79-2.86-7.17-4.31-2.13-1.3-4.3-2.55-6.36-4A34.19,34.19,0,0,1,143,238.09c-.93-2.94-3.18-4.46-6-5.28l-.9-.28c.15-1,.94-1.5,1.7-2a1.29,1.29,0,0,1,1.1,0c1.58.9,3.18,1.8,4.67,2.84,4.33,3,6.88,7.52,9.72,11.8,2.34,3.5,4.88,6.87,7.51,10.15,2.29,2.85,5.53,4.46,8.93,5.57a149.87,149.87,0,0,1,19,7.73c4.66,2.26,9.4,4.37,14.08,6.59,1.8.85,3.53,1.84,5.31,2.76a57.73,57.73,0,0,0,10.11,4.27c5.49,1.63,10.88,3.59,16.37,5.22,4.19,1.25,8.46,2.2,12.69,3.32q10.89,2.88,21.77,5.83c.68.18.93.12,1-.6.19-1.61.44-3.22.65-4.83.31-2.36.63-4.71.91-7.07s.51-4.66.77-7c.3-2.64.62-5.28.92-7.92.19-1.73.34-3.47.52-5.21.23-2.21.48-4.42.69-6.63.19-2.05.33-4.11.51-6.17.23-2.61.47-5.22.7-7.83.1-1.18.19-2.37.26-3.56.17-2.86.32-5.72.49-8.58.15-2.7.32-5.4.47-8.09.17-3.14.26-6.29.5-9.42.23-2.92.65-5.83.91-8.75.1-1.23,0-2.48.05-3.72A2.79,2.79,0,0,1,278.83,200.38Z" />
        <path class="color-shadow-dark"
            d="M112.76,215.74a20.19,20.19,0,0,1-.44-2.4,1.06,1.06,0,0,1,.64-.79c3-.81,6-1.65,9-2.32,3.67-.8,7.37-1.47,11.07-2.14,3-.53,5.94-1,8.91-1.47,4.37-.75,8.74-1.55,13.11-2.28,2.89-.48,5.79-.91,8.69-1.31,1.57-.21,3.15-.32,4.73-.48a5.68,5.68,0,0,1-1.26.67c-4.24,1-8.49,2-12.73,3.07-3.58.88-7.17,1.76-10.73,2.71-4.45,1.19-8.86,2.54-13.32,3.66s-9,2.12-13.46,3A21.67,21.67,0,0,1,112.76,215.74Z" />
        <path class="color-shadow"
            d="M186.89,236.39c-.21-.21-.5-.39-.61-.64-2.06-4.8-4.19-9.57-6.12-14.42-1.3-3.27-2.52-6.56-4.62-9.42-1-1.35-2.11-2.59-3.17-3.88a11.46,11.46,0,0,1-1.11-1.41c-.26-.45-.57-1,0-1.5s1.07-.91,1.79-.49c1.06.6,2.47.82,2.81,2.31-1,.38-.25.77,0,1.12a47.23,47.23,0,0,1,2.87,3.95,65,65,0,0,1,6.75,16.92C186.07,231.38,186.42,233.9,186.89,236.39Z" />
        <path class="outline"
            d="M186.89,236.39c-.47-2.49-.82-5-1.43-7.46A65,65,0,0,0,178.71,212a47.23,47.23,0,0,0-2.87-3.95c-.25-.35-1-.74,0-1.12l1.92,1.87.47.53c5.33,7.36,7.92,15.74,9.19,24.61.38,2.71,1,5.41,1.12,8.13.17,3.65.72,7.34-.45,11C188.85,247.4,188,241.89,186.89,236.39Z" />
        <path class="color-shadow" d="M178.23,209.34l-.47-.53Z" />
    </g>
</svg>
