<svg id="Nizy_classic" data-name="Nizy classic" xmlns="http://www.w3.org/2000/svg" viewBox="0 0 672 960">
    <g id="img_17" data-name="img 17">
        <g id="Kashkorse_Long_img" data-name="Kashkorse Long img">
            <path class="outline"
                d="M507.26,594.9c-.13,2-.31,4-.39,6.07-.14,3.18-.33,6.36-.26,9.54.06,2.7.48,5.4.71,8.1.13,1.52-.05,1.72-1.55,1.94-4.66.7-9.3,1.56-14,2-6.47.66-13,1-19.47,1.53a242.24,242.24,0,0,1-26.93,1.23c-4.64-.1-9.28-.14-13.91,0-9.83.23-19.66.56-29.49.86-12.16.37-24.3-.06-36.44-.76-8.14-.48-16.3-.69-24.45-.92-3.75-.1-7.5.09-11.25.1-1.73,0-2-.33-2.33-2.05-1-5.71-2-11.4-2.95-17.11a29.35,29.35,0,0,1-.09-4.3,3,3,0,0,0-.06-.91c-.34-1-.12-1.49.93-1.47,1.35,0,2.7.2,4,.33a.77.77,0,0,1,.45.16c1.84,1.93,4.37,1.36,6.59,1.64,5.7.71,11.43,1.21,17.16,1.66q7,.56,14,.78c8.55.29,17.1.54,25.66.65,3.51,0,7-.27,10.53-.46,5-.28,10-.59,15-.89l18.1-1.11,14-.81c6.3-.37,12.62-.52,18.9-1.16,8-.83,16-2.09,24.06-3.1,2.88-.36,5.79-.47,8.68-.77C504,595.52,505.43,595.2,507.26,594.9Zm-122.35,9.93H383l-3.83-.1-6-.18-8.63-.21-2.61-.12c-.47-.05-.94-.14-1.41-.15-4.12-.13-8.23-.22-12.35-.36-6.18-.2-12.36-.46-18.55-.63-2-.05-2.18.2-2.37,2.22a7.27,7.27,0,0,0,0,1.32c.16,1.5.35,3,.54,4.51.39,3.08.77,6.17,1.23,9.25a1.39,1.39,0,0,0,.92,1c2.14.16,4.3.24,6.46.25,1.79,0,3.58-.22,5.37-.14,5.69.26,11.39.63,17.08.95,8.2.46,16.4,1.16,24.61,1.3,9.26.16,18.53-.16,27.8-.33,8.71-.15,17.42-.44,26.13-.55,4.63-.06,9.26.23,13.89.21,3.23,0,6.45-.25,9.68-.47,4.09-.27,8.17-.6,12.26-.93,7-.56,14.06-1.06,21.08-1.72,3.18-.3,6.32-.91,9.48-1.35.92-.13,1-.57.89-1.4a59.34,59.34,0,0,1-.8-7.36c0-3.89-.55-7.81.65-11.83a24.07,24.07,0,0,0-4.44-.56c-3.42.19-6.85.47-10.24,1-9.69,1.38-19.43,2.2-29.19,2.75-6.54.36-13.08.59-19.62,1-4.94.28-9.88.67-14.81,1l-1.92.08-.51.12-10,.62-1.23.09-5.49.41-.75.06-2.61.16-.74.1-2.12.18-1.48,0H387.83Z" />
            <path class="color-base"
                d="M400.79,604.9l2.12-.17.73.3a5,5,0,0,0,1.13.22c5.2-.14,10.41-.35,15.62-.44,2.47,0,4.93.21,7.4.19,4.82,0,9.64-.14,14.45-.23.18,0,.35-.16.52-.24h.95l1.69-.24,1.68-.22h1.44l2.64-.23h.48c1.35-.08,2.7-.23,4.05-.22,4.4,0,8.79.14,13.19.11,2.9,0,5.81-.24,8.71-.36a7.74,7.74,0,0,1,1.67,0,24.24,24.24,0,0,0,9.6-.17c2.84-.58,5.7-1.06,8.56-1.55,1.33-.22,1.55,0,1.49,1.34-.12,2.79-.26,5.57-.52,8.34a1.66,1.66,0,0,1-1.09,1.08c-4.06.79-8.15,1.39-12.19,2.25-2.37.51-4.63,1.47-7,2.06-3.2.8-6.41,1.58-9.66,2.11a77.38,77.38,0,0,1-9.47,1c-2.41.1-4.84-.31-7.27-.41-4.61-.2-9.24-.46-13.86-.46-4.78,0-9.56.37-14.34.41-5,0-10-.14-15-.2-1.47,0-2.94.09-4.41.11-1.8,0-3.61-.07-5.4.05-3,.2-6,.52-9,.79H389l-5.28.23-1,0h-2.15l-2.41.22h-1.68l-8.64-.48h-.48l-3.6-.47h-.48l-6.24-.47c-1-.2-2.08-.35-3.11-.61A50.44,50.44,0,0,0,340.62,617a42.61,42.61,0,0,1-4.65-.25c-2.09-.19-2.09-.22-1.94-2.29a7.85,7.85,0,0,0,0-.84l-.24-8.13h3.11c3.87-.08,7.74-.15,11.6-.24a2,2,0,0,0,.65-.22l4.32.23h1.68L358,605l5.55,0c.49,0,1,0,.95-.69l8.63.21c.3.16.6.44.91.46,1.14.06,2.29.06,3.44,0a12,12,0,0,0,1.66-.29l3.83.1c.38,1.27,1.21.62,1.92.44h1c.23.16.46.44.7.45,3.34.11,6.69.24,10,.23a11.6,11.6,0,0,0,2.7-.67Z" />
            <path class="color-shadow-dark"
                d="M363.8,619.67l3.6.47h.48l8.64.48h1.68c.84.27,1.68.66,2.41-.22h2.15l1,0,5.28-.23h.72c3-.27,6-.59,9-.79,1.79-.12,3.6,0,5.4-.05,1.47,0,2.94-.12,4.41-.11,5,.06,10,.24,15,.2,4.78,0,9.56-.41,14.34-.41,4.62,0,9.25.26,13.86.46,2.43.1,4.86.51,7.27.41a77.38,77.38,0,0,0,9.47-1c3.25-.53,6.46-1.31,9.66-2.11,2.35-.59,4.61-1.55,7-2.06,4-.86,8.13-1.46,12.19-2.25a1.66,1.66,0,0,0,1.09-1.08c.26-2.77.4-5.55.52-8.34.06-1.38-.16-1.56-1.49-1.34-2.86.49-5.72,1-8.56,1.55a24.24,24.24,0,0,1-9.6.17,7.74,7.74,0,0,0-1.67,0c-2.9.12-5.81.34-8.71.36-4.4,0-8.79-.1-13.19-.11-1.35,0-2.7.14-4.05.22h-.48l-2.64.23h-1.44l-1.68.22c-.61-.3-1.22-.54-1.69.24h-.95a7.68,7.68,0,0,0-1.24-.22c-3.94,0-7.89.06-11.82,0-1.22,0-2.64.11-3.49-1.18,4.93-.34,9.87-.73,14.81-1,6.54-.37,13.08-.6,19.62-1,9.76-.55,19.5-1.37,29.19-2.75,3.39-.49,6.82-.77,10.24-1a24.07,24.07,0,0,1,4.44.56c-1.2,4-.69,7.94-.65,11.83a59.34,59.34,0,0,0,.8,7.36c.12.83,0,1.27-.89,1.4-3.16.44-6.3,1.05-9.48,1.35-7,.66-14.05,1.16-21.08,1.72-4.09.33-8.17.66-12.26.93-3.23.22-6.45.45-9.68.47-4.63,0-9.26-.27-13.89-.21-8.71.11-17.42.4-26.13.55-9.27.17-18.54.49-27.8.33-8.21-.14-16.41-.84-24.61-1.3-5.69-.32-11.39-.69-17.08-.95-1.79-.08-3.58.16-5.37.14-2.16,0-4.32-.09-6.46-.25a1.39,1.39,0,0,1-.92-1c-.46-3.08-.84-6.17-1.23-9.25-.19-1.51-.38-3-.54-4.51a7.27,7.27,0,0,1,0-1.32c.19-2,.35-2.27,2.37-2.22,6.19.17,12.37.43,18.55.63,4.12.14,8.23.23,12.35.36.47,0,.94.1,1.41.15-.91.11-1.82.18-2.72.34A6.71,6.71,0,0,0,358,605l-2.87.25h-1.68l-4.32-.23c-.09-.07-.19-.2-.28-.2-3.84.06-7.67.13-11.5.23-.16,0-.31.28-.47.43H333.8l-1.82-.28a4.6,4.6,0,0,0-.09.8c.24,3.57.46,7.14.77,10.7,0,.68.27,1.43,1.24,1.51,4,.3,8,.7,12,.93,3.31.19,6.62.19,9.93.25a6.07,6.07,0,0,0,1.25-.22l6.24.47Z" />
            <path class="color-shadow"
                d="M426.21,603.08c.85,1.29,2.27,1.15,3.49,1.18,3.93.11,7.88,0,11.82,0a7.68,7.68,0,0,1,1.24.22c-.17.08-.34.24-.52.24-4.81.09-9.63.21-14.45.23-2.47,0-4.93-.23-7.4-.19-5.21.09-10.42.3-15.62.44a5,5,0,0,1-1.13-.22v-.41l2.61-.16.75-.06,5.49-.41,1.23-.09,10-.62.51-.12Z" />
            <path class="color-shadow"
                d="M399.32,605.28a11.6,11.6,0,0,1-2.7.67c-3.35,0-6.7-.12-10-.23-.24,0-.47-.29-.7-.45l1.95-.33h11.48Z" />
            <path class="color-shadow"
                d="M358,605a6.71,6.71,0,0,1,1.17-.45c.9-.16,1.81-.23,2.72-.34l2.61.12c0,.72-.46.69-.95.69Z" />
            <path class="color-shadow-dark"
                d="M379.17,604.73a12,12,0,0,1-1.66.29c-1.15.05-2.3.05-3.44,0-.31,0-.61-.3-.91-.46Z" />
            <path class="color-shadow" d="M384.92,605.27c-.71.18-1.54.83-1.92-.44h1.91Z" />
            <path class="color-shadow-dark" d="M384.92,605.27v-.44l2.92.11-1.95.33Z" />
            <path class="color-shadow-dark" d="M399.32,605.28v-.34l1.48,0Z" />
            <path class="color-shadow-dark" d="M413.73,603.9l-1.23.09Z" />
            <path class="color-shadow-dark" d="M407,604.4l-.75.06Z" />
            <path class="color-shadow-dark" d="M403.65,604.62V605l-.73-.3Z" />
            <path class="color-shadow-dark" d="M424.29,603.16l-.51.12Z" />
            <path class="color-shadow"
                d="M357.08,619.19a6.07,6.07,0,0,1-1.25.22c-3.31-.06-6.62-.06-9.93-.25-4-.23-8-.63-12-.93-1-.08-1.19-.83-1.24-1.51-.31-3.56-.53-7.13-.77-10.7a4.6,4.6,0,0,1,.09-.8l1.82.28.24,8.13a7.85,7.85,0,0,1,0,.84c-.15,2.07-.15,2.1,1.94,2.29a42.61,42.61,0,0,0,4.65.25A50.44,50.44,0,0,1,354,618.58C355,618.84,356,619,357.08,619.19Z" />
            <path class="color-shadow"
                d="M336.91,605.49c.16-.15.31-.43.47-.43,3.83-.1,7.66-.17,11.5-.23.09,0,.19.13.28.2a2,2,0,0,1-.65.22C344.65,605.34,340.78,605.41,336.91,605.49Z" />
            <path class="color-shadow" d="M380.61,620.4c-.73.88-1.57.49-2.41.22Z" />
            <path class="color-shadow" d="M443.71,604.53c.47-.78,1.08-.54,1.69-.24Z" />
            <path class="color-shadow" d="M353.48,605.26h0Z" />
            <path class="color-shadow" d="M447.08,604.07h0Z" />
            <path class="color-shadow" d="M377.72,620.62h0Z" />
            <path class="color-shadow" d="M383.72,620.38l-1,0Z" />
            <path class="color-shadow" d="M389.72,620.15h0Z" />
            <path class="color-shadow" d="M451.16,603.83h0Z" />
            <path class="color-shadow" d="M363.8,619.67h0Z" />
            <path class="color-shadow" d="M367.88,620.15h0Z" />
        </g>
    </g>
</svg>
