<svg id="Nizy_classic" data-name="Nizy classic" xmlns="http://www.w3.org/2000/svg" viewBox="0 0 672 960">
    <g id="img_17" data-name="img 17">
        <g id="img_10_img" data-name="img 10 img">
            <path class="outline"
                d="M329,616.57l-1.1-.42c0-.15-.06-.29-.08-.44l-.69-.62-.65-1.06c0-1.82-.06-3.64-.13-5.47a3,3,0,0,0-.34-.9l-.05-1.22-.2-.47-.15-.22-.15-.72-.08-.49c0-.32.05-.65.07-1l-.18-.74,0,.06-.06,0,.07-1-.2-.48-.14-.46-.14-1.2-.14-1.66.12-1-.16-.73-.16-1.41c0-.49,0-1,.08-1.46v-1.42l-.12-.51.32-.69,1.15.72.15,1.19c-.18.54,0,.59.82,1,1,.46,2,1.1,3,1.66l-1.41-.09-1.78-.67-.48-.38,0,.44,0,2.88c0,.16-.14.45-.1.47a17,17,0,0,0,3,1.41,20.39,20.39,0,0,0,3.74.6c3.32.33,6.64.61,10,.86.29,0,.62-.29.93-.44l.47,0a3.59,3.59,0,0,0,3.37-.43l.47,0c.54.33,1.06.58,1.45-.2l.46-.06a5.11,5.11,0,0,0,4.12-.61l.93-.11.73-.07.59,0,4.22-.79.93-.11a7.94,7.94,0,0,0,1.75,0c.88-.15,1.73-.44,2.59-.67l.47,0a2,2,0,0,0,.74.25q3.85-.21,7.69-.5c.16,0,.31-.29.46-.44l.47,0a3.17,3.17,0,0,0,.87.25c2.84-.07,5.69-.15,8.53-.27.24,0,.46-.29.68-.45h3.12c.39.76.8.74,1.21,0h10.3l.2.36.29-.38h.48c1.37.05,2.74.11,4.12.15.06,0,.13-.25.2-.38l.48,0c1.48.05,2.95.1,4.43.13,0,0,.1-.2.15-.31l5.74-.06c1.07.34,2.13.61,3.14-.16l9.58-.08a2.24,2.24,0,0,0,.76.24c2.22-.06,4.45-.13,6.67-.24,4.28-.22,8.56-.5,12.85-.7,1.77-.08,3.55,0,5.33,0,4.64-.2,9.28-.46,13.92-.73.27,0,.52-.3.79-.47.63,0,1.27-.11,1.91-.11l12.46,0,.75.11,2.13.13.51.11a32.83,32.83,0,0,1,11.6,3.49,10,10,0,0,0,2.19.93c2.14.54,3.14,0,3.86-2l.3-.5-.44-.25-.44-.1-1.34-.53-.59-.14-.6-.35-2.05-1.08-.56-.39-2.54-1.09-.5-.19-.46-.08-.61-.28-.85-.07-.48-.07-1.21-.18-.47,0-1.89-.13-.75-.13-1.67-.06v-.72l1.18-.17,1.44.24,2.87-.19h2.15a4.07,4.07,0,0,0,.81.7c1.88.93,3.78,1.83,5.67,2.74l2.42,1.16h1.94l.7.06a.17.17,0,0,0,.19-.12l0,1.19c-.13.15-.33.27-.39.44-.31.88-.57,1.77-.85,2.66l-.18.49-.32,1-.26.62-.93,2.5-.65,1.93.09.51-.07,0,0-.06-.25.5.11.5-.07,0,0-.06-.23.49.09.51-.07,0,0-.06-.24.49-.1,1.24-.13.46-.44.93a.57.57,0,0,0-.12.18l-2.51,1.75-.5.12-.93.15-.5.19.06,0,0,.06-3.39.17-.5.14-.69.14-.51.1-.7.1-.74.14-.93.14-1.95.09-2.84,0L484,614h-3.84l-6.7.11h-4.07l-.74.17-.93.13-2.66-.05-5.41-.09s-.08.13-.12.19l-2.16.16-1.41-.13-4.1-.15-4.81.06-.72-.06-4.8-.19-.7-.1-.74-.16-2.41,0-.93-.13-.5-.13-3.13,0-.47-.07-4.34-.14-.7-.1-4.08-.18-3.84-.09h-3.12l-4.54-.19h-1.44l-.5.15-.93.14h-1l-.9,0-1-.1-1,.12-.7.15-2.4.18-.7.08-1.94.16-.47.08c-1.62.06-3.25,0-4.86.2-2.49.26-5,.62-7.46,1-1.5.21-3,.47-4.49.71l-.46.06a7.21,7.21,0,0,0-1.54,0c-4.71.92-9.43,1.87-14.13,2.83-.17,0-.3.28-.45.43l-.24,0-1-.08-.72.12-.95.14-.5.2.05,0,0,.06-1.21-.06-1,.13-.71.1-.73.22.06,0,0,.06-.73-.08-1,.12-.72.12-.72.08H345.11l-1.45-.1-1.19-.13-.49-.09-1.44.06,0-.07.06-.05-.5-.19-.71-.11-.49-.13-.47-.1-.49-.15L337,619l-.61-.24a11.47,11.47,0,0,0-1.41-.6c-1.58-.47-3.16-.9-4.74-1.35l-.48-.09Zm51.6-3.38.31-.05.43.5.68.59,1.23-.05.51-.14,1.41-.09.74-.18,2.38-.3,1.46-.16.7-.1a6.74,6.74,0,0,0,1,.18c.14,0,.27-.21.41-.32l-.46-.41-.54-1.06-.27-.61-.1-.45-.13-.51-.14-.93-.1-.51-.15-.68.5-.74.17.05c.77,1.63,1.55,3.26,2.32,4.9l.23,1,.9-.25.69-.11,1.47-.13.46-.08c.87.31.59-.4.71-.78s.3-.77.46-1.16l.25.47.47,1,2.18.21c.68.34,1.36.62,1.94-.17l.7-.06c.83.32,1.67.64,2.42-.17l2.14-.06.75-.12,2.34-2.3c.86.19.28.66.15,1-.54,1.28-.35,1.64,1,1.69a25.46,25.46,0,0,0,3.15,0c.94-.08,2.08,0,2.17-1.46l.67-.66.23.19-.2,1-.37.59c.27.13.53.36.8.37,1.71.11,3.42.18,5.12.23.17,0,.35-.24.52-.37l2.1,0,.51.14.73,0c1.44.14,0-.94.52-1.2l.45,0a3.81,3.81,0,0,0,3.1,1.44c1.35.08,2.7.1,4,.15a12.35,12.35,0,0,0,2.21.44c2.07,0,4.14,0,6.22-.06l.45.09,5,.11s0-.14.07-.21l0-.27c-.2-.73-.4-1.45-.59-2.17a.48.48,0,0,0,0-.18l-.13-2c.42.63.59,1.34.94,1.93.55.92,1.22,1.77,1.84,2.64l.72.33h6.49a1.29,1.29,0,0,0,2,0l1.44-.31.19-.49.08-.46.16-.74.09-.69.17-.75.06-.45h.88l.07.7.14,1c0,.56.05,1.11.08,1.66l.11.63.85-.32,4.78-.1c1,.09,1.92.22,2.88.24.32,0,.65-.26,1-.4h.69c.73.68,2.62.57,3.63-.2l1.43,0,.69-.26-.66-1.22,0-1.4.75-.1.52,1.14c.05.85.32,1.51,1.3,1.58l1.18,0c.18.14.35.39.52.39,2.43-.06,4.86-.15,7.29-.25.13,0,.26-.25.39-.38l.46-.09.51-.13.45-.09,1.22-.4c.68-.34,1.85-.16,1.59-1.5l.63-1c1.55,1.74,2.43,1.64,3.46-.52.74-1.58,1.34-3.22,2-4.84l1.37-3.42c-3.59-.07-3.59-.08-6.89-1.85-.6-.32-1.21-.62-1.84-.88-6.71-2.88-13.76-2.76-20.85-2.33-6.33.38-12.66.84-19,1.12-4.58.21-9.17.2-13.76.28l-1,.06-2.14.19-.75.11-1.65.13-1,.11-2.37.13-.52.06c-.76,0-1.51.09-2.27.1l-24.07.32a2.11,2.11,0,0,0-.74-.28q-2.69.07-5.37.24c-.22,0-.44.24-.66.36l-13.17.14L382,598l-2.14.14c-.68-.36-1.35-.59-1.95.15l-2.13.1-1.94.09-1.66.14c-.68-.35-1.36-.61-1.94.18l-1.18.06c-.61-.37-1.2-.55-1.7.18l-.94.07c-.61-.33-1.21-.63-1.69.19l-.47,0c-.47-.35-.91-.52-1.21.19l-.47,0-1,.17-.7.08c-.47-.36-.91-.53-1.21.18l-.47,0-1,.17-.7.08c-.41-.39-.76-.48-1,.18l-.47.06-1,.17-.7.07c-.47-.36-.91-.53-1.21.18l-.47.05c-.47-.36-.91-.51-1.22.19l-.46.05-1,.18-.46.05c-.47-.34-.91-.51-1.21.2l-.47.05c-.47-.36-.91-.52-1.21.19l-.71.06-.75.14-.93.11-1,.15-4.54,0c-.49-.8-1.09-.52-1.7-.18l-.7-.05c-.57-.78-1.25-.57-1.93-.2l-.71-.05c-.31-.71-.75-.55-1.22-.18l-.7-.07-1-.17-.93-.09-.74-.16-.47-.06-2.24-.91-.08,1,0,.45c-.11.18-.32.38-.3.53.36,2.2.74,4.4,1.17,6.58.06.31.41.56.63.84l0,.46a1.75,1.75,0,0,0,.48,2.82c1.66.65,3.37,1.16,5.05,1.75a2.92,2.92,0,0,1,.57.37c1.08.66,2.13,1.37,3.26,1.93.26.13.79-.27,1.19-.43l0-.67-.12-1.23v-.67c.31.22.74.39.91.69.39.73.59,1.57,1,2.29.22.42.65,1,1.05,1,2.29.33,4.59.57,6.9.77a39.06,39.06,0,0,0,4.59.19c1,0,2.25.64,3-.63l.27-.25a3.28,3.28,0,0,0,.85.24,2.93,2.93,0,0,0,.81-.17l.47-.06,1.22-.18.94-.07c1,.23,2.09.71,2.87-.5l.23-.24.38-.59,2-3.92.8-.52-.23,1.16-.21.57-.09.44a19.31,19.31,0,0,0-.63,2.13c0,.21.28.49.43.73l.44,0,1.24-.18.42-.07,2.46-.4.68-.07,1.24-.18.43-.07.53-.17,1.29-.23c.78-1.16.39-2.39.23-3.61l0-1.19.58,0,.73,2.39a4.8,4.8,0,0,0,.06,1.32c.14.38.46.94.77,1s.91-.29,1.37-.46l.36,0,.6-.21.6,0c.23-.22.56-.4.67-.67s0-.6-.07-.91Z" />
            <path class="outline"
                d="M487.66,589.81v.72c-.51,0-1,.08-1.55.09-1.71,0-3.44,0-5.15.08-3.18.17-6.35.42-9.53.6-2.13.13-4.28.11-6.41.28-3.57.29-7.12.77-10.68,1-5,.32-9.94.62-14.91.7-6.91.12-13.82,0-20.73,0-4.67,0-9.34.17-14,.17-4.19,0-8.39-.14-12.58-.21a.86.86,0,0,1-.23-.06v-.84l1.89-.17h5.36l16,.19,4.91,0h16l6.58,0,6.38-.2.51-.05,2.61-.18.75-.06,2.61-.19.51,0,5-.42.74-.07,3.34-.17,1,0,3.35-.17,1.21-.08,3.1-.18.74-.06,2.85-.2.51,0,3.34-.19.74,0,3.09-.2.75,0Z" />
            <path class="color-shadow"
                d="M329.81,595.4c-1-.56-2-1.2-3-1.66-.82-.37-1-.42-.82-1a10.85,10.85,0,0,1,2.21.84c3.74,2.36,8,2.92,12.23,3.45a27.77,27.77,0,0,0,7-.28c5.09-.67,10.16-1.55,15.25-2.28,2.76-.39,5.53-.65,8.3-1a3,3,0,0,1-.82.44c-1.43.25-2.86.44-4.3.66l-.42.07c-1.7.23-3.41.4-5.09.7-2.33.42-4.64.93-7,1.39l-.43.08c-3,.24-5.92.5-8.88.7a20.14,20.14,0,0,1-3.88,0c-2.71-.35-5.41-.86-8.11-1.3Z" />
            <path class="outline"
                d="M365.9,594.64c1.44-.22,2.87-.41,4.3-.66a3,3,0,0,0,.82-.44h.71l1.21-.25.73,0,.21.23,1.68-.3.24.05,1.68-.29.24,0a7.69,7.69,0,0,0,1.27,0,9.42,9.42,0,0,0,1.37-.42h2.41l1.67.2,3.16-.36h4.27v.84l-2.38.07c-.76-.34-1.5-.55-2.19.15l-1.41.1-1.47.13-1.89.11-1.23.15-1.17.07-1.22.08-1.42.17-1.47.14-1.65.1-1.23.15-1.89.09-.74.07-1.91.16-.74.15-1.42.09Z" />
            <path class="color-base"
                d="M494.12,613.17l3.39-.17c-.59.13-1.18.21-1.76.38-6.21,1.76-12.58,1-18.89,1.18-2.26.07-4.53,0-6.79,0a2.67,2.67,0,0,1-.66-.17v-.24h4.07l6.7-.11H484l1.24,0,2.84,0,1.95-.09.93-.14.74-.14.7-.1.51-.1.69-.14Z" />
            <path class="color-base"
                d="M365.71,619.16c.15-.15.28-.39.45-.43,4.7-1,9.42-1.91,14.13-2.83a7.21,7.21,0,0,1,1.54,0c-2.25.63-4.47,1.37-6.74,1.86-2.88.62-5.8,1-8.71,1.53A2.09,2.09,0,0,1,365.71,619.16Z" />
            <path class="color-base"
                d="M382.29,615.84c1.5-.24,3-.5,4.49-.71,2.48-.34,5-.7,7.46-1,1.61-.16,3.24-.14,4.86-.2-.74.15-1.48.37-2.23.46q-6.89.78-13.78,1.52A3.75,3.75,0,0,1,382.29,615.84Z" />
            <path class="color-base"
                d="M345.11,620.4h10.51l.72-.08.72-.12.5.2a6.92,6.92,0,0,1-2,.57c-4.73-.1-9.47-.26-14.21-.43-.29,0-.57-.26-.85-.4l1.44-.06.49.09,1.19.13Z" />
            <path class="color-base"
                d="M337,619l.95.32.49.15.47.1.49.13.71.11,0,.28c-.29,0-.62.23-.86.14-3-1.12-6-2.27-9-3.42,1.58.45,3.16.88,4.74,1.35a11.47,11.47,0,0,1,1.41.6Z" />
            <path class="color-base"
                d="M501.78,593.14c-1.89-.91-3.79-1.81-5.67-2.74a4.07,4.07,0,0,1-.81-.7,1.7,1.7,0,0,1,.56,0c2.33,1.09,4.66,2.18,7,3.31a4.65,4.65,0,0,1,.85.7Z" />
            <path class="color-base"
                d="M503.52,605.52l-.09-.51c.21-.64.43-1.29.65-1.93l.93-2.5.26-.62.32-1,.18-.49c.28-.89.54-1.78.85-2.66.06-.17.26-.29.39-.44a5.16,5.16,0,0,1-.12,1.43c-1,2.81-2,5.6-3,8.39C503.8,605.36,503.63,605.43,503.52,605.52Z" />
            <path class="color-base"
                d="M442.58,592.41l-6.58,0a8.42,8.42,0,0,1,1.56-.24C439.23,592.24,440.91,592.34,442.58,592.41Z" />
            <path class="outline"
                d="M326,607.66a3,3,0,0,1,.34.9c.07,1.83.09,3.65.13,5.47-.22-.68-.43-1.37-.65-2.06,0-1.35,0-2.71,0-4.06C325.9,607.83,326,607.74,326,607.66Z" />
            <path class="color-base" d="M399.12,592.22h0Z" />
            <path class="outline" d="M459.55,614.5c0-.06.08-.19.12-.19l5.41.09-1.7.29h-2.12Z" />
            <path class="color-base" d="M420,592.44l-4.91,0Z" />
            <path class="color-base" d="M441.55,614.19l4.8.19Z" />
            <path class="color-base" d="M447.07,614.44l4.81-.06v.25Z" />
            <path class="color-base" d="M498,612.72l.93-.15.5-.12,2.51-1.75A3.67,3.67,0,0,1,498,613Z" />
            <path class="color-base" d="M412.05,613l4.54.19-4.54,0A.41.41,0,0,1,412.05,613Z" />
            <path class="color-base" d="M428.33,613.51l4.34.14Z" />
            <path class="color-base" d="M463.38,614.69l1.7-.29,2.66.05Z" />
            <path class="color-base"
                d="M325.83,612c.22.69.43,1.38.65,2.06l.65,1.06c0,.14,0,.28,0,.43A3,3,0,0,1,325.83,612Z" />
            <path class="outline" d="M451.88,614.63v-.25l4.1.15Z" />
            <path class="color-base" d="M423.55,613.23l4.08.18Z" />
            <path class="color-base" d="M459.55,614.5l1.71.18-3.87,0Z" />
            <path class="color-base" d="M433.14,613.72l3.13,0a.55.55,0,0,1,0,.22Z" />
            <path class="color-shadow" d="M387.6,592.39l-3.16.36v-.42Z" />
            <path class="color-shadow" d="M493.15,589.69l-2.87.19v-.43Z" />
            <path class="color-base" d="M361.15,619.61l1.21.06-2.88.45,0-.28.71-.1Z" />
            <path class="color-shadow" d="M380.36,592.56A9.42,9.42,0,0,1,379,593a7.69,7.69,0,0,1-1.27,0v-.43Z" />
            <path class="outline" d="M501.78,593.14l1.9.62.42.21.1.33Z" />
            <path class="color-base" d="M437.7,614l2.41,0a.6.6,0,0,1,0,.23Z" />
            <path class="color-base" d="M384.44,592.33v.42l-1.67-.2Z" />
            <path class="color-base" d="M402.21,613.65l2.4-.18Z" />
            <path class="color-base" d="M417.33,613.15h0Z" />
            <path class="color-base" d="M399.57,613.89l1.94-.16Z" />
            <path class="color-base" d="M504.2,594.3l-.1-.33,2,.06,0,.26Z" />
            <path class="color-base" d="M490.28,589.45v.43l-1.44-.24Z" />
            <path class="outline" d="M325.84,591.59l-1.15-.72c.14-.18.28-.37.43-.55l.63.11Z" />
            <path class="color-shadow" d="M375.56,593.18l-1.68.3-.16-.34,1.49-.24Z" />
            <path class="color-shadow" d="M377.48,592.94l-1.68.29v-.43l1.33-.14Z" />
            <path class="color-base" d="M324.49,593.49c0,.49-.05,1-.08,1.46l-.16-1.44Z" />
            <path class="color-base" d="M326,607.66c-.06.08-.11.17-.16.25l-.17-1.44.28,0Z" />
            <path class="outline" d="M324.49,593.49l-.24,0v-1.45l.11,0,.12,0Z" />
            <path class="color-base" d="M324.75,599.75l.14,1.2Z" />
            <path class="color-base" d="M362.83,619.37l.95-.14.27.23-1.2.18Z" />
            <path class="color-base" d="M470.59,590.73l-1.21.08Z" />
            <path class="color-shadow" d="M372.94,593.3l-1.21.25Z" />
            <path class="color-base" d="M502,610.52l.44-.93Z" />
            <path class="color-base" d="M502.6,609.13l.1-1.24.25,0Z" />
            <path class="color-base" d="M406.29,613.2l1,.1-1,.13A.45.45,0,0,1,406.29,613.2Z" />
            <path class="color-base" d="M364.5,619.11l1,.08-1,.19Z" />
            <path class="color-base" d="M466,591l-1,0Z" />
            <path class="outline" d="M412.05,613a.41.41,0,0,0,0,.22h-1a.41.41,0,0,0,0-.22Z" />
            <path class="color-base" d="M325.45,603.57c0,.32,0,.65-.07,1l-.17-.95Z" />
            <path class="color-base" d="M325.23,601.89l-.07,1-.2-1Z" />
            <path class="color-base" d="M408.18,613.26h0Z" />
            <path class="outline" d="M406.29,613.2a.45.45,0,0,0,0,.23l-1-.11Z" />
            <path class="color-base" d="M324.73,597.09l-.12,1-.13-1Z" />
            <path class="outline" d="M357.56,620.4l-.5-.2,1-.12v.26Z" />
            <path class="outline" d="M327.12,615.52c0-.15,0-.29,0-.43l.69.62-.43.08Z" />
            <path class="color-base" d="M461.71,591.2l-.74.07Z" />
            <path class="color-base" d="M452.83,591.92l-.75.06Z" />
            <path class="color-base" d="M485.71,589.77l-.75,0Z" />
            <path class="outline" d="M325.45,603.57l-.24,0,.06-.76Z" />
            <path class="color-base" d="M325.46,605l.15.72Z" />
            <path class="outline" d="M324.73,597.09l-.25,0,.09-.75Z" />
            <path class="outline" d="M440.12,614.16a.6.6,0,0,0,0-.23l.74.16Z" />
            <path class="outline" d="M469.41,614.15v.24l-.74-.07Z" />
            <path class="outline" d="M506.14,594.29l0-.26.73,0c0,.12,0,.24,0,.36Z" />
            <path class="color-base" d="M329,616.57l.71.17Z" />
            <path class="outline" d="M364.5,619.11l0,.27-.47.08-.27-.23Z" />
            <path class="outline" d="M359.46,619.84l0,.28-.75-.06Z" />
            <path class="color-base" d="M481.87,590l-.74,0Z" />
            <path class="color-shadow" d="M325.75,590.43l-.63-.11Z" />
            <path class="color-base" d="M474.43,590.49l-.74.06Z" />
            <path class="color-base" d="M358,620.34v-.26l.73.08Z" />
            <path class="color-base" d="M377.48,592.94l-.35-.28.59-.1V593Z" />
            <path class="color-base" d="M375.8,592.8v.43l-.24-.05-.35-.28Z" />
            <path class="color-base" d="M411.07,613a.41.41,0,0,1,0,.22h-.46a.41.41,0,0,1,0-.22Z" />
            <path class="outline" d="M325.23,601.89l-.27,0,.07-.5Z" />
            <path class="outline" d="M503,607.91l-.25,0,.24-.49Z" />
            <path class="outline" d="M503.17,606l.25-.5V606Z" />
            <path class="color-base" d="M503,607.44l-.09-.51.25,0Z" />
            <path class="outline" d="M503.2,607l-.25,0,.23-.49Z" />
            <path class="color-base" d="M503.17,606h.26l-.15.49Z" />
            <path class="outline" d="M326,606.44l-.28,0,.08-.5Z" />
            <path class="color-base" d="M327.39,615.79l.43-.08.08.44Z" />
            <path class="color-base" d="M449.47,592.16l-.51.05Z" />
            <path class="color-base" d="M506.84,594.35c0-.12,0-.24,0-.36l.3-.06-.12.3A.17.17,0,0,1,506.84,594.35Z" />
            <path class="color-base" d="M324.49,592.07l-.12,0-.11,0,.11-.5Z" />
            <path class="color-base" d="M456,591.69l-.51,0Z" />
            <path class="outline" d="M410.61,613a.41.41,0,0,0,0,.22l-.5-.07Z" />
            <path class="outline" d="M362.83,619.37l0,.27-.52-.07Z" />
            <path class="color-base" d="M477.79,590.25l-.51,0Z" />
            <path class="outline" d="M340,620.11l0-.28.5.19Z" />
            <path class="outline" d="M436.28,613.92a.55.55,0,0,0,0-.22l.5.13Z" />
            <path class="outline" d="M498,612.72V613l-.5-.06Z" />
            <path class="color-base" d="M373.72,593.14l.16.34-.21-.23A.08.08,0,0,1,373.72,593.14Z" />
            <path class="color-base"
                d="M390.62,607.22l-.17-.05-.22-.72-.31-1.19-.62.18.37,1.25,0,.72c-1.66.16-3.32.31-5,.49-4.34.48-8.67,1.06-13,1.44q-7.07.61-14.15.94a34.71,34.71,0,0,1-6.2-.25c-3.22-.42-6.41-1-9.6-1.63-.35-.06-.66-.38-1.21-.71.5-.17.67-.24.86-.28,3.25-.72,6.52-1.38,9.76-2.17,3.93-1,7.84-2,11.75-3.08s7.89-2.14,12-2.22a42,42,0,0,0,5.8-.62c3.41-.53,6.79-1.26,10.3-1,2.39.15,4.79,0,7.19,0a3.89,3.89,0,0,0,1.14-.37l6-.11q12.29-.1,24.56-.22c2.79,0,5.58-.17,8.37-.24,1,0,2,.07,3.06,0,2.05-.19,4.09-.58,6.14-.67,7-.3,14-.51,21-.74,1.36,0,2.73.11,4.08,0a63.82,63.82,0,0,1,10.54-.75A38.87,38.87,0,0,1,494,597.36a1.65,1.65,0,0,1,1.32,2c-.15.9-.18,1.81-.35,2.71a1.46,1.46,0,0,1-1.26,1.37c-1.13.22-2.2.69-3.32,1s-2.13.69-3-.4c-.07-.08-.29-.05-.43-.06l.13.39a7.84,7.84,0,0,1-2,.93c-3,.47-6,1-9.08,1.21-5.07.37-10.15.56-15.24.75-2.55.09-5.11,0-7.67,0-1.2,0-2.39.09-3.58.14l-1.43-2.85-.24.08.1,1.27c-.24.53-.11,1.32-1.11,1.26-2.42-.17-4.84-.33-7.27-.37-3.65-.06-7.31-.07-11,0a54.89,54.89,0,0,0-5.57.51,20.55,20.55,0,0,1-7.17,0,10.36,10.36,0,0,0-3.19.28l-.42-.07c-.2-.1-.39-.29-.59-.3-1.49-.11-3-.26-4.47-.24C401.69,607,396.16,607.13,390.62,607.22Z" />
            <path class="color-shadow"
                d="M399.34,597.91a3.89,3.89,0,0,1-1.14.37c-2.4,0-4.8.15-7.19,0-3.51-.22-6.89.51-10.3,1a42,42,0,0,1-5.8.62c-4.15.08-8.08,1.16-12,2.22s-7.82,2.11-11.75,3.08c-3.24.79-6.51,1.45-9.76,2.17-.19,0-.36.11-.86.28.55.33.86.65,1.21.71,3.19.58,6.38,1.21,9.6,1.63a34.71,34.71,0,0,0,6.2.25q7.08-.33,14.15-.94c4.35-.38,8.68-1,13-1.44,1.65-.18,3.31-.33,5-.49l.3.5.15.68c0,.17.07.34.1.51s.1.62.14.93.09.34.13.51.07.3.1.45l.27.61.53,1.06-.92.55-.7.1-1.46.16-2.38.3-.74.18-1.41.09-.51.14-1.23.05-.68-.59-.43-.5-1.13-1.66-.36.23a14.57,14.57,0,0,1,.56,1.65,7.25,7.25,0,0,1,0,1.4l-.6,0-.6.21-.36,0a1.79,1.79,0,0,1-2-1.69c0-.06-.11-.1-.17-.15-.24-.79-.48-1.59-.73-2.39l-.3-1.14-.35.08.07,1.08c0,.4,0,.8,0,1.19-.1.12-.29.23-.29.35,0,1.09,0,2.17.06,3.26l-1.29.23-.53.17-.43.07-1.24.18-.68.07-2.46.4-.42.07-1.24.18-.44,0c0-.45.09-.9.12-1.35s.05-1,.08-1.51l.09-.44.21-.57c.08-.39.16-.77.23-1.16l.72-1.4-.53-.25-1,2.17-2,3.92c-.12.2-.25.39-.38.59l-.23.24-2.87.5-.94.07-1.22.18-.47.06c0-.43,0-.87-.05-1.3,0-.2.09-.39.14-.59l.32-.85.07-.46.29-2.45-.39,0-.83,2.51-.14.62-1.07,2.5-.27.25c-.4,0-.79,0-1.19,0-3.81-.21-7.62-.51-11.43-.6-2.28,0-3-1.38-3.51-3.28a19.65,19.65,0,0,0-1.11-2.76l-.23.11v2.23c0,.22,0,.45,0,.67l.12,1.23c0,.23,0,.45,0,.67-1.86-.27-3.51-.83-4.3-2.8a9.61,9.61,0,0,0-1-1.6l-.34.12-.25,1.63a16.74,16.74,0,0,0-2.19-.79,2.68,2.68,0,0,1-2.48-3l0-.46-1.5-8c0-.15,0-.3,0-.45a3.49,3.49,0,0,1,1-.28,9,9,0,0,1,1.36.24l.47.06.74.16.93.09,1,.17.7.07,1.22.18.71.05,1.93.2.7.05,1.7.18,4.54,0,1-.15.93-.11.75-.14.71-.06,1.21-.19.47-.05,1.21-.2.46-.05,1-.18.46-.05,1.22-.19.47-.05,1.21-.18.7-.07,1-.17.47-.06,1-.18.7-.08,1-.17.47,0,1.21-.18.7-.08,1-.17.47,0,1.21-.19.47,0,1.69-.19.94-.07,1.7-.18,1.18-.06,1.94-.18,1.66-.14,1.94-.09,2.13-.1,1.95-.15L382,598l3.38-.09,13.17-.14Z" />
            <path class="color-shadow"
                d="M366.44,595.2l1.42-.09.74-.15,1.91-.16.74-.07,1.89-.09,1.23-.15,1.65-.1,1.47-.14,1.42-.17,1.22-.08,1.17-.07,1.23-.15,1.89-.11,1.47-.13,1.41-.1,2.19-.15,2.38-.07a.86.86,0,0,0,.23.06c4.19.07,8.39.2,12.58.21,4.68,0,9.35-.15,14-.17,6.91,0,13.82.08,20.73,0,5-.08,9.94-.38,14.91-.7,3.56-.23,7.11-.71,10.68-1,2.13-.17,4.28-.15,6.41-.28,3.18-.18,6.35-.43,9.53-.6,1.71-.09,3.44-.05,5.15-.08.52,0,1-.06,1.55-.09l1.67.06.75.13,1.89.13.47,0,1.21.18.48.07.85.07.61.28.46.08.5.19,2.54,1.09.56.39,2.05,1.08.6.35.59.14,1.34.53.44.1c.05.25.09.5.14.75-.72,2-1.72,2.54-3.86,2a10,10,0,0,1-2.19-.93,32.83,32.83,0,0,0-11.6-3.49l-.51-.11-2.13-.13-.75-.11-12.46,0c-.64,0-1.28.07-1.91.11-.48,0-1-.06-1.44,0-4.13.25-8.27.59-12.41.74-4.38.17-8.78.09-13.16.26s-8.6.49-12.89.76a1.56,1.56,0,0,0-.42.19l-9.58.08-3.14.16-5.74.06-4.58.18-.48,0-4.32.23h-.48l-.49,0H390l-1.21,0h-3.12c-1.91,0-3.83,0-5.74,0-1.45.06-2.89.29-4.34.44l-.47,0c-2.15.11-4.3.19-6.45.33-.82,0-1.63.24-2.44.36l-.47,0-4.34.62-.93.11-4.22.79-.59,0-.73.07-.93.11-4.12.61-.46.06L348,600l-.47,0-3.37.43-.47,0c-2.35-.17-4.7-.26-7-.53-3.57-.42-7.27-.29-10.46-2.37,0-1,0-1.92,0-2.88l.5-.06,1.78.67,3.72,1.57.37.09,3,1.19.36,0,.85.32.94.06,1.45.1h3.58l1.22-.08.93-.08,1.7-.17.71-.05,1.69-.2.94-.06,1-.17,1.17-.08,1.94-.4.7-.07.75-.16.69-.08.75-.16.69-.08.75-.17.46-.06.74-.17.46-.06.73-.19.46-.06.74-.18.46-.07,1-.16.93-.1.51-.14.69-.08Z" />
            <path class="color-shadow"
                d="M449.56,607.34c1.19-.05,2.38-.13,3.58-.14,2.56,0,5.12.07,7.67,0,5.09-.19,10.17-.38,15.24-.75,3-.22,6.07-.74,9.08-1.21a7.84,7.84,0,0,0,2-.93l-.13-.39c.14,0,.36,0,.43.06.88,1.09,2,.66,3,.4s2.19-.74,3.32-1A1.46,1.46,0,0,0,495,602c.17-.9.2-1.81.35-2.71a1.65,1.65,0,0,0-1.32-2,38.87,38.87,0,0,0-10.95-2.24,63.82,63.82,0,0,0-10.54.75c-1.35.15-2.72,0-4.08,0-7,.23-14,.44-21,.74-2.05.09-4.09.48-6.14.67-1,.09-2,0-3.06,0-2.79.07-5.58.2-8.37.24q-12.28.13-24.56.22l.06-.39,24.07-.32c.76,0,1.51-.07,2.27-.1l.52-.06,2.37-.13,1-.11,1.65-.13.75-.11,2.14-.19,1-.06c4.59-.08,9.18-.07,13.76-.28,6.34-.28,12.67-.74,19-1.12,7.09-.43,14.14-.55,20.85,2.33.63.26,1.24.56,1.84.88,3.3,1.77,3.3,1.78,6.89,1.85l-1.37,3.42c-.66,1.62-1.26,3.26-2,4.84-1,2.16-1.91,2.26-3.46.52l-.42-.79-.39.11.18,1.63c.26,1.34-.91,1.16-1.59,1.5l-1.22.4-.45.09-.51.13-.46.09a13.4,13.4,0,0,0-1.79,0c-1.57.17-1.57.19-1.57-1.43a4.33,4.33,0,0,0,0-.72c-.27-1.52-.55-3-.83-4.56l-.36.06a11.17,11.17,0,0,0,.56,6.92h-4.21l-1.18,0-1.3-1.58c-.18-.38-.35-.76-.52-1.14s-.29-.75-.44-1.12l-.36.11.05,1.11,0,1.4,0,1.48-1.43,0-3.63.2H474l-3.86.16-4.78.1-1-.31c0-.55-.05-1.1-.08-1.66,0-.32-.09-.65-.14-1s-.05-.47-.07-.7c-.07-.55-.14-1.11-.22-1.66l-.41,0-.25,1.64-.06.45c-.06.25-.11.5-.17.75l-.09.69c-.05.25-.11.49-.16.74s-.05.31-.08.46-.12.33-.19.49L461,613h-8.45l-.72-.33Q450.69,610,449.56,607.34Z" />
            <path class="color-shadow"
                d="M412.71,607.58a10.36,10.36,0,0,1,3.19-.28,20.55,20.55,0,0,0,7.17,0,54.89,54.89,0,0,1,5.57-.51c3.66-.08,7.32-.07,11,0,2.43,0,4.85.2,7.27.37,1,.06.87-.73,1.11-1.26l.33,1.21c.29,1,.59,2,.88,3.06a.48.48,0,0,1,0,.18c.19.72.39,1.44.59,2.17l0,.27-5.08.1-.45-.09c-.61-.08-1.22-.21-1.83-.23-2.2-.07-4.4-.11-6.6-.15-1.35-.05-2.7-.07-4-.15a3.81,3.81,0,0,1-3.1-1.44l-1.39-1.5-.16.15.58,2.59-.73,0-.51-.14-2.1,0c-1.68-.11-3.36-.2-5-.35a3.51,3.51,0,0,1-1-.47l.2-1-.23-.19-.67.66a7.44,7.44,0,0,1-1.93.89,18,18,0,0,1-3.28.07c-.71,0-1-.38-.63-1.11C412.09,609.46,412.38,608.51,412.71,607.58Z" />
            <path class="color-shadow"
                d="M390.62,607.22c5.54-.09,11.07-.2,16.61-.25,1.49,0,3,.13,4.47.24.2,0,.39.2.59.3-.41.61-.83,1.21-1.24,1.81l-2.34,2.3-.75.12-2.14.06-2.42.17-.7.06-1.94.17-2.18-.21-.47-1-.25-.47c-.16-.55-.32-1.09-.47-1.64l-.32.06-.38,3.52-.46.08-1.47.13-.69.11c-.37-.24-.75-.47-1.13-.7C392.17,610.48,391.39,608.85,390.62,607.22Z" />
            <path class="outline"
                d="M429.08,595.41a1.56,1.56,0,0,1,.42-.19c4.29-.27,8.59-.6,12.89-.76s8.78-.09,13.16-.26c4.14-.15,8.28-.49,12.41-.74.48,0,1,0,1.44,0-.27.17-.52.46-.79.47-4.64.27-9.28.53-13.92.73-1.78.07-3.56-.06-5.33,0-4.29.2-8.57.48-12.85.7-2.22.11-4.45.18-6.67.24A2.24,2.24,0,0,1,429.08,595.41Z" />
            <path class="outline"
                d="M338.42,613.93V611.7l.23-.11a19.65,19.65,0,0,1,1.11,2.76c.47,1.9,1.23,3.23,3.51,3.28,3.81.09,7.62.39,11.43.6.4,0,.79,0,1.19,0-.78,1.27-2,.6-3,.63a39.06,39.06,0,0,1-4.59-.19c-2.31-.2-4.61-.44-6.9-.77-.4-.06-.83-.59-1.05-1-.4-.72-.6-1.56-1-2.29C339.16,614.32,338.73,614.15,338.42,613.93Z" />
            <path class="outline"
                d="M483.54,612h4.21a11.17,11.17,0,0,1-.56-6.92l.36-.06c.28,1.52.56,3,.83,4.56a4.33,4.33,0,0,1,0,.72c0,1.62,0,1.6,1.57,1.43a13.4,13.4,0,0,1,1.79,0c-.13.13-.26.37-.39.38-2.43.1-4.86.19-7.29.25C483.89,612.43,483.72,612.18,483.54,612Z" />
            <path class="outline"
                d="M328,610.06a2.68,2.68,0,0,0,2.48,3,16.74,16.74,0,0,1,2.19.79l.25-1.63.34-.12a9.61,9.61,0,0,1,1,1.6c.79,2,2.44,2.53,4.3,2.8-.4.16-.93.56-1.19.43-1.13-.56-2.18-1.27-3.26-1.93a2.92,2.92,0,0,0-.57-.37c-1.68-.59-3.39-1.1-5.05-1.75A1.75,1.75,0,0,1,328,610.06Z" />
            <path class="outline"
                d="M326.16,597.58c3.19,2.08,6.89,1.95,10.46,2.37,2.33.27,4.68.36,7,.53-.31.15-.64.47-.93.44-3.32-.25-6.64-.53-10-.86a20.39,20.39,0,0,1-3.74-.6,17,17,0,0,1-3-1.41S326.12,597.74,326.16,597.58Z" />
            <path class="outline"
                d="M449.2,610.11c-.29-1-.59-2-.88-3.06l-.33-1.21c0-.42-.07-.85-.1-1.27l.24-.08,1.43,2.85q1.14,2.7,2.29,5.38c-.62-.87-1.29-1.72-1.84-2.64-.35-.59-.52-1.3-.94-1.93Z" />
            <path class="outline"
                d="M411.05,609.32c.41-.6.83-1.2,1.24-1.81l.42.07c-.33.93-.62,1.88-1,2.78-.33.73-.08,1.09.63,1.11a18,18,0,0,0,3.28-.07,7.44,7.44,0,0,0,1.93-.89c-.09,1.43-1.23,1.38-2.17,1.46a25.46,25.46,0,0,1-3.15,0c-1.37-.05-1.56-.41-1-1.69C411.33,610,411.91,609.51,411.05,609.32Z" />
            <path class="outline"
                d="M375.56,596.62c1.45-.15,2.89-.38,4.34-.44,1.91-.08,3.83,0,5.74,0-.22.16-.44.44-.68.45-2.84.12-5.69.2-8.53.27A3.17,3.17,0,0,1,375.56,596.62Z" />
            <path class="outline"
                d="M326.49,601.65l1.5,8c-.22-.28-.57-.53-.63-.84-.43-2.18-.81-4.38-1.17-6.58C326.17,602,326.38,601.83,326.49,601.65Z" />
            <path class="outline"
                d="M366.2,597.33c.81-.12,1.62-.31,2.44-.36,2.15-.14,4.3-.22,6.45-.33-.15.15-.3.42-.46.44q-3.84.28-7.69.5A2,2,0,0,1,366.2,597.33Z" />
            <path class="outline"
                d="M435.77,612.36c2.2,0,4.4.08,6.6.15.61,0,1.22.15,1.83.23-2.08,0-4.15.1-6.22.06A12.35,12.35,0,0,1,435.77,612.36Z" />
            <path class="outline"
                d="M405.35,597.41l-.06.39-6,.11-.76-.18c.22-.12.44-.34.66-.36q2.68-.17,5.37-.24A2.11,2.11,0,0,1,405.35,597.41Z" />
            <path class="outline"
                d="M418.24,611a3.51,3.51,0,0,0,1,.47c1.68.15,3.36.24,5,.35-.17.13-.35.37-.52.37-1.7-.05-3.41-.12-5.12-.23-.27,0-.53-.24-.8-.37Z" />
            <path class="outline"
                d="M396.69,612.5l.38-3.52.32-.06c.15.55.31,1.09.47,1.64-.16.39-.33.77-.46,1.16S397.56,612.81,396.69,612.5Z" />
            <path class="outline" d="M444.65,612.83l5.08-.1c0,.07-.05.21-.07.21Z" />
            <path class="outline"
                d="M357.76,616.77l.06,1.3a2.93,2.93,0,0,1-.81.17,3.28,3.28,0,0,1-.85-.24c.35-.83.71-1.67,1.07-2.5-.09.54-.18,1.09-.27,1.7Z" />
            <path class="outline"
                d="M380,614.76a7.25,7.25,0,0,0,0-1.4,14.57,14.57,0,0,0-.56-1.65l.36-.23,1.13,1.66-.31.05-.1-.06.11,0c0,.31.17.66.07.91S380.24,614.54,380,614.76Z" />
            <path class="outline" d="M406,595.89l4.58-.18c-.05.11-.1.31-.15.31C409,596,407.52,595.94,406,595.89Z" />
            <path class="outline"
                d="M376.25,613.19c.06,0,.16.09.17.15a1.79,1.79,0,0,0,2,1.69c-.46.17-.95.52-1.37.46s-.63-.6-.77-1A4.8,4.8,0,0,1,376.25,613.19Z" />
            <path class="outline" d="M332.12,596.88l-3.72-1.57,1.41.09,2.32.92Z" />
            <path class="outline"
                d="M401.24,596.14l4.32-.23c-.07.13-.14.38-.2.38C404,596.25,402.61,596.19,401.24,596.14Z" />
            <path class="outline" d="M361.39,598l4.34-.62c-.86.23-1.71.52-2.59.67A7.94,7.94,0,0,1,361.39,598Z" />
            <path class="outline"
                d="M427.65,612l-.58-2.59.16-.15,1.39,1.5-.45,0C427.65,611.07,429.09,612.15,427.65,612Z" />
            <path class="outline" d="M356.24,598.9l4.22-.79Z" />
            <path class="outline" d="M474.67,612.5l3.63-.2C477.29,613.07,475.4,613.18,474.67,612.5Z" />
            <path class="outline" d="M349.87,599.71l4.12-.61A5.11,5.11,0,0,1,349.87,599.71Z" />
            <path class="outline"
                d="M470.12,612.67l3.86-.16c-.33.14-.66.41-1,.4C472,612.89,471.08,612.76,470.12,612.67Z" />
            <path class="outline"
                d="M374.69,615.62c0-1.09-.06-2.17-.06-3.26,0-.12.19-.23.29-.35C375.08,613.23,375.47,614.46,374.69,615.62Z" />
            <path class="outline" d="M365.89,612.51l1-2.17.53.25-.72,1.4C366.43,612.17,366.16,612.34,365.89,612.51Z" />
            <path class="outline" d="M385.41,597.87,382,598Z" />
            <path class="outline" d="M344.12,600.44l3.37-.43A3.59,3.59,0,0,1,344.12,600.44Z" />
            <path class="outline" d="M416.36,595.65l3.14-.16C418.49,596.26,417.43,596,416.36,595.65Z" />
            <path class="outline" d="M360.45,617.76l2.87-.5C362.54,618.47,361.47,618,360.45,617.76Z" />
            <path class="outline" d="M328.77,601.16a9,9,0,0,0-1.36-.24,3.49,3.49,0,0,0-1,.28c0-.32.05-.63.08-1Z" />
            <path class="outline" d="M463.21,609.13l.25-1.64.41,0c.08.55.15,1.11.22,1.66Z" />
            <path class="outline" d="M482.87,614h0Z" />
            <path class="outline"
                d="M366.16,614.16c0,.5-.05,1-.08,1.51s-.08.9-.12,1.35c-.15-.24-.47-.52-.43-.73A19.31,19.31,0,0,1,366.16,614.16Z" />
            <path class="outline" d="M473.48,614.14h0Z" />
            <path class="outline" d="M403.4,612l2.42-.17C405.07,612.61,404.23,612.29,403.4,612Z" />
            <path class="outline" d="M368.06,616.74l2.46-.4Z" />
            <path class="outline" d="M496,609.59l-.18-1.63.39-.11.42.79Z" />
            <path class="outline" d="M481.06,610.41l1.3,1.58C481.38,611.92,481.11,611.26,481.06,610.41Z" />
            <path class="outline" d="M490.05,613.93l-1.95.09Z" />
            <path class="outline" d="M375.81,598.35l-1.94.09Z" />
            <path class="outline" d="M479.73,612.25l0-1.48.66,1.22Z" />
            <path class="outline" d="M336.45,602.14l-1.93-.2C335.2,601.57,335.88,601.36,336.45,602.14Z" />
            <path class="outline" d="M400.76,612.2l1.94-.17C402.12,612.82,401.44,612.54,400.76,612.2Z" />
            <path class="outline" d="M449.76,612.46c-.2-.73-.4-1.45-.59-2.17C449.36,611,449.56,611.73,449.76,612.46Z" />
            <path class="outline" d="M379.89,598.1l-1.95.15C378.54,597.51,379.21,597.74,379.89,598.1Z" />
            <path class="outline" d="M459.06,613h2A1.29,1.29,0,0,1,459.06,613Z" />
            <path class="outline" d="M372.21,598.58l-1.94.18C370.85,598,371.53,598.23,372.21,598.58Z" />
            <path class="outline"
                d="M390.45,613.21l.92-.55.47.41c-.14.11-.27.32-.41.32A6.74,6.74,0,0,1,390.45,613.21Z" />
            <path class="outline" d="M338.85,602.37l-1.7-.18C337.76,601.85,338.36,601.57,338.85,602.37Z" />
            <path class="outline" d="M369.09,598.82l-1.7.18C367.89,598.27,368.48,598.45,369.09,598.82Z" />
            <path class="outline" d="M366.45,599.07l-1.69.19C365.24,598.44,365.84,598.74,366.45,599.07Z" />
            <path class="outline"
                d="M504.08,603.08c-.22.64-.44,1.29-.65,1.93C503.64,604.37,503.86,603.72,504.08,603.08Z" />
            <path class="outline" d="M479.79,609.37l-.05-1.11.36-.11c.15.37.29.75.44,1.12Z" />
            <path class="outline" d="M374.94,610.82l-.07-1.08.35-.08.3,1.14Z" />
            <path class="outline" d="M392.94,612.12c.38.23.76.46,1.13.7l-.9.25Z" />
            <path class="outline" d="M390,607.91l-.3-.5c0-.24,0-.48,0-.72l.56-.24.22.72Z" />
            <path class="outline" d="M394.76,612.71l1.47-.13Z" />
            <path class="outline" d="M348,600l1.45-.2C349,600.55,348.5,600.3,348,600Z" />
            <path class="outline" d="M388.29,613.47l1.46-.16Z" />
            <path class="outline" d="M345.11,620.4l-1.45-.1Z" />
            <path class="outline" d="M464.38,612.46l1,.31-.85.32Z" />
            <path class="outline" d="M349.65,601.45l-1.21.2C348.74,600.94,349.18,601.11,349.65,601.45Z" />
            <path class="outline" d="M348,601.7l-1.21.19C347.06,601.18,347.5,601.34,348,601.7Z" />
            <path class="outline" d="M360.93,599.79l-1.21.18C360,599.26,360.46,599.43,360.93,599.79Z" />
            <path class="outline" d="M333.81,601.89l-1.22-.18C333.06,601.34,333.5,601.18,333.81,601.89Z" />
            <path class="outline" d="M352.77,601l-1.22.19C351.86,600.47,352.3,600.62,352.77,601Z" />
            <path class="outline" d="M364.29,599.3l-1.21.19C363.38,598.78,363.82,599,364.29,599.3Z" />
            <path class="outline" d="M388.76,596.15l1.21,0C389.56,596.89,389.15,596.91,388.76,596.15Z" />
            <path class="outline" d="M366.4,617l1.24-.18Z" />
            <path class="outline" d="M354.45,600.75l-1.21.18C353.54,600.22,354,600.39,354.45,600.75Z" />
            <path class="outline" d="M371.2,616.27l1.24-.18Z" />
            <path class="outline" d="M338.55,615.83l-.12-1.23Z" />
            <path class="outline" d="M358.29,618l1.22-.18Z" />
            <path class="outline" d="M485.26,614.05,484,614Z" />
            <path class="outline" d="M504.23,595.33l-1.34-.53Z" />
            <path class="outline" d="M493.16,611.49l1.22-.4Z" />
            <path class="outline" d="M362.61,599.54l-1,.17Z" />
            <path class="outline" d="M361.15,619.61l-1,.13Z" />
            <path class="outline" d="M331.89,601.64l-1-.17Z" />
            <path class="outline" d="M435.57,596.69l-1,.11Z" />
            <path class="outline" d="M464.16,609.82c0,.33.1.66.14,1C464.26,610.48,464.21,610.15,464.16,609.82Z" />
            <path class="outline" d="M351.09,601.22l-1,.18Z" />
            <path class="outline" d="M356.13,600.51l-1,.17Z" />
            <path class="outline" d="M441.09,596.2l-1,.06Z" />
            <path class="outline" d="M357.57,600.27l-1,.18C356.81,599.79,357.16,599.88,357.57,600.27Z" />
            <path class="outline" d="M359.25,600l-1,.17Z" />
            <path class="outline" d="M344.37,602.2l-1,.15Z" />
            <path class="outline" d="M398.11,611l.47,1Z" />
            <path class="outline" d="M381.34,613.64l.68.59Z" />
            <path class="outline" d="M490.08,590.72l-.75-.13Z" />
            <path class="outline" d="M346.05,602l-.75.14Z" />
            <path class="outline" d="M463,610.33c.06-.25.11-.5.17-.75C463.09,609.83,463,610.08,463,610.33Z" />
            <path class="outline" d="M330,601.38l-.74-.16Z" />
            <path class="outline" d="M462.73,611.76c0-.25.11-.49.16-.74C462.84,611.27,462.78,611.51,462.73,611.76Z" />
            <path class="outline" d="M408,611.74l.75-.12Z" />
            <path class="outline" d="M354.92,599l.73-.07Z" />
            <path class="outline" d="M326.62,594.64l-.5.06,0-.44Z" />
            <path class="outline" d="M452.57,613.05h0Z" />
            <path class="outline" d="M438,596.45l-.75.11Z" />
            <path class="outline" d="M491.72,613.65l-.74.14Z" />
            <path class="outline" d="M385.17,614l.74-.18Z" />
            <path class="outline" d="M504.81,596.18c-.05-.25-.09-.5-.14-.75l.44.25Z" />
            <path class="outline" d="M483.77,593.41l.75.11Z" />
            <path class="outline" d="M356.34,620.32l-.72.08Z" />
            <path class="outline" d="M499.4,612.45l-.5.12Z" />
            <path class="outline" d="M390.2,609.1c0-.17-.06-.34-.1-.51C390.14,608.76,390.17,608.93,390.2,609.1Z" />
            <path class="outline" d="M383.25,614.18l.51-.14Z" />
            <path class="outline" d="M502.3,594.66l-.6-.35Z" />
            <path class="outline" d="M366.46,613.15l-.21.57Z" />
            <path class="outline" d="M400.27,596.17l.49,0-.29.38Z" />
            <path class="outline" d="M494.12,613.17l-.5.14Z" />
            <path class="outline" d="M426.41,611.85l.51.14Z" />
            <path class="outline" d="M378.81,615l.6-.21Z" />
            <path class="outline" d="M499.65,593.23l-.56-.39Z" />
            <path class="outline" d="M505.77,598.52l-.18.49Z" />
            <path class="outline" d="M372.87,616l.53-.17Z" />
            <path class="outline" d="M390.84,611.6l-.27-.61Z" />
            <path class="outline" d="M363.55,617c.13-.2.26-.39.38-.59C363.81,616.63,363.68,616.82,363.55,617Z" />
            <path class="outline" d="M496.55,591.75l-.5-.19Z" />
            <path class="outline" d="M486.65,593.65l.51.11Z" />
            <path class="outline" d="M495.59,591.48l-.61-.28Z" />
            <path class="outline" d="M492.2,611.71l.51-.13Z" />
            <path class="outline" d="M492.93,613.45l-.51.1Z" />
            <path class="outline" d="M337,619l-.61-.24Z" />
            <path class="outline" d="M338.39,619.49l-.49-.15Z" />
            <path class="outline" d="M494.13,591.13l-.48-.07Z" />
            <path class="outline" d="M339.35,619.72l-.49-.13Z" />
            <path class="outline" d="M492.44,590.88l-.47,0Z" />
            <path class="outline" d="M505.27,600l-.26.62C505.1,600.37,505.19,600.17,505.27,600Z" />
            <path class="outline" d="M342.47,620.17l-.49-.09Z" />
            <path class="outline" d="M390.47,610.54c0-.17-.08-.34-.13-.51C390.39,610.2,390.43,610.37,390.47,610.54Z" />
            <path class="outline" d="M462.46,612.71c.07-.16.13-.33.19-.49C462.59,612.38,462.53,612.55,462.46,612.71Z" />
            <path class="outline" d="M432.21,596.93l-.52.06Z" />
            <path class="outline"
                d="M332.12,596.88v-.56c2.7.44,5.4.95,8.11,1.3a20.14,20.14,0,0,0,3.88,0c3-.2,5.92-.46,8.88-.7l-1,.88-1.17.08-1,.17-.94.06c-.61-.34-1.2-.53-1.69.2l-.71.05c-.6-.36-1.19-.51-1.7.17l-.93.08-1.22.08h-3.58l-1.45-.1-.94-.06-.85-.32-.36,0-3-1.19Z" />
            <path class="outline"
                d="M356.1,597.05l-.69.08-.75.16-.7.07-.53-.56c2.32-.46,4.63-1,7-1.39,1.68-.3,3.39-.47,5.09-.7l0,.66-.69.08-.51.14-.93.1-1,.16-.46.07-.74.18-.46.06-.73.19-.46.06-.74.17-.46.06-.75.17-.69.08Z" />
            <path class="outline" d="M353.43,596.8l.53.56-1.94.4,1-.88Z" />
            <path class="outline" d="M365.46,595.37l0-.66.42-.07.54.56Z" />
            <path class="outline" d="M389.49,593.29l-2.19.15C388,592.74,388.73,593,389.49,593.29Z" />
            <path class="outline" d="M385.89,593.54l-1.47.13Z" />
            <path class="outline" d="M377.49,594.25l-1.47.14Z" />
            <path class="outline" d="M380.13,594l-1.22.08Z" />
            <path class="outline" d="M382.53,593.78l-1.23.15Z" />
            <path class="outline" d="M374.37,594.49l-1.23.15Z" />
            <path class="outline" d="M368.6,595l-.74.15Z" />
            <path class="outline" d="M371.25,594.73l-.74.07Z" />
            <path class="color-shadow" d="M390.23,606.45l-.56.24c-.12-.41-.24-.83-.37-1.25l.62-.18Z" />
            <path class="outline" d="M357.37,614.88l.83-2.51.39,0c-.1.81-.19,1.63-.29,2.45Z" />
            <path class="outline"
                d="M357.37,614.88h.93c0,.15-.05.3-.07.46s-.21.56-.32.85-.1.39-.14.59l-.81.43c.09-.61.18-1.16.27-1.7C357.27,615.29,357.32,615.09,357.37,614.88Z" />
            <path class="outline" d="M357.91,616.18c.11-.29.21-.57.32-.85C358.12,615.61,358,615.89,357.91,616.18Z" />
            <path class="outline" d="M332.49,597l3,1.19Z" />
            <path class="outline" d="M347.23,598.27c.49-.73,1.08-.54,1.69-.2Z" />
            <path class="outline" d="M344.82,598.49c.51-.68,1.1-.53,1.7-.17Z" />
            <path class="outline" d="M337.64,598.56l1.45.1Z" />
            <path class="outline" d="M342.67,598.65l1.22-.08Z" />
            <path class="outline" d="M349.86,598l1-.17Z" />
            <path class="outline" d="M362.34,595.85l1-.16Z" />
            <path class="outline" d="M358.75,596.58l.74-.17Z" />
            <path class="outline" d="M335.85,598.18l.85.32Z" />
            <path class="outline" d="M354.66,597.29l.75-.16Z" />
            <path class="outline" d="M356.1,597.05l.75-.16Z" />
            <path class="outline" d="M357.54,596.81l.75-.17Z" />
            <path class="outline" d="M360,596.35l.73-.19Z" />
            <path class="outline" d="M361.14,596.1l.74-.18Z" />
            <path class="outline" d="M364.26,595.59l.51-.14Z" />
            <path class="outline" d="M380.61,613.18l-.11,0,.1.06Z" />
        </g>
    </g>
</svg>
