<svg id="Nizy_classic" data-name="Nizy classic" xmlns="http://www.w3.org/2000/svg" viewBox="0 0 672 960">
    <g id="img_17" data-name="img 17">
        <g id="img_16_img" data-name="img 16 img">
            <path class="outline"
                d="M412.52,616.29l-.65,1.12-.32.55-.41.65-.32.54a1.27,1.27,0,0,0-.13.19l-.34.54-3,4-1.39,1.4-.58.46-.68.48a.8.8,0,0,1-.13.13l-.54.3-1.57.49-1.22,0a3.33,3.33,0,0,1-2.48-3.11c0-.58,0-1.16,0-1.74l.15-.94.12-.48.55-1.68.2-.46,1.56-2.84q2.29-2.93,4.57-5.87s0-.14-.12-.49l-5.53.37-3.14.06-6.21-.18-.74,0c-.94-.1-1.88-.26-2.82-.31-2.31-.12-4.62-.28-6.93-.28-1.72,0-3.44.22-5.16.34l-.45,0a11.08,11.08,0,0,0-1.51-.17c-4.83.09-9.67.23-14.51.3-5.9.1-11.81.25-17.71.18a32.27,32.27,0,0,1-6.37-1c-2.44-.53-4.83-1.29-7.27-1.88a3,3,0,0,1-2.43-3.63,12.76,12.76,0,0,0,.15-3c-.22-2.86-.55-5.71-.82-8.56-.08-.85.17-1.27,1.07-.79l.15,1.51,0,1c.09.24.1.58.27.69,2.22,1.54,4.8,1.71,7.38,1.9.09,0,.19-.12.29-.18l.93.1.75.14,1.17.11.51.12,1.17.11.75.12h10.08l.73,0,3.36-.19,1.68,0,3.59-.19,1,0,4.52-.07,1.71.11,3.57.13.75.11,1.89.12,1,.12,2.61.14.51.11,1.65.15.51.08,1.89.13.75.13,1.17.1.75.13,3.09.33c4.55.5,9.1,1.28,13.67,1.44,6.1.22,12.22-.11,18.33-.1a158.73,158.73,0,0,0,21.1-1.77c1.2-.16,2.4-.42,3.6-.63h1.4l7.88-.31c1.48-.06,3-.12,4.42-.22,5.69-.39,11.38-.84,17.07-1.18a84.57,84.57,0,0,1,19.34.59l.51.13c.83.21,1.65.44,2.49.61,2.46.51,4.8,1.54,7.4,1.38,1.08-.07,1.74-.37,1.92-1.47l.21-1,.69-.45.21-.07.51,0a9.17,9.17,0,0,1-.36,1.82,64.42,64.42,0,0,0-2.54,6.25c-.63,2.28-1.72,3.86-4,4.45l-3.52.13-1.28.11-.65.11-1,.13-1.22.15a1.94,1.94,0,0,0-.55-.14q-6.14.14-12.25.31c-.77,0-1.54.16-2.31.25h-.4a3.07,3.07,0,0,0-.58-.1l-16.22.33a2.94,2.94,0,0,0-.83.29l-.46,0-.8,0-.39,0a1.41,1.41,0,0,0-.51-.22q-6.3,0-12.59,0a2,2,0,0,0-.63.24l-1.64.1-4.06.1-1.46.1-2.92.16-.61,0-.78,0-4,.26-1-.07-.75.23.73.49.07.06.07-.06.23.46c-.08.07-.23.18-.22.2.68,1.2,1.38,2.4,2.07,3.59.32.82.63,1.63.94,2.45l.15.48.12.47.11.49.14.7.09.74v2.18l-.13.71L428.6,625l-2.38-.26-2.59-2.26-.37-.48-.62-.92-.31-.52-.78-1.56a8.2,8.2,0,0,0-.46-1.4c-.35-.66-.55-.24-.71.16h-.53l-.09-2.74c-.05-1.19-.1-2.37-.14-3.55l.09-1.87.44.08.65,2.35.38,1.17.13.44.9,2.78.47,1.08,1,2c.94,1.43,1.9,2.85,3.6,3.5l.66,0,1.13-1.44.12-.51v-1.83l-.15-.51-.29-1-.73-1.79-.48-1.09a5.86,5.86,0,0,0-.38-1.09c-1.39-2.43-2.8-4.84-4.21-7.26l-.14-.55h.49c.64.17.71-.2.74-.71a3.69,3.69,0,0,0-1.69-3.18v-.29l.91.1,1.34,1,1.31,2.86a4.93,4.93,0,0,0,5.54,2.89l.71,0,2.65-.19,1,0,3.61-.17c.21-.11.61-.3.59-.34-.21-.64-.49-1.27-.75-1.9l-.07-.46-.13-.75-.16-.21c0-.39,0-.78,0-1.17,0-.17.07-.34.1-.51l0-.72.09-.46.83-.72,1.08,5,.17.51.26.71c-.1.91.54.93,1.15.92l6.5-.2.57-.44-.82-.73h0l.3-1.38.19.16.52.7,1.4,1.46.48.27,5.28,0,.4.12c.18-.84.37-1.69.55-2.53l.08-.45.37-1.23.08-.46,1,.47.06,1.24-.11-.05-.18.5-.08.45c-.76.84-.81,1.39-.18,1.92H462l.47-.23h0l1.11-1.67.83,1,.11,0-.1.52,0,.58.46-.29,4.31-.07c.9.28,1.82.64,2.66-.17l3.1-.07c1.07.43,2.25.15,2.09-.49a17.42,17.42,0,0,0-1.08-2.62l-.09-.45-.15-.75-.08-.7-.14-1v-1.88l1.11,1,.12.69.13.51.09.46c-.08.07-.25.17-.23.22.49,1.61,1,3.21,1.53,4.81,0,0,.35,0,.53,0h1c1.56.9.83-.65,1.1-1.09l1.52.42.48.33a2.24,2.24,0,0,0,2.69,0l2.51.06a19.47,19.47,0,0,0,2,.06,7.86,7.86,0,0,0,1.47-.41l0,0,.25-.49.07-.46.11-.76.09-.46c.27-.81.53-1.63.83-2.43a8.05,8.05,0,0,1,.57-1l.12,2.89-.16,1-.06.46-.29,1.29,1.09-.22.69-.09.51-.14.87-.15,1.74-.66h1l.37-.59,1-2.37.72,2,.73-1.75.54-1.11c.48-.77,1-1.52,1.4-2.3.06-.1-.15-.48-.18-.48a6.81,6.81,0,0,0-.76.26l-3.55-.22-.61-.3-2-.65-.61-.31-.88,0-.45-.09-.51-.13-1.65-.35-.75-.15-.2-.14-.5-.17-.51.1-.92-.13-.75-.12-.68-.17-.74-.16-.51.12-1.87-.21a5.55,5.55,0,0,0-4.36,0l-3.08.19-1.94-.05-.75.09-3.09.14-1,.12-3.08.13-.51.12-.45.14-2.89,0-.5.13-.92.17-1.47.12-2.62.11-.51,0-2.83.22-1.47-.08-.5.11-2.6.21-1.94-.08-.74.13-1.87.19-1.23-.09-.74.14-.68.16-3.63.39-.46.06-1.22.16-.94.09-1,.15-1.16.14-.76.1-4.43.38c-1.22,0-2.44.12-3.66.15-3.2.1-6.41.17-9.62.28a3.57,3.57,0,0,0-1,.35H401.26l-.74-.11-.73.16-3.82-.22-1.47-.12-1.4-.19-.5-.12-1,.07-1.17-.13-.52-.07-3.32-.4-.76-.12-.91-.18-.5-.13-1.46.05-.44-.15-.5-.15-1.41-.1-1-.14L378,598.2l-.75-.13-1.41-.1-1-.14-1.89-.1-1.23-.14-2.13-.12-1-.12-4.05-.15-1-.09h-4.08l-1.46.13-2.62.11-.51.09-4.77.15-1.7.13-2.38.11-1.71.11h-4.74l-1.47-.12-1.65-.12-.75-.13-.93-.08-1-.15-.93-.09-.75-.15-.46-.05-1-.19-.46-.06-1-.19-.46-.06-3.16-1.15c.07.86.1,1.29.15,1.71.2,1.57.52,3.13.57,4.7.1,2.64.31,3,2.88,3.42.27,0,.92-.51.89-.64a10.26,10.26,0,0,0-.8-1.76c0-1.1,0-2.2,0-3.31.59-.29.91,0,1,.54a13.3,13.3,0,0,0,.21,1.68c.32,1.17.52,2.45,1.86,3h0l.48.73.09.38c.41,1.56,2,1.44,3.05,1.93.35.15,1.07-.49,1.76-.84a2,2,0,0,0,.56.72,6.49,6.49,0,0,0,1.48.43l.7.08,1.22.18,1.89.1,1.84.29-.08-.87-.09-.46L344.9,606l-.07-.46-.16-.74-.08-1.43h.72l.1,0-.06.51.44,1.21a.27.27,0,0,1,.11,0c0,.17,0,.33-.07.49l.9,2c.24,1.24,1.21,1.24,2.17,1.26l2.43.14h.95l1.21-.18.27-.25,1.27.38,2.05-.17a25.06,25.06,0,0,0,3.57.06c.37,0,.66-.81,1-1.25l.2-.5.68-.51c.89.38.31.83.09,1.3a2.63,2.63,0,0,0-.13.76l.6-.07h8.64c.23-.09.64-.18.64-.26,0-.56-.11-1.12-.17-1.68V604.8c.3-.54.58-1.07-.2-1.46v-1.43l1.2-.44c.06.38.11.77.17,1.15l-.15.48a4,4,0,0,0,.89,3.62l.13.59c.07,1,.16,1.13.85,1.06l2.53-.43.9-.08a4.9,4.9,0,0,0,1.41.51c3,.12,6.05.18,9.08.25l.36.1-.3-.35-1-2.86h.75l1.74,2.13c.3,1.54,1.53,1.17,2.53,1.21,2.22.08,2.35-.1,1.75-2.23a3.87,3.87,0,0,0-.29-.62l0-2.41c.32-.51.64-.52,1,0l.12.93.13.51.29,1,.54,1.34.35.84c.42.25.82.71,1.24.71,2.47.06,4.93,0,7.4,0a2.57,2.57,0,0,0,2.6-1.48l.75-.72.63-.57.61-.59c.24-.39.46-.8.73-1.17a7.17,7.17,0,0,1,.71-.75l-.28,1,.51,1.21c-.24.32-.46.64-.72.94-2,2.31-4.2,4.53-6.1,6.95a19,19,0,0,0-4.27,8.41c-.15.81,0,2.1.52,2.47s1.67-.13,2.51-.35a2.31,2.31,0,0,0,.95-.71c1-1,1.92-2,2.88-3l.65-1,.25-.27,1.65-2.39c.05-.06.1-.11.15-.18l.33-.54,2.63-4.11,1.45-2.39.5-.93.44.2c-.26,1.41-.55,2.81-.8,4.22-.51,3-1,6-1.52,9l-.13.46L413,623l-.08,0-.19.51,0,.5-.07,0-.21.5-.1.47-.64,2.4-.13.46-.36,1.22c-.05.23-.09.47-.16.7-.63,2.25-1.28,4.51-1.92,6.77l-.07,0L409,637l-1.05,3.35v.58l1.22.37.48,0,.48.28c.2.2.42.59.61.58.84-.05,1,.59,1.39,1.11l-1,.45-.63-.33-2.23-.71-.54,0-.68-.13-.79-.41c.39-1.56.79-3.11,1.15-4.68a10.17,10.17,0,0,0,.17-1.35l1.19-3.39.17-.49.3-1.21,1-2.61.38-1.22.57-1.9.15-.5.33-1.18.14-.5.11-.46.4-1.45-.07-.52h.06l0,0,.23-.48.13-1.25.1-.45.14-.5.12-.46.13-.5.09-.46.69-2.13.09-.64-.55.58ZM425,606.45c-.19,1.37.44,2.22,1.49,2.18Zm-4.15,10.4-.12-.22a.94.94,0,0,0-.23.16s.06.18.08.17A.85.85,0,0,0,420.88,616.85Z" />
            <path class="color-shadow"
                d="M348.92,596.63H338.84l-.75-.12-1.17-.11-.51-.12-1.17-.11-.75-.14-.93-.1a5.2,5.2,0,0,0-.76-.25c-2.44-.55-5-.58-7.18-2.16,0-.32,0-.63,0-1,.08-.57.25-.82.94-.56,1.85.71,3.73,1.33,5.6,2l1.15.28.56.34a33.59,33.59,0,0,0,11,1,11.48,11.48,0,0,0,1.3.08l16.91-.74a2.4,2.4,0,0,0,.55-.19h1.69l.09,0h.1c2.15.15,4.31.54,6.44,0-.33-.16-.65,0-.95-.06a6.43,6.43,0,0,1-1.17-.39l2.44-.08.22.25-.06.57.58.26,4.77.37h.48l2.41.2,1,.12.73,0a4,4,0,0,0,.83.3c4,.4,8.05.81,12.07,1.18,1.22.11,2.44.09,3.66.14l2.1.12a8.73,8.73,0,0,0,1.5.26c5.12,0,10.24.12,15.35,0,5.3-.12,10.59-.43,15.88-.73,1.5-.08,3-.49,4.47-.57a40.82,40.82,0,0,1,4.13.15c-1.2.21-2.4.47-3.6.63a158.73,158.73,0,0,1-21.1,1.77c-6.11,0-12.23.32-18.33.1-4.57-.16-9.12-.94-13.67-1.44l-3.09-.33-.75-.13-1.17-.1-.75-.13-1.89-.13-.51-.08-1.65-.16-.51-.1-2.61-.14-1-.12-1.89-.12-.75-.11-3.57-.13-1.71-.11-4.52.07-1,0-3.59.19-1.68,0-3.36.19Z" />
            <path class="color-shadow"
                d="M504.74,596.4c-.18,1.1-.84,1.4-1.92,1.47-2.6.16-4.94-.87-7.4-1.38-.84-.17-1.66-.4-2.49-.61l-.51-.13a84.57,84.57,0,0,0-19.34-.59c-5.69.34-11.38.79-17.07,1.18-1.47.1-2.94.16-4.42.22l-7.88.31c.17-.16.33-.44.53-.48.74-.13,1.51-.13,2.24-.29a8.84,8.84,0,0,0,1.51-.61l1.49-.35.63,0,4.17-.44,1.09-.07,3.09-.21.27,0,1.3-.11,1.1-.12a26.81,26.81,0,0,0,2.83.07c1.18-.1,2.35-.34,3.53-.53h.86l1.53-.16.88-.06,3-.2,1.56-.14.59-.07,2.08-.09,2.25-.17,3-.12,1.08-.14,2.13,0c.34.17.68.49,1,.5a40.88,40.88,0,0,1,11.49,1.44l4.57,1.23Z" />
            <path class="outline"
                d="M419.85,617.73h.53l.45,2.88.11.74.16,1.42.08.49.14,1,.12.73.13.71.12.72.1.48.12.73.15.71.09.49.15.71.1.48.11.48.11.5.16.7.11.48.11.48.11.49.11.47.12.5.16.7.11.48.12.48.12.48.12.48.12.48.12.48.12.47.14.49q2.43,6.69,4.85,13.38a7.3,7.3,0,0,1,.18.81l-.18.45-.95.53-.56.19-.47.22-.41.31-.69-.34-.35-.49-.23-.37c0-.08,0-.18,0-.23a39.59,39.59,0,0,1-4-10.21c-.59-2.11-1-4.25-1.53-6.38l-.08-.45-.4-2.43-.08-.44-.12-1-.12-.68-.14-1.24-.07-.46c-.05-.57-.11-1.13-.17-1.7l-.09-1.41-.16-1.47-.07-1.41-.17-1.95c0-.56,0-1.11-.05-1.66l-.19-6,0-3.84.17-.26H419l.15,1.38c0,2.09,0,4.17.05,6.26,0,.16.24.32.36.49Zm2.32,16.68h0l.1-.38-.13-.45-.09-.45-.37-1.7-.1-.47-.2-1.06-.07-.07-.1,0h0l.12-.36-.09-.71-.14-.93-.11-.51-.11-.94-.12-.5-.14-.93-.11-.51-.12-.94-.1-.5-.67-3.74-.43.06c.19,2.18.39,4.37.58,6.55l.07.93.25.46.16,1.23.11.68.11,1.24.33,2.86.15.5.09.93.15.51.06.71a37.73,37.73,0,0,0,.66,3.85c.82,2.93,1.76,5.83,2.66,8.74l.27.62c.34,1,.62,1.93,1,2.84s1.06,1,2.06.37l0,0c.72-.35.56-.69,0-1l0,0-.74-1.69-.28-.63c-.55-1.69-1.07-3.39-1.64-5.06-.28-.81-.64-1.59-1-2.37l-.09-.47-.61-1.93-.1-.47-.89-3.22-.2-.06h0l.11-.38-.15-.53Z" />
            <path class="color-shadow"
                d="M325.43,591.05c-.9-.48-1.15-.06-1.07.79.27,2.85.6,5.7.82,8.56a12.76,12.76,0,0,1-.15,3,3,3,0,0,0,2.43,3.63c2.44.59,4.83,1.35,7.27,1.88a32.27,32.27,0,0,0,6.37,1c5.9.07,11.81-.08,17.71-.18,4.84-.07,9.68-.21,14.51-.3a11.08,11.08,0,0,1,1.51.17c-2,.09-4,.18-5.95.25-6.79.24-13.57.6-20.35.65a99.17,99.17,0,0,1-12.3-.75c-2.14-.25-4.2-1.23-6.31-1.82-.95-.27-2-.34-2.93-.58-1.59-.4-2.73-1.63-2.46-3.07.66-3.45-.25-6.75-.59-10.11a25.68,25.68,0,0,1-.09-2.63c0-.9.45-1.37,1.4-1,1.88.64,3.73,1.37,5.63,2s3.8,1,5.89,1.62c-1-2.09-1.93-3.84-2.64-5.68a17.16,17.16,0,0,1-1.46-7.31h.91l.09.71c-.48.36-.39.6.15.73v.46c-.23.18-.69.43-.66.53.63,2,1.32,4,2,6,.68,1.23,1.37,2.46,2,3.71a5,5,0,0,1,.27,1,3.06,3.06,0,0,1-1,.1c-1.46-.32-2.9-.7-4.35-1.05-.77-.32-1.52-.7-2.3-.95C328.37,591.87,326.9,591.48,325.43,591.05Z" />
            <path class="outline"
                d="M413.39,635.74l-.16,1-.09.47-.29,1-.8,0c.22-1.76.46-3.53.67-5.3.25-2.16.47-4.32.7-6.48l.12-.47.15-1.19.09-1.2.18-.7,0-.74c.13-.53.27-1.06.37-1.59.51-2.6,1-5.19,1.49-7.78l.57,0-.16,1.66-.24.18.2.09-.51,5.77-.08.47-.15,1.21-.11.71-.13,1-.11.7-.14,1-.09.71-.15,1-.09.71-.16,1-.31,2.15-.09.47-.13.87-.11.57-.12.87-.11.57-.13.87Z" />
            <path class="outline"
                d="M448,595.49a8.84,8.84,0,0,1-1.51.61c-.73.16-1.5.16-2.24.29-.2,0-.36.32-.53.48h-1.4a40.82,40.82,0,0,0-4.13-.15c-1.49.08-3,.49-4.47.57-5.29.3-10.58.61-15.88.73-5.11.12-10.23,0-15.35,0a8.73,8.73,0,0,1-1.5-.26c0-.18,0-.35,0-.53l.75-.07,1.69.12,2.39.12,1.94.1,5.94,0,3.13-.12H419l3.57-.16,2.91-.07,1.88-.17,1.68-.1,4.57-.36.51-.08,1.64-.18,1-.07,2.37-.15.75-.08,2.61-.17,1.23-.08,1.9-.14,1.46-.15.48-.05Z" />
            <path class="color-shadow"
                d="M374.47,589.49,372.33,585a40.54,40.54,0,0,1-1.62-3.8,7.21,7.21,0,0,1,.53.74,69.51,69.51,0,0,0,7.29,11.34,4.59,4.59,0,0,0,3.68,1.84,19.05,19.05,0,0,1,2.78.49l-1.52.11c-2.45-.12-4.65-.71-6-3a7.62,7.62,0,0,0-1.26-1.57,2.84,2.84,0,0,0-.93-.42h0l-.49-.64,0,0c.07-.31.13-.62.2-.93l-.29,0Z" />
            <path class="outline"
                d="M332.13,593.29c1.45.35,2.89.73,4.35,1.05a3.06,3.06,0,0,0,1-.1,5,5,0,0,0-.27-1c-.66-1.25-1.35-2.48-2-3.71l.42-.37.88,1.37a9.16,9.16,0,0,0,3.66,3.79l.32.36,0,.16,0-.16,1.78.08c.22.15.42.4.65.43.65.08,1.32.07,2,.09l0,.34a33.59,33.59,0,0,1-11-1l-.56-.34-1.15-.28Z" />
            <path class="outline"
                d="M344.81,595.58l0-.34.27-.47,2.9,0,1.45-.11,2.3,0,2-.06,2.36-.18.52-.06,4-.18,1-.07h1.93a.28.28,0,0,0,0,.22v.47a2.4,2.4,0,0,1-.55.19l-16.91.74A11.48,11.48,0,0,1,344.81,595.58Z" />
            <path class="outline"
                d="M456.51,593.72l.45-3.35a6.14,6.14,0,0,0,.42-1.41c.1-1.94.14-3.89.19-5.84,0-.32,0-.63,0-1s.06-.63.09-.95a29.1,29.1,0,0,1,.69,12.27v0Z" />
            <path class="color-base"
                d="M458.36,593.49a29.1,29.1,0,0,0-.69-12.27c0,.32-.07.63-.09.95s0,.63,0,1c-.05,2-.09,3.9-.19,5.84a6.14,6.14,0,0,1-.42,1.41c0-.62.05-1.24.05-1.86,0-3.28,0-6.55,0-9.82,0-.37,0-.74,0-1.11l.38-.09a2.17,2.17,0,0,1,.4.68c.49,3.27,1,6.54,1.38,9.83a23.93,23.93,0,0,1-.24,4.54C458.87,592.87,458.55,593.17,458.36,593.49Z" />
            <path class="outline"
                d="M375.28,590.65a2.84,2.84,0,0,1,.93.42,7.62,7.62,0,0,1,1.26,1.57c1.35,2.33,3.55,2.92,6,3l-1.15.34-.73,0-1-.12-2.41-.2h-.48l-4.77-.37-.58-.26.06-.57.76-.07,3.09.15,1.2.15.34-.21-.31-.29-.62-.53Z" />
            <path class="color-base"
                d="M480.2,592.76l-2.25.17c.12-.12.24-.25.35-.38.32-.21.8-.36.91-.64a9.81,9.81,0,0,0,.64-2.49c.18-1.5.23-3,.3-4.53,0-.08-.3-.18-.46-.27.16-1.49.3-3,.49-4.46.09-.75.26-1.48.39-2.22l.35.06c-.11,2.89-.14,5.79-.35,8.68-.12,1.73-.54,3.45-.76,5.18C479.77,592.14,480.06,592.46,480.2,592.76Z" />
            <path class="outline"
                d="M382.32,596l1.15-.34,1.52-.11.41,0,1.76.21.65.06,1.27.18.65.07,2.23.17.64.06,1.75.19.41.05,1.74.2.43.05,1.92.29,0,.5c-1.22,0-2.44,0-3.66-.14-4-.37-8-.78-12.07-1.18A4,4,0,0,1,382.32,596Z" />
            <path class="outline"
                d="M503.49,595.69l-4.57-1.23v-.63c1.69.53,1.64.52,2-1.13.41-2,.91-3.94,1.4-5.9.05-.2.32-.33.48-.5,0,.82.05,1.63.08,2.44-.1.4-.19.81-.28,1.21l-.12.09.13-.08-.12,1.12-.38.52.28.5-.14.9-.2.51.43,1,.79.26.22.28Z" />
            <path class="outline"
                d="M429.08,596.13l-.18.15-.85-.65.39-1.9.1-.49.12-1,.11-.74.1-1.18.13-1,.12-1.42.1-.75.15-1.64h.1l.06-.08.51.07,0,6.5a6,6,0,0,0-.41,1.06C429.4,594.13,429.25,595.13,429.08,596.13Z" />
            <path class="color-shadow"
                d="M499.41,607.43c2.33-.59,3.42-2.17,4-4.45a64.42,64.42,0,0,1,2.54-6.25,9.17,9.17,0,0,0,.36-1.82v-.23l.49,0c0,.27.09.55.13.82-.46,1.27-.9,2.55-1.39,3.82-.73,1.89-1.5,3.77-2.24,5.66A3.8,3.8,0,0,1,499.41,607.43Z" />
            <path class="outline"
                d="M498.91,593.83v.63A40.88,40.88,0,0,0,487.43,593c-.34,0-.68-.33-1-.5l1.18-.1,1.24-.06c1.86,0,3.72-.07,5.58-.05a5.35,5.35,0,0,1,1.36.35Z" />
            <path class="color-shadow"
                d="M498.91,593.83l-3.14-1.17,4.38,1L502.94,583l.51-.2c.11.13.21.26.31.4-.49.33-.8.7-.18,1.2l-.07.72c-.17.25-.35.49-.53.74l-.21.47v0c-.16.17-.43.3-.48.5-.49,2-1,3.92-1.4,5.9C500.55,594.35,500.6,594.36,498.91,593.83Z" />
            <path class="color-base"
                d="M340.12,594.28a9.16,9.16,0,0,1-3.66-3.79l-.88-1.37c-.63-1.76-1.26-3.52-1.86-5.29-.06-.17.1-.43.16-.64.33.86.65,1.74,1,2.6,1.12,2.77,2.24,5.53,4.67,7.5C339.83,593.52,339.93,594,340.12,594.28Z" />
            <path class="color-base" d="M333.58,581h-.91c-.12-2.09-.26-4.17-.34-6.26a23.33,23.33,0,0,1,.17-2.5h.39Z" />
            <path class="color-base"
                d="M420.17,636.48c.5,2.13.94,4.27,1.53,6.38a39.59,39.59,0,0,0,4,10.21s0,.15,0,.23a37.68,37.68,0,0,1-2-3.48,55.94,55.94,0,0,1-3.6-12.9A1.29,1.29,0,0,1,420.17,636.48Z" />
            <path class="color-shadow"
                d="M458.57,609a2.94,2.94,0,0,1,.83-.29l16.22-.33a3.07,3.07,0,0,1,.58.1,3.72,3.72,0,0,1-.77.22q-8.15.21-16.28.39A2.91,2.91,0,0,1,458.57,609Z" />
            <path class="color-shadow"
                d="M476.6,608.48c.77-.09,1.54-.23,2.31-.25q6.12-.18,12.25-.31a1.94,1.94,0,0,1,.55.14c-1,.08-2,.19-2.94.22-3.63.13-7.26.23-10.88.33A9.4,9.4,0,0,1,476.6,608.48Z" />
            <path class="outline" d="M419,610.06h-.58l-.61-.2h-.94v-2.44l0-.73,1.69-.35.47.37Z" />
            <path class="color-shadow"
                d="M375.28,609.49c1.72-.12,3.44-.34,5.16-.34,2.31,0,4.62.16,6.93.28.94.05,1.88.21,2.82.31-.95,0-1.89.08-2.83.06Q381.33,609.67,375.28,609.49Z" />
            <path class="color-shadow"
                d="M443.19,609a2,2,0,0,1,.63-.24q6.29,0,12.59,0a1.41,1.41,0,0,1,.51.22c-1.75,0-3.5.12-5.25.13-2.55,0-5.11,0-7.67,0A5.63,5.63,0,0,1,443.19,609Z" />
            <path class="color-shadow"
                d="M400.28,609.89l5.53-.37c.09.35.15.45.12.49q-2.28,2.94-4.57,5.87c.94-1.4,1.88-2.81,2.83-4.2.33-.48.71-.92,1.07-1.37l-.11-.42Z" />
            <path class="outline"
                d="M479.69,584.62c.16.09.47.19.46.27-.07,1.51-.12,3-.3,4.53a9.81,9.81,0,0,1-.64,2.49c-.11.28-.59.43-.91.64,0-.25,0-.49,0-.74l.14-.5.11-.46.12-.5.11-.46.16-.73.09-.47.14-.73.1-.71.1-.51c0-.23.05-.46.08-.69s.12-.65.17-1Z" />
            <path class="outline"
                d="M398.88,597.64l0-.5.06-.38.13-.31c.41-1,.78-2,1.23-3a4.49,4.49,0,0,1,.76-.89l-.35,2.43-.09.5-.18.71c-.3.46-.6.92.33,1l.25.12c0,.18,0,.35,0,.53Z" />
            <path class="color-base"
                d="M416.26,614.37c.05-.56.11-1.11.16-1.66l.45-1.92c-.05,1.21,0,2.43-.17,3.63-.19,1.89-.46,3.77-.72,5.66,0,.12-.18.22-.27.33l.51-5.77A2.51,2.51,0,0,1,416.26,614.37Z" />
            <path class="color-base"
                d="M503.45,582.79l-.51.2a12.83,12.83,0,0,1,1.29-4.8A6.62,6.62,0,0,1,503.45,582.79Z" />
            <path class="outline"
                d="M412.05,638.14l.8,0-.3,2.14-.11.53-.12.43,0,1.17-.17.76c-.34-.52-.55-1.16-1.39-1.11-.19,0-.41-.38-.61-.58l1.14.06.22-.59.11-1.18Z" />
            <path class="color-base"
                d="M411.16,625.2l-.57,1.9-.38,1.22-1,2.61c.14-.67.25-1.35.44-2,.69-2.48,1.39-5,2.12-7.44a5.08,5.08,0,0,1,.47-.89l.07.52-.4,1.45-.11.46-.14.5-.33,1.18Z" />
            <path class="outline"
                d="M369.77,594.29a6.43,6.43,0,0,0,1.17.39c.3,0,.62-.1.95.06-2.13.55-4.29.16-6.44,0,0-.15,0-.29.05-.43l1.89-.17Z" />
            <path class="outline"
                d="M333.88,583.19c-.06.21-.22.47-.16.64.6,1.77,1.23,3.53,1.86,5.29l-.42.37c-.68-2-1.37-4-2-6,0-.1.43-.35.66-.53Z" />
            <path class="color-shadow"
                d="M346,589.41l.53.93.33.54.13.21.36.51,1,1.53-.62.36-2-2.36C345.86,590.56,345,589.83,346,589.41Z" />
            <path class="color-base"
                d="M429.54,583.67l.36-3.42.55,0a12.06,12.06,0,0,1-.29,4.18c-.06-.52-.11-1-.18-1.68Z" />
            <path class="color-shadow"
                d="M401,592.52a4.49,4.49,0,0,0-.76.89c-.45,1-.82,2-1.23,3,.42-1.43.83-2.86,1.27-4.28.18-.59.42-1.16.63-1.73l.39.07Z" />
            <path class="outline"
                d="M416.87,610.79l-.45,1.92-.57,0c.11-1.15.17-2.3.36-3.43a10.82,10.82,0,0,1,.63-1.84c0,.82,0,1.63,0,2.44l.06.47Z" />
            <path class="color-base" d="M467.49,593.65c-1.18.19-2.35.43-3.53.53a26.81,26.81,0,0,1-2.83-.07Z" />
            <path class="color-shadow" d="M390.93,609.77l6.21.18Z" />
            <path class="color-base"
                d="M418.26,614.16c.06,2,.13,4,.19,6a12.79,12.79,0,0,1-.29-1.91C418.14,616.9,418.22,615.53,418.26,614.16Z" />
            <path class="color-base"
                d="M454.28,594.65l-4.17.44a12.1,12.1,0,0,0,1.22-.31,13.26,13.26,0,0,0,1.21-.56l1-1.43-.21,1.61Z" />
            <path class="outline"
                d="M407.53,636a10.17,10.17,0,0,1-.17,1.35c-.36,1.57-.76,3.12-1.15,4.68-.12-.46-.46-1-.34-1.36C406.35,639.11,407,637.57,407.53,636Z" />
            <path class="color-base"
                d="M503,585.85c.18-.25.36-.49.53-.74-.22,1.21-.43,2.42-.65,3.63,0-.81-.05-1.62-.08-2.44v0Z" />
            <path class="color-base"
                d="M429.08,596.13c.17-1,.32-2,.52-3a6,6,0,0,1,.41-1.06A4.23,4.23,0,0,1,429.08,596.13Z" />
            <path class="color-shadow"
                d="M453.56,592.79l-1,1.43c0-.72,0-1.44,0-2.16a4.17,4.17,0,0,1,.32-.55c.16-.22.35-.41.53-.62Z" />
            <path class="color-shadow"
                d="M428.89,614.57c-.69-1.19-1.39-2.39-2.07-3.59,0,0,.14-.13.22-.2C427.66,612.05,428.28,613.31,428.89,614.57Z" />
            <path class="color-base" d="M420.83,620.61l-.45-2.88c.16-.4.36-.82.71-.16a8.2,8.2,0,0,1,.46,1.4Z" />
            <path class="color-base" d="M456.51,593.72l1.84-.21c0,.28.07.57.11.86l-3.09.21Z" />
            <path class="color-shadow" d="M437.49,609.15l4.06-.1Z" />
            <path class="color-base" d="M347.79,593.49l.62-.36c.35.5.69,1,1,1.49l-1.45.11Z" />
            <path class="color-base" d="M408.22,642.62l2.23.71.15.33-2.88-.94Z" />
            <path class="color-base" d="M413.93,614.4l-.69,2.13-.72-.24,1-1.95Z" />
            <path class="color-base" d="M416.83,597.4l-3.13.12Z" />
            <path class="color-base"
                d="M453.43,590.89c-.18.21-.37.4-.53.62a4.17,4.17,0,0,0-.32.55,5.49,5.49,0,0,1-.06-1.14c0-.23.25-.42.38-.63Z" />
            <path class="color-shadow" d="M433.11,609.41l2.92-.16Z" />
            <path class="color-base" d="M425.47,597.17l-2.91.07Z" />
            <path class="color-shadow" d="M345.1,594.77l-.27.47c-.66,0-1.33,0-2-.09-.23,0-.43-.28-.65-.43Z" />
            <path class="color-base" d="M473.72,593.23l-3,.2Z" />
            <path class="color-base"
                d="M346,589.41c-1.08.42-.18,1.15-.27,1.72a16.48,16.48,0,0,1-.56-1.77c0-.15.28-.38.44-.57Z" />
            <path class="color-base" d="M367.39,594.15l-1.89.17h-.29l0-.1.07-.09Z" />
            <path class="outline" d="M503.49,595.69l0-.65.28-.16,1.19.13v.39l-.21,1Z" />
            <path class="color-base" d="M428.05,595.63l.85.65c0,.21.09.42.13.62l-1.68.1Z" />
            <path class="color-shadow"
                d="M429.54,583.67l.44-.87c.07.65.12,1.16.18,1.68l-.12,1.1-.51-.07c0-.17-.07-.34-.1-.51Z" />
            <path class="color-base" d="M419.69,633.6c.14.81.27,1.62.4,2.43Z" />
            <path class="color-base" d="M426.22,624.71l2.38.26A1.6,1.6,0,0,1,426.22,624.71Z" />
            <path class="color-shadow" d="M392,596.3l-2.23-.17Z" />
            <path class="color-shadow" d="M398.91,596.76l-.06.38-1.92-.29Z" />
            <path class="color-base" d="M448,595.49l-.44-.1,1.93-.25Z" />
            <path class="color-base" d="M353.71,594.52l-2,.06Z" />
            <path class="color-base" d="M407.76,597.5l-1.94-.1Z" />
            <path class="color-base" d="M377.48,594.69l-1.2-.15.61-.88.62.53Z" />
            <path class="color-shadow" d="M406,625.29l1.39-1.4Z" />
            <path class="color-base" d="M418.5,621.84c.06.65.11,1.3.17,1.95Z" />
            <path class="color-base" d="M403.43,597.28l-1.69-.12Z" />
            <path class="color-base" d="M419,628.08c.06.57.12,1.13.17,1.7C419.11,629.21,419.05,628.65,419,628.08Z" />
            <path class="color-shadow" d="M387.16,595.82l-1.76-.21Z" />
            <path class="color-base"
                d="M398.78,622.28c0,.58,0,1.16,0,1.74C398.77,623.44,398.77,622.86,398.78,622.28Z" />
            <path class="outline" d="M363.57,594.73v-.47l1-.14h.69l-.07.09,0,.1.05.42Z" />
            <path class="color-shadow" d="M394.35,596.55l-1.75-.19Z" />
            <path class="color-shadow" d="M396.5,596.8l-1.74-.2Z" />
            <path class="color-base" d="M503.58,584.39c-.62-.5-.31-.87.18-1.2Z" />
            <path class="color-base" d="M447.07,595.44l-1.46.15Z" />
            <path class="color-base" d="M421.1,622.77l-.16-1.42Z" />
            <path class="color-base" d="M418.74,625.2l.16,1.47Z" />
            <path class="color-base" d="M469.88,593.49l-1.53.16Z" />
            <path class="color-base" d="M401.24,627.13l1.22,0Z" />
            <path class="color-base" d="M419,597.4h0Z" />
            <path class="color-base" d="M419.23,630.24l.14,1.24Z" />
            <path class="color-base" d="M412.29,642.45l0-1.17Z" />
            <path class="color-base" d="M460,594.23l-1.3.11Z" />
            <path class="color-base" d="M488.83,592.36l-1.24.06Z" />
            <path class="color-shadow" d="M494.61,607.67l1.28-.11Z" />
            <path class="color-base" d="M443.71,595.73l-1.23.08Z" />
            <path class="color-base" d="M415.48,622.09l.15-1.21Z" />
            <path class="color-base"
                d="M426.69,609.6l1,.07-.87.65-.07.06-.07-.06C426.67,610.08,426.68,609.84,426.69,609.6Z" />
            <path class="color-shadow" d="M389.08,596.06l-1.27-.18Z" />
            <path class="color-base" d="M412.66,618.9l-.13,1.25a.45.45,0,0,1-.23,0Z" />
            <path class="color-shadow" d="M492.93,607.91l1-.13Z" />
            <path class="color-base" d="M414.75,627.13l.15-1Z" />
            <path class="color-base" d="M429,589.39l-.13,1Z" />
            <path class="color-base"
                d="M479.63,585.07c-.05.33-.11.65-.17,1C479.52,585.72,479.58,585.4,479.63,585.07Z" />
            <path class="color-base" d="M415,625.45l.14-1Z" />
            <path class="color-base" d="M484.28,592.5l-1.08.14Z" />
            <path class="color-base" d="M502.46,594.5l-.43-1h.26Z" />
            <path class="color-base" d="M361.63,594l-1,.07Z" />
            <path class="color-base" d="M364.56,594.12l-1,.14a.28.28,0,0,1,0-.22Z" />
            <path class="color-base" d="M373.19,594.39l-.76.07-.22-.25Z" />
            <path class="color-base" d="M421.32,624.21l-.14-1Z" />
            <path class="color-base" d="M414.5,628.8l.16-1Z" />
            <path class="color-base" d="M415.24,623.78l.13-1Z" />
            <path class="color-base" d="M333.82,582.46c-.54-.13-.63-.37-.15-.73Z" />
            <path class="color-base" d="M419.49,632.16l.12,1Z" />
            <path class="color-base" d="M400.74,597.11c-.93,0-.63-.49-.33-1Z" />
            <path class="color-base" d="M436.75,596.21l-1,.07Z" />
            <path class="color-base" d="M430.44,619.9l-.09-.74Z" />
            <path class="color-base" d="M439.87,596l-.75.08Z" />
            <path class="color-shadow" d="M505,595.4V595l.7-.06Z" />
            <path class="color-base" d="M430.31,622.79l.13-.71Z" />
            <path class="color-shadow" d="M431.72,609.41l.78,0Z" />
            <path class="color-base" d="M428.77,591.55l-.11.74Z" />
            <path class="color-base" d="M421.57,625.65l-.13-.71Z" />
            <path class="color-base" d="M479,589.16l-.16.73Z" />
            <path class="outline" d="M374.47,589.49l.23-.41.29,0c-.07.31-.13.62-.2.93Z" />
            <path class="color-base" d="M479.18,588l-.14.73Z" />
            <path class="color-base" d="M429.22,587.22l-.1.75Z" />
            <path class="color-shadow" d="M457.31,609l.8,0Z" />
            <path class="color-base" d="M422.3,629.49l-.15-.71Z" />
            <path class="color-base" d="M422.06,628.29l-.15-.71Z" />
            <path class="color-base" d="M422.78,631.65l-.16-.7Z" />
            <path class="color-base" d="M507,595.54c0-.27-.09-.55-.13-.82C506.89,595,506.94,595.27,507,595.54Z" />
            <path class="color-base" d="M423.5,634.77l-.16-.7Z" />
            <path class="color-base" d="M502.37,592.1l-.28-.5.44,0Z" />
            <path class="color-shadow" d="M404.7,626.23l.68-.48Z" />
            <path class="outline" d="M406.21,642.05l.79.41Z" />
            <path class="color-base" d="M430,617.5l-.15-.48Z" />
            <path class="color-base" d="M411.55,618l.32-.55Z" />
            <path class="color-base" d="M400.59,595.45l.09-.5Z" />
            <path class="color-base" d="M412.9,618l-.14.5Z" />
            <path class="color-base" d="M430.21,618.46l-.11-.49Z" />
            <path class="color-base" d="M399.8,618.72l-.2.46Z" />
            <path class="color-base" d="M410.82,619.15l.32-.54Z" />
            <path class="color-base" d="M410.35,619.88l.34-.54Z" />
            <path class="color-base" d="M434.11,596.46l-.51.08Z" />
            <path class="outline" d="M412.3,620.14a.45.45,0,0,0,.23,0l-.23.48Z" />
            <path class="color-base" d="M422.33,620.53l.31.52Z" />
            <path class="color-base" d="M399.05,620.86l-.12.48Z" />
            <path class="color-base" d="M423.26,622l.37.48Z" />
            <path class="color-base" d="M404,626.66l.54-.3Z" />
            <path class="color-base" d="M421.79,626.85l-.1-.48Z" />
            <path class="color-base" d="M429.43,585c0,.17.06.34.1.51l-.06.08h-.1Z" />
            <path class="color-base" d="M479.38,586.74l-.1.51Z" />
            <path class="outline" d="M374.81,590l.49.64Z" />
            <path class="color-base" d="M416.91,610.33l-.06-.47h.49Z" />
            <path class="color-base" d="M346.9,590.88l-.33-.54Z" />
            <path class="color-base" d="M422.51,630.45l-.11-.48Z" />
            <path class="color-base" d="M417.79,609.86l.61.2-.17.26Z" />
            <path class="color-base" d="M414.1,631.42l.09-.47Z" />
            <path class="color-base" d="M478.68,590.35l-.12.5Z" />
            <path class="color-base" d="M347.39,591.6l-.36-.51Z" />
            <path class="outline" d="M408.89,632.14l-.17.49Z" />
            <path class="color-shadow" d="M502.53,591.58l-.44,0,.38-.52Z" />
            <path class="color-base" d="M423,632.61l-.11-.48Z" />
            <path class="color-base" d="M413.86,632.86l.11-.57Z" />
            <path class="color-base" d="M423.22,633.57l-.11-.47Z" />
            <path class="color-base" d="M478.45,591.31l-.14.5Z" />
            <path class="color-base" d="M413.63,634.3l.11-.57Z" />
            <path class="color-base" d="M475.87,593l-.59.07Z" />
            <path class="color-base" d="M413.39,635.74l.11-.57Z" />
            <path class="color-base" d="M423.73,635.73l-.12-.48Z" />
            <path class="color-shadow" d="M502.29,593.5H502l.2-.51Z" />
            <path class="color-base" d="M428.54,593.24l-.1.49Z" />
            <path class="color-base" d="M424,636.69l-.12-.48Z" />
            <path class="color-base" d="M413.14,637.18l.09-.47Z" />
            <path class="color-base" d="M424.21,637.65l-.12-.48Z" />
            <path class="color-base" d="M356.59,594.28l-.52.06Z" />
            <path class="color-base" d="M424.47,638.61l-.14-.49Z" />
            <path class="color-base" d="M412.44,640.85l.11-.53Z" />
            <path class="color-base" d="M503.75,594.88l-.28.16-.22-.28Z" />
            <path class="outline" d="M408.22,642.62l-.5.1-.07-.05,0-.08Z" />
            <path class="outline" d="M410.6,643.66l-.15-.33.63.33Z" />
            <path class="color-base" d="M506.36,594.68v.23l-.51,0Z" />
            <path class="color-base" d="M413.15,617l-.13.5Z" />
            <path class="color-base" d="M429.32,653.25l.18-.45Z" />
            <path class="color-base" d="M425.89,653.67l.35.49Z" />
            <path class="color-base" d="M427.81,654l.56-.19Z" />
            <path class="color-base" d="M426.93,654.5l.41-.31Z" />
            <path class="color-shadow" d="M340.42,594.64l0,.16,0-.16Z" />
            <path class="color-base" d="M502.59,590l-.13.08.12-.09Z" />
            <path class="color-base"
                d="M494.61,597.32l.45.09c.78.72.26,1.61.23,2.41,0,.45-.47.89-.72,1.34l-1.05-.71-.35-1.53c-1.37-.13-.52.87-.69,1.35l-.43,4.05-.09.46a.46.46,0,0,0-.23.06l-2.9-.28-.36-.16-.44-1.18-.18-1-.46-.91-.24.86v2.17c-.22.22-.42.59-.66.63-1.66.22-3.33.36-5,.54l0-.06-.52-.64-.75-.57-.35,0,.08.35c0,.39,0,.79,0,1.18l-1.56.23-.72-2.13-.19-.52-.5-1.17-.09-.46-.13-.51-.12-.69c-.06-.67-.12-1.34-.2-2s-.44-.62-.83-.2l-.19.51,0,.46a2.56,2.56,0,0,0,0,2.93l0,.25.15,1,0,.46a11,11,0,0,0,.21,1.51c.12.51.12.85-.54.89-3.59.21-7.18.44-10.77.67l-.11,0-.51-2.6c-.26-.8-.65-.71-.94-.06s-.37,1.36-.65,2c-.17.41-.51,1.05-.8,1.05-.8,0-1.84.55-2.34-.64l.08-.43.19-.76-.08-.49.11.05c.06-.41.12-.82.17-1.24l-.24-2.93-.22-.34-.29.38a1,1,0,0,1-.09.21l-.27.61a.28.28,0,0,1-.06.18l-.19.08.17.1-.09.72-.72,2.65-.06.48c-.13.13-.33.25-.37.4-.24,1-.92,1.19-1.82,1a2.18,2.18,0,0,0-.7-.14c-1.82.15-3.56,0-4.85-1.51-.25-.31-.51-.61-.77-.92l-1.68-1.91-.28.19.82,2.38.3.6.08.23c.09.84-.3,1-1.06.85a5,5,0,0,0-1.27-.15c-1.53,0-3.05.14-4.58.21l-.26-.71-.17-.51-1.08-5-.73-.28-.16.51.06.49-.09.46-.19.71.13.52c0,.39,0,.78,0,1.17-.58.09-1.16.21-1.75.26l-5.54.46-5.66.49c-.44-1-.87-1.91-1.31-2.86l-1.34-1-.91-.1c-.89-.51-2.29.14-2.87-1.32.28,0,.5-.09.72-.1,1.91-.09,3.82-.13,5.72-.28,1.24-.09,2.48-.34,3.72-.52l4.43-.38.76-.1L436,599c.4.42.74.49,1-.15l.94-.09c.47.38.9.55,1.22-.16l.46-.06a3.8,3.8,0,0,0,3.63-.39l.68-.16.74.1,1.23-.15,1.87-.19.74.11,1.94-.16,2.6-.21.5.12,1.47-.15,2.83-.22.51,0,2.62-.11,1.47-.12.92-.17.5.11c1,.24,2,.63,2.89-.22l.45-.14.5.12a2.5,2.5,0,0,0,.65.22c2.23-.07,4.46-.13,6.68-.29a15.23,15.23,0,0,0,2.53-.6l3.08-.19,4.36,0,1.87.21.51.12.74-.08.68.17.75.12.92.13.51.14.5-.07.2.14.75.15,1.65.35Z" />
            <path class="color-base"
                d="M410.14,605.51l-.61.59-.63.57-.75.72c-.23.07-.55.05-.66.2-.65.88-1.57.81-2.49.79l-8.09-.23c-.11-.28-.23-.56-.35-.84L396,606l-.29-1-.13-.51-.12-.93c0-.26.09-.6,0-.76s-.62-.19-.7-.08a2,2,0,0,0-.22.84c0,.81,0,1.61,0,2.41v2.08l-4-.44-1.74-2.13-.49-1-.82-.4.2.39.07,1-.3,1.75c-2.41-.15-4.77-.33-7.13-.45a20.22,20.22,0,0,0-2.33.13l-1-.61c-.24,0-.57-.1-.71,0a1.15,1.15,0,0,1-2-.5c-.16-.46-.38-.89-.57-1.33l-.26-1.43-.1-.47c-.06-.38-.11-.77-.17-1.15,0-.73-.09-1.45-.15-2.42-1.46.88-1,1.94-1.05,2.86,0,.48,0,1,0,1.43s0,1-.05,1.45c-.07.17-.22.36-.2.53.14,1.13-.37,1.45-1.44,1.41s-1.88.15-2.83.19-2.18,0-3.29,0l.1-1.19.2-.67.08-.71-.77.4-.7.75-.53.64,0,.27-.68.51-5.44.28a9.9,9.9,0,0,0,.21-1.57,4.8,4.8,0,0,0-.29-1.06l-.7.89-1.38,1.75c-1.53-.17-3.06-.33-4.59-.52-1-.13-2.1-.29-3.16-.44l-.17-.31-.42-1a.27.27,0,0,0-.11,0l.06-.48-.44-1.24-.1,0c0-.37-.07-.74-.1-1.11l-.08-.81.06-.47c1.1-.25,2.2-.58,3.31-.73,2.68-.35,5.36-.64,8-.91,3.51-.36,7-.92,10.55-1,3.68-.05,7.37.44,11.06.62,1.29.06,2.59-.11,3.89-.17l.5-.11.44.15,1.46.19.5-.11.91.18.76.12,3.32.4.52.07,1.17.13,1,.16.5-.11,1.4.19,1.47.12,3.82.22.73.06.74-.11h14.13l.48.13.06.51-.35.39a16.34,16.34,0,0,0-1.85,0c-.17,0-.32.3-.47.47l-.42.1c-.34,0-.92-.11-1,0C411.22,603.13,410.69,604.33,410.14,605.51Z" />
            <path class="color-shadow"
                d="M382,598.81c-1.3.06-2.6.23-3.89.17-3.69-.18-7.38-.67-11.06-.62-3.52,0-7,.6-10.55,1-2.68.27-5.36.56-8,.91-1.11.15-2.21.48-3.31.73-.2.08-.56.16-.57.25,0,.71,0,1.42,0,2.13,0,.48.05.95.08,1.43-.06.09-.11.19-.17.29a25.14,25.14,0,0,1-.37-2.86c0-1.54,0-1.55-1.53-1.48-.32,0-.63.12-.94.12-3,0-6,.12-8.91,0-.86,0-1.32,0-1.53.83l-.91-3.29-.34-.11-.65,1.28c0,1.11,0,2.21,0,3.31l.27,1.82c-2.14,0-2.49-.33-2.51-2.32a11.15,11.15,0,0,0-.14-1.53c-.23-1.51-.48-3-.75-4.65l2.6.4.46.06,1,.19.46.06,1,.19.46.05.75.15.93.09,1,.15.93.08.75.13,1.65.12,1.47.12h4.74l1.71-.11,2.38-.11,1.7-.13,4.77-.15.51-.09,2.62-.11,1.46-.13h4.08l1,.09,4.05.15,1,.12,2.13.12,1.23.14,1.89.1,1,.14,1.41.1.75.13,1.65.11,1,.14,1.41.1Z" />
            <path class="transparent"
                d="M419,610.06l0-3.35,0-.53-.45.16-1.69.35-1.58.17c.41-.92.84-1.84,1.22-2.78.07-.16,0-.39-.07-.58-.2,0-.45,0-.58.11-.55.46-1.06.95-1.59,1.43L413,606.18c-2.06,2.2-4.26,4.29-6.14,6.63a53.08,53.08,0,0,0-4.12,6.42c-.42.72-1.08,1.75-.12,2.49s1.72-.21,2.36-.79a41.63,41.63,0,0,0,7.12-8.59c.6-1,1.25-1.86,1.87-2.79l.25,0-1,2.39-2.63,4.11-.33.54c0,.07-.1.12-.15.18l-1.65,2.39-.25.27-.65,1c-1,1-1.91,2-2.88,3a2.31,2.31,0,0,1-.95.71c-.84.22-2,.71-2.51.35s-.67-1.66-.52-2.47a19,19,0,0,1,4.27-8.41c1.9-2.42,4.06-4.64,6.1-6.95.26-.3.48-.62.72-.94l1.5-1.42,1.15-1,0,0,.94-.69,1.19-.7.46-.29c1.42-.4,4.1,1.19,4.27,2.57,0,.09-.38.24-.59.37l-.38-.26-.1.46.09,1.85-.59.55-.06,2.35-.09,1.87h-.49Z" />
            <path class="color-shadow"
                d="M493.52,600.45l1.05.71c.25-.45.7-.89.72-1.34,0-.8.55-1.69-.23-2.41l.88,0,.61.31,2,.65.61.3,3.55.22c.08.3.29.64.22.9a11.36,11.36,0,0,1-.68,1.62l-.54,1.11a3.69,3.69,0,0,1-.42-.78,13.69,13.69,0,0,1-.23-1.45h-.25l-.55,2c-.33.79-.66,1.58-1,2.37l-.37.59h-1l-1.6-1.68-.14,2.34-.87.15-.51.14-.69.09c-.74,0-.8-.52-.8-1.07l.06-.46c0-.33.11-.66.16-1l-.12-2.89C493.47,600.76,493.5,600.6,493.52,600.45Z" />
            <path class="color-shadow"
                d="M426,605.75l5.66-.49,5.54-.46c.59,0,1.17-.17,1.75-.26l.16.21c0,.25.09.5.13.75s.05.3.07.46c.05.75.11,1.49.16,2.24l-3.61.17-1,0-2.65.19-.71,0A4.93,4.93,0,0,1,426,605.75Z" />
            <path class="transparent"
                d="M411.26,641.58l-1.14-.06-.48-.28-1.71-.93L409,637l.16-.51.07,0a2.13,2.13,0,0,0,.37-.55c.72-2.27,1.44-4.53,2.13-6.81a15,15,0,0,0,.3-1.78l.08-.47.14-.48.11-.47.39-1.46V624l.07,0,.15-.5V623l.08,0,.3-.13.28.22.17.37-.09,1.21-.15,1.19-.12.47c-.09.15-.26.3-.28.46-.4,2.65-.82,5.3-1.15,8-.2,1.67-.27,3.35-.4,5,0,.39-.07.79-.11,1.18Z" />
            <path class="transparent"
                d="M428.78,617.77l.29,1,.15.51v1.83l-.12.51L428,623l-.66,0c-1.7-.65-2.66-2.07-3.6-3.5-.34-.67-.68-1.35-1-2l-.47-1.08-.9-2.78-.13-.44c.07-.33.15-.66.22-1l.92,1.07a12.82,12.82,0,0,0,3.62,6.24l.56.1.75-.85v-1l-1.83-5.46a6.62,6.62,0,0,1,1.05.9,19.61,19.61,0,0,1,1.1,1.74l.48,1.09Z" />
            <path class="outline"
                d="M416.61,602l-1.18.7-.95.69,0,0-1.22.19,0,0,.38-1,1.94-1.24.35-.39.79-.33-.06-.18h-.79l-.48-.13a3.57,3.57,0,0,1,1-.35c3.21-.11,6.42-.18,9.62-.28,1.22,0,2.44-.1,3.66-.15-1.24.18-2.48.43-3.72.52-1.9.15-3.81.19-5.72.28-.22,0-.44.06-.72.1.58,1.46,2,.81,2.87,1.32,0,.1,0,.19,0,.29-.89.15-1.06.62-.51,1.52s1,1.58,1.46,2.37h-.49l-.87-.74-.09,1.94h0l-.48-.23-.09-.05.1,0c.1.61.21,1.23.31,1.85l-.35.05-1-2.17c0-.62-.07-1.23-.1-1.85l.48-.2c.21-.13.6-.28.59-.37-.17-1.38-2.85-3-4.27-2.57Z" />
            <path class="color-shadow"
                d="M345.29,607.43l.09.46-1.76.58-1.89-.1-1.22-.18-.7-.08a3.09,3.09,0,0,1-1.82-2.89,20.81,20.81,0,0,0,3.48.43c1,0,2.12.94,3.1-.13h.26c0,.15.05.3.07.46Z" />
            <path class="color-shadow"
                d="M378,606.94a20.22,20.22,0,0,1,2.33-.13c2.36.12,4.72.3,7.13.45l.3-1.75H388c.35,1,.69,1.9,1,2.86l-.06.25c-3-.07-6.06-.13-9.08-.25a4.9,4.9,0,0,1-1.41-.51Z" />
            <path class="color-shadow"
                d="M364.27,605.73l-.1,1.19c1.11,0,2.2,0,3.29,0s1.89-.23,2.83-.19,1.58-.28,1.44-1.41c0-.17.13-.36.2-.53h.25c0,.55,0,1.11,0,1.66-.16.65-.31,1.29-.47,1.94h-8.64C363.47,607.51,363.87,606.62,364.27,605.73Z" />
            <path class="color-base"
                d="M414.2,609.59l-.25,0,1.26-2.69,1.58-.17c0,.24,0,.49,0,.73a10.82,10.82,0,0,0-.63,1.84c-.19,1.13-.25,2.28-.36,3.43-.49,2.59-1,5.18-1.49,7.78-.1.53-.24,1.06-.37,1.59l-.68,0c.51-3,1-6,1.52-9,.25-1.41.54-2.81.8-4.22l.28-1.2-.38-.09-.34,1.09-.5.93Z" />
            <path class="color-shadow"
                d="M346.49,606.25c1.06.15,2.11.31,3.16.44,1.53.19,3.06.35,4.59.52l-.48,1.19-.27.25-1.21.18h-.95l-2.43-.14c-1,0-1.93,0-2.17-1.26Z" />
            <path class="color-shadow"
                d="M464.47,606.9c3.59-.23,7.18-.46,10.77-.67.66,0,.66-.38.54-.89a11,11,0,0,1-.21-1.51h.27l.09.45.7,2.73-1.71.38-3.1.07-2.66.17-4.31.07-.48-.29Z" />
            <path class="color-shadow"
                d="M333,605.87l-.09-.38-.48-.73h0c-.23-.55-.47-1.11-.71-1.66l4.44,1.69.72-1-.19,3.61a13.77,13.77,0,0,1-1.54-.48C334.38,606.6,333.68,606.22,333,605.87Z" />
            <path class="color-shadow"
                d="M355.62,605.46l.7-.89a4.8,4.8,0,0,1,.29,1.06,9.9,9.9,0,0,1-.21,1.57l5.44-.28c-.07.17-.13.34-.2.5a3.19,3.19,0,0,1-2.85,1,8.37,8.37,0,0,0-1.71.19l-2.05.17c.16-.38.3-.76.47-1.12C355.83,606.94,356.33,606.23,355.62,605.46Z" />
            <path class="color-shadow"
                d="M481.48,605.48c1.67-.18,3.34-.32,5-.54.24,0,.44-.41.66-.63h.26l.75,1.91-.13.65-2.51-.06h-2.69l-.48-.33C482.06,606.14,481.77,605.81,481.48,605.48Z" />
            <path class="outline"
                d="M328.78,596.56l-2.6-.4c.27,1.64.52,3.14.75,4.65a11.15,11.15,0,0,1,.14,1.53c0,2,.37,2.33,2.51,2.32l-.27-1.82a10.26,10.26,0,0,1,.8,1.76c0,.13-.62.68-.89.64-2.57-.41-2.78-.78-2.88-3.42,0-1.57-.37-3.13-.57-4.7,0-.42-.08-.85-.15-1.71Z" />
            <path class="color-shadow"
                d="M441.35,607.17c1.53-.07,3-.16,4.58-.21a5,5,0,0,1,1.27.15c.76.19,1.15,0,1.06-.85l.49.46h0c.08.39.16.78.25,1.17l-6.5.2C441.89,608.1,441.25,608.08,441.35,607.17Z" />
            <path class="outline"
                d="M333,605.87c.72.35,1.42.73,2.15,1a13.77,13.77,0,0,0,1.54.48c.07-1.27.13-2.44.19-3.61l.05,0,.69.39.41,1.09a3.09,3.09,0,0,0,1.82,2.89,6.49,6.49,0,0,1-1.48-.43,2,2,0,0,1-.56-.72c-.69.35-1.41,1-1.76.84C334.92,607.31,333.37,607.43,333,605.87Z" />
            <path class="color-shadow"
                d="M373.72,604.52c.19.44.41.87.57,1.33a1.15,1.15,0,0,0,2,.5c.14-.12.47,0,.71,0,.2.54.4,1.08.61,1.61l-2.53.43c-.28-.35-.57-.7-.85-1.06-.05-.2-.09-.4-.13-.59C374,606,373.84,605.25,373.72,604.52Z" />
            <path class="color-base"
                d="M427.57,614.89a19.61,19.61,0,0,0-1.1-1.74,6.62,6.62,0,0,0-1.05-.9l-2.58-4.6.14-1.11c1.41,2.42,2.82,4.83,4.21,7.26A5.86,5.86,0,0,1,427.57,614.89Z" />
            <path class="color-shadow"
                d="M396.91,608.15l8.09.23c.92,0,1.84.09,2.49-.79.11-.15.43-.13.66-.2a2.57,2.57,0,0,1-2.6,1.48c-2.47,0-4.93,0-7.4,0C397.73,608.86,397.33,608.4,396.91,608.15Z" />
            <path class="outline"
                d="M332.13,593.29V594c-1.87-.65-3.75-1.27-5.6-2-.69-.26-.86,0-.94.56l-.15-1.51c1.47.43,2.94.82,4.4,1.29C330.61,592.59,331.36,593,332.13,593.29Z" />
            <path class="color-shadow"
                d="M488.83,604.56l2.9.28.12.7c0,.15-.05.3-.07.46l-.25.49,0,0-2.71-.28-.09-1.18Z" />
            <path class="color-shadow"
                d="M449.79,605.69c1.29,1.56,3,1.66,4.85,1.51a2.18,2.18,0,0,1,.7.14c.9.22,1.58.06,1.82-1,0-.15.24-.27.37-.4-.2.64-.41,1.29-.61,1.94l-5.28,0-.48-.27c-.46-.49-.93-1-1.4-1.46l-.06-.44Z" />
            <path class="color-base"
                d="M423.33,606c-.49-.79-1-1.57-1.46-2.37s-.38-1.37.51-1.52a3.69,3.69,0,0,1,1.69,3.18C424,605.78,424,606.15,423.33,606Z" />
            <path class="color-shadow"
                d="M477.58,596a15.23,15.23,0,0,1-2.53.6c-2.22.16-4.45.22-6.68.29a2.5,2.5,0,0,1-.65-.22,1.93,1.93,0,0,1,0-.24l3.08-.13,1-.12,3.09-.14.75-.09Z" />
            <path class="color-shadow"
                d="M390.51,607.63l4,.44V606a3.87,3.87,0,0,1,.29.62c.6,2.13.47,2.31-1.75,2.23C392,608.8,390.81,609.17,390.51,607.63Z" />
            <path class="color-base"
                d="M419.13,611.44h.49c0,1.18.09,2.36.14,3.55l.09,2.74c-.1.15-.21.3-.31.46-.12-.17-.36-.33-.36-.49C419.14,615.61,419.14,613.53,419.13,611.44Z" />
            <path class="outline"
                d="M325.62,593.51c2.14,1.58,4.74,1.61,7.18,2.16a5.2,5.2,0,0,1,.76.25c-.1.06-.2.19-.29.18-2.58-.19-5.16-.36-7.38-1.9C325.72,594.09,325.71,593.75,325.62,593.51Z" />
            <path class="outline"
                d="M331.68,603.09c.24.55.48,1.11.71,1.66-1.34-.55-1.54-1.83-1.86-3a13.3,13.3,0,0,1-.21-1.68c-.09-.59-.41-.83-1-.54.22-.43.44-.85.65-1.28l.34.11c.3,1.09.61,2.19.91,3.29C331.37,602.13,331.53,602.61,331.68,603.09Z" />
            <path class="color-base"
                d="M412,627.35a15,15,0,0,1-.3,1.78c-.69,2.28-1.41,4.54-2.13,6.81a2.13,2.13,0,0,1-.37.55c.64-2.26,1.29-4.52,1.92-6.77.07-.23.11-.47.16-.7l.36-1.22.13-.46.12,0Z" />
            <path class="color-shadow"
                d="M459.12,606.7c.5,1.19,1.54.67,2.34.64.29,0,.63-.64.8-1.05.28-.65.36-1.37.65-2s.68-.74.94.06c-.27.24-.7.42-.8.71-.28.85-.43,1.73-.63,2.6h0l-.47.23h-3.09C459,607.49,459,607.1,459.12,606.7Z" />
            <path class="transparent"
                d="M413.64,602.63c-.12.32-.25.65-.38,1l-.76.4c-.39.19-.8.37-1.2.55l.28-1,1.26-1.65.42-.1C413.39,602.1,413.51,602.37,413.64,602.63Z" />
            <path class="outline" d="M355.62,605.46c.71.77.21,1.48-.12,2.2-.17.36-.31.74-.47,1.12l-1.27-.38.48-1.19Z" />
            <path class="outline"
                d="M448.75,606.72l-.49-.46c0-.08-.05-.16-.08-.23l-.3-.6-.82-2.38.28-.19,1.68,1.91,0,.57Z" />
            <path class="outline"
                d="M493.52,600.45c0,.15,0,.31-.07.46a8.05,8.05,0,0,0-.57,1c-.3.8-.56,1.62-.83,2.43.14-1.35.29-2.7.43-4.05l.69-1.35Z" />
            <path class="outline"
                d="M481.48,605.48c.29.33.58.66.86,1l-1.52-.42c-.27.44.46,2-1.1,1.09,1-.36.48-.91.18-1.43,0-.39,0-.79,0-1.18l.27-.33.75.57c.18.21.35.43.52.64Z" />
            <path class="color-shadow"
                d="M423,606.54c-.05.37-.09.74-.14,1.11-.17.2-.34.4-.52.58s-.4.37-.6.56l-.31-1.85h0l.48.23.16.12-.16-.11.09-1.94.87.74Z" />
            <path class="outline"
                d="M500.29,602.31l.55-2h.25a13.69,13.69,0,0,0,.23,1.45,3.69,3.69,0,0,0,.42.78c-.21.51-.42,1-.73,1.75Z" />
            <path class="outline"
                d="M422.32,613.25l-.92-1.07-.27-.64-.33.46c-.22-.78-.44-1.57-.65-2.35l.06-.07,1,1.09,0,0,0,.56.33-.19Z" />
            <path class="outline"
                d="M412.84,601.94l-1.26,1.65a7.17,7.17,0,0,0-.71.75c-.27.37-.49.78-.73,1.17.55-1.18,1.08-2.38,1.7-3.53C411.92,601.83,412.5,602,412.84,601.94Z" />
            <path class="outline"
                d="M364.27,605.73c-.4.89-.8,1.78-1.19,2.67l-.6.07a2.63,2.63,0,0,1,.13-.76c.22-.47.8-.92-.09-1.3l0-.27c.18-.21.36-.42.53-.64l.7-.75.69.31Z" />
            <path class="outline" d="M462.42,607.65c.2-.87.35-1.75.63-2.6.1-.29.53-.47.8-.71l.51,2.6-.83-1Z" />
            <path class="outline" d="M372,601.91c0-.92-.41-2,1.05-2.86.06,1,.11,1.69.15,2.42Z" />
            <path class="outline"
                d="M458.42,601.94a.28.28,0,0,0,.06-.18l.27-.61a1,1,0,0,0,.09-.21l.51,0,.24,2.93h-.23l-1-.47-.09-.52.09-.72A.37.37,0,0,0,458.42,601.94Zm.65.74-.07.05.13.07s0-.06,0-.08S459.1,602.69,459.07,602.68Z" />
            <path class="outline"
                d="M476.93,602.13l.5,1.17c.06.17.13.34.19.52l.72,2.13.42,1.19c-.18,0-.52.06-.53,0-.54-1.6-1-3.2-1.53-4.81C476.68,602.3,476.85,602.2,476.93,602.13Z" />
            <path class="outline"
                d="M357.08,608.61a8.37,8.37,0,0,1,1.71-.19,3.19,3.19,0,0,0,2.85-1c-.33.44-.62,1.21-1,1.25A25.06,25.06,0,0,1,357.08,608.61Z" />
            <path class="color-shadow" d="M478.76,607.14l-.42-1.19,1.56-.23c.3.52.78,1.07-.18,1.43Z" />
            <path class="outline" d="M411.3,604.55c.4-.18.81-.36,1.2-.55l.76-.4,0,0,.07.76-1.5,1.42Z" />
            <path class="outline"
                d="M474.92,607.4l1.71-.38-.7-2.73a17.42,17.42,0,0,1,1.08,2.62C477.17,607.55,476,607.83,474.92,607.4Z" />
            <path class="outline" d="M485,595.81l-4.36,0A5.55,5.55,0,0,1,485,595.81Z" />
            <path class="outline" d="M496.22,605.94l.14-2.34,1.6,1.68Z" />
            <path class="outline"
                d="M488.8,606.23l2.71.28a7.86,7.86,0,0,1-1.47.41,19.47,19.47,0,0,1-2-.06c0-.22.09-.43.13-.65Z" />
            <path class="color-shadow" d="M425,606.45l1.49,2.18C425.47,608.67,424.84,607.82,425,606.45Z" />
            <path class="outline"
                d="M475.33,599.24c0-.16,0-.31,0-.46s.12-.34.19-.51c.39-.42.73-.58.83.2s.14,1.33.2,2l-1.11-1Z" />
            <path class="color-shadow" d="M443.26,598.11a3.8,3.8,0,0,1-3.63.39Z" />
            <path class="outline"
                d="M502.28,601.43a11.36,11.36,0,0,0,.68-1.62c.07-.26-.14-.6-.22-.9a6.81,6.81,0,0,1,.76-.26s.24.38.18.48C503.24,599.91,502.76,600.66,502.28,601.43Z" />
            <path class="outline" d="M373.72,604.52c.12.73.25,1.46.38,2.2a4,4,0,0,1-.89-3.62h.25Z" />
            <path class="color-shadow" d="M466.77,596.65c-.9.85-1.9.46-2.89.22v-.24Z" />
            <path class="outline"
                d="M344.59,603.34c0-.71,0-1.42,0-2.13,0-.09.37-.17.57-.25l-.06.47c0,.27.05.54.08.81s.06.74.1,1.11Z" />
            <path class="color-shadow"
                d="M475.33,599.24l.15.28c0,.63,0,1.26,0,1.88l-.12.77A2.56,2.56,0,0,1,475.33,599.24Z" />
            <path class="outline" d="M469.16,607.64l2.66-.17C471,608.28,470.06,607.92,469.16,607.64Z" />
            <path class="outline" d="M482.82,606.81h2.69A2.24,2.24,0,0,1,482.82,606.81Z" />
            <path class="color-base" d="M408.48,619.2l1.65-2.39Z" />
            <path class="outline"
                d="M456.92,607.91c.2-.65.41-1.3.61-1.94,0-.16,0-.32.07-.48h.27c-.18.84-.37,1.69-.55,2.53Z" />
            <path class="outline"
                d="M439.42,608.2c-.05-.75-.11-1.49-.16-2.24.26.63.54,1.26.75,1.9C440,607.9,439.63,608.09,439.42,608.2Z" />
            <path class="outline" d="M343.62,608.47l1.76-.58c0,.29.05.58.08.87Z" />
            <path class="outline" d="M377.61,607.94c-.21-.53-.41-1.07-.61-1.61l1,.61.54.92Z" />
            <path class="outline" d="M348.9,608.7l2.43.14Z" />
            <path class="color-shadow" d="M414.2,609.59h.49L413.24,612Z" />
            <path class="color-shadow"
                d="M457.87,605.5h-.27c.23-.88.47-1.77.71-2.65l.09.52c0,.15,0,.31-.08.46-.12.41-.25.82-.37,1.23Z" />
            <path class="outline" d="M419.71,609.57l.06-2.35c.15.79.29,1.57.44,2.36l-.06.07Z" />
            <path class="outline"
                d="M371.72,608.4c.16-.65.31-1.29.47-1.94.06.56.16,1.12.17,1.68C372.36,608.22,372,608.31,371.72,608.4Z" />
            <path class="color-base" d="M421.31,613.61l.9,2.78Z" />
            <path class="outline" d="M493.35,605.25c0,.55.06,1.06.8,1.07l-1.09.22Z" />
            <path class="outline"
                d="M412,627.35l-.11,0-.12,0c.21-.8.43-1.6.64-2.4,0,.33-.05.66-.08,1l-.11.47-.14.48Z" />
            <path class="color-shadow"
                d="M394.52,603.58a2,2,0,0,1,.22-.84c.08-.11.58-.06.7.08s0,.5,0,.76C395.16,603.06,394.84,603.07,394.52,603.58Z" />
            <path class="color-base" d="M422.68,617.47c.35.67.69,1.35,1,2C423.37,618.81,423,618.14,422.68,617.47Z" />
            <path class="color-shadow" d="M450.46,597.66l-1.94.16v-.24Z" />
            <path class="outline" d="M346.49,606.25l.24,1.19-.9-2,.49.47Z" />
            <path class="outline" d="M388,605.51h-.29c0-.32-.05-.65-.07-1h.62l.49,1Z" />
            <path class="outline" d="M459.12,606.7c-.08.4-.17.79-.25,1.19-.63-.53-.58-1.08.18-1.92l.15.3Z" />
            <path class="color-base" d="M407.93,640.31l1.71.93-.48,0-1.22-.37Z" />
            <path class="outline" d="M449,607.89c-.09-.39-.17-.78-.25-1.17l.82.73Z" />
            <path class="outline" d="M423.3,601.9l1.34,1Z" />
            <path class="outline" d="M363.77,596l1.71.11Z" />
            <path class="outline" d="M346,597.83l-1.71.11Z" />
            <path class="outline" d="M350.12,597.59l-1.7.13Z" />
            <path class="outline" d="M353,596.4l1.68,0Z" />
            <path class="color-base" d="M428.78,617.77l-.73-1.79C428.29,616.57,428.54,617.17,428.78,617.77Z" />
            <path class="color-shadow" d="M415.19,608.66l.34-1.09.38.09-.28,1.2Z" />
            <path class="outline" d="M345.29,607.43,344.9,606Z" />
            <path class="outline" d="M339.59,598l-1.47-.12Z" />
            <path class="color-shadow" d="M462.46,596.93l-1.47.12Z" />
            <path class="outline" d="M372.18,604.8h-.25c0-.48,0-1,.05-1.45C372.76,603.73,372.48,604.26,372.18,604.8Z" />
            <path class="color-shadow" d="M455,597.42l-1.47.15v-.23Z" />
            <path class="color-shadow" d="M384.44,599l-1.46-.19,1.46-.05Z" />
            <path class="color-shadow" d="M396,600.19l-1.47-.12Z" />
            <path class="color-base" d="M420.8,612l.33-.46.27.64c-.07.33-.15.66-.22,1Z" />
            <path class="outline" d="M359.48,597.11l-1.46.13Z" />
            <path class="outline" d="M411.89,622.56l.4-1.45Z" />
            <path class="color-base" d="M412.34,625.93c0-.33.05-.66.08-1,0-.16.07-.32.1-.47l.1,0,.11,0Z" />
            <path class="outline" d="M374.23,607.31c.28.36.57.71.85,1.06C374.39,608.44,374.3,608.32,374.23,607.31Z" />
            <path class="color-shadow" d="M459.36,603.83h.23c0,.42-.11.83-.17,1.24Z" />
            <path class="color-shadow" d="M439.17,598.56c-.32.71-.75.54-1.22.16Z" />
            <path class="outline" d="M439.11,600.68l.73.28-.83.72-.06-.49C439,601,439.06,600.85,439.11,600.68Z" />
            <path class="outline" d="M340.51,608.19l1.22.18Z" />
            <path class="outline" d="M373,597.73l-1.23-.14Z" />
            <path class="color-shadow" d="M445.91,597.9l-1.23.15v-.24Z" />
            <path class="outline" d="M352.28,608.83l1.21-.18Z" />
            <path class="outline" d="M458,605.05c.12-.41.25-.82.37-1.23C458.2,604.23,458.07,604.64,458,605.05Z" />
            <path class="color-shadow" d="M396,606l.54,1.34Z" />
            <path class="outline" d="M410.21,628.32l.38-1.22Z" />
            <path class="color-shadow" d="M345.41,603.31c.15.41.3.82.44,1.24l-.5-.73Z" />
            <path class="outline" d="M411.65,627.8l-.36,1.22Z" />
            <path class="transparent" d="M413.31,622.09l.68,0,0,.74-.35.32-.28-.22-.15-.35Z" />
            <path class="outline" d="M345.35,603.82l.5.73-.06.48C345.65,604.63,345.5,604.22,345.35,603.82Z" />
            <path class="color-shadow" d="M449.05,605.34l0-.57c.26.31.52.61.77.92l-.09.07-.46-.26Z" />
            <path class="outline" d="M413.93,614.4l-.46-.06c.18-.19.36-.39.55-.58Z" />
            <path class="outline" d="M330.22,596.81l-1-.19Z" />
            <path class="color-shadow" d="M437,598.81c-.24.64-.58.57-1,.15Z" />
            <path class="outline" d="M371.69,596.51l1,.12Z" />
            <path class="outline" d="M471.8,596.14l-1,.12Z" />
            <path class="outline" d="M331.66,597.06l-1-.19Z" />
            <path class="color-shadow" d="M392.6,600l-1-.16,1-.07Z" />
            <path class="outline" d="M375.83,598l-1-.14Z" />
            <path class="outline" d="M358.28,596.16l1,0Z" />
            <path class="outline" d="M364.55,597.2l-1-.09Z" />
            <path class="color-base" d="M407.58,620.45l.65-1Z" />
            <path class="outline" d="M380.63,598.45l-1-.14Z" />
            <path class="outline" d="M434.85,608.42l1,0Z" />
            <path class="color-shadow" d="M426.69,609.6c0,.24,0,.48,0,.72l-.73-.49Z" />
            <path class="outline" d="M493.57,603.8c-.05.33-.11.66-.16,1C493.46,604.46,493.52,604.13,493.57,603.8Z" />
            <path class="outline" d="M369.59,597.47l-1-.12Z" />
            <path class="outline" d="M334.79,597.5l-1-.15Z" />
            <path class="outline" d="M475.35,602.17l.12-.77c0,.33.09.66.14,1l-.23,0Z" />
            <path class="outline" d="M407.94,640.89l1.22.37Z" />
            <path class="outline" d="M464.37,607.42l.48.29-.46.29Z" />
            <path class="color-shadow" d="M386.61,599.23l-.76-.12Z" />
            <path class="outline" d="M334.49,596l.75.14Z" />
            <path class="outline" d="M336.47,597.71l-.75-.13Z" />
            <path class="outline" d="M488.14,596.06l-.74.08a1.92,1.92,0,0,0,0-.24Z" />
            <path class="outline" d="M475.64,595.91l-.75.09Z" />
            <path class="outline" d="M448.52,597.58v.24l-.74-.11Z" />
            <path class="outline" d="M438.73,602.85l.19-.71c0,.24,0,.48,0,.72Z" />
            <path class="outline" d="M369.05,596.28l.75.11Z" />
            <path class="color-shadow" d="M475.38,602.42l.23,0c0,.23.06.47.08.7l-.16.28Z" />
            <path class="outline" d="M401.26,600.36l-.74.11v-.22Z" />
            <path class="outline" d="M381.77,597.47l.75.13Z" />
            <path class="color-shadow" d="M400.52,600.25v.22l-.73-.06Z" />
            <path class="outline"
                d="M344.83,605.51h-.26c0-.16-.05-.31-.07-.46s.11-.2.17-.29C344.73,605,344.78,605.26,344.83,605.51Z" />
            <path class="outline" d="M491.85,605.54l-.12-.7a.46.46,0,0,1,.23-.06Z" />
            <path class="color-shadow" d="M459.2,606.27l-.15-.3c0-.15.05-.3.07-.45h.27Z" />
            <path class="outline" d="M439.19,605.5c0-.25-.09-.5-.13-.75C439.1,605,439.15,605.25,439.19,605.5Z" />
            <path class="outline" d="M332.87,597.26l-.75-.15Z" />
            <path class="outline" d="M338.09,596.5l.75.12Z" />
            <path class="outline" d="M378,598.2l-.75-.13Z" />
            <path class="outline" d="M475.53,603.37l.16-.28.15.75h-.27C475.56,603.67,475.55,603.52,475.53,603.37Z" />
            <path class="color-shadow" d="M492.45,596.84l-.75-.15Z" />
            <path class="outline" d="M444.68,597.81v.24l-.74-.1Z" />
            <path class="color-shadow" d="M346.32,605.94l-.49-.47c0-.16.05-.32.07-.49Z" />
            <path class="color-shadow" d="M434.87,599.1l-.76.1Z" />
            <path class="outline" d="M379.85,597.24l.75.13Z" />
            <path class="outline" d="M348.92,596.63l.73,0Z" />
            <path class="color-shadow" d="M489.57,596.35l-.75-.12Z" />
            <path class="outline" d="M431.49,608.64l.71,0Z" />
            <path class="outline" d="M332.39,604.76l.48.73Z" />
            <path class="color-shadow" d="M408.9,606.67l.63-.57Z" />
            <path class="outline" d="M449.24,605.5l.46.26.06.44C449.59,606,449.42,605.73,449.24,605.5Z" />
            <path class="color-shadow" d="M390.45,599.7l-.52-.07Z" />
            <path class="color-base" d="M429.22,619.23l-.15-.51Z" />
            <path class="outline" d="M492.42,595.75l.51.13Z" />
            <path class="color-shadow" d="M487.4,595.9a1.92,1.92,0,0,1,0,.24l-.51-.12Z" />
            <path class="outline" d="M336.41,596.27l.51.12Z" />
            <path class="color-shadow" d="M494.61,597.32l-.51-.13Z" />
            <path class="outline" d="M467.73,596.39a1.93,1.93,0,0,0,0,.24l-.5-.12Z" />
            <path class="outline" d="M491.5,596.55l-.5.07v-.24Z" />
            <path class="color-base" d="M429.1,621.57l.12-.51Z" />
            <path class="outline" d="M463.88,596.63v.24l-.5-.11Z" />
            <path class="color-shadow" d="M491,596.38v.24l-.51-.14Z" />
            <path class="outline" d="M375.29,596.77l.51.1Z" />
            <path class="color-shadow" d="M395.6,604.51l.13.51Z" />
            <path class="color-base" d="M413.18,622.55l.15.35-.3.13Z" />
            <path class="outline" d="M498.94,605.27l.37-.59Z" />
            <path class="color-base" d="M427.31,623l.66,0Z" />
            <path class="outline" d="M411.64,623.52l.14-.5Z" />
            <path class="outline" d="M413,623v.51a.17.17,0,0,0-.19,0Z" />
            <path class="outline" d="M453.56,597.34v.23l-.5-.12Z" />
            <path class="outline" d="M459.39,605.51h-.27c.07-.17.13-.33.19-.5Z" />
            <path class="color-base" d="M412.76,623.51a.17.17,0,0,1,.19,0l-.15.5Z" />
            <path class="outline" d="M412.73,624.47l-.11,0-.1,0,.21-.5Z" />
            <path class="color-shadow"
                d="M438.73,602.85H439c0,.17-.07.34-.1.51C438.81,603.2,438.77,603,438.73,602.85Z" />
            <path class="color-shadow" d="M440.92,606l.17.51Z" />
            <path class="outline" d="M411.16,625.2l.15-.5Z" />
            <path class="outline" d="M491.53,606.49l.25-.49Z" />
            <path class="outline" d="M494.84,606.23l.51-.14Z" />
            <path class="outline" d="M476.71,601.16l.13.51Z" />
            <path class="outline" d="M451.16,607.66l.48.27Z" />
            <path class="outline" d="M462,607.88l.47-.23Z" />
            <path class="outline" d="M389,608.62l.06-.25.3.35Z" />
            <path class="outline" d="M392.6,600v-.23l.5.12Z" />
            <path class="color-shadow" d="M373.46,603.09h-.25l.15-.48C373.39,602.78,373.43,602.93,373.46,603.09Z" />
            <path class="outline" d="M384.44,599v-.24l.5.13Z" />
            <path class="outline" d="M499.19,598.69l-.61-.3Z" />
            <path class="outline" d="M382,598.81v-.26l.5.15Z" />
            <path class="outline" d="M355.4,597.35l-.51.09Z" />
            <path class="outline" d="M409.14,636.45,409,637Z" />
            <path class="outline" d="M496.55,597.74l-.61-.31Z" />
            <path class="color-base" d="M410.28,616.63l.33-.54Z" />
            <path class="outline" d="M458.37,597.16l-.51,0Z" />
            <path class="outline" d="M420.88,616.85a.85.85,0,0,1-.27.11s-.1-.15-.08-.17a.94.94,0,0,1,.23-.16Z" />
            <path class="outline" d="M377.45,597l.51.08Z" />
            <path class="outline" d="M380.61,595.86l1,.12Z" />
            <path class="outline" d="M372.37,595l.58.26Z" />
            <path class="outline" d="M377.72,595.66h0Z" />
            <path class="outline" d="M333.27,594.26l.56.34Z" />
            <path class="outline" d="M365.26,594.73l-.05-.42h.29c0,.14,0,.28-.05.43h-.1Z" />
            <path class="transparent"
                d="M426.9,649l.28.63c.25.57.5,1.13.74,1.69l0,0v1l0,0c-1.09.3-1.63-.24-2-1.2a18.58,18.58,0,0,0-1.08-2l-.27-.62a5.42,5.42,0,0,0-.08-.81q-1.29-4.9-2.62-9.81c-.18-.67-.41-1.31-.62-2l-.06-.71-.15-.51-.09-.93-.15-.5-.33-2.86.78-.57.09,0,.07.07c.07.35.13.71.2,1.06l.1.47c.12.56.25,1.13.37,1.7l.09.45.13.45-.1.38-.09,0,.09,0,.2.06.15.53-.11.38-.09,0,.09,0,.2.06c.3,1.07.59,2.15.89,3.22,0,.16.07.31.1.47l.61,1.93.09.47c.6,2,1.18,4,1.82,6.05A7.6,7.6,0,0,0,426.9,649Z" />
            <path class="transparent"
                d="M421.07,627.87l.14.93c-.09.23-.19.47-.28.71l-.6-.3-.11-.68c-.05-.41-.11-.82-.16-1.23l-.25-.46c0-.31,0-.62-.07-.93l-.58-6.55.43-.06c.22,1.25.44,2.49.67,3.74l.1.5.12.94.11.51.14.93.12.5c0,.31.07.62.11.94Z" />
            <path class="color-base"
                d="M421.22,636c.21.66.44,1.3.62,2q1.32,4.91,2.62,9.81a5.42,5.42,0,0,1,.08.81c-.9-2.91-1.84-5.81-2.66-8.74A37.73,37.73,0,0,1,421.22,636Z" />
            <path class="color-base"
                d="M426.9,649a7.6,7.6,0,0,1-.78-1.38c-.64-2-1.22-4-1.82-6.05.32.78.68,1.56,1,2.37C425.83,645.56,426.35,647.26,426.9,649Z" />
            <path class="color-base"
                d="M424.81,649.17a18.58,18.58,0,0,1,1.08,2c.39,1,.93,1.5,2,1.2-1,.67-1.62.6-2.06-.37S425.15,650.12,424.81,649.17Z" />
            <path class="color-base"
                d="M423.5,638.65c-.3-1.07-.59-2.15-.89-3.22C422.91,636.5,423.2,637.58,423.5,638.65Z" />
            <path class="color-base" d="M424.21,641.05l-.61-1.93Z" />
            <path class="color-base"
                d="M420.33,629.21l.6.3h0l.26.37h0l-.78.57C420.4,630,420.37,629.62,420.33,629.21Z" />
            <path class="color-base"
                d="M427.92,651.27c-.24-.56-.49-1.12-.74-1.69C427.43,650.15,427.68,650.71,427.92,651.27Z" />
            <path class="color-base"
                d="M422.05,633.14c-.12-.57-.25-1.14-.37-1.7C421.8,632,421.93,632.57,422.05,633.14Z" />
            <path class="color-base" d="M420.06,627.3c.05.41.11.82.16,1.23C420.17,628.12,420.11,627.71,420.06,627.3Z" />
            <path class="color-base" d="M419.74,625.91c0,.31.05.62.07.93C419.79,626.53,419.77,626.22,419.74,625.91Z" />
            <path class="color-base" d="M421.58,631c-.07-.35-.13-.71-.2-1.06C421.45,630.26,421.51,630.62,421.58,631Z" />
            <path class="color-base" d="M420.93,629.51c.09-.24.19-.48.28-.71l.09.71h-.37Z" />
            <path class="color-base" d="M428,652.34v-1C428.52,651.65,428.68,652,428,652.34Z" />
            <path class="color-base" d="M420.36,623.54l-.1-.5Z" />
            <path class="color-base" d="M420.59,625l-.11-.51Z" />
            <path class="color-base" d="M420.85,626.42l-.12-.5Z" />
            <path class="color-base" d="M421.07,627.87l-.11-.51Z" />
            <path class="color-base" d="M420.77,633.31l.15.5Z" />
            <path class="color-base" d="M422.27,634l-.13-.45Z" />
            <path class="color-base" d="M422.52,635l-.15-.53Z" />
            <path class="color-base" d="M421,634.74l.15.51Z" />
            <path class="transparent" d="M420.92,629.5h.38l-.12.36Z" />
            <path class="color-base" d="M422.17,634.41l-.09,0,.09,0Z" />
            <path class="color-base" d="M422.41,635.37l-.09,0,.09,0Z" />
            <path class="color-base"
                d="M411.59,639.81c.13-1.68.2-3.36.4-5,.33-2.66.75-5.31,1.15-8,0-.16.19-.31.28-.46-.23,2.16-.45,4.32-.7,6.48-.21,1.77-.45,3.54-.67,5.3Z" />
            <path class="color-base" d="M413.54,625.89l.15-1.19Z" />
            <path class="color-base" d="M413.61,623.12l.35-.32-.18.7Z" />
            <path class="outline" d="M416.26,614.37a2.51,2.51,0,0,0,0,.27l-.2-.09Z" />
            <path class="color-shadow" d="M377.48,594.69l0-.5.31.29Z" />
            <path class="outline" d="M503,585.85l-.21.47Z" />
            <path class="outline" d="M418.48,606.34l.45-.16,0,.53Z" />
            <path class="color-base" d="M411.26,641.58l.22-.59Z" />
            <path class="outline" d="M488.8,606.23l-.65,0-.75-1.91.63-1.08c.14.39.29.78.44,1.18l.24.65Z" />
            <path class="outline" d="M488,603.22l-.63,1.08h-.26c0-.72,0-1.45,0-2.17l.7.05Z" />
            <path class="color-shadow" d="M487.85,602.19l-.7-.05.24-.86Z" />
            <path class="color-shadow" d="M493.17,598.92l-.69,1.35C492.65,599.79,491.8,598.79,493.17,598.92Z" />
            <path class="color-shadow"
                d="M481.45,605.42c-.17-.21-.34-.43-.52-.64C481.11,605,481.28,605.21,481.45,605.42Z" />
            <path class="outline" d="M488.71,605.05l-.24-.65.36.16Z" />
            <path class="color-shadow"
                d="M477.62,603.82c-.06-.18-.13-.35-.19-.52C477.49,603.47,477.56,603.64,477.62,603.82Z" />
            <path class="color-shadow" d="M447.88,605.43l.3.6Z" />
            <path class="color-shadow" d="M458.75,601.15l-.27.61Z" />
            <path class="color-shadow" d="M439.11,600.68c-.05.17-.11.34-.16.51C439,601,439.06,600.85,439.11,600.68Z" />
            <path class="color-shadow" d="M459.35,600.9l-.51,0,.29-.38Z" />
            <path class="color-shadow"
                d="M475.56,598.27c-.07.17-.13.34-.19.51C475.43,598.61,475.49,598.44,475.56,598.27Z" />
            <path class="color-shadow" d="M480.18,604.21l-.27.33c0-.12-.06-.24-.08-.35Z" />
            <path class="color-shadow" d="M458.42,601.94a.37.37,0,0,1,0,.18l-.17-.1Z" />
            <path class="color-shadow"
                d="M413.64,602.63c-.13-.26-.25-.53-.38-.79.15-.17.3-.46.47-.47a16.34,16.34,0,0,1,1.85,0Z" />
            <path class="color-shadow" d="M364.47,605.06l-.69-.31.77-.4Z" />
            <path class="color-shadow" d="M388.28,604.55h-.62c-.07-.13-.14-.26-.2-.39Z" />
            <path class="color-shadow" d="M415.87,600.49h.79l.06.18-.79.33Z" />
            <path class="color-shadow" d="M345.21,602.24c0-.27,0-.54-.08-.81C345.16,601.7,345.18,602,345.21,602.24Z" />
            <path class="color-shadow"
                d="M363.08,605.5c-.17.22-.35.43-.53.64C362.73,605.93,362.91,605.72,363.08,605.5Z" />
            <path class="color-base"
                d="M344.5,605.06c0,.15.05.3.07.46-1,1.07-2.07.09-3.1.13a20.81,20.81,0,0,1-3.48-.43c-.13-.36-.27-.73-.41-1.09l-.28-.69-.41.3-.05,0c-.21.3-.43.6-.72,1l-4.44-1.69c-.15-.48-.31-1-.46-1.44.21-.86.67-.87,1.53-.83,3,.14,5.94,0,8.91,0,.31,0,.62-.11.94-.12,1.54-.07,1.49-.06,1.53,1.48A25.14,25.14,0,0,0,344.5,605.06Z" />
            <path class="outline"
                d="M415.21,606.86,414,609.55c-.62.93-1.27,1.84-1.87,2.79a41.63,41.63,0,0,1-7.12,8.59c-.64.58-1.37,1.54-2.36.79s-.3-1.77.12-2.49a53.08,53.08,0,0,1,4.12-6.42c1.88-2.34,4.08-4.43,6.14-6.63l1.21-1.14c.53-.48,1-1,1.59-1.43.13-.11.38-.08.58-.11,0,.19.14.42.07.58C416.05,605,415.62,605.94,415.21,606.86Zm-3.07,3c-1.47.07-6.73,6.71-7.25,9.07A40.34,40.34,0,0,0,412.14,609.89Zm.21-.61,1.67-2.22C412.2,608,412.2,608,412.35,609.28Z" />
            <path class="color-base"
                d="M420.21,609.58c-.15-.79-.29-1.57-.44-2.36l.59-.55c.34.72.67,1.45,1,2.17l-.19,1.83Z" />
            <path class="color-base" d="M413.31,604.34l-.07-.76,1.22-.19Z" />
            <path class="color-base" d="M414.19,605,413,606.18Z" />
            <path class="color-base" d="M414.48,603.36l.95-.69Z" />
            <path class="color-base" d="M416.61,602l.46-.29Z" />
            <path class="color-base" d="M420.75,604.62l-.48.2.1-.46Z" />
            <path class="color-base" d="M412.09,626.88l.14-.48Z" />
            <path class="outline"
                d="M421.18,610.67l.19-1.83.35-.05c.2-.19.41-.37.6-.56s.35-.38.52-.58l2.58,4.6,1.83,5.46v1l-.75.85-.56-.1a12.82,12.82,0,0,1-3.62-6.24l-.79-2.23-.37-.37Zm4.94,6.9c-.89-2.38-1.75-4.78-2.7-7.13-.14-.36-.7-.54-1.07-.8l-.3.34a24.26,24.26,0,0,0,3.64,7.67l.31.28Z" />
            <path class="color-base" d="M427.25,618.74v0Z" />
            <path class="color-base" d="M425.94,619.49l.56.1Z" />
            <path class="color-shadow" d="M421.41,606.94l-.1,0,.09.05Z" />
            <path class="color-shadow" d="M336.89,603.74l.41-.3.28.69Z" />
            <path class="outline" d="M421.88,607.19l.16.11-.16-.12Z" />
            <path class="color-base" d="M421.16,610.65l.37.37-.33.19Z" />
            <path class="outline" d="M459.07,602.68s.07,0,.08,0,0,0,0,.08l-.13-.07Z" />
            <path class="transparent"
                d="M412.14,609.89a40.34,40.34,0,0,1-7.25,9.07C405.41,616.6,410.67,610,412.14,609.89Z" />
            <path class="color-shadow" d="M412.35,609.28c-.15-1.24-.15-1.24,1.67-2.22Z" />
            <path class="color-base"
                d="M425.69,617.65a24.26,24.26,0,0,1-3.64-7.67l.3-.34c.37.26.93.44,1.07.8.95,2.35,1.81,4.75,2.7,7.13Z" />
            <path class="outline" d="M425.69,617.65l.43-.08-.12.36Z" />
        </g>
    </g>
</svg>
