<svg id="Nizy_classic" data-name="Nizy classic" xmlns="http://www.w3.org/2000/svg" viewBox="0 0 672 960">
    <g id="img_17" data-name="img 17">
        <g id="img_14_img" data-name="img 14 img">
            <path class="outline"
                d="M506.69,592.89c.52,1.22,1,2.3,1.43,3.41,2,5.44,3.92,10.9,5.92,16.34.59,1.61,1.35,3.16,2,4.76.87,2.22.58,3.64-1.45,4.85a134,134,0,0,1-12.56,7c-3,1.39-6.42,1.91-9.63,2.89-1.95.6-3.87,1.28-5.77,2a9.19,9.19,0,0,0-2.24,1.36c-1.06.86-1.1,1.59-.34,2.71,2,2.93,1.48,4.36-2.1,4.7a56.85,56.85,0,0,1-8.85,0,126.93,126.93,0,0,1-13.24-1.2c-4.49-.76-8.9-2.06-12.38-5.33a7.46,7.46,0,0,0-5.48-2c-2.83.06-5.67.27-8.5.3-4,0-8-.05-12,0a27.77,27.77,0,0,0-9.1,1.24c-.46.16-.9.35-1.33.54-.1,0-.15.17-.33.36l1.42.89a23,23,0,0,1,2.09,1.39,2.14,2.14,0,0,1-.1,3.72,15.19,15.19,0,0,1-8.22,2.69c-9.45.64-18.69-.22-27.39-4.36a35.06,35.06,0,0,0-13.19-3.24c-4.91-.29-9.82-.47-14.74-.69a5.82,5.82,0,0,0-.75.09c-.09,2.06-1.48,3-3.18,3.44a24.09,24.09,0,0,1-20-3.11,2.9,2.9,0,0,1-1.5-2.56c0-.45-.64-1-1.13-1.33-3.15-1.81-6.33-3.59-9.53-5.31-2.84-1.52-3.4-3.41-1.85-6.29a12.13,12.13,0,0,0,1.37-3.44c1.06-5.58,3.3-10.76,5.17-16.07,1.71-4.83,3.42-9.65,5.17-14.46.18-.5.65-1.16,1.06-1.23a1.71,1.71,0,0,1,1.32.9,5.47,5.47,0,0,0,2.9,2.55,30.63,30.63,0,0,0,12.39,2.91c6.16.18,12.19-.89,18.28-1.43,5.89-.53,11.74-1.42,17.68-1.31,4.15.09,8.31,0,12.46,0s8.15.39,12.23.36c10.11-.07,20.23-.24,30.34-.42,6.88-.12,13.75-.31,20.63-.51,8.51-.25,17-.64,25.52-.77A46.12,46.12,0,0,1,493,591.14c2.76.81,5.58,1.41,8.37,2.11a5.66,5.66,0,0,1,.9.32c.77.33,1.57,1,2.29.93S505.86,593.56,506.69,592.89Zm-64.9,20.57c-.65-3.13-1.31-6.25-2-9.38l-.12-.51c-.47-2.17-.95-4.34-1.42-6.51-.1-.59-.17-1.19-.31-1.77-.59-2.37-.59-2.37-3.05-2.29-.08,0-.19,0-.23,0a4.72,4.72,0,0,0-.86.87,1.43,1.43,0,0,0-.1.7c-.39-.52-.72-1.42-1.19-1.49a27.82,27.82,0,0,0-4.2-.08c.14,3.07.28,6,.42,8.85l-.37,0c-.51-2.89-1-5.79-1.57-8.85-1.25,0-2.55,0-3.86,0a.92.92,0,0,0-.65.55c-.37,1.39-.66,2.79-1,4.18l-.42.25-.16-.24v-.45a27.52,27.52,0,0,1,.48-3c.32-1.19-.19-1.35-1.2-1.33-6,.11-12.05.18-18.07.26a4.38,4.38,0,0,0-.68.15l.38,2.66-.45.1a17.24,17.24,0,0,1-.45-2.11c-.05-.61-.26-.83-.87-.83-1.44,0-2.88,0-4.31-.05-2.26-.1-2.28-.13-2.7,2.12-1,5.13-2,10.28-2.92,15.41-.18.94-.34,1.89-.58,2.81-.07.25-.43.42-.65.63l1-7.2.07-.75.15-.94.11-1,.13-1.18.09-.5.14-1.18.08-.5.54-5,.66-2.88c-1.56,0-2.95-.07-4.33,0a2,2,0,0,0-1.35.86c-.77,1.36-1.36,2.81-2,4.2a14,14,0,0,1-.93,1.39l-.33-.15c.55-2,1.11-4,1.73-6.2-1.32,0-2.36.06-3.38,0s-1.24.2-1.28,1.18c-.06,1.47-.36,2.94-.56,4.41l-.37,0c.1-1.54.12-3.09.31-4.63.1-.83-.13-1.08-.92-1-2.24.09-4.47.14-6.71.21s-2.23.07-2.55,2.21c-.07.48-.12,1-.16,1.43-.34,3.33-.65,6.67-1,10,0,.29-.41.54-.63.81l0-1.68.12-2.9.18-4.53c.08-1.26.14-2.53.26-3.79.09-.92-.25-1.21-1.16-1.09-3.77.48-7.53.94-11.3,1.33-.86.09-1.12.46-1.24,1.24-.3,2-.67,3.94-1,5.9l0,.67-.65.55.63-8a7.06,7.06,0,0,0-.84,0c-3,.24-6,.46-9.06.77-.32,0-.75.53-.86.89-.42,1.5-.73,3-1.1,4.53a4.22,4.22,0,0,1-.27.7l-.19-.09.47-6c-1.9-.53-2.05-.47-2.79,1.21-.19.44-.35.89-.53,1.33a.19.19,0,0,0-.13.14,9.25,9.25,0,0,1,.14-1.91c.23-.86.05-1.18-.87-1.36a38.48,38.48,0,0,1-4.83-1.25c-2.11-.69-2.09-.75-2.93,1.27l-3.36,7.47-4.24,8.57-.37-.18,4-9.53c1.14-2.72,2.29-5.43,3.4-8.16a1.1,1.1,0,0,0-.21-1c-.82-.61-1.73-1.11-2.81-1.78l-1.36,3.71c-2.61,7.21-5.24,14.41-7.84,21.62a22,22,0,0,0-.6,2.55,37.56,37.56,0,0,1-1.09,4.63c-.52,1.44-.55,1.81.84,2.59,3,1.68,6,3.33,9,5,.82.46,1.58,1,2.43,1.55l6.25-15.85.36.13c-.67,2.33-1.3,4.67-2,7-1.09,3.47-2.24,6.92-3.38,10.37-.22.67-.31,1.22.42,1.65a21.64,21.64,0,0,0,17,2.46c1-.27,2.07-.57,1.53-2.07-.08-.21.12-.53.17-.8.15-.81.29-1.63.43-2.44l.07-.47.18-1,.07-.46.12-.51.15-.93.11-.51.82-4.29.11-.51c.4-2.33.79-4.65,1.22-7a7.88,7.88,0,0,1,.52-1.34c-.25,3.09-.49,6.17-.74,9.26,0,.16-.06.31-.08.47-.21,2.55-.42,5.1-.65,7.64-.08.84.15,1.23,1.09,1.27,3.95.13,7.9.27,11.85.51,4.79.29,9.57.74,14.09,2.56,2.44,1,4.82,2.14,7.31,3a53.19,53.19,0,0,0,21.88,2.3,29.86,29.86,0,0,0,5.88-1.56c.88-.27.89-.84.07-1.33a19.88,19.88,0,0,1-2.35-1.43c-1.5-1.19-2.74-2.56-2.31-4.71q.5-2.57,1-5.11,1.22-6.11,2.44-12.21l.1-.72a.17.17,0,0,0,0-.19l.23-1a.16.16,0,0,0,0-.16l1.55-7.11.5.33c-.14,1.12-.29,2.24-.43,3.37-.13.85-.27,1.71-.38,2.57q-1.29,9.67-2.55,19.35a4.19,4.19,0,0,0,.08.95c.43-.12.74-.19,1-.3,3.93-1.5,8.06-1.53,12.17-1.59,3.68-.06,7.35.11,11,.1,2.63,0,5.27-.21,7.9-.17a9.17,9.17,0,0,1,6.62,2.66,11,11,0,0,0,2.46,1.89,32.61,32.61,0,0,0,12.51,3.8c3.3.31,6.61.53,9.92.68,2.43.11,4.87.07,7.31,0,.69,0,1.46,0,1.11-1.24-.81-2.84-1.54-5.71-2.22-8.58-1.52-6.4-3-12.82-4.48-19.23l-.18-.69.23-.82.32,0q3.49,11.58,7,23.22l3.51-2.25,4-1.5,9.07-2.65c5.53-1.61,10.07-5.16,15.09-7.77a1,1,0,0,0,.45-1.4l-2.78-6.48Q508.94,605,506,598.19a2.35,2.35,0,0,0-1-1.06,18.81,18.81,0,0,0-2.32-1l-3.41-1.28-.28.31,7.06,12.1-.33.18c-1.63-2.09-3.32-4.14-4.87-6.29s-2.83-4.35-4.35-6.44c-.36-.49-1.18-.64-1.78-1a7.49,7.49,0,0,0-.19,1.39c.09,2.19.23,4.37.35,6.55-.92-2.55-1.53-5.14-2.23-7.71a1.74,1.74,0,0,0-1-1.06,34.36,34.36,0,0,0-10.28-1.47c-.75,0-1.06.21-1.07,1,0,2-.12,4-.23,6,0,.77-.17,1.53-.3,2.56-.22-.36-.31-.44-.32-.53-.25-2.66-.53-5.32-.72-8-.05-.77-.26-1-1.05-1-3.16.05-6.32.09-9.47,0-1.19,0-1.41.42-1.35,1.47.08,1.43,0,2.87,0,4.31a20.31,20.31,0,0,1-1.3-4.47c-.15-.86-.5-1.14-1.34-1.1-2.63.13-5.26.19-7.9.3-1.32.06-1.34.18-.87,1.44.6,1.61,1.14,3.24,1.71,4.86l-.32.15c-1-1.83-2-3.67-3.1-5.45a1.51,1.51,0,0,0-1.23-.49c-.25,0-.64.52-.69.85a12.85,12.85,0,0,0,0,2.06h-.4c-.08-.65-.2-1.3-.23-2s-.32-1-1-.94c-2,.1-4,.12-6,.21-1.5.07-3,.2-4.61.31,0,.53,0,1,.09,1.39q.92,6.63,1.84,13.27c.2,1.4.44,2.79.66,4.18l.06,1.45Z" />
            <path class="color-base"
                d="M474.9,611.51l.18.69a3.55,3.55,0,0,0-.32,1.26c.34,2.48.59,5,1.16,7.4,1.17,4.91,2.47,9.78,3.85,14.63.5,1.77.54,1.9-1.29,2a70.91,70.91,0,0,1-15.12-1c-1.89-.37-3.84-.49-5.68-1a43.62,43.62,0,0,1-5.62-2.25,54.89,54.89,0,0,0-20.52-4.35c-2.09-.08-4.2.37-6.3.42-3.73.07-7.47,0-11.21,0-.8,0-1.1-.36-1-1.1.22-2.25.45-4.5.64-6.76a19.86,19.86,0,0,0,.24-4.27,54.54,54.54,0,0,0-1.31-5.87l.43-3.37a5.42,5.42,0,0,0,.37-3.24l-.4,0-.47,3c-.52,2.37-1,4.74-1.55,7.11l-.21,0,.17.13c-.08.33-.15.67-.23,1l-.2.08.17.12c0,.24-.07.48-.1.72-.37.3-.95.53-1.08.92-1.18,3.62-2.4,7.25-3.4,10.93-.85,3.14-1.42,6.36-2.18,9.53a1.44,1.44,0,0,1-.93.92c-1.54.17-3.1.24-4.65.26-4.26,0-8.36-1-12.44-2.05-2.15-.56-4.22-1.45-6.37-2-2.65-.7-5.37-1.13-8-1.82a32.25,32.25,0,0,0-15.34-.64c-.59.14-1.2.18-1.94.28v-1.47c0-4.84,0-9.68,0-14.51a6.48,6.48,0,0,0-.79-3.54c-.42-.73-.87-.82-1.27-.06a27.53,27.53,0,0,0-1.1,2.63,7.88,7.88,0,0,0-.52,1.34c-.43,2.32-.82,4.64-1.22,7,0,.17-.07.34-.11.51-.27,1.43-.54,2.86-.82,4.29,0,.17-.07.34-.11.51l-.15.93-.12.51c0,.15-.05.3-.07.46l-.18,1c0,.16-.05.31-.07.47-1.27,1.4-2.93,1.51-4.68,1.46s-3.77.14-5.63,0a34.4,34.4,0,0,1-4.95-1.14c-.94-.25-1.15-.84-.89-1.84.61-2.34,1-4.72,1.59-7.08s1.11-4.44,1.6-6.67a13.34,13.34,0,0,0,.44-3.53c0-.61-.77-1.2-1.27-1.72-.08-.07-.75.23-.94.51-1.12,1.64-2.27,3.28-3.24,5-1.5,2.67-2.89,5.41-4.28,8.14-.29.57-.62,1-1.1.35a17,17,0,0,0-5.3-4.4c-.88-.52-1-1-.43-1.93a35.63,35.63,0,0,0,2.79-4.87c1.42-3.24,2.68-6.56,3.94-9.86a13.59,13.59,0,0,0,.47-2.4l3.36-7.47c.49.17,1,.31,1.46.51,1.49.62,2.95,1.32,4.45,1.9.9.35,2.12.21,2,1.89l.38-.17.23-.88a.19.19,0,0,1,.13-.14c1.14-.05,1.55.58,1.53,1.64,0,.83-.05,1.67,0,2.5.11,1.13.9,1.55,1.85,1a3.63,3.63,0,0,0,1.15-1.31c.36-.69.5-1.5.83-2.21a1.45,1.45,0,0,1,.83-.77c1.36-.23,2.74-.33,4.12-.52.94-.12,1.88-.3,3-.48,0,1.83,0,3.44,0,5,0,.67.31,1.27,1.17,1.21s.72-.69.74-1.24c0-.24,0-.48,0-.72l0-.67c.29-.21.72-.36.85-.64a10.53,10.53,0,0,0,.92-2.57,1.79,1.79,0,0,1,1.65-1.58c3.14-.65,6.28-1.24,9.39-2,1.23-.3,1.36.17,1.36,1.16a12.89,12.89,0,0,0,.29,2l-.18,4.53-.12,2.9,0,1.68c-.68,2.52,0,4.83,1,7.14a2.06,2.06,0,0,0,.66-1c.43-2.46.95-4.92,1.19-7.4.36-3.64.5-7.3.8-11,0-.34.52-.79.89-.92a2.88,2.88,0,0,1,1.43,0c3.05.51,3,.52,3.19,3.64,0,.44.36,1.19.64,1.24,1.22.21,1.3,1,1.25,1.93,0,.56,0,1.12,0,1.68,0,1.79,1,2.46,2.68,2a7.81,7.81,0,0,1,1.75-.11l.09.4a2,2,0,0,0,.49-.47c1.09-2,2.17-3.95,3.21-6,.48-.93.61-2.32,1.34-2.76s2.17-.15,3.28-.18l-.54,5c0,.17-.05.33-.08.5-.05.39-.09.79-.14,1.18l-.09.5c0,.4-.08.79-.13,1.18s-.07.65-.11,1l-.15.94c0,.25-.05.5-.07.75-.32,2.4-.65,4.8-1,7.2l-.58,2.47.67.14.32-1.4c1-.92,2.45-1.76,3-3A71.56,71.56,0,0,0,395,603.9c.72-2.42,1.31-4.88,2-7.32.22-.8.91-.8,1.45-.63a1.9,1.9,0,0,1,1.12.95c.35.92.39,2,.77,2.87a1.92,1.92,0,0,0,1.31,1.09,1.85,1.85,0,0,0,1.29-1.11,9.62,9.62,0,0,0,.25-2.59c0-.77.3-1,1.11-.95,3.36.34,6.72.65,10.08.89,2.14.15,4.3.17,6.44.25,0,.15,0,.3,0,.45l-.18.4.34-.16.42-.25c.38-.06.76-.12,1.14-.2.72-.16,1.45-.35,2.18-.47s1.17.19,1.31,1c.27,1.65.57,3.29,1,4.91a20.15,20.15,0,0,0,1.19,3.59,1.56,1.56,0,0,0,1.38.49,1.77,1.77,0,0,0,1.2-.92,8.72,8.72,0,0,0,.29-2.36c.1-1.78.17-3.58.25-5.37.05-.92.37-1.43,1.46-1.38,1.86.08,3.72,0,5.58,0,.47,2.17.95,4.34,1.42,6.51l.12.51c.65,3.13,1.31,6.25,2,9.38a5.18,5.18,0,0,0,.6,3l.52-.11-.66-3-.06-1.44c.31.32.63.64.92,1s.71.84,1.19,1.43c.21-.53.37-.75.36-1-.11-2.42-.17-4.85-.4-7.26-.25-2.69-.69-5.36-1-8,0-.22.46-.71.73-.73,2.63-.13,5.27-.14,7.89-.29a1.72,1.72,0,0,1,1.84,1.18,43.33,43.33,0,0,0,2,4.44,37.14,37.14,0,0,0,3.51,4.94,2.36,2.36,0,0,0,1.94.38c.33-.08.7-1,.67-1.48-.1-1.54-.36-3.07-.6-4.6-.18-1.09-.41-2.17-.64-3.26-.12-.54-.3-1.06-.51-1.81H462c3.53,0,2.83-.31,3.39,2.92a11.89,11.89,0,0,0,.73,3c.25.54,1.05.84,1.6,1.25.34-.54.9-1,1-1.61a38.1,38.1,0,0,0,.26-4.41c0-.67.21-1.11.93-1.09,2.19,0,4.38.21,6.57.15,1.23,0,1.67.43,1.91,1.55a36.88,36.88,0,0,0,1.25,3.88c1.4-1.19,2.47-2.35,2.52-4.07,0-.95.49-1.13,1.29-1.1,2.79.1,5.58.14,8.37.31a1.57,1.57,0,0,1,1.12,1c.49,2.9.85,5.81,1.26,8.72.12.89.36,1.64,1.54,1.49a1.87,1.87,0,0,0,1.81-1.84c0-1.44,0-2.88,0-4.32a5.89,5.89,0,0,1,.36-1.25,4.16,4.16,0,0,1,1.15.72c1,1.3,1.92,2.74,3,4,1.49,1.63,2.42,3.87,4.81,4.59.3.09.54.57.7.92.76,1.58,1.47,3.19,2.24,4.77,1,2.09,1,2.18-.83,3.58-.06.05-.14.08-.2.13-4.16,3.34-9,5.48-13.84,7.47-1.7.7-3.28,1.67-4.91,2.52l-4,1.5c-1-2.42-2.1-4.82-3.05-7.27-1.21-3.11-2.28-6.28-3.44-9.41-.95-2.56-1.91-5.12-2.93-7.66a6.47,6.47,0,0,0-1.09-1.38c-1.19,1-2.1,1.81-1.34,3.36A17.27,17.27,0,0,1,474.9,611.51Z" />
            <path class="color-shadow"
                d="M490,630.14c1.63-.85,3.21-1.82,4.91-2.52,4.88-2,9.68-4.13,13.84-7.47.06,0,.14-.08.2-.13,1.83-1.4,1.84-1.49.83-3.58-.77-1.58-1.48-3.19-2.24-4.77-.16-.35-.4-.83-.7-.92-2.39-.72-3.32-3-4.81-4.59-1.12-1.23-2-2.67-3-4a4.16,4.16,0,0,0-1.15-.72,5.89,5.89,0,0,0-.36,1.25c0,1.44,0,2.88,0,4.32a1.87,1.87,0,0,1-1.81,1.84c-1.18.15-1.42-.6-1.54-1.49-.41-2.91-.77-5.82-1.26-8.72a1.57,1.57,0,0,0-1.12-1c-2.79-.17-5.58-.21-8.37-.31-.8,0-1.26.15-1.29,1.1,0,1.72-1.12,2.88-2.52,4.07a36.88,36.88,0,0,1-1.25-3.88c-.24-1.12-.68-1.59-1.91-1.55-2.19.06-4.38-.11-6.57-.15-.72,0-.91.42-.93,1.09a38.1,38.1,0,0,1-.26,4.41c-.08.57-.64,1.07-1,1.61-.55-.41-1.35-.71-1.6-1.25a11.89,11.89,0,0,1-.73-3c-.56-3.23.14-2.91-3.39-2.92h-1.82c.21.75.39,1.27.51,1.81.23,1.09.46,2.17.64,3.26.24,1.53.5,3.06.6,4.6,0,.5-.34,1.4-.67,1.48a2.36,2.36,0,0,1-1.94-.38,37.14,37.14,0,0,1-3.51-4.94,43.33,43.33,0,0,1-2-4.44,1.72,1.72,0,0,0-1.84-1.18c-2.62.15-5.26.16-7.89.29-.27,0-.76.51-.73.73.28,2.68.72,5.35,1,8,.23,2.41.29,4.84.4,7.26,0,.21-.15.43-.36,1-.48-.59-.83-1-1.19-1.43s-.61-.67-.92-1c-.22-1.4-.46-2.79-.66-4.19q-.93-6.63-1.84-13.27c-.06-.43-.05-.86-.09-1.39,1.61-.11,3.11-.24,4.61-.31,2-.09,4-.11,6-.21.72,0,1,.21,1,.94s.15,1.3.23,2h.4a12.85,12.85,0,0,1,0-2.06c.05-.33.44-.84.69-.85a1.51,1.51,0,0,1,1.23.49c1.09,1.78,2.08,3.62,3.1,5.45l.32-.15c-.57-1.62-1.11-3.25-1.71-4.86-.47-1.26-.45-1.38.87-1.44,2.64-.11,5.27-.17,7.9-.3.84,0,1.19.24,1.34,1.1a20.31,20.31,0,0,0,1.3,4.47c0-1.44.06-2.88,0-4.31-.06-1,.16-1.5,1.35-1.47,3.15.08,6.31,0,9.47,0,.79,0,1,.27,1.05,1,.19,2.66.47,5.32.72,8,0,.09.1.17.32.53.13-1,.26-1.79.3-2.56.11-2,.21-4,.23-6,0-.8.32-1,1.07-1A34.36,34.36,0,0,1,491.71,593a1.74,1.74,0,0,1,1,1.06c.7,2.57,1.31,5.16,2.23,7.71-.12-2.18-.26-4.36-.35-6.55a7.49,7.49,0,0,1,.19-1.39c.6.31,1.42.46,1.78,1,1.52,2.09,2.84,4.33,4.35,6.44s3.24,4.2,4.87,6.29l.33-.18L499,595.21l.28-.31,3.41,1.28a18.81,18.81,0,0,1,2.32,1,2.35,2.35,0,0,1,1,1.06q3,6.81,5.85,13.65l2.78,6.48a1,1,0,0,1-.45,1.4c-5,2.61-9.56,6.16-15.09,7.77Zm-32.73-31.2,0-.05h-.05Z" />
            <path class="color-shadow"
                d="M325.81,603.09a13.59,13.59,0,0,1-.47,2.4c-1.26,3.3-2.52,6.62-3.94,9.86a35.63,35.63,0,0,1-2.79,4.87c-.59.91-.45,1.41.43,1.93a17,17,0,0,1,5.3,4.4c.48.65.81.22,1.1-.35,1.39-2.73,2.78-5.47,4.28-8.14,1-1.74,2.12-3.38,3.24-5,.19-.28.86-.58.94-.51.5.52,1.23,1.11,1.27,1.72a13.34,13.34,0,0,1-.44,3.53c-.49,2.23-1.08,4.44-1.6,6.67s-1,4.74-1.59,7.08c-.26,1-.05,1.59.89,1.84a34.4,34.4,0,0,0,4.95,1.14c1.86.19,3.76,0,5.63,0s3.41-.06,4.68-1.46c-.14.81-.28,1.63-.43,2.44-.05.27-.25.59-.17.8.54,1.5-.5,1.8-1.53,2.07a21.64,21.64,0,0,1-17-2.46c-.73-.43-.64-1-.42-1.65,1.14-3.45,2.29-6.9,3.38-10.37.73-2.31,1.36-4.65,2-7l-.36-.13L327,632.67c-.85-.54-1.61-1.09-2.43-1.55-3-1.68-6-3.33-9-5-1.39-.78-1.36-1.15-.84-2.59a37.56,37.56,0,0,0,1.09-4.63,22,22,0,0,1,.6-2.55c2.6-7.21,5.23-14.41,7.84-21.62L325.6,591c1.08.67,2,1.17,2.81,1.78a1.1,1.1,0,0,1,.21,1c-1.11,2.73-2.26,5.44-3.4,8.16l-4,9.53.37.18Z" />
            <path class="color-shadow"
                d="M351.06,616.14a27.53,27.53,0,0,1,1.1-2.63c.4-.76.85-.67,1.27.06a6.48,6.48,0,0,1,.79,3.54c-.05,4.83,0,9.67,0,14.51v1.47c.74-.1,1.35-.14,1.94-.28a32.25,32.25,0,0,1,15.34.64c2.65.69,5.37,1.12,8,1.82,2.15.56,4.22,1.45,6.37,2,4.08,1.05,8.18,2.1,12.44,2.05,1.55,0,3.11-.09,4.65-.26a1.44,1.44,0,0,0,.93-.92c.76-3.17,1.33-6.39,2.18-9.53,1-3.68,2.22-7.31,3.4-10.93.13-.39.71-.62,1.08-.92q-1.21,6.11-2.44,12.21-.51,2.55-1,5.11c-.43,2.15.81,3.52,2.31,4.71a19.88,19.88,0,0,0,2.35,1.43c.82.49.81,1.06-.07,1.33a29.86,29.86,0,0,1-5.88,1.56,53.19,53.19,0,0,1-21.88-2.3c-2.49-.83-4.87-2-7.31-3-4.52-1.82-9.3-2.27-14.09-2.56-3.95-.24-7.9-.38-11.85-.51-.94,0-1.17-.43-1.09-1.27.23-2.54.44-5.09.65-7.64,0-.16.06-.31.08-.47C350.57,622.31,350.81,619.23,351.06,616.14Z" />
            <path class="color-shadow"
                d="M412.57,611.28a54.54,54.54,0,0,1,1.31,5.87,19.86,19.86,0,0,1-.24,4.27c-.19,2.26-.42,4.51-.64,6.76-.07.74.23,1.1,1,1.1,3.74,0,7.48,0,11.21,0,2.1,0,4.21-.5,6.3-.42a54.89,54.89,0,0,1,20.52,4.35,43.62,43.62,0,0,0,5.62,2.25c1.84.54,3.79.66,5.68,1a70.91,70.91,0,0,0,15.12,1c1.83-.05,1.79-.18,1.29-2-1.38-4.85-2.68-9.72-3.85-14.63-.57-2.42-.82-4.92-1.16-7.4a3.55,3.55,0,0,1,.32-1.26c1.49,6.41,3,12.83,4.48,19.23.68,2.87,1.41,5.74,2.22,8.58.35,1.2-.42,1.23-1.11,1.24-2.44,0-4.88.08-7.31,0-3.31-.15-6.62-.37-9.92-.68a32.61,32.61,0,0,1-12.51-3.8,11,11,0,0,1-2.46-1.89,9.17,9.17,0,0,0-6.62-2.66c-2.63,0-5.27.17-7.9.17-3.68,0-7.35-.16-11-.1-4.11.06-8.24.09-12.17,1.59-.29.11-.6.18-1,.3a4.19,4.19,0,0,1-.08-.95q1.26-9.68,2.55-19.35C412.3,613,412.44,612.13,412.57,611.28Z" />
            <path class="color-shadow"
                d="M420.78,597.35c-2.14-.08-4.3-.1-6.44-.25-3.36-.24-6.72-.55-10.08-.89-.81-.08-1.09.18-1.11.95a9.62,9.62,0,0,1-.25,2.59,1.85,1.85,0,0,1-1.29,1.11,1.92,1.92,0,0,1-1.31-1.09c-.38-.9-.42-1.95-.77-2.87a1.9,1.9,0,0,0-1.12-.95c-.54-.17-1.23-.17-1.45.63-.66,2.44-1.25,4.9-2,7.32a71.56,71.56,0,0,1-2.82,8.45c-.55,1.25-2,2.09-3,3l-.32,1.4-.67-.14.58-2.47c.22-.21.58-.38.65-.63.24-.92.4-1.87.58-2.81,1-5.13,1.93-10.28,2.92-15.41.42-2.25.44-2.22,2.7-2.12,1.43.07,2.87.06,4.31.05.61,0,.82.22.87.83a17.24,17.24,0,0,0,.45,2.11l.45-.1-.38-2.66a4.38,4.38,0,0,1,.68-.15c6-.08,12.05-.15,18.07-.26,1,0,1.52.14,1.2,1.33A27.52,27.52,0,0,0,420.78,597.35Z" />
            <path class="color-shadow"
                d="M391,595.91c-1.11,0-2.44-.31-3.28.18s-.86,1.83-1.34,2.76c-1,2-2.12,4-3.21,6a2,2,0,0,1-.49.47l-.09-.4a7.81,7.81,0,0,0-1.75.11c-1.7.47-2.66-.2-2.68-2,0-.56,0-1.12,0-1.68.05-1,0-1.72-1.25-1.93-.28,0-.62-.8-.64-1.24-.17-3.12-.14-3.13-3.19-3.64a2.88,2.88,0,0,0-1.43,0c-.37.13-.86.58-.89.92-.3,3.65-.44,7.31-.8,11-.24,2.48-.76,4.94-1.19,7.4a2.06,2.06,0,0,1-.66,1c-1-2.31-1.67-4.62-1-7.14.22-.27.6-.52.63-.81.38-3.33.69-6.67,1-10,0-.48.09-1,.16-1.43.32-2.14.33-2.14,2.55-2.21s4.47-.12,6.71-.21c.79,0,1,.22.92,1-.19,1.54-.21,3.09-.31,4.63l.37,0c.2-1.47.5-2.94.56-4.41,0-1,.37-1.24,1.28-1.18s2.06,0,3.38,0c-.62,2.23-1.18,4.21-1.73,6.2l.33.15a14,14,0,0,0,.93-1.39c.69-1.39,1.28-2.84,2-4.2a2,2,0,0,1,1.35-.86c1.38-.11,2.77,0,4.33,0Z" />
            <path class="color-shadow"
                d="M438.29,597.06c-1.86,0-3.72.09-5.58,0-1.09-.05-1.41.46-1.46,1.38-.08,1.79-.15,3.59-.25,5.37a8.72,8.72,0,0,1-.29,2.36,1.77,1.77,0,0,1-1.2.92,1.56,1.56,0,0,1-1.38-.49,20.15,20.15,0,0,1-1.19-3.59c-.39-1.62-.69-3.26-1-4.91-.14-.8-.55-1.13-1.31-1s-1.46.31-2.18.47c-.38.08-.76.14-1.14.2.31-1.39.6-2.79,1-4.18a.92.92,0,0,1,.65-.55c1.31,0,2.61,0,3.86,0,.54,3.06,1.06,6,1.57,8.85l.37,0c-.14-2.89-.28-5.78-.42-8.85a27.82,27.82,0,0,1,4.2.08c.47.07.8,1,1.19,1.49a1.43,1.43,0,0,1,.1-.7,4.72,4.72,0,0,1,.86-.87s.15,0,.23,0c2.46-.08,2.46-.08,3.05,2.29C438.12,595.87,438.19,596.47,438.29,597.06Z" />
            <path class="color-shadow"
                d="M474.9,611.51a17.27,17.27,0,0,0-.77-2.23c-.76-1.55.15-2.39,1.34-3.36a6.47,6.47,0,0,1,1.09,1.38c1,2.54,2,5.1,2.93,7.66,1.16,3.13,2.23,6.3,3.44,9.41.95,2.45,2,4.85,3.05,7.27l-3.51,2.25q-3.53-11.65-7-23.22l-.32,0Z" />
            <path class="color-shadow"
                d="M353,602.82c0,.24,0,.48,0,.72,0,.55.1,1.18-.74,1.24s-1.14-.54-1.17-1.21c-.05-1.6,0-3.21,0-5-1.09.18-2,.36-3,.48-1.38.19-2.76.29-4.12.52a1.45,1.45,0,0,0-.83.77c-.33.71-.47,1.52-.83,2.21a3.63,3.63,0,0,1-1.15,1.31c-.95.6-1.74.18-1.85-1-.07-.83,0-1.67,0-2.5,0-1.06-.39-1.69-1.53-1.64.18-.44.34-.89.53-1.33.74-1.68.89-1.74,2.79-1.21l-.47,6,.19.09a4.22,4.22,0,0,0,.27-.7c.37-1.51.68-3,1.1-4.53.11-.36.54-.86.86-.89,3-.31,6-.53,9.06-.77a7.06,7.06,0,0,1,.84,0l-.63,8Z" />
            <path class="color-shadow"
                d="M367.48,598.56a12.89,12.89,0,0,1-.29-2c0-1-.13-1.46-1.36-1.16-3.11.75-6.25,1.34-9.39,2a1.79,1.79,0,0,0-1.65,1.58,10.53,10.53,0,0,1-.92,2.57c-.13.28-.56.43-.85.64.35-2,.72-3.92,1-5.9.12-.78.38-1.15,1.24-1.24,3.77-.39,7.53-.85,11.3-1.33.91-.12,1.25.17,1.16,1.09C367.62,596,367.56,597.3,367.48,598.56Z" />
            <path class="color-shadow"
                d="M337.66,598.87l-.23.88-.38.17c.15-1.68-1.07-1.54-2-1.89-1.5-.58-3-1.28-4.45-1.9-.47-.2-1-.34-1.46-.51.84-2,.82-2,2.93-1.27a38.48,38.48,0,0,0,4.83,1.25c.92.18,1.1.5.87,1.36A9.25,9.25,0,0,0,337.66,598.87Z" />
            <path class="color-shadow" d="M412.5,607.58l.47-3,.4,0a5.42,5.42,0,0,1-.37,3.24Z" />
            <path class="color-shadow" d="M442.25,613.38l.66,3-.52.11a5.18,5.18,0,0,1-.6-3Z" />
            <path class="color-shadow" d="M367.18,606l.12-2.9Z" />
            <path class="color-shadow" d="M390,605.26c0-.33.07-.65.11-1C390,604.61,390,604.93,390,605.26Z" />
            <path class="color-shadow" d="M347.76,632.63l.18-1Z" />
            <path class="color-shadow" d="M389.73,607c0-.25,0-.5.07-.75C389.78,606.45,389.75,606.7,389.73,607Z" />
            <path class="color-shadow" d="M420.93,598l-.34.16.18-.4Z" />
            <path class="color-shadow"
                d="M390.42,601.42c0-.17.06-.33.08-.5C390.47,601.09,390.45,601.25,390.42,601.42Z" />
            <path class="color-shadow" d="M390.19,603.1l.09-.5Z" />
            <path class="color-shadow" d="M439.83,604.08l-.12-.51Z" />
            <path class="color-shadow" d="M349.21,625c0-.17.07-.34.11-.51C349.28,624.62,349.25,624.79,349.21,625Z" />
            <path class="color-shadow"
                d="M348.28,629.76c0-.17.07-.34.11-.51C348.35,629.42,348.32,629.59,348.28,629.76Z" />
            <path class="color-shadow" d="M348,631.2l.12-.51Z" />
            <path class="color-shadow" d="M410.91,614.85l-.17-.13.21,0A.16.16,0,0,1,410.91,614.85Z" />
            <path class="color-shadow" d="M410.65,616.05l-.17-.12.2-.08A.18.18,0,0,1,410.65,616.05Z" />
            <polygon class="outline" points="457.29 598.94 457.27 598.88 457.32 598.89 457.29 598.94" />
        </g>
    </g>
</svg>
