<svg id="Nizy_classic" data-name="Nizy classic" xmlns="http://www.w3.org/2000/svg" viewBox="0 0 672 960">
    <g id="img_17" data-name="img 17">
        <g id="img_13_img" data-name="img 13 img">
            <path class="outline"
                d="M504.61,607.27l-.13.64-.12.56-.12.4-.18.53c-.47,1.38-.72,2.87-2,3.8l-1,.53h-3.85l-1.19,0h-.49l-3.9-.18-4.51.06-2.62.14-1.13.08-2.95.16h-4.57l-1-.18-2.34-.06-4.86-.19-1.62,0-3.66-.21-.66-.06c-1.58-.14-3.15-.3-4.72-.4-5.18-.32-10.36-.65-15.54-.93-4.79-.26-9.58-.52-14.37-.66-5.11-.16-10.23-.36-15.34-.22-6.66.19-13.31.64-20,1.08-5.25.35-10.5.88-15.75,1.3-5.68.45-11.36,1-17.06,1.25-6,.24-12.06.47-18-.86-3-.65-5.91-1.34-8.48-3.1a32.65,32.65,0,0,0-4.05-2.73,5.13,5.13,0,0,1-3.17-5.35,27.35,27.35,0,0,0-.52-4.56l0-.47-.21-3.13-.06-.46-.41-3.14,0-.71-.14-1.71-.06-.93v-2.85l.07-1.4.16-1.48.08-.92c.15.18.41.36.42.54,0,1.11,0,2.22,0,3.33.24-2.82.45-5.63.63-8.45,0-.59,0-1.18-.07-1.77q.18-3.18.38-6.37c.05-.82.12-1.64.18-2.45h.48l.44,6.3c0,1.39,0,2.78,0,4.17.05,4,0,8,.19,12,.28,4.83.89,9.63,1.24,14.44a3.38,3.38,0,0,0,1.52,3c1.75,1.17,3.21,2.83,5,3.81,4.69,2.51,9.83,3.35,15.11,3.5a162.41,162.41,0,0,0,22.6-.54c6.85-.74,13.74-1.19,20.61-1.69,2.74-.21,5.49-.2,8.23-.34,1.42-.08,2.83-.26,4.25-.4l2.38-.07,4.1-.16h4.76a9.21,9.21,0,0,0,1.27.17c2.16,0,4.32,0,6.48.08,6.21.28,12.42.61,18.64.93,4.82.24,9.64.52,14.46.72,6.22.26,12.45.56,18.67.63,3.3,0,6.6-.45,9.9-.56,4.19-.13,8.38-.13,12.57-.17a3.74,3.74,0,0,0,3.42-2.37c.54-1.67,1.15-3.33,1.54-5,.83-3.65,1.55-7.32,2.31-11,1.11,0,.54.92.72,1.42l0,.7,0,1.21-.06.47-.16.9-.13.63-.11.4-.14.55-.11.41-.11.56-.14.64-.08.47c-.29,1.76-.59,3.53-.88,5.29Z" />
            <path class="color-base"
                d="M331.15,578.37c.2-.61.37-1.24.63-1.84a9.45,9.45,0,0,1,.77-1.24c.34.26.85.45,1,.79.45,1.11.73,2.3,1.17,3.43a3.35,3.35,0,0,0,1,1.46,47.35,47.35,0,0,0,4.31,2.79,8.42,8.42,0,0,0,2.45.87c4.35.92,8.69,1.93,13.07,2.64,3.42.54,6.89.69,10.34,1,1.79.16,3.58.44,5.37.42,3.9,0,7.81-.13,11.71-.35s7.55-.6,11.31-1c4.51-.44,9-1,13.51-1.43,1.23-.13,2.46-.26,3.69-.31,3.11-.11,6.22-.12,9.33-.28,5.17-.26,10.33-.6,15.5-.91,2.9-.17,5.8-.37,8.7-.5,4.18-.19,8.37-.36,12.55-.48s8.14-.22,12.21-.24c2.95,0,5.9.16,8.85.21.95,0,1.91-.27,2.85-.19,4.64.35,9.27.79,13.92,1.14a5.36,5.36,0,0,0,1.67-.46c.05.14.18.29.15.42-.39,2-.81,4-1.2,6q-1.31,6.72-2.6,13.44a1.31,1.31,0,0,1-1.22,1.24c-2.12.28-4.23.65-6.36.92a49.2,49.2,0,0,1-6.5.66c-4.86,0-9.72-.25-14.58-.44-2.86-.11-5.72-.32-8.58-.46-5.29-.26-10.58-.49-15.87-.73-.44,0-.88,0-1.32,0-3,0-6,0-9.05.14-3.89.2-7.76.73-11.65.8-3.52.08-7-.34-10.56-.41-4.12-.08-8.24,0-12.36,0-4.55,0-9.1.09-13.65.24-5.21.18-10.42.49-15.63.71a109.19,109.19,0,0,1-18.33-1.17,30,30,0,0,1-11.1-3.42c-.42-.24-.94-.63-1.05-1-.88-3.54-1.83-7.09-2.46-10.68s-.85-7-1.3-10.52A4.27,4.27,0,0,0,331.15,578.37Z" />
            <path class="color-shadow"
                d="M331.15,578.37a4.27,4.27,0,0,1,.68,1.25c.45,3.51.69,7,1.3,10.52s1.58,7.14,2.46,10.68c.11.42.63.81,1.05,1a30,30,0,0,0,11.1,3.42,109.19,109.19,0,0,0,18.33,1.17c5.21-.22,10.42-.53,15.63-.71,4.55-.15,9.1-.19,13.65-.24,4.12,0,8.24-.07,12.36,0,3.52.07,7,.49,10.56.41,3.89-.07,7.76-.6,11.65-.8,3-.15,6-.1,9.05-.14.44,0,.88,0,1.32,0,5.29.24,10.58.47,15.87.73,2.86.14,5.72.35,8.58.46,4.86.19,9.72.42,14.58.44a49.2,49.2,0,0,0,6.5-.66c2.13-.27,4.24-.64,6.36-.92a1.31,1.31,0,0,0,1.22-1.24q1.29-6.72,2.6-13.44c.39-2,.81-4,1.2-6,0-.13-.1-.28-.15-.42s.09-.49.14-.73l1.5-1.22c.2,1.28.43,2.56.59,3.84.3,2.56.65,5.12.81,7.68a25,25,0,0,1-.22,4.65c-.34,2.67-.75,5.33-1.25,8a2,2,0,0,1-1.19,1.29c-1.59.43-3.24.67-4.87,1-.9.17-1.82.22-2.7.45a54.63,54.63,0,0,1-14.8,2.17c-4.89,0-9.8-.2-14.68-.49-3.92-.24-7.81-.9-11.72-1.12-4.26-.24-8.53-.24-12.8-.26-2.47,0-4.93.18-7.4.21-3.56,0-7.11,0-10.67,0a5.32,5.32,0,0,0-1.21.29h-4.76c-1.32,0-2.64-.11-4-.14-.05,0-.1.2-.14.3l-2.38.07a31.45,31.45,0,0,0-3.71-.5q-8.14-.07-16.28,0c-3.67,0-7.34.14-11,.24-1.31,0-2.62.16-3.93.26-4.08.31-8.15.69-12.24.91a57.51,57.51,0,0,1-7.07,0,36.33,36.33,0,0,1-5.86-1c-1.58-.38-3.06-1.18-4.64-1.56a22.34,22.34,0,0,1-9-4.65,3.2,3.2,0,0,1-.92-1.45c-1.46-4.68-1.57-9.55-1.87-14.38-.16-2.51-.06-5,0-7.56a14.34,14.34,0,0,1,.44-2.3l1.57.43a.09.09,0,0,1,.13,0Z" />
            <path class="color-shadow-dark"
                d="M416.58,609.65a5.32,5.32,0,0,1,1.21-.29c3.56,0,7.11,0,10.67,0,2.47,0,4.93-.23,7.4-.21,4.27,0,8.54,0,12.8.26,3.91.22,7.8.88,11.72,1.12,4.88.29,9.79.44,14.68.49a54.63,54.63,0,0,0,14.8-2.17c.88-.23,1.8-.28,2.7-.45,1.63-.29,3.28-.53,4.87-1a2,2,0,0,0,1.19-1.29c.5-2.65.91-5.31,1.25-8a25,25,0,0,0,.22-4.65c-.16-2.56-.51-5.12-.81-7.68-.16-1.28-.39-2.56-.59-3.84,0-.14,0-.28,0-.42l.62-3.69,1,2.07,1.46-4.44a1.62,1.62,0,0,1,1.54,1.67c.52,4.19,1.13,8.36,1.7,12.54.12.91.21,1.82.37,2.72,0,.23.31.42.48.63-.76,3.66-1.48,7.33-2.31,11-.39,1.71-1,3.37-1.54,5a3.74,3.74,0,0,1-3.42,2.37c-4.19,0-8.38,0-12.57.17-3.3.11-6.6.6-9.9.56-6.22-.07-12.45-.37-18.67-.63-4.82-.2-9.64-.48-14.46-.72-6.22-.32-12.43-.65-18.64-.93-2.16-.09-4.32,0-6.48-.08A9.21,9.21,0,0,1,416.58,609.65Z" />
            <path class="color-shadow-dark"
                d="M329.22,577.9a14.34,14.34,0,0,0-.44,2.3c0,2.52-.15,5,0,7.56.3,4.83.41,9.7,1.87,14.38a3.2,3.2,0,0,0,.92,1.45,22.34,22.34,0,0,0,9,4.65c1.58.38,3.06,1.18,4.64,1.56a36.33,36.33,0,0,0,5.86,1,57.51,57.51,0,0,0,7.07,0c4.09-.22,8.16-.6,12.24-.91,1.31-.1,2.62-.22,3.93-.26,3.67-.1,7.34-.21,11-.24q8.14,0,16.28,0a31.45,31.45,0,0,1,3.71.5c-1.42.14-2.83.32-4.25.4-2.74.14-5.49.13-8.23.34-6.87.5-13.76.95-20.61,1.69a162.41,162.41,0,0,1-22.6.54c-5.28-.15-10.42-1-15.11-3.5-1.83-1-3.29-2.64-5-3.81a3.38,3.38,0,0,1-1.52-3c-.35-4.81-1-9.61-1.24-14.44-.23-4-.14-8-.19-12,0-1.39,0-2.78,0-4.17l.33-.53.79.63.3-1.57.54,2.85.35,1.94,0,1.45Z" />
            <path class="color-shadow-dark"
                d="M324.73,598a27.35,27.35,0,0,1,.52,4.56,5.13,5.13,0,0,0,3.17,5.35,32.65,32.65,0,0,1,4.05,2.73c2.57,1.76,5.51,2.45,8.48,3.1,6,1.33,12,1.1,18,.86,5.7-.22,11.38-.8,17.06-1.25,5.25-.42,10.5-.95,15.75-1.3,6.66-.44,13.31-.89,20-1.08,5.11-.14,10.23.06,15.34.22,4.79.14,9.58.4,14.37.66,5.18.28,10.36.61,15.54.93,1.57.1,3.14.26,4.72.4-1.47,0-2.93.14-4.39.07-3.75-.19-7.49-.48-11.24-.68-7.3-.39-14.6-.84-21.9-1.08-4.83-.16-9.67-.1-14.5.05q-9,.28-17.95.91c-5.69.41-11.39.87-17.05,1.6a190.21,190.21,0,0,1-25.13,1.15,40.25,40.25,0,0,1-14.43-2.59,2.66,2.66,0,0,1-.55-.23c-2.82-1.87-5.66-3.72-8.43-5.67a2.59,2.59,0,0,1-1-1.67C324.91,602.74,324.85,600.39,324.73,598Z" />
            <path class="color-shadow-dark"
                d="M325.08,574.49c0,.59.1,1.18.07,1.77-.18,2.82-.39,5.63-.63,8.45,0-1.11,0-2.22,0-3.33,0-.18-.27-.36-.42-.54Z" />
            <path class="color-shadow-dark" d="M467.66,613.52l4.86.19Z" />
            <path class="color-base" d="M328,570.5l-.3,1.57-.79-.63c.28-.65.55-1.3.82-2l.38.15Z" />
            <path class="color-shadow-dark" d="M491.66,613.52l3.9.18Z" />
            <path class="color-shadow-dark" d="M462.38,613.28l3.66.21Z" />
            <path class="color-shadow-dark" d="M324.5,594.44l.21,3.13Z" />
            <path class="color-shadow-dark" d="M324,590.84l.41,3.14Z" />
            <path class="color-shadow-dark" d="M323.77,584.64v0Z" />
            <path class="color-shadow-dark" d="M480.45,614l2.95-.16Z" />
            <path class="color-shadow-dark" d="M484.53,613.72l2.62-.14Z" />
            <path class="color-base" d="M329.22,577.9l-.32-1.16,1.89,1.59Z" />
            <path class="color-base"
                d="M498.71,581.56c0,.14,0,.28,0,.42l-1.5,1.22C497.05,582.06,497.63,581.58,498.71,581.56Z" />
            <path class="color-base" d="M328.87,575.29l-.35-1.94Z" />
            <path class="color-shadow-dark" d="M323.84,588.42l.14,1.71Z" />
            <path class="color-shadow-dark" d="M324,581.76l-.16,1.48Z" />
            <path class="color-shadow-dark" d="M496.05,613.7l1.19,0Z" />
            <path class="color-shadow-dark" d="M501.09,613.73l1-.53Z" />
            <path class="color-shadow-dark" d="M474.86,613.77l1,.18Z" />
            <path class="color-shadow-dark" d="M506.6,595.18l0-.7Z" />
            <path class="color-shadow-dark" d="M506,599.34l.14-.55Z" />
            <path class="color-shadow-dark" d="M505.8,600.31l.11-.56Z" />
            <path class="color-shadow-dark" d="M505.58,601.42l.08-.47Z" />
            <path class="color-shadow-dark" d="M504.61,607.27l.09-.56Z" />
            <path class="color-shadow-dark" d="M504.36,608.47l.12-.56Z" />
            <path class="color-shadow-dark" d="M504.06,609.4l.18-.53Z" />
            <path class="color-shadow-dark" d="M506.56,596.86l.06-.47Z" />
            <path class="color-shadow-dark" d="M499.65,613.73h0Z" />
            <path class="color-shadow-dark" d="M506.27,598.39l.13-.63Z" />
            <path class="color-base" d="M331.15,578.37h-.23A.45.45,0,0,1,331.15,578.37Z" />
            <path class="color-shadow-dark" d="M407.72,609.8c0-.1.09-.3.14-.3,1.32,0,2.64.09,4,.14Z" />
            <path class="color-shadow-dark" d="M413.46,609.65h0Z" />
        </g>
    </g>
</svg>
