<svg id="Nizy_classic" data-name="Nizy classic" xmlns="http://www.w3.org/2000/svg" viewBox="0 0 672 960">
    <g id="img_17" data-name="img 17">
        <g id="img_12_img" data-name="img 12 img">
            <path class="outline"
                d="M456.69,635.57l-.66,0c-1.43,0-2.86-.05-4.28,0-1.08.06-2.15.28-3.22.43H446.9l-2.45.23-.43,0a3.28,3.28,0,0,0-.69-.1c-2.53.14-5.06.34-7.6.42s-4.9.05-7.35.09a6.37,6.37,0,0,0-1.21.26h-3.12l-.43,0-1.81,0h-1.3a1.12,1.12,0,0,0-.34-.11q-6.65,0-13.28,0a2.8,2.8,0,0,0-.84.29l-.49,0h-7.25l-1.39,0a2.51,2.51,0,0,0-.73-.27q-8.08,0-16.17,0a2,2,0,0,0-.61.26l-1.64,0a1.64,1.64,0,0,0-.44-.15q-3.87,0-7.74.12c-.17,0-.33.16-.5.24l-2.19,0-6.75.23-1.15,0-3.42-.19-.9,0c-.68-.13-1.36-.33-2-.4-3.33-.33-6.69-.48-10-1-2.75-.41-5.46-1.19-8.17-1.85a57,57,0,0,1-5.62-1.56,2.71,2.71,0,0,1-1.46-1.56,21,21,0,0,1-.8-4.11c-.53-4.47-1-8.95-1.48-13.42-.16-1.42-.36-2.83-.54-4.24l0-.67.19-2.06.07-.65c0-1.7,0-3.4,0-5.1l-.08-1.39c0-1.38,0-2.76,0-4.14l.08-.41.15-1.41,1.58.17a21.45,21.45,0,0,0,9.93,3.29c4.68.47,9.13-.44,13.65-1.14,7.77-1.22,15.52-2.65,23.31-3.72,4.9-.68,9.87-1,14.81-1.25a44.56,44.56,0,0,1,7.66.23c6.51.76,13,.21,19.54.25,3.72,0,7.44.22,11.15.13,6.83-.17,13.66-.49,20.49-.74a143.87,143.87,0,0,1,18.1.25c3.84.34,7.74.09,11.61.1l2.66-.17,1.66,0a3.23,3.23,0,0,0,.79.15,48,48,0,0,1,17.57,2.26,22.53,22.53,0,0,0,5.48.86c1.43.05,1.91.39,1.49,1.82-.18.63-.33,1.28-.5,1.92,0,.7,0,1.4,0,2.1,0,1.3,0,2.59,0,3.89l-.06.42c-.17.3-.47.58-.5.89-.2,2.08-.42,4.16-.5,6.24-.05,1.44.16,2.88.2,4.32a9.64,9.64,0,0,1-.21,1.69c-.23,1.59-.44,3.19-.73,4.77-.36,1.95-.89,3.88-1.16,5.85a2.33,2.33,0,0,1-1.91,2.13c-1.94.44-3.91.74-5.88,1-3.7.51-7.42.92-11.12,1.42s-7.61,1.27-11.45,1.64c-5,.47-10,.67-15,1A4.35,4.35,0,0,0,456.69,635.57Zm47.24-34.09h-.15c0-1.2.06-2.4,0-3.59,0-.64-.08-1.35-1-1.56-2.53-.55-5.1-1-7.57-1.8-5.91-1.84-11.93-1.37-18-1.16a65.53,65.53,0,0,1-8.74.2,157.93,157.93,0,0,0-21.31-.29c-3.87.14-7.74.48-11.61.62-3.63.13-7.27.14-10.9.17s-7,0-10.55,0c-4.07,0-8.15.18-12.22.16-5.1,0-10.17-1.1-15.31-.54-3.53.38-7.11.33-10.62.85-8.45,1.25-16.86,2.74-25.3,4.09-3.51.56-7,1.38-10.55,1.39a95.47,95.47,0,0,1-12.24-1.18c-1.51-.18-1.67-.17-1.51,1.38a19.37,19.37,0,0,1,.15,2.27c-.06,2.31-.32,4.63-.23,6.94.14,3.94.45,7.87.78,11.8.22,2.62.58,5.23.94,7.84a1.4,1.4,0,0,0,.77,1c2.82.81,5.68,1.52,8.51,2.31,1.5.41,2.95,1.07,4.47,1.34a106.58,106.58,0,0,0,21.55,1.75c6.11-.19,12.22-.23,18.34-.26,3.62,0,7.25.16,10.87.15q19.46-.06,38.9-.21,4.44,0,8.86-.21c2.38-.1,4.76-.3,7.14-.48,1.59-.12,3.17-.33,4.77-.43,3-.19,6.09-.31,9.14-.51,2-.13,4-.37,6-.56,2.93-.29,5.88-.48,8.8-.89,2.52-.36,5-1,7.5-1.45,4.21-.7,8.43-1.3,12.64-2a17.61,17.61,0,0,0,1.74-.42c3.57-.93,3.27.11,4-3.76.63-3.24.95-6.54,1.31-9.83.11-1-.2-2-.14-3C503.37,608.23,503.67,604.86,503.93,601.48Z" />
            <path class="color-shadow-dark"
                d="M456.69,635.57a4.35,4.35,0,0,1,.95-.3c5-.34,10-.54,15-1,3.84-.37,7.63-1.12,11.45-1.64s7.42-.91,11.12-1.42c2-.26,3.94-.56,5.88-1a2.33,2.33,0,0,0,1.91-2.13c.27-2,.8-3.9,1.16-5.85.29-1.58.5-3.18.73-4.77a9.64,9.64,0,0,0,.21-1.69c0-1.44-.25-2.88-.2-4.32.08-2.08.3-4.16.5-6.24,0-.31.33-.59.5-.89a5.18,5.18,0,0,1,.09.78c-.09,3.18-.15,6.37-.29,9.55a38.36,38.36,0,0,1-.45,4.4c-.52,3.15-1.12,6.28-1.7,9.43-.23,1.26-1.19,2.07-2.85,2.3-4.94.69-9.89,1.33-14.83,2-4.23.59-8.43,1.38-12.68,1.8-5.27.53-10.57.77-15.86,1.13A2.29,2.29,0,0,1,456.69,635.57Z" />
            <path class="color-shadow-dark"
                d="M324.57,609.36c.18,1.41.38,2.82.54,4.24.5,4.47.95,8.95,1.48,13.42a21,21,0,0,0,.8,4.11,2.71,2.71,0,0,0,1.46,1.56,57,57,0,0,0,5.62,1.56c2.71.66,5.42,1.44,8.17,1.85,3.31.5,6.67.65,10,1,.68.07,1.36.27,2,.4a54.31,54.31,0,0,1-7.12-.23c-5.63-.92-11.22-2-16.81-3.2-2.3-.47-4-1.64-4.2-4.34-.35-4.09-.89-8.16-1.35-12.24-.26-2.3-.56-4.59-.8-6.89A4.38,4.38,0,0,1,324.57,609.36Z" />
            <path class="color-shadow-dark"
                d="M506,597.9c.17-.64.32-1.29.5-1.92.42-1.43-.06-1.77-1.49-1.82a22.53,22.53,0,0,1-5.48-.86A48,48,0,0,0,482,591a3.23,3.23,0,0,1-.79-.15,37.5,37.5,0,0,1,12.37.51c2.67.67,5.32,1.47,8,2.06a16.22,16.22,0,0,0,3.88.26c1.07,0,1.77.46,1.56,1.55A15.87,15.87,0,0,1,506,597.9Z" />
            <path class="color-shadow-dark"
                d="M379.41,637.23A2,2,0,0,1,380,637q8.09,0,16.17,0a2.51,2.51,0,0,1,.73.27c-.7.06-1.39.16-2.08.16q-7.33,0-14.66,0A3.55,3.55,0,0,1,379.41,637.23Z" />
            <path class="color-shadow-dark"
                d="M427.17,637a6.37,6.37,0,0,1,1.21-.26c2.45,0,4.9,0,7.35-.09s5.07-.28,7.6-.42a3.28,3.28,0,0,1,.69.1,7,7,0,0,1-1.32.3q-7.44.29-14.87.52A2.62,2.62,0,0,1,427.17,637Z" />
            <path class="color-shadow-dark"
                d="M406.05,637.26a2.8,2.8,0,0,1,.84-.29q6.64,0,13.28,0a1.12,1.12,0,0,1,.34.11c-1.21.09-2.41.24-3.62.26-3.35.07-6.71.08-10.06.09A3.58,3.58,0,0,1,406.05,637.26Z" />
            <path class="color-shadow-dark"
                d="M369.09,637.47c.17-.08.33-.24.5-.24q3.87-.08,7.74-.12a1.64,1.64,0,0,1,.44.15s0,.1,0,.1Z" />
            <path class="color-shadow-dark"
                d="M448.53,636.06c1.07-.15,2.14-.37,3.22-.43,1.42-.07,2.85,0,4.28,0a13.25,13.25,0,0,1-1.94.37C452.24,636.05,450.38,636,448.53,636.06Z" />
            <path class="color-shadow-dark"
                d="M360.15,637.75l6.75-.23c-.64.1-1.27.23-1.91.27-1.34.09-2.67.15-4,.19A3.33,3.33,0,0,1,360.15,637.75Z" />
            <path class="color-shadow-dark"
                d="M324.85,600.88c0,1.7,0,3.4,0,5.1C324.86,604.28,324.86,602.58,324.85,600.88Z" />
            <path class="color-shadow-dark" d="M398.31,637.27h0Z" />
            <path class="color-shadow-dark"
                d="M324.79,595.35c0,1.38,0,2.76,0,4.14C324.78,598.11,324.78,596.73,324.79,595.35Z" />
            <path class="color-shadow-dark" d="M506,603.89c0-1.3,0-2.59,0-3.89C506,601.3,506,602.59,506,603.89Z" />
            <path class="color-shadow-dark" d="M326.6,593.7l-1.58-.17-.15,1.41c0-.6-.05-1.21-.08-1.81Z" />
            <path class="color-shadow-dark" d="M355.58,637.53l3.42.19Z" />
            <path class="color-shadow-dark" d="M479.51,590.93l-2.66.17Z" />
            <path class="color-shadow-dark" d="M444.45,636.3l2.45-.23Z" />
            <path class="color-shadow-dark" d="M324.79,606.63l-.19,2.06Z" />
            <path class="color-shadow-dark" d="M421.81,637.06l1.81,0Z" />
            <path class="color-shadow-dark" d="M424.05,637h0Z" />
            <path class="color-shadow-dark" d="M404.13,637.25h0Z" />
            <path class="color-shadow-dark"
                d="M503.93,601.48c-.26,3.38-.56,6.75-.78,10.13-.06,1,.25,2,.14,3-.36,3.29-.68,6.59-1.31,9.83-.74,3.87-.44,2.83-4,3.76a17.61,17.61,0,0,1-1.74.42c-4.21.66-8.43,1.26-12.64,2-2.51.42-5,1.09-7.5,1.45-2.92.41-5.87.6-8.8.89-2,.19-4,.43-6,.56-3.05.2-6.1.32-9.14.51-1.6.1-3.18.31-4.77.43-2.38.18-4.76.38-7.14.48q-4.42.18-8.86.21-19.44.13-38.9.21c-3.62,0-7.25-.17-10.87-.15-6.12,0-12.23.07-18.34.26a106.58,106.58,0,0,1-21.55-1.75c-1.52-.27-3-.93-4.47-1.34-2.83-.79-5.69-1.5-8.51-2.31a1.4,1.4,0,0,1-.77-1c-.36-2.61-.72-5.22-.94-7.84-.33-3.93-.64-7.86-.78-11.8-.09-2.31.17-4.63.23-6.94a19.37,19.37,0,0,0-.15-2.27c-.16-1.55,0-1.56,1.51-1.38A95.47,95.47,0,0,0,340.12,600c3.52,0,7-.83,10.55-1.39,8.44-1.35,16.85-2.84,25.3-4.09,3.51-.52,7.09-.47,10.62-.85,5.14-.56,10.21.51,15.31.54,4.07,0,8.15-.13,12.22-.16,3.52,0,7,0,10.55,0s7.27,0,10.9-.17c3.87-.14,7.74-.48,11.61-.62a157.93,157.93,0,0,1,21.31.29,65.53,65.53,0,0,0,8.74-.2c6-.21,12-.68,18,1.16,2.47.77,5,1.25,7.57,1.8.92.21,1,.92,1,1.56.08,1.19,0,2.39,0,3.59ZM374.36,599l-3.6.24-.73.22-1.67,0h-.48l-2.16.25c-.76,0-1.52,0-2.27,0-3.05.29-6.08.73-9.13.89-3.85.21-7.71.22-11.56.26-3.24,0-6.48,0-9.72,0-2,0-3.1,1-3.07,3,0,2.27.15,4.54.23,6.81.16,5.1.36,10.19.45,15.29a2.15,2.15,0,0,0,1.75,2.34c1.81.44,3.64.82,5.47,1.19,2.3.46,4.59,1,6.91,1.31,3.29.51,6.67.62,9.89,1.41,4.32,1,8.65,1,13,1,2.69,0,5.37-.3,8.06-.45,1.71-.1,3.42-.23,5.13-.24,2.78,0,5.56-.09,8.33.06,3.13.18,6.24.6,9.37.89,2.32.22,4.64.4,7,.59,2.5.21,5,.5,7.49.59,2.79.1,5.59,0,8.39,0a42.16,42.16,0,0,0,4.5-.06c3-.3,6-.79,9-1.12,1.7-.18,3.41-.16,5.12-.28,3-.21,5.94-.57,8.91-.67,3.8-.11,7.6,0,11.4,0a11.33,11.33,0,0,0,1.42-.12c3-.35,6.07-.63,9.09-1.1,2.44-.39,4.86-1,7.27-1.54,2.59-.63,5.12-1.5,7.73-2s5.35-.66,8-1a4.74,4.74,0,0,0,4.58-4.86c.1-1.64-.05-3.29,0-4.93.19-4,.5-7.93.69-11.9.09-1.86,0-3.72,0-5.58.08-2.11-.58-2.62-2.47-3.2a14.46,14.46,0,0,0-3.65-.49q-6.17-.2-12.33-.23c-1.26,0-2.52.28-3.78.37-2.66.2-5.32.49-8,.49-3,0-6-.25-8.94-.4h-.72l-1.44,0H452.6a4.89,4.89,0,0,0-1.13-.21c-1.19,0-2.37.22-3.56.21-2.26,0-4.53-.25-6.79-.2-4,.08-8,.27-12,.47-1.21.06-2.41.31-3.61.47l-2.4.22a10.54,10.54,0,0,0-1.25-.22c-1.23,0-2.48,0-3.7,0-3-.26-6.07-.81-9.11-.87-4.77-.09-9.55.11-14.33.2a2.77,2.77,0,0,0-.65.22h-1.19c-.81-.87-1.74-.48-2.65-.22l-6.47,1.68-.74.46h-1.66l-1,.44h-1.43l-1,0-2.88.23Z" />
            <path class="color-base"
                d="M378.92,598.77h1.43l1-.44H383l.74-.46,6.47-1.68,2.65.22H394a1.63,1.63,0,0,0,.52.24c4.63.25,9.26.58,13.9.71,4.46.12,8.92,0,13.39,0a5.94,5.94,0,0,0,1.23-.24l2.4-.22a16.71,16.71,0,0,0,2.21.22c6.9-.14,13.8-.28,20.7-.48,1.41,0,2.81-.31,4.21-.48h5.28l1.44,0H460c.15.15.29.42.46.44,3,.35,6,.8,9,1,3.94.21,7.9.35,11.84.23a23.38,23.38,0,0,1,10.8,2.56c3.1,1.46,2.64,1.29,2.23,4,0,.16,0,.32,0,.48l-.24,13.77c0,1.75-.4,2.3-2.12,2.85-2.27.73-4.54,1.48-6.84,2.1a92,92,0,0,1-9.47,2.32c-4.42.69-8.9,1.06-13.37,1.46-3.72.33-7.45.54-11.19.73-4.17.21-8.36.52-12.53.45a68,68,0,0,0-15.12,1.86,9,9,0,0,1-3.51.47,32.5,32.5,0,0,0-7.29-.67c-2.46.05-4.92-.27-7.38-.41-1.79-.11-3.58-.15-5.37-.28-4.12-.29-8.24-.67-12.36-.9-2.34-.13-4.68-.06-7,0-1.51,0-3,.18-4.52.23-4.64.17-9.29.46-13.92.43-3.81,0-7.62-.48-11.43-.66a55.15,55.15,0,0,1-14.23-2.74c-.93-.29-2.31-.2-2.59-1.59-.46-2.21-.94-4.42-1.22-6.65-.24-2-.19-4-.3-6-.13-2.46-.32-4.92-.43-7.38,0-.92.33-1.41,1.43-1.39,3.6.07,7.2,0,10.8,0a9.4,9.4,0,0,0,1.19,0l8.86-1.15c3.69-.49,7.39-1,11.09-1.48.17,0,.3-.29.45-.44l2.16-.25h.48l1.67,0,.73-.22,3.6-.24h.72l2.88-.23Z" />
            <path class="color-shadow"
                d="M365.72,599.75c-.15.15-.28.42-.45.44-3.7.51-7.4,1-11.09,1.48l-8.86,1.15a9.4,9.4,0,0,1-1.19,0c-3.6,0-7.2,0-10.8,0-1.1,0-1.47.47-1.43,1.39.11,2.46.3,4.92.43,7.38.11,2,.06,4,.3,6,.28,2.23.76,4.44,1.22,6.65.28,1.39,1.66,1.3,2.59,1.59a55.15,55.15,0,0,0,14.23,2.74c3.81.18,7.62.64,11.43.66,4.63,0,9.28-.26,13.92-.43,1.51,0,3-.21,4.52-.23,2.35,0,4.69-.12,7,0,4.12.23,8.24.61,12.36.9,1.79.13,3.58.17,5.37.28,2.46.14,4.92.46,7.38.41a32.5,32.5,0,0,1,7.29.67,9,9,0,0,0,3.51-.47,68,68,0,0,1,15.12-1.86c4.17.07,8.36-.24,12.53-.45,3.74-.19,7.47-.4,11.19-.73,4.47-.4,8.95-.77,13.37-1.46a92,92,0,0,0,9.47-2.32c2.3-.62,4.57-1.37,6.84-2.1,1.72-.55,2.09-1.1,2.12-2.85l.24-13.77c0-.16,0-.32,0-.48.41-2.71.87-2.54-2.23-4a23.38,23.38,0,0,0-10.8-2.56c-3.94.12-7.9,0-11.84-.23-3-.16-6-.61-9-1-.17,0-.31-.29-.46-.44,3,.15,6,.41,8.94.4,2.65,0,5.31-.29,8-.49,1.26-.09,2.52-.38,3.78-.37q6.16,0,12.33.23a14.46,14.46,0,0,1,3.65.49c1.89.58,2.55,1.09,2.47,3.2-.07,1.86.06,3.72,0,5.58-.19,4-.5,7.93-.69,11.9-.08,1.64.07,3.29,0,4.93a4.74,4.74,0,0,1-4.58,4.86c-2.68.33-5.39.48-8,1s-5.14,1.36-7.73,2c-2.41.58-4.83,1.15-7.27,1.54-3,.47-6.06.75-9.09,1.1a11.33,11.33,0,0,1-1.42.12c-3.8,0-7.6-.08-11.4,0-3,.1-5.94.46-8.91.67-1.71.12-3.42.1-5.12.28-3,.33-6,.82-9,1.12a42.16,42.16,0,0,1-4.5.06c-2.8,0-5.6.08-8.39,0-2.5-.09-5-.38-7.49-.59-2.32-.19-4.64-.37-7-.59-3.13-.29-6.24-.71-9.37-.89-2.77-.15-5.55-.09-8.33-.06-1.71,0-3.42.14-5.13.24-2.69.15-5.37.42-8.06.45-4.36,0-8.69.07-13-1-3.22-.79-6.6-.9-9.89-1.41-2.32-.36-4.61-.85-6.91-1.31-1.83-.37-3.66-.75-5.47-1.19a2.15,2.15,0,0,1-1.75-2.34c-.09-5.1-.29-10.19-.45-15.29-.08-2.27-.19-4.54-.23-6.81,0-2,1-3,3.07-3,3.24,0,6.48,0,9.72,0,3.85,0,7.71,0,11.56-.26,3.05-.16,6.08-.6,9.13-.89C364.2,599.71,365,599.75,365.72,599.75Z" />
            <path class="color-shadow"
                d="M423.08,597.09a5.94,5.94,0,0,1-1.23.24c-4.47,0-8.93.11-13.39,0-4.64-.13-9.27-.46-13.9-.71a1.63,1.63,0,0,1-.52-.24,2.77,2.77,0,0,1,.65-.22c4.78-.09,9.56-.29,14.33-.2,3,.06,6.07.61,9.11.87,1.22.1,2.47,0,3.7,0A10.54,10.54,0,0,1,423.08,597.09Z" />
            <path class="color-shadow"
                d="M452.6,596.13c-1.4.17-2.8.44-4.21.48-6.9.2-13.8.34-20.7.48a16.71,16.71,0,0,1-2.21-.22c1.2-.16,2.4-.41,3.61-.47,4-.2,8-.39,12-.47,2.26,0,4.53.17,6.79.2,1.19,0,2.37-.17,3.56-.21A4.89,4.89,0,0,1,452.6,596.13Z" />
            <path class="color-shadow" d="M392.85,596.37l-2.65-.22C391.11,595.89,392,595.5,392.85,596.37Z" />
            <path class="color-shadow" d="M459.32,596.15l-1.44,0Z" />
            <path class="color-shadow" d="M378.92,598.77l-1,0Z" />
            <path class="color-shadow" d="M381.33,598.32l-1,.44Z" />
            <path class="color-shadow" d="M370.76,599.26l-.73.22Z" />
            <path class="color-shadow" d="M375.08,599h0Z" />
            <path class="color-shadow" d="M383.73,597.83l-.74.46Z" />
            <path class="color-shadow" d="M382.28,598.3h0Z" />
            <path class="color-shadow" d="M368.36,599.5h0Z" />
        </g>
    </g>
</svg>
