<svg id="Nizy_classic" data-name="Nizy classic" xmlns="http://www.w3.org/2000/svg" viewBox="0 0 672 960">
    <g id="img_17" data-name="img 17">
        <g id="img_15_img" data-name="img 15 img">
            <path class="color-base"
                d="M332.11,577l.47.72c.14-.48.22-.86.36-1.21a3.22,3.22,0,0,1,2.59-2.37,2.78,2.78,0,0,1,3.1,1.73c1.57,3.23,3.08,6.49,4.67,9.71a2,2,0,0,0,1.08,1.05c4.84,1,9.67,2.12,14.54,3,3.45.61,7,.9,10.44,1.35,3.32.43,6.63,1,10,1.32a61,61,0,0,0,17.06-.14,77.27,77.27,0,0,1,8.35-.71,2.45,2.45,0,0,1,2.65,1.82c.24.8.7.95,1.42.89,4-.34,7.92-.66,11.89-1,2.78-.23,5.56-.41,8.33-.72,3.4-.39,6.78-.89,10.18-1.33q3.32-.42,6.64-.79l13.53-1.55c3.28-.38,6.56-.69,9.83-1.16,2.08-.31,4.11-.95,6.19-1.27,3.78-.59,7.57-1.08,11.36-1.55,1.54-.19,3.1-.24,4.65-.28,1,0,1.39-.37,1.4-1.43a23.57,23.57,0,0,1,2.21-9.61c.38-.83.77-1.53,1.85-1.2.08-.15.18-.25.18-.35q.1-5.37.19-10.76h.48a7.14,7.14,0,0,0,.22,1.48c1.47,3.86,1.77,7.93,2.1,12,.11,1.27.16,2.54.23,3.81a21.37,21.37,0,0,1-.7-2.92c-.08-.83-.82-2-1.67-2-.3,0-.54.81-.77,1.27a1.84,1.84,0,0,0-.12.7c-.09,3.15-.08,6.3-.27,9.44-.17,2.65-.52,5.29-.85,7.92a40.2,40.2,0,0,0-.74,5,3.15,3.15,0,0,1-1.28,2.89c-.4.3-.49,1-.72,1.54l-10.07.55-.52.09-13.4,1.1-.72.06-16.31,0-2.89,0-9.36.24-.48,0-3,.1-16.7.57a2,2,0,0,0-.64-.22c-3.93,0-7.86,0-11.79,0a2.22,2.22,0,0,0-.8.34l-7.17.12h-1.44l-7.16-.13a2.52,2.52,0,0,0-.81-.33q-4.28,0-8.55,0c-.27,0-.53.23-.79.35l-3.54,0a2.64,2.64,0,0,0-.9-.37c-4.06,0-8.12,0-12.18,0a2.64,2.64,0,0,0-.9.37l-1.89.07a18.58,18.58,0,0,0-3.12-.43c-2.68.08-5.36.29-8.05.47-.2,0-.4.28-.6.43l-4.51-.11-.76-.11-1.9-.09a11.09,11.09,0,0,0-1.52-1.08c-2.94-1.43-5.24-3.42-5.69-6.85-.56-4.24-.92-8.52-1.48-12.76-.22-1.66-.79-3.28-1.12-4.93A27,27,0,0,1,332.11,577Z" />
            <path class="outline"
                d="M361.16,605.26l1.89-.07h14l3.54,0,10.15,0,7.16.13h1.44l7.17-.12,12.92,0c.11,0,.21-.11.31-.16l16.7-.57,3-.1.48,0,9.36-.24,2.89,0,16.31,0,.72-.06,13.4-1.1.52-.09,10.07-.55h1l2.66-.16,1.67,0c1.38.09,2.77.15,4.15.27.66.06.94-.21,1.06-.82.5-2.44,1-4.89,1.52-7.33l1.45-1.26,0,0a18.9,18.9,0,0,1-.54,6.52,69.64,69.64,0,0,0-1.82,7.81c-.53,3-1,6-2.51,8.68l0,0a5,5,0,0,1-3.87,1.11,28.82,28.82,0,0,0-3.22,0c-1.29,0-2.59.15-3.88.22l-.45,0c-3.22.11-6.45.14-9.66.36-3.62.26-7.23.7-10.85,1-2.61.25-5.23.48-7.84.72l-.45,0c-1.43,0-2.86,0-4.29,0l-11.34.26h-1.71l-4.36,0-1.4-.07-10.59-.2c-2.9,0-5.8-.16-8.69-.15-3.26,0-6.51.12-9.77.19a16.83,16.83,0,0,0-2-.09c-5,.33-10,.66-14.93,1.07-4.22.34-8.43.8-12.64,1.2-7.11.68-14.2,1.57-21.33,2a114.79,114.79,0,0,1-14.23-.43,27.79,27.79,0,0,1-10-2.27c-2.05-1-4.2-1.74-6.3-2.6a6.77,6.77,0,0,1-1.94-.9,3.1,3.1,0,0,1-1.14-1.81c-.32-4.54-.64-9.09-.71-13.63-.08-4.71.13-9.41.22-14.12.74-.55.82-.09.8.53l.42,2.69c.42,4.36.81,8.72,1.3,13.07a1.47,1.47,0,0,0,1,.95c1.71.09,3.43,0,5.15,0l.46.08h3.6l1.94.14h3.12l1.9.09.76.11,4.51.11c3.83-.1,7.65-.19,11.47-.3C361,605.43,361.06,605.32,361.16,605.26Zm-25.91,2.14,3.87.14,1.85,0,1.26,0,3.58,0,4.35.15,4.77.11,3.39.12,3.81.11,3.87.14,6,.1a1.94,1.94,0,0,0,.54.19c3.31,0,6.63,0,9.94,0a2,2,0,0,0,.54-.2l6.45-.1c.48,0,.95.11,1.43.11q5.26,0,10.55,0c1,0,2-.06,3-.09l13.85,0,4.35-.14,4-.15,1.48-.1,1.89-.1,2.19-.13,2.84-.13,2-.13,5.28-.15,1.93,0c.67,0,1.34.08,2,.08l14,0,1.92-.09,3.36-.15,1.44-.1,2.84-.13,1-.1,1.92-.16.72-.06,2.16-.2.48-.06,1.68-.18.48-.06,1.68-.18.48-.06,1.16-.12,1-.15.93-.1,1-.1,4.06-.42.5-.07,1.89-.1c.48,0,.95.07,1.43.06,3.22,0,6.45-.06,9.67-.15.38,0,.74-.35,1.11-.54-.34-.22-.68-.63-1-.63q-3.71.06-7.41.26c-1.49.08-3,.27-4.48.41l-4.58.31-.69,0-.55.18-1.86,0-.47,0-1.65.09-5.07.37-.94.06-1.71.15-1.4.1-2.19.17-9.82,0h-.53l-12.46-.06-.71,0-1.66.05c-1.71,0-3.42-.05-5.13,0-.94,0-1.88.13-2.81.2l-5.5.07-2.67.17-3.8.12-2.67.12-15.37.22-.48,0-13.3,0q-6.4,0-12.82.13H361.68l-1.95.12-3.81.11-2.44.12H352l-7.48-.11H341l-1.88-.07a8,8,0,0,0-1.28-.23c-3.22,0-6.43,0-9.65,0a4.21,4.21,0,0,0-.62.09v.3l6.79.44Zm154.1-.85-1.71.15-1.4.1-1.48.16-1.4.11-1,.13-1.64.14-.76.07-1.64.14-1,.11-5.24.37-1.24.1-3.32.15-2,.09-3.56.14-1,.06-10.43,0c-4.07,0-8.15-.05-12.22.07-9.46.26-18.92.8-28.38.9-14.82.15-29.65,0-44.48,0l-.72,0-9.12-.22-1,0-20.87-.18-.72-.07-1-.09-2.37-.11c-.24,0-.48,0-.72-.09-1.5-.25-1.55-.24-1.45,1.21s.3,3.09.53,4.62c.05.29.44.61.75.76,1.81.94,3.63,1.83,5.45,2.72a21,21,0,0,0,2.93,1.36,55.85,55.85,0,0,0,19.09,2.37q8.85-.37,17.67-1c4.09-.29,8.16-.81,12.24-1.2,4.24-.41,8.48-.86,12.73-1.16,3.7-.26,7.41-.35,11.11-.53a3.66,3.66,0,0,0,.79-.2h10.31l1.69,0a8,8,0,0,0,1.37.22c2.28,0,4.56,0,6.83.06,4.79.11,9.57.36,14.36.36,4.27,0,8.54-.24,12.8-.41,3.19-.13,6.39-.2,9.56-.54,4.55-.49,9.06-1.34,13.62-1.78,4.95-.48,9.94-.7,14.91-1,2.57-.14,4.13-.93,4.65-3.38.36-1.66.94-3.26,1.45-5h-4.93l-1.89,0-4.82.17Z" />
            <path class="color-shadow"
                d="M333.56,605.26l-.46-.08c-.4-.4-.74-.74-.54-1.45a2.24,2.24,0,0,0-.88-2.42,2.6,2.6,0,0,1-.79-1.39q-.54-3.09-.92-6.2c-.23-1.87-.37-3.75-.55-5.65l-1.61.65-.16-4.78c0-.25,0-.5,0-.75l1.54-4.38.55-.65a4.9,4.9,0,0,1,.74-.82c.48-.33,1-.58,1.53-.86l.08.47a27,27,0,0,0,.3,2.85c.33,1.65.9,3.27,1.12,4.93.56,4.24.92,8.52,1.48,12.76.45,3.43,2.75,5.42,5.69,6.85a11.09,11.09,0,0,1,1.52,1.08H339.1l-1.94-.14h-3.6Z" />
            <path class="color-shadow"
                d="M498.44,602.12l-1.67,0c-.91-.33-1.82-.6-2.66.16h-1c.23-.53.32-1.24.72-1.54a3.15,3.15,0,0,0,1.28-2.89,40.2,40.2,0,0,1,.74-5c.33-2.63.68-5.27.85-7.92.19-3.14.18-6.29.27-9.44a1.84,1.84,0,0,1,.12-.7c.23-.46.47-1.24.77-1.27.85-.08,1.59,1.12,1.67,2a21.37,21.37,0,0,0,.7,2.92c0,.41,0,.82,0,1.22s-.14.85-.15,1.27c0,1.22-.06,2.45,0,3.68a11.64,11.64,0,0,0,.26,1.51c-.24,2.46-.43,4.93-.73,7.38C499.28,596.35,498.84,599.23,498.44,602.12Z" />
            <path class="color-shadow-dark"
                d="M327.81,588.72l1.61-.65c.18,1.9.32,3.78.55,5.65q.38,3.1.92,6.2a2.6,2.6,0,0,0,.79,1.39,2.24,2.24,0,0,1,.88,2.42c-.2.71.14,1,.54,1.45-1.72,0-3.44.09-5.15,0a1.47,1.47,0,0,1-1-.95c-.49-4.35-.88-8.71-1.3-13.07.25-.58.5-1.16.74-1.74h0l.52-.37.56-.29Z" />
            <path class="color-shadow-dark"
                d="M324.39,587.94c-.09,4.71-.3,9.41-.22,14.12.07,4.54.39,9.09.71,13.63A3.1,3.1,0,0,0,326,617.5a6.77,6.77,0,0,0,1.94.9c2.1.86,4.25,1.63,6.3,2.6a27.79,27.79,0,0,0,10,2.27,114.79,114.79,0,0,0,14.23.43c7.13-.38,14.22-1.27,21.33-2,4.21-.4,8.42-.86,12.64-1.2,5-.41,9.95-.74,14.93-1.07a16.83,16.83,0,0,1,2,.09c-2.06.16-4.12.3-6.17.47-5.69.49-11.38.91-17.06,1.5-10.68,1.13-21.32,2.75-32.08,2.81a64,64,0,0,1-17-1.86,29.53,29.53,0,0,1-3.13-1.18l-6.22-2.49c-3.29-1.33-3.34-1.88-3.4-4.56-.12-5.79-.49-11.57-.65-17.36-.06-2.55.14-5.11.27-7.66A5.08,5.08,0,0,1,324.39,587.94Z" />
            <path class="color-base"
                d="M462,619.52c2.61-.24,5.23-.47,7.84-.72,3.62-.35,7.23-.79,10.85-1,3.21-.22,6.44-.25,9.66-.36a2.64,2.64,0,0,1-.86.26c-4.22-.27-8.35.48-12.52,1-3.36.4-6.75.56-10.13.78C465.21,619.51,463.59,619.49,462,619.52Z" />
            <path class="color-base"
                d="M501.77,616c1.49-2.71,2-5.69,2.51-8.68a69.64,69.64,0,0,1,1.82-7.81,18.9,18.9,0,0,0,.54-6.52c.14.25.41.51.39.75a42.74,42.74,0,0,1-.45,5.2c-.72,3.79-1.55,7.55-2.43,11.31-.4,1.69-1,3.35-1.57,5C502.47,615.57,502.05,615.76,501.77,616Z" />
            <path class="color-base"
                d="M500.36,586.07a11.64,11.64,0,0,1-.26-1.51c0-1.23,0-2.46,0-3.68,0-.42.1-.84.15-1.27a2.5,2.5,0,0,1,.36.9c-.05,1.43-.21,2.85-.23,4.28a1.35,1.35,0,0,0,.64.94c.68.4,1.45.65,2.16,1a3.17,3.17,0,0,1,1.86,3c0,.94.18,1.88.26,2.63l1.29.66-1.45,1.26a4,4,0,0,1-.46-1.13c-.08-.91,0-1.83-.06-2.75-.07-1.4-.37-2.7-1.86-3.31C502,586.71,501.17,586.39,500.36,586.07Z" />
            <path class="color-base"
                d="M332,576.48c-.51.28-1,.53-1.53.86a4.9,4.9,0,0,0-.74.82c.08-1,.16-2,.23-3.07a7.13,7.13,0,0,1,.08-1.54,6.54,6.54,0,0,1,.75-1.33,5,5,0,0,1,.72,1.23C331.77,574.45,331.87,575.47,332,576.48Z" />
            <path class="color-base"
                d="M445.9,619.83l11.34-.26c1.43,0,2.86,0,4.29,0a5.61,5.61,0,0,1-1.11.27q-6.76.15-13.53.26A3.6,3.6,0,0,1,445.9,619.83Z" />
            <path class="color-base"
                d="M490.78,617.37c1.29-.07,2.59-.18,3.88-.22a28.82,28.82,0,0,1,3.22,0,5,5,0,0,0,3.87-1.11c-.58.48-1.14,1.35-1.73,1.37C496.94,617.51,493.86,617.41,490.78,617.37Z" />
            <path class="color-base"
                d="M427.84,619.53l10.59.2c-1.22.06-2.44.16-3.66.16-2.07,0-4.13,0-6.2-.11A2.26,2.26,0,0,1,427.84,619.53Z" />
            <path class="color-base"
                d="M327.81,588.72l-.38,0c.07-1.61.15-3.22.22-4.82C327.7,585.53,327.76,587.12,327.81,588.72Z" />
            <path class="color-base" d="M439.83,619.8l4.36,0Z" />
            <path class="color-base" d="M329.21,578.81l-1.54,4.38A5.59,5.59,0,0,1,329.21,578.81Z" />
            <path class="color-base"
                d="M326.35,589.42c-.24.58-.49,1.16-.74,1.74l-.42-2.69C325.8,588.51,325.4,589.8,326.35,589.42Z" />
            <path class="color-base" d="M326.87,589.05l-.52.37Z" />
            <path class="color-shadow-dark"
                d="M361.16,605.26c-.1.06-.2.17-.3.17-3.82.11-7.64.2-11.47.3.2-.15.4-.41.6-.43,2.69-.18,5.37-.39,8.05-.47A18.58,18.58,0,0,1,361.16,605.26Z" />
            <path class="color-shadow-dark"
                d="M377,605.19h-14a2.64,2.64,0,0,1,.9-.37c4.06,0,8.12,0,12.18,0A2.64,2.64,0,0,1,377,605.19Z" />
            <path class="color-shadow-dark"
                d="M419.72,605c-.1.05-.2.16-.31.16l-12.92,0a2.22,2.22,0,0,1,.8-.34c3.93,0,7.86,0,11.79,0A2,2,0,0,1,419.72,605Z" />
            <path class="color-shadow-dark"
                d="M390.72,605.15l-10.15,0c.26-.12.52-.35.79-.35q4.27,0,8.55,0A2.52,2.52,0,0,1,390.72,605.15Z" />
            <path class="color-shadow-dark" d="M452.13,604.1l-2.89,0Z" />
            <path class="color-shadow-dark" d="M399.32,605.28h0Z" />
            <path class="color-shadow-dark" d="M344.88,605.62l-.76-.11Z" />
            <path class="color-shadow-dark" d="M469.16,604.07l-.72.06Z" />
            <path class="color-shadow-dark" d="M439.88,604.32l-.48,0Z" />
            <path class="color-shadow-dark" d="M483.08,602.88l-.52.09Z" />
            <path class="color-shadow"
                d="M333.09,609.08l.72.07c0,1.68,0,1.66,1.67,1.89a25.89,25.89,0,0,1,5.4.84c4.65,1.73,9.5,2.25,14.35,2.69a107.15,107.15,0,0,0,10.76.27c3.08,0,6.17-.28,9.25-.46,4-.22,7.93-.52,11.91-.7,3.52-.15,7.05-.24,10.58-.24,4.35,0,8.7.13,13,.22,2.21.05,4.42.15,6.63.25a12.77,12.77,0,0,0,2.12.16c4.94-.63,9.84-1.54,14.88-1.4,4.71.14,9.43,0,14.15,0,1.68,0,3.36.08,5,0,4.4-.27,8.8-.67,13.2-.92A58.71,58.71,0,0,0,478,610.32c3.72-1,7.52-1.59,11.27-2.44a20.86,20.86,0,0,0,3-1.18,17.4,17.4,0,0,0,1.77,0,12.82,12.82,0,0,0,1.6-.38l1.89,0c0,.52,0,1,0,1.56-.13,3.06-1.14,4-4.18,3.91a36.47,36.47,0,0,0-3.77,0,25,25,0,0,0-3.86.62c-3.5.87-7,1.94-10.48,2.72a63.87,63.87,0,0,1-7.18,1c-3.4.36-6.8.72-10.2.9-2.06.11-4.14-.19-6.21-.19-8.34,0-16.69-.23-25,.48-1.25.1-2.5.3-3.74.45l-1.69,0H410.85c-1.64-.16-3.29-.47-4.93-.47-8.34,0-16.69.14-25,.22l-.48,0c-4.05.55-8.08,1.27-12.14,1.6-4.6.36-9.23.37-13.85.52a3.79,3.79,0,0,1-.94-.12c-2.14-.43-4.29-.82-6.42-1.33-3.31-.79-6.66-1.52-9.9-2.56a52.25,52.25,0,0,1-6.38-2.92,1.17,1.17,0,0,1-.56-.69c-.2-1-.33-2.1-.49-3.16l2.37.1Z" />
            <path class="color-base"
                d="M492.21,606.7a20.86,20.86,0,0,1-3,1.18c-3.75.85-7.55,1.48-11.27,2.44a58.71,58.71,0,0,1-11.19,1.44c-4.4.25-8.8.65-13.2.92-1.67.1-3.35,0-5,0-4.72,0-9.44.11-14.15,0-5-.14-9.94.77-14.88,1.4a12.77,12.77,0,0,1-2.12-.16c-2.21-.1-4.42-.2-6.63-.25-4.34-.09-8.69-.21-13-.22-3.53,0-7.06.09-10.58.24-4,.18-7.94.48-11.91.7-3.08.18-6.17.43-9.25.46a107.15,107.15,0,0,1-10.76-.27c-4.85-.44-9.7-1-14.35-2.69a25.89,25.89,0,0,0-5.4-.84c-1.67-.23-1.67-.21-1.67-1.89l20.87.18,1,0,9.12.22.72,0c14.83,0,29.66.13,44.48,0,9.46-.1,18.92-.64,28.38-.9,4.07-.12,8.15,0,12.22-.07l10.43,0,1-.06,3.56-.14,2-.09,3.32-.15,1.24-.1,5.24-.37,1-.11,1.64-.14.76-.07,1.64-.14,1-.13,1.4-.11,1.48-.16,1.4-.1,1.71-.15,1.41-.07Z" />
            <path class="color-base"
                d="M379.44,606.64q6.4-.07,12.82-.13l13.3,0,.48,0,15.37-.22,2.67-.12,3.8-.12a2.5,2.5,0,0,0,2.67-.17l5.5-.07c.13.07.27.2.41.2,2.3,0,4.6,0,6.9,0,.21,0,.42-.25.63-.39l1.66-.05.71,0,12.46.06.26.34.27-.33,9.82,0,2.19-.17,1.4-.1,1.71-.15.94-.06a8.78,8.78,0,0,0,5.07-.37l1.65-.09.47,0,1.86,0,.06.49-1,.34-.93.1-1,.15-1.16.12-.48.06-1.68.18-.48.06-1.68.18-.48.06-2.16.2-.72.06-1.92.16-1,.1-2.84.13-1.44.1-3.36.15-1.92.09-14,0c-.68,0-1.35,0-2-.08l-1.93,0-5.28.16-2,.12-2.84.13-2.19.13-1.89.1-1.48.1-4,.15c-.88-.07-1.75-.2-2.63-.19a9.48,9.48,0,0,0-1.72.33l-13.85,0a3.23,3.23,0,0,0-1-.3q-6.51,0-13,0a3.52,3.52,0,0,0-1,.29l-6.45.1-10.93,0s-.06.05-.09.08l-6-.1-3.87-.14-3.81-.1-3.39-.13-4.77-.11-4.35-.15-3.58,0c0-.25,0-.49,0-.74h2.31a4,4,0,0,0,1.07.32c1.2,0,2.4,0,3.6,0,.94,0,1.87-.14,2.81-.21h1.44l2.44-.12,3.81-.11,1.95-.12h17.76Z" />
            <path class="color-shadow-dark"
                d="M329.73,608.88c.16,1.06.29,2.12.49,3.16a1.17,1.17,0,0,0,.56.69,52.25,52.25,0,0,0,6.38,2.92c3.24,1,6.59,1.77,9.9,2.56,2.13.51,4.28.9,6.42,1.33a3.79,3.79,0,0,0,.94.12c4.62-.15,9.25-.16,13.85-.52,4.06-.33,8.09-1,12.14-1.6l.48,0c8.34-.08,16.69-.19,25-.22,1.64,0,3.29.31,4.93.47a3.66,3.66,0,0,1-.79.2c-3.7.18-7.41.27-11.11.53-4.25.3-8.49.75-12.73,1.16-4.08.39-8.15.91-12.24,1.2q-8.82.61-17.67,1a55.85,55.85,0,0,1-19.09-2.37,21,21,0,0,1-2.93-1.36c-1.82-.89-3.64-1.78-5.45-2.72-.31-.15-.7-.47-.75-.76-.23-1.53-.42-3.08-.53-4.62s-.05-1.46,1.45-1.21C329.25,608.83,329.49,608.85,329.73,608.88Z" />
            <path class="color-shadow-dark"
                d="M422.85,617.73c1.24-.15,2.49-.35,3.74-.45,8.32-.71,16.67-.48,25-.48,2.07,0,4.15.3,6.21.19,3.4-.18,6.8-.54,10.2-.9a63.87,63.87,0,0,0,7.18-1c3.52-.78,7-1.85,10.48-2.72a25,25,0,0,1,3.86-.62,36.47,36.47,0,0,1,3.77,0c3,.08,4.05-.85,4.18-3.91,0-.52,0-1,0-1.56h4.93c-.51,1.75-1.09,3.35-1.45,5-.52,2.45-2.08,3.24-4.65,3.38-5,.27-10,.49-14.91,1-4.56.44-9.07,1.29-13.62,1.78-3.17.34-6.37.41-9.56.54-4.26.17-8.53.41-12.8.41-4.79,0-9.57-.25-14.36-.36-2.27,0-4.55,0-6.83-.06A8,8,0,0,1,422.85,617.73Z" />
            <path class="color-shadow-dark"
                d="M500.36,586.07c.81.32,1.62.64,2.43,1,1.49.61,1.79,1.91,1.86,3.31.05.92,0,1.84.06,2.75a4,4,0,0,0,.46,1.13c-.51,2.44-1,4.89-1.52,7.33-.12.61-.4.88-1.06.82-1.38-.12-2.77-.18-4.15-.27.4-2.89.84-5.77,1.19-8.67C499.93,591,500.12,588.53,500.36,586.07Z" />
            <path class="color-shadow-dark"
                d="M490.28,604.07c1.5-.14,3-.33,4.48-.41q3.71-.2,7.41-.26c.33,0,.67.41,1,.63-.37.19-.73.53-1.11.54-3.22.09-6.45.12-9.67.15-.48,0-.95,0-1.43-.06Z" />
            <path class="color-shadow-dark"
                d="M334.32,607.35l-6.79-.44v-.3a4.21,4.21,0,0,1,.62-.09c3.22,0,6.43,0,9.65,0a8,8,0,0,1,1.28.23c-1.23.06-2.47.09-3.7.19A4,4,0,0,0,334.32,607.35Z" />
            <path class="color-shadow-dark"
                d="M389.44,608.22a3.52,3.52,0,0,1,1-.29q6.53,0,13,0a3.23,3.23,0,0,1,1,.3c-1,0-2,.09-3,.09q-5.28,0-10.55,0C390.39,608.33,389.92,608.26,389.44,608.22Z" />
            <path class="color-shadow-dark"
                d="M372,608.36s.06-.08.09-.08l10.93,0a2,2,0,0,1-.54.2c-3.31,0-6.63,0-9.94,0A1.94,1.94,0,0,1,372,608.36Z" />
            <path class="color-shadow" d="M490.28,604.07l.69.59-1.89.1-.5.07-4.06.42V605l-.06-.49.55-.18.69,0Z" />
            <path class="color-shadow-dark"
                d="M444,605.58c-.21.14-.42.39-.63.39-2.3,0-4.6,0-6.9,0-.14,0-.28-.13-.41-.2.93-.07,1.87-.19,2.81-.2C440.57,605.53,442.28,605.57,444,605.58Z" />
            <path class="color-shadow-dark"
                d="M352,607c-.94.07-1.87.18-2.81.21-1.2,0-2.4,0-3.6,0a4,4,0,0,1-1.07-.32Z" />
            <path class="color-base"
                d="M334.32,607.35a4,4,0,0,1,1.06-.39c1.23-.1,2.47-.13,3.7-.19l1.88.07c0,.24,0,.49,0,.73l-1.85,0-3.87-.14Z" />
            <path class="color-shadow-dark" d="M480.48,604.69a8.78,8.78,0,0,1-5.07.37Z" />
            <path class="color-shadow-dark"
                d="M492.21,606.7l-1.45-.22,4.82-.17a12.82,12.82,0,0,1-1.6.38A17.4,17.4,0,0,1,492.21,606.7Z" />
            <path class="color-shadow-dark" d="M418.25,608.27a9.48,9.48,0,0,1,1.72-.33c.88,0,1.75.12,2.63.19Z" />
            <path class="color-shadow-dark" d="M345.81,607.63l4.35.15Z" />
            <path class="color-shadow-dark" d="M362.13,608.12l3.87.14Z" />
            <path class="color-shadow-dark" d="M335.25,607.4l3.87.14Z" />
            <path class="color-shadow-dark" d="M354.93,607.89l3.39.13Z" />
            <path class="color-shadow-dark" d="M494.11,602.33c.84-.76,1.75-.49,2.66-.16Z" />
            <path class="color-shadow-dark" d="M424.08,606.12l-2.67.12Z" />
            <path class="color-shadow-dark" d="M430.55,605.83a2.5,2.5,0,0,1-2.67.17Z" />
            <path class="color-shadow-dark" d="M379.44,606.64h0Z" />
            <path class="color-shadow-dark" d="M355.92,606.84l-2.44.12Z" />
            <path class="color-shadow-dark" d="M333.56,605.26h0Z" />
            <path class="color-shadow-dark" d="M341,607.57c0-.24,0-.49,0-.73h1.29c0,.25,0,.49,0,.74Z" />
            <path class="color-shadow-dark" d="M430,607.78l2.19-.13Z" />
            <path class="color-shadow-dark" d="M471.36,605.37l-2.19.17Z" />
            <path class="color-shadow-dark" d="M442.28,607.24l1.93,0Z" />
            <path class="color-shadow-dark" d="M435,607.52l2-.12Z" />
            <path class="color-shadow-dark" d="M337.16,605.27l1.94.14Z" />
            <path class="color-shadow-dark" d="M467.52,608.28l-2,.09Z" />
            <path class="color-shadow-dark" d="M361.68,606.61l-1.95.12Z" />
            <path class="color-shadow-dark" d="M460.28,607.25l1.92-.09Z" />
            <path class="color-shadow-dark" d="M374.16,606.62h0Z" />
            <path class="color-shadow-dark" d="M474.47,605.12l-1.71.15Z" />
            <path class="color-shadow-dark" d="M489.35,606.55l-1.71.15Z" />
            <path class="color-shadow-dark" d="M465.56,607l1.44-.1Z" />
            <path class="color-shadow-dark" d="M486.24,606.8l-1.48.16Z" />
            <path class="color-shadow-dark" d="M426.64,608l1.48-.1Z" />
            <path class="color-shadow-dark" d="M472.08,608l-1.24.1Z" />
            <path class="color-shadow-dark" d="M420,617.76h0Z" />
            <path class="color-shadow-dark" d="M411.8,617.76h0Z" />
            <path class="color-shadow-dark" d="M469.84,606.78l1-.1Z" />
            <path class="color-shadow-dark" d="M484.52,605v.24l-1,.1Z" />
            <path class="color-shadow-dark" d="M481.6,605.6l1-.15Z" />
            <path class="color-shadow-dark" d="M462,608.51l-1,.06Z" />
            <path class="color-shadow-dark" d="M333.09,609.08l-1-.1Z" />
            <path class="color-shadow-dark" d="M478.32,607.55l-1,.11Z" />
            <path class="color-shadow-dark" d="M483.36,607.07l-1,.13Z" />
            <path class="color-shadow-dark" d="M355.64,609.35l-1,0Z" />
            <path class="color-shadow-dark" d="M446.36,605.51l-.71,0Z" />
            <path class="color-shadow-dark" d="M365.48,609.59l-.72,0Z" />
            <path class="color-shadow-dark" d="M480.72,607.34l-.76.07Z" />
            <path class="color-shadow-dark" d="M485.7,604.38l-.69,0Z" />
            <path class="color-shadow-dark" d="M472.76,606.52l.72-.06Z" />
            <path class="color-shadow-dark" d="M475.64,606.26l.48-.06Z" />
            <path class="color-shadow-dark" d="M477.8,606l.48-.06Z" />
            <path class="color-shadow-dark" d="M480,605.78l.48-.06Z" />
            <path class="color-shadow-dark" d="M459.35,605.58l-.27.33-.26-.34Z" />
            <path class="color-shadow-dark" d="M488.58,604.83l.5-.07Z" />
            <path class="color-shadow-dark" d="M406,606.46l-.48,0Z" />
            <path class="color-shadow-dark" d="M482.6,604.56l-.47,0Z" />
        </g>
    </g>
</svg>
