<svg width="24" height="24" viewBox="0 0 24 24" fill="none" xmlns="http://www.w3.org/2000/svg">
<path d="M21.1699 2.89065L16.377 1.33331C16.377 2.4649 15.9159 3.55015 15.095 4.3503C14.2742 5.15046 13.1609 5.59998 12 5.59998C10.8391 5.59998 9.72582 5.15046 8.90496 4.3503C8.08411 3.55015 7.62296 2.4649 7.62296 1.33331L2.8301 2.89065C2.33482 3.05149 1.91484 3.37962 1.64596 3.81581C1.37707 4.252 1.277 4.76752 1.3638 5.26931L1.99847 8.97065C2.04013 9.22122 2.1721 9.4491 2.37067 9.61333C2.56923 9.77756 2.82137 9.86738 3.08178 9.86665H5.43444V20.5333C5.43444 21.7066 6.41927 22.6666 7.62296 22.6666H16.377C16.9575 22.6666 17.5141 22.4419 17.9245 22.0418C18.335 21.6417 18.5655 21.0991 18.5655 20.5333V9.86665H20.9182C21.1786 9.86738 21.4308 9.77756 21.6293 9.61333C21.8279 9.4491 21.9599 9.22122 22.0015 8.97065L22.6362 5.26931C22.723 4.76752 22.6229 4.252 22.354 3.81581C22.0852 3.37962 21.6652 3.05149 21.1699 2.89065V2.89065Z" stroke="#332B2F" stroke-width="2" stroke-linecap="round" stroke-linejoin="round"/>
</svg>
