<svg width="14" height="12" viewBox="0 0 14 12" fill="none" xmlns="http://www.w3.org/2000/svg">
    <path
        d="M1.20877 0.931552L3.97788 3.54158L6.44497 0.287621C6.51406 0.196652 6.60141 0.12355 6.70052 0.0737596C6.79964 0.0239689 6.90796 -0.00122776 7.01743 4.5996e-05C7.12689 0.00131975 7.23468 0.0290311 7.33276 0.0811164C7.43084 0.133202 7.51669 0.208319 7.58391 0.300874L9.9382 3.5408L12.7968 0.893353C12.9091 0.789599 13.0483 0.72505 13.1957 0.708345C13.3431 0.69164 13.4918 0.723577 13.6219 0.79988C13.7519 0.876183 13.8571 0.993213 13.9233 1.13531C13.9896 1.2774 14.0137 1.43778 13.9925 1.59497L12.9009 9.66127H1.11634L0.00796824 1.63161C-0.0140484 1.47354 0.00982017 1.31204 0.0763412 1.16899C0.142862 1.02593 0.248821 0.908234 0.379867 0.831835C0.510912 0.755436 0.660712 0.724028 0.808976 0.741864C0.95724 0.7597 1.0968 0.825919 1.20877 0.931552V0.931552ZM1.17311 10.4408H12.8172V11.2204C12.8172 11.4272 12.7405 11.6255 12.6041 11.7717C12.4676 11.9179 12.2825 12 12.0895 12H1.90086C1.70785 12 1.52274 11.9179 1.38626 11.7717C1.24978 11.6255 1.17311 11.4272 1.17311 11.2204V10.4408Z"
        fill="#FFC700" />
</svg>
