<svg id="Karmany" xmlns="http://www.w3.org/2000/svg" viewBox="0 0 672 960">
    <g id="img_45_img" data-name="img 45 img">
        <path class="outline"
            d="M494.75,428.66a37.81,37.81,0,0,1-1.54-3.6,189.79,189.79,0,0,1-4.67-20.42,102.69,102.69,0,0,0-4-14.15,84.78,84.78,0,0,1-3.27-13.61,151,151,0,0,1-2.19-16.35c-.34-5.76-.37-11.59,1.22-17.27a9.26,9.26,0,0,0,0-2.47,2.89,2.89,0,0,1,.19-1.25c1.11,3.77,2.3,7.49,2.21,11.48s-.42,7.88.09,11.73a78.39,78.39,0,0,0,3.09,13.59,131.93,131.93,0,0,1,3.89,16.1c1.07,5.86,1.85,11.76,3,17.61a23.39,23.39,0,0,0,2,5.07,10.73,10.73,0,0,1,.92,7.07,15.11,15.11,0,0,0,.07,2.22c-.1,1.41-.31,2.82-.48,4.22Zm-13.35-80c-3,3.36,1.84,36.47,5.5,39.85a6.54,6.54,0,0,0,0-1.33c-.69-3.19-1.3-6.41-2.15-9.57-2-7.31-3.58-14.65-3.35-22.29C481.46,353.07,481.4,350.85,481.4,348.63Z" />
        <path class="transparent"
            d="M481.4,348.63c0,2.22.06,4.44,0,6.66-.23,7.64,1.38,15,3.35,22.29.85,3.16,1.46,6.38,2.15,9.57a6.54,6.54,0,0,1,0,1.33C483.24,385.1,478.41,352,481.4,348.63Z" />
    </g>
</svg>
