<svg id="Изображение_9" data-name="Изображение 9" xmlns="http://www.w3.org/2000/svg" viewBox="0 0 672 960">

    <g>
        <path class="outline"
            d="M347,181.29c1.75.12,2.18.6,2.5,2.25a5.92,5.92,0,0,0,1.12,2.26,59.13,59.13,0,0,0,7.72,8.93,53.48,53.48,0,0,0,9.45,7.06,52.26,52.26,0,0,0,11.39,4.87,78.37,78.37,0,0,0,9.47,2.08,60.45,60.45,0,0,0,8.61.68,63.1,63.1,0,0,0,6.68-.63c1.78-.17,3.57-.22,5.32-.52q5.71-1,11.39-2.22a26.79,26.79,0,0,0,8.4-3.58,40.21,40.21,0,0,0,9.58-8.31c3.22-3.76,5.51-8.08,7.91-12.34,1.6-2.86,2.85-5.92,4.2-8.92.47-1,1.25-1,2.07-.79,1.71.38,3.42.79,5.11,1.26a77.46,77.46,0,0,1,13.56,5.09c2.29,1.12,4.7,2,7.07,3a24.13,24.13,0,0,1,5.77,3.93c2.29,1.84,4.63,3.61,6.94,5.42a31.63,31.63,0,0,1,6.86,7c1.53,2.28,2.9,4.67,4.23,7.07,1.51,2.73,2.16,5.79,3.11,8.72,1,3.1,1.93,6.22,2.95,9.31.72,2.16,1.5,4.3,2.3,6.44.93,2.49,1.93,4.95,2.88,7.44s2,5.12,2.9,7.7c.48,1.32.78,2.71,1.28,4,.32.83,0,1.08-.67,1.41-12,5.56-23.91,11.18-35.89,16.7-1.88.86-2.83,1.84-3,4.08-.6,7.93-1.44,15.84-2.31,23.75-.47,4.27.52,8.35,1.36,12.44,2.6,12.58,5.33,25.13,8.05,37.69.83,3.82,1.72,7.63,2.74,11.4a11.54,11.54,0,0,1,.09,4.26c-.17,1.83-.53,3.65-.58,5.48a36,36,0,0,0,.4,4.85c.29,2.57.69,5.12.94,7.69.3,3.07.61,6.16.68,9.24a29.25,29.25,0,0,1-.68,5c-.11.71-.46,1-1.25.81s-1.68,0-2.51-.09a12.77,12.77,0,0,1-3.1-.48c-2-.71-3.9-1.61-5.84-2.43a3.28,3.28,0,0,1-.66-.28c-2.27-1.72-5-1.83-7.62-1.9q-15.42-.44-30.83-.81c-2.2-.05-4.4.1-6.6.09q-30.94-.07-61.91-.17c-8.51,0-17,0-25.55.22-3.91.1-7.81.62-11.7,1-6.4.68-12.77,1.55-19.18,2.12a53.57,53.57,0,0,1-10,.09,47.68,47.68,0,0,1-14.29-3.28,4.51,4.51,0,0,0-2.09-.43c-2,.18-2.72-1.17-3.19-2.63-.54-1.73-.8-3.54-1.24-5.29-.74-3-1.57-6-2.29-9-.49-2.07-.88-4.17-1.31-6.26-.63-3.16-1.31-6.32-1.88-9.49-.62-3.44-1.13-6.91-1.72-10.37-.34-2-.8-3.89-1.11-5.84-.25-1.63-.38-3.28-.56-4.91-.24-2.1-.49-4.2-.7-6.3-.07-.63,0-1.28,0-1.91a25.11,25.11,0,0,0-1.12-8,1.7,1.7,0,0,1,.17-1.44,4.56,4.56,0,0,0,.92-2.77c1.19-10,2.44-20.07,3.55-30.11.69-6.28,1.21-12.57,1.74-18.86q.89-10.71,1.62-21.41t1.26-21.19c.32-6.15.6-12.31.79-18.46.1-3.23-.09-6.48,0-9.72a7.19,7.19,0,0,1,.75-2.72c.15-.34.81-.59,1.27-.63,2.56-.22,5.14-.33,7.71-.53,3.7-.29,7.39-.66,11.09-1q4.2-.31,8.41-.54c2.93-.17,5.88-.17,8.8-.45q5.74-.54,11.45-1.42c3.41-.53,6.8-1.17,10.15-2a44.67,44.67,0,0,0,5.21-2C345.89,181.54,346.42,181.44,347,181.29Zm20,23.81c-.3-.2-.58-.42-.89-.6a50.17,50.17,0,0,1-13.78-11.23c-2.28-2.71-4.25-5.68-6.35-8.55-.28-.38-.42-.78-1.1-.6-3,.8-6.07,1.73-9.16,2.24-5.78.94-11.58,1.82-17.4,2.38-7.3.7-14.64,1-22,1.55q-6,.42-11.93.88c-1.73.13-2.45.94-2.49,2.68-.13,5.07-.23,10.15-.4,15.22-.23,6.66-.52,13.31-.8,20-.14,3.15-.32,6.29-.5,9.43-.13,2.31-.25,4.62-.44,6.93-.38,4.69-.8,9.38-1.22,14.07-.28,3.13-.63,6.26-.92,9.39-.34,3.68-.62,7.37-1,11.06-.37,3.92-.85,7.84-1.15,11.78-.34,4.28-.5,8.58-.79,12.86-.09,1.39-.41,2.77-.46,4.16-.09,2.14,0,4.29-.06,6.44a9.47,9.47,0,0,1-.13,1.07,12.58,12.58,0,0,0-.22,2.1c.18,3.35.36,6.69.64,10,.31,3.61.65,7.22,1.14,10.81.56,4,1.31,8,2,12,.71,4.33,1.27,8.69,2.15,13,1.14,5.5,2.52,10.95,3.82,16.42a6.25,6.25,0,0,0,5.83,5.1c1,.33,2,.61,2.93,1A33.71,33.71,0,0,0,306.61,389c2.23-.06,4.46-.27,6.69-.44,3.61-.29,7.22-.6,10.82-.9,2.82-.24,5.63-.54,8.46-.69,2.53-.14,5.08-.06,7.62-.16,3.41-.14,6.83-.36,10.24-.55,1.5-.08,3-.19,4.5-.29l9.08,0,.75,0,1.67.06c2.31.05,4.62.13,6.93.13,6.41,0,12.82,0,19.23-.06l14.24-.06c1,0,2-.05,3,0,3,.07,6,.27,9,.24,3.59,0,7.17-.27,10.76-.42l2.87-.1,1.94-.1,2.38-.11,8.38.15c3.86.08,7.71.1,11.56.25,3.61.14,7.23.37,10.84.67a28.85,28.85,0,0,1,11.38,3,16.07,16.07,0,0,0,4.26,1.53c2.27.45,2.26.3,3-1.87,1.35-3.95.82-7.93.14-11.86a43,43,0,0,1,0-14.05,29.92,29.92,0,0,0,.75-5.43,38.25,38.25,0,0,0-1.05-7.2c-1.59-6.71-3.44-13.36-5-20.09-1.38-6.15-2.47-12.36-3.69-18.54-1.11-5.59-2.24-11.18-3.33-16.78a10.88,10.88,0,0,1-.32-2.83c.11-1.82.37-3.64.61-5.46q1-8,2.1-16c.19-1.49.4-3,.58-4.46a7.89,7.89,0,0,0,0-1.19l.14-1.18.14-.5.1-1.19c.14-.85.26-1.7.43-2.54a2,2,0,0,1,.34-.56c.13.2.37.41.37.61,0,.95-.16,1.91-.09,2.84a21.79,21.79,0,0,0,.55,2.74l2-1a1.13,1.13,0,0,0,.26-.23l4.81-2.28c1.09-.47,2.21-.9,3.28-1.43q12.38-6.06,24.73-12.15c.67-.33.82-.67.55-1.4-4-11.07-7.94-22.18-11-33.56a38.5,38.5,0,0,0-10.84-18.32c-3.22-3-6.4-6.08-10.28-8.37a42.57,42.57,0,0,0-7.53-3.88c-1.09-.38-2.16-.84-3.21-1.32a79.88,79.88,0,0,0-16.89-6.05c-2-.42-1.89-.44-2.65,1.38-3,7.38-6.61,14.48-11.91,20.54a35.45,35.45,0,0,1-17.4,11.18c-3.31.91-6.7,1.51-10.05,2.24l-1.07.09c-4.43.48-8.86,1.18-13.31,1.4a47.73,47.73,0,0,1-16-1.7c-3.82-1.14-7.57-2.47-11.36-3.72Z" />
        <path class="color-base"
            d="M371,207.05c3.79,1.25,7.54,2.58,11.36,3.72a47.73,47.73,0,0,0,16,1.7c4.45-.22,8.88-.92,13.31-1.4l1.07-.09c.21.91,1,.92,1.62.88a21.12,21.12,0,0,0,3.88-.57c6-1.49,11.43-4.2,16.82-7.08a15.49,15.49,0,0,0,2.15-1.29c2.88-2.19,5.76-4.39,8.58-6.65a25.53,25.53,0,0,0,7.76-9.57,7.19,7.19,0,0,1,1.05.17c2.67.8,5.32,1.7,8,2.4a136.85,136.85,0,0,1,18.14,5.83,23.39,23.39,0,0,1,8.09,5.21c1.79,1.86,3.39,3.91,5.15,5.81a20.62,20.62,0,0,1,5.21,9.51c.82,3.56,1.56,7.17,3.33,10.43a4.78,4.78,0,0,0,.93,1,1.44,1.44,0,0,0,.06.47q3.39,7.31,6.79,14.62c.47,1,.88,2.05,1.34,3.06.24.52.08.78-.43,1A87.71,87.71,0,0,0,493.68,256c-.76.55-1.62,1-2.43,1.47l-6.41,2.54c.51-3.64,1-7.2,1.49-10.76a26.06,26.06,0,0,0,.32-4.4c-.15-3.25-.44-6.5-.69-9.74-.22-2.85-.44-5.7-.74-8.55a24.31,24.31,0,0,0-.78-4.32,2.89,2.89,0,0,0-1.38-1.6c-.23-.12-1.1.64-1.41,1.16a6.07,6.07,0,0,0-.71,2.14c-1.1,6.34-2.22,12.65-3.79,18.9-1.14,4.53-1.65,9.21-2.46,13.82-1.13,6.44-2.24,12.89-3.43,19.33-1.06,5.77-2.37,11.49-3.3,17.28-.64,4-.86,8.13-1.17,12.2-.09,1.26.23,2.54.19,3.8-.07,2-.45,4.05-.43,6.06.05,4.48-.06,9,1.8,13.25a1.55,1.55,0,0,1,.07.23c1,4.21,1.78,8.49,3.06,12.61,2.36,7.59,3,15.35,3,23.21,0,2.59,0,5.17,0,7.76s-.2,5.1-.2,7.64c0,1.16-.62,1.07-1.38,1-3-.23-6.09-.52-9.14-.67-1.35-.07-2.7.21-4,.2-6-.05-12.06-.24-18.08-.19-3.42,0-6.82.44-10.23.66-2.66.18-5.32.34-8,.5-1.63.1-3.26.18-4.89.26-3.33.15-6.67.37-10,.44-2.05,0-4.1-.23-6.15-.19-4.1.09-8.2.22-12.29.48-3.17.2-6.33.54-9.47,1-4.17.57-8.31,1.26-12.46,1.94a9.49,9.49,0,0,0-1.66.61l-1.67-.06c-.22-.49-.48-.47-.75,0l-9.08,0a35.37,35.37,0,0,0-3.82-.51c-2.75-.08-5.51,0-8.27,0-9.35.07-18.7.19-28.05.22-4.23,0-8.45-.15-12.68-.23a3.88,3.88,0,0,1-.48,0c-2.52-.3-5-.66-7.56-.89a1.54,1.54,0,0,1-1.54-1.36c-.39-1.66-.79-3.32-1.13-5-.77-3.81-1.55-7.62-2.24-11.45-.47-2.57-.82-5.17-1.18-7.76s-.68-5.19-1-7.79c-.27-2.16-.53-4.33-.75-6.5-.33-3.16-.63-6.32-.93-9.48-.18-1.93-.26-3.88-.52-5.81-.42-3.1-1.07-6.18-1.38-9.29-.44-4.3-.75-8.63-.95-12.95-.15-3.27,0-6.56-.05-9.84a29.25,29.25,0,0,0-.55-5.92c-.65-2.72-.22-5.39-.1-8.07.12-2.46.46-4.9.67-7.35.19-2.26.29-4.52.51-6.77.35-3.47.82-6.93,1.16-10.41.3-3.16.53-6.33.71-9.5.21-3.58.33-7.16.51-10.74.06-1.31.16-2.62.26-3.93.23-3.33.52-6.65.67-10,.11-2.48-.11-5,.07-7.44.27-3.76.78-7.49,1.14-11.24.27-2.81.48-5.62.71-8.43a15.2,15.2,0,0,1,.32-2.45,1.38,1.38,0,0,1,.94-.85c2.22-.31,4.45-.52,6.68-.76h.48l2.16-.23h.48l3.84-.24h.48l6.72-.23h1.2l2.39,0,1.21-.22H317l1-.23,1.91,0,.73-.22,3.12-.23h3.83l1.21-.23H330l1.21-.23h2.4c.64.59,1.23,1.23,1.91,1.77a65.93,65.93,0,0,0,11.59,7.31,115.42,115.42,0,0,0,15.9,6.22,21.75,21.75,0,0,0,7.57.75C370.7,207.32,370.86,207.14,371,207.05Z" />
        <path class="color-shadow"
            d="M366.44,386.09a9.49,9.49,0,0,1,1.66-.61c4.15-.68,8.29-1.37,12.46-1.94,3.14-.43,6.3-.77,9.47-1,4.09-.26,8.19-.39,12.29-.48,2.05,0,4.1.23,6.15.19,3.34-.07,6.68-.29,10-.44,1.63-.08,3.26-.16,4.89-.26,2.66-.16,5.32-.32,8-.5,3.41-.22,6.81-.63,10.23-.66,6-.05,12.05.14,18.08.19,1.35,0,2.7-.27,4-.2,3.05.15,6.1.44,9.14.67.76.06,1.39.15,1.38-1,0-2.54.17-5.09.2-7.64s0-5.17,0-7.76c0-7.86-.61-15.62-3-23.21-1.28-4.12-2.06-8.4-3.06-12.61a1.55,1.55,0,0,0-.07-.23c-1.86-4.24-1.75-8.77-1.8-13.25,0-2,.36-4,.43-6.06,0-1.26-.28-2.54-.19-3.8.31-4.07.53-8.17,1.17-12.2.93-5.79,2.24-11.51,3.3-17.28,1.19-6.44,2.3-12.89,3.43-19.33.81-4.61,1.32-9.29,2.46-13.82,1.57-6.25,2.69-12.56,3.79-18.9a6.07,6.07,0,0,1,.71-2.14c.31-.52,1.18-1.28,1.41-1.16a2.89,2.89,0,0,1,1.38,1.6,24.31,24.31,0,0,1,.78,4.32c.3,2.85.52,5.7.74,8.55.25,3.24.54,6.49.69,9.74a26.06,26.06,0,0,1-.32,4.4c-.46,3.56-1,7.12-1.49,10.76l6.41-2.54a2.29,2.29,0,0,1-.4.55c-1.23.95-2.48,1.86-3.69,2.82a11.44,11.44,0,0,0-1.17,1.24l-4.81,2.28a34.41,34.41,0,0,0,.19-3.92c-.16-3-.42-6-.71-9a19.58,19.58,0,0,0-.65-3.38c-.11-.42-.59-.73-.91-1.1-.35.43-.94.82-1,1.3-.27,1.6-.4,3.22-.51,4.85-.19,2.81-.33,5.63-.46,8.45a3.19,3.19,0,0,0,.24,1l-.1,1.19-.14.5-.14,1.18a2,2,0,0,0-.36.53c-.66,3-1.28,6-1.95,9-.44,2-1.09,3.91-1.39,5.91-.52,3.57-.9,7.16-1.22,10.75s-.51,7.13-.72,10.7a45.73,45.73,0,0,0,1.16,11.24c.85,4.44,1.51,8.91,2.23,13.38s1.43,9,2.11,13.51a58.3,58.3,0,0,0,3,12.48,6.36,6.36,0,0,1,.83,3.3,42.52,42.52,0,0,0-.5,4.49c-.13,3.07-.27,6.14-.18,9.21.1,3.53.43,7.05.68,10.58q.17,2.43.42,4.86c.06.64,0,.94-.75.66A35.46,35.46,0,0,0,470,384.22a21.2,21.2,0,0,1-3.19-.37,36.83,36.83,0,0,0-9.88-.55c-4.23.2-8.45.6-12.67.93-1.78.14-3.56.29-5.33.55a11,11,0,0,0-2.13.8l-2.38.11c-.67-.36-1.32-.54-1.94.1l-2.87.1c-3.59.15-7.17.38-10.76.42-3,0-6-.17-9-.24-1,0-2,0-3,0l-14.24.06c-6.41,0-12.82.06-19.23.06C371.06,386.22,368.75,386.14,366.44,386.09Z" />
        <path class="color-shadow-dark"
            d="M296.12,193.43c-2.23.24-4.46.45-6.68.76a1.38,1.38,0,0,0-.94.85,15.2,15.2,0,0,0-.32,2.45c-.14.12-.36.2-.42.35-.69,1.77-1.41,3.54-2,5.34a28.24,28.24,0,0,0-1.79,6.16c-.35,3.8-.2,7.65-.33,11.48-.09,2.5-.31,5-.49,7.49-.22,3.25-.51,6.5-.69,9.75-.21,3.89-.21,7.8-.52,11.69-.26,3.27-.82,6.52-1.24,9.79-.38,3-.82,6-1.11,9.08-.25,2.65-.34,5.32-.49,8-.25,4.24-.48,8.49-.73,12.74-.07,1.19-.17,2.38-.26,3.57-.23,3-.57,5.93-.67,8.9-.07,2.42.09,4.86.22,7.29.12,2.14.21,4.29.52,6.41.82,5.6,1.75,11.19,2.61,16.8.5,3.25.93,6.51,1.43,9.76s1.1,6.57,1.58,9.86c.4,2.74.74,5.5,1,8.26.22,2.05.18,4.14.55,6.17.82,4.48,1.81,8.94,2.74,13.4.42,2,.85,4,1.27,5.94a6.25,6.25,0,0,1-5.83-5.1c-1.3-5.47-2.68-10.92-3.82-16.42-.88-4.29-1.44-8.65-2.15-13-.66-4-1.41-8-2-12-.49-3.59-.83-7.2-1.14-10.81-.28-3.34-.46-6.68-.64-10a12.58,12.58,0,0,1,.22-2.1,9.47,9.47,0,0,0,.13-1.07c0-2.15,0-4.3.06-6.44.05-1.39.37-2.77.46-4.16.29-4.28.45-8.58.79-12.86.3-3.94.78-7.86,1.15-11.78.35-3.69.63-7.38,1-11.06.29-3.13.64-6.26.92-9.39.42-4.69.84-9.38,1.22-14.07.19-2.31.31-4.62.44-6.93.18-3.14.36-6.28.5-9.43.28-6.66.57-13.31.8-20,.17-5.07.27-10.15.4-15.22,0-1.74.76-2.55,2.49-2.68q6-.45,11.93-.88c7.32-.51,14.66-.85,22-1.55,5.82-.56,11.62-1.44,17.4-2.38,3.09-.51,6.12-1.44,9.16-2.24.68-.18.82.22,1.1.6,2.1,2.87,4.07,5.84,6.35,8.55a50.17,50.17,0,0,0,13.78,11.23c.31.18.59.4.89.6-.27,0-.58.15-.79.05-3.4-1.55-6.84-3-10.15-4.74a32.42,32.42,0,0,1-10.36-8.67c-1.7-2.12-1.67-2.15-4.33-1.45a2,2,0,0,1-.24,0l-7.53,1h-2.4c-.48-.33-.93-.49-1.21.23h-1.19c-.48-.33-.93-.49-1.21.23h-3.83l-3.12.23c-.38-.37-.62-.28-.73.22l-1.91,0c-.42-.33-.78-.42-1,.23h-1.91c-.48-.33-.93-.49-1.21.22l-2.39,0h-1.2l-6.72.23h-.48l-3.84.24h-.48l-2.16.23Z" />
        <path class="color-shadow"
            d="M289.39,385.7c-.42-2-.85-4-1.27-5.94-.93-4.46-1.92-8.92-2.74-13.4-.37-2-.33-4.12-.55-6.17-.3-2.76-.64-5.52-1-8.26-.48-3.29-1.08-6.57-1.58-9.86s-.93-6.51-1.43-9.76c-.86-5.61-1.79-11.2-2.61-16.8-.31-2.12-.4-4.27-.52-6.41-.13-2.43-.29-4.87-.22-7.29.1-3,.44-5.94.67-8.9.09-1.19.19-2.38.26-3.57.25-4.25.48-8.5.73-12.74.15-2.66.24-5.33.49-8,.29-3,.73-6.06,1.11-9.08.42-3.27,1-6.52,1.24-9.79.31-3.89.31-7.8.52-11.69.18-3.25.47-6.5.69-9.75.18-2.5.4-5,.49-7.49.13-3.83,0-7.68.33-11.48a28.24,28.24,0,0,1,1.79-6.16c.6-1.8,1.32-3.57,2-5.34.06-.15.28-.23.42-.35-.23,2.81-.44,5.62-.71,8.43-.36,3.75-.87,7.48-1.14,11.24-.18,2.47,0,5-.07,7.44-.15,3.33-.44,6.65-.67,10-.1,1.31-.2,2.62-.26,3.93-.18,3.58-.3,7.16-.51,10.74-.18,3.17-.41,6.34-.71,9.5-.34,3.48-.81,6.94-1.16,10.41-.22,2.25-.32,4.51-.51,6.77-.21,2.45-.55,4.89-.67,7.35-.12,2.68-.55,5.35.1,8.07a29.25,29.25,0,0,1,.55,5.92c.08,3.28-.1,6.57.05,9.84.2,4.32.51,8.65.95,12.95.31,3.11,1,6.19,1.38,9.29.26,1.93.34,3.88.52,5.81.3,3.16.6,6.32.93,9.48.22,2.17.48,4.34.75,6.5.31,2.6.63,5.2,1,7.79s.71,5.19,1.18,7.76c.69,3.83,1.47,7.64,2.24,11.45.34,1.67.74,3.33,1.13,5a1.54,1.54,0,0,0,1.54,1.36c2.53.23,5,.59,7.56.89a3.88,3.88,0,0,0,.48,0c4.23.08,8.45.24,12.68.23,9.35,0,18.7-.15,28.05-.22,2.76,0,5.52-.06,8.27,0a35.37,35.37,0,0,1,3.82.51c-1.5.1-3,.21-4.5.29-3.41.19-6.83.41-10.24.55-2.54.1-5.09,0-7.62.16-2.83.15-5.64.45-8.46.69-3.6.3-7.21.61-10.82.9-2.23.17-4.46.38-6.69.44a33.71,33.71,0,0,1-14.29-2.27C291.37,386.31,290.37,386,289.39,385.7Z" />
        <path class="color-shadow-dark"
            d="M436.75,385.58a11,11,0,0,1,2.13-.8c1.77-.26,3.55-.41,5.33-.55,4.22-.33,8.44-.73,12.67-.93a36.83,36.83,0,0,1,9.88.55,21.2,21.2,0,0,0,3.19.37A35.46,35.46,0,0,1,480.36,386c.74.28.81,0,.75-.66q-.25-2.43-.42-4.86c-.25-3.53-.58-7-.68-10.58-.09-3.07.05-6.14.18-9.21a42.52,42.52,0,0,1,.5-4.49,6.36,6.36,0,0,0-.83-3.3,58.3,58.3,0,0,1-3-12.48q-1-6.76-2.11-13.51c-.72-4.47-1.38-8.94-2.23-13.38a45.73,45.73,0,0,1-1.16-11.24c.21-3.57.4-7.14.72-10.7s.7-7.18,1.22-10.75c.3-2,1-3.94,1.39-5.91.67-3,1.29-6,1.95-9a2,2,0,0,1,.36-.53,7.89,7.89,0,0,1,0,1.19c-.18,1.49-.39,3-.58,4.46q-1.05,8-2.1,16c-.24,1.82-.5,3.64-.61,5.46a10.88,10.88,0,0,0,.32,2.83c1.09,5.6,2.22,11.19,3.33,16.78,1.22,6.18,2.31,12.39,3.69,18.54,1.52,6.73,3.37,13.38,5,20.09a38.25,38.25,0,0,1,1.05,7.2,29.92,29.92,0,0,1-.75,5.43,43,43,0,0,0,0,14.05c.68,3.93,1.21,7.91-.14,11.86-.75,2.17-.74,2.32-3,1.87a16.07,16.07,0,0,1-4.26-1.53,28.85,28.85,0,0,0-11.38-3c-3.61-.3-7.23-.53-10.84-.67-3.85-.15-7.7-.17-11.56-.25Z" />
        <path class="color-shadow-dark"
            d="M486,262.12a11.44,11.44,0,0,1,1.17-1.24c1.21-1,2.46-1.87,3.69-2.82a2.29,2.29,0,0,0,.4-.55c.81-.49,1.67-.92,2.43-1.47a87.71,87.71,0,0,1,17.55-9.85c.51-.22.67-.48.43-1-.46-1-.87-2.05-1.34-3.06q-3.39-7.32-6.79-14.62a1.44,1.44,0,0,1-.06-.47c-.86-3.1-1.65-6.22-2.59-9.29-1.43-4.68-2.94-9.33-4.48-14a12.2,12.2,0,0,0-3.61-5.56c-1.36-1.17-2.74-2.3-4.13-3.42-4.59-3.71-9.32-7.26-15-9.16s-11.25-3.49-16.87-5.26c-.75-.24-.89.12-1.09.66-.7,1.89-1.44,3.78-2.17,5.66a25.53,25.53,0,0,1-7.76,9.57c-2.82,2.26-5.7,4.46-8.58,6.65a15.49,15.49,0,0,1-2.15,1.29c-5.39,2.88-10.85,5.59-16.82,7.08a21.12,21.12,0,0,1-3.88.57c-.61,0-1.41,0-1.62-.88,3.35-.73,6.74-1.33,10.05-2.24a35.45,35.45,0,0,0,17.4-11.18c5.3-6.06,8.87-13.16,11.91-20.54.76-1.82.69-1.8,2.65-1.38a79.88,79.88,0,0,1,16.89,6.05c1.05.48,2.12.94,3.21,1.32a42.57,42.57,0,0,1,7.53,3.88c3.88,2.29,7.06,5.35,10.28,8.37a38.5,38.5,0,0,1,10.84,18.32c3.1,11.38,7,22.49,11,33.56.27.73.12,1.07-.55,1.4q-12.36,6.06-24.73,12.15C488.2,261.22,487.08,261.65,486,262.12Z" />
        <path class="color-shadow"
            d="M333.56,191.27l7.53-1a2,2,0,0,0,.24,0c2.66-.7,2.63-.67,4.33,1.45A32.42,32.42,0,0,0,356,200.41c3.31,1.72,6.75,3.19,10.15,4.74.21.1.52,0,.79-.05l4.06,2c-.16.09-.32.27-.49.27a21.75,21.75,0,0,1-7.57-.75,115.42,115.42,0,0,1-15.9-6.22A65.93,65.93,0,0,1,335.47,193C334.79,192.5,334.2,191.86,333.56,191.27Z" />
        <path class="color-shadow-dark"
            d="M477.35,262.55a3.19,3.19,0,0,1-.24-1c.13-2.82.27-5.64.46-8.45.11-1.63.24-3.25.51-4.85.08-.48.67-.87,1-1.3.32.37.8.68.91,1.1a19.58,19.58,0,0,1,.65,3.38c.29,3,.55,6,.71,9a34.41,34.41,0,0,1-.19,3.92,1.13,1.13,0,0,1-.26.23l-2,1a21.79,21.79,0,0,1-.55-2.74c-.07-.93.09-1.89.09-2.84,0-.2-.24-.41-.37-.61a2,2,0,0,0-.34.56C477.61,260.85,477.49,261.7,477.35,262.55Z" />
        <path class="color-shadow-dark" d="M432.43,385.79c.62-.64,1.27-.46,1.94-.1Z" />
        <path class="color-shadow" d="M364,386c.27-.43.53-.45.75,0Z" />
        <path class="color-shadow-dark" d="M477.11,264.24l.14-.5Z" />
        <path class="color-shadow"
            d="M453.56,186.7c.73-1.88,1.47-3.77,2.17-5.66.2-.54.34-.9,1.09-.66,5.62,1.77,11.29,3.38,16.87,5.26s10.38,5.45,15,9.16c1.39,1.12,2.77,2.25,4.13,3.42a12.2,12.2,0,0,1,3.61,5.56c1.54,4.64,3.05,9.29,4.48,14,.94,3.07,1.73,6.19,2.59,9.29a4.78,4.78,0,0,1-.93-1c-1.77-3.26-2.51-6.87-3.33-10.43a20.62,20.62,0,0,0-5.21-9.51c-1.76-1.9-3.36-4-5.15-5.81a23.39,23.39,0,0,0-8.09-5.21,136.85,136.85,0,0,0-18.14-5.83c-2.69-.7-5.34-1.6-8-2.4A7.19,7.19,0,0,0,453.56,186.7Z" />
        <path class="color-shadow" d="M323.72,191.75h0Z" />
        <path class="color-shadow" d="M330,191.49c.28-.72.73-.56,1.21-.23Z" />
        <path class="color-shadow" d="M327.55,191.73c.28-.72.73-.56,1.21-.23Z" />
        <path class="color-shadow" d="M313.87,192.68c.28-.71.73-.55,1.21-.22Z" />
        <path class="color-shadow" d="M310.28,192.71h0Z" />
        <path class="color-shadow" d="M317,192.45c.19-.65.55-.56,1-.23Z" />
        <path class="color-shadow" d="M319.87,192.2c.11-.5.35-.59.73-.22Z" />
        <path class="color-shadow" d="M303.08,192.94h0Z" />
        <path class="color-shadow" d="M298.76,193.19h0Z" />
        <path class="color-shadow" d="M296.12,193.43h0Z" />
    </g>
</svg>
