<svg id="bochonok" xmlns="http://www.w3.org/2000/svg" viewBox="0 0 672 960">
    <g id="img_4_img" data-name="img 4 img">
        <path class="outline"
            d="M452.36,172.07c1.46.42,2.9.92,4.37,1.27,6.34,1.5,12.12,4.43,18.11,6.85a34,34,0,0,1,10.6,6.57c1.6,1.49,3.53,2.61,5.28,3.94a39.45,39.45,0,0,1,10.75,13.17,58.35,58.35,0,0,1,4.12,11.32c2.51,8.4,5.55,16.6,8.83,24.71,1.14,2.81,2.16,5.65,3.15,8.27-8.53,4-17.06,7.88-25.47,12-4.68,2.28-9.18,4.92-13.74,7.45a1.82,1.82,0,0,0-.71,1.22c-.39,2.89-.7,5.78-1,8.67-.53,4.43-1,8.88-1.64,13.29a33.51,33.51,0,0,0,.21,9.85c.48,3.35.85,6.72,1.4,10.06.68,4.21,1.45,8.41,2.25,12.59,2,10.54,4.08,21.08,6.19,31.61.59,3,1.44,5.86,2.15,8.8.13.54.16,1.1.25,1.65.91,5.39,1.61,10.82,2.82,16.13.68,3,2.2,5.8,3.37,8.68,1.34,3.3,1.64,6.79,2,10.28.45,4.05,1,8.09,1.47,12.14a48.71,48.71,0,0,0,.64,4.85,42.07,42.07,0,0,0,1.72,5.84c1.43,3.69,1.87,7.59,2.54,11.44q1.81,10.37,3.47,20.77c1,6.15,1.93,12.3,2.71,18.48.66,5.27,1.19,10.57,1.56,15.87.5,7,.73,14,1.2,21,.35,5.06,1.09,10.1,1.33,15.17a209,209,0,0,1-.75,26.94c-.59,7.2-.71,14.43-1.07,21.65a192.74,192.74,0,0,1-1.84,21.86,23.55,23.55,0,0,0,0,3.67c-1.54-.08-2.9-.06-4.23-.24-4.45-.6-8.84,0-13.26.42-9,.86-18,2.24-27.12,2-2.09,0-4.18-.14-6.27-.1-3.31.06-6.61.3-9.92.33-19.19.17-38.38.39-57.57.4-4.21,0-8.43-.8-12.64-1.22s-8.61-.72-12.87-1.34a36.25,36.25,0,0,0-4.17,0c-7.47-.29-14.94-.49-22.42-.76-8.43-.29-16.86-.64-25.3-.89-1.23,0-1.77-.46-1.7-1.64a8.19,8.19,0,0,0-1.82-5.78,5.3,5.3,0,0,1-.79-1.74c-1.46-5-3-10-4.33-15.08-1.55-5.75-3-11.53-4.42-17.31s-3-11.78-4.2-17.73q-2.32-11.44-4.14-23c-1.39-9-2.4-18.06-3.77-27.07s-3-18-4.4-27c-.75-4.93-1.29-9.91-1.67-14.89-.51-6.81-.86-13.64-1.13-20.46q-.79-19.83-1.4-39.67c-.09-2.63.21-5.27.16-7.91s-.31-5-.49-7.52c-.35-4.78-.66-9.57-1.09-14.34-.4-4.46-1-8.9-1.42-13.35-.63-6.12-1.22-12.24-1.85-18.36a6.5,6.5,0,0,0-.52-1.56c-.89-2.22-1.81-4.43-2.67-6.66-.11-.29,0-.95.19-1,1-.39.9-1.26,1-2,.68-6.14,1.35-12.29,2-18.44.67-6.7,1.29-13.41,1.93-20.12.54-5.6,1.13-11.2,1.6-16.8.34-4.06.51-8.14.77-12.21.37-6,.82-11.95,1.13-17.94s.53-11.89.7-17.84c.2-6.67.3-13.35.44-20,0-.39,0-.78.06-1.28l8.61-.76c3.52-.32,7-.65,10.56-.94,3-.24,6.09-.51,9.15-.64,8.1-.34,16.2-.63,24.18-2.26,4.2-.87,8.43-1.65,12.33-3.6a3.51,3.51,0,0,1,2.31-.07,1.41,1.41,0,0,1,1,1.91c-.06.18.22.48.37.72a51.09,51.09,0,0,0,23.83,20.41,59.93,59.93,0,0,0,16.11,4.36,47.11,47.11,0,0,0,13.1.06c5.41-.85,10.87-1.45,16.24-2.49A33.72,33.72,0,0,0,440,192.92a82.08,82.08,0,0,0,10.91-19.62,6.79,6.79,0,0,1,.76-1.23Zm24.49,93.84.11-.5.14-1.18.14-.49.1-1.19.16-1.45.11-1.18.79-.75c.11,2.37.21,4.45.31,6.52l.42.08,2.05-1.38,4.8-2.28c1-.44,2.06-.86,3.07-1.32,6.61-3,13.24-6,19.79-9.15a64.82,64.82,0,0,0,5.94-3.64c-.59-1.72-1.12-3.39-1.74-5-3.76-9.94-6.89-20.08-9.82-30.3A38.82,38.82,0,0,0,492.42,195a60.63,60.63,0,0,0-11.55-9.07,36.2,36.2,0,0,0-3.46-1.88c-3.36-1.48-6.78-2.83-10.14-4.32a78.25,78.25,0,0,0-14.53-4.53,21.5,21.5,0,0,1-.95,2.74c-2.34,4.59-4.5,9.3-7.16,13.69-5,8.21-12,14.11-21.27,16.94-3.46,1.05-7.07,1.63-10.61,2.42-4.52.49-9,1.22-13.55,1.4a70,70,0,0,1-12-.58A68.35,68.35,0,0,1,370.8,207L367,205.11c-.33-.22-.65-.46-1-.65a52.46,52.46,0,0,1-10.37-7.7A53,53,0,0,1,346,184.83a1.08,1.08,0,0,0-1.63-.53,14.24,14.24,0,0,1-3,1c-4.19.79-8.37,1.62-12.6,2.2-4.69.65-9.41,1.12-14.13,1.53-4.17.36-8.36.51-12.54.81-5.85.43-11.69.93-17.53,1.36-1.89.14-2.68.88-2.71,2.74-.05,3.36-.05,6.71-.18,10.07q-.57,14.06-1.24,28.12c-.25,5.1-.6,10.2-.94,15.29-.12,1.84-.38,3.66-.53,5.49-.31,3.65-.57,7.3-.88,10.95-.25,2.9-.54,5.8-.82,8.7l-1.05,11.18c-.26,2.74-.58,5.48-.77,8.22-.28,4.05-.46,8.1-.73,12.15-.13,2-.42,4.05-.52,6.07-.1,1.79.09,3.6-.08,5.37a11,11,0,0,0,2.26,7.72,2.8,2.8,0,0,1,.47,1.32c.45,4.88.85,9.76,1.29,14.64.52,5.72,1.14,11.43,1.6,17.16s.85,11.45,1.11,17.18c.14,2.94-.14,5.91-.11,8.86s.27,6,.35,9c.14,4.91.19,9.83.34,14.75.17,5.46.39,10.93.63,16.39.28,6.38.49,12.78,1,19.15.42,5.48,1.11,11,1.81,16.41.45,3.6,1.08,7.18,1.71,10.75.72,4.09,1.59,8.15,2.29,12.23s1.34,8.27,2,12.42c.82,5.4,1.56,10.82,2.39,16.22.81,5.24,1.62,10.49,2.56,15.71.69,3.8,1.53,7.58,2.4,11.35,1,4.23,2,8.45,3.08,12.66,1.29,5.15,2.55,10.3,3.94,15.42,1.15,4.23,2.38,8.45,3.76,12.62,1.24,3.74,2.82,7.37,4.1,11.11.89,2.59,1.95,5.17,1.79,8a1.13,1.13,0,0,0,.68.82,34.34,34.34,0,0,0,4.16.45q10.07.42,20.12.75c2.63.09,5.27.08,7.9.11.64,0,1.27.1,1.91.12,6.18.21,12.38.28,18.55.67,6.61.42,13.19,1.28,19.8,1.71s13.4.61,20.1.8c4.59.12,9.19.06,13.78.08,2.08,0,4.15-.07,6.22-.08,3.92,0,7.84,0,11.75-.08q6.72-.07,13.42-.19c1.84,0,3.67,0,5.5-.14,4-.24,8-.5,11.93-.85,5.36-.48,10.71-1,16.07-1.59,4-.41,7.92-.93,11.89-1.27,1.83-.16,3.68,0,5.52,0,.33,0,.9-.37.95-.64.46-2.51.91-5,1.21-7.55.71-6,1.46-12,1.95-17.95.6-7.48,1.05-15,1.39-22.48.25-5.77.33-11.57.29-17.35,0-4.15-.24-8.31-.64-12.44a159.85,159.85,0,0,1-1.27-16.23c0-4.74-.18-9.51-.58-14.24-.53-6.28-1.3-12.54-2.08-18.79q-1-8.49-2.34-17c-.68-4.49-1.4-9-2.27-13.45-.92-4.74-1.77-9.52-3.14-14.13-1.09-3.68-2.39-7.24-2.69-11.12-.38-4.85-1.14-9.67-1.56-14.52-.35-4-.92-7.87-2.77-11.45a27.54,27.54,0,0,1-2.71-9c-.34-2.44-.42-4.93-.84-7.35-1.08-6.12-2.28-12.23-3.46-18.34-1-5.16-2-10.32-3-15.49-.77-4-1.57-8-2.26-12-1.29-7.47-2.39-15-3.81-22.4a42.76,42.76,0,0,1-.42-15.09c.87-5.39,1.51-10.82,2.2-16.24.16-1.28.1-2.58.14-3.88l.22-1.4.2-.5Z" />
        <path class="color-base"
            d="M370.8,207a68.35,68.35,0,0,0,16.38,4.84,70,70,0,0,0,12,.58c4.53-.18,9-.91,13.55-1.4.7,1.26,1.92,1,2.94.82,7.28-1.33,13.89-4.39,20.19-8.11a69.3,69.3,0,0,0,8.42-6.06c3.75-3.06,7.31-6.33,9.26-10.94a7.41,7.41,0,0,1,1.05.17c4.71,1.34,9.43,2.64,14.11,4.07,3.64,1.12,7.27,2.3,10.84,3.64a26.17,26.17,0,0,1,10.66,7.07c1.58,1.79,3.16,3.59,4.68,5.43a20.61,20.61,0,0,1,4.37,8.78A77,77,0,0,0,501.6,224a15.86,15.86,0,0,0,1.87,3,1.78,1.78,0,0,0,.06.47c2.4,5.16,4.82,10.32,7.21,15.48.43.92.76,1.88,1.15,2.83a98,98,0,0,0-15.57,8.38c-1.67,1.14-3.38,2.21-5.07,3.31L484.88,260c.46-3.52.77-7,1.4-10.41s.18-7,.09-10.48-.51-7-.91-10.56a66.13,66.13,0,0,0-1.15-6.68,2.21,2.21,0,0,0-1.25-1.24c-.26-.11-1,.4-1.17.79a9.28,9.28,0,0,0-.95,2.54c-1.08,5.41-2.07,10.84-3.16,16.25-.38,1.91-1,3.76-1.39,5.67-.62,3.48-1,7-1.63,10.47-.77,4.54-1.63,9.06-2.47,13.59-1.32,7.06-2.67,14.12-4,21.18-.28,1.49-.4,3-.6,4.51s-.3,3-.46,4.55c0,2.56.14,5.13-.06,7.68-.34,4.28-1,8.53-.44,12.84.51,3.73.86,7.49,1.52,11.2.8,4.41,1.85,8.78,2.8,13.16,1.68,7.69,3.41,15.36,5,23.06,1,4.62,1.83,9.27,2.62,13.92.73,4.26,1.25,8.55,1.94,12.82.6,3.68,1.32,7.34,1.94,11,.58,3.44,1.1,6.89,1.65,10.34.48,3,1,5.94,1.45,8.93.62,4.36.8,8.81,1.82,13.08,2.48,10.48,5.33,20.88,8,31.31,1.1,4.24,2.49,8.42,3.29,12.71,1.06,5.69,1.74,11.45,2.45,17.2.45,3.7.76,7.43.94,11.15.2,4.23.18,8.46.28,12.69.05,2.15.12,4.3.25,6.45.07,1.14.33,2.28.38,3.42.09,1.9.12,3.8.1,5.7,0,1.71-.27,3.42-.22,5.13.06,2.42.46,4.84.4,7.25-.09,3.78-.34,7.55-.72,11.31-.44,4.42-1.11,8.82-1.62,13.23s-1,8.92-1.5,13.37c-.06.51-.55,1.3-1,1.38-3.84.81-7.69,1.6-11.58,2.18-6.89,1-13.55,3-20.28,4.7a24.25,24.25,0,0,1-5.73,1c-4.48,0-8.86.79-13.27,1.3-3.16.36-6.32.83-9.48.88-5.39.09-10.78,0-16.17-.22-4.88-.19-9.76-.55-14.63-.94-5.19-.41-10.36-1-15.54-1.42-4.08-.36-8.17-.55-12.24-1A120.36,120.36,0,0,1,367,595.27a96.88,96.88,0,0,0-21.31-2.2c-5.29,0-10.58.47-15.87.66-2.43.09-4.88,0-7.32,0l-2.38-.26a5.33,5.33,0,0,0-.09-1.07c-1.07-3.21-2.17-6.41-3.23-9.62-1.31-4-2.71-7.91-3.87-11.92-1.88-6.49-3.55-13-5.41-19.55-1-3.39-2.28-6.69-3.21-10.1-1.22-4.48-2.38-9-3.24-13.55-.83-4.31-1.27-8.71-1.83-13.08-.31-2.48-.53-5-.76-7.46-.33-3.64-.63-7.28-.92-10.92-.19-2.26-.25-4.53-.53-6.77-.57-4.53-1.26-9-1.86-13.56-.68-5.07-1.25-10.16-2-15.22-.63-4.36-1.54-8.68-2.12-13-.61-4.56-1.2-9.15-1.38-13.74-.29-7.22-.23-14.45-.29-21.68,0-2.66,0-5.32,0-8-.06-3.63-.21-7.25-.22-10.88,0-2.15.1-4.31.27-6.45.25-3.2.75-6.39.87-9.6s-.06-6.3-.21-9.45c-.18-3.81-.4-7.62-.73-11.42-.31-3.52-.78-7-1.21-10.53-.62-5-1.28-10.07-1.87-15.11-.46-3.9-.83-7.82-1.24-11.72-.47-4.58-.92-9.16-1.43-13.74-.31-2.76-.74-5.5-1.07-8.26-.38-3.19-.9-6.38-1-9.58a64.78,64.78,0,0,1,.43-8.22c.43-4.94,1-9.87,1.44-14.81.49-5.3,1-10.59,1.41-15.9.32-4,.49-8.1.74-12.14.23-3.77.52-7.54.71-11.31.21-4.14.3-8.28.51-12.42.1-2,.33-4,.5-6q.35-4,.67-8c.17-1.26.31-2.52.56-3.77,0-.23.49-.51.78-.55,2.27-.35,4.55-.64,6.83-.95h.48l2.16-.23h.48l11-.47h1.2l2.39,0,1.21-.22,2.15,0,.73-.22,1.91,0,.73-.22,3.36-.23h3.59l1.21-.23H330l1.21-.23h2.4a9.67,9.67,0,0,0,1,1.06,58.25,58.25,0,0,0,12.54,8c5.18,2.33,10.56,4.2,15.87,6.23a17.88,17.88,0,0,0,7.19.8C370.35,207.32,370.58,207.09,370.8,207Z" />
        <path class="color-shadow"
            d="M322.51,593.76c2.44,0,4.89.06,7.32,0,5.29-.19,10.58-.64,15.87-.66a96.88,96.88,0,0,1,21.31,2.2,120.36,120.36,0,0,0,12.71,1.81c4.07.45,8.16.64,12.24,1,5.18.45,10.35,1,15.54,1.42,4.87.39,9.75.75,14.63.94,5.39.2,10.78.31,16.17.22,3.16,0,6.32-.52,9.48-.88,4.41-.51,8.79-1.3,13.27-1.3a24.25,24.25,0,0,0,5.73-1c6.73-1.7,13.39-3.68,20.28-4.7,3.89-.58,7.74-1.37,11.58-2.18.41-.08.9-.87,1-1.38.55-4.45,1-8.92,1.5-13.37s1.18-8.81,1.62-13.23c.38-3.76.63-7.53.72-11.31.06-2.41-.34-4.83-.4-7.25-.05-1.71.19-3.42.22-5.13,0-1.9,0-3.8-.1-5.7-.05-1.14-.31-2.28-.38-3.42-.13-2.15-.2-4.3-.25-6.45-.1-4.23-.08-8.46-.28-12.69-.18-3.72-.49-7.45-.94-11.15-.71-5.75-1.39-11.51-2.45-17.2-.8-4.29-2.19-8.47-3.29-12.71-2.71-10.43-5.56-20.83-8-31.31-1-4.27-1.2-8.72-1.82-13.08-.43-3-1-5.95-1.45-8.93-.55-3.45-1.07-6.9-1.65-10.34-.62-3.68-1.34-7.34-1.94-11-.69-4.27-1.21-8.56-1.94-12.82-.79-4.65-1.65-9.3-2.62-13.92-1.62-7.7-3.35-15.37-5-23.06-.95-4.38-2-8.75-2.8-13.16-.66-3.71-1-7.47-1.52-11.2-.6-4.31.1-8.56.44-12.84.2-2.55.05-5.12.06-7.68a4.81,4.81,0,0,1,.6,1.05c.94,3.66,2,7.3,2.76,11,.83,3.87,1.48,7.79,2.14,11.7.59,3.52,1.07,7.06,1.65,10.58q.68,4.23,1.47,8.45c1.16,6.12,2.33,12.24,3.55,18.35.68,3.43,1.58,6.82,2.17,10.26.64,3.71.94,7.48,1.55,11.2s1.38,7.45,2.19,11.15c.47,2.17,1.09,4.32,1.75,6.45s1.56,4.26,2.22,6.43a54,54,0,0,1,2.26,11.07c.33,3.79.89,7.57,1.36,11.35a63.4,63.4,0,0,0,.88,6.6c1.26,5.5,2.72,11,4.08,16.43q1.31,5.26,2.53,10.54c.59,2.55,1.18,5.11,1.62,7.7q.94,5.57,1.67,11.17c.48,3.66.87,7.33,1.24,11,.43,4.23.84,8.46,1.15,12.69.26,3.38.28,6.77.53,10.14.23,3,.64,6,.93,9,.2,2.13.27,4.28.51,6.41a40.4,40.4,0,0,1-.43,11.41q-.92,5.46-1.49,11c-.24,2.21-.14,4.46-.29,6.68a27.27,27.27,0,0,1-.56,4.61,143.33,143.33,0,0,0-4,26.7c-.15,2.84-.19,2.84-2.92,3.19l-.23,0c-2.75.39-5.5.84-8.25,1.14a111.57,111.57,0,0,0-12.71,1.87c-5,1.13-10.07,1.8-15.15,2.43-4.56.58-9.16.93-13.76,1.2-3.66.23-7.34.26-11,.26-4.39,0-8.77-.17-13.16-.2-.81,0-1.8-.18-2.26.87-4.59,0-9.19,0-13.78-.08-6.7-.19-13.41-.38-20.1-.8s-13.19-1.29-19.8-1.71c-6.17-.39-12.37-.46-18.55-.67-.64,0-1.27-.08-1.91-.12-.13-.12-.25-.34-.4-.37-2.89-.5-5.78-1-8.67-1.46-4.55-.69-9.1-1.31-13.64-2A12.14,12.14,0,0,1,322.51,593.76Z" />
        <path class="color-shadow-dark"
            d="M322.51,593.76a12.14,12.14,0,0,0,2.51,1.07c4.54.73,9.09,1.35,13.64,2,2.89.45,5.78,1,8.67,1.46.15,0,.27.25.4.37-2.63,0-5.27,0-7.9-.11q-10.06-.33-20.12-.75a34.34,34.34,0,0,1-4.16-.45,1.13,1.13,0,0,1-.68-.82c.16-2.85-.9-5.43-1.79-8-1.28-3.74-2.86-7.37-4.1-11.11-1.38-4.17-2.61-8.39-3.76-12.62-1.39-5.12-2.65-10.27-3.94-15.42-1-4.21-2.11-8.43-3.08-12.66-.87-3.77-1.71-7.55-2.4-11.35-.94-5.22-1.75-10.47-2.56-15.71-.83-5.4-1.57-10.82-2.39-16.22-.62-4.15-1.24-8.29-2-12.42s-1.57-8.14-2.29-12.23c-.63-3.57-1.26-7.15-1.71-10.75-.7-5.46-1.39-10.93-1.81-16.41-.48-6.37-.69-12.77-1-19.15-.24-5.46-.46-10.93-.63-16.39-.15-4.92-.2-9.84-.34-14.75-.08-3-.31-6-.35-9s.25-5.92.11-8.86c-.26-5.73-.65-11.46-1.11-17.18s-1.08-11.44-1.6-17.16c-.44-4.88-.84-9.76-1.29-14.64a2.8,2.8,0,0,0-.47-1.32,11,11,0,0,1-2.26-7.72c.17-1.77,0-3.58.08-5.37.1-2,.39-4,.52-6.07.27-4.05.45-8.1.73-12.15.19-2.74.51-5.48.77-8.22l1.05-11.18c.28-2.9.57-5.8.82-8.7.31-3.65.57-7.3.88-10.95.15-1.83.41-3.65.53-5.49.34-5.09.69-10.19.94-15.29q.67-14.07,1.24-28.12c.13-3.36.13-6.71.18-10.07,0-1.86.82-2.6,2.71-2.74,5.84-.43,11.68-.93,17.53-1.36,4.18-.3,8.37-.45,12.54-.81,4.72-.41,9.44-.88,14.13-1.53,4.23-.58,8.41-1.41,12.6-2.2a14.24,14.24,0,0,0,3-1,1.08,1.08,0,0,1,1.63.53,53,53,0,0,0,9.57,11.93,52.46,52.46,0,0,0,10.37,7.7c.35.19.67.43,1,.65-.23,0-.51.16-.69.08-2.79-1.24-5.55-2.53-8.34-3.78-5.58-2.53-9.86-6.63-13.76-11.22a1.43,1.43,0,0,0-1.13-.4c-.81.15-1.57.6-2.39.71-2.35.31-4.72.52-7.08.77h-2.4c-.48-.33-.92-.48-1.21.23h-1.19l-1.21.23H324l-3.36.23-.73.22-1.91,0-.73.22-2.15,0-1.21.22-2.39,0h-1.2l-11,.47h-.48l-2.16.23h-.48c-2.28.31-4.56.6-6.83.95-.29,0-.74.32-.78.55-.25,1.25-.39,2.51-.56,3.77-.13.07-.34.12-.39.23-.72,1.68-1.48,3.35-2.1,5.07a20.73,20.73,0,0,0-1.63,7.89c.13,3.42-.1,6.85-.2,10.28,0,1.31-.15,2.62-.24,3.93-.31,4.12-.7,8.23-.93,12.36-.24,4.33-.34,8.67-.49,13-.1,2.71-.2,5.42-.24,8.13,0,3.16.06,6.32,0,9.48-.06,2.3-.27,4.6-.52,6.89-.32,3-.74,5.9-1.14,8.85-.44,3.26-.91,6.52-1.37,9.78-.34,2.39-1.06,4.81-.94,7.18a74.39,74.39,0,0,0,1.51,10.47c1.24,6.34,2.74,12.63,3,19.15a93.54,93.54,0,0,0,1.54,10.46c.65,4.15,1.35,8.3,2,12.45q.54,3.54.91,7.08c.23,2.25.45,4.51.51,6.78.06,1.74-.12,3.49-.21,5.24a5.32,5.32,0,0,1-.16,1.06,37.57,37.57,0,0,0-1.28,8.1l-.48,10.62c-.09,1.82-.22,3.65-.24,5.48,0,3.14-.1,6.29.05,9.42.19,3.76.69,7.51.88,11.28s.13,7.55.28,11.32c.18,4.33.33,8.67.75,13s1.14,8.32,1.74,12.48c.52,3.54,1.06,7.06,1.58,10.6.45,3,.87,6,1.34,8.94.57,3.64,1.24,7.27,1.77,10.92.35,2.39.54,4.81.76,7.22q.5,5.58.93,11.16a70.15,70.15,0,0,0,.51,7.13c1.05,5.74,2.21,11.46,3.52,17.14,1.07,4.6,2.46,9.13,3.66,13.71,1.33,5.11,2.54,10.26,3.93,15.36,1.67,6.14,3.37,12.27,5.25,18.34,1.42,4.59,2.43,9.34,4.74,13.63.81,1.5,1.14,3.54,3.6,3.19Z" />
        <path class="color-shadow-dark"
            d="M421.87,602.08c.46-1.05,1.45-.88,2.26-.87,4.39,0,8.77.19,13.16.2,3.67,0,7.35,0,11-.26,4.6-.27,9.2-.62,13.76-1.2,5.08-.63,10.17-1.3,15.15-2.43a111.57,111.57,0,0,1,12.71-1.87c2.75-.3,5.5-.75,8.25-1.14l.23,0c2.73-.35,2.77-.35,2.92-3.19a143.33,143.33,0,0,1,4-26.7,27.27,27.27,0,0,0,.56-4.61c.15-2.22.05-4.47.29-6.68q.59-5.5,1.49-11a40.4,40.4,0,0,0,.43-11.41c-.24-2.13-.31-4.28-.51-6.41-.29-3-.7-6-.93-9-.25-3.37-.27-6.76-.53-10.14-.31-4.23-.72-8.46-1.15-12.69-.37-3.67-.76-7.34-1.24-11s-1-7.46-1.67-11.17c-.44-2.59-1-5.15-1.62-7.7q-1.21-5.28-2.53-10.54c-1.36-5.48-2.82-10.93-4.08-16.43a63.4,63.4,0,0,1-.88-6.6c-.47-3.78-1-7.56-1.36-11.35a54,54,0,0,0-2.26-11.07c-.66-2.17-1.54-4.27-2.22-6.43s-1.28-4.28-1.75-6.45c-.81-3.7-1.57-7.41-2.19-11.15s-.91-7.49-1.55-11.2c-.59-3.44-1.49-6.83-2.17-10.26-1.22-6.11-2.39-12.23-3.55-18.35q-.79-4.22-1.47-8.45c-.58-3.52-1.06-7.06-1.65-10.58-.66-3.91-1.31-7.83-2.14-11.7-.8-3.69-1.82-7.33-2.76-11a4.81,4.81,0,0,0-.6-1.05c.16-1.51.31-3,.46-4.55a5.19,5.19,0,0,0,.91-1.21c.63-1.7,1.21-3.43,1.74-5.17.41-1.37.59-2.81,1.09-4.14a71.06,71.06,0,0,0,3.76-12.89,21.5,21.5,0,0,1,1.2-3.49c0,1.3,0,2.6-.14,3.88-.69,5.42-1.33,10.85-2.2,16.24A42.76,42.76,0,0,0,474.5,304c1.42,7.44,2.52,14.93,3.81,22.4.69,4,1.49,8,2.26,12,1,5.17,2.05,10.33,3,15.49,1.18,6.11,2.38,12.22,3.46,18.34.42,2.42.5,4.91.84,7.35a27.54,27.54,0,0,0,2.71,9c1.85,3.58,2.42,7.48,2.77,11.45.42,4.85,1.18,9.67,1.56,14.52.3,3.88,1.6,7.44,2.69,11.12,1.37,4.61,2.22,9.39,3.14,14.13.87,4.46,1.59,9,2.27,13.45q1.27,8.48,2.34,17c.78,6.25,1.55,12.51,2.08,18.79.4,4.73.59,9.5.58,14.24a159.85,159.85,0,0,0,1.27,16.23c.4,4.13.61,8.29.64,12.44,0,5.78,0,11.58-.29,17.35-.34,7.5-.79,15-1.39,22.48-.49,6-1.24,12-1.95,17.95-.3,2.53-.75,5-1.21,7.55-.05.27-.62.63-.95.64-1.84.06-3.69-.12-5.52,0-4,.34-7.93.86-11.89,1.27-5.36.55-10.71,1.11-16.07,1.59-4,.35-7.95.61-11.93.85-1.83.11-3.66.11-5.5.14q-6.7.1-13.42.19c-3.91,0-7.83,0-11.75.08C426,602,424,602.05,421.87,602.08Z" />
        <path class="color-shadow-dark"
            d="M453.56,186.7c-1.95,4.61-5.51,7.88-9.26,10.94a69.3,69.3,0,0,1-8.42,6.06c-6.3,3.72-12.91,6.78-20.19,8.11-1,.19-2.24.44-2.94-.82,3.54-.79,7.15-1.37,10.61-2.42,9.29-2.83,16.29-8.73,21.27-16.94,2.66-4.39,4.82-9.1,7.16-13.69a21.5,21.5,0,0,0,.95-2.74,78.25,78.25,0,0,1,14.53,4.53c3.36,1.49,6.78,2.84,10.14,4.32a36.2,36.2,0,0,1,3.46,1.88A60.63,60.63,0,0,1,492.42,195a38.82,38.82,0,0,1,10.8,17.67c2.93,10.22,6.06,20.36,9.82,30.3.62,1.64,1.15,3.31,1.74,5a64.82,64.82,0,0,1-5.94,3.64c-6.55,3.13-13.18,6.12-19.79,9.15-1,.46-2.05.88-3.07,1.32a15.27,15.27,0,0,1,1.18-1.23c1.35-1.14,2.72-2.25,4.09-3.37,1.69-1.1,3.4-2.17,5.07-3.31a98,98,0,0,1,15.57-8.38c-.39-.95-.72-1.91-1.15-2.83-2.39-5.16-4.81-10.32-7.21-15.48a1.78,1.78,0,0,1-.06-.47c-.24-.76-.49-1.51-.72-2.27-1.74-6-3.41-11.92-5.25-17.84-.8-2.57-1.48-5.29-3.43-7.29a63.77,63.77,0,0,0-5.42-4.83c-4.56-3.74-9.31-7.26-15-9.17s-11.25-3.49-16.87-5.26c-.74-.23-.89.11-1.09.66C455,182.94,454.29,184.82,453.56,186.7Z" />
        <path class="color-shadow"
            d="M491.25,257.51c-1.37,1.12-2.74,2.23-4.09,3.37a15.27,15.27,0,0,0-1.18,1.23l-4.8,2.28a41.45,41.45,0,0,0,.17-4.16c-.15-2.73-.4-5.46-.68-8.18A33.61,33.61,0,0,0,480,248c-.08-.37-.56-.66-.87-1-.34.34-.84.63-1,1.05a6.76,6.76,0,0,0-.28,1.87c-.17,2.1-.37,4.19-.44,6.29a35.92,35.92,0,0,0,.24,3.73c0,.4-.07.79-.11,1.18s-.11,1-.16,1.45-.07.79-.1,1.19c-.05.16-.09.33-.14.49,0,.39-.09.79-.14,1.18,0,.17-.07.33-.11.5v.95l-.2.5c-.07.47-.15.93-.22,1.4a21.5,21.5,0,0,0-1.2,3.49,71.06,71.06,0,0,1-3.76,12.89c-.5,1.33-.68,2.77-1.09,4.14-.53,1.74-1.11,3.47-1.74,5.17a5.19,5.19,0,0,1-.91,1.21c.2-1.5.32-3,.6-4.51,1.3-7.06,2.65-14.12,4-21.18.84-4.53,1.7-9.05,2.47-13.59.6-3.48,1-7,1.63-10.47.34-1.91,1-3.76,1.39-5.67,1.09-5.41,2.08-10.84,3.16-16.25a9.28,9.28,0,0,1,.95-2.54c.21-.39.91-.9,1.17-.79a2.21,2.21,0,0,1,1.25,1.24,66.13,66.13,0,0,1,1.15,6.68c.4,3.51.82,7,.91,10.56s.55,7-.09,10.48-.94,6.89-1.4,10.41Z" />
        <path class="color-shadow"
            d="M333.56,191.27c2.36-.25,4.73-.46,7.08-.77.82-.11,1.58-.56,2.39-.71a1.43,1.43,0,0,1,1.13.4c3.9,4.59,8.18,8.69,13.76,11.22,2.79,1.25,5.55,2.54,8.34,3.78.18.08.46-.05.69-.08L370.8,207c-.22.12-.45.35-.68.36a17.88,17.88,0,0,1-7.19-.8c-5.31-2-10.69-3.9-15.87-6.23a58.25,58.25,0,0,1-12.54-8A9.67,9.67,0,0,1,333.56,191.27Z" />
        <path class="color-shadow-dark"
            d="M477.61,259.92a35.92,35.92,0,0,1-.24-3.73c.07-2.1.27-4.19.44-6.29a6.76,6.76,0,0,1,.28-1.87c.17-.42.67-.71,1-1.05.31.32.79.61.87,1a33.61,33.61,0,0,1,.7,4.09c.28,2.72.53,5.45.68,8.18a41.45,41.45,0,0,1-.17,4.16l-2.05,1.38-.42-.08c-.1-2.07-.2-4.15-.31-6.52Z" />
        <path class="color-shadow-dark"
            d="M477.34,262.55c.05-.48.11-1,.16-1.45C477.45,261.58,477.39,262.07,477.34,262.55Z" />
        <path class="color-shadow-dark"
            d="M477.1,264.23c0-.16.09-.33.14-.49C477.19,263.9,477.15,264.07,477.1,264.23Z" />
        <path class="color-shadow-dark"
            d="M476.85,265.91c0-.17.08-.33.11-.5C476.93,265.58,476.89,265.74,476.85,265.91Z" />
        <path class="color-shadow-dark" d="M476.64,267.36l.2-.5Z" />
        <path class="color-shadow"
            d="M320.13,593.5c-2.46.35-2.79-1.69-3.6-3.19-2.31-4.29-3.32-9-4.74-13.63-1.88-6.07-3.58-12.2-5.25-18.34-1.39-5.1-2.6-10.25-3.93-15.36-1.2-4.58-2.59-9.11-3.66-13.71-1.31-5.68-2.47-11.4-3.52-17.14a70.15,70.15,0,0,1-.51-7.13q-.44-5.58-.93-11.16c-.22-2.41-.41-4.83-.76-7.22-.53-3.65-1.2-7.28-1.77-10.92-.47-3-.89-6-1.34-8.94-.52-3.54-1.06-7.06-1.58-10.6-.6-4.16-1.33-8.3-1.74-12.48s-.57-8.66-.75-13c-.15-3.77-.08-7.55-.28-11.32s-.69-7.52-.88-11.28c-.15-3.13-.08-6.28-.05-9.42,0-1.83.15-3.66.24-5.48l.48-10.62a37.57,37.57,0,0,1,1.28-8.1,5.32,5.32,0,0,0,.16-1.06c.09-1.75.27-3.5.21-5.24-.06-2.27-.28-4.53-.51-6.78s-.55-4.72-.91-7.08c-.63-4.15-1.33-8.3-2-12.45a93.54,93.54,0,0,1-1.54-10.46c-.29-6.52-1.79-12.81-3-19.15a74.39,74.39,0,0,1-1.51-10.47c-.12-2.37.6-4.79.94-7.18.46-3.26.93-6.52,1.37-9.78.4-2.95.82-5.89,1.14-8.85.25-2.29.46-4.59.52-6.89.09-3.16,0-6.32,0-9.48,0-2.71.14-5.42.24-8.13.15-4.34.25-8.68.49-13,.23-4.13.62-8.24.93-12.36.09-1.31.2-2.62.24-3.93.1-3.43.33-6.86.2-10.28a20.73,20.73,0,0,1,1.63-7.89c.62-1.72,1.38-3.39,2.1-5.07.05-.11.26-.16.39-.23q-.33,4-.67,8c-.17,2-.4,4-.5,6-.21,4.14-.3,8.28-.51,12.42-.19,3.77-.48,7.54-.71,11.31-.25,4-.42,8.1-.74,12.14-.41,5.31-.92,10.6-1.41,15.9-.47,4.94-1,9.87-1.44,14.81a64.78,64.78,0,0,0-.43,8.22c.12,3.2.64,6.39,1,9.58.33,2.76.76,5.5,1.07,8.26.51,4.58,1,9.16,1.43,13.74.41,3.9.78,7.82,1.24,11.72.59,5,1.25,10.08,1.87,15.11.43,3.51.9,7,1.21,10.53.33,3.8.55,7.61.73,11.42.15,3.15.32,6.31.21,9.45s-.62,6.4-.87,9.6c-.17,2.14-.28,4.3-.27,6.45,0,3.63.16,7.25.22,10.88,0,2.66,0,5.32,0,8,.06,7.23,0,14.46.29,21.68.18,4.59.77,9.18,1.38,13.74.58,4.36,1.49,8.68,2.12,13,.73,5.06,1.3,10.15,2,15.22.6,4.52,1.29,9,1.86,13.56.28,2.24.34,4.51.53,6.77.29,3.64.59,7.28.92,10.92.23,2.49.45,5,.76,7.46.56,4.37,1,8.77,1.83,13.08.86,4.56,2,9.07,3.24,13.55.93,3.41,2.24,6.71,3.21,10.1,1.86,6.5,3.53,13.06,5.41,19.55,1.16,4,2.56,8,3.87,11.92,1.06,3.21,2.16,6.41,3.23,9.62A5.33,5.33,0,0,1,320.13,593.5Z" />
        <path class="color-shadow"
            d="M453.56,186.7c.73-1.88,1.47-3.76,2.17-5.66.2-.55.35-.89,1.09-.66,5.62,1.77,11.29,3.38,16.87,5.26s10.4,5.43,15,9.17a63.77,63.77,0,0,1,5.42,4.83c1.95,2,2.63,4.72,3.43,7.29,1.84,5.92,3.51,11.89,5.25,17.84.23.76.48,1.51.72,2.27a15.86,15.86,0,0,1-1.87-3,77,77,0,0,1-2.33-8.14,20.61,20.61,0,0,0-4.37-8.78c-1.52-1.84-3.1-3.64-4.68-5.43a26.17,26.17,0,0,0-10.66-7.07c-3.57-1.34-7.2-2.52-10.84-3.64-4.68-1.43-9.4-2.73-14.11-4.07A7.41,7.41,0,0,0,453.56,186.7Z" />
        <path class="color-shadow" d="M330,191.49c.29-.71.73-.56,1.21-.23Z" />
        <path class="color-shadow" d="M327.55,191.73l1.21-.23Z" />
        <path class="color-shadow" d="M324,191.75h0Z" />
        <path class="color-shadow" d="M313.87,192.68l1.21-.22Z" />
        <path class="color-shadow" d="M310.28,192.71h0Z" />
        <path class="color-shadow" d="M319.87,192.2l.73-.22Z" />
        <path class="color-shadow" d="M317.23,192.44l.73-.22Z" />
        <path class="color-shadow" d="M298.76,193.19h0Z" />
        <path class="color-shadow" d="M296.12,193.43h0Z" />
    </g>
</svg>
