<svg id="bochonok" xmlns="http://www.w3.org/2000/svg" viewBox="0 0 672 960">
    <g id="midi_img" data-name="midi img">
        <path class="color-shadow-dark"
            d="M466.54,497.71l-10.36.24a4.35,4.35,0,0,0-1-.2c-2.12.05-4.23.15-6.34.18-2.6.05-5.19.06-7.78.05q-13.43,0-26.85-.14c-6.62-.06-13.25-.18-19.88-.26q-4.23-.06-8.48-.09c-2.42,0-4.84,0-7.26,0-1.91,0-3.82.16-5.73.28-3,.19-6.05.38-9.08.62s-5.87.49-8.8.78c-2.58.25-5.19.38-7.73.86a61.21,61.21,0,0,1-13.3,1.14c-1.52,0-3-.12-4.55-.17l-9.31-.28c-1.82-.07-3.65-.13-5.48-.26-1-.06-2-.29-3.05-.37a10.23,10.23,0,0,1-1.91,0,22.71,22.71,0,0,0-6.92-1.21,6.59,6.59,0,0,1-3.9-1.12,7.8,7.8,0,0,1-2.29-3.45,99.44,99.44,0,0,1-3.94-11.67c-2-8.38-3.76-16.83-5.38-25.3A301.93,301.93,0,0,1,283.06,424c-.16-2-.31-4-.5-6-.35-3.66-.87-7.31-1-11-.3-6-.37-12-.54-18,0-1.35-.19-2.71-.18-4.07,0-2.63.27-5.26.15-7.88-.31-7-.69-14-1.18-21-.43-6.05-1-12.07-1.56-18.11q-.54-6-1.12-12a6.9,6.9,0,0,0-1-3.35,9.22,9.22,0,0,1-1.76-4.26c-.14-4,.11-7.94.25-11.91,0-1.07.29-2.14.35-3.21.23-3.93.36-7.87.66-11.8s.76-7.78,1.13-11.67c.48-5.16,1-10.32,1.41-15.48.42-4.76.81-9.53,1.21-14.29.31-3.74.67-7.48.89-11.22s.22-7.49.39-11.23c.14-3.12.45-6.22.56-9.34.3-8.14.53-16.29.78-24.44a2.39,2.39,0,0,1,2.58-2.62c4.26-.3,8.51-.66,12.76-1q7.51-.55,15-1.08c2.11-.14,4.24-.13,6.34-.37,4.39-.48,8.8-.93,13.15-1.68s8.42-1.75,12.6-2.77c.81-.2,1.14-.15,1.63.52,2.27,3.14,4.43,6.38,7,9.28a53.89,53.89,0,0,0,14,11c-.26,0-.58.14-.79.05-2.76-1.23-5.49-2.5-8.24-3.74-5.54-2.51-9.81-6.58-13.64-11.16a1.27,1.27,0,0,0-1.49-.46c-3.07.54-6.15,1-9.23,1.48h-2.4c-.48-.33-.92-.48-1.21.23h-1.19c-.48-.33-.93-.48-1.21.23h-3.83l-3.12.23-.73.22-1.91,0-1,.23h-1.91l-1.21.22-2.39,0h-1.2l-6.72.23h-.48l-3.84.24h-.48l-2.16.23h-.48c-2.24.24-4.48.45-6.71.76a1.26,1.26,0,0,0-.9.76c-.27,1.23-.39,2.5-.56,3.75-.13.07-.34.12-.39.23-.52,1.2-1,2.42-1.53,3.62a23.56,23.56,0,0,0-2.2,10.67,80.74,80.74,0,0,1-.22,9.2c-.23,3.73-.68,7.44-.91,11.16-.24,3.9-.37,7.8-.49,11.7q-.29,9.09-.48,18.18c-.05,1.88.06,3.76,0,5.64q-.15,3.33-.52,6.66c-.33,3-.74,6.06-1.14,9.08q-.65,4.85-1.34,9.67a72.23,72.23,0,0,0-1,7.42c-.14,4.33,1.09,8.5,2,12.68a102.09,102.09,0,0,1,2.54,17.06,78.13,78.13,0,0,0,1.19,8.59c.84,5.25,1.77,10.48,2.59,15.73.4,2.55.66,5.12.93,7.68.16,1.52.21,3,.32,4.66l-1.55-.48c.12,1.36.3,2.53.29,3.7,0,2.39-.12,4.78-.22,7.17-.14,3.34-.32,6.68-.48,10-.08,1.55-.2,3.1-.24,4.65-.1,3.93-.33,7.86-.2,11.79.14,4.64.59,9.28.92,13.92.23,3.29.38,6.58.74,9.86.55,5.17,1.08,10.35,1.94,15.47,1,5.79,2.23,11.53,3.44,17.28,1.11,5.2,2.21,10.41,3.53,15.56a64.31,64.31,0,0,0,3.11,9.37,99,99,0,0,0,4.61,8.77,1.77,1.77,0,0,0,1,.66,27.82,27.82,0,0,0,11.69,1,13.84,13.84,0,0,1,3.34.05c2.73.25,5.44.59,8.17.87,2.09.21,4.19.37,6.29.57a40.52,40.52,0,0,0,9.34,0c2.55-.34,5.12-.57,7.69-.81,1.43-.13,2.86-.16,4.29-.27,4.15-.3,8.3-.6,12.45-.94,1.9-.16,3.79-.37,5.68-.6,2.17-.25,4.32-.61,6.49-.82,3.08-.3,6.18-.49,9.26-.76.21,0,.39-.29.59-.44h1.67a10.88,10.88,0,0,0,1.37.23c3.87.1,7.74.11,11.61.27s7.62.47,11.43.69c.75,0,1.52,0,2.27,0,4,.21,7.94.51,11.92.64,2.24.07,4.5-.16,6.75-.16q14.58,0,29.16,0c1.19,0,2.38.22,3.57.21,2,0,4-.18,6-.22,2.32,0,4.64,0,7,0a8.18,8.18,0,0,0,1.9-.49c.86-.23,1.73-.43,2.58-.69a10.28,10.28,0,0,0,1.78-.74,8.73,8.73,0,0,0,1-.87,13.67,13.67,0,0,0,5-7.51A96.71,96.71,0,0,0,496,474c.22-2,.12-4.06.29-6.08.11-1.41.44-2.81.64-4.21a2.5,2.5,0,0,0-.07-.94c-.69-3.23-1.37-6.45-2.09-9.67-.62-2.75-1.18-5.52-2-8.22-1.1-3.74-2.28-7.46-3.63-11.11a42.58,42.58,0,0,1-2.53-17.43,28.66,28.66,0,0,0-.25-3.92,58.78,58.78,0,0,1,.23-13,7.16,7.16,0,0,0-.32-4.3,25.4,25.4,0,0,1-2-6.12c-.95-5.19-1.6-10.43-2.52-15.63-.8-4.49-1.83-8.94-2.74-13.41s-1.87-8.86-2.71-13.31c-.78-4.17-1.45-8.36-2.14-12.55-.44-2.66-.81-5.34-1.25-8-.76-4.57-1.44-9.17-2.36-13.71-.74-3.66-1.78-7.26-2.72-10.87a3.83,3.83,0,0,0-.66-1c.15-1.59.31-3.19.46-4.79a26.74,26.74,0,0,0,1.87-3.7c1.29-3.88,2.52-7.79,3.61-11.73.93-3.32,1.63-6.72,2.47-10.07a6.18,6.18,0,0,1,.76-1.4,16.18,16.18,0,0,1,0,2c-.78,6.25-1.64,12.49-2.36,18.75a35,35,0,0,0-.48,8.21c.81,6.52,2,13,3.13,19.48,1,5.7,2,11.38,3.07,17.06.85,4.51,1.76,9,2.67,13.5,1,4.92,2.07,9.83,3.06,14.76,1.24,6.14,2.33,12.31,3.69,18.42,1,4.52,2.4,8.95,3.52,13.44a16.54,16.54,0,0,1,.48,6.76,84.18,84.18,0,0,0-1.19,9.73c-.13,2.89.44,5.81.38,8.71a60.23,60.23,0,0,0,1.57,14.5c2,8.92,4,17.84,6.34,26.68a60.9,60.9,0,0,1,0,30.69c-.71,2.86-1.75,5.64-2.7,8.43a1.25,1.25,0,0,1-1,.55c-2.22-.16-4.44-.36-6.65-.64-3.67-.46-7.33-1-11-1.46-2.49-.3-5-.51-7.5-.65C469.85,497.56,468.19,497.69,466.54,497.71Z" />
        <path class="outline"
            d="M466.54,497.71c1.65,0,3.31-.15,5-.06,2.5.14,5,.35,7.5.65,3.67.43,7.33,1,11,1.46,2.21.28,4.43.48,6.65.64a1.25,1.25,0,0,0,1-.55c.95-2.79,2-5.57,2.7-8.43a60.9,60.9,0,0,0,0-30.69C498,451.89,496,443,494,434.05a60.23,60.23,0,0,1-1.57-14.5c.06-2.9-.51-5.82-.38-8.71a84.18,84.18,0,0,1,1.19-9.73,16.54,16.54,0,0,0-.48-6.76c-1.12-4.49-2.51-8.92-3.52-13.44-1.36-6.11-2.45-12.28-3.69-18.42-1-4.93-2.06-9.84-3.06-14.76-.91-4.49-1.82-9-2.67-13.5-1.06-5.68-2.1-11.36-3.07-17.06-1.11-6.48-2.32-13-3.13-19.48a35,35,0,0,1,.48-8.21c.72-6.26,1.58-12.5,2.36-18.75a16.18,16.18,0,0,0,0-2c.07-.47.14-.93.22-1.4l.32-1.95.14-1.18.13-.49.1-1.19.17-1.45.11-1.17.58-.57.44.12v6.15l.42.17,2.12-1.41,4.81-2.27c2-.86,3.95-1.69,5.9-2.59,5.41-2.49,10.83-4.95,16.18-7.55,2.32-1.13,4.48-2.6,6.72-3.92-.63-1.86-1.19-3.61-1.83-5.32-3.75-10-6.89-20.08-9.8-30.3A38.45,38.45,0,0,0,493,195.58a65.19,65.19,0,0,0-12.73-10.07,28.82,28.82,0,0,0-2.87-1.48c-3.38-1.45-6.79-2.82-10.15-4.3a76.78,76.78,0,0,0-14.53-4.53,21.51,21.51,0,0,1-1,2.74c-2.34,4.59-4.5,9.29-7.16,13.69A37.16,37.16,0,0,1,423,208.68c-3.36,1-6.85,1.55-10.28,2.31-4.48.49-8.95,1.23-13.43,1.38a75.74,75.74,0,0,1-12.5-.64,66,66,0,0,1-16-4.77L367,205.1a53.77,53.77,0,0,1-14-11c-2.54-2.9-4.7-6.14-7-9.28-.49-.67-.82-.72-1.63-.52-4.18,1-8.36,2-12.6,2.77s-8.76,1.2-13.15,1.68c-2.1.24-4.23.23-6.34.37q-7.52.52-15,1.08c-4.25.31-8.5.67-12.76,1a2.39,2.39,0,0,0-2.58,2.62c-.25,8.15-.48,16.3-.78,24.44-.11,3.12-.42,6.22-.56,9.34-.17,3.74-.18,7.49-.39,11.23s-.58,7.48-.89,11.22c-.4,4.76-.79,9.53-1.21,14.29-.45,5.16-.93,10.32-1.41,15.48-.37,3.89-.83,7.77-1.13,11.67s-.43,7.87-.66,11.8c-.06,1.07-.31,2.14-.35,3.21-.14,4-.39,7.95-.25,11.91a9.22,9.22,0,0,0,1.76,4.26,6.9,6.9,0,0,1,1,3.35q.57,6,1.12,12c.54,6,1.13,12.06,1.56,18.11.49,7,.87,14,1.18,21,.12,2.62-.13,5.25-.15,7.88,0,1.36.14,2.72.18,4.07.17,6,.24,12,.54,18,.17,3.66.69,7.31,1,11,.19,2,.34,4,.5,6a301.93,301.93,0,0,0,4.17,33.38c1.62,8.47,3.39,16.92,5.38,25.3a99.44,99.44,0,0,0,3.94,11.67,7.8,7.8,0,0,0,2.29,3.45,6.59,6.59,0,0,0,3.9,1.12,22.71,22.71,0,0,1,6.92,1.21,10.23,10.23,0,0,0,1.91,0c1,.08,2,.31,3.05.37,1.83.13,3.66.19,5.48.26l9.31.28c1.52.05,3,.13,4.55.17a61.21,61.21,0,0,0,13.3-1.14c2.54-.48,5.15-.61,7.73-.86,2.93-.29,5.87-.55,8.8-.78s6-.43,9.08-.62c1.91-.12,3.82-.24,5.73-.28,2.42-.05,4.84,0,7.26,0q4.25,0,8.48.09c6.63.08,13.26.2,19.88.26q13.42.11,26.85.14c2.59,0,5.18,0,7.78-.05,2.11,0,4.22-.13,6.34-.18a4.35,4.35,0,0,1,1,.2c-5.9.24-11.83.25-17.71.78-6,.55-12.06.44-18.09.43-2.72,0-5.43.17-8.14.13-3.91-.05-7.82-.32-11.73-.34-8.35-.05-16.71-.12-25.06,0-5.31.1-10.62.45-15.91.94-6,.55-12,1.48-18,2.07a115.05,115.05,0,0,1-12.44.65,54.57,54.57,0,0,1-8.27-1.19,39.23,39.23,0,0,0-7.58-.51,40.41,40.41,0,0,1-14.38-2.06,2.87,2.87,0,0,0-.68-.23c-3.41-.25-4.33-3-5-5.52-1.66-6.38-3.18-12.8-4.52-19.25-1.9-9.15-3.86-18.3-5.3-27.53-1.26-8-1.85-16.12-2.69-24.19-1.3-12.59-1.46-25.23-1.74-37.86a5.93,5.93,0,0,1,0-.84c.88-6.66-.38-13.24-.83-19.84-.5-7.1-1.34-14.17-2-21.25-.52-5.32-1-10.65-1.59-16a8.71,8.71,0,0,0-.71-2.24c-.83-2.12-1.7-4.22-2.54-6.34a.92.92,0,0,1,.48-1.37,1.47,1.47,0,0,0,.54-1.08c1.09-10.21,2.19-20.43,3.21-30.65.83-8.23,1.63-16.47,2.3-24.71.54-6.66.77-13.34,1.31-20,1.28-15.8,1.37-31.64,1.82-47.47,0-.75,0-1.51,0-2.39l6.59-.6c3.52-.32,7-.64,10.56-.94,3.32-.28,6.65-.58,10-.8,6.19-.41,12.4-.57,18.57-1.22A70.29,70.29,0,0,0,343.23,183c.9-.33,1.74-.8,2.64-1.15,1.82-.72,2.82-.1,3.06,1.82a2.34,2.34,0,0,0,.44.84,51.11,51.11,0,0,0,25.85,21.2,61.34,61.34,0,0,0,13.88,3.52,52.83,52.83,0,0,0,15.12-.11c5-.81,10.09-1.34,15-2.41,9.91-2.15,17.35-8,22.66-16.45,3.09-4.93,5.64-10.2,8.43-15.31a1.57,1.57,0,0,0,.09-.23c1.09-2.87,1.1-2.75,4.26-1.94,7,1.78,13.49,4.61,20.06,7.43a36.83,36.83,0,0,1,10.52,6.49c2.81,2.55,5.94,4.73,8.85,7.15,3.28,2.72,5.13,6.49,7.23,10.08s2.95,7.31,4.08,11.08c2.55,8.48,5.59,16.77,8.92,25,1.12,2.76,2.13,5.58,3.11,8.17-8.2,3.84-16.42,7.56-24.52,11.52-5,2.45-9.82,5.24-14.7,7.92a1.68,1.68,0,0,0-.64,1.15c-1.06,8.6-2.14,17.21-3.07,25.83a23,23,0,0,0,.46,5c2.16,18.55,6.55,36.7,9.93,55,1.59,8.63,3.15,17.28,4.9,25.89a74.23,74.23,0,0,0,2.48,8c.5,1.55.93,3.14,1.58,4.64a15.59,15.59,0,0,1,.72,10.41,22.37,22.37,0,0,0-.78,5.91c.05,2.41.63,4.79.86,7.19.93,9.37,3.5,18.43,5,27.69,1.1,6.73,2.27,13.45,3.21,20.21a60.27,60.27,0,0,1-.05,17.79c-.77,5-1.76,9.89-2.6,14.84-.22,1.27-.23,2.58-.35,4a33.1,33.1,0,0,1-11.44-.11,17.42,17.42,0,0,0-2.14-.28c-4.43-.07-8.66-1.23-12.94-2.21A59.58,59.58,0,0,0,466.54,497.71Z" />
        <path class="color-base"
            d="M370.8,207a66,66,0,0,0,16,4.77,75.74,75.74,0,0,0,12.5.64c4.48-.15,8.95-.89,13.43-1.38.7,1.27,1.92,1,2.94.82,7.28-1.32,13.91-4.37,20.17-8.12a90.62,90.62,0,0,0,9.67-7.18,25.54,25.54,0,0,0,8-9.81,7.19,7.19,0,0,1,1.05.17c4.71,1.34,9.43,2.64,14.11,4.07,3.64,1.12,7.27,2.3,10.84,3.64a26.17,26.17,0,0,1,10.66,7.07c1.58,1.79,3.16,3.59,4.68,5.43a20.61,20.61,0,0,1,4.37,8.78A77,77,0,0,0,501.6,224a15.86,15.86,0,0,0,1.87,3,1.78,1.78,0,0,0,.06.47c2.4,5.16,4.82,10.32,7.21,15.49.43.91.76,1.87,1,2.47-5.24,3-10.3,5.78-15.32,8.68-1.78,1-3.46,2.24-5.18,3.36L484.87,260c.46-3.53.78-7,1.41-10.42s.19-6.84.09-10.24c-.11-3.61-.51-7.21-.91-10.8a66.13,66.13,0,0,0-1.15-6.68,2.21,2.21,0,0,0-1.25-1.24c-.26-.11-1,.4-1.17.79A8.55,8.55,0,0,0,481,224c-.78,4.09-1.4,8.22-2.23,12.3-.73,3.58-1.75,7.1-2.46,10.69-.61,3.07-.92,6.2-1.46,9.29-.79,4.57-1.66,9.13-2.51,13.7-1.32,7.06-2.67,14.12-4,21.18-.28,1.49-.4,3-.6,4.51s-.31,3.2-.46,4.79c.06,4.79-.26,9.55-.66,14.32A43.57,43.57,0,0,0,467,323c.31,3,.74,6.07,1.29,9.07.58,3.24,1.34,6.45,2,9.67,1.09,5,2.2,10.09,3.25,15.15,1.59,7.65,3.32,15.29,4.66,23,1,5.78,1.61,11.64,2.13,17.48.39,4.38.42,8.8.47,13.21,0,3.73-.11,7.46-.18,11.19a5.42,5.42,0,0,0,0,1.07c.77,3.7,1.43,7.41,2.35,11.06,1.09,4.36,2.51,8.64,3.58,13,1.41,5.75,2.77,11.51,3.87,17.32a101.35,101.35,0,0,1,1.18,10.88c.28,3.61-.85,7.09-1.26,10.63-.27,2.4-1.73,3.4-3.82,4.15-5.05,1.82-10.31,2.28-15.59,2.59-4.33.26-8.68.36-13,.5-3.39.11-6.78.15-10.17.26a43.3,43.3,0,0,0-4.41.26,60.62,60.62,0,0,1-11.19.2c-5.8-.34-11.59-.71-17.4-.92-2.86-.11-5.74.1-8.61.21-3.86.14-7.72.29-11.58.5-1.16.06-2.32.3-3.49.46h-1.67c-3.78.15-7.56.32-11.34.46-2.79.1-5.58.15-8.36.25-1.63.06-3.27.13-4.89.27-3.56.28-7.12.58-10.68.93-2.45.25-4.9.49-7.32.89-3.75.62-7.43,1.74-11.33,1-2.8-.49-5.66-.72-8.49-1.11a81.33,81.33,0,0,0-8.58-1.24,25.36,25.36,0,0,1-8.07-1.41,5.87,5.87,0,0,1-3.29-2.92,68.72,68.72,0,0,1-5.2-14.34c-1.9-6.9-3.56-13.86-5.22-20.82Q294.83,448,293.24,440c-.76-3.85-1.32-7.74-1.89-11.63-.33-2.23-.56-4.49-.73-6.74-.22-2.86-.34-5.72-.51-8.58-.31-5.4-.67-10.8-.93-16.2-.11-2.11-.05-4.24,0-6.35,0-1.19.17-2.38.27-3.57.3-3.48.74-7,.88-10.44.12-2.86-.06-5.74-.21-8.61-.19-3.81-.4-7.62-.73-11.42-.31-3.52-.78-7-1.21-10.53-.62-5-1.28-10.07-1.87-15.11-.46-3.9-.83-7.82-1.24-11.72-.47-4.58-.92-9.16-1.43-13.74-.31-2.76-.75-5.5-1.07-8.26-.39-3.35-.88-6.7-1-10.06a61,61,0,0,1,.44-7.74c.44-4.94,1-9.87,1.44-14.81.49-5.3,1-10.59,1.41-15.9.32-4,.49-8.09.74-12.14.23-3.77.52-7.54.71-11.31.21-4.14.3-8.28.51-12.42.1-2,.33-4,.5-6q.35-4,.67-8c.17-1.25.29-2.52.56-3.75a1.26,1.26,0,0,1,.9-.76c2.23-.31,4.47-.52,6.71-.76h.48l2.16-.23h.48l3.84-.24h.48l6.72-.23h1.2l2.39,0,1.21-.22H317l1-.23,1.91,0,.73-.22,3.12-.23h3.83l1.21-.23H330l1.21-.23h2.4c.69.65,1.33,1.36,2.08,1.94a59.9,59.9,0,0,0,11.64,7.18c4.17,1.87,8.46,3.49,12.71,5.16a21.32,21.32,0,0,0,9.77,1.78A4.18,4.18,0,0,0,370.8,207Z" />
        <path class="color-shadow"
            d="M288,198.7q-.33,4-.67,8c-.17,2-.4,4-.5,6-.21,4.14-.3,8.28-.51,12.42-.19,3.77-.48,7.54-.71,11.31-.25,4-.42,8.1-.74,12.14-.41,5.31-.92,10.6-1.41,15.9-.47,4.94-1,9.87-1.44,14.81a61,61,0,0,0-.44,7.74c.15,3.36.64,6.71,1,10.06.32,2.76.76,5.5,1.07,8.26.51,4.58,1,9.16,1.43,13.74.41,3.9.78,7.82,1.24,11.72.59,5,1.25,10.07,1.87,15.11.43,3.51.9,7,1.21,10.53.33,3.8.54,7.61.73,11.42.15,2.87.33,5.75.21,8.61-.14,3.48-.58,7-.88,10.44-.1,1.19-.24,2.38-.27,3.57,0,2.11-.1,4.24,0,6.35.26,5.4.62,10.8.93,16.2.17,2.86.29,5.72.51,8.58.17,2.25.4,4.51.73,6.74.57,3.89,1.13,7.78,1.89,11.63q1.59,8,3.48,15.95c1.66,7,3.32,13.92,5.22,20.82a68.72,68.72,0,0,0,5.2,14.34,5.87,5.87,0,0,0,3.29,2.92,25.36,25.36,0,0,0,8.07,1.41,81.33,81.33,0,0,1,8.58,1.24c2.83.39,5.69.62,8.49,1.11,3.9.69,7.58-.43,11.33-1,2.42-.4,4.87-.64,7.32-.89,3.56-.35,7.12-.65,10.68-.93,1.62-.14,3.26-.21,4.89-.27,2.78-.1,5.57-.15,8.36-.25,3.78-.14,7.56-.31,11.34-.46-.2.15-.38.42-.59.44-3.08.27-6.18.46-9.26.76-2.17.21-4.32.57-6.49.82-1.89.23-3.78.44-5.68.6-4.15.34-8.3.64-12.45.94-1.43.11-2.86.14-4.29.27-2.57.24-5.14.47-7.69.81a40.52,40.52,0,0,1-9.34,0c-2.1-.2-4.2-.36-6.29-.57-2.73-.28-5.44-.62-8.17-.87a13.84,13.84,0,0,0-3.34-.05,27.82,27.82,0,0,1-11.69-1,1.77,1.77,0,0,1-1-.66,99,99,0,0,1-4.61-8.77,64.31,64.31,0,0,1-3.11-9.37c-1.32-5.15-2.42-10.36-3.53-15.56-1.21-5.75-2.48-11.49-3.44-17.28-.86-5.12-1.39-10.3-1.94-15.47-.36-3.28-.51-6.57-.74-9.86-.33-4.64-.78-9.28-.92-13.92-.13-3.93.1-7.86.2-11.79,0-1.55.16-3.1.24-4.65.16-3.34.34-6.68.48-10,.1-2.39.2-4.78.22-7.17,0-1.17-.17-2.34-.29-3.7l1.55.48c-.11-1.62-.16-3.14-.32-4.66-.27-2.56-.53-5.13-.93-7.68-.82-5.25-1.75-10.48-2.59-15.73a78.13,78.13,0,0,1-1.19-8.59,102.09,102.09,0,0,0-2.54-17.06c-.93-4.18-2.16-8.35-2-12.68a72.23,72.23,0,0,1,1-7.42q.69-4.83,1.34-9.67c.4-3,.81-6,1.14-9.08q.38-3.33.52-6.66c.09-1.88,0-3.76,0-5.64q.21-9.09.48-18.18c.12-3.9.25-7.8.49-11.7.23-3.72.68-7.43.91-11.16a80.74,80.74,0,0,0,.22-9.2,23.56,23.56,0,0,1,2.2-10.67c.52-1.2,1-2.42,1.53-3.62C287.61,198.82,287.82,198.77,288,198.7Z" />
        <path class="color-shadow"
            d="M391.16,493.91c1.17-.16,2.33-.4,3.49-.46,3.86-.21,7.72-.36,11.58-.5,2.87-.11,5.75-.32,8.61-.21,5.81.21,11.6.58,17.4.92a60.62,60.62,0,0,0,11.19-.2,43.3,43.3,0,0,1,4.41-.26c3.39-.11,6.78-.15,10.17-.26,4.34-.14,8.69-.24,13-.5,5.28-.31,10.54-.77,15.59-2.59,2.09-.75,3.55-1.75,3.82-4.15.41-3.54,1.54-7,1.26-10.63a101.35,101.35,0,0,0-1.18-10.88c-1.1-5.81-2.46-11.57-3.87-17.32-1.07-4.36-2.49-8.64-3.58-13-.92-3.65-1.58-7.36-2.35-11.06a5.42,5.42,0,0,1,0-1.07c.07-3.73.22-7.46.18-11.19-.05-4.41-.08-8.83-.47-13.21-.52-5.84-1.13-11.7-2.13-17.48-1.34-7.7-3.07-15.34-4.66-23-1.05-5.06-2.16-10.1-3.25-15.15-.69-3.22-1.45-6.43-2-9.67-.55-3-1-6-1.29-9.07a43.57,43.57,0,0,1-.43-8.21c.4-4.77.72-9.53.66-14.32a3.83,3.83,0,0,1,.66,1c.94,3.61,2,7.21,2.72,10.87.92,4.54,1.6,9.14,2.36,13.71.44,2.66.81,5.34,1.25,8,.69,4.19,1.36,8.38,2.14,12.55.84,4.45,1.8,8.87,2.71,13.31s1.94,8.92,2.74,13.41c.92,5.2,1.57,10.44,2.52,15.63a25.4,25.4,0,0,0,2,6.12,7.16,7.16,0,0,1,.32,4.3,58.78,58.78,0,0,0-.23,13,28.66,28.66,0,0,1,.25,3.92,42.58,42.58,0,0,0,2.53,17.43c1.35,3.65,2.53,7.37,3.63,11.11.79,2.7,1.35,5.47,2,8.22.72,3.22,1.4,6.44,2.09,9.67a2.5,2.5,0,0,1,.07.94c-.2,1.4-.53,2.8-.64,4.21-.17,2-.07,4.07-.29,6.08a96.71,96.71,0,0,1-1.54,11.31,13.67,13.67,0,0,1-5,7.51,8.73,8.73,0,0,1-1,.87,10.28,10.28,0,0,1-1.78.74c-.85.26-1.72.46-2.58.69a8.18,8.18,0,0,1-1.9.49c-2.32.06-4.64,0-7,0-2,0-4,.2-6,.22-1.19,0-2.38-.21-3.57-.21q-14.58,0-29.16,0c-2.25,0-4.51.23-6.75.16-4-.13-7.94-.43-11.92-.64-.75,0-1.52,0-2.27,0-3.81-.22-7.62-.53-11.43-.69s-7.74-.17-11.61-.27A10.88,10.88,0,0,1,391.16,493.91Z" />
        <path class="color-shadow"
            d="M467.72,295.66c.2-1.5.32-3,.6-4.51,1.3-7.06,2.65-14.12,4-21.18.85-4.57,1.72-9.13,2.51-13.7.54-3.09.85-6.22,1.46-9.29.71-3.59,1.73-7.11,2.46-10.69.83-4.08,1.45-8.21,2.23-12.3a8.55,8.55,0,0,1,.94-2.54c.21-.39.91-.9,1.17-.79a2.21,2.21,0,0,1,1.25,1.24,66.13,66.13,0,0,1,1.15,6.68c.4,3.59.8,7.19.91,10.8.1,3.4.54,6.81-.09,10.24s-.95,6.89-1.41,10.42l6.38-2.53c-1.33,1.1-2.67,2.19-4,3.31a17.34,17.34,0,0,0-1.27,1.3l-4.81,2.27a41.33,41.33,0,0,0,.17-4.16c-.15-2.73-.41-5.45-.68-8.18a31.76,31.76,0,0,0-.66-4c-.09-.41-.59-.73-.91-1.09a5.13,5.13,0,0,0-1,1.17,5.64,5.64,0,0,0-.26,1.76c-.17,2.09-.38,4.19-.44,6.29a36.12,36.12,0,0,0,.25,3.73c0,.39-.07.78-.11,1.17-.73.41-.48.92-.17,1.45,0,.4-.06.79-.1,1.19l-.13.49c-.05.4-.1.79-.14,1.18-.11.65-.21,1.3-.32,1.95-.08.47-.15.93-.22,1.4a6.18,6.18,0,0,0-.76,1.4c-.84,3.35-1.54,6.75-2.47,10.07-1.09,3.94-2.32,7.85-3.61,11.73A26.74,26.74,0,0,1,467.72,295.66Z" />
        <path class="color-shadow"
            d="M370.8,207a4.18,4.18,0,0,1-1,.37,21.32,21.32,0,0,1-9.77-1.78c-4.25-1.67-8.54-3.29-12.71-5.16a59.9,59.9,0,0,1-11.64-7.18c-.75-.58-1.39-1.29-2.08-1.94,3.08-.49,6.16-.94,9.23-1.48a1.27,1.27,0,0,1,1.49.46c3.83,4.58,8.1,8.65,13.64,11.16,2.75,1.24,5.48,2.51,8.24,3.74.21.09.53,0,.79-.05Z" />
        <path class="color-shadow" d="M325.16,191.74h0Z" />
        <path class="color-shadow" d="M331.16,191.26l-1.21.23C330.24,190.78,330.68,190.93,331.16,191.26Z" />
        <path class="color-shadow" d="M328.76,191.5l-1.21.23C327.83,191,328.28,191.17,328.76,191.5Z" />
        <path class="color-shadow" d="M315.08,192.46l-1.21.22Z" />
        <path class="color-shadow" d="M311.48,192.7h0Z" />
        <path class="color-shadow" d="M318,192.22l-1,.23Z" />
        <path class="color-shadow" d="M320.6,192l-.73.22Z" />
        <path class="color-shadow" d="M303.56,192.94h0Z" />
        <path class="color-shadow" d="M299.24,193.18h0Z" />
        <path class="color-shadow" d="M296.6,193.42h0Z" />
        <path class="color-shadow-dark"
            d="M486,262.12a17.34,17.34,0,0,1,1.27-1.3c1.32-1.12,2.66-2.21,4-3.31,1.72-1.12,3.4-2.33,5.18-3.36,5-2.9,10.08-5.72,15.32-8.68-.25-.6-.58-1.56-1-2.47-2.39-5.17-4.81-10.33-7.21-15.49a1.78,1.78,0,0,1-.06-.47c-.24-.76-.49-1.51-.72-2.27-1.74-6-3.41-11.92-5.25-17.84-.8-2.57-1.48-5.29-3.43-7.29a63.77,63.77,0,0,0-5.42-4.83c-4.56-3.74-9.31-7.26-15-9.17s-11.25-3.49-16.87-5.26c-.74-.23-.89.12-1.09.66-.7,1.9-1.44,3.78-2.17,5.66a25.54,25.54,0,0,1-8,9.81,90.62,90.62,0,0,1-9.67,7.18c-6.26,3.75-12.89,6.8-20.17,8.12-1,.19-2.24.45-2.94-.82,3.43-.76,6.92-1.3,10.28-2.31a37.16,37.16,0,0,0,21.59-17.05c2.66-4.4,4.82-9.1,7.16-13.69a21.51,21.51,0,0,0,1-2.74,76.78,76.78,0,0,1,14.53,4.53c3.36,1.48,6.77,2.85,10.15,4.3a28.82,28.82,0,0,1,2.87,1.48A65.19,65.19,0,0,1,493,195.58a38.45,38.45,0,0,1,10.14,16.86c2.91,10.22,6,20.35,9.8,30.3.64,1.71,1.2,3.46,1.83,5.32-2.24,1.32-4.4,2.79-6.72,3.92-5.35,2.6-10.77,5.06-16.18,7.55C489.94,260.43,488,261.26,486,262.12Z" />
        <path class="color-shadow-dark"
            d="M477.62,259.93a36.12,36.12,0,0,1-.25-3.73c.06-2.1.27-4.2.44-6.29a5.64,5.64,0,0,1,.26-1.76,5.13,5.13,0,0,1,1-1.17c.32.36.82.68.91,1.09a31.76,31.76,0,0,1,.66,4c.27,2.73.53,5.45.68,8.18a41.33,41.33,0,0,1-.17,4.16l-2.12,1.41-.42-.17v-6.15l-.44-.12Z" />
        <path class="color-shadow-dark"
            d="M476.65,267.36c.11-.65.21-1.3.32-1.95C476.86,266.06,476.75,266.71,476.65,267.36Z" />
        <path class="color-shadow-dark"
            d="M477.34,262.55c-.31-.53-.56-1,.17-1.45C477.45,261.58,477.4,262.07,477.34,262.55Z" />
        <path class="color-shadow-dark" d="M477.11,264.23l.13-.49Z" />
        <path class="color-shadow"
            d="M453.56,186.7c.73-1.88,1.47-3.76,2.17-5.66.2-.54.35-.89,1.09-.66,5.62,1.77,11.29,3.38,16.87,5.26s10.4,5.43,15,9.17a63.77,63.77,0,0,1,5.42,4.83c1.95,2,2.63,4.72,3.43,7.29,1.84,5.92,3.51,11.89,5.25,17.84.23.76.48,1.51.72,2.27a15.86,15.86,0,0,1-1.87-3,77,77,0,0,1-2.33-8.14,20.61,20.61,0,0,0-4.37-8.78c-1.52-1.84-3.1-3.64-4.68-5.43a26.17,26.17,0,0,0-10.66-7.07c-3.57-1.34-7.2-2.52-10.84-3.64-4.68-1.43-9.4-2.73-14.11-4.07A7.19,7.19,0,0,0,453.56,186.7Z" />
    </g>
</svg>
