<svg id="bochonok" xmlns="http://www.w3.org/2000/svg" viewBox="0 0 672 960">
    <g id="img_6_img" data-name="img 6 img">
        <path class="outline"
            d="M346.74,428.58c-1.79.08-3.6.08-5.38.26-4.32.45-8.63,1-13,1.46-1.66.17-3.34.12-5,.24s-3.54.36-5.32.49c-1.06.07-2.13,0-3.18.05s-2.25.38-3.39.52a13.06,13.06,0,0,1-5.19-.33c-2.06-.56-4.26-.59-6.39-1a12,12,0,0,1-2.69-.89c-2.44-1.05-4.87-2.12-7.26-3.27a2.19,2.19,0,0,1-1.1-1.24c-.68-2.62-1.17-5.29-1.87-7.9-2.55-9.51-3.93-19.25-5.87-28.89-2.27-11.3-2.69-22.77-3.75-34.18-.34-3.7-.85-7.38-1.23-11.08-.56-5.48-1.06-11-1.64-16.45a9.12,9.12,0,0,0-.71-2.24c-.84-2.12-1.7-4.23-2.55-6.34a.93.93,0,0,1,.49-1.37,1.51,1.51,0,0,0,.54-1.08c1-9.38,2-18.75,3-28.14q1.37-13.67,2.55-27.34c.35-3.94.49-7.9.78-11.84.19-2.53.53-5.05.68-7.58.17-2.74.2-5.5.29-8.25q.69-20.78,1.39-41.55a4,4,0,0,1,.07-.5c2.05-.2,4.13-.42,6.21-.61,3.64-.33,7.27-.67,10.92-.95s7.53-.62,11.3-.78c10.29-.44,20.56-1.05,30.56-3.78,1.87-.51,3.65-1.38,5.49-2a3.57,3.57,0,0,1,1.95-.31c.59.16,1.53.82,1.51,1.22-.08,1.56.94,2.51,1.68,3.57,8.15,11.72,19.39,18.8,33.26,21.78a85.32,85.32,0,0,0,8.61,1.21c6.81.75,13.48-.51,20.17-1.45a46.92,46.92,0,0,0,12.47-3.16,35.55,35.55,0,0,0,16.35-14c3.19-5.15,5.91-10.59,8.84-15.9a1.17,1.17,0,0,1,.05-.11c1.17-3.06,1.16-2.92,4.39-2.09,6.91,1.79,13.41,4.6,20,7.4a36.89,36.89,0,0,1,10.62,6.56c2.71,2.47,5.75,4.56,8.59,6.9,3.35,2.75,5.27,6.57,7.41,10.23,2,3.45,2.95,7.3,4.09,11.08,2.55,8.51,5.6,16.84,8.95,25.08,1.13,2.76,2.13,5.57,3.1,8.11-6.44,3-12.78,6.08-19.2,9-6.8,3.05-13.24,6.77-19.77,10.34a2.09,2.09,0,0,0-.89,1.36c-1.07,8.56-2.14,17.13-3.07,25.71a23.09,23.09,0,0,0,.43,4.87c1.6,14.79,5,29.27,7.72,43.86,2.34,12.44,4.67,24.88,7.13,37.29a69.37,69.37,0,0,0,2.41,7.75c.5,1.56,1,3.13,1.6,4.64a16,16,0,0,1,.86,10.17c-1.34,5.38-.95,10.79-.08,16.26a83.61,83.61,0,0,1,.62,12.17,8.52,8.52,0,0,1-1.1,3.26,1.29,1.29,0,0,1-1.13.44c-2.67-.75-5.44-1.08-8-2.31-1.47-.69-3-1.34-4.55-1.92a19.54,19.54,0,0,0-4-.66c-4-.56-8-1.14-12-1.65-.9-.12-1.84,0-2.75,0-2.5-.14-5-.32-7.5-.48-.84-.06-1.68-.09-2.52-.12-5.89-.17-11.79-.55-17.69-.14-1,.07-2.06.26-3.1.32-1.67.08-3.34.08-5,.15-1.24,0-2.47.22-3.71.2-5.26-.07-10.52-.22-15.78-.28-3.91,0-7.82,0-11.73,0l-7.67,0c-2.63,0-5.26,0-7.89,0-4.43,0-8.86,0-13.29,0-1.79,0-3.58-.16-5.38-.22-1.38,0-2.77-.07-4.16,0-3,.08-6,.2-9,.31,0-.09,0-.18,0-.26l3.43-.18.49,0,7.84-.36h14.83a7.68,7.68,0,0,0,.82.11c3,0,6.06-.14,9.09-.14,3.58,0,7.16.11,10.73.09,4.35,0,8.7-.21,13.05-.19,6.91,0,13.81.22,20.72.24,3.47,0,6.94-.22,10.41-.34.16,0,.31-.06.47-.08l1-.06,2.86-.13c1.24,0,2.48-.1,3.71-.06,3.18.11,6.37.28,9.55.41,5.77.23,11.54.37,17.3.71a29.18,29.18,0,0,1,12,3.12,17.54,17.54,0,0,0,4.39,1.45c1.7.37,1.74.21,2.36-1.47a19.5,19.5,0,0,0,.54-10.3,48.36,48.36,0,0,1-.19-16.67,26.21,26.21,0,0,0,.64-6.63,52.72,52.72,0,0,0-1.72-7.95c-1.32-5.3-2.85-10.56-4-15.9-1.44-6.62-2.6-13.31-3.89-20-1-5.21-2.08-10.4-3.07-15.61-1.12-5.91-2.23-11.83-3.26-17.76-1.08-6.2-2-12.44-3.13-18.63a33.22,33.22,0,0,1-.36-10.71c.85-6.24,1.7-12.48,2.5-18.73.15-1.2.09-2.42.12-3.64.08-.47.15-.93.23-1.4l.19-.5v-.95l.12-.5.13-1.18.14-.49.1-1.19.17-1.45.11-1.17.59-.57.45.12v6.17l.42.13,2.38-1.51,4.52-2.16c2-.86,4-1.68,5.91-2.58,5.4-2.49,10.82-4.95,16.17-7.56,2.32-1.13,4.48-2.59,6.74-3.92-.64-1.85-1.2-3.6-1.85-5.31-3.75-10-6.86-20.09-9.8-30.3a38.54,38.54,0,0,0-10.3-17,65.57,65.57,0,0,0-12.77-10,22.27,22.27,0,0,0-2.67-1.35c-3.37-1.46-6.78-2.83-10.14-4.31a76,76,0,0,0-14.53-4.52,22.07,22.07,0,0,1-1,2.74c-2.34,4.59-4.5,9.29-7.16,13.68a37,37,0,0,1-21.37,17c-3.43,1-7,1.61-10.5,2.39-4.52.49-9,1.22-13.55,1.39A60.83,60.83,0,0,1,370.8,207L367,205.11A60.48,60.48,0,0,1,356,197.17a56.15,56.15,0,0,1-10-12.31c-.21-.34-.8-.74-1.12-.67-3.07.68-6.08,1.7-9.17,2.17q-10.28,1.53-20.62,2.61c-5.19.54-10.43.71-15.64,1.08-4.89.35-9.77.77-14.67,1.11-2.1.15-2.81.83-2.84,3-.05,3.27-.05,6.55-.18,9.82q-.56,13.71-1.22,27.4c-.26,5.34-.61,10.68-1,16-.12,1.84-.38,3.66-.53,5.49-.31,3.69-.58,7.38-.9,11.07-.24,2.86-.53,5.72-.8,8.57q-.54,5.65-1.07,11.31c-.26,2.7-.57,5.39-.75,8.09-.29,4.09-.47,8.19-.74,12.28-.12,1.86-.4,3.72-.49,5.59s.06,4.07-.12,6.08a11.23,11.23,0,0,0,2.1,7.18,3.23,3.23,0,0,1,.62,1.26c.43,3.76.84,7.53,1.16,11.31.26,3,.33,6.05.59,9.07.58,6.59,1.41,13.16,1.8,19.76a179.77,179.77,0,0,0,2,19.51c1.11,6.48,2,13,3.2,19.47,1.19,6.15,2.77,12.22,4.12,18.33a6.47,6.47,0,0,0,5.94,5.48c1,.34,1.94.73,2.94,1,2.57.69,5.13,1.46,7.75,1.93a41.68,41.68,0,0,0,11,0c4.89-.42,9.78-.86,14.68-1.25,2.42-.19,4.84-.32,7.26-.43s4.93-.19,7.4-.27Z" />
        <path class="color-shadow-dark" d="M346.74,428.58c0-.12-.05-.24-.08-.36l.61-.06,0,.26Z" />
        <path class="color-base"
            d="M373.86,427.59H359a7.58,7.58,0,0,0-2-.62q-13.25-.06-26.49,0c-3.19,0-6.38.21-9.57.21-4.15,0-8.3-.15-12.45-.23a3.81,3.81,0,0,1-.59,0c-2.52-.3-5-.66-7.57-.89a1.54,1.54,0,0,1-1.54-1.36c-.39-1.66-.82-3.32-1.12-5-1.18-6.48-2.39-12.95-3.42-19.45-.73-4.55-1.21-9.13-1.73-13.7-.45-4-.8-8-1.18-12-.27-2.72-.46-5.46-.76-8.18-.43-3.86-.94-7.72-1.4-11.58-.43-3.58-.81-7.17-1.24-10.76-.53-4.41-1.12-8.81-1.64-13.22-.45-3.9-.82-7.82-1.23-11.72-.55-5.13-1.08-10.26-1.67-15.38-.33-2.92-.81-5.82-1.13-8.73a74.5,74.5,0,0,1-.72-8.55c0-3.24.37-6.5.66-9.74.37-4.07.82-8.14,1.21-12.21.49-5.21,1-10.43,1.41-15.65.32-4,.49-8.1.74-12.15.23-3.77.52-7.53.71-11.3.21-4.14.3-8.28.5-12.42.11-2.1.34-4.19.51-6.29q.35-4.1.67-8.19V198l.23-.49a15.2,15.2,0,0,1,.32-2.45,1.38,1.38,0,0,1,.94-.85c2.22-.31,4.45-.52,6.68-.76h.48l2.16-.24h.48l3.84-.24h.48l6.72-.23h1.2l2.39,0,1.21-.22,1.91,0,1-.22,1.91,0,.73-.22,3.36-.24h1.2l2.39,0,1.21-.22H330l1.21-.23h2.4c.69.65,1.33,1.36,2.08,1.94a60.39,60.39,0,0,0,11.64,7.18c4.17,1.87,8.46,3.49,12.71,5.16a21.32,21.32,0,0,0,9.77,1.78,4,4,0,0,0,1-.37,67.92,67.92,0,0,0,16.38,4.85,69,69,0,0,0,12,.57c4.53-.17,9-.9,13.55-1.39.7,1.27,1.92,1,2.94.82,7.28-1.31,13.9-4.4,20.18-8.13a90.53,90.53,0,0,0,9.67-7.17,25.61,25.61,0,0,0,8-9.81,7.41,7.41,0,0,1,1.05.17c4.71,1.34,9.43,2.64,14.11,4.07,3.64,1.12,7.27,2.3,10.84,3.64a26.17,26.17,0,0,1,10.66,7.07c1.58,1.79,3.16,3.59,4.68,5.43a20.61,20.61,0,0,1,4.37,8.78A77,77,0,0,0,501.6,224a15.86,15.86,0,0,0,1.87,3,1.78,1.78,0,0,0,.06.47c2.4,5.16,4.82,10.32,7.21,15.49.43.92.77,1.88,1.15,2.81a6.28,6.28,0,0,1-.56.32,91.54,91.54,0,0,0-14.21,7.54l-5.87,3.84L484.87,260c.46-3.53.78-7,1.41-10.42s.19-6.84.09-10.24c-.11-3.6-.51-7.21-.91-10.8a66.13,66.13,0,0,0-1.15-6.68,2.21,2.21,0,0,0-1.25-1.24c-.25-.11-1,.4-1.17.79A8.65,8.65,0,0,0,481,224c-.78,4.09-1.4,8.22-2.23,12.3-.73,3.58-1.75,7.1-2.46,10.69-.61,3.07-.92,6.2-1.46,9.29-.79,4.57-1.66,9.13-2.51,13.7-1.32,7.06-2.67,14.12-4,21.18-.28,1.49-.4,3-.6,4.51s-.31,2.88-.46,4.31c0,2.64.14,5.29-.06,7.92-.33,4.28-1,8.53-.44,12.84.51,3.73.86,7.49,1.52,11.19.8,4.42,1.85,8.78,2.8,13.16,1.44,6.64,2.9,13.27,4.31,19.91.93,4.35,1.91,8.7,2.63,13.08s1.21,8.72,1.7,13.09c.39,3.55.87,7.12.91,10.68.09,6.58-.13,13.17-.16,19.76,0,1-.51,1.07-1.27,1-3.53-.25-7.05-.52-10.58-.69-1.23-.06-2.46.21-3.69.2-5.47-.05-10.94-.26-16.4-.19-4.66.07-9.3.44-13.95.7-2.18.13-4.36.35-6.54.48-4.25.25-8.49.51-12.74.68-1.51.06-3-.21-4.53-.2q-4.72,0-9.45.23c-3.06.12-6.14.15-9.17.52-5.47.68-10.91,1.57-16.36,2.42A8.74,8.74,0,0,0,373.86,427.59Z" />
        <path class="color-shadow-dark"
            d="M324,191.74l-3.36.24-.73.22-1.91,0-1,.22-1.91,0-1.21.22-2.39,0h-1.2l-6.72.23h-.48l-3.84.24h-.48l-2.16.24h-.48c-2.23.24-4.46.45-6.68.76a1.38,1.38,0,0,0-.94.85,15.2,15.2,0,0,0-.32,2.45c-.08.17-.15.33-.23.49v.48c-.13.07-.34.12-.39.23-.75,1.84-1.59,3.65-2.17,5.54a28.31,28.31,0,0,0-1.45,6.23c-.29,3.78-.2,7.58-.31,11.37,0,1.35-.15,2.7-.24,4q-.48,6.84-.94,13.68c-.11,1.71-.18,3.42-.24,5.13-.17,4.34-.38,8.68-.47,13-.08,3.52.05,7,0,10.56-.06,2.5-.26,5-.52,7.49-.31,3-.74,5.91-1.14,8.85-.52,3.81-1.11,7.61-1.59,11.43-.34,2.68-1,5.42-.7,8,.49,4.4,1.58,8.74,2.48,13.09.84,4.05,1.83,8.06,1.75,12.25a27.09,27.09,0,0,0,.33,4.76c.44,2.74,1.09,5.44,1.56,8.18.7,4.07,1.37,8.14,1.94,12.22.48,3.54.8,7.1,1.19,10.65.27,2.44.52,4.89.8,7.34s.6,5,.88,7.56c.2,1.86.33,3.72.54,5.58.36,3,.81,6,1.13,9.09.38,3.59.49,7.22,1,10.79.69,4.55,1.65,9.06,2.54,13.57.53,2.69,1.15,5.36,1.73,8a6.47,6.47,0,0,1-5.94-5.48c-1.35-6.11-2.93-12.18-4.12-18.33-1.24-6.45-2.09-13-3.2-19.47a179.77,179.77,0,0,1-2-19.51c-.39-6.6-1.22-13.17-1.8-19.76-.26-3-.33-6.05-.59-9.07-.32-3.78-.73-7.55-1.16-11.31a3.23,3.23,0,0,0-.62-1.26,11.23,11.23,0,0,1-2.1-7.18c.18-2,0-4.06.12-6.08s.37-3.73.49-5.59c.27-4.09.45-8.19.74-12.28.18-2.7.49-5.39.75-8.09q.53-5.66,1.07-11.31c.27-2.85.56-5.71.8-8.57.32-3.69.59-7.38.9-11.07.15-1.83.41-3.65.53-5.49.35-5.33.7-10.67,1-16q.67-13.69,1.22-27.4c.13-3.27.13-6.55.18-9.82,0-2.14.74-2.82,2.84-3,4.9-.34,9.78-.76,14.67-1.11,5.21-.37,10.45-.54,15.64-1.08q10.33-1.07,20.62-2.61c3.09-.47,6.1-1.49,9.17-2.17.32-.07.91.33,1.12.67a56.15,56.15,0,0,0,10,12.31A60.48,60.48,0,0,0,367,205.11c-.26,0-.58.13-.8,0-2.75-1.22-5.48-2.5-8.23-3.73-5.55-2.49-9.8-6.59-13.64-11.16a1.26,1.26,0,0,0-1.49-.46c-3.07.54-6.15,1-9.23,1.48h-2.4c-.48-.33-.92-.48-1.21.23h-1.19l-1.21.22-2.39,0Z" />
        <path class="color-shadow"
            d="M373.86,427.59a8.74,8.74,0,0,1,1.93-.82c5.45-.85,10.89-1.74,16.36-2.42,3-.37,6.11-.4,9.17-.52s6.3-.2,9.45-.23c1.51,0,3,.26,4.53.2,4.25-.17,8.49-.43,12.74-.68,2.18-.13,4.36-.35,6.54-.48,4.65-.26,9.29-.63,13.95-.7,5.46-.07,10.93.14,16.4.19,1.23,0,2.46-.26,3.69-.2,3.53.17,7.05.44,10.58.69.76.05,1.26,0,1.27-1,0-6.59.25-13.18.16-19.76,0-3.56-.52-7.13-.91-10.68-.49-4.37-1-8.75-1.7-13.09s-1.7-8.73-2.63-13.08c-1.41-6.64-2.87-13.27-4.31-19.91-.95-4.38-2-8.74-2.8-13.16-.66-3.7-1-7.46-1.52-11.19-.6-4.31.11-8.56.44-12.84.2-2.63.05-5.28.06-7.92.15.12.38.21.42.36.67,2.45,1.36,4.9,2,7.37a184.17,184.17,0,0,1,3.66,19.65c.83,6.33,2,12.61,3.1,18.9q1,5.87,2.21,11.69c1,4.82,2.13,9.61,3,14.45.7,3.73,1.05,7.54,1.71,11.28a58.12,58.12,0,0,0,3.06,11.63,7.94,7.94,0,0,1,.39,3.23c-.09,1.94-.6,3.87-.56,5.79.14,6.37.44,12.74.69,19.1,0,.24.11.47.13.71.1,1.15.2,2.3.28,3.31-2.56-.46-5-.95-7.37-1.31-1.8-.28-3.63-.38-5.45-.56-2.6-.26-5.2-.69-7.81-.74s-5.24.3-7.86.44c-1.92.1-3.85.13-5.78.25-2.18.14-4.36.26-6.52.56a24.28,24.28,0,0,0-3.56,1l-2.86.13-1,.06c-.16,0-.31.07-.47.08-3.47.12-6.94.35-10.41.34-6.91,0-13.81-.21-20.72-.24-4.35,0-8.7.17-13.05.19-3.57,0-7.15-.09-10.73-.09-3,0-6.06.1-9.09.14A7.68,7.68,0,0,1,373.86,427.59Z" />
        <path class="color-shadow-dark"
            d="M443,427.09a24.28,24.28,0,0,1,3.56-1c2.16-.3,4.34-.42,6.52-.56,1.93-.12,3.86-.15,5.78-.25,2.62-.14,5.24-.49,7.86-.44s5.21.48,7.81.74c1.82.18,3.65.28,5.45.56,2.41.36,4.81.85,7.37,1.31-.08-1-.18-2.16-.28-3.31,0-.24-.12-.47-.13-.71-.25-6.36-.55-12.73-.69-19.1,0-1.92.47-3.85.56-5.79a7.94,7.94,0,0,0-.39-3.23,58.12,58.12,0,0,1-3.06-11.63c-.66-3.74-1-7.55-1.71-11.28-.9-4.84-2.05-9.63-3-14.45q-1.19-5.83-2.21-11.69c-1.08-6.29-2.27-12.57-3.1-18.9a184.17,184.17,0,0,0-3.66-19.65c-.6-2.47-1.29-4.92-2-7.37,0-.15-.27-.24-.42-.36.15-1.43.31-2.87.46-4.31a28.18,28.18,0,0,0,1.88-3.77c.75-2.24,1.12-4.62,1.92-6.85a75.75,75.75,0,0,0,3.7-12.79,21.5,21.5,0,0,1,1.2-3.49c0,1.22,0,2.44-.12,3.64-.8,6.25-1.65,12.49-2.5,18.73a33.22,33.22,0,0,0,.36,10.71c1.17,6.19,2,12.43,3.13,18.63,1,5.93,2.14,11.85,3.26,17.76,1,5.21,2.05,10.4,3.07,15.61,1.29,6.65,2.45,13.34,3.89,20,1.17,5.34,2.7,10.6,4,15.9a52.72,52.72,0,0,1,1.72,7.95,26.21,26.21,0,0,1-.64,6.63A48.36,48.36,0,0,0,492.8,421a19.5,19.5,0,0,1-.54,10.3c-.62,1.68-.66,1.84-2.36,1.47a17.54,17.54,0,0,1-4.39-1.45,29.18,29.18,0,0,0-12-3.12c-5.76-.34-11.53-.48-17.3-.71-3.18-.13-6.37-.3-9.55-.41C445.47,427,444.23,427.07,443,427.09Z" />
        <path class="color-shadow"
            d="M295.64,427.21c-.58-2.68-1.2-5.35-1.73-8-.89-4.51-1.85-9-2.54-13.57-.53-3.57-.64-7.2-1-10.79-.32-3-.77-6.06-1.13-9.09-.21-1.86-.34-3.72-.54-5.58-.28-2.52-.6-5-.88-7.56s-.53-4.9-.8-7.34c-.39-3.55-.71-7.11-1.19-10.65-.57-4.08-1.24-8.15-1.94-12.22-.47-2.74-1.12-5.44-1.56-8.18a27.09,27.09,0,0,1-.33-4.76c.08-4.19-.91-8.2-1.75-12.25-.9-4.35-2-8.69-2.48-13.09-.29-2.63.36-5.37.7-8,.48-3.82,1.07-7.62,1.59-11.43.4-2.94.83-5.89,1.14-8.85.26-2.49.46-5,.52-7.49.09-3.52,0-7,0-10.56.09-4.34.3-8.68.47-13,.06-1.71.13-3.42.24-5.13q.45-6.84.94-13.68c.09-1.35.21-2.7.24-4,.11-3.79,0-7.59.31-11.37a28.31,28.31,0,0,1,1.45-6.23c.58-1.89,1.42-3.7,2.17-5.54.05-.11.26-.16.39-.23q-.33,4.09-.67,8.19c-.17,2.1-.4,4.19-.51,6.29-.2,4.14-.29,8.28-.5,12.42-.19,3.77-.48,7.53-.71,11.3-.25,4.05-.42,8.11-.74,12.15-.41,5.22-.92,10.44-1.41,15.65-.39,4.07-.84,8.14-1.21,12.21-.29,3.24-.66,6.5-.66,9.74a74.5,74.5,0,0,0,.72,8.55c.32,2.91.8,5.81,1.13,8.73.59,5.12,1.12,10.25,1.67,15.38.41,3.9.78,7.82,1.23,11.72.52,4.41,1.11,8.81,1.64,13.22.43,3.59.81,7.18,1.24,10.76.46,3.86,1,7.72,1.4,11.58.3,2.72.49,5.46.76,8.18.38,4,.73,8,1.18,12,.52,4.57,1,9.15,1.73,13.7,1,6.5,2.24,13,3.42,19.45.3,1.68.73,3.34,1.12,5a1.54,1.54,0,0,0,1.54,1.36c2.53.23,5.05.59,7.57.89a3.81,3.81,0,0,0,.59,0c4.15.08,8.3.22,12.45.23,3.19,0,6.38-.2,9.57-.21q13.25,0,26.49,0a7.58,7.58,0,0,1,2,.62l-7.84.36-.49,0-3.43.18-.61.06c-2.47.08-4.93.15-7.4.27s-4.84.24-7.26.43c-4.9.39-9.79.83-14.68,1.25a41.68,41.68,0,0,1-11,0c-2.62-.47-5.18-1.24-7.75-1.93C297.58,427.94,296.62,427.55,295.64,427.21Z" />
        <path class="color-shadow-dark"
            d="M491.25,257.51l5.87-3.84a91.54,91.54,0,0,1,14.21-7.54,6.28,6.28,0,0,0,.56-.32c-.38-.93-.72-1.89-1.15-2.81-2.39-5.17-4.81-10.33-7.21-15.49a1.78,1.78,0,0,1-.06-.47c-.84-3.06-1.61-6.15-2.54-9.18-1.45-4.72-3-9.41-4.53-14.09a12.36,12.36,0,0,0-3.61-5.55c-1.36-1.17-2.74-2.3-4.13-3.42-4.59-3.71-9.31-7.25-15-9.16s-11.25-3.49-16.87-5.26c-.73-.23-.89.11-1.09.66-.7,1.89-1.44,3.78-2.17,5.66a25.61,25.61,0,0,1-8,9.81,90.53,90.53,0,0,1-9.67,7.17c-6.28,3.73-12.9,6.82-20.18,8.13-1,.19-2.24.45-2.94-.82,3.5-.78,7.07-1.35,10.5-2.39a37,37,0,0,0,21.37-17c2.66-4.39,4.82-9.09,7.16-13.68a22.07,22.07,0,0,0,1-2.74,76,76,0,0,1,14.53,4.52c3.36,1.48,6.77,2.85,10.14,4.31a22.27,22.27,0,0,1,2.67,1.35,65.57,65.57,0,0,1,12.77,10,38.54,38.54,0,0,1,10.3,17c2.94,10.21,6.05,20.35,9.8,30.3.65,1.71,1.21,3.46,1.85,5.31-2.26,1.33-4.42,2.79-6.74,3.92-5.35,2.61-10.77,5.07-16.17,7.56-1.95.9-3.94,1.72-5.91,2.58.43-.43.82-.9,1.29-1.29C488.58,259.7,489.92,258.61,491.25,257.51Z" />
        <path class="color-shadow"
            d="M491.25,257.51c-1.33,1.1-2.67,2.19-4,3.31-.47.39-.86.86-1.29,1.29l-4.52,2.16a2.55,2.55,0,0,1-.28-.86c0-1,.25-2.06.19-3.08q-.27-4.33-.71-8.65A25.22,25.22,0,0,0,480,248c-.09-.37-.6-.93-.87-.91a1.53,1.53,0,0,0-1,.88,7.72,7.72,0,0,0-.3,2c-.17,2.1-.37,4.19-.44,6.29a36.12,36.12,0,0,0,.25,3.73c0,.39-.08.78-.11,1.17s-.11,1-.17,1.45-.07.79-.1,1.19c0,.16-.09.33-.14.49,0,.4-.09.79-.13,1.18l-.12.5c0,.32,0,.64,0,.95l-.19.5c-.08.47-.15.93-.23,1.4a21.5,21.5,0,0,0-1.2,3.49,75.75,75.75,0,0,1-3.7,12.79c-.8,2.23-1.17,4.61-1.92,6.85a28.18,28.18,0,0,1-1.88,3.77c.2-1.5.32-3,.6-4.51,1.3-7.06,2.65-14.12,4-21.18.85-4.57,1.72-9.13,2.51-13.7.54-3.09.85-6.22,1.46-9.29.71-3.59,1.73-7.11,2.46-10.69.83-4.08,1.45-8.21,2.23-12.3a8.65,8.65,0,0,1,.94-2.54c.21-.39.92-.9,1.17-.79a2.21,2.21,0,0,1,1.25,1.24,66.13,66.13,0,0,1,1.15,6.68c.4,3.59.8,7.2.91,10.8.1,3.4.54,6.81-.09,10.24s-.95,6.89-1.41,10.42Z" />
        <path class="color-shadow"
            d="M333.56,191.27c3.08-.49,6.16-.94,9.23-1.48a1.26,1.26,0,0,1,1.49.46c3.84,4.57,8.09,8.67,13.64,11.16,2.75,1.23,5.48,2.51,8.23,3.73.22.1.54,0,.8,0L370.8,207a4.42,4.42,0,0,1-1,.36,21.32,21.32,0,0,1-9.77-1.78c-4.25-1.67-8.54-3.29-12.71-5.16a60.39,60.39,0,0,1-11.64-7.18C334.89,192.63,334.25,191.92,333.56,191.27Z" />
        <path class="color-shadow-dark"
            d="M477.62,259.93a36.12,36.12,0,0,1-.25-3.73c.07-2.1.27-4.19.44-6.29a7.72,7.72,0,0,1,.3-2,1.53,1.53,0,0,1,1-.88c.27,0,.78.54.87.91a25.22,25.22,0,0,1,.69,3.73q.43,4.32.71,8.65c.06,1-.16,2.05-.19,3.08a2.55,2.55,0,0,0,.28.86l-2.38,1.51-.42-.13v-6.17l-.45-.12Z" />
        <path class="color-shadow-dark"
            d="M477.34,262.55c.06-.48.11-1,.17-1.45C477.45,261.58,477.4,262.07,477.34,262.55Z" />
        <path class="color-shadow-dark" d="M439.15,427.28l1-.07Z" />
        <path class="color-shadow-dark" d="M477.1,264.23c0-.16.1-.33.14-.49C477.2,263.9,477.15,264.07,477.1,264.23Z" />
        <path class="color-shadow-dark" d="M476.85,265.91l.12-.5Z" />
        <path class="color-shadow-dark" d="M476.65,267.36l.19-.5Z" />
        <path class="color-shadow-dark" d="M350.7,428l.49,0Z" />
        <path class="color-shadow"
            d="M453.56,186.7c.73-1.88,1.47-3.77,2.17-5.66.2-.55.36-.89,1.09-.66,5.62,1.77,11.29,3.38,16.87,5.26s10.38,5.45,15,9.16c1.39,1.12,2.77,2.25,4.13,3.42a12.36,12.36,0,0,1,3.61,5.55c1.55,4.68,3.08,9.37,4.53,14.09.93,3,1.7,6.12,2.54,9.18a15.86,15.86,0,0,1-1.87-3,77,77,0,0,1-2.33-8.14,20.61,20.61,0,0,0-4.37-8.78c-1.52-1.84-3.1-3.64-4.68-5.43a26.17,26.17,0,0,0-10.66-7.07c-3.57-1.34-7.2-2.52-10.84-3.64-4.68-1.43-9.4-2.73-14.11-4.07A7.41,7.41,0,0,0,453.56,186.7Z" />
        <path class="color-shadow" d="M330,191.49c.29-.71.73-.56,1.21-.23Z" />
        <path class="color-shadow" d="M327.55,191.72l1.21-.22Z" />
        <path class="color-shadow" d="M324,191.74h0Z" />
        <path class="color-shadow" d="M313.87,192.68l1.21-.22Z" />
        <path class="color-shadow" d="M310.28,192.71h0Z" />
        <path class="color-shadow" d="M317,192.44l1-.22Z" />
        <path class="color-shadow" d="M319.87,192.2l.73-.22Z" />
        <path class="color-shadow" d="M303.08,192.94h0Z" />
        <path class="color-shadow" d="M298.76,193.18h0Z" />
        <path class="color-shadow" d="M296.12,193.43h0Z" />
        <path class="color-shadow" d="M288,198c.08-.16.15-.32.23-.49C288.1,197.66,288,197.82,288,198Z" />
    </g>
</svg>
