<svg id="Nizy_classic" data-name="Nizy classic" xmlns="http://www.w3.org/2000/svg" viewBox="0 0 672 960">
    <g id="img_35" data-name="img 35">
        <g id="Kashkorse_img" data-name="Kashkorse img">
            <path class="outline"
                d="M449.48,427.18c1.5.15,3,.34,4.51.44,1.82.13,3.64.19,5.46.3a2,2,0,0,1,.59.23c-2.07,0-4.15.15-6.22.12-3.27,0-6.53-.29-9.79-.24-3.59.06-7.17.34-10.76.55-2.58.15-5.16.38-7.75.51a20.49,20.49,0,0,1-2.69-.23c1-.15,1.94-.39,2.93-.46,3.06-.2,6.13-.32,9.2-.5,2.45-.14,4.9-.31,7.34-.48.16,0,.31-.15.46-.23h6.72Z" />
            <path class="color-shadow"
                d="M422.83,428.86a20.49,20.49,0,0,0,2.69.23c2.59-.13,5.17-.36,7.75-.51,3.59-.21,7.17-.49,10.76-.55,3.26,0,6.52.2,9.79.24,2.07,0,4.15-.08,6.22-.12.76,0,1.51,0,2.27,0,1,.05,2,.17,3,.27l.45.23.78.06.07.05,0,.07.62.15,1,.09,1,.14,2.05.13h.42l.37.07,2.12.45.29.17c1.41.37,1.82,1.23,1.78,2.7-.06,2.37.18,4.75.31,7.13.15,2.68.33,5.36.5,8l-3.38.82c.05-.7-.2-1-.89-.63-1.26.08-2.52.21-3.78.23-3.3,0-6.61,0-9.91.06a4.19,4.19,0,0,0-.91-.18q-3.89,0-7.76,0a6.52,6.52,0,0,0-1.14.21l-1.2.08-2.89.15-2.87.08-6,.16h-2.66l-1.45-.1-2.62-.15-.5-.11-1.67-.1-3.36-.09-2.34-.23-.27-.06-1-.15-.5-.07-1.43-.14-.73-.12-3.35-.36-3.86-.06h-.68l-.72.08-.76.13-.26,0-.42,0-.48.05-3.59.15-1.69.09h-5.76c-5.43-.18-10.85-.41-16.27-.53-4.15-.08-8.3,0-12.45,0-1.11,0-2.23.15-3.34.2-4.75.24-9.5.53-14.25.68-3.94.12-7.91.28-11.84,0a81.64,81.64,0,0,0-9.65-.5c-1.82.1-2.87-1.35-2.69-3.25s.27-3.67.42-5.51.23-3.42.43-5.12c.23-1.88.49-2.05,2.46-2.11l8.62-.25h.21l7.9-.2,1.23,0h.65a2.12,2.12,0,0,1,2.56,0l2.85-.16,2.11-.12c3.09-.08,6.18-.14,9.27-.26,1.3-.05,2.6-.25,3.89-.38l.52,0,4.78,0,1,.11,1,.1.08.09.1,0,2.44.17,1.47.08,1.41.16.92.11c2.86.2,5.72.59,8.57.56,3.78,0,7.56-.4,11.34-.62h.79l6-.5h.24l1.87-.19.79,0L414,430l.73-.16,2.62-.26,1-.09,1.42-.35Zm-63.94,5.77v-.22c-1,0-2.08-.06-3.11,0-4.21.29-8.41.63-12.61.91-2.11.14-4.23.14-6.33.28a38.32,38.32,0,0,0-4.14.49,1.24,1.24,0,0,0-.78.8c-.33,1.83-.55,3.68-.84,5.51-.16,1,.11,1.38,1.15,1.32a15.44,15.44,0,0,1,1.65-.19c2.1.12,4.2.36,6.3.43,3.43.13,6.86.18,10.29.25,4.35.09,8.7.26,13,.22,5.3-.05,10.6-.3,15.9-.44,3.95-.11,7.9-.2,11.85-.24,8.79-.11,17.58-.14,26.37-.28,3.78-.05,7.57-.21,11.34-.46,4.8-.32,9.59-.85,14.38-1.16,4-.26,8-.41,11.95-.49,3.62-.08,7.24,0,10.86,0,2.19,0,4.38-.17,6.57-.23.72,0,1-.32,1-1,0-1.48.08-3,0-4.44a4.26,4.26,0,0,0-.84-1.69c-.4-.62-.95-1.14-1.3-1.78-.47-.85-.87-1.73-2-1.85a31.09,31.09,0,0,0-3.33-.25c-2.79,0-5.58.12-8.37.23-3.55.13-7.09.42-10.63.44-6.09,0-12.16.18-18.23.71-4.09.36-8.2.36-12.3.53q-2.28.11-4.53.27c-4.13.29-8.25.67-12.37.9-3.39.19-6.79.12-10.17.31-4.05.22-8.08.65-12.13.88-1.62.09-3.26-.21-4.89-.16-2.18.06-4.36.35-6.54.42C363.68,434.68,361.28,434.63,358.89,434.63Z" />
            <path class="outline"
                d="M345.76,431.05l-7.9.2a.5.5,0,0,0-.21,0l-8.62.25c-2,.06-2.23.23-2.46,2.11-.2,1.7-.3,3.41-.43,5.12s-.25,3.67-.42,5.51.87,3.35,2.69,3.25a81.64,81.64,0,0,1,9.65.5c3.93.24,7.9.08,11.84,0,4.75-.15,9.5-.44,14.25-.68,1.11,0,2.23-.19,3.34-.2,4.15,0,8.3-.08,12.45,0,5.42.12,10.84.35,16.27.53H402l1.69-.09,3.59-.15.48-.05.42,0,.26,0,.76-.13.72-.08h.68l3.86.06,3.35.36.73.12,1.43.14.5.07,1,.15.27.06,2.34.23,3.36.09,1.67.09.5.12,2.62.15,1.45.1h2.66c1.93,0,3.86.08,5.79.1.07,0,.15-.17.22-.26l2.87-.08,2.89-.15,1.2-.08a7.47,7.47,0,0,0,1.14.17q3.71,0,7.41,0a9.1,9.1,0,0,0,1.26-.18c3.3,0,6.61,0,9.91-.06,1.26,0,2.52-.15,3.78-.23l.89.63,3.38-.82c-.17-2.66-.35-5.34-.5-8-.13-2.38-.37-4.76-.31-7.13,0-1.47-.37-2.33-1.78-2.7l-.29-.17L472,429.4l-.37-.09a3.47,3.47,0,0,1,1-.41c1.14-.09,2.28-.1,3.41-.16a1.52,1.52,0,0,1,1.75,1.4c.18,1.88.19,3.79.27,5.68l0,.49.21,2.4.12.49.12,5.51.13,1.69.11.47.11.49v.93l-.33.75-.41.5-2,.42-3.83.08-.5-.06-1.18-.14a3.24,3.24,0,0,0-.94-.31q-10.32,0-20.63,0a3.23,3.23,0,0,0-1,.37l-1.67.07-3.13.14-6.71.1h-2.87l-.72-.06c-1.17-.74-2.39-.44-3.6-.18l-.72-.08-2.17-.15-5-.07-1-.17-1.9-.13-.74-.11-.47-.09-1.92-.4h-4.09a21.56,21.56,0,0,0-2.39-.19,8.56,8.56,0,0,0-1.7.35l-2.63.08c-.14-.07-.27-.2-.41-.2-2.85,0-5.71,0-8.56,0-.21,0-.42.24-.64.38l-7.17-.08-2.18-.1-2.14-.14-1.7-.1-1.42-.12-2.18-.12h-4.32l-5.52,0-.73.06-2.63.16-2.41.09-4.07.15-1.93.17-1.19.07-2.41.15-2.39.1-1.93.14-1.43.09c-1.44-.07-2.87-.18-4.3-.2-.8,0-1.61.13-2.41.2l-3.59-.14-.73-.1-1.67-.39L334,449h-7.2l-2.17-1.19-.62-1.47v-2.14c.76-1.41.42-2.87.18-4.32l.06-.72a6.26,6.26,0,0,0,.42-4.32l.17-.95.09-.49c.36-2.59.45-2.67,3-2.7,6.27-.07,12.53-.15,18.79-.19.31,0,1-.44.94.47H347Z" />
            <path class="outline"
                d="M410.78,430.11l-1.87.19h-.24l-6,.5h-.79c-3.78.22-7.56.59-11.34.62-2.85,0-5.71-.36-8.57-.56l-.92-.11-1.41-.16c0-.19,0-.39-.05-.59a42.51,42.51,0,0,0,4.75.5c5.09,0,10.19-.17,15.28-.32q4.51-.13,9-.41c2.88-.18,5.75-.43,8.63-.66v.46l-2.62.26L414,430l-2.4.07Z" />
            <path class="outline"
                d="M375.59,430.29l-1-.1-1-.11-4.78,0-.52,0c-1.29.13-2.59.33-3.89.38-3.09.12-6.18.18-9.27.26l-.47-.4c5.37-.47,10.74-1.07,16.12-1.35a41.28,41.28,0,0,1,6.78.71c.55.06,1.11.15,1.66.23l-1,.6-2.44-.17A.32.32,0,0,0,375.59,430.29Z" />
            <path class="outline"
                d="M448,449.9a3.23,3.23,0,0,1,1-.37q10.31,0,20.63,0a3.24,3.24,0,0,1,.94.31l-16.5.05Z" />
            <path class="outline" d="M395,449.2c.22-.14.43-.38.64-.38,2.85,0,5.71,0,8.56,0,.14,0,.27.13.41.2Z" />
            <path class="outline" d="M340.53,449.73c.8-.07,1.61-.21,2.41-.2,1.43,0,2.86.13,4.3.2Z" />
            <path class="outline" d="M324.22,439.91c.24,1.45.58,2.91-.18,4.32Z" />
            <path class="outline" d="M324.7,434.87a6.26,6.26,0,0,1-.42,4.32Z" />
            <path class="outline" d="M407.23,448.93a8.56,8.56,0,0,1,1.7-.35,21.56,21.56,0,0,1,2.39.19Z" />
            <path class="outline" d="M429.33,450c1.21-.26,2.43-.56,3.6.18Z" />
            <path class="outline" d="M443.23,450.11l3.13-.14Z" />
            <path class="outline" d="M326.84,449h0Z" />
            <path class="outline" d="M353.05,430.85l-2.85.16c.18-.18.34-.49.53-.51,1.14-.09,2.28-.11,3.42-.15Z" />
            <path class="outline" d="M433.65,450.21h0Z" />
            <path class="outline"
                d="M471.24,429.34l-2.05-.13,0-.58a16.77,16.77,0,0,1,1.74.14C471,428.79,471.13,429.14,471.24,429.34Z" />
            <path class="outline" d="M353,449.4l2.41-.15Z" />
            <path class="outline" d="M362.59,448.86l2.41-.09Z" />
            <path class="outline" d="M426.44,449.74l2.17.15Z" />
            <path class="outline" d="M373.88,448.53h0Z" />
            <path class="outline" d="M385.64,449l2.18.1Z" />
            <path class="outline" d="M378.2,448.54l2.18.12Z" />
            <path class="outline" d="M348.67,449.64l1.93-.14Z" />
            <path class="outline" d="M356.59,449.18l1.93-.17Z" />
            <path class="outline" d="M476.13,450l2-.42A1.44,1.44,0,0,1,476.13,450Z" />
            <path class="outline" d="M415.41,448.77l1.92.4Z" />
            <path class="outline" d="M378.21,430.52l1-.6.38.09c0,.2,0,.4.05.59Z" />
            <path class="outline" d="M478.65,446.4l-.13-1.69Z" />
            <path class="outline" d="M381.8,448.78l1.7.1Z" />
            <path class="outline" d="M353.05,430.85l1.1-.5.54,0,.47.4Z" />
            <path class="outline" d="M468.2,429.07l-1-.09-.62-.19,1.84-.21Z" />
            <path class="outline" d="M419.7,429.14l-1.42.35-.48-.39Z" />
            <path class="outline" d="M468.2,429.07l.26-.49.7.05,0,.58Z" />
            <path class="outline" d="M324.05,446.37l.62,1.47Z" />
            <path class="outline" d="M420.44,449.5l1,.17Z" />
            <path class="outline" d="M417.8,429.1l.48.39-1,.09v-.46Z" />
            <path class="outline" d="M417.8,449.26l.74.11Z" />
            <path class="outline" d="M367.63,448.61l.73-.06Z" />
            <path class="outline" d="M336.21,449.49l.73.1Z" />
            <path class="outline" d="M478.53,449l.33-.75Z" />
            <path class="outline" d="M478.07,436.31l0-.49Z" />
            <path class="outline" d="M478.4,439.2l-.12-.49Z" />
            <path class="outline" d="M334,449l.5.08Z" />
            <path class="outline" d="M325,433.43l-.09.49Z" />
            <path class="outline" d="M478.87,447.36l-.11-.49Z" />
            <path class="outline" d="M471.8,450l.5.06Z" />
            <path class="outline" d="M466.57,428.71l-.78-.06v-.25Z" />
            <path class="outline" d="M465.8,428.4v.25l-.45-.23Z" />
            <path class="outline" d="M466.62,428.79l.62.19-.62-.15Z" />
            <path class="outline" d="M471.66,429.31l.37.09-.37-.07Z" />
            <path class="color-base"
                d="M358.89,434.63c2.39,0,4.79.05,7.18,0,2.18-.07,4.36-.36,6.54-.42,1.63-.05,3.27.25,4.89.16,4.05-.23,8.08-.66,12.13-.88,3.38-.19,6.78-.12,10.17-.31,4.12-.23,8.24-.61,12.37-.9q2.25-.17,4.53-.27c4.1-.17,8.21-.17,12.3-.53,6.07-.53,12.14-.68,18.23-.71,3.54,0,7.08-.31,10.63-.44,2.79-.11,5.58-.2,8.37-.23a31.09,31.09,0,0,1,3.33.25c1.11.12,1.51,1,2,1.85.35.64.9,1.16,1.3,1.78a4.26,4.26,0,0,1,.84,1.69c.12,1.47,0,3,0,4.44,0,.7-.26,1-1,1-2.19.06-4.38.21-6.57.23-3.62,0-7.24,0-10.86,0-4,.08-8,.23-11.95.49-4.79.31-9.58.84-14.38,1.16-3.77.25-7.56.41-11.34.46-8.79.14-17.58.17-26.37.28-3.95,0-7.9.13-11.85.24-5.3.14-10.6.39-15.9.44-4.35,0-8.7-.13-13-.22-3.43-.07-6.86-.12-10.29-.25-2.1-.07-4.2-.31-6.3-.43a15.44,15.44,0,0,0-1.65.19c-1,.06-1.31-.3-1.15-1.32.29-1.83.51-3.68.84-5.51a1.24,1.24,0,0,1,.78-.8,38.32,38.32,0,0,1,4.14-.49c2.1-.14,4.22-.14,6.33-.28,4.2-.28,8.4-.62,12.61-.91,1-.07,2.08,0,3.11,0Z" />
            <path class="outline"
                d="M459.07,448.35a9.1,9.1,0,0,1-1.26.18q-3.71,0-7.41,0a7.47,7.47,0,0,1-1.14-.17,6.52,6.52,0,0,1,1.14-.21q3.87,0,7.76,0A4.19,4.19,0,0,1,459.07,448.35Z" />
            <path class="outline" d="M442.3,448.67c-.07.09-.15.26-.22.26-1.93,0-3.86-.06-5.79-.1Z" />
            <path class="outline" d="M400.52,447.61h0Z" />
            <path class="outline" d="M427.39,448.36l-3.36-.09Z" />
            <path class="outline" d="M414.43,447.14l-3.86-.06Z" />
            <path class="outline" d="M448.06,448.44l-2.89.15Z" />
            <path class="outline" d="M403.66,447.53l-1.69.09Z" />
            <path class="outline" d="M433.63,448.82l-1.45-.1Z" />
            <path class="outline" d="M473.65,448.69l-.89-.63C473.45,447.72,473.7,448,473.65,448.69Z" />
            <path class="outline" d="M418.51,447.62l-.73-.12Z" />
            <path class="outline" d="M409.89,447.07l-.72.08Z" />
            <path class="outline" d="M381.09,430.76l.92.11Z" />
            <path class="outline" d="M345.76,431.05l1.23,0Z" />
            <path class="outline" d="M429.56,448.57l-.5-.12Z" />
            <path class="outline" d="M373.62,430.08l1,.11Z" />
            <path class="outline" d="M407.73,447.33l-.48.05Z" />
            <path class="outline" d="M420.44,447.83l-.5-.07Z" />
            <path class="outline" d="M410.78,430.11l.79,0Z" />
            <path class="outline" d="M401.92,430.81h0Z" />
            <path class="outline" d="M414,430l.73-.16Z" />
            <path class="outline" d="M368.32,430.09l.52,0Z" />
            <path class="outline" d="M421.69,448l-.27-.06Z" />
            <path class="outline" d="M474.15,429.85l.29.17Z" />
            <path class="outline" d="M408.67,430.31h0Z" />
            <path class="outline" d="M337.65,431.26a.5.5,0,0,1,.21,0Z" />
            <path class="outline" d="M375.59,430.29a.32.32,0,0,1,.18.06l-.1,0Z" />
            <path class="outline" d="M408.41,447.28l-.26,0Z" />
        </g>
    </g>
</svg>
