<svg id="Nizy_classic" data-name="Nizy classic" xmlns="http://www.w3.org/2000/svg" viewBox="0 0 672 960">
    <g id="img_35" data-name="img 35">
        <g id="img_28_img" data-name="img 28 img">
            <path class="color-base"
                d="M326.12,418.78a12.76,12.76,0,0,0,.14,1.87,1.61,1.61,0,0,0,.66.85,25.63,25.63,0,0,0,9.52,3.7c2,.38,4,.45,6,.67.42.05.83.17,1.24.26l-1.08.14-5-.16-.57-.31-2.08-.55-.56-.17-2.1-.55-.54-.17c-1.13-.47-2.28-.89-3.37-1.44-1.33-.67-3-1-3.05-3,0,0,0-.06-.28-.31a19,19,0,0,0-.6,1.81c-.14.71-.19,1.45-.28,2.18a5.14,5.14,0,0,1,.49-4.09,3,3,0,0,0,.19-.7Z" />
            <path class="outline"
                d="M324.24,423.57c.09-.73.14-1.47.28-2.18a19,19,0,0,1,.6-1.81c.23.25.28.28.28.31,0,2,1.72,2.36,3.05,3,1.09.55,2.24,1,3.37,1.44l.54.17,2.1.55.56.17,2.08.55.57.31,5,.16,2,.14,1,.07c.32.66.65.63,1,0l2.36-.05a18.19,18.19,0,0,0,2.2.21,3.62,3.62,0,0,0,1.16-.42l.48-.05,7.36.12a2.44,2.44,0,0,0,.78.35c1.13,0,2.26,0,3.4,0,4.43.26,8.86.51,13.29.79q5.58.35,11.15.74c1.62.12,3.23.34,4.84.44,1.94.12,3.89.19,5.83.22,2.66,0,5.33,0,8,0a29.68,29.68,0,0,0,3-.36l3.85-.11c1.49,0,3,.14,4.46.05,4.77-.28,9.54-.63,14.31-1,.23,0,.45-.27.67-.42l.73-.09,1.18-.17.5-.05,0,.08.09,0c-.4.28-.78.76-1.21.81-4.3.52-8.59,1.19-12.9,1.39-6.58.3-13.18.28-19.78.34-3.51,0-7,.06-10.55-.11-3.66-.17-7.31-.62-11-.88-2.22-.15-4.46-.16-6.7-.28-5.61-.28-11.22-.63-16.84-.87-1.83-.07-3.67.18-5.5.17-4.16,0-8.31-.15-12.46-.17a18.15,18.15,0,0,1-9.16-2.38c-1.29-.74-2.7-1.27-4.07-1.9-.6,2.12-.21,2.85,1.86,3.36a59.54,59.54,0,0,0,17.27,2.18c3.71-.16,7.44-.12,11.15,0,4.14.17,8.28.56,12.41.88,2.43.18,4.85.41,7.27.65,3.25.31,6.5.93,9.75,1,9.11.06,18.22-.1,27.34-.2,1.19,0,2.38-.22,3.57-.34,3.45-.35,6.89-.73,10.35-1,7-.61,14.06-1.18,21.08-1.77a50.49,50.49,0,0,1,14.42.35,16.35,16.35,0,0,1,5.66,1.81,9,9,0,0,0,5.22,1.49c.87,0,.95-.68.95-1.24a1.42,1.42,0,0,0-.61-1.05q-2.73-1.37-5.54-2.56a10.77,10.77,0,0,0-2.84-.89c-2.14-.27-4.29-.35-6.43-.56a3.74,3.74,0,0,1-1.08-.46l2-.38.75-.06H466l.67.36.61.57,3.53,1.47.67.29.78.41.65.32,1.28.45h.71l1.21.44.06.23c0,.4-.07.79-.11,1.19a3.8,3.8,0,0,0-.44,3.15l0,.74h0c-.16,1.12-.33,2.24-.5,3.36,0,.71,0,1.42,0,2.14-.08,1.12-.15,2.25-.22,3.38l-.31.85-.38.39-3,.84-.89.07-2.5.62-.38.05-.81.19-.38.06-.83.18-2.3.08h-4.07l-4.66.17-2.07.07-2.14.11h-1.94l-1.68.16-.51.16-.46.08h-1.19l-.74.2-1.91.07-1.43,0-1.23.19v0l-1.39,0h-9.84L425,447l-2.69-.15-1.9,0-3.81-.12-.53-.17-.48.07-4.32-.14-3.35-.11-.49-.06-8.15-.18h-1.43l-1,0h-4.8l-1.21,0-6.95.18-1.71,0-6.21.21h-1.44l-.74,0a10.2,10.2,0,0,0-5.74.27l-.49.05c-.39,0-.78-.07-1.17-.06-8.3.22-16.6.56-24.85-.75-3.7-.59-7.41-1.11-10.76-3a24.81,24.81,0,0,0-4.49-1.93c-2.29-.76-3.15-2-2.74-4.4.14-.86.21-1.72.32-2.58l.05-.5c.06-3.19.13-6.38.19-9.57Zm103.42,7.59-1.21.14-.71.05-1.93.06-.49.09-1.66.12c-.59,0-1.18.05-1.76.12l-5.45.74-.95,0-4.11.1h-.45l-1.21.09-13.71,0a4,4,0,0,0-.87-.23c-3.16-.1-6.31-.09-9.46-.28-4.22-.26-8.43-.68-12.64-1-5.29-.4-10.58-.88-15.87-1.1-4.27-.18-8.56-.12-12.83,0a47.19,47.19,0,0,1-10.8-1.14c-2-.41-3.95-.84-6-1.28a8.79,8.79,0,0,0-.1.88c0,2.59,0,5.17,0,7.76a1.34,1.34,0,0,0,.41,1c1,.59,2,1.06,3.09,1.59l.81-1.25a4.74,4.74,0,0,1,.53,1.08c.22,1.44,1.34,2,2.45,2.56.74.39,1.11.16,1.16-.69s.18-1.59.28-2.38h.42c.17.83.38,1.65.5,2.49a2.34,2.34,0,0,0,2.09,2.24c3.61.62,7.21,1.31,10.82,1.91a1.26,1.26,0,0,0,1.07-.46c.53-.92.92-1.92,1.37-2.89l.1-.25,1-.49-.11,1L350,445.11c1.38.09,2.5.2,3.62.23,1.93.06,1.93,0,2.58-1.82l2.17-3,.86-.22-.74,2.4-1.14,2.57c2.2,0,4,0,5.76,0,2.51-.05,2.44.5,2.37-2.44,0-.24,0-.47.05-.71l.42-1.53a14.58,14.58,0,0,1,1.2,3.55c.17.77.53,1.15,1.3,1.08.61-.06,1.21-.19,1.88-.3a5.58,5.58,0,0,1-.38-1.3c0-.26.24-.53.37-.8a.15.15,0,0,0,.15.06c.54.87.7,2.13,2.1,2.13,2,0,4,0,6,0a10.22,10.22,0,0,0,1.29-.22l-1.08-2.23-.31-2.57.25-1.46.75,1.22,1.62,3.62c.56,1.46,1.39,1.9,3.08,1.41,1.09-.32.42-1.33.55-2a.53.53,0,0,0,0-.12l0-.49.7.12.52,1.34c0,.95.57,1.2,1.41,1.2,2.28,0,4.56,0,6.83,0a3.45,3.45,0,0,0,1.12-.46l1-1,.69-.11.77,1.53c1.12,0,2.24.11,3.35.07a1.6,1.6,0,0,0,1.08-.57c.56-.76,1-1.62,1.5-2.44l.38,0-.6,3.13h7.82l-.7-1.54.37-.34,1.47,1.28c.44,1.22,1.56,1.12,2.5,1.15,3.33.13,6.67.18,10,.27.47,0,.95.1,1.42.11h4.17l.15-.41-.95-1.69-.88-3-.23-1.44.53.08.66,1.18,2.48,4.29a1.57,1.57,0,0,0,1.74.95q2.2-.17,4.41-.24c1.11,0,2.21,0,3.41,0v-2.17l.21-2.85.49-.07,1.11,3.88c0,.93.65.74,1.16.71q5.52-.35,11-.74a4.31,4.31,0,0,0,.92-.28c-.25-.91-.47-1.74-.7-2.57v-.71l.5,0,1,1.46a4.6,4.6,0,0,0,5.87,1.55L462,441.08c-.15-.85-.37-1.7-.44-2.56a3.69,3.69,0,0,1,.34-1.2l.17.23c.29.78.58,1.57.86,2.35.35,1.12.67,2.25,1,3.35a.8.8,0,0,0,.64.44c1.58-.33,3.15-.69,4.7-1.13.2-.05.36-.6.36-.92a10.91,10.91,0,0,0-.27-1.6l.44-.24a12.14,12.14,0,0,0,.86,1.14c1,1.08,1.67.93,2-.56s.54-3.29.78-4.94c.11-.8.17-1.6.28-2.64-1.86.73-3.2,0-4.55-.69-.73-.39-1.49-.73-2.23-1.1l-.36-.09-3.74-1.29-.46-.09-.5-.15-.46-.07-1-.19-.46-.05-1.22-.17-1.42-.07H453.8l-.71,0-2.65.23-.94.08-1.45.17-1.2.08c-1.24.08-2.49.12-3.74.24-.76.08-1.51.27-2.26.41l-.71.06-1,.16-.93.1-1,.16-.47,0-1.69.19-1.18.08-2.42.17-.95,0-2.43.05Z" />
            <path class="color-base"
                d="M410.35,428.48a29.68,29.68,0,0,1-3,.36c-2.66,0-5.33,0-8,0-1.94,0-3.89-.1-5.83-.22-1.61-.1-3.22-.32-4.84-.44q-5.57-.39-11.15-.74c-4.43-.28-8.86-.53-13.29-.79l0-.44c2.62.06,5.25,0,7.87.19,4.62.3,9.23.88,13.85,1.09,7.87.35,15.74.51,23.6.77A2.92,2.92,0,0,1,410.35,428.48Z" />
            <path class="color-base"
                d="M324,434.15c-.11.86-.18,1.72-.32,2.58-.41,2.38.45,3.64,2.74,4.4a24.81,24.81,0,0,1,4.49,1.93c3.35,1.91,7.06,2.43,10.76,3,8.25,1.31,16.55,1,24.85.75.39,0,.78,0,1.17.06a2.19,2.19,0,0,1-.8.33c-5,0-10-.09-15.07.13a62.92,62.92,0,0,1-12.35-1.12,23.73,23.73,0,0,1-9.38-3.06,19.28,19.28,0,0,0-4.28-1.8,3.43,3.43,0,0,1-2.64-3.85A25.1,25.1,0,0,1,324,434.15Z" />
            <path class="color-base"
                d="M459.8,424.14l-2,.38c-.55,0-1.12,0-1.67.06L446,425.72l-9.82,1.09-.09,0,0-.08a9.62,9.62,0,0,1,1.83-.56q10.35-1.14,20.7-2.19A4.74,4.74,0,0,1,459.8,424.14Z" />
            <path class="color-base"
                d="M433.64,427c-.22.15-.44.4-.67.42-4.77.35-9.54.7-14.31,1-1.48.09-3,0-4.46-.05a3.7,3.7,0,0,1,.92-.31q8.89-.63,17.77-1.22A2.93,2.93,0,0,1,433.64,427Z" />
            <path class="color-base"
                d="M324.19,424.08c-.06,3.19-.13,6.38-.19,9.57a3.87,3.87,0,0,1-.2-.88c0-2.52,0-5,.05-7.55A4.8,4.8,0,0,1,324.19,424.08Z" />
            <path class="color-base"
                d="M427.89,447.12h8.38c-.22.11-.44.32-.67.32-2.38,0-4.77,0-7.16,0C428.26,447.43,428.07,447.23,427.89,447.12Z" />
            <path class="color-base" d="M399.32,446.17l8.15.18c-2.05,0-4.1.12-6.15.12A13.8,13.8,0,0,1,399.32,446.17Z" />
            <path class="color-base"
                d="M360.12,426.31l-7.36-.12c.19-.1.38-.29.57-.29,2.22,0,4.44,0,6.66,0a1.43,1.43,0,0,1,.53.22Z" />
            <path class="color-base" d="M384,446.35l6.95-.18c0,.07-.07.2-.11.2Z" />
            <path class="color-base" d="M376.05,446.59l6.21-.21c0,.07-.06.21-.09.21Z" />
            <path class="color-base" d="M368.13,446.84a10.2,10.2,0,0,1,5.74-.27Z" />
            <path class="color-base"
                d="M466,424.07h-5.47c.22-.12.43-.34.64-.35,1.4,0,2.8,0,4.2,0C465.6,423.72,465.81,424,466,424.07Z" />
            <path class="color-shadow-dark" d="M454.43,446l4.66-.17v.27l-2.84.05Z" />
            <path class="color-base" d="M345.56,426.48l-1-.07v-.24l4.34,0a1.93,1.93,0,0,0,0,.24l-2.36.05Z" />
            <path class="color-base" d="M467.48,445.38l.38-.05,2.5-.62.89-.07.84.12-4.61.89Z" />
            <path class="color-shadow-dark"
                d="M360.12,426.31l.4-.18,3.76.08,0,.44c-1.14,0-2.27,0-3.4,0A2.44,2.44,0,0,1,360.12,426.31Z" />
            <path class="color-base" d="M454.43,446l1.81.15-3.88.19v-.27Z" />
            <path class="color-base" d="M466.29,445.63l.38-.06.38.16c-1.22.79-2.56.59-3.89.4v-.24l2.3-.08Z" />
            <path class="color-shadow-dark" d="M470.83,426.47,467.3,425l.32-.13.8.4,1.25.44.7.3Z" />
            <path class="color-base" d="M408,446.41l3.35.11Z" />
            <path class="color-shadow-dark"
                d="M348.92,426.45a1.93,1.93,0,0,1,0-.24l3.35,0a3.62,3.62,0,0,1-1.16.42A18.19,18.19,0,0,1,348.92,426.45Z" />
            <path class="color-shadow-dark" d="M474.93,442.56c.07-1.13.14-2.26.22-3.38h.23c0,.89,0,1.77,0,2.66Z" />
            <path class="color-shadow-dark"
                d="M475.14,437c.17-1.12.34-2.24.5-3.36,0,.4,0,.8,0,1.2l-.13.8c0,.45-.07.9-.11,1.35A1,1,0,0,0,475.14,437Z" />
            <path class="color-shadow-dark"
                d="M475.64,432.94a3.8,3.8,0,0,1,.44-3.15c0,.27.07.55.11.83l-.1.66-.13.79-.09.88Z" />
            <path class="color-shadow-dark" d="M472.09,444.76l-.84-.12,3-.84-.29.43-1.42.46Z" />
            <path class="color-shadow-dark" d="M422.35,446.86,425,447l-2.68.08A1.85,1.85,0,0,0,422.35,446.86Z" />
            <path class="color-base" d="M475.14,437a1,1,0,0,1,.24,0v2.15h-.23Z" />
            <path class="color-shadow-dark" d="M452.36,446.11v.27l-1.63.05-.51-.21Z" />
            <path class="color-base" d="M459.08,446.14v-.27h2.15v.26Z" />
            <path class="color-shadow-dark" d="M344.59,426.17v.24l-2-.14,1.08-.14Z" />
            <path class="color-base" d="M476.19,430.62c0-.28-.07-.56-.11-.83s.07-.79.11-1.19Z" />
            <path class="color-base" d="M446.6,446.38l1.68-.16c0,.08,0,.16,0,.23l-1.7.17Z" />
            <path class="color-base" d="M422.35,446.86a1.85,1.85,0,0,1,0,.23l-1.91-.21Z" />
            <path class="color-shadow-dark" d="M461.24,446.14v-.26h1.92v.24Z" />
            <path class="color-base" d="M474.93,442.56l.44-.72-.75,1.57Z" />
            <path class="color-base" d="M474.92,427.93h-.71v-.26l1.72-.05Z" />
            <path class="color-base" d="M437.73,447.12l1.39,0Z" />
            <path class="color-shadow-dark" d="M448.3,446.45c0-.07,0-.15,0-.23h1.44c0,.08,0,.15,0,.23Z" />
            <path class="color-base" d="M435.55,426.76l-1.18.17Z" />
            <path class="color-shadow-dark" d="M474.92,427.93l1-.3.21.74Z" />
            <path class="color-base" d="M440.36,446.85l1.43,0-1.43.21Z" />
            <path class="color-base" d="M470.83,426.47l-.46-.46,1.47.66-.34.09Z" />
            <path class="color-base" d="M472.53,444.69l1.42-.46Z" />
            <path class="color-shadow-dark" d="M440.36,446.85v.24l-1.23,0Z" />
            <path class="color-base" d="M449.71,446.44c0-.08,0-.15,0-.23h.5l.51.21Z" />
            <path class="color-base" d="M472.93,427.49l-.65-.32-.23-.4,1.22.62Z" />
            <path class="color-base" d="M444.44,446.61h1.19l-1.19.24Z" />
            <path class="color-base" d="M469.67,425.71l-1.25-.44Z" />
            <path class="color-shadow-dark" d="M472.93,427.49l.34-.1.93.29v.26Z" />
            <path class="color-base" d="M392.13,446.15h0Z" />
            <path class="color-base" d="M396.93,446.16l1,0Z" />
            <path class="color-base" d="M467.62,424.87l-.32.13-.61-.57Z" />
            <path class="color-base" d="M374.61,446.59h0Z" />
            <path class="color-base" d="M476,432.07l.13-.79Z" />
            <path class="color-shadow-dark" d="M444.44,446.61v.25l-.74-.05Z" />
            <path class="color-base" d="M475.49,435.68l.13-.8Z" />
            <path class="color-base" d="M475.64,432.94h.23l-.19.73Z" />
            <path class="color-shadow-dark" d="M467.05,445.73l-.38-.16.81-.19v.27Z" />
            <path class="color-shadow-dark" d="M472.05,426.77l.23.4-.78-.41.34-.09A.3.3,0,0,1,472.05,426.77Z" />
            <path class="color-shadow-dark" d="M446.6,446.38v.24l-.51-.08Z" />
            <path class="color-shadow-dark" d="M416.11,446.59l.53.17-.52.07A1.93,1.93,0,0,0,416.11,446.59Z" />
            <path class="color-base" d="M416.11,446.59a1.93,1.93,0,0,1,0,.24l-.49-.17Z" />
            <path class="color-shadow-dark" d="M337.67,426.11l-.57-.31Z" />
            <path class="color-shadow-dark" d="M335,425.25l-.56-.17Z" />
            <path class="color-shadow-dark" d="M332.36,424.53l-.54-.17Z" />
            <path class="color-base"
                d="M438.23,430.41l.93-.1,1-.16.71-.06h2.63c.62.3,1.22.51,1.71-.21l1.66,0c.75.22,1.53.58,2.17-.24h.46l1-.23a7.89,7.89,0,0,0,1.38-.06,7.6,7.6,0,0,0,1.26-.45l.71,0h3.61l1.42.07,1.22.17.46.05,1,.19.46.07.5.15.46.09,3.74,1.29.36.09c.07.17.15.34.22.5l.26,1.19v1.2c-.16.82.44,1.93-.85,2.32-1.5.46-3,.89-4.54,1.33l-.17-.23-.69-1c-.39,1.46-.57,1.52-2.09,1.7-3.81.47-7.61,1-11.43,1.48-1.93.22-3.87.25-5.81.37h0c-1.52.19-3,.48-4.56.54-2.56.1-5.12,0-7.69.05l-.66-1.18a9,9,0,0,0-.51-.75,3.41,3.41,0,0,0-.35.2l.33.47c.08.48.16,1,.23,1.44-3.93-.08-7.87-.27-11.8-.19-3.12.07-6.24.44-9.35.72-1.22.11-2.42.36-3.63.54l-.38,0-5.22-.59h-.72c-.13-.07-.27-.2-.41-.21-4.68-.26-9.37-.48-14.05-.76-1.26-.07-2.52-.31-3.77-.47l-.75-1.22c-.11.63-.18,1-.25,1.46l-12.2-.24h-.73c-1.75-.09-3.5-.09-5.23-.29-3.7-.41-7.41-.77-11.07-1.42-3.5-.63-6.95-1.59-10.41-2.46a5.28,5.28,0,0,1-1.34-.85l.06-.37a17,17,0,0,0,1.89-.14c1-.19,2.05-.46,3.07-.7h.47c.62.3,1.23.56,1.69-.24h4.07l2.16-.23h.71l1.21-.23h.48l1.2-.24h.71l1.21-.23h.71l1.46-.46h.71a4.85,4.85,0,0,0,1.11.22c1.79,0,3.58-.13,5.37-.21h.71c.81.86,1.74.46,2.65.23a106,106,0,0,1,12.71.64c3.9.42,7.86.24,11.8.31a1.29,1.29,0,0,0,.43-.17l13.71,0,1.19.23.48,0c1.05,0,2.11,0,3.16,0a3.2,3.2,0,0,0,.94-.41l.95,0a6.43,6.43,0,0,0,1.36.22c1.22,0,2.45-.15,3.67-.24l1.23-.44h.94c1.3,0,2.6-.07,3.89-.15.08,0,.13-.33.2-.51l.71-.05,1.19.23h.48l2.42-.45.95,0,2.42-.17,1.18-.08c.6.32,1.2.52,1.69-.19l.47,0Z" />
            <path class="color-shadow-dark"
                d="M436.16,426.81l9.82-1.09,10.17-1.14c.55-.06,1.12,0,1.67-.06a3.74,3.74,0,0,0,1.08.46c2.14.21,4.29.29,6.43.56a10.77,10.77,0,0,1,2.84.89q2.81,1.2,5.54,2.56a1.42,1.42,0,0,1,.61,1.05c0,.56-.08,1.25-.95,1.24a9,9,0,0,1-5.22-1.49,16.35,16.35,0,0,0-5.66-1.81,50.49,50.49,0,0,0-14.42-.35c-7,.59-14.05,1.16-21.08,1.77-3.46.31-6.9.69-10.35,1-1.19.12-2.38.32-3.57.34-9.12.1-18.23.26-27.34.2-3.25,0-6.5-.64-9.75-1-2.42-.24-4.84-.47-7.27-.65-4.13-.32-8.27-.71-12.41-.88-3.71-.15-7.44-.19-11.15,0a59.54,59.54,0,0,1-17.27-2.18c-2.07-.51-2.46-1.24-1.86-3.36,1.37.63,2.78,1.16,4.07,1.9a18.15,18.15,0,0,0,9.16,2.38c4.15,0,8.3.15,12.46.17,1.83,0,3.67-.24,5.5-.17,5.62.24,11.23.59,16.84.87,2.24.12,4.48.13,6.7.28,3.66.26,7.31.71,11,.88,3.51.17,7,.14,10.55.11,6.6-.06,13.2,0,19.78-.34,4.31-.2,8.6-.87,12.9-1.39C435.38,427.57,435.76,427.09,436.16,426.81Z" />
            <path class="color-shadow-dark"
                d="M357.07,432.21h-.71c-.48-.33-.93-.49-1.21.23h-.71c-.48-.32-.93-.49-1.2.24h-.48c-.48-.32-.93-.49-1.21.23h-.71c-.76-.24-1.53-.63-2.16.23h-4.07l-1.69.24h-.47c-1.51.08-3,.15-4.52.24a30.59,30.59,0,0,1-4.05.19c-1.41-.12-2.78-.62-4.19-.86a2.63,2.63,0,0,0-1.42.2c0,.65-.13,1.65.25,1.92,1.56,1.12,3.28,2,4.91,3l1-1.57.34.06a13,13,0,0,0,.51,1.64,1.85,1.85,0,0,0,.79.92,26.55,26.55,0,0,0,3,1c2.4.69,4.84,1.25,7.19,2.05,1.6.55,3,1,4.22-.65-.45,1-.84,2-1.37,2.89a1.26,1.26,0,0,1-1.07.46c-3.61-.6-7.21-1.29-10.82-1.91a2.34,2.34,0,0,1-2.09-2.24c-.12-.84-.33-1.66-.5-2.49h-.42c-.1.79-.23,1.58-.28,2.38s-.42,1.08-1.16.69c-1.11-.57-2.23-1.12-2.45-2.56a4.74,4.74,0,0,0-.53-1.08L329,439c-1.06-.53-2.11-1-3.09-1.59a1.34,1.34,0,0,1-.41-1c0-2.59,0-5.17,0-7.76a8.79,8.79,0,0,1,.1-.88c2,.44,4,.87,6,1.28a47.19,47.19,0,0,0,10.8,1.14c4.27-.11,8.56-.17,12.83,0,5.29.22,10.58.7,15.87,1.1,4.21.32,8.42.74,12.64,1,3.15.19,6.3.18,9.46.28a4,4,0,0,1,.87.23,1.29,1.29,0,0,1-.43.17c-3.94-.07-7.9.11-11.8-.31a106,106,0,0,0-12.71-.64l-2.65-.23h-.71a15.9,15.9,0,0,0-2.05-.24c-1.48,0-2.95.15-4.43.23h-.71Z" />
            <path class="color-shadow"
                d="M350.5,441.58c-1.19,1.63-2.62,1.2-4.22.65-2.35-.8-4.79-1.36-7.19-2.05a26.55,26.55,0,0,1-3-1,1.85,1.85,0,0,1-.79-.92,13,13,0,0,1-.51-1.64l-.34-.06-1,1.57c-1.63-1-3.35-1.85-4.91-3-.38-.27-.29-1.27-.25-1.92a2.63,2.63,0,0,1,1.42-.2c1.41.24,2.78.74,4.19.86a30.59,30.59,0,0,0,4.05-.19c1.5-.09,3-.16,4.52-.24-1,.24-2,.51-3.07.7a17,17,0,0,1-1.89.14l-.06.37a5.28,5.28,0,0,0,1.34.85c3.46.87,6.91,1.83,10.41,2.46,3.66.65,7.37,1,11.07,1.42,1.73.2,3.48.2,5.23.29,0,.8,0,1.61,0,2.41,0,.24,0,.47-.05.71-.27.15-.53.42-.81.44-1.78.12-3.56.23-5.34.24-.28,0-.56-.52-.84-.8.25-.8.49-1.6.74-2.4l-.48-.57-.38.79c-.73,1-1.45,2-2.17,3l-4.46-.37-.2-1.35c0-.32.07-.64.11-1s.05-.6.07-.9l-.42-.11-.66,1.5Z" />
            <path class="color-shadow"
                d="M441.92,439.84c1.94-.12,3.88-.15,5.81-.37,3.82-.44,7.62-1,11.43-1.48,1.52-.18,1.7-.24,2.09-1.7l.69,1a3.69,3.69,0,0,0-.34,1.2c.07.86.29,1.71.44,2.56a6,6,0,0,1-4.58,1l-1-1.46-.52-.39,0,.43c0,.23,0,.47,0,.71s-.25.35-.23.51c.12,1-.27,1.39-1.3,1.5-2,.21-4,.66-6.07.84-1.6.14-3.21,0-4.82,0l-1.11-3.88-.49.07-.21,2.85c-.1.05-.3.1-.3.16,0,1.64-1.24,1.53-2.32,1.51-2.32,0-4.63-.14-6.94-.21l-2.48-4.29c2.57,0,5.13.05,7.69-.05,1.53-.06,3-.35,4.56-.54Z" />
            <path class="color-shadow"
                d="M404,441.68c1.21-.18,2.41-.43,3.63-.54,3.11-.28,6.23-.65,9.35-.72,3.93-.08,7.87.11,11.8.19.29,1,.59,2,.88,3,0,.68-.38.84-1,.84-3,0-6,0-9.06,0a16.33,16.33,0,0,1-2.1,0c-1.71-.23-3.47.87-5.13-.22l-1.47-1.28-.6-.27.23.61.7,1.54h-7.82Z" />
            <path class="color-shadow-dark"
                d="M467.5,433.9c0-.4,0-.8,0-1.2s-.17-.79-.26-1.19c-.07-.16-.15-.33-.22-.5.74.37,1.5.71,2.23,1.1,1.35.72,2.69,1.42,4.55.69-.11,1-.17,1.84-.28,2.64-.24,1.65-.44,3.31-.78,4.94s-.94,1.64-2,.56a12.14,12.14,0,0,1-.86-1.14l-.44.24a10.91,10.91,0,0,1,.27,1.6c0,.32-.16.87-.36.92-1.55.44-3.12.8-4.7,1.13a.8.8,0,0,1-.64-.44c-.38-1.1-.7-2.23-1-3.35.49.32,1,.9,1.47.9a7.28,7.28,0,0,0,2.75-.57,1.79,1.79,0,0,0,1-1.27,41.66,41.66,0,0,0-.22-4.6C467.92,434.2,467.65,434.05,467.5,433.9Z" />
            <path class="color-shadow"
                d="M379.41,439.66c1.25.16,2.51.4,3.77.47,4.68.28,9.37.5,14.05.76.14,0,.28.14.41.21l-1.45,2.12-1,1-9.36-.71c-.17-.45-.35-.89-.52-1.34l-.57-.79-.13.67c0,.16,0,.33,0,.49l-.61.74h-3Z" />
            <path class="color-shadow"
                d="M366.21,439.66l12.2.24c.11.86.21,1.71.31,2.57-.37.18-.74.53-1.11.53-2.39,0-4.79-.1-7.18-.17a.15.15,0,0,1-.15-.06l-.62-.91a3.65,3.65,0,0,1-.61.63A2.16,2.16,0,0,1,368,443a1.2,1.2,0,0,1-.82-.65C366.79,441.46,366.52,440.55,366.21,439.66Z" />
            <path class="color-shadow"
                d="M467.5,433.9c.15.15.42.3.43.46a41.66,41.66,0,0,1,.22,4.6,1.79,1.79,0,0,1-1,1.27,7.28,7.28,0,0,1-2.75.57c-.49,0-1-.58-1.47-.9-.28-.78-.57-1.57-.86-2.35,1.52-.44,3-.87,4.54-1.33C467.94,435.83,467.34,434.72,467.5,433.9Z" />
            <path class="color-shadow-dark"
                d="M412.32,444.21c1.66,1.09,3.42,0,5.13.22a16.33,16.33,0,0,0,2.1,0c3,0,6,0,9.06,0,.63,0,1-.16,1-.84l.95,1.69-.15.41h-4.17c-.47,0-.95-.1-1.42-.11-3.34-.09-6.68-.14-10-.27C413.88,445.33,412.76,445.43,412.32,444.21Z" />
            <path class="color-shadow-dark"
                d="M370.43,442.83c2.39.07,4.79.16,7.18.17.37,0,.74-.35,1.11-.53.34.68.67,1.37,1.08,2.23a10.22,10.22,0,0,1-1.29.22c-2,0-4,.05-6,0C371.13,445,371,443.7,370.43,442.83Z" />
            <path class="color-shadow"
                d="M398.36,441.11l5.22.59c-.49.82-.94,1.68-1.5,2.44a1.6,1.6,0,0,1-1.08.57c-1.11,0-2.23,0-3.35-.07a10.8,10.8,0,0,1,.11-1.13C397.94,442.71,398.16,441.91,398.36,441.11Z" />
            <path class="color-shadow-dark"
                d="M358.45,442.66c.28.28.56.8.84.8,1.78,0,3.56-.12,5.34-.24.28,0,.54-.29.81-.44.07,2.94.14,2.39-2.37,2.44-1.78,0-3.56,0-5.76,0Z" />
            <path class="color-shadow-dark"
                d="M351.5,441.8l.2,1.35,4.46.37c-.65,1.86-.65,1.88-2.58,1.82-1.12,0-2.24-.14-3.62-.23Z" />
            <path class="color-shadow-dark"
                d="M457.46,442.05a6,6,0,0,0,4.58-1l1.29,2.52A4.6,4.6,0,0,1,457.46,442.05Z" />
            <path class="color-shadow-dark"
                d="M366.21,439.66c.31.89.58,1.8,1,2.67a1.2,1.2,0,0,0,.82.65,2.16,2.16,0,0,0,1.07-.49,3.65,3.65,0,0,0,.61-.63l.62.91c-.13.27-.38.54-.37.8a5.58,5.58,0,0,0,.38,1.3c-.67.11-1.27.24-1.88.3-.77.07-1.13-.31-1.3-1.08a14.58,14.58,0,0,0-1.2-3.55l-.42,1.53c0-.8,0-1.61,0-2.41Z" />
            <path class="color-shadow-dark"
                d="M443.55,444.22c1.61,0,3.22.11,4.82,0,2-.18,4-.63,6.07-.84,1-.11,1.42-.5,1.3-1.5,0-.16.15-.34.23-.51.23.83.45,1.66.7,2.57a4.31,4.31,0,0,1-.92.28q-5.52.39-11,.74C444.2,445,443.51,445.15,443.55,444.22Z" />
            <path class="color-shadow-dark"
                d="M432.18,444.72c2.31.07,4.62.17,6.94.21,1.08,0,2.29.13,2.32-1.51,0-.06.2-.11.3-.16v2.17c-1.2,0-2.3,0-3.41,0q-2.2.07-4.41.24A1.57,1.57,0,0,1,432.18,444.72Z" />
            <path class="color-shadow-dark"
                d="M385.87,443.51l9.36.71a3.45,3.45,0,0,1-1.12.46c-2.27,0-4.55,0-6.83,0C386.44,444.71,385.87,444.46,385.87,443.51Z" />
            <path class="color-shadow-dark"
                d="M381,443.28h3l.61-.74a.53.53,0,0,1,0,.12c-.13.7.54,1.71-.55,2C382.42,445.18,381.59,444.74,381,443.28Z" />
            <path class="color-shadow-dark"
                d="M398.36,441.11c-.2.8-.42,1.6-.6,2.4a10.8,10.8,0,0,0-.11,1.13c-.23-.46-.47-.92-.77-1.53l-.69.11,1.45-2.12Z" />
            <path class="color-shadow-dark"
                d="M419.48,432.46c-1.22.09-2.45.2-3.67.24a6.43,6.43,0,0,1-1.36-.22l5.45-.74c.58-.07,1.17-.08,1.76-.12V432h-.94Z" />
            <path class="color-shadow"
                d="M421.65,432v-.39l1.66-.12.49-.09,1.93-.06c-.07.18-.12.51-.2.51C424.25,431.94,423,432,421.65,432Z" />
            <path class="color-shadow-dark"
                d="M443.48,430.08h-2.63c.75-.14,1.5-.33,2.26-.41,1.25-.12,2.5-.16,3.74-.24v.41l-1.66,0Z" />
            <path class="color-shadow-dark" d="M413.5,432.53a3.2,3.2,0,0,1-.94.41c-1.05.06-2.11,0-3.16,0v-.35Z" />
            <path class="color-shadow-dark" d="M457.41,428.84h0Z" />
            <path class="color-shadow-dark" d="M466.65,430.92l-3.74-1.29Z" />
            <path class="color-shadow"
                d="M446.85,429.85v-.41l1.2-.08,1,.26C448.38,430.43,447.6,430.07,446.85,429.85Z" />
            <path class="color-shadow-dark" d="M453.09,428.88a7.6,7.6,0,0,1-1.26.45,7.89,7.89,0,0,1-1.38.06v-.28Z" />
            <path class="color-shadow-dark" d="M430.54,431.09l-2.42.45c0-.13,0-.26,0-.39Z" />
            <path class="color-shadow-dark" d="M433.91,430.88l-2.42.17Z" />
            <path class="color-shadow-dark" d="M470.36,444.71l-2.5.62Z" />
            <path class="color-shadow-dark" d="M350.6,441.33l.66-1.5.42.11c0,.3-.05.6-.07.9Z" />
            <path class="color-shadow-dark" d="M436.78,430.61c-.49.71-1.09.51-1.69.19Z" />
            <path class="color-shadow" d="M450.44,429.11v.28l-1,.23,0-.43Z" />
            <path class="color-shadow-dark" d="M449.5,429.19l0,.43H449l-1-.25Z" />
            <path class="color-shadow-dark" d="M384.65,442.05l.13-.67.57.79Z" />
            <path class="color-shadow-dark" d="M428.51,439.17l-.33-.47a3.41,3.41,0,0,1,.35-.2,9,9,0,0,1,.51.75Z" />
            <path class="color-shadow-dark" d="M358.33,440.48l.38-.79.48.57Z" />
            <path class="color-shadow-dark" d="M408.92,433l-1.19-.23,1.21-.09Z" />
            <path class="color-shadow-dark" d="M427.64,431.53l-1.19-.23,1.21-.14Z" />
            <path class="color-shadow-dark" d="M460.05,429.08l-1.22-.17Z" />
            <path class="color-shadow-dark" d="M438.23,430.41l-1,.16Z" />
            <path class="color-shadow-dark" d="M461.49,429.32l-1-.19Z" />
            <path class="color-shadow-dark" d="M410.48,443.27l-.23-.61.6.27Z" />
            <path class="color-shadow-dark" d="M440.14,430.15l-1,.16Z" />
            <path class="color-shadow-dark" d="M345.56,426.48l1,0C346.21,427.11,345.88,427.14,345.56,426.48Z" />
            <path class="color-shadow" d="M427.64,431.53l0-.37.45,0v.4Z" />
            <path class="color-shadow" d="M408.92,433l0-.32h.45V433Z" />
            <path class="color-shadow-dark" d="M456,440.63l0-.43.52.39Z" />
            <path class="color-shadow-dark" d="M466.29,445.63l-.83.18Z" />
            <path class="color-shadow-dark" d="M423.81,431.41l-.49.09Z" />
            <path class="color-shadow-dark" d="M462.45,429.54l-.5-.15Z" />
            <path class="color-shadow"
                d="M359.24,431.75c1.48-.08,2.95-.2,4.43-.23a15.9,15.9,0,0,1,2.05.24c-1.79.08-3.58.17-5.37.21A4.85,4.85,0,0,1,359.24,431.75Z" />
            <path class="color-shadow" d="M366.43,431.77l2.65.23C368.17,432.23,367.24,432.63,366.43,431.77Z" />
            <path class="color-shadow" d="M348.68,433.17c.63-.86,1.4-.47,2.16-.23Z" />
            <path class="color-shadow" d="M345.08,433.19h0Z" />
            <path class="color-shadow" d="M342.92,433.43l1.69-.24C344.15,434,343.54,433.73,342.92,433.43Z" />
            <path class="color-shadow" d="M443.48,430.08l1.71-.21C444.7,430.59,444.1,430.38,443.48,430.08Z" />
            <path class="color-shadow" d="M357.07,432.21l1.46-.46Z" />
            <path class="color-shadow" d="M419.48,432.46l1.23-.44Z" />
            <path class="color-shadow" d="M355.15,432.45c.28-.72.73-.56,1.21-.23Z" />
            <path class="color-shadow" d="M351.55,432.93c.28-.72.73-.55,1.21-.23Z" />
            <path class="color-shadow" d="M353.24,432.7c.27-.73.72-.56,1.2-.24Z" />
            <path class="color-shadow"
                d="M467.23,431.51c.09.4.17.8.26,1.19C467.4,432.31,467.32,431.91,467.23,431.51Z" />
            <path class="outline" d="M441.92,439.84h0Z" />
        </g>
    </g>
</svg>
