<svg id="Nizy_classic" data-name="Nizy classic" xmlns="http://www.w3.org/2000/svg" viewBox="0 0 672 960">
    <g id="img_35" data-name="img 35">
        <g id="img_34_img" data-name="img 34 img">
            <path class="transparent" d="M411.73,414.22h-.3V417h.3Z" />
            <path class="transparent"
                d="M408.68,476.87h-86.4V436.55l1,.46.94.76.73.2.9.08,1,.13.68.1,2.24.69.69.24.72.19.44.07,1.48.17h5.07l1.53-.11,4.94-.14,1.27-.18.9-.09.71,0,.95-.18.45-.08,1.24,0,1.19-.18.51-.07h2.62l1-.16,4.75-.18,2.93-.06c2.27-.08,4.54-.26,6.8-.21,4.61.1,9.23.31,13.84.48h7l-1.23,2.1-.24.28-.37.49-3.29,5.93-.13.49-.11.47-.11.72v1.46l.09.5c.81,2.1,2.37,2.82,4.31,1.65a25.85,25.85,0,0,0,3.63-3.18l.39-.5.34-.45.36-.52a.75.75,0,0,1,.13-.18l.34-.54.87-1.37.33-.55.66-1.11c.85,0,.43.58.33.92-1.2,4.23-2.43,8.44-3.64,12.66a6.89,6.89,0,0,0-.14.91l-.91,2.55-.17.48a12.81,12.81,0,0,0-.8,2.58,4.8,4.8,0,0,0,.54,1.73l.68.14.5.12.46.12,1,.34,1.22.38.9-.53v-.55l0-1,.11-.47.16-.71.09-.49.14-.71.1-.49.12-.72.09-.47.17-1,.09-.48.12-.74.15-.94.09-.51.14-.93.14-1,.09-.49.17-1.18.1-.51v-.73l.13-.44.61-3.39v-1l.06-.23.19-.71,0-1.2h0L400,445l.05-1.43h0l.06-.48.17-1.45.12-.73.14-1.41.42-1c.87-.14.74.48.75,1,0,2.15.07,4.3.1,6.46l.05,1,.09,2.37V450l.12.75.15,1.89.09,1.23.14,1.41.11.74.14,1.18.1.74.14.94.09.51.16.93.11.49.11.71.11.5.14.7.15.71.1.49.84,3.37.12.47,1.32,3.85.26.62.24.56.69,1.36,1,1.76,0,0Z" />
            <path class="color-base"
                d="M408.68,476.87l-.24-.94a8.17,8.17,0,0,0,2.26-.79c.73-.53.44-1.1-.42-1.32l.09-.3h0v-.27L408.63,469l.13-.53,1.92,4.31c.1.22.18.45.27.67.76,1.68.68,1.83-1,2.56-.34.15-.55.58-.82.89Z" />
            <path class="outline"
                d="M396.7,465.1l0,1v.55l-.9.53-1.22-.38-1-.34-.46-.12-.5-.12-.68-.14a4.8,4.8,0,0,1-.54-1.73,12.81,12.81,0,0,1,.8-2.58l.17-.48.91-2.55a3.05,3.05,0,0,0,.34-.61q2.16-7.47,4.31-15a4.6,4.6,0,0,0,.05-.74l-.3-.12-.95,1.94-.66,1.11-.33.55-.87,1.37-.34.54a.75.75,0,0,0-.13.18l-.36.52-.34.45-.39.5a25.85,25.85,0,0,1-3.63,3.18c-1.94,1.17-3.5.45-4.31-1.65l-.09-.5V449l.11-.72.11-.47.13-.49q1.65-3,3.29-5.93l.37-.49.24-.28,1.93-2-.22-.31c-2.16,0-4.33,0-6.49,0a5.1,5.1,0,0,0-1,.24c-4.61-.17-9.23-.38-13.84-.48-2.26-.05-4.53.13-6.8.21l-2.93.06-4.75.18-1-.08c-.9-.18-1.82-.56-2.63.23l-.51.07-1.2-.06-1.23.22-.45.08-.95,0-.71.2-.9.09-1.26-.06c-2.1,0-4.2-.09-6.3-.08-1.58,0-3.17.21-4.74.15-2.95-.11-5.6-1.79-8.63-1.72a1.62,1.62,0,0,1-1.5-1.83c0-.59,0-1.17.05-1.75.05-.19.1-.38.16-.57l.22-.07-.16-.08.07-.45.15-.61.11-.64.1-.7.18-2.65.16-1.21-.09-.48.11-1.21.23-1.43-.06-.69a1.42,1.42,0,0,1,.07-.22l.13-.75c.06-.26.13-.52.19-.78l.05.05.79,0,0,1.49-.06,1.19c-.78.26-.27.63,0,.78a10.86,10.86,0,0,0,2.74,1.24,36.76,36.76,0,0,0,4.22.39l.46,0,1,.18.47.05,1.45.19h7.92c1.6.06,3.2.13,4.8.17.09,0,.17-.23.26-.36h6.69c.92.84,1.91.5,2.9.18L360,427c.49.75,1.09.53,1.7.18l.7,0c.74.87,1.58.52,2.42.19,3.45.36,6.89.77,10.35,1.07,5.44.46,10.88,1,16.33,1.21,4.5.14,9-.18,13.53-.37a71.76,71.76,0,0,0,7.76-.57A247.54,247.54,0,0,1,441,426.64l1.3-.31,7.63,0,1.53.36c1.54.09,3.09.19,4.64.26a36.07,36.07,0,0,1,9.88,1.88c1.8.61,3.56,1.31,5.34,2a1.78,1.78,0,0,0,2.65.31c1.2-.29.52-1.21.62-1.87l.09-1c.81-.32,1.11.06,1.13.82,0,3.26.13,6.53.07,9.8,0,.51-.69,1-1.05,1.53l-.64.28c-2.47-.1-4.95-.06-7.4-.33-7.13-.8-14.25-1.72-21.37-2.6a6.84,6.84,0,0,1,.81-.41,9.94,9.94,0,0,1,1.08-.25l1.9.08,1.47.15h1.94l-.38-1.31-.37-.58-.15-.58c-.09-.21-.17-.43-.26-.65l-.09-.45-.19-.5-.1-.45-.11-.52-.1.05c0-.33,0-.66,0-1l.76-1,.22.73a9.81,9.81,0,0,0,2.13,5.53l1,1,1.32.28-.26-.6-.35-1.19h.77c1,.94,1.93,2.11,3.55,2l.52.11.93.11.51.12.93.13,1.26,0,.41.19.75.15,1.17-.05v-3.29l.66-1.59.32.39,0,.71.14.51.1.93.14.75.1,1.63c.5.88,1.09.61,1.69.12.57-.07,1.15-.14.81-1l.4-.37,1.67,1,.23-.73c0-.47.05-.94.08-1.41l.55-1,.48,1.6.46-.06-.1-1.5.09-.75.11-.75.15-1.36c.06-1.15-.47-1-1.13-.49h-.7l-1.55-.44-2.51-1.15-.79-.37L467,430l-4.34-1.39-.46-.11-1.7-.39-.46-.09-1-.18-.47-.06-1.68-.2-.48-.06-2.17-.16-1.19-.07a2.75,2.75,0,0,0-.82-.31q-4,0-8,0a2.77,2.77,0,0,0-.84.28l-2.65.08-2.39.16-1.92.13-.71.07-3.37.16-1.67.08-3.13.17-1.67.08-1.93.14-1.19.09-1.45.16-.95.09-.83.07-.85.15-1.45.17-.71.09-.83.08-1.12.18-1.41.16-.48,0-4.33.43-.71.05-2.9.15-4.8.14-6.23.12-4.29,0-4.33-.14-1.44-.07-1.42-.13-1.7-.11-1.18-.12-1.22-.13-.94-.13-.74-.1-2.64-.22-.75-.07-1.66-.13a3.63,3.63,0,0,0-.78-.22c-3.17-.28-6.34-.54-9.52-.81l-.75-.11-11.26-.23-.51.08-5.49.14-1.23.13-3.57.12h-.74l-3.33-.12-.75-.13-.71-.06c-.31-.73-.74-.56-1.21-.17l-.71-.07c-.21-.67-.56-.58-1-.18l-.47-.07-.73-.16-.7-.1-.5-.15-.46-.08c-.4-.66-1.08-1-1.57-.4-.37.43-.9,1.32.16,1.84v1.71c-.16.13-.47.3-.45.39s.27.37.41.56l0,.46c-.63.53-.68.85-.19,1.21l-.06.47-.13.5,0,1.15c.18.65.57.81,1.16.47h.71l.35.15-.14-.35.77-5.75a2.53,2.53,0,0,1,.46.91c.07.79-.05,1.59.06,2.37a6.64,6.64,0,0,0,.6,1.54l.13.38a2.82,2.82,0,0,0,2.45,2.88c.8.17,1.32.07,1.37-.91a6.29,6.29,0,0,1,.33-1.31,8.79,8.79,0,0,1,.64,1.79c.26.78.74,1.23,1.62.8l4,.12c.8-.13.72-.48.23-.93l-.08-.7-.08-1.43c0-.31,0-.63,0-.95l.42-.5c.3,1.18.55,2.37.93,3.5.13.4.6.68.92,1l3.91,0,.57-.13,2.12-2.11.27.16-.64,1.41c-.13.21-.43.52-.38.59.28.4,2.78.13,3.19-.31a3.29,3.29,0,0,0,3.62-1.9l.56.56-.25,1h7.67l-.17-3.52,0-.67,0-1.25,0-.47.19-1,.13-.41.74.18.08.95.14,1.94.1.69a20.87,20.87,0,0,0,.67,2.86,1.51,1.51,0,0,0,1.11.82c2.4.05,4.8,0,7.2,0h3.79l-.65-2.89.38-.14.41.28a12.27,12.27,0,0,0,2.34,2.86c.63.43,1.82,0,2.75,0l-.35-2.51.19-2.33.44,0,.74,2.61c.46,2.29.68,2.47,3,2.43a38.86,38.86,0,0,1,4.18,0,3.74,3.74,0,0,0,3.71-1.82l1.39-1.31.83-.08.07-.05h.09l0,.78c-.26.31-.49.63-.77.91a36.9,36.9,0,0,0-7.08,9,15.5,15.5,0,0,0-1.47,4.73c-.19,1.24.61,1.75,1.74,1.17a8.19,8.19,0,0,0,2.91-2.2c2.38-3.32,4.57-6.78,6.84-10.18.3-.44.64-.86,1-1.28-.11,1.08-.23,2.17-.3,3.26a8,8,0,0,0,.1,1.28l.33,0,.3-1.13.45.25.1.73-.17,1.45-.06.48h0c-1,.31-.17.94-.26,1.41l0,.75h0c-1,.21-.08.81-.24,1.19l0,.72-.06.23-.41,1-.2,3.38-.13.44-.2.64.09.6L398.5,455l-.09.49-.14,1-.14.93-.09.51-.15.94-.12.74-.09.48-.17,1-.09.47-.12.72-.1.49-.14.71-.09.49-.16.71Zm1.63-17.75c.29-1.39.92-2.76.41-4.18l-.33,0-.54,4.17q-2.37,8.63-4.73,17.26l2.75.93C396.71,459.37,397.52,453.36,398.33,447.35Z" />
            <path class="color-shadow"
                d="M344.12,426.94H336.2l-1.45-.19-.47-.05-1-.18-.46,0c-.71-.17-1.43-.32-2.14-.52-1.67-.47-3.55-.41-4.83-1.89l.06-1.19c.35-.07.77-.3,1-.19,1.42.57,2.81,1.23,4.2,1.85l2.29.84.59.35,2.85.28h4.58c.17.07.35.22.52.21,4.64-.14,9.29-.34,13.94-.44,2,0,4,.11,6,.18a4.06,4.06,0,0,0,.88.27c3.05.21,6.09.39,9.14.57,3.87.45,7.73,1.06,11.61,1.31,4.42.27,8.85.23,13.28.3a4.5,4.5,0,0,0,1.1-.26l.93-.27h4.52a3.73,3.73,0,0,0,1.17.44c.83,0,1.66-.13,2.5-.16,2.49-.11,5-.13,7.48-.29s5-.44,7.47-.73a19,19,0,0,0,2.5-.62l1.48-.34.84-.06,1.32-.16.85-.06,3.95-.43.86,0,2.75-.21,1-.13a2.34,2.34,0,0,0,.67.16c2.55-.07,5.1-.18,7.65-.23,4.19-.08,8.38-.13,12.57-.19.08.12.14.34.24.36,2.75.43,5.51.84,8.27,1.21.15,0,.36-.39.54-.6l.38.07a.29.29,0,0,0,.19.13l.3.23c.3.27.56.66.92.81,1.77.76,3.57,1.45,5.36,2.17-.1.66.58,1.58-.62,1.87l-2.65-.31c-1.78-.66-3.54-1.36-5.34-2a36.07,36.07,0,0,0-9.88-1.88c-1.55-.07-3.1-.17-4.64-.26l-1.53-.36-7.63,0-1.3.31a247.54,247.54,0,0,0-28.27,2.09,71.76,71.76,0,0,1-7.76.57c-4.51.19-9,.51-13.53.37-5.45-.18-10.89-.75-16.33-1.21-3.46-.3-6.9-.71-10.35-1.07l-2.42-.19-.7,0L360,427l-1.18-.06-2.9-.18h-6.69Z" />
            <path class="outline"
                d="M402,449.26l-.09-2.36-.05-1c0-2.16-.07-4.31-.1-6.46,0-.51.12-1.13-.75-1l-.47.11-.37-.11c0-.8,0-1.6,0-2.4.41-1.32,1.47-.25,2.21-.75l.13,3,.31,0L403,437l.32-.09.23.61a22.08,22.08,0,0,0,2.79,8.83,10.67,10.67,0,0,0,2.62,2.87c.93.74,1.82.32,2-.88a8,8,0,0,0-.2-3,34.22,34.22,0,0,0-1.57-3.88l-.41-.59-.25-.48c0-1.23-.87-1.89-1.61-2.65l-1.28-2.55.5-.08c.14-.05.38-.09.39-.16a2.66,2.66,0,0,0-1.61-3.09l.26-.22a2.11,2.11,0,0,1,2.42,1.6c.24.65.59,1.26.89,1.9.6,1.08,1.37,2.14,2.66,2.14,2.82,0,5.64-.19,8.46-.32.06,0,.11-.09.31-.26l-.62-2.55c.15-1.19-.46-2.49.66-3.87l.82,3.87.21,1.16a1.59,1.59,0,0,0,2,1.55c1.57-.15,3.16-.06,4.74-.07l.39-.18-.27-.33L426.61,434a.24.24,0,0,0,0-.2l1.35.79.4.55c.57.54,1.1,1.48,1.72,1.54a34,34,0,0,0,4.83-.11l.2-.5.09-.45.15-.51.08-.45.16-.51.16-1.22.14-.2.11-.51.12-.69.69,0,.08,2.14-.19.71-.12.52-.26,1.87,1.66.11v.82H423.09l-10.52.43-.76,0-2.38.13-.23-.1L409,438l-.06.23.18.8.45.88,1.1,2.32.33.8-.23.28.37.12a36,36,0,0,1,.87,5.1c0,.81-.73,1.65-1.13,2.47a3.35,3.35,0,0,1-3.7-1.26,36.34,36.34,0,0,1-2.56-4c-.25-.42-.45-.87-.83-1.62l-.26,1.26h-.32c-.12-2.21-.23-4.43-.35-6.64l-.36,0a9.18,9.18,0,0,0-.14,1.16c0,1.79,0,3.58.07,5.37a10.32,10.32,0,0,0,.2,1.34l0,2.65Zm5.58-13.63-.43.2c.34.61.66,1.23,1,1.81,0,.05.43-.14.7-.24Z" />
            <path class="outline"
                d="M474.84,440.32c.36-.51,1-1,1.05-1.53.06-3.27,0-6.54-.07-9.8,0-.76-.32-1.14-1.13-.82l-.35,0c-2-.12-2.61-.61-3-2.49-.42-2.29-.74-4.6-1.11-6.91l-.5.29.06-8.65s.12-.08.35-.22c0,.45.06.82.1,1.19.53,4.79,1,9.59,1.61,14.38.18,1.5,1.11,2,2.63,1.81,1.27-.2,1.62,0,1.74,1.34s.2,2.7.22,4.06c0,1.83,0,3.66,0,5.49s-.87,2.7-2.67,2.62A99,99,0,0,1,461,439.86c-3.93-.67-7.91-1-11.87-1.45-1.74-.19-3.5-.2-5.25-.32a3.78,3.78,0,0,1-.85-.26l1.92-.17h.53c7.12.88,14.24,1.8,21.37,2.6,2.45.27,4.93.23,7.4.33Z" />
            <path class="outline"
                d="M468.32,426.22,468,426l-.19-.13-.38-.07a6,6,0,0,0-1.53-.52c-2.5-.19-5-.31-7.52-.45-4.19.06-8.38.11-12.57.19-2.55.05-5.1.16-7.65.23a2.34,2.34,0,0,1-.67-.16c1.57-.14,3.14-.34,4.72-.41,2.87-.13,5.73-.24,8.6-.23,1.06,0,1.51-.32,1.57-1.36a10.94,10.94,0,0,1,.36-1.68v2.66l.36.07a2.42,2.42,0,0,0,.41-.88c0-1.6,0-3.2,0-4.8,0-.14-.31-.26-.48-.39,0-1.17-.11-2.35-.06-3.52s.24-2.16.36-3.24l.48,0c0,2.15.09,4.3.11,6.45s0,4.3,0,6.64c2,0,4,0,6,0a25.3,25.3,0,0,1,4.18.11c1.67.29,3.27.93,4.91,1.38a6.81,6.81,0,0,0,1.36.1c.26.68-.18.61-.58.53S468.82,426.32,468.32,426.22Z" />
            <path class="outline"
                d="M397.91,428.14a4.5,4.5,0,0,1-1.1.26c-4.43-.07-8.86,0-13.28-.3-3.88-.25-7.74-.86-11.61-1.3,0-.12,0-.24.05-.35l1.77-.11.38.05,1.78.19.38.05,1.55.18,1.58.13,1.51.15.65.07,1.29.15.87.1c1.41.5,1.62.41,2-.94.13-.41.2-.84.29-1.25l.48-1.35.29-.52.27-.48.11,0,.1,0-.66,4.72,1.65.12,1.47.1,3.57.16Z" />
            <path class="outline"
                d="M403.21,445.41h.32c.12.64.24,1.28.37,1.93,0,.21.05.43.07.65l.42,2.95.06.41c.13.66.25,1.32.37,2,0,.22.09.43.13.65s.1.53.16.8l.08.4.12.56.09.42.18.78.08.4.13.56.09.42.19.78.09.39c0,.19.09.38.14.57l.09.4.14.56.1.4.15.61.3,1.09.16.54c.11.37.22.75.34,1.12l.86,2.72c.11.31.21.62.32.94s-.09.35-.13.53l-.42.22c-.29-.87-.62-1.73-.86-2.61-1-3.64-2.13-7.25-2.93-10.93-.65-2.95-.91-6-1.35-9Z" />
            <path class="outline"
                d="M436.53,425.21l-2.75.21.57-2.79a8.83,8.83,0,0,0,0,1.36,3.37,3.37,0,0,0,.38.85c.3-.16.69-.25.86-.5a1.83,1.83,0,0,0,.26-1c0-1.95,0-3.9-.08-5.85a25.35,25.35,0,0,0-.44-2.84l-.31,0c0,1.31.06,2.62,0,3.93-.06,1-.29,1.92-.44,2.88,0-2.42.07-4.84.06-7.25,0-1-.11-2-.18-3l.34-.09c.14.19.36.36.4.57a38.9,38.9,0,0,1,1.06,11.83C436.19,424.06,435.4,424.84,436.53,425.21Z" />
            <path class="outline"
                d="M341.48,426H336.9l-2.85-.28-.59-.35-2.29-.84c0-.26,0-.52,0-.77l.54-.11.43.16c.45.58,2.15,1.16,2.66.81.13-.08,0-.56,0-.86a.09.09,0,0,0-.15,0c-.4-1.59-.81-3.18-1.21-4.77l.65-.2.31.24.21.89.07.62.16.3.12.59h0l.79,1.36a.76.76,0,0,1,.12.19l.29.61.26.08.16.24.3.47,1,.66c.21.15.42.41.65.42,1,0,1.94,0,2.91,0l.23.05Z" />
            <path class="outline"
                d="M341.48,426l.23-.44,1.69-.23,1-.17,1.66.07,1.91.26,1.93-.42,12,.22v.45a1.49,1.49,0,0,1,0,.21c-2-.07-4-.22-6-.18-4.65.1-9.3.3-13.94.44C341.83,426.22,341.65,426.07,341.48,426Z" />
            <path class="outline"
                d="M468.32,426.22c.5.1,1,.22,1.52.31s.84.15.58-.53l-.12-1.19c-.05-.09-.09-.19-.13-.28,0-.38-.07-.77-.11-1.16l-.09-.49-.2-3.86.5-.29c.37,2.31.69,4.62,1.11,6.91.35,1.88,1,2.37,3,2.49l.35,0-.09,1c-1.79-.72-3.59-1.41-5.36-2.17C468.88,426.88,468.62,426.49,468.32,426.22Z" />
            <path class="outline"
                d="M424.48,426.51a19,19,0,0,1-2.5.62c-2.49.29-5,.56-7.47.73s-5,.18-7.48.29c-.84,0-1.67.18-2.5.16a3.73,3.73,0,0,1-1.17-.44l.48-.05,1.71-.09,3.79-.18,1.7-.1,1.5-.16.45-.06,2.13-.13.75-.11,2.59-.17,1-.09,1.17-.11,1.95-.12,1.66-.1Z" />
            <path class="outline"
                d="M366.31,424.08a7.89,7.89,0,0,1-1.19-1.48c-1.19-2.56-2.31-5.15-3.44-7.74a4.18,4.18,0,0,1-.15-.72l.35-.16,4,7.46-1-.26.93,1.49Z" />
            <path class="outline"
                d="M366.31,424.08l-.54-1.41.7-.09.95,1.24a8.14,8.14,0,0,0,.81,1.33c1,1.08,2.4,1.12,3.74,1.3,0,.11,0,.23-.05.35-3.05-.19-6.09-.37-9.14-.58a4.06,4.06,0,0,1-.88-.27,1.49,1.49,0,0,0,0-.21h1.68l1.19-.17,1.73,0,.71-.09-.66-.92Z" />
            <path class="outline"
                d="M434.56,421.48c.15-1,.38-1.92.44-2.88.07-1.31,0-2.62,0-3.93l.31,0a25.35,25.35,0,0,1,.44,2.84c.09,1.95.08,3.9.08,5.85a1.83,1.83,0,0,1-.26,1c-.17.25-.56.34-.86.5a3.37,3.37,0,0,1-.38-.85,8.83,8.83,0,0,1,0-1.36Z" />
            <path class="outline" d="M410,426.42l.15-.69.11-.51.38-2.61.06-.76.55-4.79.47,0v5.08l-.09,1.95-.63,2.57Z" />
            <path class="outline"
                d="M444.9,437.66l-1.92.17h-.67l-2,0-1.66-.12c0-.28,0-.56,0-.84l.46,0c.75-.07,1-.61.71-1.69l.07-.45.67-.29.11,0h.12c0,.23.05.47.07.7-.2.72-.37,1.44.65,1.69l3.32.11Z" />
            <path class="outline"
                d="M331.18,423.76c0,.25,0,.51,0,.77-1.39-.62-2.78-1.28-4.2-1.85-.27-.11-.69.12-1,.19,0-.49,0-1,0-1.49l.46-.13,2.51,1,.75.43.45.29.27.17Z" />
            <path class="outline"
                d="M333.14,407.06l.09,2.64c0,.22,0,.44,0,.67.07,1.36.13,2.73.2,4.09h-.15l-.42.27h-.26c0-1.85,0-3.7,0-5.54l0-1.16c0-.32.05-.64.07-1Z" />
            <path class="color-shadow"
                d="M342.12,420.24c.51,1.19,1,2.37,1.55,3.56l-.57.24c-.88-1.12-1.91-2.18-1.54-3.8Z" />
            <path class="outline"
                d="M453.06,418.06c.17.13.48.25.48.39,0,1.6,0,3.2,0,4.8a2.42,2.42,0,0,1-.41.88l-.36-.07V421.4l.05-.47.18-2.43Z" />
            <path class="color-shadow"
                d="M372,426.45c-1.34-.18-2.74-.22-3.74-1.3a8.14,8.14,0,0,1-.81-1.33.27.27,0,0,1,.12,0c1.36,1.95,3.4,2.24,5.55,2.31a2.41,2.41,0,0,1,.65.23Z" />
            <path class="outline"
                d="M332.9,414.72l.42-.27c.14.49.28,1,.43,1.48l.31,1.42-.05.46.19.94a.07.07,0,0,1-.1.05l-.65.2-.17-.19-.08-.49-.44-3.13Z" />
            <path class="color-base" d="M423.09,437.69h0Z" />
            <path class="outline" d="M333.14,407.06h-.39l.18-3.72.57,0Z" />
            <path class="color-base" d="M397.91,428.14l-4.57-.18,5.5-.09Z" />
            <path class="color-base"
                d="M343.1,424l.57-.24.55,1-.82.52-1.69.23-.23-.05v-.43C342,424.67,343.17,425.32,343.1,424Z" />
            <path class="color-base"
                d="M328.88,422.21l-2.51-1-1.25.17-.05-.05c.18-.25.3-.64.53-.71C326.36,420.42,328.38,421.43,328.88,422.21Z" />
            <path class="color-base" d="M432.92,425.46l-3.95.43c.51-.49,1.65,0,1.75-1.12l.61.23Z" />
            <path class="color-shadow" d="M341.49,425.08v.43c-1,0-2,0-2.91,0-.23,0-.44-.27-.65-.42Z" />
            <path class="color-shadow"
                d="M334.81,423.76c0,.3.13.78,0,.86-.51.35-2.21-.23-2.66-.81l.71.05.52.15.45.12C334.32,424.47,334.67,424.39,334.81,423.76Z" />
            <path class="color-shadow"
                d="M386.06,425.22c-.09.41-.16.84-.29,1.25-.42,1.35-.63,1.44-2,.94C385.56,427.79,385.38,426.05,386.06,425.22Z" />
            <path class="color-shadow" d="M431.33,425l-.61-.23v-.7l.78-1.71a.16.16,0,0,1,.07.15l0,1.44Z" />
            <path class="color-shadow" d="M411.73,414.22V417h-.3v-2.79Z" />
            <path class="color-shadow" d="M410.67,442.23l-1.1-2.32Z" />
            <path class="color-base" d="M387.1,422.87l-.27.48h-.2l.6-2.12.45.11c-.08.35-.16.71-.25,1.07Z" />
            <path class="color-shadow" d="M404.39,450.94,404,448Z" />
            <path class="color-base" d="M410,426.42l1,.26c0,.26,0,.52,0,.77l-1.7.1Z" />
            <path class="outline"
                d="M431.51,422.36l-.78,1.71a6.94,6.94,0,0,1,0-1.64C430.83,421.84,431.18,421.68,431.51,422.36Z" />
            <path class="outline" d="M453,418.5l-.18,2.43Z" />
            <path class="color-shadow" d="M408.44,467.5l-.86-2.72Z" />
            <path class="color-base" d="M348,425.49l-1.91-.26,1.91-.16Z" />
            <path class="outline" d="M366.47,422.58l-.7.09c-.27-.42-.53-.84-.93-1.49l1,.26Z" />
            <path class="color-base" d="M411.65,424.11l.09-1.95Z" />
            <path class="color-shadow" d="M348,425.49v-.42h1.93Z" />
            <path class="color-base" d="M440.35,437.79l2,0Z" />
            <path class="color-base" d="M422.59,426.5l-1.95.12Z" />
            <path class="color-shadow"
                d="M404.82,453.33c-.12-.66-.24-1.32-.37-2C404.58,452,404.7,452.67,404.82,453.33Z" />
            <path class="color-base" d="M424.48,426.51l-.23-.11,1.71-.23Z" />
            <path class="color-shadow" d="M363.56,425.73h-1.68v-.45h1.69Z" />
            <path class="color-shadow" d="M375.9,426.58l-1.78-.19Z" />
            <path class="color-base" d="M405.55,427.73l-1.71.09Z" />
            <path class="color-base" d="M389.77,427.8l-1.47-.1Z" />
            <path class="outline" d="M438.7,436.83v.84H438c0-.27,0-.55,0-.82Z" />
            <path class="color-shadow" d="M324.74,423.81l-.23,1.43,0-1.42Z" />
            <path class="color-shadow" d="M377.83,426.81l-1.55-.18Z" />
            <path class="color-shadow" d="M380.92,427.09l-1.51-.15Z" />
            <path class="outline"
                d="M333.75,415.93c-.15-.5-.29-1-.43-1.48h.15C333.56,415,333.66,415.44,333.75,415.93Z" />
            <path class="color-base" d="M363.56,425.73v-.44l1.18.27Z" />
            <path class="color-shadow" d="M335.77,422.81c-.27-.45-.53-.9-.79-1.36l.47.45Z" />
            <path class="color-base" d="M331.18,423.76l-.83-.66,1.37.55Z" />
            <path class="color-base" d="M335.45,421.9l-.47-.45h0l-.12-.59c-.06-.1-.11-.2-.16-.3l.14-.39Z" />
            <path class="color-shadow" d="M343.4,425.33l.82-.52c0,.12.11.23.17.35Z" />
            <path class="outline" d="M332.68,408l0,1.16Z" />
            <path class="color-base" d="M366.53,424.53l.66.92-.71.09C366.5,425.2,366.51,424.87,366.53,424.53Z" />
            <path class="color-base" d="M431.61,424l0-1.44Z" />
            <path class="color-base" d="M428.12,426l-1.32.16Z" />
            <path class="color-shadow" d="M324.49,426.93l-.16,1.21-.09-1.2Z" />
            <path class="color-shadow" d="M382.86,427.31l-1.29-.15Z" />
            <path class="color-base" d="M334.81,423.76c-.14.63-.49.71-1,.37l.83-.36A.09.09,0,0,1,334.81,423.76Z" />
            <path class="color-base" d="M419.47,426.73l-1,.09Z" />
            <path class="color-base" d="M409.12,439l-.18-.8.26,0,.23.1C409.32,438.54,409.22,438.78,409.12,439Z" />
            <path class="outline" d="M334.41,419l-.31-.24a.07.07,0,0,0,.1-.05l.14-.5Z" />
            <path class="outline" d="M333.27,410.37c0-.23,0-.45,0-.67C333.25,409.92,333.26,410.14,333.27,410.37Z" />
            <path class="outline" d="M334.34,418.25l-.14.5c-.06-.31-.12-.62-.19-.94h.23Z" />
            <path class="color-base" d="M342.12,420.24h-.56c.07-.15.15-.3.22-.44Z" />
            <path class="color-base" d="M410.72,421.85l-.06.76Z" />
            <path class="color-shadow" d="M324.88,422.15l-.13.75Z" />
            <path class="color-base" d="M324.74,423.81h-.26l.2-.7Z" />
            <path class="color-shadow" d="M324.15,430.79l-.1.7Z" />
            <path class="color-base" d="M411.81,438.16l.76,0Z" />
            <path class="color-base" d="M415.87,427l-.75.11Z" />
            <path class="color-shadow"
                d="M405.11,454.78c-.06-.27-.11-.53-.16-.8C405,454.25,405.05,454.51,405.11,454.78Z" />
            <path class="color-shadow" d="M405.58,456.94l-.18-.78Z" />
            <path class="color-shadow" d="M406.07,459.1l-.19-.78C406,458.58,406,458.84,406.07,459.1Z" />
            <path class="outline" d="M332.9,414.72l-.14.47-.12-.48Z" />
            <path class="outline" d="M334.24,417.82H334c0-.15,0-.31.05-.46Z" />
            <path class="outline" d="M333.2,418.32l.08.49Z" />
            <path class="color-base" d="M413,427.23l-.45.06Z" />
            <path class="color-shadow" d="M411.14,443.43l-.37-.12L411,443Z" />
            <path class="color-base" d="M470,422.88l.09.49Z" />
            <path class="color-base" d="M324.49,426.93h-.25l.16-.49Z" />
            <path class="color-base" d="M330.08,422.93l-.45-.29Z" />
            <path class="color-base" d="M410.28,425.22l-.11.51Z" />
            <path class="color-shadow"
                d="M406.3,460.06c-.05-.19-.09-.38-.14-.57C406.21,459.68,406.25,459.87,406.3,460.06Z" />
            <path class="color-shadow" d="M405.79,457.9l-.13-.56Z" />
            <path class="color-base" d="M336.9,424.4l-.3-.47Z" />
            <path class="color-shadow" d="M405.31,455.74l-.12-.56Z" />
            <path class="color-base" d="M333.38,424l-.52-.15Z" />
            <path class="color-shadow" d="M386.63,423.34h.2l-.29.52Z" />
            <path class="color-shadow" d="M323.94,432.13l-.15.61Z" />
            <path class="color-shadow" d="M406.53,461l-.14-.56C406.44,460.64,406.48,460.83,406.53,461Z" />
            <path class="color-shadow" d="M406.78,462l-.15-.61Z" />
            <path class="color-shadow" d="M407.24,463.66l-.16-.54Z" />
            <path class="color-base" d="M336.44,423.69l-.26-.08c0-.15,0-.3,0-.45Z" />
            <path class="color-shadow" d="M336.19,423.16c0,.15,0,.3,0,.45-.1-.2-.2-.41-.29-.61Z" />
            <path class="color-shadow" d="M334.83,420.16l-.14.39c0-.2,0-.41-.07-.62Z" />
            <path class="color-shadow" d="M387.1,422.87l.33-.47-.12.46-.1,0Z" />
            <path class="color-shadow" d="M323.72,433.19l.16.08-.22.07,0-.1Z" />
            <path class="color-base" d="M470.17,424.53c0,.09.08.19.13.28C470.25,424.72,470.21,424.62,470.17,424.53Z" />
            <path class="outline"
                d="M402,449.26h.68a19.65,19.65,0,0,0,.1,2.18c.34,2.19.76,4.38,1.11,6.57.87,5.44,1.92,10.82,4.39,15.81.17.35.64.81.93.78s.73-.5,1.09-.78h0c.86.22,1.15.79.42,1.32a8.17,8.17,0,0,1-2.26.79l0,0-1-1.76-.69-1.36-.24-.56-.26-.62-1.32-3.85-.12-.47-.84-3.37-.1-.49-.15-.71-.14-.7-.11-.5-.11-.7-.11-.5-.16-.93-.09-.51-.14-.94-.1-.74L402.6,456l-.11-.74c-.05-.47-.09-.94-.14-1.41l-.09-1.23-.15-1.89L402,450Z" />
            <path class="color-base"
                d="M396.7,444.22l.95-1.94.3.12a4.6,4.6,0,0,1-.05.74q-2.14,7.49-4.31,15a3.05,3.05,0,0,1-.34.61,6.89,6.89,0,0,1,.14-.91c1.21-4.22,2.44-8.43,3.64-12.66C397.13,444.8,397.55,444.26,396.7,444.22Z" />
            <path class="color-shadow"
                d="M383.73,438.53a5.1,5.1,0,0,1,1-.24c2.16,0,4.33,0,6.49,0l.22.31-1.93,2,1.23-2.1Z" />
            <path class="color-base" d="M398.91,452.17l.2-3.38h.41Z" />
            <path class="color-base" d="M404.91,467.76l1.32,3.85Z" />
            <path class="outline" d="M400.15,438.47l.37.11.05.87-.14,1.41a.28.28,0,0,0-.22,0l-.45-.25Z" />
            <path class="color-base" d="M404,463.92l.84,3.37Z" />
            <path class="color-base" d="M360.16,438.32l2.93-.06Z" />
            <path class="color-shadow" d="M351.83,438.65c.81-.79,1.73-.41,2.63-.23a1,1,0,0,0,0,.24Z" />
            <path class="color-base" d="M327.5,438.28l2.24.69Z" />
            <path class="color-base" d="M407.42,474.15l1,1.76Z" />
            <path class="color-base" d="M331.59,439.47l1.48.17Z" />
            <path class="color-base" d="M338.14,439.63l1.53-.11Z" />
            <path class="color-base" d="M344.61,439.38v-.24l1.26.06Z" />
            <path class="color-base" d="M402.26,452.64l.09,1.23Z" />
            <path class="color-shadow" d="M399.79,444.93c.09-.47-.71-1.1.26-1.41,0,.48,0,1-.05,1.43Z" />
            <path class="color-base" d="M350.12,438.66l1.2.06-1.19.18Z" />
            <path class="color-shadow" d="M350.12,438.66v.24l-1.24,0Z" />
            <path class="color-base" d="M394.55,466.77l1.22.38Z" />
            <path class="color-base" d="M398.13,457.41l.14-.93Z" />
            <path class="color-shadow" d="M399.56,446.86c.16-.38-.75-1,.24-1.19l0,1.2Z" />
            <path class="color-shadow" d="M399.52,448.78h-.41l.41-1Z" />
            <path class="color-base" d="M354.45,438.66a1,1,0,0,1,0-.24l1,.08Z" />
            <path class="color-base" d="M347.49,438.91l.95,0-.95.18A.88.88,0,0,1,347.49,438.91Z" />
            <path class="color-base" d="M401.84,445.92l.05,1Z" />
            <path class="color-base" d="M397.89,458.86l.15-.94Z" />
            <path class="color-base" d="M325.81,438.05l1,.13Z" />
            <path class="color-base" d="M400.57,439.45l-.05-.87.47-.11Z" />
            <path class="color-base" d="M403.7,462.72l.15.71Z" />
            <path class="color-base" d="M391.91,466.05l.68.14Z" />
            <path class="color-base" d="M396.67,466.62v0Z" />
            <path class="color-base" d="M324.18,437.77l.73.2Z" />
            <path class="color-base" d="M330.43,439.21l.72.19Z" />
            <path class="color-shadow" d="M347.49,438.91a.88.88,0,0,0,0,.23l-.71,0Z" />
            <path class="color-base"
                d="M400.21,440.86a.28.28,0,0,1,.22,0l-.12.73C400.28,441.35,400.25,441.11,400.21,440.86Z" />
            <path class="color-base" d="M399.79,444.93l.21,0-.17.73Z" />
            <path class="color-base" d="M399.56,446.86h.21l-.19.71C399.57,447.34,399.56,447.1,399.56,446.86Z" />
            <path class="color-base" d="M385.36,448.29l-.11.72Z" />
            <path class="color-base" d="M402,450l.12.75Z" />
            <path class="color-base" d="M402.49,455.28l.11.74Z" />
            <path class="color-base" d="M402.74,457.2l.1.74Z" />
            <path class="color-base" d="M393.09,466.31l.46.12Z" />
            <path class="color-shadow" d="M389.26,440.91l-.37.49Z" />
            <path class="color-base" d="M400.08,443.52l.06-.48Z" />
            <path class="color-base" d="M395.71,445.88l.33-.55Z" />
            <path class="color-base" d="M385.6,447.33l-.13.49Z" />
            <path class="color-base" d="M394.5,447.79l.34-.54Z" />
            <path class="outline" d="M398.58,453.25l.2-.64v.73A.66.66,0,0,0,398.58,453.25Z" />
            <path class="color-base" d="M394,448.49l.36-.52Z" />
            <path class="color-base" d="M406.49,472.23l.24.56Z" />
            <path class="color-base" d="M393.28,449.44l.39-.5Z" />
            <path class="color-base" d="M385.25,450.47l.09.5Z" />
            <path class="color-base" d="M398.58,453.25a.66.66,0,0,1,.19.09l-.1.51Z" />
            <path class="color-base" d="M398.41,455.52l.09-.49Z" />
            <path class="color-base" d="M403,458.88l.09.51Z" />
            <path class="color-base" d="M397.68,460.08l.09-.48Z" />
            <path class="color-base" d="M403.23,460.32l.11.5Z" />
            <path class="color-base" d="M397.42,461.51l.09-.47Z" />
            <path class="color-base" d="M392.34,461.26l-.17.48Z" />
            <path class="color-base" d="M403.45,461.52l.11.5Z" />
            <path class="color-base" d="M397.2,462.72l.1-.49Z" />
            <path class="color-base" d="M397,463.92l.09-.49Z" />
            <path class="color-base" d="M396.7,465.1l.11-.47Z" />
            <path class="outline" d="M408.21,469.19l.42-.22,1.74,4.28v.27h0l-.33,0Z" />
            <path class="outline" d="M410.38,473.52v0Z" />
            <path class="outline" d="M410,473.55l.33,0-.09.3h0Z" />
            <path class="color-base"
                d="M440.91,435.09l-.07-.7-.16-.52-.61-.23h-3.22c0-.71-.06-1.42-.08-2.14l-.41-.52-.28.54-.12.69c0,.17-.07.34-.11.51s-.09.14-.14.2c-.49,1-1.39,1.05-2.36,1a17.24,17.24,0,0,0-2.49,0c-1.76.14-3.39,0-4.56-1.55a1.6,1.6,0,0,0-.38.06l.65,1.36a.24.24,0,0,1,0,.2l-5.91.15-.82-3.87c-1.12,1.38-.51,2.68-.66,3.87-2,.09-4,.11-6,.28-1.6.14-3.19.46-4.78.71-.3-.64-.65-1.25-.89-1.9a2.11,2.11,0,0,0-2.42-1.6l-2.19-.73.12-.32,1.79-.35,2.9-.15.71-.05,4.33-.43.48,0,1.41-.16,1.12-.18.83-.08.71-.09,1.45-.17.85-.15.83-.07.95-.09,1.45-.16,1.19-.09,1.93-.14,1.67-.08,3.13-.17,1.67-.08,3.37-.16.71-.07,1.92-.13,2.39-.16,2.65-.08,9.64,0,1.19.07,2.17.16.48.06,1.68.2.47.06,1,.18.46.09,1.7.39.46.11L467,430l.89.35a.85.85,0,0,0,0,.23c.15.86.29,1.72.44,2.58s0,1.29-.92,1.25l-.32-.39c-.3-.8-.6-1.6-.89-2.39l-.29.08c.08.81.17,1.62.26,2.44-1.55-.05-3.27.84-4.2-.61a8.67,8.67,0,0,1-2.17.6c-2.26,0-4.51-.14-6.77-.22L451.87,431l-.22-.73-.65-1.37-.31.42,0,1.92.21,1,.1-.05c0,.17.08.34.11.52s.07.3.1.45l-.06.5.2.74.4.37.15.57v.48a4.55,4.55,0,0,1-1.26.45c-3.07,0-6.14,0-9.2,0Z" />
            <path class="color-base"
                d="M393.79,430.49l6.23-.12a2.21,2.21,0,0,1-.18.53c-.55.89-1.41.77-2.27.66h-.32c-1.31,0-2.09,1.08-2.06,2.86l-1.39,1.31c-.25-.13-.5-.36-.76-.37-3.36-.1-6.72-.17-10.09-.24l-.74-2.61-.44,0c-.06.78-.12,1.55-.19,2.33l-4.74-.35-.41-.27-.12-.42-.86-.25.31.32,0,.49-11.86-.76-.1-.69c-.05-.65-.09-1.29-.14-1.94,0-.32-.05-.63-.08-.95s-.19-.44-.29-.67l-.45.49c0,.14-.08.28-.13.41-.06.33-.12.65-.19,1,0,.16,0,.32,0,.47l0,1.25,0,.67c-4.16-.07-8.33-.08-12.49-.23-3.12-.11-6.24-.4-9.37-.61l-.09-2c1.32-.25,2.64-.54,4-.72,2.91-.4,5.81-.83,8.73-1.07a79.88,79.88,0,0,1,8.33-.31c3,.06,5.93.42,8.89.63a4.14,4.14,0,0,0,1-.21l1.66.13.75.07,2.64.22.74.1.94.13,1.22.13,1.18.12,1.7.11,1.42.13,1.44.07,4.33.14Z" />
            <path class="color-shadow"
                d="M371.48,429.12a4.14,4.14,0,0,1-1,.21c-3-.21-5.92-.57-8.89-.63a79.88,79.88,0,0,0-8.33.31c-2.92.24-5.82.67-8.73,1.07-1.32.18-2.64.47-4,.72l-.74.22-3.61.37,0,.47,3.43.88.16,1.17c0,.32,0,.64,0,.95,0,.48,0,.95.08,1.43,0,.23.05.47.08.7s-.15.62-.23.93l-4-.12a1.83,1.83,0,0,1-1.38-1.75,11.49,11.49,0,0,0-.7-2.28h-.28l-.81,3.3c-1.26-.31-2.41-.47-2.72-1.91-.05-.23-.34-.41-.52-.62s-.08-.25-.13-.38c-.1-1.83-.2-3.65-.3-5.57-.31.12-.5.14-.59.24a2.39,2.39,0,0,0-.23.51c-.25,1.92-.51,3.83-.77,5.75l-.21.2h-.71l-1.16-.47c0-.38,0-.77,0-1.15,0-.17.09-.34.13-.5l.06-.47c.07-.4.13-.81.19-1.21l0-.46c0-.32,0-.63,0-.95,0-.57,0-1.14,0-1.71s.06-1.06.1-1.65l1.31.21.46.08.5.15.7.1.73.16.47.07,1,.18.71.07,1.21.17.71.06.75.13,3.33.12h.74l3.57-.12,1.23-.13,5.49-.14.51-.08,11.26.23.75.11c3.18.27,6.35.53,9.52.81A3.63,3.63,0,0,1,371.48,429.12Z" />
            <path class="color-shadow"
                d="M340.65,432.8c3.13.21,6.25.5,9.37.61,4.16.15,8.33.16,12.49.23.05,1.13.11,2.25.17,3.52H355c.08-.34.17-.67.25-1l1.23-2.05-.42-.32-1.37,1.81a3.29,3.29,0,0,1-3.62,1.9l-2.81-.28.64-1.41-.27-.16-2.12,2.11-.57.13-3.92,0Z" />
            <path class="transparent"
                d="M403,437l-.17,1.31-.31,0-.13-3c-.74.5-1.8-.57-2.21.75-.95-.08-.7.67-.8,1.17-.32.42-.66.84-1,1.28-2.27,3.4-4.46,6.86-6.84,10.18a8.19,8.19,0,0,1-2.91,2.2c-1.13.58-1.93.07-1.74-1.17a15.5,15.5,0,0,1,1.47-4.73,36.9,36.9,0,0,1,7.08-9c.28-.28.51-.6.77-.91,1.15-1,2.24-2,3.47-2.88.87-.61,1.69-1.31,3-.33.9.66,1.23,1.58,2,2.25l-.29.28-1-.67c.07.91.12,1.52.17,2.13l-.63.45Zm-2.9-3.29a1.73,1.73,0,0,0-.61-.18,1.12,1.12,0,0,0-.59.36c-2.3,2.37-4.71,4.65-6.84,7.17a35.23,35.23,0,0,0-3.5,5.54c-.26.48,0,1.24,0,1.87.6-.17,1.41-.15,1.77-.54a75.11,75.11,0,0,0,5.52-6.33,54.9,54.9,0,0,0,3.5-5.88A14.55,14.55,0,0,0,400.05,433.74Z" />
            <path class="color-shadow"
                d="M453.09,433.9c2.26.08,4.51.21,6.77.22a8.67,8.67,0,0,0,2.17-.6c.93,1.45,2.65.56,4.2.61.08.48.17,1,.26,1.46v3.29l-1.17.05-.75-.15-.41-.19c-.57-1.34-1.15-2.68-1.72-4l-.64.24c.3.87.61,1.74.88,2.62a10.26,10.26,0,0,1,.22,1.13l-.93-.13-.51-.12-.93-.11-.52-.11c-1.62.08-2.52-1.09-3.55-2l-.65-.76-.26.11.14.66.35,1.19-1.06.32c-.33-.34-.66-.67-1-1C453.7,435.68,453.39,434.79,453.09,433.9Z" />
            <path class="color-shadow"
                d="M363.93,433.63l11.86.76h.26l.65,2.89h-3.79c-2.4,0-4.8.09-7.2,0a1.51,1.51,0,0,1-1.11-.82A20.87,20.87,0,0,1,363.93,433.63Z" />
            <path class="color-shadow"
                d="M467.47,434.39c.92,0,1.06-.5.92-1.25s-.29-1.72-.44-2.58l.76.14,2.51,1.15,1.55.44h.7l1.13.49-.15,1.36-.11.75-.09.75-1.39-2.21v3.14c0,.47-.05.94-.08,1.41-.08.24-.15.49-.23.73l-1.67-1-.48-.66-.31.19.39.84c.34.82-.24.89-.81,1l-1.69-.12c0-.54-.07-1.08-.1-1.63-.05-.25-.09-.5-.14-.75s-.07-.62-.1-.93-.09-.34-.14-.51Z" />
            <path class="transparent" d="M398.33,447.35c-.81,6-1.62,12-2.44,18.15l-2.75-.93,4.73-17.26Z" />
            <path class="color-shadow"
                d="M383,435.13c3.37.07,6.73.14,10.09.24.26,0,.51.24.76.37a3.74,3.74,0,0,1-3.71,1.82,38.86,38.86,0,0,0-4.18,0C383.63,437.6,383.41,437.42,383,435.13Z" />
            <path class="outline"
                d="M404.66,434.13c-.72-.67-1.05-1.59-2-2.25-1.35-1-2.17-.28-3,.33-1.23.86-2.32,1.91-3.47,2.88l0-.78a11.54,11.54,0,0,0,1.26-1.55,2.88,2.88,0,0,0,.13-1.2c.86.11,1.72.23,2.27-.66a2.21,2.21,0,0,0,.18-.53l4.8-.14-1.79.35-.12.32,2.19.73-.26.22A4.39,4.39,0,0,0,405,433c.3.72.7,1.4,1.05,2.09l-.5.08Z" />
            <path class="color-shadow"
                d="M376.84,434.52l4.74.35c.12.84.24,1.67.35,2.51-.93,0-2.12.43-2.75,0A12.27,12.27,0,0,1,376.84,434.52Z" />
            <path class="color-shadow"
                d="M441.41,436.28c3.06,0,6.13,0,9.2,0a4.55,4.55,0,0,0,1.26-.45l.38.1.38,1.31h-1.94l-1.47-.15-1.9-.08-2.44-.12-3.32-.11Z" />
            <path class="outline"
                d="M329.3,434.55c.18.21.47.39.52.62.31,1.44,1.46,1.6,2.72,1.91l.81-3.3h.28a11.49,11.49,0,0,1,.7,2.28,1.83,1.83,0,0,0,1.38,1.75c-.88.43-1.36,0-1.62-.8a8.79,8.79,0,0,0-.64-1.79,6.29,6.29,0,0,0-.33,1.31c-.05,1-.57,1.08-1.37.91A2.82,2.82,0,0,1,329.3,434.55Z" />
            <path class="outline"
                d="M340.65,432.8l1.38,5.12c-.31-.33-.78-.61-.91-1-.38-1.13-.63-2.32-.93-3.5l-.42.5c-.06-.39-.11-.78-.16-1.17l.21-1.72.74-.22Z" />
            <path class="outline"
                d="M453.11,427.27l-9.64,0a2.77,2.77,0,0,1,.84-.28q4,0,8,0A2.75,2.75,0,0,1,453.11,427.27Z" />
            <path class="outline"
                d="M325.87,424.06c1.28,1.48,3.16,1.42,4.83,1.89.71.2,1.43.35,2.14.52a36.76,36.76,0,0,1-4.22-.39,10.86,10.86,0,0,1-2.74-1.24C325.6,424.69,325.09,424.32,325.87,424.06Z" />
            <path class="outline"
                d="M462.9,438.55a10.26,10.26,0,0,0-.22-1.13c-.27-.88-.58-1.75-.88-2.62l.64-.24c.57,1.35,1.15,2.69,1.72,4Z" />
            <path class="outline" d="M472.86,436.58v-3.14l1.39,2.21c0,.5.07,1,.1,1.5l-.46.06-.48-1.6Z" />
            <path class="outline"
                d="M328.05,429.35a2.39,2.39,0,0,1,.23-.51c.09-.1.28-.12.59-.24.1,1.92.2,3.74.3,5.57a6.64,6.64,0,0,1-.6-1.54c-.11-.78,0-1.58-.06-2.37A2.53,2.53,0,0,0,328.05,429.35Z" />
            <path class="outline" d="M395.19,434.43c0-1.78.75-2.86,2.06-2.86L396,434.35Z" />
            <path class="outline" d="M453.09,433.9c.3.89.61,1.78.91,2.66a9.81,9.81,0,0,1-2.13-5.53Z" />
            <path class="outline"
                d="M344.12,426.94l5.06-.19c-.09.13-.17.36-.26.36C347.32,427.07,345.72,427,344.12,426.94Z" />
            <path class="transparent"
                d="M396,434.35l1.23-2.78h.32a2.88,2.88,0,0,1-.13,1.2,11.54,11.54,0,0,1-1.26,1.55h-.09Z" />
            <path class="outline"
                d="M466.49,435.59c-.09-.49-.18-1-.26-1.46-.09-.82-.18-1.63-.26-2.44l.29-.08c.29.79.59,1.59.89,2.39Z" />
            <path class="outline" d="M393.79,430.49l-4.29,0Z" />
            <path class="outline" d="M467,430l-4.34-1.39Z" />
            <path class="outline" d="M354.7,435.6l1.37-1.81.42.32-1.23,2.05C355.07,436,354.89,435.78,354.7,435.6Z" />
            <path class="outline"
                d="M348.27,437.22l2.81.28c-.41.44-2.91.71-3.19.31C347.84,437.74,348.14,437.43,348.27,437.22Z" />
            <path class="outline" d="M451,428.93l.65,1.37c-.25.32-.5.65-.76,1h-.22l0-1.92Z" />
            <path class="outline"
                d="M327.09,426.93l-1.31-.21c0,.59-.07,1.12-.1,1.65-1.06-.52-.53-1.41-.16-1.84C326,425.94,326.69,426.27,327.09,426.93Z" />
            <path class="outline" d="M444.88,436.89l2.44.12a9.94,9.94,0,0,0-1.08.25,6.84,6.84,0,0,0-.81.41h-.53Z" />
            <path class="outline" d="M355.87,426.74l2.9.18C357.78,427.24,356.79,427.58,355.87,426.74Z" />
            <path class="outline" d="M471.33,430.76l2.65.31A1.78,1.78,0,0,1,471.33,430.76Z" />
            <path class="outline" d="M362.35,427.2l2.42.19C363.93,427.72,363.09,428.07,362.35,427.2Z" />
            <path class="outline" d="M440.82,427.33l-2.39.16Z" />
            <path class="outline" d="M456.47,427.5l-2.17-.16Z" />
            <path class="color-shadow" d="M363.69,431c.05.65.09,1.29.14,1.94C363.78,432.29,363.74,431.65,363.69,431Z" />
            <path class="outline" d="M432.43,427.85l-1.67.08Z" />
            <path class="outline" d="M427.63,428.1l-1.67.08Z" />
            <path class="outline" d="M360,427l1.7.18C361,427.51,360.44,427.73,360,427Z" />
            <path class="outline" d="M468,438.92l1.69.12C469.07,439.53,468.48,439.8,468,438.92Z" />
            <path class="outline" d="M455,437.57l1.06-.32.26.6Z" />
            <path class="outline" d="M382.31,430.13l-1.7-.11Z" />
            <path class="outline" d="M458.63,427.76l-1.68-.2Z" />
            <path class="outline" d="M462.23,428.48l-1.7-.39Z" />
            <path class="outline" d="M334.75,426.74l1.45.19Z" />
            <path class="outline" d="M339.87,436.29c0-.48-.06-1-.08-1.43C339.81,435.34,339.84,435.81,339.87,436.29Z" />
            <path class="outline" d="M385.17,430.33l-1.44-.07Z" />
            <path class="outline" d="M449.22,437.09l1.47.15Z" />
            <path class="outline" d="M474.6,432.79l-1.13-.49C474.13,431.83,474.66,431.64,474.6,432.79Z" />
            <path class="outline" d="M449.94,426.29l1.53.36Z" />
            <path class="outline" d="M472.77,432.29l-1.55-.44Z" />
            <path class="outline" d="M441,426.64l1.3-.31Z" />
            <path class="outline" d="M379.43,429.9l-1.22-.13Z" />
            <path class="color-shadow" d="M362.48,433l0-1.25Z" />
            <path class="outline" d="M325.6,431.49c-.06.4-.12.81-.19,1.21C324.92,432.34,325,432,325.6,431.49Z" />
            <path class="outline" d="M470.48,438.08l-.39-.84.31-.19.48.66Z" />
            <path class="outline" d="M332.84,427.91l-1.21-.17C332.1,427.35,332.53,427.18,332.84,427.91Z" />
            <path class="outline" d="M325.2,434.82l1.16.47C325.77,435.63,325.38,435.47,325.2,434.82Z" />
            <path class="outline" d="M424,428.32l-1.19.09Z" />
            <path class="outline" d="M343.17,428l-1.23.13Z" />
            <path class="color-shadow" d="M325.12,421.42l1.25-.17-.46.13Z" />
            <path class="outline" d="M455.69,436.06l-.14-.66.26-.11.65.76Z" />
            <path class="color-shadow" d="M362.87,429.87l.45-.49c.1.23.2.45.29.67Z" />
            <path class="outline" d="M330.92,427.67l-1-.18C330.36,427.09,330.71,427,330.92,427.67Z" />
            <path class="color-shadow"
                d="M362.55,431.25c.07-.32.13-.64.19-1C362.68,430.61,362.62,430.93,362.55,431.25Z" />
            <path class="outline" d="M460.07,428l-1-.18Z" />
            <path class="outline"
                d="M325.67,430.08c0,.32,0,.63,0,.95-.14-.19-.35-.35-.41-.56S325.51,430.21,325.67,430.08Z" />
            <path class="outline" d="M421.39,428.57l-.95.09Z" />
            <path class="outline" d="M333.3,426.51l1,.18Z" />
            <path class="outline" d="M415.77,429.22l-1.12.18Z" />
            <path class="outline" d="M339.72,437.92c.08-.31.15-.62.23-.93C340.44,437.44,340.52,437.79,339.72,437.92Z" />
            <path class="color-shadow" d="M450.67,431.27h.22c0,.32,0,.65,0,1Z" />
            <path class="outline" d="M464.57,438.78l.75.15Z" />
            <path class="color-shadow" d="M451.33,434.41c-.07-.25-.13-.5-.2-.74h.25l.09.45Z" />
            <path class="outline" d="M474.34,434.9l.11-.75Z" />
            <path class="outline" d="M408.43,430l-.71.05Z" />
            <path class="outline" d="M377.27,429.64l-.74-.1Z" />
            <path class="color-shadow" d="M373.89,429.32l-.75-.07Z" />
            <path class="outline" d="M467.74,436.54c.05.25.09.5.14.75C467.83,437,467.79,436.79,467.74,436.54Z" />
            <path class="outline" d="M417.31,429.05l-.71.09Z" />
            <path class="outline" d="M419.61,428.73l-.85.15Z" />
            <path class="outline" d="M472.55,438.72c.08-.24.15-.49.23-.73C472.7,438.23,472.63,438.48,472.55,438.72Z" />
            <path class="outline" d="M338.37,428.22h0Z" />
            <path class="outline" d="M361.18,428.09l-.75-.11Z" />
            <path class="outline" d="M334.3,428.1l-.75-.13Z" />
            <path class="outline" d="M436.51,427.62l-.71.07Z" />
            <path class="outline" d="M329.48,427.42l-.73-.16Z" />
            <path class="outline" d="M468.71,430.7l-.76-.14a.85.85,0,0,1,0-.23Z" />
            <path class="outline" d="M452.25,435.93l-.38-.1v-.48Z" />
            <path class="outline" d="M451.33,434.41l.14-.29c.09.22.17.44.26.65Z" />
            <path class="outline" d="M349.17,427.75l-.51.08Z" />
            <path class="outline" d="M474.84,440.32l-.64.28Z" />
            <path class="outline" d="M376.05,434.38h-.26c0-.17,0-.33,0-.49l.54-.07.12.42Z" />
            <path class="outline" d="M451.38,433.67h-.25l.06-.5C451.25,433.34,451.32,433.51,451.38,433.67Z" />
            <path class="outline" d="M461.46,438.3l.51.12Z" />
            <path class="outline" d="M325.35,433.17c0,.16-.08.33-.13.5C325.27,433.5,325.31,433.33,325.35,433.17Z" />
            <path class="outline" d="M451.09,432.72c0-.18-.07-.35-.11-.52C451,432.37,451.06,432.54,451.09,432.72Z" />
            <path class="outline" d="M328.05,427.16l-.5-.15Z" />
            <path class="outline" d="M467.5,435.1c.05.17.09.34.14.51C467.59,435.44,467.55,435.27,467.5,435.1Z" />
            <path class="outline" d="M346,437.89l.57-.13Z" />
            <path class="outline" d="M460,438.08l.52.11Z" />
            <path class="outline" d="M413.24,429.56l-.48,0Z" />
            <path class="outline" d="M327.07,435.3l.21-.2c.05.11.09.23.14.35Z" />
            <path class="outline"
                d="M458.4,424.82c2.51.14,5,.26,7.52.45a6,6,0,0,1,1.53.52c-.18.21-.39.62-.54.6-2.76-.37-5.52-.78-8.27-1.21C458.54,425.16,458.48,424.94,458.4,424.82Z" />
            <path class="outline" d="M333.46,425.37l.59.35Z" />
            <path class="outline" d="M336.9,426h0Z" />
            <path class="outline" d="M467.83,425.86l.19.13A.29.29,0,0,1,467.83,425.86Z" />
            <path class="transparent"
                d="M410,473.55l.24.27c-.36.28-.71.74-1.09.78s-.76-.43-.93-.78c-2.47-5-3.52-10.37-4.39-15.81-.35-2.19-.77-4.38-1.11-6.57a19.65,19.65,0,0,1-.1-2.18l0-2.65.44.06c.44,3,.7,6,1.35,9,.8,3.68,1.92,7.29,2.93,10.93.24.88.57,1.74.86,2.61Z" />
            <path class="color-shadow"
                d="M408.41,435.13c1.59-.25,3.18-.57,4.78-.71,2-.17,4-.19,6-.28.21.88.43,1.75.62,2.55-.2.17-.25.26-.31.26-2.82.13-5.64.33-8.46.32C409.78,437.27,409,436.21,408.41,435.13Z" />
            <path class="outline"
                d="M403.58,435.87l-.17-2.13,1,.67c.58,1,1.14,2,1.75,2.92.14.2.48.27.72.4.74.76,1.65,1.42,1.61,2.65l-.58-.49a2.15,2.15,0,0,0,.17,1.19c.48,1.42,1,2.82,1.38,4.26.1.36-.31.93-.62,1.27-.09.09-.8-.22-1-.5a12.18,12.18,0,0,1-1.51-2.12,22.26,22.26,0,0,1-2.36-6.52Zm4.36,8.12c-1.82-5.48-1.82-5.48-2.78-5.42C405.36,440.5,407,443.77,407.94,444Z" />
            <path class="color-shadow"
                d="M426.57,433.79l-.65-1.36a1.6,1.6,0,0,1,.38-.06c1.17,1.55,2.8,1.69,4.56,1.55a17.24,17.24,0,0,1,2.49,0c1,.05,1.87,0,2.36-1,0,.41-.11.82-.16,1.22l-.16.51-.08.45-.15.51-.09.45-.2.5a34,34,0,0,1-4.83.11c-.62-.06-1.15-1-1.72-1.54-.13-.19-.27-.37-.4-.55Z" />
            <path class="color-shadow"
                d="M420.7,434.14l5.91-.15c.39.76.77,1.52,1.15,2.28l-.12.51c-1.58,0-3.17-.08-4.74.07a1.59,1.59,0,0,1-2-1.55Z" />
            <path class="color-shadow"
                d="M436.85,433.64h3.22c0,.34-.08.68-.13,1l-.07.45c-.24.57-.47,1.13-.71,1.69l-.46,0-.76,0-1.66-.11c.09-.68.18-1.28.26-1.87l.12-.52Z" />
            <path class="transparent"
                d="M406.06,435.1c-.35-.69-.75-1.37-1.05-2.09a4.39,4.39,0,0,1-.17-1.16,2.66,2.66,0,0,1,1.61,3.09C406.44,435,406.2,435.05,406.06,435.1Z" />
            <path class="outline" d="M407.56,435.63l1.3,1.77c-.27.1-.67.29-.7.24-.37-.58-.69-1.2-1-1.81Z" />
            <path class="color-base" d="M403.89,437.47l-.39.08c-.08-.21-.15-.41-.23-.61s-.21-.42-.32-.62l.63-.45Z" />
            <path class="outline" d="M436.08,431.52l.28-.54.41.52Z" />
            <path class="outline" d="M427.92,434.58c.13.18.27.36.4.55C428.19,434.94,428.05,434.76,427.92,434.58Z" />
            <path class="outline" d="M436.66,434.35l-.12.52Z" />
            <path class="outline" d="M435.39,434.65l.16-.51Z" />
            <path class="outline" d="M427.64,436.78l.12-.51.27.33Z" />
            <path class="outline" d="M409.11,441.45l-.41-.59Z" />
            <path class="outline" d="M434.87,436.56l.2-.5Z" />
            <path class="outline" d="M435.85,432.72c0-.17.08-.34.11-.51C435.93,432.38,435.89,432.55,435.85,432.72Z" />
            <path class="outline" d="M435.16,435.61l.15-.51Z" />
            <path class="outline" d="M403,436.32c.11.2.21.41.32.62L403,437Z" />
            <path class="color-shadow" d="M409.2,438.19l-.26,0L409,438Z" />
            <path class="color-shadow" d="M334.85,420.85l.12.59Z" />
            <path class="outline"
                d="M439.16,436.79c.24-.56.47-1.12.71-1.69C440.13,436.18,439.91,436.72,439.16,436.79Z" />
            <path class="outline"
                d="M441.41,436.28l.15.5c-1-.25-.85-1-.65-1.69C441.08,435.49,441.24,435.89,441.41,436.28Z" />
            <path class="outline" d="M439.94,434.65c.05-.33.09-.67.13-1l.61.23c0,.16-.05.33-.07.49Z" />
            <path class="color-shadow" d="M440.61,434.36c0-.16,0-.33.07-.49.05.17.1.35.16.52h-.12Z" />
            <path class="color-shadow" d="M451,428.93l-.31.42Z" />
            <path class="color-shadow" d="M376.31,433.83l-.54.07-.32-.32Z" />
            <path class="color-base" d="M339.82,431l-.21,1.72-3.43-.88,0-.47Z" />
            <path class="outline"
                d="M400.05,433.74a14.55,14.55,0,0,1-.79,2,54.9,54.9,0,0,1-3.5,5.88,75.11,75.11,0,0,1-5.52,6.33c-.36.39-1.17.37-1.77.54,0-.63-.22-1.39,0-1.87a35.23,35.23,0,0,1,3.5-5.54c2.13-2.52,4.54-4.8,6.84-7.17a1.12,1.12,0,0,1,.59-.36A1.73,1.73,0,0,1,400.05,433.74ZM390.91,445l-1.22,1.6.41.32,1.1-1.35a35.21,35.21,0,0,0,5.31-7C395.35,438.56,392.47,442,390.91,445Zm5.48-7.52.45.37,1.48-2-.29-.24Z" />
            <path class="transparent"
                d="M390.91,445c1.56-3,4.44-6.39,5.6-6.45a35.21,35.21,0,0,1-5.31,7C391.1,445.33,391,445.14,390.91,445Z" />
            <path class="outline" d="M396.39,437.43l1.64-1.84.29.24-1.48,2Z" />
        </g>
    </g>
</svg>
