<svg id="Nizy_classic" data-name="Nizy classic" xmlns="http://www.w3.org/2000/svg" viewBox="0 0 672 960">
    <g id="img_35" data-name="img 35">
        <g id="img_32_img" data-name="img 32 img">
            <path class="outline"
                d="M317.53,449l.14-.65.12-.64.14-.64.1-.47.11-.41.16-.64.1-.4.1-.47.12-.41.64-2.07L320,440l1.65-5,.49-1.3a10.49,10.49,0,0,0,.64-1.36c1.1-3.34,2.17-6.69,3.28-10a4.58,4.58,0,0,1,.7-1c.35.28.7.55,1,.85a10.74,10.74,0,0,0,1.91,1.74,19.57,19.57,0,0,0,9.84,2.69c5.3-.18,10.6-.55,15.9-.89,3.22-.21,6.44-.69,9.66-.72,3.39,0,6.78.32,10.16.5,2.2.11,4.4.14,6.59.32,3.73.29,7.46.92,11.2,1,8.32.09,16.63,0,25-.18,3.46-.07,6.94-.37,10.39-.71,3.1-.3,6.17-.87,9.26-1.18,4.33-.42,8.67-.81,13-1a41.47,41.47,0,0,1,7.88.22,82.33,82.33,0,0,1,9.09,2.08,33.19,33.19,0,0,1,4.84,1.73c.8.35,1.32.46,1.84-.31.11-.17.35-.25.57-.4a2.15,2.15,0,0,1,.31.45q4,11.08,8,22.19a2.44,2.44,0,0,1-.79,2.92c-1.06.84-2.2,1.57-3.31,2.35a36.7,36.7,0,0,1-11.95,5.91,66.52,66.52,0,0,0-9,3.26,2.32,2.32,0,0,0-1.26,3.61c1.47,2.56,1.17,3.23-1.71,3.75a4.3,4.3,0,0,1-.95.07c-5.22-.27-10.47-.32-15.66-.88-4.35-.47-8.49-1.8-11.84-5a5.56,5.56,0,0,0-3.12-1.32,47.75,47.75,0,0,0-6,.06c-1.8.06-3.59.27-5.38.28-2.52,0-5-.22-7.55-.13a47.81,47.81,0,0,0-6.05.74c-.85.15-1.8.37-2.14,1.35,1.11.84,2.18,1.57,3.16,2.42a1.37,1.37,0,0,1-.11,2.31,15.34,15.34,0,0,1-3.22,1.54c-3.61,1.17-7.31,1-11,.72a38.9,38.9,0,0,1-12.88-3c-2.36-1.07-4.75-2.09-7.17-3a12.41,12.41,0,0,0-2.75-.4l-.42-.07-1-.16-.66-.07-1.5-.18-1.45-.12-1.91-.12-2.41-.11-1.91-.14-1.93-.09c-.76-.11-1.52-.24-2.28-.28-.12,0-.27.45-.4.69l-.91,1.71-.52.39-.85.43-3,.69-.43.07h-4.54l-.65-.11-3-.69-.6-.22-.61-.24-2.29-1.14-1-.61a.78.78,0,0,1-.18-.11l-.54-.38-.81-.92-.19-.55,0-.91-.65-.75-1.63-1.06-.56-.35-.63-.37-.57-.34-1.11-.62-1-.6L318,458.55l-1-.59-1.34-1.75v-1.66l.3-1.15.3-.58.93-2.29.17-.54.11-.41Zm44-14.15.1-1.94.09-4.34v-1.46c-1.25.16-2.31.33-3.37.43-2.07.2-4.14.32-6.19.57-.56.06-1.46.36-1.54.71-.46,1.89-.7,3.83-1,5.75l0,.59a3.32,3.32,0,0,1-.35-1.08c0-1.56.1-3.12.25-4.67.09-1-.33-1.13-1.18-1.05-2.11.2-4.21.39-6.32.46-.89,0-1.3.33-1.48,1.19-.22,1.08-.55,2.15-.83,3.23a20.62,20.62,0,0,1,0-3.14c0-.42-.15-1.1-.41-1.21a1.14,1.14,0,0,0-1.62.76,9.59,9.59,0,0,1-.68,1.36,1.93,1.93,0,0,1-.09-1.28c.34-.85.07-1.09-.78-1.24a26.29,26.29,0,0,1-3.57-1c-1.89-.63-2-.61-2.56,1.33l-.1.34-.36.63a.16.16,0,0,0,0,.16,5.19,5.19,0,0,0-.68.9c-.74,1.71-1.45,3.43-2.18,5.15-.3.71-.63,1.4-.95,2.11a6.17,6.17,0,0,1,.41-2.5c1.09-2.77,2.26-5.5,3.33-8.28a1.4,1.4,0,0,0-.19-1.25,15.66,15.66,0,0,0-2.13-1.44c-.35.89-.7,1.68-1,2.49-1.5,4.68-3.05,9.35-4.45,14-1,3.51-2.91,6.77-3.14,10.52a9.84,9.84,0,0,1-.66,2.53,1.45,1.45,0,0,0,.74,2.09c.67.34,1.31.76,2,1.15l7.47,4.43,3.83-10.19.36.11c-.28,1.31-.48,2.63-.85,3.91-.71,2.5-1.51,5-2.29,7.45-.28.89-.29,1.64.76,2.05a49.34,49.34,0,0,0,5.54,2.18,14.53,14.53,0,0,0,7.92-.31c.49-.15,1.17-.54,1.27-.94a37.14,37.14,0,0,0,.53-4l.1-.7.14-.74.08-.46.1-.51.15-.93.79-4.35.35-2.36.7-.86c0,.54,0,.94,0,1.33q-.45,5.06-.93,10.11c-.07.71.05,1.13.91,1.16,3.06.14,6.13.3,9.19.53,4.11.3,8.2.76,12,2.45,2,.91,4,2,6.1,2.8a38.39,38.39,0,0,0,12,2.37,23.67,23.67,0,0,0,9.82-1,7.44,7.44,0,0,0,1.52-1,9.32,9.32,0,0,0-1.33-1.11c-2.06-1.15-3.11-2.79-2.72-5.2.2-1.22.38-2.45.58-3.67q.76-4.58,1.55-9.15l1.17-4.32a32.85,32.85,0,0,1,.17,4.2c-.18,2.5-.53,5-.84,7.49-.23,1.92-.49,3.84-.75,5.78a1.63,1.63,0,0,0,.47.05c3.79-1.44,7.74-1.43,11.7-1.36,2.28,0,4.55.16,6.82.12s4.55-.32,6.82-.32,4.27.34,5.84,2c2.65,2.79,6.14,3.86,9.69,4.59a60,60,0,0,0,8.79.93c2.75.15,5.52.08,8.27.08.54,0,1.27,0,1.05-.87-.32-1.26-.74-2.5-1.11-3.76l-.1-.45-.14-.5-.09-.46c-.46-2.21-.88-4.42-1.38-6.61-.6-2.61-1.27-5.21-1.91-7.81l-.07-.46-.13-.51-.13-.69-.13-.51-.7-3.33c.21.15.53.26.61.46.41,1,.8,2.09,1.11,3.16,1.43,4.86,2.83,9.73,4.25,14.6.11.36.29.71.45,1.11l3.29-2.12,4.15-1.64a50.57,50.57,0,0,0,7.13-2.39c3.84-1.93,7.49-4.23,11.19-6.44a1.46,1.46,0,0,0,.44-1.28,24.25,24.25,0,0,0-1.18-3.52c-1.9-4.52-3.9-9-5.73-13.56-.59-1.45-1.09-2.71-2.8-3.16a24.18,24.18,0,0,1-3.35-1.39l-.3.34,5.42,9.81-.36.2a70,70,0,0,1-6.94-10.12c-.38-.73-.78-1.31-1.88-1l.48,6.81a46.1,46.1,0,0,1-1.85-6.4,1.62,1.62,0,0,0-1.45-1.49q-3.78-.49-7.58-1c-.88-.11-1.18.31-1.19,1.19,0,2.07-.11,4.15-.19,6.22a7.9,7.9,0,0,1-.12.83h-.31c-.23-2.3-.5-4.59-.67-6.89-.06-.88-.35-1.21-1.23-1.14-2.35.16-4.7.35-7.05.39-1.33,0-1.5.67-1.39,1.75s.15,2.15.22,3.23l-.37,0c-.3-1.23-.65-2.44-.88-3.68-.15-.81-.52-1.09-1.3-1l-6.3.75c-.68.08-.87.41-.63,1.07.45,1.28.84,2.57,1.25,3.86l-.37.18c-.51-1-1.06-2.07-1.53-3.12-.74-1.64-.72-1.65-2.41-1.11a1.25,1.25,0,0,1-.34,0c-2.65.15-5.31.24-8,.45-1.6.13-1.84.58-1.56,2.17.36,2.05.74,4.09,1,6.15.38,2.6.7,5.2,1,7.81,0,.2-.25.43-.39.65a.1.1,0,0,0,0-.15.14.14,0,0,0,0-.18l-.61-3.13-.11-.51-.13-.69-.11-.51-.12-.69-.12-.51-.87-4.29-.12-.51-.12-.69c-.24-1.28-.51-2.56-.71-3.85-.12-.7-.48-.89-1.16-.88-1.87,0-3.75,0-5.63,0-.79,0-1.15.24-1.05,1.14a23.09,23.09,0,0,1,0,2.76l-.31,0a20.34,20.34,0,0,1-.45-2.76c0-.84-.41-1-1.12-1-1.76,0-3.52,0-5.28,0-4.47-.06-8.95-.15-13.42-.22-.34,0-.67.05-1.09.09l.13,2.39a1.84,1.84,0,0,1-.57-1.27c0-.89-.38-1.28-1.3-1.32a39.28,39.28,0,0,1-4-.35c-.71-.09-.92.17-1,.79q-1.5,7.88-3,15.74a2.37,2.37,0,0,1-.43.7l.6-5.51.06-.51c.14-1.19.29-2.38.43-3.57l.06-.51.58-4.3c.13-.85.29-1.7.38-2.56,0-.17-.21-.52-.35-.53a13.29,13.29,0,0,0-3.55-.12c-.51.09-.87,1.13-1.22,1.77-.55,1-1,2-1.56,3l-.28-.13c.18-.76.36-1.52.56-2.28.69-2.61.69-2.58-1.94-2.69-.89,0-1.3.14-1.31,1.15a27.06,27.06,0,0,1-.42,3.33l-.39,0c.08-1.25.15-2.49.25-3.73.05-.59-.11-.91-.76-.92-1.79,0-3.58-.18-5.37-.16s-2,.24-2.17,2.12c-.36,3.93-.77,7.84-1.2,11.76,0,.23-.36.43-.55.64v-1.18l.34-1.1C361.4,437.74,361.45,436.31,361.51,434.88Z" />
            <path class="color-shadow"
                d="M362.61,467.19a12.41,12.41,0,0,1,2.75.4c2.42.92,4.81,1.94,7.17,3a38.9,38.9,0,0,0,12.88,3c3.72.32,7.42.45,11-.72a15.34,15.34,0,0,0,3.22-1.54,1.37,1.37,0,0,0,.11-2.31c-1-.85-2-1.58-3.16-2.42.34-1,1.29-1.2,2.14-1.35a47.81,47.81,0,0,1,6.05-.74c2.51-.09,5,.14,7.55.13,1.79,0,3.58-.22,5.38-.28a47.75,47.75,0,0,1,6-.06,5.56,5.56,0,0,1,3.12,1.32c3.35,3.17,7.49,4.5,11.84,5,5.19.56,10.44.61,15.66.88a4.3,4.3,0,0,0,.95-.07c2.88-.52,3.18-1.19,1.71-3.75a2.32,2.32,0,0,1,1.26-3.61,66.52,66.52,0,0,1,9-3.26,36.7,36.7,0,0,0,11.95-5.91c1.11-.78,2.25-1.51,3.31-2.35a2.44,2.44,0,0,0,.79-2.92q-4-11.11-8-22.19a2.15,2.15,0,0,0-.31-.45c-.22.15-.46.23-.57.4-.52.77-1,.66-1.84.31a33.19,33.19,0,0,0-4.84-1.73,82.33,82.33,0,0,0-9.09-2.08,41.47,41.47,0,0,0-7.88-.22c-4.34.21-8.68.6-13,1-3.09.31-6.16.88-9.26,1.18-3.45.34-6.93.64-10.39.71-8.32.15-16.63.27-25,.18-3.74,0-7.47-.68-11.2-1-2.19-.18-4.39-.21-6.59-.32-3.38-.18-6.77-.54-10.16-.5-3.22,0-6.44.51-9.66.72-5.3.34-10.6.71-15.9.89a19.57,19.57,0,0,1-9.84-2.69,10.74,10.74,0,0,1-1.91-1.74c-.33-.3-.68-.57-1-.85a4.58,4.58,0,0,0-.7,1c-1.11,3.34-2.18,6.69-3.28,10a10.49,10.49,0,0,1-.64,1.36,5.39,5.39,0,0,1,.13-.91c1.12-3.55,2.23-7.1,3.41-10.63a2.17,2.17,0,0,1,1.14-1.31c.3-.1.88.6,1.3,1a11.63,11.63,0,0,0,2,1.8,21.78,21.78,0,0,0,10,2.58c6.77.08,13.46-1,20.19-1.4,3.82-.24,7.66-.11,11.49,0,2.36,0,4.71.23,7.06.42,2.59.2,5.17.48,7.75.73a207.33,207.33,0,0,0,25,.4c5.2-.12,10.39-.45,15.57-.83,2.78-.21,5.54-.84,8.32-1.05,6.65-.51,13.3-1,20-1.25a28.81,28.81,0,0,1,7.65,1.22c3.33.83,6.57,2,9.86,2.94a1.25,1.25,0,0,0,1-.42c.92-1,1.13-1,1.57.24,2,5.37,3.86,10.76,5.8,16.13.64,1.77,1.3,3.52,2,5.28.93,2.42.52,3.86-1.65,5.22-3.15,2-6.27,4-9.54,5.75a40.43,40.43,0,0,1-5.65,1.94c-2.45.86-4.89,1.73-7.31,2.66a6.09,6.09,0,0,0-1.59,1.05,1.42,1.42,0,0,0-.26,2.2c.15.19.29.39.42.59,1.13,1.7.65,3.24-1.34,3.62a22.92,22.92,0,0,1-5.36.35c-4.19-.2-8.39-.39-12.55-.93-4.31-.56-8.44-1.8-11.74-4.93a5.5,5.5,0,0,0-4-1.46c-1.91,0-3.83.18-5.74.2-3.72.05-7.44-.07-11.15.09-2.5.11-5,.58-7.47.91a3.27,3.27,0,0,0-.88.34c-.1.05-.16.17-.34.37.65.43,1.28.82,1.89,1.24,2.2,1.54,2.18,3.5-.3,4.53a21.36,21.36,0,0,1-6.66,1.78,42.51,42.51,0,0,1-18.38-2.54c-2.16-.83-4.2-2-6.35-2.84C365.9,468.11,364.24,467.7,362.61,467.19Z" />
            <path class="color-shadow" d="M336.45,469.84h0Z" />
            <path class="color-shadow" d="M321.69,435,320,440Z" />
            <path class="color-shadow" d="M346.72,466.54c.13-.24.28-.69.4-.69.76,0,1.52.17,2.28.28Z" />
            <path class="color-shadow" d="M341.42,469.76l3-.69Z" />
            <path class="color-shadow" d="M332.78,469l3,.69Z" />
            <path class="color-shadow" d="M355.65,466.47l1.91.12Z" />
            <path class="color-shadow" d="M351.33,466.22l1.91.14Z" />
            <path class="color-shadow" d="M315.61,454.55v0Z" />
            <path class="color-shadow" d="M319.26,442.23l-.64,2.07Z" />
            <path class="color-shadow" d="M359,466.71l1.5.18Z" />
            <path class="color-shadow" d="M328.26,466.83l1,.61Z" />
            <path class="color-shadow" d="M361.17,467l1,.16Z" />
            <path class="color-shadow" d="M317,458l1,.59Z" />
            <path class="color-shadow" d="M320.33,459.87l1,.6Z" />
            <path class="color-shadow" d="M325.87,463.21l.65.75Z" />
            <path class="color-shadow" d="M316.21,452.82l-.3.58Z" />
            <path class="color-shadow" d="M317.79,447.74l-.12.64Z" />
            <path class="color-shadow" d="M317.31,450l-.17.54Z" />
            <path class="color-shadow" d="M322.48,461.09l.57.34Z" />
            <path class="color-shadow" d="M323.68,461.8l.56.35Z" />
            <path class="color-shadow" d="M318,446.63l-.1.47Z" />
            <path class="color-shadow" d="M318.3,445.58l-.16.64Z" />
            <path class="color-shadow" d="M318.5,444.71l-.1.47Z" />
            <path class="color-shadow" d="M327.54,466.34l.54.38Z" />
            <path class="color-shadow" d="M317.53,449l-.11.55Z" />
            <path class="color-shadow" d="M345.29,468.64l.52-.39Z" />
            <path class="color-shadow" d="M331.57,468.58l.61.24Z" />
            <path class="color-shadow" d="M326.54,464.87l.19.55Z" />
            <path class="color-base"
                d="M346.78,452.17c-.12.79-.23,1.57-.35,2.36a5.28,5.28,0,0,0-.49,1.22c-.15,1-.2,2.09-.3,3.13l-.15.93c0,.17-.07.34-.1.51l-.08.46c-.05.25-.09.5-.14.74s-.07.47-.1.7c-1,1.74-2.7,1.44-4.29,1.45a20.59,20.59,0,0,0-3.24.05,9.62,9.62,0,0,1-5.05-1c-.76-.28-.94-.85-.78-1.64.94-4.39,1.87-8.78,2.71-13.19a6.6,6.6,0,0,0-.17-2.93c-.26-.94-.86-.95-1.41-.16a16.56,16.56,0,0,0-1.19,1.92c-1.65,3.19-3.26,6.39-4.89,9.59-.13.25-.27.48-.27.48-1.71-1.41-3.22-2.68-4.75-3.9a1.43,1.43,0,0,1-.41-2.2,42.65,42.65,0,0,0,3-6.23c1.43-3.72,2.64-7.52,3.95-11.28.37-1.08.75-2.15,1.12-3.23a.16.16,0,0,1,0-.16l.36-.63c0-.12.07-.23.1-.34a31.68,31.68,0,0,1,6.78,3l.84-.27a6.52,6.52,0,0,1,.34,1.2c.12,1.07.12,2.15.28,3.2a1.31,1.31,0,0,0,.73.93,1.21,1.21,0,0,0,1-.51c.51-1.06.86-2.19,1.33-3.27.17-.41.45-1,.76-1.08a48.66,48.66,0,0,1,5-.52c.23,0,.7.5.7.77,0,1.35-.14,2.7-.15,4.05a22.25,22.25,0,0,0,.3,2.51l.75-.45c1.27-.79.76-2.12,1-3.23l0-.59c.17-.12.44-.21.5-.38.36-1,.62-2,1-2.93.16-.38.53-.88.89-1,3.22-.62,6.47-1.17,9.71-1.74l-.09,4.34a1.26,1.26,0,0,0-.1,1.94c-.06,1.43-.11,2.86-.16,4.29-.11.37-.23.74-.34,1.1s0,.79,0,1.18a1.51,1.51,0,0,0-.06.36c0,.55-.28,1.28.62,1.43s1-.62,1.15-1.2a19.49,19.49,0,0,0,.59-2.91c.29-2.84.47-5.69.76-8.53.08-.8.32-2.22.59-2.24a10.36,10.36,0,0,1,3.71.4c.3.08.33,1.15.48,1.77s.08,1.63.5,1.94a2.28,2.28,0,0,1,1,2.14,10.93,10.93,0,0,0,.21,1.88,1.44,1.44,0,0,0,2.1,1.14c.33-.12.72-.39,1-.3.73.24,1.05-.11,1.32-.65.85-1.74,1.68-3.5,2.56-5.23.26-.5.62-1.24,1-1.32.81-.15,1.85-.44,2.39.66-.2,1.44-.39,2.87-.58,4.3l-.06.51c-.14,1.19-.29,2.38-.43,3.57l-.06.51-.6,5.51-.73,4.22.47.18c.17-.34.33-.69.51-1a11.66,11.66,0,0,1,.76-1.39c.31-.45.71-.84,1.06-1.28,1.37-1.7,1.62-3.85,2.22-5.83.82-2.74,1.36-5.56,2.11-8.32.11-.39.77-.94,1.08-.89a2.21,2.21,0,0,1,1.14,1,3.87,3.87,0,0,1,.27,1.27c.21.9.39,2,1.57,1.91s1.06-1.19,1.06-2.06c0-1.74.16-2,1.82-1.71a60.35,60.35,0,0,0,11.15,1,1.43,1.43,0,0,1,1.1.67c.61,1.23.61,1.26,1.6.3a8.36,8.36,0,0,1,.61-.58c1.17-.89,2.18-.5,2.47.94.4,1.94.72,3.91,1.25,5.82.17.61.86,1.5,1.35,1.52.88.05,1.37-.82,1.44-1.73.11-1.47.21-2.94.25-4.41.07-3.25-.44-2.78,2.91-2.81,1.15,0,2.47-.35,3,1.21l.12.69.12.51.87,4.29.12.51.12.69c0,.17.08.34.11.51s.09.46.13.69.07.34.11.51c.2,1,.41,2.08.61,3.13l-.19.1.21.08a.1.1,0,0,1,0,.15,6.72,6.72,0,0,0,1,4.15,2.53,2.53,0,0,0,.33-1.45c-.18-1.62-.45-3.22-.63-4.84,0-.33.11-1,.29-1,1-.28,1-1.19,1-1.84-.14-2.21-.4-4.42-.73-6.62-.16-1,.17-1.4,1.14-1.47a46.82,46.82,0,0,0,5.69-.53c1.23-.25,1.52.34,1.89,1.17.77,1.72,1.49,3.45,2.37,5.11a15.53,15.53,0,0,0,2.08,2.9c.32.36,1.15.73,1.42.56.44-.27.65-1,.88-1.51a1.79,1.79,0,0,0,0-.83c-.36-2.24-.7-4.47-1.1-6.7-.14-.8.11-1.14.91-1.13.4,0,.8,0,1.2,0,.76-.05,1.12.2,1.23,1.05.23,1.77.57,3.53.95,5.27.2.9.39,2.14,1.59,2s1-1.3,1-2.14c.05-1.68.06-3.36,0-5,0-1,.28-1.45,1.35-1.4a31.15,31.15,0,0,0,4.43-.07c.75-.07,1,.15,1.23.76a29.69,29.69,0,0,0,1,3.08c.22.5.78.85,1.19,1.27.39-.49,1-.92,1.13-1.48a11.12,11.12,0,0,0,.27-2.72c0-.76.29-1.1,1.07-1.07,2.19.1,4.38.13,6.56.3a1.4,1.4,0,0,1,1,.93c.33,2,.49,4,.79,6a19.4,19.4,0,0,0,.85,3.71,2,2,0,0,0,1.38,1c.78.15,1.08-.47,1.12-1.21.05-1.15.13-2.3.22-3.45.07-1,.15-1.92.23-2.88l.35-.08c.3.34.61.68.9,1,2.06,2.4,3.46,5.37,6.27,7.11a1.29,1.29,0,0,1,.4.58c.76,1.61,1.41,3.27,2.28,4.81a1.58,1.58,0,0,1-.41,2.28,38.5,38.5,0,0,1-10.5,6.76,42.9,42.9,0,0,0-4.08,2.38l-4.15,1.64c-.35-.41-.85-.76-1-1.23-2-5.05-4-10.09-5.82-15.21a9.82,9.82,0,0,0-3.49-4.51l-.36.11,1,3.63c.24,1.11.47,2.22.7,3.33,0,.17.09.34.13.51s.08.46.13.69.08.34.13.51.05.31.07.46c-.07.33-.27.68-.2,1q1.39,6.27,2.88,12.52a3.31,3.31,0,0,0,.61.93l.09.46c.05.16.1.33.14.5s.07.3.1.45c-.23,1.48-1.27,1.53-2.45,1.46-3.13-.18-6.29-.18-9.4-.52a35.21,35.21,0,0,1-10-2.45,45.7,45.7,0,0,0-19.28-3.76c-1.47.05-2.93.24-4.4.22-2.79,0-5.57-.15-8.36-.21-1.67,0-1.89-.45-1.71-2.14a23.85,23.85,0,0,0-.07-7.68,13.55,13.55,0,0,1-.09-3.66c.14-2.3.39-4.59.58-6.88a2.25,2.25,0,0,0-.19-.68,3.69,3.69,0,0,0-.56,1.51c-.33,2-.63,3.91-1,5.86L396.23,451c-.33.37-.86.69-1,1.13q-2.07,7.59-4,15.21c-.19.72-.45,1.12-1.24,1.18A35.37,35.37,0,0,1,377.83,467c-2.79-.79-5.5-1.85-8.27-2.71-1.32-.42-2.78-.48-4-1a24.05,24.05,0,0,0-13-1.28c-2.15.29-2,.36-2-1.83q.12-7.4,0-14.81a3,3,0,0,0-1.31-2.89A27.71,27.71,0,0,0,346.78,452.17Z" />
            <path class="color-shadow"
                d="M463.4,459.81a42.9,42.9,0,0,1,4.08-2.38,38.5,38.5,0,0,0,10.5-6.76,1.58,1.58,0,0,0,.41-2.28c-.87-1.54-1.52-3.2-2.28-4.81a1.29,1.29,0,0,0-.4-.58c-2.81-1.74-4.21-4.71-6.27-7.11-.29-.34-.6-.68-.9-1l-.35.08c-.08,1-.16,1.92-.23,2.88-.09,1.15-.17,2.3-.22,3.45,0,.74-.34,1.36-1.12,1.21a2,2,0,0,1-1.38-1,19.4,19.4,0,0,1-.85-3.71c-.3-2-.46-4-.79-6a1.4,1.4,0,0,0-1-.93c-2.18-.17-4.37-.2-6.56-.3-.78,0-1.06.31-1.07,1.07a11.12,11.12,0,0,1-.27,2.72c-.16.56-.74,1-1.13,1.48-.41-.42-1-.77-1.19-1.27a29.69,29.69,0,0,1-1-3.08c-.19-.61-.48-.83-1.23-.76a31.15,31.15,0,0,1-4.43.07c-1.07-.05-1.39.38-1.35,1.4.06,1.68.05,3.36,0,5,0,.84.08,2-1,2.14s-1.39-1.11-1.59-2c-.38-1.74-.72-3.5-.95-5.27-.11-.85-.47-1.1-1.23-1.05-.4,0-.8,0-1.2,0-.8,0-1,.33-.91,1.13.4,2.23.74,4.46,1.1,6.7a1.79,1.79,0,0,1,0,.83c-.23.55-.44,1.24-.88,1.51-.27.17-1.1-.2-1.42-.56a15.53,15.53,0,0,1-2.08-2.9c-.88-1.66-1.6-3.39-2.37-5.11-.37-.83-.66-1.42-1.89-1.17a46.82,46.82,0,0,1-5.69.53c-1,.07-1.3.45-1.14,1.47.33,2.2.59,4.41.73,6.62,0,.65.05,1.56-1,1.84-.18,0-.33.68-.29,1,.18,1.62.45,3.22.63,4.84a2.53,2.53,0,0,1-.33,1.45,6.72,6.72,0,0,1-1-4.15c.14-.22.41-.45.39-.65-.32-2.61-.64-5.21-1-7.81-.3-2.06-.68-4.1-1-6.15-.28-1.59,0-2,1.56-2.17,2.66-.21,5.32-.3,8-.45a1.25,1.25,0,0,0,.34,0c1.69-.54,1.67-.53,2.41,1.11.47,1.05,1,2.08,1.53,3.12l.37-.18c-.41-1.29-.8-2.58-1.25-3.86-.24-.66-.05-1,.63-1.07l6.3-.75c.78-.09,1.15.19,1.3,1,.23,1.24.58,2.45.88,3.68l.37,0c-.07-1.08-.1-2.16-.22-3.23s.06-1.73,1.39-1.75c2.35,0,4.7-.23,7.05-.39.88-.07,1.17.26,1.23,1.14.17,2.3.44,4.59.67,6.89h.31a7.9,7.9,0,0,0,.12-.83c.08-2.07.18-4.15.19-6.22,0-.88.31-1.3,1.19-1.19q3.8.47,7.58,1a1.62,1.62,0,0,1,1.45,1.49,46.1,46.1,0,0,0,1.85,6.4l-.48-6.81c1.1-.3,1.5.28,1.88,1a70,70,0,0,0,6.94,10.12l.36-.2-5.42-9.81.3-.34a24.18,24.18,0,0,0,3.35,1.39c1.71.45,2.21,1.71,2.8,3.16,1.83,4.55,3.83,9,5.73,13.56a24.25,24.25,0,0,1,1.18,3.52,1.46,1.46,0,0,1-.44,1.28c-3.7,2.21-7.35,4.51-11.19,6.44A50.57,50.57,0,0,1,463.4,459.81Z" />
            <path class="color-shadow"
                d="M329.43,430c-.37,1.08-.75,2.15-1.12,3.23-1.31,3.76-2.52,7.56-3.95,11.28a42.65,42.65,0,0,1-3,6.23,1.43,1.43,0,0,0,.41,2.2c1.53,1.22,3,2.49,4.75,3.9,0,0,.14-.23.27-.48,1.63-3.2,3.24-6.4,4.89-9.59a16.56,16.56,0,0,1,1.19-1.92c.55-.79,1.15-.78,1.41.16a6.6,6.6,0,0,1,.17,2.93c-.84,4.41-1.77,8.8-2.71,13.19-.16.79,0,1.36.78,1.64a9.62,9.62,0,0,0,5.05,1,20.59,20.59,0,0,1,3.24-.05c1.59,0,3.28.29,4.29-1.45a37.14,37.14,0,0,1-.53,4c-.1.4-.78.79-1.27.94a14.53,14.53,0,0,1-7.92.31,49.34,49.34,0,0,1-5.54-2.18c-1.05-.41-1-1.16-.76-2.05.78-2.48,1.58-4.95,2.29-7.45.37-1.28.57-2.6.85-3.91l-.36-.11L328,461.93l-7.47-4.43c-.65-.39-1.29-.81-2-1.15a1.45,1.45,0,0,1-.74-2.09,9.84,9.84,0,0,0,.66-2.53c.23-3.75,2.1-7,3.14-10.52,1.4-4.7,2.95-9.37,4.45-14,.26-.81.61-1.6,1-2.49a15.66,15.66,0,0,1,2.13,1.44,1.4,1.4,0,0,1,.19,1.25c-1.07,2.78-2.24,5.51-3.33,8.28a6.17,6.17,0,0,0-.41,2.5c.32-.71.65-1.4.95-2.11.73-1.72,1.44-3.44,2.18-5.15A5.19,5.19,0,0,1,329.43,430Zm-4.1,8.81-.21-.06-.16.53.2.06Z" />
            <path class="color-shadow"
                d="M346.78,452.17a27.71,27.71,0,0,1,2.46-9.7,3,3,0,0,1,1.31,2.89q.13,7.41,0,14.81c0,2.19-.16,2.12,2,1.83a24.05,24.05,0,0,1,13,1.28c1.26.53,2.72.59,4,1,2.77.86,5.48,1.92,8.27,2.71A35.37,35.37,0,0,0,390,468.48c.79-.06,1-.46,1.24-1.18q2-7.62,4-15.21c.12-.44.65-.76,1-1.13q-.78,4.57-1.55,9.15c-.2,1.22-.38,2.45-.58,3.67-.39,2.41.66,4.05,2.72,5.2a9.32,9.32,0,0,1,1.33,1.11,7.44,7.44,0,0,1-1.52,1,23.67,23.67,0,0,1-9.82,1,38.39,38.39,0,0,1-12-2.37c-2.07-.84-4.06-1.89-6.1-2.8-3.82-1.69-7.91-2.15-12-2.45-3.06-.23-6.13-.39-9.19-.53-.86,0-1-.45-.91-1.16q.48-5.06.93-10.11c0-.39,0-.79,0-1.33Z" />
            <path class="color-shadow"
                d="M419.64,433.2c-.54-1.56-1.86-1.22-3-1.21-3.35,0-2.84-.44-2.91,2.81,0,1.47-.14,2.94-.25,4.41-.07.91-.56,1.78-1.44,1.73-.49,0-1.18-.91-1.35-1.52-.53-1.91-.85-3.88-1.25-5.82-.29-1.44-1.3-1.83-2.47-.94a8.36,8.36,0,0,0-.61.58c-1,1-1,.93-1.6-.3a1.43,1.43,0,0,0-1.1-.67,60.35,60.35,0,0,1-11.15-1c-1.66-.25-1.81,0-1.82,1.71,0,.87.11,2-1.06,2.06s-1.36-1-1.57-1.91a3.87,3.87,0,0,0-.27-1.27,2.21,2.21,0,0,0-1.14-1c-.31-.05-1,.5-1.08.89-.75,2.76-1.29,5.58-2.11,8.32-.6,2-.85,4.13-2.22,5.83-.35.44-.75.83-1.06,1.28a11.66,11.66,0,0,0-.76,1.39c-.18.34-.34.69-.51,1l-.47-.18c.24-1.41.49-2.82.73-4.22a2.37,2.37,0,0,0,.43-.7q1.53-7.86,3-15.74c.11-.62.32-.88,1-.79a39.28,39.28,0,0,0,4,.35c.92,0,1.29.43,1.3,1.32a1.84,1.84,0,0,0,.57,1.27l-.13-2.39c.42,0,.75-.09,1.09-.09,4.47.07,8.95.16,13.42.22,1.76,0,3.52.05,5.28,0,.71,0,1.08.12,1.12,1a20.34,20.34,0,0,0,.45,2.76l.31,0a23.09,23.09,0,0,0,0-2.76c-.1-.9.26-1.15,1.05-1.14,1.88,0,3.76.05,5.63,0,.68,0,1,.18,1.16.88C419.13,430.64,419.4,431.92,419.64,433.2Z" />
            <path class="color-shadow"
                d="M397.4,446.64c.32-1.95.62-3.91,1-5.86a3.69,3.69,0,0,1,.56-1.51,2.25,2.25,0,0,1,.19.68c-.19,2.29-.44,4.58-.58,6.88a13.55,13.55,0,0,0,.09,3.66,23.85,23.85,0,0,1,.07,7.68c-.18,1.69,0,2.1,1.71,2.14,2.79.06,5.57.19,8.36.21,1.47,0,2.93-.17,4.4-.22a45.7,45.7,0,0,1,19.28,3.76,35.21,35.21,0,0,0,10,2.45c3.11.34,6.27.34,9.4.52,1.18.07,2.22,0,2.45-1.46.37,1.26.79,2.5,1.11,3.76.22.89-.51.87-1.05.87-2.75,0-5.52.07-8.27-.08a60,60,0,0,1-8.79-.93c-3.55-.73-7-1.8-9.69-4.59-1.57-1.66-3.7-2-5.84-2s-4.54.28-6.82.32-4.54-.08-6.82-.12c-4-.07-7.91-.08-11.7,1.36a1.63,1.63,0,0,1-.47-.05c.26-1.94.52-3.86.75-5.78.31-2.5.66-5,.84-7.49A32.85,32.85,0,0,0,397.4,446.64Z" />
            <path class="color-shadow"
                d="M380.89,430.79c-.54-1.1-1.58-.81-2.39-.66-.42.08-.78.82-1,1.32-.88,1.73-1.71,3.49-2.56,5.23-.27.54-.59.89-1.32.65-.25-.09-.64.18-1,.3a1.44,1.44,0,0,1-2.1-1.14,10.93,10.93,0,0,1-.21-1.88,2.28,2.28,0,0,0-1-2.14c-.42-.31-.34-1.28-.5-1.94s-.18-1.69-.48-1.77a10.36,10.36,0,0,0-3.71-.4c-.27,0-.51,1.44-.59,2.24-.29,2.84-.47,5.69-.76,8.53a19.49,19.49,0,0,1-.59,2.91c-.15.58-.22,1.37-1.15,1.2s-.59-.88-.62-1.43a1.51,1.51,0,0,1,.06-.36c.2-.21.54-.41.56-.64.43-3.92.84-7.83,1.2-11.76.17-1.88.26-2.1,2.17-2.12s3.58.11,5.37.16c.65,0,.81.33.76.92-.1,1.24-.17,2.48-.25,3.73l.39,0a27.06,27.06,0,0,0,.42-3.33c0-1,.42-1.18,1.31-1.15,2.63.11,2.63.08,1.94,2.69-.2.76-.38,1.52-.56,2.28l.28.13c.52-1,1-2,1.56-3,.35-.64.71-1.68,1.22-1.77a13.29,13.29,0,0,1,3.55.12c.14,0,.37.36.35.53C381.18,429.09,381,429.94,380.89,430.79Z" />
            <path class="color-shadow"
                d="M349.56,435.19c-.21,1.11.3,2.44-1,3.23l-.75.45a22.25,22.25,0,0,1-.3-2.51c0-1.35.16-2.7.15-4.05,0-.27-.47-.79-.7-.77a48.66,48.66,0,0,0-5,.52c-.31.05-.59.67-.76,1.08-.47,1.08-.82,2.21-1.33,3.27a1.21,1.21,0,0,1-1,.51,1.31,1.31,0,0,1-.73-.93c-.16-1.05-.16-2.13-.28-3.2a6.52,6.52,0,0,0-.34-1.2l-.84.27a31.68,31.68,0,0,0-6.78-3c.59-1.94.67-2,2.56-1.33a26.29,26.29,0,0,0,3.57,1c.85.15,1.12.39.78,1.24a1.93,1.93,0,0,0,.09,1.28,9.59,9.59,0,0,0,.68-1.36,1.14,1.14,0,0,1,1.62-.76c.26.11.41.79.41,1.21a20.62,20.62,0,0,0,0,3.14c.28-1.08.61-2.15.83-3.23.18-.86.59-1.15,1.48-1.19,2.11-.07,4.21-.26,6.32-.46.85-.08,1.27.06,1.18,1.05-.15,1.55-.21,3.11-.25,4.67A3.32,3.32,0,0,0,349.56,435.19Z" />
            <path class="color-shadow"
                d="M449.54,444.24l-1-3.63.36-.11A9.82,9.82,0,0,1,452.4,445c1.79,5.12,3.83,10.16,5.82,15.21.18.47.68.82,1,1.23L456,463.57c-.16-.4-.34-.75-.45-1.11-1.42-4.87-2.82-9.74-4.25-14.6-.31-1.07-.7-2.12-1.11-3.16C450.07,444.5,449.75,444.39,449.54,444.24Z" />
            <path class="color-shadow"
                d="M361.7,428.6c-3.24.57-6.49,1.12-9.71,1.74-.36.07-.73.57-.89,1-.39.95-.65,2-1,2.93-.06.17-.33.26-.5.38.31-1.92.55-3.86,1-5.75.08-.35,1-.65,1.54-.71,2.05-.25,4.12-.37,6.19-.57,1.06-.1,2.12-.27,3.37-.43Z" />
            <path class="color-shadow"
                d="M454,464.16a3.31,3.31,0,0,1-.61-.93q-1.49-6.24-2.88-12.52c-.07-.29.13-.64.2-1,.64,2.6,1.31,5.2,1.91,7.81C453.11,459.74,453.53,462,454,464.16Z" />
            <path class="color-shadow"
                d="M345.64,458.88c.1-1,.15-2.1.3-3.13a5.28,5.28,0,0,1,.49-1.22C346.17,456,345.91,457.43,345.64,458.88Z" />
            <path class="color-shadow"
                d="M361.51,434.88a1.26,1.26,0,0,1,.1-1.94C361.58,433.59,361.54,434.24,361.51,434.88Z" />
            <path class="color-shadow" d="M361,440.27c.11-.36.23-.73.34-1.1C361.24,439.54,361.12,439.91,361,440.27Z" />
            <path class="color-shadow"
                d="M345.17,461.52c.05-.24.09-.49.14-.74C345.26,461,345.22,461.28,345.17,461.52Z" />
            <path class="color-shadow" d="M419.88,434.4l-.12-.51Z" />
            <path class="color-shadow" d="M380.25,435.6l.06-.51Z" />
            <path class="color-shadow"
                d="M450.37,448.08c0-.17-.09-.34-.13-.51C450.28,447.74,450.33,447.91,450.37,448.08Z" />
            <path class="color-shadow" d="M345.39,460.32c0-.17.07-.34.1-.51C345.46,460,345.42,460.15,345.39,460.32Z" />
            <path class="color-shadow"
                d="M454.22,465.12c0-.17-.09-.34-.14-.5C454.13,464.78,454.18,465,454.22,465.12Z" />
            <path class="color-shadow"
                d="M421.34,441.6c0-.17-.07-.34-.11-.51C421.27,441.26,421.3,441.43,421.34,441.6Z" />
            <path class="color-shadow" d="M421.1,440.4c0-.17-.07-.34-.11-.51C421,440.06,421.07,440.23,421.1,440.4Z" />
            <path class="color-shadow" d="M379.76,439.68l.06-.51Z" />
            <path class="color-shadow" d="M329.82,429.19l-.36.63Z" />
            <path class="color-shadow"
                d="M450.63,449.28c-.05-.17-.09-.34-.13-.51C450.54,448.94,450.58,449.11,450.63,449.28Z" />
            <path class="color-shadow" d="M420.87,439.2l-.12-.51Z" />
            <path class="color-shadow" d="M422,444.91l-.21-.08.19-.1A.14.14,0,0,1,422,444.91Z" />
            <path class="outline" d="M325.33,438.79l-.17.53-.2-.06.16-.53Z" />
        </g>
    </g>
</svg>
