<svg id="Nizy_classic" data-name="Nizy classic" xmlns="http://www.w3.org/2000/svg" viewBox="0 0 672 960">
    <g id="img_35" data-name="img 35">
        <g id="img_31_img" data-name="img 31 img">
            <path class="color-base"
                d="M332.84,401.27c0,2.06.1,4.13.09,6.2a26.93,26.93,0,0,0,0,3.24,3.29,3.29,0,0,1,.53-.94c.45-.38,1-.95,1.47-.88a1.79,1.79,0,0,1,1.09,1.3c.12,1.83.07,3.67,0,5.51,0,1.14-.33,2.17.65,3.28.62.72.58,2.12.62,3.22.06,1.25.66,1.62,1.79,1.74,3.79.42,7.57.95,11.37,1.37,2.1.23,4.22.26,6.32.51a132.85,132.85,0,0,0,18.17.69c2.42,0,4.85-.3,7.27-.5,2.62-.21,5.23-.47,7.85-.69,4.41-.38,8.81-.78,13.22-1.11,1.75-.13,3.51,0,5.27-.11,3.42-.13,6.85-.23,10.27-.46,4.37-.3,8.73-.73,13.09-1.09,3.41-.27,6.83-.51,10.24-.77,1.95-.15,3.9-.33,5.85-.45,2.14-.12,4.28-.16,6.42-.28s4.42-.31,6.64-.46h.35c.72-.05,1.85.13,2.06-.22.31-.54,0-1.45-.08-2.2a13.54,13.54,0,0,1-.11-1.9,1.24,1.24,0,0,1,1.91-1.05c.91.64,1.71,1.43,2.56,2.16.31,1.66.63,3.33.94,5,.23,2.53.43,5.06.7,7.59.33,3.15.66,6.31,1.09,9.45.14,1-.14,1.16-1,1.25-1.81.17-3.61.47-5.42.7a53.57,53.57,0,0,1-6,.68c-4.19,0-8.38-.11-12.56-.21-1.75,0-3.5-.16-5.25-.23l-17.66-.73a33.39,33.39,0,0,0-3.45-.19c-4.08.26-8.15.77-12.23.86-3.54.09-7.08-.32-10.62-.41-4.94-.13-9.89-.11-14.84-.28-3.77-.12-7.53-.42-11.3-.7s-7.44-.63-11.15-1c-5.09-.47-10.14-1.24-15.29-1-3.81.19-7.64,0-11.45,0-1.62,0-2.09-.43-2-2.06.11-3.18.34-6.35.45-9.53.13-3.91.16-7.82.26-11.73,0-.83.21-1.66.18-2.49a8.41,8.41,0,0,0-.4-1.74,29.56,29.56,0,0,0,.71-2.92c.29-2.16.47-4.33.7-6.49Z" />
            <path class="transparent"
                d="M332.12,401.27c-.23,2.16-.41,4.33-.7,6.49a29.56,29.56,0,0,1-.71,2.92,14.21,14.21,0,0,0-.83,2.37,1.2,1.2,0,0,1-1.25,1.11c-1.62.17-1.72.08-1.82-1.57,0-.1-.06-.19-.05-.15l-1.21.51.58-6.38-.45-.06-2.19,10.13-.34,1.24-.14.44-1.9,6.23L321,425l-.11.47-.57,2.65-.12.73-.16.95-.08.49-.14,1.19-.1,1.2-.16,1.2-.08.49-.37,2.39-.14.95-.09.7-.64,0v-37.2Z" />
            <path class="color-base" d="M318.71,441.4l-.51-.29v-1.2l.45,0c0,.31.05.62.07.93Z" />
            <path class="transparent" d="M318.65,439.89l-.45,0v-1l.45.26,0,.69Z" />
            <path class="color-base" d="M318.65,439.21l-.45-.26v-.48l.64,0c0,.17.05.34.08.51Z" />
            <path class="outline"
                d="M318.92,439c0-.17-.05-.34-.08-.51l.09-.7.14-.95.37-2.39.08-.49.16-1.19.1-1.21.14-1.19.08-.49.16-.95.12-.73.57-2.65L321,425l.15-.48a16.53,16.53,0,0,0,.9-2c.39-1.39.67-2.8,1-4.2l.14-.44.34-1.24,2.19-10.13.45.06-.58,6.38-.16,1.75c-.27,1.57-.44,3.16-.82,4.69a121.87,121.87,0,0,0-3.16,19.71,1.3,1.3,0,0,0,.5,1,18.56,18.56,0,0,0,10.34,2.45c3.35-.19,6.7-.31,10.05-.47,6.74-.32,13.33,1.12,20,1.74,4.6.43,9.22.78,13.83,1.13,1.3.1,2.62.07,3.93.09,2.22,0,4.45.06,6.67,0,3.55,0,7.09-.14,10.64-.22,1.37,0,2.74-.11,4.11-.16h1.2a2.42,2.42,0,0,0,.65.2l7,0h2.4l.72,0a4.86,4.86,0,0,0,.89.23c1.75.09,3.51.15,5.26.24,4.46.24,8.92.53,13.39.71,6.9.28,13.8.65,20.71.69,5.09,0,10.19-.43,15.29-.66,2.11-.09,4.23-.15,6.34-.23,1.09-.05,1.82-.52,1.9-1.71.07-1,.18-2.07.18-3.1,0-5.66-1.81-11-3.06-16.39V421c3.42,7.74,5.65,15.4,5.08,23.64a17.71,17.71,0,0,1-.62,2.64l-.37.49,0,0c-.58.07-1.15.18-1.73.21-1.25.08-2.49.12-3.74.17H465.6l-1.23.09-1.42.12-1.22.08h-6l-.49-.06-1.67-.07-4.31-.22-2.42,0L444,448l-1,0-4.06-.16-1.22-.09-7.18-.41-1-.05-2.61-.2-1.22,0-4.26-.18-.51-.14-.51.06-3.29-.17-1.48-.12-1,0-4.48-.16-3.69-.05H394.55l-1-.06-1.25.09-6.89.21h-7.74l-3.07-.15-1.7-.16-.52.09-2.61-.2-.5-.06-4.3-.42-.49-.08-.91-.14-.51-.07-1.45-.18-.74-.07-10.06-1.38-.51,0c-4.72-.61-9.42-.11-14.12.25l-1.47.06-3.28.19-.52-.1-1.68.09-2.18-.18-.47-.16-.5.05-1.18-.3-1.3-.45-1.11-.35-.48-.12v0l-.7-.16-.48-.12-2.13-1.45c0-.31-.05-.62-.07-.93h0Z" />
            <path class="color-shadow-dark"
                d="M474.38,424.74c1.25,5.42,3.09,10.73,3.06,16.39,0,1-.11,2.07-.18,3.1-.08,1.19-.81,1.66-1.9,1.71-2.11.08-4.23.14-6.34.23-5.1.23-10.2.68-15.29.66-6.91,0-13.81-.41-20.71-.69-4.47-.18-8.93-.47-13.39-.71-1.75-.09-3.51-.15-5.26-.24a4.86,4.86,0,0,1-.89-.23,16.26,16.26,0,0,1,2.64-.47c3.05-.06,6.11-.05,9.17,0,2.62,0,5.25.14,7.88.24,1.46,0,2.94.12,4.4.26,2.88.28,5.75.81,8.63.88,4.28.1,8.58,0,12.85-.24a43.34,43.34,0,0,0,5.94-1.09c2.09-.41,4.19-.8,6.26-1.28a9.53,9.53,0,0,0,2.54-1,1.66,1.66,0,0,0,.6-1.29,30.5,30.5,0,0,0-.42-3.29,51.65,51.65,0,0,0-4-13.93,6.45,6.45,0,0,0-1.23-1.41c-.31-1.66-.63-3.33-.94-5,.12-.41.24-.82.35-1.22l1.31.94-.29-1.43V412.3l.54-.13a6.45,6.45,0,0,1,.67,1.16c1.11,3.52,2.17,7.05,3.29,10.57C473.74,424.22,474.12,424.46,474.38,424.74Z" />
            <path class="color-base" d="M377.69,446.47h7.74c-1.7.09-3.41.24-5.11.26A21.29,21.29,0,0,1,377.69,446.47Z" />
            <path class="color-base"
                d="M473,448.15c1.25,0,2.49-.09,3.74-.17.58,0,1.15-.14,1.73-.21-.17.19-.33.54-.49.54C476.29,448.29,474.63,448.21,473,448.15Z" />
            <path class="color-shadow-dark" d="M449.24,448.09l4.31.22h-4.31Z" />
            <path class="color-base" d="M406.49,446.24l3.69.05Z" />
            <path class="color-base" d="M469.14,415.66l.29,1.43-1.31-.94c-.05-.34-.1-.67-.15-1Z" />
            <path class="color-shadow-dark" d="M318.72,440.82l2.13,1.45-2.14-.87Z" />
            <path class="color-base" d="M449.24,448.09v.23l-2.42-.19Z" />
            <path class="color-shadow-dark" d="M372.92,446.16l1.7.16-1.7,0Z" />
            <path class="color-shadow-dark" d="M329.25,444.09l1.68-.09a.61.61,0,0,0,0,.19Z" />
            <path class="color-shadow-dark" d="M415.64,446.41l1.48.12-1.48.09Z" />
            <path class="color-shadow-dark" d="M334.73,443.91l1.47-.06Z" />
            <path class="color-base" d="M437.69,447.66l1.22.09Z" />
            <path class="color-shadow-dark" d="M392.32,446.26l1.25-.09a.61.61,0,0,0,0,.19Z" />
            <path class="color-base" d="M425.69,447l1.22,0Z" />
            <path class="color-base" d="M464.37,448.25l1.23-.09Z" />
            <path class="color-base" d="M461.73,448.45l1.22-.08Z" />
            <path class="color-shadow-dark" d="M323.62,443.05l1.3.45Z" />
            <path class="color-base" d="M393.57,446.36a.61.61,0,0,1,0-.19l1,.06Z" />
            <path class="color-base" d="M415.64,446.41v.21l-1-.17Z" />
            <path class="color-base" d="M429.52,447.2l1,.05Z" />
            <path class="color-base" d="M443,447.91l1,0Z" />
            <path class="color-shadow-dark" d="M321.33,442.39l.7.16Z" />
            <path class="color-base" d="M360.89,445l.74.07Z" />
            <path class="color-base" d="M364.5,445.49l.49.08Z" />
            <path class="color-base" d="M369.29,446l.5.06Z" />
            <path class="color-shadow-dark" d="M326.6,443.75l.47.16-.47,0Z" />
            <path class="color-base" d="M350.32,443.6l.51,0Z" />
            <path class="color-base" d="M372.92,446.16v.2l-.52-.11Z" />
            <path class="color-base" d="M322,442.58l.48.12Z" />
            <path class="color-shadow-dark" d="M420.92,446.64l.51.14-.51.08Z" />
            <path class="color-base" d="M420.92,446.64v.22l-.51-.16Z" />
            <path class="color-base" d="M326.6,443.75v.2l-.5-.15Z" />
            <path class="color-base" d="M478.47,447.74l.37-.49Z" />
            <path class="color-base" d="M330.93,444.19a.61.61,0,0,1,0-.19l.52.1Z" />
            <path class="color-base" d="M455.22,448.38l.49.06Z" />
            <path class="color-shadow-dark" d="M363.08,445.28l.51.07Z" />
            <path class="color-shadow"
                d="M468.71,422.36a6.45,6.45,0,0,1,1.23,1.41,51.65,51.65,0,0,1,4,13.93,30.5,30.5,0,0,1,.42,3.29,1.66,1.66,0,0,1-.6,1.29,9.53,9.53,0,0,1-2.54,1c-2.07.48-4.17.87-6.26,1.28a43.34,43.34,0,0,1-5.94,1.09c-4.27.23-8.57.34-12.85.24-2.88-.07-5.75-.6-8.63-.88-1.46-.14-2.94-.21-4.4-.26-2.63-.1-5.26-.21-7.88-.24-3.06,0-6.12-.05-9.17,0a16.26,16.26,0,0,0-2.64.47l-.72,0q-.6-1.12-1.2,0h-1.2a3.18,3.18,0,0,0-1.05-.45c-1.76-.05-3.51,0-5.27,0a8.05,8.05,0,0,0-1.36.23h-1.2a16.19,16.19,0,0,0-2.64-.45c-1.61,0-3.22.2-4.83.19-2.73,0-5.47-.13-8.2-.23q-2.81-.09-5.61-.24c-1.23-.07-2.46-.15-3.68-.28-2.8-.29-5.6-.6-8.4-.91-3.07-.34-6.14-.7-9.22-1-2.92-.31-5.83-.76-8.76-.85-4-.11-8,.16-12,.08a78.5,78.5,0,0,1-8.66-.67c-2.64-.33-3.64-1.44-3.37-3.46.49-3.54,1.07-7.05,1.6-10.58.28-1.88.57-3.76.74-5.66,0-.36-.45-.77-.69-1.15-.39-.61-1.24-1.35-1.1-1.79.45-1.49-.31-2.23-1.3-3l.16-1.75,1.21-.51s.05.05.05.15c.1,1.65.2,1.74,1.82,1.57a1.2,1.2,0,0,0,1.25-1.11,14.21,14.21,0,0,1,.83-2.37,8.41,8.41,0,0,1,.4,1.74c0,.83-.16,1.66-.18,2.49-.1,3.91-.13,7.82-.26,11.73-.11,3.18-.34,6.35-.45,9.53-.06,1.63.41,2.06,2,2.06,3.81,0,7.64.15,11.45,0,5.15-.26,10.2.51,15.29,1,3.71.34,7.43.69,11.15,1s7.53.58,11.3.7c4.95.17,9.9.15,14.84.28,3.54.09,7.08.5,10.62.41,4.08-.09,8.15-.6,12.23-.86a33.39,33.39,0,0,1,3.45.19l17.66.73c1.75.07,3.5.19,5.25.23,4.18.1,8.37.25,12.56.21a53.57,53.57,0,0,0,6-.68c1.81-.23,3.61-.53,5.42-.7.87-.09,1.15-.29,1-1.25-.43-3.14-.76-6.3-1.09-9.45C469.14,427.42,468.94,424.89,468.71,422.36Z" />
            <path class="color-shadow-dark"
                d="M323,418.32c-.33,1.4-.61,2.81-1,4.2a16.53,16.53,0,0,1-.9,2C321.74,422.47,322.38,420.39,323,418.32Z" />
            <path class="color-shadow-dark" d="M319.78,431.51l-.1,1.21Z" />
            <path class="color-shadow-dark" d="M323.49,416.64l-.34,1.24Z" />
            <path class="color-shadow-dark" d="M319.07,436.79l-.14.95Z" />
            <path class="color-shadow-dark" d="M320.28,428.15l-.12.73Z" />
            <path class="color-shadow-dark" d="M321,425l-.11.47Z" />
            <path class="color-shadow-dark" d="M320,429.83l-.08.49Z" />
            <path class="color-shadow-dark" d="M319.52,433.91l-.08.49Z" />
            <path class="color-shadow-dark" d="M318.92,439l-.24.95,0-.69Z" />
            <path class="color-shadow-dark"
                d="M325.39,414.7c1,.75,1.75,1.49,1.3,3-.14.44.71,1.18,1.1,1.79.24.38.72.79.69,1.15-.17,1.9-.46,3.78-.74,5.66-.53,3.53-1.11,7-1.6,10.58-.27,2,.73,3.13,3.37,3.46a78.5,78.5,0,0,0,8.66.67c4,.08,8-.19,12-.08,2.93.09,5.84.54,8.76.85,3.08.33,6.15.69,9.22,1,2.8.31,5.6.62,8.4.91,1.22.13,2.45.21,3.68.28q2.81.15,5.61.24c2.73.1,5.47.21,8.2.23,1.61,0,3.22-.2,4.83-.19a16.19,16.19,0,0,1,2.64.45c-1.37.05-2.74.13-4.11.16-3.55.08-7.09.17-10.64.22-2.22,0-4.45,0-6.67,0-1.31,0-2.63,0-3.93-.09-4.61-.35-9.23-.7-13.83-1.13-6.67-.62-13.26-2.06-20-1.74-3.35.16-6.7.28-10.05.47a18.56,18.56,0,0,1-10.34-2.45,1.3,1.3,0,0,1-.5-1,121.87,121.87,0,0,1,3.16-19.71C325,417.86,325.12,416.27,325.39,414.7Z" />
            <path class="color-shadow-dark"
                d="M402.68,444.71a8.05,8.05,0,0,1,1.36-.23c1.76,0,3.51,0,5.27,0a3.18,3.18,0,0,1,1.05.45l-7,0A2.42,2.42,0,0,1,402.68,444.71Z" />
            <path class="color-shadow-dark" d="M411.56,444.94q.6-1.12,1.2,0Z" />
        </g>
    </g>
</svg>
