<svg id="Nizy_classic" data-name="Nizy classic" xmlns="http://www.w3.org/2000/svg" viewBox="0 0 672 960">
    <g id="img_35" data-name="img 35">
        <g id="img_30_img" data-name="img 30 img">
            <path class="transparent"
                d="M383.24,422.15h43c0,.21,0,.43,0,.65l-2.88.15-1.7.07-2.85.17-.51.05-2.86.18H414l-6-.17a1.87,1.87,0,0,0-.62-.23c-3.17,0-6.34,0-9.51,0a2.29,2.29,0,0,0-.72.25h-8.59l-1-.09-1.67-.13-1-.1-1.67-.15Z" />
            <path class="color-base" d="M383.24,422.15c0,.21,0,.43,0,.65h-5.07v-.66Z" />
            <path class="transparent" d="M428.12,422.15h5.28c0,.13,0,.26,0,.4l-5.09.15Z" />
            <path class="color-base" d="M433.38,422.55l0-.4h4.08c0,.12,0,.25,0,.38Z" />
            <path class="color-base" d="M428.12,422.15c.06.18.12.36.17.55l-2.1.1v-.65Z" />
            <path class="transparent" d="M437.5,422.53l0-.38h3.6v.55Z" />
            <path class="color-base" d="M441.07,422.7v-.55h1c0,.22,0,.44,0,.66Z" />
            <path class="outline"
                d="M441.07,422.7l1,.11,1.19.12,1.2.14,3.6.12.73.09,5,0H455l4.08.11,2.64.14,1,.11.72.13,1.44.32.48.15,4.08,1.32.46.16,2.9,1,.49.12.95.05h1a11.19,11.19,0,0,1,1,1.69c.55,1.48,1,3,1.51,4.5,1.1,3.49,2.18,7,3.31,10.46a5,5,0,0,0,.82,1.17l.14.44.14.49.1.47.11.51.1.44,0,.48.18.52.12.67-.07.49.19.76.08.46-.05.69.21.77a.86.86,0,0,0,.06.23l0,.92.16,1.34.06,1.54c-.2,1.85-.21,1.83-2,2.29-1.19.3-2.35.66-3.53,1l-.36.05-2.05.19-1.31,0h-1l-.37,0-3.95-.21h-4.07l-2.29.21-.59,0-1.81.21-.82,0L457,460l-1.31,0h-3.36l-2.44.22v0l-2.11,0-3.64.24-.24.05-2.12,0-3.73.16-2,.09-3.16.2-.71.07-1.89,0-2.68.21-.46.07-1.42,0-1,.19-2.37.1-1.67,0-1.47.2-1.15,0-1,0-.69.08-1.91-.05h-2.16l-4.36.2-2.86.06h-.68l-1.24,0H401l-6.7,0-1.22,0h-.7c-1.19-.05-2.37-.13-3.56-.12-2.58,0-5.16.06-7.74.1h-6.94l-2.2.22-.23,0-2.13,0-2.92.22v0h-2.84l-2.44.2-.94.06h-3.1l-3.4.2v0h-2.12l-1.48.21v0l-3.79,0-.46-.07-1-.19-1.18,0-.23-.05-1-.21-.95.05-.92-.1-1-.2-1.66,0-.47-.06-1.24-.2-.95.05-.68-.1-1-.19-1.19,0-1-.11-.72-.18-.47.07-1-.17-.46-.09-.75-.18c-2-.68-3.95-1.4-6-2-1.55-.48-3.16-.79-4.73-1.24a1.62,1.62,0,0,1-1.28-2.18c.82-3.08,1.63-6.16,2.51-9.22.69-2.43,1.47-4.85,2.21-7.27.17-.34.34-.69.5-1l.23-.13c.66-1.74,1.42-3.44,1.93-5.21.69-2.36,1.14-4.79,1.74-7.18.26-1,.52-1,1.36-.43a20.06,20.06,0,0,0,3.64,2.16,8.84,8.84,0,0,0,2.65.21l.43,0c1.52.2,3,.43,4.56.56a6,6,0,0,0,1.58-.3l.67-.09,1.89-.38,1.38-.08,5.34-.89.67-.06,3.65-.65.42-.08,3.26-.66.43-.09L358,425l.42-.09,1-.16.43-.07.53-.08,1.46-.19.46-.06,1.46-.18.46-.06,4.07-.58.73-.1,1.66-.16,1-.08,3.1-.17L376,423l2.16-.14h5.07l1.67.15,1,.1,1.67.13,1,.09h8.59c1.27,0,2.54.08,3.81.07,2.35,0,4.69,0,7-.08l6,.17h1.42l2.86-.18.51-.05,2.85-.17,1.7-.07,2.88-.15,2.1-.1,5.09-.15,4.12,0Zm40.4,30.81h.07a58.74,58.74,0,0,0-.73-5.94c-.51-2.28-1.28-4.51-2-6.74-1-2.88-2.05-5.71-3-8.6-.74-2.37-2.27-3.49-4.63-4.24-5-1.6-10-2.87-15.35-2.8-4.63.05-9.26-.32-13.89-.39s-9,0-13.54,0c-1.91,0-3.83.21-5.74.31-3.11.17-6.22.45-9.33.49-5.91.08-11.83,0-17.74,0a55.52,55.52,0,0,1-6.83-.06,78.41,78.41,0,0,0-20,.24c-7.95,1-15.85,2.49-23.76,3.84-6.18,1.05-12.34,1.71-18.5-.1-.64-.19-.94.11-1.13.7q-1.47,4.55-3,9.08c-.8,2.38-1.65,4.75-2.42,7.14-.89,2.77-1.72,5.56-2.56,8.34-.17.56,0,.84.66,1a35.33,35.33,0,0,1,4.18,1c3.72,1.16,7.2,3,11.23,3.22,5.25.28,10.48,1,15.74,1.26,3.22.16,6.47-.15,9.7-.24l2.28,0c7.73-.19,15.46-.42,23.19-.56,4.17-.07,8.33.05,12.5,0s8.36-.07,12.54-.11c2.84,0,5.68,0,8.52-.08,6.18-.26,12.35-.63,18.53-.93,5.26-.26,10.53-.47,15.79-.75,2.23-.12,4.47-.25,6.68-.56a52.86,52.86,0,0,1,12.75-.68,18.4,18.4,0,0,0,4.62-.25,22.36,22.36,0,0,0,4.14-1.16,2,2,0,0,0,.91-1.16A3.51,3.51,0,0,0,481.47,453.51Z" />
            <path class="color-base"
                d="M321,439.4c-.74,2.42-1.52,4.84-2.21,7.27-.88,3.06-1.69,6.14-2.51,9.22a1.62,1.62,0,0,0,1.28,2.18c1.57.45,3.18.76,4.73,1.24,2,.62,4,1.34,6,2a3,3,0,0,1-.89.05c-3-.8-6-1.6-9-2.45a5.54,5.54,0,0,1-2-.93,2,2,0,0,1-.72-1.61c.83-3.29,1.78-6.54,2.75-9.79.62-2.06,1.31-4.1,2-6.13A5.78,5.78,0,0,1,321,439.4Z" />
            <path class="color-shadow-dark"
                d="M333.06,427.79a8.84,8.84,0,0,1-2.65-.21,20.06,20.06,0,0,1-3.64-2.16c-.84-.58-1.1-.6-1.36.43-.6,2.39-1.05,4.82-1.74,7.18-.51,1.77-1.27,3.47-1.93,5.21l-.25.12a1.85,1.85,0,0,1,.08-.58c1.94-4,2.45-8.37,3.49-12.6.2-.82.95-1,1.77-.45a33.21,33.21,0,0,0,3.43,2.31A13.41,13.41,0,0,0,333.06,427.79Z" />
            <path class="color-shadow-dark"
                d="M481.8,444.75a5,5,0,0,1-.82-1.17c-1.13-3.48-2.21-7-3.31-10.46a13.83,13.83,0,0,1,.87,1.66c1.11,3.16,2.19,6.34,3.27,9.51A1.78,1.78,0,0,1,481.8,444.75Z" />
            <path class="color-shadow-dark"
                d="M381.07,462c2.58,0,5.16-.09,7.74-.1,1.19,0,2.37.07,3.56.12v.25H381.08Z" />
            <path class="color-shadow-dark"
                d="M477.69,459.24c1.18-.32,2.34-.68,3.53-1,1.84-.46,1.85-.44,2-2.29h.29c0,.21.05.43.07.64s0,.68-.07,1l-.15.24-1.28.74-.43.06-.77.18-.41.07Z" />
            <path class="color-base" d="M381.07,462v.27h-7v-.28Z" />
            <path class="color-base" d="M394.29,462l6.7,0c-.1.11-.2.3-.29.3-2.14,0-4.28-.05-6.42-.08Z" />
            <path class="color-base"
                d="M477.69,459.24l2.83-.31c-1.32.34-2.63.76-4,1a13.24,13.24,0,0,1-2.59-.07v-.3l1.31,0,2.05-.19Z" />
            <path class="color-shadow-dark" d="M339.63,428.09a6,6,0,0,1-1.58.3c-1.53-.13-3-.36-4.56-.56Z" />
            <path class="color-shadow-dark" d="M348.91,426.65l-5.34.89Z" />
            <path class="color-shadow-dark" d="M407.93,461.92l4.36-.2V462Z" />
            <path class="color-base" d="M464.61,459.28h4.07v.31H464.6Z" />
            <path class="color-base"
                d="M346.54,463.18l3.79,0c-.27.13-.56.38-.82.36C348.51,463.46,347.53,463.3,346.54,463.18Z" />
            <path class="color-shadow-dark" d="M468.69,459.59v-.31l3.95.21-2.11.17Z" />
            <path class="color-shadow-dark" d="M438.08,460.66l3.74-.16,0,.29-3.28.07Z" />
            <path class="color-shadow-dark" d="M444.18,460.49l3.64-.24v.29Z" />
            <path class="color-shadow-dark" d="M353.23,425.94l-3.65.65Z" />
            <path class="color-shadow-dark" d="M353.93,462.89l3.4-.2v.24Z" />
            <path class="color-shadow-dark" d="M432.89,461l3.16-.2V461Z" />
            <path class="color-base" d="M357.33,462.93v-.24h3.1Z" />
            <path class="color-shadow-dark" d="M356.91,425.2l-3.26.66Z" />
            <path class="color-base" d="M363.81,462.44h2.84l-2.85.26Z" />
            <path class="color-shadow-dark" d="M366.65,462.41l2.92-.22v.26Z" />
            <path class="color-base" d="M461.73,423.55l-2.64-.14Z" />
            <path class="color-base" d="M455.73,460l1.31,0,1.38.15-2.7.18Z" />
            <path class="color-shadow-dark" d="M427.61,461.2l2.68-.21v.26Z" />
            <path class="color-shadow-dark" d="M449.93,460.25l2.44-.22v.27Z" />
            <path class="color-base" d="M436,461v-.28l2-.09.43.2Z" />
            <path class="color-base" d="M461.73,459.52l.59,0,1.84.14-2.44.2Z" />
            <path class="color-base" d="M470.52,459.66l2.11-.17.37,0v.32Z" />
            <path class="color-shadow-dark" d="M363.81,462.44v.26l-2.43-.06Z" />
            <path class="color-shadow-dark" d="M374.13,461.94v.28l-2.19-.06Z" />
            <path class="color-base" d="M447.81,460.54v-.29l2.11,0Z" />
            <path class="color-base" d="M441.8,460.79l0-.29,2.12,0Z" />
            <path class="color-base" d="M369.57,462.45v-.26l2.13,0Z" />
            <path class="color-base" d="M351.81,462.92h2.12l-2.13.27Z" />
            <path class="color-shadow-dark" d="M455.73,460v.28h-2.16V460Z" />
            <path class="color-shadow-dark" d="M464.16,459.63l-1.84-.14,2.29-.21v.32Z" />
            <path class="color-base" d="M483.56,456h-.29l-.06-1.54.18-.42Z" />
            <path class="color-shadow-dark" d="M458.42,460.12,457,460l2.06-.2,0,.31Z" />
            <path class="color-base" d="M430.29,461.25V461l1.89,0Z" />
            <path class="color-shadow-dark" d="M342.19,427.62l-1.89.38Z" />
            <path class="color-base" d="M414.45,461.71l1.91.05-1.92.21Z" />
            <path class="color-base" d="M459.08,460.08l0-.31.82,0,.91.17Z" />
            <path class="color-base" d="M420.68,461.48l1.67,0-1.67.21Z" />
            <path class="color-base" d="M338.14,462.46l1.66,0v.26Z" />
            <path class="color-shadow-dark" d="M460.83,459.9l-.91-.17,1.81-.21v.31Z" />
            <path class="color-base" d="M482.13,458.62l1.28-.74C483.28,458.65,482.84,458.86,482.13,458.62Z" />
            <path class="color-shadow-dark" d="M420.68,461.48v.25l-1.47-.05Z" />
            <path class="color-shadow-dark" d="M351.81,462.92v.27l-1.47-.06Z" />
            <path class="color-base" d="M425.73,461.23l1.42,0-1.43.22Z" />
            <path class="color-base" d="M376,423l-1.22.06Z" />
            <path class="color-shadow-dark" d="M483.39,454l-.18.42c-.06-.45-.11-.89-.16-1.34h.26Z" />
            <path class="color-base" d="M412.29,462v-.25h1.19V462Z" />
            <path class="color-base" d="M332.61,462l1.19,0v.25Z" />
            <path class="color-shadow-dark" d="M336.43,462.2l1.24.2-1.23.06Z" />
            <path class="color-base" d="M453.55,460v.27h-1.19V460Z" />
            <path class="color-shadow-dark" d="M394.29,462v.26h-1.2V462Z" />
            <path class="color-base" d="M455,423.3h0Z" />
            <path class="color-base" d="M444.45,423.07l-1.2-.14Z" />
            <path class="color-base" d="M343.9,462.94l1.18,0v.27Z" />
            <path class="color-shadow-dark" d="M339.8,462.69v-.26l1,.2Z" />
            <path class="color-base" d="M371.71,423.18l-1,.08Z" />
            <path class="color-shadow-dark" d="M359.47,424.74l-1,.16Z" />
            <path class="color-base" d="M336.43,462.2v.26l-1-.21Z" />
            <path class="color-base" d="M402.21,462h0Z" />
            <path class="color-base" d="M475.16,426.93h0Z" />
            <path class="color-base" d="M483.56,457.64c0-.34.05-.68.07-1C483.61,457,483.59,457.3,483.56,457.64Z" />
            <path class="color-shadow-dark" d="M342.67,462.68l1,.21-1,.06Z" />
            <path class="color-base" d="M483.31,453.1h-.26l0-.92Z" />
            <path class="color-shadow-dark" d="M473,459.84v-.32h1v.3Z" />
            <path class="color-base" d="M342.67,462.68V463l-1-.22Z" />
            <path class="color-shadow-dark" d="M345.09,463.19v-.27l1,.19Z" />
            <path class="color-shadow-dark" d="M425.73,461.23v.26l-1-.07Z" />
            <path class="color-shadow-dark" d="M417.05,461.68l1,0Z" />
            <path class="color-shadow-dark" d="M413.48,462v-.28h1V462Z" />
            <path class="color-shadow-dark" d="M333.8,462.21V462l1,.19Z" />
            <path class="color-base" d="M463.41,423.79l-.72-.13Z" />
            <path class="color-base" d="M369.07,423.42l-.73.1Z" />
            <path class="color-base" d="M448.78,423.28l-.73-.09Z" />
            <path class="color-shadow-dark" d="M482.77,450l-.19-.76h.24Z" />
            <path class="color-base" d="M393.07,462v.25h-.72V462Z" />
            <path class="color-base" d="M404.39,462h0Z" />
            <path class="color-shadow-dark" d="M358,425l-.69.12Z" />
            <path class="color-base" d="M480.93,458.86l.77-.18Z" />
            <path class="color-shadow-dark" d="M330.91,461.7l.72.18-.71.08Z" />
            <path class="color-shadow-dark" d="M483,451.94l-.21-.77h.25Z" />
            <path class="color-base" d="M483.05,451.18h-.25c0-.23,0-.46.05-.69Z" />
            <path class="color-base" d="M330.91,461.7V462l-.48-.19Z" />
            <path class="color-base" d="M482.35,447.58l0-.48.2.49Z" />
            <path class="color-shadow-dark" d="M482.29,446.66l-.11-.51Z" />
            <path class="color-shadow-dark" d="M482.08,445.68l-.14-.49Z" />
            <path class="color-base" d="M482.82,449.26h-.24l.07-.49Z" />
            <path class="color-base" d="M473.26,426.89l-.49-.12Z" />
            <path class="color-base" d="M469.87,425.74l-.46-.16Z" />
            <path class="color-shadow-dark" d="M482.35,447.58h.24l-.06.51Z" />
            <path class="color-shadow-dark" d="M360.43,424.59l-.53.08Z" />
            <path class="color-shadow-dark" d="M362.35,424.34l-.46.06Z" />
            <path class="color-base" d="M465.33,424.26l-.48-.15Z" />
            <path class="color-base" d="M329,461.51l.46.09-.2.21Z" />
            <path class="color-shadow-dark" d="M364.27,424.1l-.46.06Z" />
            <path class="color-base" d="M321.49,438.36l.25-.12-.23.13Z" />
            <path class="color-base"
                d="M408,423.26c-2.35,0-4.69.07-7,.08-1.27,0-2.54,0-3.81-.07a2.29,2.29,0,0,1,.72-.25c3.17,0,6.34,0,9.51,0A1.87,1.87,0,0,1,408,423.26Z" />
            <path class="color-base" d="M423.31,423l-1.7.07Z" />
            <path class="color-base" d="M415.39,423.42h0Z" />
            <path class="color-base" d="M385.9,423.05l-1-.1Z" />
            <path class="color-base" d="M388.55,423.27l-1-.09Z" />
            <path class="color-base" d="M418.76,423.19l-.51.05Z" />
            <path class="color-shadow-dark"
                d="M481.47,453.51a3.51,3.51,0,0,1,0,1.3,2,2,0,0,1-.91,1.16,22.36,22.36,0,0,1-4.14,1.16,18.4,18.4,0,0,1-4.62.25,52.86,52.86,0,0,0-12.75.68c-2.21.31-4.45.44-6.68.56-5.26.28-10.53.49-15.79.75-6.18.3-12.35.67-18.53.93-2.84.12-5.68.06-8.52.08-4.18,0-8.36.11-12.54.11s-8.33-.11-12.5,0c-7.73.14-15.46.37-23.19.56l-2.28,0c-3.23.09-6.48.4-9.7.24-5.26-.27-10.49-1-15.74-1.26-4-.22-7.51-2.06-11.23-3.22a35.33,35.33,0,0,0-4.18-1c-.67-.12-.83-.4-.66-1,.84-2.78,1.67-5.57,2.56-8.34.77-2.39,1.62-4.76,2.42-7.14q1.5-4.53,3-9.08c.19-.59.49-.89,1.13-.7,6.16,1.81,12.32,1.15,18.5.1,7.91-1.35,15.81-2.81,23.76-3.84a78.41,78.41,0,0,1,20-.24,55.52,55.52,0,0,0,6.83.06c5.91,0,11.83,0,17.74,0,3.11,0,6.22-.32,9.33-.49,1.91-.1,3.83-.28,5.74-.31,4.51-.06,9-.11,13.54,0s9.26.44,13.89.39c5.33-.07,10.33,1.2,15.35,2.8,2.36.75,3.89,1.87,4.63,4.24.91,2.89,2,5.72,3,8.6.74,2.23,1.51,4.46,2,6.74a58.74,58.74,0,0,1,.73,5.94ZM373.64,429.1l-.49.23h-.71l-1,.23H368.6l-2.64.23h-1.68l-1.68.23h-2.15l-2.89.7h-.48a4,4,0,0,0-1.12-.19c-1.11.1-2.2.36-3.3.41-3.78.2-7.56.39-11.34.48-1.67,0-3.34-.2-5-.2s-3.5.18-5.25.22a3.4,3.4,0,0,0-3.73,2.76c-.84,2.58-1.58,5.19-2.51,7.73-1.16,3.17-2.54,6.26-3.68,9.44-1,2.76-.9,2.81,1.92,3.49,4.06,1,8.05,2.17,12.24,2.54a64.34,64.34,0,0,1,9.31,1.27c4.39,1.07,8.79.45,13.18.55,2.81.06,5.62-.43,8.43-.65,1.78-.14,3.57-.24,5.36-.31,2.11-.08,4.23-.23,6.33-.11,3.37.19,6.72.58,10.08.9,2.25.21,4.5.6,6.75.64,6.08.09,12.16.17,18.23,0,3.72-.12,7.42-.75,11.13-1.11,1.5-.14,3-.26,4.52-.28,3.11,0,6.22,0,9.33,0,1.55,0,3.12.07,4.66,0,3-.24,6.07-.55,9.1-.88,2.45-.27,4.91-.45,7.31-.94,3.75-.77,7.46-1.69,11.33-1.45,1.31.07,2.62.12,3.92.24,2.91.27,4.14-2.29,3.62-4.59s-1.26-4.43-1.87-6.66c-.7-2.6-1.29-5.23-2.06-7.81-.55-1.82-1.31-3.57-2-5.34a3.89,3.89,0,0,0-3-2.44,22.29,22.29,0,0,0-2.7-.42c-3.52-.29-7-.64-10.57-.78-1.77-.07-3.56.43-5.34.4-3.1,0-6.2-.3-9.3-.42a16.81,16.81,0,0,0-2.33.21h-1.19c-.08-.13-.16-.37-.24-.37-1.6,0-3.21.1-4.81.15H431c-3.06-.08-6.12-.29-9.17-.21-4.12.11-8.23.44-12.34.71-.2,0-.39.29-.58.44h-1l-2.56-.25c-3.31-.32-6.62-.81-9.94-.89-4.25-.1-8.51.11-12.77.2a2.77,2.77,0,0,0-.65.22l-3.83.27-.5.45-2.86.51-.5.45Z" />
            <path class="color-shadow-dark" d="M477.33,459.29l-2.05.19Z" />
            <path class="color-base"
                d="M362.6,430.06l1.68-.23H366l2.64-.23h2.87l1-.23h.71l.49-.23h.71l.5-.45,2.86-.51.5-.45,3.83-.27c1.32.17,2.63.41,4,.47q6,.31,12,.49c2.91.07,5.82,0,8.73,0a5.94,5.94,0,0,0,1.23-.24h1c5.9-.07,11.8-.14,17.7-.24,1.23,0,2.46-.12,3.68-.25.25,0,.48-.29.71-.45h1.43l5.05.22h1.19l2.55.33c2.41.3,4.8.66,7.21.85,3.06.25,6.12.46,9.18.47,4.05,0,7.61,1.51,11,3.43a3.63,3.63,0,0,1,1.21,1.9c.41,1.11.62,2.3.93,3.45.89,3.3,1.82,6.58,2.67,9.89a1.56,1.56,0,0,1-1.28,2.07c-.5.13-1,.32-1.5.41-2.65.49-5.31.95-8,1.44-2.5.46-5,1.15-7.49,1.39-4.19.41-8.41.55-12.62.77-3.38.18-6.76.35-10.14.48-4.7.18-9.41.24-14.1.52-2.73.16-5.44.64-8.15,1-1.64.23-3.4,1.06-4.89.71-3.32-.77-6.67-.42-10-.76-3.56-.36-7.15-.36-10.73-.53-1.43-.07-2.86-.23-4.29-.24-4.1,0-8.2-.1-12.3.06s-8.24.75-12.36.86a107.06,107.06,0,0,1-16.2-.61c-4.19-.52-8.35-1-12.35-2.41-3.51-1.26-3.38-.75-2.42-4.51,1.15-4.54,2.76-9,4.16-13.44.56-1.78.55-1.78,2.44-1.78,3.12,0,6.25.18,9.36-.06,3.79-.29,7.56-.9,11.33-1.43,1.72-.24,3.41-.61,5.11-.92h.48l2.89-.7h2.15Z" />
            <path class="color-shadow"
                d="M357.08,430.78c-1.7.31-3.39.68-5.11.92-3.77.53-7.54,1.14-11.33,1.43-3.11.24-6.24.05-9.36.06-1.89,0-1.88,0-2.44,1.78-1.4,4.47-3,8.9-4.16,13.44-1,3.76-1.09,3.25,2.42,4.51,4,1.44,8.16,1.89,12.35,2.41a107.06,107.06,0,0,0,16.2.61c4.12-.11,8.24-.7,12.36-.86s8.2-.08,12.3-.06c1.43,0,2.86.17,4.29.24,3.58.17,7.17.17,10.73.53,3.32.34,6.67,0,10,.76,1.49.35,3.25-.48,4.89-.71,2.71-.38,5.42-.86,8.15-1,4.69-.28,9.4-.34,14.1-.52,3.38-.13,6.76-.3,10.14-.48,4.21-.22,8.43-.36,12.62-.77,2.52-.24,5-.93,7.49-1.39,2.65-.49,5.31-1,8-1.44.51-.09,1-.28,1.5-.41a1.56,1.56,0,0,0,1.28-2.07c-.85-3.31-1.78-6.59-2.67-9.89-.31-1.15-.52-2.34-.93-3.45a3.63,3.63,0,0,0-1.21-1.9c-3.41-1.92-7-3.41-11-3.43-3.06,0-6.12-.22-9.18-.47-2.41-.19-4.8-.55-7.21-.85l-2.55-.33a16.81,16.81,0,0,1,2.33-.21c3.1.12,6.2.38,9.3.42,1.78,0,3.57-.47,5.34-.4,3.53.14,7.05.49,10.57.78a22.29,22.29,0,0,1,2.7.42,3.89,3.89,0,0,1,3,2.44c.69,1.77,1.45,3.52,2,5.34.77,2.58,1.36,5.21,2.06,7.81.61,2.23,1.35,4.42,1.87,6.66s-.71,4.86-3.62,4.59c-1.3-.12-2.61-.17-3.92-.24-3.87-.24-7.58.68-11.33,1.45-2.4.49-4.86.67-7.31.94-3,.33-6.06.64-9.1.88-1.54.11-3.11,0-4.66,0-3.11,0-6.22,0-9.33,0-1.51,0-3,.14-4.52.28-3.71.36-7.41,1-11.13,1.11-6.07.18-12.15.1-18.23,0-2.25,0-4.5-.43-6.75-.64-3.36-.32-6.71-.71-10.08-.9-2.1-.12-4.22,0-6.33.11-1.79.07-3.58.17-5.36.31-2.81.22-5.62.71-8.43.65-4.39-.1-8.79.52-13.18-.55a64.34,64.34,0,0,0-9.31-1.27c-4.19-.37-8.18-1.56-12.24-2.54-2.82-.68-2.91-.73-1.92-3.49,1.14-3.18,2.52-6.27,3.68-9.44.93-2.54,1.67-5.15,2.51-7.73a3.4,3.4,0,0,1,3.73-2.76c1.75,0,3.5-.21,5.25-.22s3.34.25,5,.2c3.78-.09,7.56-.28,11.34-.48,1.1-.05,2.19-.31,3.3-.41A4,4,0,0,1,357.08,430.78Z" />
            <path class="color-shadow"
                d="M408,428.13a5.94,5.94,0,0,1-1.23.24c-2.91,0-5.82.07-8.73,0q-6-.17-12-.49c-1.33-.06-2.64-.3-4-.47a2.77,2.77,0,0,1,.65-.22c4.26-.09,8.52-.3,12.77-.2,3.32.08,6.63.57,9.94.89Z" />
            <path class="color-shadow"
                d="M431,427.19c-.23.16-.46.43-.71.45-1.22.13-2.45.23-3.68.25-5.9.1-11.8.17-17.7.24.19-.15.38-.43.58-.44,4.11-.27,8.22-.6,12.34-.71C424.89,426.9,428,427.11,431,427.19Z" />
            <path class="color-shadow"
                d="M437.49,427.41l-5.05-.22c1.6-.05,3.21-.12,4.81-.15C437.33,427,437.41,427.28,437.49,427.41Z" />
            <path class="color-shadow" d="M360.45,430.08l-2.89.7Z" />
            <path class="color-shadow" d="M366,429.82h0Z" />
            <path class="color-shadow" d="M370,429.58h0Z" />
            <path class="color-shadow" d="M372.44,429.34l-1,.23Z" />
            <path class="color-shadow" d="M362.6,430.06h0Z" />
            <path class="color-shadow" d="M373.64,429.1l-.49.23Z" />
            <path class="color-shadow" d="M374.85,428.64l-.5.45Z" />
            <path class="color-shadow" d="M378.21,427.68l-.5.45Z" />
        </g>
    </g>
</svg>
