<svg id="Nizy_classic" data-name="Nizy classic" xmlns="http://www.w3.org/2000/svg" viewBox="0 0 672 960">
    <g id="img_35" data-name="img 35">
        <g id="img_33_img" data-name="img 33 img">
            <path class="color-shadow" d="M318.53,444.8l-1-1.29V443l.65-.1c0,.12.07.24.1.37l0,.69.36.78Z" />
            <path class="color-base"
                d="M332.82,406.77a15.21,15.21,0,0,0,.44-1.86c.3-2.77.52-5.55.86-8.31a33.88,33.88,0,0,1,1.11-5.33q.6,17.88,1.19,35.71c1.69.25,3.17.51,4.66.68a4.12,4.12,0,0,0,1.5-.26,3.45,3.45,0,0,1,3.46.41c.79-1,.62-2.1.72-3.18a8.13,8.13,0,0,1,.6-1.95c.48-1.32,1-2.63,1.55-4.15a5.83,5.83,0,0,1,.94.21,64.47,64.47,0,0,0,16,3.19c3.37.3,6.72.92,10.09,1.25,4.61.45,9.24.83,13.85,0a7.74,7.74,0,0,1,1.08-.06,31.44,31.44,0,0,0,3.22-.2,30.24,30.24,0,0,0,3.12-.84l-.26.76h3.36c2,0,4.08,0,6.12.07.93,0,1.84.06,2.22,1.21.08.23.66.42,1,.4,4.09-.29,8.19-.55,12.27-.94,4.79-.47,9.57-1.1,14.37-1.57,2.41-.23,4.85-.17,7.27-.38,2.7-.23,5.39-.59,8.08-1,3.16-.43,6.3-.93,9.46-1.37,1.29-.18,2.59-.27,4-.41l-.32-3.15.35.16c.2-.23.59-.47.58-.68-.12-2.06-.36-4.1-.44-6.16a14.18,14.18,0,0,1,.31-3c0-.21.55-.55.66-.49.35.18.8.5.86.83.22,1.25.27,2.53.45,3.79a4,4,0,0,0,.51,1,53.13,53.13,0,0,0-.34,5.62,86.51,86.51,0,0,0,.86,9c.41,2.65,1.15,5.25,1.74,7.86l-1.43.07-1.72.09-4.52.14-1.23.12-2.13.12-1.23.12-2.61.14c-.53-.41-1-.57-1.47.12l-2.13.12c-.6-.43-1.18-.56-1.7.12l-9.08,0a1.71,1.71,0,0,0-2.2-.11l-24.46,0-.52,0H396.24l-2.44-.06-5.48-.17-1-.07-13.07-.08-8.5-.06a2.63,2.63,0,0,0-2.94,0l-5.48.13-1.71.13-2.85.1c-1.61-.06-3.22-.12-4.83-.16-.07,0-.14.25-.21.38l-.72,0-4.57,0-3.58-.19c-.4-1-2.53-1.22-3.39-.35l-.23.28-1.18-.1a6.65,6.65,0,0,1-.72-4.33c.14-2.09.43-4.18.43-6.27,0-4.34-.12-8.67-.22-13,0-1.1-.12-2.21-.25-3.31C333.27,407.33,333,407.06,332.82,406.77Z" />
            <path class="outline"
                d="M365.75,434.3l8.5.06,13.07.08,1,.07,5.48.17,2.44.06h17.69l.52,0,24.46,0,2.2.11,9.08,0,1.7-.12,2.13-.12,1.47-.12,2.61-.14,1.23-.12,2.13-.12,1.23-.12,4.52-.14,1.72-.09,1.43-.07h1l2.42-.15,1.2,0,3.93.18c-.48-2.09-.84-4.05-1.39-5.95-.49-1.71-1.22-3.34-1.81-5-.44-1.21-.83-2.44-1.25-3.66a15.83,15.83,0,0,0,.1-2.83c-.26-1.78-.7-3.54-1.06-5.31l-.45-3.41-.24-1.61c-.07-1.5-.14-3-.22-4.5h.15c1,4.67,1.85,9.39,3.07,14s2.86,9.29,4.31,13.92l.11.56.16,1,.13,1.17,0,.42.39,2.22.09.42.2.84.31,1.06.2.61,1,2.53.21.6.71,2.32a2.36,2.36,0,0,0,0,.46c.39,1.85,0,2.33-1.78,2.42a5.86,5.86,0,0,0-.9.21l-1,.07-2.14.16-2.12.16-1,.09-5.73.12-1.71.12-1,.08h-1.45l-.48.19-.45.07-1.22.14-.71.08-1.45.16-1.41.11-2.68,0-.49.16-3.56.08-1.94.15-1.2.07h-7.94c-1.62,0-3.25-.05-4.88-.05-1.89,0-3.79,0-5.69.05l-3.83-.1-2.43-.11-5.16-.12-.83-.13-4.3-.13-.52-.07-6.44-.16h-7.9l-5,.16-1.09.1-2.51.13-1.71.1-2.13.13-1.48.11-1.41.12-1.71.12-1.88.14-.85.1-1.79.13-1.48.11-1,.09-1.93.16-.94.1-1.47,0-.47.2a1,1,0,0,1-.23.05h-1.22l-.45.17-.48.07-1.22.15-1.18.1h-1.23l-.46.15-.95.1H361.4l-.48.17-.46.07h-2.18l-.49.15-1.17.08-3.12.15-7.68.1-4.34,0-1.21-.05-1.92-.18-.46-.06-.49-.19-1.45,0-.46-.07L335,450h-1.21l-.72-.09-1.19-.16-.49-.09-1.59-.47-.54-.14-.45-.09-1.46-.36-.45-.12-1-.39-1-.51L319.16,445l-.44-.09a1,1,0,0,1-.19-.12l0,0-.36-.78c0-.23,0-.46,0-.69l.66-1.95,0-.52h0a18.78,18.78,0,0,0,1.05-2.4c.5-1.73.9-3.48,1.34-5.23l.08-.44.15-.52.09-.45.15-.51,3.92-13.88v0l.76-.05,0,.76-.17,2.38-.27,1.36c-.71,3.84-1.41,7.68-2.16,11.51-.15.75,0,1,.78,1.06l5.61.2h2.88l1,0,1.18.1,1,.1,2.64,0,3.58.19,4.57,0,.72,0,5-.22,2.85-.1,1.71-.13,5.48-.13Zm97.63,1.85.51-.07,1.89-.18.5-.07.73-.22h12.37l.14-.5c-.37-.17-.75-.49-1.11-.48-3.81.15-7.62.36-11.42.55l-3.1.13-1.2.07-2.88.18-1.54.16-2.55.09c-1.74,0-3.49,0-5.24.08a4.84,4.84,0,0,0-1,.24h-3.39a6.3,6.3,0,0,0-1.11-.24c-1.77-.05-3.55-.06-5.33-.08-.65,0-1.3,0-1.95,0h-24l-1.19,0H398.58l-6.94,0-3.16-.1-2.37-.08a6.09,6.09,0,0,0-1-.22q-13.44,0-26.89,0a5.54,5.54,0,0,0-1.11.25l-.7,0c-.4,0-.79-.08-1.19-.07l-18.33.21c-.68,0-1.36-.07-2-.07H323.92a3.93,3.93,0,0,0,.77.22c3.26.26,6.52.57,9.78.73s6.55.19,9.82.23c2.43,0,4.87,0,7.3,0l1.67,0,1.89,0c2,.07,4.07.2,6.1.19,6.47,0,12.93-.1,19.4-.11,4.23,0,8.46.1,12.69.15.15.15.31.43.47.43,2.17,0,4.34-.06,6.51-.09l12.92,0,.72,0,4.28-.17,2.2-.08h11.05l.47,0,15.36,0,1,0,3.59-.15,1.69-.1,2.12-.12,1-.1,2.16-.21.48,0Zm-9.08,2.13-4.1.17H433.64l-5.07-.15-6.41,0-2.68.11-2.85.11-2.67.13-4,.13h-7.51l-3.57-.14-1.47-.1-3.33-.14-.76-.05c-.51,0-1-.12-1.55-.12l-36.57-.06c-.1-.06-.2-.17-.3-.17l-12.45,0c-3,0-5.91-.05-8.86-.09l-5.25-.08-.48-.08-.51,0-1.66-.09c-.42-.06-.85-.11-1.26-.21-1.25-.27-1.83.3-2,1.49a19.27,19.27,0,0,1-.69,2.79,1,1,0,0,0,.62,1.42c1.21.63,2.34,1.39,3.55,2a16.69,16.69,0,0,0,3.93,1.68,76.63,76.63,0,0,0,10.6,1.68c5.45.31,10.94.33,16.4.17,4.61-.14,9.21-.71,13.82-1.08,3.3-.27,6.59-.54,9.89-.77,4.65-.33,9.3-.65,14-.9,2.19-.13,4.39-.1,6.59-.14h2.16l7.17.12a1.87,1.87,0,0,0,.55.18c4.34.18,8.69.51,13,.48,10.75-.07,21.5-.29,32.24-.48a35.13,35.13,0,0,0,3.69-.34c2.65-.33,5.29-.77,7.94-1,3.69-.33,7.4-.5,11.09-.78,1.72-.13,2.29-1.06,1.86-2.68-.32-1.19-.48-2.43-.81-3.61-.1-.35-.54-.82-.84-.83a24.81,24.81,0,0,0-3,.17l-2.87,0-1.7,0-.48.07-1.39,0-.76.06-.71,0-2.41.19-1.18.08-1.94.18-1.41.09-1.7.2-1.9,0-1.53.35Z" />
            <path class="color-shadow-dark"
                d="M474.42,419c.42,1.22.81,2.45,1.25,3.66.59,1.68,1.32,3.31,1.81,5,.55,1.9.91,3.86,1.39,5.95l-3.93-.18c-.17-1.09,0-2.33-.54-3.24a53,53,0,0,1-4.79-13.54c-.73-3.06-.08-6.26-1.14-9.26.16-.15.4-.27.44-.44s-.1-.73,0-.93c1.43-1.84,1.52-4.13,2.37-6.31a6.64,6.64,0,0,1,.48,1.18c.21,1.25.34,2.52.55,3.77a6.42,6.42,0,0,0,.41,1.16l.24,1.61c0,1.17.05,2.34.08,3.52.3,2.3.58,4.6.9,6.9A5.57,5.57,0,0,0,474.42,419Z" />
            <path class="color-shadow"
                d="M331.39,434.58h-1.18a7.12,7.12,0,0,0-1.65-.64c-.89-.11-1.29-.51-1.24-1.39a8.4,8.4,0,0,1,.09-1.42c.74-3.48,1.52-7,2.26-10.44.19-.85.55-1.77-.43-2.43l-.24-.93c0-.15.05-.31.07-.47s.2-.58.31-.88l0-.29.75-3.31c0-.1,0-.2,0-.3l.74-2.09.35-.81.4-.6.51-.86.46-.57.27-.39c.17.29.45.56.48.87.13,1.1.23,2.21.25,3.31.1,4.34.23,8.67.22,13,0,2.09-.29,4.18-.43,6.27a6.65,6.65,0,0,0,.72,4.33l-1,0A1,1,0,0,0,331.39,434.58Z" />
            <path class="color-shadow"
                d="M468.47,407.42c1.06,3,.41,6.2,1.14,9.26a53,53,0,0,0,4.79,13.54c.5.91.37,2.15.54,3.24l-1.2,0c-.83-.41-1.66-.65-2.42.15h-1c-.59-2.61-1.33-5.21-1.74-7.86a86.51,86.51,0,0,1-.86-9,53.13,53.13,0,0,1,.34-5.62c0-1.4-.06-2.79-.1-4.19h.47Z" />
            <path class="color-shadow-dark"
                d="M329.24,418.27c1,.66.62,1.58.43,2.43-.74,3.48-1.52,7-2.26,10.44a8.4,8.4,0,0,0-.09,1.42c-.05.88.35,1.28,1.24,1.39a7.12,7.12,0,0,1,1.65.64l-5.61-.2c-.75,0-.93-.31-.78-1.06.75-3.83,1.45-7.67,2.16-11.51l.27-1.36.85-1.16h0l.7-.49.34-.13Z" />
            <path class="color-base"
                d="M452.48,410.27c.16-1.66.3-3.33.47-5,.22-2.09.47-4.18.68-6.27s.34-4.12.55-6.18c0-.21.28-.39.43-.58.13.24.38.49.36.72-.15,1.94-.3,3.88-.55,5.81-.39,3-.86,6-1.3,9.06-.12.83-.27,1.65-.4,2.47Z" />
            <path class="color-shadow"
                d="M321.6,431.79l-.09.45-.15.52c0,.15-.06.29-.08.44-.24.56-.47,1.12-.7,1.67.79-3.28,1.56-6.57,2.4-9.84.55-2.12,1.17-4.23,1.82-6.32a5.43,5.43,0,0,1,.87-1.31q-2,6.94-3.92,13.88Z" />
            <path class="color-shadow"
                d="M430.74,448.11c1.9,0,3.8-.05,5.69-.05,1.63,0,3.26,0,4.88.05a1.49,1.49,0,0,1,0,.21l-10.24.05C431,448.37,430.85,448.2,430.74,448.11Z" />
            <path class="color-shadow-dark"
                d="M320.58,434.87c.23-.55.46-1.11.7-1.67-.44,1.75-.84,3.5-1.34,5.23a18.78,18.78,0,0,1-1.05,2.4v-.44L320,436.9Z" />
            <path class="color-shadow"
                d="M442.52,448.1h6.73c-.15.1-.3.29-.44.29-2.1,0-4.2,0-6.3-.05A1.77,1.77,0,0,0,442.52,448.1Z" />
            <path class="color-shadow"
                d="M324.85,447.6l1,.51.46.44a7.2,7.2,0,0,1-1.12-.33c-2-.9-3.91-1.83-5.87-2.75l.07-.08Z" />
            <path class="color-shadow"
                d="M480.93,446.09a5.86,5.86,0,0,1,.9-.21c1.81-.09,2.17-.57,1.78-2.42a2.36,2.36,0,0,1,0-.46,1.86,1.86,0,0,1,.16,2.66C483.12,446.18,481.9,446,480.93,446.09Z" />
            <path class="color-shadow" d="M341.48,450.72l4.34,0Z" />
            <path class="color-shadow" d="M401,447.28h0Z" />
            <path class="color-shadow" d="M353.5,450.65l3.12-.15Z" />
            <path class="color-base" d="M330.1,412.39l-.75,3.31Z" />
            <path class="color-base"
                d="M327.1,419.3l-.85,1.16c.06-.79.11-1.59.17-2.38C326.65,418.49,326.88,418.89,327.1,419.3Z" />
            <path class="color-shadow" d="M320,436.9l-1.14,3.49Z" />
            <path class="color-shadow" d="M456.44,447.63l2.68,0-2.69.21C456.43,447.78,456.44,447.71,456.44,447.63Z" />
            <path class="color-shadow" d="M328.81,449l.45.09.54.14,1.59.47-3-.57Z" />
            <path class="color-shadow" d="M424.48,447.9l2.43.11Z" />
            <path class="color-shadow" d="M477.82,446.32l2.14-.16Z" />
            <path class="color-shadow" d="M358.28,450.27h2.18l-2.19.24Z" />
            <path class="color-shadow-dark" d="M480.92,434.62l-.39-2.22Z" />
            <path class="color-shadow" d="M373.41,449l1.93-.16Z" />
            <path class="color-shadow" d="M450.45,448l1.94-.15Z" />
            <path class="color-shadow" d="M338.35,450.49l1.92.18Z" />
            <path class="color-base" d="M330.83,410l-.74,2.09C330.33,411.39,330.58,410.7,330.83,410Z" />
            <path class="color-shadow" d="M467.25,446.81l1.71-.12Z" />
            <path class="color-base" d="M329.24,418.27l-1.09.4c.28-.45.57-.89.85-1.33Z" />
            <path class="color-shadow-dark" d="M318.89,441.35l-.66,1.95c0-.13-.07-.25-.1-.37.17-.53.34-1.06.52-1.58Z" />
            <path class="color-shadow" d="M361.4,450h1.71l-1.72.23C361.39,450.19,361.4,450.11,361.4,450Z" />
            <path class="color-shadow" d="M389,447.77l1.71-.1Z" />
            <path class="color-shadow" d="M382.29,448.25l1.71-.12Z" />
            <path class="color-shadow" d="M371,449.06l1.47,0-1.48.21Z" />
            <path class="color-shadow" d="M376.29,448.73l1.48-.11Z" />
            <path class="color-shadow" d="M385.41,448l1.48-.11Z" />
            <path class="color-shadow" d="M460.53,447.54l1.45-.16Z" />
            <path class="color-shadow" d="M464.84,446.9h1.45l-1.46.25Z" />
            <path class="color-shadow" d="M336,450.26l1.45,0v.25Z" />
            <path class="color-shadow" d="M326.9,448.5l.45.12.7.42-1.52-.43Z" />
            <path class="color-shadow-dark" d="M328.05,449l-.7-.42,1.46.36-.39.13Z" />
            <path class="color-shadow-dark" d="M480.48,432l-.13-1.17Z" />
            <path class="color-shadow" d="M369.08,449.31h1.22l-1.23.24Z" />
            <path class="color-shadow" d="M366.93,449.7l1.22-.15Z" />
            <path class="color-shadow" d="M462.69,447.3l1.22-.14Z" />
            <path class="color-shadow" d="M333.79,450H335v.24Z" />
            <path class="color-shadow" d="M331.88,449.77l1.19.16Z" />
            <path class="color-shadow" d="M364.52,449.79h1.23l-1.24.22C364.51,449.94,364.52,449.86,364.52,449.79Z" />
            <path class="color-base" d="M326.44,417.32l-.76.05.6-.53Z" />
            <path class="color-base" d="M468.47,407H468l.09-.83h.24Z" />
            <path class="color-shadow" d="M474.69,446.57l1-.09Z" />
            <path class="color-shadow" d="M393.24,447.54l1.09-.1Z" />
            <path class="color-shadow-dark" d="M442.52,448.1a1.77,1.77,0,0,1,0,.23h-1.18a1.49,1.49,0,0,0,0-.21Z" />
            <path class="color-shadow" d="M379.56,448.49l.85-.1Z" />
            <path class="color-shadow-dark" d="M326.9,448.5l-.37.11a.2.2,0,0,1-.18-.06l-.46-.44Z" />
            <path class="color-shadow" d="M418.49,447.65l.83.13Z" />
            <path class="color-shadow-dark" d="M481.21,435.88,481,435Z" />
            <path class="color-base" d="M329.38,416c-.11.3-.21.59-.31.88C329.17,416.58,329.27,416.29,329.38,416Z" />
            <path class="color-shadow" d="M406.53,447.28h0Z" />
            <path class="color-base" d="M327.81,418.8l-.7.49Z" />
            <path class="color-shadow" d="M318.72,444.92l.44.09.27.38-.07.08Z" />
            <path class="color-shadow-dark" d="M480.19,429.82l-.11-.56Z" />
            <path class="color-shadow-dark" d="M371,449.06v.23l-.46,0Z" />
            <path class="color-shadow-dark" d="M482.9,440.68l-.21-.6Z" />
            <path class="color-shadow-dark" d="M369.08,449.31v.24l-.44-.07Z" />
            <path class="color-base" d="M332.55,407.16l-.46.57Z" />
            <path class="color-shadow-dark" d="M364.52,449.79c0,.07,0,.15,0,.23l-.45-.08Z" />
            <path class="color-shadow-dark" d="M481.72,437.55l-.2-.61Z" />
            <path class="color-shadow-dark" d="M335,450.25V450l.49.18Z" />
            <path class="color-shadow-dark" d="M361.4,450c0,.08,0,.16,0,.24l-.47-.07Z" />
            <path class="color-shadow" d="M399.33,447.28h0Z" />
            <path class="color-shadow-dark" d="M337.41,450.49v-.25l.49.19Z" />
            <path class="color-shadow-dark" d="M358.28,450.27v.24l-.48-.09Z" />
            <path class="color-shadow-dark" d="M464.84,446.9v.24l-.47-.05Z" />
            <path class="color-shadow" d="M318.89,441.35h-.24l.22-.52Z" />
            <path class="color-shadow" d="M413.67,447.45l.52.07Z" />
            <path class="color-shadow-dark" d="M456.44,447.63c0,.08,0,.15,0,.23l-.48-.07Z" />
            <path class="color-base" d="M331.58,408.59l-.4.6Z" />
            <path class="color-shadow-dark" d="M318.21,444l.36.78Z" />
            <path class="color-shadow" d="M338.86,434.73l-2.64,0-.75-.38C336.33,433.51,338.46,433.74,338.86,434.73Z" />
            <path class="color-shadow-dark"
                d="M352.77,434.66l-5,.22c.07-.13.14-.38.21-.38C349.55,434.54,351.16,434.6,352.77,434.66Z" />
            <path class="color-shadow-dark" d="M347,434.9l-4.57,0Z" />
            <path class="color-shadow-dark" d="M365.75,434.3h-2.94A2.63,2.63,0,0,1,365.75,434.3Z" />
            <path class="color-shadow-dark" d="M396.24,434.74l-2.44-.06Z" />
            <path class="color-shadow-dark" d="M441.11,434.8l-2.2-.11A1.71,1.71,0,0,1,441.11,434.8Z" />
            <path class="color-shadow-dark" d="M468.93,433.73l-1.72.09Z" />
            <path class="color-shadow-dark" d="M357.33,434.43l-1.71.13Z" />
            <path class="color-shadow-dark" d="M451.89,434.7l-1.7.12C450.71,434.14,451.29,434.27,451.89,434.7Z" />
            <path class="color-shadow-dark" d="M398.64,434.75h0Z" />
            <path class="color-shadow-dark" d="M455.49,434.46l-1.47.12C454.46,433.89,455,434.05,455.49,434.46Z" />
            <path class="color-shadow-dark" d="M459.33,434.2l-1.23.12Z" />
            <path class="color-shadow-dark" d="M462.69,434l-1.23.12Z" />
            <path class="color-shadow-dark" d="M388.32,434.51l-1-.07Z" />
            <path class="color-shadow-dark" d="M335.47,434.38l.75.38-1-.1Z" />
            <path class="color-shadow-dark" d="M414.45,434.71l-.52,0Z" />
            <path class="color-shadow"
                d="M401.71,445.81H401c-.26-.13-.51-.37-.77-.38-2.87-.1-5.74-.19-8.61-.25-4.29-.08-8.58-.2-12.87-.18-2.62,0-5.24.25-7.86.43-1.74.13-3.48.34-5.22.51-3.12.31-6.23.68-9.36.89-2,.14-4,.06-6.06,0a50.8,50.8,0,0,1-7.1-.28,115,115,0,0,1-11.63-2.48,34.73,34.73,0,0,1-6.11-2.67c-1.32-.65-1.54-1.31-1-2.74.17-.42.8-.66,1.21-1l1.66.09.24.35.27-.32.48.08c-.35,1.06-.06,1.58,1.14,1.65a14.67,14.67,0,0,1,4.11.53,47.06,47.06,0,0,0,14.63,2.45c1.87.08,3.75,0,5.63,0,3.88.06,7.76.29,11.64.17,4.68-.15,9.35-.81,14-.87,7.86-.09,15.72.12,23.59.2a5.79,5.79,0,0,1,.82.12,16.18,16.18,0,0,0,5.64.31,79,79,0,0,1,8.39-.88c2.46-.11,4.94.21,7.41.19,8.17-.09,16.34.21,24.52-.39a76.33,76.33,0,0,0,11.68-1.51c2.89-.67,5.81-1.25,8.73-1.85.53-.11.93-.24.81-.89l.48-.07c.58.62,1.14.67,1.7,0l2.87,0c.24,1,.52,1.92.72,2.89.26,1.23-.33,1.82-1.63,1.79a31.55,31.55,0,0,0-10,1.24,74.73,74.73,0,0,1-9.31,2c-2.1.36-4.25.53-6.38.72-2.3.2-4.6.44-6.9.45-1.94,0-3.88-.34-5.82-.42-3.59-.13-7.18-.16-10.77-.26-2.31-.06-4.62-.24-6.93-.2-2.58,0-5.16.28-7.74.46a5.17,5.17,0,0,0-1,.26l-7.17-.12C402.69,445.2,402.2,445.21,401.71,445.81Z" />
            <path class="color-base"
                d="M471.07,437.17c.12.65-.28.78-.81.89-2.92.6-5.84,1.18-8.73,1.85a76.33,76.33,0,0,1-11.68,1.51c-8.18.6-16.35.3-24.52.39-2.47,0-4.95-.3-7.41-.19a79,79,0,0,0-8.39.88,16.18,16.18,0,0,1-5.64-.31,5.79,5.79,0,0,0-.82-.12c-7.87-.08-15.73-.29-23.59-.2-4.68.06-9.35.72-14,.87-3.88.12-7.76-.11-11.64-.17-1.88,0-3.76,0-5.63,0a47.06,47.06,0,0,1-14.63-2.45,14.67,14.67,0,0,0-4.11-.53c-1.2-.07-1.49-.59-1.14-1.65l5.25.08c2.95,0,5.91.06,8.86.09a3.47,3.47,0,0,0,1,.36q5.37,0,10.74,0a4.43,4.43,0,0,0,1-.23l36.57.06c.52,0,1,.08,1.55.12l.76.05,3.33.13,1.47.11,3.57.14c.19.11.38.32.57.32q3.18,0,6.36,0c.19,0,.38-.21.58-.32l4-.13,2.67-.13,2.85-.11,2.68-.11,6.41,0,5.07.15H450.2c1.28.06,2.56.14,3.85.18.08,0,.17-.23.25-.35l1.84.14,1.53-.35,1.9,0,1.7-.2,1.41-.09c.68.31,1.36.62,1.94-.18l1.18-.08c.84.35,1.67.63,2.41-.19l.71,0,.76-.06Z" />
            <path class="color-shadow-dark"
                d="M325.65,437.7c-.41.33-1,.57-1.21,1-.55,1.43-.33,2.09,1,2.74a34.73,34.73,0,0,0,6.11,2.67,115,115,0,0,0,11.63,2.48,50.8,50.8,0,0,0,7.1.28c2,0,4.05.12,6.06,0,3.13-.21,6.24-.58,9.36-.89,1.74-.17,3.48-.38,5.22-.51,2.62-.18,5.24-.42,7.86-.43,4.29,0,8.58.1,12.87.18,2.87.06,5.74.15,8.61.25.26,0,.51.25.77.38-2.2,0-4.4,0-6.59.14-4.66.25-9.31.57-14,.9-3.3.23-6.59.5-9.89.77-4.61.37-9.21.94-13.82,1.08-5.46.16-10.95.14-16.4-.17a76.63,76.63,0,0,1-10.6-1.68,16.69,16.69,0,0,1-3.93-1.68c-1.21-.6-2.34-1.36-3.55-2a1,1,0,0,1-.62-1.42,19.27,19.27,0,0,0,.69-2.79c.21-1.19.79-1.76,2-1.49C324.8,437.59,325.23,437.64,325.65,437.7Z" />
            <path class="color-base"
                d="M418.24,437.31l-4.28.17-.72,0-12.92,0a4.83,4.83,0,0,0-1.09-.27c-1.32,0-2.63,0-3.94-.06h-2c-4.23,0-8.46-.15-12.69-.15-6.47,0-12.93.1-19.4.11-2,0-4.06-.12-6.1-.19l-1.89,0-1.67,0a4.56,4.56,0,0,0-1.14-.36c-1.86,0-3.72,0-5.58,0a.64.64,0,0,1,.52-.23c3.29-.08,6.59-.15,9.88-.25a4.15,4.15,0,0,0,1.13-.37l.7,0a4.93,4.93,0,0,0,.92.16h27.06a6.15,6.15,0,0,0,1-.17l2.37.08,3.16.1,6.94,0c.32.15.64.42,1,.42,3.77,0,7.55,0,11.32,0a2.87,2.87,0,0,0,1-.42h.71l1.19,0h24c2.77.89,5.58.46,8.39.29h3.39c2.09.21,4.19.55,6.22-.32l2.55-.09.32.13.25.45v.26l-2.16.21-1,.1-2.12.12-1.69.1-3.59.15-1,0-15.36,0-.47,0H420.44Z" />
            <path class="color-shadow-dark"
                d="M410.35,445.94a5.17,5.17,0,0,1,1-.26c2.58-.18,5.16-.41,7.74-.46,2.31,0,4.62.14,6.93.2,3.59.1,7.18.13,10.77.26,1.94.08,3.88.43,5.82.42,2.3,0,4.6-.25,6.9-.45,2.13-.19,4.28-.36,6.38-.72a74.73,74.73,0,0,0,9.31-2,31.55,31.55,0,0,1,10-1.24c1.3,0,1.89-.56,1.63-1.79-.2-1-.48-1.93-.72-2.89a24.81,24.81,0,0,1,3-.17c.3,0,.74.48.84.83.33,1.18.49,2.42.81,3.61.43,1.62-.14,2.55-1.86,2.68-3.69.28-7.4.45-11.09.78-2.65.24-5.29.68-7.94,1a35.13,35.13,0,0,1-3.69.34c-10.74.19-21.49.41-32.24.48-4.34,0-8.69-.3-13-.48A1.87,1.87,0,0,1,410.35,445.94Z" />
            <path class="color-shadow-dark"
                d="M356.4,435.7a4.15,4.15,0,0,1-1.13.37c-3.29.1-6.59.17-9.88.25a.64.64,0,0,0-.52.23c1.86,0,3.72,0,5.58,0a4.56,4.56,0,0,1,1.14.36c-2.43,0-4.87.05-7.3,0-3.27,0-6.55-.07-9.82-.23s-6.52-.47-9.78-.73a3.93,3.93,0,0,1-.77-.22h10.92c.68,0,1.36.07,2,.07l18.33-.21C355.61,435.62,356,435.68,356.4,435.7Z" />
            <path class="color-shadow-dark"
                d="M386.11,435.65a6.15,6.15,0,0,1-1,.17H358a4.93,4.93,0,0,1-.92-.16,5.54,5.54,0,0,1,1.11-.25q13.44,0,26.89,0A6.09,6.09,0,0,1,386.11,435.65Z" />
            <path class="color-shadow-dark" d="M467,435.18c3.8-.19,7.61-.4,11.42-.55.36,0,.74.31,1.11.48l-.14.5H467Z" />
            <path class="color-shadow"
                d="M467,435.18l0,.43-.73.22-.5.07-1.89.18-.51.07-4.06.39-.48-.24c-.09-.15-.17-.3-.25-.45l1.22-.29,2.88-.18,1.2-.07Z" />
            <path class="color-shadow-dark"
                d="M411.82,435.88a2.87,2.87,0,0,1-1,.42c-3.77,0-7.55,0-11.32,0-.32,0-.64-.27-1-.42Z" />
            <path class="color-shadow-dark"
                d="M355.16,438.22a4.43,4.43,0,0,1-1,.23q-5.37,0-10.74,0a3.47,3.47,0,0,1-1-.36l12.45,0C355,438.05,355.06,438.16,355.16,438.22Z" />
            <path class="transparent"
                d="M474.42,419a5.57,5.57,0,0,1-.43-1.13c-.32-2.3-.6-4.6-.9-6.9l.37-.11c.36,1.77.8,3.53,1.06,5.31A15.83,15.83,0,0,1,474.42,419Z" />
            <path class="color-shadow-dark"
                d="M446.11,436.13c-2.81.17-5.62.6-8.39-.29.65,0,1.3,0,1.95,0,1.78,0,3.56,0,5.33.08A6.3,6.3,0,0,1,446.11,436.13Z" />
            <path class="color-shadow-dark"
                d="M393.34,437.21h2c1.31,0,2.62,0,3.94.06a4.83,4.83,0,0,1,1.09.27c-2.17,0-4.34.08-6.51.09C393.65,437.64,393.49,437.36,393.34,437.21Z" />
            <path class="color-shadow-dark"
                d="M409.92,438.83c-.2.11-.39.32-.58.32q-3.18,0-6.36,0c-.19,0-.38-.21-.57-.32Z" />
            <path class="color-shadow-dark"
                d="M455.72,435.81c-2,.87-4.13.53-6.22.32a4.84,4.84,0,0,1,1-.24C452.23,435.84,454,435.83,455.72,435.81Z" />
            <path class="color-shadow-dark" d="M319.43,445.39l-.27-.38,5.69,2.59Z" />
            <path class="color-shadow-dark" d="M433.64,438.46l-5.07-.15Z" />
            <path class="color-shadow-dark" d="M454.3,438.28c-.08.12-.17.36-.25.35-1.29,0-2.57-.12-3.85-.18Z" />
            <path class="color-base" d="M473.46,410.87l-.37.11c0-1.18,0-2.35-.08-3.52Z" />
            <path class="color-shadow-dark" d="M391.64,435.83l-3.16-.1Z" />
            <path class="color-shadow-dark" d="M422.16,438.35l-2.68.11Z" />
            <path class="color-shadow-dark" d="M416.63,438.57l-2.67.13Z" />
            <path class="color-shadow-dark" d="M471.32,433.65c.76-.8,1.59-.56,2.42-.15Z" />
            <path class="color-shadow-dark" d="M468.21,437.29c-.74.82-1.57.54-2.41.19Z" />
            <path class="color-shadow-dark" d="M418.24,437.31l2.2-.08Z" />
            <path class="color-shadow-dark" d="M464.62,437.56c-.58.8-1.26.49-1.94.18Z" />
            <path class="color-shadow-dark" d="M353.26,437l1.89,0Z" />
            <path class="color-shadow-dark" d="M461.27,437.83l-1.7.2Z" />
            <path class="color-shadow-dark" d="M473.25,437.07c-.56.7-1.12.65-1.7,0Z" />
            <path class="color-shadow-dark" d="M331.39,434.58a1,1,0,0,1,1.7,0Z" />
            <path class="color-shadow-dark" d="M451.87,437.09l1.69-.1Z" />
            <path class="color-shadow-dark" d="M398.84,438.69l-1.47-.11Z" />
            <path class="color-shadow-dark" d="M401.71,445.81c.49-.6,1-.61,1.47,0Z" />
            <path class="color-shadow-dark" d="M459.81,435.56l-1.22.29-.32-.13Z" />
            <path class="color-shadow-dark" d="M457.67,438.07l-1.53.35Z" />
            <path class="color-shadow-dark" d="M463.89,435.31l-1.2.07Z" />
            <path class="color-shadow-dark" d="M413.72,435.84l-1.19,0Z" />
            <path class="color-shadow-dark" d="M447.32,437.27l1,0Z" />
            <path class="color-shadow-dark" d="M455.68,436.87l1-.1Z" />
            <path class="color-shadow-dark" d="M469.68,437.19l-.76.06Z" />
            <path class="color-shadow-dark" d="M394,438.45l-.76-.05Z" />
            <path class="color-shadow-dark" d="M413.24,437.51l.72,0Z" />
            <path class="color-shadow-dark" d="M465.78,435.9l.5-.07Z" />
            <path class="color-shadow-dark" d="M321.36,432.76l.15-.52Z" />
            <path class="color-shadow-dark" d="M321.6,431.79l.15-.51Z" />
            <path class="color-shadow-dark" d="M329.8,449.21l-.54-.14Z" />
            <path class="color-shadow-dark" d="M463.38,436.15l.51-.07Z" />
            <path class="color-shadow-dark" d="M431.49,437.22l.47,0Z" />
            <path class="color-shadow-dark" d="M458.84,436.3l.48.24-.48,0Z" />
            <path class="color-shadow-dark" d="M327.82,437.82l-.27.32-.24-.35Z" />
        </g>
    </g>
</svg>
