<svg xmlns="http://www.w3.org/2000/svg" viewBox="0 0 672 960">
    <g>
        <path
            d="M473,362.4a20.35,20.35,0,0,1,.74,8.37c-.47,2.83-1.39,5.61-1.6,8.45a26.1,26.1,0,0,0,.49,8.09A97.78,97.78,0,0,1,475,408.79c0,2-.09,4,.1,6a13,13,0,0,0,1.05,3.76c.86,2,1.29,4,.09,6.06-.19.34,0,.87-.13,1.28-.33,1.12-.73,2.22-1.2,3.63a25.36,25.36,0,0,1-2.3-9.24c-.45-4.09-.5-8.22-1.05-12.29-.45-3.39-1.38-6.72-2.09-10.07a12,12,0,0,1-.31-1.65c-.3-4.94-.78-9.88-.8-14.83a35.17,35.17,0,0,1,3-14C472,365.81,473.25,364.4,473,362.4Zm-.32,6.3c-3.57,5.48-3.42,27.15.2,30.68-.32-3-.5-5.82-.94-8.62-.85-5.51-1.49-11-.19-16.54C472.17,372.41,472.37,370.54,472.67,368.7Z" />
    </g>
</svg>
