<svg id="Karmany" xmlns="http://www.w3.org/2000/svg" viewBox="0 0 672 960">
    <g id="Kenguru_img" data-name="Kenguru img">
        <path class="outline"
            d="M479.46,431.11c-3.11,0-6,.17-8.84,0a88.71,88.71,0,0,0-14.85.28c-7.08.65-14.15,1.41-21.24,2a174.42,174.42,0,0,1-21.08,0c-9.1-.36-18.2-.89-27.28-1.49-11.88-.79-23.75-1.74-35.62-2.6q-9.8-.72-19.6-1.39A1.87,1.87,0,0,1,329,426.4a11.93,11.93,0,0,1-.49-2.56c-.18-6.79-.31-13.59-.45-20.38a36.22,36.22,0,0,0-.16-4.55c-.35-2.36.5-4.34,1.44-6.41,7.56-16.62,16.58-32.45,26-48.07.37-.62.74-1.24,1.17-1.82a2.57,2.57,0,0,1,2.47-1.05q8.61.57,17.23.93c7.74.33,15.49.71,23.23.85,6.63.13,13.27,0,19.9-.09,5.35-.08,10.71-.25,16.06-.48,3.19-.14,6.37-.5,9.55-.75.8-.06,1.6,0,2.39-.09a2.43,2.43,0,0,1,2.55,1.35c2.59,4.31,5.45,8.48,7.82,12.91,6,11.27,11.79,22.69,17.8,34,1.79,3.37,2.29,6.92,2.68,10.59a213.65,213.65,0,0,1,1.39,28.72C479.55,430,479.49,430.57,479.46,431.11Zm-149.12-31,.08.39.23-.31c.79-1.32,2-2.54,1.17-4.4A4.57,4.57,0,0,0,330.34,400.1Zm35.38-55.49a2.4,2.4,0,0,0-2.86-.12l-.45.29c-.87-1-1.91-.72-3-.38L357.18,346l3.63.49.06,1-.61,0-3.29-.29c-.48.84-.91,1.51-1.28,2.21q-11.12,21-22.24,41.92a6.48,6.48,0,0,0-.78,4.13c.17.39.33.78.49,1.17,0,1.23,0,2.46,0,3.68l.06.69-.11.84c-.09.79,0,1.42,1,.94l-.54,1.45c-.18.79-.35,1.58-.53,2.37h-.42a4.58,4.58,0,0,0-1.82,4.39q.22,6.07.47,12.13a6.76,6.76,0,0,0,.12,1.42c.21.82.74.91,1.36.53V418.1l.76,0c.05,2.37.11,4.74.17,7.29,4.57.48,8.92,1,13.28,1.39,8.1.76,16.19,1.57,24.3,2.19,6.76.52,13.54.81,20.31,1.18,8.53.46,17.05.93,25.57,1.35,2.24.11,4.51-.16,6.71.14,4.1.56,8.13,0,12.16-.37,5.16-.52,10.3-1.27,15.47-1.67,5.88-.46,11.79-.63,17.68-.93l3.71-.18v-4.65l.82,0v4.63h2.47c0-.89,0-1.67,0-2.45-.17-4.85-.46-9.71-.49-14.56,0-2.74,0-5.41-1.63-7.78l.65,0,.75.71c.43-2.86-.95-4.73-2.44-6.83-.61,1.93.14,3.26.81,4.6-.22.48-1.41.13-1,1.15.09,1.23.19,2.47.28,3.7l-.77,0-.23-.5c0-2.57.36-5.19-.74-7.65.25-.27,1.06-.27.45-.95a6.1,6.1,0,0,0-.88-4.08q-7.28-13-14.4-26.13a9.76,9.76,0,0,1-.58-2,14,14,0,0,1,1.39,1.81q6.76,12.27,13.49,24.56c.31.56.71,1.08,1.36,2.06,0-2.52.28-4.34-.74-6.2-7-12.81-13.95-25.67-20.91-38.52-1-1.91-1.18-2-3.87-1.4.38.75.71,1.45,1.08,2.12,2.5,4.55,5,9.08,7.51,13.64a12.68,12.68,0,0,1,.71,2,5.44,5.44,0,0,1-1.08-1.06c-1.27-2.22-2.46-4.48-3.71-6.71q-2.87-5.12-5.77-10.21l-.51-.78a7.64,7.64,0,0,0-1.35-2.42c-.43-.36-1.46,0-2.21,0-.24,0-.48-.06-.72-.06-4.15,0-8.3,0-12.45.09-5.75.19-11.48.75-17.22.76-10.46,0-20.92-.26-31.37-.44-4.31-.08-8.62-.22-12.92-.34h-.95Zm109.44,54.27.32.19,0-.4c-.1-.95-.26-1.9-.29-2.85a5.76,5.76,0,0,0-2-3.81,8.85,8.85,0,0,0-.36,1.09C472.49,395.48,473.79,397.19,475.16,398.88Zm-144.32,7.59c2.35-2.05,1.73-4.39,1.58-7.09A8.09,8.09,0,0,0,330.84,406.47Zm114.09-62.1c1,2.83,1,2.83,3.89,2.39C448,344,448,344,444.93,344.37Z" />
        <path class="color-base"
            d="M333.57,404.16l.54-1.45a8,8,0,0,0,.72-.93Q349.31,376,363.75,350.1c1.32-2.37,1.29-2.32,3.85-2.15,5.1.33,10.2.65,15.31.85,3.35.14,6.71.05,10.07.08,5.91.05,11.83.24,17.74.13,10.15-.2,20.29-.54,30.43-.92a3,3,0,0,1,3.13,1.93q11.57,21.15,23.23,42.24c1.23,2.23,2.57,4.4,3.86,6.6,1.1,2.46.75,5.08.74,7.65-1.11,0-1.24.67-1.27,1.58-.13,4.7-.31,9.4-.48,14.1,0,.61-.11,1.23-.18,2-2.76.37-5.42.79-8.09,1.05-3.95.4-7.91.72-11.87,1-5.16.35-10.31.73-15.48.9-2.53.08-5.07-.4-7.61-.4a150,150,0,0,1-15.72-.93c-4.11-.43-8.27-.39-12.41-.55-.4,0-.8,0-1.2,0-4.68-.3-9.36-.64-14-.92-3.57-.21-7.15-.34-10.73-.51-.24,0-.48-.07-.71-.09-2.61-.29-5.21-.55-7.81-.85-3.47-.4-6.93-.8-10.4-1.23-4.25-.54-8.49-1.11-12.74-1.64-2.19-.28-4.39-.49-6.74-.75,0-.84-.11-1.62-.12-2.4,0-1.52,0-3,0-4.56,0-.68-.05-1.3-.9-1.44l-.09-3.33C334.45,406.41,334.05,405.28,333.57,404.16Z" />
        <path class="color-shadow"
            d="M333.61,410.85c.85.14.9.76.9,1.44,0,1.52,0,3,0,4.56,0,.78.08,1.56.12,2.4,2.35.26,4.55.47,6.74.75,4.25.53,8.49,1.1,12.74,1.64,3.47.43,6.93.83,10.4,1.23,2.6.3,5.2.56,7.81.85.23,0,.47.08.71.09,3.58.17,7.16.3,10.73.51,4.68.28,9.36.62,14,.92.4,0,.8,0,1.2,0,4.14.16,8.3.12,12.41.55a150,150,0,0,0,15.72.93c2.54,0,5.08.48,7.61.4,5.17-.17,10.32-.55,15.48-.9,4-.28,7.92-.6,11.87-1,2.67-.26,5.33-.68,8.09-1.05.07-.78.16-1.4.18-2,.17-4.7.35-9.4.48-14.1,0-.91.16-1.6,1.27-1.58l.23.5q.11,8,.23,15.94a3,3,0,0,0,.3.87v4.65l-3.71.18c-5.89.3-11.8.47-17.68.93-5.17.4-10.31,1.15-15.47,1.67-4,.4-8.06.93-12.16.37-2.2-.3-4.47,0-6.71-.14-8.52-.42-17-.89-25.57-1.35-6.77-.37-13.55-.66-20.31-1.18-8.11-.62-16.2-1.43-24.3-2.19-4.36-.41-8.71-.91-13.28-1.39-.06-2.55-.12-4.92-.17-7.29S333.57,413.26,333.61,410.85Z" />
        <path class="outline"
            d="M471.37,398.86c-1.29-2.2-2.63-4.37-3.86-6.6Q455.86,371.16,444.28,350a3,3,0,0,0-3.13-1.93c-10.14.38-20.28.72-30.43.92-5.91.11-11.83-.08-17.74-.13-3.36,0-6.72.06-10.07-.08-5.11-.2-10.21-.52-15.31-.85-2.56-.17-2.53-.22-3.85,2.15q-14.44,25.84-28.92,51.68a8,8,0,0,1-.72.93c-1.07.48-1.13-.15-1-.94.23,0,.6,0,.67-.11,1.41-2.59,2.78-5.2,4.17-7.81.75-1.1,1.58-2.16,2.23-3.32q11.34-20.2,22.61-40.45c.37-.67.66-1.38,1.18-2.47H361l-.15-.16-.06-1,1-1.8-2.36-.25c1-.34,2.08-.66,2.94.38-.09.52-.19,1.05-.29,1.57,2.62.65,3,0,3.62-1.73h.94c-.27.63-.54,1.26-.82,1.93a3,3,0,0,0,.79.35c5.8.35,11.6.86,17.41,1,6.14.11,12.28-.21,18.41-.25,2.79,0,5.57.29,8.35.28,3.75,0,7.49-.21,11.23-.3l17.94-.42a3,3,0,0,0,.95,0c.62-.22,1.2-.75,1.8-.76a7.78,7.78,0,0,1,2.18.62l.51.78L444,348l3.65,6.59q9.44,17.1,18.87,34.19c1.7,3.06,3.51,6.06,5.26,9.09C472.43,398.59,471.62,398.59,471.37,398.86Z" />
        <path class="color-shadow"
            d="M444.91,347a7.78,7.78,0,0,0-2.18-.62c-.6,0-1.18.54-1.8.76a3,3,0,0,1-.95,0l-17.94.42c-3.74.09-7.48.29-11.23.3-2.78,0-5.56-.3-8.35-.28-6.13,0-12.27.36-18.41.25-5.81-.1-11.61-.61-17.41-1a3,3,0,0,1-.79-.35c.28-.67.55-1.3.82-1.93,4.3.12,8.61.26,12.92.34,10.45.18,20.91.45,31.37.44,5.74,0,11.47-.57,17.22-.76,4.15-.13,8.3-.07,12.45-.09.24,0,.48.07.72.06.75,0,1.78-.39,2.21,0A7.64,7.64,0,0,1,444.91,347Z" />
        <path class="color-shadow"
            d="M332.67,395.39a6.48,6.48,0,0,1,.78-4.13q11.16-20.94,22.24-41.92c.37-.7.8-1.37,1.28-2.21l3.28.29c-.26.84-.51,1.67-.77,2.5l0,0a5.07,5.07,0,0,0-.95,1c-1.8,3.2-3.57,6.42-5.34,9.64-3.39,6.17-6.72,12.36-10.16,18.5-2.93,5.22-6,10.38-9,15.56l-.54.89Z" />
        <path class="color-shadow"
            d="M456,365.76a12.68,12.68,0,0,0-.71-2c-2.48-4.56-5-9.09-7.51-13.64-.37-.67-.7-1.37-1.08-2.12,2.69-.56,2.83-.51,3.87,1.4,7,12.85,13.88,25.71,20.91,38.52,1,1.86.76,3.68.74,6.2-.65-1-1.05-1.5-1.36-2.06q-6.75-12.28-13.49-24.56a14,14,0,0,0-1.39-1.81Z" />
        <path class="color-shadow"
            d="M471.82,397.91c-1.75-3-3.56-6-5.26-9.09q-9.46-17.08-18.87-34.19L444,348l1.38-.26q2.9,5.1,5.77,10.21c1.25,2.23,2.44,4.49,3.71,6.71a5.44,5.44,0,0,0,1.08,1.06l0,0a9.76,9.76,0,0,0,.58,2q7.15,13.08,14.4,26.13A6.1,6.1,0,0,1,471.82,397.91Z" />
        <path class="color-shadow"
            d="M474,403.68c1.61,2.37,1.6,5,1.63,7.78,0,4.85.32,9.71.49,14.56,0,.78,0,1.56,0,2.45h-2.47v-4.63q-.29-8.43-.58-16.85c-.09-1.23-.19-2.47-.28-3.7Z" />
        <path class="color-shadow"
            d="M337.91,393.85c-1.39,2.61-2.76,5.22-4.17,7.81-.07.12-.44.08-.67.11,0-.28.08-.56.11-.85l-.06-.68c0-1.22,0-2.45,0-3.68l-.06-.06c.48-.49.95-1,1.42-1.48.65-1,1.31-2,1.93-3,1.58-2.55,3.14-5.12,4.71-7.68a8.36,8.36,0,0,1-.33,1.82c-.69,1.67-1.51,3.3-2.19,5A21.74,21.74,0,0,0,337.91,393.85Z" />
        <path class="color-shadow"
            d="M332.75,418.1V425c-.62.38-1.15.29-1.36-.53a6.76,6.76,0,0,1-.12-1.42q-.24-6.06-.47-12.13a4.58,4.58,0,0,1,1.82-4.39Q332.68,412.33,332.75,418.1Z" />
        <path class="outline" d="M473.11,407q.28,8.43.58,16.85l-.82,0a3,3,0,0,1-.3-.87q-.13-8-.23-15.94Z" />
        <path class="color-shadow"
            d="M475.16,398.88c-1.37-1.69-2.67-3.4-2.28-5.78a8.85,8.85,0,0,1,.36-1.09,5.76,5.76,0,0,1,2,3.81c0,.95.19,1.9.29,2.85A1.41,1.41,0,0,0,475.16,398.88Z" />
        <path class="outline" d="M332.75,418.1q-.08-5.78-.13-11.56H333l.48,1,.09,3.33q-.06,3.61-.1,7.23Z" />
        <path class="color-shadow"
            d="M330.84,406.47a8.09,8.09,0,0,1,1.58-7.09C332.57,402.08,333.19,404.42,330.84,406.47Z" />
        <path class="color-shadow"
            d="M444.93,344.37c3.07-.42,3.08-.42,3.89,2.39C445.9,347.2,445.9,347.2,444.93,344.37Z" />
        <path class="color-shadow" d="M473.8,402.14c-.67-1.34-1.42-2.67-.81-4.6,1.49,2.1,2.87,4,2.44,6.83l-.75-.71Z" />
        <path class="color-shadow" d="M359.46,344.4l2.36.25-1,1.8-3.63-.49Z" />
        <path class="color-shadow"
            d="M365.73,344.62c-.61,1.75-1,2.38-3.62,1.73.1-.52.2-1.05.29-1.57l.46-.29,2.86.12Z" />
        <path class="color-shadow" d="M330.34,400.1a4.57,4.57,0,0,1,1.48-4.32c.79,1.86-.38,3.08-1.17,4.4Z" />
        <path class="color-shadow"
            d="M333.52,407.52l-.48-1c.18-.79.35-1.58.53-2.37C334.05,405.28,334.45,406.41,333.52,407.52Z" />
        <path class="outline" d="M359.48,349.92c.26-.83.51-1.66.77-2.5l.62,0,.15.16Z" />
        <path class="outline" d="M473.8,402.14l.88,1.52-.65,0-1.2-.39C472.39,402.27,473.58,402.62,473.8,402.14Z" />
        <path class="outline" d="M365.72,344.61l-2.86-.12A2.4,2.4,0,0,1,365.72,344.61Z" />
        <path class="outline" d="M332.67,395.39l.87.06-.44,1.05.06.06C333,396.17,332.84,395.78,332.67,395.39Z" />
        <path class="outline" d="M475.16,398.88a1.41,1.41,0,0,1,.35-.21l0,.4Z" />
        <path class="outline" d="M330.34,400.1l.31.08-.23.31Z" />
        <path class="outline" d="M333.12,400.24l.06.68Z" />
        <path class="color-base"
            d="M359.48,349.92l1.54-2.31h2.91c-.52,1.09-.81,1.8-1.18,2.47q-11.29,20.24-22.61,40.45c-.65,1.16-1.48,2.22-2.23,3.32a21.74,21.74,0,0,1,.73-2.69c.68-1.68,1.5-3.31,2.19-5a8.36,8.36,0,0,0,.33-1.82c1-1.73,2-3.44,2.93-5.19q7.4-13.62,14.77-27.27a10.15,10.15,0,0,0,.64-2Z" />
        <path class="outline"
            d="M359.5,349.9a10.15,10.15,0,0,1-.64,2q-7.35,13.65-14.77,27.27c-.95,1.75-1.95,3.46-2.93,5.19-1.57,2.56-3.13,5.13-4.71,7.68-.62,1-1.28,2-1.93,3l-.44-.46c3-5.18,6-10.34,9-15.56,3.44-6.14,6.77-12.33,10.16-18.5,1.77-3.22,3.54-6.44,5.34-9.64A5.07,5.07,0,0,1,359.5,349.9Z" />
        <path class="outline" d="M334.08,394.56l.44.46c-.47.5-.94,1-1.42,1.48l.44-1.05Z" />
    </g>
</svg>
