<svg id="Karmany" xmlns="http://www.w3.org/2000/svg" viewBox="0 0 672 960">
    <g>
        <path class="outline "
            d="M333.48,364.19c-1.05,0-2,0-2.94,0-1.72-.07-1.94-.25-1.84-2,.1-1.59.34-3.17.56-4.75q1.64-11.76,3.29-23.51c.33-2.33.74-2.7,3.09-2.65,11,.23,22.06.5,33.09.74,9.19.21,18.38.46,27.57.57q22.9.27,45.82.36c7.35,0,14.71-.1,22.06-.16h1.68c2.58,0,2.7.09,3.09,2.59q2.16,13.61,4.26,27.23c.09.55.14,1.11.21,1.67.23,2.07-.29,2.54-2.18,2.31a13.45,13.45,0,0,0-2.1.07c0,2.95-.06,5.73,0,8.51q.42,19.07.88,38.13c.06,2.39.17,4.79.24,7.19.06,2-.2,2.33-2.29,2.38-10.15.25-20.3.55-30.45.7-10.71.15-21.43.46-32.13.15-13.82-.41-27.63-1.32-41.43-2.12-9.17-.53-18.34-1.26-27.51-1.9-2.27-.16-2.33-.21-2.35-2.58C334,410.05,334,403,334,396q-.13-14.87-.31-29.74C333.64,365.62,333.55,365,333.48,364.19Zm133.31,55.29.84.89c.13-.18.35-.35.36-.54,0-.62-.41-.74-.92-.77Zm-128.9-3.33c-.59-.45-1.25-.6-1.47.27-.27,1.07.56,1.1,1.32,1.08l1.2,0,13.6,1c6.85.48,13.69,1,20.54,1.42,9.72.55,19.44,1.08,29.17,1.41,6.63.24,13.26.22,19.89.16,11.42-.12,22.83-.37,34.25-.57,2.63,0,5.25,0,7.88,0a4.33,4.33,0,0,0,1.29-.42c.13-.28.25-.56.38-.85l-.21-1.33c0-2,0-4,0-6.05l.74.05c0,1.52.06,3,.14,4.55,0,.6-.19,1.49.69,1.54s.7-.86.74-1.43,0-1.12,0-1.68q-.22-10.43-.44-20.84L467,368.6c0-1.91-.05-1.91-2-1.92l-.64-.06c-3.27-.1-6.54-.29-9.81-.3-3.92,0-7.83.16-11.74.19-15.5.14-31,.17-46.5-.44l-.72,0c-8.78-.41-17.55-.92-26.33-1.19-9.58-.31-19.17-.39-28.76-.58-.39,0-.79,0-1.19-.08l-.49.07,0,0-1,.06h-2.33c0,.91,0,1.69,0,2.47.1,5,.25,10,.31,15.06.11,9.81.17,19.61.25,29.42,0,.79.05,1.59.11,2.38.09,1.1.79,1.26,1.7,1l4.79.75a15.18,15.18,0,0,1-2.32.22,7.61,7.61,0,0,0-1.5.46h-1Zm17.27-80.64a20.41,20.41,0,0,0-2.33-.33c-1.75-.07-3.51-.06-5.26-.07-3.51,0-7-.05-10.52-.1-1.12,0-2.08.16-2.48,1.39l0,1.52c-1.24,7.61-2.35,15.24-3.37,23,1.69.15,3.11.35,4.53.38,8.63.2,17.26.35,25.89.56,3.68.08,7.35.29,11,.42,9.34.35,18.69.89,28,1,18.48.19,36.95.13,55.43.19,1.75,0,3.51.17,5.26.2,2.8.06,5.6.06,8.4.09.92,0,1.33-.38,1.22-1.3-.18-1.43-.36-2.86-.55-4.28-.83-6-1.68-12-2.47-18-.13-1-.6-1.33-1.56-1.32-1.52,0-3-.07-4.56-.11,1.16-.1,2.32-.16,3.48-.3.75-.09,1.49-.28,2.23-.42-.18-.74.39-1.94-1.09-1.91l-15.57.33c-1.83,0-3.66.11-5.49.17-.64,0-1.28-.07-1.92-.07-8.39,0-16.78,0-25.17-.09q-8.86,0-17.73-.17c-7.11-.09-14.22-.22-21.33-.33l-10.12-.29Z" />
        <path class="color-shadow"
            d="M339.32,364.19c.4,0,.8.07,1.19.08,9.59.19,19.18.27,28.76.58,8.78.27,17.55.78,26.33,1.19l.72,0c15.49.61,31,.58,46.5.44,3.91,0,7.82-.21,11.74-.19,3.27,0,6.54.2,9.81.3.06,1.91.13,3.81.18,5.72.16,5.74.34,11.48.47,17.22.1,4.47.08,8.94.21,13.41.08,3.1.32,6.2.49,9.3,0,2,0,4,0,6.05q-6.27-.13-12.54-.29c-.86,0-1.71-.17-2.56-.26,2-1.54,4.32-1.15,6.59-.95,1.35.11,2.7.19,4,.28,1,.07,1.43-.38,1.44-1.41,0-4.14.07-8.27.4-12.42.46-5.8-.14-11.63.46-17.46.42-4,.06-8.16.13-12.23a1.57,1.57,0,0,0-1.44-1.82c-1-.2-2-.38-3-.55-3.21-.54-6.4-1.27-9.64-1.57-4-.37-7.95-.46-11.93-.51-5.35-.08-10.69-.06-16,.37-2.59.21-5.23-.31-7.85-.38-10.38-.27-20.77.41-31.15-.45-2.19-.18-4.43.37-6.65.38s-4.29-.42-6.43-.39c-6.06.08-12.12.26-18.17.48-1.67.06-3.32.36-5,.55l-7.56.84,0-6.25,0,0Z" />
        <path class="color-shadow"
            d="M461.81,338.72c1.52,0,3,.12,4.56.11,1,0,1.43.29,1.56,1.32.79,6,1.64,12,2.47,18,.19,1.42.37,2.85.55,4.28.11.92-.3,1.32-1.22,1.3-2.8,0-5.6,0-8.4-.09-1.75,0-3.51-.19-5.26-.2-18.48-.06-36.95,0-55.43-.19-9.34-.1-18.69-.64-28-1-3.67-.13-7.34-.34-11-.42-8.63-.21-17.26-.36-25.89-.56-1.42,0-2.84-.23-4.53-.38,1-7.78,2.13-15.41,3.37-23l2.43.13q-1.68,9.58-3.34,19.19a3.07,3.07,0,0,0,.77.31c2.29.19,4.6.32,6.89.55,2,.2,3.93.51,5.9.77a79.78,79.78,0,0,0,8.26,1.08c8.21.29,16.43-.1,24.66.45,4.67.31,9.39-.39,14.09-.37,18.94.08,37.88-.46,56.82.43,1.75.09,3.52,0,5.28,0,1,0,2.07.05,3.11.1,2.62.12,5.24.26,7.87.36,1,0,1.21-.55,1.09-1.41-.14-1.1-.25-2.21-.39-3.31a33.77,33.77,0,0,0-.48-3.77c-.93-3.86-2-7.7-2.94-11.56a1.8,1.8,0,0,0-2-1.6c-3,.06-6.08.05-9.12,0a14,14,0,0,1-2.28-.4Z" />
        <path class="color-shadow"
            d="M465.94,419.65c-.13.29-.25.57-.38.85-1.81,0-3.63,0-5.45.05-1.24.05-2.48.24-3.72.36-11.42.2-22.83.45-34.25.57-6.63.06-13.26.08-19.89-.16-9.73-.33-19.45-.86-29.17-1.41-6.85-.38-13.69-.94-20.54-1.42l-13.6-1c0-.46-.07-.92-.1-1.38h0l9.23.17c3,.26,6,.69,9,.76,5.8.13,11.61-.07,17.41.51,3.94.4,7.9.86,11.85.91,9.65.13,19.31.05,29,0a7.58,7.58,0,0,0,1.77-.42c1.44,0,2.87-.07,4.31,0,9.71.28,19.43.6,29.15.86,4.22.11,8.45.08,12.68.18A17.81,17.81,0,0,1,465.94,419.65Z" />
        <path class="outline "
            d="M348.08,416.31l-9.23-.17a7.61,7.61,0,0,1,1.5-.46,15.18,15.18,0,0,0,2.32-.22l-4.79-.75c0-7.47,0-14.94,0-22.41,0-2.78.06-5.56.09-8.33l.67,0c.07,4.71.17,9.42.19,14.13a79.22,79.22,0,0,0,1.16,15c.34,1.71.28,1.76,2.09,1.82,8.22.27,16.44.55,24.67.78,8.94.26,17.89.47,26.84.7l30.18.78,6.76.27c.88,0,1.76.07,2.63.08l17.49.27c.85.09,1.7.24,2.56.26q6.27.17,12.54.29l.21,1.33a17.81,17.81,0,0,0-2.75-.54c-4.23-.1-8.46-.07-12.68-.18-9.72-.26-19.44-.58-29.15-.86-1.44,0-2.87,0-4.31,0-1.83-.12-3.66-.3-5.49-.35q-9.58-.3-19.16-.52-16.53-.36-33.07-.68Z" />
        <path class="outline "
            d="M461.81,338.72l-10.65.18-40.3-.32-29.74-.23a18.57,18.57,0,0,0-2.33-.3q-18.18-.1-36.36-.17c-1,0-2.07.07-3.11.11l-2.35.06-2.43-.13,0-1.52a4.31,4.31,0,0,0,1.32.45q9.64,0,19.3,0c5.59.13,11.18.33,16.77.37,13.75.11,27.5.15,41.24.21a15,15,0,0,0,2.09.3c6.19,0,12.39,0,18.59,0l11.49.06,22.15.18c-.74.14-1.48.33-2.23.42C464.13,338.56,463,338.62,461.81,338.72Z" />
        <path class="color-base"
            d="M413.2,337.46c-13.74-.06-27.49-.1-41.24-.21-5.59,0-11.18-.24-16.77-.37l0-1.37,13.94.13a2.47,2.47,0,0,0,.86.33c3.09,0,6.17,0,9.26,0,7.11.11,14.22.24,21.33.33q8.86.12,17.73.17c8.39,0,16.78.05,25.17.09.64,0,1.28,0,1.92.07v1.23l-11.49-.06a4.19,4.19,0,0,0-1.12-.32C426.24,337.43,419.72,337.45,413.2,337.46Z" />
        <path class="color-shadow"
            d="M338,384c0,2.77-.09,5.55-.09,8.33,0,7.47,0,14.94,0,22.41-.91.22-1.61.06-1.7-1-.06-.79-.1-1.59-.11-2.38-.08-9.81-.14-19.61-.25-29.42-.06-5-.21-10-.31-15.06,0-.78,0-1.56,0-2.47h2.33l.11,10.54Z" />
        <path class="color-shadow"
            d="M465,366.68c1.93,0,1.94,0,2,1.92l.6,25.86q.23,10.43.44,20.84c0,.56,0,1.12,0,1.68s.22,1.48-.74,1.43-.66-.94-.69-1.54c-.08-1.51-.1-3-.14-4.55,0-2.39,0-4.78,0-7.17-.23-6-.56-11.94-.77-17.91-.23-6.7-.39-13.39-.58-20.09C465.05,367,465,366.83,465,366.68Z" />
        <path class="outline "
            d="M465,366.68c0,.15,0,.31.05.47.19,6.7.35,13.39.58,20.09.21,6,.54,11.94.77,17.91.09,2.39,0,4.78,0,7.17l-.74-.05c-.17-3.1-.41-6.2-.49-9.3-.13-4.47-.11-8.94-.21-13.41-.13-5.74-.31-11.48-.47-17.22-.05-1.91-.12-3.81-.18-5.72Z" />
        <path class="color-shadow"
            d="M355.16,335.51l0,1.37q-9.66,0-19.3,0a4.31,4.31,0,0,1-1.32-.45c.4-1.23,1.36-1.4,2.48-1.39,3.5.05,7,.07,10.52.1,1.75,0,3.51,0,5.26.07A20.41,20.41,0,0,1,355.16,335.51Z" />
        <path class="color-shadow"
            d="M445.37,337.82v-1.23c1.83-.06,3.66-.13,5.49-.17l15.57-.33c1.48,0,.91,1.17,1.09,1.91Z" />
        <path class="outline " d="M338,374.88l-.11-10.54,1-.06,0,6.25c-.08,1.46-.16,2.91-.25,4.37Z" />
        <path class="color-shadow" d="M379.22,335.93c-3.09,0-6.17.05-9.26,0a2.47,2.47,0,0,1-.86-.33Z" />
        <path class="outline "
            d="M456.39,420.91c1.24-.12,2.48-.31,3.72-.36,1.82-.07,3.64,0,5.45-.05a4.33,4.33,0,0,1-1.29.42C461.64,421,459,420.92,456.39,420.91Z" />
        <path class="color-shadow" d="M337.74,417.5c-.76,0-1.59,0-1.32-1.08.22-.87.88-.72,1.47-.27Z" />
        <path class="outline " d="M337.74,417.5l.15-1.35h.95c0,.46.06.92.1,1.38Z" />
        <path class="color-shadow" d="M467.07,419.06c.51,0,.95.15.92.77,0,.19-.23.36-.36.54l-.84-.89Z" />
        <path class="outline " d="M339.32,364.19l-.49.07Z" />
        <path class="outline " d="M467.07,419.06l-.28.42Z" />
        <path class="color-base"
            d="M338.57,374.9c.09-1.46.17-2.91.25-4.37l7.56-.84c1.66-.19,3.31-.49,5-.55,6.05-.22,12.11-.4,18.17-.48,2.14,0,4.29.39,6.43.39s4.46-.56,6.65-.38c10.38.86,20.77.18,31.15.45,2.62.07,5.26.59,7.85.38,5.34-.43,10.68-.45,16-.37,4,.05,8,.14,11.93.51,3.24.3,6.43,1,9.64,1.57,1,.17,2,.35,3,.55a1.57,1.57,0,0,1,1.44,1.82c-.07,4.07.29,8.19-.13,12.23-.6,5.83,0,11.66-.46,17.46-.33,4.15-.37,8.28-.4,12.42,0,1-.43,1.48-1.44,1.41-1.34-.09-2.69-.17-4-.28-2.27-.2-4.57-.59-6.59.95l-17.49-.27c-.87,0-1.75-.05-2.63-.08l-6.76-.27-30.18-.78c-8.95-.23-17.9-.44-26.84-.7-8.23-.23-16.45-.51-24.67-.78-1.81-.06-1.75-.11-2.09-1.82a79.22,79.22,0,0,1-1.16-15c0-4.71-.12-9.42-.19-14.13Q338.61,379.44,338.57,374.9Z" />
        <path class="color-base"
            d="M381.12,338.35l29.74.23,40.3.32a14,14,0,0,0,2.28.4c3,.05,6.08.06,9.12,0a1.8,1.8,0,0,1,2,1.6c1,3.86,2,7.7,2.94,11.56a33.77,33.77,0,0,1,.48,3.77c.14,1.1.25,2.21.39,3.31.12.86-.12,1.45-1.09,1.41-2.63-.1-5.25-.24-7.87-.36-1,0-2.08-.09-3.11-.1-1.76,0-3.53.06-5.28,0-18.94-.89-37.88-.35-56.82-.43-4.7,0-9.42.68-14.09.37-8.23-.55-16.45-.16-24.66-.45a79.78,79.78,0,0,1-8.26-1.08c-2-.26-3.93-.57-5.9-.77-2.29-.23-4.6-.36-6.89-.55a3.07,3.07,0,0,1-.77-.31q1.67-9.6,3.34-19.19l2.35-.06a14.09,14.09,0,0,0,2.3.36q18.19.06,36.39.07C379.05,338.42,380.08,338.37,381.12,338.35Z" />
        <path class="color-base"
            d="M348.08,416.31l11.25.24q16.53.34,33.07.68,9.59.21,19.16.52c1.83.05,3.66.23,5.49.35a7.58,7.58,0,0,1-1.77.42c-9.66,0-19.32.1-29,0-3.95-.05-7.91-.51-11.85-.91-5.8-.58-11.61-.38-17.41-.51C354.05,417,351.07,416.57,348.08,416.31Z" />
        <path class="outline " d="M338.57,374.9q0,4.53.05,9.05l-.67,0v-9.09Z" />
        <path class="color-shadow" d="M423.75,417.15l6.76.27Z" />
        <path class="color-shadow"
            d="M381.12,338.35c-1,0-2.07.07-3.11.07q-18.19,0-36.39-.07a14.09,14.09,0,0,1-2.3-.36c1,0,2.07-.12,3.11-.11q18.18.06,36.36.17A18.57,18.57,0,0,1,381.12,338.35Z" />
        <path class="color-shadow"
            d="M413.2,337.46c6.52,0,13,0,19.56,0a4.19,4.19,0,0,1,1.12.32c-6.2,0-12.4,0-18.59,0A15,15,0,0,1,413.2,337.46Z" />
        <rect class="outline " x="331.86" y="338.3" width="136.93" height="0.86" />
        <rect class="outline " x="337.79" y="363.87" width="0.64" height="55.29" />
        <rect class="outline " x="464.75" y="366.02" width="0.64" height="55.07" />
        <rect class="outline " x="337.77" y="415.31" width="127.63" height="2.22"
            transform="translate(9.93 -9.35) rotate(1.35)" />
    </g>
</svg>
