<svg id="manshety" xmlns="http://www.w3.org/2000/svg" viewBox="0 0 672 960">
    <g id="kashkorse_img" data-name="kashkorse img">
        <path class="outline"
            d="M35.14,243l.15-.41.31-.8,1.26-3.94.21-.61c.87-2.36,1.66-4.76,2.65-7.07a3.78,3.78,0,0,1,1.75-1.8c3.64-1.63,7.35-3.1,11-4.69a18.23,18.23,0,0,0,6.89-4.67c1.54-1.79,3.69-1.71,5.74-1.8,6.76-.3,13.52-.5,20.27-.82,3-.14,6-.48,9.09-.73,0-.29,0-.47,0-.66-.1-2.08.42-2.69,2.48-3,3.23-.51,6.46-1.05,9.69-1.58a4.56,4.56,0,0,0,3.47-2,3.23,3.23,0,0,1,1.6-1.17c2.06-.75,4.13-1.47,6.24-2a16.77,16.77,0,0,1,4.33-.67c3.47,0,6.62-1.31,9.87-2.21,9-2.47,17.94-5,26.95-7.39a32.47,32.47,0,0,1,6.61-.9c3.78-.21,7.58-.25,11.37-.31,2.59,0,5.18,0,7.77,0,4.26-.08,8.52-.23,12.78-.33,2-.05,4-.09,6-.07,4.07,0,8.14.24,12.21.21,4.26,0,8.51-.29,12.76-.41,3.6-.1,7.21-.14,10.81-.24s7.45-.21,11.18-.34c2.5-.09,5-.16,7.49-.33,3.16-.21,6.32-.52,9.48-.78,2.74-.23,5.47-.43,8.2-.67,1.68-.15,3.35-.36,5.16-.55,0,.84,0,1.67,0,2.49,0,1.68-.12,3.35-.16,5-.11,5.43-.19,10.87-.33,16.3-.1,3.82-.22,7.65-.43,11.47-.28,5.29-.64,10.57-1,15.86-.22,3.58-.41,7.16-.69,10.73-.35,4.64-.78,9.26-1.17,13.9-.25,3-.46,5.94-.73,8.91-.37,4-.79,7.89-1.17,11.84-.26,2.77-.46,5.54-.75,8.3-.35,3.3-.78,6.6-1.15,9.9-.27,2.45-.51,4.9-.76,7.35a26.12,26.12,0,0,1-.32,3.08,3.51,3.51,0,0,1-1.12,1.57c-.22-1.1-.82-1.24-1.7-1.3a51.77,51.77,0,0,1-14.09-3.27c-8.89-3.15-17.87-6.09-26.58-9.69-7.54-3.1-15.19-5.78-22.92-8.3a51.68,51.68,0,0,1-15-7.85c-1.4-1.06-2.91-2-4.34-3a10.1,10.1,0,0,0-6.77-2,28.85,28.85,0,0,1-14.39-3,25.22,25.22,0,0,1-6.87-5.33,15,15,0,0,0-2.47-2.25,21.45,21.45,0,0,1-9.64-13.09,57,57,0,0,0-2.92-7.08,1.33,1.33,0,0,0-2-.78c-.58.28-1.17.53-1.76.78a4,4,0,0,1-4.89-1,4.35,4.35,0,0,1-.9-1.12c-1.79-3.71-5.29-5.44-8.55-7.43a23.86,23.86,0,0,0-4.23-1.95,7.67,7.67,0,0,0-2.67-.37,5.29,5.29,0,0,1-4.18-2.2,2.74,2.74,0,0,0-1.41-.8c-3.89-.81-7.5.59-11.17,1.49a5.41,5.41,0,0,1-3.9-.27,10.9,10.9,0,0,0-1.22,1.5c-1.79,3.2-4.85,4.35-8.17,5.08-2.65.59-5.36,1-8,1.75A68.33,68.33,0,0,0,73,248.38c-2.41,1.05-4.77,2.24-7.17,3.34A16.06,16.06,0,0,1,57.62,253a2.61,2.61,0,0,1-2.28-2.16,3,3,0,0,1,.9-3.48c2-1.55,4.11-3,6.22-4.48,1.74-1.21,3.57-2.28,5.3-3.51A32.49,32.49,0,0,0,70.35,237,8.63,8.63,0,0,0,69,235.51a2,2,0,0,0-1.39-.21c-1.29.22-2.58.5-3.85.85a2.42,2.42,0,0,0-1.37.8c-1.47,2.49-3.81,4-6.12,5.51a38.53,38.53,0,0,1-5.49,2.84,2.13,2.13,0,0,1-1.92-.17,1.65,1.65,0,0,1,.19-2.28c1.48-1.76,2.94-3.55,4.41-5.33l-.19-.32c-.62.31-1.25.6-1.86.94s-1.31.78-2,1.17c-.47,1-1,1.91-1.43,2.86l-.43.88-.74,1.54c-.86,1.37-1.65,2.8-2.61,4.09-.36.5-1.12.71-1.69,1l-.56.12-1.86-.23-.83.13,0,0-.65.73-1.44,1.24-.51.39a31.38,31.38,0,0,1-3.57,1.23,2,2,0,0,1-1.7-.58,2.25,2.25,0,0,1,.1-1.84c.86-2,1.87-3.85,2.79-5.79a15.25,15.25,0,0,0,.54-1.57Zm75.43-23c-.37-2-.78-4-1.12-6s-.43-2-2.37-1.59c-2.82.58-5.64,1.15-8.49,1.53-2,.27-2.37.41-2.16,2.5.25,2.57.58,5.15,1.06,7.69.58,3.13,1.39,6.21,2,9.33.22,1.08.72,1.27,1.68,1.07,2.5-.49,5-1,7.51-1.34a32,32,0,0,1,4.17,0c-.15-.89-.29-1.66-.42-2.44l-1.83-10.72.54,1.7.3-.07c-.35-2.42-.71-4.83-1.06-7.25l-.31,0Zm4.32,10.82a17.61,17.61,0,0,1,.5,2,4.63,4.63,0,0,0,4.12,3.87,5.14,5.14,0,0,1,2,.57c2.25,1.27,4.41,2.72,6.68,3.94,2.7,1.45,5.27,3,6.9,5.73a3.39,3.39,0,0,0,.41.44,1.66,1.66,0,0,0,2.07.39c1.5-.6,3-1.17,4.6-1.77-.28-1.21-.56-2.5-.86-3.78-.62-2.64-.85-5.48-3.67-7.09.31-.16.65-.3.82-.18.81.54,1.85,1,2.28,1.76a39.18,39.18,0,0,1,2.86,6.3c1,2.83,1.58,5.77,2.44,8.63.72,2.37,1.68,4.66,2.33,7.05a15.07,15.07,0,0,0,4.24,7.5c1.15,1.05,2.35,2,3.57,3,3.3,2.59,6.66,5,10.72,6.44,3.59,1.26,7.16,2.74,11,2.65,5-.12,8.83,2,12.39,5.09a46.19,46.19,0,0,0,16.88,9.34c7.82,2.44,15.51,5.19,23.13,8.22,6.45,2.57,13.16,4.45,19.71,6.78,5.38,1.91,10.71,4,16.37,4.91,1.55.26,3.12.33,4.62.48.48-3.44,1-6.59,1.34-9.76.42-3.76.64-7.55,1-11.32.5-5,1.1-9.91,1.62-14.87.67-6.35,1.36-12.69,1.94-19,.7-7.79,1.42-15.58,1.91-23.39s.75-15.7,1-23.56c.13-4.38,0-8.77,0-13.15,0-2.13-.18-4.25-.27-6.37l-4.31.34c-7,.54-13.91,1.17-20.87,1.58-6.49.38-13,.51-19.5.78-3.26.14-6.53.36-9.79.54l-1.66.08c-4.35,0-8.71-.17-13.06-.15-8.34.06-16.68.19-25,.3-5.63.08-11.26.06-16.89.31a42.63,42.63,0,0,0-8.5,1.16c-4.34,1.08-8.63,2.39-12.85,3.85A144.52,144.52,0,0,1,129,205.34a11.15,11.15,0,0,1-1.89.26c-3.31.07-6.57.17-9.59,1.83-1.7.94-3.56,1.59-5.48,2.43a13.44,13.44,0,0,0-.37,2.75c.12,2.51.32,5,.64,7.5.27,2,.76,4,1.14,6l.18.52ZM32.34,252a8,8,0,0,0,5.83-2.79,30.93,30.93,0,0,0,5.91-9.1,10,10,0,0,1,3.48-4.34A27.21,27.21,0,0,1,58,231.81c3-.55,6-1,8.92-1.79a11.6,11.6,0,0,1,6.11.34c.21.06.37.31.79.68-1.34.16-2.4.26-3.45.42-.85.12-1.7,1.07-1.44,1.72.45,1.07,1.06,2.08,1.6,3.1,1-.9,1.75-1.63,2.52-2.37s1.53-1.53,2.3-2.27,1.43-1.34,2.15-2l.29.3c-2,2.35-4,4.73-6,7a15.69,15.69,0,0,1-2.61,2.27c-3.88,2.73-7.79,5.41-11.67,8.12a3.79,3.79,0,0,0-.69.88c4.43-2.14,7-2.32,7.91-.59a5.66,5.66,0,0,0-2-.27,8.74,8.74,0,0,0-5.15,2.83c-.75.9-.63,1.35.53,1.5,2.25.29,4.5.46,6.68-.58,2.55-1.23,5.18-2.31,7.75-3.5A39.53,39.53,0,0,1,83.47,244a62.71,62.71,0,0,0,7.1-1.72,7,7,0,0,0,4.74-3.55c.43-.85,1.15-1.55,1.58-2.4a6.19,6.19,0,0,0,.74-2.41,36.29,36.29,0,0,0-1.27-9.83c-.6-2.47-1.07-5-1.61-7.5l-1.34.07-19.35,1.25c-3.3.22-6.63.23-9.89.73-1.79.27-3.45,1.36-5.17,2.08l.15.34H69.1a5.91,5.91,0,0,1-2.21.68,51.68,51.68,0,0,0-10.22,1.89c-4.84,1.63-9.87,2.74-14.33,5.38a3.87,3.87,0,0,0-1.58,1.52c-1.72,4.21-3.34,8.47-5,12.72a2.25,2.25,0,0,0-.09.69v3.55h-.43l-.32-1.41-.25-.06ZM68,231.54c-3.69.67-7.42,1-10.55,3.22a8.63,8.63,0,0,0-1.62,1.38c-1.94,2.42-3.85,4.88-5.74,7.35a5.21,5.21,0,0,0-.51,1.15l.29.26c.8-.33,1.61-.61,2.38-1,3.44-1.66,6.59-3.69,8.58-7.12a4.44,4.44,0,0,1,.72-.79c1.28-1.35,3-1.73,4.71-2.16C67.32,233.57,68.34,233.2,68,231.54Zm-11.34,2.08A14,14,0,0,0,47.48,237,12.62,12.62,0,0,0,45,240.29c-1,1.72-1.82,3.54-2.77,5.29-.49.89-1.07,1.72-1.64,2.62a3.69,3.69,0,0,0,4.08-2c.93-1.63,1.81-3.29,2.59-5A7.17,7.17,0,0,1,50,238.05C52.24,236.6,54.43,235.1,56.64,233.62Zm2.16-12.51.08.16s.08-.06.08-.08a1.3,1.3,0,0,0-.08-.17Z" />
        <path class="color-shadow-dark"
            d="M482.91,344.41c-.19-1.21-.37-2.43-.57-3.65-.15-.88-.3-1.76-.48-2.63q-1.07-5-2.14-10.05c-.08-.34-.1-.69-.15-1-.29-2.09-.58-4.17-.88-6.26-.57-4.07-1.19-8.14-1.69-12.23a102.06,102.06,0,0,1-1.09-11.27c0-3.73.53-7.46.86-11.19.4-4.49.79-9,1.26-13.45.22-2,.71-4,2.56-5.16,2.75-1.77,5.43-3.67,8.31-5.2a223.27,223.27,0,0,1,25.79-11.6c.8-.3,1.15-.1,1.46.64q2.55,6.15,5.16,12.26c4.25,10,8,20.24,9.93,31,1.59,8.71,3,17.46,4.44,26.19.88,5.18,1.62,10.39,2.75,15.52a89.37,89.37,0,0,1,2.21,17.05c.12,4.87-.09,9.75-.25,14.62-.09,2.83-.45,5.65-.53,8.48-.16,5.09-1.52,10.13-.82,15.25.76,5.51,1.55,11,5.59,15.36a8.33,8.33,0,0,1,1,9.94,30.89,30.89,0,0,1-2.72,3.8,26.52,26.52,0,0,0-4.78,7,6.69,6.69,0,0,0-.09,5.78,8.11,8.11,0,0,1,.42,3.14c0,1-.17,2.07-.19,3.1,0,2.09-2.38,4.15-4.44,4.18-3,0-6.15-.11-9,.68-4.33,1.19-8.89,1.69-12.92,3.9a1.1,1.1,0,0,1-1.55-.37,6.81,6.81,0,0,1-1.44-4c-.41-4.53-1.74-8.67-5.11-11.95a2.7,2.7,0,0,1-.86-1.63c0-4.34,0-8.69.13-13,.12-3.67.68-7.32-.06-11-.19-.94-.22-1.91-.33-3l2.45.37c.08,1.51.14,3,.23,4.52.16,2.42.42,4.83.48,7.25.07,3.13.17,6.27-.07,9.39-.29,3.63.15,6.95,2.65,9.78a2,2,0,0,1,.43.71c1,3.17,2.05,6.34,2.95,9.55.28,1,.71,1.31,1.67,1.09,1.43-.32,2.89-.54,4.3-.91,1.17-.3,2.29-.75,3.43-1.13a2.36,2.36,0,0,0,.6,0c3.49-1.19,7-2.41,10.47-3.57.79-.27.92-.73,1-1.5a82.74,82.74,0,0,1,.75-8.64,43,43,0,0,1,1.87-6c-.31,0-.69,0-1.07,0-1.59.07-3.18.1-4.76.25-2.68.25-5.35.62-8,.86a4.86,4.86,0,0,1-1.61-.42c.25-.55.51-1.1.77-1.66a4.45,4.45,0,0,0,1.21,0c3.22-1,6.4-2,9.63-2.91,2.78-.78,5.55-1.83,8.55-.85.3.1.83-.51,1.25-.79A4.75,4.75,0,0,0,541,418a2.07,2.07,0,0,0-1.05-.13c-3.06,0-5.86,1.05-8.7,2l-7.6,2.55c0-.11.06-.27.14-.32,4.24-2.58,8.56-5,13.46-6.15l3-.69a5.56,5.56,0,0,0,1.53,0c.34-.11.81-.54.82-.85a8.26,8.26,0,0,0-1.4-5.36c-1-2.12-1.87-4.3-3-6.37a18.49,18.49,0,0,1-2.08-8.83,17.51,17.51,0,0,0-.11-2.51,16,16,0,0,1,.07-6.36,56.82,56.82,0,0,0,1-7.4c.35-3.11.72-6.22.89-9.35.15-2.7,0-5.42,0-8.14,0-.32,0-.64,0-1,0-.63,0-1.27,0-1.9l-.23-1.46c0-.47,0-1,0-1.42l-.23-1.22v-.94l-.45-.75.21-.93-.23-.5c0-.39,0-.79,0-1.18l-.45-.75c0-.23,0-.47,0-.71a4,4,0,0,0,.19-1.12c-.19-1.65-.43-3.3-.67-4.95-.67-4.43-1.2-8.89-2.06-13.28a149.68,149.68,0,0,1-2.26-16.86l-1-11.88a33.71,33.71,0,0,0-2.22-10.57q-3.9-9.25-7.7-18.55c-1.48-3.61-2.87-7.25-4.28-10.89-.39-1-.65-2-1-3-.19-.5-.26-1.18-1.22-.88-3.83,1.22-7.69,2.35-11.53,3.53-5,1.51-9.39,4.16-14,6.52-2.69,1.38-5.47,2.7-7.37,5.2a4.33,4.33,0,0,0-.81,2c-.26,2.29-.34,4.59-.57,6.89-.26,2.52-.59,5-.9,7.56-.37,3-.67,5.91-1.16,8.84a11.62,11.62,0,0,0,0,5.62,67.59,67.59,0,0,1,1.91,7.37c.93,4.71,1.79,9.44,2.54,14.18.8,5.09,1.38,10.22,2.19,15.31,1.48,9.34,3.45,18.57,5.61,27.78a113.75,113.75,0,0,1,2,13.28c.2,1.83.11,3.66,1.11,5.28a43.51,43.51,0,0,0,3.72,5.81,44.72,44.72,0,0,0,5.44,4.82,14.64,14.64,0,0,0,2,1.22,33,33,0,0,0,3.12,1.74c2.7,1.16,5.44,2.22,8.16,3.32.31.26.61.54.94.79.8.62,1.62,1.23,2.43,1.84a51.43,51.43,0,0,0-13.12-2.5,8.1,8.1,0,0,1-4.83-1.55,18.69,18.69,0,0,1-5.77-7.8c-1-2.51-2.62-4.73-3.19-7.45-1.09-5.14-2.35-10.24-3.5-15.37-1.08-4.78-2.11-9.57-3.16-14.35-.73-3.32-1.45-6.64-2.21-10C483.47,344.89,483.13,344.67,482.91,344.41Z" />
        <path class="outline"
            d="M505.17,404l-2.45-.37c.11,1.06.14,2,.33,3,.74,3.67.18,7.32.06,11-.15,4.34-.16,8.69-.13,13a2.7,2.7,0,0,0,.86,1.63c3.37,3.28,4.7,7.42,5.11,11.95a6.81,6.81,0,0,0,1.44,4,1.1,1.1,0,0,0,1.55.37c4-2.21,8.59-2.71,12.92-3.9,2.85-.79,6-.63,9-.68,2.06,0,4.41-2.09,4.44-4.18,0-1,.22-2.07.19-3.1a8.11,8.11,0,0,0-.42-3.14,6.69,6.69,0,0,1,.09-5.78,26.52,26.52,0,0,1,4.78-7,30.89,30.89,0,0,0,2.72-3.8,8.33,8.33,0,0,0-1-9.94c-4-4.39-4.83-9.85-5.59-15.36-.7-5.12.66-10.16.82-15.25.08-2.83.44-5.65.53-8.48.16-4.87.37-9.75.25-14.62a89.37,89.37,0,0,0-2.21-17.05c-1.13-5.13-1.87-10.34-2.75-15.52-1.49-8.73-2.85-17.48-4.44-26.19-2-10.75-5.68-21-9.93-31q-2.61-6.12-5.16-12.26c-.31-.74-.66-.94-1.46-.64a223.27,223.27,0,0,0-25.79,11.6c-2.88,1.53-5.56,3.43-8.31,5.2-1.85,1.2-2.34,3.17-2.56,5.16-.47,4.48-.86,9-1.26,13.45-.33,3.73-.9,7.46-.86,11.19A102.06,102.06,0,0,0,477,308.55c.5,4.09,1.12,8.16,1.69,12.23.3,2.09.59,4.17.88,6.26-.67-3.35-1.36-6.7-2-10.06-.51-2.71-.91-5.43-1.39-8.15-.38-2.11-.9-4.21-1.17-6.34-.3-2.41-.47-4.85-.56-7.28s0-4.9,0-7.08l.56,1.16c.18-1.11.36-1.93.44-2.75.25-2.35.41-4.71.69-7.05s.67-4.59,1-6.88c.18-1.34.26-2.71.52-4a2.2,2.2,0,0,1,.9-1.33c4-2.28,8.06-4.62,12.22-6.68,5.15-2.56,10.43-4.87,15.65-7.3,2.85-1.32,5.68-2.71,8.55-4a19.56,19.56,0,0,1,2.72-.8C522.12,259,527,269.1,530.11,279.9c1,3.71,1.87,7.49,2.57,11.28,1.14,6.12,2.12,12.28,3.11,18.43.9,5.61,1.65,11.24,2.61,16.84,1.07,6.24,2.44,12.43,3.42,18.68a83.41,83.41,0,0,1,.71,16.19q-.3,8.06-.67,16.11c-.15,3.18-.38,6.36-.56,9.54-.25,4.23,1.1,8.18,2.09,12.21.76,3.07,2.59,5.56,4,8.3,2,4.11,1.83,8-.93,11.71-1.09,1.47-2.31,2.86-3.36,4.36a42.77,42.77,0,0,0-3.16,5.06,3.72,3.72,0,0,0-.23,2.75,11.83,11.83,0,0,1,.44,5.77,40.26,40.26,0,0,1-.75,5.38c-.53,2.21-2.43,2.75-4.4,3.06l-1.76.28c.43,2.46.95,4.78,1.23,7.13a44.28,44.28,0,0,1,.25,6.2,3.15,3.15,0,0,1-1,1.93,1.72,1.72,0,0,0-.7,1.68c.33,3,.43,6,.81,9,.89,7,1.52,14.09,3,21,.85,4,0,7.13-1.73,10.45-2.15,4.11-4.12,8.3-6.17,12.45a11.41,11.41,0,0,1-3.17,3.65c-2.43,2.06-4.7,4.32-6.93,6.61-1.44,1.48-2.7,3.14-4,4.74a1.54,1.54,0,0,1-2.74-.3c-.93-1.67-.52-3.3,0-4.94a17.46,17.46,0,0,0,.82-3c-.74.45-1.5.88-2.23,1.35-.95.59-1.84,1.3-2.84,1.81-1.84,1-3.26.09-3.34-2a7.45,7.45,0,0,1,3-6.09c.79-.67,1.66-1.23,2.69-2-1.27-.39-2.35-.7-3.41-1a15.62,15.62,0,0,1-2-.77c-1.79-.88-2-2.2-.49-3.57.59-.54,1.17-.89,1.2-1.9,0-.47,1-1.14,1.68-1.32,2.14-.59,2.08-.54,2.56-2.6.79-3.32,1.77-6.59,2.53-9.91.91-4,2.39-7.95,2.22-12.13a31.57,31.57,0,0,0-.92-5,34.57,34.57,0,0,1-.46-9.58,10.09,10.09,0,0,0-.29-2.66c-.23-1.25-.51-2.51-.86-3.73-.91-3.28-1.93-6.54-2.81-9.83-.65-2.46-1.22-5-1.69-7.45-.77-4.11-2-8-4.81-11.21a3.17,3.17,0,0,1-.7-1.61c-.34-2.61-.73-5.23-.83-7.85-.17-4.15-.07-8.31-.18-12.46-.06-2.07-.33-4.13-.5-6.2a5,5,0,0,0-1.87-3.6,14.4,14.4,0,0,1-4.44-7c-1.16-3.86-2.7-7.6-3.82-11.47-.84-2.89-1.29-5.88-1.89-8.83s-1.16-5.78-1.7-8.67c-.58-3.16-1.08-6.34-1.68-9.49s-1.3-6.16-1.93-9.25c-.13-.65-.14-1.33-.21-2,.22.26.56.48.63.77.76,3.32,1.48,6.64,2.21,10,1.05,4.78,2.08,9.57,3.16,14.35,1.15,5.13,2.41,10.23,3.5,15.37.57,2.72,2.21,4.94,3.19,7.45a18.69,18.69,0,0,0,5.77,7.8,8.1,8.1,0,0,0,4.83,1.55,51.43,51.43,0,0,1,13.12,2.5l2.82,1.22,2,1.12a9.57,9.57,0,0,1,1.78,1.49,6,6,0,0,1,.62,1.91,5.88,5.88,0,0,0-4.36-3.35c-3-.68-6-1.41-9.09-1.95-1.81-.32-3.68-.33-5.53-.48Zm13.2,43.62a18.37,18.37,0,0,0-6.37,1.85c-1.32.57-1.44,1.21-1.13,2.45,1,4,1.93,8.05,2.84,12.08.18.83.67.65,1.16.55,3.53-.75,7.09-1.41,10.58-2.34,2.34-.61,4.57-1.61,6.85-2.45.68-.24.8-.76.72-1.44-.48-3.79-.91-7.59-1.41-11.38,0-.33-.44-.87-.67-.87-1.72,0-3.44.09-5.16.15Zm-2.41,79,.2.18c.14-.11.29-.2.42-.32,3.24-2.91,6.48-5.8,9.7-8.73a4.79,4.79,0,0,0,1.12-1.38q4.32-8.89,8.54-17.82a3.11,3.11,0,0,0,.15-2.06c-1.4-4.58-1.63-9.34-2.11-14s-.5-9.31-1.55-13.88c-.45-2-.76-4-1.17-6.08-4.76,2.34-9.83,2.62-14.78,3.61-.12,2.15-.31,4.17-.33,6.19,0,2.39.08,4.79.15,7.18.13,4.29-1.25,8.32-2.19,12.41-1.36,5.88-2.85,11.74-4.21,17.62a6.07,6.07,0,0,0,.15,2.57c.22.95.93,1.07,1.53.25a9,9,0,0,0,1.61-2.9,5.18,5.18,0,0,0-.38-2.94c-.15-.37-1.18-.38-1.78-.54,1-1.41,2.26-1,3.46,1.38.2-.28.39-.52.55-.77,2-3.18,3.92-6.41,6-9.51a14.43,14.43,0,0,0,2.54-5.58,10.84,10.84,0,0,1,.42-1.37q2-5.85,3.91-11.68c.15-.47.32-.94.48-1.41l.39.08a14.09,14.09,0,0,1-.33,2.37c-1.27,4.19-2.6,8.36-3.88,12.55a3,3,0,0,0-.07,1.37c.36,1.87.92,3.71,1.12,5.6.19,1.69.7,3.38-.1,5.15-1.17,2.57-2,5.29-3.11,7.9a11.21,11.21,0,0,1-1.64,2.59c-1.92,2.43-4,4.74-5.82,7.25a11.1,11.1,0,0,0-1.6,3.94,10.19,10.19,0,0,0,.11,3.25c0,.21.53.37.81.56.14-.29.42-.58.41-.87a4.29,4.29,0,0,1,2.54-4.13ZM523.32,497c-.17.62-.29,1-.38,1.38a3.82,3.82,0,0,0-.09.59,40.54,40.54,0,0,1-3.59,12.42,5.07,5.07,0,0,1-3.39,3.12A14.92,14.92,0,0,0,512,516a37.44,37.44,0,0,0-5.33,4,3.19,3.19,0,0,0-.67,4c.4.87.84,1.1,1.63.62l7.65-4.7a3,3,0,0,0,.48-.52c1.59-1.73,3.19-3.45,4.75-5.21a5.81,5.81,0,0,0,1.1-1.65c1.12-2.93,2.19-5.89,3.27-8.85.11-.29.3-.64.23-.9C524.56,500.87,524,499,523.32,497Zm-1.38-.07c-.08.32-.13.66-.24,1a38.72,38.72,0,0,1-1.5,4.11c-.88,1.82-2,3.54-2.93,5.33a3.43,3.43,0,0,1-2,2.05c-.38.12-.7.59-.94,1-.67,1.08-1.21,2.26-2,3.28s-1.38.82-2.25.12c-1.2-1-1.27-2.3-1.35-3.69-1.32-.09-2.6-.18-3.7.67s-1,1.54.14,2c1.28.56,2.62,1,3.91,1.49a5.11,5.11,0,0,0,4.86-.15c.67-.39,1.54-.4,2.25-.74a3.91,3.91,0,0,0,1.72-1.26,32.29,32.29,0,0,0,1.72-3.67C521.31,504.76,522.42,501,521.94,496.9Zm-7.11-19.72c.26-3.62.52-7.24.78-10.95l-1.3-.09A21.17,21.17,0,0,0,514.83,477.18Zm.51,31,.4.26,4.21-7.72-.42-.23Zm-5.79.49c-.43-.48-.64-.93-.9-1A1.92,1.92,0,0,0,506.4,509Z" />
        <path class="color-shadow-dark" d="M48,242.17c.48-.95,1-1.9,1.43-2.86C49,240.27,48.48,241.22,48,242.17Z" />
        <path class="color-shadow-dark" d="M46.83,244.59l.74-1.54Z" />
        <path class="color-shadow-dark" d="M38.6,250.52l.65-.73Z" />
        <path class="color-shadow-dark" d="M39.28,249.75l.83-.13Z" />
        <path class="color-shadow-dark" d="M35.6,241.83l-.31.8Z" />
        <path class="color-shadow-dark" d="M36.65,252.15l.51-.39Z" />
        <path class="color-shadow-dark" d="M42,249.85l.56-.12Z" />
        <path class="color-shadow-dark" d="M35.14,243l-.33.56Z" />
        <path class="color-shadow-dark" d="M37.07,237.28l-.21.61Z" />
        <path class="color-base"
            d="M223.42,195l1.66-.08c.19.58.16,1.32,1.06,1.35,2.66.09,5.31.21,8,.31,6.28.24,12.56.56,18.85.7,5.31.12,10.62,0,15.93,0a13.4,13.4,0,0,0,2,0c2.11-.33,4.22-.71,6.31-1.14.76-.16,1.07.13,1.15.79.11,1,.18,2,.26,3-.16,1.09-.35,2.17-.47,3.26-.21,2-.31,4-.56,5.93-.41,3.31-1,6.6-1.35,9.9-.46,3.91-.73,7.83-1.26,11.73-.69,5.07-1.44,10.13-2.37,15.16q-2.11,11.36-4.54,22.66c-1.08,5-2.42,10-3.63,15.07-1.16,4.78-2.31,9.57-3.49,14.49-.42-.1-.8-.18-1.16-.28-5.48-1.51-10.94-3.08-16.43-4.54-6.76-1.81-13.56-3.48-20.31-5.33-3.34-.91-6.63-2-9.89-3.2-2.77-1-5.5-2.11-8.2-3.26-2.09-.88-4.09-2-6.18-2.86-3.88-1.66-7.86-3.12-11.69-4.89A113.2,113.2,0,0,0,171.39,268a21.5,21.5,0,0,1-5.8-2.72c-3.43-2.25-5.54-5.73-7.52-9.17-2.53-4.39-4.78-8.93-7.12-13.42a32.25,32.25,0,0,0-9.77-11c-2.08-1.55-3.88-.55-4.42,1.56l-4.42-.84-.16.26a11.94,11.94,0,0,1,4.83,4.67,3.71,3.71,0,0,1-.83-.08c-3.07-1.22-6.22-2.22-9-4.06a72.37,72.37,0,0,0-6.6-3.59c-1.91-1-3.87-1.89-5.82-2.79a4.61,4.61,0,0,0-1.14-.23c0-.17-.11-.35-.17-.52a14.18,14.18,0,0,0,.49-2.85c-.07-2.74-.28-5.47-.43-8.21a18.66,18.66,0,0,0,4.17-.11c5.66-1.43,11.29-3,16.91-4.57,3.13-.9,6.2-2,9.31-3,3.79-1.19,7.59-2.38,11.41-3.47,4.81-1.38,9.65-2.64,14.47-4a22.5,22.5,0,0,0,2.3-.92h1.19c2.26-.16,4.52-.39,6.78-.45,1.71,0,3.42.2,5.13.19,2.11,0,4.22-.14,6.33-.22H192c3.2-.34,6.4-.7,9.6-1,3.68-.34,7.36-.61,11-.93,2.65-.24,5.31-.46,8-.79A21.13,21.13,0,0,0,223.42,195Zm-35.08,41.92a19.26,19.26,0,0,1,.2,2.38q-.27,7.35-.61,14.68c0,.64-.12,1.26-.19,1.89l.34,0c.13-1.16.26-2.31.38-3.47.28-2.7.63-5.4.8-8.11a60.65,60.65,0,0,0,0-6.18c-.2-4.77-.22-9.56-.77-14.3-.78-6.71-2.49-13.18-6.86-18.62,0-.12,0-.27,0-.36A10.05,10.05,0,0,0,177,201c-.45-.18-1.36.31-1.79.76-.25.26-.13,1.1.07,1.56a12.11,12.11,0,0,0,1.25,1.74c1.25,1.79,2.79,3.45,3.66,5.41a67.59,67.59,0,0,1,3.07,9c1.61,5.58,3.07,11.2,4.6,16.81C188,236.5,188.19,236.67,188.34,236.87Z" />
        <path class="transparent"
            d="M32.34,252l2.35-6,.25.06.32,1.41h.43V243.9a2.25,2.25,0,0,1,.09-.69c1.64-4.25,3.26-8.51,5-12.72A3.87,3.87,0,0,1,42.34,229c4.46-2.64,9.49-3.75,14.33-5.38a51.68,51.68,0,0,1,10.22-1.89A5.91,5.91,0,0,0,69.1,221H59.15l-.15-.34c1.72-.72,3.38-1.81,5.17-2.08,3.26-.5,6.59-.51,9.89-.73l19.35-1.25,1.34-.07c.54,2.53,1,5,1.61,7.5a36.29,36.29,0,0,1,1.27,9.83,6.19,6.19,0,0,1-.74,2.41c-.43.85-1.15,1.55-1.58,2.4a7,7,0,0,1-4.74,3.55,62.71,62.71,0,0,1-7.1,1.72,39.53,39.53,0,0,0-10.92,3.68c-2.57,1.19-5.2,2.27-7.75,3.5-2.18,1-4.43.87-6.68.58-1.16-.15-1.28-.6-.53-1.5a8.74,8.74,0,0,1,5.15-2.83,5.66,5.66,0,0,1,2,.27c-.91-1.73-3.48-1.55-7.91.59a3.79,3.79,0,0,1,.69-.88c3.88-2.71,7.79-5.39,11.67-8.12A15.69,15.69,0,0,0,71.77,237c2.06-2.31,4-4.69,6-7l-.29-.3c-.72.66-1.44,1.32-2.15,2s-1.53,1.52-2.3,2.27-1.56,1.47-2.52,2.37c-.54-1-1.15-2-1.6-3.1-.26-.65.59-1.6,1.44-1.72,1-.16,2.11-.26,3.45-.42-.42-.37-.58-.62-.79-.68A11.6,11.6,0,0,0,67,230c-2.94.75-5.94,1.24-8.92,1.79a27.21,27.21,0,0,0-10.47,3.93,10,10,0,0,0-3.48,4.34,30.93,30.93,0,0,1-5.91,9.1A8,8,0,0,1,32.34,252Z" />
        <path class="color-shadow-dark"
            d="M137,237.35a11.94,11.94,0,0,0-4.83-4.67l.16-.26,4.42.84c.33.12.66.27,1,.38a8.21,8.21,0,0,1,5.93,6.11,48.16,48.16,0,0,0,5.39,13.47A38.42,38.42,0,0,0,158,263.73c2.15,1.69,4.45,3.21,6.69,4.8a42.93,42.93,0,0,0,5.21,3.57A39.93,39.93,0,0,0,183.5,276a13.61,13.61,0,0,1,7.1,2.79,43.5,43.5,0,0,0,5.74,4.26,104.35,104.35,0,0,0,9.5,4.49q8.28,3.57,16.64,6.95c3.59,1.45,7.21,2.82,10.87,4,3.92,1.31,7.9,2.47,11.88,3.6q9.08,2.58,18.18,5a35.09,35.09,0,0,0,4.06.62c.47-3.2.77-6.17,1.35-9.09,1.16-5.92,2.56-11.79,3.67-17.72.9-4.79,1.57-9.63,2.26-14.46.35-2.48.52-5,.77-7.47.47-4.74,1-9.47,1.38-14.22.28-3.61.32-7.24.52-10.85.11-2.07.31-4.12.51-6.18.37-3.83.92-7.65,1.11-11.49s.09-7.84,0-11.76c0-1.53-.3-3-.46-4.58-.08-1-.15-2-.26-3-.08-.66-.39-.95-1.15-.79-2.09.43-4.2.81-6.31,1.14a13.4,13.4,0,0,1-2,0c-5.31,0-10.62.09-15.93,0-6.29-.14-12.57-.46-18.85-.7-2.65-.1-5.3-.22-8-.31-.9,0-.87-.77-1.06-1.35,3.26-.18,6.53-.4,9.79-.54,6.5-.27,13-.4,19.5-.78,7-.41,13.91-1,20.87-1.58l4.31-.34c.09,2.12.24,4.24.27,6.37.05,4.38.16,8.77,0,13.15-.23,7.86-.5,15.72-1,23.56s-1.21,15.6-1.91,23.39c-.58,6.36-1.27,12.7-1.94,19-.52,5-1.12,9.91-1.62,14.87-.38,3.77-.6,7.56-1,11.32-.34,3.17-.86,6.32-1.34,9.76-1.5-.15-3.07-.22-4.62-.48-5.66-.94-11-3-16.37-4.91-6.55-2.33-13.26-4.21-19.71-6.78-7.62-3-15.31-5.78-23.13-8.22a46.19,46.19,0,0,1-16.88-9.34c-3.56-3.12-7.42-5.21-12.39-5.09-3.83.09-7.4-1.39-11-2.65-4.06-1.42-7.42-3.85-10.72-6.44-1.22-1-2.42-1.95-3.57-3a15.07,15.07,0,0,1-4.24-7.5c-.65-2.39-1.61-4.68-2.33-7.05-.86-2.86-1.48-5.8-2.44-8.63a39.18,39.18,0,0,0-2.86-6.3c-.43-.77-1.47-1.22-2.28-1.76-.17-.12-.51,0-.82.18,2.82,1.61,3.05,4.45,3.67,7.09.3,1.28.58,2.57.86,3.78-1.57.6-3.1,1.17-4.6,1.77a1.66,1.66,0,0,1-2.07-.39,3.39,3.39,0,0,1-.41-.44c-1.63-2.71-4.2-4.28-6.9-5.73-2.27-1.22-4.43-2.67-6.68-3.94a5.14,5.14,0,0,0-2-.57,4.63,4.63,0,0,1-4.12-3.87,17.61,17.61,0,0,0-.5-2l.72.69a4.45,4.45,0,0,0,.85.72c1.81,1,3.66,1.87,5.47,2.84s3.5,2,5.29,3,3.92,1.94,5.88,2.89a9.32,9.32,0,0,0,3,1.31c1.15.08,2.34-.49,3.89-.86Z" />
        <path class="color-shadow-dark"
            d="M223.42,195a21.13,21.13,0,0,1-2.87.8c-2.64.33-5.3.55-8,.79-3.68.32-7.36.59-11,.93-3.2.29-6.4.65-9.6,1h-.48c-2.11.08-4.22.21-6.33.22-1.71,0-3.42-.23-5.13-.19-2.26.06-4.52.29-6.78.45h-1.19c-3.11.35-6.25.55-9.32,1.1s-6.33,1.54-9.52,2.24c-5.61,1.23-11.26,2.35-16.88,3.58-4.38.95-8.75,1.92-13.1,3-3,.76-6,1.7-9,2.62-.44.13-1.09.57-1.1.88a13.48,13.48,0,0,0,.4,2.65c.15,2.74.36,5.47.43,8.21a14.18,14.18,0,0,1-.49,2.85c-.38-2-.87-4-1.14-6-.32-2.48-.52-5-.64-7.5a13.44,13.44,0,0,1,.37-2.75c1.92-.84,3.78-1.49,5.48-2.43,3-1.66,6.28-1.76,9.59-1.83a11.15,11.15,0,0,0,1.89-.26,144.52,144.52,0,0,0,18.13-4.92c4.22-1.46,8.51-2.77,12.85-3.85a42.63,42.63,0,0,1,8.5-1.16c5.63-.25,11.26-.23,16.89-.31,8.34-.11,16.68-.24,25-.3C214.71,194.78,219.07,194.9,223.42,195Z" />
        <path class="color-shadow-dark"
            d="M110.61,220.1l1.83,10.71c.13.78.27,1.55.42,2.44a32,32,0,0,0-4.17,0c-2.52.35-5,.85-7.51,1.34-1,.2-1.46,0-1.68-1.07-.62-3.12-1.43-6.2-2-9.33-.48-2.54-.81-5.12-1.06-7.69-.21-2.09.14-2.23,2.16-2.5,2.85-.38,5.67-.95,8.49-1.53,1.94-.4,2-.37,2.37,1.59s.75,4,1.12,6Zm-10.09,2.84c.27,2,.53,4,.8,6,.63-.05,1.1-.08,1.56-.13,1.69-.2,3.37-.49,5.06-.58.94,0,1.08-.44,1-1.19-.16-1-.3-1.95-.45-2.93-.38-3.25-.76-6.5-1.15-9.86-.4.07-.78.12-1.16.2-1.62.33-3.24.75-4.88,1-1.45.22-1.6.39-1.39,1.81C100.13,219.17,100.31,221.06,100.52,222.94Z" />
        <path class="color-shadow"
            d="M137,237.35l3,4.09c-1.55.37-2.74.94-3.89.86a9.32,9.32,0,0,1-3-1.31c-2-1-3.95-1.88-5.88-2.89s-3.51-2-5.29-3-3.66-1.88-5.47-2.84a4.45,4.45,0,0,1-.85-.72l-.72-.69-1.29-4.27a4.63,4.63,0,0,1,1.13.23c2,.9,3.91,1.81,5.82,2.79a72.37,72.37,0,0,1,6.6,3.59c2.81,1.84,6,2.84,9,4.06A3.71,3.71,0,0,0,137,237.35Z" />
        <path class="transparent"
            d="M68,231.54c.36,1.66-.66,2-1.74,2.31-1.71.43-3.43.81-4.71,2.16a4.44,4.44,0,0,0-.72.79c-2,3.43-5.14,5.46-8.58,7.12-.77.37-1.58.65-2.38,1l-.29-.26a5.21,5.21,0,0,1,.51-1.15c1.89-2.47,3.8-4.93,5.74-7.35a8.63,8.63,0,0,1,1.62-1.38C60.56,232.49,64.29,232.21,68,231.54Z" />
        <path class="transparent"
            d="M56.64,233.62c-2.21,1.48-4.4,3-6.63,4.43a7.17,7.17,0,0,0-2.71,3.13c-.78,1.71-1.66,3.37-2.59,5a3.69,3.69,0,0,1-4.08,2c.57-.9,1.15-1.73,1.64-2.62.95-1.75,1.77-3.57,2.77-5.29A12.62,12.62,0,0,1,47.48,237,14,14,0,0,1,56.64,233.62Z" />
        <path class="color-shadow" d="M110.57,220.05l-.49-5.54.31,0c.35,2.42.71,4.83,1.06,7.25l-.3.07-.54-1.69Z" />
        <path class="transparent" d="M58.8,221.11l.08-.09a1.3,1.3,0,0,1,.08.17s-.05.05-.08.08Z" />
        <path class="color-base"
            d="M516,401.53c-2.72-1.1-5.46-2.16-8.16-3.32a33,33,0,0,1-3.12-1.74,4.88,4.88,0,0,1,.11-1.54c1-2.57.38-5-.61-7.38-1.7-4-3.59-8-5.27-12.05a189.66,189.66,0,0,1-8.61-25.95c-1.82-7.16-3.06-14.47-5.43-21.5a46.16,46.16,0,0,1-1.51-8.07c-.37-2.51-.43-5.07-.83-7.57-.76-4.76-1.53-9.49-.9-14.34.44-3.47.61-7,1-10.43q.72-6,1.66-12A8.28,8.28,0,0,1,489,269c1.94-.92,3.91-1.78,5.91-2.56,5.56-2.18,11.14-4.3,16.72-6.44.63-.24,1.21-.21,1.48.53,1.27,3.39,2.7,6.73,3.73,10.19,1.67,5.56,3,11.2,4.58,16.8,2,7.22,4.08,14.4,6,21.63s3.65,14.66,5.44,22c.74,3.05,1.39,6.12,2.1,9.18.54,2.31,1.1,4.61,1.64,6.91,0,.24,0,.48,0,.71l.45.75c0,.39,0,.79,0,1.18l.23.5-.21.93.45.75c0,.31,0,.63,0,.94-.33.49-.49.93.23,1.22,0,.47,0,.95,0,1.42-.27.54-.57,1.09.23,1.46,0,.63,0,1.27,0,1.9,0,.32,0,.64,0,1,0,2.72.12,5.44,0,8.14-.17,3.13-.54,6.24-.89,9.35a56.82,56.82,0,0,1-1,7.4,16,16,0,0,0-.07,6.36,17.51,17.51,0,0,1,.11,2.51,18.49,18.49,0,0,0,2.08,8.83c1.09,2.07,2,4.25,3,6.37q-.46,3.13-.95,6.25l-3,.69c-4.9,1.14-9.22,3.57-13.46,6.15-.08.05-.1.21-.14.32l-2.43,1.22c-.26.56-.52,1.11-.77,1.66a4.86,4.86,0,0,0,1.61.42c2.68-.24,5.35-.61,8-.86,1.58-.15,3.17-.18,4.76-.25.38,0,.76,0,1.07,0a43,43,0,0,0-1.87,6,82.74,82.74,0,0,0-.75,8.64c0,.77-.18,1.23-1,1.5-3.5,1.16-7,2.38-10.47,3.57a2.36,2.36,0,0,1-.6,0c-.3-.41-.83-.78-.88-1.22-.31-2.61-2.46-3.16-4.35-4-.26-.12-.62,0-.94,0-.67,0-1.34.15-2,.13a3,3,0,0,1-2.4-2.08c-.49-2.89-1-5.79-1.41-8.68-.57-3.61-1.09-7.21-1.65-10.81-.32-2.12-.74-4.23-1-6.35-.16-1.37.06-1.52,1.37-1.32a36.59,36.59,0,0,1,4.67.87c3.79,1.05,7.52,2.32,11.32,3.31,2.32.6,4.54,1.88,7.16.9,1.41-.53,2.52-2.65,1.46-3.84a43.53,43.53,0,0,0-4.76-4.65C524.41,403.65,520.14,402.66,516,401.53Z" />
        <path class="color-shadow"
            d="M536.61,347.26c-.54-2.3-1.1-4.6-1.64-6.91-.71-3.06-1.36-6.13-2.1-9.18-1.79-7.34-3.53-14.69-5.44-22s-4-14.41-6-21.63c-1.54-5.6-2.91-11.24-4.58-16.8-1-3.46-2.46-6.8-3.73-10.19-.27-.74-.85-.77-1.48-.53-5.58,2.14-11.16,4.26-16.72,6.44-2,.78-4,1.64-5.91,2.56a8.28,8.28,0,0,0-4.74,6.59q-.93,6-1.66,12c-.41,3.46-.58,7-1,10.43-.63,4.85.14,9.58.9,14.34.4,2.5.46,5.06.83,7.57a46.16,46.16,0,0,0,1.51,8.07c2.37,7,3.61,14.34,5.43,21.5a189.66,189.66,0,0,0,8.61,25.95c1.68,4.05,3.57,8,5.27,12.05,1,2.36,1.65,4.81.61,7.38a4.88,4.88,0,0,0-.11,1.54,14.64,14.64,0,0,1-2-1.22,44.72,44.72,0,0,1-5.44-4.82,43.51,43.51,0,0,1-3.72-5.81c-1-1.62-.91-3.45-1.11-5.28a113.75,113.75,0,0,0-2-13.28c-2.16-9.21-4.13-18.44-5.61-27.78-.81-5.09-1.39-10.22-2.19-15.31-.75-4.74-1.61-9.47-2.54-14.18a67.59,67.59,0,0,0-1.91-7.37,11.62,11.62,0,0,1,0-5.62c.49-2.93.79-5.89,1.16-8.84.31-2.52.64-5,.9-7.56.23-2.3.31-4.6.57-6.89a4.33,4.33,0,0,1,.81-2c1.9-2.5,4.68-3.82,7.37-5.2,4.57-2.36,9-5,14-6.52,3.84-1.18,7.7-2.31,11.53-3.53,1-.3,1,.38,1.22.88.4,1,.66,2,1,3,1.41,3.64,2.8,7.28,4.28,10.89q3.81,9.3,7.7,18.55a33.71,33.71,0,0,1,2.22,10.57l1,11.88a149.68,149.68,0,0,0,2.26,16.86c.86,4.39,1.39,8.85,2.06,13.28.24,1.65.48,3.3.67,4.95A4,4,0,0,1,536.61,347.26Z" />
        <path class="color-shadow"
            d="M516,401.53c4.19,1.13,8.46,2.12,11.9,5a43.53,43.53,0,0,1,4.76,4.65c1.06,1.19-.05,3.31-1.46,3.84-2.62,1-4.84-.3-7.16-.9-3.8-1-7.53-2.26-11.32-3.31a36.59,36.59,0,0,0-4.67-.87c-1.31-.2-1.53-.05-1.37,1.32.23,2.12.65,4.23,1,6.35.56,3.6,1.08,7.2,1.65,10.81.45,2.89.92,5.79,1.41,8.68a3,3,0,0,0,2.4,2.08c.67,0,1.34-.09,2-.13.32,0,.68-.14.94,0,1.89.85,4,1.4,4.35,4,0,.44.58.81.88,1.22-1.14.38-2.26.83-3.43,1.13-1.41.37-2.87.59-4.3.91-1,.22-1.39-.06-1.67-1.09-.9-3.21-1.94-6.38-2.95-9.55a2,2,0,0,0-.43-.71c-2.5-2.83-2.94-6.15-2.65-9.78.24-3.12.14-6.26.07-9.39-.06-2.42-.32-4.83-.48-7.25-.09-1.5-.15-3-.23-4.52l2.38.12a9,9,0,0,0,1.55.49,41.12,41.12,0,0,1,12.1,3.31c1.72.79,3.55,1.33,5.33,2a6,6,0,0,0-.62-1.91,9.57,9.57,0,0,0-1.78-1.49l-2-1.12-2.82-1.22c-.81-.61-1.63-1.22-2.43-1.84C516.56,402.07,516.26,401.79,516,401.53Z" />
        <path class="outline"
            d="M521.2,423.57l2.43-1.22,7.6-2.55c2.84-.93,5.64-2,8.7-2A2.07,2.07,0,0,1,541,418a4.75,4.75,0,0,1,.86,1.06c-.42.28-1,.89-1.25.79-3-1-5.77.07-8.55.85-3.23.91-6.41,2-9.63,2.91A4.45,4.45,0,0,1,521.2,423.57Z" />
        <path class="color-shadow"
            d="M540.21,415.19q.48-3.12.95-6.25a8.26,8.26,0,0,1,1.4,5.36c0,.31-.48.74-.82.85A5.56,5.56,0,0,1,540.21,415.19Z" />
        <path class="color-shadow" d="M538,357.12c-.8-.37-.5-.92-.23-1.46Z" />
        <path class="color-shadow"
            d="M537.79,354.24c-.72-.29-.56-.73-.23-1.22C537.63,353.43,537.71,353.83,537.79,354.24Z" />
        <path class="color-shadow" d="M538.05,360c0-.32,0-.64,0-1C538,359.34,538.05,359.66,538.05,360Z" />
        <path class="color-shadow" d="M537.55,352.08l-.45-.75Z" />
        <path class="color-shadow" d="M537.07,348.72l-.45-.75Z" />
        <path class="color-shadow" d="M537.31,350.4l-.23-.5Z" />
        <path class="transparent"
            d="M516,526.66l1.29-2a4.29,4.29,0,0,0-2.54,4.13c0,.29-.27.58-.41.87-.28-.19-.79-.35-.81-.56a10.19,10.19,0,0,1-.11-3.25,11.1,11.1,0,0,1,1.6-3.94c1.81-2.51,3.9-4.82,5.82-7.25a11.21,11.21,0,0,0,1.64-2.59c1.09-2.61,1.94-5.33,3.11-7.9.8-1.77.29-3.46.1-5.15-.2-1.89-.76-3.73-1.12-5.6a3,3,0,0,1,.07-1.37c1.28-4.19,2.61-8.36,3.88-12.55a14.09,14.09,0,0,0,.33-2.37l-.39-.08c-.16.47-.33.94-.48,1.41q-2,5.83-3.91,11.68a10.84,10.84,0,0,0-.42,1.37,14.43,14.43,0,0,1-2.54,5.58c-2.11,3.1-4,6.33-6,9.51-.16.25-.35.49-.55.77C513.29,505,512,504.56,511,506c.6.16,1.63.17,1.78.54a5.18,5.18,0,0,1,.38,2.94,9,9,0,0,1-1.61,2.9c-.6.82-1.31.7-1.53-.25a6.07,6.07,0,0,1-.15-2.57c1.36-5.88,2.85-11.74,4.21-17.62.94-4.09,2.32-8.12,2.19-12.41-.07-2.39-.18-4.79-.15-7.18,0-2,.21-4,.33-6.19,4.95-1,10-1.27,14.78-3.61.41,2.13.72,4.12,1.17,6.08,1.05,4.57,1.08,9.25,1.55,13.88s.71,9.47,2.11,14a3.11,3.11,0,0,1-.15,2.06q-4.2,8.94-8.54,17.82a4.79,4.79,0,0,1-1.12,1.38c-3.22,2.93-6.46,5.82-9.7,8.73-.13.12-.28.21-.42.32Z" />
        <path class="color-shadow-dark"
            d="M525.78,446.22c1.72-.06,3.44-.16,5.16-.15.23,0,.63.54.67.87.5,3.79.93,7.59,1.41,11.38.08.68,0,1.2-.72,1.44-2.28.84-4.51,1.84-6.85,2.45-3.49.93-7.05,1.59-10.58,2.34-.49.1-1,.28-1.16-.55-.91-4-1.83-8.07-2.84-12.08-.31-1.24-.19-1.88,1.13-2.45a18.37,18.37,0,0,1,6.37-1.85l-.27.67c-1.54.62-3.08,1.22-4.6,1.88a.89.89,0,0,0-.36.76q1.2,4.81,2.48,9.62a1.33,1.33,0,0,0,2.07,1c.68-.3,1.41-.52,2.11-.77l9.56-3.4a10.83,10.83,0,0,0,0-1.14c-.3-2.73-.67-5.44-.87-8.17-.07-.87-.51-1-1.15-1.2A15.1,15.1,0,0,1,525.78,446.22Z" />
        <path class="color-base"
            d="M518.1,448.29l.27-.67,7.41-1.4a15.1,15.1,0,0,0,1.56.65c.64.18,1.08.33,1.15,1.2.2,2.73.57,5.44.87,8.17a10.83,10.83,0,0,1,0,1.14l-9.56,3.4c-.2-1.45-.41-2.9-.61-4.35C518.82,453.72,518.46,451,518.1,448.29Z" />
        <path class="transparent"
            d="M523.32,497c.64,2.06,1.24,3.9,1.78,5.77.07.26-.12.61-.23.9-1.08,3-2.15,5.92-3.27,8.85a5.81,5.81,0,0,1-1.1,1.65c-1.56,1.76-3.16,3.48-4.75,5.21a3,3,0,0,1-.48.52l-7.65,4.7c-.79.48-1.23.25-1.63-.62a3.19,3.19,0,0,1,.67-4,37.44,37.44,0,0,1,5.33-4,14.92,14.92,0,0,1,3.88-1.55,5.07,5.07,0,0,0,3.39-3.12,40.54,40.54,0,0,0,3.59-12.42,3.82,3.82,0,0,1,.09-.59C523,498,523.15,497.59,523.32,497Z" />
        <path class="transparent"
            d="M521.94,496.9c.48,4.12-.63,7.86-2.27,11.5a32.29,32.29,0,0,1-1.72,3.67,3.91,3.91,0,0,1-1.72,1.26c-.71.34-1.58.35-2.25.74a5.11,5.11,0,0,1-4.86.15c-1.29-.53-2.63-.93-3.91-1.49-1.1-.48-1.13-1.25-.14-2s2.38-.76,3.7-.67c.08,1.39.15,2.73,1.35,3.69.87.7,1.58.79,2.25-.12s1.29-2.2,2-3.28c.24-.38.56-.85.94-1a3.43,3.43,0,0,0,2-2.05c1-1.79,2.05-3.51,2.93-5.33a38.72,38.72,0,0,0,1.5-4.11C521.81,497.56,521.86,497.22,521.94,496.9Z" />
        <path class="color-shadow-dark"
            d="M526.53,409.9c-1.78-.65-3.61-1.19-5.33-2a41.12,41.12,0,0,0-12.1-3.31,9,9,0,0,1-1.55-.49c1.85.15,3.72.16,5.53.48,3,.54,6.07,1.27,9.09,1.95A5.88,5.88,0,0,1,526.53,409.9Z" />
        <path class="transparent"
            d="M514.83,477.18a21.17,21.17,0,0,1-.52-11l1.3.09C515.35,469.94,515.09,473.56,514.83,477.18Z" />
        <path class="transparent" d="M515.34,508.21l4.19-7.69.42.23-4.21,7.72Z" />
        <path class="transparent"
            d="M509.55,508.7l-3.15.32a1.92,1.92,0,0,1,2.25-1.28C508.91,507.77,509.12,508.22,509.55,508.7Z" />
        <path class="color-shadow-dark" d="M522.14,405.38l2,1.12Z" />
        <path class="color-shadow"
            d="M278.6,199.9c.16,1.53.43,3,.46,4.58.07,3.92.17,7.85,0,11.76s-.74,7.66-1.11,11.49c-.2,2.06-.4,4.11-.51,6.18-.2,3.61-.24,7.24-.52,10.85-.37,4.75-.91,9.48-1.38,14.22-.25,2.49-.42,5-.77,7.47-.69,4.83-1.36,9.67-2.26,14.46-1.11,5.93-2.51,11.8-3.67,17.72-.58,2.92-.88,5.89-1.35,9.09a35.09,35.09,0,0,1-4.06-.62q-9.11-2.43-18.18-5c-4-1.13-8-2.29-11.88-3.6-3.66-1.22-7.28-2.59-10.87-4q-8.35-3.37-16.64-6.95a104.35,104.35,0,0,1-9.5-4.49,43.5,43.5,0,0,1-5.74-4.26,13.61,13.61,0,0,0-7.1-2.79,39.93,39.93,0,0,1-13.59-3.87,42.93,42.93,0,0,1-5.21-3.57c-2.24-1.59-4.54-3.11-6.69-4.8a38.42,38.42,0,0,1-8.93-10.51,48.16,48.16,0,0,1-5.39-13.47,8.21,8.21,0,0,0-5.93-6.11c-.34-.11-.67-.26-1-.38.54-2.11,2.34-3.11,4.42-1.56a32.25,32.25,0,0,1,9.77,11c2.34,4.49,4.59,9,7.12,13.42,2,3.44,4.09,6.92,7.52,9.17a21.5,21.5,0,0,0,5.8,2.72,113.2,113.2,0,0,1,15.68,5.76c3.83,1.77,7.81,3.23,11.69,4.89,2.09.89,4.09,2,6.18,2.86,2.7,1.15,5.43,2.27,8.2,3.26,3.26,1.16,6.55,2.29,9.89,3.2,6.75,1.85,13.55,3.52,20.31,5.33,5.49,1.46,10.95,3,16.43,4.54.36.1.74.18,1.16.28,1.18-4.92,2.33-9.71,3.49-14.49,1.21-5,2.55-10,3.63-15.07q2.43-11.3,4.54-22.66c.93-5,1.68-10.09,2.37-15.16.53-3.9.8-7.82,1.26-11.73.39-3.3.94-6.59,1.35-9.9.25-2,.35-4,.56-5.93C278.25,202.07,278.44,201,278.6,199.9Z" />
        <path class="color-shadow"
            d="M113.48,215a13.48,13.48,0,0,1-.4-2.65c0-.31.66-.75,1.1-.88,3-.92,6-1.86,9-2.62,4.35-1.08,8.72-2.05,13.1-3,5.62-1.23,11.27-2.35,16.88-3.58,3.19-.7,6.31-1.66,9.52-2.24s6.21-.75,9.32-1.1a22.5,22.5,0,0,1-2.3.92c-4.82,1.35-9.66,2.61-14.47,4-3.82,1.09-7.62,2.28-11.41,3.47-3.11,1-6.18,2.11-9.31,3-5.62,1.6-11.25,3.14-16.91,4.57A18.66,18.66,0,0,1,113.48,215Z" />
        <path class="color-shadow-dark"
            d="M188.34,236.87c-.15-.2-.38-.37-.44-.59-1.53-5.61-3-11.23-4.6-16.81a67.59,67.59,0,0,0-3.07-9c-.87-2-2.41-3.62-3.66-5.41a12.11,12.11,0,0,1-1.25-1.74c-.2-.46-.32-1.3-.07-1.56.43-.45,1.34-.94,1.79-.76a10.05,10.05,0,0,1,4.59,3.85c.05.09,0,.24,0,.36l-2-1.68-.29.27.72,1.14a40.65,40.65,0,0,1,2.79,4.44,57.43,57.43,0,0,1,4.94,18.45C188.16,230.81,188.18,233.85,188.34,236.87Z" />
        <path class="outline"
            d="M188.34,236.87c-.16-3-.18-6.06-.49-9.07a57.43,57.43,0,0,0-4.94-18.45,40.65,40.65,0,0,0-2.79-4.44l-.72-1.14.29-.27,2,1.68c4.37,5.44,6.08,11.91,6.86,18.62.55,4.74.57,9.53.77,14.3a60.65,60.65,0,0,1,0,6.18c-.17,2.71-.52,5.41-.8,8.11-.12,1.16-.25,2.31-.38,3.47l-.34,0c.07-.63.17-1.25.19-1.89q.33-7.34.61-14.68A19.26,19.26,0,0,0,188.34,236.87Z" />
        <path class="color-shadow" d="M172.76,199h0Z" />
        <path class="color-shadow" d="M191.48,198.46h0Z" />
        <path class="color-base"
            d="M100.52,222.94c-.21-1.88-.39-3.77-.66-5.65-.21-1.42-.06-1.59,1.39-1.81,1.64-.25,3.26-.67,4.88-1,.38-.08.76-.13,1.16-.2.39,3.36.77,6.61,1.15,9.86Z" />
        <path class="color-shadow"
            d="M100.52,222.94l7.92,1.2c.15,1,.29,2,.45,2.93.13.75,0,1.14-1,1.19-1.69.09-3.37.38-5.06.58-.46,0-.93.08-1.56.13C101.05,226.91,100.79,224.93,100.52,222.94Z" />
        <path class="color-shadow"
            d="M518.1,448.29c.36,2.71.72,5.43,1.09,8.14.2,1.45.41,2.9.61,4.35-.7.25-1.43.47-2.11.77a1.33,1.33,0,0,1-2.07-1q-1.29-4.8-2.48-9.62a.89.89,0,0,1,.36-.76C515,449.51,516.56,448.91,518.1,448.29Z" />
    </g>
</svg>
