<svg id="manshety" xmlns="http://www.w3.org/2000/svg" viewBox="0 0 672 960">
    <g id="img_39_img" data-name="img 39 img">
        <path class="outline"
            d="M32.85,253.44l-1.57-.65c-.06-.19-.12-.37-.19-.56l.66-1.88.25-.6,2.81-6.15.33-.56q.86-2.58,1.72-5.15l.21-.61c.87-2.36,1.64-4.76,2.66-7.06a4.16,4.16,0,0,1,2-1.9c3.9-1.75,7.85-3.37,11.78-5a2.57,2.57,0,0,0,.39-.28c-.15-.49-.28-1-.47-1.52a1.23,1.23,0,0,1,.91-1.84c3.08-.93,6.13-2,9.25-2.74,4.24-1,8.53-1.87,12.82-2.66a52.43,52.43,0,0,1,6.39-.68c4.92-.32,9.82-.73,14.55-2.27a49.76,49.76,0,0,1,10.88-2,2.51,2.51,0,0,0,2.1-1.08,3,3,0,0,1,1.45-1c2.1-.75,4.2-1.5,6.35-2.09a16,16,0,0,1,4.22-.63c3.47,0,6.62-1.31,9.87-2.2,9-2.48,17.95-5,26.95-7.4a33.93,33.93,0,0,1,6.61-.9c3.79-.21,7.58-.25,11.38-.31,2.63,0,5.26,0,7.89,0,4.22-.08,8.44-.23,12.66-.34,2-.05,4-.09,6-.07,4.08,0,8.15.24,12.22.21,4.25,0,8.5-.29,12.75-.41,3.61-.1,7.22-.14,10.82-.24s7.45-.21,11.18-.34c2.49-.09,5-.16,7.49-.33,3.16-.21,6.32-.52,9.48-.78,2.74-.22,5.47-.43,8.2-.67,1.68-.15,3.35-.36,5.16-.55,0,.8,0,1.59,0,2.38,0,1.79-.12,3.58-.16,5.37-.12,5.32-.19,10.63-.33,15.94-.1,3.87-.22,7.74-.43,11.6-.28,5.29-.65,10.57-1,15.86-.22,3.58-.42,7.16-.69,10.73-.35,4.63-.78,9.26-1.17,13.89-.25,3-.46,6-.74,9-.36,3.91-.78,7.81-1.16,11.72-.27,2.77-.46,5.54-.75,8.3-.35,3.31-.78,6.6-1.15,9.91-.28,2.44-.51,4.89-.76,7.34a28.43,28.43,0,0,1-.32,3.08,3.73,3.73,0,0,1-1.09,1.6c-.26-1.28-1.05-1.28-2-1.35a53.45,53.45,0,0,1-13.85-3.26c-8.89-3.16-17.88-6.1-26.59-9.7-7.57-3.12-15.26-5.82-23-8.33a58.39,58.39,0,0,1-17.55-9.71A15.38,15.38,0,0,0,178,281.45a24.9,24.9,0,0,1-19.5-8.2,13.43,13.43,0,0,0-2.55-2.34,21.43,21.43,0,0,1-9.63-13.1,56.14,56.14,0,0,0-2.92-7.08,1.3,1.3,0,0,0-1.94-.78c-.62.27-1.23.56-1.86.82a4,4,0,0,1-4.8-1,11.55,11.55,0,0,1-1.58-2.1,10.2,10.2,0,0,0-4-4c-2.76-1.52-5.49-3.08-8.3-4.5a5.44,5.44,0,0,0-2.43-.32A4.75,4.75,0,0,1,114,236.2a1.26,1.26,0,0,0-1.29-.78c-1.61,0-3.29-.44-4.83-.13a63.63,63.63,0,0,0-7,2.17c-.61.19-1.2.46-1.81.61a7.12,7.12,0,0,0-4.21,2.59c-1.5,1.94-4,2.41-6.28,3-2.68.64-5.44,1-8.07,1.79a69.45,69.45,0,0,0-7.54,3c-2.45,1.06-4.84,2.28-7.28,3.39A16,16,0,0,1,57.59,253a2.64,2.64,0,0,1-2.27-2.19,3,3,0,0,1,.86-3.39c1.56-1.24,3.21-2.37,4.82-3.55l1-.75-1.43-3.74a46.15,46.15,0,0,1-4.08,3.06,49.12,49.12,0,0,1-5.75,2.9,2.15,2.15,0,0,1-1.93-.18,1.65,1.65,0,0,1,.2-2.27c1.49-1.76,3-3.55,4.42-5.33l-.2-.33c-.62.32-1.25.61-1.86.95s-1.31.78-2,1.17L48,242.17l-.43.88-1.23,2.49-.85,1.61-.36.54-.33.44-.69.69-.44.33-.54.34-.6.24-.56.12-1.86-.23-.83.12,0,0L38.11,251l-1,.78-.51.39-1.35.64-1.25.45-.4.1Zm82-22.57a15.71,15.71,0,0,1,.51,2,4.63,4.63,0,0,0,4.11,3.87,5.41,5.41,0,0,1,2.06.57c2.25,1.27,4.4,2.72,6.68,3.94,2.7,1.45,5.26,3,6.9,5.74a4.12,4.12,0,0,0,.41.43,1.67,1.67,0,0,0,2.07.4c1.5-.61,3-1.17,4.59-1.77-.28-1.26-.55-2.58-.87-3.9-.62-2.6-.86-5.4-3.65-7,.31-.15.65-.29.82-.18.8.54,1.85,1,2.28,1.76a41,41,0,0,1,2.86,6.3c1,2.83,1.58,5.77,2.44,8.63.71,2.37,1.68,4.66,2.32,7.05a15.24,15.24,0,0,0,4.25,7.51c1.14,1,2.35,2,3.57,3,3.3,2.59,6.66,5,10.71,6.44,3.6,1.26,7.17,2.74,11,2.65,5-.12,8.84,2,12.4,5.09a46.28,46.28,0,0,0,16.88,9.35c7.82,2.43,15.51,5.18,23.13,8.22,6.45,2.56,13.16,4.44,19.71,6.77,5.38,1.91,10.71,4,16.37,4.91,1.55.26,3.13.33,4.76.5.6-5.39,1.17-10.5,1.72-15.62Q274,287.33,275,277.15c.66-6.35,1.35-12.69,1.93-19,.7-7.71,1.42-15.42,1.9-23.15.49-7.92.76-15.86,1-23.8.13-4.38,0-8.77,0-13.16,0-2.12-.18-4.25-.27-6.37l-4.31.35c-6.95.53-13.9,1.17-20.87,1.58-6.49.38-13,.5-19.5.78-3.26.14-6.53.36-9.79.54l-1.66.08c-4.35-.06-8.71-.18-13.06-.15-8.34,0-16.68.19-25,.3-5.63.07-11.26.06-16.89.3a43.38,43.38,0,0,0-8.5,1.17c-4.34,1.08-8.63,2.39-12.85,3.85A142.49,142.49,0,0,1,129,205.33a10,10,0,0,1-1.89.26c-3.3.07-6.56.18-9.59,1.84-1.7.94-3.55,1.59-5.47,2.43a13.32,13.32,0,0,0-.38,2.75c.13,2.51.33,5,.65,7.5.27,2,.75,4,1.14,6,.06.17.12.35.17.52Zm-18.2,5.33a44.43,44.43,0,0,0-17.12-.06c-7.15,1.57-13.33,5.45-19.46,9.28a26.73,26.73,0,0,0-2.57,1.91,10.31,10.31,0,0,0-1,1.12c3-1,5.47-3.17,8.55-.74a8.3,8.3,0,0,0-2.43-.31,8.75,8.75,0,0,0-5.05,2.78c-.8.94-.67,1.4.56,1.55,2.26.29,4.5.44,6.67-.61,2.52-1.22,5.11-2.28,7.65-3.46a41,41,0,0,1,11-3.72A67.26,67.26,0,0,0,91,242.11a6.68,6.68,0,0,0,4.48-3.68C95.79,237.72,96.2,237.06,96.68,236.2ZM32.42,251.74l.43.41a14.59,14.59,0,0,0,3-1.16c3.84-2.49,6.09-6.32,7.9-10.33a12.2,12.2,0,0,1,7-6.67c2.32-.9,4.72-1.6,7.26-2.44l-3.36-7.24a50.38,50.38,0,0,0-13,5,2.26,2.26,0,0,0-.88,1.09c-1.7,4.27-3.35,8.55-5,12.83a2.72,2.72,0,0,0,0,.81c0,1.11-.09,2.22-.14,3.33h-.37L34.92,246h-.26Zm77-40.18c-3.38.51-6.75,1-10.11,1.53-3,.48-5.94,1.08-8.92,1.54-1.84.28-3.71.37-5.57.57-2.57.27-5.13.62-7.7.8a41.87,41.87,0,0,0-10.52,1.92c-1.53.52-3.15.8-4.72,1.2l-7.13,1.8c3.76,6.55,7.06,12.93,8.47,20.16l4.94-2.31c1.26-.58,2.5-1.21,3.78-1.73a56.32,56.32,0,0,1,6.64-2.54c4.25-1.13,8.64-.91,13-.73a32,32,0,0,1,6.87,1.35,2.86,2.86,0,0,0,1.89.07,20,20,0,0,1,9.13-1.41,29,29,0,0,0,3.11,0C110.39,226.42,110.51,218.9,109.43,211.56Zm-52.78,22a15.26,15.26,0,0,0-10.13,4.25,7.92,7.92,0,0,0-1.31,2c-1.27,2.34-2.5,4.71-3.75,7.06-.25.46-.55.9-.92,1.5a4,4,0,0,0,4.12-2.07c.81-1.33,1.41-2.78,2.19-4.12a13.11,13.11,0,0,1,2.33-3.44,51.15,51.15,0,0,1,5.09-3.46C55.08,234.69,55.86,234.11,56.65,233.54Zm2.17.29a16.86,16.86,0,0,0-2.89,2.2c-2.06,2.43-4,5-5.9,7.51a4.2,4.2,0,0,0-.43,1.14l.32.19a22.41,22.41,0,0,0,10-6.66,1.61,1.61,0,0,0,.23-1.3C59.8,235.94,59.33,235,58.82,233.83Z" />
        <path class="color-shadow-dark"
            d="M482.91,344.41c-.19-1.21-.37-2.43-.57-3.65-.15-.88-.3-1.76-.48-2.63q-1.07-5-2.14-10.05c-.08-.34-.1-.7-.15-1-.29-2.09-.59-4.17-.88-6.25-.57-4.08-1.2-8.15-1.7-12.24a99.68,99.68,0,0,1-1.08-11.27c0-3.73.53-7.47.86-11.2.4-4.48.78-9,1.26-13.44.22-2,.71-4,2.56-5.16,2.75-1.78,5.43-3.67,8.31-5.2a223.34,223.34,0,0,1,25.79-11.61c.8-.3,1.15-.09,1.46.65,1.7,4.09,3.43,8.18,5.16,12.26,4.25,10,8,20.24,9.93,31,1.59,8.71,3,17.46,4.44,26.19.89,5.22,1.65,10.47,2.79,15.64a86.49,86.49,0,0,1,2.19,17.89c0,5.63-.25,11.26-.46,16.89-.1,2.67-.33,5.34-.51,8-.27,4.13-1.25,8.22-.66,12.39.79,5.54,1.55,11,5.6,15.48a8.28,8.28,0,0,1,1,9.93,30.82,30.82,0,0,1-2.71,3.8,26.56,26.56,0,0,0-4.79,7,6.67,6.67,0,0,0-.09,5.77,8.38,8.38,0,0,1,.43,3.15c0,.95-.18,1.9-.2,2.86a4.42,4.42,0,0,1-4.91,4.3,11.92,11.92,0,0,0-2.86.09c-3.66.54-7.32,1.1-11,1.74a23.81,23.81,0,0,0-8.16,2.59,1.21,1.21,0,0,1-1.13-.29A14.83,14.83,0,0,1,509,444.2c-.53-4.52-1.78-8.67-5.15-11.95a2.66,2.66,0,0,1-.87-1.63c0-4.43.06-8.85.12-13.28,0-3.22.14-6.45.1-9.68a33.24,33.24,0,0,0-.54-4l2.52.37c.08,1.51.14,3,.23,4.52.16,2.42.42,4.83.48,7.24.07,3.13.17,6.28-.07,9.4-.29,3.63.15,6.95,2.65,9.78a2,2,0,0,1,.43.71c1,3.17,2.05,6.34,2.95,9.55.28,1,.71,1.31,1.67,1.09,1.43-.32,2.89-.54,4.3-.91,1.17-.3,2.29-.75,3.43-1.13a2.36,2.36,0,0,0,.6,0c3.49-1.19,7-2.41,10.47-3.57.79-.27.92-.73,1-1.5a82.74,82.74,0,0,1,.75-8.64,43,43,0,0,1,1.87-6c-.3,0-.69,0-1.07,0-1.71.07-3.42.1-5.12.25-2.52.23-5,.6-7.56.82a5.8,5.8,0,0,1-1.73-.38l.78-1.66a4.51,4.51,0,0,0,1.22,0c3.21-.95,6.4-2,9.62-2.9,2.78-.78,5.55-1.83,8.55-.85.29.09.82-.51,1.25-.79A5,5,0,0,0,541,418a2.1,2.1,0,0,0-1.05-.13c-3.06,0-5.86,1.05-8.7,2l-7.6,2.54c0-.11.06-.27.14-.32,4.24-2.58,8.56-5,13.46-6.15l3-.69a5.56,5.56,0,0,0,1.53,0c.34-.11.81-.54.82-.85a8.26,8.26,0,0,0-1.4-5.36c-1.1-2.37-2.23-4.74-3.31-7.13a9.68,9.68,0,0,1-1-2.66c-.47-3.65-1-7.31-1.14-11-.09-1.85.56-3.74.77-5.62.55-4.84,1.15-9.68,1.53-14.54.21-2.65,0-5.34,0-8,0-.32,0-.64,0-1-.08-.72-.15-1.44-.23-2.16,0-.4,0-.8,0-1.2s0-1,0-1.42l-.23-1.22c0-.31,0-.63,0-.94l-.45-.75.21-.93-.23-.5v-1.18l-.45-.75v-.71a4,4,0,0,0,.19-1.12c-.19-1.65-.43-3.3-.67-4.95-.67-4.43-1.2-8.88-2-13.28a152,152,0,0,1-2.27-16.86l-1-11.87a33.72,33.72,0,0,0-2.22-10.58q-4.32-10.23-8.56-20.52c-1.2-2.9-2.29-5.85-3.4-8.8-.4-1.07-.71-2.18-1.11-3.26-.19-.5-.32-1-1.18-.77-3.83,1.22-7.69,2.35-11.53,3.53-5,1.51-9.39,4.16-14,6.52-2.69,1.38-5.47,2.7-7.37,5.2a4.33,4.33,0,0,0-.81,2c-.26,2.29-.34,4.59-.58,6.89-.25,2.52-.58,5-.89,7.56-.37,3-.67,5.91-1.16,8.84a11.62,11.62,0,0,0,0,5.62A67.17,67.17,0,0,1,480,308.8c.93,4.71,1.79,9.43,2.54,14.17.81,5.09,1.38,10.22,2.19,15.31,1.48,9.34,3.45,18.58,5.61,27.79a111.67,111.67,0,0,1,2,13.28c.2,1.82.11,3.66,1.12,5.28a44.59,44.59,0,0,0,3.81,5.89,44.09,44.09,0,0,0,5.35,4.74,15.52,15.52,0,0,0,2,1.21,33,33,0,0,0,3.12,1.74c2.7,1.16,5.44,2.22,8.16,3.32.31.26.61.55.94.79,1,.7,1.94,1.38,2.91,2.06a38.38,38.38,0,0,0-12.58-2.6,10.88,10.88,0,0,1-9.59-5.72,46.44,46.44,0,0,1-6.11-14.46c-.85-4.17-1.78-8.32-2.69-12.48q-1.54-7-3.1-14.11c-.73-3.31-1.45-6.63-2.21-9.94C483.47,344.82,483.12,344.63,482.91,344.41Z" />
        <path class="outline"
            d="M505.17,404l-2.52-.37a33.24,33.24,0,0,1,.54,4c0,3.23-.06,6.46-.1,9.68-.06,4.43-.14,8.85-.12,13.28a2.66,2.66,0,0,0,.87,1.63c3.37,3.28,4.62,7.43,5.15,11.95a14.83,14.83,0,0,0,1.29,3.78,1.21,1.21,0,0,0,1.13.29,23.81,23.81,0,0,1,8.16-2.59c3.64-.64,7.3-1.2,11-1.74a11.92,11.92,0,0,1,2.86-.09,4.42,4.42,0,0,0,4.91-4.3c0-1,.23-1.91.2-2.86a8.38,8.38,0,0,0-.43-3.15,6.67,6.67,0,0,1,.09-5.77,26.56,26.56,0,0,1,4.79-7,30.82,30.82,0,0,0,2.71-3.8,8.28,8.28,0,0,0-1-9.93c-4-4.44-4.81-9.94-5.6-15.48-.59-4.17.39-8.26.66-12.39.18-2.66.41-5.33.51-8,.21-5.63.5-11.26.46-16.89a86.49,86.49,0,0,0-2.19-17.89c-1.14-5.17-1.9-10.42-2.79-15.64-1.49-8.73-2.85-17.48-4.44-26.19-2-10.75-5.68-21-9.93-31-1.73-4.08-3.46-8.17-5.16-12.26-.31-.74-.66-.95-1.46-.65a223.34,223.34,0,0,0-25.79,11.61c-2.88,1.53-5.56,3.42-8.31,5.2-1.85,1.2-2.34,3.16-2.56,5.16-.48,4.48-.86,9-1.26,13.44-.33,3.73-.9,7.47-.86,11.2A99.68,99.68,0,0,0,477,308.55c.5,4.09,1.13,8.16,1.7,12.24.29,2.08.59,4.16.88,6.25-.67-3.36-1.36-6.7-2-10.06-.5-2.71-.91-5.43-1.39-8.14-.4-2.23-.9-4.44-1.27-6.68a33.39,33.39,0,0,1-.46-4.56c-.07-3.24,0-6.49,0-9.47l.57,1.16c.18-1.12.35-1.93.43-2.75.25-2.35.41-4.71.69-7.05s.67-4.59,1-6.88c.18-1.34.26-2.7.52-4a2.17,2.17,0,0,1,.9-1.33c5.14-2.79,10.25-5.66,15.5-8.24,6.34-3.13,12.8-6,19.22-9,1.19-.54,2.45-.94,3.68-1.37.58-.21.94.07,1.16.63,4.14,10.19,9.06,20.08,12,30.71,1,3.67,1.85,7.41,2.55,11.16,1.13,6.13,2.1,12.29,3.09,18.44.91,5.65,1.68,11.32,2.64,16.95,1.08,6.28,2.6,12.49,3.38,18.8a128.71,128.71,0,0,1,.69,16c0,5.37-.38,10.74-.64,16.11-.13,2.82-.36,5.64-.56,8.46-.32,4.59,1,8.91,2.09,13.29.8,3.06,2.59,5.56,4,8.3,2,4.11,1.84,8-.92,11.71-1.1,1.47-2.31,2.86-3.36,4.36a42.85,42.85,0,0,0-3.17,5.06,3.72,3.72,0,0,0-.23,2.75,12.2,12.2,0,0,1,.44,5.77,31.38,31.38,0,0,1-.6,5.05c-.6,2.46-2.58,3.26-4.9,3.42l-1,.08c.14,1.63.22,3.22.42,4.78.53,4.14,1.08,8.28,1.69,12.41.77,5.19,1.62,10.36,2.4,15.54.22,1.46.38,2.93.46,4.39q.26,5.07.42,10.14c.06,1.79,0,1.79-1.73,2.38.69,2.2-.34,4.11-1.25,6-2.34,4.85-4.76,9.66-7.16,14.49a11.35,11.35,0,0,1-3.12,3.54c-2.42,2.07-4.7,4.33-6.93,6.61-1.44,1.48-2.69,3.15-4,4.74a1.53,1.53,0,0,1-2.74-.31c-.9-1.66-.53-3.3,0-4.94a16.48,16.48,0,0,0,.82-3c-.75.45-1.5.89-2.24,1.35-.95.6-1.84,1.3-2.83,1.81-1.84,1-3.25.09-3.35-2a6.66,6.66,0,0,1,2-5.08,32.44,32.44,0,0,1,2.68-2.27c.26-.21.55-.4,1-.7l-3.9-1.32c-.4-.14-.81-.28-1.21-.44-2.41-1-2-2.46-.33-4,.41-.38.74-.61.73-1.26,0-1.11.94-1.47,1.77-1.69,2.15-.55,2.08-.51,2.56-2.58.79-3.32,1.74-6.59,2.53-9.91s1.52-6.72,2.24-10.09c.45-2.09-.61-4-.91-5.94-.25-1.64-.56-3.27-.76-4.92-.43-3.39-.77-6.79-1.22-10.18-.32-2.38-.7-4.75-1.19-7.1-.37-1.76-1-3.46-1.46-5.21-.63-2.68-1.13-5.4-1.73-8.09a21.66,21.66,0,0,0-4.44-9.84,3.75,3.75,0,0,1-.85-1.8c-.35-2.57-.73-5.14-.83-7.73-.16-4.19-.07-8.38-.18-12.57-.05-2.08-.33-4.14-.5-6.21a5.06,5.06,0,0,0-1.87-3.6,14.38,14.38,0,0,1-4.44-7c-1.16-3.86-2.7-7.61-3.83-11.48-.83-2.88-1.28-5.87-1.87-8.82s-1.17-5.78-1.71-8.68c-.58-3.15-1.08-6.33-1.68-9.48s-1.3-6.17-1.92-9.25a18.82,18.82,0,0,1-.22-2c.21.22.56.41.61.66.76,3.31,1.48,6.63,2.21,9.94q1.54,7,3.1,14.11c.91,4.16,1.84,8.31,2.69,12.48a46.44,46.44,0,0,0,6.11,14.46,10.88,10.88,0,0,0,9.59,5.72,38.38,38.38,0,0,1,12.58,2.6l2.34,1,2,1.12a9.57,9.57,0,0,1,1.78,1.49,6.31,6.31,0,0,1,.63,1.91,6,6,0,0,0-4.36-3.36c-1.85-.44-3.68-1-5.55-1.3-3.34-.5-6.69-.82-10-1.22ZM527,484.77l0,.51c-.06.31-.12.63-.19.94-.66,2.25-1.37,4.48-1.94,6.75a5.78,5.78,0,0,0,.15,2.29c.12.72.53,1,1.3.63a9.57,9.57,0,0,1,2.24-.82c2.06-.43,4.13-.77,6.19-1.14.74-.1,1.5-.15,2.22-.32a1,1,0,0,0,.63-.64c0-.82-.08-1.63-.13-2.45,0-.31-.09-.62-.13-.93-.16-2.13-.17-4.28-.49-6.39-.78-5.24-1.69-10.47-2.56-15.7-.07-.63-.11-1.26-.21-1.89-.56-3.36-1.24-6.71-1.67-10.1-.34-2.67-.39-5.39-.53-8.09-.07-1.62-.17-1.86-1.81-1.72-2.6.23-5.2.58-7.79.95-3.68.52-7.3,1.21-10.51,3.26-1.23.79-1.28,1-.83,2.4a51.41,51.41,0,0,1,1.71,6.21c.82,4.18,1.47,8.4,2.14,12.29.49-1.51,1.09-3.34,1.73-5.29,3.15,6.78,5.39,13.64,9.16,20.24.19-1,.32-1.71.45-2.39l.44-.75.58,1.21Zm-12.52,22.7c.24-.35.4-.57.54-.8,2-3.24,4-6.53,6.15-9.71a10.86,10.86,0,0,0,1.77-4.22c.21-1.15.83-2.23,1.14-3.37a3.39,3.39,0,0,0,.08-2c-2.15-5.45-4.39-10.87-6.61-16.3-.23-.56-.5-1.1-.75-1.64l-.3.06c-.09.9-.27,1.79-.27,2.69,0,2.43,0,4.86.11,7.29.16,4.26-1.24,8.25-2.16,12.3-1.34,5.93-2.86,11.81-4.23,17.73a5.9,5.9,0,0,0,.12,2.57c.22,1,.92,1.13,1.5.32a11.31,11.31,0,0,0,1.7-3c.72-2.11-.1-3.23-2.14-3.26-.05,0-.09-.1-.13-.16C512.25,504.58,513.48,505.05,514.45,507.47Zm1.49,19.25c.2,0,.31.1.35.07s.28-.28.43-.41q4.75-4.27,9.51-8.55a5,5,0,0,0,1.15-1.37c2.91-6,5.78-12,8.66-18a2.88,2.88,0,0,0-.4-2.95c-2.89,1-5.79,1.94-8.71,2.88-1.15.37-1.32,1.06-1.12,2.17a5.53,5.53,0,0,1-.14,2.59c-.83,2.5-1.78,5-2.72,7.42a15.87,15.87,0,0,1-1.55,3.57c-.9,1.3-2.2,2.31-3.23,3.53-2,2.41-4.22,4.75-4.78,8a11.8,11.8,0,0,0,0,3.25c0,.27.61.47,1,.7a3.52,3.52,0,0,0,.29-1,4.14,4.14,0,0,1,2.51-3.82Zm7.5-29.31-.37.06a24.54,24.54,0,0,1-.53,3.75c-1,3.31-2.08,6.58-3.18,9.85a5.65,5.65,0,0,1-3.75,3.54,50.45,50.45,0,0,0-6.84,3.37,5.52,5.52,0,0,0-3,3.72c-.15.95.42,2,.67,3a8.53,8.53,0,0,0,2-.65c3.36-2.1,6.92-3.91,9.47-7.15,1.66-2.1,3.9-3.72,4.39-6.65a26.45,26.45,0,0,1,1.6-4.4c.39-1.07,1.15-2.2,1-3.21A31,31,0,0,0,523.44,497.41Zm-1.48-.54c-.08.32-.15.65-.26,1a41.57,41.57,0,0,1-1.55,4.21c-.84,1.75-1.9,3.4-2.81,5.13-.51,1-1,1.89-2.15,2.22-.34.09-.63.55-.85.9-.69,1.12-1.26,2.31-2,3.37-.59.81-1.36.76-2.17.09-1.19-1-1.3-2.3-1.36-3.71a5,5,0,0,0-3.68.64c-1,.78-1,1.59.19,2.09s2.71,1,4,1.51a4.85,4.85,0,0,0,4.64-.22,4.81,4.81,0,0,1,1.92-.61,2.87,2.87,0,0,0,2.47-2q1.35-3.13,2.6-6.31A18.2,18.2,0,0,0,522,496.87Zm-6.62,11.34.4.27,4.2-7.73-.42-.23Zm-9.05.77,3.1-.25c-.25-.43-.37-.9-.59-1A2.17,2.17,0,0,0,506.29,509Z" />
        <path class="color-shadow-dark" d="M48,242.17l1.43-2.86Z" />
        <path class="color-shadow-dark" d="M46.34,245.54l1.23-2.49Z" />
        <path class="color-shadow-dark" d="M38.11,251l1.14-1.19Z" />
        <path class="color-shadow-dark" d="M34.05,253.24l1.25-.45Z" />
        <path class="color-shadow-dark" d="M44.11,248.82l.69-.69Z" />
        <path class="color-shadow-dark" d="M32.85,253.44l.8-.1Z" />
        <path class="color-shadow-dark" d="M39.28,249.74l.83-.12Z" />
        <path class="color-shadow-dark" d="M37.07,237.28l-.21.61Z" />
        <path class="color-shadow-dark" d="M35.14,243l-.33.56Z" />
        <path class="color-shadow-dark" d="M31.09,252.23c.07.19.13.37.19.56C31.22,252.6,31.16,252.42,31.09,252.23Z" />
        <path class="color-shadow-dark" d="M32,249.75l-.25.6Z" />
        <path class="color-shadow-dark" d="M42,249.85l.56-.12Z" />
        <path class="color-shadow-dark" d="M43.13,249.49l.54-.34Z" />
        <path class="color-shadow-dark" d="M45.13,247.69l.36-.54Z" />
        <path class="color-shadow-dark" d="M36.65,252.15l.51-.39Z" />
        <path class="color-base"
            d="M223.42,195l1.66-.08c.19.58.16,1.32,1.06,1.35l8,.31c6.24.24,12.48.56,18.73.7,5.35.12,10.7,0,16,0a13.4,13.4,0,0,0,2,0c2.11-.33,4.22-.71,6.31-1.14.76-.16,1.07.13,1.15.79.12,1,.18,2,.26,3-.16,1.09-.35,2.17-.47,3.26-.21,2-.31,4-.56,5.93-.41,3.31-1,6.6-1.35,9.9-.46,3.91-.73,7.83-1.26,11.73-.69,5.07-1.44,10.13-2.37,15.16q-2.11,11.36-4.54,22.66c-1.08,5-2.42,10-3.63,15.07-1.16,4.78-2.31,9.57-3.49,14.49-.42-.1-.8-.18-1.16-.28-5.48-1.51-10.94-3.08-16.43-4.54-6.76-1.81-13.56-3.48-20.31-5.33-3.34-.91-6.63-2-9.89-3.2-2.77-1-5.5-2.11-8.2-3.26-2.09-.88-4.09-2-6.18-2.86-3.88-1.66-7.86-3.12-11.69-4.89A113.2,113.2,0,0,0,171.39,268a21.5,21.5,0,0,1-5.8-2.72c-3.43-2.25-5.53-5.73-7.52-9.17-2.49-4.31-4.73-8.78-7-13.21a32.36,32.36,0,0,0-9.88-11.18c-2.08-1.55-3.88-.55-4.42,1.56l-4.42-.84-.16.26a11.94,11.94,0,0,1,4.83,4.67,3.71,3.71,0,0,1-.83-.08c-3.07-1.22-6.22-2.22-9-4.06a70,70,0,0,0-6.6-3.59c-1.92-1-3.87-1.89-5.82-2.79a4.71,4.71,0,0,0-1.14-.23c0-.17-.11-.35-.17-.52a14.92,14.92,0,0,0,.49-2.85c-.07-2.74-.28-5.47-.43-8.21a18.66,18.66,0,0,0,4.17-.11c5.66-1.43,11.29-3,16.91-4.57,3.13-.9,6.2-2,9.31-3,3.79-1.19,7.59-2.38,11.41-3.47,4.81-1.38,9.65-2.64,14.47-4a22.5,22.5,0,0,0,2.3-.92h1.19c2.26-.16,4.52-.39,6.78-.45,1.71,0,3.42.2,5.13.19,2.11,0,4.22-.14,6.33-.22H192c3.2-.34,6.4-.7,9.6-1,3.68-.34,7.36-.61,11-.93,2.66-.24,5.31-.47,8-.79A21.13,21.13,0,0,0,223.42,195Zm-35.08,41.92c-.06,5.38-.11,10.75-.21,16.12a22.85,22.85,0,0,1-.42,2.82l.37,0c.12-1.11.23-2.23.35-3.34.28-2.75.64-5.48.83-8.23a53.81,53.81,0,0,0,0-5.82c-.2-4.88-.18-9.8-.76-14.64-.79-6.71-2.52-13.18-6.85-18.64,0-.16,0-.36-.05-.47a12,12,0,0,0-4.43-3.75,1.41,1.41,0,0,0-1.92.74,1.86,1.86,0,0,0,.07,1.58c.92,1.34,2,2.57,3,3.87,2.55,3.35,3.71,7.29,4.78,11.26,1.62,6,3.22,12.07,4.84,18.1C188,236.66,188.2,236.75,188.34,236.87Z" />
        <path class="color-shadow-dark"
            d="M278.6,199.9c-.08-1-.14-2-.26-3-.08-.66-.39-.95-1.15-.79-2.09.43-4.2.81-6.31,1.14a13.4,13.4,0,0,1-2,0c-5.35,0-10.7.09-16,0-6.25-.14-12.49-.46-18.73-.7l-8-.31c-.9,0-.87-.77-1.06-1.35,3.26-.18,6.53-.4,9.79-.54,6.5-.28,13-.4,19.5-.78,7-.41,13.92-1.05,20.87-1.58l4.31-.35c.09,2.12.24,4.25.27,6.37.06,4.39.17,8.78,0,13.16-.24,7.94-.51,15.88-1,23.8-.48,7.73-1.2,15.44-1.9,23.15-.58,6.36-1.27,12.7-1.93,19q-1,10.19-2.13,20.35c-.55,5.12-1.12,10.23-1.72,15.62-1.63-.17-3.21-.24-4.76-.5-5.66-.94-11-3-16.37-4.91-6.55-2.33-13.26-4.21-19.71-6.77-7.62-3-15.31-5.79-23.13-8.22a46.28,46.28,0,0,1-16.88-9.35c-3.56-3.12-7.42-5.21-12.4-5.09-3.82.09-7.39-1.39-11-2.65-4.05-1.42-7.41-3.85-10.71-6.44-1.22-1-2.43-1.95-3.57-3a15.24,15.24,0,0,1-4.25-7.51c-.64-2.39-1.61-4.68-2.32-7.05-.86-2.86-1.48-5.8-2.44-8.63a41,41,0,0,0-2.86-6.3c-.43-.77-1.48-1.22-2.28-1.76-.17-.11-.51,0-.82.18,2.79,1.58,3,4.38,3.65,7,.32,1.32.59,2.64.87,3.9-1.56.6-3.09,1.16-4.59,1.77a1.67,1.67,0,0,1-2.07-.4,4.12,4.12,0,0,1-.41-.43c-1.64-2.72-4.2-4.29-6.9-5.74-2.28-1.22-4.43-2.67-6.68-3.94a5.41,5.41,0,0,0-2.06-.57,4.63,4.63,0,0,1-4.11-3.87,15.71,15.71,0,0,0-.51-2c.24.23.48.46.73.68a4.45,4.45,0,0,0,.84.73c1.82,1,3.67,1.86,5.48,2.84s3.49,2,5.28,3c1.94,1,3.92,1.94,5.89,2.89a9.18,9.18,0,0,0,3,1.31c1.15.08,2.34-.49,3.94-.87l-3-4.08a11.94,11.94,0,0,0-4.83-4.67l.16-.26,4.42.84c.33.12.66.27,1,.38a8.21,8.21,0,0,1,5.93,6.11,48.16,48.16,0,0,0,5.39,13.47A38.42,38.42,0,0,0,158,263.73c2.15,1.69,4.45,3.21,6.69,4.8a42.93,42.93,0,0,0,5.21,3.57A39.93,39.93,0,0,0,183.5,276a13.61,13.61,0,0,1,7.1,2.79,43.5,43.5,0,0,0,5.74,4.26,104.35,104.35,0,0,0,9.5,4.49q8.28,3.57,16.64,6.95c3.59,1.45,7.21,2.82,10.87,4,3.93,1.31,7.9,2.47,11.88,3.6q9.08,2.58,18.18,5a35.09,35.09,0,0,0,4.06.62c.47-3.2.77-6.17,1.35-9.09,1.16-5.92,2.56-11.79,3.67-17.72.91-4.79,1.57-9.63,2.26-14.46.35-2.48.52-5,.77-7.47.47-4.74,1-9.47,1.38-14.22.28-3.61.32-7.24.52-10.85.11-2.07.31-4.12.51-6.18.37-3.83.92-7.65,1.11-11.49s.09-7.84,0-11.76C279,203,278.76,201.43,278.6,199.9Z" />
        <path class="color-shadow-dark"
            d="M223.42,195a21.13,21.13,0,0,1-2.87.8c-2.64.32-5.29.55-8,.79-3.68.32-7.36.59-11,.93-3.2.29-6.4.65-9.6,1h-.48c-2.11.08-4.22.21-6.33.22-1.71,0-3.42-.23-5.13-.19-2.26.06-4.52.29-6.78.45h-1.19c-3.11.35-6.25.55-9.33,1.1s-6.32,1.54-9.5,2.24c-5.62,1.23-11.26,2.35-16.89,3.57-4.38,1-8.75,1.93-13.1,3-3,.76-6,1.7-9,2.62-.44.13-1.09.57-1.1.88a13.48,13.48,0,0,0,.4,2.65c.15,2.74.36,5.47.43,8.21a14.92,14.92,0,0,1-.49,2.85c-.39-2-.87-4-1.14-6-.32-2.49-.52-5-.65-7.5a13.32,13.32,0,0,1,.38-2.75c1.92-.84,3.77-1.49,5.47-2.43,3-1.66,6.29-1.77,9.59-1.84a10,10,0,0,0,1.89-.26,142.49,142.49,0,0,0,18.14-4.91c4.22-1.46,8.51-2.77,12.85-3.85a43.38,43.38,0,0,1,8.5-1.17c5.63-.24,11.26-.23,16.89-.3,8.34-.11,16.68-.25,25-.3C214.71,194.77,219.07,194.89,223.42,195Z" />
        <path class="transparent"
            d="M96.68,236.2c-.48.86-.89,1.52-1.23,2.23A6.68,6.68,0,0,1,91,242.11a67.26,67.26,0,0,1-7.44,1.83,41,41,0,0,0-11,3.72c-2.54,1.18-5.13,2.24-7.65,3.46-2.17,1-4.41.9-6.67.61-1.23-.15-1.36-.61-.56-1.55a8.75,8.75,0,0,1,5.05-2.78,8.3,8.3,0,0,1,2.43.31c-3.08-2.43-5.58-.3-8.55.74a10.31,10.31,0,0,1,1-1.12,26.73,26.73,0,0,1,2.57-1.91c6.13-3.83,12.31-7.71,19.46-9.28A44.43,44.43,0,0,1,96.68,236.2Z" />
        <path class="transparent"
            d="M32.42,251.74,34.66,246h.26l.31,1.36h.37c0-1.11.1-2.22.14-3.33a2.72,2.72,0,0,1,0-.81c1.65-4.28,3.3-8.56,5-12.83a2.26,2.26,0,0,1,.88-1.09,50.38,50.38,0,0,1,13-5L58,231.55c-2.54.84-4.94,1.54-7.26,2.44a12.2,12.2,0,0,0-7,6.67c-1.81,4-4.06,7.84-7.9,10.33a14.59,14.59,0,0,1-3,1.16Z" />
        <path class="color-shadow-dark"
            d="M109.43,211.56c1.08,7.34,1,14.86,3.13,22.24a29,29,0,0,1-3.11,0,20,20,0,0,0-9.13,1.41,2.86,2.86,0,0,1-1.89-.07,32,32,0,0,0-6.87-1.35c-4.33-.18-8.72-.4-13,.73A56.32,56.32,0,0,0,72,237c-1.28.52-2.52,1.15-3.78,1.73l-4.94,2.31c-1.41-7.23-4.71-13.61-8.47-20.16l7.13-1.8c1.57-.4,3.19-.68,4.72-1.2A41.87,41.87,0,0,1,77.13,216c2.57-.18,5.13-.53,7.7-.8,1.86-.2,3.73-.29,5.57-.57,3-.46,5.94-1.06,8.92-1.54C102.68,212.55,106.05,212.07,109.43,211.56ZM58,222.51c.36.67.63,1.19.91,1.7,2,3.55,3.88,7.14,4.66,11.18a25.39,25.39,0,0,0,.71,2.89c.09.29.57.7.77.65a6.66,6.66,0,0,0,2.43-.87c3.57-2.69,7.3-5,11.87-5.45,3-.3,6-.72,9-.73a19.51,19.51,0,0,1,8.58,1.73,5.33,5.33,0,0,0,4.6,0,10.09,10.09,0,0,1,5.54-.93c2,.28,3-.65,2.77-2.88-.33-3.23-.93-6.43-1.31-9.65a40.26,40.26,0,0,1-.29-5.48c0-1.38-.26-1.81-1.63-1.56-3.28.6-6.54,1.28-9.82,1.8-2.9.45-5.83.7-8.74,1.06-2.36.28-4.74.48-7.08.9-2.65.47-5.27,1.13-7.9,1.73-3.48.8-7,1.58-10.42,2.44C61.14,221.43,59.65,222,58,222.51Z" />
        <path class="color-shadow"
            d="M137,237.35l3,4.08c-1.6.38-2.79.95-3.94.87a9.18,9.18,0,0,1-3-1.31c-2-1-3.95-1.88-5.89-2.89-1.79-.94-3.5-2-5.28-3s-3.66-1.88-5.48-2.84a4.45,4.45,0,0,1-.84-.73c-.25-.22-.49-.45-.73-.68l-1.29-4.27a4.71,4.71,0,0,1,1.14.23c2,.9,3.9,1.8,5.82,2.79a70,70,0,0,1,6.6,3.59c2.81,1.84,6,2.84,9,4.06A3.71,3.71,0,0,0,137,237.35Z" />
        <path class="transparent"
            d="M56.65,233.54c-.79.57-1.57,1.15-2.38,1.7a51.15,51.15,0,0,0-5.09,3.46,13.11,13.11,0,0,0-2.33,3.44c-.78,1.34-1.38,2.79-2.19,4.12a4,4,0,0,1-4.12,2.07c.37-.6.67-1,.92-1.5,1.25-2.35,2.48-4.72,3.75-7.06a7.92,7.92,0,0,1,1.31-2A15.26,15.26,0,0,1,56.65,233.54Z" />
        <path class="transparent"
            d="M58.82,233.83c.51,1.18,1,2.11,1.29,3.08a1.61,1.61,0,0,1-.23,1.3,22.41,22.41,0,0,1-10,6.66l-.32-.19a4.2,4.2,0,0,1,.43-1.14c1.93-2.53,3.84-5.08,5.9-7.51A16.86,16.86,0,0,1,58.82,233.83Z" />
        <path class="color-base"
            d="M536.61,347.26c0,.24,0,.48,0,.71l.45.75v1.18l.23.5-.21.93.45.75c0,.31,0,.63,0,.94-.33.49-.49.93.23,1.22,0,.47,0,.95,0,1.42s0,.8,0,1.2c.08.72.15,1.44.23,2.16,0,.32,0,.64,0,1,0,2.68.17,5.37,0,8-.38,4.86-1,9.7-1.53,14.54-.21,1.88-.86,3.77-.77,5.62.17,3.68.67,7.34,1.14,11a9.68,9.68,0,0,0,1,2.66c1.08,2.39,2.21,4.76,3.31,7.13q-.46,3.13-.95,6.25l-3,.69c-4.9,1.14-9.22,3.57-13.46,6.15-.08.05-.1.21-.14.32l-2.43,1.22-.78,1.66a5.8,5.8,0,0,0,1.73.38c2.52-.22,5-.59,7.56-.82,1.7-.15,3.41-.18,5.12-.25.38,0,.77,0,1.07,0a43,43,0,0,0-1.87,6,82.74,82.74,0,0,0-.75,8.64c0,.77-.18,1.23-1,1.5-3.5,1.16-7,2.38-10.47,3.57a2.36,2.36,0,0,1-.6,0c-.3-.41-.83-.78-.88-1.22-.31-2.61-2.46-3.16-4.35-4-.26-.12-.62,0-.94,0-.67,0-1.34.15-2,.13a3,3,0,0,1-2.4-2.08c-.49-2.89-1-5.79-1.41-8.68-.57-3.61-1.09-7.21-1.65-10.81-.32-2.12-.73-4.23-1-6.35-.15-1.34.09-1.52,1.37-1.32a36.59,36.59,0,0,1,4.67.87c3.79,1.05,7.52,2.32,11.32,3.31,2.32.6,4.54,1.88,7.16.9,1.41-.53,2.52-2.65,1.46-3.84a44.47,44.47,0,0,0-4.76-4.65c-3.44-2.87-7.71-3.86-11.9-5-2.72-1.1-5.46-2.16-8.16-3.32a33,33,0,0,1-3.12-1.74,4.9,4.9,0,0,1,.11-1.54c1-2.57.38-5-.61-7.38-1.7-4-3.59-8-5.27-12.05a189.66,189.66,0,0,1-8.61-25.95c-1.82-7.16-3.06-14.47-5.43-21.5a46.16,46.16,0,0,1-1.51-8.07c-.37-2.51-.43-5.07-.83-7.57-.76-4.76-1.53-9.49-.9-14.34.44-3.47.61-7,1-10.43q.72-6,1.66-12A8.29,8.29,0,0,1,489,269c2-.92,3.92-1.78,5.92-2.56,5.56-2.18,11.14-4.3,16.72-6.44.63-.24,1.21-.21,1.48.53,1.27,3.39,2.7,6.73,3.73,10.19,1.67,5.56,3,11.2,4.58,16.8,2,7.22,4.08,14.4,6,21.63s3.65,14.66,5.44,22c.74,3.05,1.39,6.12,2.1,9.18C535.51,342.66,536.07,345,536.61,347.26Z" />
        <path class="color-shadow"
            d="M536.61,347.26c-.54-2.3-1.1-4.6-1.64-6.91-.71-3.06-1.36-6.13-2.1-9.18-1.79-7.34-3.52-14.69-5.44-22s-4-14.41-6-21.63c-1.54-5.6-2.91-11.24-4.58-16.8-1-3.46-2.46-6.8-3.73-10.19-.27-.74-.85-.77-1.48-.53-5.58,2.14-11.16,4.26-16.72,6.44-2,.78-4,1.64-5.92,2.56a8.29,8.29,0,0,0-4.73,6.59q-.93,6-1.66,12c-.41,3.46-.58,7-1,10.43-.63,4.85.14,9.58.9,14.34.4,2.5.46,5.06.83,7.57a46.16,46.16,0,0,0,1.51,8.07c2.37,7,3.61,14.34,5.43,21.5a189.66,189.66,0,0,0,8.61,25.95c1.68,4.05,3.57,8,5.27,12.05,1,2.36,1.65,4.81.61,7.38a4.9,4.9,0,0,0-.11,1.54,15.52,15.52,0,0,1-2-1.21,44.09,44.09,0,0,1-5.35-4.74,44.59,44.59,0,0,1-3.81-5.89c-1-1.62-.92-3.46-1.12-5.28a111.67,111.67,0,0,0-2-13.28c-2.16-9.21-4.13-18.45-5.61-27.79-.81-5.09-1.38-10.22-2.19-15.31-.75-4.74-1.61-9.46-2.54-14.17a67.17,67.17,0,0,0-1.91-7.38,11.62,11.62,0,0,1,0-5.62c.49-2.93.79-5.89,1.16-8.84.31-2.52.64-5,.89-7.56.24-2.3.32-4.6.58-6.89a4.33,4.33,0,0,1,.81-2c1.9-2.5,4.68-3.82,7.37-5.2,4.57-2.36,9-5,14-6.52,3.84-1.18,7.7-2.31,11.53-3.53.86-.27,1,.27,1.18.77.4,1.08.71,2.19,1.11,3.26,1.11,3,2.2,5.9,3.4,8.8q4.23,10.29,8.56,20.52a33.72,33.72,0,0,1,2.22,10.58l1,11.87a152,152,0,0,0,2.27,16.86c.85,4.4,1.38,8.85,2,13.28.24,1.65.48,3.3.67,4.95A4,4,0,0,1,536.61,347.26Z" />
        <path class="color-shadow"
            d="M516,401.53c4.19,1.13,8.46,2.12,11.9,5a44.47,44.47,0,0,1,4.76,4.65c1.06,1.19-.05,3.31-1.46,3.84-2.62,1-4.84-.3-7.16-.9-3.8-1-7.53-2.26-11.32-3.31a36.59,36.59,0,0,0-4.67-.87c-1.28-.2-1.52,0-1.37,1.32.24,2.12.65,4.23,1,6.35.56,3.6,1.08,7.2,1.65,10.81.45,2.89.92,5.79,1.41,8.68a3,3,0,0,0,2.4,2.08c.67,0,1.34-.09,2-.13.32,0,.68-.14.94,0,1.89.85,4,1.4,4.35,4,0,.44.58.81.88,1.22-1.14.38-2.26.83-3.43,1.13-1.41.37-2.87.59-4.3.91-1,.22-1.39-.06-1.67-1.09-.9-3.21-1.94-6.38-2.95-9.55a2,2,0,0,0-.43-.71c-2.5-2.83-2.94-6.15-2.65-9.78.24-3.12.14-6.27.07-9.4-.06-2.41-.32-4.82-.48-7.24-.09-1.51-.15-3-.23-4.52l1.42,0a2.27,2.27,0,0,0,.67.35,45.33,45.33,0,0,1,13.49,3.34c1.87.86,3.85,1.47,5.79,2.19a6.31,6.31,0,0,0-.63-1.91,9.57,9.57,0,0,0-1.78-1.49l-2-1.12-2.34-1c-1-.68-1.95-1.36-2.91-2.06C516.56,402.08,516.26,401.79,516,401.53Z" />
        <path class="outline"
            d="M521.2,423.57l2.43-1.22,7.6-2.54c2.84-.94,5.64-2,8.7-2A2.1,2.1,0,0,1,541,418a5,5,0,0,1,.86,1.06c-.43.28-1,.88-1.25.79-3-1-5.77.07-8.55.85-3.22.9-6.41,2-9.62,2.9A4.51,4.51,0,0,1,521.2,423.57Z" />
        <path class="color-shadow"
            d="M540.21,415.19q.48-3.12.95-6.25a8.26,8.26,0,0,1,1.4,5.36c0,.31-.48.74-.82.85A5.56,5.56,0,0,1,540.21,415.19Z" />
        <path class="color-shadow" d="M537.81,356.86c0-.4,0-.8,0-1.2C537.8,356.06,537.81,356.46,537.81,356.86Z" />
        <path class="color-shadow"
            d="M537.79,354.24c-.72-.29-.56-.73-.23-1.22C537.63,353.43,537.71,353.83,537.79,354.24Z" />
        <path class="color-shadow" d="M538.05,360c0-.32,0-.64,0-1C538,359.34,538.05,359.66,538.05,360Z" />
        <path class="color-shadow" d="M537.07,348.72l-.45-.75Z" />
        <path class="color-shadow" d="M537.55,352.08l-.45-.75Z" />
        <path class="color-shadow" d="M537.31,350.4l-.23-.5Z" />
        <path class="color-base"
            d="M537.28,489.59c0,.31.08.62.13.93-.18.45-.36.9-.54,1.37l-8.62.4c0-.24,0-.44,0-.63.07-2.93.17-5.87.19-8.8a4.59,4.59,0,0,0-.46-1.43l-.54-.72-.89.71a1.81,1.81,0,0,1-.22-.41c-.93-2.82-1.7-5.7-2.82-8.45s-2.85-5.54-4-8.42c-1.46-3.72-2.61-7.56-3.94-11.49l12.9-3.83a39.31,39.31,0,0,1,1.16,3.89c.43,2.22.6,4.49,1.08,6.69.89,4.15,2,8.26,2.89,12.41,1.08,5.08,2,10.19,3,15.28C536.78,487.93,537.05,488.76,537.28,489.59Z" />
        <path class="transparent"
            d="M514.45,507.47c-1-2.42-2.2-2.89-3.48-1.51,0,.06.08.16.13.16,2,0,2.86,1.15,2.14,3.26a11.31,11.31,0,0,1-1.7,3c-.58.81-1.28.66-1.5-.32a5.9,5.9,0,0,1-.12-2.57c1.37-5.92,2.89-11.8,4.23-17.73.92-4.05,2.32-8,2.16-12.3-.1-2.43-.12-4.86-.11-7.29,0-.9.18-1.79.27-2.69l.3-.06c.25.54.52,1.08.75,1.64,2.22,5.43,4.46,10.85,6.61,16.3a3.39,3.39,0,0,1-.08,2c-.31,1.14-.93,2.22-1.14,3.37a10.86,10.86,0,0,1-1.77,4.22c-2.12,3.18-4.1,6.47-6.15,9.71C514.85,506.9,514.69,507.12,514.45,507.47Z" />
        <path class="transparent"
            d="M515.94,526.72l1.24-2a4.14,4.14,0,0,0-2.51,3.82,3.52,3.52,0,0,1-.29,1c-.34-.23-.93-.43-1-.7a11.8,11.8,0,0,1,0-3.25c.56-3.27,2.75-5.61,4.78-8,1-1.22,2.33-2.23,3.23-3.53a15.87,15.87,0,0,0,1.55-3.57c.94-2.46,1.89-4.92,2.72-7.42a5.53,5.53,0,0,0,.14-2.59c-.2-1.11,0-1.8,1.12-2.17,2.92-.94,5.82-1.92,8.71-2.88a2.88,2.88,0,0,1,.4,2.95c-2.88,6-5.75,12-8.66,18a5,5,0,0,1-1.15,1.37q-4.74,4.29-9.51,8.55c-.15.13-.28.29-.43.41S516.14,526.76,515.94,526.72Z" />
        <path class="color-shadow-dark"
            d="M526.07,483.37c-.13.68-.26,1.36-.45,2.39-3.77-6.6-6-13.46-9.16-20.24-.64,2-1.24,3.78-1.73,5.29-.67-3.89-1.32-8.11-2.14-12.29a51.41,51.41,0,0,0-1.71-6.21c-.45-1.39-.4-1.61.83-2.4,3.21-2.05,6.83-2.74,10.51-3.26,2.59-.37,5.19-.72,7.79-.95,1.64-.14,1.74.1,1.81,1.72.14,2.7.19,5.42.53,8.09.43,3.39,1.11,6.74,1.67,10.1.1.63.14,1.26.21,1.89-.17-.18-.45-.33-.5-.53q-1-4.85-1.93-9.69c-.58-3-1.14-6-1.71-9-.22-1.12-.85-1.36-1.92-1.07-3.79,1-7.61,1.95-11.4,3a12.89,12.89,0,0,0-2.16.95c-.86.41-.93,1-.62,1.9.47,1.26.78,2.59,1.21,3.87.92,2.75,1.77,5.52,2.84,8.21,1.46,3.67,3.06,7.28,4.65,10.89C523.77,478.48,524.94,480.91,526.07,483.37Z" />
        <path class="color-shadow"
            d="M526.07,483.37c-1.13-2.46-2.3-4.89-3.38-7.36-1.59-3.61-3.19-7.22-4.65-10.89-1.07-2.69-1.92-5.46-2.84-8.21-.43-1.28-.74-2.61-1.21-3.87-.31-.86-.24-1.49.62-1.9a12.89,12.89,0,0,1,2.16-.95c3.79-1,7.61-1.95,11.4-3,1.07-.29,1.7-.05,1.92,1.07.57,3,1.13,6,1.71,9q.94,4.85,1.93,9.69c0,.2.33.35.5.53.87,5.23,1.78,10.46,2.56,15.7.32,2.11.33,4.26.49,6.39-.23-.83-.5-1.66-.67-2.5-1-5.09-2-10.2-3-15.28-.88-4.15-2-8.26-2.89-12.41-.48-2.2-.65-4.47-1.08-6.69a39.31,39.31,0,0,0-1.16-3.89l-12.9,3.83c1.33,3.93,2.48,7.77,3.94,11.49,1.14,2.88,2.82,5.55,4,8.42s1.89,5.63,2.82,8.45a1.81,1.81,0,0,0,.22.41c0,.4,0,.8,0,1.2Z" />
        <path class="transparent"
            d="M523.44,497.41a31,31,0,0,1,1.53,5.24c.13,1-.63,2.14-1,3.21a26.45,26.45,0,0,0-1.6,4.4c-.49,2.93-2.73,4.55-4.39,6.65-2.55,3.24-6.11,5.05-9.47,7.15a8.53,8.53,0,0,1-2,.65c-.25-1-.82-2.06-.67-3a5.52,5.52,0,0,1,3-3.72,50.45,50.45,0,0,1,6.84-3.37,5.65,5.65,0,0,0,3.75-3.54c1.1-3.27,2.2-6.54,3.18-9.85a24.54,24.54,0,0,0,.53-3.75Z" />
        <path class="transparent"
            d="M522,496.87a18.2,18.2,0,0,1-1,8.33q-1.25,3.18-2.6,6.31a2.87,2.87,0,0,1-2.47,2,4.81,4.81,0,0,0-1.92.61,4.85,4.85,0,0,1-4.64.22c-1.31-.56-2.71-.95-4-1.51s-1.23-1.31-.19-2.09a5,5,0,0,1,3.68-.64c.06,1.41.17,2.73,1.36,3.71.81.67,1.58.72,2.17-.09.77-1.06,1.34-2.25,2-3.37.22-.35.51-.81.85-.9,1.19-.33,1.64-1.26,2.15-2.22.91-1.73,2-3.38,2.81-5.13a41.57,41.57,0,0,0,1.55-4.21C521.81,497.52,521.88,497.19,522,496.87Z" />
        <path class="color-shadow"
            d="M528,481.43a4.59,4.59,0,0,1,.46,1.43c0,2.93-.12,5.87-.19,8.8,0,.19,0,.39,0,.63l8.62-.4c.18-.47.36-.92.54-1.37.05.82.16,1.63.13,2.45a1,1,0,0,1-.63.64c-.72.17-1.48.22-2.22.32a6,6,0,0,0-1.23-.25c-1.76,0-3.52,0-5.27,0-1.39,0-1.75-.42-1.67-1.58q.15-2,.24-4.05c0-.6,0-1.2,0-1.8.07-.31.13-.63.19-.94l0-.51.12-.94c.13-.33.27-.66.39-1S527.79,481.9,528,481.43Z" />
        <path class="color-shadow-dark"
            d="M526.54,409.9c-1.94-.72-3.92-1.33-5.79-2.19a45.33,45.33,0,0,0-13.49-3.34,2.27,2.27,0,0,1-.67-.35c3.35.4,6.7.72,10,1.22,1.87.29,3.7.86,5.55,1.3A6,6,0,0,1,526.54,409.9Z" />
        <path class="color-shadow-dark"
            d="M526.75,486.22c0,.6,0,1.2,0,1.8q-.09,2-.24,4.05c-.08,1.16.28,1.55,1.67,1.58,1.75.05,3.51,0,5.27,0a6,6,0,0,1,1.23.25c-2.06.37-4.13.71-6.19,1.14a9.57,9.57,0,0,0-2.24.82c-.77.37-1.18.09-1.3-.63a5.78,5.78,0,0,1-.15-2.29C525.38,490.7,526.09,488.47,526.75,486.22Z" />
        <path class="transparent" d="M515.34,508.21l4.18-7.69.42.23-4.2,7.73Z" />
        <path class="color-shadow-dark"
            d="M528,481.43c-.16.47-.31.94-.47,1.4s-.26.67-.39,1l-.58-1.21c0-.4,0-.8,0-1.2l.89-.71Z" />
        <path class="transparent" d="M506.29,509a2.17,2.17,0,0,1,2.51-1.2c.22.05.34.52.59,1Z" />
        <path class="color-shadow-dark" d="M522.14,405.38l2,1.12Z" />
        <path class="color-shadow-dark" d="M527,484.77l0,.51Z" />
        <path class="color-shadow"
            d="M278.6,199.9c.16,1.53.43,3,.46,4.58.07,3.92.17,7.85,0,11.76s-.74,7.66-1.11,11.49c-.2,2.06-.4,4.11-.51,6.18-.2,3.61-.24,7.24-.52,10.85-.37,4.75-.91,9.48-1.38,14.22-.25,2.49-.42,5-.77,7.47-.69,4.83-1.35,9.67-2.26,14.46-1.11,5.93-2.51,11.8-3.67,17.72-.58,2.92-.88,5.89-1.35,9.09a35.09,35.09,0,0,1-4.06-.62q-9.11-2.43-18.18-5c-4-1.13-7.95-2.29-11.88-3.6-3.66-1.22-7.28-2.59-10.87-4q-8.35-3.37-16.64-6.95a104.35,104.35,0,0,1-9.5-4.49,43.5,43.5,0,0,1-5.74-4.26,13.61,13.61,0,0,0-7.1-2.79,39.93,39.93,0,0,1-13.59-3.87,42.93,42.93,0,0,1-5.21-3.57c-2.24-1.59-4.54-3.11-6.69-4.8a38.42,38.42,0,0,1-8.93-10.51,48.16,48.16,0,0,1-5.39-13.47,8.21,8.21,0,0,0-5.93-6.11c-.34-.11-.67-.26-1-.38.54-2.11,2.34-3.11,4.42-1.56a32.36,32.36,0,0,1,9.88,11.18c2.28,4.43,4.52,8.9,7,13.21,2,3.44,4.09,6.92,7.52,9.17a21.5,21.5,0,0,0,5.8,2.72,113.2,113.2,0,0,1,15.68,5.76c3.83,1.77,7.81,3.23,11.69,4.89,2.09.89,4.09,2,6.18,2.86,2.7,1.15,5.43,2.27,8.2,3.26,3.26,1.16,6.55,2.29,9.89,3.2,6.75,1.85,13.55,3.52,20.31,5.33,5.49,1.46,10.95,3,16.43,4.54.36.1.74.18,1.16.28,1.18-4.92,2.33-9.71,3.49-14.49,1.21-5,2.55-10,3.63-15.07q2.43-11.3,4.54-22.66c.93-5,1.68-10.09,2.37-15.16.53-3.9.8-7.82,1.26-11.73.39-3.3.94-6.59,1.35-9.9.25-2,.35-4,.56-5.93C278.25,202.07,278.44,201,278.6,199.9Z" />
        <path class="color-shadow"
            d="M113.48,215a13.48,13.48,0,0,1-.4-2.65c0-.31.66-.75,1.1-.88,3-.92,6-1.86,9-2.62,4.35-1.08,8.72-2.05,13.1-3,5.63-1.22,11.27-2.34,16.89-3.57,3.18-.7,6.3-1.66,9.5-2.24s6.22-.75,9.33-1.1a22.5,22.5,0,0,1-2.3.92c-4.82,1.35-9.66,2.61-14.47,4-3.82,1.09-7.62,2.28-11.41,3.47-3.11,1-6.18,2.11-9.31,3-5.62,1.6-11.25,3.14-16.91,4.57A18.66,18.66,0,0,1,113.48,215Z" />
        <path class="color-shadow-dark"
            d="M188.34,236.87c-.14-.12-.37-.21-.41-.36-1.62-6-3.22-12.06-4.84-18.1-1.07-4-2.23-7.91-4.78-11.26-1-1.3-2.07-2.53-3-3.87a1.86,1.86,0,0,1-.07-1.58,1.41,1.41,0,0,1,1.92-.74,12,12,0,0,1,4.43,3.75c.08.11,0,.31.05.47l-2-1.68-.29.27.72,1.14a41.45,41.45,0,0,1,2.8,4.45,57.29,57.29,0,0,1,4.93,18.44C188.16,230.81,188.19,233.85,188.34,236.87Z" />
        <path class="outline"
            d="M188.34,236.87c-.15-3-.18-6.06-.49-9.07a57.29,57.29,0,0,0-4.93-18.44,41.45,41.45,0,0,0-2.8-4.45l-.72-1.14.29-.27,2,1.68c4.33,5.46,6.06,11.93,6.85,18.64.58,4.84.56,9.76.76,14.64a53.81,53.81,0,0,1,0,5.82c-.19,2.75-.55,5.48-.83,8.23-.12,1.11-.23,2.23-.35,3.34l-.37,0a22.85,22.85,0,0,0,.42-2.82C188.23,247.62,188.28,242.25,188.34,236.87Z" />
        <path class="color-shadow" d="M172.76,199h0Z" />
        <path class="color-shadow" d="M191.48,198.46h0Z" />
        <path class="color-shadow"
            d="M58,222.51c1.66-.52,3.15-1.08,4.67-1.45,3.46-.86,6.94-1.64,10.42-2.44,2.63-.6,5.25-1.26,7.9-1.73,2.34-.42,4.72-.62,7.08-.9,2.91-.36,5.84-.61,8.74-1.06,3.28-.52,6.54-1.2,9.82-1.8,1.37-.25,1.66.18,1.63,1.56a40.26,40.26,0,0,0,.29,5.48c.38,3.22,1,6.42,1.31,9.65.22,2.23-.82,3.16-2.77,2.88a10.09,10.09,0,0,0-5.54.93,5.33,5.33,0,0,1-4.6,0,19.51,19.51,0,0,0-8.58-1.73c-3,0-6,.43-9,.73-4.57.46-8.3,2.76-11.87,5.45a6.66,6.66,0,0,1-2.43.87c-.2,0-.68-.36-.77-.65a25.39,25.39,0,0,1-.71-2.89c-.78-4-2.67-7.63-4.66-11.18C58.62,223.7,58.35,223.18,58,222.51Zm6.95,15.18c.53-.3.78-.42,1-.57s.49-.41.74-.61A31.51,31.51,0,0,1,74.78,232c2.79-1.06,5.71-1,8.59-1.17,1.43-.1,2.87-.12,4.28-.32a16.78,16.78,0,0,1,8.3,1.05c1.59.59,3.1,1.44,4.9.53a8.35,8.35,0,0,1,2.61-.76c1.36-.21,2.75-.26,4-.38-.3-5.23-.58-10.44-.86-15.4-3.45.45-7.06.95-10.66,1.4-3.27.41-6.55.72-9.81,1.18s-6.69.9-10,1.62c-3.52.78-7,1.84-10.46,2.81-1.67.47-3.31,1-5.12,1.55C63.42,228.18,65.48,232.39,64.94,237.69Z" />
        <path class="color-base"
            d="M64.94,237.69c.54-5.3-1.52-9.51-4.33-13.55,1.81-.55,3.45-1.08,5.12-1.55,3.48-1,6.94-2,10.46-2.81,3.29-.72,6.64-1.16,10-1.62s6.54-.77,9.81-1.18c3.6-.45,7.21-.95,10.66-1.4.28,5,.56,10.17.86,15.4-1.29.12-2.68.17-4,.38a8.35,8.35,0,0,0-2.61.76c-1.8.91-3.31.06-4.9-.53a16.78,16.78,0,0,0-8.3-1.05c-1.41.2-2.85.22-4.28.32-2.88.21-5.8.11-8.59,1.17a31.51,31.51,0,0,0-8.11,4.48c-.25.2-.48.42-.74.61S65.47,237.39,64.94,237.69Z" />
    </g>
</svg>
