<svg id="manshety" xmlns="http://www.w3.org/2000/svg" viewBox="0 0 672 960">
    <g id="img_42_img" data-name="img 42 img">
        <path class="outline"
            d="M35.6,241.83l1.26-3.94.21-.61c.87-2.36,1.66-4.76,2.65-7.07a3.82,3.82,0,0,1,1.75-1.8c3.64-1.63,7.35-3.1,11-4.68a18.33,18.33,0,0,0,6.88-4.68c1.51-1.76,3.61-1.71,5.63-1.81,6.31-.3,12.63-.54,19-.8,1,0,2.07-.11,3.1-.1a2.86,2.86,0,0,0,2.69-1.81,2.52,2.52,0,0,1,1.31-1.17c2.08-.56,4.21-.91,6.29-1.49a4.24,4.24,0,0,1,3.54.5c2.05,1.25,2.76,1,3.72-1.23a4.08,4.08,0,0,1,2.83-2.48c3.27-1,6.53-2.06,9.74-3.23a13.73,13.73,0,0,1,5.13-1c3.47.11,6.62-1.26,9.87-2.16,9-2.47,18-5,27-7.4a33.93,33.93,0,0,1,6.61-.9c3.79-.21,7.58-.25,11.38-.31,2.71,0,5.42,0,8.13,0,4.14-.08,8.27-.24,12.41-.34,2,0,4-.1,6-.08,4.08,0,8.15.24,12.22.21,4.25,0,8.5-.29,12.75-.41,3.61-.1,7.21-.14,10.82-.24,3.77-.1,7.53-.22,11.3-.35,2.45-.09,4.91-.15,7.36-.32,3.17-.21,6.33-.52,9.49-.78,2.73-.22,5.47-.41,8.2-.67,1.52-.15,3-.4,4.56-.6.18,0,.37,0,.28,0,0,4.34,0,8.56,0,12.78,0,.4-.06.8-.07,1.19-.09,5.72-.07,11.43-.28,17.14-.16,4.49-.62,9-.92,13.46-.19,2.94-.3,5.89-.49,8.83q-.45,7-.95,13.95c-.23,3.25-.45,6.5-.75,9.74-.35,3.88-.8,7.74-1.16,11.61-.28,3-.45,5.94-.74,8.91-.35,3.55-.78,7.09-1.15,10.64-.27,2.48-.5,5-.76,7.44-.34,3.2-.65,6.4-1.06,9.59-.06.52-.59,1-1.08,1.48-.25-1.25-1-1.27-2-1.34a53.21,53.21,0,0,1-13.86-3.26c-8.89-3.15-17.87-6.1-26.58-9.69-7.54-3.11-15.18-5.82-22.93-8.3a58.48,58.48,0,0,1-17.66-9.74A15.32,15.32,0,0,0,178,281.45a24.91,24.91,0,0,1-19.5-8.19,12.88,12.88,0,0,0-2.56-2.34,21.48,21.48,0,0,1-9.62-13.1,56.21,56.21,0,0,0-2.93-7.08,1.32,1.32,0,0,0-2-.75c-.57.27-1.16.53-1.75.78a4,4,0,0,1-4.8-1,10.86,10.86,0,0,1-1.58-2.11,10.84,10.84,0,0,0-4-4,32,32,0,0,1-3.1-2.05,5.87,5.87,0,0,0-5.9-.75A24.82,24.82,0,0,1,112,242a6.9,6.9,0,0,1-3.16-.9c-1.58-.8-2.43-.83-3.4.59a6.31,6.31,0,0,1-4.52,2.61c-1.94.31-3.88.56-5.82.82s-2.49-.3-2.24-2.2a2,2,0,0,0-.08-.52c-1.62.46-3.17,1-4.74,1.32-2.53.59-5.13.93-7.6,1.69a74.62,74.62,0,0,0-7.53,3c-2.42,1.05-4.78,2.25-7.18,3.35A16.15,16.15,0,0,1,57.63,253a2.61,2.61,0,0,1-2.29-2.16,3,3,0,0,1,.9-3.48c2-1.55,4.12-3,6.22-4.48,1.74-1.21,3.57-2.28,5.3-3.51A30.83,30.83,0,0,0,70.35,237,8.25,8.25,0,0,0,69,235.51a2,2,0,0,0-1.39-.21c-1.29.22-2.58.5-3.85.85a2.42,2.42,0,0,0-1.37.8c-1.47,2.49-3.81,4-6.12,5.51a39.59,39.59,0,0,1-5.49,2.84,2.13,2.13,0,0,1-1.92-.17,1.66,1.66,0,0,1,.19-2.28c1.49-1.77,3-3.55,4.42-5.33l-.2-.33c-.62.32-1.26.61-1.86.95s-1.31.78-2,1.17L48,242.17l-.43.88-.74,1.54c-.86,1.37-1.65,2.8-2.61,4.09-.37.5-1.12.71-1.7,1l-.55.12-1.86-.23-.83.12,0,0-.65.74-1.44,1.24-.51.39a29.48,29.48,0,0,1-3.57,1.22,2,2,0,0,1-1.71-.58,2.1,2.1,0,0,1,.05-1.73c.89-2,1.91-3.92,2.85-5.89a13.19,13.19,0,0,0,.54-1.57l.33-.56.23-.6Zm68.54-26.1-.24-1.6-1.41.41.31,1.2c.33,1.92.73,3.83,1,5.76.79,5.67,1.54,11.35,2.31,17v1.16c1.1-.14,1.1-.14.9-1.14a7.61,7.61,0,0,1-.25-1.49C106.83,229.83,105.26,222.81,104.14,215.73Zm-9.4,2.89-2.67.42,1.36,3.52c.08-.09-.16.05-.15.18.11,1.3.23,2.6.41,3.9,0,.15.42.34.65.35a11.37,11.37,0,0,0,1.42-.08l-2,1v3l2.5-.33.06.32-.89.4c-.56.54-1.61,1.1-1.59,1.62a60.6,60.6,0,0,0,.74,6.11l1.72-.2c-.46.67-1.18,1.27-1.29,2a2.2,2.2,0,0,0,1,1.68c.28.19,1-.36,1.59-.58l1.17-.31-.88,1c1.28.09,2.39.26,3.49.24,1.65,0,3.61-1.62,3.57-2.82,0-.83-.12-1.66-.19-2.49,0-.64,0-1.28-.08-1.91-.35-2.61-.73-5.21-1.11-7.82-.48-3.31-1-6.63-1.45-9.94l-.41-2.41a2.49,2.49,0,0,0-3.27-2.26c-1.94.61-3.85,1.31-5.75,2a1.3,1.3,0,0,0-.67.93c-.16,1.4.19,1.77,1.62,2l1.06.2A.38.38,0,0,1,94.74,218.62Zm11.08-4.25c1.92-1.63,2.71-1.88,3.72-1.13-2.21.11-4.25,2-4.18,3.95a43.08,43.08,0,0,0,.74,4.57,3.51,3.51,0,0,1,.25,1.34c-.21,1.21.33,1.55,1.42,1.53a6.28,6.28,0,0,1,1.26.26l0,.15-2.43.23,1,7,1.39.09,0,.15-1.38.46c.09,2,.09,2,1.92,2.49.49.14,1,.2,1.51.29l.39.27,0,.25-3.74-.65.48,2.95a1.22,1.22,0,0,0,1,1.58,10.77,10.77,0,0,0,2.46.26,18.92,18.92,0,0,0,3.44-.42c2.16-.5,4.32-1,6.42-1.71a2.76,2.76,0,0,1,2.69.18,39,39,0,0,0,4.05,2.75c2.7,1.46,5.27,3,6.9,5.74a2.41,2.41,0,0,0,.41.44,1.66,1.66,0,0,0,2.06.4c1.51-.61,3-1.17,4.6-1.77-.27-1.25-.55-2.58-.87-3.89-.62-2.6-.86-5.41-3.65-7,.31-.15.65-.29.82-.18.8.54,1.85,1,2.28,1.76a39.62,39.62,0,0,1,2.85,6.3c1,2.79,1.56,5.69,2.41,8.51s1.73,5.57,2.74,8.3a13.37,13.37,0,0,0,2.2,4.34,81.92,81.92,0,0,0,6,5.59c4.27,3.91,9.53,5.91,14.92,7.61a15.33,15.33,0,0,0,4.59.76,19.58,19.58,0,0,1,13.93,5.3,43.81,43.81,0,0,0,16.76,9.3c7.82,2.44,15.51,5.18,23.13,8.22,6.45,2.56,13.16,4.44,19.71,6.77,5.38,1.91,10.7,4,16.37,4.91,1.54.26,3.12.33,4.76.5.6-5.39,1.17-10.5,1.72-15.61Q274,287.34,275,277.16c.66-6.43,1.37-12.85,2-19.29.69-7.63,1.41-15.26,1.88-22.91.49-7.93.74-15.87,1-23.81.12-3.58.07-7.18,0-10.77,0-2.92-.22-5.85-.33-8.76l-4.33.35c-7,.53-13.9,1.17-20.86,1.58-6.49.38-13,.5-19.5.78-3.26.14-6.53.36-9.79.54l-1.66.08c-4.35-.06-8.71-.18-13.07-.15-8.26,0-16.52.19-24.78.3-5.63.08-11.26.05-16.88.31a48.47,48.47,0,0,0-9.22,1.25c-4.15,1-8.19,2.46-12.28,3.69-4.43,1.34-8.85,2.76-13.33,3.9a40.57,40.57,0,0,1-9.08,1.44c-2.57.06-5.25.29-7.53,1.88a10.43,10.43,0,0,1-2.8,1.55,17,17,0,0,1-4.66.82c-2.65,0-4.12.7-5,3.15-.19.48.16,1.16.26,1.75ZM69.09,221l0,.26c-.75.14-1.49.32-2.24.42a51.64,51.64,0,0,0-10.23,1.89c-4.84,1.63-9.87,2.74-14.33,5.38a3.84,3.84,0,0,0-1.58,1.51c-1.72,4.22-3.34,8.48-5,12.72a2.07,2.07,0,0,0-.09.7c0,1.18,0,2.37,0,3.55h-.43l-.32-1.41c-.88,1.93-2.21,3.66-2.3,5.88a7.7,7.7,0,0,0,5.53-2.74,31.4,31.4,0,0,0,5.91-9.1,10,10,0,0,1,3.48-4.35A27,27,0,0,1,58,231.82c3-.55,6-1,8.92-1.8a11.6,11.6,0,0,1,6.11.34c.22.06.37.32.78.68-1.34.16-2.4.26-3.45.42-.85.12-1.7,1.08-1.43,1.73.45,1.07,1.07,2.07,1.54,3,1-.85,1.8-1.53,2.58-2.27s1.53-1.52,2.31-2.27,1.42-1.32,2.14-2l.29.3c-2,2.29-3.89,4.61-5.89,6.87a15.79,15.79,0,0,1-2.59,2.31c-3.9,2.76-7.85,5.44-11.78,8.18a5.59,5.59,0,0,0-.82.86c2.72-.72,5.2-2.83,8.32-.51-1-.12-1.89-.48-2.49-.23a37.2,37.2,0,0,0-4.7,2.51c-.37.22-.5.84-.74,1.28a5.18,5.18,0,0,0,1.38.59,12.19,12.19,0,0,0,7.1-1c2.34-1.2,4.78-2.21,7.2-3.26,2.11-.92,4.21-1.85,6.37-2.62,1.23-.44,2.59-.52,3.87-.85,3-.77,6-1.58,9-2.39a1.15,1.15,0,0,0,.89-1.55,31.65,31.65,0,0,1-.69-3.15c-.31-2.66-.56-5.33-.8-8-.17-2-.26-3.91-.46-5.85s-.49-4.1-.75-6.19l-5.43.31c-5,.25-10,.47-15.06.76-2.07.12-4.14.35-6.19.63-1.76.24-3,1.54-4.41,2.37ZM49.54,244.59l.38.3c4-1.55,7.72-3.6,10.34-7.22A16.66,16.66,0,0,1,61.58,236c1.23-1.33,2.93-1.69,4.6-2.11s1.9-.67,1.8-2.23a2.22,2.22,0,0,0-.45,0c-3.46.67-7.06.94-10,3.14a9.81,9.81,0,0,0-1.78,1.55c-1.91,2.35-3.75,4.75-5.6,7.15A6.58,6.58,0,0,0,49.54,244.59Zm7.1-11a15.23,15.23,0,0,0-8.66,3,7.76,7.76,0,0,0-3,3.89,18.13,18.13,0,0,1-1.37,2.93c-.92,1.62-1.91,3.19-2.88,4.8a3.49,3.49,0,0,0,4-1.9,33.11,33.11,0,0,0,2-3.83,10.22,10.22,0,0,1,4.59-5.16C53.14,236.19,54.85,234.81,56.64,233.57Zm48.6-18.48s0-.06-.07-.06,0,0-.07.07l.11.06Zm-46.39,6-.09.09c.06,0,.11.06.16.07s.06-.05.08-.07Z" />
        <path class="outline"
            d="M479.57,327c-.66-3.35-1.36-6.7-2-10.06-.5-2.7-.91-5.43-1.39-8.14-.4-2.23-.9-4.44-1.27-6.68a33.09,33.09,0,0,1-.46-4.55c-.07-3.25,0-6.5,0-9.48l.56,1.16c.19-1.11.36-1.93.44-2.75.25-2.35.41-4.7.69-7.05s.67-4.58,1-6.88c.18-1.3.39-2.61.45-3.92a1.71,1.71,0,0,1,1.07-1.51c4-2.22,8-4.56,12.11-6.61,5.15-2.56,10.43-4.86,15.64-7.29,2.75-1.28,5.5-2.57,8.22-3.9,2.57-1.26,3.09-1.08,4.15,1.48,1.7,4,3.58,8,5.14,12.13,2.34,6.16,4.86,12.3,6.62,18.64,2.63,9.42,4,19.12,5.38,28.79.63,4.41,1.41,8.79,2.14,13.18.57,3.4,1.15,6.81,1.76,10.21s1.29,6.65,1.82,10a89.51,89.51,0,0,1,.9,17.62q-.28,8-.67,16c-.13,2.82-.36,5.64-.56,8.46-.32,4.59,1,8.91,2.09,13.29.8,3.06,2.59,5.56,4,8.3,2,4.11,1.83,8-.93,11.71-1.09,1.47-2.25,2.9-3.37,4.35-.61.79-1.18,1.61-1.8,2.4-1.68,2.15-1.79,4.46-1,7a11.47,11.47,0,0,1,.29,3.66c-.12,3.07-.42,6.13-.53,9.2-.1,2.87.06,5.75-.12,8.62a6.69,6.69,0,0,1-1.26,3c-.9,1.36-.9,1.78.07,3.06a5.79,5.79,0,0,1,1.26,2.63,37.64,37.64,0,0,1,.17,6.19c-.08,1.58-.62,1.92-2.23,2.1-1.3.14-2.6.32-3.94.49.27,2.59.45,5.1.8,7.58.73,5.14,1.38,10.29,2.42,15.37a9.71,9.71,0,0,1-1.2,6.52c-2.3,4.78-4.69,9.52-7,14.28a11.87,11.87,0,0,1-3.25,3.74,89.33,89.33,0,0,0-6.77,6.43c-1.47,1.51-2.75,3.2-4.1,4.83a1.55,1.55,0,0,1-2.81-.3c-.86-1.64-.48-3.25,0-4.85.29-.94.67-1.85,1.11-3.07a12,12,0,0,0-1.18.54c-1.41.89-2.78,1.83-4.2,2.7-2.13,1.3-3.19-.48-3.28-2.09-.14-2.52,1.17-4.42,3-6,.8-.7,1.72-1.28,2.71-2l-4-1.3c-.4-.14-.81-.28-1.21-.45-2.31-1-1.92-2.36-.32-3.91a2.77,2.77,0,0,0,.83-1.33c.21-.65,1-1.57,1.54-1.58,2.11,0,2.46-1.1,2.82-2.94.82-4.12,2.13-8.14,3.09-12.24.72-3.11,1.84-6.19,1.59-9.45a46.65,46.65,0,0,0-1-5.18,4.12,4.12,0,0,1-.15-.91c0-.81-.24-1.18-1.11-1.08a1.86,1.86,0,0,1-2.16-1.33c-.7-2.19-1.73-4.32-1.34-6.71a14.57,14.57,0,0,1,.8-3,1.72,1.72,0,0,0-.47-2.24,7.36,7.36,0,0,1-2.65-5.53c-.71-7-1.53-13.91-2.37-20.85a4.31,4.31,0,0,0-1-2.08,5.41,5.41,0,0,1-1.27-3.39c-.15-2.27-.61-4.52-.69-6.78-.15-4.11-.07-8.23-.18-12.34-.06-2.07-.33-4.14-.5-6.21a5.06,5.06,0,0,0-1.87-3.6,14.38,14.38,0,0,1-4.44-7c-1.16-3.86-2.7-7.61-3.83-11.48-.83-2.88-1.28-5.87-1.87-8.82s-1.17-5.78-1.71-8.68c-.58-3.15-1.08-6.33-1.68-9.48s-1.3-6.16-1.92-9.25a16.52,16.52,0,0,1-.21-2c.2.22.53.41.6.66.37,1.31.68,2.64,1,4,.86,3.72,1.77,7.44,2.55,11.17,1,4.87,1.88,9.78,2.94,14.64.8,3.69,1.64,7.39,2.75,11a49.08,49.08,0,0,0,3,6.64,22.43,22.43,0,0,0,2.37,4.27c1.91,2.43,4,4.62,7.48,4.83a48.2,48.2,0,0,1,14.24,2.8l2.34,1,2,1.12a9.57,9.57,0,0,1,1.78,1.49,6.31,6.31,0,0,1,.63,1.91,6,6,0,0,0-4.36-3.36c-1.85-.44-3.68-1-5.55-1.3-3.33-.5-6.69-.82-10-1.22l-1.41,0-2.44-.36a5.66,5.66,0,0,0,0,.94,40.39,40.39,0,0,1,.51,10.59,77.59,77.59,0,0,0-.37,14c.13,1.25.07,2.44,1.1,3.4a2.91,2.91,0,0,1,.59,1.41c.37,1.67.78,3.34,1,5,.68,4.73,1.27,9.48,1.93,14.21.26,1.9.48,3.81.91,5.66s1.53,2.34,2.95,1.92l1.43-.25-.68-2.13a13.32,13.32,0,0,0,1,1.12c.34.32.75.81,1.11.79,2.12-.11,4.25-.35,6.33-.54-.43-1.64-.81-3.12-1.2-4.6a17.38,17.38,0,0,1,1.38,3.1c.38,1,1,1.55,2.15,1.27a24.34,24.34,0,0,1,3.32-.47c1.19-.09,2.15-.42,2.47-1.72,0,0,.11,0,.24,0-.06.43-.11.83-.16,1.3a22,22,0,0,1,3.7-.47,2.6,2.6,0,0,0,2.9-1.86,3.71,3.71,0,0,1,.26-.53c0,.61,0,1.22-.08,1.83a1.62,1.62,0,0,1-.1.18h.27a4.17,4.17,0,0,0,3.09-4.71,11.76,11.76,0,0,1,0-1.68c.07-3.63.18-7.27.22-10.9,0-1.43-.09-2.87-.16-4.3a20.8,20.8,0,0,0-.23-3.06c-.68-3.45-.7-6.73,1.93-9.51a16.19,16.19,0,0,0,1.7-2c1.43-2.07,3.2-4,4.09-6.3,1.38-3.56-.24-6.68-2.59-9.44a10.83,10.83,0,0,1-2-2.94,39.14,39.14,0,0,1-2.89-14.24c0-2.22.43-4.44.58-6.67.43-6.65.91-13.3,1.19-20a90.39,90.39,0,0,0-1.55-22.38c-1-4.91-1.9-9.85-2.74-14.8-1-6-1.92-12-2.83-18-1.4-9.25-3-18.48-6.19-27.29-3.44-9.59-7.47-19-11.23-28.43-.3-.75-.72-.83-1.4-.53-6.78,2.95-13.64,5.72-20.32,8.87-4.4,2.07-8.57,4.63-12.78,7.09a7.28,7.28,0,0,0-3.59,6c-.39,4.48-.69,9-1.28,13.44a67.64,67.64,0,0,0-.35,17.75c.37,2.86.72,5.72,1.12,8.58.37,2.68.79,5.35,1.17,8C479,322.63,479.27,324.84,479.57,327Zm34,134.49-1.86.29c.2,1.26.77,1.64,1.87,1.06a9.75,9.75,0,0,0,1.08,0L534.19,460c1.51,0,1.58,0,1.27-1.41l-1.5.26c-.63,0-1.27.05-1.9.14-2.82.42-5.63.91-8.46,1.29C520.27,460.77,516.92,461.13,513.57,461.53ZM536.32,468l0-1.88,1.08,3.53c.64.15,1.1,0,1.11-1,0-1.47.22-2.95.21-4.42a3.32,3.32,0,0,0-4.09-3.35c-1.51.18-3,.34-4.51.56-2.84.43-5.67.9-8.5,1.36l-8.13,1.33c-2.06.22-2.75.76-3.2,2.59s.18,3.46.88,5.08c0,0,.13,0,.27.05l.27-.86c1.16,2.49,1.16,2.49,2.67,2.22-.14-.7-.29-1.39-.43-2.08l.14-1.16.16,0,.28,1.13c.84,2.24,1.38,2.39,4.42,1.24l-.42-1.95.11-.46.4.47c.6,1.76,1.14,2.23,2,1.66a5.36,5.36,0,0,0,1.1-1.41l.34,1.21,5-.73c1.58-.24,1.81-.51,1.81-2.19l.25-.2.44,1.92,4.65-.7C536.33,469.69,536.38,469.63,536.32,468ZM516,526.68l.17.15a6,6,0,0,0,.51-.37q4.8-4.31,9.6-8.64a4.66,4.66,0,0,0,1.14-1.37c2.89-6,5.77-11.92,8.58-17.92a3.1,3.1,0,0,0,.12-2.06c-1.41-4.62-1.59-9.42-2.11-14.17-.33-3-.54-6.11-.72-9.17-.06-1-.49-1.17-1.37-1-4.54.68-9.09,1.32-13.63,2-.7.1-1.39.29-2.18.46.08,1.74.17,3.36.22,5,.15,4.29-1.24,8.31-2.19,12.41-1.36,5.88-2.84,11.73-4.2,17.61A5.51,5.51,0,0,0,510,512c.25,1.06.93,1.22,1.56.36a9.28,9.28,0,0,0,1.61-2.91,4.61,4.61,0,0,0-.3-2.83c-.18-.42-1.22-.47-1.83-.68,1-1.37,2.23-.92,3.45,1.46l.72-1.12c2.11-3.34,4.16-6.72,6.36-10a14,14,0,0,0,1.77-3.72c1.23-4,2.62-7.95,3.92-11.92.39-1.19.72-2.41,1.07-3.61l.46.09a14.12,14.12,0,0,1-.33,2.36c-1.26,4.19-2.6,8.36-3.88,12.54a3,3,0,0,0-.08,1.37c.36,1.87.93,3.71,1.13,5.6.18,1.69.71,3.37-.09,5.14-1.17,2.58-2,5.29-3.11,7.9a11.57,11.57,0,0,1-1.63,2.6c-1.92,2.43-4,4.73-5.82,7.24a11.52,11.52,0,0,0-1.62,3.94,9,9,0,0,0,0,3.14c0,.26.62.46,1,.69a3.52,3.52,0,0,0,.29-1,4.15,4.15,0,0,1,2.5-3.82Zm7.48-29.32-.32-.05a34.49,34.49,0,0,1-.59,3.95c-.78,2.83-1.67,5.63-2.56,8.42a7,7,0,0,1-5.19,5.2,17.13,17.13,0,0,0-7.42,4.23c-1.65,1.57-2.05,3.1-1.39,4.79.37,1,.89,1.14,1.7.64q3.78-2.31,7.55-4.63a3.46,3.46,0,0,0,.5-.51c1.61-1.76,3.23-3.51,4.82-5.29a5.44,5.44,0,0,0,1-1.55c1.15-3,2.25-6,3.36-9.07a1.65,1.65,0,0,0,.14-.91C524.56,500.83,524,499.09,523.44,497.36Zm-1.37-.81c-.19.64-.26,1-.37,1.27a43.1,43.1,0,0,1-1.54,4.21c-.84,1.76-1.9,3.41-2.81,5.13-.51,1-1,1.89-2.15,2.23-.37.11-.66.62-.9,1-.67,1.07-1.23,2.23-2,3.26-.58.8-1.35.77-2.17.11-1.19-1-1.32-2.29-1.36-3.66-2.7-.41-4.16.28-4.45,2.31,1.62.6,3.31,1.18,5,1.86a5,5,0,0,0,4.64-.19,18.33,18.33,0,0,1,2.6-.83,2.38,2.38,0,0,0,1.21-.84c.72-1.32,1.34-2.7,2-4.08A23.2,23.2,0,0,0,522.07,496.55Zm-6.72,11.63.41.27q2.1-3.85,4.19-7.71l-.42-.23Zm-6,.55c-.23-.4-.34-.87-.6-1a1.78,1.78,0,0,0-2.17,1.25ZM515,475l-.43-.1c-.79.69,0,1.51.23,2.28C514.87,476.47,514.94,475.75,515,475Zm-3.55-2.61.06,0v-.09Z" />
        <path class="color-shadow-dark"
            d="M519.8,404.38a48.2,48.2,0,0,0-14.24-2.8c-3.44-.21-5.57-2.4-7.48-4.83a22.43,22.43,0,0,1-2.37-4.27,49.08,49.08,0,0,1-3-6.64c-1.11-3.6-1.95-7.3-2.75-11-1.06-4.86-1.91-9.77-2.94-14.64-.78-3.73-1.69-7.45-2.55-11.17-.31-1.33-.62-2.66-1-4-.07-.25-.4-.44-.6-.66-.2-1.21-.38-2.43-.58-3.65-.15-.88-.3-1.76-.48-2.63-.71-3.39-1.44-6.78-2.15-10.17-.06-.3-.09-.61-.14-.92-.3-2.2-.59-4.41-.9-6.61-.38-2.67-.8-5.34-1.17-8-.4-2.86-.75-5.72-1.12-8.58a67.64,67.64,0,0,1,.35-17.75c.59-4.46.89-9,1.28-13.44a7.28,7.28,0,0,1,3.59-6c4.21-2.46,8.38-5,12.78-7.09,6.68-3.15,13.54-5.92,20.32-8.87.68-.3,1.1-.22,1.4.53,3.76,9.47,7.79,18.84,11.23,28.43,3.15,8.81,4.79,18,6.19,27.29.91,6,1.83,12,2.83,18,.84,4.95,1.71,9.89,2.74,14.8a90.39,90.39,0,0,1,1.55,22.38c-.28,6.66-.76,13.31-1.19,20-.15,2.23-.56,4.45-.58,6.67a39.14,39.14,0,0,0,2.89,14.24,10.83,10.83,0,0,0,2,2.94c2.35,2.76,4,5.88,2.59,9.44-.89,2.29-2.66,4.23-4.09,6.3a16.19,16.19,0,0,1-1.7,2c-2.63,2.78-2.61,6.06-1.93,9.51a20.8,20.8,0,0,1,.23,3.06c.07,1.43.18,2.87.16,4.3,0,3.63-.15,7.27-.22,10.9a11.76,11.76,0,0,0,0,1.68,4.17,4.17,0,0,1-3.09,4.71l-.17-.18.08-1.83c.16-1.17.33-2.34.47-3.52.06-.55,0-1.11.09-1.67a53.71,53.71,0,0,0,.6-5.92c0-3.1-.25-6.2-.44-9.3-.21-3.33-.44-6.66-.77-10a2,2,0,0,0-1.07-1.49,10,10,0,0,0-5.86.35,19.83,19.83,0,0,1-6.88,1.25,5.39,5.39,0,0,1-1.42-.36c.28-.52.55-1,.83-1.55a5,5,0,0,0,1.22,0c3.21-.95,6.4-2,9.62-2.9,2.78-.78,5.55-1.83,8.55-.85.29.09.82-.51,1.25-.79A5,5,0,0,0,541,418a2.1,2.1,0,0,0-1.05-.13c-3.06,0-5.86,1.05-8.7,2l-7.6,2.54c0-.11.06-.27.14-.32,4.24-2.58,8.56-5,13.46-6.15l3-.69a5.56,5.56,0,0,0,1.53,0c.34-.11.81-.54.82-.85a8.26,8.26,0,0,0-1.4-5.36c-1.1-2.37-2.23-4.74-3.31-7.13a9.68,9.68,0,0,1-1-2.66c-.47-3.65-1-7.31-1.14-11-.09-1.85.56-3.74.77-5.62.55-4.84,1.15-9.68,1.53-14.54.21-2.65,0-5.34,0-8,0-.32,0-.64,0-1-.08-.72-.15-1.44-.23-2.16v-1.2c0-.47,0-1,0-1.42l-.23-1.22v-.94l-.45-.75,0-2.61-.45-.75v-.71a4,4,0,0,0,.19-1.12c-.19-1.65-.43-3.3-.67-4.95-.67-4.43-1.2-8.89-2.06-13.28a149.68,149.68,0,0,1-2.26-16.86l-1-11.88a33.65,33.65,0,0,0-2.22-10.57q-3.9-9.25-7.7-18.55c-1.48-3.61-2.87-7.25-4.28-10.89-.39-1-.68-2-1-3-.25-.7-.53-1.12-1.47-.82-3.68,1.18-7.4,2.24-11.08,3.38-5,1.57-9.56,4.2-14.18,6.62-2.69,1.4-5.47,2.7-7.37,5.2a4.33,4.33,0,0,0-.81,2c-.26,2.29-.35,4.6-.58,6.89-.25,2.53-.58,5-.89,7.56-.37,3-.76,5.9-1.13,8.85-.18,1.47-.76,2.89-.29,4.46.84,2.85,1.64,5.73,2.25,8.64q1.29,6.18,2.26,12.41c.88,5.65,1.54,11.32,2.43,17,1.48,9.34,3.45,18.58,5.61,27.79a111.67,111.67,0,0,1,2,13.28c.2,1.83.11,3.66,1.12,5.28a44.59,44.59,0,0,0,3.81,5.89,44.09,44.09,0,0,0,5.35,4.74,15.52,15.52,0,0,0,2,1.21,33,33,0,0,0,3.12,1.74c2.7,1.16,5.44,2.22,8.16,3.32.31.26.61.55.94.79C517.85,403,518.83,403.7,519.8,404.38Z" />
        <path class="color-shadow-dark" d="M48,242.17l1.43-2.86Z" />
        <path class="color-shadow-dark" d="M46.83,244.59l.74-1.54Z" />
        <path class="color-shadow-dark" d="M38.6,250.52l.65-.74Z" />
        <path class="color-shadow-dark" d="M39.28,249.74l.83-.12Z" />
        <path class="color-shadow-dark" d="M37.07,237.28l-.21.61Z" />
        <path class="color-shadow-dark" d="M42,249.85l.55-.12Z" />
        <path class="color-shadow-dark" d="M35.14,243l-.33.56Z" />
        <path class="color-shadow-dark" d="M35.6,241.83l-.23.61Z" />
        <path class="color-shadow-dark" d="M36.65,252.15l.51-.39Z" />
        <path class="color-base"
            d="M111.06,235.74c-.5-.09-1-.15-1.51-.29-1.83-.5-1.83-.51-1.92-2.49l1.38-.46,0-.15-1.39-.09-1-7L109,225l0-.15a6.28,6.28,0,0,0-1.26-.26c-1.09,0-1.63-.32-1.42-1.53a3.51,3.51,0,0,0-.25-1.34,43.08,43.08,0,0,1-.74-4.57c1.13-.16,2.26-.34,3.39-.48,1.77-.23,3.55-.35,5.3-.67,1-.18,1.88-.76,2.86-1,2.12-.51,4.32-.74,6.39-1.37,10.89-3.3,21.74-6.7,32.62-10,3.65-1.12,7.33-2.11,11-3.12,2.09-.58,4.21-1.07,6.31-1.6,2.26-.16,4.52-.39,6.78-.45,1.71,0,3.42.2,5.13.19,2.11,0,4.22-.14,6.33-.22H192c3.2-.34,6.4-.7,9.6-1,3.68-.34,7.36-.61,11-.93,2.66-.24,5.31-.46,8-.79a21.13,21.13,0,0,0,2.87-.8l1.66-.08c.19.58.16,1.32,1.06,1.35l8,.31c6.24.24,12.48.56,18.73.7,5.35.12,10.7,0,16,0a13.4,13.4,0,0,0,2,0c2.11-.33,4.22-.71,6.31-1.14.76-.16,1.07.13,1.15.79.11,1,.18,2,.26,3-.16,1.09-.35,2.17-.47,3.26-.21,2-.31,4-.56,5.93-.41,3.31-1,6.6-1.35,9.9-.46,3.91-.73,7.83-1.26,11.73-.69,5.07-1.44,10.13-2.37,15.16q-2.11,11.36-4.54,22.66c-1.08,5-2.42,10-3.63,15.07-1.16,4.78-2.31,9.57-3.49,14.49-.42-.1-.8-.18-1.16-.28-5.48-1.51-10.94-3.08-16.43-4.54-6.76-1.81-13.56-3.48-20.31-5.33-3.34-.91-6.63-2-9.89-3.2-2.77-1-5.5-2.11-8.2-3.26-2.09-.88-4.09-2-6.18-2.86-3.88-1.66-7.86-3.12-11.69-4.89A113.2,113.2,0,0,0,171.39,268a21.5,21.5,0,0,1-5.8-2.72c-3.43-2.25-5.54-5.73-7.52-9.17-2.53-4.39-4.78-8.93-7.12-13.42a32.25,32.25,0,0,0-9.77-11c-2.08-1.55-3.88-.55-4.42,1.56l-4.42-.84-.16.26a11.94,11.94,0,0,1,4.83,4.67,2.34,2.34,0,0,1-.71,0c-2.81-1.2-5.64-2.35-8.39-3.67a35,35,0,0,1-4.37-2.68,1.73,1.73,0,0,0-2.41.27,8,8,0,0,1-2.2,1.35c-2.22.87-4.49,1.61-6.72,2.44A7,7,0,0,0,111.06,235.74Zm70.59-30.56c0-.12,0-.27,0-.35A10.08,10.08,0,0,0,177,201c-.45-.18-1.36.31-1.78.76-.26.26-.15,1.1.06,1.56a12.11,12.11,0,0,0,1.25,1.74c1.25,1.79,2.79,3.45,3.66,5.41a67.59,67.59,0,0,1,3.07,9c1.61,5.58,3.07,11.2,4.6,16.81.06.22.29.39.44.59-.12,5.57-.23,11.14-.37,16.7,0,.75-.15,1.5-.22,2.25l.33,0c.12-1.12.23-2.23.35-3.35.28-2.74.64-5.48.82-8.23a55.22,55.22,0,0,0,0-6.17c-.19-4.77-.21-9.57-.76-14.3C187.73,217.09,186,210.62,181.65,205.18Z" />
        <path class="color-shadow-dark"
            d="M137,237.35a11.94,11.94,0,0,0-4.83-4.67l.16-.26,4.42.84c.33.12.66.27,1,.38a8.22,8.22,0,0,1,5.93,6.11,48.16,48.16,0,0,0,5.39,13.47A38.42,38.42,0,0,0,158,263.73c2.15,1.69,4.45,3.21,6.69,4.8a42.93,42.93,0,0,0,5.21,3.57A39.93,39.93,0,0,0,183.5,276a13.61,13.61,0,0,1,7.1,2.79,43.5,43.5,0,0,0,5.74,4.26,104.35,104.35,0,0,0,9.5,4.49q8.28,3.57,16.64,6.95c3.59,1.45,7.21,2.82,10.87,4,3.93,1.31,7.9,2.47,11.88,3.6q9.08,2.58,18.18,5a35.09,35.09,0,0,0,4.06.62c.47-3.2.77-6.17,1.35-9.09,1.16-5.92,2.56-11.79,3.67-17.72.91-4.79,1.57-9.63,2.26-14.46.35-2.48.52-5,.77-7.47.47-4.74,1-9.47,1.38-14.22.28-3.61.32-7.24.52-10.85.11-2.07.31-4.12.51-6.18.37-3.83.92-7.65,1.11-11.49s.09-7.84,0-11.76c0-1.53-.3-3-.46-4.58-.08-1-.15-2-.26-3-.08-.66-.39-.95-1.15-.79-2.09.43-4.2.81-6.31,1.14a13.4,13.4,0,0,1-2,0c-5.35,0-10.7.09-16,0-6.25-.14-12.49-.46-18.73-.7l-8-.31c-.9,0-.87-.77-1.06-1.35,3.26-.18,6.53-.4,9.79-.54,6.5-.28,13-.4,19.5-.78,7-.41,13.91-1.05,20.86-1.58l4.33-.35c.11,2.91.29,5.84.33,8.76.05,3.59.1,7.19,0,10.77-.27,7.94-.52,15.88-1,23.81-.47,7.65-1.19,15.28-1.88,22.91-.58,6.44-1.29,12.86-2,19.29q-1,10.17-2.13,20.35c-.55,5.11-1.12,10.22-1.72,15.61-1.64-.17-3.22-.24-4.76-.5-5.67-.94-11-3-16.37-4.91-6.55-2.33-13.26-4.21-19.71-6.77-7.62-3-15.31-5.78-23.13-8.22a43.81,43.81,0,0,1-16.76-9.3,19.58,19.58,0,0,0-13.93-5.3,15.33,15.33,0,0,1-4.59-.76c-5.39-1.7-10.65-3.7-14.92-7.61a81.92,81.92,0,0,1-6-5.59,13.37,13.37,0,0,1-2.2-4.34c-1-2.73-1.9-5.51-2.74-8.3s-1.45-5.72-2.41-8.51a39.62,39.62,0,0,0-2.85-6.3c-.43-.77-1.48-1.22-2.28-1.76-.17-.11-.51,0-.82.18,2.79,1.58,3,4.39,3.65,7,.32,1.31.6,2.64.87,3.89-1.57.6-3.09,1.16-4.6,1.77a1.66,1.66,0,0,1-2.06-.4,2.41,2.41,0,0,1-.41-.44c-1.63-2.73-4.2-4.28-6.9-5.74a39,39,0,0,1-4.05-2.75,2.76,2.76,0,0,0-2.69-.18c-2.1.69-4.26,1.21-6.42,1.71a18.92,18.92,0,0,1-3.44.42,10.77,10.77,0,0,1-2.46-.26,1.22,1.22,0,0,1-1-1.58,11.26,11.26,0,0,0,5.15-.49c2.93-.68,5.85-1.38,8.79-2a2.73,2.73,0,0,1,1.52.27c.83.37,1.59.89,2.41,1.29,2.5,1.22,5,2.43,7.51,3.61a7.9,7.9,0,0,0,2.83,1.06,13,13,0,0,0,3.4-.82A14.61,14.61,0,0,0,137,237.35Z" />
        <path class="transparent"
            d="M69.09,221H59.17c1.42-.83,2.65-2.13,4.41-2.37,2-.28,4.12-.51,6.19-.63,5-.29,10-.51,15.06-.76l5.43-.31c.26,2.09.54,4.13.75,6.19s.29,3.9.46,5.85c.24,2.66.49,5.33.8,8a31.65,31.65,0,0,0,.69,3.15,1.15,1.15,0,0,1-.89,1.55c-3,.81-6,1.62-9,2.39-1.28.33-2.64.41-3.87.85-2.16.77-4.26,1.7-6.37,2.62-2.42,1.05-4.86,2.06-7.2,3.26a12.19,12.19,0,0,1-7.1,1,5.18,5.18,0,0,1-1.38-.59c.24-.44.37-1.06.74-1.28a37.2,37.2,0,0,1,4.7-2.51c.6-.25,1.45.11,2.49.23-3.12-2.32-5.6-.21-8.32.51a5.59,5.59,0,0,1,.82-.86c3.93-2.74,7.88-5.42,11.78-8.18a15.79,15.79,0,0,0,2.59-2.31c2-2.26,3.93-4.58,5.89-6.87l-.29-.3c-.72.67-1.44,1.32-2.14,2s-1.52,1.54-2.31,2.27-1.61,1.42-2.58,2.27c-.47-.91-1.09-1.91-1.54-3-.27-.65.58-1.61,1.43-1.73,1-.16,2.11-.26,3.45-.42-.41-.36-.56-.62-.78-.68A11.6,11.6,0,0,0,67,230c-2.93.75-5.94,1.25-8.92,1.8a27,27,0,0,0-10.47,3.92,10,10,0,0,0-3.48,4.35,31.4,31.4,0,0,1-5.91,9.1,7.7,7.7,0,0,1-5.53,2.74c.09-2.22,1.42-4,2.3-5.88l.32,1.41h.43c0-1.18,0-2.37,0-3.55a2.07,2.07,0,0,1,.09-.7c1.64-4.24,3.26-8.5,5-12.72A3.84,3.84,0,0,1,42.34,229c4.46-2.64,9.49-3.75,14.33-5.38A51.64,51.64,0,0,1,66.9,221.7c.75-.1,1.49-.28,2.24-.42Z" />
        <path class="color-shadow-dark"
            d="M191.48,198.46c-2.11.08-4.22.21-6.33.22-1.71,0-3.42-.23-5.13-.19-2.26.06-4.52.29-6.78.45-.68,0-1.37-.05-2.05,0a57.48,57.48,0,0,0-6.15.65c-3.61.71-7.18,1.69-10.79,2.45-4.84,1-9.73,1.86-14.56,3-4.45,1-8.84,2.31-13.27,3.4-2.8.69-5.66,1.16-8.47,1.85a7.52,7.52,0,0,0-3.41,1.72,4.24,4.24,0,0,1-4.71.51,2.68,2.68,0,0,0-4,1.88l-.81.47c-.1-.59-.45-1.27-.26-1.75.92-2.45,2.39-3.16,5-3.15a17,17,0,0,0,4.66-.82,10.43,10.43,0,0,0,2.8-1.55c2.28-1.59,5-1.82,7.53-1.88a40.57,40.57,0,0,0,9.08-1.44c4.48-1.14,8.9-2.56,13.33-3.9,4.09-1.23,8.13-2.68,12.28-3.69a48.47,48.47,0,0,1,9.22-1.25c5.62-.26,11.25-.23,16.88-.31,8.26-.11,16.52-.25,24.78-.3,4.36,0,8.72.09,13.07.15a21.13,21.13,0,0,1-2.87.8c-2.64.33-5.29.55-8,.79-3.68.32-7.36.59-11,.93-3.2.29-6.4.65-9.6,1Z" />
        <path class="color-shadow"
            d="M105.82,214.37a2.68,2.68,0,0,1,4-1.88,4.24,4.24,0,0,0,4.71-.51,7.52,7.52,0,0,1,3.41-1.72c2.81-.69,5.67-1.16,8.47-1.85,4.43-1.09,8.82-2.39,13.27-3.4,4.83-1.1,9.72-1.93,14.56-3,3.61-.76,7.18-1.74,10.79-2.45a57.48,57.48,0,0,1,6.15-.65c.68-.06,1.37,0,2.05,0-2.1.53-4.22,1-6.31,1.6-3.68,1-7.36,2-11,3.12-10.88,3.32-21.73,6.72-32.62,10-2.07.63-4.27.86-6.39,1.37-1,.23-1.88.81-2.86,1-1.75.32-3.53.44-5.3.67-1.13.14-2.26.32-3.39.48-.07-1.9,2-3.84,4.18-3.95C108.53,212.49,107.74,212.74,105.82,214.37Z" />
        <path class="color-base"
            d="M102.17,217.91c.49,3.31,1,6.63,1.45,9.94.38,2.61.76,5.21,1.11,7.82.08.63.06,1.27.08,1.91-1.85.66-3.72,1.3-5.56,2-.81.3-1-.12-1.11-.75s0-1.19-.08-1.79c-.29-2.87-.6-5.74-.9-8.61-.15-1.42-.22-2.85-.44-4.25-.3-1.81-.71-3.61-1.12-5.63Z" />
        <path class="color-shadow"
            d="M137,237.35a14.61,14.61,0,0,1,2.75,4.13,13,13,0,0,1-3.4.82,7.9,7.9,0,0,1-2.83-1.06c-2.51-1.18-5-2.39-7.51-3.61-.82-.4-1.58-.92-2.41-1.29a2.73,2.73,0,0,0-1.52-.27c-2.94.62-5.86,1.32-8.79,2a11.26,11.26,0,0,1-5.15.49c-.16-1-.32-2-.48-2.95l3.74.65,0-.25-.39-.27a7,7,0,0,1,1.15-.73c2.23-.83,4.5-1.57,6.72-2.44a8,8,0,0,0,2.2-1.35,1.73,1.73,0,0,1,2.41-.27,35,35,0,0,0,4.37,2.68c2.75,1.32,5.58,2.47,8.39,3.67A2.34,2.34,0,0,0,137,237.35Z" />
        <path class="color-shadow"
            d="M102.17,217.91l-6.57.64c.41,2,.82,3.82,1.12,5.63.22,1.4.29,2.83.44,4.25.3,2.87.61,5.74.9,8.61.06.6,0,1.2.08,1.79s.3,1,1.11.75c1.84-.7,3.71-1.34,5.56-2,.07.83.16,1.66.19,2.49,0,1.2-1.92,2.79-3.57,2.82-1.1,0-2.21-.15-3.49-.24l.88-1-1.17.31a2.49,2.49,0,0,1-.52-2.8,1.44,1.44,0,0,0,0-.82q-.81-3.5-1.65-7l.89-.4-.06-.32-2.5.33v-3l2-1a17.15,17.15,0,0,0-.05-2c-.29-2.09-.64-4.17-1-6.26a.38.38,0,0,0,0-.21c.19-.55-.78-1.45.39-1.67,2.2-.42,4.27-1.6,6.62-1.24Z" />
        <path class="transparent"
            d="M49.54,244.59a6.58,6.58,0,0,1,.57-1.16c1.85-2.4,3.69-4.8,5.6-7.15a9.81,9.81,0,0,1,1.78-1.55c3-2.2,6.58-2.47,10-3.14a2.22,2.22,0,0,1,.45,0c.1,1.56-.09,1.8-1.8,2.23s-3.37.78-4.6,2.11a16.66,16.66,0,0,0-1.32,1.69c-2.62,3.62-6.31,5.67-10.34,7.22Z" />
        <path class="transparent"
            d="M56.64,233.57c-1.79,1.24-3.5,2.62-5.39,3.69a10.22,10.22,0,0,0-4.59,5.16,33.11,33.11,0,0,1-2,3.83,3.49,3.49,0,0,1-4,1.9c1-1.61,2-3.18,2.88-4.8a18.13,18.13,0,0,0,1.37-2.93,7.76,7.76,0,0,1,3-3.89A15.23,15.23,0,0,1,56.64,233.57Z" />
        <path class="color-base"
            d="M106.11,238.52c-.77-5.67-1.52-11.35-2.31-17-.27-1.93-.67-3.84-1-5.76h1.34c1.12,7.08,2.69,14.1,2.62,21.32a7.61,7.61,0,0,0,.25,1.49Z" />
        <path class="color-shadow-dark"
            d="M101.76,215.5c-2.35-.36-4.42.82-6.62,1.24-1.17.22-.2,1.12-.39,1.67l-1.06-.2c-1.43-.23-1.78-.6-1.62-2a1.3,1.3,0,0,1,.67-.93c1.9-.73,3.81-1.43,5.75-2A2.49,2.49,0,0,1,101.76,215.5Z" />
        <path class="color-shadow-dark"
            d="M95.46,231.31q.84,3.49,1.65,7a1.44,1.44,0,0,1,0,.82,2.49,2.49,0,0,0,.52,2.8c-.55.22-1.31.77-1.59.58a2.2,2.2,0,0,1-1-1.68c.11-.71.83-1.31,1.29-2l-1.72.2a60.6,60.6,0,0,1-.74-6.11C93.85,232.41,94.9,231.85,95.46,231.31Z" />
        <path class="color-shadow-dark"
            d="M94.74,218.62c.33,2.09.68,4.17,1,6.26a17.15,17.15,0,0,1,.05,2,11.37,11.37,0,0,1-1.42.08c-.23,0-.63-.2-.65-.35-.18-1.3-.3-2.6-.41-3.9,0-.13.23-.27.15-.18L92.07,219Z" />
        <path class="color-shadow-dark" d="M104.14,215.73H102.8c-.1-.38-.19-.75-.31-1.2l1.41-.41Z" />
        <path class="color-shadow-dark" d="M106.11,238.52l.9,0c.2,1,.2,1-.9,1.14Z" />
        <path class="color-shadow-dark" d="M105.24,215.09l0,.07-.11-.06s.05-.07.07-.07S105.22,215.07,105.24,215.09Z" />
        <path class="transparent" d="M58.85,221.06l.15.09s-.06.07-.08.07-.1-.05-.16-.07Z" />
        <path class="color-base"
            d="M536.61,347.26c0,.24,0,.48,0,.71l.45.75,0,2.61.45.75c0,.31,0,.63,0,.94-.33.49-.49.93.23,1.22,0,.47,0,.95,0,1.42s0,.8,0,1.2c.08.72.15,1.44.23,2.16,0,.32,0,.64,0,1,0,2.68.17,5.37,0,8-.38,4.86-1,9.7-1.53,14.54-.21,1.88-.86,3.77-.77,5.62.17,3.68.67,7.34,1.14,11a9.68,9.68,0,0,0,1,2.66c1.08,2.39,2.21,4.76,3.31,7.13q-.46,3.13-.95,6.25l-3,.69c-4.9,1.14-9.22,3.57-13.46,6.15-.08.05-.1.21-.14.32l-2.43,1.23c-.28.51-.55,1-.83,1.55a5.39,5.39,0,0,0,1.42.36,19.83,19.83,0,0,0,6.88-1.25,10,10,0,0,1,5.86-.35,2,2,0,0,1,1.07,1.49c.33,3.32.56,6.65.77,10,.19,3.1.44,6.2.44,9.3a53.71,53.71,0,0,1-.6,5.92c-.05.56,0,1.12-.09,1.67-.14,1.18-.31,2.35-.47,3.52a3.71,3.71,0,0,0-.26.53,2.6,2.6,0,0,1-2.9,1.86,22,22,0,0,0-3.7.47c.05-.47.1-.87.16-1.3-.13,0-.24,0-.24,0-.32,1.3-1.28,1.63-2.47,1.72a24.34,24.34,0,0,0-3.32.47c-1.19.28-1.77-.3-2.15-1.27a17.38,17.38,0,0,0-1.38-3.1c.39,1.48.77,3,1.2,4.6-2.08.19-4.21.43-6.33.54-.36,0-.77-.47-1.11-.79a13.32,13.32,0,0,1-1-1.12c-.1-.77-.14-1.55-.3-2.31A70.75,70.75,0,0,1,510.48,443a95,95,0,0,0-1.22-14.49c-.62-3.63-1.11-7.29-1.67-10.94q-.48-3.16-1-6.35c-.18-1.12.35-1.44,1.35-1.27,1.57.28,3.16.45,4.68.87,3.79,1.06,7.52,2.33,11.33,3.31,2.32.6,4.54,1.9,7.17.92,1.49-.56,2.56-2.69,1.42-3.92a49.48,49.48,0,0,0-5.08-4.85c-3.34-2.71-7.49-3.6-11.52-4.71-2.72-1.1-5.46-2.16-8.16-3.32a33,33,0,0,1-3.12-1.74,5.21,5.21,0,0,1,.11-1.54,8.24,8.24,0,0,0-.21-6.27c-1.52-3.8-3.25-7.53-4.88-11.29a189.45,189.45,0,0,1-9.36-27.59c-1.87-7.23-3.11-14.61-5.46-21.74a53,53,0,0,1-1.54-8.66c-.36-2.43-.62-4.88-.9-7.32-.36-3-.77-6.06-1-9.11a30.72,30.72,0,0,1,.21-4.88c.29-3.49.58-7,1-10.44q.72-6,1.67-12A8.22,8.22,0,0,1,489,269c2-.89,3.92-1.77,5.92-2.55,5.56-2.18,11.14-4.3,16.72-6.44.62-.24,1.21-.21,1.48.53,1.27,3.39,2.7,6.73,3.73,10.19,1.67,5.56,3,11.2,4.58,16.8,2,7.22,4.08,14.4,6,21.63s3.65,14.66,5.44,22c.74,3.05,1.39,6.12,2.1,9.18C535.51,342.66,536.07,345,536.61,347.26Z" />
        <path class="transparent"
            d="M516,526.68c.41-.64.81-1.28,1.21-1.92a4.15,4.15,0,0,0-2.5,3.82,3.52,3.52,0,0,1-.29,1c-.33-.23-.92-.43-1-.69a9,9,0,0,1,0-3.14,11.52,11.52,0,0,1,1.62-3.94c1.81-2.51,3.9-4.81,5.82-7.24a11.57,11.57,0,0,0,1.63-2.6c1.09-2.61,1.94-5.32,3.11-7.9.8-1.77.27-3.45.09-5.14-.2-1.89-.77-3.73-1.13-5.6a3,3,0,0,1,.08-1.37c1.28-4.18,2.62-8.35,3.88-12.54a14.12,14.12,0,0,0,.33-2.36l-.46-.09c-.35,1.2-.68,2.42-1.07,3.61-1.3,4-2.69,7.92-3.92,11.92a14,14,0,0,1-1.77,3.72c-2.2,3.28-4.25,6.66-6.36,10l-.72,1.12c-1.22-2.38-2.48-2.83-3.45-1.46.61.21,1.65.26,1.83.68a4.61,4.61,0,0,1,.3,2.83,9.28,9.28,0,0,1-1.61,2.91c-.63.86-1.31.7-1.56-.36a5.51,5.51,0,0,1-.12-2.45c1.36-5.88,2.84-11.73,4.2-17.61.95-4.1,2.34-8.12,2.19-12.41,0-1.63-.14-3.25-.22-5,.79-.17,1.48-.36,2.18-.46,4.54-.66,9.09-1.3,13.63-2,.88-.13,1.31,0,1.37,1,.18,3.06.39,6.13.72,9.17.52,4.75.7,9.55,2.11,14.17a3.1,3.1,0,0,1-.12,2.06c-2.81,6-5.69,12-8.58,17.92a4.66,4.66,0,0,1-1.14,1.37q-4.79,4.35-9.6,8.64a6,6,0,0,1-.51.37Z" />
        <path class="color-shadow"
            d="M516,401.53c4,1.11,8.18,2,11.52,4.71a49.48,49.48,0,0,1,5.08,4.85c1.14,1.23.07,3.36-1.42,3.92-2.63,1-4.85-.32-7.17-.92-3.81-1-7.54-2.25-11.33-3.31-1.52-.42-3.11-.59-4.68-.87-1-.17-1.53.15-1.35,1.27q.51,3.18,1,6.35c.56,3.65,1.05,7.31,1.67,10.94A95,95,0,0,1,510.48,443a70.75,70.75,0,0,0,1.37,13.13c.16.76.2,1.54.3,2.31l.68,2.13-1.43.25a6.88,6.88,0,0,1-1.7-4.29,13.39,13.39,0,0,0-.32-2.59,79.22,79.22,0,0,1-1.65-14.66,25.09,25.09,0,0,0-1.2-7.37,24.77,24.77,0,0,1-.66-8.48c.15-3.61.07-7.23-.06-10.84-.1-2.86-.41-5.7-.63-8.55l1.41,0a2.27,2.27,0,0,0,.67.35,45.33,45.33,0,0,1,13.49,3.34c1.87.86,3.85,1.47,5.79,2.19a6.31,6.31,0,0,0-.63-1.91,9.57,9.57,0,0,0-1.78-1.49l-2-1.12-2.34-1c-1-.68-1.95-1.36-2.91-2.06C516.56,402.08,516.26,401.79,516,401.53Z" />
        <path class="color-base"
            d="M514.57,471.09l-.28-1.13-.16,0-.14,1.16c-.25-.08-.59-.07-.75-.24a4.82,4.82,0,0,1-.46-5.32c.28-.46.5-1,.75-1.44l8.13-1.33c2.83-.46,5.66-.93,8.5-1.36,1.5-.22,3-.38,4.51-.56.08.25.09.6.26.74,1.47,1.2,1.52,2.83,1.43,4.51l0,1.88-6.71.76-.25.2-10.28,1.46-.4-.47-.11.46Z" />
        <path class="color-shadow-dark"
            d="M505.18,404c.22,2.85.53,5.69.63,8.55.13,3.61.21,7.23.06,10.84a24.77,24.77,0,0,0,.66,8.48,25.09,25.09,0,0,1,1.2,7.37,79.22,79.22,0,0,0,1.65,14.66,13.39,13.39,0,0,1,.32,2.59,6.88,6.88,0,0,0,1.7,4.29c-1.42.42-2.55-.21-2.95-1.92s-.65-3.76-.91-5.66c-.66-4.73-1.25-9.48-1.93-14.21-.25-1.7-.66-3.37-1-5a2.91,2.91,0,0,0-.59-1.41c-1-1-1-2.15-1.1-3.4a77.59,77.59,0,0,1,.37-14,40.39,40.39,0,0,0-.51-10.59,5.66,5.66,0,0,1,0-.94Z" />
        <path class="transparent"
            d="M523.44,497.36c.55,1.73,1.12,3.47,1.63,5.22a1.65,1.65,0,0,1-.14.91c-1.11,3-2.21,6.06-3.36,9.07a5.44,5.44,0,0,1-1,1.55c-1.59,1.78-3.21,3.53-4.82,5.29a3.46,3.46,0,0,1-.5.51q-3.76,2.33-7.55,4.63c-.81.5-1.33.32-1.7-.64-.66-1.69-.26-3.22,1.39-4.79a17.13,17.13,0,0,1,7.42-4.23,7,7,0,0,0,5.19-5.2c.89-2.79,1.78-5.59,2.56-8.42a34.49,34.49,0,0,0,.59-3.95Z" />
        <path class="transparent"
            d="M522.07,496.55a23.2,23.2,0,0,1-2.37,11.79c-.62,1.38-1.24,2.76-2,4.08a2.38,2.38,0,0,1-1.21.84,18.33,18.33,0,0,0-2.6.83,5,5,0,0,1-4.64.19c-1.64-.68-3.33-1.26-5-1.86.29-2,1.75-2.72,4.45-2.31,0,1.37.17,2.68,1.36,3.66.82.66,1.59.69,2.17-.11.75-1,1.31-2.19,2-3.26.24-.39.53-.9.9-1,1.19-.34,1.64-1.26,2.15-2.23.91-1.72,2-3.37,2.81-5.13a43.1,43.1,0,0,0,1.54-4.21C521.81,497.51,521.88,497.19,522.07,496.55Z" />
        <path class="color-base"
            d="M534.19,460l-19.53,2.81a9.75,9.75,0,0,1-1.08,0c0-.45,0-.9,0-1.35,3.35-.4,6.7-.76,10-1.22,2.83-.38,5.64-.87,8.46-1.29.63-.09,1.27-.1,1.9-.14Z" />
        <path class="color-shadow-dark"
            d="M526.54,409.9c-1.94-.72-3.92-1.33-5.79-2.19a45.33,45.33,0,0,0-13.49-3.34,2.27,2.27,0,0,1-.67-.35c3.35.4,6.71.72,10,1.22,1.87.29,3.7.86,5.55,1.3A6,6,0,0,1,526.54,409.9Z" />
        <path class="color-shadow-dark"
            d="M536.36,466.09c.09-1.68,0-3.31-1.43-4.51-.17-.14-.18-.49-.26-.74a3.32,3.32,0,0,1,4.09,3.35c0,1.47-.19,2.95-.21,4.42,0,1-.47,1.16-1.11,1Z" />
        <path class="color-shadow-dark"
            d="M513.53,464.09c-.25.48-.47,1-.75,1.44a4.82,4.82,0,0,0,.46,5.32c.16.17.5.16.75.24.14.69.29,1.38.43,2.08-1.51.27-1.51.27-2.67-2.22l-.27.86c-.14,0-.26,0-.27-.05-.7-1.62-1.33-3.27-.88-5.08S511.47,464.31,513.53,464.09Z" />
        <path class="color-shadow-dark"
            d="M519.08,470.39l10.28-1.46c0,1.68-.23,1.95-1.81,2.19l-5,.73-.34-1.21a5.36,5.36,0,0,1-1.1,1.41C520.22,472.62,519.68,472.15,519.08,470.39Z" />
        <path class="color-shadow-dark" d="M529.61,468.73l6.71-.76c.06,1.66,0,1.72-1.62,2l-4.65.7Z" />
        <path class="color-shadow-dark" d="M514.57,471.09l4-.71.42,1.95C516,473.48,515.41,473.33,514.57,471.09Z" />
        <path class="transparent" d="M515.35,508.18l4.18-7.67.42.23q-2.09,3.86-4.19,7.71Z" />
        <path class="transparent"
            d="M509.32,508.73l-2.77.27a1.78,1.78,0,0,1,2.17-1.25C509,507.86,509.09,508.33,509.32,508.73Z" />
        <path class="color-shadow-dark" d="M513.57,461.53c0,.45,0,.9,0,1.35-1.1.58-1.67.2-1.87-1.06Z" />
        <path class="color-shadow-dark" d="M534.19,460l-.23-1.15,1.5-.26C535.77,460,535.7,460.06,534.19,460Z" />
        <path class="transparent" d="M515,475c-.07.73-.14,1.45-.2,2.18-.18-.77-1-1.59-.23-2.28Z" />
        <path class="color-shadow-dark" d="M522.14,405.38l2,1.12Z" />
        <path class="color-shadow-dark" d="M535.74,457.78h-.27a1.62,1.62,0,0,0,.1-.18Z" />
        <polygon class="color-shadow-dark" points="511.46 472.41 511.53 472.38 511.52 472.46 511.46 472.41" />
        <path class="color-shadow"
            d="M536.61,347.26c-.54-2.3-1.1-4.6-1.64-6.91-.71-3.06-1.36-6.13-2.1-9.18-1.79-7.34-3.53-14.69-5.44-22s-4-14.41-6-21.63c-1.54-5.6-2.91-11.24-4.58-16.8-1-3.46-2.46-6.8-3.73-10.19-.27-.74-.86-.77-1.48-.53-5.58,2.14-11.16,4.26-16.72,6.44-2,.78-4,1.66-5.92,2.55a8.22,8.22,0,0,0-4.72,6.6q-1,6-1.67,12c-.41,3.47-.7,6.95-1,10.44a30.72,30.72,0,0,0-.21,4.88c.22,3.05.63,6.08,1,9.11.28,2.44.54,4.89.9,7.32a53,53,0,0,0,1.54,8.66c2.35,7.13,3.59,14.51,5.46,21.74a189.45,189.45,0,0,0,9.36,27.59c1.63,3.76,3.36,7.49,4.88,11.29a8.24,8.24,0,0,1,.21,6.27,5.21,5.21,0,0,0-.11,1.54,15.52,15.52,0,0,1-2-1.21,44.09,44.09,0,0,1-5.35-4.74,44.59,44.59,0,0,1-3.81-5.89c-1-1.62-.92-3.45-1.12-5.28a111.67,111.67,0,0,0-2-13.28c-2.16-9.21-4.13-18.45-5.61-27.79-.89-5.64-1.55-11.31-2.43-17q-1-6.22-2.26-12.41c-.61-2.91-1.41-5.79-2.25-8.64-.47-1.57.11-3,.29-4.46.37-2.95.76-5.9,1.13-8.85.31-2.52.64-5,.89-7.56.23-2.29.32-4.6.58-6.89a4.33,4.33,0,0,1,.81-2c1.9-2.5,4.68-3.8,7.37-5.2,4.62-2.42,9.15-5.05,14.18-6.62,3.68-1.14,7.4-2.2,11.08-3.38.94-.3,1.22.12,1.47.82.35,1,.64,2,1,3,1.41,3.64,2.8,7.28,4.28,10.89q3.8,9.3,7.7,18.55a33.65,33.65,0,0,1,2.22,10.57l1,11.88a149.68,149.68,0,0,0,2.26,16.86c.86,4.39,1.39,8.85,2.06,13.28.24,1.65.48,3.3.67,4.95A4,4,0,0,1,536.61,347.26Z" />
        <path class="outline"
            d="M521.2,423.58l2.43-1.23,7.6-2.54c2.84-.94,5.64-2,8.7-2A2.1,2.1,0,0,1,541,418a5,5,0,0,1,.86,1.06c-.43.28-1,.88-1.25.79-3-1-5.77.07-8.55.85-3.22.9-6.41,2-9.62,2.9A5,5,0,0,1,521.2,423.58Z" />
        <path class="color-shadow"
            d="M540.21,415.19q.48-3.12.95-6.25a8.26,8.26,0,0,1,1.4,5.36c0,.31-.48.74-.82.85A5.56,5.56,0,0,1,540.21,415.19Z" />
        <path class="color-shadow"
            d="M537.79,354.24c-.72-.29-.56-.73-.23-1.22C537.63,353.43,537.71,353.83,537.79,354.24Z" />
        <path class="color-shadow" d="M537.81,356.86c0-.4,0-.8,0-1.2Z" />
        <path class="color-shadow" d="M538.05,360c0-.32,0-.64,0-1C538,359.34,538.05,359.66,538.05,360Z" />
        <path class="color-shadow" d="M537.07,348.72l-.45-.75Z" />
        <path class="color-shadow" d="M537.55,352.08l-.45-.75Z" />
        <path class="color-shadow"
            d="M278.6,199.9c.16,1.53.43,3,.46,4.58.07,3.92.17,7.85,0,11.76s-.74,7.66-1.11,11.49c-.2,2.06-.4,4.11-.51,6.18-.2,3.61-.24,7.24-.52,10.85-.37,4.75-.91,9.48-1.38,14.22-.25,2.49-.42,5-.77,7.47-.69,4.83-1.35,9.67-2.26,14.46-1.11,5.93-2.51,11.8-3.67,17.72-.58,2.92-.88,5.89-1.35,9.09a35.09,35.09,0,0,1-4.06-.62q-9.11-2.43-18.18-5c-4-1.13-7.95-2.29-11.88-3.6-3.66-1.22-7.28-2.59-10.87-4q-8.35-3.37-16.64-6.95a104.35,104.35,0,0,1-9.5-4.49,43.5,43.5,0,0,1-5.74-4.26,13.61,13.61,0,0,0-7.1-2.79,39.93,39.93,0,0,1-13.59-3.87,42.93,42.93,0,0,1-5.21-3.57c-2.24-1.59-4.54-3.11-6.69-4.8a38.42,38.42,0,0,1-8.93-10.51,48.16,48.16,0,0,1-5.39-13.47,8.22,8.22,0,0,0-5.93-6.11c-.34-.11-.67-.26-1-.38.54-2.11,2.34-3.11,4.42-1.56a32.25,32.25,0,0,1,9.77,11c2.34,4.49,4.59,9,7.12,13.42,2,3.44,4.09,6.92,7.52,9.17a21.5,21.5,0,0,0,5.8,2.72,113.2,113.2,0,0,1,15.68,5.76c3.83,1.77,7.81,3.23,11.69,4.89,2.09.89,4.09,2,6.18,2.86,2.7,1.15,5.43,2.27,8.2,3.26,3.26,1.16,6.55,2.29,9.89,3.2,6.75,1.85,13.55,3.52,20.31,5.33,5.49,1.46,10.95,3,16.43,4.54.36.1.74.18,1.16.28,1.18-4.92,2.33-9.71,3.49-14.49,1.21-5,2.55-10,3.63-15.07q2.43-11.3,4.54-22.66c.93-5,1.68-10.09,2.37-15.16.53-3.9.8-7.82,1.26-11.73.39-3.3.94-6.59,1.35-9.9.25-2,.35-4,.56-5.93C278.25,202.07,278.44,201,278.6,199.9Z" />
        <path class="color-shadow-dark"
            d="M188.34,236.87c-.15-.2-.38-.37-.44-.59-1.53-5.61-3-11.23-4.6-16.81a67.59,67.59,0,0,0-3.07-9c-.87-2-2.41-3.62-3.66-5.41a12.11,12.11,0,0,1-1.25-1.74c-.21-.46-.32-1.3-.06-1.56.42-.45,1.33-.94,1.78-.76a10.08,10.08,0,0,1,4.59,3.86c.05.08,0,.23,0,.35l-2-1.68-.29.27.72,1.14a41.45,41.45,0,0,1,2.8,4.45,57.29,57.29,0,0,1,4.93,18.44C188.16,230.81,188.19,233.85,188.34,236.87Z" />
        <path class="outline"
            d="M188.34,236.87c-.15-3-.18-6.06-.49-9.07a57.29,57.29,0,0,0-4.93-18.44,41.45,41.45,0,0,0-2.8-4.45l-.72-1.14.29-.27,2,1.68c4.36,5.44,6.08,11.91,6.86,18.62.55,4.73.57,9.53.76,14.3a55.22,55.22,0,0,1,0,6.17c-.18,2.75-.54,5.49-.82,8.23-.12,1.12-.23,2.23-.35,3.35l-.33,0c.07-.75.21-1.5.22-2.25C188.11,248,188.22,242.44,188.34,236.87Z" />
        <path class="color-shadow" d="M191.48,198.46h0Z" />
    </g>
</svg>
