<svg id="manshety" xmlns="http://www.w3.org/2000/svg" viewBox="0 0 672 960">
    <g id="img_40_img" data-name="img 40 img">
        <path class="color-shadow-dark"
            d="M482.92,344.41c-.2-1.21-.38-2.43-.58-3.65-.15-.88-.3-1.76-.48-2.63q-1.07-5-2.14-10.05c-.08-.34-.1-.7-.15-1-.29-2.09-.59-4.17-.88-6.25-.57-4.08-1.2-8.15-1.7-12.23a102.22,102.22,0,0,1-1.08-11.28c0-3.73.53-7.46.86-11.19.4-4.49.78-9,1.26-13.45.22-2,.7-4,2.56-5.16,2.75-1.77,5.43-3.67,8.31-5.2a223.34,223.34,0,0,1,25.79-11.61c.8-.3,1.15-.09,1.46.65,1.7,4.09,3.55,8.13,5.13,12.27,2.57,6.76,5.25,13.49,7.37,20.4a149.25,149.25,0,0,1,4.9,23.18c.7,4.93,1.53,9.85,2.36,14.77s1.51,9.68,2.56,14.46a81.21,81.21,0,0,1,2.14,16.32c.08,6.14-.2,12.3-.41,18.44-.1,2.83-.44,5.65-.61,8.48-.22,3.81-.73,7.65-.49,11.44.38,5.79,1.51,11.38,5.58,16.07a8.21,8.21,0,0,1,.19,11c-1.15,1.48-2.38,2.9-3.47,4.43s-2,3-2.92,4.51a1.73,1.73,0,0,0-.28.9c.11,3.69,1.07,7.33.67,11.05,0,0,0,.08,0,.12,0,4.36.12,8.71,0,13.06-.08,3-.63,6-.73,8.95-.09,2.5.18,5,.24,7.54,0,.29-.31.8-.54.84-4.37.69-8.76,1.31-13.13,2-3.59.55-7.17,1.24-10.77,1.71-2.17.29-2.43-.09-3.05-2.22-2.14-7.31-2.86-14.89-4.07-22.37-.53-3.27-.67-6.6-1.27-9.85-.47-2.54-.46-5.3-2.38-7.41a1.23,1.23,0,0,1-.23-.79q.06-6.63.15-13.28c0-3.22.14-6.45.1-9.68a33.24,33.24,0,0,0-.54-4l2.52.37c.08,1.71.11,3.42.24,5.13.19,2.41.53,4.81.64,7.23a53.38,53.38,0,0,1-.11,6.81,23.56,23.56,0,0,0,.4,8.15,62.92,62.92,0,0,1,1.43,8.65c.25,2.17,0,4.4.33,6.56.68,4.83,1.49,9.64,2.37,14.44.41,2.21,1.1,4.36,1.66,6.54.34,1.05.61,2.14,1,3.15.11.26.74.46,1.1.42,2.83-.38,5.66-.81,8.49-1.23,4.12-.62,8.24-1.28,12.37-1.82.89-.11,1-.43,1-1.18-.1-3.71-.17-7.43-.24-11.14a11.83,11.83,0,0,1,0-1.19c.3-3.25.79-6.48.86-9.73s-.24-6.28-.44-9.42c-.2-3.34-.43-6.67-.76-10a2,2,0,0,0-1.07-1.48,9.92,9.92,0,0,0-5.86.34,19.83,19.83,0,0,1-6.88,1.25,5.39,5.39,0,0,1-1.42-.36c.28-.52.55-1,.83-1.55a5,5,0,0,0,1.22,0c3.21-.95,6.4-2,9.62-2.9,2.78-.78,5.55-1.83,8.55-.85.29.09.82-.51,1.25-.79A4.79,4.79,0,0,0,541,418a2,2,0,0,0-1-.13c-3.06,0-5.86,1.05-8.7,2l-7.6,2.54c0-.11.06-.27.14-.32,4.24-2.58,8.56-5,13.46-6.15l3-.69a5.56,5.56,0,0,0,1.53,0c.34-.11.81-.54.82-.85a8.26,8.26,0,0,0-1.4-5.36c-1-2.12-1.87-4.3-3-6.37a18.49,18.49,0,0,1-2.08-8.83,17.51,17.51,0,0,0-.11-2.51,16,16,0,0,1,.07-6.36,56.82,56.82,0,0,0,1-7.4c.35-3.11.72-6.22.89-9.35.15-2.7,0-5.42,0-8.14v-1l-.23-2.16c0-.4,0-.8,0-1.2s0-1,0-1.42-.16-.81-.23-1.22v-.94l-.45-.75.21-.93-.23-.5c0-.39,0-.79,0-1.18l-.45-.75c0-.23,0-.47,0-.71a4,4,0,0,0,.19-1.12c-.19-1.65-.43-3.3-.67-4.95-.67-4.43-1.2-8.89-2.06-13.28a149.68,149.68,0,0,1-2.26-16.86l-1-11.88a33.71,33.71,0,0,0-2.22-10.57q-4.32-10.25-8.57-20.52c-1.19-2.9-2.28-5.86-3.39-8.8-.41-1.07-.71-2.19-1.11-3.26-.19-.5-.32-1-1.18-.77-3.83,1.22-7.69,2.35-11.53,3.53-5,1.51-9.39,4.16-14,6.52-2.69,1.38-5.47,2.7-7.37,5.2a4.33,4.33,0,0,0-.81,2c-.26,2.29-.34,4.59-.57,6.89-.26,2.52-.59,5-.9,7.56-.37,3-.67,5.91-1.16,8.84a11.62,11.62,0,0,0,0,5.62,67.59,67.59,0,0,1,1.91,7.37c.93,4.71,1.79,9.44,2.54,14.18.8,5.09,1.38,10.22,2.19,15.31,1.48,9.34,3.45,18.57,5.61,27.78a113.75,113.75,0,0,1,2,13.28c.2,1.83.11,3.66,1.11,5.28a43.51,43.51,0,0,0,3.72,5.81,44.72,44.72,0,0,0,5.44,4.82,14.64,14.64,0,0,0,2,1.22,33,33,0,0,0,3.12,1.74c2.7,1.16,5.44,2.22,8.16,3.32.31.26.61.55.94.79,1,.7,1.94,1.38,2.91,2.06a38.38,38.38,0,0,0-12.58-2.6,10.93,10.93,0,0,1-9.6-5.72,46.65,46.65,0,0,1-6.1-14.46c-.86-4.17-1.78-8.32-2.69-12.48q-1.54-7-3.1-14.11c-.73-3.31-1.45-6.63-2.21-9.94C483.47,344.82,483.12,344.63,482.92,344.41Z" />
        <path class="outline"
            d="M35.14,243l.26-.66.2-.55,1.26-3.94.21-.61c.87-2.36,1.66-4.75,2.65-7.07a3.82,3.82,0,0,1,1.75-1.8c3.64-1.63,7.35-3.1,11-4.68a18.29,18.29,0,0,0,6.89-4.68c1.5-1.75,3.61-1.71,5.62-1.81,6.32-.3,12.64-.54,19-.8,1,0,2.07-.11,3.11-.1a2.86,2.86,0,0,0,2.69-1.81,2.48,2.48,0,0,1,1.31-1.17c5-1.4,10-2.61,15-4.11,4.11-1.23,8.11-2.85,12.2-4.17a13.57,13.57,0,0,1,4.11-.58c3.47,0,6.61-1.32,9.86-2.22,8.95-2.46,17.87-5,26.84-7.35a34.85,34.85,0,0,1,6.84-.92c3.75-.21,7.51-.23,11.26-.31,2.15,0,4.3,0,6.45-.08l14.1-.28c2,0,3.9-.09,5.85-.07,4,0,8.07.23,12.1.2,4.29,0,8.58-.26,12.87-.39,3-.08,5.95-.11,8.92-.2,3.17-.1,6.34-.26,9.5-.36,2.42-.08,4.85-.05,7.26-.16s4.91-.3,7.36-.48c2.81-.21,5.62-.41,8.43-.68,3.46-.33,6.91-.73,10.37-1.09a.92.92,0,0,1,.38.07c0,2.54,0,5,0,7.55q-.12,8.09-.32,16.18c-.1,3.74-.2,7.49-.42,11.23-.34,5.76-.79,11.51-1.17,17.27-.19,3-.28,6-.49,9-.28,4-.63,7.92-.95,11.88-.24,3-.46,5.95-.73,8.91-.36,3.95-.78,7.9-1.16,11.85-.19,1.94-.32,3.88-.52,5.82-.29,2.87-.63,5.74-.93,8.62-.34,3.23-.65,6.46-1,9.7-.25,2.41-.46,4.82-.8,7.22a3.22,3.22,0,0,1-1.09,1.52c-.25-1.11-.86-1.26-1.78-1.32a53,53,0,0,1-14.31-3.35q-13.23-4.7-26.38-9.55c-4.78-1.76-9.46-3.79-14.23-5.56-3.6-1.33-7.3-2.36-10.91-3.65-5.68-2-10.66-5.31-15.42-8.91a15.33,15.33,0,0,0-10-3.1,25,25,0,0,1-19.69-8.31,12.57,12.57,0,0,0-2.48-2.25,21.5,21.5,0,0,1-9.64-13.22,54.58,54.58,0,0,0-2.9-7,1.28,1.28,0,0,0-1.94-.74c-.62.28-1.25.53-1.86.83a3.92,3.92,0,0,1-4.72-.92,6.75,6.75,0,0,1-1.33-1.68c-2-3.87-5.84-5.58-9.39-7.52-.86-.48-2.27-.14-3.39.05-3.77.65-7.51,1.46-11.28,2.11q-7.09,1.21-14.21,2.26c-2.28.35-2.68-.11-2.4-2.42,0-.1,0-.22,0-.09-4.33,1-8.68,1.79-12.94,3a52.29,52.29,0,0,0-7.06,2.88c-2.41,1.07-4.77,2.25-7.17,3.35A16.08,16.08,0,0,1,57.62,253c-1.34-.1-1.93-1.07-2.28-2.16a3,3,0,0,1,.9-3.48c2.07-1.57,4.19-3.07,6.33-4.55,1.71-1.18,3.5-2.23,5.19-3.44A29.34,29.34,0,0,0,70.35,237,8.63,8.63,0,0,0,69,235.51a2,2,0,0,0-1.39-.21,38.87,38.87,0,0,0-3.85.85,2.42,2.42,0,0,0-1.37.8c-1.47,2.49-3.81,4-6.13,5.51a39.87,39.87,0,0,1-5.59,2.88,2,2,0,0,1-1.82-.21A1.59,1.59,0,0,1,49,243c1.5-1.81,3-3.62,4.47-5.43l-.19-.33c-.62.32-1.26.61-1.86.95s-1.31.78-2,1.17L48,242.17l-.43.88-.74,1.54c-.86,1.37-1.65,2.79-2.61,4.09-.37.5-1.12.71-1.7,1l-.55.12-1.86-.23-.83.12,0,0-.65.74-1.44,1.24-.51.39a29.48,29.48,0,0,1-3.57,1.22,2,2,0,0,1-1.71-.58,2.1,2.1,0,0,1,.05-1.73c.89-2,1.91-3.92,2.85-5.89a13.19,13.19,0,0,0,.54-1.57ZM223.42,195c-4.35-.06-8.71-.18-13.07-.15-8.34,0-16.68.19-25,.3-5.63.07-11.27.07-16.89.3a42.25,42.25,0,0,0-8.39,1.14c-4.38,1.09-8.66,2.56-13,3.85s-8.85,2.76-13.34,3.9a40.63,40.63,0,0,1-9,1.4,13.81,13.81,0,0,0-7.54,1.87,14.93,14.93,0,0,1-4,2c-5.76,1.64-11.55,3.18-17.35,4.68-3.88,1-4.52,1.87-3.39,5.76,1,3.49,1.11,7.06,1.35,10.64s.75,7,1.22,10.45a1.68,1.68,0,0,0,2.1,1.59c1.15-.16,2.31-.19,3.45-.37,4.89-.75,9.79-1.46,14.67-2.33a49.8,49.8,0,0,0,6.41-1.74,2.52,2.52,0,0,1,2.47.19,43.85,43.85,0,0,0,4.06,2.75c2.73,1.47,5.34,3.05,7,5.81a1.1,1.1,0,0,0,.5.5,3.44,3.44,0,0,0,1.75.34c1.62-.49,3.18-1.17,4.89-1.83-1.44-3.61-.6-8.19-4.78-10.92.45-.08.76-.24.91-.14.83.56,2,1,2.37,1.82,1.43,3,2.69,6.13,3.82,9.27.71,1.94,1,4,1.61,6s1.46,4,2,6a16.19,16.19,0,0,0,4.54,8.28c1.12,1,2.3,2,3.5,2.9,3.29,2.54,6.59,5,10.62,6.39,3.59,1.25,7.16,2.76,11,2.66,5-.12,8.9,2,12.51,5.13a49.59,49.59,0,0,0,17.9,9.69c4.64,1.49,9.29,3,13.88,4.59,3.16,1.12,6.19,2.61,9.35,3.73,5.46,1.94,11,3.75,16.46,5.55s11.23,3.68,16.9,5.34a44.24,44.24,0,0,0,6.3.9c.6-5.44,1.18-10.54,1.73-15.65Q274,287.43,275,277.31c.66-6.39,1.36-12.78,1.94-19.17q1.07-11.88,1.94-23.76c.39-5.26.59-10.53.87-15.79.1-1.92.23-3.84.23-5.75,0-3.79,0-7.58-.1-11.37-.07-3.28-.21-6.56-.32-9.85l-4.44.36c-6.92.53-13.84,1.16-20.76,1.57-6.5.38-13,.5-19.51.78-3.26.14-6.53.36-9.79.54ZM65,247.64c-1-.11-1.86-.47-2.46-.22a37.2,37.2,0,0,0-4.7,2.51c-.37.22-.5.84-.74,1.28a5.32,5.32,0,0,0,1.38.59,12.12,12.12,0,0,0,7.1-1c2.34-1.2,4.79-2.21,7.2-3.26,2.11-.92,4.22-1.85,6.38-2.62,1.23-.44,2.58-.52,3.86-.85,3-.77,6-1.58,9-2.39a1.15,1.15,0,0,0,.89-1.55,31.23,31.23,0,0,1-.69-3.16c-.31-2.65-.56-5.32-.8-8-.17-2-.26-3.91-.46-5.86s-.49-4.09-.75-6.18l-5.43.31c-5,.25-10,.47-15.06.76-2.07.12-4.14.34-6.19.63-1.76.24-3,1.54-4.41,2.37h9.92a5.86,5.86,0,0,1-2.2.68,51.68,51.68,0,0,0-10.22,1.89c-4.84,1.63-9.87,2.74-14.33,5.38a3.75,3.75,0,0,0-1.58,1.52c-1.72,4.21-3.34,8.47-5,12.72a2,2,0,0,0-.09.69c0,1.18,0,2.37,0,3.55h-.43l-.32-1.41-.26-.06-2.35,6a8,8,0,0,0,5.83-2.78,31.26,31.26,0,0,0,5.93-9.1,9.86,9.86,0,0,1,3.47-4.35A27.1,27.1,0,0,1,58,231.82c3-.55,6-1,8.92-1.8a11.6,11.6,0,0,1,6.11.34c.22.06.37.32.77.68-1.33.16-2.39.26-3.44.42-.85.12-1.7,1.08-1.43,1.73.45,1.07,1.07,2.07,1.6,3.09,1-.9,1.75-1.63,2.52-2.37s1.53-1.53,2.31-2.28,1.42-1.32,2.14-2l.28.29c-2,2.29-3.88,4.61-5.89,6.87a14.91,14.91,0,0,1-2.58,2.31c-3.9,2.76-7.85,5.45-11.78,8.18a5.59,5.59,0,0,0-.82.86C59.48,247.45,62,245.29,65,247.64Zm-15.52-2.93c.37,0,.5.1.6.06,4.12-1.54,7.83-3.67,10.36-7.44A11.42,11.42,0,0,1,61.6,236c1.25-1.33,2.95-1.68,4.61-2.1s1.91-.69,1.72-2.39c-3.21.87-6.67.71-9.53,2.76a13.46,13.46,0,0,0-2.63,2c-2,2.35-3.82,4.81-5.68,7.24A5.83,5.83,0,0,0,49.51,244.71Zm7.36-11.37a17.22,17.22,0,0,0-9.23,3.44A7.55,7.55,0,0,0,45,240.37a20.36,20.36,0,0,1-1.42,3c-.91,1.61-1.9,3.18-2.87,4.8a3.66,3.66,0,0,0,4-2c.94-1.67,1.83-3.38,2.64-5.11a6.73,6.73,0,0,1,2.55-3c1.65-1,3.27-2.14,4.88-3.24C55.43,234.46,56,234,56.87,233.34Zm1.93-12.23.08.16s.08-.06.08-.08a1.3,1.3,0,0,0-.08-.17Z" />
        <path class="outline"
            d="M482.91,344.41c.21.22.56.41.61.66.76,3.31,1.48,6.63,2.21,9.94q1.54,7.07,3.1,14.11c.91,4.16,1.83,8.31,2.69,12.48a46.65,46.65,0,0,0,6.1,14.46,10.93,10.93,0,0,0,9.6,5.72,38.38,38.38,0,0,1,12.58,2.6l2.34,1,2,1.12a9.57,9.57,0,0,1,1.78,1.49,6.31,6.31,0,0,1,.63,1.91,6,6,0,0,0-4.36-3.36c-1.85-.44-3.68-1-5.55-1.3-3.33-.5-6.69-.82-10-1.22l-1.42,0-2.52-.37a33.24,33.24,0,0,1,.54,4c0,3.23-.06,6.46-.1,9.68q-.09,6.65-.15,13.28a1.23,1.23,0,0,0,.23.79c1.92,2.11,1.91,4.87,2.38,7.41.6,3.25.74,6.58,1.27,9.85,1.21,7.48,1.93,15.06,4.07,22.37.62,2.13.88,2.51,3.05,2.22,3.6-.47,7.18-1.16,10.77-1.71,4.37-.67,8.76-1.29,13.13-2,.23,0,.54-.55.54-.84-.06-2.52-.33-5-.24-7.54.1-3,.65-6,.73-8.95.13-4.35,0-8.7,0-13.06,0,0,0-.08,0-.12.4-3.72-.56-7.36-.67-11.05a1.73,1.73,0,0,1,.28-.9c.95-1.52,1.87-3.06,2.92-4.51s2.32-3,3.47-4.43a8.21,8.21,0,0,0-.19-11c-4.07-4.69-5.2-10.28-5.58-16.07-.24-3.79.27-7.63.49-11.44.17-2.83.51-5.65.61-8.48.21-6.14.49-12.3.41-18.44a81.21,81.21,0,0,0-2.14-16.32c-1.05-4.78-1.76-9.63-2.56-14.46s-1.66-9.84-2.36-14.77a149.25,149.25,0,0,0-4.9-23.18c-2.12-6.91-4.8-13.64-7.37-20.4-1.58-4.14-3.43-8.18-5.13-12.27-.31-.74-.66-.95-1.46-.65a223.34,223.34,0,0,0-25.79,11.61c-2.88,1.53-5.56,3.43-8.31,5.2-1.86,1.2-2.34,3.16-2.56,5.16-.48,4.48-.86,9-1.26,13.45-.33,3.73-.9,7.46-.86,11.19A102.22,102.22,0,0,0,477,308.56c.5,4.08,1.13,8.15,1.7,12.23.29,2.08.59,4.16.88,6.25-.67-3.36-1.36-6.7-2-10.06-.5-2.71-.91-5.43-1.39-8.14-.4-2.23-.9-4.44-1.27-6.68a33.07,33.07,0,0,1-.46-4.56c-.07-3.24,0-6.49,0-9.47l.57,1.16c.18-1.12.35-1.93.43-2.75.25-2.35.41-4.71.69-7.05s.67-4.59,1-6.88c.18-1.35.26-2.71.52-4a2.17,2.17,0,0,1,.9-1.33c5.14-2.79,10.25-5.66,15.5-8.24,6.34-3.13,12.8-6,19.22-9a37.21,37.21,0,0,1,3.56-1.35c.63-.21,1,0,1.3.71,2,4.69,4,9.34,6,14A121.28,121.28,0,0,1,531,283.12c1.37,5.78,2.4,11.65,3.39,17.52,1.25,7.4,2.26,14.85,3.47,22.27.75,4.62,1.56,9.24,2.55,13.82a104.73,104.73,0,0,1,2,28c-.3,5.64-.42,11.29-.78,16.93-.24,3.75-.7,7.51.18,11.2,1.07,4.41,2,8.88,4.58,12.78,1.58,2.37,2.71,5.05,2.23,8a11.52,11.52,0,0,1-1.32,4,66.71,66.71,0,0,1-4,5.52c-.4.54-.87,1-1.29,1.57-2.06,2.52-2.85,5.21-1.68,8.46a9.1,9.1,0,0,1,.12,4.13c-.82,6.06-.35,12.14-.42,18.21,0,4.12.14,8.24.25,12.35.06,2.64-.5,3.26-3.09,3.47-1.1.09-2.19.33-3.2.48.19,2,.31,4,.58,5.88.82,5.72,1.55,11.46,2.64,17.13a9.81,9.81,0,0,1-1.22,6.41c-2.31,4.78-4.7,9.52-7.05,14.28a11.71,11.71,0,0,1-3.24,3.74,93.62,93.62,0,0,0-6.85,6.52c-1.47,1.51-2.74,3.21-4.1,4.84a1.52,1.52,0,0,1-2.66-.29c-1-1.65-.56-3.3-.07-4.94a17.76,17.76,0,0,0,.83-3c-.75.46-1.5.92-2.24,1.39-.95.6-1.85,1.29-2.84,1.8-1.83.94-3.24.05-3.31-2.06a7.53,7.53,0,0,1,3-6c.8-.7,1.72-1.27,2.72-2l-4-1.31c-.41-.14-.82-.28-1.21-.45-2.28-.95-2-2.35-.27-4,.27-.26.66-.61.65-.91,0-1.32.9-1.76,1.87-2,2.11-.51,2-.47,2.53-2.51.8-3.35,1.8-6.65,2.54-10,.88-4,2.37-7.88,2.2-12a36,36,0,0,0-1-5.29c-.11-.58-.2-1.16-.3-1.73-.08-.05-.14-.12-.21-.13-2.41-.13-2.58-.36-3.33-2.74-2.72-8.57-3.26-17.51-4.42-26.34-.46-3.48-.7-7-1.13-10.49a4.16,4.16,0,0,0-.95-2.1,5.66,5.66,0,0,1-1.34-3.6c-.13-2.23-.61-4.44-.69-6.67-.15-4.11-.07-8.22-.18-12.33-.05-2.08-.33-4.14-.5-6.21a5.06,5.06,0,0,0-1.87-3.6,14.38,14.38,0,0,1-4.44-7c-1.16-3.86-2.7-7.61-3.83-11.48-.83-2.88-1.28-5.87-1.87-8.82s-1.17-5.78-1.71-8.68c-.58-3.15-1.08-6.33-1.68-9.48s-1.3-6.16-1.92-9.25A18.82,18.82,0,0,1,482.91,344.41Zm45.48,132.64.51.13c-.28,1.37-.44,2.78-.85,4.11-1.1,3.58-2.31,7.12-3.44,10.69a2.91,2.91,0,0,0-.1,1.37c.36,1.87.86,3.72,1.16,5.6.33,2.11.51,4.18-.54,6.27s-1.73,4.54-2.67,6.77a11.73,11.73,0,0,1-1.62,2.61c-1.93,2.43-4,4.73-5.82,7.24a12,12,0,0,0-1.66,4,8.31,8.31,0,0,0,0,3c0,.28.62.49.94.73a3,3,0,0,0,.32-1,4.21,4.21,0,0,1,2.49-3.86l-1.19,2a.72.72,0,0,0,.65-.2q4.8-4.32,9.6-8.65a4.79,4.79,0,0,0,1.14-1.37q4.38-9,8.64-18a3,3,0,0,0,.09-1.95c-1.42-4.66-1.61-9.49-2.12-14.28-.32-3-.55-6-.72-9-.06-1.13-.58-1.18-1.46-1.06-4,.58-8,1.11-12,1.69-1.22.17-2.41.46-3.74.73.08,1.72.16,3.35.22,5,.17,4.25-1.22,8.24-2.14,12.3-1.36,5.92-2.87,11.8-4.24,17.72a6.45,6.45,0,0,0,.18,2.68c.2.93.93.9,1.38.26a11.66,11.66,0,0,0,1.78-3.21,4.78,4.78,0,0,0-.29-2.64c-.31-1-1.24-.33-1.88-.49-.05,0-.08-.11-.23-.36.52-.19,1.17-.67,1.46-.51a17.89,17.89,0,0,1,2.34,1.82c2.06-3.23,4.17-6.71,6.47-10.06a14.23,14.23,0,0,0,2.49-5.47,9.84,9.84,0,0,1,.4-1.38l4-11.79C528.1,477.93,528.25,477.49,528.39,477.05Zm-5,20.25h-.29a34,34,0,0,1-.64,4c-.76,2.79-1.63,5.55-2.51,8.31-.83,2.61-2.26,4.47-5.18,5.21a17.13,17.13,0,0,0-7.42,4.23c-1.7,1.61-2.09,3.14-1.36,4.89.34.82.76,1.06,1.52.6q3.88-2.36,7.75-4.74a2.09,2.09,0,0,0,.41-.43c1.64-1.79,3.29-3.57,4.91-5.38a5.31,5.31,0,0,0,1-1.57c1.11-2.9,2.16-5.82,3.22-8.73.12-.33.35-.73.27-1C524.58,500.9,524,499.1,523.42,497.3Zm-1.45-.42-.27.86a34.68,34.68,0,0,1-1.42,4.13c-.93,1.93-2.08,3.76-3.1,5.65a3.31,3.31,0,0,1-1.9,1.84c-.38.11-.71.58-.94,1-.65,1.05-1.16,2.2-1.88,3.19s-1.64,1.1-2.37.1a23.84,23.84,0,0,1-1.77-3.61,4.48,4.48,0,0,0-3.33.78c-.91.75-.86,1.49.21,1.94,1.39.6,2.85,1,4.24,1.61a4.77,4.77,0,0,0,4.42-.21c.74-.41,1.68-.47,2.48-.82a3.3,3.3,0,0,0,1.55-1.11c.7-1.2,1.2-2.51,1.78-3.78A21.92,21.92,0,0,0,522,496.88Zm-2,3.9-.42-.27-4.17,7.69.41.23ZM506.3,509l3.12-.32c-.28-.42-.41-.88-.64-.93A2.14,2.14,0,0,0,506.3,509ZM515,475l-.52-.11c-.62.71.09,1.51.31,2.28Z" />
        <path class="color-shadow-dark" d="M48,242.17l1.43-2.86Z" />
        <path class="color-shadow-dark" d="M46.83,244.59l.74-1.54Z" />
        <path class="color-shadow-dark" d="M38.6,250.52l.65-.74Z" />
        <path class="color-shadow-dark" d="M39.28,249.74l.83-.12Z" />
        <path class="color-shadow-dark" d="M42,249.85l.55-.12Z" />
        <path class="color-shadow-dark" d="M36.65,252.15l.51-.39Z" />
        <path class="color-shadow-dark" d="M35.14,243l-.33.56Z" />
        <path class="color-shadow-dark" d="M35.6,241.83l-.2.55Z" />
        <path class="color-shadow-dark" d="M37.07,237.28l-.21.61Z" />
        <path class="color-base"
            d="M537.07,348.72c0,.39,0,.79,0,1.18l.23.5-.21.93.45.75c0,.31,0,.63,0,.94-.33.49-.49.93.23,1.22,0,.47,0,.95,0,1.42s0,.8,0,1.2L538,359v1c0,2.72.12,5.44,0,8.14-.17,3.13-.54,6.24-.89,9.35a56.82,56.82,0,0,1-1,7.4,16,16,0,0,0-.07,6.36,17.51,17.51,0,0,1,.11,2.51,18.49,18.49,0,0,0,2.08,8.83c1.09,2.07,2,4.25,3,6.37q-.46,3.13-.95,6.25l-3,.69c-4.9,1.14-9.22,3.57-13.46,6.15-.08.05-.1.21-.14.32l-2.43,1.23c-.28.51-.55,1-.83,1.55a5.39,5.39,0,0,0,1.42.36,19.83,19.83,0,0,0,6.88-1.25,9.92,9.92,0,0,1,5.86-.34,2,2,0,0,1,1.07,1.48c.33,3.32.56,6.65.76,10,.2,3.14.52,6.28.44,9.42s-.56,6.48-.86,9.73a11.83,11.83,0,0,0,0,1.19c.07,3.71.14,7.43.24,11.14,0,.75-.12,1.07-1,1.18-4.13.54-8.25,1.2-12.37,1.82-2.83.42-5.66.85-8.49,1.23-.36,0-1-.16-1.1-.42-.43-1-.7-2.1-1-3.15a6.19,6.19,0,0,0,.22-1.25q-.09-3.17-.23-6.32a26.81,26.81,0,0,0-.28-3.81A73.27,73.27,0,0,1,510.49,443a98.93,98.93,0,0,0-1.23-14.59c-.61-3.6-1.1-7.21-1.65-10.81-.33-2.12-.74-4.23-1-6.35-.16-1.35.14-1.55,1.48-1.33a45.81,45.81,0,0,1,4.67.9c3.75,1.05,7.44,2.3,11.2,3.27,2.32.6,4.55,1.89,7.17.91,1.41-.53,2.52-2.64,1.46-3.84a44.47,44.47,0,0,0-4.76-4.65c-3.44-2.87-7.71-3.86-11.9-5-2.72-1.1-5.46-2.16-8.16-3.32a33,33,0,0,1-3.12-1.74,4.88,4.88,0,0,1,.11-1.54c1-2.58.38-5-.61-7.38-1.7-4-3.59-8-5.27-12.05a189.66,189.66,0,0,1-8.61-25.95c-1.82-7.16-3.06-14.47-5.43-21.5a46.16,46.16,0,0,1-1.51-8.07c-.37-2.51-.43-5.07-.83-7.57-.76-4.76-1.53-9.49-.9-14.34.44-3.47.61-7,1-10.43q.72-6,1.66-12A8.29,8.29,0,0,1,489,269c2-.92,3.92-1.78,5.92-2.56,5.56-2.18,11.14-4.3,16.72-6.44.63-.24,1.21-.21,1.48.53,1.27,3.39,2.7,6.73,3.73,10.19,1.67,5.56,3,11.2,4.58,16.8,2,7.22,4.08,14.4,6,21.63s3.65,14.66,5.44,22c.74,3.05,1.39,6.12,2.1,9.18.54,2.31,1.1,4.61,1.64,6.91,0,.24,0,.48,0,.71Z" />
        <path class="color-shadow"
            d="M536.61,347.26c-.54-2.3-1.1-4.6-1.64-6.91-.71-3.06-1.36-6.13-2.1-9.18-1.79-7.34-3.53-14.69-5.44-22s-4-14.41-6-21.63c-1.54-5.6-2.91-11.24-4.58-16.8-1-3.46-2.46-6.8-3.73-10.19-.27-.74-.85-.77-1.48-.53-5.58,2.14-11.16,4.26-16.72,6.44-2,.78-4,1.64-5.92,2.56a8.29,8.29,0,0,0-4.73,6.59q-.93,6-1.66,12c-.41,3.46-.58,7-1,10.43-.63,4.85.14,9.58.9,14.34.4,2.5.46,5.06.83,7.57a46.16,46.16,0,0,0,1.51,8.07c2.37,7,3.61,14.34,5.43,21.5a189.66,189.66,0,0,0,8.61,25.95c1.68,4.05,3.57,8,5.27,12.05,1,2.36,1.65,4.8.61,7.38a4.88,4.88,0,0,0-.11,1.54,14.64,14.64,0,0,1-2-1.22,44.72,44.72,0,0,1-5.44-4.82,43.51,43.51,0,0,1-3.72-5.81c-1-1.62-.91-3.45-1.11-5.28a113.75,113.75,0,0,0-2-13.28c-2.16-9.21-4.13-18.44-5.61-27.78-.81-5.09-1.39-10.22-2.19-15.31-.75-4.74-1.61-9.47-2.54-14.18a67.59,67.59,0,0,0-1.91-7.37,11.62,11.62,0,0,1,0-5.62c.49-2.93.79-5.89,1.16-8.84.31-2.52.64-5,.9-7.56.23-2.3.31-4.6.57-6.89a4.33,4.33,0,0,1,.81-2c1.9-2.5,4.68-3.82,7.37-5.2,4.57-2.36,9-5,14-6.52,3.84-1.18,7.7-2.31,11.53-3.53.86-.27,1,.27,1.18.77.4,1.07.7,2.19,1.11,3.26,1.11,2.94,2.2,5.9,3.39,8.8q4.25,10.29,8.57,20.52a33.71,33.71,0,0,1,2.22,10.57l1,11.88a149.68,149.68,0,0,0,2.26,16.86c.86,4.39,1.39,8.85,2.06,13.28.24,1.65.48,3.3.67,4.95A4,4,0,0,1,536.61,347.26Z" />
        <path class="color-shadow"
            d="M516,401.53c4.19,1.13,8.46,2.12,11.9,5a44.47,44.47,0,0,1,4.76,4.65c1.06,1.2-.05,3.31-1.46,3.84-2.62,1-4.85-.31-7.17-.91-3.76-1-7.45-2.22-11.2-3.27a45.81,45.81,0,0,0-4.67-.9c-1.34-.22-1.64,0-1.48,1.33.24,2.12.65,4.23,1,6.35.55,3.6,1,7.21,1.65,10.81A98.93,98.93,0,0,1,510.49,443a73.27,73.27,0,0,0,1.35,13.12,26.81,26.81,0,0,1,.28,3.81q.14,3.15.23,6.32a6.19,6.19,0,0,1-.22,1.25c-.56-2.18-1.25-4.33-1.66-6.54-.88-4.8-1.69-9.61-2.37-14.44-.3-2.16-.08-4.39-.33-6.56a62.92,62.92,0,0,0-1.43-8.65,23.56,23.56,0,0,1-.4-8.15,53.38,53.38,0,0,0,.11-6.81c-.11-2.42-.45-4.82-.64-7.23-.13-1.71-.16-3.42-.24-5.13l1.42,0a2.27,2.27,0,0,0,.67.35,45.33,45.33,0,0,1,13.49,3.34c1.87.86,3.85,1.47,5.79,2.19a6.31,6.31,0,0,0-.63-1.91,9.57,9.57,0,0,0-1.78-1.49l-2-1.12-2.34-1c-1-.68-1.95-1.36-2.91-2.06C516.56,402.08,516.26,401.79,516,401.53Z" />
        <path class="outline"
            d="M521.2,423.58l2.43-1.23,7.6-2.54c2.84-.94,5.64-2,8.7-2a2,2,0,0,1,1,.13,4.79,4.79,0,0,1,.87,1.06c-.43.28-1,.88-1.25.79-3-1-5.77.07-8.55.85-3.22.9-6.41,2-9.62,2.9A5,5,0,0,1,521.2,423.58Z" />
        <path class="color-shadow"
            d="M540.21,415.19q.48-3.12.95-6.25a8.26,8.26,0,0,1,1.4,5.36c0,.31-.48.74-.82.85A5.56,5.56,0,0,1,540.21,415.19Z" />
        <path class="color-shadow"
            d="M537.79,354.24c-.72-.29-.56-.73-.23-1.22C537.63,353.43,537.71,353.83,537.79,354.24Z" />
        <path class="color-shadow" d="M537.81,356.86c0-.4,0-.8,0-1.2C537.8,356.06,537.81,356.46,537.81,356.86Z" />
        <path class="color-shadow" d="M538.05,360v0Z" />
        <path class="color-shadow" d="M537.55,352.08l-.45-.75Z" />
        <path class="color-shadow" d="M537.07,348.72l-.45-.75Z" />
        <path class="color-shadow" d="M537.31,350.4l-.23-.5Z" />
        <path class="color-base"
            d="M223.42,195l1.66-.08c.19.58.16,1.32,1.06,1.35l8,.31c6.24.24,12.48.56,18.73.7,5.35.12,10.7,0,16,0a13.4,13.4,0,0,0,2,0c2.11-.33,4.22-.71,6.31-1.14.76-.16,1.07.13,1.15.79.11,1,.18,2,.26,3-.16,1.09-.35,2.17-.47,3.26-.21,2-.31,4-.56,5.93-.41,3.31-1,6.6-1.35,9.9-.46,3.91-.73,7.83-1.26,11.73-.69,5.07-1.44,10.13-2.37,15.16q-2.11,11.36-4.54,22.66c-1.08,5-2.42,10-3.63,15.07-1.16,4.78-2.31,9.57-3.49,14.49-.42-.1-.8-.18-1.17-.28-5.47-1.51-10.93-3.08-16.42-4.54-6.76-1.81-13.56-3.48-20.31-5.33-3.34-.91-6.63-2-9.89-3.2-2.77-1-5.5-2.11-8.2-3.26-2.09-.88-4.09-2-6.18-2.86-3.88-1.66-7.86-3.12-11.69-4.89A113.2,113.2,0,0,0,171.39,268a21.5,21.5,0,0,1-5.8-2.72c-3.43-2.25-5.53-5.73-7.52-9.17-2.49-4.31-4.73-8.78-7-13.21a32.36,32.36,0,0,0-9.88-11.18c-2.08-1.55-3.88-.55-4.42,1.56l-4.42-.84-.16.26a11.94,11.94,0,0,1,4.83,4.67,2.34,2.34,0,0,1-.71,0c-2.75-1.16-5.53-2.26-8.22-3.54a42.76,42.76,0,0,1-4.06-2.52c-1.59-1-1.79-1-3.18.28a5.31,5.31,0,0,1-1.61,1c-2.16.82-4.34,1.59-6.53,2.35-4.33,1.5-8.67,3-13,4.48-.82.29-1.47.28-1.57-.75-.34-3.56-.65-7.12-1-10.68-.12-1.3-.21-2.61-.43-3.9-.3-1.74-.7-3.47-1.09-5.34,3.24-.49,6.57-1,9.89-1.47,2.87-.41,5.75-.72,8.6-1.18a29.89,29.89,0,0,0,3-1c5.75-1.57,11.52-3.06,17.25-4.69,3.48-1,6.91-2.19,10.37-3.27s7-2.19,10.52-3.2c4.81-1.37,9.66-2.64,14.48-4,.79-.23,1.54-.62,2.31-.93h1.19c2.26-.16,4.52-.39,6.78-.45,1.71,0,3.42.2,5.13.19,2.11,0,4.22-.14,6.33-.22H192c3.2-.34,6.4-.7,9.6-1,3.68-.34,7.36-.61,11-.93,2.66-.24,5.31-.46,8-.79A21.13,21.13,0,0,0,223.42,195Zm-35.08,41.92c-.12,5.57-.23,11.14-.37,16.7,0,.75-.15,1.5-.22,2.25l.33,0c.12-1.12.23-2.24.35-3.36.28-2.74.64-5.48.82-8.23a55.22,55.22,0,0,0,0-6.17c-.19-4.77-.21-9.57-.76-14.3-.79-6.71-2.5-13.18-6.87-18.62,0-.12,0-.27,0-.35A10.08,10.08,0,0,0,177,201c-.45-.18-1.36.31-1.78.76-.26.26-.15,1.1.06,1.56a12.11,12.11,0,0,0,1.25,1.74c1.25,1.79,2.79,3.45,3.66,5.41a67.59,67.59,0,0,1,3.07,9c1.61,5.58,3.07,11.2,4.6,16.81C188,236.5,188.19,236.67,188.34,236.87Z" />
        <path class="color-shadow-dark"
            d="M223.42,195a21.13,21.13,0,0,1-2.87.8c-2.64.33-5.29.55-8,.79-3.68.32-7.36.59-11,.93-3.2.29-6.4.65-9.6,1h-.48c-2.11.08-4.22.21-6.33.22-1.71,0-3.42-.23-5.13-.19-2.26.06-4.52.29-6.78.45h-1.19a81.36,81.36,0,0,0-8.29.84c-7.7,1.58-15.37,3.34-23,5.09-3.25.75-6.45,1.7-9.71,2.45-3.52.8-7.12,1.29-10.59,2.24-2.06.56-4.5.54-6,2.61-.17.25-.64.31-1,.4-.62.15-1.25.24-1.87.39-5.26,1.23-10.5,2.52-15.78,3.68-1.09.24-1.1.65-1,1.55.34,2.15.68,4.32.81,6.49.14,2.35,0,4.72,0,7.07a21.09,21.09,0,0,0,.5,2.8,28.38,28.38,0,0,1,.75,5.12c0,1.66.15,2,1.82,1.56,2.11-.55,4.23-1.07,6.36-1.5,4.36-.87,8.73-1.62,13.08-2.53,1.69-.35,3.33-1,4.47-1.32l4.49,2.22L133.1,241a9.32,9.32,0,0,0,3,1.31c1.15.08,2.34-.49,3.89-.86l-3-4.09a11.94,11.94,0,0,0-4.83-4.67l.16-.26,4.42.84c.33.12.66.27,1,.38a8.22,8.22,0,0,1,5.93,6.11,47.86,47.86,0,0,0,5.39,13.47A38.42,38.42,0,0,0,158,263.73c2.15,1.69,4.45,3.21,6.69,4.8a43.3,43.3,0,0,0,5.21,3.57A40.16,40.16,0,0,0,183.5,276a13.61,13.61,0,0,1,7.1,2.79,43.5,43.5,0,0,0,5.74,4.26,102.7,102.7,0,0,0,9.49,4.48q8.29,3.58,16.65,7c3.58,1.45,7.2,2.82,10.87,4,3.92,1.31,7.91,2.47,11.89,3.6q9.06,2.58,18.17,5a35.76,35.76,0,0,0,4.06.62c.47-3.21.77-6.17,1.35-9.09,1.16-5.92,2.56-11.8,3.68-17.73.9-4.79,1.56-9.63,2.25-14.46.35-2.51.5-5.05.75-7.58.47-4.62,1-9.23,1.4-13.86.28-3.61.32-7.24.51-10.86.12-2.14.32-4.28.52-6.41.37-3.83.92-7.65,1.11-11.49s.09-7.84,0-11.76c0-1.53-.3-3-.46-4.58-.08-1-.15-2-.26-3-.08-.66-.39-.95-1.15-.79-2.09.43-4.2.81-6.31,1.14a13.4,13.4,0,0,1-2,0c-5.35,0-10.7.09-16,0-6.25-.14-12.49-.46-18.73-.7l-8-.31c-.9,0-.87-.77-1.06-1.35,3.26-.18,6.53-.4,9.79-.54,6.51-.28,13-.4,19.51-.78,6.92-.41,13.84-1,20.76-1.57l4.44-.36c.11,3.29.25,6.57.32,9.85.07,3.79.11,7.58.1,11.37,0,1.91-.13,3.83-.23,5.75-.28,5.26-.48,10.53-.87,15.79Q278,246.26,277,258.14c-.58,6.39-1.28,12.78-1.94,19.17q-1,10.13-2.12,20.24c-.55,5.11-1.13,10.21-1.73,15.65a44.24,44.24,0,0,1-6.3-.9c-5.67-1.66-11.28-3.51-16.9-5.34s-11-3.61-16.46-5.55c-3.16-1.12-6.19-2.61-9.35-3.73-4.59-1.63-9.24-3.1-13.88-4.59a49.59,49.59,0,0,1-17.9-9.69c-3.61-3.14-7.49-5.25-12.51-5.13-3.83.1-7.4-1.41-11-2.66-4-1.41-7.33-3.85-10.62-6.39-1.2-.93-2.38-1.88-3.5-2.9a16.19,16.19,0,0,1-4.54-8.28c-.53-2-1.39-4-2-6s-.9-4.06-1.61-6c-1.13-3.14-2.39-6.25-3.82-9.27-.38-.8-1.54-1.26-2.37-1.82-.15-.1-.46.06-.91.14,4.18,2.73,3.34,7.31,4.78,10.92-1.71.66-3.27,1.34-4.89,1.83a3.44,3.44,0,0,1-1.75-.34,1.1,1.1,0,0,1-.5-.5c-1.65-2.76-4.26-4.34-7-5.81a43.85,43.85,0,0,1-4.06-2.75,2.52,2.52,0,0,0-2.47-.19,49.8,49.8,0,0,1-6.41,1.74c-4.88.87-9.78,1.58-14.67,2.33-1.14.18-2.3.21-3.45.37a1.68,1.68,0,0,1-2.1-1.59c-.47-3.48-1-7-1.22-10.45s-.33-7.15-1.35-10.64c-1.13-3.89-.49-4.76,3.39-5.76,5.8-1.5,11.59-3,17.35-4.68a14.93,14.93,0,0,0,4-2,13.81,13.81,0,0,1,7.54-1.87,40.63,40.63,0,0,0,9-1.4c4.49-1.14,8.9-2.58,13.34-3.9s8.6-2.76,13-3.85a42.25,42.25,0,0,1,8.39-1.14c5.62-.23,11.26-.23,16.89-.3,8.34-.11,16.68-.25,25-.3C214.71,194.77,219.07,194.89,223.42,195Z" />
        <path class="transparent"
            d="M65,247.64c-3.08-2.35-5.55-.19-8.29.52a5.59,5.59,0,0,1,.82-.86c3.93-2.73,7.88-5.42,11.78-8.18a14.91,14.91,0,0,0,2.58-2.31c2-2.26,3.94-4.58,5.89-6.87l-.28-.29c-.72.66-1.44,1.31-2.14,2s-1.53,1.53-2.31,2.28-1.56,1.47-2.52,2.37c-.53-1-1.15-2-1.6-3.09-.27-.65.58-1.61,1.43-1.73,1-.16,2.11-.26,3.44-.42-.4-.36-.55-.62-.77-.68A11.6,11.6,0,0,0,67,230c-2.93.75-5.94,1.25-8.92,1.8a27.1,27.1,0,0,0-10.47,3.92,9.86,9.86,0,0,0-3.47,4.35,31.26,31.26,0,0,1-5.93,9.1A8,8,0,0,1,32.33,252l2.35-6,.26.06.32,1.41h.43c0-1.18,0-2.37,0-3.55a2,2,0,0,1,.09-.69c1.64-4.25,3.26-8.51,5-12.72A3.75,3.75,0,0,1,42.34,229c4.46-2.64,9.49-3.75,14.33-5.38a51.68,51.68,0,0,1,10.22-1.89,5.86,5.86,0,0,0,2.2-.68H59.17c1.42-.83,2.65-2.13,4.41-2.37,2-.29,4.12-.51,6.19-.63,5-.29,10-.51,15.06-.76l5.43-.31c.26,2.09.54,4.13.75,6.18s.29,3.91.46,5.86c.24,2.66.49,5.33.8,8a31.23,31.23,0,0,0,.69,3.16,1.15,1.15,0,0,1-.89,1.55c-3,.81-6,1.62-9,2.39-1.28.33-2.63.41-3.86.85-2.16.77-4.27,1.7-6.38,2.62-2.41,1.05-4.86,2.06-7.2,3.26a12.12,12.12,0,0,1-7.1,1,5.32,5.32,0,0,1-1.38-.59c.24-.44.37-1.06.74-1.28a37.2,37.2,0,0,1,4.7-2.51C63.17,247.17,64,247.53,65,247.64Z" />
        <path class="transparent"
            d="M49.51,244.71a5.83,5.83,0,0,1,.58-1.25c1.86-2.43,3.71-4.89,5.68-7.24a13.46,13.46,0,0,1,2.63-2c2.86-2,6.32-1.89,9.53-2.76.19,1.7,0,1.95-1.72,2.39s-3.36.77-4.61,2.1a11.42,11.42,0,0,0-1.13,1.37c-2.53,3.77-6.24,5.9-10.36,7.44C50,244.81,49.88,244.75,49.51,244.71Z" />
        <path class="transparent"
            d="M56.87,233.34c-.84.63-1.44,1.12-2.09,1.55-1.61,1.1-3.23,2.19-4.88,3.24a6.73,6.73,0,0,0-2.55,3c-.81,1.73-1.7,3.44-2.64,5.11a3.66,3.66,0,0,1-4,2c1-1.62,2-3.19,2.87-4.8a20.36,20.36,0,0,0,1.42-3,7.55,7.55,0,0,1,2.68-3.59A17.22,17.22,0,0,1,56.87,233.34Z" />
        <path class="transparent" d="M58.8,221.11l.08-.09a1.3,1.3,0,0,1,.08.17s-.05.05-.08.08Z" />
        <path class="transparent"
            d="M528.39,477.05c-.14.44-.29.88-.43,1.31l-4,11.79a9.84,9.84,0,0,0-.4,1.38,14.23,14.23,0,0,1-2.49,5.47c-2.3,3.35-4.41,6.83-6.47,10.06a17.89,17.89,0,0,0-2.34-1.82c-.29-.16-.94.32-1.46.51.15.25.18.35.23.36.64.16,1.57-.46,1.88.49a4.78,4.78,0,0,1,.29,2.64,11.66,11.66,0,0,1-1.78,3.21c-.45.64-1.18.67-1.38-.26a6.45,6.45,0,0,1-.18-2.68c1.37-5.92,2.88-11.8,4.24-17.72.92-4.06,2.31-8.05,2.14-12.3-.06-1.62-.14-3.25-.22-5,1.33-.27,2.52-.56,3.74-.73,4-.58,8-1.11,12-1.69.88-.12,1.4-.07,1.46,1.06.17,3,.4,6,.72,9,.51,4.79.7,9.62,2.12,14.28a3,3,0,0,1-.09,1.95q-4.25,9.06-8.64,18a4.79,4.79,0,0,1-1.14,1.37q-4.79,4.33-9.6,8.65a.72.72,0,0,1-.65.2l1.19-2a4.21,4.21,0,0,0-2.49,3.86,3,3,0,0,1-.32,1c-.32-.24-.9-.45-.94-.73a8.31,8.31,0,0,1,0-3,12,12,0,0,1,1.66-4c1.8-2.51,3.89-4.81,5.82-7.24a11.73,11.73,0,0,0,1.62-2.61c.94-2.23,1.59-4.61,2.67-6.77s.87-4.16.54-6.27c-.3-1.88-.8-3.73-1.16-5.6a2.91,2.91,0,0,1,.1-1.37c1.13-3.57,2.34-7.11,3.44-10.69.41-1.33.57-2.74.85-4.11Z" />
        <path class="transparent"
            d="M523.42,497.3c.57,1.8,1.16,3.6,1.68,5.42.08.29-.15.69-.27,1-1.06,2.91-2.11,5.83-3.22,8.73a5.31,5.31,0,0,1-1,1.57c-1.62,1.81-3.27,3.59-4.91,5.38a2.09,2.09,0,0,1-.41.43q-3.87,2.39-7.75,4.74c-.76.46-1.18.22-1.52-.6-.73-1.75-.34-3.28,1.36-4.89a17.13,17.13,0,0,1,7.42-4.23c2.92-.74,4.35-2.6,5.18-5.21.88-2.76,1.75-5.52,2.51-8.31a34,34,0,0,0,.64-4Z" />
        <path class="transparent"
            d="M522,496.88a21.92,21.92,0,0,1-2.3,11.53c-.58,1.27-1.08,2.58-1.78,3.78a3.3,3.3,0,0,1-1.55,1.11c-.8.35-1.74.41-2.48.82a4.77,4.77,0,0,1-4.42.21c-1.39-.58-2.85-1-4.24-1.61-1.07-.45-1.12-1.19-.21-1.94a4.48,4.48,0,0,1,3.33-.78,23.84,23.84,0,0,0,1.77,3.61c.73,1,1.62.93,2.37-.1s1.23-2.14,1.88-3.19c.23-.38.56-.85.94-1a3.31,3.31,0,0,0,1.9-1.84c1-1.89,2.17-3.72,3.1-5.65a34.68,34.68,0,0,0,1.42-4.13Z" />
        <path class="color-shadow-dark"
            d="M526.54,409.9c-1.94-.72-3.92-1.33-5.79-2.19a45.33,45.33,0,0,0-13.49-3.34,2.27,2.27,0,0,1-.67-.35c3.35.4,6.71.72,10,1.22,1.87.29,3.7.86,5.55,1.3A6,6,0,0,1,526.54,409.9Z" />
        <path class="transparent" d="M519.94,500.78l-4.18,7.65-.41-.23,4.17-7.69Z" />
        <path class="transparent" d="M506.3,509a2.14,2.14,0,0,1,2.48-1.25c.23.05.36.51.64.93Z" />
        <path class="transparent" d="M515,475l-.21,2.17c-.22-.77-.93-1.57-.31-2.28Z" />
        <path class="color-shadow-dark" d="M522.14,405.38l2,1.12Z" />
        <path class="color-shadow"
            d="M278.6,199.9c.16,1.53.43,3,.46,4.58.07,3.92.17,7.85,0,11.76s-.74,7.66-1.11,11.49c-.2,2.13-.4,4.27-.52,6.41-.19,3.62-.23,7.25-.51,10.86-.37,4.63-.93,9.24-1.4,13.86-.25,2.53-.4,5.07-.75,7.58-.69,4.83-1.35,9.67-2.25,14.46-1.12,5.93-2.52,11.81-3.68,17.73-.58,2.92-.88,5.88-1.35,9.09a35.76,35.76,0,0,1-4.06-.62q-9.11-2.43-18.17-5c-4-1.13-8-2.29-11.89-3.6-3.67-1.22-7.29-2.59-10.87-4q-8.37-3.37-16.65-7a102.7,102.7,0,0,1-9.49-4.48,43.5,43.5,0,0,1-5.74-4.26,13.61,13.61,0,0,0-7.1-2.79,40.16,40.16,0,0,1-13.59-3.87,43.3,43.3,0,0,1-5.21-3.57c-2.24-1.59-4.54-3.11-6.69-4.8a38.42,38.42,0,0,1-8.93-10.51,47.86,47.86,0,0,1-5.39-13.47,8.22,8.22,0,0,0-5.93-6.11c-.34-.11-.67-.26-1-.38.54-2.11,2.34-3.11,4.42-1.56a32.36,32.36,0,0,1,9.88,11.18c2.28,4.43,4.52,8.9,7,13.21,2,3.44,4.09,6.92,7.52,9.17a21.5,21.5,0,0,0,5.8,2.72,113.2,113.2,0,0,1,15.68,5.76c3.83,1.77,7.81,3.23,11.69,4.89,2.09.89,4.09,2,6.18,2.86,2.7,1.15,5.43,2.27,8.2,3.26,3.26,1.16,6.55,2.29,9.89,3.2,6.75,1.85,13.55,3.52,20.31,5.33,5.49,1.46,10.95,3,16.42,4.54.37.1.75.18,1.17.28,1.18-4.92,2.33-9.71,3.49-14.49,1.21-5,2.55-10,3.63-15.07q2.43-11.3,4.54-22.66c.93-5,1.68-10.09,2.37-15.16.53-3.9.8-7.82,1.26-11.73.39-3.3.94-6.59,1.35-9.9.25-2,.35-4,.56-5.93C278.25,202.07,278.44,201,278.6,199.9Z" />
        <path class="color-shadow"
            d="M137,237.35l3,4.09c-1.55.37-2.74.94-3.89.86a9.32,9.32,0,0,1-3-1.31l-5.89-2.88-4.49-2.22c-1.14.34-2.78,1-4.47,1.32-4.35.91-8.72,1.66-13.08,2.53-2.13.43-4.25.95-6.36,1.5-1.67.44-1.85.1-1.82-1.56a28.38,28.38,0,0,0-.75-5.12,21.09,21.09,0,0,1-.5-2.8c-.07-2.35.09-4.72,0-7.07-.13-2.17-.47-4.34-.81-6.49-.15-.9-.14-1.31,1-1.55,5.28-1.16,10.52-2.45,15.78-3.68.62-.15,1.25-.24,1.87-.39.34-.09.81-.15,1-.4,1.46-2.07,3.9-2.05,6-2.61,3.47-.95,7.07-1.44,10.59-2.24,3.26-.75,6.46-1.7,9.71-2.45,7.67-1.75,15.34-3.51,23-5.09a81.36,81.36,0,0,1,8.29-.84c-.77.31-1.52.7-2.31.93-4.82,1.34-9.67,2.61-14.48,4-3.53,1-7,2.11-10.52,3.2s-6.89,2.28-10.37,3.27c-5.73,1.63-11.5,3.12-17.25,4.69a29.89,29.89,0,0,1-3,1c-2.85.46-5.73.77-8.6,1.18-3.32.47-6.65,1-9.89,1.47.39,1.87.79,3.6,1.09,5.34.22,1.29.31,2.6.43,3.9.33,3.56.64,7.12,1,10.68.1,1,.75,1,1.57.75,4.32-1.5,8.66-3,13-4.48,2.19-.76,4.37-1.53,6.53-2.35a5.31,5.31,0,0,0,1.61-1c1.39-1.23,1.59-1.28,3.18-.28a42.76,42.76,0,0,0,4.06,2.52c2.69,1.28,5.47,2.38,8.22,3.54A2.34,2.34,0,0,0,137,237.35Z" />
        <path class="color-shadow-dark"
            d="M188.34,236.87c-.15-.2-.38-.37-.44-.59-1.53-5.61-3-11.23-4.6-16.81a67.59,67.59,0,0,0-3.07-9c-.87-2-2.41-3.62-3.66-5.41a12.11,12.11,0,0,1-1.25-1.74c-.21-.46-.32-1.3-.06-1.56.42-.45,1.33-.94,1.78-.76a10.08,10.08,0,0,1,4.59,3.86c.05.08,0,.23,0,.35l-1.95-1.68-.29.27.72,1.14a39.93,39.93,0,0,1,2.8,4.45,57.29,57.29,0,0,1,4.93,18.44C188.16,230.81,188.19,233.85,188.34,236.87Z" />
        <path class="outline"
            d="M188.34,236.87c-.15-3-.18-6.06-.49-9.07a57.29,57.29,0,0,0-4.93-18.44,39.93,39.93,0,0,0-2.8-4.45l-.72-1.14.29-.27,1.95,1.68c4.37,5.44,6.08,11.91,6.87,18.62.55,4.73.57,9.53.76,14.3a55.22,55.22,0,0,1,0,6.17c-.18,2.75-.54,5.49-.82,8.23-.12,1.12-.23,2.24-.35,3.36l-.33,0c.07-.75.21-1.5.22-2.25C188.11,248,188.22,242.44,188.34,236.87Z" />
        <path class="color-shadow" d="M172.76,199h0Z" />
        <path class="color-shadow" d="M191.48,198.46h0Z" />
    </g>
</svg>
