<svg id="manshety" xmlns="http://www.w3.org/2000/svg" viewBox="0 0 672 960">
    <g id="img_41_img" data-name="img 41 img">
        <path class="outline"
            d="M38.6,250.52l-1.44,1.24-.51.39a29.48,29.48,0,0,1-3.57,1.22,2,2,0,0,1-1.71-.58,2.1,2.1,0,0,1,.05-1.73c.89-2,1.91-3.92,2.85-5.89a13.19,13.19,0,0,0,.54-1.57l.33-.56.26-.66.2-.55,1.26-3.94.21-.61c.87-2.36,1.66-4.75,2.65-7.07a3.82,3.82,0,0,1,1.75-1.8c3.64-1.63,7.35-3.1,11-4.68a18.29,18.29,0,0,0,6.89-4.68c1.5-1.75,3.61-1.71,5.62-1.8,6.32-.31,12.64-.55,19-.81,1,0,2.07-.11,3.11-.1a2.84,2.84,0,0,0,2.69-1.81,2.48,2.48,0,0,1,1.31-1.17c5-1.4,10-2.61,15-4.11,4.11-1.23,8.11-2.85,12.2-4.17a13.57,13.57,0,0,1,4.11-.58c3.47,0,6.61-1.32,9.86-2.22,8.95-2.46,17.87-5,26.84-7.35a34.85,34.85,0,0,1,6.84-.92c3.75-.21,7.51-.23,11.26-.31,2.15,0,4.3,0,6.45-.08l14.1-.28c2,0,3.9-.09,5.85-.07,4,0,8.07.23,12.1.2,4.29,0,8.58-.26,12.87-.39,3-.08,5.95-.11,8.92-.2,3.17-.1,6.34-.26,9.5-.36,2.42-.08,4.84-.05,7.26-.16s4.91-.3,7.36-.48c2.81-.21,5.62-.41,8.43-.68,3.46-.33,6.91-.73,10.37-1.09a2.32,2.32,0,0,1,.63.12c-.09,1.26-.21,2.52-.24,3.78-.11,4.11-.18,8.22-.25,12.34-.09,5-.06,10.07-.29,15.09-.26,5.73-.77,11.44-1.15,17.16-.19,3-.29,6-.49,9-.29,4.37-.62,8.73-1,13.1-.23,3-.45,6-.73,9-.36,3.91-.79,7.82-1.16,11.73-.28,2.93-.48,5.86-.76,8.79-.26,2.72-.6,5.43-.9,8.14q-.39,3.6-.77,7.21c-.34,3.27-.64,6.56-1.05,9.83-.07.54-.6,1-1.09,1.52-.25-1.11-.86-1.26-1.78-1.32A53.14,53.14,0,0,1,255,312.18q-13.15-4.67-26.26-9.51c-4.78-1.77-9.46-3.79-14.23-5.56-3.6-1.33-7.3-2.36-10.91-3.65-5.68-2-10.66-5.31-15.42-8.91a15.34,15.34,0,0,0-10-3.1,25,25,0,0,1-19.68-8.31,12.57,12.57,0,0,0-2.48-2.25,21.5,21.5,0,0,1-9.64-13.22,54.58,54.58,0,0,0-2.9-7,1.28,1.28,0,0,0-1.94-.74c-.62.28-1.25.53-1.86.83a3.92,3.92,0,0,1-4.72-.92,6.75,6.75,0,0,1-1.33-1.68c-2-3.87-5.84-5.58-9.39-7.52-.87-.47-2.27-.14-3.39.05-3.77.65-7.51,1.46-11.28,2.11q-7.09,1.21-14.21,2.26c-2.28.35-2.68-.11-2.4-2.42,0-.1,0-.22,0-.09-4.33,1-8.68,1.79-12.94,3a52.29,52.29,0,0,0-7.06,2.88c-2.41,1.07-4.77,2.25-7.17,3.35A16.08,16.08,0,0,1,57.62,253c-1.34-.1-1.93-1.07-2.28-2.16a3,3,0,0,1,.9-3.48c2.07-1.57,4.19-3.07,6.33-4.55,1.7-1.18,3.5-2.23,5.19-3.44A29.34,29.34,0,0,0,70.35,237,8.63,8.63,0,0,0,69,235.51a2,2,0,0,0-1.39-.21c-1.29.22-2.58.5-3.85.85a2.42,2.42,0,0,0-1.37.8c-1.47,2.49-3.81,4-6.12,5.51a40.55,40.55,0,0,1-5.6,2.88,2,2,0,0,1-1.82-.21A1.59,1.59,0,0,1,49,243c1.5-1.81,3-3.62,4.47-5.43l-.19-.33c-.62.32-1.25.61-1.86.95s-1.31.78-2,1.17L48,242.17l-.43.88-.74,1.54c-.86,1.37-1.65,2.79-2.61,4.09-.37.5-1.12.71-1.7,1l-.55.12-1.86-.23-.83.12,0,0Zm64.06-35.25c.37,2,.8,4,1.1,6.1.88,5.94,2.23,11.83,2.34,17.88v2.05c.84.23,1.2,0,1.08-.76-.06-.43-.12-.85-.17-1.27-.1-2-.06-4.08-.33-6.08-.81-6-1.74-11.94-2.62-17.9l-.77-3-1.39.49Zm-1,0-.5-2.23c-1.92.42-3.64.77-5.34,1.17-3.87.91-4.53,1.9-3.41,5.75,1,3.57,1.11,7.21,1.36,10.87.23,3.45.76,6.89,1.24,10.32.12.82.54,1.64,1.66,1.51l8.41-.95-.25-2,0-1.93a19.58,19.58,0,0,0-.07-2c-.26-2-.59-4-.88-6l-1.71-12.08Zm3.12-.43.56,2.35a5.77,5.77,0,0,0,0,.72q1.23,9.27,2.45,18.55l.33,2.58V241a6.34,6.34,0,0,0,.91,0c2.17-.33,4.34-.63,6.5-1s4.37-.54,6.29-1.74a1.81,1.81,0,0,1,2.13.16,49.65,49.65,0,0,0,4.27,2.86c2.69,1.47,5.27,3,6.89,5.74a3.39,3.39,0,0,0,.41.44,1.68,1.68,0,0,0,2.07.4c1.5-.6,3-1.17,4.6-1.77-.29-1.33-.56-2.74-.9-4.13-.62-2.51-.89-5.24-3.62-6.74.3-.16.64-.3.81-.19.81.53,1.86,1,2.28,1.75a39.18,39.18,0,0,1,2.86,6.3c1,2.83,1.59,5.77,2.45,8.63s1.7,5.49,2.7,8.19a21.86,21.86,0,0,0,2.16,4.36c1.6,2.45,4.1,4,6.3,5.83,4.88,4.08,10.58,6.33,16.66,7.76a16.65,16.65,0,0,0,4.38.55,15.2,15.2,0,0,1,10.81,4.08,53.79,53.79,0,0,0,19.91,11c4.8,1.49,9.57,3.11,14.31,4.79,3.23,1.15,6.35,2.62,9.59,3.76,6.36,2.25,12.79,4.31,19.15,6.55a83.8,83.8,0,0,0,14.35,4.17c1.55.25,3.13.33,4.77.5.6-5.38,1.17-10.49,1.72-15.6Q274,287.34,275,277.16c.65-6.34,1.35-12.69,1.93-19,.7-7.75,1.42-15.51,1.9-23.27s.74-15.79,1-23.69c.12-3.55.08-7.1,0-10.65,0-3-.22-5.93-.33-8.89l-4.32.34c-6.95.54-13.91,1.18-20.87,1.59-6.49.38-13,.5-19.5.78-3.26.14-6.53.36-9.79.54l-1.66.08c-4.35-.06-8.71-.18-13.06-.15-8.3,0-16.6.19-24.89.3-5.67.08-11.35.06-17,.3a43.38,43.38,0,0,0-8.5,1.17c-4.3,1.06-8.5,2.51-12.74,3.78-4.44,1.32-8.85,2.75-13.33,3.89a40,40,0,0,1-9.07,1.44,14.45,14.45,0,0,0-7.66,1.91,19.32,19.32,0,0,1-6.57,2.73c-1.37.27-2.7.7-4,1.07-2.58.71-2.58.72-1.88,3.26A.62.62,0,0,0,104.8,214.84Zm-14.54,2.09c-1.44.1-2.66.21-3.89.27-6.61.35-13.22.72-19.84,1a13.88,13.88,0,0,0-7.6,2.81H69.1a6,6,0,0,1-2.21.68,51.64,51.64,0,0,0-10.23,1.89c-4.84,1.63-9.87,2.75-14.32,5.38a3.75,3.75,0,0,0-1.58,1.52c-1.72,4.22-3.34,8.47-5,12.72a2,2,0,0,0-.09.7c0,1.18,0,2.36,0,3.54h-.43l-.32-1.4-.26-.06-2.34,6a8,8,0,0,0,5.83-2.79A36.3,36.3,0,0,0,44,240.32a13.11,13.11,0,0,1,2.73-3.86C50,233.65,54,232.63,58,231.82c3.13-.62,6.25-1.28,9.38-1.93a10.88,10.88,0,0,1,5.76.53c.17.06.29.29.6.63-1.28.15-2.34.25-3.4.41-.85.12-1.69,1.09-1.42,1.73.45,1.08,1.07,2.08,1.67,3.21l6.84-6.87.3.28a1.68,1.68,0,0,1-.16.39c-1.4,1.63-2.76,3.3-4.21,4.88a31,31,0,0,1-4.08,4c-3.85,2.83-7.84,5.47-11.76,8.2a5.66,5.66,0,0,0-.82.87c2.72-.74,5.2-2.82,8-.65a12.25,12.25,0,0,0-2.07-.13,8.87,8.87,0,0,0-5,2.7c-.93,1-.8,1.47.58,1.67a12,12,0,0,0,7.33-1c2.35-1.2,4.79-2.21,7.21-3.26,2.11-.92,4.21-1.85,6.37-2.62,1.23-.44,2.59-.52,3.86-.85,3-.77,6-1.59,9-2.39a1.16,1.16,0,0,0,.88-1.56,31.65,31.65,0,0,1-.69-3.15c-.31-2.66-.56-5.33-.8-8-.17-1.95-.26-3.91-.46-5.85S90.52,219,90.26,216.93ZM49.37,244.79c3.19-.32,9.24-4.45,10.75-6.88a13.88,13.88,0,0,1,1.52-2c1.23-1.34,3-1.65,4.62-2.08s1.93-.74,1.64-2.3c-2.26.41-4.66.49-6.76,1.32-2.35.93-4.72,2-6.24,4.4a75.13,75.13,0,0,1-4.69,6A12.92,12.92,0,0,0,49.37,244.79Zm-8.79,3.43a3.78,3.78,0,0,0,4.14-2.05c.93-1.63,1.81-3.29,2.59-5A7.07,7.07,0,0,1,50,238c2-1.3,4-2.67,5.94-4a9.07,9.07,0,0,0,.76-.68,16.31,16.31,0,0,0-9.36,3.72,12,12,0,0,0-2.3,3.13c-1,1.76-1.85,3.62-2.82,5.41C41.78,246.46,41.19,247.26,40.58,248.22ZM58.8,221.11l.08.16s.08-.06.08-.08a1.3,1.3,0,0,0-.08-.17Z" />
        <path class="outline"
            d="M479.57,327c-.66-3.35-1.36-6.7-2-10.06-.5-2.7-.91-5.43-1.39-8.14-.4-2.23-.9-4.44-1.26-6.67a31.9,31.9,0,0,1-.47-4.56c-.07-3.25,0-6.5,0-9.48l.56,1.16c.19-1.11.36-1.93.44-2.75.25-2.35.41-4.7.69-7.05s.67-4.58,1-6.88c.18-1.3.39-2.61.45-3.92a1.71,1.71,0,0,1,1.07-1.51c4-2.22,8-4.56,12.11-6.6,5.15-2.56,10.42-4.87,15.64-7.3,2.74-1.28,5.49-2.56,8.22-3.9,2.57-1.26,3.07-1.07,4.15,1.47,1.74,4.12,3.68,8.15,5.27,12.32,2.29,6,4.71,11.95,6.41,18.11,2.65,9.53,4.06,19.34,5.46,29.14.63,4.4,1.41,8.78,2.14,13.17.57,3.41,1.15,6.81,1.76,10.22s1.28,6.65,1.82,10a89.55,89.55,0,0,1,.9,17.62q-.28,8-.67,16c-.13,2.82-.36,5.64-.56,8.46-.32,4.59,1,8.92,2.09,13.3.79,3.06,2.59,5.56,4,8.3,2,4.1,1.85,8-.91,11.71-1.1,1.47-2.26,2.88-3.37,4.35-.77,1-1.51,2.06-2.25,3.1a5.85,5.85,0,0,0-.76,5.48,11.63,11.63,0,0,1,.41,5.55c-.9,6-.36,12-.44,18,0,4.12.14,8.23.25,12.35.06,2.64-.5,3.26-3.08,3.47-1.11.09-2.2.33-3.21.48.19,2,.31,4,.58,5.88.82,5.72,1.54,11.46,2.64,17.13a9.81,9.81,0,0,1-1.22,6.41c-2.3,4.78-4.7,9.52-7,14.28a12,12,0,0,1-3.25,3.74c-2.44,2-4.7,4.33-6.92,6.61-1.45,1.49-2.7,3.15-4,4.74a1.51,1.51,0,0,1-2.66-.28c-1-1.65-.56-3.3-.07-4.94a17.76,17.76,0,0,0,.83-3c-.74.46-1.5.92-2.24,1.39-.95.6-1.85,1.29-2.84,1.8-1.83.94-3.24.05-3.31-2.06a7.49,7.49,0,0,1,3-6c.8-.71,1.72-1.28,2.72-2l-4-1.31c-.41-.14-.82-.28-1.21-.45-2.28-.95-2-2.35-.27-4,.27-.26.66-.61.65-.91,0-1.32.9-1.76,1.87-2,2.11-.52,2-.48,2.53-2.52.8-3.35,1.8-6.65,2.54-10,.88-4,2.37-7.88,2.2-12a34.93,34.93,0,0,0-1-5.29c-.11-.58-.2-1.16-.3-1.73-.08-.05-.14-.12-.21-.13-2.42-.13-2.57-.36-3.33-2.74-2.59-8-3.12-16.4-4.24-24.67-.56-4.11-.84-8.27-1.33-12.39a4,4,0,0,0-1-2,5.3,5.3,0,0,1-1.27-3.38c-.15-2.27-.61-4.52-.69-6.79-.15-4.11-.07-8.22-.18-12.33-.05-2.08-.33-4.14-.5-6.21a5.06,5.06,0,0,0-1.87-3.6,14.38,14.38,0,0,1-4.44-7c-1.16-3.86-2.7-7.61-3.83-11.48-.83-2.88-1.28-5.87-1.87-8.82s-1.17-5.78-1.71-8.68c-.58-3.15-1.08-6.33-1.68-9.48s-1.3-6.16-1.92-9.25a16.52,16.52,0,0,1-.21-2c.2.18.53.33.59.54.43,1.71.82,3.43,1.2,5.16s.69,3.44,1.07,5.15c1.06,4.86,2.15,9.72,3.21,14.59.8,3.69,1.57,7.39,2.36,11.08a40.81,40.81,0,0,0,4.31,11.49,32.05,32.05,0,0,0,2.45,4.37c1.91,2.43,4.07,4.6,7.5,4.8a50.49,50.49,0,0,1,13.71,2.57l2.82,1.22,2,1.12a9.57,9.57,0,0,1,1.78,1.49,6.31,6.31,0,0,1,.63,1.91,6,6,0,0,0-4.36-3.36c-1.85-.44-3.68-1-5.55-1.3-3.33-.5-6.69-.82-10-1.22l-1.41,0-2.48-.36c.06.61.12,1.06.16,1.52a63.15,63.15,0,0,1,.52,7.74c-.3,5.69-1,11.37-.43,17.08a7.72,7.72,0,0,0,.67,2.09,11,11,0,0,1,1,2.13c.61,3.41,1.13,6.83,1.65,10.26q1.13,7.5,2.21,15c.25,1.7.21,1.71,2,1.44l1.67-.22c5.11-.62,10.21-1.19,15.31-1.86,2.83-.38,5.64-.93,8.46-1.4a7.3,7.3,0,0,0,1.64-.28c.38-.17.88-.59.92-.94a65.68,65.68,0,0,0,.55-6.56c.08-4.91,0-9.82,0-14.73a9.55,9.55,0,0,0-.12-1.06c-.2-1.62-.43-3.24-.58-4.86a3.27,3.27,0,0,1,.17-1.83c1-1.68,2.07-3.31,3.2-4.9,1.27-1.78,2.74-3.43,3.94-5.27a7.22,7.22,0,0,0,.54-7.21,17,17,0,0,0-2.63-4.1c-1.92-2.18-2.49-4.85-3.27-7.5A32.4,32.4,0,0,1,538.92,387c.27-4.26.77-8.5,1.07-12.75.26-3.71.33-7.42.58-11.13a97.28,97.28,0,0,0-.74-19.45c-.45-3.31-1.34-6.56-2-9.84-.65-3.53-1.22-7.07-1.8-10.6-.87-5.4-1.75-10.79-2.55-16.19-1.37-9.21-3-18.41-6.14-27.18-3.45-9.66-7.52-19.11-11.3-28.65-.3-.76-.74-.76-1.41-.51a230,230,0,0,0-25.59,11.48c-2.61,1.37-5.11,3-7.6,4.54a7.44,7.44,0,0,0-3.48,5.95c-.4,4.48-.69,9-1.28,13.44a67.56,67.56,0,0,0-.35,17.74c.37,2.86.72,5.72,1.12,8.58.37,2.68.79,5.35,1.17,8C479,322.63,479.27,324.84,479.57,327Zm31.84,134.74a8.38,8.38,0,0,1-1.4.18c-1.19,0-1.22.55-.83,1.55l2.47-.36c1.67-.16,3.34-.25,5-.51,6.49-1,13-2.08,19.46-3.13a5.71,5.71,0,0,1,.92-.16c1.05-.05,1.5-.5,1.16-1.59l-2.08.45c-4.23.71-8.46,1.5-12.7,2.12C519.42,460.91,515.41,461.31,511.41,461.78Zm.72,2.4a12,12,0,0,0-2,.26c-.27.08-.66.61-.6.85.51,2.25,1.09,4.49,1.69,6.73a1.65,1.65,0,0,0,2.08,1.31l5.44-.79q9.59-1.46,19.15-3c.22,0,.56-.37.55-.56-.12-3-.29-6-.46-9.15l-2.38.62c-1.3.22-2.58.46-3.88.66Zm3.93,10.16c.09,1.88.17,3.51.23,5.13.17,4.25-1.21,8.24-2.14,12.3-1.35,5.92-2.86,11.81-4.23,17.72a5.9,5.9,0,0,0,.12,2.57c.22,1,.92,1.13,1.51.32a11.73,11.73,0,0,0,1.69-3c.72-2.11-.1-3.23-2.14-3.26-.05,0-.09-.1-.28-.36.58-.2,1.26-.69,1.58-.51a14.51,14.51,0,0,1,2.3,1.87l.32-.49c2-3.25,4.07-6.5,6.13-9.73a16.35,16.35,0,0,0,2.21-4.3c1.48-5.09,3.21-10.1,4.86-15.13,0-.16.21-.27.32-.41l.36.11c-.27,1.37-.44,2.77-.84,4.1-1.1,3.58-2.31,7.13-3.44,10.69a2.92,2.92,0,0,0-.12,1.37c.36,1.88.86,3.72,1.16,5.6a9.67,9.67,0,0,1-.53,6.26,47.18,47.18,0,0,0-2.37,6,10.91,10.91,0,0,1-2.29,3.84,83.2,83.2,0,0,0-5.58,7,10.6,10.6,0,0,0-1.52,3.85,10.15,10.15,0,0,0,.13,3.24c0,.21.54.35.83.53.13-.3.39-.61.38-.9a4.16,4.16,0,0,1,2.47-4l-1.21,2a.56.56,0,0,0,.55-.11c3.26-2.94,6.53-5.86,9.78-8.81a4.52,4.52,0,0,0,1.06-1.29c2.92-6,5.83-12.07,8.68-18.14a2.82,2.82,0,0,0,.06-1.84c-1.62-5.6-1.82-11.39-2.35-17.14-.2-2.14-.4-4.28-.53-6.43-.05-.87-.46-1-1.17-.86-.94.17-1.89.31-2.84.45Zm7.37,23-.31,0a32.6,32.6,0,0,1-.6,4c-.77,2.83-1.66,5.63-2.55,8.42-.82,2.56-2.23,4.41-5.09,5.16a17.18,17.18,0,0,0-7.52,4.27c-1.66,1.57-2.05,3.1-1.39,4.8.38,1,.91,1.1,1.72.61q3.76-2.29,7.54-4.63a3,3,0,0,0,.49-.51c1.61-1.76,3.24-3.51,4.83-5.29a5.13,5.13,0,0,0,1-1.56c1.14-3,2.23-6,3.32-8.95a2,2,0,0,0,.18-1C524.56,500.82,524,499.09,523.43,497.35Zm-1.36-.8c-.19.64-.26,1-.37,1.27a43.1,43.1,0,0,1-1.54,4.21c-.84,1.76-1.9,3.41-2.81,5.13-.51,1-1,1.89-2.15,2.23-.37.11-.66.62-.9,1-.67,1.07-1.23,2.23-2,3.26-.58.8-1.35.77-2.17.11-1.19-1-1.32-2.29-1.36-3.66-2.7-.41-4.16.28-4.45,2.31,1.62.6,3.31,1.18,5,1.86a5,5,0,0,0,4.64-.19,18.33,18.33,0,0,1,2.6-.83,2.38,2.38,0,0,0,1.21-.84c.72-1.32,1.34-2.7,2-4.08A23.2,23.2,0,0,0,522.07,496.55Zm-2.12,4.2-.45-.21-4.15,7.68.41.22Zm-10.47,8c-.39-.46-.6-.94-.87-1a2,2,0,0,0-2.25,1.29Zm5.36-31.58c0-.72.1-1.45.16-2.24C514.11,475.24,514.11,475.24,514.84,477.13Z" />
        <path class="color-shadow-dark"
            d="M479.57,327c-.3-2.2-.59-4.41-.9-6.61-.38-2.67-.8-5.34-1.17-8-.4-2.86-.75-5.72-1.12-8.58a67.56,67.56,0,0,1,.35-17.74c.59-4.46.88-9,1.28-13.44a7.44,7.44,0,0,1,3.48-5.95c2.49-1.58,5-3.17,7.6-4.54a230,230,0,0,1,25.59-11.48c.67-.25,1.11-.25,1.41.51,3.78,9.54,7.85,19,11.3,28.65,3.13,8.77,4.77,18,6.14,27.18.8,5.4,1.68,10.79,2.55,16.19.58,3.53,1.15,7.07,1.8,10.6.61,3.28,1.5,6.53,2,9.84a97.28,97.28,0,0,1,.74,19.45c-.25,3.71-.32,7.42-.58,11.13-.3,4.25-.8,8.49-1.07,12.75a32.4,32.4,0,0,0,1.34,11.23c.78,2.65,1.35,5.32,3.27,7.5a17,17,0,0,1,2.63,4.1,7.22,7.22,0,0,1-.54,7.21c-1.2,1.84-2.67,3.49-3.94,5.27-1.13,1.59-2.22,3.22-3.2,4.9a3.27,3.27,0,0,0-.17,1.83c.15,1.62.38,3.24.58,4.86a9.55,9.55,0,0,1,.12,1.06c0,4.91.07,9.82,0,14.73a65.68,65.68,0,0,1-.55,6.56c0,.35-.54.77-.92.94a7.3,7.3,0,0,1-1.64.28c0-1,0-1.93.05-2.88.28-3.36.64-6.71.91-10.07.5-6.48-1.41-12.81-1.26-19.27a1.73,1.73,0,0,0-1-1.33,10.29,10.29,0,0,0-6,.34,19.82,19.82,0,0,1-6.87,1.25,5.39,5.39,0,0,1-1.42-.36l.83-1.55a5,5,0,0,0,1.22,0c3.21-.95,6.4-2,9.62-2.9,2.78-.78,5.55-1.83,8.54-.85.3.09.83-.51,1.26-.79A4.79,4.79,0,0,0,541,418a2,2,0,0,0-1-.13c-3.06,0-5.86,1.05-8.7,2l-7.6,2.54c0-.1.06-.27.14-.32,4.24-2.58,8.56-5,13.46-6.15l3-.69a5.56,5.56,0,0,0,1.53,0c.34-.11.81-.54.82-.85a8.26,8.26,0,0,0-1.4-5.36c-1.1-2.37-2.23-4.74-3.31-7.13a9.68,9.68,0,0,1-1-2.66c-.47-3.65-1-7.31-1.14-11-.09-1.85.56-3.74.77-5.62.55-4.84,1.15-9.68,1.53-14.54.21-2.65,0-5.34,0-8,0-.32,0-.64,0-1-.08-.72-.15-1.44-.23-2.16v-1.2c0-.47,0-1,0-1.42l-.23-1.22v-.94l-.45-.75,0-2.61-.45-.75v-.71a4,4,0,0,0,.19-1.12c-.19-1.65-.43-3.3-.67-4.95-.67-4.43-1.21-8.89-2.06-13.28a154.74,154.74,0,0,1-2.26-16.86l-1-11.88a33.65,33.65,0,0,0-2.22-10.57q-3.9-9.25-7.7-18.55c-1.48-3.61-2.87-7.25-4.28-10.89-.39-1-.68-2-1-3-.25-.7-.53-1.12-1.47-.82-3.68,1.18-7.4,2.24-11.08,3.38-5,1.57-9.56,4.2-14.18,6.62-2.69,1.4-5.47,2.7-7.37,5.2a4.33,4.33,0,0,0-.81,2c-.26,2.29-.35,4.6-.58,6.89-.25,2.52-.58,5-.89,7.56-.37,3-.76,5.9-1.13,8.85-.18,1.47-.76,2.89-.29,4.46.84,2.85,1.64,5.73,2.25,8.64q1.29,6.18,2.26,12.41c.88,5.65,1.54,11.32,2.43,17,1.48,9.34,3.45,18.58,5.61,27.79a111.67,111.67,0,0,1,2,13.28c.2,1.83.11,3.66,1.12,5.28a44.59,44.59,0,0,0,3.81,5.89,44.09,44.09,0,0,0,5.35,4.74,15.52,15.52,0,0,0,2,1.21,33,33,0,0,0,3.12,1.74c2.7,1.16,5.44,2.22,8.16,3.32.31.26.61.54.94.79.8.62,1.62,1.23,2.43,1.84a50.49,50.49,0,0,0-13.71-2.57c-3.43-.2-5.59-2.37-7.5-4.8a32.05,32.05,0,0,1-2.45-4.37,40.81,40.81,0,0,1-4.31-11.49c-.79-3.69-1.56-7.39-2.36-11.08-1.06-4.87-2.15-9.73-3.21-14.59-.38-1.71-.7-3.44-1.07-5.15s-.77-3.45-1.2-5.16c-.06-.21-.39-.36-.59-.54-.2-1.21-.38-2.43-.58-3.65-.15-.88-.3-1.76-.48-2.63-.71-3.39-1.44-6.78-2.15-10.17C479.65,327.66,479.62,327.35,479.57,327Z" />
        <path class="color-shadow-dark" d="M48,242.17l1.43-2.86Z" />
        <path class="color-shadow-dark" d="M46.83,244.59l.74-1.54Z" />
        <path class="color-shadow-dark" d="M38.6,250.52l.65-.74Z" />
        <path class="color-shadow-dark" d="M39.28,249.74l.83-.12Z" />
        <path class="color-shadow-dark" d="M37.07,237.28l-.21.61Z" />
        <path class="color-shadow-dark" d="M42,249.85l.55-.12Z" />
        <path class="color-shadow-dark" d="M35.14,243l-.33.56Z" />
        <path class="color-shadow-dark" d="M36.65,252.15l.51-.39Z" />
        <path class="color-shadow-dark" d="M35.6,241.83l-.2.55Z" />
        <path class="color-base"
            d="M107.81,236.46q-1.23-9.27-2.45-18.55a5.77,5.77,0,0,1,0-.72c.79-.08,1.58-.15,2.36-.25,2.09-.27,4.18-.49,6.24-.87,1-.18,1.88-.85,2.86-1a140.9,140.9,0,0,0,18-4.79c3-.94,6-2,9.09-2.94,3.79-1.18,7.59-2.38,11.41-3.47,4.81-1.38,9.65-2.64,14.47-4a21.78,21.78,0,0,0,2.31-.92h1.19c2.26-.16,4.52-.39,6.78-.45,1.71,0,3.42.2,5.13.19,2.11,0,4.22-.14,6.33-.22H192c3.2-.34,6.4-.7,9.6-1,3.68-.34,7.36-.61,11-.93,2.66-.24,5.31-.46,8-.79a21.13,21.13,0,0,0,2.87-.8l1.66-.08c.19.58.16,1.32,1.06,1.35l8,.31c6.24.24,12.48.56,18.73.7,5.35.12,10.7,0,16,0a13.4,13.4,0,0,0,2,0c2.11-.33,4.22-.71,6.31-1.14.76-.16,1.07.13,1.15.79.11,1,.18,2,.26,3-.16,1.09-.35,2.17-.47,3.26-.21,2-.31,4-.56,5.93-.41,3.31-1,6.6-1.35,9.9-.46,3.91-.73,7.83-1.26,11.73-.69,5.07-1.44,10.13-2.37,15.16q-2.11,11.36-4.54,22.66c-1.08,5-2.42,10-3.63,15.07-1.16,4.78-2.31,9.57-3.49,14.49-.42-.1-.8-.18-1.16-.28-5.48-1.51-10.94-3.08-16.43-4.54-6.76-1.81-13.56-3.48-20.31-5.33-3.34-.91-6.63-2-9.89-3.2-2.77-1-5.5-2.11-8.2-3.26-2.09-.88-4.09-2-6.18-2.86-3.88-1.66-7.86-3.12-11.69-4.89A113.2,113.2,0,0,0,171.39,268a21.5,21.5,0,0,1-5.8-2.72c-3.43-2.25-5.54-5.73-7.52-9.17-2.53-4.39-4.78-8.93-7.12-13.42a32.25,32.25,0,0,0-9.77-11c-2.08-1.55-3.88-.55-4.42,1.56l-4.42-.84-.16.26a11.94,11.94,0,0,1,4.83,4.67,12.23,12.23,0,0,1-1.51-.31,47.43,47.43,0,0,1-11.4-5.73c-1.69-1.13-1.8-1.08-3.34.31a3.06,3.06,0,0,1-.88.6C115.86,233.65,111.83,235.05,107.81,236.46Zm73.83-31.28c0-.12,0-.27,0-.35A10.08,10.08,0,0,0,177,201c-.45-.18-1.35.31-1.78.76-.26.26-.15,1.1.06,1.56a12.11,12.11,0,0,0,1.25,1.74c1.25,1.79,2.79,3.45,3.66,5.41a67.59,67.59,0,0,1,3.07,9c1.61,5.58,3.07,11.2,4.6,16.81.06.22.29.39.44.59-.12,5.57-.23,11.14-.37,16.7,0,.75-.15,1.5-.22,2.25l.33,0c.12-1.12.23-2.23.35-3.35.28-2.74.64-5.48.82-8.23a55.39,55.39,0,0,0,0-6.18c-.19-4.76-.21-9.56-.76-14.29C187.72,217.09,186,210.62,181.64,205.18Z" />
        <path class="color-shadow-dark"
            d="M278.6,199.9c-.08-1-.15-2-.26-3-.08-.66-.39-.95-1.15-.79-2.09.43-4.2.81-6.31,1.14a13.4,13.4,0,0,1-2,0c-5.35,0-10.7.09-16,0-6.25-.14-12.49-.46-18.73-.7l-8-.31c-.9,0-.87-.77-1.06-1.35,3.26-.18,6.53-.4,9.79-.54,6.5-.28,13-.4,19.5-.78,7-.41,13.92-1.05,20.87-1.59l4.32-.34c.11,3,.29,5.92.33,8.89.06,3.55.1,7.1,0,10.65-.27,7.9-.52,15.8-1,23.69s-1.2,15.52-1.9,23.27c-.58,6.35-1.28,12.7-1.93,19q-1,10.18-2.13,20.36c-.55,5.11-1.12,10.22-1.72,15.6-1.64-.17-3.22-.25-4.77-.5a83.8,83.8,0,0,1-14.35-4.17c-6.36-2.24-12.79-4.3-19.15-6.55-3.24-1.14-6.36-2.61-9.59-3.76-4.74-1.68-9.51-3.3-14.31-4.79a53.79,53.79,0,0,1-19.91-11,15.2,15.2,0,0,0-10.81-4.08,16.65,16.65,0,0,1-4.38-.55c-6.08-1.43-11.78-3.68-16.66-7.76-2.2-1.85-4.7-3.38-6.3-5.83a21.86,21.86,0,0,1-2.16-4.36c-1-2.7-1.88-5.44-2.7-8.19s-1.48-5.8-2.45-8.63a39.18,39.18,0,0,0-2.86-6.3c-.42-.77-1.47-1.22-2.28-1.75-.17-.11-.51,0-.81.19,2.73,1.5,3,4.23,3.62,6.74.34,1.39.61,2.8.9,4.13-1.57.6-3.1,1.17-4.6,1.77a1.68,1.68,0,0,1-2.07-.4,3.39,3.39,0,0,1-.41-.44c-1.62-2.73-4.2-4.27-6.89-5.74a49.65,49.65,0,0,1-4.27-2.86,1.81,1.81,0,0,0-2.13-.16c-1.92,1.2-4.14,1.36-6.29,1.74s-4.33.69-6.5,1a6.34,6.34,0,0,1-.91,0V239c2.58-.42,5.18-.74,7.73-1.28,2.16-.46,4.27-1.2,6.41-1.78a1.73,1.73,0,0,1,1.17,0c.89.47,1.68,1.14,2.58,1.6,2.48,1.25,5,2.44,7.51,3.62a7.79,7.79,0,0,0,2.82,1.06,12.32,12.32,0,0,0,3.3-.79c-.36-1.77-1.76-2.81-2.65-4.16a11.94,11.94,0,0,0-4.83-4.67l.16-.26,4.42.84c.33.12.66.27,1,.38a8.21,8.21,0,0,1,5.93,6.11,48.16,48.16,0,0,0,5.39,13.47A38.42,38.42,0,0,0,158,263.73c2.15,1.69,4.45,3.21,6.69,4.8a42.93,42.93,0,0,0,5.21,3.57A39.93,39.93,0,0,0,183.5,276a13.61,13.61,0,0,1,7.1,2.79,43.5,43.5,0,0,0,5.74,4.26,104.35,104.35,0,0,0,9.5,4.49q8.28,3.57,16.64,6.95c3.59,1.45,7.21,2.82,10.87,4,3.93,1.31,7.9,2.47,11.88,3.6q9.08,2.58,18.18,5a35.09,35.09,0,0,0,4.06.62c.47-3.2.77-6.17,1.35-9.09,1.16-5.92,2.56-11.79,3.67-17.72.91-4.79,1.57-9.63,2.26-14.46.35-2.48.52-5,.77-7.47.47-4.74,1-9.47,1.38-14.22.28-3.61.32-7.24.52-10.85.11-2.07.31-4.12.51-6.18.37-3.83.92-7.65,1.11-11.49s.09-7.84,0-11.76C279,203,278.76,201.43,278.6,199.9Z" />
        <path class="transparent"
            d="M90.26,216.93c.26,2.1.54,4.15.75,6.2s.29,3.9.46,5.85c.24,2.66.49,5.33.8,8a31.65,31.65,0,0,0,.69,3.15,1.16,1.16,0,0,1-.88,1.56c-3,.8-6,1.62-9,2.39-1.27.33-2.63.41-3.86.85-2.16.77-4.26,1.7-6.37,2.62-2.42,1.05-4.86,2.06-7.21,3.26a12,12,0,0,1-7.33,1c-1.38-.2-1.51-.63-.58-1.67a8.87,8.87,0,0,1,5-2.7,12.25,12.25,0,0,1,2.07.13c-2.8-2.17-5.28-.09-8,.65a5.66,5.66,0,0,1,.82-.87c3.92-2.73,7.91-5.37,11.76-8.2a31,31,0,0,0,4.08-4c1.45-1.58,2.81-3.25,4.21-4.88a1.68,1.68,0,0,0,.16-.39l-.3-.28-6.84,6.87c-.6-1.13-1.22-2.13-1.67-3.21-.27-.64.57-1.61,1.42-1.73,1.06-.16,2.12-.26,3.4-.41-.31-.34-.43-.57-.6-.63a10.88,10.88,0,0,0-5.76-.53c-3.13.65-6.25,1.31-9.38,1.93-4.07.81-8.08,1.83-11.27,4.64A13.11,13.11,0,0,0,44,240.32a36.3,36.3,0,0,1-5.87,8.86A8,8,0,0,1,32.34,252l2.34-6,.26.06.32,1.4h.43c0-1.18,0-2.36,0-3.54a2,2,0,0,1,.09-.7c1.64-4.25,3.26-8.5,5-12.72A3.75,3.75,0,0,1,42.34,229c4.45-2.63,9.48-3.75,14.32-5.38a51.64,51.64,0,0,1,10.23-1.89A6,6,0,0,0,69.1,221H58.93a13.88,13.88,0,0,1,7.6-2.81c6.62-.29,13.23-.66,19.84-1C87.6,217.14,88.82,217,90.26,216.93Z" />
        <path class="color-shadow-dark"
            d="M223.42,195a21.13,21.13,0,0,1-2.87.8c-2.64.33-5.29.55-8,.79-3.68.32-7.36.59-11,.93-3.2.29-6.4.65-9.6,1h-.48c-2.11.08-4.22.21-6.33.22-1.71,0-3.42-.23-5.13-.19-2.26.06-4.52.29-6.78.45h-1.19c-3.11.35-6.25.57-9.33,1.1-2.85.5-5.63,1.4-8.46,2-5.08,1.09-10.2,2-15.27,3.15-2.72.6-5.37,1.5-8.07,2.14-4.29,1-8.6,1.89-12.89,2.91a15,15,0,0,0-3,1.28c-.57.28-1,.89-1.62,1-2.19.58-4.42,1-6.61,1.54a20.46,20.46,0,0,0-2,.73.62.62,0,0,1-.14-.19c-.7-2.54-.7-2.55,1.88-3.26,1.35-.37,2.68-.8,4-1.07a19.32,19.32,0,0,0,6.57-2.73,14.45,14.45,0,0,1,7.66-1.91,40,40,0,0,0,9.07-1.44c4.48-1.14,8.89-2.57,13.33-3.89,4.24-1.27,8.44-2.72,12.74-3.78a43.38,43.38,0,0,1,8.5-1.17c5.66-.24,11.34-.22,17-.3,8.29-.11,16.59-.25,24.89-.3C214.71,194.77,219.07,194.89,223.42,195Z" />
        <path class="color-shadow"
            d="M104.8,214.84a20.46,20.46,0,0,1,2-.73c2.19-.53,4.42-1,6.61-1.54.59-.15,1-.76,1.62-1a15,15,0,0,1,3-1.28c4.29-1,8.6-1.9,12.89-2.91,2.7-.64,5.35-1.54,8.07-2.14,5.07-1.12,10.19-2.06,15.27-3.15,2.83-.6,5.61-1.5,8.46-2,3.08-.53,6.22-.75,9.33-1.1a21.78,21.78,0,0,1-2.31.92c-4.82,1.35-9.66,2.61-14.47,4-3.82,1.09-7.62,2.29-11.41,3.47-3,.95-6.05,2-9.09,2.94a140.9,140.9,0,0,1-18,4.79c-1,.16-1.88.83-2.86,1-2.06.38-4.15.6-6.24.87-.78.1-1.57.17-2.36.25Z" />
        <path class="color-base"
            d="M102.15,217.67l1.71,12.08c.29,2,.62,4,.88,6a19.58,19.58,0,0,1,.07,2l-6.52,1.92c-.07-.94-.13-1.79-.21-2.63q-.45-4.44-.92-8.88c-.14-1.34-.22-2.69-.44-4-.3-1.82-.71-3.62-1.1-5.58Z" />
        <path class="color-shadow"
            d="M137,237.35c.89,1.35,2.29,2.39,2.65,4.16a12.32,12.32,0,0,1-3.3.79,7.79,7.79,0,0,1-2.82-1.06c-2.52-1.18-5-2.37-7.51-3.62-.9-.46-1.69-1.13-2.58-1.6a1.73,1.73,0,0,0-1.17,0c-2.14.58-4.25,1.32-6.41,1.78-2.55.54-5.15.86-7.73,1.28l-.33-2.58c4-1.41,8-2.81,12.07-4.24a3.06,3.06,0,0,0,.88-.6c1.54-1.39,1.65-1.44,3.34-.31A47.43,47.43,0,0,0,135.5,237,12.23,12.23,0,0,0,137,237.35Z" />
        <path class="color-shadow-dark"
            d="M104.85,239.75l.25,2-8.41.95c-1.12.13-1.54-.69-1.66-1.51-.48-3.43-1-6.87-1.24-10.32-.25-3.66-.31-7.3-1.36-10.87-1.12-3.85-.46-4.84,3.41-5.75,1.7-.4,3.42-.75,5.34-1.17l.5,2.23c-1.89.46-3.76,1-5.68,1.34-1.27.2-1.29.74-1.14,1.78.36,2.51.66,5,.83,7.56.14,1.91,0,3.84.06,5.75a20.9,20.9,0,0,0,.52,2.91,23.91,23.91,0,0,1,.78,4.9c-.06,1.94,0,2.21,1.93,1.69S102.89,240.23,104.85,239.75Z" />
        <path class="transparent"
            d="M49.37,244.79a12.92,12.92,0,0,1,.84-1.48,75.13,75.13,0,0,0,4.69-6c1.52-2.39,3.89-3.47,6.24-4.4,2.1-.83,4.5-.91,6.76-1.32.29,1.56.07,1.85-1.64,2.3s-3.39.74-4.62,2.08a13.88,13.88,0,0,0-1.52,2C58.61,240.34,52.56,244.47,49.37,244.79Z" />
        <path class="color-shadow"
            d="M104.85,239.75c-2,.48-3.93.91-5.87,1.45s-2,.25-1.93-1.69a23.91,23.91,0,0,0-.78-4.9,20.9,20.9,0,0,1-.52-2.91c-.09-1.91.08-3.84-.06-5.75-.17-2.53-.47-5-.83-7.56-.15-1-.13-1.58,1.14-1.78,1.92-.29,3.79-.88,5.68-1.34.15.8.31,1.6.47,2.4l-6.53,1c.39,2,.8,3.76,1.1,5.58.22,1.33.3,2.68.44,4q.47,4.44.92,8.88c.08.84.14,1.69.21,2.63l6.52-1.92C104.82,238.46,104.84,239.1,104.85,239.75Z" />
        <path class="transparent"
            d="M40.58,248.22c.61-1,1.2-1.76,1.67-2.62,1-1.79,1.81-3.65,2.82-5.41a12,12,0,0,1,2.3-3.13,16.31,16.31,0,0,1,9.36-3.72A9.07,9.07,0,0,1,56,234c-2,1.35-3.94,2.72-5.94,4a7.07,7.07,0,0,0-2.72,3.13c-.78,1.71-1.66,3.37-2.59,5A3.78,3.78,0,0,1,40.58,248.22Z" />
        <path class="color-base"
            d="M106.1,239.25c-.11-6.05-1.46-11.94-2.34-17.88-.3-2.05-.73-4.07-1.1-6.1l1.4,0c.88,6,1.81,11.92,2.62,17.9.27,2,.23,4.05.33,6.08Z" />
        <path class="color-shadow-dark" d="M104.06,215.29l-1.4,0c-.24-.78-.48-1.56-.76-2.45l1.39-.49Z" />
        <path class="color-shadow-dark" d="M106.1,239.25l.91,0c0,.42.11.84.17,1.27.12.79-.24,1-1.08.76Z" />
        <path class="transparent" d="M58.8,221.11l.08-.09a1.3,1.3,0,0,1,.08.17s-.05.05-.08.08Z" />
        <path class="color-base"
            d="M537.81,356.86c.08.72.15,1.44.23,2.16,0,.32,0,.64,0,1,0,2.68.17,5.37,0,8-.38,4.86-1,9.7-1.53,14.54-.21,1.88-.86,3.77-.77,5.62.17,3.68.67,7.34,1.14,11a9.68,9.68,0,0,0,1,2.66c1.08,2.39,2.21,4.76,3.31,7.13q-.46,3.13-.95,6.25l-3,.69c-4.9,1.14-9.22,3.57-13.46,6.15-.08.05-.1.22-.14.32l-2.43,1.23-.83,1.55a5.39,5.39,0,0,0,1.42.36,19.82,19.82,0,0,0,6.87-1.25,10.29,10.29,0,0,1,6-.34,1.73,1.73,0,0,1,1,1.33c-.15,6.46,1.76,12.79,1.26,19.27-.27,3.36-.63,6.71-.91,10.07-.08.95,0,1.92-.05,2.88-2.82.47-5.63,1-8.46,1.4-5.1.67-10.2,1.24-15.31,1.86a35.68,35.68,0,0,0-.3-4.64,76.53,76.53,0,0,1-1.33-13.14,99.34,99.34,0,0,0-1.25-14.72c-.58-3.56-1.1-7.13-1.65-10.69-.33-2.12-.65-4.24-1-6.35-.19-1.14.39-1.42,1.37-1.25a45.72,45.72,0,0,1,4.67.87c3.79,1,7.52,2.32,11.33,3.31,2.32.6,4.54,1.88,7.16.91,1.5-.56,2.56-2.7,1.42-3.93a50.48,50.48,0,0,0-5.08-4.84c-3.35-2.71-7.49-3.6-11.52-4.71-2.72-1.1-5.46-2.16-8.16-3.32a33,33,0,0,1-3.12-1.74,5.21,5.21,0,0,1,.11-1.54,8.24,8.24,0,0,0-.21-6.27c-1.52-3.81-3.26-7.53-4.88-11.3a189.45,189.45,0,0,1-9.36-27.59c-1.87-7.23-3.12-14.61-5.47-21.74a53.9,53.9,0,0,1-1.53-8.66c-.36-2.43-.62-4.87-.91-7.32-.35-3-.76-6.06-1-9.11a30.72,30.72,0,0,1,.21-4.88c.3-3.48.58-7,1-10.44q.72-6,1.67-12A8.18,8.18,0,0,1,489,269c1.95-.89,3.91-1.77,5.91-2.55,5.57-2.18,11.15-4.3,16.73-6.44.62-.24,1.19-.2,1.48.53,1.1,2.86,2.39,5.66,3.25,8.59,1.8,6.1,3.36,12.27,5.05,18.4,2,7.22,4.08,14.4,6,21.63,2,7.42,3.73,14.89,5.54,22.34.72,2.93,1.33,5.89,2,8.84.53,2.31,1.1,4.61,1.64,6.91,0,.24,0,.48,0,.71l.45.75,0,2.61.45.75c0,.31,0,.63,0,.94-.33.49-.49.93.23,1.22,0,.47,0,.95,0,1.42S537.81,356.46,537.81,356.86Z" />
        <path class="transparent"
            d="M516.06,474.34l13.15-1.81c.95-.14,1.9-.28,2.84-.45.71-.12,1.12,0,1.17.86.13,2.15.33,4.29.53,6.43.53,5.75.73,11.54,2.35,17.14a2.82,2.82,0,0,1-.06,1.84c-2.85,6.07-5.76,12.11-8.68,18.14a4.52,4.52,0,0,1-1.06,1.29c-3.25,3-6.52,5.87-9.78,8.81a.56.56,0,0,1-.55.11l1.21-2a4.16,4.16,0,0,0-2.47,4c0,.29-.25.6-.38.9-.29-.18-.8-.32-.83-.53a10.15,10.15,0,0,1-.13-3.24,10.6,10.6,0,0,1,1.52-3.85,83.2,83.2,0,0,1,5.58-7,10.91,10.91,0,0,0,2.29-3.84,47.18,47.18,0,0,1,2.37-6,9.67,9.67,0,0,0,.53-6.26c-.3-1.88-.8-3.72-1.16-5.6a2.92,2.92,0,0,1,.12-1.37c1.13-3.56,2.34-7.11,3.44-10.69.4-1.33.57-2.73.84-4.1l-.36-.11c-.11.14-.27.25-.32.41-1.65,5-3.38,10-4.86,15.13a16.35,16.35,0,0,1-2.21,4.3c-2.06,3.23-4.09,6.48-6.13,9.73l-.32.49a14.51,14.51,0,0,0-2.3-1.87c-.32-.18-1,.31-1.58.51.19.26.23.36.28.36,2,0,2.86,1.15,2.14,3.26a11.73,11.73,0,0,1-1.69,3c-.59.81-1.29.66-1.51-.32a5.9,5.9,0,0,1-.12-2.57c1.37-5.91,2.88-11.8,4.23-17.72.93-4.06,2.31-8,2.14-12.3C516.23,477.85,516.15,476.22,516.06,474.34Z" />
        <path class="color-shadow"
            d="M516,401.53c4,1.11,8.17,2,11.52,4.71a50.48,50.48,0,0,1,5.08,4.84c1.14,1.23.08,3.37-1.42,3.93-2.62,1-4.84-.31-7.16-.91-3.81-1-7.54-2.26-11.33-3.31a45.72,45.72,0,0,0-4.67-.87c-1-.17-1.56.11-1.37,1.25.34,2.11.66,4.23,1,6.35.55,3.56,1.07,7.13,1.65,10.69a99.34,99.34,0,0,1,1.25,14.72,76.53,76.53,0,0,0,1.33,13.14,35.68,35.68,0,0,1,.3,4.64l-1.67.22c-.36-2.35-.66-4.71-1.08-7.05a81.34,81.34,0,0,1-1.64-14.53,27,27,0,0,0-1.23-7.6,24.35,24.35,0,0,1-.63-8.36c.15-3.61.07-7.23-.06-10.85-.1-2.85-.41-5.69-.63-8.54l1.41,0a2.27,2.27,0,0,0,.67.35,45.33,45.33,0,0,1,13.49,3.34c1.87.86,3.85,1.47,5.79,2.19a6.31,6.31,0,0,0-.63-1.91,9.57,9.57,0,0,0-1.78-1.49l-2-1.12-2.82-1.22c-.81-.61-1.63-1.22-2.43-1.84C516.56,402.07,516.26,401.79,516,401.53Z" />
        <path class="color-base"
            d="M512.13,464.18l19.59-3c1.3-.2,2.58-.44,3.88-.66a2,2,0,0,1,.27.62c.1,1.75.18,3.5.25,5.25,0,.5,0,1,0,1.52l-4.06.58c-4.08.6-8.17,1.19-12.25,1.8l-5.42.83c-.81.13-1.36-.06-1.47-1C512.69,468.1,512.4,466.14,512.13,464.18Z" />
        <path class="color-shadow-dark"
            d="M505.18,404c.22,2.85.53,5.69.63,8.54.13,3.62.21,7.24.06,10.85a24.35,24.35,0,0,0,.63,8.36,27,27,0,0,1,1.23,7.6,81.34,81.34,0,0,0,1.64,14.53c.42,2.34.72,4.7,1.08,7.05-1.79.27-1.75.26-2-1.44q-1.08-7.53-2.21-15c-.52-3.43-1-6.85-1.65-10.26a11,11,0,0,0-1-2.13A7.72,7.72,0,0,1,503,430c-.54-5.71.13-11.39.43-17.08a63.15,63.15,0,0,0-.52-7.74c0-.46-.1-.91-.16-1.52Z" />
        <path class="transparent"
            d="M523.43,497.35c.56,1.74,1.13,3.47,1.64,5.22a2,2,0,0,1-.18,1c-1.09,3-2.18,6-3.32,8.95a5.13,5.13,0,0,1-1,1.56c-1.59,1.78-3.22,3.53-4.83,5.29a3,3,0,0,1-.49.51q-3.76,2.33-7.54,4.63c-.81.49-1.34.36-1.72-.61-.66-1.7-.27-3.23,1.39-4.8a17.18,17.18,0,0,1,7.52-4.27c2.86-.75,4.27-2.6,5.09-5.16.89-2.79,1.78-5.59,2.55-8.42a32.6,32.6,0,0,0,.6-4Z" />
        <path class="color-shadow-dark"
            d="M512.13,464.18c.27,2,.56,3.92.79,5.89.11,1,.66,1.16,1.47,1l5.42-.83c4.08-.61,8.17-1.2,12.25-1.8l4.06-.58c0-.51,0-1,0-1.52-.07-1.75-.15-3.5-.25-5.25a2,2,0,0,0-.27-.62l2.38-.62c.17,3.11.34,6.13.46,9.15,0,.19-.33.53-.55.56q-9.57,1.5-19.15,3l-5.44.79a1.65,1.65,0,0,1-2.08-1.31c-.6-2.24-1.18-4.48-1.69-6.73-.06-.24.33-.77.6-.85A12,12,0,0,1,512.13,464.18Z" />
        <path class="transparent"
            d="M522.07,496.55a23.2,23.2,0,0,1-2.37,11.79c-.62,1.38-1.24,2.76-2,4.08a2.38,2.38,0,0,1-1.21.84,18.33,18.33,0,0,0-2.6.83,5,5,0,0,1-4.64.19c-1.64-.68-3.33-1.26-5-1.86.29-2,1.75-2.72,4.45-2.31,0,1.37.17,2.68,1.36,3.66.82.66,1.59.69,2.17-.11.75-1,1.31-2.19,2-3.26.24-.39.53-.9.9-1,1.19-.34,1.64-1.27,2.15-2.23.91-1.72,2-3.37,2.81-5.13a43.1,43.1,0,0,0,1.54-4.21C521.81,497.51,521.88,497.19,522.07,496.55Z" />
        <path class="color-base"
            d="M536.1,459.51c-6.49,1.05-13,2.12-19.46,3.13-1.65.26-3.32.35-5,.51l-.24-1.37c4-.47,8-.87,12-1.45,4.24-.62,8.47-1.41,12.7-2.12Z" />
        <path class="color-shadow-dark"
            d="M526.54,409.9c-1.94-.72-3.92-1.33-5.79-2.19a45.33,45.33,0,0,0-13.49-3.34,2.27,2.27,0,0,1-.67-.35c3.35.4,6.71.72,10,1.22,1.87.29,3.7.86,5.55,1.3A6,6,0,0,1,526.54,409.9Z" />
        <path class="transparent" d="M520,500.75l-4.19,7.69-.41-.22,4.15-7.68Z" />
        <path class="color-shadow-dark"
            d="M511.41,461.78l.24,1.37-2.47.36c-.39-1-.36-1.59.83-1.55A8.38,8.38,0,0,0,511.41,461.78Z" />
        <path class="color-shadow-dark"
            d="M536.1,459.51v-1.3l2.08-.45c.34,1.09-.11,1.54-1.16,1.59A5.71,5.71,0,0,0,536.1,459.51Z" />
        <path class="transparent"
            d="M509.48,508.71l-3.12.31a2,2,0,0,1,2.25-1.29C508.88,507.77,509.09,508.25,509.48,508.71Z" />
        <path class="transparent"
            d="M514.84,477.13c-.73-1.89-.73-1.89.16-2.24C514.94,475.68,514.89,476.41,514.84,477.13Z" />
        <path class="color-shadow-dark" d="M522.14,405.38l2,1.12Z" />
        <path class="color-shadow"
            d="M536.61,347.26c-.54-2.3-1.11-4.6-1.64-6.91-.67-3-1.28-5.91-2-8.84-1.81-7.45-3.59-14.92-5.54-22.34-1.89-7.23-4-14.41-6-21.63-1.69-6.13-3.25-12.3-5.05-18.4-.86-2.93-2.15-5.73-3.25-8.59-.29-.73-.86-.77-1.48-.53-5.58,2.14-11.16,4.26-16.73,6.44-2,.78-4,1.66-5.91,2.55a8.18,8.18,0,0,0-4.73,6.59q-1,6-1.67,12c-.41,3.47-.69,7-1,10.44a30.72,30.72,0,0,0-.21,4.88c.22,3.05.63,6.08,1,9.11.29,2.45.55,4.89.91,7.32a53.9,53.9,0,0,0,1.53,8.66c2.35,7.13,3.6,14.51,5.47,21.74a189.45,189.45,0,0,0,9.36,27.59c1.62,3.77,3.36,7.49,4.88,11.3a8.24,8.24,0,0,1,.21,6.27,5.21,5.21,0,0,0-.11,1.54,15.52,15.52,0,0,1-2-1.21,44.09,44.09,0,0,1-5.35-4.74,44.59,44.59,0,0,1-3.81-5.89c-1-1.62-.92-3.45-1.12-5.28a111.67,111.67,0,0,0-2-13.28c-2.16-9.21-4.13-18.45-5.61-27.79-.89-5.64-1.55-11.31-2.43-17q-1-6.22-2.26-12.41c-.61-2.91-1.41-5.79-2.25-8.64-.47-1.57.11-3,.29-4.46.37-2.95.76-5.9,1.13-8.85.31-2.52.64-5,.89-7.56.23-2.29.32-4.6.58-6.89a4.33,4.33,0,0,1,.81-2c1.9-2.5,4.68-3.8,7.37-5.2,4.62-2.42,9.15-5.05,14.18-6.62,3.68-1.14,7.4-2.2,11.08-3.38.94-.3,1.22.12,1.47.82.35,1,.64,2,1,3,1.41,3.64,2.8,7.28,4.28,10.89q3.8,9.3,7.7,18.55a33.65,33.65,0,0,1,2.22,10.57l1,11.88a154.74,154.74,0,0,0,2.26,16.86c.85,4.39,1.39,8.85,2.06,13.28.24,1.65.48,3.3.67,4.95A4,4,0,0,1,536.61,347.26Z" />
        <path class="outline"
            d="M521.2,423.58l2.43-1.23,7.6-2.54c2.84-.94,5.64-2,8.7-2a2,2,0,0,1,1,.13,4.79,4.79,0,0,1,.87,1.06c-.43.28-1,.88-1.26.79-3-1-5.76.07-8.54.85-3.22.9-6.41,2-9.62,2.9A5,5,0,0,1,521.2,423.58Z" />
        <path class="color-shadow"
            d="M540.21,415.19q.48-3.12.95-6.25a8.26,8.26,0,0,1,1.4,5.36c0,.31-.48.74-.82.85A5.56,5.56,0,0,1,540.21,415.19Z" />
        <path class="color-shadow" d="M537.81,356.86c0-.4,0-.8,0-1.2Z" />
        <path class="color-shadow"
            d="M537.79,354.24c-.72-.29-.56-.73-.23-1.22C537.63,353.43,537.71,353.83,537.79,354.24Z" />
        <path class="color-shadow" d="M538.05,360c0-.32,0-.64,0-1C538,359.34,538.05,359.66,538.05,360Z" />
        <path class="color-shadow" d="M537.55,352.08l-.45-.75Z" />
        <path class="color-shadow" d="M537.07,348.72l-.45-.75Z" />
        <path class="color-shadow"
            d="M278.6,199.9c.16,1.53.43,3,.46,4.58.07,3.92.17,7.85,0,11.76s-.74,7.66-1.11,11.49c-.2,2.06-.4,4.11-.51,6.18-.2,3.61-.24,7.24-.52,10.85-.37,4.75-.91,9.48-1.38,14.22-.25,2.49-.42,5-.77,7.47-.69,4.83-1.35,9.67-2.26,14.46-1.11,5.93-2.51,11.8-3.67,17.72-.58,2.92-.88,5.89-1.35,9.09a35.09,35.09,0,0,1-4.06-.62q-9.11-2.43-18.18-5c-4-1.13-7.95-2.29-11.88-3.6-3.66-1.22-7.28-2.59-10.87-4q-8.35-3.37-16.64-6.95a104.35,104.35,0,0,1-9.5-4.49,43.5,43.5,0,0,1-5.74-4.26,13.61,13.61,0,0,0-7.1-2.79,39.93,39.93,0,0,1-13.59-3.87,42.93,42.93,0,0,1-5.21-3.57c-2.24-1.59-4.54-3.11-6.69-4.8a38.42,38.42,0,0,1-8.93-10.51,48.16,48.16,0,0,1-5.39-13.47,8.21,8.21,0,0,0-5.93-6.11c-.34-.11-.67-.26-1-.38.54-2.11,2.34-3.11,4.42-1.56a32.25,32.25,0,0,1,9.77,11c2.34,4.49,4.59,9,7.12,13.42,2,3.44,4.09,6.92,7.52,9.17a21.5,21.5,0,0,0,5.8,2.72,113.2,113.2,0,0,1,15.68,5.76c3.83,1.77,7.81,3.23,11.69,4.89,2.09.89,4.09,2,6.18,2.86,2.7,1.15,5.43,2.27,8.2,3.26,3.26,1.16,6.55,2.29,9.89,3.2,6.75,1.85,13.55,3.52,20.31,5.33,5.49,1.46,10.95,3,16.43,4.54.36.1.74.18,1.16.28,1.18-4.92,2.33-9.71,3.49-14.49,1.21-5,2.55-10,3.63-15.07q2.43-11.3,4.54-22.66c.93-5,1.68-10.09,2.37-15.16.53-3.9.8-7.82,1.26-11.73.39-3.3.94-6.59,1.35-9.9.25-2,.35-4,.56-5.93C278.25,202.07,278.44,201,278.6,199.9Z" />
        <path class="color-shadow-dark"
            d="M188.34,236.87c-.15-.2-.38-.37-.44-.59-1.53-5.61-3-11.23-4.6-16.81a67.59,67.59,0,0,0-3.07-9c-.87-2-2.41-3.62-3.66-5.41a12.11,12.11,0,0,1-1.25-1.74c-.21-.46-.32-1.3-.06-1.56.43-.45,1.33-.94,1.78-.76a10.08,10.08,0,0,1,4.59,3.86c.05.08,0,.23,0,.35l-1.95-1.68-.29.27.72,1.14a39.93,39.93,0,0,1,2.8,4.45,57.29,57.29,0,0,1,4.93,18.44C188.16,230.81,188.19,233.85,188.34,236.87Z" />
        <path class="outline"
            d="M188.34,236.87c-.15-3-.18-6.06-.49-9.07a57.29,57.29,0,0,0-4.93-18.44,39.93,39.93,0,0,0-2.8-4.45l-.72-1.14.29-.27,1.95,1.68c4.37,5.44,6.08,11.91,6.87,18.62.55,4.73.57,9.53.76,14.29a55.39,55.39,0,0,1,0,6.18c-.18,2.75-.54,5.49-.82,8.23-.12,1.12-.23,2.23-.35,3.35l-.33,0c.07-.75.21-1.5.22-2.25C188.11,248,188.22,242.44,188.34,236.87Z" />
        <path class="color-shadow" d="M191.48,198.46h0Z" />
        <path class="color-shadow" d="M172.76,199h0Z" />
    </g>
</svg>
