<svg id="kapyushony_s_golovoy" data-name="kapyushony s golovoy" xmlns="http://www.w3.org/2000/svg"
    viewBox="0 0 672 960">

    <g id="img_61_img" data-name="img 61 img">
        <path class="outline"
            d="M384.92,29.27l1.92,0c3.82.6,6.87,2.65,9.67,5.16a4.75,4.75,0,0,1,1.1,1.09c.79,1.49,1.84,1.52,3.44,1.3a40.61,40.61,0,0,1,7.72-.07,54.69,54.69,0,0,1,6.23.91c4.23.75,7.08,3.26,9.29,6.88,5,8.24,8.84,17.06,12.36,26a46.4,46.4,0,0,1,2.64,8.65,108,108,0,0,1,1.32,12c.38,5.92.53,11.85.81,17.78q.25,5.3.61,10.59c.2,3,.61,6.1.66,9.15,0,1.22.52,1.34,1.4,1.74a23.62,23.62,0,0,1,3.34,2.26,4.8,4.8,0,0,0,1.3.73,9.69,9.69,0,0,1,5.46,3.66,10.46,10.46,0,0,1,1.35,2.42,12.62,12.62,0,0,0,3.36,4.88,7.51,7.51,0,0,1,2.49,6.45c-.14,1.26-.42,2.5-.58,3.76a14.09,14.09,0,0,0,3.64,11.78,73.92,73.92,0,0,1,6.36,8.54,4.44,4.44,0,0,1-2.38,6.72,18.73,18.73,0,0,1-2.17.67c-4.79,1-9,3.34-13.17,5.84-3.61,2.17-7.08,4.61-11.08,6.11a5.29,5.29,0,0,0-1.8,1.52c-2.86,3.07-6.39,5.28-9.77,7.67-1.34.94-2.79,1.71-4.21,2.51a32,32,0,0,1-13,3.8c-2.13.2-4.25.6-6.36,1a52.44,52.44,0,0,1-15,.43,79.55,79.55,0,0,1-16.64-3.6c-6.6-2.25-12.74-5.44-17.74-10.34-3.32-3.25-6.7-6.54-9.18-10.57-.38-.61-.75-1.23-1.07-1.87-.62-1.24-.71-1.29-2.07-.87-1.06.33-2.14.6-3.21.94a1.54,1.54,0,0,1-1.9-.57,1.64,1.64,0,0,1,.11-2c.27-.39.48-.82.72-1.23l.09-.29-.35.07c-.6.24-1,.21-1.24-.55-2.4-7.66-4.68-15.33-5.7-23.35-.87-6.81-.7-13.64-.55-20.45.18-8.5.74-17,1.12-25.49.22-5.07.38-10.13.58-15.19a78.7,78.7,0,0,1,.45-8.84,24.06,24.06,0,0,1,2.13-6.43,168.58,168.58,0,0,1,13.27-23.3,93,93,0,0,1,16.33-19.06,41.52,41.52,0,0,1,15.21-8.35C383.13,29.58,384,29.46,384.92,29.27Zm-8.49,39.26-.15.3.3-.15.13-.23Zm-.49.58.1-.23-.25.09-.35.2-1.07.66c-3,2-6,4-9,6.11a1.52,1.52,0,0,0-.33,1.18c.09,1,.29,2,.46,3,.86,5.23,1.61,10.49,2.63,15.7,1.18,6.07,2.61,12.09,3.9,18.14.16.75.46.81,1.13.68A74.67,74.67,0,0,0,389,109.78c8.51-3.85,15.92-9.46,23.51-14.77.5-.35.48-.69.34-1.22a45.4,45.4,0,0,0-3.64-9.32,41.66,41.66,0,0,0-9.38-12.59c-4.52-3.95-9.82-6.72-14.64-10.2-.05,0-.14,0-.22,0a22.16,22.16,0,0,1-3.85,4.38c-3.11,2.48-6.39,4.76-9.61,7.12l0-.49L375,69.91l.59-.52Zm38.9,28.35.32.24v-.52l-.23-.72-.39-.89-.18.06.2.85Zm-3-12.33-.84-1-.21.18.64.93.2.35,3.16,7.79,2.32-1.77-5.17-6.27A.21.21,0,0,0,411.83,85.13Zm-45.65,59.3h0l.18.25,2,2,.48.36,1.22.76,2.3,1.91c3.36,2.83,6.7,5.68,10.07,8.49a4.92,4.92,0,0,0,3.85,1.2c1.35-.16,1.35-.19.75-1.43a224.11,224.11,0,0,1-15.25-40.34c-.2-.78-.51-.93-1.22-.85-1.74.21-3.49.47-5.23.51-2.23,0-4.46-.1-6.69-.15-.36,0-.83-.21-.84.48s-.2,1.34-.2,2c0,4.5,0,9,.09,13.52a2.25,2.25,0,0,0,.52,1.29c2.11,2.55,4.26,5.06,6.39,7.59l.35.55.26.27.85,1.4A.26.26,0,0,0,366.18,144.43Zm60.47-60.67-.25-.51a2.76,2.76,0,0,0-.06-.71q-2.49-6.95-5-13.89c-.11-.28-.2-.56-.3-.85l.38-.13c2,4.59,4.11,9.16,5.79,13.9l.53.49c0,.19-.15.39-.11.56.56,2.12,1.11,4.23,1.73,6.33.07.23.54.38.85.51.78.33,1.8.41,2.32,1a7.19,7.19,0,0,1,1.57,2.9,15.5,15.5,0,0,1-.92,10.26,17.28,17.28,0,0,0-1.19,7.35c.1,2.62.09,5.24,0,7.86-.07,2-.34,4-.52,5.93-.16,1.81-.31,3.62-.45,5.25h6.39c.76,0,1.52-.06,2.27,0s1-.27,1-1c-.08-1.15-.11-2.31-.11-3.47,0-1.39.15-2.79.08-4.18-.33-6.21-.77-12.42-1.07-18.63-.27-5.66-.34-11.33-.64-17a55.27,55.27,0,0,0-.94-7.58c-1-5.16-3-10-5-14.82-2.7-6.5-5.66-12.86-9.81-18.61-1.68-2.32-3.6-4.31-6.54-4.9a70.54,70.54,0,0,0-8.69-1.51c-2.84-.2-5.75-.46-8.58.38a1.47,1.47,0,0,1-1.06-.45c-3.23-3-6.5-5.91-10.77-7.42a7.49,7.49,0,0,0-5.6-.09,76.81,76.81,0,0,0-7.63,3.42c-5.93,3.29-10.58,8.07-14.87,13.23C352,56.2,346.1,66,340.77,76.2a32.68,32.68,0,0,0-3.85,10.26,51.23,51.23,0,0,0-.3,6.45c-.09,4.31-.13,8.62-.21,12.93,0,1.27-.13,2.54-.24,3.81-.29,3.41-.62,6.81-.92,10.21-.18,2.14-.33,4.28-.51,6.41-.21,2.66-.61,5.32-.62,8,0,4.66,0,9.34.35,14a132.09,132.09,0,0,0,2.06,15.63c1,4.94,2.72,9.74,4.15,14.59.06.21.3.36.47.54.32-.44.94.36,1.33-.44a34.74,34.74,0,0,1,2.77-4.76,26.47,26.47,0,0,0,4.09-8.62c1.45-5.58,2.51-11.27,3.7-16.92a23.27,23.27,0,0,0,.34-8.65c-.68-4.21-1.13-8.46-1.45-12.71-.25-3.26-.2-6.55-.2-9.82a1.42,1.42,0,0,0-1.2-1.67,27.37,27.37,0,0,1-7.84-3.8,7.16,7.16,0,0,1-.89-.85l.21-.24c.35.16.69.35,1.05.49,2.54,1,5.09,2.06,7.63,3.11.78.32,1,.14,1-.73.14-3.39.3-6.78.6-10.15.27-3.17.71-6.32,1.13-9.46q.69-5.15,1.5-10.26a33,33,0,0,1,.82-3.22l.28.06a3.85,3.85,0,0,1,0,.68c-.52,3.12-1.14,6.23-1.54,9.36q-.74,5.84-1.16,11.71c-.29,3.88-.38,7.79-.59,11.68,0,.68.16,1,.88,1.11,1,.12,1.93.34,3,.54.08-1.3.09-2.53.23-3.75.49-4.26,1.07-8.52,1.51-12.78a190.08,190.08,0,0,1,4.33-23.45c.48-2.09,1.08-4.14.75-6.34a26.51,26.51,0,0,1-.19-3.22,2,2,0,0,1,.2-.63l.34.06c0,.54,0,1.08,0,1.63s.12,1.18.2,1.76.15,1,.22,1.48c2.07-3.23,4.14-6.17,7.86-7.57,3.44-1.3,6.88-2.4,10.72-2.15-1.3-3.08-3.08-5.45-6.23-6.42a16,16,0,0,0-7.22-.51A24.67,24.67,0,0,0,360,57.22l-.31-.36c1.24-.7,2.45-1.51,3.74-2.11a20.22,20.22,0,0,1,11.83-1.93,11.92,11.92,0,0,1,8.27,5.38c.2.3.44.56.79,1,.22-1.56.15-3,1.54-3.71a.41.41,0,0,0,.19-.29c0-1.34.4-2.87-.11-4-1.49-3.21-3.78-5.72-7.58-6.27l-.85-.12a5.4,5.4,0,0,1,4.69.77,38.22,38.22,0,0,1,4.09,3.65c.64.62,1.07,2,1.66,2,.79,0,1.6-.91,2.47-1.31a1.86,1.86,0,0,0,1.2-1.88c-.06-1.27-.26-2.52-.41-3.78a5.44,5.44,0,0,0-.15-.7l.27-.12,1.06,1.85c.28-2.91-.92-5.08-2.39-7.16,2.67,1.84,3.48,4.6,3.88,7.87.78-1.32,1.38-2.39,2-3.43a5.58,5.58,0,0,1,.75-.79,2.7,2.7,0,0,1,0,1.07c-1.07,2.23-2.15,4.46-3.33,6.63a5.35,5.35,0,0,1-1.58,1.6,29.14,29.14,0,0,1-3.16,1.95,1.16,1.16,0,0,0-.74,1.3,4,4,0,0,1-1.08,2.88c-.63.83-.53,2.22-.73,3.36,0,.06.16.17.26.23,2,1.16,4,2.25,6,3.51a85,85,0,0,1,7.64,5.35c5.86,4.85,10.44,10.89,15,16.89a52.16,52.16,0,0,1,2.82,4.5c1.06-.84,2.1-1.72,3.18-2.52.59-.44.66-.79.3-1.48A61.46,61.46,0,0,0,414.55,77c-3-3.7-5.81-7.53-9.56-10.52-.14-.11-.17-.34-.25-.51a1.47,1.47,0,0,1,.88.43c2.29,2.27,4.64,4.49,6.84,6.85A75.45,75.45,0,0,1,422.37,86a3,3,0,0,0,.72.63l.34.24a3.17,3.17,0,0,0,0,1c.51,1.2,1.09,2.37,1.65,3.58a18.85,18.85,0,0,1,2.19-1.4c.63-.3.66-.67.53-1.23C427.43,87.15,427.05,85.46,426.65,83.76Zm-11.23,14c-.12.18-.38.38-.35.54.5,2.89,1,5.78,1.58,8.75.28-.77.51-1.51.8-2.24,1.6-4.08,3.17-8.19,6.06-11.6.11-.14.23-.39.18-.52-.58-1.41-1.19-2.8-1.83-4.3-1.27,1.1-2.39,2.06-3.49,3a2.57,2.57,0,0,0-.42.66l-.16.23a16.22,16.22,0,0,0-2.61,1.91c-.26.27.08,1.15.2,1.73s.31,1.15.48,1.72ZM354.74,140.1v.69l.14,0,.21-.72a6.15,6.15,0,0,1,1-1,1.61,1.61,0,0,0,.8-1.7c-.2-4.3-.39-8.61-.53-12.91,0-1.43.1-2.86.11-4.3,0-1.12.35-2.63-.23-3.27s-2.15-.55-3.28-.78a1.81,1.81,0,0,0-.32,0c.15,3.71.16,7.44.49,11.15C353.53,131.63,354.2,135.86,354.74,140.1Zm83.87,55.41c-4.92,1.19-9.84,2.37-14.75,3.59-4.06,1-7.59,3.17-11.06,5.37a43.81,43.81,0,0,0-5.12,4.45,6.09,6.09,0,0,0,.82.14c2.29-.25,4.6-.36,6.86-.8a47.65,47.65,0,0,0,7.46-2c4.14-1.55,7.76-4.1,11.35-6.62a50.94,50.94,0,0,0,4.55-4l.13-.14Zm-68.1-28.34a1.44,1.44,0,0,0,.25.39,168,168,0,0,1,16.64,16,61.36,61.36,0,0,1,4.24,4.89c4.16,5.52,8.07,11.22,10.51,17.8a19.61,19.61,0,0,0-.55-4.43,38.92,38.92,0,0,0-5.19-10.76c-4.86-7.14-9.82-14.17-16.31-20a125.94,125.94,0,0,1-9-9.47,40.71,40.71,0,0,1-4.36-5.54,24,24,0,0,1-3.93-11.44c0-.68-.19-1.36-.29-2a1.06,1.06,0,0,0-.43.72c-.57,3.26-1,6.55-1.74,9.78a4.42,4.42,0,0,0,1.24,4.34C363.86,161.33,367.17,164.26,370.51,167.17ZM444,159.72q2.92-4.12,5.83-8.27c.9-1.63,1.82-3.25,2.68-4.91a1.11,1.11,0,0,0,0-.91c-1.1-1.72-2.24-3.41-3.44-5.23a57,57,0,0,1-2.2,5.47q-3,5.61-6.23,11.06c-5.21,8.78-11,17.13-18.24,24.4q-3.33,3.34-6.92,6.43A123.93,123.93,0,0,0,403.62,199c-.22.25-.55.62-.51.88.24,1.39.59,2.75,1,4.44l1.2-1.32c1.9-2.12,3.77-4.25,5.68-6.34,3.81-4.15,7.68-8.24,11.43-12.43,4.16-4.64,8.19-9.39,12.33-14,2.29-2.56,4.73-5,7-7.52A35.91,35.91,0,0,0,444,159.72Zm-65,47.35a51.07,51.07,0,0,0,10.28,2.28,55.14,55.14,0,0,0,11.19.67c.59,0,.93-.18.71-.87a31.75,31.75,0,0,0-1.55-4.87c-1.67-3.31-3.49-6.55-5.41-9.72-4.5-7.39-10.92-13.13-16.93-19.18-3.15-3.17-6.71-5.92-10-9-2.92-2.76-6-5.39-8.08-8.95A23.69,23.69,0,0,1,355.65,147c0-.71,0-1.42,0-2.14h-.3a2.37,2.37,0,0,0-.17.41c-1,4.64-2,9.27-2.87,13.92a57.09,57.09,0,0,1-5.29,15c-1.38,2.74-2.67,5.54-4,8.31a1,1,0,0,0,0,.38l5.12-1.07a2.69,2.69,0,0,0,.51.67c1.38.95,2.73,1.95,4.18,2.79a35.83,35.83,0,0,0,5.52,2.81c2.88,1,5.9,1.69,8.82,2.63,3.56,1.15,7,2.58,10.62,3.62,5.47,1.6,9.78,4.93,13.84,8.69a5.6,5.6,0,0,1,.75,1.26c-.71-.64-1.38-1.32-2.12-1.92-4.25-3.44-8.75-6.39-14.13-7.82-2.93-.77-5.74-2-8.65-2.79-5.69-1.64-11.74-2.11-17.05-5.22,1.58,2.05,3.34,3.94,4.94,6a38,38,0,0,0,10.91,9.4A47.22,47.22,0,0,0,378.93,207.07Zm-.21-50.2-.41-.21,0,.26c.44,2.94,1,5.87,1.31,8.82a5.72,5.72,0,0,0,1.68,3.85c2,1.91,3.78,4.07,5.7,6.09a82.28,82.28,0,0,1,9.19,11.86c1.89,2.91,3.41,6.06,5.1,9.09.23.42.32,1.21,1.1.58s1.35-1.12,2-1.72c3.19-2.93,6.4-5.84,9.53-8.83,2.37-2.27,4.63-4.65,7-7,1.21-1.2,2.45-2.37,3.69-3.53.55-.51,1.14-1,1.86-1.56-1.32-.36-2.25-.59-3.16-.85-1.91-.54-3.85-1-5.73-1.68-1.36-.47-2.88-.92-2.77-2.88a1.82,1.82,0,0,0-.14-.58,51.93,51.93,0,0,1-1.94-12.5c-.19-4.5-.14-9-.2-13.54a5.58,5.58,0,0,0-.1-.69l-2.92,2.66c-2.4,2.17-4.74,4.4-7.2,6.49-4,3.36-7.87,6.81-12.63,9-.51.24-.62.45-.36,1,1.48,3,2.92,6,4.37,9.05l-.29.28c-1.54-3-3.07-5.95-4.64-8.91-.16-.29-.69-.67-.9-.6-2.68.94-4.73-.18-6.62-1.91C380.37,158.24,379.54,157.57,378.72,156.87Zm35.2-18.66c.95-2.78,2-5.54,2.82-8.35,1-3.38,1.35-7,3.2-10.1.53-.89,1-1.14,1.77-.5a16.07,16.07,0,0,1,1.57,1.62c.88.89,1.42.86,2.07-.19a17.88,17.88,0,0,0,1.61-2.94C429,112.4,431.09,107,433,101.63a12.65,12.65,0,0,0,.34-8c-.59-2-2.05-3.25-3.71-3.13a7.2,7.2,0,0,0-4.91,2.68A23.21,23.21,0,0,0,422,97.81a69.53,69.53,0,0,0-5.17,14.13c-.3,1.14-.38,2.34-.57,3.51s-.36,2.1-.53,3.15a115.49,115.49,0,0,0-2.45-23c-12.11,10-24.77,18.51-40.65,20.8.31,1.16.57,2.2.86,3.22a225,225,0,0,0,9,25.72c1.79,4.26,3.64,8.51,5.41,12.78.3.72.63.78,1.24.48a24.53,24.53,0,0,0,2.37-1.13c8.41-5.16,16.33-10.89,22.19-19-.08.83-.2,1.66-.22,2.48,0,1.94,0,3.88-.05,5.82q0,3.16,0,6.33c0,1.71,0,3.42.09,5.12.21,4,2.11,7.59,3.05,11.42a1.85,1.85,0,0,0,1.08,1.11c2.91.84,5.84,1.61,8.78,2.33a1.43,1.43,0,0,0,1.17-.48c1.76-2.35,3.52-4.72,5.18-7.15q5.3-7.77,10.49-15.61c2.13-3.23,4.27-6.48,4.1-10.65a6.21,6.21,0,0,0-2.32-5,8.15,8.15,0,0,0-5.19-1.45,74.33,74.33,0,0,0-20,2.24,5.12,5.12,0,0,1-2.46.32c-1.15-.34-1.57.15-2.05,1A22.38,22.38,0,0,1,413.92,138.21Zm41.53,6c-1.63,5.32-4.55,9.59-7.79,13.67-2.57,3.21-5.16,6.41-7.82,9.54q-4.81,5.66-9.78,11.19c-2.06,2.29-4.25,4.45-6.35,6.71-3.93,4.25-7.84,8.54-11.76,12.8q-3.42,3.71-6.86,7.37a5.49,5.49,0,0,0-1.37,3.24.87.87,0,0,0,.26.72c.55.39,2.49-.13,2.89-.77,2.76-4.43,6.81-7.34,11.35-9.67,4.34-2.23,9.13-2.75,13.83-3.61,4.08-.75,8.23-1.36,12-3.13a75.35,75.35,0,0,0,8.93-5.11c3.68-2.4,7.19-5.06,11.34-6.65a27,27,0,0,0,2.62-1.2,3,3,0,0,0,1.24-4c-1.86-3.12-3.76-6.23-5.69-9.3a18.56,18.56,0,0,1-2.52-5.91c-.67-3-.47-6-.6-8.94a7.48,7.48,0,0,0-.89-3.4A24.65,24.65,0,0,0,455.45,144.23ZM364.22,77.12l-.33-.1a5.9,5.9,0,0,0-.93,1.59c-.64,2.93-1.27,5.88-1.74,8.84q-1,6.1-1.72,12.23c-.66,5.29-1.22,10.58-1.86,16.13,2.36,0,4.39.08,6.41,0s4-.38,6-.58c.71-.08,1-.29.76-1.14-.41-1.29-.65-2.63-1-3.95-2-8.57-3.42-17.25-4.67-26C364.87,81.82,364.55,79.47,364.22,77.12Zm66.67,34.5-.2-.06c-.14.44-.28.88-.4,1.32a20.46,20.46,0,0,1-4.05,8.19,12.25,12.25,0,0,1-1.38,1.09c-.32.28-.76.58-.85,1-.52,2-1,4-1.39,5.93-.19.92-.3,1.86-.45,2.82,2.59-.5,5-1,7.5-1.43.89-.16.77-.82.8-1.35.16-2.67.35-5.34.4-8C430.94,117.92,430.89,114.77,430.89,111.62ZM378.13,166c-.24-2.61-.41-5.16-.74-7.68-.14-1-.1-2.15-1.06-2.94-2-1.65-3.95-3.36-5.94-5a9.7,9.7,0,0,0-1.36-.75c.45,2.53.8,4.79,1.26,7a5,5,0,0,0,.9,2.26c2.08,2.31,4.28,4.5,6.44,6.73A3.82,3.82,0,0,0,378.13,166ZM364.78,74.82c2.05-1.53,4-3.12,6-4.44,2.68-1.73,5.52-3.2,8.25-4.86,1.12-.68,2.13-1.56,3.2-2.35-.3-.27-.42-.32-.52-.29-3.1.7-6.22,1.33-9.3,2.12-3.48.9-5.74,3.28-7.35,6.38A4.44,4.44,0,0,0,364.78,74.82Zm52.87,58.26c1.56,0,2.77-.61,2.94-1.44q.93-4.68,1.85-9.38c0-.21.05-.56-.06-.63-.57-.35-1.18-.64-1.78-.95-.23.45-.47.89-.68,1.35a4.87,4.87,0,0,0-.2.68c-.77,3.21-1.55,6.41-2.29,9.63C417.37,132.58,417.59,132.89,417.65,133.08Zm-58.53,19.67c.07-.1.11-.13.11-.17q1-5.94,1.92-11.88a.65.65,0,0,0-.17-.52c-.52-.44-2.63,0-3,.59a5.71,5.71,0,0,0-.64,4.46A28.59,28.59,0,0,0,359.12,152.75Zm5.46-7.47c.1,2.61,1.62,6.69,3.12,8.24C367.22,150.49,367.27,147.44,364.58,145.28Zm88.38-3,.28-.13c.07-2.27-1.47-4.74-3.83-5Zm-95.09-6.66c-.37,2.38-.31,2.45,1.47,1.9Zm6.31-60.92-.36-.08-.54,2,.46.11Z" />
        <path class="color-shadow"
            d="M413.92,138.21a22.38,22.38,0,0,0,1.44-2c.48-.84.9-1.33,2.05-1a5.12,5.12,0,0,0,2.46-.32,74.33,74.33,0,0,1,20-2.24,8.15,8.15,0,0,1,5.19,1.45,6.21,6.21,0,0,1,2.32,5c.17,4.17-2,7.42-4.1,10.65q-5.19,7.84-10.49,15.61c-1.66,2.43-3.42,4.8-5.18,7.15a1.43,1.43,0,0,1-1.17.48c-2.94-.72-5.87-1.49-8.78-2.33a1.85,1.85,0,0,1-1.08-1.11c-.94-3.83-2.84-7.4-3.05-11.42-.09-1.7-.08-3.41-.09-5.12q0-3.16,0-6.33c0-1.94,0-3.88.05-5.82,0-.82.14-1.65.22-2.48l0,0,.26-.28Z" />
        <path class="color-base"
            d="M392.37,204.23a5.6,5.6,0,0,0-.75-1.26c-4.06-3.76-8.37-7.09-13.84-8.69-3.59-1-7.06-2.47-10.62-3.62-2.92-.94-5.94-1.59-8.82-2.63a35.83,35.83,0,0,1-5.52-2.81c-1.45-.84-2.8-1.84-4.18-2.79a2.69,2.69,0,0,1-.51-.67c2.68-8.79,5.88-17.42,7.73-26.57.33.23.43.26.45.32.12.34.23.68.34,1a33.57,33.57,0,0,0,7.49,12.37c2,2.1,4,4.15,6.1,6.07,1.91,1.73,4,3.28,6,4.89,2.59,2,5.24,4,7.78,6.11,1.88,1.55,3,3.72,4.18,5.79a60.49,60.49,0,0,1,5.64,12.36,5.74,5.74,0,0,1,0,1.66l-1.53-1.57Z" />
        <path class="color-shadow"
            d="M455.45,144.23a24.65,24.65,0,0,1,3,3.51,7.48,7.48,0,0,1,.89,3.4c.13,3-.07,6,.6,8.94a18.56,18.56,0,0,0,2.52,5.91c1.93,3.07,3.83,6.18,5.69,9.3a3,3,0,0,1-1.24,4,27,27,0,0,1-2.62,1.2c-4.15,1.59-7.66,4.25-11.34,6.65a75.35,75.35,0,0,1-8.93,5.11c-3.77,1.77-7.92,2.38-12,3.13-4.7.86-9.49,1.38-13.83,3.61-4.54,2.33-8.59,5.24-11.35,9.67-.4.64-2.34,1.16-2.89.77a.87.87,0,0,1-.26-.72,5.49,5.49,0,0,1,1.37-3.24q3.45-3.66,6.86-7.37c3.92-4.26,7.83-8.55,11.76-12.8,2.1-2.26,4.29-4.42,6.35-6.71q4.95-5.53,9.78-11.19c2.66-3.13,5.25-6.33,7.82-9.54C450.9,153.82,453.82,149.55,455.45,144.23Zm-44.88,57.29.28.31c1-.7,1.95-1.46,3-2.08,2.77-1.65,5.59-3.19,8.23-5.06a32,32,0,0,1,12.86-5.44c3-.54,5.87-1.41,8.81-2.1,2.32-.55,4-1.61,4.39-4.27a15.44,15.44,0,0,1,1.37-3.48l.24.08-1.54,6c.92-.5,1.57-.79,2.15-1.19,1.61-1.1,3.13-2.34,4.79-3.35,2.82-1.72,5.72-3.3,8.6-4.93.46-.26,1-.44.85-1.11a18.83,18.83,0,0,0-1.27-3.91,45,45,0,0,0-3-4.3c-2.43-3.42-4.34-7-4.6-11.36-.05-.84-.22-1.67-.34-2.6a2.15,2.15,0,0,0-.33.36,84.54,84.54,0,0,1-12.64,17.78c-4.74,5-9.59,9.95-14.41,14.9-1.22,1.26-2.48,2.48-3.8,3.64-2.25,2-4.56,3.85-6.82,5.81-1.6,1.38-3.15,2.81-4.7,4.24C411.93,200.1,411.26,200.82,410.57,201.52Z" />
        <path class="color-shadow"
            d="M393.89,205.78a5.74,5.74,0,0,0,0-1.66,60.49,60.49,0,0,0-5.64-12.36c-1.22-2.07-2.3-4.24-4.18-5.79-2.54-2.1-5.19-4.07-7.78-6.11-2-1.61-4.1-3.16-6-4.89-2.13-1.92-4.14-4-6.1-6.07a33.57,33.57,0,0,1-7.49-12.37c-.11-.34-.22-.68-.34-1,0-.06-.12-.09-.45-.32-1.85,9.15-5.05,17.78-7.73,26.57L343,182.83a1,1,0,0,1,0-.38c1.33-2.77,2.62-5.57,4-8.31a57.09,57.09,0,0,0,5.29-15c.9-4.65,1.91-9.28,2.87-13.92a2.37,2.37,0,0,1,.17-.41h.3c0,.72,0,1.43,0,2.14a23.69,23.69,0,0,0,3.53,10.45c2.06,3.56,5.16,6.19,8.08,8.95,3.25,3.08,6.81,5.83,10,9,6,6.05,12.43,11.79,16.93,19.18,1.92,3.17,3.74,6.41,5.41,9.72a31.75,31.75,0,0,1,1.55,4.87c.22.69-.12.87-.71.87a55.14,55.14,0,0,1-11.19-.67c.2-.1.4-.3.6-.3,1.55,0,3.1.12,4.64.14.23,0,.46-.21.68-.33-.2-.22-.44-.67-.59-.64-1.05.19-1.48-.61-2.06-1.17a36.63,36.63,0,0,0-3.83-3.56,39.86,39.86,0,0,0-11.19-5c-2.91-.9-5.95-1.37-8.94-2l-6.19-1.38a1,1,0,0,0,.37.7c2.35,1.9,4.61,3.94,7.1,5.63,2.7,1.82,5.63,3.3,8.44,4.95a4.09,4.09,0,0,1,.69.69,47.22,47.22,0,0,1-12.66-5.23,38,38,0,0,1-10.91-9.4c-1.6-2-3.36-3.91-4.94-6,5.31,3.11,11.36,3.58,17.05,5.22,2.91.84,5.72,2,8.65,2.79,5.38,1.43,9.88,4.38,14.13,7.82.74.6,1.41,1.28,2.12,1.92v0l1.28,1.93Z" />
        <path class="color-shadow"
            d="M444,159.72a35.91,35.91,0,0,1-2.22,2.94c-2.31,2.54-4.75,5-7,7.52-4.14,4.65-8.17,9.4-12.33,14-3.75,4.19-7.62,8.28-11.43,12.43-1.91,2.09-3.78,4.22-5.68,6.34l-1.2,1.32c-.37-1.69-.72-3.05-1-4.44,0-.26.29-.63.51-.88a123.93,123.93,0,0,1,11.8-11.23q3.58-3.07,6.92-6.43c7.23-7.27,13-15.62,18.24-24.4q3.24-5.44,6.23-11.06a57,57,0,0,0,2.2-5.47c1.2,1.82,2.34,3.51,3.44,5.23a1.11,1.11,0,0,1,0,.91c-.86,1.66-1.78,3.28-2.68,4.91l-.54-1.9a2,2,0,0,0-.32.38c-1.26,2.33-2.53,4.66-3.75,7C444.72,157.84,444.37,158.79,444,159.72Z" />
        <path class="color-shadow"
            d="M361.59,157.44a4.42,4.42,0,0,1-1.24-4.34c.72-3.23,1.17-6.52,1.74-9.78a1.06,1.06,0,0,1,.43-.72c.1.67.25,1.35.29,2a24,24,0,0,0,3.93,11.44,40.71,40.71,0,0,0,4.36,5.54,125.94,125.94,0,0,0,9,9.47c6.49,5.85,11.45,12.88,16.31,20a38.92,38.92,0,0,1,5.19,10.76,19.61,19.61,0,0,1,.55,4.43c-2.44-6.58-6.35-12.28-10.51-17.8a61.36,61.36,0,0,0-4.24-4.89,168,168,0,0,0-16.64-16,1.44,1.44,0,0,1-.25-.39,4.5,4.5,0,0,0-.44-1.18A37.59,37.59,0,0,1,364,154.42c-.24-.81-.51-1.61-.77-2.42a4,4,0,0,0-.59,1.46C362.27,154.79,361.93,156.12,361.59,157.44Z" />
        <path class="color-base"
            d="M378.93,207.07a4.09,4.09,0,0,0-.69-.69c-2.81-1.65-5.74-3.13-8.44-4.95-2.49-1.69-4.75-3.73-7.1-5.63a1,1,0,0,1-.37-.7l6.19,1.38c3,.66,6,1.13,8.94,2a39.86,39.86,0,0,1,11.19,5,36.63,36.63,0,0,1,3.83,3.56c.58.56,1,1.36,2.06,1.17.15,0,.39.42.59.64-.22.12-.45.34-.68.33-1.54,0-3.09-.11-4.64-.14-.2,0-.4.2-.6.3A51.07,51.07,0,0,1,378.93,207.07Z" />
        <path class="color-shadow"
            d="M438.72,195.62a50.94,50.94,0,0,1-4.55,4c-3.59,2.52-7.21,5.07-11.35,6.62a47.65,47.65,0,0,1-7.46,2c-2.26.44-4.57.55-6.86.8a6.09,6.09,0,0,1-.82-.14,43.81,43.81,0,0,1,5.12-4.45c3.47-2.2,7-4.36,11.06-5.37,4.91-1.22,9.83-2.4,14.75-3.59A1.14,1.14,0,0,0,438.72,195.62Z" />
        <path class="color-shadow"
            d="M378.13,166a3.82,3.82,0,0,1-.5-.37c-2.16-2.23-4.36-4.42-6.44-6.73a5,5,0,0,1-.9-2.26c-.46-2.24-.81-4.5-1.26-7a9.7,9.7,0,0,1,1.36.75c2,1.66,3.93,3.37,5.94,5,1,.79.92,1.93,1.06,2.94C377.72,160.84,377.89,163.39,378.13,166Z" />
        <path class="color-shadow"
            d="M359.12,152.75a28.59,28.59,0,0,1-1.82-7.52,5.71,5.71,0,0,1,.64-4.46c.41-.59,2.52-1,3-.59a.65.65,0,0,1,.17.52q-.94,5.94-1.92,11.88S359.19,152.65,359.12,152.75Z" />
        <path class="color-base"
            d="M361.59,157.44c.34-1.32.68-2.65,1-4a4,4,0,0,1,.59-1.46c.26.81.53,1.61.77,2.42A37.59,37.59,0,0,0,370.07,166a4.5,4.5,0,0,1,.44,1.18C367.17,164.26,363.86,161.33,361.59,157.44Z" />
        <path class="color-base"
            d="M444,159.72c.4-.93.75-1.88,1.22-2.78,1.22-2.35,2.49-4.68,3.75-7a2,2,0,0,1,.32-.38l.54,1.9Q446.89,155.59,444,159.72Z" />
        <path class="color-shadow"
            d="M364.58,145.28c2.69,2.16,2.64,5.21,3.12,8.24C366.2,152,364.68,147.89,364.58,145.28Z" />
        <path class="color-shadow" d="M453,142.24l-3.55-5.09c2.36.22,3.9,2.69,3.83,5Z" />
        <path class="color-shadow"
            d="M393.62,170.11c1.23,2.12,2.45,4.25,3.71,6.35a25.93,25.93,0,0,1,1.5,2.48,33.22,33.22,0,0,1-5.5-8.55Z" />
        <path class="color-shadow" d="M356.05,59.91a8.19,8.19,0,0,1,3.66-3l.31.36-3.75,3Z" />
        <path class="color-shadow" d="M426.65,83.76l-3.22,3.1-.34-.24,3.31-3.37Z" />
        <path class="color-base" d="M357.87,135.58l1.47,1.9C357.56,138,357.5,138,357.87,135.58Z" />
        <path class="color-base"
            d="M366.37,144.69c.2,0,.48-.16.58-.07a20.14,20.14,0,0,1,1.63,1.57c.05.05-.15.33-.23.5Z" />
        <path class="color-shadow" d="M427.2,81.57l1.44-1.16.22.11-1.13,1.54Z" />
        <path class="color-shadow" d="M415.86,97.71l.68,2.3-.39.12-.73-2.34Z" />
        <path class="color-base" d="M364.18,74.66l-.44,2-.46-.11.54-2Z" />
        <path class="color-base" d="M368.82,147.05c.86-.47.89.39,1.22.76Z" />
        <path class="color-base" d="M365.19,142.86c.51.33,1.25.52.85,1.4Z" />
        <path class="color-base" d="M411.42,85.19l-.64-.93.21-.18.84,1Z" />
        <path class="color-shadow" d="M371.5,73.19l-.75.27.71-.76Z" />
        <path class="color-shadow" d="M414.55,96.48l-.2-.85.18-.06.39.89Z" />
        <path class="color-shadow" d="M354.74,140.1h.35l-.21.72-.14,0Z" />
        <path class="color-base" d="M414.55,96.48l.37,0,.23.72-.31.28Z" />
        <path class="color-base" d="M364.58,142l.35.55Z" />
        <path class="color-base" d="M378.72,156.87l-.44,0,0-.26Z" />
        <path class="color-base" d="M375.79,69l.25-.09-.1.23C375.84,69.12,375.79,69.07,375.79,69Z" />
        <path class="color-base" d="M376.58,68.68l-.3.15.15-.3Z" />
        <path class="color-base" d="M376.43,68.53l.28-.08-.13.23Z" />
        <path class="color-base" d="M366.18,144.43l0-.1v.11Z" />
        <path class="color-shadow" d="M418,92.12l-.16.23Z" />
        <path class="color-shadow" d="M438.61,195.51l.24,0-.13.14A1.14,1.14,0,0,1,438.61,195.51Z" />
        <path class="color-shadow" d="M390.87,43.45l-.6-1.1.32-.19.59,1Z" />
        <path class="color-shadow" d="M356.27,60.2l-.65.88-.27-.17.7-1Z" />
        <path class="outline" d="M390.87,43.45l.31-.31,0,.36Z" />
        <path class="outline"
            d="M428,101.9l-1.83-1.5a4.4,4.4,0,0,0-.27.94c0,2.18.08,4.37-.1,6.54a6.29,6.29,0,0,1-1.19,2.53A15.28,15.28,0,0,1,423.2,112c-.46.56-1.21,1.12-.11,1.82,0,0-.23.9-.51,1a1.34,1.34,0,0,1-1.87-1.44,2.44,2.44,0,0,1,1.39-2.1c.46-.23.94-.43,1.38-.7a3.31,3.31,0,0,0,1.66-3.48c-.23-3.67-.32-7.37,1.48-10.75a9.83,9.83,0,0,1,1.95-2.53,1.88,1.88,0,0,1,3.17,1.06c-.3-.23-.49-.39-.69-.53a1.88,1.88,0,0,0-2.51.14,8.08,8.08,0,0,0-2.07,4.23c-.05.17.19.44.32.65.51.75,1,1.48,1.56,2.22Z" />
        <path class="outline"
            d="M431.72,97.17a16.87,16.87,0,0,1-1,8.67l-.33-.3a20.7,20.7,0,0,0,1-7.12c0-.43-.12-.86-.18-1.28Z" />
        <path class="outline" d="M428,111.63c-1,.43-1.65.77-2.37,1a.45.45,0,0,1-.35-.82A2.25,2.25,0,0,1,428,111.63Z" />
        <path class="color-shadow" d="M430.44,105.54l.33.3-.54,1.43-.41-.16Z" />
        <path class="color-shadow" d="M431.72,97.17l-.46,0-.44-.78C431.55,96.33,431.55,96.33,431.72,97.17Z" />
        <path class="color-shadow" d="M428.67,102.19l.56,1.12-.34.18-.52-1Z" />
        <path class="outline" d="M414,138.19l-.26.28Z" />
        <path class="outline" d="M428.35,101.64V102l-.36-.13Z" />
        <path class="outline" d="M428.67,102.19l-.3.28v-.3Z" />
        <path class="outline" d="M403.64,161v-3.86h.26l.46,8.19h-.5l-.16-3.52Z" />
        <path class="color-shadow" d="M403.86,165.35h.5l-.18,2.42-.32-.28Z" />
        <path class="color-shadow" d="M404.13,169.21l-.39,2.35-.44-.09.51-2.29Z" />
        <path class="outline" d="M404.13,169.21l-.32,0,.05-1.68.32.28C404.17,168.25,404.15,168.73,404.13,169.21Z" />
        <path class="color-shadow" d="M403.64,161l.06.79Z" />
        <path class="color-shadow" d="M403.9,157.17h-.26l.17-.19Z" />
        <path class="outline" d="M393.89,205.78l-.25.36-1.28-1.93Z" />
        <path class="color-base"
            d="M410.57,201.52c.69-.7,1.36-1.42,2.09-2.09,1.55-1.43,3.1-2.86,4.7-4.24,2.26-2,4.57-3.84,6.82-5.81,1.32-1.16,2.58-2.38,3.8-3.64,4.82-5,9.67-9.88,14.41-14.9A84.54,84.54,0,0,0,455,153.06a2.15,2.15,0,0,1,.33-.36c.12.93.29,1.76.34,2.6.26,4.31,2.17,7.94,4.6,11.36a45,45,0,0,1,3,4.3,18.83,18.83,0,0,1,1.27,3.91c.18.67-.39.85-.85,1.11-2.88,1.63-5.78,3.21-8.6,4.93-1.66,1-3.18,2.25-4.79,3.35-.58.4-1.23.69-2.15,1.19l1.54-6-.24-.08a15.44,15.44,0,0,0-1.37,3.48c-.37,2.66-2.07,3.72-4.39,4.27-2.94.69-5.84,1.56-8.81,2.1a32,32,0,0,0-12.86,5.44c-2.64,1.87-5.46,3.41-8.23,5.06-1,.62-2,1.38-3,2.08Z" />
    </g>
</svg>
