<svg id="kapyushony_s_golovoy" data-name="kapyushony s golovoy" xmlns="http://www.w3.org/2000/svg"
    viewBox="0 0 672 960">

    <title>Монтажная область 1</title>
    <g id="img_65_img" data-name="img 65 img">
        <path class="outline"
            d="M384.92,29.27l1.92,0c3.82.6,6.87,2.65,9.67,5.16a4,4,0,0,1,1,1c.84,1.72,2.09,1.57,3.75,1.34a35.22,35.22,0,0,1,7.26-.08,56.5,56.5,0,0,1,6.58,1A12.87,12.87,0,0,1,424,44a134.25,134.25,0,0,1,9.6,19c1.53,3.64,3.13,7.26,4.36,11a47.89,47.89,0,0,1,1.92,8.81c.52,4.09.72,8.22,1,12.34.18,2.58.29,5.16.4,7.75.14,3.42.19,6.85.37,10.28.2,4,.49,7.93.76,11.89.09,1.22.32,2.44.36,3.67,0,1.05-.13,2.1-.17,3.16s.28,1.41,1.38,1.36a24.5,24.5,0,0,1,4.28.19,8.77,8.77,0,0,1,5.95,3.66,9.3,9.3,0,0,1,1.35,2.42,12.69,12.69,0,0,0,3.36,4.89,7.5,7.5,0,0,1,2.5,6.44c-.13,1.26-.42,2.51-.57,3.77a14.08,14.08,0,0,0,3.62,11.78,70.11,70.11,0,0,1,6.29,8.59,4.42,4.42,0,0,1-2.42,6.62,30.09,30.09,0,0,1-3,.85,41.17,41.17,0,0,0-12,5.52c-2.58,1.6-5.19,3.14-7.81,4.68a7.63,7.63,0,0,1-2.05,1,7.62,7.62,0,0,0-3.34,2.19A59.34,59.34,0,0,1,422,207.89a24.22,24.22,0,0,1-4.14,1.08c-.58.13-.94.25-.94,1,0,8.68,0,17.36.09,26,.16,10,.62,20,.71,30a161.49,161.49,0,0,1-1.37,22.83c0,.2.21.62.34.63.78.05.83.54.72,1.09-.3,1.57-.6,3.13-1,4.68a1.16,1.16,0,0,1-.87.67,48.27,48.27,0,0,1-5,0c-.23,0-.63-.74-.6-1.1a11,11,0,0,1,.59-3.75c.8-1.77.63-3.6.79-5.39,1.13-13.18.5-26.38.54-39.57,0-11.75.35-23.51.59-35.26,0-.92-.41-.86-1-.77-3.16.44-6.31.94-9.48,1.33a26.29,26.29,0,0,1-4.07.11c-.94,0-1.28.14-1.24,1.21.21,6.76.44,13.51.46,20.27,0,10.48-.17,21-.11,31.43,0,5.19.32,10.38.69,15.56A59.9,59.9,0,0,0,399,286.6a5.27,5.27,0,0,1,.11,1.53c0,.29-.36.75-.57.76-1.58.08-3.16.1-4.73.07-.76,0-1.15-.41-1.23-1.28a22.79,22.79,0,0,0-.74-3.12c-.35-1.39-.31-1.46.79-1.73-.33-4.64-.8-9.25-.94-13.86-.2-6.79-.39-13.6-.17-20.38.4-12,.72-24.06.69-36.1,0-1-.2-1.39-1.3-1.52a71.84,71.84,0,0,1-18.42-4.51,43.82,43.82,0,0,1-14.86-9.25c-3.29-3.3-6.69-6.56-9.16-10.59a13.59,13.59,0,0,1-1.23-2.32,1,1,0,0,0-1.35-.69l-3.54,1.06c-.76.22-1.51.37-2.07-.37a1.67,1.67,0,0,1,.18-2.19,15.71,15.71,0,0,0,.81-1.43c-1.58.76-1.72-.16-2-1-2.08-6.63-4.24-13.25-5.12-20.18-.5-4-.84-8.09-1-12.15-.16-4.43-.12-8.88,0-13.31.15-4.71.56-9.41.81-14.11.21-4,.37-8,.52-12s.24-8,.38-12a80.43,80.43,0,0,1,.45-9.07,23.31,23.31,0,0,1,2.12-6.32,168.61,168.61,0,0,1,13.34-23.41,93,93,0,0,1,16.27-19,41.52,41.52,0,0,1,15.21-8.35C383.13,29.58,384,29.46,384.92,29.27Zm28.56,169,.24-.24a4.9,4.9,0,0,1,1.18-.73,2.55,2.55,0,0,1,1.65-.07c.33.18.36.93.49,1.43a1.26,1.26,0,0,1-.06.42l.3.06a7.17,7.17,0,0,0,.21-1.76c-.11-.76-.61-1.42-1.48-1.16a2.91,2.91,0,0,0-2.28,1.82l-.24.24-.24.24-.42.54.22.1.18-.65ZM395.72,198l.08.2.1-.11-.18-.1-.24-.23a12.72,12.72,0,0,0-1.61-1.59,1.41,1.41,0,0,0-2,.13,1.7,1.7,0,0,0,0,2.13c.2-.56.26-1.3.66-1.65.66-.58,1.41-.19,2,.31.3.25.65.44,1,.66Zm.93-.69.21.15-.1-.26-.22-.14ZM410.9,83.93l-.23-.13.05.29.19.35c1.3,2.94,2.61,5.87,3.93,8.85l2.31-1.77-5.83-7.08ZM396.45,201.12l.23-1-.26,0v1l-.2.52.17,0ZM375.87,69.33l.92-.68.26-.44h-.28l-1.21.86,0,.27Zm17.22,214.88-.19.18.42,2.16c.05,1.59.11,1.65,1.73,1.68.35,0,.71,0,1.07,0,2.27-.07,2.48.3,1.82-2.32-.33-1.32-.53-1.52-1.89-1.49a7.77,7.77,0,0,0-.83.08Zm22.61,9.09.35-2.31-1.84.1-.95.07a5.41,5.41,0,0,0-1.28.08c-.31.09-.75.36-.81.62-.73,3.37-.71,3.37,2.79,3.29C415.53,295.12,415.62,295,415.7,293.3Zm7.45-206.15,1.91,4.44a19.38,19.38,0,0,1,2.28-1.47.88.88,0,0,0,.58-1.2c-.42-1.73-.82-3.47-1.23-5.2l-.29-.45a7.79,7.79,0,0,0-.22-1.38c-1.13-3.29-2.29-6.57-3.45-9.85l.38-.33c1.3,3.16,2.6,6.33,3.92,9.48.09.22.4.35.6.52l.07.39a6,6,0,0,0,.05,1.13c.42,1.66,1,3.29,1.3,5,.2,1,.5,1.5,1.59,1.33a1.8,1.8,0,0,1,1,.29,5.29,5.29,0,0,1,2.48,3.52,16.54,16.54,0,0,1-.93,10.27,14.08,14.08,0,0,0-1.2,6.5,29.46,29.46,0,0,1,.19,4.4c-.18,3.65-.42,7.3-.74,10.94-.22,2.52-.59,5-.9,7.54l-.47,0c.15-1.75.36-3.49.43-5.23.21-5.11.36-10.22.52-15.33a4,4,0,0,0-.18-.78c-.16.19-.25.24-.27.3-.11.38-.21.77-.32,1.15a20.84,20.84,0,0,1-4,8c-.31.36-.65.89-1,.95-1.15.18-1.28,1-1.46,1.87-.11.55-.29,1.08-.39,1.62-.66,3.76-1.53,7.5-1.88,11.29a102.12,102.12,0,0,0-.22,11.61c.06,2.52.51,5,.72,7.56.06.67.33.86.93,1a34.79,34.79,0,0,1,4.39,1.1c4.32,1.52,8.63,3.11,12.91,4.73.68.26,1,.2,1.32-.42a9.34,9.34,0,0,1,1.54-2.13,4.64,4.64,0,0,0,1.33-4.46c-1.11-6.69-2.28-13.37-3.24-20.08-.46-3.15-.54-6.36-.69-9.54-.08-1.59.18-3.2.1-4.79-.32-6.21-.77-12.42-1.07-18.63-.27-5.66-.32-11.33-.64-17a59,59,0,0,0-1.1-8.28c-1-4.92-3-9.52-4.87-14.13-2.69-6.51-5.65-12.87-9.8-18.61-1.63-2.25-3.46-4.25-6.31-4.85a68.2,68.2,0,0,0-8.8-1.57c-2.87-.22-5.82-.47-8.69.36a1.41,1.41,0,0,1-1.07-.43c-3.15-2.91-6.32-5.73-10.43-7.31a9,9,0,0,0-6.51-.06c-8.46,2.94-15,8.43-20.79,15.1-7.52,8.75-13.41,18.57-19,28.62-3.29,6-5.34,12.2-5,19.17.22,4.53-.12,9.09-.35,13.63-.22,4.33-.62,8.64-.94,13-.09,1.22-.15,2.45-.26,3.68-.29,3.41-.8,6.81-.86,10.23-.08,4.69,0,9.41.34,14.09a126.34,126.34,0,0,0,2,15.39c1,5,2.74,9.82,4.18,14.71.06.21.3.36.47.54.31-.49.92.42,1.32-.41a43.41,43.41,0,0,1,3-5.06,31.72,31.72,0,0,0,4.51-10.25c1.26-5.36,2.25-10.77,3.28-16.17a17.23,17.23,0,0,0,.42-4.62c-.28-3.37-1-6.71-1.23-10.08-.35-5.09-.48-10.21-.62-15.31,0-1-.23-1.4-1.19-1.68a27.11,27.11,0,0,1-7.86-3.76c-.35-.25-.65-.57-1-.86l.2-.33a40.11,40.11,0,0,0,9.75,3.88,204,204,0,0,1,4.1-33.77c-.07,1.44-.41,2.85-.59,4.28-.55,4.29-1.11,8.57-1.5,12.87-.42,4.63-.68,9.27-1,13.91-.06,1-.31,2.32.2,2.88s1.94.43,2.9.76.89,0,1-.74c.73-6.85,1.23-13.74,2.33-20.54,1.14-7.1,2.88-14.1,4.32-21.15a9,9,0,0,0,.09-2.14c-.14-3.79-.32-7.57-.47-11.36a3.42,3.42,0,0,1,.19-.86,37.51,37.51,0,0,1,.35,4c.07,1.35.13,2.7.23,4s.25,2.49.38,3.74l.3.09c3.7-7.78,10.6-9.65,18.35-10-1.43-3.13-3.35-5.68-6.82-6.47a17.67,17.67,0,0,0-4.74-.51c-5.55.26-10.24,2.69-14.47,6.15l-.44-.05a8.37,8.37,0,0,1,1.29-1.24A64.58,64.58,0,0,1,364,54.55a19.16,19.16,0,0,1,11.25-1.74,12,12,0,0,1,8.43,5.51c.18.26.39.49.71.88.21-1.55.14-3,1.53-3.7a.41.41,0,0,0,.19-.29c0-1.34.41-2.87-.1-4-1.5-3.2-3.78-5.72-7.58-6.27l-.86-.12c5.22-.6,7.75,3.07,10.46,6.58.5-.32,1-.68,1.57-1,2.11-1.28,2.54-2.22,2.05-4.7a20.78,20.78,0,0,0-.65-2.17l.3-.2,1.17,2A10.16,10.16,0,0,0,390,38.16c2.7,1.81,3.48,4.6,3.91,7.82l2.6-4.31.39.19a4.58,4.58,0,0,1-.27,1.06c-1.07,2.18-2.12,4.37-3.28,6.51a5.43,5.43,0,0,1-1.55,1.62A20.49,20.49,0,0,1,389,52.82a1.85,1.85,0,0,0-1.16,1.93,3.29,3.29,0,0,1-.72,2,2.22,2.22,0,0,0-.75,1.63,3.76,3.76,0,0,1-.27,1.63c-.27.56-.06.64.38.91,3.88,2.38,7.88,4.6,11.55,7.27,6.59,4.8,11.43,11.34,16.4,17.69,1.24,1.59,2.2,3.39,3.35,5.17,1.16-.93,2.36-1.85,3.48-2.85a1.16,1.16,0,0,0,.07-1.09c-1.87-3-3.64-6.11-5.76-9-2.6-3.47-5.51-6.71-8.29-10l.16-.11a5.32,5.32,0,0,1,.74.59c5.1,5.42,10.22,10.83,14.09,17.25a3.34,3.34,0,0,0,.87.74ZM411.39,201.81l.08-.94c.44-1.38.89-2.76,1.34-4.17a2.5,2.5,0,0,0-.53.39c-2.9,3.25-5.85,6.45-8.61,9.82-.38.46,0,1.84.41,2.55.33.54,2.32-.16,2.83-.79,1.36-1.68,2.7-3.36,4.14-5C411.61,203.07,411.82,202.54,411.39,201.81Zm3.45-104.35c.61,3.18,1.22,6.36,1.83,9.56a3,3,0,0,0,.15-.31c1.65-4.75,3.41-9.45,6.64-13.44a.89.89,0,0,0,.15-.72c-.51-1.36-1.07-2.7-1.68-4.2-1.13,1-2.13,1.85-3.09,2.73a9.68,9.68,0,0,0-.88,1l-.17.23a14.36,14.36,0,0,0-2.61,1.91c-.27.3.1,1.22.23,1.84s.29,1.07.44,1.6l-.59-.3-.11-.22-.31-.75-.26.1Zm-56.28,57.31.27.88.23-.07-.08-.74c-.08-.59-.16-1.19-.23-1.78-.48-3.79-1-7.57-1.42-11.36q-.42-3.75-.59-7.51c-.17-3.82-.27-7.64-.33-11.47,0-1.75.15-3.5.19-5.25a.83.83,0,0,0-.43-.64c-1.1-.26-2.22-.46-3.56-.72.17,3.83.21,7.54.54,11.22.36,4,1,8.09,1.51,12.13A59.61,59.61,0,0,0,358.56,154.77Zm80.05,40.74c-3.64.88-7.28,1.78-10.93,2.61a35.9,35.9,0,0,0-9.8,3.42c-.36.2-.82.62-.85,1-.13,1.51-.1,3-.16,4.54,0,.74.3.92.95.74,1.56-.44,3.18-.76,4.68-1.35a56.94,56.94,0,0,0,11.58-6.72,50,50,0,0,0,4.63-4.12l.14-.13Zm-43.11,13-.07-.46c0-2.63.08-5.25,0-7.87a2.9,2.9,0,0,0-1.82-2.71c-.66-.28-1-.2-1,.56s.17,1.56.26,2.34q.12,8.68.22,17.38c.14,11.12-.38,22.22-.65,33.32-.19,7.7.24,15.42.43,23.13,0,1.3.29,2.61.44,3.91.16,1.49.3,3,.49,4.47a.78.78,0,0,0,.44.54c1,.18,2,.29,3,.43-.12-1.46-.26-2.87-.36-4.28-.33-4.56-.84-9.11-.9-13.67-.1-7.1.16-14.2.16-21.31,0-8.14-.12-16.28-.22-24.43,0-2.11-.18-4.21-.28-6.32,0-1.43,0-2.86,0-4.29Zm18,1.22-.09,2.62a3.32,3.32,0,0,0-.15.68c-.16,7.9-.38,15.8-.46,23.71,0,4.51.2,9,.17,13.53-.07,12,.6,23.95-.9,35.88-.16,1.29-.22,2.59-.33,3.92,1-.16,1.94-.26,2.82-.44a.86.86,0,0,0,.57-.54c.2-1.57.34-3.15.5-4.72a4.79,4.79,0,0,0,.2-.81c.26-5.78.75-11.56.72-17.34,0-9.81-.49-19.63-.64-29.44-.11-7.51-.07-15,0-22.53,0-4.47.13-8.94.2-13.41.09-.82.23-1.64.26-2.46,0-.59-.31-.72-.88-.47a2.92,2.92,0,0,0-1.83,2.84C413.59,203.77,413.58,206.77,413.54,209.76Zm-34.61-2.69A56.93,56.93,0,0,0,391,209.58c.69.09,1.17,0,1.09-.91s0-1.67-.06-2.51a3,3,0,0,0-1.23-3.34c-.45-.33-.84-.74-1.29-1.07-2.94-2.21-5.82-4.56-9.31-5.83A133.61,133.61,0,0,0,360.79,190a29.55,29.55,0,0,1-10.46-3.81c.22.37.3.54.41.68,1.54,1.84,3.13,3.63,4.61,5.51a37.9,37.9,0,0,0,10.91,9.42A47.42,47.42,0,0,0,378.93,207.07Zm38.4-11.5,1.09,1.55-.2,1.86c4.71-2.22,9.64-2.78,14.49-3.67,3.92-.72,7.9-1.35,11.51-3.09a75.25,75.25,0,0,0,8.71-5c3.68-2.41,7.19-5.07,11.34-6.66a25.75,25.75,0,0,0,2.62-1.2,3,3,0,0,0,1.31-4q-2.77-4.7-5.69-9.3a18.75,18.75,0,0,1-2.53-5.9c-.68-3-.52-5.95-.6-8.93a5.69,5.69,0,0,0-.58-2.88c-1.12-1.7-2.52-3.21-3.75-4.73-.95,2-1.72,4-2.81,5.88-1.8,3-3.7,6-5.74,8.84-3,4.16-5.88,8.4-9.22,12.26-4.91,5.67-10.15,11.07-15.31,16.53-2.69,2.85-5.5,5.58-8.25,8.37a9.44,9.44,0,0,0-.75,1l.19.2C414.46,196,415.66,194.78,417.33,195.57Zm-69.2-13.81a2.69,2.69,0,0,0,.51.67c1.38,1,2.74,2,4.19,2.79a34.39,34.39,0,0,0,5.65,2.85c5.78,2,11.61,3.77,17.44,5.57a32.79,32.79,0,0,1,11.41,5.65q2.34,1.92,4.66,3.86l.27-.06a10.53,10.53,0,0,0-.57-3.13,6.72,6.72,0,0,1-1-3.6c1.1-1.5,2.17-1.72,3.79-.76.62.37,1.2.81,1.8,1.22l.2-.17a14.71,14.71,0,0,0-.83-1.23c-2.39-3-4.67-6.09-7.22-8.94a102.67,102.67,0,0,0-9.61-9.84c-5.48-4.67-10.83-9.47-16-14.5a25.56,25.56,0,0,1-7-12.88c-.28-1.22-.48-2.46-.67-3.45-1.41,6.24-2.4,12.8-4.44,19s-5.11,12.05-7.71,18Zm40.41.36a8,8,0,0,0,.82,2.43c2.61,3.44,5.31,6.8,8,10.15a2.25,2.25,0,0,0,1.17.59,10.43,10.43,0,0,0,1.48.12c-.15.23-.26.25-.38.26-1.43.12-1.38.15-.68,1.41,1.21,2.18,2.35,4.41,3.46,6.65.41.83.8.45,1.16.08.65-.68,1.25-1.42,1.88-2.12q5.59-6.25,11.21-12.5c.2-.21.37-.45.67-.83-3.67.1-7.16-.08-10.3,1.83a1.49,1.49,0,0,1-.91.22,1.22,1.22,0,0,1-.82-.52,1.18,1.18,0,0,1,.21-1,1.62,1.62,0,0,1,.9-.56,23.15,23.15,0,0,1,3.84-.71c2.35-.12,4.71,0,7.07,0a1.9,1.9,0,0,0,1.19-.37c2.67-2.53,5.32-5.06,7.9-7.67,1.28-1.28,2.38-2.73,3.55-4.1-4.17-1.14-8.2-2.21-12.21-3.35-1.47-.42-3.08-.81-3-2.89a1.78,1.78,0,0,0-.15-.58,52,52,0,0,1-1.94-12.51c-.19-4.46-.14-8.95-.2-13.42,0-.32-.06-.64-.08-.85-3.77,3.39-7.44,6.82-11.24,10.09-3.6,3.1-7.26,6.17-11.64,8.17-.53.24-.44.51-.24.92q2.19,4.53,4.36,9.06l-.29.28c-1.51-2.9-3-5.79-4.5-8.71-.36-.71-.65-1.09-1.51-.71a3.64,3.64,0,0,1-3.14-.09,17.07,17.07,0,0,1-3.07-2c-1-.75-1.8-1.65-2.87-2.64.46,3,1,5.77,1.24,8.55.21,3,.06,6.1.08,9.15a1.43,1.43,0,0,0,.16.84,14.69,14.69,0,0,0,1.46,1.38c1,.88,2.13,1.67,3.08,2.62,1.23,1.24,2.36,2.59,3.53,3.9l.33.4.12-.47-.16-.49ZM373.84,71c.37-.3.75-.59,1.1-.91a5.2,5.2,0,0,0,.55-.69,2.64,2.64,0,0,0-.92.18c-3,2-6,4-9,6.15a1.89,1.89,0,0,0-.52,1.43,26.75,26.75,0,0,0,.46,3c.86,5.24,1.61,10.49,2.62,15.7,1.19,6.07,2.62,12.09,3.92,18.14.14.66.36.79,1,.65a74.88,74.88,0,0,0,15.5-4.75c8.69-3.84,16.22-9.57,23.94-15,.52-.36.4-.72.3-1.23-.88-4.11-2.78-7.79-4.73-11.46a37.28,37.28,0,0,0-8.18-10.38c-4.49-4-9.86-6.81-14.73-10.29-.05,0-.14,0,0,0a42.63,42.63,0,0,1-3.7,4c-2.44,2-5.06,3.89-7.6,5.82Zm-1.18,45.4c.28,1.06.51,1.94.75,2.82,3.69,13.42,9,26.25,14.55,39,.29.67.59.72,1.15.44a29.27,29.27,0,0,0,3.82-2c4.22-3,8.46-6,12.5-9.27,3.11-2.49,6.18-5.18,8-8.82a59,59,0,0,0,3.13-8.12c1.17-3.54,1.4-7.37,3.37-10.68.53-.9.95-1.14,1.76-.51a17.29,17.29,0,0,1,1.58,1.62c.87.9,1.41.87,2.07-.18a17.74,17.74,0,0,0,1.6-2.93C429,112.4,431.09,107,433,101.63a12.63,12.63,0,0,0,.34-8c-.7-2.34-2.28-3.55-4.25-3.13a9.67,9.67,0,0,0-2.2.89,8.7,8.7,0,0,0-3.85,4.44A101.86,101.86,0,0,0,418.65,106c-1.07,3.14-2.36,6.28-2.39,9.71a17.55,17.55,0,0,1-.52,2.92,112.83,112.83,0,0,0-2.44-23C401.2,105.61,388.56,114.09,372.66,116.4Zm-14.55.76c-.07.09-.34.31-.36.55a35.59,35.59,0,0,0-.2,3.57c0,3.32.26,6.64.09,9.94a6.64,6.64,0,0,0,1.84,5.08c4.09,4.58,8,9.35,12.73,13.31,3.4,2.84,6.77,5.73,10.16,8.58a5,5,0,0,0,3.86,1.23c1.38-.15,1.38-.19.8-1.4a222.76,222.76,0,0,1-15.26-40.37c-.24-.88-.64-.9-1.35-.85-3.1.21-6.2.4-9.31.54A28.78,28.78,0,0,1,358.11,117.16ZM364.17,77c-1.2,1-1.23,1-1.46,2.33-1,6.25-2.16,12.49-3,18.76-.82,5.8-1.39,11.64-2.08,17.52a22.86,22.86,0,0,0,3,.22c3.17-.15,6.34-.38,9.51-.59.71,0,1-.25.77-1.13a258.82,258.82,0,0,1-5.12-26.48C365.23,84.09,364.7,80.59,364.17,77Zm66.91,96.88a4.54,4.54,0,0,0,.81-.59c1-1,2-2.09,2.93-3.17,1.47-1.68,2.9-3.39,4.37-5.08.55-.62.51-.95-.36-1.21a32.8,32.8,0,0,1-3.13-1.17,84.33,84.33,0,0,0-18.8-5.44c-2.4-.38-2.44-.43-2.28,1.91a39.51,39.51,0,0,0,2.13,10.13,2.1,2.1,0,0,0,1.12,1.2c2.34.78,4.7,1.5,7.09,2.12C426.92,173,428.92,173.39,431.08,173.84ZM360,157.66l16-3.51c-6.87-5.42-12.49-11.89-18.25-18.28A188,188,0,0,0,360,157.66Zm61-1.23c-.33-3-.81-6-.94-9a77.89,77.89,0,0,1,0-11.33c.47-4.63,1.52-9.19,2.32-13.78,0-.23.14-.6,0-.67a7.2,7.2,0,0,0-1.77-1c-.12,0-.62.72-.72,1.17-.58,2.43-1,4.91-1.63,7.32a29.21,29.21,0,0,1-3.93,9.46,3.43,3.43,0,0,0-.62,1.83c0,4.07.1,8.14.19,12.21a17.07,17.07,0,0,0,.21,2.13.67.67,0,0,0,.38.45C416.7,155.7,418.84,156.06,421,156.43Zm24.4.19.29,0c1.44-1.91,2.92-3.78,4.3-5.74,1.28-1.81,2.71-3.58,3-5.91.09-.79.15-1.59.23-2.38a5.21,5.21,0,0,0-1.9-4.76c-2.18-1.88-4.79-2-7.47-1.88-.79,0-.6.52-.52,1,.36,2.4.81,4.78,1,7.19.35,3.72.53,7.46.79,11.18A9,9,0,0,0,445.39,156.62Zm-76.26,4.57.23-.05c.31,1.16.58,2.34.94,3.49a5.5,5.5,0,0,0,1,2.1c1.66,1.72,3.44,3.32,5.18,5,.81.75,1.23.76,1.55-.26a7.32,7.32,0,0,0,.17-2.88c-.42-4.07-.93-8.13-1.37-12.2-.06-.58-.35-.67-.8-.58-3.39.66-6.79,1.31-10.17,2a27.26,27.26,0,0,0-3,1l6.29,6,.28-.18Zm13.16-98.12-.12-.23a2.91,2.91,0,0,0-.66,0c-3.11.71-6.24,1.35-9.31,2.17-3.44.91-5.61,3.34-7.21,6.4a4.86,4.86,0,0,0-.13,3.7,42.21,42.21,0,0,1,9-6.57c2.21-1.27,4.43-2.53,6.61-3.87A14,14,0,0,0,382.29,63.07Zm15,135.15c.39,1.86.44,3.63-.81,5.21a.41.41,0,0,0,0,.23c.07,1.91.11,3.83.22,5.74a.89.89,0,0,0,.64.59,23.21,23.21,0,0,0,3.23,0c.22,0,.58-.48.57-.73,0-1-.22-2-.3-3C400.58,203.21,398.8,200.81,397.3,198.22Zm10.6,10.52.17.35c1.34-.18,2.68-.35,4-.56a.63.63,0,0,0,.42-.45c0-1.09,0-2.17,0-3.25l-.28-.13ZM363.2,76.65c1.15-.52.89-1.29.84-2l-.34-.07Zm49.19,125.42.32,0v-2.35h-.15Zm2.17-105.88.15-.06-.19-.54-.18.07Zm-18.14,103-.11-.17c0,.07-.1.15-.08.21s.09.12.14.19A1.89,1.89,0,0,0,396.42,199.21ZM377.32,68.07l.05-.06-.07,0Zm18.77,130.58s.06,0,.07-.06,0-.05-.06-.08l-.07.11Zm1.05-.78-.06-.09s-.08.05-.08.08,0,.06.06.1Z" />
        <path class="color-base"
            d="M390.73,196.36a6.72,6.72,0,0,0,1,3.6,10.53,10.53,0,0,1,.57,3.13l-.27.06q-2.33-1.93-4.66-3.86a32.79,32.79,0,0,0-11.41-5.65c-5.83-1.8-11.66-3.6-17.44-5.57a34.39,34.39,0,0,1-5.65-2.85c-1.45-.83-2.81-1.83-4.19-2.79a2.69,2.69,0,0,1-.51-.67C350.8,173,354,164.34,356,155.33c.84,1.68,1.4,3.37,2.17,5a33.1,33.1,0,0,0,6.37,9c2.79,2.78,5.56,5.61,8.55,8.16,2.71,2.31,5.79,4.21,8.57,6.44a17.81,17.81,0,0,1,4.93,5.15C387.93,191.53,389.35,193.93,390.73,196.36Z" />
        <path class="color-base"
            d="M418.42,197.12l-1.09-1.55a20.67,20.67,0,0,1,1.86-2.1c2.56-2.26,5.31-4.34,7.75-6.73,3.81-3.74,7.44-7.68,11.13-11.55,2.42-2.55,5-5,7.16-7.71,2.67-3.31,5.06-6.85,7.49-10.34,1-1.38,1.71-2.9,2.56-4.36a3.92,3.92,0,0,1,.22,1.2,52.94,52.94,0,0,0,1.26,6.16c1.22,3.78,3.66,6.88,6.05,10a8.57,8.57,0,0,1,1.75,4.61,1.44,1.44,0,0,1-.59,1.11c-.84.52-1.83.81-2.66,1.34-3.72,2.38-7.41,4.83-11.12,7.22a20,20,0,0,1-2,1c.55-2.15,1-4,1.5-5.87l-.3-.08c-.69,1.85-1.34,3.72-2.07,5.55-.18.44-.51,1-.89,1.15-3.54,1-7.1,2-10.66,3-2.3.62-4.69,1-6.9,1.85C425.07,192.4,421.77,194.82,418.42,197.12Z" />
        <path class="color-shadow"
            d="M418.42,197.12c3.35-2.3,6.65-4.72,10.48-6.16,2.21-.84,4.6-1.23,6.9-1.85,3.56-1,7.12-1.94,10.66-3,.38-.11.71-.71.89-1.15.73-1.83,1.38-3.7,2.07-5.55l.3.08c-.47,1.86-1,3.72-1.5,5.87a20,20,0,0,0,2-1c3.71-2.39,7.4-4.84,11.12-7.22.83-.53,1.82-.82,2.66-1.34a1.44,1.44,0,0,0,.59-1.11,8.57,8.57,0,0,0-1.75-4.61c-2.39-3.09-4.83-6.19-6.05-10A52.94,52.94,0,0,1,455.5,154a3.92,3.92,0,0,0-.22-1.2c-.85,1.46-1.6,3-2.56,4.36-2.43,3.49-4.82,7-7.49,10.34-2.19,2.73-4.74,5.16-7.16,7.71-3.69,3.87-7.32,7.81-11.13,11.55-2.44,2.39-5.19,4.47-7.75,6.73a20.67,20.67,0,0,0-1.86,2.1c-1.67-.79-2.87.39-4.17,1.11l-.19-.2a9.44,9.44,0,0,1,.75-1c2.75-2.79,5.56-5.52,8.25-8.37,5.16-5.46,10.4-10.86,15.31-16.53,3.34-3.86,6.25-8.1,9.22-12.26,2-2.85,3.94-5.82,5.74-8.84,1.09-1.84,1.86-3.86,2.81-5.88,1.23,1.52,2.63,3,3.75,4.73a5.69,5.69,0,0,1,.58,2.88c.08,3-.08,6,.6,8.93a18.75,18.75,0,0,0,2.53,5.9q2.91,4.6,5.69,9.3a3,3,0,0,1-1.31,4,25.75,25.75,0,0,1-2.62,1.2c-4.15,1.59-7.66,4.25-11.34,6.66a75.25,75.25,0,0,1-8.71,5c-3.61,1.74-7.59,2.37-11.51,3.09-4.85.89-9.78,1.45-14.49,3.67Z" />
        <path class="color-shadow"
            d="M390.73,196.36c-1.38-2.43-2.8-4.83-4.13-7.28a17.81,17.81,0,0,0-4.93-5.15c-2.78-2.23-5.86-4.13-8.57-6.44-3-2.55-5.76-5.38-8.55-8.16a33.1,33.1,0,0,1-6.37-9c-.77-1.59-1.33-3.28-2.17-5-2,9-5.21,17.64-7.88,26.43l-5.07,1.05c2.6-5.95,5.68-11.8,7.71-18s3-12.76,4.44-19c.19,1,.39,2.23.67,3.45a25.56,25.56,0,0,0,7,12.88c5.14,5,10.49,9.83,16,14.5a102.67,102.67,0,0,1,9.61,9.84c2.55,2.85,4.83,5.94,7.22,8.94a14.71,14.71,0,0,1,.83,1.23l-.2.17c-.6-.41-1.18-.85-1.8-1.22C392.9,194.64,391.83,194.86,390.73,196.36Z" />
        <path class="color-shadow"
            d="M431.08,173.84c-2.16-.45-4.16-.8-6.12-1.3-2.39-.62-4.75-1.34-7.09-2.12a2.1,2.1,0,0,1-1.12-1.2,39.51,39.51,0,0,1-2.13-10.13c-.16-2.34-.12-2.29,2.28-1.91a84.33,84.33,0,0,1,18.8,5.44,32.8,32.8,0,0,0,3.13,1.17c.87.26.91.59.36,1.21-1.47,1.69-2.9,3.4-4.37,5.08-.95,1.08-1.93,2.13-2.93,3.17A4.54,4.54,0,0,1,431.08,173.84Z" />
        <path class="color-shadow"
            d="M378.93,207.07a47.42,47.42,0,0,1-12.67-5.23,37.9,37.9,0,0,1-10.91-9.42c-1.48-1.88-3.07-3.67-4.61-5.51-.11-.14-.19-.31-.41-.68A29.55,29.55,0,0,0,360.79,190a133.61,133.61,0,0,1,19.45,5.88c3.49,1.27,6.37,3.62,9.31,5.83.45.33.84.74,1.29,1.07a3,3,0,0,1,1.23,3.34,3.25,3.25,0,0,1-.7-.42,19.36,19.36,0,0,0-7.26-4.68c-2.45-.93-4.86-2-7.37-2.76s-5.33-1.19-8-1.77l-6.41-1.43a1.07,1.07,0,0,0,.38.71c2.35,1.89,4.62,3.91,7.09,5.62,2.28,1.58,4.8,2.82,7.19,4.25A22.09,22.09,0,0,1,378.93,207.07Z" />
        <path class="color-base"
            d="M378.93,207.07a22.09,22.09,0,0,0-1.94-1.39c-2.39-1.43-4.91-2.67-7.19-4.25-2.47-1.71-4.74-3.73-7.09-5.62a1.07,1.07,0,0,1-.38-.71l6.41,1.43c2.67.58,5.39,1,8,1.77s4.92,1.83,7.37,2.76a19.36,19.36,0,0,1,7.26,4.68,3.25,3.25,0,0,0,.7.42c0,.84,0,1.68.06,2.51s-.4,1-1.09.91A56.93,56.93,0,0,1,378.93,207.07Z" />
        <path class="color-base"
            d="M416.11,200.87c-.07,4.47-.18,8.94-.2,13.41,0,7.51-.07,15,0,22.53.15,9.81.59,19.63.64,29.44,0,5.78-.46,11.56-.72,17.34a4.79,4.79,0,0,1-.2.81l-1.18.62c0-.46-.05-.84-.05-1.23V276c0-1.68,0-3.36,0-5,.06-3.56.25-7.13.21-10.69-.06-4.1-.37-8.19-.44-12.29-.05-2.74.23-5.49.19-8.24-.08-4.81-.31-9.62-.45-14.44-.11-3.9-.16-7.81-.26-11.71a6.47,6.47,0,0,0-.26-1.22l.09-2.62A2.87,2.87,0,0,0,414,209c.43-2.38.81-4.77,1.25-7.15C415.29,201.42,415.33,200.77,416.11,200.87Z" />
        <path class="color-base"
            d="M395.43,208.08l.07.46.12.74c0,1.43,0,2.86,0,4.29-.14.21-.38.41-.4.63-.11,1.06-.21,2.13-.24,3.2-.18,5-.37,9.95-.47,14.93,0,1.9.23,3.82.19,5.72-.11,5.9-.36,11.79-.44,17.69,0,3.7.15,7.41.22,11.11,0,1.8.06,3.6.07,5.39,0,2.15,0,4.3,0,6.55l-1.26-.65c-.15-1.3-.4-2.61-.44-3.91-.19-7.71-.62-15.43-.43-23.13.27-11.1.79-22.2.65-33.32q-.11-8.68-.22-17.38c.66-.26.82.14.92.67.39,2.13.79,4.27,1.21,6.39C395.06,207.69,395.29,207.87,395.43,208.08Z" />
        <path class="color-shadow"
            d="M445.39,156.62a9,9,0,0,1-.26-1.25c-.26-3.72-.44-7.46-.79-11.18-.22-2.41-.67-4.79-1-7.19-.08-.49-.27-1,.52-1,2.68-.1,5.29,0,7.47,1.88a5.21,5.21,0,0,1,1.9,4.76c-.08.79-.14,1.59-.23,2.38-.28,2.33-1.71,4.1-3,5.91-1.38,2-2.86,3.83-4.3,5.74Z" />
        <path class="color-shadow"
            d="M369.13,161.19l.25,3.51-.28.18-6.29-6a27.26,27.26,0,0,1,3-1c3.38-.71,6.78-1.36,10.17-2,.45-.09.74,0,.8.58.44,4.07.95,8.13,1.37,12.2a7.32,7.32,0,0,1-.17,2.88c-.32,1-.74,1-1.55.26-1.74-1.65-3.52-3.25-5.18-5a5.5,5.5,0,0,1-1-2.1c-.36-1.15-.63-2.33-.94-3.49Z" />
        <path class="color-shadow"
            d="M413.45,212.38a6.47,6.47,0,0,1,.26,1.22c.1,3.9.15,7.81.26,11.71.14,4.82.37,9.63.45,14.44,0,2.75-.24,5.5-.19,8.24.07,4.1.38,8.19.44,12.29,0,3.56-.15,7.13-.21,10.69,0,1.68,0,3.36,0,5v7.78c0,.39,0,.77.05,1.23l1.18-.62c-.16,1.57-.3,3.15-.5,4.72a.86.86,0,0,1-.57.54c-.88.18-1.79.28-2.82.44.11-1.33.17-2.63.33-3.92,1.5-11.93.83-23.92.9-35.88,0-4.51-.21-9-.17-13.53.08-7.91.3-15.81.46-23.71A3.32,3.32,0,0,1,413.45,212.38Z" />
        <path class="color-shadow"
            d="M393.33,278.14l1.26.65c0-2.25,0-4.4,0-6.55,0-1.79,0-3.59-.07-5.39-.07-3.7-.26-7.41-.22-11.11.08-5.9.33-11.79.44-17.69,0-1.9-.23-3.82-.19-5.72.1-5,.29-10,.47-14.93,0-1.07.13-2.14.24-3.2,0-.22.26-.42.4-.63.1,2.11.26,4.21.28,6.32.1,8.15.22,16.29.22,24.43,0,7.11-.26,14.21-.16,21.31.06,4.56.57,9.11.9,13.67.1,1.41.24,2.82.36,4.28-1-.14-2-.25-3-.43a.78.78,0,0,1-.44-.54C393.63,281.13,393.49,279.63,393.33,278.14Z" />
        <path class="color-shadow"
            d="M438.71,195.61a50,50,0,0,1-4.63,4.12,56.94,56.94,0,0,1-11.58,6.72c-1.5.59-3.12.91-4.68,1.35-.65.18-1,0-.95-.74.06-1.51,0-3,.16-4.54,0-.36.49-.78.85-1a35.9,35.9,0,0,1,9.8-3.42c3.65-.83,7.29-1.73,10.93-2.61A.94.94,0,0,0,438.71,195.61Z" />
        <path class="color-shadow"
            d="M411.39,201.81c.43.73.22,1.26-.34,1.89-1.44,1.61-2.78,3.29-4.14,5-.51.63-2.5,1.33-2.83.79-.43-.71-.79-2.09-.41-2.55,2.76-3.37,5.71-6.57,8.61-9.82a2.5,2.5,0,0,1,.53-.39c-.45,1.41-.9,2.79-1.34,4.17l-1.13.87.18.23Z" />
        <path class="color-shadow"
            d="M397.3,198.22c1.5,2.59,3.28,5,3.51,8.05.08,1,.27,2,.3,3,0,.25-.35.72-.57.73a23.21,23.21,0,0,1-3.23,0,.89.89,0,0,1-.64-.59c-.11-1.91-.15-3.83-.22-5.74a.41.41,0,0,1,0-.23C397.74,201.85,397.69,200.08,397.3,198.22Z" />
        <path class="color-shadow"
            d="M416.11,200.87c-.78-.1-.82.55-.91,1-.44,2.38-.82,4.77-1.25,7.15a2.87,2.87,0,0,1-.41.74c0-3,0-6,.12-9a2.92,2.92,0,0,1,1.83-2.84c.57-.25.89-.12.88.47C416.34,199.23,416.2,200.05,416.11,200.87Z" />
        <path class="color-shadow"
            d="M395.43,208.08c-.14-.21-.37-.39-.41-.62-.42-2.12-.82-4.26-1.21-6.39-.1-.53-.26-.93-.92-.67-.09-.78-.22-1.56-.26-2.34s.32-.84,1-.56a2.9,2.9,0,0,1,1.82,2.71C395.51,202.83,395.44,205.45,395.43,208.08Z" />
        <path class="color-shadow"
            d="M415.7,293.3c-.08,1.72-.17,1.82-1.74,1.85-3.5.08-3.52.08-2.79-3.29.06-.26.5-.53.81-.62a5.41,5.41,0,0,1,1.28-.08,5.05,5.05,0,0,0-.42,1.07,2.11,2.11,0,0,0,.11,1.12c.07.14.57.09.87.08C414.45,293.4,415.07,293.34,415.7,293.3Z" />
        <path class="color-shadow"
            d="M395.22,284.49a7.77,7.77,0,0,1,.83-.08c1.36,0,1.56.17,1.89,1.49.66,2.62.45,2.25-1.82,2.32-.36,0-.72,0-1.07,0-1.62,0-1.68-.09-1.73-1.68h.82c.67,0,1.69.26,1.93-.06C396.75,285.6,395.53,285.17,395.22,284.49Z" />
        <path class="color-shadow"
            d="M407.9,208.74l4.35-4,.28.13c0,1.08,0,2.16,0,3.25a.63.63,0,0,1-.42.45c-1.34.21-2.68.38-4,.56Z" />
        <path class="color-base"
            d="M415.7,293.3c-.63,0-1.25.1-1.88.13-.3,0-.8.06-.87-.08a2.11,2.11,0,0,1-.11-1.12,5.05,5.05,0,0,1,.42-1.07l.95-.07,1.84-.1C415.93,291.76,415.82,292.53,415.7,293.3Z" />
        <path class="color-base"
            d="M395.22,284.49c.31.68,1.53,1.11.85,2-.24.32-1.26.05-1.93.06h-.82l-.42-2.16.19-.18Z" />
        <path class="color-shadow"
            d="M393.62,170.11c1.28,2.19,2.54,4.38,3.84,6.55a19.26,19.26,0,0,1,1.37,2.27,33,33,0,0,1-5.5-8.54Z" />
        <path class="color-shadow"
            d="M413.73,198a2.91,2.91,0,0,1,2.28-1.82c.87-.26,1.37.4,1.48,1.16a7.17,7.17,0,0,1-.21,1.76L417,199a1.26,1.26,0,0,0,.06-.42c-.13-.5-.16-1.25-.49-1.43a2.55,2.55,0,0,0-1.65.07,4.9,4.9,0,0,0-1.18.73Z" />
        <path class="color-shadow"
            d="M395.48,197.74c-.32-.22-.67-.41-1-.66-.63-.5-1.38-.89-2-.31-.4.35-.46,1.09-.66,1.65a1.7,1.7,0,0,1,0-2.13,1.41,1.41,0,0,1,2-.13,12.72,12.72,0,0,1,1.61,1.59Z" />
        <path class="color-shadow" d="M422.73,72,421,67.88l.36-.17a15.83,15.83,0,0,1,1.79,4Z" />
        <path class="color-shadow" d="M426.69,83.72l-3.54,3.43-.06-.53,3.31-3.35Z" />
        <path class="color-shadow" d="M430.54,133c-.2,1.27-.41,2.54-.61,3.81l-.38,0,.52-3.82Z" />
        <path class="color-shadow" d="M373.9,71.47,371,73.62l-.28-.38L373.84,71Z" />
        <path class="color-shadow" d="M388.08,182.11l-.41-3.93.31,0,.56,4Z" />
        <path class="color-shadow" d="M415.85,97.7l.69,2.29-.38.13-.9-2.72Z" />
        <path class="color-base" d="M363.2,76.65l.5-2.09.34.07C364.09,75.36,364.35,76.13,363.2,76.65Z" />
        <path class="color-shadow" d="M412.39,202.07l.17-2.39h.15V202Z" />
        <path class="color-shadow" d="M427.63,81.71l.9-1.44.35.26L427.7,82.1Z" />
        <path class="color-base" d="M411.39,201.81l-.87.16-.18-.23,1.13-.87Z" />
        <path class="color-base" d="M375.56,69.07l1.21-.86,0,.44-.92.68Z" />
        <path class="color-base" d="M358.56,154.77l.42.07.08.74-.23.07Z" />
        <path class="color-base" d="M415.15,97.18l-.31.28-.26-.93.26-.1Z" />
        <path class="color-shadow" d="M395.62,209.28l-.12-.74Z" />
        <path class="color-shadow" d="M356.05,59.91l.36-.43.44.05-.58.67Z" />
        <path class="color-shadow" d="M413.23,198.46l-.18.65-.22-.1.42-.54Z" />
        <path class="color-shadow" d="M396.42,201.09v-1l.26,0-.23,1Z" />
        <path class="color-shadow" d="M414.56,96.19l-.22-.53.18-.07.19.54Z" />
        <path class="color-shadow" d="M387.79,182.67l.45-.07-.12.47Z" />
        <path class="color-shadow"
            d="M396.42,199.21a1.89,1.89,0,0,1-.05.23c-.05-.07-.13-.12-.14-.19s0-.14.08-.21S396.38,199.16,396.42,199.21Z" />
        <path class="color-base" d="M411.32,84.44h-.41l-.19-.35.18-.16Z" />
        <path class="color-shadow" d="M396.45,201.12l-.06.53-.17,0,.2-.52Z" />
        <path class="color-shadow" d="M376.79,68.65l0-.44h.28Z" />
        <path class="color-base" d="M375.87,69.33h-.35l0-.27Z" />
        <path class="color-shadow" d="M438.61,195.51l.24,0-.14.13A.94.94,0,0,1,438.61,195.51Z" />
        <path class="color-shadow" d="M396.65,197.3l-.11-.25.22.14Z" />
        <path class="color-shadow" d="M396.76,197.19l.1.26-.21-.15Z" />
        <path class="color-shadow" d="M395.72,198l-.24-.25h0l.24.23Z" />
        <path class="color-shadow" d="M395.72,198l.18.1-.1.11-.08-.2Z" />
        <path class="color-shadow" d="M413.72,198l-.24.24h0l.24-.24Z" />
        <path class="color-shadow" d="M413.25,198.47l.24-.24h0l-.25.24Z" />
        <path class="color-shadow" d="M393.09,284.21l-.19.18Z" />
        <path class="color-shadow" d="M418,92.12a2,2,0,0,0-.17.23A2,2,0,0,1,418,92.12Z" />
        <polygon class="color-shadow" points="377.32 68.07 377.3 67.99 377.37 68.01 377.32 68.07" />
        <path class="color-base" d="M410.72,84.09l-.05-.29.23.13Z" />
        <path class="color-shadow" d="M396.09,198.65l-.06,0,.07-.11s.06.05.06.08S396.11,198.63,396.09,198.65Z" />
        <path class="color-shadow" d="M397.14,197.87l-.08.09s-.06-.07-.06-.1.05-.06.08-.08Z" />
        <path class="color-shadow" d="M428.83,142.31l-1.24,4.52-.5-.15,1.49-4.37Z" />
        <path class="color-shadow" d="M429.81,137.76l-.71,3.1h-.25c.19-1,.39-2.08.59-3.12Z" />
        <path class="color-shadow" d="M406.86,67.9l-2.22-1.66.34-.41,2.28,2Z" />
        <path class="outline" d="M428.85,140.86h.25l-.27,1.45h-.25Z" />
        <path class="color-shadow" d="M390.87,43.45l-.6-1.1.32-.19.6,1Z" />
        <path class="color-shadow" d="M356.27,60.2l-.65.88-.27-.17.7-1Z" />
        <path class="outline" d="M429.81,137.76l-.37,0c0-.32.07-.65.11-1l.38,0Z" />
        <path class="outline" d="M406.86,67.9l.4,0a.18.18,0,0,1,.13.17l-.16.11Z" />
        <path class="outline" d="M390.87,43.45l.32-.31a.29.29,0,0,1,.07.2l-.3.2A.11.11,0,0,1,390.87,43.45Z" />
        <path class="outline"
            d="M428,101.9l-1.83-1.5a4.4,4.4,0,0,0-.27.94c0,2.18.08,4.37-.1,6.54a6.23,6.23,0,0,1-1.19,2.53A15.28,15.28,0,0,1,423.2,112c-.46.56-1.19,1.12-.11,1.82a1.45,1.45,0,0,1-.39,1,1.36,1.36,0,0,1-2-1.4,2.56,2.56,0,0,1,1.59-2.22,8.6,8.6,0,0,0,1.82-1.11,3.17,3.17,0,0,0,1.06-3c-.32-3.66-.35-7.36,1.44-10.75A8.93,8.93,0,0,1,428.48,94a2,2,0,0,1,3.25.77c-.07,0-.16.09-.19.07-1.44-1.24-2.39-1.25-3.45.31a18.71,18.71,0,0,0-1.61,3.55c-.07.19.17.53.32.77.5.75,1,1.48,1.55,2.23Z" />
        <path class="outline"
            d="M431.72,97.17a16.76,16.76,0,0,1-1,8.67l-.33-.3a20.7,20.7,0,0,0,1-7.12c0-.43-.12-.86-.18-1.28Z" />
        <path class="outline"
            d="M427.87,111.62c-.78.37-1.41.72-2.08,1-.22.08-.54-.11-.81-.17.15-.25.25-.58.48-.72A2,2,0,0,1,427.87,111.62Z" />
        <path class="color-shadow" d="M430.44,105.54l.33.3-.54,1.43-.41-.16Z" />
        <path class="color-shadow" d="M431.72,97.17l-.46,0-.44-.78C431.55,96.33,431.55,96.33,431.72,97.17Z" />
        <path class="color-shadow" d="M428.67,102.19l.55,1.12-.33.18-.52-1Z" />
        <path class="outline" d="M428.67,102.19l-.3.28v-.3Z" />
        <path class="outline" d="M428.35,101.65V102l-.36-.13Z" />
        <path class="outline" d="M403.86,165.35c-.11-2.74-.23-5.49-.34-8.23l.32,0c.76,2.71.48,5.5.52,8.26Z" />
        <path class="color-shadow" d="M404.15,168.23a6,6,0,0,1-.52,3.31l-.28,0,.45-3.27Z" />
        <path class="color-shadow" d="M403.86,165.35h.5l-.18,2.42-.32-.28Z" />
        <path class="outline" d="M403.86,167.5l.32.28,0,.45h-.35Z" />
    </g>
</svg>
