<svg id="kapyushony_s_golovoy" data-name="kapyushony s golovoy" xmlns="http://www.w3.org/2000/svg"
    viewBox="0 0 672 960">

    <g id="img_64_img" data-name="img 64 img">
        <path class="outline"
            d="M384.92,29.27l1.92,0c3.82.6,6.87,2.65,9.67,5.16a4,4,0,0,1,1,1c.85,1.69,2.07,1.59,3.75,1.34a34.62,34.62,0,0,1,7.27-.08,56.9,56.9,0,0,1,6.46,1c4.22.76,7.07,3.26,9.28,6.88,5,8.25,8.84,17.07,12.37,26a46.37,46.37,0,0,1,2.63,8.65,105.7,105.7,0,0,1,1.32,12c.38,5.92.53,11.86.82,17.78.16,3.53.36,7.07.6,10.6.2,3.05.52,6.09.71,9.14.06.93-.21,1.88-.15,2.8a33.88,33.88,0,0,0,.54,4,4.74,4.74,0,0,0,.64,1.37,24,24,0,0,0,1.53,2.41q1.36,1.8,2.88,3.5c.61.68,1.38,1.21,2,1.87a4.21,4.21,0,0,1,1.32,3.93,9.4,9.4,0,0,0,1.28,7.12,5.29,5.29,0,0,1,.42,1.11l.12.56,0,.49-.11.79-.09.41-.11.7a6,6,0,0,0,2.9,5.69,30.36,30.36,0,0,1,6.88,7.11c1.6,2.17.91,4.58-1.6,5.68s-4.76,2.05-7.13,3.11c-.66.29-1.26.68-1.89,1l-.53.41q-3,3.06-6.05,6.14l-4.46,4.5a6.48,6.48,0,0,0-.54-.62c-.26-.24-.55-.62-.84-.63-.48,0-1.25.08-1.38.36a4.85,4.85,0,0,0-.32,2.18c0,.23.65.43,1,.64l-.05,0c-1.31-.16-1.34-.12-1.48,1.36a25.75,25.75,0,0,1-8.31,6.39,90.57,90.57,0,0,1-9.17,4.1c-4.56,1.76-9.4,2.09-14.21,2.54-2.27.21-4.51.6-6.77.84a40.73,40.73,0,0,1-11.44-.74c-4.33-.75-8.68-1.47-12.71-3.3-5.5-2.49-10.9-5.21-15.61-9.06a38,38,0,0,1-3.42-3.52c-2.45-2.57-4.91-5.14-7.34-7.74a5.88,5.88,0,0,1-1.24-1.75c-.46-1.14-1.24-1.14-2.22-.91a26,26,0,0,1-3.16.65c-1.78.18-2.58-1-1.85-2.62a.76.76,0,0,0,0-.59,12.57,12.57,0,0,1-.88-1.6c-2.1-6.58-4.22-13.17-5.09-20.05-.51-4-.84-8.09-1-12.15-.15-4.43-.11-8.87,0-13.31.15-4.7.56-9.4.81-14.11.21-4,.37-8,.52-12s.24-8,.38-12a80.6,80.6,0,0,1,.45-9.08,23.66,23.66,0,0,1,2.12-6.32,169.61,169.61,0,0,1,13.27-23.3,93.34,93.34,0,0,1,16.34-19.07,41.5,41.5,0,0,1,15.21-8.34C383.13,29.58,384,29.46,384.92,29.27Zm-8.34,39.41.13-.23-.28.08-.19.25Zm-.75.23-.39.26-.76.57.25.27.68-.62.45-.54ZM411.2,84.35l-.3-.2.12.38.4.66.2.35,3.16,7.79,2.31-1.77-5.16-6.27a.23.23,0,0,0-.1-.16Zm25.1,78.35c-.26.11-.59.15-.74.34a5.05,5.05,0,0,0-.49,1,2.94,2.94,0,0,0,1,.33,2.58,2.58,0,0,0,1.36-.32c.3-.21.4-.72.59-1.1a4.71,4.71,0,0,0-.9-.39,2.69,2.69,0,0,0-.82.13c1.11-.31,2-.74,1.44-2.17-.06-.16.09-.38.1-.58,0-1,.07-2,.11-3,.12-.45.07-.75-.51-.82-1.22-.14-1.48.17-1.35,1.77-.17,1.41-.36,2.82-.47,4.24C435.58,162.32,436.05,162.52,436.3,162.7Zm-9.65-78.93-.25-.53a3.2,3.2,0,0,0-.06-.7q-2.5-7-5-13.91c-.1-.28-.18-.56-.26-.85l.3-.08c.25.48.53,1,.74,1.45,1.68,4,3.33,8,5,12,.1.23.35.39.52.59l.23.13a2.58,2.58,0,0,0-.16,1c.5,2,1.08,4,1.58,6,.14.59.46.67.94.62a2.59,2.59,0,0,1,2.5,1.11,9.14,9.14,0,0,1,1.39,2.75,15.65,15.65,0,0,1-.93,10.27A17.47,17.47,0,0,0,432,111c.1,2.62.09,5.24,0,7.86-.07,2-.32,4-.52,6-.18,1.81-.4,3.62-.59,5.43-.08.71-.07,1.21.94,1.34a39.74,39.74,0,0,1,5.5,1.13,31.26,31.26,0,0,1,3.59,1.44c0-.14.05-.21.05-.29-.16-2.59-.37-5.17-.46-7.76-.05-1.63.18-3.28.1-4.91-.32-6.25-.76-12.5-1.06-18.75-.27-5.62-.33-11.25-.65-16.87a56.3,56.3,0,0,0-1.09-8.16c-1-4.91-3-9.51-4.86-14.12-2.7-6.51-5.65-12.87-9.8-18.62-1.63-2.25-3.45-4.25-6.3-4.85a66.85,66.85,0,0,0-8.8-1.58c-2.88-.22-5.83-.47-8.7.36a1.42,1.42,0,0,1-1.08-.42c-3.24-3-6.55-6-10.87-7.48a7.43,7.43,0,0,0-5.37-.1,72.66,72.66,0,0,0-7.74,3.46c-5.94,3.28-10.59,8.06-14.89,13.22C352,56.19,346.11,66,340.78,76.18c-1.71,3.26-3.34,6.6-3.84,10.27a71.85,71.85,0,0,0-.33,7.64c-.14,4.39-.19,8.78-.42,13.15s-.62,8.65-.94,13c-.14,1.91-.29,3.81-.42,5.71-.25,3.77-.58,7.55-.72,11.33-.09,2.3.11,4.61.18,6.92,0,1.55,0,3.11.18,4.65q.55,5.48,1.26,10.93c.86,6.64,3.09,12.91,5.22,19.44a5.92,5.92,0,0,0,1.19-1,11.17,11.17,0,0,0,2-5.84,4.81,4.81,0,0,1,1.25-3.17,18.22,18.22,0,0,0,3.79-7c.65-2.22,1.67-4.33,2.27-6.56.89-3.27,1.56-6.6,2.32-9.91a2.42,2.42,0,0,0,.08-.71c-.14-1.75-.26-3.5-.45-5.24-.48-4.4-1.1-8.78-1.45-13.19-.25-3.22-.19-6.47-.18-9.71a1.24,1.24,0,0,0-1.05-1.42,27.87,27.87,0,0,1-8-3.81,9.59,9.59,0,0,1-.94-.87l.22-.29c.34.17.66.35,1,.49,2.54,1,5.09,2.08,7.62,3.13.83.35,1.07.16,1.11-.77.14-3.35.28-6.7.59-10,.34-3.68.81-7.35,1.34-11s1.25-7.51,1.9-11.26a3.05,3.05,0,0,1,.32-.72l.26.1c-.23,1.15-.54,2.29-.69,3.46-.6,4.63-1.24,9.26-1.69,13.91s-.69,9-1,13.54c-.07,1.1-.32,2.52.23,3.24s2,.52,3,.74l.62.12c.15-2.1.22-4.09.44-6.06.4-3.6.92-7.18,1.32-10.77A185.21,185.21,0,0,1,362,78.74c.85-3.78,2.21-7.5,1.32-11.5a9.1,9.1,0,0,1,0-1.95h.4l.5,4.89.28.11c3.65-7.83,10.62-9.48,18.27-10-1.29-3.2-3.33-5.64-6.82-6.46a16.77,16.77,0,0,0-4.62-.47c-5.56.27-10.25,2.69-14.47,6.15l-.45-.05a40.94,40.94,0,0,1,3.46-2.72c4.57-2.89,9.43-4.76,15-4a11.18,11.18,0,0,1,7.52,4c.61.75,1.21,1.51,2,2.45.18-1.58.17-3,1.58-3.77a.43.43,0,0,0,.16-.3c0-1.34.35-2.86-.16-4-1.47-3.13-3.71-5.59-7.39-6.18-.33-.06-.66-.09-1-.14l.06-.41a20,20,0,0,1,3.5.64c3.09,1.18,5,3.72,6.84,6.36.53-.34,1.06-.7,1.6-1,2.13-1.28,2.58-2.32,2-4.82-.15-.69-.41-1.36-.62-2.05l.3-.2,1,1.77.34-.09a24.08,24.08,0,0,0-.82-3.62,26.3,26.3,0,0,0-2-3.45,7,7,0,0,1,2.92,3.52c.51,1.36.82,2.81,1.26,4.33.68-1.17,1.31-2.28,2-3.36a3.39,3.39,0,0,1,.72-.62,2.26,2.26,0,0,1,0,.87c-1.13,2.33-2.26,4.67-3.48,7a4.41,4.41,0,0,1-1.43,1.42,24.17,24.17,0,0,1-3,1.83,1.7,1.7,0,0,0-1,1.75,3.15,3.15,0,0,1-.74,2.14c-1.24,1.08-.49,2.58-1.07,3.75,0,0,.2.22.33.3,1.61,1,3.25,1.86,4.84,2.86,2.26,1.41,4.59,2.76,6.73,4.35,6.61,4.93,11.54,11.45,16.56,17.87,1.23,1.58,2.2,3.38,3.33,5.13,1.1-.88,2.21-1.78,3.34-2.66.49-.38.38-.73.13-1.22a60.23,60.23,0,0,0-6.93-10.46c-2.89-3.57-5.62-7.27-9.26-10.15-.16-.12-.23-.37-.34-.56a1.32,1.32,0,0,1,.91.41c2.29,2.28,4.64,4.5,6.84,6.85A75.91,75.91,0,0,1,422.37,86a3,3,0,0,0,.72.63l.07.53,1.95,4.34a14.07,14.07,0,0,1,2.05-1.34c.79-.34.81-.8.63-1.5C427.38,87,427,85.39,426.65,83.77Zm13.69,105c-.1.09-.2.29-.28.27-1.13-.16-1.53.38-1.47,1.43a1.49,1.49,0,0,1-.07.47c-.16.6-.08,1.09.66,1.07s1.55.38,1.69-.75a29.74,29.74,0,0,0,.39-3.5c0-2.28-.05-4.56-.1-6.83,0-.22-.15-.61-.22-.61-.63,0-1.66-.09-1.8.21a4.46,4.46,0,0,0-.16,2.28c0,.27.53.49.73.66-.16.15-.67.39-.7.67a24.1,24.1,0,0,0,0,2.82C438.74,188.87,438.85,189,440.34,188.77Zm-.13-9.14c.79.09,1-.33.88-1-.38-2.19-.7-4.4-1.14-6.57s-1-4.48-1.6-6.7c-.06-.22-.57-.33-.87-.49-.41-.61-.74-.59-1.78.31l1.78-.3a6.07,6.07,0,0,0-1,.43,5.38,5.38,0,0,0-.76.75l.71.58c-.1.33-.34.71-.27,1,.21.92.61,1.8.83,2.72.43,1.8.81,3.61,1.17,5.43.25,1.26.43,2.53.65,3.8C439.28,180.37,439.75,179.67,440.21,179.63ZM415.86,97.7h-.48l-.53-1.15-.12,0c.63,3.42,1.26,6.84,1.93,10.43.3-.84.54-1.54.81-2.23,1.58-4.06,3.16-8.12,6-11.53a.72.72,0,0,0,.16-.62c-.56-1.38-1.16-2.74-1.78-4.2-1.26,1.09-2.39,2-3.49,3a2.51,2.51,0,0,0-.41.67l-.17.23a16.22,16.22,0,0,0-2.61,1.91c-.26.27.08,1.14.2,1.73S415.7,97.13,415.86,97.7ZM359,154.83l-.24-1.77c-.53-4.15-1.23-8.28-1.57-12.44-.42-5.12-.59-10.27-.76-15.41-.08-2.55.1-5.1.12-7.66,0-.25-.23-.67-.43-.72-1.07-.28-2.16-.46-3.44-.71.16,3.84.18,7.59.51,11.3.35,4,1,8,1.49,12a59.8,59.8,0,0,0,3.88,15.34l.24.91.27,0Zm-3.83-8.68v-.56l-.18,0,.2.53c-.42,1.21-.86,2.41-1.24,3.63-1.06,3.38-2.09,6.78-3.16,10.17a32.09,32.09,0,0,1-3.63,8.57,7.47,7.47,0,0,0-1.21,4.17,18.25,18.25,0,0,1-.79,4.43,33.27,33.27,0,0,1-1.65,3.85c-.26.59-.51,1.18-.85,1.95,1.35-.32,2.47-.55,3.57-.85a1.92,1.92,0,0,1,2,.33c1.57,1,3.09,2,4.71,2.83,2.43,1.26,4.88,2.52,7.42,3.55,2.95,1.2,6,2.15,9,3.21a15.43,15.43,0,0,1-2.47-.24c-4.88-1.19-9.8-2.26-14.3-4.61-.37-.19-.77-.31-1.15-.46l-.19.25c.29.34.58.69.89,1,1.2,1.33,2.42,2.65,3.62,4,2.11,2.33,4,4.88,6.78,6.54,3.24,2,6.5,3.91,9.86,5.66a64.24,64.24,0,0,0,6.32,2.48A51.31,51.31,0,0,0,400,209.17c4.33-.46,8.79.1,13-1.38a60.18,60.18,0,0,0,8.1-1.8A61.57,61.57,0,0,0,434,199.38a3.28,3.28,0,0,0,1.63-2.5c.05-.51.05-.91-.67-.68-.15.05-.36-.08-.53-.13a2.92,2.92,0,0,0,1.95-2.82c.09-1.38.32-2.76.49-4.13l.08-.76L437,187c0-1.68,0-3.36,0-5l-.05-.71c-.14-1.44-.29-2.89-.43-4.33l-.06-.71-.18-1.21-.12-.7-.13-.74-.11-.7-.33-1.47-.1-.45-.16-.51-.09-.45-1.35-5.78,0-1,.15-1.94.09-.7.14-.74.12-.94.13-.5.1-.7.12-.5.12-.7.3-2.52-.74.56c-1.91,1.57-3.78,3.2-5.75,4.69-1.55,1.18-3.23,2.19-4.85,3.27-5.13,2.29-10.29,4.53-15.39,6.89a47.06,47.06,0,0,1-21.79,4.6,34.54,34.54,0,0,1-8.28-2.62c-2.5-1.33-5.26-2.27-7.55-3.88-3.55-2.49-6.83-5.39-10.18-8.17a14.93,14.93,0,0,1-2.73-2.83,14.64,14.64,0,0,1-2.48-8.83A7.51,7.51,0,0,0,355.15,146.15Zm87.51,42.24-.24,2.59a13,13,0,0,0,1.11-.83c1.44-1.44,3-2.82,4.27-4.36a28,28,0,0,1,9.3-7.57,27.69,27.69,0,0,0,3.08-1.86c.91-.6,1.42-2.18.84-2.94a67.94,67.94,0,0,0-5.85-7.4,10.09,10.09,0,0,1-3.32-7.5,9.11,9.11,0,0,0-.33-3,18.36,18.36,0,0,1-.85-6.24,7.17,7.17,0,0,0-.46-2.68c-.91-2.34-3.28-3.32-4.77-5.17-.51,1.34-.87,2.52-1.38,3.63-.79,1.72-1.68,3.4-2.53,5.09-1.73,2.83-1.9,6-2.31,9.2a14.85,14.85,0,0,0,.39,6.82A57.55,57.55,0,0,1,442.66,188.39Zm-69.87-72c0,.24-.07.32-.05.39,1.78,5.7,3.3,11.5,5.39,17.08,3,8.07,6.46,16,9.67,24,.37.93.75,1.07,1.62.67a48.55,48.55,0,0,0,11.76-7.76q4.79-4.19,9.39-8.57a19.3,19.3,0,0,0,2.66-3.35c1.72-2.55,2.49-5.5,3.37-8.4,1.07-3.53,1.35-7.31,3.31-10.57.62-1,1-1.26,1.92-.52a10.66,10.66,0,0,1,1.3,1.38c1,1.09,1.57,1.09,2.29-.14a26.23,26.23,0,0,0,1.93-3.72c1.89-4.87,3.71-9.77,5.52-14.68a19.94,19.94,0,0,0,.74-2.88,11.63,11.63,0,0,0-.24-5.68c-.59-2-2.07-3.24-3.73-3.1a7.19,7.19,0,0,0-4.9,2.7A23.38,23.38,0,0,0,422,97.83,69.81,69.81,0,0,0,416.86,112c-.29,1.11-.39,2.26-.57,3.4s-.34,2.19-.52,3.28a115.91,115.91,0,0,0-2.47-23C401.19,105.62,388.53,114.11,372.79,116.39ZM375,69.64a3.69,3.69,0,0,0-.82.26c-2.91,2-5.82,3.95-8.69,6a1.61,1.61,0,0,0-.41,1.25c.08,1,.3,2,.46,3,.87,5.27,1.62,10.57,2.64,15.82,1.16,6,2.58,11.94,3.86,17.91.16.73.38.94,1.19.77a76.46,76.46,0,0,0,16.05-5c8.42-3.85,15.76-9.42,23.29-14.68.52-.37.43-.73.29-1.24A38.67,38.67,0,0,0,409,84.13c-1.82-3.18-3.48-6.43-6-9.17-5.14-5.55-11.73-9.09-17.84-13.29,0,0-.07,0-.1,0-2.59,4.12-6.58,6.63-10.39,9.33l-.25-.23Zm38.45,76.48-.15,0c.35,3.65.67,7.3,1.06,11,.2,1.82.5,3.64.81,5.45.05.26.47.68.68.65a17.67,17.67,0,0,0,2.68-.54c3.92-1.11,7.19-3.42,10.47-5.69,1.6-1.12,3.1-2.39,4.61-3.63.26-.22.56-.83.47-.94-.5-.59-.12-1,.2-1.36a27.32,27.32,0,0,1,2.41-2.82c.83-.75,1.84-1.74,2.82-1.8,1.68-.1,2.45-1.08,3.34-2.14a4.75,4.75,0,0,0,.49-5.57,9.27,9.27,0,0,0-5.57-4.64,30,30,0,0,0-9.39-1.69c-3-.07-6-.12-9-.31-1.72-.12-1.84-.13-2.47,1.43-.89,2.18-1.84,4.33-2.75,6.5a4.35,4.35,0,0,0-.41,1.23C413.59,142.85,413.51,144.48,413.41,146.12Zm-25.92,13c-.18-.43-.32-.79-.49-1.14a222.81,222.81,0,0,1-15.21-40.24c-.24-.91-.61-1-1.41-.92-1.82.22-3.64.46-5.47.5-2.11,0-4.22-.1-6.33-.17-.39,0-.79-.13-.81.53,0,1-.19,2.06-.19,3.09q0,6.1.09,12.21a2.47,2.47,0,0,0,.48,1.42c2.39,2.88,4.7,5.84,7.28,8.55,2.77,2.92,5.74,5.66,8.73,8.35,2.67,2.4,5.48,4.65,8.26,6.92A4.92,4.92,0,0,0,387.49,159.11Zm24.9-17.39c-7.33,6.89-14.4,13.94-23.4,18.82,1.58,3.32,3.2,6.7,4.82,10.08a4,4,0,0,1-1.17-1.43c-1.31-2.56-2.62-5.12-3.91-7.68-.25-.49-.41-.89-1.14-.61-2.15.81-4,.08-5.66-1.29-1.05-.86-2-1.84-3-2.76a2.11,2.11,0,0,0-.46-.3c.45,4.24.88,8.5,1.37,12.74a1.38,1.38,0,0,0,.75.86c2.78,1.27,5.8,1.39,8.76,1.64,4.67.39,9.08-1.08,13.54-2.13a1.07,1.07,0,0,0,.92-1.27c-.13-3.47-.2-6.93-.28-10.4a7.24,7.24,0,0,1,.12-.92c1,4,.73,8,.55,12,3.06-1.21,6-2.37,8.92-3.51.6-.23.53-.58.47-1.12-.43-4.16-.93-8.32-1.16-12.5C412.24,148.59,412.39,145.19,412.39,141.72Zm-54.51-26.14c.25,0,.49,0,.73,0a45.76,45.76,0,0,0,11.63-.45c.51-.07.87-.22.66-.93-.4-1.34-.67-2.71-1-4.06-2.17-9-3.56-18.19-4.91-27.36-.28-1.91-.52-3.82-.78-5.73l-.28-.09c-.33.51-.86,1-1,1.53-.88,4.46-1.73,8.93-2.5,13.42-.48,2.76-.81,5.55-1.17,8.34s-.71,5.42-1,8.13C358.12,110.8,358,113.18,357.88,115.58Zm0,20.23c-.47,2.53,1.57,20.28,2.4,21.79L376,154.15C369.15,148.75,363.54,142.28,357.87,135.81Zm20.35,33.45a11.14,11.14,0,0,0,0-1.31c-.45-3.86-.92-7.73-1.36-11.6-.08-.68-.49-.62-.93-.55-1.89.3-3.78.55-5.64.95-2.39.53-4.74,1.19-7.29,1.84C367.73,162.9,372.5,166.62,378.22,169.26ZM431,111.74l-.31,0c-.12.41-.25.82-.37,1.23a19.65,19.65,0,0,1-3.78,7.79,14.2,14.2,0,0,1-1.91,1.5,1.75,1.75,0,0,0-.57.81c-.58,2.56-1.09,5.13-1.68,7.68-.15.65,0,.75.61.74,1.71,0,3.43-.06,5.14,0,2.22,0,2.29.05,2.38-2.19.23-5.54.38-11.08.56-16.61A8.69,8.69,0,0,0,431,111.74ZM382.23,63.22l-.23-.39a60.73,60.73,0,0,0-10.19,2.37,12,12,0,0,0-6.7,6.13,4.33,4.33,0,0,0-.27,3.61A36.11,36.11,0,0,1,368.38,72c3.43-2.17,7-4.2,10.42-6.34C380,65,381.09,64.05,382.23,63.22Zm35.6,68.27c.7,0,1.38,0,2.05,0s.74-.18.85-.78c.49-2.67,1.06-5.32,1.62-8,.22-1.06-.07-1.59-1.4-2-1-.26-.88.74-1,1.22C419.21,125.14,418.54,128.29,417.83,131.49ZM437.3,152l.12-.41-1.23-.47c.3.08,0-1.42.75-.27.06.1.63,0,.9-.19s.59-.51.93-.71c.8-.47,1.37-2,1-2.62a5.49,5.49,0,0,1-.71.39c-.34.11-.83,0-1,.26a33.69,33.69,0,0,0-2.42,2.78c-.13.16-.08.73,0,.77A14,14,0,0,0,437.3,152Zm2,0a8.88,8.88,0,0,1-1.91.68c-.74.1-1.11.31-1.05,1.09,0,.36-.05.72-.05,1.08,0,.92.38,1.13,1.19.67a2,2,0,0,0,.87-.78C438.74,153.72,439,152.7,439.28,152Zm-76-75.43.48.13.42-2-.34-.09ZM414.5,96.17l.15,0c0-.08,0-.18,0-.23a2.06,2.06,0,0,0-.26-.25Z" />
        <path class="color-shadow"
            d="M439,195.41c-.35-.21-1-.41-1-.64a4.85,4.85,0,0,1,.32-2.18c.13-.28.9-.38,1.38-.36.29,0,.58.39.84.63a6.48,6.48,0,0,1,.54.62Z" />
        <path class="color-shadow" d="M437.51,196.81c.14-1.48.17-1.52,1.48-1.36Z" />
        <path class="color-shadow" d="M453,159.81l.11-.7Z" />
        <path class="color-shadow" d="M453.2,158.7l.11-.79Z" />
        <path class="color-shadow" d="M453.34,157.42l-.12-.56Z" />
        <path class="color-shadow" d="M451.63,182.84l.53-.41Z" />
        <path class="color-base"
            d="M436.94,181.2l.05.71c0,1.68,0,3.36,0,5l-.11,1.41-.08.76c-.17,1.37-.4,2.75-.49,4.13a2.92,2.92,0,0,1-1.95,2.82,2.23,2.23,0,0,0-.7.12,18.93,18.93,0,0,1-2.33,1.37c-1.89.72-3.86,1.26-5.76,2a16.35,16.35,0,0,0-3.3,1.56c-3,1.94-5.84,4-8.74,6a3.59,3.59,0,0,0-.56.7c-4.22,1.48-8.68.92-13,1.38a51.31,51.31,0,0,1-21.29-2.56,3.78,3.78,0,0,0-.62-.64c-1.53-.94-3.14-1.76-4.61-2.78-3.11-2.14-6.16-4.37-9.21-6.59-.63-.46-1.18-1-1.77-1.54l.17-.28L379.53,199a2.66,2.66,0,0,0-.9-1.05c-2.11-1.43-4.22-2.86-6.35-4.26-1-.62-2-1.15-2.95-1.73-3-1.06-6.05-2-9-3.21-2.54-1-5-2.29-7.42-3.55-1.62-.84-3.14-1.88-4.71-2.83a28.85,28.85,0,0,1,.4-2.94c.42-1.78,1.08-3.53.75-5.39a14,14,0,0,1,.61-7.16c1.22-3.58,2.48-7.13,3.74-10.69a2.37,2.37,0,0,1,.29-.52,55.39,55.39,0,0,0,5.24,4.87c4.5,3.25,8.6,7,13.73,9.43,3.32,1.55,6.58,3.21,10.2,3.89a18.87,18.87,0,0,0,3.45.07,47.06,47.06,0,0,0,21.79-4.6c5.1-2.36,10.26-4.6,15.39-6.89a16.65,16.65,0,0,0,2.49-1c2.57-1.58,5.07-3.25,7.62-4.85a2.47,2.47,0,0,1,.93-.13l-.12.7-.12.5-.1.7-.13.5-.12.94-.14.74-.09.7c-.66.6-.42,1.27-.15,1.94l0,1a3,3,0,0,0-.17,1c.3,1.36.66,2.7,1,4a3.11,3.11,0,0,0,.49.75l.09.45.16.51.1.45c-.49.62-.05,1,.33,1.47l.11.7.13.74.12.7c-.31.46-.45.89.18,1.21l.06.71c.07,1.41.14,2.83.23,4.24C436.74,181.14,436.87,181.17,436.94,181.2Z" />
        <path class="color-shadow"
            d="M413.41,146.12c.1-1.64.18-3.27.32-4.9a4.35,4.35,0,0,1,.41-1.23c.91-2.17,1.86-4.32,2.75-6.5.63-1.56.75-1.55,2.47-1.43,3,.19,6,.24,9,.31a30,30,0,0,1,9.39,1.69,9.27,9.27,0,0,1,5.57,4.64,4.75,4.75,0,0,1-.49,5.57c-.89,1.06-1.66,2-3.34,2.14-1,.06-2,1.05-2.82,1.8a27.32,27.32,0,0,0-2.41,2.82c-.32.39-.7.77-.2,1.36.09.11-.21.72-.47.94-1.51,1.24-3,2.51-4.61,3.63-3.28,2.27-6.55,4.58-10.47,5.69a17.67,17.67,0,0,1-2.68.54c-.21,0-.63-.39-.68-.65-.31-1.81-.61-3.63-.81-5.45-.39-3.65-.71-7.3-1.06-11Z" />
        <path class="color-base"
            d="M442.66,188.39a57.55,57.55,0,0,0-3.05-22.17,14.85,14.85,0,0,1-.39-6.82c.41-3.17.58-6.37,2.31-9.2,1.26-.8,2.54-1.57,3.77-2.42a9.05,9.05,0,0,0,1.5-1.34c.52-.56.94-.55,1.18.15a15.05,15.05,0,0,1,.78,2.75c.45,3.26.87,6.52,1.19,9.79a9.79,9.79,0,0,0,3.22,6.7,22.2,22.2,0,0,1,3.15,3.42,11.73,11.73,0,0,1,1.5,3.2,1.44,1.44,0,0,1-.49,1.28c-1.38.92-2.88,1.69-4.29,2.58a11.2,11.2,0,0,0-2.57,1.92c-2.07,2.41-4,4.92-6,7.4-.29.36-.46.72.22.83h0C444.18,187.28,444,188.41,442.66,188.39Z" />
        <path class="color-shadow"
            d="M444.68,186.46c-.68-.11-.51-.47-.22-.83,2-2.48,3.94-5,6-7.4a11.2,11.2,0,0,1,2.57-1.92c1.41-.89,2.91-1.66,4.29-2.58a1.44,1.44,0,0,0,.49-1.28,11.73,11.73,0,0,0-1.5-3.2,22.2,22.2,0,0,0-3.15-3.42,9.79,9.79,0,0,1-3.22-6.7c-.32-3.27-.74-6.53-1.19-9.79a15.05,15.05,0,0,0-.78-2.75c-.24-.7-.66-.71-1.18-.15a9.05,9.05,0,0,1-1.5,1.34c-1.23.85-2.51,1.62-3.77,2.42.85-1.69,1.74-3.37,2.53-5.09.51-1.11.87-2.29,1.38-3.63,1.49,1.85,3.86,2.83,4.77,5.17a7.17,7.17,0,0,1,.46,2.68,18.36,18.36,0,0,0,.85,6.24,9.11,9.11,0,0,1,.33,3,10.09,10.09,0,0,0,3.32,7.5,67.94,67.94,0,0,1,5.85,7.4c.58.76.07,2.34-.84,2.94a27.69,27.69,0,0,1-3.08,1.86,28,28,0,0,0-9.3,7.57c-1.32,1.54-2.83,2.92-4.27,4.36a13,13,0,0,1-1.11.83l.24-2.59c1.3,0,1.52-1.11,2-1.92l.09,0s0,0,0-.07Z" />
        <path class="color-shadow"
            d="M386.61,174a18.87,18.87,0,0,1-3.45-.07c-3.62-.68-6.88-2.34-10.2-3.89-5.13-2.39-9.23-6.18-13.73-9.43a55.39,55.39,0,0,1-5.24-4.87,2.37,2.37,0,0,0-.29.52c-1.26,3.56-2.52,7.11-3.74,10.69a14,14,0,0,0-.61,7.16c.33,1.86-.33,3.61-.75,5.39a28.85,28.85,0,0,0-.4,2.94,1.92,1.92,0,0,0-2-.33c-1.1.3-2.22.53-3.57.85.34-.77.59-1.36.85-1.95a33.27,33.27,0,0,0,1.65-3.85,18.25,18.25,0,0,0,.79-4.43,7.47,7.47,0,0,1,1.21-4.17,32.09,32.09,0,0,0,3.63-8.57c1.07-3.39,2.1-6.79,3.16-10.17.38-1.22.82-2.42,1.24-3.63h0a7.51,7.51,0,0,1,.24,1.47,14.64,14.64,0,0,0,2.48,8.83,14.93,14.93,0,0,0,2.73,2.83c3.35,2.78,6.63,5.68,10.18,8.17,2.29,1.61,5.05,2.55,7.55,3.88A34.54,34.54,0,0,0,386.61,174Z" />
        <path class="color-shadow"
            d="M369.33,192c1,.58,2,1.11,2.95,1.73,2.13,1.4,4.24,2.83,6.35,4.26a2.66,2.66,0,0,1,.9,1.05l-16.88-4.24-.17.28c.59.51,1.14,1.08,1.77,1.54,3.05,2.22,6.1,4.45,9.21,6.59,1.47,1,3.08,1.84,4.61,2.78a3.78,3.78,0,0,1,.62.64,64.24,64.24,0,0,1-6.32-2.48c-3.36-1.75-6.62-3.69-9.86-5.66-2.73-1.66-4.67-4.21-6.78-6.54-1.2-1.33-2.42-2.65-3.62-4-.31-.34-.6-.69-.89-1l.19-.25c.38.15.78.27,1.15.46,4.5,2.35,9.42,3.42,14.3,4.61A15.43,15.43,0,0,0,369.33,192Z" />
        <path class="color-shadow"
            d="M378.22,169.26c-5.72-2.64-10.49-6.36-15.23-10.67,2.55-.65,4.9-1.31,7.29-1.84,1.86-.4,3.75-.65,5.64-.95.44-.07.85-.13.93.55.44,3.87.91,7.74,1.36,11.6A11.14,11.14,0,0,1,378.22,169.26Z" />
        <path class="color-shadow"
            d="M413,207.79a3.59,3.59,0,0,1,.56-.7c2.9-2,5.79-4.06,8.74-6a16.35,16.35,0,0,1,3.3-1.56c1.9-.71,3.87-1.25,5.76-2a18.93,18.93,0,0,0,2.33-1.37,2.23,2.23,0,0,1,.7-.12c.17.05.38.18.53.13.72-.23.72.17.67.68a3.28,3.28,0,0,1-1.63,2.5A61.57,61.57,0,0,1,421.09,206,60.18,60.18,0,0,1,413,207.79Z" />
        <path class="color-shadow"
            d="M437.48,164.86c.3.16.81.27.87.49.58,2.22,1.14,4.45,1.6,6.7s.76,4.38,1.14,6.57c.11.68-.09,1.1-.88,1-.17-.4.1-1.2-.72-1-.28.06-.44.65-.65,1-.22-1.27-.4-2.54-.65-3.8-.36-1.82-.74-3.63-1.17-5.43-.22-.92-.62-1.8-.83-2.72-.07-.31.17-.69.27-1l-.71-.58a5.38,5.38,0,0,1,.76-.75,6.07,6.07,0,0,1,1-.43Z" />
        <path class="color-shadow"
            d="M439,187a24.1,24.1,0,0,1,0-2.82c0-.28.54-.52.7-.67-.2-.17-.71-.39-.73-.66a4.46,4.46,0,0,1,.16-2.28c.14-.3,1.17-.19,1.8-.21.07,0,.21.39.22.61,0,2.27.13,4.55.1,6.83a29.74,29.74,0,0,1-.39,3.5c-.14,1.13-1.05.72-1.69.75s-.82-.47-.66-1.07a1.49,1.49,0,0,0,.07-.47c-.06-1.05.34-1.59,1.47-1.43.08,0,.18-.18.28-.27a2.43,2.43,0,0,1,0-.72c.37-1-.13-1.13-.91-1.09Zm.91-4.75,0,.13.63-.06v-.07Z" />
        <path class="color-shadow"
            d="M434.83,156.46a2.47,2.47,0,0,0-.93.13c-2.55,1.6-5,3.27-7.62,4.85a16.65,16.65,0,0,1-2.49,1c1.62-1.08,3.3-2.09,4.85-3.27,2-1.49,3.84-3.12,5.75-4.69l.74-.56Z" />
        <path class="color-shadow"
            d="M437.92,157c0,1-.07,2-.11,3,0,.2-.16.42-.1.58.57,1.43-.33,1.86-1.44,2.17h0c-.25-.18-.72-.38-.71-.55.11-1.42.3-2.83.47-4.24C436.81,157.85,437.57,157.81,437.92,157Z" />
        <path class="color-shadow"
            d="M437.3,152a14,14,0,0,1-1.68-.47c-.11,0-.16-.61,0-.77A33.69,33.69,0,0,1,438,148c.21-.22.7-.15,1-.26a5.49,5.49,0,0,0,.71-.39c.38.57-.19,2.15-1,2.62-.34.2-.59.53-.93.71s-.84.29-.9.19c-.74-1.15-.45.35-.75.27l1.23.47Z" />
        <path class="color-shadow"
            d="M439.28,152c-.25.75-.54,1.77-.95,2.74a2,2,0,0,1-.87.78c-.81.46-1.17.25-1.19-.67,0-.36.07-.72.05-1.08-.06-.78.31-1,1.05-1.09A8.88,8.88,0,0,0,439.28,152Z" />
        <path class="color-shadow"
            d="M436.27,162.71a2.69,2.69,0,0,1,.82-.13,4.71,4.71,0,0,1,.9.39c-.19.38-.29.89-.59,1.1a2.58,2.58,0,0,1-1.36.32,2.94,2.94,0,0,1-1-.33,5.05,5.05,0,0,1,.49-1c.15-.19.48-.23.74-.34Z" />
        <path class="color-base"
            d="M437.92,157c-.35.85-1.11.89-1.86.95-.13-1.6.13-1.91,1.35-1.77C438,156.21,438,156.51,437.92,157Z" />
        <path class="color-base"
            d="M439,187h.48c.78,0,1.28.14.91,1.09a2.43,2.43,0,0,0,0,.72C438.85,189,438.74,188.87,439,187Z" />
        <path class="color-shadow" d="M426.65,83.77l-3.49,3.38-.07-.53,3.31-3.38Z" />
        <path class="color-shadow" d="M435.23,169.93a3.11,3.11,0,0,1-.49-.75c-.37-1.34-.73-2.68-1-4a3,3,0,0,1,.17-1Z" />
        <path class="color-shadow" d="M437,187c0-1.68,0-3.36,0-5C437,183.59,437,185.27,437,187Z" />
        <path class="color-shadow"
            d="M436.94,181.2c-.07,0-.2-.06-.2-.09-.09-1.41-.16-2.83-.23-4.24C436.65,178.31,436.8,179.76,436.94,181.2Z" />
        <path class="color-base"
            d="M438.84,179.6c.21-.34.37-.93.65-1,.82-.18.55.62.72,1C439.75,179.67,439.28,180.37,438.84,179.6Z" />
        <path class="color-shadow" d="M415.86,97.7l.68,2.3-.39.13-.77-2.44Z" />
        <path class="color-shadow" d="M433.86,163.18c-.27-.67-.51-1.34.15-1.94Z" />
        <path class="color-base" d="M363.27,76.52l.56-1.94.34.09-.42,2Z" />
        <path class="color-shadow" d="M437.48,164.87l-1.78.3c1-.9,1.37-.92,1.78-.31Z" />
        <path class="color-shadow" d="M435.91,172.81c-.38-.43-.82-.85-.33-1.47Z" />
        <path class="color-shadow" d="M436.45,176.16c-.63-.32-.49-.75-.18-1.21Z" />
        <path class="color-base" d="M411.42,85.19l-.4-.66.18-.18.63.78Z" />
        <path class="color-shadow" d="M436.82,189.12l.08-.76Z" />
        <path class="color-shadow" d="M434.1,160.54l.14-.74Z" />
        <path class="color-shadow" d="M436.15,174.25l-.13-.74Z" />
        <path class="color-base" d="M358.54,154.78l.44.05.07.82-.27,0Z" />
        <path class="color-shadow" d="M356.05,59.91l.36-.43.44.05-.58.67Z" />
        <path class="color-shadow" d="M435.48,170.89l-.16-.51Z" />
        <path class="color-shadow" d="M414.5,96.17l-.1-.52a2.06,2.06,0,0,1,.26.25s0,.15,0,.23Z" />
        <path class="color-shadow" d="M434.59,157.66l.12-.5Z" />
        <path class="color-shadow" d="M434.36,158.86l.13-.5Z" />
        <path class="color-shadow" d="M355.17,146.14l-.2-.53.18,0v.56Z" />
        <path class="color-base" d="M411,84.53l-.12-.38.3.2Z" />
        <path class="color-base" d="M376.43,68.53l.28-.08-.13.23Z" />
        <path class="color-base" d="M375.83,68.91l.23-.06Z" />
        <path class="color-base" d="M376.58,68.68l-.34.1.19-.25Z" />
        <path class="color-shadow" d="M418,92.12a2,2,0,0,0-.17.23A2,2,0,0,1,418,92.12Z" />
        <path class="color-shadow" d="M427.62,81.73l.89-1.44.36.24-1,1.33Z" />
        <path class="color-shadow" d="M390.87,43.45l-.6-1.1.32-.19.6,1Z" />
        <path class="color-shadow" d="M356.27,60.2l-.65.88-.27-.17.7-1Z" />
        <path class="outline" d="M390.87,43.45l.32-.31a.29.29,0,0,1,.07.2l-.3.2A.11.11,0,0,1,390.87,43.45Z" />
        <path class="outline"
            d="M428,101.9l-1.83-1.5a4.57,4.57,0,0,0-.27.94c0,2.18.08,4.37-.1,6.54a6.17,6.17,0,0,1-1.19,2.53A15.38,15.38,0,0,1,423.2,112c-.48.56-1.18,1.12-.1,1.82a1.52,1.52,0,0,1-.41,1,1.36,1.36,0,0,1-2-1.3,2.42,2.42,0,0,1,1.39-2.21c.46-.25,1-.44,1.39-.71a3.31,3.31,0,0,0,1.66-3.48c-.23-3.68-.32-7.37,1.48-10.76a10,10,0,0,1,1.95-2.53,1.88,1.88,0,0,1,3.17,1.06l-.6-.43a1.76,1.76,0,0,0-2.74.24,24.93,24.93,0,0,0-1.91,3.92c-.08.18.16.53.31.77.5.75,1,1.48,1.55,2.23Z" />
        <path class="outline"
            d="M430.44,105.54a20.7,20.7,0,0,0,1-7.12c0-.43-.12-.86-.18-1.28l.46,0a16.76,16.76,0,0,1-1,8.67Z" />
        <path class="outline"
            d="M428,111.62c-.91.42-1.56.75-2.24,1-.19.07-.47-.11-.72-.18.11-.22.16-.54.34-.66A2.18,2.18,0,0,1,428,111.62Z" />
        <path class="color-shadow" d="M430.44,105.54l.33.3-.54,1.43-.41-.16Z" />
        <path class="color-shadow" d="M431.72,97.17l-.46,0-.44-.78C431.55,96.33,431.55,96.33,431.72,97.17Z" />
        <path class="color-shadow" d="M428.67,102.19l.56,1.12-.34.18-.52-1Z" />
        <path class="outline" d="M428.67,102.19l-.3.28v-.3Z" />
        <path class="outline" d="M428.35,101.65V102l-.36-.13Z" />
        <path class="outline"
            d="M370.69,73.28c1.13-.84,2.25-1.69,3.38-2.52.09-.07.28,0,.42,0-.05.16-.05.39-.15.47-1.13.8-2.27,1.57-3.4,2.35Z" />
        <path class="color-base" d="M444.68,186.46l.1-.1s0,.06,0,.07l-.09,0Z" />
        <path class="outline" d="M439.9,182.21h.65v.07l-.63.06Z" />
    </g>
</svg>
