<svg id="Nizy_pryamoy" data-name="Nizy pryamoy" xmlns="http://www.w3.org/2000/svg" viewBox="0 0 672 960">
    <g id="img_35" data-name="img 35">
        <g id="Kashkorse_img" data-name="Kashkorse img">
            <path class="outline"
                d="M303.8,419.27a41.61,41.61,0,0,0,4.43,2.11,34.29,34.29,0,0,0,17,1.17c11.24-1.89,22.54-1.62,33.85-.51,9.86,1,19.72,2,29.61,2.74,5.81.44,11.67.22,17.5.51,4.47.23,8.91,1.09,13.37,1.16a190.52,190.52,0,0,0,22.66-.56,62.22,62.22,0,0,1,9.45.16c4.59.23,9.21.33,13.75.95a53.86,53.86,0,0,1,16.94,5.41,5.31,5.31,0,0,0,1.34.46c1.13.21,1.63-.27,1.71-1.54.05-.72-.24-1.78.87-1.76s.82,1.15.87,1.88a3.05,3.05,0,0,1-1.81,3.32,1.55,1.55,0,0,0-.64.93c-.88,2.87-1.72,5.74-2.57,8.62-.4,1.38-.72,2.79-1.2,4.14-.36,1-1.32,1.19-2.27,1.17-4.72-.13-9.43-.39-14.14-.4s-9.27.34-13.91.29c-6.63-.06-13.26-.26-19.88-.56-6-.26-12-.77-18.06-1.1-6.73-.37-13.47-.77-20.21-.94-4.7-.12-9.42.11-14.13.2-5.83.12-11.67.15-17.49.43-7.83.38-15.63,1-23.46,1.42a77.75,77.75,0,0,1-7.77-.31A36.14,36.14,0,0,1,316.81,446a27.78,27.78,0,0,0-4.4-1.11c-.51-.13-1-.24-1.5-.41a4.23,4.23,0,0,1-2.83-3.24c-1.46-5.86-3.07-11.68-4.62-17.51-.27-1-.52-2.06-.73-2.93l.59-1.51Zm88.34,26h.93l4.82.14.71.09,1.21,0h1.65a5.06,5.06,0,0,0,.91.23c2.78.19,5.56.34,8.35.52,4.33.3,8.67.7,13,.89,7.53.32,15.07.65,22.61.7,5.22,0,10.44-.49,15.67-.61,3.71-.08,7.43.11,11.15.14,1.55,0,3.1-.21,4.64-.12.84.05,1.3-.13,1.54-.9,1.18-3.84,2.36-7.68,3.52-11.44-1.91-.83-3.64-1.64-5.41-2.34a50.94,50.94,0,0,0-12.68-3.4c-2.77-.33-5.57-.48-8.36-.64-3.91-.21-7.85-.73-11.73-.43-7.54.58-15.08.8-22.64.79-1.2,0-2.4,0-3.59-.15a195.56,195.56,0,0,0-20.81-1.33c-4.43.05-8.88,0-13.31-.22s-9-.7-13.49-1.1-8.82-.85-13.24-1.25c-2.66-.25-5.32-.55-8-.66-3.34-.14-6.7-.25-10-.1-3.58.16-7.15.65-10.73,1-2.1.21-4.21.36-6.31.64a25.21,25.21,0,0,1-11.47-.94,53.33,53.33,0,0,0-6.07-1.32c.06.34.08.57.13.79q1.88,7.94,3.73,15.85c.14.6.36.95,1.05.81a2.33,2.33,0,0,1,.83,0,29.35,29.35,0,0,1,7.89,2.7,16,16,0,0,0,2.93,1.06,60.41,60.41,0,0,0,14.33,1.9c4.93.1,9.87-.26,14.81-.43,4.55-.15,9.09-.36,13.63-.47,3.46-.08,6.92,0,10.39-.08,3.78,0,7.55-.11,11.33-.19,1.14,0,2.28-.12,3.42-.19l1.19,0Z" />
            <path class="color-shadow-dark"
                d="M389.48,445.2c-1.14.07-2.28.17-3.42.19-3.78.08-7.55.15-11.33.19-3.47,0-6.93,0-10.39.08-4.54.11-9.08.32-13.63.47-4.94.17-9.88.53-14.81.43a60.41,60.41,0,0,1-14.33-1.9,16,16,0,0,1-2.93-1.06,29.35,29.35,0,0,0-7.89-2.7,2.33,2.33,0,0,0-.83,0c-.69.14-.91-.21-1.05-.81q-1.85-7.92-3.73-15.85c-.05-.22-.07-.45-.13-.79a53.33,53.33,0,0,1,6.07,1.32,25.21,25.21,0,0,0,11.47.94c2.1-.28,4.21-.43,6.31-.64,3.58-.34,7.15-.83,10.73-1,3.33-.15,6.69,0,10,.1,2.66.11,5.32.41,8,.66,4.42.4,8.82.86,13.24,1.25s9,.87,13.49,1.1,8.88.27,13.31.22a195.56,195.56,0,0,1,20.81,1.33c1.19.12,2.39.14,3.59.15,7.56,0,15.1-.21,22.64-.79,3.88-.3,7.82.22,11.73.43,2.79.16,5.59.31,8.36.64a50.94,50.94,0,0,1,12.68,3.4c1.77.7,3.5,1.51,5.41,2.34-1.16,3.76-2.34,7.6-3.52,11.44-.24.77-.7.95-1.54.9-1.54-.09-3.09.13-4.64.12-3.72,0-7.44-.22-11.15-.14-5.23.12-10.45.64-15.67.61-7.54-.05-15.08-.38-22.61-.7-4.34-.19-8.68-.59-13-.89-2.79-.18-5.57-.33-8.35-.52a5.06,5.06,0,0,1-.91-.23,3.2,3.2,0,0,1,.87-.26c4.46,0,8.92-.08,13.38,0,3.42.07,6.83.3,10.25.47,1.23.07,2.46.19,3.69.31,2.92.28,5.83.81,8.76.83,4.75,0,9.52-.14,14.27-.46,3.28-.23,6.52-.86,9.79-1.29,2.16-.28,4.32-.56,6.48-.77,1.17-.12,2.36-.06,3.52-.21a1.28,1.28,0,0,0,.79-.83,32.06,32.06,0,0,0,.44-3.66,7.49,7.49,0,0,0-.21-1.61v-.48c0-3.4,0-3.51-3.22-4.43a27.35,27.35,0,0,0-6.09-1c-2.76-.15-5.54,0-8.31.05-2.27.06-4.54.36-6.79.25-3-.15-6-.61-9-.88-2.21-.2-4.44-.32-6.66-.47-3,0-6,0-8.93,0-1.47,0-2.93-.23-4.4-.24-3.73,0-7.46,0-11.2.07-2.94,0-5.9.26-8.83.1-3.16-.19-6.28-.87-9.44-1.08-3.65-.24-7.33-.19-11-.28-.83,0-1.66-.18-2.49-.2-1.48,0-3,0-4.45-.05h-.47l-1.22-.45-2.15.21h-.48l-2.16.47h-.48l-1.2.24L364,430H362.6l-1.44,0h-4.32l-2.16-.23-1-.23-1.41.2-1.22-.22-4.07-.22-1,.44-1.19,0-.73.23h-.71l-1,.24h-1.66l-.74.45h-.47c-.17-.06-.36-.2-.52-.17-1.44.28-2.87.59-4.3.92-.18,0-.31.29-.47.44h-.47l-1,.23h-.71l-.73.23h-.47l-.72,0h-.47c-1,.24-2,.47-3,.72-3.59.87-7.15,1.89-10.9,1.67-1.19-.07-2.38-.2-3.57-.2-.3,0-.89.43-.86.59.16,1,.29,2.07,1.51,2.5,2.22.77,4.41,1.6,6.62,2.39a20.63,20.63,0,0,0,2.4.72c2.91.64,5.82,1.26,8.73,1.88,1.94.42,3.88,1.17,5.83,1.18,5.25,0,10.53-.06,15.76-.49a77.23,77.23,0,0,1,12.63-.18q6.66.56,13.32,1c3.45.22,6.91.32,10.37.52C388.88,444.74,389.17,445,389.48,445.2Z" />
            <path class="color-shadow"
                d="M389.48,445.2c-.31-.16-.6-.46-.92-.47-3.46-.2-6.92-.3-10.37-.52q-6.66-.4-13.32-1a77.23,77.23,0,0,0-12.63.18c-5.23.43-10.51.52-15.76.49-2,0-3.89-.76-5.83-1.18-2.91-.62-5.82-1.24-8.73-1.88a20.63,20.63,0,0,1-2.4-.72c-2.21-.79-4.4-1.62-6.62-2.39-1.22-.43-1.35-1.49-1.51-2.5,0-.16.56-.59.86-.59,1.19,0,2.38.13,3.57.2,3.75.22,7.31-.8,10.9-1.67,1-.25,2-.48,3-.72-.22.19-.42.49-.68.55-2.15.56-4.31,1.07-6.47,1.62a8.24,8.24,0,0,0-1,.4c.15.23.18.33.24.36a4.8,4.8,0,0,0,.66.27,64.73,64.73,0,0,0,14.75,2.54c2.19.16,4.38.16,6.57.29,3.61.2,7.22.48,10.83.66,1,0,2.11-.24,3.15-.18,3.26.17,6.5.47,9.75.68,4,.26,8,.52,12,.71,4.3.21,8.6.33,12.89.5.52,0,1,.12,1.54.18a30,30,0,0,0,4.6.45c3.37-.17,6.73-.85,10.08-.81,5,.06,9.92.58,14.88.88,4.33.26,8.65.55,13,.71s8.62.33,12.92.22c3.44-.09,6.88-.58,10.32-.9s6.65-.56,9.95-1c1.59-.21,3.83.15,3.78-2.6a7.49,7.49,0,0,1,.21,1.61,32.06,32.06,0,0,1-.44,3.66,1.28,1.28,0,0,1-.79.83c-1.16.15-2.35.09-3.52.21-2.16.21-4.32.49-6.48.77-3.27.43-6.51,1.06-9.79,1.29-4.75.32-9.52.5-14.27.46-2.93,0-5.84-.55-8.76-.83-1.23-.12-2.46-.24-3.69-.31-3.42-.17-6.83-.4-10.25-.47-4.46-.08-8.92,0-13.38,0a3.2,3.2,0,0,0-.87.26h-1.65l-1.21,0-.71-.09a7.25,7.25,0,0,0-4.82-.14h-2.4Z" />
            <path class="color-shadow-dark" d="M393.07,445.21a7.25,7.25,0,0,1,4.82.14Z" />
            <path class="color-shadow-dark" d="M390.67,445.22h0Z" />
            <path class="color-shadow-dark" d="M398.6,445.44l1.21,0Z" />
            <path class="color-base"
                d="M473.49,438c.05,2.75-2.19,2.39-3.78,2.6-3.3.46-6.63.7-9.95,1s-6.88.81-10.32.9c-4.3.11-8.62-.05-12.92-.22s-8.66-.45-13-.71c-5-.3-9.92-.82-14.88-.88-3.35,0-6.71.64-10.08.81a30,30,0,0,1-4.6-.45c-.51-.06-1-.16-1.54-.18-4.29-.17-8.59-.29-12.89-.5-4-.19-8-.45-12-.71-3.25-.21-6.49-.51-9.75-.68-1-.06-2.11.23-3.15.18-3.61-.18-7.22-.46-10.83-.66-2.19-.13-4.38-.13-6.57-.29a64.73,64.73,0,0,1-14.75-2.54,4.8,4.8,0,0,1-.66-.27c-.06,0-.09-.13-.24-.36a8.24,8.24,0,0,1,1-.4c2.16-.55,4.32-1.06,6.47-1.62.26-.06.46-.36.68-.55h.47l.72,0h.47l.73-.23h.71l1-.23h.47l5.29-1.19H340l.74-.45h1.66l1-.24h.71l.73-.23,1.19,0,1-.44,4.07.22,1.22.22,1.41-.2,1,.23,2.16.23h4.32l1.44,0H364l.49-.22,1.2-.24h.48l2.16-.47h.48l2.15-.21,1.22.45h.47c.06.06.11.15.17.16,4.18.51,8.34,1.12,12.53,1.5,3.44.31,6.91.41,10.37.5,7.38.2,14.76.43,22.13.46,4.9,0,9.8-.28,14.7-.47.28,0,.56-.29.83-.44,2.22.15,4.45.27,6.66.47,3,.27,6,.73,9,.88,2.25.11,4.52-.19,6.79-.25,2.77-.07,5.55-.2,8.31-.05a27.35,27.35,0,0,1,6.09,1c3.25.92,3.22,1,3.22,4.43Z" />
            <path class="color-shadow"
                d="M433.41,431c-.27.15-.55.43-.83.44-4.9.19-9.8.49-14.7.47-7.37,0-14.75-.26-22.13-.46-3.46-.09-6.93-.19-10.37-.5-4.19-.38-8.35-1-12.53-1.5-.06,0-.11-.1-.17-.16,1.49,0,3,0,4.45.05.83,0,1.66.17,2.49.2,3.66.09,7.34,0,11,.28,3.16.21,6.28.89,9.44,1.08,2.93.16,5.89-.07,8.83-.1,3.74,0,7.47-.08,11.2-.07,1.47,0,2.93.22,4.4.24C427.46,431.06,430.44,431,433.41,431Z" />
            <path class="color-shadow"
                d="M339.56,430.78,334.27,432c.16-.15.29-.4.47-.44,1.43-.33,2.86-.64,4.3-.92C339.2,430.58,339.39,430.72,339.56,430.78Z" />
            <path class="color-shadow" d="M362.6,430.05l-1.44,0Z" />
            <path class="color-shadow" d="M372.21,429.33l-1.22-.45Z" />
            <path class="color-shadow" d="M352.3,429.8l-1.22-.22Z" />
            <path class="color-shadow" d="M358,430.07h0Z" />
            <path class="color-shadow" d="M347,429.36l-1,.44Z" />
            <path class="color-shadow" d="M354.68,429.83l-1-.23Z" />
            <path class="color-shadow" d="M343.4,430.05l-1,.24Z" />
            <path class="color-shadow" d="M333.8,432l-1,.23Z" />
            <path class="color-shadow" d="M344.84,429.82l-.73.23Z" />
            <path class="color-shadow" d="M342,430.3h0Z" />
            <path class="color-shadow" d="M340.77,430.32l-.74.45Z" />
            <path class="color-shadow" d="M332.12,432.22l-.73.23Z" />
            <path class="color-shadow" d="M330.92,432.45l-.72,0Z" />
            <path class="color-shadow" d="M368.84,429.09h0Z" />
            <path class="color-shadow" d="M366.2,429.57h0Z" />
            <path class="color-shadow" d="M364.52,429.82,364,430Z" />
        </g>
    </g>
</svg>
