<svg id="Nizy_pryamoy" data-name="Nizy pryamoy" xmlns="http://www.w3.org/2000/svg" viewBox="0 0 672 960">
    <g id="img_35" data-name="img 35">
        <g id="img_28_img" data-name="img 28 img">
            <path class="outline"
                d="M473.74,427.19l.89.08.66.29c2.64,1.32,5.24,2.71,7.94,3.91a19.27,19.27,0,0,0,3.7.78c-.24.91-.42,1.91-.77,2.85-1.27,3.35-2.67,6.66-3.89,10-.86,2.37-2.55,3.24-4.92,3.47a107.15,107.15,0,0,1-18.18.07c-4.62-.34-9.26-.28-13.89-.49q-11.13-.48-22.25-1.08c-11.81-.62-23.6-1.63-35.44-1.05-6.94.34-13.86,1-20.8,1.39-9.39.59-18.79,1.32-28.2,1.59A56.57,56.57,0,0,1,322,446.9c-.91-.25-1.76-.76-2.65-1.1a44.61,44.61,0,0,0-5.82-2.12,5.2,5.2,0,0,1-4.38-4.48c-.5-3.39-1.89-6.41-3.14-9.53-1.09-2.73-2-5.56-2.9-8.36-.43-1.33-.35-1.36.85-2.38l1.19,2.24c1.16.37,2.3.71,3.43,1.09a45.4,45.4,0,0,0,15.28,2.48c3.51,0,7-.17,10.53-.46a156.12,156.12,0,0,1,27.77.55c11.64,1.09,23.31,1.16,35,1.09,4.88,0,9.75-.11,14.63-.17h16.3c1,0,1.91.13,2.86.13,4.15,0,8.3,0,12.46,0-2.87.3-5.73.58-8.59.62-14.85.21-29.71.4-44.56.49-5.43,0-10.86-.12-16.29-.32-7.18-.27-14.35-.72-21.53-1-4.87-.2-9.74-.42-14.6-.32s-9.88.58-14.82.88a27.27,27.27,0,0,1-11.74-1.82,47.36,47.36,0,0,0-5.42-1.44c-.31,1.9.51,2.82,1.9,3.1a49.16,49.16,0,0,0,5.91.84c4.14.32,8.28.72,12.41.7s8.12-.55,12.18-.8c6.25-.37,12.44.52,18.64,1,3.58.29,7.17.53,10.73,1a85.25,85.25,0,0,0,14.1.69l12.45-.43c.8,0,1.6,0,2.4-.07,8.93-.43,17.85-1,26.79-1.27,4.62-.14,9.25.42,13.88.37a164.75,164.75,0,0,1,25.32,1.51,45.65,45.65,0,0,1,16.16,5,9.68,9.68,0,0,0,3.9.81c1.32.1,1.8-.73,1.62-1.73-6.66-4.36-13.85-6.32-21.5-7h4.76l1.88.06Zm-119.1,2.59-.95.29h-2c-.2-.95-1-.91-1.68-1a108.32,108.32,0,0,0-20.53.27,70.09,70.09,0,0,1-9,.22c-3.58-.15-7.14-.62-10.71-.93-.66-.06-1.32,0-2.29,0,.45.91.74,1.45,1,2,.72,1.68,1.56,3.33,2.11,5.06,1,3.3,1,3.33,4.14,4.47.28.1.58.17.91.26l.54-1.77c1.32,2.08,2.29,4.23,4.85,4.49l.38.12-.12-.37c-.18-1.08-.37-2.16-.55-3.24v-1.34h.19l.18,0,1.07,2.24c.21.6.43,1.2.64,1.79a3.66,3.66,0,0,0,3.14,2.56c3,.44,6,1,8.95,1.41a20.45,20.45,0,0,0,2.83,0l.43-2.3,1.14-3.12.43.11c-.12,1.71-.23,3.41-.36,5.25H344c1-1.95,1.93-3.89,2.89-5.83l.29.15c-.26,1.85-.52,3.69-.79,5.59h8.1v-5.57a8.86,8.86,0,0,1,1.4,2.95c.87,2.65.87,2.65,3.83,2.11l-.61-2.38A10.49,10.49,0,0,1,361,445a2.38,2.38,0,0,0,1.39.77c2.61-.08,5.21-.28,7.78-.44-.44-2-.86-3.82-1.27-5.67v-1.29l1,1.4,2.71,5.55,3.29-.48.33-3.36,1.9,3.44a38,38,0,0,1,4.87-.36c3.42.17,6.56-.11,8.33-3.84l.33.38c-.29,1-.57,2-.92,3.21,1.79,0,3.46.32,4.9-.11,1-.31,1.78-1.62,3-2.85-.25.82-.38,1.16-.46,1.52s-.16.86-.27,1.5H407c-.24-.74-.44-1.38-.75-2.37.58.39.9.5,1.07.73,1.47,1.92,3.49,2.33,5.75,2.27,1.35,0,2.71.07,4.07.15l11.22.65c.19,0,.39-.15.62-.25-.41-1.83-.81-3.6-1.22-5.38,0-.63-.05-1.26-.1-2.32.63,1.23,1,2,1.44,2.78.16.61.29,1.23.5,1.82,1.07,3,1.89,3.52,5,3.59,1.43,0,2.85.2,4.29.26,1,.05,2,0,3.28,0,.16-1.9.29-3.55.42-5.2h.95l.77,5.24H459c.1-1,.2-2,.34-3.5l1.42,2.11c1.32,2.92,3.88,1.63,6.27,2.06l-.67-2.57.15-3.82a.41.41,0,0,0,.06-.45l.38.11a.34.34,0,0,0,.11.33c.36,2,.72,4,1.11,6.19a12.46,12.46,0,0,0,6.94-.74l.19-2.13c.2,0,.31-.06.36,0a4.7,4.7,0,0,1,.51.49c1.47,1.63,2.21,1.68,3.24-.14,1.24-2.18,2.25-4.49,3.52-7.07a9,9,0,0,1-6.7-1.84,5.44,5.44,0,0,0-1.56-.44,11.53,11.53,0,0,0-2.24-1.3,47.64,47.64,0,0,0-8.08-2.19c-5-.61-10-.91-15-1.09-7.91-.3-15.82-.45-23.74-.57-3,0-5.91.15-8.86.27-3.6.15-7.19.4-10.78.51-7.27.21-14.54.4-21.82.5-4.71.06-9.43.07-14.13-.12s-9.25-.65-13.87-1Z" />
            <path class="color-shadow-dark"
                d="M467.5,426.71h-4.76c7.65.67,14.84,2.63,21.5,7,.18,1-.3,1.83-1.62,1.73a9.68,9.68,0,0,1-3.9-.81,45.65,45.65,0,0,0-16.16-5,164.75,164.75,0,0,0-25.32-1.51c-4.63.05-9.26-.51-13.88-.37-8.94.27-17.86.84-26.79,1.27-.8,0-1.6,0-2.4.07l-12.45.43a85.25,85.25,0,0,1-14.1-.69c-3.56-.47-7.15-.71-10.73-1-6.2-.51-12.39-1.4-18.64-1-4.06.25-8.11.78-12.18.8s-8.27-.38-12.41-.7a49.16,49.16,0,0,1-5.91-.84c-1.39-.28-2.21-1.2-1.9-3.1a47.36,47.36,0,0,1,5.42,1.44A27.27,27.27,0,0,0,323,426.22c4.94-.3,9.88-.78,14.82-.88s9.73.12,14.6.32c7.18.28,14.35.73,21.53,1,5.43.2,10.86.36,16.29.32,14.85-.09,29.71-.28,44.56-.49,2.86,0,5.72-.32,8.59-.62-4.16,0-8.31,0-12.46,0-.95,0-1.9-.08-2.86-.13,5.16-.13,10.31-.32,15.46-.36,2.38,0,4.76.26,7.14.41l4.71.29Z" />
            <path class="color-shadow-dark" d="M421.44,425.74h0Z" />
            <path class="color-shadow-dark" d="M473.74,427.19l-4.36-.42Z" />
            <path class="color-shadow" d="M455.39,426.07l-4.71-.29Z" />
            <path class="color-shadow-dark" d="M475.29,427.56l-.66-.29Z" />
            <path class="color-base"
                d="M351.67,430.05l2,0c.11.66.28,1.15,1,.46l1.46-.61c4.62.34,9.24.8,13.87,1s9.42.18,14.13.12c7.28-.1,14.55-.29,21.82-.5,3.59-.11,7.18-.36,10.78-.51,2.95-.12,5.91-.31,8.86-.27,7.92.12,15.83.27,23.74.57,5,.18,10,.48,15,1.09a47.64,47.64,0,0,1,8.08,2.19,11.53,11.53,0,0,1,2.24,1.3c0,.95,0,1.9,0,2.85,0,1.11-.36,1.79-1.58,1.94-2,.25-4,.6-6.05.91a.34.34,0,0,1-.11-.33l-.59-.47.21.36a.41.41,0,0,1-.06.45c-3.39.16-6.78.41-10.17.47-4.28.08-8.56,0-12.84,0h-.95c-2-.16-3.92-.39-5.88-.46-2.53-.08-5.07,0-7.6,0l-1.44-2.78c.05,1.06.08,1.69.1,2.32-2.93-.16-5.87-.41-8.81-.48-3.76-.08-7.52,0-11.27,0-.95,0-1.89.23-2.84.31a69.35,69.35,0,0,1-7.59.55c-4.93-.15-9.84-.59-14.76-.85-.86-.05-1.73.27-2.59.26-3.35,0-6.69-.12-10-.19l-1-1.4v1.29H351.61a15.16,15.16,0,0,1-1.9-.13c-3.77-.42-7.54-1.08-11.32-1.24a63.7,63.7,0,0,1-14-2.59c-.56-.15-.95-.9-1.41-1.37h1.41l1-.45,1.88,0,1-.44,4.8-.93c.33.5.65.49,1,0a11.22,11.22,0,0,0,1.43-.08c4.76-.92,9.46-2.2,14.39-1.88A6,6,0,0,0,351.67,430.05Z" />
            <path class="color-shadow"
                d="M323,434.33c.46.47.85,1.22,1.41,1.37a63.7,63.7,0,0,0,14,2.59c3.78.16,7.55.82,11.32,1.24a15.16,15.16,0,0,0,1.9.13h17.24c.41,1.85.83,3.7,1.27,5.67-2.57.16-5.17.36-7.78.44A2.38,2.38,0,0,1,361,445a10.49,10.49,0,0,0-1.82-1.65l.61,2.38c-3,.54-3,.54-3.83-2.11a8.86,8.86,0,0,0-1.4-2.95v5.57h-8.1c.27-1.9.53-3.74.79-5.59l-.29-.15c-1,1.94-1.93,3.88-2.89,5.83h-4.73c.13-1.84.24-3.54.36-5.25l-.43-.11c-.38,1-.76,2.08-1.15,3.12-1.24-.23-2.49-.42-3.72-.7-4.09-.91-8.17-1.85-12.26-2.78-.36-.75-.72-1.49-1.07-2.24l-.17-.36-.2.33v1.34a52.35,52.35,0,0,1-5.22-2.21c-1.41-.77-3-1.6-2.84-3.88a10.76,10.76,0,0,1,1.61,0c2.56.41,5.09,1.3,7.73.36C322.21,433.86,322.63,434.19,323,434.33Z" />
            <path class="color-shadow"
                d="M369.84,439.77c3.34.07,6.68.16,10,.19.86,0,1.73-.31,2.59-.26,4.92.26,9.83.7,14.76.85a69.35,69.35,0,0,0,7.59-.55c.95-.08,1.89-.3,2.84-.31,3.75,0,7.51-.08,11.27,0,2.94.07,5.88.32,8.81.48.41,1.78.81,3.55,1.22,5.38-.23.1-.43.26-.62.25l-11.22-.65c-1.36-.08-2.72-.18-4.07-.15-2.26.06-4.28-.35-5.75-2.27-.17-.23-.49-.34-1.07-.73.31,1,.51,1.63.75,2.37h-9.11c.11-.64.17-1.07.27-1.5s.21-.7.46-1.52c-1.23,1.23-2,2.54-3,2.85-1.44.43-3.11.11-4.9.11.35-1.2.63-2.21.92-3.21l-.33-.38c-1.77,3.73-4.91,4-8.33,3.84a38,38,0,0,0-4.87.36l-1.9-3.44-.33,3.36-3.29.48Z" />
            <path class="color-shadow-dark"
                d="M323,434.33c-.36-.14-.78-.47-1.06-.37-2.64.94-5.17.05-7.73-.36a10.76,10.76,0,0,0-1.61,0c-.18,2.28,1.43,3.11,2.84,3.88a52.35,52.35,0,0,0,5.22,2.21c.18,1.08.37,2.16.55,3.24a3.19,3.19,0,0,0-.26.26c-2.56-.27-3.53-2.42-4.85-4.5l-.54,1.77c-.33-.09-.63-.16-.91-.26-3.17-1.14-3.1-1.17-4.14-4.47-.55-1.73-1.39-3.38-2.11-5.06-.24-.57-.53-1.11-1-2,1,0,1.63-.05,2.29,0,3.57.31,7.13.78,10.71.93a70.09,70.09,0,0,0,9-.22,108.32,108.32,0,0,1,20.53-.27c.72.07,1.48,0,1.68,1a6.33,6.33,0,0,1-1.81.42c-4.93-.32-9.63,1-14.39,1.88a11.22,11.22,0,0,1-1.43.08l-1,0-4.8.93c-.71-.7-.85-.13-1,.44l-1.88.05c-.71-.71-.85-.13-1,.44Z" />
            <path class="color-shadow"
                d="M443.5,441.1c4.28,0,8.56.07,12.84,0,3.39-.06,6.78-.31,10.17-.47l-.15,3.82a11.3,11.3,0,0,1-2.34.68,27.5,27.5,0,0,1-3.26-.17l-1.42-2.11c-.14,1.45-.24,2.46-.34,3.5H444.27Z" />
            <path class="color-shadow"
                d="M467.06,440.61c2-.31,4-.66,6.05-.91,1.22-.15,1.6-.83,1.58-1.94,0-.95,0-1.9,0-2.85a5.44,5.44,0,0,1,1.56.44,9,9,0,0,0,6.7,1.84c-1.27,2.58-2.28,4.89-3.52,7.07-1,1.82-1.77,1.77-3.24.14a4.7,4.7,0,0,0-.51-.49c-.05,0-.16,0-.36,0l-.19,2.13a12.46,12.46,0,0,1-6.94.74C467.78,444.65,467.42,442.63,467.06,440.61Z" />
            <path class="color-shadow"
                d="M429.07,440.63c2.53,0,5.07-.06,7.6,0,2,.07,3.92.3,5.88.46-.13,1.65-.26,3.3-.42,5.2-1.26,0-2.28,0-3.28,0-1.44-.06-2.86-.23-4.29-.26-3.1-.07-3.92-.62-5-3.59C429.36,441.86,429.23,441.24,429.07,440.63Z" />
            <path class="color-shadow-dark"
                d="M322.09,440.61c4.09.93,8.17,1.87,12.26,2.78,1.23.28,2.48.47,3.72.7-.12.69-.25,1.38-.42,2.3a20.45,20.45,0,0,1-2.83,0c-3-.43-6-1-8.95-1.41a3.66,3.66,0,0,1-3.14-2.56C322.52,441.81,322.3,441.21,322.09,440.61Z" />
            <path class="color-shadow-dark"
                d="M460.76,445a27.5,27.5,0,0,0,3.26.17,11.3,11.3,0,0,0,2.34-.68c.19.74.39,1.49.67,2.57C464.64,446.58,462.08,447.87,460.76,445Z" />
            <path class="color-shadow-dark" d="M356.14,429.93l-1.46.61c0-.25,0-.51,0-.76Z" />
            <path class="color-shadow" d="M354.64,429.78c0,.25,0,.51,0,.76-.72.69-.89.2-1-.46Z" />
            <path class="color-shadow" d="M466.57,440.17l-.21-.36.59.47Z" />
            <path class="color-shadow-dark" d="M320.65,438.34l.2-.33.17.36-.18,0Z" />
            <path class="color-shadow-dark" d="M321.2,442.92l.12.37-.38-.12Z" />
            <path class="color-shadow" d="M333.08,432.46l1,0C333.73,433,333.41,433,333.08,432.46Z" />
            <path class="color-shadow" d="M327.28,433.83c.15-.57.29-1.14,1-.44Z" />
            <path class="color-shadow" d="M324.4,434.32c.15-.57.29-1.15,1-.44Z" />
        </g>
    </g>
</svg>
