<svg id="Nizy_pryamoy" data-name="Nizy pryamoy" xmlns="http://www.w3.org/2000/svg" viewBox="0 0 672 960">
    <g id="img_35" data-name="img 35">
        <g id="img_34_img" data-name="img 34 img">
            <path class="outline"
                d="M400.58,459.34l.09.39.17,1,.07.39.15.81,1,4.72.14.62.17.68.09.46.1.39.13.57.1.39.14.57a84.92,84.92,0,0,0,5.19,14.53c.41.81.15,1.36-.76,1.63a20.62,20.62,0,0,0-2,.84,16.31,16.31,0,0,1-2.69-4.86,69,69,0,0,1-4.2-16.81,185.15,185.15,0,0,1-1.23-23.07V441.4a3.08,3.08,0,0,0-.57-.18,1.94,1.94,0,0,0-.46,0l-5,35.52c-.83-.17-1.36-.24-1.87-.4-.95-.3-1.87-.7-2.83-1-1.39-.39-1.79-.92-1.37-2.35.53-1.8,1.19-3.56,1.79-5.34.25-.76.51-1.52.77-2.27l.19-.61.33-1.07.4-1.33,1.27-4.43.15-.62.12-.44.14-.51.1-.45.14-.51.11-.45.13-.51,1-4.05.13-.52.16-.68.12-.51.11-.45.11-.5c-.2-.05-.51-.2-.56-.13a8.07,8.07,0,0,0-.66,1l-.31.56-.63,1.12L390,451l-1.13,1.84-.34.55-.12.18-.35.54c-1.17,1.34-2.27,2.75-3.53,4a4.39,4.39,0,0,1-3.7,1.3l-.51-.15a3.45,3.45,0,0,1-2.14-3.08,11.11,11.11,0,0,1,1.37-6.95c1.31-2.37,2.86-4.6,4.32-6.89.29-.45.61-.88.92-1.31l-.14-.36c-1.61,0-3.24.08-4.85,0-6.41-.41-12.81-.92-19.22-1.32-1.95-.12-3.91,0-5.87,0-6.39.16-12.77.38-19.16.49-5.39.1-10.81.34-16.15-.64-2.14-.4-4.22-1.19-6.34-1.76a21,21,0,0,0-2.24-.39,5,5,0,0,1-3.25-1.85l-.48-1.07-.11-.44-.1-.7-.15-.87-.13-.63-1-2.49-.69-1.58-.75-1.54-1.51-4.38,1-.2.87.13.46.08c.95.28,1.89.59,2.85.83,2.8.69,5.61,1.35,8.42,2l.71.1,0-.27-.66-.37-3-3.5-.4-.53a.38.38,0,0,1-.12-.16l-.58-.81a.45.45,0,0,1-.11-.17L311,416.86a.51.51,0,0,1-.09-.18l-1.14-2.94.73.23a.51.51,0,0,1,.09.18l.59,1a.48.48,0,0,1,.09.19l.63,1a.4.4,0,0,1,.1.18l.38.54a.52.52,0,0,1,.12.17l2.3,2.94c1.61,1.41,3.21,2.84,4.86,4.19a2.25,2.25,0,0,0,1.34.35c2,0,4-.07,6-.12l2.32-.2,1.39-.07.76-.11,1.87-.17.52,0c3.33-.32,6.65-.81,10-.94,4.45-.16,8.9,0,13.6,0l-2.12-3.25-.6-1-.35-.66-.32-.57-.2-.37-.41-.75-1.95-3.6.34-.33,2.2,3.35.46.71,0,0,.37.54a.4.4,0,0,1,.1.18l.38.54a.62.62,0,0,1,.11.17l.39.54,3.79,4.71,2.92.41,1.46.22.45.06,1.79.26.42.05,1,.13,2,.28,1.23.13.93.09,3,.5,3.23.39c.76-2.46,1.49-4.85,2.22-7.23l.26,0c-.3,2.43-.59,4.86-.91,7.4.88.11,1.78.26,2.68.31q7.74.42,15.5.8l2.37,0,4.49.07,1.51-.11,7-.2,1.42-.09,10.72-.08,5.35-.12,1.19,0h.75l2.16,0,2.72.14,5,.12.94.09,2.47.09a5.91,5.91,0,0,1-1.22.26c-5.87,0-11.74-.11-17.62,0-6.67.07-13.34.38-20,.44-5.9.05-11.81-.13-17.72-.14-5.61,0-11.12-1-16.67-1.6q-10.69-1.2-21.44-2a71,71,0,0,0-13.74.59c-4.36.53-8.74.9-13.12,1.19-4.88.32-9.73.21-14.37-1.76a44.76,44.76,0,0,0-5.72-1.57l.88,2.13c1.82.41,3.7.9,5.61,1.24a60.37,60.37,0,0,0,17.65.65c4.59-.54,9.21-1,13.83-1.21a111.55,111.55,0,0,1,23.15,1.49c3.47.55,6.93,1.19,10.42,1.54,4,.41,8,.65,12.06.76,5.48.16,10.95.16,16.43.17,1.63,0,3.27-.14,4.9-.27,3.38-.26,6.76-.79,10.14-.79,7.88,0,15.75.27,23.62.45,1.31,0,2.63.1,3.94.25,5.39.6,10.79,1.15,16.17,1.89a54.85,54.85,0,0,1,15.4,4.3,9,9,0,0,0,5,.63l.64-1.31a13.13,13.13,0,0,0-1.17-.6,23.08,23.08,0,0,1-2.25-.82c-5.72-2.92-11.93-3.68-18.19-4.22-2.7-.24-5.4-.44-8.1-.7a2.45,2.45,0,0,1-.84-.42l12.72.94,1.28.09,1.6.08,1.76.15.87.07.95.14.68.08,2.3.69.85.42,3.58,1.54c.59-2.19,1.11-4.09,1.62-6l.22-.6c.46-1.37.91-2.74,1.36-4.11l.65-2.21.58,0c-.16.78-.32,1.56-.49,2.35-.21,1-.43,2-.65,3l-.09.4-.14.57-.09.39-.14.57-.1.39-.11.46-.12.44-.11.52-.12.44-.11.52-.11.44-.43,2.74.05.06.59.29c1.9.71,2.09.59,2.92-1.31a1.47,1.47,0,0,1,1.1-.79c.77.08.87.81.63,1.4-.88,2.14-1.81,4.26-2.75,6.37-.7,1.56-1.56,3.06-2.17,4.65a3.8,3.8,0,0,1-3.74,2.66,115.88,115.88,0,0,1-17.56-.86c-5.77-.78-11.6-1.12-17.41-1.61-6.29-.52-12.58-1-18.87-1.47-2.42-.17-4.87-.14-7.3-.14-3.68,0-7.35.09-11,.14a5.48,5.48,0,0,0-.66.08c.63,1.42,1.25,2.76,1.83,4.11a21.14,21.14,0,0,1,2,7.6,9.23,9.23,0,0,1-.29,2.72c-.6,2.06-2.33,2.73-4.11,1.53a9,9,0,0,1-2.5-2.53,51.24,51.24,0,0,1-2.39-4.81l-.35-1.26-.25.05.07,1.32.2,2.89,0,.46.17,1.7.1.7.1.87.13,1,.08.39Zm4-9.58.27.57.17-.06-.17-.52-.24-.27Zm-12-3.63-.71,1.45.54.2.46-1.63.14-.55-.16-.05Zm-2.15-10.95.15.43.38-.45c.46-.54.87-1.13,1.38-1.63a1.12,1.12,0,0,0,.05-1.83l1.34.59,1.91-1.6-.11-.3c-.42,0-.84-.06-1.25-.06a165.84,165.84,0,0,1-21.37-1.24c-3.44-.45-6.87-1-10.3-1.46a2.76,2.76,0,0,0-.55-.19,114.11,114.11,0,0,0-21.62-1c-3.42.24-6.83.59-10.25.88a71,71,0,0,1-8.82.67c-4.41-.18-8.81-.82-13.21-1.28-.63-.06-1.26-.19-1.9-.29l3.34,7.63,2.37.59c-2-5.43-2-5.43-1.06-6.28l1.27,2.41,1.41,2.42c1.45,1.9,2.94,3.73,5.76,3.79l-.5-2.63.08-.72v0l1,1.19c.66,1.72,1.58,3.08,3.73,3.05,1.36,0,2.71.18,4.37.31l-1.26-2.41-.95-3.37-.24-1.63.5-.49.78,2.63,1.6,3.16c.48.83.66,2,1.88,2.09,1.66.1,3.34,0,5.12,0l.55-1.44,1.43-2.48.25.06-.19,2.16-.78,1.46c1.41,0,2.69-.07,3.95,0a2,2,0,0,0,2.31-1.45l2.41-2.9.25.2-.81,2.2-.6,1.73h8.51l-.14-1.47-.15-2.9c0-1.73-.4-3.5.62-5.14a2.28,2.28,0,0,1,.44,1.05c.23,1.45.44,2.9.66,4.35l.57,2.38.61,1.86h2.82l-1-1.66.81.09a3.21,3.21,0,0,0,3.27,1.91,21.27,21.27,0,0,1,3,.2l4.6.28-.87-1.73-.51-2.38-.08-1.35,1.08,1.58,1.79,2.93.69,1.15,3.49.27v-1l-.47-2.88.25-2.92h.48l.78,3.47,1.07,3.45c3.1.06,6.11.12,9.12.15a1.34,1.34,0,0,0,.81-.42c.8-.82,1.57-1.68,2.35-2.52a14.71,14.71,0,0,0,.93-1.57,26.14,26.14,0,0,1,1.07-2.62c.19-.32.87-.36,1.33-.53Zm80.23,6.67c.26-1,.51-2.07.77-3.1l.84-3.08.48,2.8-.23,3.12-.64,2.27,3.27-.34v-2l2.23,2c.92-1.82,1.73-3.42,2.55-5l.3.08-.2,2.67,2.78-4.55a10.45,10.45,0,0,1-7.06-1.56,6.71,6.71,0,0,0-1-.36c-1.85-.62-3.69-1.31-5.56-1.85-7.2-2.06-14.65-2.32-22.05-2.85-5.53-.39-11.08-.65-16.63-.74-4.9-.08-9.81.1-14.71.29-5.22.19-10.44.53-15.66.79-.76,0-1.52-.07-2.37-.11l1.73,1.58c.72.12,1.31.24,1.9.3,1.79.18,2.39.74,2.84,2.51a19.67,19.67,0,0,0,.87,2.32,6.64,6.64,0,0,0,2.85,3.16,4.85,4.85,0,0,0,.91.17c2.94,0,5.89,0,8.83,0a8.56,8.56,0,0,0,1.14-.16l-.32-1-.49-2.64c.19-1.61-.49-3.36.6-4.82H419c.25,1.61.51,3.21.76,4.82l.62,2.69.35,1h7.45l-.5-.86-1-2.87-.24-1,.5-.05.91,1.27c.68,1,1.36,2.06,2,3.09.5.32,1,.84,1.49.92a38.69,38.69,0,0,0,3.89.27c.51,0,1,0,.93-.7l.81-3.1,1.11-3.6.38.08v3.73l-.9,3.81h3.66l.82-3.52.21-.24h.22l.19.23.56,3.09c-.15.76.36.72.86.76,2.61.21,5.21.45,7.82.66,1.09.09,2.17.16,3.45.25l-.38-1.18-.61-2.9c0-1.95-.4-4,.64-5.75l.3,0,.93,5.95.15.75c.18.72.35,1.43.53,2.15l.3,1.13,1.8.08-.37-1.47.07-1.21.36-.06,1.15,1.55c.46.47.87,1.22,1.41,1.34,1.63.36,3.32.48,5.2.71l-.85-2.07c0-.88,0-1.76,0-2.63a.2.2,0,0,0,.06-.18l.3-.15.29.18a.18.18,0,0,0,.07.15l.74,2.63c0,.69.09,1.38.14,2.11h2.69ZM396.23,437l1.88.32v.29c.11,6-.05,12.08.41,18.09.43,5.66,1.41,11.3,2.35,16.92a45.47,45.47,0,0,0,4.49,13.27l2.08-.88a10.33,10.33,0,0,1-.7-.86,7.77,7.77,0,0,1-.38-.88A115.44,115.44,0,0,1,400,460.49a120,120,0,0,1-1.28-21.24,4.55,4.55,0,0,1,.13-.81l.26,0a3,3,0,0,0,.35-.9c0-.78-.07-1.56-.12-2.53a3.67,3.67,0,0,1,.54.38,6.38,6.38,0,0,1,1.12,1.4c1.76,4.13,3.52,8.26,5.13,12.45a2.29,2.29,0,0,1-.87,3.18,18.74,18.74,0,0,1-2-2.58,35,35,0,0,1-3.43-10.35,9.42,9.42,0,0,0-.38-1.14c-.17.29-.25.36-.24.42.53,2.79,1,5.6,1.64,8.35a17.41,17.41,0,0,0,3.67,7.41,3.46,3.46,0,0,0,2.78,1.41c.29-.63.88-1.32.87-2a11.34,11.34,0,0,0-.63-4.29c-2.55-5.7-5.29-11.32-8-17l-.36.25-1.53-1.17-.89-.18a11,11,0,0,0-2.13,1.39c-2.57,2.66-5.14,5.32-7.57,8.11a32.86,32.86,0,0,0-6.48,10.48c-.59,1.63-1.07,3.33-.15,5.31a4,4,0,0,0,1.69-.18,11.11,11.11,0,0,0,2.88-2.23A68.41,68.41,0,0,0,394,440c.16-.35.36-.69.55-1l.34.15c-1.65,11.64-4,23.14-8,34.23l3.44,1.37c.1-.5.2-.92.26-1.34.19-1.42.36-2.83.55-4.25.32-2.47.66-4.94,1-7.41.42-3.26.73-6.54,1.25-9.79.79-5,1.72-9.95,2.59-14.92Zm5.26,4.3-.32.28c.92,2.7,1.67,5.48,3.4,7.86a.55.55,0,0,0,.14-.48c-.8-2.33-1.6-4.66-2.45-7C402.16,441.65,401.76,441.47,401.49,441.25Zm1.24-4.14c.59-1.8.06-3.84-2-4.52C400.86,434.39,402.15,435.59,402.73,437.11Zm1.37.63a2,2,0,0,0,1.44,2.52Zm-3.52.08-.36.09c.3.82.08,1.86,1,2.43l.39-.16Zm-3.15,1.52-.36-.12-.31.81.35.13Zm2.76-2.19c0,.18,0,.09,0,0Z" />
            <path class="color-shadow-dark"
                d="M453.57,427.46a2.45,2.45,0,0,0,.84.42c2.7.26,5.4.46,8.1.7,6.26.54,12.47,1.3,18.19,4.22a23.08,23.08,0,0,0,2.25.82,13.13,13.13,0,0,1,1.17.6l-.64,1.31a9,9,0,0,1-5-.63,54.85,54.85,0,0,0-15.4-4.3c-5.38-.74-10.78-1.29-16.17-1.89-1.31-.15-2.63-.22-3.94-.25-7.87-.18-15.74-.44-23.62-.45-3.38,0-6.76.53-10.14.79-1.63.13-3.27.27-4.9.27-5.48,0-10.95,0-16.43-.17-4-.11-8.06-.35-12.06-.76-3.49-.35-7-1-10.42-1.54a111.55,111.55,0,0,0-23.15-1.49c-4.62.24-9.24.67-13.83,1.21a60.37,60.37,0,0,1-17.65-.65c-1.91-.34-3.79-.83-5.61-1.24l-.88-2.13a44.76,44.76,0,0,1,5.72,1.57c4.64,2,9.49,2.08,14.37,1.76,4.38-.29,8.76-.66,13.12-1.19a71,71,0,0,1,13.74-.59q10.74.78,21.44,2c5.55.61,11.06,1.6,16.67,1.6,5.91,0,11.82.19,17.72.14,6.67-.06,13.34-.37,20-.44,5.88-.07,11.75,0,17.62,0a5.91,5.91,0,0,0,1.22-.26Z" />
            <path class="outline"
                d="M436.29,425.75a.26.26,0,0,1-.14-.15l.21-1.76.1-.44.43-2.06.11-.64.11-.8.14-1.12,0-.46.21-2.9.08-2.86.09-2.83H438l.12,1.39.1.52.13,1.16.09.7.18,2.66,0,5.25-.12,1.22-.16,1.28-.1.64-.15.55-.54.71Z" />
            <path class="outline"
                d="M408.8,416.06l.1-.64.1-.7.63-4.6L410,410l-.39,7.39,0,.45-.35,5.3-.11.7-.09.44-.51,1.53-.69.49-.47-.32.08-.63.11-.52.16-.68.09-.52.14-.68.08-.52.18-1.22.1-.7.14-1.22.14-1.05.09-.63Z" />
            <path class="outline"
                d="M459.39,421.44l.13-.67.13-.53.77-3.8.5.65-.11.44-.11,1.24-.12,1.16-.2,1.09-.07.89-.13.8c-.25,1.16-.51,2.31-.76,3.46l-.56,1-1.15.33.85-2.67.17-.63.34-1.36.14-.56.08-.4Z" />
            <path class="color-shadow-dark"
                d="M329.31,424.44l-2.32.2,1.23-.37c-1.3-1.89-4.08-2.58-4.23-5.22l.27-.23Z" />
            <path class="color-shadow-dark"
                d="M432.69,426.44h-.75c.13-1.66.27-3.32.43-5.2a2.08,2.08,0,0,1,.88,2.32C433.09,424.52,432.88,425.48,432.69,426.44Z" />
            <path class="color-shadow-dark" d="M481.78,425.67c-.51,1.9-1,3.8-1.62,6l-3.58-1.54,3.24,1Z" />
            <path class="color-shadow-dark" d="M310.53,414l-.73-.23,1.14,2.94-2.11-4.59.63-.32Z" />
            <path class="color-shadow" d="M307.81,409.46a18.74,18.74,0,0,1-1.91-5.69l.29-.1,1.94,5.25Z" />
            <path class="color-shadow-dark" d="M351.83,412.5l-.34.33-2.14-3.6,0-.47Z" />
            <path class="color-shadow-dark" d="M460.92,417.09l-.5-.65.63-3.4.41.22Z" />
            <path class="color-shadow-dark" d="M303.66,421.26l-1,.2,1.51,4.38a10.94,10.94,0,0,1-1.83-4.86Z" />
            <path class="color-shadow-dark"
                d="M438.6,421.41c0-1.75,0-3.5,0-5.25C438.63,417.91,438.62,419.66,438.6,421.41Z" />
            <path class="color-shadow-dark" d="M430.75,426.47l-5.35.12Z" />
            <path class="color-shadow-dark"
                d="M436.29,425.75l1.24.06,0,.79-2.72-.14a3.8,3.8,0,0,0,1-.12C436.06,426.26,436.15,426,436.29,425.75Z" />
            <path class="outline" d="M307.81,409.46l.32-.54,1.33,2.85-.63.32Z" />
            <path class="color-shadow-dark"
                d="M483.36,421c-.45,1.37-.9,2.74-1.36,4.11C482.46,423.7,482.91,422.33,483.36,421Z" />
            <path class="color-shadow-dark" d="M314.83,420.22l-2.3-2.94Z" />
            <path class="color-shadow-dark"
                d="M484.59,418.78l-.58,0,.66-2.51.5.13C485,417.17,484.79,418,484.59,418.78Z" />
            <path class="color-shadow-dark" d="M438,409.73h-.37c-.09-.72-.19-1.43-.28-2.15l.49-.05Z" />
            <path class="color-shadow-dark"
                d="M437.57,412.56c0,.95-.06,1.9-.08,2.86C437.51,414.46,437.54,413.51,437.57,412.56Z" />
            <path class="color-shadow-dark" d="M374.92,425.39l-3-.5Z" />
            <path class="color-shadow-dark"
                d="M483.45,424.15c.22-1,.44-2,.65-3C483.89,422.14,483.67,423.14,483.45,424.15Z" />
            <path class="color-shadow-dark" d="M481.78,432l.43-2.74Z" />
            <path class="color-shadow-dark" d="M400.27,427l-2.37,0Z" />
            <path class="color-base" d="M461.46,413.26l-.41-.22.24-1.55.43.05Z" />
            <path class="color-shadow-dark" d="M475.73,429.7l-2.3-.69Z" />
            <path class="color-shadow-dark" d="M436.89,421.34l-.43,2.06Z" />
            <path class="color-shadow-dark" d="M311,416.86l1.09,1.75Z" />
            <path class="color-shadow-dark" d="M366.27,424.21l-1.79-.26Z" />
            <path class="color-shadow-dark" d="M470.93,428.72l-1.76-.15Z" />
            <path class="color-shadow-dark" d="M436.36,423.84l-.21,1.76Z" />
            <path class="color-shadow-dark" d="M414.68,426.67l-1.42.09Z" />
            <path class="color-base" d="M380.37,418.3l.22-1,.46.11-.31.9Z" />
            <path class="color-shadow-dark" d="M304.9,427.38l.69,1.58Z" />
            <path class="color-shadow" d="M484.86,415.68l.33-1,.37.13-.31.82Z" />
            <path class="color-shadow-dark" d="M406.27,427l-1.51.11Z" />
            <path class="color-shadow-dark" d="M364,423.89l-1.46-.22Z" />
            <path class="color-shadow-dark" d="M408.8,416.06l-.16,1.52Z" />
            <path class="color-shadow-dark" d="M408.49,425.78l.51-1.53Z" />
            <path class="color-shadow-dark" d="M371,424.8l-1.23-.13Z" />
            <path class="color-shadow-dark" d="M438.32,423.91l.16-1.28Z" />
            <path class="color-shadow-dark" d="M467.57,428.49l-1.28-.09Z" />
            <path class="color-shadow-dark" d="M460.7,418.77l.11-1.24Z" />
            <path class="color-base" d="M399.59,450.23l-.07-1.32.25-.05.35,1.26Z" />
            <path class="color-base" d="M388.66,462.42l-.4,1.33Z" />
            <path class="color-shadow-dark" d="M367.73,424.39l-1-.13Z" />
            <path class="color-shadow-dark" d="M458.86,427.19l.56-1Z" />
            <path class="color-shadow-dark" d="M472.75,428.93l-.95-.14Z" />
            <path class="color-shadow-dark" d="M311.21,415.19l-.59-1Z" />
            <path class="color-base" d="M316.36,423.78l.66.37,0,.27-.71-.1Z" />
            <path class="color-shadow-dark" d="M408.55,418.21l-.14,1.05Z" />
            <path class="color-shadow-dark" d="M460.38,421l.2-1.09C460.51,420.29,460.45,420.65,460.38,421Z" />
            <path class="color-shadow" d="M443.47,426.81l-.94-.09Z" />
            <path class="color-shadow-dark" d="M311.93,416.39l-.63-1Z" />
            <path class="color-shadow-dark" d="M354.72,418.78l.6,1Z" />
            <path class="color-shadow-dark" d="M307.09,434.09l.48,1.07Z" />
            <path class="color-shadow-dark" d="M400.34,457.9l-.13-1Z" />
            <path class="color-shadow-dark" d="M400.58,459.34l-.16-1Z" />
            <path class="color-shadow-dark" d="M400.84,460.78l-.17-1Z" />
            <path class="color-shadow-dark" d="M409.67,408.72l.2-.76.36,0-.55,1.3Z" />
            <path class="color-shadow-dark" d="M312.23,418.78l.58.81Z" />
            <path class="color-shadow-dark" d="M437.11,419.9l-.11.8Z" />
            <path class="color-shadow-dark" d="M306.88,433l.1.7Z" />
            <path class="color-shadow-dark" d="M409.09,423.81l.11-.7Z" />
            <path class="color-shadow-dark" d="M408.27,420.48l-.1.7Z" />
            <path class="color-shadow-dark" d="M331.46,424.26l-.76.11Z" />
            <path class="color-shadow-dark" d="M400.11,456l-.1-.7Z" />
            <path class="color-shadow-dark" d="M409,414.72l-.1.7Z" />
            <path class="color-shadow-dark" d="M438.47,413.5l-.09-.7Z" />
            <path class="color-shadow-dark" d="M460.18,422.71l.13-.8Z" />
            <path class="color-shadow-dark" d="M401.06,462l-.15-.81Z" />
            <path class="color-shadow-dark" d="M353.44,416.43l.41.75Z" />
            <path class="color-shadow-dark" d="M354.49,416.56l-.46-.71Z" />
            <path class="color-shadow-dark" d="M482.32,428.85l.11-.52Z" />
            <path class="color-base" d="M410.23,408l-.36,0,.13-.39h.17Z" />
            <path class="color-shadow-dark" d="M306.6,431.45l.13.63Z" />
            <path class="color-shadow" d="M409.67,408.72v0Z" />
            <path class="color-shadow-dark" d="M438.25,411.64l-.1-.52Z" />
            <path class="color-shadow-dark" d="M482.42,432.38l-.59-.29Z" />
            <path class="color-shadow-dark" d="M312.41,417.11l-.38-.54Z" />
            <path class="color-shadow-dark" d="M354.88,417.12l-.37-.54Z" />
            <path class="color-shadow-dark" d="M355.36,417.84l-.38-.54Z" />
            <path class="color-shadow" d="M409.55,417.81l0-.45Z" />
            <path class="color-shadow-dark" d="M354.05,417.55l.32.57Z" />
            <path class="color-shadow-dark" d="M355.86,418.55l-.39-.54Z" />
            <path class="color-shadow-dark" d="M437.28,418.32l0,.46Z" />
            <path class="color-shadow-dark" d="M312.93,419.75l.4.53Z" />
            <path class="color-shadow-dark" d="M459.65,420.24l-.13.53Z" />
            <path class="color-shadow-dark" d="M305,421.47l-.46-.08Z" />
            <path class="color-shadow-dark" d="M459.39,421.44l-.1.46Z" />
            <path class="color-shadow-dark" d="M408,422.4l-.08.52Z" />
            <path class="color-shadow-dark" d="M459.21,422.3l-.14.56Z" />
            <path class="color-shadow-dark" d="M407.77,423.6l-.09.52Z" />
            <path class="color-shadow-dark" d="M333.85,424l-.52,0Z" />
            <path class="color-base" d="M392.48,447.79l-.11.5Z" />
            <path class="color-base" d="M391,449.27l.31-.56Z" />
            <path class="color-base" d="M392.26,448.74l-.12.51Z" />
            <path class="color-shadow-dark" d="M458.73,424.22l-.17.63Z" />
            <path class="color-shadow-dark" d="M403,470.38l-.14-.57Z" />
            <path class="color-shadow-dark" d="M438.07,425.1l.15-.55Z" />
            <path class="color-base" d="M392,449.93l-.13.52Z" />
            <path class="color-base" d="M390,451l.32-.56Z" />
            <path class="color-base" d="M388.53,453.34l.34-.55Z" />
            <path class="color-shadow-dark" d="M399.84,453.58l0-.46Z" />
            <path class="color-base" d="M388.06,454.06l.35-.54Z" />
            <path class="color-base" d="M390.82,454.5l-.13.51Z" />
            <path class="color-shadow-dark" d="M483.22,425.12l.14-.57Z" />
            <path class="color-base" d="M390.58,455.46l-.14.51Z" />
            <path class="color-base" d="M390.34,456.42l-.14.51Z" />
            <path class="color-shadow-dark" d="M407.52,424.8l-.11.52Z" />
            <path class="color-base" d="M390.08,457.37l-.15.62Z" />
            <path class="color-shadow-dark" d="M483,426.08l.14-.57Z" />
            <path class="color-base" d="M380.32,459.21l.51.15Z" />
            <path class="color-shadow-dark" d="M407.33,426l.47.32Z" />
            <path class="color-shadow-dark" d="M482.78,426.93l.11-.46Z" />
            <path class="color-shadow-dark" d="M482.55,427.89l.11-.52Z" />
            <path class="color-base" d="M387.93,464.82l-.19.61Z" />
            <path class="color-shadow-dark" d="M402.23,467.32l-.14-.62Z" />
            <path class="color-shadow-dark" d="M402.49,468.46l-.09-.46Z" />
            <path class="color-shadow-dark" d="M402.72,469.42l-.13-.57Z" />
            <path class="color-base" d="M349.38,408.76l0,.47-.22-.36Z" />
            <path class="color-shadow-dark" d="M409.58,409.93l.26-.34.12.38Z" />
            <path class="color-shadow-dark" d="M380.37,418.3l.37,0-.11.19-.26,0Z" />
            <path class="color-shadow-dark" d="M484.86,415.68h.39l-.19.32Z" />
            <path class="color-shadow" d="M409.58,409.93l.38,0h0l-.33.15A.12.12,0,0,1,409.58,409.93Z" />
            <path class="color-base"
                d="M405.1,437a19.67,19.67,0,0,1-.87-2.32c-.45-1.77-1.05-2.33-2.84-2.51-.59-.06-1.18-.18-1.9-.3l-1.73-1.58c.85,0,1.61.14,2.37.11,5.22-.26,10.44-.6,15.66-.79,4.9-.19,9.81-.37,14.71-.29,5.55.09,11.1.35,16.63.74,7.4.53,14.85.79,22.05,2.85,1.87.54,3.71,1.23,5.56,1.85-.1.91-.19,1.82-.29,2.72l-.59,1h-1.11l-.48-2.8-.84,3.08-4.67.2a.18.18,0,0,1-.07-.15l-.1-.8h-.38l-.11.77a.2.2,0,0,1-.06.18l-9.58-.26h-.19l-.93-5.95-.3,0c-1,1.79-.62,3.8-.64,5.75-.91,0-1.83,0-2.74,0-3-.2-6-.43-9-.65l-.19-.23-.11-.18a1.63,1.63,0,0,1-.11.17l-.21.24-3.58-.29v-3.73l-.38-.08-1.11,3.6-9.15-.48-.91-1.27-.41-.86-.32.12.23.79.24,1h-6.94l-.76-4.82h-.37c-1.09,1.46-.41,3.21-.6,4.82Z" />
            <path class="color-base"
                d="M392.1,431.83c-.46.17-1.14.21-1.33.53A26.14,26.14,0,0,0,389.7,435a14.71,14.71,0,0,1-.93,1.57c-2.21-.08-4.42-.14-6.63-.25s-4.48-.27-6.72-.41l-.78-3.47h-.48l-.25,2.92-5.5-.49-1.08-1.58.08,1.35-3.79-.28-9.48-.67c-.22-1.45-.43-2.9-.66-4.35a2.28,2.28,0,0,0-.44-1.05c-1,1.64-.61,3.41-.62,5.14-3.74-.16-7.48-.48-11.22-.43a100.45,100.45,0,0,1-12-.26,11.75,11.75,0,0,0-2.35.22l-.78-2.63c.71-.08,1.42-.16,2.13-.26,3.72-.57,7.45-1.08,11.16-1.74a52.5,52.5,0,0,1,11.11-1.13c1.39,0,2.78.13,4.16.24,1.82.13,3.64.33,5.46.42a18.28,18.28,0,0,0,2.54-.22c3.43.49,6.86,1,10.3,1.46a165.84,165.84,0,0,0,21.37,1.24c.41,0,.83,0,1.25.06l.11.3-1.91,1.6-1.34-.59Z" />
            <path class="transparent"
                d="M398.82,438.44a4.55,4.55,0,0,0-.13.81A120,120,0,0,0,400,460.49a115.44,115.44,0,0,0,6.39,22.73,7.77,7.77,0,0,0,.38.88,10.33,10.33,0,0,0,.7.86l-2.08.88a45.47,45.47,0,0,1-4.49-13.27c-.94-5.62-1.92-11.26-2.35-16.92-.46-6-.3-12.06-.41-18.09v-.29l-1.88-.32-.13-.14L396,437c-.87,5-1.8,9.93-2.59,14.92-.52,3.25-.83,6.53-1.25,9.79-.32,2.47-.66,4.94-1,7.41-.19,1.42-.36,2.83-.55,4.25-.06.42-.16.84-.26,1.34l-3.44-1.37c4.06-11.09,6.37-22.59,8-34.23l-.34-.15c-.19.34-.39.68-.55,1A68.41,68.41,0,0,1,385,454.43a11.11,11.11,0,0,1-2.88,2.23,4,4,0,0,1-1.69.18c-.92-2-.44-3.68.15-5.31A32.86,32.86,0,0,1,387,441.05c2.43-2.79,5-5.45,7.57-8.11a11,11,0,0,1,2.13-1.39l.89.18,1.53,1.17.36-.25c2.67,5.65,5.41,11.27,8,17a11.34,11.34,0,0,1,.63,4.29c0,.69-.58,1.38-.87,2a3.46,3.46,0,0,1-2.78-1.41,17.41,17.41,0,0,1-3.67-7.41c-.69-2.75-1.11-5.56-1.64-8.35,0-.06.07-.13.24-.42a9.42,9.42,0,0,1,.38,1.14,35,35,0,0,0,3.43,10.35,18.74,18.74,0,0,0,2,2.58,2.29,2.29,0,0,0,.87-3.18c-1.61-4.19-3.37-8.32-5.13-12.45a6.38,6.38,0,0,0-1.12-1.4,3.67,3.67,0,0,0-.54-.38c.05,1,.13,1.75.12,2.53a3,3,0,0,1-.35.9l0-.38h-.16Zm-2.95-4.84a3,3,0,0,0-.6.23,63.51,63.51,0,0,0-11.35,13.29,37.4,37.4,0,0,0-2.46,5.24,1.43,1.43,0,0,0,.4,1.33,1.57,1.57,0,0,0,1.38-.16,12.52,12.52,0,0,0,2-1.83,49.7,49.7,0,0,0,9-13.88C394.78,436.52,395.26,435.18,395.87,433.6Zm-.85,4.63-.25,0-.19.9c.34,0,.47-.12.48-.23A2.67,2.67,0,0,0,395,438.23Z" />
            <path class="color-shadow-dark"
                d="M362.61,427.63a18.28,18.28,0,0,1-2.54.22c-1.82-.09-3.64-.29-5.46-.42-1.38-.11-2.77-.2-4.16-.24a52.5,52.5,0,0,0-11.11,1.13c-3.71.66-7.44,1.17-11.16,1.74-.71.1-1.42.18-2.13.26l-.5.49-1.59,0-.5.23h-1.65c-.18-.07-.38-.24-.52-.2-2.63.62-5.24.22-7.86,0-.41,0-.83,0-1.25,0l-1.27-2.41c-.92.85-.92.85,1.06,6.28l-2.37-.59-3.34-7.63c.64.1,1.27.23,1.9.29,4.4.46,8.8,1.1,13.21,1.28a71,71,0,0,0,8.82-.67c3.42-.29,6.83-.64,10.25-.88a114.11,114.11,0,0,1,21.62,1A2.76,2.76,0,0,1,362.61,427.63Z" />
            <path class="color-shadow"
                d="M326.83,433a11.75,11.75,0,0,1,2.35-.22,100.45,100.45,0,0,0,12,.26c3.74-.05,7.48.27,11.22.43l.15,2.9c-2.13,0-4.26,0-6.38,0a9.63,9.63,0,0,1-1.39-.24l.81-2.2-.25-.2-2.41,2.9-5.48,0,.19-2.16-.25-.06L336,436.79l-7.55-.68Z" />
            <path class="color-shadow-dark"
                d="M474.45,437.5l.29-2.72a6.71,6.71,0,0,1,1,.36,10.45,10.45,0,0,0,7.06,1.56L480,441.25l.2-2.67-.3-.08c-.82,1.6-1.63,3.2-2.55,5l-2.23-2v2l-3.27.34.64-2.27,1.28-.13Zm5.41.56-.05.07h.08Z" />
            <path class="color-shadow"
                d="M312.18,430.79c.42,0,.84-.05,1.25,0,2.62.25,5.23.65,7.86,0,.14,0,.34.13.52.2l-.86.68,4.84.75.95,3.37c-.74-.07-1.48-.12-2.21-.23-1.55-.22-3.08-.48-4.63-.72l-1-1.19-.05-.05.06,0-.08.72c-.34-.05-.7-.08-1-.16l-4.22-1Z" />
            <path class="color-shadow"
                d="M442.7,437.77c3,.22,6,.45,9,.65.91.06,1.83,0,2.74,0l.61,2.9-10.6-.25a6.73,6.73,0,0,1-1.15-.24Z" />
            <path class="color-shadow"
                d="M405.1,437l12.92-.48.49,2.64c-2.42.09-4.85.1-7.26.28a22.64,22.64,0,0,0-3.3.72A6.64,6.64,0,0,1,405.1,437Z" />
            <path class="color-shadow"
                d="M375.42,435.89c2.24.14,4.48.3,6.72.41s4.42.17,6.63.25c-.78.84-1.55,1.7-2.35,2.52a1.34,1.34,0,0,1-.81.42c-3,0-6-.09-9.12-.15Z" />
            <path class="color-shadow"
                d="M354.14,433.68l9.48.67,3.79.28.51,2.38c-1.28,0-2.56,0-3.84-.1-2.05-.15-4.09-.37-6.13-.56l-.81-.09-2.43-.2Z" />
            <path class="color-shadow"
                d="M456.46,438.69,466,439c0,.87,0,1.75,0,2.63l-5.76,0-1.15-1.55-.23-.35-.18.05.05.36-.07,1.21-1.73.26c-.18-.72-.35-1.43-.53-2.15Z" />
            <path class="color-shadow"
                d="M427.86,436.79l9.15.48-.81,3.1-6.31-.49C429.22,438.85,428.54,437.82,427.86,436.79Z" />
            <path class="color-shadow" d="M419.75,436.54h6.94l1,2.87-7.3-.19Z" />
            <path class="color-shadow-dark"
                d="M319.9,434.86c1.55.24,3.08.5,4.63.72.73.11,1.47.16,2.21.23l1.26,2.41c-1.66-.13-3-.32-4.37-.31C321.48,437.94,320.56,436.58,319.9,434.86Z" />
            <path class="color-shadow-dark"
                d="M358,436.35c2,.19,4.08.41,6.13.56,1.28.09,2.56.07,3.84.1l.87,1.73-4.6-.28a21.27,21.27,0,0,0-3-.2A3.21,3.21,0,0,1,358,436.35Z" />
            <path class="color-shadow-dark"
                d="M438.5,437.48l3.58.29-.82,3.52H437.6C437.93,439.92,438.21,438.7,438.5,437.48Z" />
            <path class="color-shadow" d="M368.41,434.86l5.5.49.47,2.88-4.18-.44Z" />
            <path class="color-shadow-dark"
                d="M328.43,436.11l7.55.68-.55,1.44c-1.78,0-3.46.07-5.12,0C329.09,438.13,328.91,436.94,328.43,436.11Z" />
            <path class="color-shadow-dark"
                d="M344.8,436.06a9.63,9.63,0,0,0,1.39.24c2.12,0,4.25,0,6.38,0l.14,1.47H344.2Z" />
            <path class="color-shadow" d="M466.76,439l4.67-.2c-.26,1-.51,2.07-.77,3.1l-3.16-.27Z" />
            <path class="color-shadow-dark"
                d="M313.59,433.21l4.22,1c.34.08.7.11,1,.16l.5,2.63C316.53,436.94,315,435.11,313.59,433.21Z" />
            <path class="color-shadow-dark"
                d="M443.26,440.86a6.73,6.73,0,0,0,1.15.24l10.6.25.38,1.18c-1.28-.09-2.36-.16-3.45-.25-2.61-.21-5.21-.45-7.82-.66C443.62,441.58,443.11,441.62,443.26,440.86Z" />
            <path class="color-shadow-dark"
                d="M408,440.18a22.64,22.64,0,0,1,3.3-.72c2.41-.18,4.84-.19,7.26-.28l.32,1a8.56,8.56,0,0,1-1.14.16c-2.94,0-5.89,0-8.83,0A4.85,4.85,0,0,1,408,440.18Z" />
            <path class="color-shadow-dark"
                d="M460.26,441.6l5.76,0,.85,2.07c-1.88-.23-3.57-.35-5.2-.71C461.13,442.82,460.72,442.07,460.26,441.6Z" />
            <path class="color-shadow-dark" d="M337.47,436.53l5.48,0a2,2,0,0,1-2.31,1.45c-1.26-.09-2.54,0-3.95,0Z" />
            <path class="transparent"
                d="M401.49,441.25c.27.22.67.4.77.68.85,2.32,1.65,4.65,2.45,7a.55.55,0,0,1-.14.48c-1.73-2.38-2.48-5.16-3.4-7.86Z" />
            <path class="color-shadow-dark" d="M420.37,439.23l7.3.19.5.86h-7.45Z" />
            <path class="color-shadow-dark"
                d="M467.5,441.58l3.16.27-.33,1.84h-2.69C467.59,443,467.54,442.27,467.5,441.58Z" />
            <path class="transparent"
                d="M402.73,437.11c-.58-1.52-1.87-2.72-2-4.52C402.79,433.27,403.32,435.31,402.73,437.11Z" />
            <path class="color-base" d="M325.79,432.44l-4.84-.75.86-.68h1.65l.5-.23,1.59,0Z" />
            <path class="color-shadow" d="M474.45,437.5c-.22,1.31-.43,2.62-.65,4l-1.28.13.23-3.12h1.11Z" />
            <path class="color-shadow-dark"
                d="M429.89,439.88l6.31.49c.05.71-.42.73-.93.7a38.69,38.69,0,0,1-3.89-.27C430.85,440.72,430.39,440.2,429.89,439.88Z" />
            <path class="color-shadow-dark" d="M354.71,436.06l2.43.2,1,1.66h-2.82Z" />
            <path class="color-shadow-dark" d="M370.2,437.79l4.18.44v1l-3.49-.27Z" />
            <path class="transparent"
                d="M392.1,431.83l.29-.13a1.12,1.12,0,0,1-.05,1.83c-.51.5-.92,1.09-1.38,1.63l-.53,0C391,434.06,391.54,432.94,392.1,431.83Z" />
            <path class="color-shadow-dark" d="M457,441.58l1.73-.26.37,1.47-1.8-.08Z" />
            <path class="color-shadow-dark" d="M404.1,437.74l1.44,2.52A2,2,0,0,1,404.1,437.74Z" />
            <path class="color-shadow-dark" d="M400.58,437.82l1,2.36-.39.16c-.89-.57-.67-1.61-1-2.43Z" />
            <path class="color-base" d="M392.87,446.15l-.46,1.63-.54-.2.71-1.45Z" />
            <path class="color-shadow-dark" d="M426.45,435.57l-.23-.79.32-.12.41.86Z" />
            <path class="color-shadow-dark" d="M397.43,439.34l-.32.82-.35-.13.31-.81Z" />
            <path class="color-shadow-dark" d="M466.1,438.77l.11-.77h.38l.1.8-.29-.18Z" />
            <path class="color-shadow-dark" d="M456.46,438.69l0,.74-.15-.75Z" />
            <path class="color-base" d="M404.88,449.75l.17.52-.17.06-.27-.57Z" />
            <path class="color-shadow-dark" d="M392.87,446.15l-.29,0,.27-.58.16.05Z" />
            <path class="color-shadow-dark" d="M458.75,440.11l-.05-.36.18-.05.23.35Z" />
            <path class="color-base" d="M390.43,435.18l.53,0-.38.45Z" />
            <path class="color-shadow-dark" d="M398.82,438.44l.06-.39H399l0,.38Z" />
            <path class="color-shadow-dark"
                d="M400.19,437.15c-.07.15,0,.08,0,0C400.2,437.24,400.22,437.33,400.19,437.15Z" />
            <path class="color-base" d="M396,437l.12-.22.13.14Z" />
            <path class="color-shadow-dark" d="M442.29,437.53a1.63,1.63,0,0,0,.11-.17l.11.18h-.22Z" />
            <path class="transparent" d="M404.88,449.75h-.27l0-.28Z" />
            <path class="outline"
                d="M395.87,433.6c-.61,1.58-1.09,2.92-1.64,4.22a49.7,49.7,0,0,1-9,13.88,12.52,12.52,0,0,1-2,1.83,1.57,1.57,0,0,1-1.38.16,1.43,1.43,0,0,1-.4-1.33,37.4,37.4,0,0,1,2.46-5.24,63.51,63.51,0,0,1,11.35-13.29A3,3,0,0,1,395.87,433.6Zm-12.28,17.75L384,451a41.16,41.16,0,0,0,7.14-10,2,2,0,0,0-1.34.59c-2.07,3-4.07,6.09-6.1,9.15l-.27.42-.18.39Zm7.53-11.62c1.06,0,1.83-1,2-2.56Z" />
            <path class="color-shadow-dark" d="M395,438.23a2.67,2.67,0,0,1,0,.63c0,.11-.14.21-.48.23l.19-.9Z" />
            <path class="color-shadow" d="M324,430.77l-.5.23Z" />
            <polygon class="outline" points="479.86 438.06 479.89 438.14 479.81 438.13 479.86 438.06" />
            <path class="outline" d="M318.93,433.65l-.06,0,.05.05Z" />
            <path class="transparent"
                d="M383.67,450.69c2-3.06,4-6.12,6.1-9.15a2,2,0,0,1,1.34-.59A41.16,41.16,0,0,1,384,451Z" />
            <path class="color-shadow-dark" d="M391.12,439.73l2-2.56C393,438.72,392.18,439.72,391.12,439.73Z" />
            <path class="color-base" d="M383.67,450.69l.3.29-.38.37-.19-.24Z" />
            <path class="color-base" d="M383.59,451.35l-.37.15.18-.39Z" />
        </g>
    </g>
</svg>
