<svg id="Nizy_pryamoy" data-name="Nizy pryamoy" xmlns="http://www.w3.org/2000/svg" viewBox="0 0 672 960">
    <g id="img_35" data-name="img 35">
        <g id="img_32_img" data-name="img 32 img">
            <path class="outline"
                d="M329.05,467.43c-.44,2.31-2,3.13-3.9,3.57a25.34,25.34,0,0,1-19.6-3c-.71-.43-1.64-1.22-1.67-1.87-.05-1.46-1-1.91-1.94-2.42-3.11-1.65-6.22-3.27-9.34-4.89-2.42-1.26-3.2-3.1-1.94-5.48a42.53,42.53,0,0,0,2.55-7.2c1.2-3.8,2.63-7.53,4-11.28,1.74-4.72,3.52-9.43,5.28-14.14a9.94,9.94,0,0,1,.63-1.54c.45-.79,1.26-1,1.75-.26,2.93,4.22,7.58,4.78,12,5.51,4.92.81,9.87.29,14.82-.26,6.91-.76,13.83-1.41,20.77-1.87,3.66-.24,7.35,0,11,0,15.83,0,31.66-.07,47.49-.18,9-.07,18.07-.45,27.1-.42,7.91,0,15.82.39,23.73.67a22.18,22.18,0,0,1,4.5.7c6.1,1.57,12.22,3.09,18.15,5.62l1.79-1.44c.62,1.3,1.24,2.47,1.77,3.69,2.15,5,4.26,10,6.43,15,.61,1.39,1.44,2.67,2.09,4,1,2.22.74,3.42-1.36,4.61-5.91,3.34-11.79,6.72-18.69,7.78a54.65,54.65,0,0,0-7.82,2.23,9.46,9.46,0,0,0-2.35,1.14c-1.5,1-1.57,1.64-.55,3.14a9.07,9.07,0,0,1,.8,1.18,1.68,1.68,0,0,1-.89,2.57,9.35,9.35,0,0,1-3.49.65c-5.43-.19-10.86-.51-16.28-.78a35.18,35.18,0,0,1-10.75-2.24,27.46,27.46,0,0,1-6.26-3.39,10.45,10.45,0,0,0-6.66-2.22c-8,.17-16,.3-24,.52a18.35,18.35,0,0,0-7.34,1.76c1.16.68,2,1.11,2.73,1.6.93.61,2,1.19,2,2.52s-1.17,2-2.24,2.56a20.57,20.57,0,0,1-8.33,2c-9.18.33-18.22-.42-26.73-4.29a37.67,37.67,0,0,0-13.43-3.23C339.7,467.79,334.51,467.65,329.05,467.43Zm-12.3-38.34,0,0c-.08-.6-.17-1.19-.23-1.6l-8.15-2.24c-.26.64-.52,1.26-.78,1.89l-4.35,9.6-4,7.38c2.28-6.6,5.58-12.79,8-19.34l-3-2c-.4.91-.78,1.67-1.08,2.47-1.84,5-3.72,10-5.46,15.08-1.45,4.2-3.89,8.09-4.11,12.69a4.23,4.23,0,0,1-.41,1.12c-.63,1.69-.63,1.79.91,2.63,3.79,2,7.6,4.06,11.53,6.15l6.89-16.48.33.12c-2.1,6.4-4.2,12.79-6.28,19.1a6.21,6.21,0,0,0,.72.66,23.25,23.25,0,0,0,16.67,2.51c1.39-.29,2.34-.87,2.22-2.54a9.08,9.08,0,0,1,.33-2.1c.19-1.4.31-2.82.59-4.2.31-1.55.78-3.06,1.14-4.59.65-2.76,1.27-5.53,1.9-8.29-.41,4.68-.83,9.36-1.23,14.05-.1,1.23-.14,2.47-.21,3.78.71.07,1.1.13,1.48.15,4,.18,8,.33,12,.53a46.76,46.76,0,0,1,17.2,3.69,41.82,41.82,0,0,0,5.6,2.07A59.66,59.66,0,0,0,386,473.24a29.67,29.67,0,0,0,5.34-1.23c.45-.12.82-.56,1.45-1-.94-.54-1.61-.94-2.29-1.32-2.67-1.5-3.42-2.93-2.9-5.86.59-3.29,1.32-6.56,1.9-9.86.31-1.71.43-3.45.63-5.18q1.27-4.72,2.53-9.44l.72.07-.27,1.69c-.15.62-.35,1.23-.44,1.86-.68,5.14-1.33,10.29-2,15.43-.26,2-.51,4-.75,5.92,3.17-.52,6.14-1.35,9.13-1.43,7.9-.24,15.81-.17,23.72-.19a10.35,10.35,0,0,1,6.61,2.41,19.88,19.88,0,0,0,4.83,3A38.41,38.41,0,0,0,446.55,471c4.14.17,8.28.55,12.42.74a42.34,42.34,0,0,0,4.69-.28c-.53-1.38-.93-2.4-1.33-3.43l-.65-2.38c-1.59-6.23-3.17-12.45-4.79-18.67-.08-.3-.51-.51-.78-.76l-1-6.29c.44,1,1,2,1.31,3,2.21,6.38,4.38,12.76,6.58,19.14.27.78.61,1.54,1,2.52l3-2,5.27-1.81a63.07,63.07,0,0,0,23.23-9.32,34.41,34.41,0,0,0-2-4.22,81,81,0,0,1-6.87-13.15,5.4,5.4,0,0,0-3.68-3.65c-1.25-.35-2.31-1.36-4-1.3,2.26,4,5,7.47,6.91,11.42-3.26-3.76-6.26-7.69-9.23-11.64-.49-.65-.85-1.4-2.11-1,.16,2.19.32,4.45.48,6.71a57.16,57.16,0,0,1-2.24-6.61c-.15-.49-.44-1.17-.83-1.32a30.33,30.33,0,0,0-11-2.07c-.71,2.84.28,5.67-.94,8.46-.41-3-.79-5.77-1.2-8.77-3.7.07-7.31-.48-11.11-.11V429l-.34,0c-.44-1.66-.87-3.32-1.36-5.18-3.31.1-6.53-.45-9.87.53l2.13,5.79a25.94,25.94,0,0,1-3.21-4.8c-.49-.88-1-1.42-2.12-.73-.07.77-.13,1.55-.19,2.32h-.28l-.62-2.19H420.56a9.09,9.09,0,0,0,0,1.21c.7,4.74,1.47,9.47,2.1,14.21.25,1.94.21,3.93.3,5.89q-1.94-8.78-3.86-17.54c-.25-1.23-.5-2.46-.77-3.83-1.51.35-3.24-1.07-3.88,1.13-.26-.34-.5-1-.8-1a9.37,9.37,0,0,0-4.59.18c.12,2.68.24,5.23.35,7.77l-.34,0c-.52-2.62-1.05-5.25-1.59-7.93H403c-.38,1.2-.7,2.23-1,3.26l-.27-.07v-3.3c-6.67-.32-13.24.09-19.85.3v4.31l-.15,0-1-4.39h-7.36a10.05,10.05,0,0,0-.43,1.31c-1.35,6.63-2.67,13.25-4,19.87-.06.31-.39.56-.59.83L371,427.67l.52-2.95c-1.5,0-2.68.06-3.86,0a2.1,2.1,0,0,0-2.22,1.39c-1,2-2.05,3.91-3.09,5.86l0,0c.53-2.35,1.05-4.7,1.58-7.05h-4.27l-.81,5-.2,0v-5.16c-3.32,0-6.64-.24-10,.5-.45,3.76-.89,7.42-1.37,11.5l-.64-1.92q.19-4.06.37-8.13v-1.49l-13.6,1.57c-.53,2.55-1,4.86-1.47,7.17l-.31,0c.13-2.26.26-4.52.4-6.9l-10.7.8-1.41,4.54-.31-.08c.13-1.47.27-2.95.39-4.34C318.27,426.93,317.56,428.14,316.75,429.09Z" />
            <path class="color-base"
                d="M393.14,441.09l.27-1.69c.59-2.5.59-2.5-.22-3.5-.19,1.26-.34,2.35-.5,3.43q-1.26,4.71-2.53,9.44c-.31.31-.78.56-.92.93-.68,1.87-1.35,3.76-1.87,5.68-1.09,4-2.07,8-3.12,12-.5,1.89-.68,1.94-2.63,2.06a46.14,46.14,0,0,1-14.89-1.69c-4.6-1.24-9.12-2.76-13.85-3.51-2.36-.38-4.65-1.35-7-1.44-3.64-.15-7.31.23-11,.37a8.05,8.05,0,0,1-1.26-.2c0-.88-.1-1.67-.1-2.45q0-7,0-13.91a7.47,7.47,0,0,0-1.43-4.75,8.89,8.89,0,0,0-1.39,2,23.29,23.29,0,0,0-.6,3.27c-.63,2.76-1.25,5.53-1.9,8.29-.36,1.53-.83,3-1.14,4.59-.28,1.38-.4,2.8-.59,4.2-1.42.15-2.83.31-4.25.44A43.79,43.79,0,0,1,317,465c-2.44-.09-4.88-.43-6.94-2,.58-2.32,1.16-4.47,1.66-6.63.88-3.88,1.74-7.76,2.54-11.64.33-1.59.06-1.9-1.95-2.55l-8.81,15-6.87-5.08c.31-.55.64-1.17,1-1.76A49.9,49.9,0,0,0,303.42,438a3.43,3.43,0,0,0-.15-1.24l4.35-9.6L312,429c1.45.63,3.37.28,4.08,2.08l1.51-.46c.45,2.13-.4,4.36,1.19,6.12a3.94,3.94,0,0,0,2.75-3.12c.41-1.72,1.14-2.82,3.14-2.83a43.37,43.37,0,0,0,4.78-.56c1.1,3.2-.82,6.26.09,9.33,1.75-.67,2-.83,2.46-2.22a56.35,56.35,0,0,0,1.54-5.51,3.59,3.59,0,0,1,3.18-3.26c3.44-.56,6.86-1.26,10.29-1.9q-.18,4.07-.37,8.13a6.81,6.81,0,0,0-.53,2c.1,3.66.29,7.31.46,11,0,.68.22,1.27,1.38,1.31a11.32,11.32,0,0,0,.89-2.49c.27-2.45.38-4.91.55-7.37.18-2.62.3-5.24.54-7.85.14-1.64.45-3.27.74-5.23l5,.76V433l1.79.72c-.19,2.33,1.07,3.31,3.31,3.22.12,1.24.22,2.31.33,3.51a1.9,1.9,0,0,0,1.83-1.41c.91-2.64,1.93-5.23,2.93-7.84,1.47-3.86.24-3.61,5.13-3.55l-2.67,19.38c-.43,1.26.42,1.68,1.24,2.11,1.43-.68,1.72-2,2.08-3.17,1.71-5.63,3.43-11.26,5.08-16.9.26-.9.61-1.45,1.59-1.4s1.19.6,1.35,1.4a20.54,20.54,0,0,0,.87,3.21,14,14,0,0,0,1.28,2.15c2.9-1.58.78-4.41,2.15-6.31l16.34,1.21a14.11,14.11,0,0,0-.37,1.6,1.55,1.55,0,0,0,1.05,1.89,1.36,1.36,0,0,0,1.7-.95c.33-.73.7-1.44,1-2.19a1.42,1.42,0,0,1,1.66-1c.87.1,1.14.71,1.23,1.51a26,26,0,0,0,.55,3.52,39.79,39.79,0,0,0,1.49,5A2.16,2.16,0,0,0,410.1,440c.48,0,1-.82,1.43-1.32a1.21,1.21,0,0,0,.21-.67c.19-2.21.36-4.43.53-6.64.06-.85.1-1.69.16-2.78h6.68Q421,437.34,423,446.1c.3,1.6.33,1.62,3.22,1.32,0-6.06-1.71-12-1.83-18.1a9.88,9.88,0,0,1,1.15-.22c2.3-.16,4.6-.29,6.89-.46a1.91,1.91,0,0,1,2.11,1.19,44,44,0,0,0,2.37,4.7,48,48,0,0,0,3.26,4.39,1.61,1.61,0,0,0,2.14.52c.88-.47.76-1.34.62-2.13-.38-2-.83-4-1.19-6.07a12.58,12.58,0,0,1,0-2h3.57c.38,1.66.7,3.28,1.11,4.87s.27,3.36,1.75,4.5c1.51-.75,1.54-.75,1.57-2,0-1.84,0-3.67,0-5.51a13.67,13.67,0,0,1,.21-1.65c2.29.07,4.35.18,6.4.16a1.89,1.89,0,0,1,2.19,1.7c.21,1.09.58,2.14.81,3.23.18.82.58,1.31,1.45,1.29s1.3-.67,1.4-1.58c.14-1.32.39-2.63.61-4.08a43.39,43.39,0,0,1,9.14,1.1c.34.07.68.81.8,1.3.25,1.08.31,2.2.54,3.28.44,2,1,4,1.42,6,.23,1,.91,1.21,1.81,1.18s1.24-.68,1.4-1.39a10,10,0,0,0,.11-1.9c0-1.33,0-2.65,0-4l.48-.21,3.36,3.58c1.19,1.28,2.17,3,3.63,3.74,2.19,1.17,3,3.18,4.11,5a16.82,16.82,0,0,0,1,1.64,1.38,1.38,0,0,1-.43,2.24A69.29,69.29,0,0,1,483,456c-3.09,1.44-6.37,2.5-9.54,3.78-.44.18-.76.66-1.13,1L467,462.58c-.35-1.13-.62-2.29-1.07-3.38q-3.06-7.36-6.21-14.68c-.79-1.81-1.66-3.59-2.59-5.33-.21-.39-.82-.57-1.24-.84l-.81,1.53,1,6.29c.39,2.4.66,4.83,1.21,7.19.73,3.07,1.6,6.12,2.57,9.12.36,1.12.36,2.57,1.79,3.12.22.79.44,1.59.65,2.38a112.65,112.65,0,0,1-15-.84,64.05,64.05,0,0,1-15.86-4.22,54.84,54.84,0,0,0-17.94-3.51c-2.76-.11-5.55.34-8.33.41-3.36.07-6.72,0-10.08,0a9.64,9.64,0,0,1-1.4-.25,8.74,8.74,0,0,1-.15-1.51c.37-3.71.78-7.42,1.15-11.13a30.38,30.38,0,0,0,.21-4C394.89,441.85,394.38,441,393.14,441.09Z" />
            <path class="color-shadow"
                d="M472.28,460.77c.37-.35.69-.83,1.13-1,3.17-1.28,6.45-2.34,9.54-3.78a69.29,69.29,0,0,0,7.19-4.22,1.38,1.38,0,0,0,.43-2.24,16.82,16.82,0,0,1-1-1.64c-1.14-1.85-1.92-3.86-4.11-5-1.46-.78-2.44-2.46-3.63-3.74l-3.36-3.58-.48.21c0,1.32,0,2.64,0,4a10,10,0,0,1-.11,1.9c-.16.71-.48,1.36-1.4,1.39s-1.58-.21-1.81-1.18c-.47-2-1-4-1.42-6-.23-1.08-.29-2.2-.54-3.28-.12-.49-.46-1.23-.8-1.3a43.39,43.39,0,0,0-9.14-1.1c-.22,1.45-.47,2.76-.61,4.08-.1.91-.39,1.56-1.4,1.58s-1.27-.47-1.45-1.29c-.23-1.09-.6-2.14-.81-3.23a1.89,1.89,0,0,0-2.19-1.7c-2,0-4.11-.09-6.4-.16a13.67,13.67,0,0,0-.21,1.65c0,1.84,0,3.67,0,5.51,0,1.27-.06,1.27-1.57,2-1.48-1.14-1.35-2.93-1.75-4.5s-.73-3.21-1.11-4.87H441.7a12.58,12.58,0,0,0,0,2c.36,2,.81,4.05,1.19,6.07.14.79.26,1.66-.62,2.13a1.61,1.61,0,0,1-2.14-.52,48,48,0,0,1-3.26-4.39,44,44,0,0,1-2.37-4.7,1.91,1.91,0,0,0-2.11-1.19c-2.29.17-4.59.3-6.89.46a9.88,9.88,0,0,0-1.15.22c.12,6.11,1.84,12,1.83,18.1-2.89.3-2.92.28-3.22-1.32-.09-2-.05-4-.3-5.89-.63-4.74-1.4-9.47-2.1-14.21a9.09,9.09,0,0,1,0-1.21h11.27l.62,2.19h.28c.06-.77.12-1.55.19-2.32,1.08-.69,1.63-.15,2.12.73a25.94,25.94,0,0,0,3.21,4.8l-2.13-5.79c3.34-1,6.56-.43,9.87-.53.49,1.86.92,3.52,1.36,5.18l.34,0v-4.77c3.8-.37,7.41.18,11.11.11.41,3,.79,5.76,1.2,8.77,1.22-2.79.23-5.62.94-8.46a30.33,30.33,0,0,1,11,2.07c.39.15.68.83.83,1.32a57.16,57.16,0,0,0,2.24,6.61c-.16-2.26-.32-4.52-.48-6.71,1.26-.44,1.62.31,2.11,1,3,3.95,6,7.88,9.23,11.64-1.9-3.95-4.65-7.38-6.91-11.42,1.73-.06,2.79.95,4,1.3a5.4,5.4,0,0,1,3.68,3.65,81,81,0,0,0,6.87,13.15,34.41,34.41,0,0,1,2,4.22A63.07,63.07,0,0,1,472.28,460.77Z" />
            <path class="color-shadow"
                d="M303.27,436.77a3.43,3.43,0,0,1,.15,1.24,49.9,49.9,0,0,1-5.76,12.31c-.37.59-.7,1.21-1,1.76l6.87,5.08,8.81-15c2,.65,2.28,1,1.95,2.55-.8,3.88-1.66,7.76-2.54,11.64-.5,2.16-1.08,4.31-1.66,6.63,2.06,1.59,4.5,1.93,6.94,2a43.79,43.79,0,0,0,5.22-.38c1.42-.13,2.83-.29,4.25-.44a9.08,9.08,0,0,0-.33,2.1c.12,1.67-.83,2.25-2.22,2.54a23.25,23.25,0,0,1-16.67-2.51,6.21,6.21,0,0,1-.72-.66c2.08-6.31,4.18-12.7,6.28-19.1l-.33-.12-6.89,16.48c-3.93-2.09-7.74-4.1-11.53-6.15-1.54-.84-1.54-.94-.91-2.63a4.23,4.23,0,0,0,.41-1.12c.22-4.6,2.66-8.49,4.11-12.69,1.74-5.05,3.62-10.06,5.46-15.08.3-.8.68-1.56,1.08-2.47l3,2c-2.38,6.55-5.68,12.74-8,19.34Z" />
            <path class="color-shadow"
                d="M330.12,447.13a23.29,23.29,0,0,1,.6-3.27,8.89,8.89,0,0,1,1.39-2,7.47,7.47,0,0,1,1.43,4.75q0,7,0,13.91c0,.78.06,1.57.1,2.45a8.05,8.05,0,0,0,1.26.2c3.66-.14,7.33-.52,11-.37,2.35.09,4.64,1.06,7,1.44,4.73.75,9.25,2.27,13.85,3.51a46.14,46.14,0,0,0,14.89,1.69c1.95-.12,2.13-.17,2.63-2.06,1.05-4,2-8,3.12-12,.52-1.92,1.19-3.81,1.87-5.68.14-.37.61-.62.92-.93-.2,1.73-.32,3.47-.63,5.18-.58,3.3-1.31,6.57-1.9,9.86-.52,2.93.23,4.36,2.9,5.86.68.38,1.35.78,2.29,1.32-.63.46-1,.9-1.45,1a29.67,29.67,0,0,1-5.34,1.23,59.66,59.66,0,0,1-21.11-1.84,41.82,41.82,0,0,1-5.6-2.07,46.76,46.76,0,0,0-17.2-3.69c-4-.2-8-.35-12-.53-.38,0-.77-.08-1.48-.15.07-1.31.11-2.55.21-3.78C329.29,456.49,329.71,451.81,330.12,447.13Z" />
            <path class="color-shadow"
                d="M419.11,428.56h-6.68c-.06,1.09-.1,1.93-.16,2.78-.17,2.21-.34,4.43-.53,6.64a1.21,1.21,0,0,1-.21.67c-.45.5-.95,1.32-1.43,1.32a2.16,2.16,0,0,1-1.52-1.24,39.79,39.79,0,0,1-1.49-5,26,26,0,0,1-.55-3.52c-.09-.8-.36-1.41-1.23-1.51a1.42,1.42,0,0,0-1.66,1c-.26.75-.63,1.46-1,2.19a1.36,1.36,0,0,1-1.7.95,1.55,1.55,0,0,1-1.05-1.89,14.11,14.11,0,0,1,.37-1.6L384,428.14c-1.37,1.9.75,4.73-2.15,6.31a14,14,0,0,1-1.28-2.15,20.54,20.54,0,0,1-.87-3.21c-.16-.8-.48-1.35-1.35-1.4s-1.33.5-1.59,1.4c-1.65,5.64-3.37,11.27-5.08,16.9-.36,1.21-.65,2.49-2.08,3.17-.82-.43-1.67-.85-1.24-2.11.21-.27.54-.52.6-.83,1.36-6.62,2.68-13.24,4-19.87a10.05,10.05,0,0,1,.43-1.31h7.36l1,4.39.15,0V425.1c6.61-.21,13.18-.62,19.85-.3v3.3l.27.07c.32-1,.64-2.06,1-3.26h4.47c.54,2.68,1.07,5.31,1.59,7.93l.34,0c-.11-2.54-.23-5.09-.35-7.77a9.37,9.37,0,0,1,4.59-.18c.3,0,.54.68.8,1,.64-2.2,2.37-.78,3.88-1.13C418.61,426.1,418.86,427.33,419.11,428.56Z" />
            <path class="color-shadow"
                d="M393.14,441.09c1.24,0,1.75.76,1.78,1.8a30.38,30.38,0,0,1-.21,4c-.37,3.71-.78,7.42-1.15,11.13a8.74,8.74,0,0,0,.15,1.51,9.64,9.64,0,0,0,1.4.25c3.36,0,6.72.07,10.08,0,2.78-.07,5.57-.52,8.33-.41a54.84,54.84,0,0,1,17.94,3.51,64.05,64.05,0,0,0,15.86,4.22,112.65,112.65,0,0,0,15,.84c.4,1,.8,2,1.33,3.43a42.34,42.34,0,0,1-4.69.28c-4.14-.19-8.28-.57-12.42-.74a38.41,38.41,0,0,1-12.31-2.83,19.88,19.88,0,0,1-4.83-3,10.35,10.35,0,0,0-6.61-2.41c-7.91,0-15.82-.05-23.72.19-3,.08-6,.91-9.13,1.43.24-1.88.49-3.9.75-5.92.67-5.14,1.32-10.29,2-15.43C392.79,442.32,393,441.71,393.14,441.09Z" />
            <path class="color-shadow"
                d="M371,427.67c-4.89-.06-3.66-.31-5.13,3.55-1,2.61-2,5.2-2.93,7.84a1.9,1.9,0,0,1-1.83,1.41c-.11-1.2-.21-2.27-.33-3.51-2.24.09-3.5-.89-3.31-3.22l-1.79-.72V426.9l-5-.76c-.29,2-.6,3.59-.74,5.23-.24,2.61-.36,5.23-.54,7.85-.17,2.46-.28,4.92-.55,7.37a11.32,11.32,0,0,1-.89,2.49c-1.16,0-1.35-.63-1.38-1.31-.17-3.66-.36-7.31-.46-11a6.81,6.81,0,0,1,.53-2c.17.5.33,1,.64,1.92.48-4.08.92-7.74,1.37-11.5,3.39-.74,6.71-.53,10-.5v5.16l.2,0,.81-5H364c-.53,2.35-1.05,4.7-1.58,7.05-.1.14-.21.28-.06.07-.07.25,0,.08,0-.1,1-1.95,2.13-3.87,3.09-5.86a2.1,2.1,0,0,1,2.22-1.39c1.18.07,2.36,0,3.86,0Z" />
            <path class="color-shadow"
                d="M347,426.71c-3.43.64-6.85,1.34-10.29,1.9a3.59,3.59,0,0,0-3.18,3.26,56.35,56.35,0,0,1-1.54,5.51c-.45,1.39-.71,1.55-2.46,2.22-.91-3.07,1-6.13-.09-9.33a43.37,43.37,0,0,1-4.78.56c-2,0-2.73,1.11-3.14,2.83a3.94,3.94,0,0,1-2.75,3.12c-1.59-1.76-.74-4-1.19-6.12l-1.51.46c-.71-1.8-2.63-1.45-4.08-2.08l-4.37-1.87c.26-.63.52-1.25.78-1.89l8.15,2.24c.06.41.15,1,.23,1.6l-.13.16.1-.19c.81-.95,1.52-2.16,3.24-1.15-.12,1.39-.26,2.87-.39,4.34l.31.08,1.41-4.54L332,427c-.14,2.38-.27,4.64-.4,6.9l.31,0c.47-2.31.94-4.62,1.47-7.17l13.6-1.57Z" />
            <path class="color-shadow"
                d="M455.09,439.88l.81-1.53c.42.27,1,.45,1.24.84.93,1.74,1.8,3.52,2.59,5.33q3.15,7.32,6.21,14.68c.45,1.09.72,2.25,1.07,3.38l-3,2c-.39-1-.73-1.74-1-2.52-2.2-6.38-4.37-12.76-6.58-19.14C456,441.87,455.53,440.88,455.09,439.88Z" />
            <path class="color-shadow"
                d="M461.68,465.6c-1.43-.55-1.43-2-1.79-3.12-1-3-1.84-6.05-2.57-9.12-.55-2.36-.82-4.79-1.21-7.19.27.25.7.46.78.76C458.51,453.15,460.09,459.37,461.68,465.6Z" />
            <path class="color-shadow" d="M392.69,439.33c.16-1.08.31-2.17.5-3.43.81,1,.81,1,.22,3.5Z" />
            <path class="outline" d="M362.35,432c-.06.18-.11.35,0,.1-.15.21,0,.07.06-.07Z" />
            <path class="outline" d="M316.75,429.09l-.1.19.13-.16Z" />
        </g>
    </g>
</svg>
