<svg id="Nizy_pryamoy" data-name="Nizy pryamoy" xmlns="http://www.w3.org/2000/svg" viewBox="0 0 672 960">
    <g id="img_35" data-name="img 35">
        <g id="img_31_img" data-name="img 31 img">
            <path class="color-base"
                d="M317.51,419l1.84,0,3.87-.18c1.88-.39,3.75-.8,5.63-1.15a5.75,5.75,0,0,1,2.59-.26c3,1,5.81-.3,8.7-.39a13.19,13.19,0,0,1,5.57.83c6.15,2.76,12.7,3.79,19.28,4.29,3.35.26,6.58,1.13,9.89,1.26,3.83.15,7.68.16,11.5,0,7.49-.36,15-.89,22.46-1.35,5.89-.36,11.78-.83,17.68-1,4.86-.18,9.73-.1,14.59,0,4.66,0,9.19-.88,13.77-1.56,5.6-.83,11.25-1.48,16.9-.28a20.17,20.17,0,0,1,2.44.85c-.63.06-1.33,0-1.43.9-.33,2.91-.8,5.82-1,8.75-.17,3.27,0,6.55,0,9.83,0,1.75-.2,1.92-1.86,2.12-1.5.18-3,.33-4.5.49l-5.92.65a60.88,60.88,0,0,1-7.09.74c-6.22-.07-12.44.43-18.66-.39-2.91-.39-5.87-.39-8.81-.51-4.62-.19-9.23-.4-13.85-.47-2.14,0-4.28.29-6.42.43-2.7.17-5.4.46-8.09.46-2.94,0-5.88-.37-8.82-.42-5.12-.07-10.24-.08-15.35,0-4.38.07-8.76.31-13.14.48-.24,0-.47,0-.71.06-3.08.29-6.16.72-9.24.85-3.44.15-6.88.1-10.32,0a64.43,64.43,0,0,1-7.61-.54c-3.68-.52-7.18-2.11-11-2-.3,0-.6-.26-.91-.26-1.17,0-1.59-.7-1.94-1.73-1.42-4.2-2.33-8.43-1.35-12.87a3.66,3.66,0,0,0,0-1.19q-.43-3.18-.89-6.36l2.21,0Z" />
            <path class="color-shadow"
                d="M315.32,419q.45,3.18.89,6.36a3.66,3.66,0,0,1,0,1.19c-1,4.44-.07,8.67,1.35,12.87.35,1,.77,1.71,1.94,1.73.31,0,.61.27.91.26,3.81-.12,7.31,1.47,11,2A64.43,64.43,0,0,0,339,444c3.44.09,6.88.14,10.32,0,3.08-.13,6.16-.56,9.24-.85.24,0,.47-.06.71-.06,4.38-.17,8.76-.41,13.14-.48,5.11-.08,10.23-.07,15.35,0,2.94.05,5.88.41,8.82.42,2.69,0,5.39-.29,8.09-.46,2.14-.14,4.28-.46,6.42-.43,4.62.07,9.23.28,13.85.47,2.94.12,5.9.12,8.81.51,6.22.82,12.44.32,18.66.39a60.88,60.88,0,0,0,7.09-.74l5.92-.65c1.5-.16,3-.31,4.5-.49,1.66-.2,1.84-.37,1.86-2.12,0-3.28-.12-6.56,0-9.83.15-2.93.62-5.84,1-8.75.1-.91.8-.84,1.43-.9l4.74,2.53a4.43,4.43,0,0,0-.4,1.12c-.19,2.85-.25,5.71-.54,8.56-.35,3.46-.75,6.92-1.37,10.34-.52,2.9-.7,2.88-3.63,2.9a75.31,75.31,0,0,0-8.37.12c-5,.59-10,1.92-15,2.15a148.25,148.25,0,0,1-18.37-.48c-3.87-.3-7.71-.9-11.62-.86-1.73,0-3.48-.44-5.21-.37-2.91.11-5.8.47-8.71.73-.06,0-.11.11-.16.17l-9.61-.22h-2.42l-1.36,0-4.82,0c-.34-1.1-1.27-.79-2-.77-6.85.2-13.7-.3-20.57.36-3.88.37-7.72.83-11.57,1.43-4.07.65-8.18,1.07-12.27,1.52a11.38,11.38,0,0,1-3.35-.06c-3.51-.65-7-1.27-10.48-2.21-3.75-1-7.43-2.32-11.07-3.69a4.51,4.51,0,0,1-2-2.2,12.66,12.66,0,0,1-1.05-3.65c-.28-1.88-.29-3.8-.57-5.68-.57-4-1.25-7.94-1.91-12.05l3.32-.66,1.34,0h.2Z" />
            <path class="outline"
                d="M387.34,446.7l4.82,0,1.36,0h2.42l9.61.22a4.58,4.58,0,0,0,1.11.34c6,.35,11.94.77,17.92,1,8.06.29,16.13.53,24.2.57,5.51,0,11-.37,16.53-.49,3.43-.08,6.87,0,10.31,0,2.93,0,3.68-.72,4.83-3.33a60.21,60.21,0,0,0,3.71-11.86,8.8,8.8,0,0,1,1.58-2.55c1.21,1.59.77,3.29.3,5-.77,2.76-1.54,5.53-2.39,8.27a36.94,36.94,0,0,1-1.68,4.47,3.9,3.9,0,0,1-4,2.44c-3.51-.17-7-.32-10.54-.38-3.12-.05-6.24,0-9.36,0-7.42,0-14.86.11-22.27-.15-9.35-.33-18.68-.93-28-1.52a172.91,172.91,0,0,0-27.78.21c-8.59.83-17.14,2-25.71,3-5.16.61-10.31,1.52-15.48,1.73-6.88.27-13.76-.1-20.22-3a37,37,0,0,0-4.79-1.49c-2.1-.63-3.56-1.67-4.14-4.08-1.36-5.66-3.05-11.24-4.59-16.86-.7-2.54-1.48-5.06-2-7.62a11.11,11.11,0,0,1,.26-5.83l2.65,6.52c.5,1.84,1,3.69,1.52,5.5,1.75,5.73,3.58,11.43,5.3,17.17a3.23,3.23,0,0,0,2.38,2.36,25.24,25.24,0,0,1,4.2,1.73,26.5,26.5,0,0,0,8.9,2.69c4.51.61,9,1.24,13.6.57,4.18-.61,8.44-.65,12.62-1.28,8.45-1.28,16.94-2.16,25.47-2.72C382.42,447.12,384.88,446.9,387.34,446.7Z" />
            <path class="color-shadow-dark"
                d="M387.34,446.7c-2.46.2-4.92.42-7.39.58-8.53.56-17,1.44-25.47,2.72-4.18.63-8.44.67-12.62,1.28-4.6.67-9.09,0-13.6-.57a26.5,26.5,0,0,1-8.9-2.69,25.24,25.24,0,0,0-4.2-1.73,3.23,3.23,0,0,1-2.38-2.36c-1.72-5.74-3.55-11.44-5.3-17.17-.56-1.81-1-3.66-1.52-5.5a2.67,2.67,0,0,1,2.22-1.88c1.86-.21,3.74-.24,5.6-.34l-3.32.66c.66,4.11,1.34,8.07,1.91,12.05.28,1.88.29,3.8.57,5.68a12.66,12.66,0,0,0,1.05,3.65,4.51,4.51,0,0,0,2,2.2c3.64,1.37,7.32,2.66,11.07,3.69,3.44.94,7,1.56,10.48,2.21a11.38,11.38,0,0,0,3.35.06c4.09-.45,8.2-.87,12.27-1.52,3.85-.6,7.69-1.06,11.57-1.43,6.87-.66,13.72-.16,20.57-.36C386.07,445.91,387,445.6,387.34,446.7Z" />
            <path class="color-shadow-dark"
                d="M485.74,430.56a8.8,8.8,0,0,0-1.58,2.55A60.21,60.21,0,0,1,480.45,445c-1.15,2.61-1.9,3.31-4.83,3.33-3.44,0-6.88-.08-10.31,0-5.51.12-11,.52-16.53.49-8.07,0-16.14-.28-24.2-.57-6-.22-11.95-.64-17.92-1a4.58,4.58,0,0,1-1.11-.34c.05-.06.1-.16.16-.17,2.91-.26,5.8-.62,8.71-.73,1.73-.07,3.48.39,5.21.37,3.91,0,7.75.56,11.62.86a148.25,148.25,0,0,0,18.37.48c5-.23,10-1.56,15-2.15a75.31,75.31,0,0,1,8.37-.12c2.93,0,3.11,0,3.63-2.9.62-3.42,1-6.88,1.37-10.34.29-2.85.35-5.71.54-8.56a4.43,4.43,0,0,1,.4-1.12c1.26.81,2.55,1.57,3.77,2.43a3.94,3.94,0,0,1,1.45,3.12C484.29,429.09,484.22,430.35,485.74,430.56Z" />
            <path class="color-shadow-dark" d="M323.22,418.85l-3.87.18Z" />
            <polygon class="color-shadow-dark" points="315.1 419.03 315.12 419.02 315.1 418.9 315.1 419.03" />
            <path class="color-shadow-dark" d="M317.51,419h0Z" />
            <path class="color-shadow-dark" d="M393.52,446.65l-1.36,0Z" />
            <path class="color-shadow-dark" d="M395.94,446.67h0Z" />
        </g>
    </g>
</svg>
