<svg id="Nizy_pryamoy" data-name="Nizy pryamoy" xmlns="http://www.w3.org/2000/svg" viewBox="0 0 672 960">
    <g id="img_35" data-name="img 35">
        <g id="img_30_img" data-name="img 30 img">
            <path class="outline"
                d="M302.37,419.27l2.25,1.09c.74.37,1.45.81,2.22,1.11,1.26.49,2.55.92,3.85,1.33a22.65,22.65,0,0,0,3.11.83c6.4,1.05,12.84.79,19.26.3a282.64,282.64,0,0,1,46,.76A413.53,413.53,0,0,0,424,426.11c8.72-.19,17.44-.51,26.15-.38,7.88.13,15.73.93,23.28,3.46,2.22.75,4.42,1.58,6.56,2.53,1.53.68,3,1.53,4.68.72a1.6,1.6,0,0,0,.79-.83c.13-.39-.09-.89,0-1.3a4.24,4.24,0,0,1,.6-1c.37.23,1,.4,1.06.69a5.06,5.06,0,0,1,.08,2.44,22.23,22.23,0,0,1-1.5,3,3.17,3.17,0,0,0-.34,1.08c-.26,2.5-.52,5-.73,7.49-.18,2.1-.31,4.21-.45,6.32a32.23,32.23,0,0,1-.28,3.81c-.6,3.17-1.3,6.34-2,9.49-.29,1.22-1.35,1.58-2.48,1.69-3.94.39-7.88.73-11.81,1.16-5,.55-9.92,1.3-14.89,1.7-6.65.54-13.32.86-20,1.23-5.94.32-11.88.69-17.82.86-6.63.19-13.25.18-19.88.26-4.43.05-8.86.16-13.29.13-5.43-.05-10.86-.24-16.3-.33-7.43-.13-14.88,0-22.29-.38s-14.86-.82-21.89-3.68c-1.48-.6-3.08-.85-4.59-1.38a15.35,15.35,0,0,1-3.12-1.47,2.82,2.82,0,0,1-1.11-1.61c-1-4.56-1.91-9.15-2.9-13.72-.38-1.75-1-3.45-1.38-5.2-.48-2-.83-4.07-1.31-6.09-.76-3.26-1.53-6.52-2.39-9.76-.65-2.46-1.44-4.88-2.17-7.32Zm3,4.42-.27.3c.14.49.26,1,.41,1.47.52,1.68,1.16,3.33,1.55,5,.73,3.27,1.26,6.58,2,9.86.54,2.49,1.34,4.93,1.84,7.43.81,4,1.46,8.09,2.21,12.13a1.1,1.1,0,0,0,.62.68c2.21.79,4.45,1.49,6.64,2.31a53.43,53.43,0,0,0,5,2.07,94.07,94.07,0,0,0,18.05,2.81c3.22.2,6.46.21,9.69.31,6.42.2,12.84.54,19.26.59,11.47.09,22.94,0,34.41,0,1.63,0,3.27-.11,4.9-.15,2.78-.06,5.56,0,8.33-.18,3.75-.19,7.49-.54,11.23-.77,3.29-.2,6.59-.28,9.88-.48,1.67-.1,3.33-.44,5-.48a99.66,99.66,0,0,0,15.68-1.74c4.11-.74,8.31-1,12.47-1.45a39.79,39.79,0,0,0,4.47-.78c.52-.12,1.27-.58,1.36-1,.76-3.5,1.5-7,2-10.55.39-2.63.47-5.31.65-8,.15-2.23.28-4.46.32-6.69a1.59,1.59,0,0,0-.68-1.24c-2.1-1-4.22-1.92-6.38-2.75-10.08-3.85-20.61-4.62-31.25-4.49-8.48.11-17,.61-25.42.58-12-.05-24.06-.36-36.09-.72-5.26-.16-10.51-.76-15.77-1.09-2.58-.16-5.18-.19-7.77-.23-4.95-.09-9.9-.32-14.84-.16q-9.93.32-19.84,1.14a36.9,36.9,0,0,1-16.27-2.74C307.69,424.32,306.54,424,305.41,423.69Z" />
            <path class="color-shadow-dark"
                d="M305.41,423.69c1.13.34,2.28.63,3.38,1.05a36.9,36.9,0,0,0,16.27,2.74q9.9-.81,19.84-1.14c4.94-.16,9.89.07,14.84.16,2.59,0,5.19.07,7.77.23,5.26.33,10.51.93,15.77,1.09,12,.36,24.06.67,36.09.72,8.47,0,16.94-.47,25.42-.58,10.64-.13,21.17.64,31.25,4.49,2.16.83,4.28,1.77,6.38,2.75a1.59,1.59,0,0,1,.68,1.24c0,2.23-.17,4.46-.32,6.69-.18,2.66-.26,5.34-.65,8-.53,3.54-1.27,7-2,10.55-.09.43-.84.89-1.36,1a39.79,39.79,0,0,1-4.47.78c-4.16.49-8.36.71-12.47,1.45a99.66,99.66,0,0,1-15.68,1.74c-1.67,0-3.33.38-5,.48-3.29.2-6.59.28-9.88.48-3.74.23-7.48.58-11.23.77-2.77.14-5.55.12-8.33.18-1.63,0-3.27.15-4.9.15-11.47,0-22.94.08-34.41,0-6.42-.05-12.84-.39-19.26-.59-3.23-.1-6.47-.11-9.69-.31A94.07,94.07,0,0,1,325.37,465a53.43,53.43,0,0,1-5-2.07c-2.19-.82-4.43-1.52-6.64-2.31a1.1,1.1,0,0,1-.62-.68c-.75-4-1.4-8.1-2.21-12.13-.5-2.5-1.3-4.94-1.84-7.43-.72-3.28-1.25-6.59-2-9.86-.39-1.7-1-3.35-1.55-5-.15-.48-.27-1-.41-1.47Zm67.53,6.84-1-.45-8.39,1.17h-.48l-1.44.23H360l-14.4-.47c-.71-.08-1.41-.2-2.12-.24-5.45-.25-10.91-.45-16.35-.74-2.34-.13-4.66-.47-7-.66s-5-.36-7.49-.52a1.34,1.34,0,0,0-1.59,1.26,7.6,7.6,0,0,0,0,2.33c.69,3.27,1.61,6.49,2.17,9.78.85,4.92,1.47,9.88,2.17,14.83a2.25,2.25,0,0,0,1.71,2.18c.78.19,1.53.45,2.3.66,3.18.88,6.35,1.83,9.55,2.61,2.59.62,5.31.76,7.81,1.58a41.14,41.14,0,0,0,11.52,1.7c3.62.13,7.25,0,10.88,0,1.13,0,2.28-.24,3.4-.18,2.62.16,5.23.44,7.84.68l8.3.75c4,.38,8.06,1.07,12.09,1.1,7.92.06,15.84.4,23.74-1,4.5-.81,9.17-.7,13.77-.81,6.38-.14,12.75.09,19.12-.7a78.12,78.12,0,0,0,12.36-2.24,48.88,48.88,0,0,1,12.5-1.67,4.79,4.79,0,0,0,3.62-1.19,6.57,6.57,0,0,0,1.64-5.66,33.44,33.44,0,0,1,.49-7.69c.29-2.49.39-5,.56-7.49a8.41,8.41,0,0,1,0-1.74c.53-2-.06-3.36-2.07-4a38.86,38.86,0,0,0-5.28-1.43,73.35,73.35,0,0,0-7.67-.95c-2.27-.15-4.56,0-6.84,0-3.11,0-6.22.21-9.32.12-2.9-.08-5.79-.41-8.68-.63l-4.07,0h-4.07c-3-.08-6-.27-9-.22-4,.06-7.95.28-11.92.48a30.27,30.27,0,0,0-3.13.46h-2.63c-4.82-.32-9.64-.7-14.47-.95-3.29-.17-6.6-.17-9.9-.27-1.5-.05-3-.17-4.51-.22a8.27,8.27,0,0,0-1.37.21Z" />
            <path class="color-base"
                d="M361.64,431.49l1.44-.23h.48l8.39-1.17,1,.45h.7c.1.07.18.2.28.21,4.93.5,9.84,1.17,14.78,1.43,4.74.24,9.5.06,14.24,0,.32,0,.64-.29.95-.44h2.63a6.88,6.88,0,0,0,1.24.22c4,0,8.06.08,12.08,0,3.33-.07,6.66-.3,10-.49.24,0,.46-.29.7-.45h4.07l4.07,0c.16.15.3.41.47.44,3.85.5,7.7,1.07,11.57,1.44s7.61.62,11.42.71c4,.09,7.28,1.84,10.57,3.74,1.19.68,1.84,1.56,1.27,3a4.84,4.84,0,0,0-.24,1.52c-.17,4.06-.32,8.12-.5,12.18,0,.92-.21,1.83-1.33,2.14-1.92.52-3.81,1.15-5.75,1.6-3.48.8-7,1.68-10.49,2.2-4.08.6-8.21.92-12.32,1.22-4.65.33-9.3.54-13.95.73s-9.56.46-14.33.45c-4.19,0-8.19,1-12.27,1.63a28.35,28.35,0,0,1-4.51.24c-1.3,0-2.6-.3-3.91-.37-2.53-.14-5.07-.17-7.6-.33-4-.26-7.92-.6-11.88-.88-1.75-.12-3.5-.16-5.25-.28-2.77-.21-5.54-.5-8.31-.66-1-.06-2.06.18-3.09.21a125.9,125.9,0,0,1-22.86-1.4,58.7,58.7,0,0,1-15.27-4.05,4.23,4.23,0,0,1-2.56-2.86c-.21-.69-.41-1.38-.55-2.08-.81-3.92-1.59-7.86-2.42-11.78-.59-2.79-1.24-5.57-1.91-8.51.79,0,1.46,0,2.12,0,2.89.21,5.77.55,8.67.64,2.58.08,5.17-.14,7.76-.2L344,431.5a3.76,3.76,0,0,0,1,0c.22-.06.39-.3.58-.45l14.4.47Z" />
            <path class="color-shadow"
                d="M345.56,431c-.19.15-.36.39-.58.45a3.76,3.76,0,0,1-1,0l-12.81.25c-2.59.06-5.18.28-7.76.2-2.9-.09-5.78-.43-8.67-.64-.66-.05-1.33,0-2.12,0,.67,2.94,1.32,5.72,1.91,8.51.83,3.92,1.61,7.86,2.42,11.78.14.7.34,1.39.55,2.08a4.23,4.23,0,0,0,2.56,2.86,58.7,58.7,0,0,0,15.27,4.05,125.9,125.9,0,0,0,22.86,1.4c1,0,2.07-.27,3.09-.21,2.77.16,5.54.45,8.31.66,1.75.12,3.5.16,5.25.28,4,.28,7.92.62,11.88.88,2.53.16,5.07.19,7.6.33,1.31.07,2.61.35,3.91.37a28.35,28.35,0,0,0,4.51-.24c4.08-.59,8.08-1.63,12.27-1.63,4.77,0,9.55-.24,14.33-.45s9.3-.4,13.95-.73c4.11-.3,8.24-.62,12.32-1.22,3.53-.52,7-1.4,10.49-2.2,1.94-.45,3.83-1.08,5.75-1.6,1.12-.31,1.29-1.22,1.33-2.14.18-4.06.33-8.12.5-12.18a4.84,4.84,0,0,1,.24-1.52c.57-1.45-.08-2.33-1.27-3-3.29-1.9-6.6-3.65-10.57-3.74-3.81-.09-7.62-.35-11.42-.71s-7.72-.94-11.57-1.44c-.17,0-.31-.29-.47-.44,2.89.22,5.78.55,8.68.63,3.1.09,6.21-.08,9.32-.12,2.28,0,4.57-.16,6.84,0a73.35,73.35,0,0,1,7.67.95,38.86,38.86,0,0,1,5.28,1.43c2,.67,2.6,2,2.07,4a8.41,8.41,0,0,0,0,1.74c-.17,2.5-.27,5-.56,7.49a33.44,33.44,0,0,0-.49,7.69,6.57,6.57,0,0,1-1.64,5.66,4.79,4.79,0,0,1-3.62,1.19,48.88,48.88,0,0,0-12.5,1.67,78.12,78.12,0,0,1-12.36,2.24c-6.37.79-12.74.56-19.12.7-4.6.11-9.27,0-13.77.81-7.9,1.42-15.82,1.08-23.74,1-4,0-8.06-.72-12.09-1.1l-8.3-.75c-2.61-.24-5.22-.52-7.84-.68-1.12-.06-2.27.18-3.4.18-3.63,0-7.26.12-10.88,0a41.14,41.14,0,0,1-11.52-1.7c-2.5-.82-5.22-1-7.81-1.58-3.2-.78-6.37-1.73-9.55-2.61-.77-.21-1.52-.47-2.3-.66a2.25,2.25,0,0,1-1.71-2.18c-.7-4.95-1.32-9.91-2.17-14.83-.56-3.29-1.48-6.51-2.17-9.78a7.6,7.6,0,0,1,0-2.33,1.34,1.34,0,0,1,1.59-1.26c2.5.16,5,.31,7.49.52s4.66.53,7,.66c5.44.29,10.9.49,16.35.74C344.15,430.83,344.85,431,345.56,431Z" />
            <path class="color-shadow"
                d="M403.89,431.76c-.31.15-.63.44-.95.44-4.74,0-9.5.21-14.24,0-4.94-.26-9.85-.93-14.78-1.43-.1,0-.18-.14-.28-.21a8.27,8.27,0,0,1,1.37-.21c1.5.05,3,.17,4.51.22,3.3.1,6.61.1,9.9.27C394.25,431.06,399.07,431.44,403.89,431.76Z" />
            <path class="color-shadow"
                d="M430.53,431c-.24.16-.46.44-.7.45-3.33.19-6.66.42-10,.49-4,.08-8,0-12.08,0a6.88,6.88,0,0,1-1.24-.22,30.27,30.27,0,0,1,3.13-.46c4-.2,8-.42,11.92-.48C424.55,430.76,427.54,431,430.53,431Z" />
            <path class="color-shadow" d="M434.6,431h0Z" />
            <path class="color-shadow" d="M361.64,431.49h0Z" />
            <path class="color-shadow" d="M372.94,430.53l-1-.45Z" />
            <path class="color-shadow" d="M363.56,431.25h0Z" />
        </g>
    </g>
</svg>
