<svg id="Nizy_pryamoy" data-name="Nizy pryamoy" xmlns="http://www.w3.org/2000/svg" viewBox="0 0 672 960">
    <g id="img_35" data-name="img 35">
        <g id="img_33_img" data-name="img 33 img">
            <path class="color-base"
                d="M316.21,417.27c3.66.13,7.33.11,11,.47a8.94,8.94,0,0,1,4.05,1.82,5,5,0,0,0,3.32,1c2.14-.12,4.27-.37,6.41-.52,3.37-.25,6.68-.4,10,.67,2,.65,4.26.5,6.4.72a7.37,7.37,0,0,1,1.42.21c4.16,1.25,8.5,1.17,12.75,1.64a50,50,0,0,0,8.11-.2c7.33-.38,14.66-.73,22-1.22s14.45-1.29,21.68-1.66c5.5-.29,11-.14,16.53-.16,3.6,0,7.19.09,10.78,0a112.3,112.3,0,0,1,22.87,1.72,6.11,6.11,0,0,1,1.3.55l-2,.32c0,1.61,0,3.11,0,4.61-.11,3.09-.27,6.17-.41,9.26-6.86-.26-13.72-.51-20.58-.79-3.43-.14-6.88-.14-10.28-.56a260.51,260.51,0,0,0-34.2-1.74c-12.93.12-25.87,0-38.81.09-10.38,0-20.77-.2-31.13.83-3.4.35-6.85.12-10.28.16l-1.63.18-9.17,0a10.77,10.77,0,0,1-1.38-6.17q.11-3.09.45-6.15C315.54,420.67,315.91,419,316.21,417.27Z" />
            <path class="outline"
                d="M316.27,434.71l9.17,0,1.63-.18c3.43,0,6.88.19,10.28-.16,10.36-1,20.75-.79,31.13-.83,12.94-.05,25.88,0,38.81-.09a260.51,260.51,0,0,1,34.2,1.74c3.4.42,6.85.42,10.28.56,6.86.28,13.72.53,20.58.79l5.68.25,5.15.59c.49-1.73.91-3.17,1.32-4.61.31-1.06.56-2.17,1.74-2.68.93,1.49.57,3,.09,4.52-.94,3-1.84,5.94-2.81,8.89a38.23,38.23,0,0,1-1.56,4,3.87,3.87,0,0,1-4,2.41c-3.67-.17-7.35-.29-11-.36-2.71,0-5.43.07-8.15.05-7.9-.05-15.81-.08-23.71-.22-3.91-.07-7.82-.37-11.73-.59-7.17-.39-14.34-1-21.52-1.14s-14.22,0-21.31.42c-11,.62-21.91,2.37-32.82,3.95-7.87,1.14-15.74,1.49-23.59-.24-1.32-.29-2.61-.71-3.9-1.13-2.19-.73-4.34-1.62-6.56-2.24a5.53,5.53,0,0,1-4.42-4.37c-1.5-5.79-3.49-11.45-5.05-17.23a48.19,48.19,0,0,1-1-7.33,7.57,7.57,0,0,1,.24-1.81l.49-.17,1.29,2.23c.7,2.89,1.32,5.8,2.12,8.67.61,2.19,1.45,4.32,2.14,6.33Zm154.49,3.56c2,.16,4.08.41,6.12.45s3.87,1,5.73.08v-.62l-10.85-.35c-4.63-.2-9.26-.38-13.89-.61-6-.3-12-.57-17.95-1-4.38-.31-8.73-1.1-13.11-1.25-7.74-.28-15.5-.29-23.25-.29-13.19,0-26.38.08-39.57.16-6.15,0-12.31,0-18.46.22-8.22.26-16.44.72-24.66,1.05-2.83.12-5.67.14-8.51.2a4.34,4.34,0,0,0,2.13.47c7.75,0,15.5.09,23.26.08,9.27,0,18.55-.1,27.82-.13,6.95,0,13.9,0,20.85,0s13.59-.18,20.38-.18c5.83,0,11.67,0,17.49.25,6.54.3,13.06,1.15,19.61,1.34C452.85,438.38,461.81,438.24,470.76,438.27Zm.59,1.79a3,3,0,0,0-.88-.29q-8.93-.06-17.86-.08c-5.26-.28-10.53-.5-15.79-.85-8.37-.56-16.72-1.38-25.13-1.19-9.43.21-18.86.07-28.28.14q-21.11.15-42.2.41c-8,.1-16,.35-24,.53l-3.87-.09h-2.82A23.11,23.11,0,0,1,312,442a4.73,4.73,0,0,0,3.94,3.9,24.92,24.92,0,0,1,3.72,1.64,30.29,30.29,0,0,0,4.26,1.57,50.28,50.28,0,0,0,15.2,1.57c5.25-.36,10.51-.82,15.72-1.55,9.4-1.33,18.83-2.35,28.32-2.86a13.07,13.07,0,0,0,1.83-.34l16.76,0a18.3,18.3,0,0,0,2.08.31c4.22.23,8.45.42,12.67.63,6.22.3,12.44.64,18.66.89,3.11.13,6.23.11,9.35.16,3,0,5.9.2,8.85.11,4.14-.12,8.28-.49,12.42-.61,3.26-.09,6.53.09,9.79.05,1.77,0,3.59-.2,4.46-2.14.65-1.44,1.2-2.93,1.85-4.53a5.89,5.89,0,0,0-1-.27c-1.19-.08-2.39-.13-3.58-.19a.26.26,0,0,0-.41.09l-2.15-.29-3.29-.1Z" />
            <path class="color-shadow"
                d="M316.27,434.71h-6.78c-.69-2-1.53-4.14-2.14-6.33-.8-2.87-1.42-5.78-2.12-8.67,2.4-2.46,5.67-2,8.63-2.49a12.34,12.34,0,0,1,2.35,0c-.3,1.7-.67,3.4-.87,5.12q-.34,3.06-.45,6.15A10.77,10.77,0,0,0,316.27,434.71Z" />
            <path class="color-shadow"
                d="M478,436.76l-5.68-.25c.14-3.09.3-6.17.41-9.26.05-1.5,0-3,0-4.61l2-.32,3.73,1.17a3.08,3.08,0,0,1,.44,1.08C479,428.66,479.34,432.77,478,436.76Z" />
            <path class="color-shadow-dark"
                d="M478,436.76c1.31-4,1-8.1.94-12.19a3.08,3.08,0,0,0-.44-1.08l3.3,1.23a3.68,3.68,0,0,1,2.8,3.4,1.85,1.85,0,0,0,1.61,1.94c-1.18.51-1.43,1.62-1.74,2.68-.41,1.44-.83,2.88-1.32,4.61Z" />
            <path class="color-shadow" d="M327.07,434.5l-1.63.18Z" />
            <path class="color-shadow"
                d="M313.38,438.64l3.87.09c-.08,1.3.51,1.89,1.84,1.91a17.23,17.23,0,0,1,4.5.32,59.91,59.91,0,0,0,18.13,2.52c3.5-.06,7-.27,10.5-.46,2.62-.14,5.24-.32,7.85-.51,4-.29,8.08-.77,12.12-.89,5.6-.15,11.2-.05,16.8,0a27,27,0,0,1,2.84.29,42.71,42.71,0,0,0,11.35,0c2.9-.44,5.85-.57,8.79-.72a26.91,26.91,0,0,1,3,.42c2.86.2,5.72.37,8.58.48q7.17.3,14.34.49c2.64.07,5.3-.2,7.91.08a28.59,28.59,0,0,0,7.1,0c4.08-.57,8.23-.71,12.35-1.05a38,38,0,0,0,4.25-.53,7.6,7.6,0,0,0,1.85-1l3.29.1,2.15.28a.26.26,0,0,1,.41-.07l-.38,1.14c-1,3-1,3.06-4.22,2.91-4.65-.21-9.17.61-13.72,1.32a105.67,105.67,0,0,1-11.36,1.07c-3.75.18-7.51.1-11.26,0-2.38-.06-4.75-.31-7.12-.54-2.76-.26-5.51-.77-8.27-.84-5.75-.13-11.5-.05-17.25,0a8,8,0,0,0-2,.51l-16.76,0a17.69,17.69,0,0,0-2.47-.49c-1.83-.12-3.67-.11-5.5-.19-1.5-.07-3-.3-4.51-.26-2,0-4,.46-5.93.39-5.22-.16-10.25,1.12-15.35,1.77-3.15.4-6.29.84-9.45,1.13-5.49.51-10.71-1.17-16-2.27-3-.63-5.83-2.1-8.8-3A4.45,4.45,0,0,1,313.38,438.64Z" />
            <path class="color-base"
                d="M471.4,440.08a7.6,7.6,0,0,1-1.85,1,38,38,0,0,1-4.25.53c-4.12.34-8.27.48-12.35,1.05a28.59,28.59,0,0,1-7.1,0c-2.61-.28-5.27,0-7.91-.08q-7.17-.18-14.34-.49c-2.86-.11-5.72-.28-8.58-.48a26.91,26.91,0,0,0-3-.42c-2.94.15-5.89.28-8.79.72a42.71,42.71,0,0,1-11.35,0,27,27,0,0,0-2.84-.29c-5.6,0-11.2-.13-16.8,0-4,.12-8.08.6-12.12.89-2.61.19-5.23.37-7.85.51-3.5.19-7,.4-10.5.46A59.91,59.91,0,0,1,323.59,441a17.23,17.23,0,0,0-4.5-.32c-1.33,0-1.92-.61-1.84-1.91,8-.18,16-.43,24-.53q21.09-.29,42.2-.41c9.42-.07,18.85.07,28.28-.14,8.41-.19,16.76.63,25.13,1.19,5.26.35,10.53.57,15.79.85a3.39,3.39,0,0,0,1.08.4c5.89,0,11.77,0,17.66,0Z" />
            <path class="color-shadow"
                d="M470.76,438.27c-8.95,0-17.91.11-26.85-.15-6.55-.19-13.07-1-19.61-1.34-5.82-.27-11.66-.25-17.49-.25-6.79,0-13.58.15-20.38.18s-13.9,0-20.85,0c-9.27,0-18.55.11-27.82.13-7.76,0-15.51-.05-23.26-.08a4.34,4.34,0,0,1-2.13-.47c2.84-.06,5.68-.08,8.51-.2,8.22-.33,16.44-.79,24.66-1.05,6.15-.19,12.31-.19,18.46-.22,13.19-.08,26.38-.16,39.57-.16,7.75,0,15.51,0,23.25.29,4.38.15,8.73.94,13.11,1.25,6,.43,12,.7,17.95,1,4.63.23,9.26.41,13.89.61Z" />
            <path class="color-shadow-dark"
                d="M313.38,438.64a4.45,4.45,0,0,0,3.57,4.42c3,.86,5.79,2.33,8.8,3,5.27,1.1,10.49,2.78,16,2.27,3.16-.29,6.3-.73,9.45-1.13,5.1-.65,10.13-1.93,15.35-1.77,2,.07,4-.35,5.93-.39,1.5,0,3,.19,4.51.26,1.83.08,3.67.07,5.5.19a17.69,17.69,0,0,1,2.47.49,13.07,13.07,0,0,1-1.83.34c-9.49.51-18.92,1.53-28.32,2.86-5.21.73-10.47,1.19-15.72,1.55a50.28,50.28,0,0,1-15.2-1.57,30.29,30.29,0,0,1-4.26-1.57,24.92,24.92,0,0,0-3.72-1.64A4.73,4.73,0,0,1,312,442a23.11,23.11,0,0,0-1.39-3.37Z" />
            <path class="color-shadow-dark"
                d="M401.7,446a8,8,0,0,1,2-.51c5.75,0,11.5-.12,17.25,0,2.76.07,5.51.58,8.27.84,2.37.23,4.74.48,7.12.54,3.75.08,7.51.16,11.26,0a105.67,105.67,0,0,0,11.36-1.07c4.55-.71,9.07-1.53,13.72-1.32,3.2.15,3.21,0,4.22-2.91l.38-1.14c1.19.05,2.39.1,3.58.18a5.89,5.89,0,0,1,1,.27c-.65,1.6-1.2,3.09-1.85,4.53-.87,1.94-2.69,2.11-4.46,2.14-3.26,0-6.53-.14-9.79-.05-4.14.12-8.28.49-12.42.61-2.95.09-5.9-.07-8.85-.11-3.12,0-6.24,0-9.35-.16-6.22-.25-12.44-.59-18.66-.89-4.22-.21-8.45-.4-12.67-.63A18.3,18.3,0,0,1,401.7,446Z" />
            <path class="color-shadow-dark"
                d="M470.76,438.27l1-.44,10.85.35v.62c-1.86.93-3.82,0-5.73-.08S472.8,438.43,470.76,438.27Z" />
            <path class="color-shadow-dark"
                d="M471.35,440.06c-5.89,0-11.77,0-17.66,0a3.39,3.39,0,0,1-1.08-.4q8.92,0,17.86.08A3,3,0,0,1,471.35,440.06Z" />
            <path class="color-shadow-dark" d="M476.84,440.46l-2.15-.28Z" />
        </g>
    </g>
</svg>
