<svg xmlns="http://www.w3.org/2000/svg" viewBox="0 0 672 960">
    <g>
        <path
            d="M480.49,339.88c.13,1.48.27,3,.4,4.46,0,.15,0,.32,0,.47.95,6.12-.36,12.08-1.08,18.1a32,32,0,0,0,.29,7.63c.43,3.52,1.3,7,1.69,10.51.67,6.14,1.18,12.3,1.61,18.46.28,4,.13,8,.46,11.92a29.35,29.35,0,0,0,1.5,5.88,10.72,10.72,0,0,1,.08,6.92,3,3,0,0,0-.25,1.15,11.59,11.59,0,0,1-1.27,5.86c-1.76-4.68-2.2-9.5-2.69-14.3-.36-3.53-.33-7.11-.75-10.63-.57-4.76-1.42-9.48-2.12-14.22-.56-3.79-1.2-7.57-1.58-11.37-.66-6.49-1.2-13-.52-19.51.61-5.87,1.1-11.79,3.48-17.32a6.94,6.94,0,0,0,.26-2.11c0-.62,0-1.25,0-1.87Zm.06,50.73.57,0c-.4-4-.85-7.92-1.2-11.89-.46-5.21-1.1-10.42-1.16-15.63-.05-4.09.68-8.19,1.07-12.29.06-.73.13-1.46.2-2.2h-.39A93.23,93.23,0,0,0,480.55,390.61Z" />
    </g>
</svg>
