<svg id="Karmany" xmlns="http://www.w3.org/2000/svg" viewBox="0 0 672 960">
    <g>
        <path class="color-base"
            d="M418.85,311.09l-.15-3.43c3.55-.74,7.14-.43,10.72-.48,1.92,0,3.84,0,5.76,0a4.29,4.29,0,0,0,1.89-.17,5.42,5.42,0,0,1,2.36-.3c3.49-.16,7,.12,10.5-.39,3.2-.46,6.49-.16,9.76-.49a93.89,93.89,0,0,1,10.07-.08,1.65,1.65,0,0,1,1.52.5c0,.83,0,1.86.05,2.88a7.8,7.8,0,0,0,.11,2.38,11.89,11.89,0,0,1,.37,3.55c.3,4.87-.54,9.7-.56,14.56,0,.13-.15.26-.31.52-3.06.3-6.23.11-9.4.5-3.77.46-7.65-.25-11.43.56q-13.56,0-27.12,0a3.21,3.21,0,0,1-2.56-1c0-.88,0-1.91,0-2.94a11.4,11.4,0,0,0-.09-3.1,17,17,0,0,1-.38-4.75c0-2.08,0-4.16,0-6.24a13.85,13.85,0,0,0,0-1.44C419.83,311.11,419.36,311.06,418.85,311.09Z" />
        <path class="color-base"
            d="M463.16,276h1.92c.3.49.8.45,1.27.45,1.36,0,2.72,0,4.08,0a7.24,7.24,0,0,1,2.67.22c.36,2.46.26,4.92.52,7.35a99,99,0,0,1,.11,10.92c-1.19.31-1.66,1.41-2.43,2.16h-1.51a23.78,23.78,0,0,0-4.78.08,29.51,29.51,0,0,1-5.69.4,17.31,17.31,0,0,0-3.82.13,12.52,12.52,0,0,1-3.54.34c-2.85-.1-5.69,0-8.56-.36-4.09-.46-8.26,0-12.38-.54a12.78,12.78,0,0,0-4.5.33c-1.83.41-3.79-.08-5.66.53-.61.2-1.07-.4-.78-1.08a5.25,5.25,0,0,0,.25-3.52,19.49,19.49,0,0,1-.37-4.74,16.24,16.24,0,0,0-.13-3.57,15.31,15.31,0,0,1-.36-3.54,7.85,7.85,0,0,0-.36-3.07,1.89,1.89,0,0,1,.27-2c.76,0,1.62-.08,2.49-.08h39.78C462.19,276.45,462.79,276.59,463.16,276Z" />
        <path class="color-shadow"
            d="M418.85,311.09c.51,0,1,0,1.06.65a13.85,13.85,0,0,1,0,1.44c0,2.08,0,4.16,0,6.24a17,17,0,0,0,.38,4.75,11.4,11.4,0,0,1,.09,3.1c0,1,0,2.06,0,2.94a3.21,3.21,0,0,0,2.56,1q13.56,0,27.12,0c3.78-.81,7.66-.1,11.43-.56,3.17-.39,6.34-.2,9.4-.5.16-.26.31-.39.31-.52,0-4.86.86-9.69.56-14.56a11.89,11.89,0,0,0-.37-3.55,7.8,7.8,0,0,1-.11-2.38c0-1,0-2.05-.05-2.88a1.65,1.65,0,0,0-1.52-.5,93.89,93.89,0,0,0-10.07.08c-3.27.33-6.56,0-9.76.49-3.52.51-7,.23-10.5.39a5.42,5.42,0,0,0-2.36.3,4.29,4.29,0,0,1-1.89.17c-1.92,0-3.84,0-5.76,0-3.58.05-7.17-.26-10.72.48-.4-.58-.1-1.27-.29-1.89a4.84,4.84,0,0,0,0-2c.06-1,.12-2.05.17-2.95a1.28,1.28,0,0,1,1.19-.43h52.93c.31,0,.63.05,1,.07,0,2.54-.55,5.05-.4,7.61.11,1.9,0,3.82,0,5.73s0,3.66,0,5.49a3.22,3.22,0,0,0,.91,2.56V300.47c.41,0,.82,0,.93.51a3.74,3.74,0,0,1,.06.95c-.24,9.15.52,18.29.35,27.45,0,.87,0,1.75,0,2.63a2.59,2.59,0,0,1-1.8,0v-7.08c-.62,2.39-.43,4.81-.54,7.21-3,0-6.08.07-9.12.07l-39.35,0-5.83-.16C418.93,325,418.63,318.07,418.85,311.09Z" />
        <path class="color-shadow"
            d="M463.16,276c-.37.59-1,.45-1.51.45H421.87c-.87,0-1.73.05-2.49.08a1.89,1.89,0,0,0-.27,2,7.85,7.85,0,0,1,.36,3.07,15.31,15.31,0,0,0,.36,3.54,16.24,16.24,0,0,1,.13,3.57,19.49,19.49,0,0,0,.37,4.74,5.25,5.25,0,0,1-.25,3.52c-.29.68.17,1.28.78,1.08,1.87-.61,3.83-.12,5.66-.53a12.78,12.78,0,0,1,4.5-.33c4.12.56,8.29.08,12.38.54,2.87.33,5.71.26,8.56.36a12.52,12.52,0,0,0,3.54-.34,17.31,17.31,0,0,1,3.82-.13,29.51,29.51,0,0,0,5.69-.4,23.78,23.78,0,0,1,4.78-.08h1.51c.77-.75,1.24-1.85,2.43-2.16a99,99,0,0,0-.11-10.92c-.26-2.43-.16-4.89-.52-7.35a7.24,7.24,0,0,0-2.67-.22c-1.36,0-2.72,0-4.08,0-.47,0-1,0-1.27-.45,3.43-.13,6.86-.09,10.49.05.17,1.72.44,3.35.47,5,.11,5.6.14,11.2.19,16.8a7.34,7.34,0,0,1-.19,1.11c-6.33.27-12.63,0-18.92,0s-12.8,0-19.2,0H419c-.6-.53-.47-1.21-.49-1.83-.06-1.92.07-3.85-.14-5.75-.4-3.66-.2-7.34-.62-11-.17-1.46-.58-3,.26-4.46h32a5.71,5.71,0,0,0,.71-.08c3.11,0,6.23,0,9.34.06C461.09,275.93,462.12,276,463.16,276Z" />
        <path class="color-shadow"
            d="M418,275.57c-.6-1.2-.51-1.57.47-1.61s1.76,0,2.64.05c15,.09,30,.1,45.06-.17,2.63,0,5.26-.26,7.89-.3.58,0,1.35-.25,1.57.65.15.61-.19.92-1.49,1.12a17.56,17.56,0,0,1-2.62.17c-6.07,0-12.14,0-18.22,0-.87,0-1.75.06-2.62.1-4.93,0-9.86-.07-14.79-.08C430,275.52,424,275.55,418,275.57Z" />
        <path class="color-shadow"
            d="M473,333.16c.19.78.17,1.24-.5,1.3s-1.12,0-1.68,0l-36.46.08c-4.4,0-8.8.05-13.19.09-.64,0-1.28.06-1.95.09-.4-.35-.34-.8-.11-1.43a40.5,40.5,0,0,1,6.53-.18c2.24,0,4.48,0,6.72,0h20.39l6.72,0H473Z" />
        <path class="color-shadow"
            d="M418,305.74q0,12,0,23.94c0,.76.25,1.58-.25,2.27-.44.06-.65-.13-.67-.5,0-.63-.05-1.27-.05-1.91,0-3.91,0-7.82,0-11.73.08-7.49-.61-15-.34-22.47.05-1.34,0-2.69.15-4a50.49,50.49,0,0,0,.68,7.58c.19,1.65.48,3.28.52,4.95Z" />
        <path class="outline"
            d="M424.77,332.24l39.35,0c3,0,6.08-.05,9.12-.07-.18.15-.33.41-.52.44a8.51,8.51,0,0,1-1.43.07H426.56C426,332.63,425.26,332.85,424.77,332.24Z" />
        <path class="outline"
            d="M474.22,300.47v21.42a3.22,3.22,0,0,1-.91-2.56c0-1.83,0-3.66,0-5.49s.09-3.83,0-5.73c-.15-2.56.42-5.07.4-7.61Z" />
        <path class="outline"
            d="M418,275.57c6,0,11.92-.05,17.89-.05,4.93,0,9.86.05,14.79.08a1.13,1.13,0,0,0,0,.26,5.71,5.71,0,0,1-.71.08H418C418,275.81,418,275.69,418,275.57Z" />
        <path class="color-shadow" d="M474.13,334.44l-.13-1.22c.7-.12,1.46-.37,1.49.56S474.72,334.4,474.13,334.44Z" />
        <path class="color-shadow" d="M417.45,333a1.34,1.34,0,0,1,.24,1.9C416.77,334.52,417.11,333.9,417.45,333Z" />
        <path class="outline" d="M418,305.74v-1.91l.38,0a4.84,4.84,0,0,1,0,2Z" />
        <path class="outline" d="M473.78,332a2.59,2.59,0,0,0,1.8,0C474.94,332.86,474.44,332.86,473.78,332Z" />
        <path class="color-base"
            d="M333,330.26l-.32-.55c0-1.58.09-3.16.13-4.74.31-.1.65-.19.68-.56.05-.64.06-1.28.06-1.91,0-5.19,0-10.38,0-15.57,0-.68-.22-1.45.53-2.16h3.69a5.16,5.16,0,0,0,1.67,0c2-.7,4.1-.39,6.16-.42,3.51-.05,7,0,10.54,0a5.38,5.38,0,0,0,1.89-.09,9.5,9.5,0,0,1,3.54-.38c8.67-.22,17.36.48,26-.43.39,1.59-.06,3.15-.13,4.73-.37,1.75,0,3.53-.23,5.28-.54.08-.93.35-.86.93.28,2.49-.44,4.9-.6,7.36-.12,1.88-.33,3.78-.41,5.68a8.79,8.79,0,0,1-.49,1.84,1.34,1.34,0,0,1-1.44,1,13.11,13.11,0,0,0-3.33.14,11.31,11.31,0,0,1-3.55.34c-6.45-.19-12.92.49-19.35-.46Z" />
        <path class="color-base"
            d="M388.4,285.13c0,.95-.07,1.91-.1,2.86-.52,0-.93.21-.95.82a11.16,11.16,0,0,1-.09,2.39,27.55,27.55,0,0,0-1,6.08,13.59,13.59,0,0,1-1.82.71,7.73,7.73,0,0,1-1.67.08c-3,0-6-.16-9-.39-5.87-.45-11.77.18-17.65-.51-3.94-.45-7.94.25-11.91-.48a21.59,21.59,0,0,0-5,0c-1.69.09-3.26-.76-5-.51a1.11,1.11,0,0,1-1.16-.61c0-1.81,0-3.8,0-5.79a6.33,6.33,0,0,0-.09-2.14,10.15,10.15,0,0,1-.37-4,35.23,35.23,0,0,0-.73-7.32l.19,0a61.29,61.29,0,0,0,8.13.11c.19,0,.37-.26.56-.4h2.4c.7.82,1.65.43,2.47.44q20.1,0,40.19,0a5.33,5.33,0,0,1,3,.47l-.27,6.22C387.58,283.83,387.55,284.18,388.4,285.13Z" />
        <path class="color-shadow"
            d="M387.61,303.39c-8.67.91-17.36.21-26,.43a9.5,9.5,0,0,0-3.54.38,5.38,5.38,0,0,1-1.89.09c-3.52,0-7,0-10.54,0-2.06,0-4.14-.28-6.16.42a5.16,5.16,0,0,1-1.67,0h-3.69c-.75.71-.53,1.48-.53,2.16,0,5.19,0,10.38,0,15.57,0,.63,0,1.27-.06,1.91,0,.37-.37.46-.68.56a7.49,7.49,0,0,1-.19-2.83q0-10.84,0-21.68c4.4,0,8.79,0,13.19,0h39.31a5.19,5.19,0,0,1,2.49.24A4.71,4.71,0,0,1,387.61,303.39Z" />
        <path class="color-shadow"
            d="M331.88,276.27a35.23,35.23,0,0,1,.73,7.32,10.15,10.15,0,0,0,.37,4,6.33,6.33,0,0,1,.09,2.14c0,2,0,4,0,5.79a1.11,1.11,0,0,0,1.16.61c1.7-.25,3.27.6,5,.51a21.59,21.59,0,0,1,5,0c4,.73,8,0,11.91.48,5.88.69,11.78.06,17.65.51,3,.23,6,.36,9,.39a7.73,7.73,0,0,0,1.67-.08,13.59,13.59,0,0,0,1.82-.71,27.55,27.55,0,0,1,1-6.08,11.16,11.16,0,0,0,.09-2.39c0-.61.43-.79.95-.82,0,3-.06,6.07-.14,9.11a7.41,7.41,0,0,1-.44,1.64,4.5,4.5,0,0,1-2.56.26q-20,0-40.07,0c-4.24,0-8.48,0-12.72,0a3.13,3.13,0,0,1-2.08-.34,27.68,27.68,0,0,1,0-5.3,47.66,47.66,0,0,0,.24-4.78c.05-3.68.06-7.35.11-11C330.69,276.54,330.73,276.54,331.88,276.27Z" />
        <path class="color-shadow"
            d="M333,330.26l24.22,0c6.43.95,12.9.27,19.35.46a11.31,11.31,0,0,0,3.55-.34,13.11,13.11,0,0,1,3.33-.14,1.34,1.34,0,0,0,1.44-1,8.79,8.79,0,0,0,.49-1.84c.08-1.9.29-3.8.41-5.68.16-2.46.88-4.87.6-7.36-.07-.58.32-.85.86-.93,0,.87.08,1.73.09,2.6,0,2.83,0,5.66.06,8.5-.48.54-.3,1.2-.31,1.82,0,1.82,0,3.64,0,5.49-2.08.72-4.1,0-6,.48-.4,0-.79-.08-1.19-.08l-46.89,0Z" />
        <path class="color-shadow"
            d="M363.79,274c3.85.11,7.7.15,11.54,0l11.26,0a10.53,10.53,0,0,1,2.63.11c0,.52.06,1.07-.44,1.44l-33.63,0-8.12-.05c-4.7,0-9.4,0-14.1,0a4.22,4.22,0,0,1-1.87-.16c-.44-1.59-.35-1.8,1-1.77,3.26.09,6.52.25,9.78.36.79,0,1.58-.07,2.38-.11a4.2,4.2,0,0,0,.92.2Q354.47,274,363.79,274Z" />
        <path class="color-shadow"
            d="M333.17,334.24c-.15-.41-.22-.85.28-1a5.15,5.15,0,0,1,1.42-.11h50.57c.4,0,.8,0,1.2.05a.61.61,0,0,1,.58.63.69.69,0,0,1-.68.8c-.64,0-1.28,0-1.92,0l-25.88-.08-23.49-.09A3.38,3.38,0,0,1,333.17,334.24Z" />
        <path class="color-shadow"
            d="M388.17,308.12c0-2,.05-4,.08-6,0-.7-.07-1.43.64-1.94.43-.31.37-.85.38-1.33a6.12,6.12,0,0,1,.32-2.37,11.34,11.34,0,0,1,.13,1.43q0,16.17,0,32.34a7.48,7.48,0,0,1-.09,1.42c0,.16-.33.32-.53.38a.59.59,0,0,1-.77-.39,7.53,7.53,0,0,1-.08-1.43c0-1.91-.06-3.83-.08-5.74C388.4,319,388.26,313.58,388.17,308.12Z" />
        <path class="color-shadow"
            d="M331.18,332.12c0-5.24-.08-10.47.08-15.71.14-4.52,0-9.05,0-13.58a17.25,17.25,0,0,1,.08-1.9c0-.4.44-.36.74-.43,0,6.4,0,12.8,0,19.19,0,3.36.09,6.72.14,10.07l-.1,2.34Z" />
        <path class="outline"
            d="M333,332.19l46.89,0c.4,0,.79.05,1.19.08-.68.64-1.52.33-2.29.33-9.5,0-19,0-28.52,0H334.67c-.55,0-1.1,0-1.66-.06a.25.25,0,0,1-.12-.16A.6.6,0,0,1,333,332.19Z" />
        <path class="color-shadow"
            d="M388.84,276.93a5.33,5.33,0,0,0-3-.47q-20.08,0-40.19,0c-.82,0-1.77.38-2.47-.44l8.87-.06,3.11-.06c.32,0,.63.07.95.07l32.69,0Z" />
        <path class="outline"
            d="M388.78,275.93l-32.69,0c-.32,0-.63-.05-.95-.07,0-.11,0-.23,0-.34l33.63,0C388.77,275.69,388.78,275.81,388.78,275.93Z" />
        <path class="outline"
            d="M388.17,308.12c.09,5.46.23,10.92,0,16.38h-.73c0-2.84,0-5.67-.06-8.5,0-.87-.06-1.73-.09-2.6.2-1.75-.14-3.53.23-5.28Z" />
        <path class="outline"
            d="M332.2,329.76c-.05-3.35-.13-6.71-.14-10.07,0-6.39,0-12.79,0-19.19l.53,0q0,10.85,0,21.68a7.49,7.49,0,0,0,.19,2.83c0,1.58-.09,3.16-.13,4.74Z" />
        <path class="outline"
            d="M363.79,274q-9.33,0-18.65,0a4.2,4.2,0,0,1-.92-.2,1.88,1.88,0,0,1,1.14-.2c5.56,0,11.11,0,16.66,0C362.63,273.61,363.31,273.39,363.79,274Z" />
        <path class="outline"
            d="M389.22,274.13a10.53,10.53,0,0,0-2.63-.11l-11.26,0a1.23,1.23,0,0,1,1.07-.39H388C388.52,273.58,389,273.56,389.22,274.13Z" />
        <path class="color-shadow" d="M340.76,276c-.19.14-.37.4-.56.4a61.29,61.29,0,0,1-8.13-.11,1,1,0,0,1,.84-.34Z" />
        <path class="color-shadow"
            d="M388.69,335c-.26,0-.65-.05-.72-.56a1,1,0,0,1,.79-1.22c.5-.09.82.24.83.84S389.46,335,388.69,335Z" />
        <path class="outline" d="M389.76,293.06a2.18,2.18,0,0,1,.31-3A4.36,4.36,0,0,1,389.76,293.06Z" />
        <path class="color-shadow" d="M388.4,285.13c-.85-.95-.82-1.3.17-2C388.72,283.83,388.94,284.51,388.4,285.13Z" />
        <path class="outline" d="M389.9,284.51a4.53,4.53,0,0,1,.13,2.65A4.45,4.45,0,0,1,389.9,284.51Z" />
        <path class="color-shadow"
            d="M332.07,333.19a3.84,3.84,0,0,1,0,.48c0,.31-.06.68-.47.68s-.41-.39-.42-.7a3.7,3.7,0,0,1,0-.47Z" />
        <path class="outline" d="M332.07,333.19h-.87c0-.36,0-.71,0-1.06l.92,0Z" />
        <path class="outline"
            d="M329.8,271.88a4.6,4.6,0,0,1,2.25-.23l56.16.67c2.68,0,3,.35,3,3.09q0,18.72-.14,37.44c0,5.67-.22,11.35-.31,17,0,1.6.08,3.2.1,4.8a2.19,2.19,0,0,1-.47,1.8c-1.71.07-3.61.19-5.51.21-10.64.09-21.28.2-31.91.22-7.36,0-14.72-.11-22.08-.17a7.46,7.46,0,0,1-.95-.05,1,1,0,0,1-1-1.13c.45-3.59.08-7.19.25-10.78.05-.88.11-1.76.1-2.64-.06-6.07.14-12.14.33-18.21.05-1.4.33-2.86-.48-4.21a3,3,0,0,1-.14-1.41q.14-8.52.29-17c.05-2.48.14-4.95.22-7.43A3.74,3.74,0,0,1,329.8,271.88Zm1.4,61.3a3.7,3.7,0,0,0,0,.47c0,.31,0,.69.42.7s.44-.37.47-.68a3.84,3.84,0,0,0,0-.48l0-1.09.1-2.34.48-.05.32.55,0,1.93a.6.6,0,0,0-.09.22.25.25,0,0,0,.12.16c.56,0,1.11.06,1.66.06h15.58c9.51,0,19,0,28.52,0,.77,0,1.61.31,2.29-.33,1.92-.44,3.94.24,6-.48,0-1.85,0-3.67,0-5.49,0-.62-.17-1.28.31-1.82h.73c0,1.91.05,3.83.08,5.74a7.53,7.53,0,0,0,.08,1.43.59.59,0,0,0,.77.39c.2-.06.49-.22.53-.38a7.48,7.48,0,0,0,.09-1.42q0-16.17,0-32.34a11.34,11.34,0,0,0-.13-1.43,6.12,6.12,0,0,0-.32,2.37c0,.48.05,1-.38,1.33-.71.51-.62,1.24-.64,1.94,0,2-.05,4-.08,6h-.69c.07-1.58.52-3.14.13-4.73a4.71,4.71,0,0,0,0-2.71,5.19,5.19,0,0,0-2.49-.24H345.78c-4.4,0-8.79,0-13.19,0l-.53,0c-.3.07-.7,0-.74.43a17.25,17.25,0,0,0-.08,1.9c0,4.53.16,9.06,0,13.58-.16,5.24-.11,10.47-.08,15.71C331.19,332.47,331.19,332.82,331.2,333.18Zm23.94-57.3-3.11.06-8.87.06h-2.4l-7.85-.05a1,1,0,0,0-.84.34l-.19,0c-1.15.27-1.19.27-1.2,1.28-.05,3.68-.06,7.35-.11,11a47.66,47.66,0,0,1-.24,4.78,27.68,27.68,0,0,0,0,5.3,3.13,3.13,0,0,0,2.08.34c4.24,0,8.48-.05,12.72,0q20,0,40.07,0a4.5,4.5,0,0,0,2.56-.26,7.41,7.41,0,0,0,.44-1.64c.08-3,.1-6.07.14-9.11,0-.95.07-1.91.1-2.86.54-.62.32-1.3.17-2l.27-6.22-.06-1c0-.12,0-.24,0-.36.5-.37.42-.92.44-1.44-.21-.57-.7-.55-1.18-.55H376.4a1.23,1.23,0,0,0-1.07.39c-3.84.16-7.69.12-11.54,0-.48-.6-1.16-.38-1.77-.39-5.55,0-11.1,0-16.66,0a1.88,1.88,0,0,0-1.14.2c-.8,0-1.59.13-2.38.11-3.26-.11-6.52-.27-9.78-.36-1.35,0-1.44.18-1,1.77a4.22,4.22,0,0,0,1.87.16c4.7,0,9.4,0,14.1,0l8.12.05C355.15,275.65,355.15,275.77,355.14,275.88Zm-22,58.36a3.38,3.38,0,0,0,2.08.25l23.49.09,25.88.08c.64,0,1.28,0,1.92,0a.69.69,0,0,0,.68-.8.61.61,0,0,0-.58-.63c-.4,0-.8,0-1.2-.05H334.87a5.15,5.15,0,0,0-1.42.11C333,333.39,333,333.83,333.17,334.24Zm55.52.73c.77,0,.91-.41.9-.94s-.33-.93-.83-.84a1,1,0,0,0-.79,1.22C388,334.92,388.43,335,388.69,335Zm1.07-41.91a4.36,4.36,0,0,0,.31-3A2.18,2.18,0,0,0,389.76,293.06Zm.14-8.55a4.45,4.45,0,0,0,.13,2.65A4.53,4.53,0,0,0,389.9,284.51Z" />
        <path class="outline"
            d="M477.55,336.19a2.28,2.28,0,0,1-1.85.55c-11.19.06-22.38.18-33.57.16-8.07,0-16.14-.21-24.21-.33h-.72c-1.29-.08-1.57-.31-1.56-1.58,0-1.59.2-3.19.17-4.78-.22-11.83-.18-23.66-.33-35.49-.08-6.15,0-12.3-.1-18.45a15.41,15.41,0,0,1,.1-2.15c.16-1.22.65-1.68,1.84-1.77.55,0,1.12,0,1.68,0l50.35-.6c2.08,0,4.16-.08,6.24-.07,1.28,0,1.49.24,1.52,1.56q.17,7.67.31,15.33c.06,2.79.13,5.59.16,8.38a8.28,8.28,0,0,1-.5,3.72,7,7,0,0,0-.14,3.07c.27,5.19.22,10.39.29,15.58.07,5.34.26,10.69.4,16C477.63,335.63,477.57,335.94,477.55,336.19ZM418,305.74l.38,0c.19.62-.11,1.31.29,1.89l.15,3.43c-.22,7,.08,14,.09,21l5.83.16c.49.61,1.18.39,1.79.39h44.73a8.51,8.51,0,0,0,1.43-.07c.19,0,.34-.29.52-.44.11-2.4-.08-4.82.54-7.21V332c.66.86,1.16.86,1.8,0,0-.88,0-1.76,0-2.63.17-9.16-.59-18.3-.35-27.45a3.74,3.74,0,0,0-.06-.95c-.11-.49-.52-.53-.93-.51l-.56,0c-.32,0-.64-.07-1-.07H419.78a1.28,1.28,0,0,0-1.19.43c0,.9-.11,1.93-.17,2.95l-.38,0c0-1.67-.33-3.3-.52-4.95a50.49,50.49,0,0,1-.68-7.58c-.15,1.35-.1,2.7-.15,4-.27,7.5.42,15,.34,22.47,0,3.91,0,7.82,0,11.73,0,.64,0,1.28.05,1.91,0,.37.23.56.67.5.5-.69.25-1.51.25-2.27Q418,317.71,418,305.74Zm0-30.17c0,.12,0,.24,0,.36-.84,1.44-.43,3-.26,4.46.42,3.65.22,7.33.62,11,.21,1.9.08,3.83.14,5.75,0,.62-.11,1.3.49,1.83h18.91c6.4,0,12.8,0,19.2,0s12.59.26,18.92,0a7.34,7.34,0,0,0,.19-1.11c-.05-5.6-.08-11.2-.19-16.8,0-1.63-.3-3.26-.47-5-3.63-.14-7.06-.18-10.49-.05h-1.92c-1,0-2.07-.07-3.11-.08-3.11,0-6.23,0-9.34-.06a1.13,1.13,0,0,1,0-.26c.87,0,1.75-.1,2.62-.1,6.08,0,12.15,0,18.22,0a17.56,17.56,0,0,0,2.62-.17c1.3-.2,1.64-.51,1.49-1.12-.22-.9-1-.66-1.57-.65-2.63,0-5.26.25-7.89.3-15,.27-30,.26-45.06.17-.88,0-1.76-.08-2.64-.05S417.43,274.37,418,275.57Zm55,57.59H459.51l-6.72,0H432.4c-2.24,0-4.48,0-6.72,0a40.5,40.5,0,0,0-6.53.18c-.23.63-.29,1.08.11,1.43.67,0,1.31-.09,1.95-.09,4.39,0,8.79-.08,13.19-.09l36.46-.08c.56,0,1.12,0,1.68,0S473.23,333.94,473,333.16Zm1.09,1.28c.59,0,1.39.35,1.36-.66s-.79-.68-1.49-.56ZM417.45,333c-.34.88-.68,1.5.24,1.9A1.34,1.34,0,0,0,417.45,333Z" />
        <rect class="outline" x="418.07" y="300.4" width="0.78" height="31.92" />
        <rect class="outline" x="473.14" y="299.69" width="0.54" height="36" />
        <rect class="outline" x="415.8" y="331.96" width="60.43" height="0.61" />
        <rect class="outline" x="387.11" y="299.91" width="0.64" height="35.89" />
        <rect class="outline" x="332.3" y="299.91" width="0.51" height="35.06" />
        <rect class="outline" x="330.18" y="331.57" width="60" height="0.62" />
        <rect class="outline" x="329.46" y="276" width="61.75" height="0.48" />
        <rect class="outline" x="416.63" y="275.6" width="60.55" height="0.88" />
    </g>
</svg>
