<svg id="Crop_Classic" data-name="Crop Classic" xmlns="http://www.w3.org/2000/svg" viewBox="0 0 672 960">

    <g>
        <path class="outline"
            d="M447.87,357.25c2.71-.13,5.43-.35,8.15-.37a11.78,11.78,0,0,1,3.22.67c1.3.39,2.53,1,3.84,1.33a40,40,0,0,0,4,.52c-2.11,2.52-3.07,5.6-4,8.68-.6,1.91-1.89,2.69-3.84,3-6.52,1.17-13.06.87-19.6.6-11.74-.49-23.48-1.16-35.22-1.35a195.7,195.7,0,0,0-20.1,1c-7.23.62-14.41,1.87-21.65,2.42-4.92.38-9.92.21-14.57-2a14.2,14.2,0,0,0-2.75-.78,4.07,4.07,0,0,1-3.3-3.36,32.17,32.17,0,0,0-1.5-4.54c-.7-1.85-1.47-3.68-2.27-5.64a2.68,2.68,0,0,1,2.45,0c7.16,3,14.52,2.38,21.94,1.38a123.71,123.71,0,0,1,13.84-1.23c9.59-.19,19.19-.06,28.79-.07l29,0h11A1.89,1.89,0,0,0,447.87,357.25Zm3.74,11.85.07-2.85,0,0,1.49,4.09c.45,0,1.14-.08,1.82-.19a6.76,6.76,0,0,0,2.27-.56c.49-.28.7-1,1-1.57,1.79,1.23,1.86,1.26,2.85-.49.73-1.29,1.28-2.67,2-4.1-1.14-.25-2.07-.39-3-.66s-1.76-.69-2.64-1a46,46,0,0,0-6.77-1.34c-4.61-.24-9.24-.15-13.87-.2-5.82-.06-11.65-.22-17.47-.15-7.09.09-14.18.4-21.28.57-7.42.17-14.83.3-22.25.45l-3.9.17-2.88.16-9.74.87-.83,0-4,.47-.84,0-1.42.1h-1.43l-1.9-.1a.44.44,0,0,0-.37,0L347,362.5l-1.46-.11-.93-.09a.41.41,0,0,0-.36,0,10.31,10.31,0,0,0-2-.43c-1.4,0-.63.59-.26,1.06a42.18,42.18,0,0,1,1.53,4c.38,1.36,1.5,1.49,2.5,1.9,1.42-1.07,1.78.34,2.48,1a2.8,2.8,0,0,0,.85.41c.83.52,1.13.25,1-.67l.18-1.4a10.26,10.26,0,0,1,.87,1.5,3,3,0,0,0,2.87,2.1c1.27.13,2.54.21,3.81.31,1.11.08,2.44.57,3.25.12s1-1.84,1.51-2.81c.05-.11.22-.16.35-.25v2.91a12.05,12.05,0,0,1,1.48,0,2.17,2.17,0,0,0,2.53-1.64,11.61,11.61,0,0,1,1-1.81l.23.15c-.11,1-.22,2-.35,3.08l5.28-.56c.08-1.14.16-2.13.23-3.12a4.17,4.17,0,0,1,1.1,1.75c.24.66.52,1.09,1.34,1.06,1.06-.05.68-1,1-1.51,1.88,1.31,3.62,1.37,7.2.22-.25-1-.51-2-.77-3l0-.83h.18l.17,0a.38.38,0,0,0,.12.32,27.19,27.19,0,0,0,1.67,2.87,1.63,1.63,0,0,0,2.63.06,4.28,4.28,0,0,0,.36-1.12c.72.58,1.32,1.47,1.88,1.45,2.94-.11,6.16.75,8.61-2.33l-.12,1.93c1.81.22,3.52.43,4.6-.93.48.42.8,1,1.2,1,1.33.2,2.7.16,4,.34s.87-.81.89-1.25a11.64,11.64,0,0,0,3.12,1.28c3.57.31,7.16.41,10.74.56a10.64,10.64,0,0,0,1.72-.23c-.3-1.17-.54-2.16-.79-3.15l-.18-.79.36-.11.59.87c.15.36.31.72.44,1.09.73,2.05,2.07,3.08,4.34,2.72a10.86,10.86,0,0,1,1.89,0c2.52.06,2.52.06,2.95-2.5,0-.24.06-.47.09-.71l.62,0c0,.64.13,1.27.16,1.91.05.83.37,1.35,1.29,1.35h9.11c.16-.8.3-1.46.47-2.33l.95,1c.95,2.18,2.7,1.1,4.39,1.25Zm10.29-7.21c.47,0,.75.08.94,0a11.35,11.35,0,0,0,1.27-.81c-.35-.36-.63-.86-1.06-1.06a20.08,20.08,0,0,0-3.55-1.42,43.5,43.5,0,0,0-10.67-1.07c-2,0-4,.3-5.94.36a4.07,4.07,0,0,1-1.77-.47,7,7,0,0,0-5.53-.08,7,7,0,0,1-2.47.58L419,358c-13.5.13-27-.21-40.51.35-8.71.36-17.31,1.63-26,2.24a21.3,21.3,0,0,1-8-1.07c-.91-.28-1.81-.61-2.73-.86-.49-.13-1.17-.52-1.41.28s.46.92,1,1.11a6.89,6.89,0,0,0,1.37.4,67.29,67.29,0,0,0,7.83.9,74.55,74.55,0,0,0,9.79-.56,191.05,191.05,0,0,1,22.93-1.23c1.91,0,3.82.24,5.73.24,1.52,0,3-.23,4.54-.29,4.15-.16,8.3-.43,12.45-.39,6.54.05,13.07-.38,19.62-.22,6.95.17,13.91,0,20.86.2,4.85.16,9.75.39,14.3,2.47A5.7,5.7,0,0,0,461.9,361.89Z" />
        <path class="color-shadow-dark" d="M447.87,357.25a1.89,1.89,0,0,1-2.51.18Z" />
        <path class="color-base"
            d="M425.33,366.68l-.59-.87-.27-.31-.09.42.18.79c-3.09-.16-6.19-.45-9.28-.44-3.5,0-7,.43-10.49.41-5.81,0-11.62-.28-17.43-.44-1.12,0-2.24,0-3.35,0a.38.38,0,0,1-.12-.32l-.16-.36-.19.35,0,.83c-4.13.17-8.26.32-12.39.51-2.82.12-5.63.31-8.45.44a10.3,10.3,0,0,1-1.65-.19l-2.12-.27-7.08-1c.57-.42.74-.63.95-.67,2.17-.43,4.34-.89,6.53-1.21a3.71,3.71,0,0,0,2.6-1c2.25-.39,4.51-.76,6.75-1.19.19,0,.29-.5.43-.76l2.88-.16c1.61.91,2.68.86,3.9-.17,7.42-.15,14.83-.28,22.25-.45,7.1-.17,14.19-.48,21.28-.57,5.82-.07,11.65.09,17.47.15,4.63,0,9.26,0,13.87.2a46,46,0,0,1,6.77,1.34c0,.24-.05.47-.06.71-.1,2.59-.56,3.08-3.16,3.28-.55,0-1.11-.05-1.65,0a3.67,3.67,0,0,0-1,.5l0,0a18.66,18.66,0,0,0-2.37.07,53.46,53.46,0,0,1-9.62.88c-1.34,0-2.68,0-4,.06l-.62,0Z" />
        <path class="color-shadow"
            d="M361.89,363.37a3.71,3.71,0,0,1-2.6,1c-2.19.32-4.36.78-6.53,1.21-.21,0-.38.25-.95.67l7.08,1,2.12.27a10.3,10.3,0,0,0,1.65.19c2.82-.13,5.63-.32,8.45-.44,4.13-.19,8.26-.34,12.39-.51.26,1,.52,2,.77,3-3.58,1.15-5.32,1.09-7.2-.22-.35.49,0,1.46-1,1.51-.82,0-1.1-.4-1.34-1.06a4.17,4.17,0,0,0-1.1-1.75c-.07,1-.15,2-.23,3.12l-5.28.56c.13-1.12.24-2.1.35-3.08l-.23-.15a11.61,11.61,0,0,0-1,1.81,2.17,2.17,0,0,1-2.53,1.64,12.05,12.05,0,0,0-1.48,0v-2.91c-.13.09-.3.14-.35.25-.5,1-.73,2.38-1.51,2.81s-2.14,0-3.25-.12c-1.27-.1-2.54-.18-3.81-.31a3,3,0,0,1-2.87-2.1,10.26,10.26,0,0,0-.87-1.5l-.18,1.4-1,.67a2.8,2.8,0,0,1-.85-.41c-.7-.68-1.06-2.09-2.48-1-1-.41-2.12-.54-2.5-1.9a42.18,42.18,0,0,0-1.53-4l2.27-.63a.41.41,0,0,1,.36,0l.53.84.4-.75,1.46.11,1.56.28a.44.44,0,0,1,.37,0c.25.33.45.85.78,1,.62.2,1-.17,1.12-.86h1.43c.21.28.39.75.65.81.64.13.74-.41.77-.91l.84,0,3,.46c.74.12,1-.3,1-.93l.83,0C360.25,362.49,361.41,362.12,361.89,363.37Z" />
        <path class="color-shadow-dark"
            d="M461.9,361.89a5.7,5.7,0,0,1-1.16-.29c-4.55-2.08-9.45-2.31-14.3-2.47-6.95-.22-13.91,0-20.86-.2-6.55-.16-13.08.27-19.62.22-4.15,0-8.3.23-12.45.39-1.51.06-3,.3-4.54.29-1.91,0-3.82-.24-5.73-.24a191.05,191.05,0,0,0-22.93,1.23,74.55,74.55,0,0,1-9.79.56,67.29,67.29,0,0,1-7.83-.9,6.89,6.89,0,0,1-1.37-.4c-.52-.19-1.19-.38-1-1.11s.92-.41,1.41-.28c.92.25,1.82.58,2.73.86a21.3,21.3,0,0,0,8,1.07c8.68-.61,17.28-1.88,26-2.24,13.5-.56,27-.22,40.51-.35l14.15-.13a7,7,0,0,0,2.47-.58,7,7,0,0,1,5.53.08,4.07,4.07,0,0,0,1.77.47c2-.06,4-.37,5.94-.36a43.5,43.5,0,0,1,10.67,1.07,20.08,20.08,0,0,1,3.55,1.42c.43.2.71.7,1.06,1.06a11.35,11.35,0,0,1-1.27.81C462.65,362,462.37,361.89,461.9,361.89Z" />
        <path class="color-shadow"
            d="M384,366.21c1.11,0,2.23,0,3.35,0,5.81.16,11.62.4,17.43.44,3.5,0,7-.4,10.49-.41,3.09,0,6.19.28,9.28.44.25,1,.49,2,.79,3.15a10.64,10.64,0,0,1-1.72.23c-3.58-.15-7.17-.25-10.74-.56a11.64,11.64,0,0,1-3.12-1.28c0,.44.38,1.42-.89,1.25s-2.71-.14-4-.34c-.4-.06-.72-.6-1.2-1-1.08,1.36-2.79,1.15-4.6.93l.12-1.93c-2.45,3.08-5.67,2.22-8.61,2.33-.56,0-1.16-.87-1.88-1.45a4.28,4.28,0,0,1-.36,1.12,1.63,1.63,0,0,1-2.63-.06A27.19,27.19,0,0,1,384,366.21Z" />
        <path class="color-shadow"
            d="M451.66,366.28a3.67,3.67,0,0,1,1-.5c.54-.08,1.1,0,1.65,0,2.6-.2,3.06-.69,3.16-3.28,0-.24,0-.47.06-.71.88.35,1.74.76,2.64,1s1.82.41,3,.66c-.68,1.43-1.23,2.81-2,4.1-1,1.75-1.06,1.72-2.85.49-.34.54-.55,1.29-1,1.57a6.76,6.76,0,0,1-2.27.56c-.68.11-1.37.15-1.82.19Z" />
        <path class="color-shadow"
            d="M435.66,367.26c1.35,0,2.69-.08,4-.06a53.46,53.46,0,0,0,9.62-.88,18.66,18.66,0,0,1,2.37-.07l-.07,2.85-4,.1-.95-1c-.17.87-.31,1.53-.47,2.33h-9.11c-.92,0-1.24-.52-1.29-1.35C435.79,368.53,435.71,367.9,435.66,367.26Z" />
        <path class="color-shadow"
            d="M425.33,366.68l9.71.61c0,.24-.05.47-.09.71-.43,2.56-.43,2.56-2.95,2.5a10.86,10.86,0,0,0-1.89,0c-2.27.36-3.61-.67-4.34-2.72C425.64,367.4,425.48,367,425.33,366.68Z" />
        <path class="color-shadow-dark"
            d="M361.89,363.37c-.48-1.25-1.64-.88-2.56-1.08l9.74-.87c-.14.26-.24.73-.43.76C366.4,362.61,364.14,363,361.89,363.37Z" />
        <path class="color-shadow-dark" d="M447.64,369.2l4-.1.42,1.35C450.34,370.3,448.59,371.38,447.64,369.2Z" />
        <path class="color-shadow-dark" d="M375.85,361.09c-1.22,1-2.29,1.08-3.9.17Z" />
        <path class="color-shadow-dark" d="M358.5,362.31c0,.63-.25,1.05-1,.93l-3-.46Z" />
        <path class="color-shadow-dark"
            d="M344.27,362.29l-2.27.63c-.37-.47-1.14-1.09.26-1.06A10.31,10.31,0,0,1,344.27,362.29Z" />
        <path class="color-shadow-dark" d="M350.85,362.89c-.07.69-.5,1.06-1.12.86-.33-.11-.53-.63-.78-1Z" />
        <path class="color-shadow-dark" d="M353.7,362.8c0,.5-.13,1-.77.91-.26-.06-.44-.53-.65-.81Z" />
        <path class="color-shadow-dark" d="M345.56,362.39l-.4.75-.53-.84Z" />
        <path class="color-shadow-dark" d="M349.36,370.25l1-.67C350.49,370.5,350.19,370.77,349.36,370.25Z" />
        <path class="color-shadow-dark" d="M348.58,362.78,347,362.5Z" />
        <path class="color-shadow" d="M383.54,365.88l.19-.35.16.36-.17,0Z" />
        <path class="color-shadow" d="M424.38,365.92l.09-.42.27.31Z" />
    </g>
</svg>
