<svg id="Crop_Classic" data-name="Crop Classic" xmlns="http://www.w3.org/2000/svg" viewBox="0 0 672 960">

    <g>
        <path class="outline"
            d="M407.1,374.14c1.28,5.58,2.56,11.16,5.23,16.3.73,1.38.6,1.76-.48,2.33-1.33.69-2.19.6-2.82-.59a30.61,30.61,0,0,1-2.79-6.05,53.64,53.64,0,0,1-2.17-11.48,14.56,14.56,0,0,0-.79-4c-.32,1.92-.63,3.84-1,5.75-.52,3-1.07,5.93-1.61,8.9a1.25,1.25,0,0,1-1.55,1.1,1,1,0,0,1-.24-.05c-1.16-.47-2.55-.68-3.42-1.47-1.24-1.12.18-2.34.52-3.48.52-1.75,1.23-3.45,1.84-5.17a6.32,6.32,0,0,0,.41-1.37,1,1,0,0,0-.34-.79,1,1,0,0,0-.88,0c-.61.38-1.13.89-1.73,1.28a3.55,3.55,0,0,1-3.84.36,3,3,0,0,1-1.17-3.62,21.6,21.6,0,0,1,1.83-4.09,23.19,23.19,0,0,1,1.45-2.21,18.58,18.58,0,0,0-2.06-.17c-6.37.2-12.75.29-19.11.7-4.52.29-9,1.14-13.51,1.5-4.2.34-8.44.56-12.59-.62a31.62,31.62,0,0,0-3.52-.64c-2.34-.37-2.94-1-3.65-3.36a34,34,0,0,0-1.78-3.9,14.43,14.43,0,0,1-1-2.42c-.27-1.05.2-1.56,1.28-1.39,1.26.2,2.48.58,3.72.9a9.51,9.51,0,0,0,1.61.41c.19,0,.43-.48.58-.77,0-.08-.11-.29-.21-.41-2-2.67-2.77-5.87-3.68-9a2.69,2.69,0,0,1-.24-1.14,1.38,1.38,0,0,1,.73-.79c.16-.08.65.18.74.4.36.87.65,1.78.93,2.69a16.61,16.61,0,0,0,6.87,9.46,5.52,5.52,0,0,0,1.47.75c1.54.36,1.95-.12,1.61-1.73a3.82,3.82,0,0,1-.08-.95.7.7,0,0,1,1.17-.57c.92.76,1.73,1.65,2.66,2.4a2.27,2.27,0,0,0,1.42.57c5.31-.46,10.63-1,15.94-1.48a7.62,7.62,0,0,0,.88-.29c-.93-1.41-1.78-2.71-2.65-4-.44-.66-.93-1.29-1.35-2-.11-.18-.16-.56,0-.66s.6-.43.79-.35a3.74,3.74,0,0,1,1.28.91c1.34,1.47,2.61,3,3.95,4.49a5,5,0,0,0,3.93,1.88c3.19,0,6.38.19,9.58.24a1.44,1.44,0,0,0,1-.7c.49-.9.81-1.91,1.29-2.82.18-.34.64-.54,1-.8a9,9,0,0,1,.48,1.21,1.75,1.75,0,0,1-.05.71c-.38,2.51-.38,2.57,2.22,2.51,4.71-.12,9.41-.34,14.12-.43,1.1,0,1.36-.61,1.49-1.46.35-2.28.68-4.56,1.06-6.83.14-.82.09-1.75,1.1-2.42.88,1.79.14,3.52.24,5.18s0,3.31,0,5.09h14.54c.18-.92.28-1.68.49-2.42a1,1,0,0,1,.71-.46.69.69,0,0,1,.56.34c.19.66.29,1.35.48,2.31.38-.38.85-.63.88-.93.29-2.44.5-4.89.71-7.33a13.82,13.82,0,0,1,0-1.43c.06-.32.39-.59.59-.87.29.22.71.38.82.67a5.86,5.86,0,0,1,.28,1.63c.25,2.74.49,5.49.73,8.27,3.24.19,6.73.45,10.23.59,1.69.06,2-.24,2.48-1.91.56-2.07,1-4.18,1.48-6.27.07-.31,0-.7.2-.91a1.6,1.6,0,0,1,.92-.53c.14,0,.5.42.51.66a17.25,17.25,0,0,1-.12,2.38c-.24,2.12-.51,4.24-.81,6.65,1.54,0,3.09,0,4.64,0,2.86.08,5.76-.08,8.54,1.47.27-.61.51-1.07.68-1.55.74-2.19,1.46-4.39,2.2-6.57a3.91,3.91,0,0,1,.56-1.3c.2-.24.68-.25,1-.37.11.34.34.69.29,1-.34,1.88-.75,3.75-1.13,5.62-.24,1.24-.46,2.49-.76,4.06,1,0,1.74-.05,2.5,0s1.18.56.81,1.33c-.59,1.22-1.25,2.4-1.89,3.6-.22.42-.51.8-.72,1.23-1.24,2.59-2.41,3.27-5.22,3.16-1.34-.05-2.69.13-4,.09-2.3-.07-4.61-.17-6.91-.36-6-.48-12-1.05-18.07-1.52-4.21-.33-8.42-.61-12.63-.8-2.35-.1-4.71,0-7.3.07a19.78,19.78,0,0,1,1.12,2.68,17.9,17.9,0,0,1,.74,4.19c0,2.41-1.82,3.35-3.94,2.19-.56-.31-1.07-.7-1.6-1.05l-.69-.53a4.86,4.86,0,0,0-.12.84A1.3,1.3,0,0,0,407.1,374.14Zm1.38-9.88-1-1.42c0-.4,0-.79,0-1.18.55.3.72,0,.6-.46a6.07,6.07,0,0,0-.63-1.21l.56-.05c.34.37.7.73,1,1.13s.59.86.89,1.29a2.51,2.51,0,0,0,2.7,1.54c1.59,0,3.19,0,4.78,0s1.68-.05,1.39-2l.32-3a8.16,8.16,0,0,1,.63,1.32c.86,4.28.54,3.56,4.75,3.81a4.1,4.1,0,0,0,.91-.14l-.15-1.94,0,0a4.54,4.54,0,0,1,1.08.89c.9,1.4,2.26,1.58,3.75,1.65a1.7,1.7,0,0,0,2-1.26c.3-.79.17-1.89,1.4-2.51l-.34,3.9c1.22.43,2.13.42,2.49-1,.07-.27.4-.47.61-.69.84,2.72.5,2.16,3,2.36,1.27.11,2.53.2,3.8.27.6,0,1.21,0,2.06,0-.23-.87-.41-1.53-.59-2.2.14-1-.29-2.17.52-3.47.42,1.43.74,2.54,1.06,3.64a4.14,4.14,0,0,0,.27,1.14,5.65,5.65,0,0,0,.86,1l1.06-1.08c1.24,1.58,3,1.45,4.85,1.49v-2.7h0l.43.05.6,1.34c-.08.72-.11,1.42.91,1.44s1.35-.53,1.28-1.45l.69-2.27.71.06a.67.67,0,0,0,.13.34c-.1.7-.23,1.41-.27,2.12,0,.35,0,.91.24,1a1.72,1.72,0,0,0,1.12-.1c.49-.16,1-.62,1.43-.56a1.3,1.3,0,0,0,1.5-.84c.31-.58.65-1.15.9-1.58a4.31,4.31,0,0,0,.92.41c.33-.43.59-.93.88-1.4l.53-1c.59-.49.59-1.05-.13-1.25-2.76-.77-5.51-1.81-8.32-2.07-6.19-.57-12.41-.77-18.62-1-3.35-.13-6.71-.06-10.06-.05-4.24,0-8.47,0-12.7.11-4.94.16-9.87.62-14.81.76-4.7.13-9.42,0-14.13,0a228.42,228.42,0,0,0-23,.57c-2.06.21-4.11.51-6.17.68-5.08.4-10.18.95-15.15-.83a6.69,6.69,0,0,0-3.39-.56c.88,1.57,2.28,1.5,3.54,1.71l2,.37,1.36.08-1.44.69-4.24-.51c2,4.15,2,4.15,3.17,4.22.07-1-1.27-1.85-.17-3.08,1.37,2.19,2.59,4.36,5.36,4.8.15-.54.28-1,.48-1.67,1.29,2.49,3.25,2.44,5.36,2-.13-1-.25-1.84-.36-2.69a1.75,1.75,0,0,1,.4.05c.42,1.24,1.06,2.47,2.35,2.75,1.85.41,3.72.28,4.88-1.82.45,1.42.45,1.36,1.11,1.45,1.8.24,3-.72,4.13-1.91.06-.06.24,0,.37,0v1.53c1.6-.17,3.09-.35,4.59-.5a1,1,0,0,0,.94-1.12,13.63,13.63,0,0,0-.19-1.41c.07-.77.13-1.53.19-2.3h.41l.87,2.89c.67,1.86.67,1.84,2.28,1.34a2.68,2.68,0,0,1,1.09,0,24.73,24.73,0,0,0,6.47-.13c-.21-.72-.35-1.23-.5-1.75.83-.34,1.06.45,1.41.84a2.67,2.67,0,0,0,3.24.8c.39-.89-.43-2,.41-2.95.34.74.61,1.31.88,1.88a1.47,1.47,0,0,0,1.65,1.33c1.42,0,2.85,0,4.27,0l2,.52c-1.45,2-2.95,3.94-4.32,6a2.55,2.55,0,0,0-.26,2.92c.41.61,1.75.31,2.92-.88s2.38-2.77,3.56-4.16l3.5-4.45c-.74,3.53-1.39,6.6-2,9.67q-1.57,4.94-3.13,9.85c2.36.93,2.32.93,2.65-1.4.39-2.83.85-5.64,1.28-8.46.14-.76.29-1.53.43-2.29q.79-4.36,1.6-8.73a1,1,0,0,1,1.59-.1c.08,2.77.17,5.54.25,8.31l.66,5.76c.75,3.41,1.44,6.84,2.3,10.23a20.47,20.47,0,0,0,1.58,3.72c.22.48.56,1.06,1.27.73s.25-.92,0-1.36a67.49,67.49,0,0,1-4.4-13.34l-.93-5.77c.16-1.61-.34-3.26.16-5.11l1.13,2.32c.79,1.27,1.52,2.58,2.39,3.78a1.68,1.68,0,0,0,2,.84c1-.46.84-1.5.63-2.31a20,20,0,0,0-1.15-2.85C410,366.54,409.22,365.4,408.48,364.26Zm1.36-.44a2.65,2.65,0,0,0-.36-.57c-.05,0-.29.11-.44.17a4.11,4.11,0,0,0,.39.54S409.66,363.88,409.84,363.82Z" />
        <path class="color-base"
            d="M425.26,361.89l.15,1.94a4.1,4.1,0,0,1-.91.14c-4.21-.25-3.89.47-4.75-3.81a8.16,8.16,0,0,0-.63-1.32l-.32,3-8.87.5c-.3-.43-.56-.88-.89-1.29s-.66-.76-1-1.13l-2.2-.73a70.7,70.7,0,0,1,8.86-.83c4.3-.17,8.6-.39,12.9-.35,4.7,0,9.4.34,14.1.54,3.11.14,6.23.14,9.31.54,2.81.36,5.57,1.17,8.35,1.79,0,1-.19,1.94-1.51,2a.67.67,0,0,1-.13-.34l-.3-.9c-.14.28-.28.56-.41.84l-.69,2.27h-2.19l-.6-1.34-.19-.34-.24.29h0l-7,.17c-.32-1.1-.64-2.21-1.06-3.64-.81,1.3-.38,2.43-.52,3.47l-8.3-.44c-.21.22-.54.42-.61.69-.36,1.4-1.27,1.41-2.49,1l.34-3.9c-1.23.62-1.1,1.72-1.4,2.51a1.7,1.7,0,0,1-2,1.26c-1.49-.07-2.85-.25-3.75-1.65a4.54,4.54,0,0,0-1.08-.89l-.18-.11Z" />
        <path class="outline"
            d="M459.36,360.9c-2.78-.62-5.54-1.43-8.35-1.79-3.08-.4-6.2-.4-9.31-.54-4.7-.2-9.4-.5-14.1-.54-4.3,0-8.6.18-12.9.35a70.7,70.7,0,0,0-8.86.83l2.2.73-.56.05c-1-.09-.76.4-.47.94-.25.73-.56-.15-.84,0-1.59-1.61-1.67-1.63-3.44-.88a8.55,8.55,0,0,1-1.22.59c-.2.07-.49-.1-.73-.16l1.79-1.42h-21l-8.63,0h-1l-2.84.08-1.5.16-2.36.2c-2.77.21-5.55.37-8.32.65a47.93,47.93,0,0,1-12.83,0l1.44-.69,4.27.3a13.27,13.27,0,0,0,1.67,0c1-.08,2.05-.22,3.08-.3l7.62-.57c3.49-.27,7-.75,10.47-.79,4.38-.05,8.77.38,13.16.35,7.42-.05,14.84-.3,22.26-.47.24,0,.48,0,.72,0,4.29-.3,8.57-.79,12.86-.87s8.61.37,12.92.4a128.12,128.12,0,0,1,17.18,1.05c3,.42,5.94,1.08,8.91,1.63l4.43.82-.53,1Z" />
        <path class="color-shadow-dark"
            d="M465.1,361l-4.43-.82c-3-.55-5.93-1.21-8.91-1.63a128.12,128.12,0,0,0-17.18-1.05c-4.31,0-8.62-.47-12.92-.4s-8.57.57-12.86.87c-.24,0-.48,0-.72,0-7.42.17-14.84.42-22.26.47-4.39,0-8.78-.4-13.16-.35-3.49,0-7,.52-10.47.79l-7.62.57c-1,.08-2.05.22-3.08.3a13.27,13.27,0,0,1-1.67,0l-4.27-.3-1.36-.08-2-.37c-1.26-.21-2.66-.14-3.54-1.71a6.69,6.69,0,0,1,3.39.56c5,1.78,10.07,1.23,15.15.83,2.06-.17,4.11-.47,6.17-.68a228.42,228.42,0,0,1,23-.57c4.71,0,9.43.11,14.13,0,4.94-.14,9.87-.6,14.81-.76,4.23-.15,8.46-.1,12.7-.11,3.35,0,6.71-.08,10.06.05,6.21.24,12.43.44,18.62,1,2.81.26,5.56,1.3,8.32,2.07C465.69,360,465.69,360.51,465.1,361Z" />
        <path class="color-base"
            d="M373,359.14l8.63,0a18.27,18.27,0,0,0,2.52.38c5.26.06,10.53.08,15.79.11a18.81,18.81,0,0,1-1.09,1.78,17.89,17.89,0,0,1-1.4,1.49L389,363c-.27-.57-.54-1.14-.88-1.88-.84,1,0,2.06-.41,2.95a2.67,2.67,0,0,1-3.24-.8c-.35-.39-.58-1.18-1.41-.84l-9.34.52-.87-2.89Z" />
        <path class="color-shadow"
            d="M344.11,360.22a47.93,47.93,0,0,0,12.83,0c2.77-.28,5.55-.44,8.32-.65-.32.28-.61.76-1,.82-3.58.57-7.17,1.08-10.75,1.6l.2,1.35,0,0c.11.85.23,1.7.36,2.69-2.11.39-4.07.44-5.36-2-.2.71-.33,1.13-.48,1.67-2.77-.44-4-2.61-5.36-4.8-1.1,1.23.24,2.12.17,3.08-1.13-.07-1.13-.07-3.17-4.22Z" />
        <path class="color-base"
            d="M353.54,362c3.58-.52,7.17-1,10.75-1.6.36-.06.65-.54,1-.82l2.36-.2c.6.82,1.09.76,1.5-.16l2.84-.08c.18.3.35.6.52.9l-.19,2.3a18.87,18.87,0,0,1-2.78.51c-5.13.21-10.26.36-15.4.53a1.75,1.75,0,0,0-.4-.05l0,0Z" />
        <path class="color-shadow"
            d="M354.11,363.39c5.14-.17,10.27-.32,15.4-.53a18.87,18.87,0,0,0,2.78-.51,13.63,13.63,0,0,1,.19,1.41,1,1,0,0,1-.94,1.12c-1.5.15-3,.33-4.59.5v-1.53c-.13,0-.31-.05-.37,0-1.12,1.19-2.33,2.15-4.13,1.91-.66-.09-.66,0-1.11-1.45-1.16,2.1-3,2.23-4.88,1.82C355.17,365.86,354.53,364.63,354.11,363.39Z" />
        <path class="cls-6"
            d="M400.78,360.51c.24.06.53.23.73.16a8.55,8.55,0,0,0,1.22-.59c.22.43.83.83.14,1.37-.23-.1-.57-.35-.65-.28-1,.84-2,1.74-3,2.62a21.25,21.25,0,0,0-5.74,6.87,3.35,3.35,0,0,0-.09,1.28c.44-.06,1,.05,1.28-.19,1.3-1.16,2.51-2.42,3.75-3.64l.4.54c-1.18,1.39-2.27,2.87-3.56,4.16s-2.51,1.49-2.92.88a2.55,2.55,0,0,1,.26-2.92c1.37-2,2.87-4,4.32-6,.87-.8,1.77-1.57,2.62-2.4s.92-.93.69-2.48Z" />
        <path class="cls-6"
            d="M406.44,376.79a67.49,67.49,0,0,0,4.4,13.34c.21.44.79,1,0,1.36s-1.05-.25-1.27-.73A20.47,20.47,0,0,1,408,387c-.86-3.39-1.55-6.82-2.3-10.23Z" />
        <path class="color-shadow"
            d="M459.36,360.9l5.21,1.06c-.29.47-.55,1-.88,1.4a4.31,4.31,0,0,1-.92-.41c-.25.43-.59,1-.9,1.58a1.3,1.3,0,0,1-1.5.84c-.44-.06-.94.4-1.43.56a1.72,1.72,0,0,1-1.12.1c-.21-.12-.25-.68-.24-1,0-.71.17-1.42.27-2.12C459.17,362.84,459.33,361.92,459.36,360.9Z" />
        <path class="color-shadow"
            d="M436.19,362.92l8.3.44c.18.67.36,1.33.59,2.2-.85,0-1.46,0-2.06,0-1.27-.07-2.53-.16-3.8-.27C436.69,365.08,437,365.64,436.19,362.92Z" />
        <path class="color-shadow"
            d="M373.76,362.93l9.34-.52c.15.52.29,1,.5,1.75a24.73,24.73,0,0,1-6.47.13,2.68,2.68,0,0,0-1.09,0C374.43,364.77,374.43,364.79,373.76,362.93Z" />
        <path class="cls-6"
            d="M401.12,373.86c-.43,2.82-.89,5.63-1.28,8.46-.33,2.33-.29,2.33-2.65,1.4q1.56-4.91,3.13-9.85Z" />
        <path class="color-shadow"
            d="M409.93,362.36l8.87-.5c.29,2,.29,2-1.39,2s-3.19,0-4.78,0A2.51,2.51,0,0,1,409.93,362.36Z" />
        <path class="color-shadow"
            d="M446.07,363.53l7-.17v2.7c-1.89,0-3.61.09-4.85-1.49l-1.06,1.08a5.65,5.65,0,0,1-.86-1A4.14,4.14,0,0,1,446.07,363.53Z" />
        <path class="cls-6"
            d="M406.8,368.23l.62-.58a10.1,10.1,0,0,0,1.08,1.8c.43.47,1.21,1.17,1.58,1,.89-.3.24-1.19.25-1.84l.38-1a20,20,0,0,1,1.15,2.85c.21.81.35,1.85-.63,2.31a1.68,1.68,0,0,1-2-.84C408.32,370.81,407.59,369.5,406.8,368.23Z" />
        <path class="color-shadow"
            d="M389,363l8.36-.12c-.43,1.14-1.63.94-2.44,1.41-1.42,0-2.85,0-4.27,0A1.47,1.47,0,0,1,389,363Z" />
        <path class="outline"
            d="M395,364.27c.81-.47,2-.27,2.44-1.41a17.89,17.89,0,0,0,1.4-1.49,18.81,18.81,0,0,0,1.09-1.78h-.05l.42.33c.23,1.55.25,1.57-.69,2.48s-1.75,1.6-2.62,2.4Z" />
        <path class="color-shadow" d="M454.13,364.76h2.19c.07.92-.29,1.46-1.28,1.45S454.05,365.48,454.13,364.76Z" />
        <path class="cls-6"
            d="M407.51,361.66l-.5-.73c-.29-.54-.49-1,.47-.94a6.07,6.07,0,0,1,.63,1.21C408.23,361.64,408.06,362,407.51,361.66Z" />
        <path class="outline" d="M342.2,359.08l2,.37Z" />
        <path class="color-shadow-dark" d="M457,362.48c.13-.28.27-.56.41-.84l.3.9Z" />
        <path class="color-shadow" d="M407.52,362.84l1,1.42-.18.1-.85-1.47Z" />
        <path class="outline"
            d="M409.84,363.82c-.18.06-.37.17-.41.14a4.11,4.11,0,0,1-.39-.54c.15-.06.39-.21.44-.17A2.65,2.65,0,0,1,409.84,363.82Z" />
        <path class="color-shadow" d="M372.48,360.05l-.52-.9h1l-.06.9h-.41Z" />
        <path class="color-shadow" d="M453.1,363.37l.24-.29.19.34Z" />
        <path class="outline" d="M425.26,361.89l-.21-.08.18.11Z" />
        <path class="color-shadow"
            d="M399.89,359.59c-5.26,0-10.53,0-15.79-.11a18.27,18.27,0,0,1-2.52-.38h18.24l0,.49Z" />
        <path class="color-base" d="M399.84,359.58l0-.49h2.75l-1.79,1.42-.52-.6Z" />
        <path class="color-shadow" d="M369.12,359.23c-.41.92-.9,1-1.5.16Z" />
        <path class="outline" d="M353.54,362l.2,1.35Z" />
        <path class="outline"
            d="M401,364.32l-2.56,3.79c-1.24,1.22-2.45,2.48-3.75,3.64-.26.24-.84.13-1.28.19a3.35,3.35,0,0,1,.09-1.28,21.25,21.25,0,0,1,5.74-6.87Z" />
        <path class="outline" d="M401,364.32l-1.76-.53c1-.88,2-1.78,3-2.62.08-.07.42.18.65.28l-.26.48-.27.48-.14.47Z" />
        <path class="outline"
            d="M407.45,362.89l.85,1.47q1,2.14,2,4.29c0,.65.64,1.54-.25,1.84-.37.13-1.15-.57-1.58-1a10.1,10.1,0,0,1-1.08-1.8l-1.7-5.81Z" />
        <path class="color-base" d="M402.34,362.41l.27-.48Z" />
    </g>
</svg>
