<svg id="Crop_Classic" data-name="Crop Classic" xmlns="http://www.w3.org/2000/svg" viewBox="0 0 672 960">

    <g>
        <path class="color-base"
            d="M341.25,351.79c.86-1.47,1.47-1.82,2.23-.93,1.25,1.47,2.92,1.45,4.51,1.82,2.32.54,4.64,1.11,7,1.67a13.11,13.11,0,0,0,1.63.34,228.91,228.91,0,0,0,29.39.91c2.78-.1,5.53-.67,8.3-1,2.22-.25,4.43-.53,6.66-.68,8.27-.53,16.55-1.07,24.83-1.5,2.78-.14,5.58,0,8.37,0,2.4,0,4.8,0,7.19,0,4.61.15,9.23.36,13.84.56.56,0,1.11.13,1.67.2s1-.19,1.24-.82.94-1.45,1.26-2.24,1.12-.54,1.63-.55c.33,0,.9.65,1,1.07a11.5,11.5,0,0,1-.06,2.34c-.06,2.14-.11,4.27-.17,6.41a7.2,7.2,0,0,0-1.29,1.23c-.73,1.14-1.37,2.34-2,3.52a2.61,2.61,0,0,1-2.23,1.55c-1.26.1-2.52.28-3.77.48a70.33,70.33,0,0,1-11.86.92c-3.59,0-7.19,0-10.78,0-.56,0-1.12,0-1.68,0-3.95-.3-7.9-.68-11.85-.9a55.37,55.37,0,0,0-11.63.84,4.71,4.71,0,0,1-1.18,0,28.86,28.86,0,0,0-3.06-.32c-6.47,0-12.94,0-19.41,0-.72,0-1.44,0-2.15.06-3.32.29-6.63.65-10,.87-1.74.12-3.51,0-5.26,0a37.79,37.79,0,0,1-10.84-1.35,16.32,16.32,0,0,0-4-.54,3.13,3.13,0,0,1-2.69-1.25c-.53-.69-1-1.43-1.46-2.16s-.5-1.4-1.42-1.44c-.16-1-.28-2-.49-3C342.24,355.88,341.73,353.84,341.25,351.79Z" />
        <path class="outline"
            d="M465.43,353.25a11.7,11.7,0,0,1,.89-5.41,10.68,10.68,0,0,1,.52,1.59c.47,3,.87,6,1.35,9a5.34,5.34,0,0,1-.73,3.9,17.66,17.66,0,0,0-2.69,5.84,8.66,8.66,0,0,1-.74,1.76,3.15,3.15,0,0,1-3.24,2c-1.68-.09-3.36-.21-5-.21-3.91,0-7.83.18-11.74.11q-10.18-.21-20.37-.63c-10.14-.4-20.27-1.42-30.43-.58-6.84.57-13.67,1.38-20.5,2.12-5.8.63-11.56,1.62-17.44.85a29.45,29.45,0,0,1-7-1.55,39.72,39.72,0,0,0-3.9-1.15,4,4,0,0,1-3.09-2.93c-1.42-4.74-3.35-9.33-4.15-14.25-.12-.75-.18-1.5-.26-2.25l.45-.15.77,1.23c1.52,4.11,3.14,8.19,4.51,12.34a7.38,7.38,0,0,0,4.84,5,37.86,37.86,0,0,0,14.76,2.52,98.25,98.25,0,0,0,11-1,210.21,210.21,0,0,1,21.69-1.92,11.42,11.42,0,0,0,1.61-.31l8.06,0,4.82.25,3.88.13c3.24.19,6.49.43,9.73.58,2.85.14,5.7.18,8.54.27l7.17.11c1.6,0,3.2.11,4.79.06,3.27-.09,6.54-.28,9.81-.37a23.4,23.4,0,0,1,4.51.09c3.73.6,5.13-1.72,6.1-4.62a32.46,32.46,0,0,0,1.75-6.19A36.87,36.87,0,0,0,465.43,353.25Z" />
        <path class="color-shadow-dark"
            d="M396.47,369.16a11.42,11.42,0,0,1-1.61.31,210.21,210.21,0,0,0-21.69,1.92,98.25,98.25,0,0,1-11,1,37.86,37.86,0,0,1-14.76-2.52,7.38,7.38,0,0,1-4.84-5c-1.37-4.15-3-8.23-4.51-12.34.2-1.66.33-3.32.62-5a25.49,25.49,0,0,1,.9-3.06l.51.07c.11,1.54.18,3.07.33,4.6.09.92-.17,2,.79,2.62.48,2,1,4.09,1.44,6.14.21,1,.33,2,.49,3a31.33,31.33,0,0,0,1.15,4.12,4.27,4.27,0,0,0,1.82,2,20.82,20.82,0,0,0,4.5,1.55,71.26,71.26,0,0,0,9.09,1.8,51,51,0,0,0,9.08-.08c4.81-.43,9.59-1.32,14.4-1.67,3.9-.28,7.83-.08,11.75,0A5.23,5.23,0,0,1,396.47,369.16Z" />
        <path class="color-shadow-dark"
            d="M465.43,353.25a36.87,36.87,0,0,1,.2,6.2,32.46,32.46,0,0,1-1.75,6.19c-1,2.9-2.37,5.22-6.1,4.62a23.4,23.4,0,0,0-4.51-.09c-3.27.09-6.54.28-9.81.37-1.59,0-3.19,0-4.79-.06.16-.25.3-.7.49-.72,1-.11,2-.08,3.07-.18,2.43-.25,4.87-.53,7.3-.82,2.67-.33,5.32-.94,8-.49,1.56.26,2.28-.12,2.63-1.59.57-2.38,1-4.79,1.5-7.19.06-2.14.11-4.27.17-6.41a2.82,2.82,0,0,0,.85-.6c.41-.63.72-1.34,1.2-2.25C464.5,351.4,465,352.32,465.43,353.25Z" />
        <path class="color-shadow"
            d="M461.7,359.49c-.49,2.4-.93,4.81-1.5,7.19-.35,1.47-1.07,1.85-2.63,1.59-2.72-.45-5.37.16-8,.49-2.43.29-4.87.57-7.3.82-1,.1-2.05.07-3.07.18-.19,0-.33.47-.49.72l-7.17-.11c-.34-.26-.68-.72-1-.74-3.15-.22-6.3-.34-9.45-.53-1.89-.11-3.76-.33-5.65-.42-.79,0-1.83-.47-2.13.84l-3.88-.13-4.82-.25-8.06,0a5.23,5.23,0,0,0-1.5-.51c-3.92,0-7.85-.24-11.75,0-4.81.35-9.59,1.24-14.4,1.67a51,51,0,0,1-9.08.08,71.26,71.26,0,0,1-9.09-1.8,20.82,20.82,0,0,1-4.5-1.55,4.27,4.27,0,0,1-1.82-2,31.33,31.33,0,0,1-1.15-4.12c.92,0,1.05.85,1.42,1.44s.93,1.47,1.46,2.16a3.13,3.13,0,0,0,2.69,1.25,16.32,16.32,0,0,1,4,.54,37.79,37.79,0,0,0,10.84,1.35c1.75,0,3.52.09,5.26,0,3.32-.22,6.63-.58,10-.87.71-.06,1.43-.06,2.15-.06,6.47,0,12.94,0,19.41,0a28.86,28.86,0,0,1,3.06.32,4.71,4.71,0,0,0,1.18,0,55.37,55.37,0,0,1,11.63-.84c3.95.22,7.9.6,11.85.9.56.05,1.12,0,1.68,0,3.59,0,7.19,0,10.78,0a70.33,70.33,0,0,0,11.86-.92c1.25-.2,2.51-.38,3.77-.48a2.61,2.61,0,0,0,2.23-1.55c.65-1.18,1.29-2.38,2-3.52A7.2,7.2,0,0,1,461.7,359.49Z" />
        <path class="color-shadow-dark"
            d="M413.23,369.52c.3-1.31,1.34-.88,2.13-.84,1.89.09,3.76.31,5.65.42,3.15.19,6.3.31,9.45.53.36,0,.7.48,1,.74-2.84-.09-5.69-.13-8.54-.27C419.72,370,416.47,369.71,413.23,369.52Z" />
        <path class="color-shadow-dark" d="M404.53,369.14l4.82.25Z" />
    </g>
</svg>
