<svg id="Crop_Classic" data-name="Crop Classic" xmlns="http://www.w3.org/2000/svg" viewBox="0 0 672 960">
    <g>
        <path class="color-base"
            d="M338,352.35c1.41-.51,2.8-1.09,4.23-1.5a1.69,1.69,0,0,1,1.49.38c.73,1,1.72,1,2.75,1.18,2.8.57,5.59,1.27,8.38,1.91a9.33,9.33,0,0,0,1.63.36c6.85.36,13.68,1.21,20.56,1,6-.16,12-.22,17.9-1.26a57.32,57.32,0,0,1,5.72-.51c7.09-.46,14.17-1,21.27-1.33,4.22-.2,8.46-.05,12.69-.08,2.4,0,4.8-.15,7.19-.07,4.54.15,9.09.38,13.63.65,1,.06,1.89.42,2.48-.75a.89.89,0,0,1,.79-.41,10.78,10.78,0,0,1,2.86,1.06c.4.26.43,1.11.63,1.7a22.93,22.93,0,0,1-1.49,8.55l-4.27,0-1.58-.22c-2.48-.06-4.95-.1-7.42-.19-4.31-.16-8.64-.13-12.92-.58a205,205,0,0,0-23.89-1.12q-11.37.13-22.75.24c-7.73.07-15.47.09-23.21.19-7,.09-14,.27-21.06.41-.46-2.17-.95-4.33-1.38-6.5-.63-3.17-.72-3.27-3.85-3.09-.16,0-.31,0-.47.06Z" />
        <path class="outline"
            d="M456.45,363.22l4.27,0a23.54,23.54,0,0,1,2.78.39c.81.2,1.17-.16,1.41-.81a13.69,13.69,0,0,1,.68-2,13,13,0,0,1,1.38-1.77c.65,1.1.2,2.13-.17,3.19-.6,1.72-1.18,3.46-1.77,5.2-.21.6-.46,1.19-.68,1.79a3.72,3.72,0,0,1-4.24,2.67c-5.91-.38-11.82-.24-17.74-.11-6.3.13-12.61-.38-18.92-.64-10.06-.41-20.11-1.42-30.19-.57-6.92.58-13.82,1.42-20.74,2.15-5.71.61-11.4,1.58-17.19.83a30.7,30.7,0,0,1-7.22-1.62c-1.42-.54-2.9-.88-4.35-1.33a2.75,2.75,0,0,1-2.12-1.74c-1.63-5.09-3.67-10.06-4.54-15.38a3.78,3.78,0,0,1,.25-2.31l.66,1.15-.09.07c1,2.61,1.91,5.23,2.92,7.82.69,1.78.73,1.76,2.78,1.71,7-.14,14-.32,21.06-.41,7.74-.1,15.48-.12,23.21-.19s15.17-.15,22.75-.24a205,205,0,0,1,23.89,1.12c4.28.45,8.61.42,12.92.58,2.47.09,4.94.13,7.42.19Zm-101.75.07c.24,0,.47,0,.71,0q27.79,0,55.58-.08c2.47,0,4.95-.32,7.41-.22,5,.21,10,.74,15,.89,6.54.2,13.08.18,19.62.25l11.05.64a37.41,37.41,0,0,0-11.05-.85l-12.92-.58c-1.36-.06-2.73,0-4.07-.15a145.67,145.67,0,0,0-19.34-1.3c-8.39.05-16.78.19-25.16.26-5.11.05-10.22,0-15.33.07-7.18.16-14.36.45-21.54.68H344.54v.34Zm9.1,1c-2.31,0-4.62-.07-6.93,0-1.42,0-2.84.18-4.26.27l-5.66.14-2.93-.06c-.66,0-1.47-.09-1.12.91.56,1.63,1,3.38,3.24,3.68A13.86,13.86,0,0,1,349,370.4a32.7,32.7,0,0,0,14.36,1.89c5.25-.4,10.46-1.21,15.7-1.68s10.67-.75,16-1.14a9.18,9.18,0,0,0,1.36-.3l8.07,0,4.84.25,4.34.14,12,.52.93.06,4.37.25,10.52.11H447c2.84,0,5.68,0,8.52-.07a49.7,49.7,0,0,0,5.18-.36c1.17-.15,2.74-2.29,2.43-3.37-.37-1.34-1.65-.85-2.61-1a1,1,0,0,0-.24,0l-5.11-.13-7.4-.3c-6.69-.3-13.38-.63-20.08-.9-4.86-.2-9.72-.42-14.59-.45-5,0-10.05.18-15.08.22Q380.92,364.29,363.8,364.34Z" />
        <path class="color-shadow-dark"
            d="M467,359.07a13,13,0,0,0-1.38,1.77,13.69,13.69,0,0,0-.68,2c-.24.65-.6,1-1.41.81a23.54,23.54,0,0,0-2.78-.39,22.93,22.93,0,0,0,1.49-8.55l1.79.62a2.36,2.36,0,0,1,1.92,2.41A1.24,1.24,0,0,0,467,359.07Z" />
        <path class="color-shadow-dark"
            d="M343.62,362c-2.05.05-2.09.07-2.78-1.71-1-2.59-1.95-5.21-2.92-7.82.16,0,.31-.05.47-.06,3.13-.18,3.22-.08,3.85,3.09C342.67,357.62,343.16,359.78,343.62,362Z" />
        <path class="color-shadow-dark" d="M456.45,363.22l-1.58-.22Z" />
        <path class="color-shadow"
            d="M344,364.65l2.93.06c.42.33.86,1,1.24,1,2.21-.18,4.24.6,6.33,1.06a57,57,0,0,0,13.3.94c1.27,0,2.55,0,3.82-.14,2.68-.23,5.36-.74,8-.78,8.87-.1,17.74,0,26.62,0a9.52,9.52,0,0,0,2.14-.1c3.41-.76,6.85-.39,10.26-.29,4.2.12,8.39.6,12.59.86,1.67.1,3.35.06,5,0,4.38-.14,8.75-.29,13.13-.5,1.58-.07,3.15-.29,4.72-.51a3.11,3.11,0,0,0,1-.57l5.11.13c-.45,2.64-1.07,3-3.64,2.61a15.58,15.58,0,0,0-4.26,0c-3.14.4-6.2,1.33-9.4,1.26-.67,0-1.31,0-1.44.89L431,370.37c-1.38-1.35-2.87-.92-4.37-.25l-.93-.06c-.13-1-.89-.92-1.61-.95-3-.13-6,.34-9-.44a1,1,0,0,0-1.4.87l-4.34-.14-4.84-.25-8.07,0a9.69,9.69,0,0,0-2.21-.51c-4.61,0-9.21,0-13.83.35-3.57.27-7.08.86-10.62,1.2-3.13.29-6.22.92-9.41.39a72.06,72.06,0,0,1-12.95-3A5,5,0,0,1,344,364.65Z" />
        <path class="color-base"
            d="M455.18,365.6a3.11,3.11,0,0,1-1,.57c-1.57.22-3.14.44-4.72.51-4.38.21-8.75.36-13.13.5-1.68.05-3.36.09-5,0-4.2-.26-8.39-.74-12.59-.86-3.41-.1-6.85-.47-10.26.29a9.52,9.52,0,0,1-2.14.1c-8.88,0-17.75-.06-26.62,0-2.68,0-5.36.55-8,.78-1.27.12-2.55.11-3.82.14a57,57,0,0,1-13.3-.94c-2.09-.46-4.12-1.24-6.33-1.06-.38,0-.82-.62-1.24-1l5.66-.14c3.53,0,7.06.09,10.59.11.2,0,.4-.22.6-.34q17.11-.07,34.23-.17c5,0,10.06-.25,15.08-.22,4.87,0,9.73.25,14.59.45,6.7.27,13.39.6,20.08.9Z" />
        <path class="color-shadow"
            d="M354.7,363c7.18-.23,14.36-.52,21.54-.68,5.11-.11,10.22,0,15.33-.07,8.38-.07,16.77-.21,25.16-.26a145.67,145.67,0,0,1,19.34,1.3c1.34.17,2.71.09,4.07.15l12.92.58v.21c-6.54-.07-13.08-.05-19.62-.25-5-.15-10-.68-15-.89-2.46-.1-4.94.22-7.41.22q-27.8.08-55.58.08c-.24,0-.47,0-.71,0C354.69,363.18,354.7,363.07,354.7,363Z" />
        <path class="color-shadow-dark"
            d="M344,364.65a5,5,0,0,0,3.42,3,72.06,72.06,0,0,0,12.95,3c3.19.53,6.28-.1,9.41-.39,3.54-.34,7.05-.93,10.62-1.2,4.62-.36,9.22-.32,13.83-.35a9.69,9.69,0,0,1,2.21.51,9.18,9.18,0,0,1-1.36.3c-5.34.39-10.68.66-16,1.14s-10.45,1.28-15.7,1.68A32.7,32.7,0,0,1,349,370.4a13.86,13.86,0,0,0-2.89-1.16c-2.24-.3-2.68-2.05-3.24-3.68C342.55,364.56,343.36,364.61,344,364.65Z" />
        <path class="color-shadow-dark"
            d="M441.55,370.48c.13-.86.77-.9,1.44-.89,3.2.07,6.26-.86,9.4-1.26a15.58,15.58,0,0,1,4.26,0c2.57.39,3.19,0,3.64-2.61a1,1,0,0,1,.24,0c1,.11,2.24-.38,2.61,1,.31,1.08-1.26,3.22-2.43,3.37a49.7,49.7,0,0,1-5.18.36c-2.84.07-5.68.06-8.52.07Z" />
        <path class="color-shadow-dark" d="M413.71,369.54a1,1,0,0,1,1.4-.87c3,.78,6,.31,9,.44.72,0,1.48-.07,1.61.95Z" />
        <path class="color-shadow-dark" d="M453.06,364.18V364a37.41,37.41,0,0,1,11.05.85Z" />
        <path class="color-shadow-dark"
            d="M363.8,364.34c-.2.12-.4.35-.6.34-3.53,0-7.06-.07-10.59-.11,1.42-.09,2.84-.25,4.26-.27C359.18,364.27,361.49,364.32,363.8,364.34Z" />
        <path class="color-shadow-dark" d="M354.7,363c0,.12,0,.23,0,.34H344.54V363Z" />
        <path class="color-shadow-dark" d="M426.66,370.12c1.5-.67,3-1.1,4.37.25Z" />
        <path class="color-shadow-dark" d="M404.53,369.15l4.84.25Z" />
    </g>
</svg>
