<svg id="kapyushony_s_golovoy" data-name="kapyushony s golovoy" xmlns="http://www.w3.org/2000/svg"
    viewBox="0 0 672 960">
    <g id="img_62_img" data-name="img 62 img">
        <path class="outline"
            d="M384.92,29.27l1.92,0c3.82.6,6.87,2.65,9.67,5.16a4.75,4.75,0,0,1,1.1,1.09c.81,1.58,1.95,1.5,3.55,1.28a38.24,38.24,0,0,1,7.49-.07,55.07,55.07,0,0,1,6.36.93c4.22.75,7.07,3.26,9.28,6.88,5,8.24,8.84,17.06,12.36,26a45.66,45.66,0,0,1,2.64,8.65,107.93,107.93,0,0,1,1.32,12.06c.38,5.91.53,11.85.81,17.77.17,3.54.38,7.07.6,10.6.21,3.32.44,6.65.7,10,0,.2.37.47.6.52a9.22,9.22,0,0,1,4.06,2.44,5.13,5.13,0,0,0,1.78,1,11.05,11.05,0,0,1,5,3.33,14.26,14.26,0,0,1,1.6,3,22,22,0,0,0,3.07,4.36,8.21,8.21,0,0,1,2.61,6.43c-.09,1.27-.37,2.52-.55,3.78a14.06,14.06,0,0,0,3.7,12.09,68.79,68.79,0,0,1,6.25,8.47,4.47,4.47,0,0,1-2.31,6.67,33.74,33.74,0,0,1-3.56,1c-4.36,1.06-8.16,3.32-12,5.57-3.59,2.13-7,4.56-11,6.05a6.86,6.86,0,0,0-1.81,1.5c-1.59,1.39-3.1,2.89-4.78,4.15-4.08,3.08-8.22,6.14-13.1,7.82a64.67,64.67,0,0,1-8.79,2c-2.18.42-4.4.64-6.59,1a52.06,52.06,0,0,1-15.11.43,80.65,80.65,0,0,1-16.62-3.6c-6.56-2.24-12.66-5.41-17.64-10.26-3.33-3.25-6.71-6.55-9.2-10.56a20.83,20.83,0,0,1-1.31-2.41c-.24-.55-.51-.74-1.08-.58-1.34.38-2.69.72-4,1.11a1.55,1.55,0,0,1-1.9-.59,1.65,1.65,0,0,1,.09-2c.28-.42.53-.86,1-1.61-1.44.66-1.64-.09-1.91-.95-2.09-6.67-4.26-13.33-5.14-20.29-.51-4-.84-8.1-1-12.15-.16-4.44-.11-8.88,0-13.32.15-5,.53-10,.78-15.07s.46-10,.65-15.07c.1-2.64.11-5.27.2-7.91a80.18,80.18,0,0,1,.5-9.18,23.26,23.26,0,0,1,2.14-6.18,170.72,170.72,0,0,1,13.35-23.41,93,93,0,0,1,16.27-19,41.52,41.52,0,0,1,15.21-8.35C383.13,29.58,384,29.46,384.92,29.27Zm-8.34,39.41.13-.23-.29.08-.19.25Zm-.75.22-.39.27-.74.45c-3.07,2.07-6.17,4.12-9.2,6.25a1.78,1.78,0,0,0-.43,1.46c.23,1.92.58,3.83.9,5.74,1,5.67,1.83,11.35,2.92,17,.91,4.67,2.1,9.28,3.13,13.93.16.7.4.85,1.12.7A72.88,72.88,0,0,0,390.6,109c7.83-3.83,14.79-9,21.88-14,.48-.34.5-.65.37-1.2a44.49,44.49,0,0,0-4.91-11.63,40.28,40.28,0,0,0-3.14-5.08,45.09,45.09,0,0,0-9.79-9c-3-2-6-3.94-9-6-.83-.57-1.24-.56-1.64.4a3.41,3.41,0,0,1-.93,1.24c-2.82,2.35-5.66,4.66-8.5,7-.11.1-.33.07-.51.1l-.13-.2L375,70l.63-.57.44-.54Zm39.32,28.28-.31-.75-.26.11.26.92.32.24ZM411.2,84.35l-.3-.2.11.38.41.66.2.35,3.16,7.79,2.32-1.77-5.17-6.27a.21.21,0,0,0-.1-.16Zm15.45-.59-.25-.51a3.24,3.24,0,0,0-.06-.71q-2.5-7-5-13.91c-.1-.28-.18-.56-.26-.85l.29-.08c.26.48.54,1,.75,1.45,1.68,4,3.33,8,5,12a2.82,2.82,0,0,0,.52.58l.23.13a2.8,2.8,0,0,0-.17,1c.51,2,1.09,4,1.58,6,.15.59.48.56.94.64a3.6,3.6,0,0,1,1.93.68,9.44,9.44,0,0,1,1.95,3.19c1.06,3.55.4,7-.95,10.38A17.09,17.09,0,0,0,432,111q.13,3.93,0,7.86c-.07,2-.34,4-.52,5.93-.15,1.77-.3,3.53-.46,5.39,1.32-.1,2.5-.23,3.69-.26,1.6,0,3.2,0,4.8,0,1.25,0,1.21,0,1.1-1.29-.08-1-.08-2.07-.07-3.1,0-1.4.15-2.8.08-4.19-.33-6.25-.77-12.5-1.07-18.75-.27-5.62-.33-11.25-.64-16.87a59,59,0,0,0-1.07-8.16c-1-5-3-9.59-4.91-14.24-2.7-6.5-5.66-12.86-9.81-18.6-1.68-2.33-3.61-4.31-6.56-4.89a69.89,69.89,0,0,0-8.69-1.51c-2.83-.2-5.74-.46-8.57.38-.29.09-.78-.22-1.06-.47-3.21-3-6.44-5.85-10.66-7.37a8.4,8.4,0,0,0-5.72-.14,42.87,42.87,0,0,0-16,9.75A88,88,0,0,0,353.64,54.9a194,194,0,0,0-12.72,21c-2.39,4.77-4.34,9.64-4.28,15.13.05,4.75-.08,9.5-.2,14.25-.06,2.31-.27,4.61-.45,6.91-.21,2.69-.48,5.38-.71,8.07-.11,1.34-.2,2.69-.3,4-.3,4-.75,8.1-.85,12.15-.1,3.86.09,7.72.29,11.58a87.49,87.49,0,0,0,2.25,16.68c1.12,4.52,2.59,9,3.92,13.43a4.65,4.65,0,0,0,.48.87c.44-.29,1.07.07,1.44-.65a46,46,0,0,1,2.78-4.75,31.25,31.25,0,0,0,4.61-10.45c1.25-5.38,2.21-10.83,3.34-16.25a20.36,20.36,0,0,0,.14-7.22c-.61-4.38-1.13-8.78-1.47-13.19-.25-3.18-.19-6.39-.18-9.59a1.29,1.29,0,0,0-1.12-1.48,28.51,28.51,0,0,1-7.86-3.78,11.38,11.38,0,0,1-1-.85l.19-.3,1,.44c2.58,1.06,5.16,2.1,7.73,3.17.79.33,1,.12,1-.74.14-3.39.3-6.78.6-10.15.27-3.16.71-6.31,1.13-9.46.46-3.43,1-6.84,1.5-10.26.17-1.09.54-2.14.82-3.22l.34.09c-.06.34-.13.67-.18,1-.49,3-1.06,6.08-1.44,9.14-.48,3.89-.88,7.79-1.17,11.7s-.37,7.79-.56,11.69c0,.59.17.87.76,1,1,.15,2,.35,3.08.55.23-2.4.42-4.73.68-7.06.56-4.86.93-9.76,1.79-14.56,1.28-7.12,2.93-14.16,4.41-21.24a7.1,7.1,0,0,0,.1-1.66c-.16-3.79-.35-7.58-.51-11.36a6.42,6.42,0,0,1,.14-1.06,26.55,26.55,0,0,1,.39,3.93c.07,1.35.13,2.7.24,4s.24,2.49.37,3.74l.29.07c3.7-7.72,10.54-9.6,18.23-9.91-1.69-4.24-4.75-6.64-9.33-6.84-7-.3-12.8,2.35-17.6,7.36a1.13,1.13,0,0,1-.33.16,2.28,2.28,0,0,1,.44-1,13,13,0,0,1,4.31-3.55c4-2.45,8.18-4.08,12.93-3.88a12.08,12.08,0,0,1,7.76,2.64,41.63,41.63,0,0,1,3.41,3.72c.12-1.42.21-2.81,1.58-3.58a.38.38,0,0,0,.16-.3c-.06-1.76.51-3.61-.84-5.16-.65-.76-1.22-1.58-1.89-2.32A7.12,7.12,0,0,0,378,45c-.17,0-.35-.17-.52-.25,5.17-.51,7.82,3,10.54,6.53.45-.29,1-.6,1.5-1,.76-.56,2-.58,2.08-1.89a21.18,21.18,0,0,0-.06-3,11.58,11.58,0,0,0-.57-1.94l.29-.2,1.18,2A10.08,10.08,0,0,0,390,38.17c2.7,1.8,3.48,4.59,3.91,7.81l2.66-4.39c.2.29.27.35.28.42a.6.6,0,0,1,0,.35c-1.81,4.21-3.33,8.65-8.05,10.64-.81.34-.88.9-1,1.67A3.67,3.67,0,0,1,387,56.9c-1.15,1.07-.43,2.52-1,3.65a1.22,1.22,0,0,0,.34.28c1.72,1,3.46,2,5.15,3,2.17,1.35,4.38,2.65,6.42,4.18,6.6,4.93,11.54,11.44,16.55,17.87,1.23,1.58,2.2,3.37,3.33,5.13,1.11-.89,2.22-1.8,3.35-2.68.49-.38.37-.73.12-1.21a60.23,60.23,0,0,0-6.93-10.46c-2.88-3.57-5.62-7.27-9.26-10.15-.16-.12-.23-.37-.34-.56a1.33,1.33,0,0,1,.91.42c2.26,2.24,4.58,4.43,6.76,6.76a74,74,0,0,1,10,12.93,2.55,2.55,0,0,0,.67.52l.07.53,1.95,4.34a14.07,14.07,0,0,1,2.05-1.34c.79-.34.81-.8.63-1.5C427.38,87,427,85.39,426.65,83.76Zm-11.23,14c-.12.18-.38.39-.35.54.5,2.89,1,5.78,1.58,8.75.27-.77.51-1.51.8-2.24,1.6-4.08,3.17-8.19,6.05-11.6.12-.14.24-.39.19-.52-.58-1.41-1.19-2.8-1.83-4.3-1.27,1.1-2.39,2.06-3.49,3a2.3,2.3,0,0,0-.41.66l-.17.23a16.22,16.22,0,0,0-2.61,1.91c-.26.27.08,1.15.2,1.73s.31,1.15.48,1.72ZM370.29,167l2.06,1.8q8.5,7.38,17,14.74a33.22,33.22,0,0,0,2.76,1.93c.1-.35.06-.5,0-.62a87.52,87.52,0,0,0-10.09-12c-1.27-1.21-2.6-2.37-3.82-3.64-2.38-2.47-4.75-5-7-7.54a44.3,44.3,0,0,1-4.44-5.63,24,24,0,0,1-3.93-11.44c0-.68-.19-1.35-.29-2a1.12,1.12,0,0,0-.43.72c-.57,3.26-1,6.55-1.74,9.78a4.42,4.42,0,0,0,1.24,4.34,10.7,10.7,0,0,0,.72,1.23A52.12,52.12,0,0,0,370.29,167Zm74.07-7.7,5.15-7.37c.88-1.51,1.74-3,2.64-4.53a2.42,2.42,0,0,0-.17-2.81c-1-1.36-2-2.66-3-4.1-3,8.88-8.18,16.43-13.19,24.05a98.77,98.77,0,0,1-17.77,21c.24,0,.33.08.37,0a46.47,46.47,0,0,0,9-7.31c2.29-2.56,4.58-5.12,6.91-7.64,1.47-1.58,3.08-3,4.51-4.63C440.69,163.84,442.5,161.56,444.36,159.32Zm-5.75,36.19-7,1.61a12.72,12.72,0,0,1,6.25-2.81c5-1.05,9.39-3.53,13.66-6.2,2.44-1.53,4.72-3.32,7.21-4.75s5.13-2.58,7.73-3.8c1.93-.91,2.66-2.73,1.57-4.56-1.79-3-3.66-6-5.55-9a18.2,18.2,0,0,1-2.56-6,25.14,25.14,0,0,1-.51-7.86c.38-3.53-1.76-5.58-3.93-7.78a1.68,1.68,0,0,0-.23.34c-1.41,4.64-4.08,8.57-7,12.34-2.74,3.53-5.59,7-8.48,10.4-2.05,2.43-4.11,4.89-6.39,7.1-3.27,3.17-6.7,6.17-10.15,9.15a23.15,23.15,0,0,1-9.66,5.33,38.67,38.67,0,0,1-13.08,1,22.06,22.06,0,0,1-12.38-5.23c-3.37-2.87-6.76-5.72-10-8.7-5.45-4.94-10.94-9.84-16.17-15a22.31,22.31,0,0,1-6-11.93c-.27-1.4-.29-2.85-.42-4.28a1.68,1.68,0,0,0-.41.85q-1.29,6.14-2.56,12.28a46.41,46.41,0,0,1-2.76,9.89c-1.91,4.21-3.91,8.4-5.86,12.6-.36.76-.68,1.55-1.08,2.47l5.18-1.3a3,3,0,0,0,.57.77c1.38,1,2.77,1.9,4.19,2.79a21.79,21.79,0,0,0,6.67,3.17,10.48,10.48,0,0,1,4.61,2.16c-.25.06-.52.23-.73.17-4.35-1.21-8.92-1.72-12.82-4.33a1.18,1.18,0,0,0,.25.54c1.42,1.72,2.88,3.42,4.28,5.16a39.4,39.4,0,0,0,11.33,9.83,47.39,47.39,0,0,0,12.57,5.16l10.3,2.28c2.32.23,4.65.46,7,.67a19.06,19.06,0,0,0,2.27.07c3.1-.06,6.22,0,9.29-.26a60.17,60.17,0,0,0,7.71-1.56,57,57,0,0,0,7.23-1.94c4.32-1.64,8.11-4.28,11.85-7a48.89,48.89,0,0,0,4.16-3.75l.13-.14Zm-45-25.4-.29.28c-1.54-3-3.07-5.95-4.64-8.91-.16-.29-.69-.67-.9-.6-2.68.94-4.73-.18-6.62-1.91-.8-.72-1.63-1.4-2.45-2.1l-.41-.21,0,.26c.45,2.93,1,5.86,1.31,8.8a5.74,5.74,0,0,0,1.67,3.85c2,1.92,3.77,4.08,5.69,6.09a124.35,124.35,0,0,1,8.8,11,2.46,2.46,0,0,0,1.18.9,34.45,34.45,0,0,0,14.61.41,4,4,0,0,0,1.94-1c3.68-3.72,7.31-7.48,10.94-11.25.11-.11.1-.33.15-.51l.09,0,.08,0,1.13-.6c-.81-.68-1.63-.4-2.37-.71a53,53,0,0,0-5.58-1.73c-1.58-.47-3.2-.85-3.19-3a2.48,2.48,0,0,0-.15-.58,52.91,52.91,0,0,1-1.92-12.49c-.19-4.15-.16-8.3-.23-12.45,0-.62,0-1.23,0-1.86-.2,0-.3,0-.34,0-2.61,2.47-5.16,5-7.83,7.39-4.58,4.1-9.15,8.23-14.77,10.92-.54.26-.42.53-.23.93Q391.45,165.59,393.62,170.11Zm20.3-31.9c.93-2.75,1.93-5.47,2.78-8.24,1.05-3.41,1.36-7.06,3.24-10.22.53-.88,1-1.13,1.77-.49a17.2,17.2,0,0,1,1.57,1.62c.88.89,1.42.87,2.07-.19a22.38,22.38,0,0,0,1.75-3.27c1.51-3.82,2.9-7.69,4.37-11.53,1-2.76,2.28-5.47,2.36-8.48a8.61,8.61,0,0,0-1.44-5.68,2.85,2.85,0,0,0-2.7-1.24,7.32,7.32,0,0,0-4.91,2.68A22.44,22.44,0,0,0,422,97.79a70.17,70.17,0,0,0-5.18,14.13c-.3,1.14-.38,2.34-.57,3.51s-.35,2.14-.53,3.2c.45-4.48-1.46-19.89-2.54-22.81-.24.15-.48.28-.69.44-3.58,2.68-7.11,5.45-10.75,8a67.46,67.46,0,0,1-23.53,11l-5.55,1.31c.28,1.05.53,2.05.82,3.05a226.78,226.78,0,0,0,9,25.71c1.8,4.27,3.65,8.51,5.42,12.79.3.72.63.78,1.23.48a24.71,24.71,0,0,0,2.38-1.13c8.41-5.16,16.33-10.89,22.19-19-.08.83-.2,1.66-.22,2.48,0,1.94,0,3.88-.05,5.82s0,4.14,0,6.21c0,1.75,0,3.5.1,5.24.22,4,2.1,7.6,3.06,11.42a1.94,1.94,0,0,0,1.19,1.15c2.87.84,5.76,1.59,8.66,2.31a1.19,1.19,0,0,0,1-.29,36.05,36.05,0,0,0,2.36-3c1.28-1.83,2.49-3.7,3.74-5.56,3.47-5.17,7-10.33,10.41-15.52a18.11,18.11,0,0,0,3.42-9,6.27,6.27,0,0,0-6.08-6.84c-1.32,0-2.63,0-3.94,0a63,63,0,0,0-17.18,2,6.43,6.43,0,0,1-2.93.37c-1.09-.29-1.42.18-1.87.9S414.42,137.52,413.92,138.21Zm-56.35-5.59c.15.42.22,1.51.8,2a38.53,38.53,0,0,1,5.49,6.74,23.11,23.11,0,0,0,7.22,7.21,37,37,0,0,1,5.14,4.27c2.15,1.85,4.27,3.74,6.45,5.54a4.61,4.61,0,0,0,3.56,1c1.38-.16,1.38-.19.79-1.41a224.07,224.07,0,0,1-15.26-40.38c-.21-.78-.53-.92-1.23-.84-1.75.21-3.49.47-5.24.51-2.23,0-4.46-.1-6.69-.15-.37,0-.81-.18-.83.5,0,1.07-.18,2.14-.19,3.21C357.56,124.61,357.57,128.37,357.57,132.62Zm.28-17.06a46.07,46.07,0,0,0,12.36-.37c.6-.08.89-.29.66-1-.4-1.33-.67-2.71-1-4.06-2-8.57-3.42-17.25-4.67-26-.34-2.35-.67-4.69-1-7L364,77c-.34.5-.88,1-1,1.5-.89,4.47-1.74,8.94-2.51,13.42-.48,2.77-.82,5.56-1.16,8.34-.37,3-.69,6.07-1,9.1C358.13,111.42,358,113.48,357.85,115.56Zm64.31,16.26,5.63-1.2c.81-.17,1.91-.06,2.37-.55s.32-1.57.35-2.4c.19-5.1.35-10.2.51-15.31a3.17,3.17,0,0,0-.16-.66,3.34,3.34,0,0,0-.59,1.26,19.87,19.87,0,0,1-3.72,7.69,15.52,15.52,0,0,1-2,1.58,1.78,1.78,0,0,0-.56.83c-.49,2-.94,4.11-1.39,6.17C422.43,130.07,422.31,130.92,422.16,131.82Zm-69.38-15.61a141.8,141.8,0,0,0,2,23.88c.46-.41.77-.9,1.19-1,.9-.27,1-.84,1-1.64-.19-4.25-.39-8.51-.53-12.77,0-1.46.1-2.94.11-4.41,0-1.12.35-2.63-.22-3.27s-2.14-.56-3.27-.79A1,1,0,0,0,352.78,116.21Zm16.54,33.47-.19.22c.32,2.1.59,4.22,1,6.3a5.91,5.91,0,0,0,1.07,2.71c2.05,2.32,4.27,4.5,6.43,6.72a2.83,2.83,0,0,0,.49.36c-.24-2.61-.46-5.15-.72-7.68a4.84,4.84,0,0,0-2.23-3.82,54.23,54.23,0,0,1-4.64-4A11.55,11.55,0,0,0,369.32,149.68Zm12.9-86.44-.19-.41a59,59,0,0,0-10.3,2.4,11.75,11.75,0,0,0-6.65,6.18,3.41,3.41,0,0,0-.14,3.43A37.69,37.69,0,0,1,368.45,72c3.4-2.15,6.9-4.16,10.32-6.28C380,65,381.07,64.07,382.22,63.24Zm40.15,58.93c.21-.87-.63-.85-1.08-1.2-.62-.5-1-.27-1.17.45-.25,1-.55,2-.78,3-.52,2.24-1,4.5-1.52,6.75-.13.59-.25,1.19-.38,1.78.65-.07,1.31-.12,2-.2s1-.18,1.16-.94C421.12,128.59,421.76,125.38,422.37,122.17Zm-63.25,30.58c.06-.09.1-.12.11-.16.64-4,1.29-7.92,1.92-11.88a.67.67,0,0,0-.17-.52c-.5-.45-2.63,0-3,.57a5.75,5.75,0,0,0-.64,4.46A29.06,29.06,0,0,0,359.12,152.75Zm5.39-7.43a17.66,17.66,0,0,0,3.05,8.05C367.16,150.48,367.35,147.37,364.51,145.32Zm88.67-3.07c.26-2.19-1.46-4.94-3.44-5.11A14.92,14.92,0,0,0,453.18,142.25Zm-95.31-6.67c-.37,2.38-.3,2.45,1.46,1.9Zm6.31-60.91-.36-.09-.54,2,.45.11Zm50.38,21.52.15-.06-.19-.54-.18.07ZM354.8,140.68a1.38,1.38,0,0,0,.09-.27s-.1-.08-.15-.11Z" />
        <path class="color-base"
            d="M389.23,209.35l-10.3-2.28c-.25-.27-.46-.64-.77-.8a58,58,0,0,1-12.62-8.14c-1.09-1-2.23-1.87-3.35-2.8l.13-.23,14.42,3.19.09-.25-.72-.38c-3-1.61-6-3.18-8.93-4.85a32.77,32.77,0,0,1-3.13-2.27,10.48,10.48,0,0,0-4.61-2.16,21.79,21.79,0,0,1-6.67-3.17c-1.42-.89-2.81-1.84-4.19-2.79a3,3,0,0,1-.57-.77,5.54,5.54,0,0,0,.41-.85c1-3.22,2.07-6.44,3-9.69,1.45-5,2.81-9.94,4.22-14.92a10.45,10.45,0,0,1,.47-1.08c.2.47.31.68.38.91,1.73,5.81,5.21,10.52,9.34,14.81a64.25,64.25,0,0,0,4.87,4.61c2,1.7,4.11,3.25,6.19,4.85,1,.76,2,1.43,3,2.21a51.86,51.86,0,0,0,5,4.09,71.33,71.33,0,0,0,8.77,4.64,19.91,19.91,0,0,0,9.51,2c2.25-.17,4.54-.17,6.77-.54a21.26,21.26,0,0,0,7.76-2.59c2.11-1.27,4.35-2.34,6.57-3.43,3.4-1.68,6.69-3.51,9.28-6.38,1.89-2.1,3.8-4.19,5.76-6.23,3.28-3.43,6.69-6.73,9.29-10.74,2.12-3.27,4.2-6.57,6.3-9.86.13-.22.28-.43.57-.86,0,.57,0,.87.07,1.17a62,62,0,0,0,1.32,6.51c1.14,3.63,3.54,6.58,5.77,9.58a9.8,9.8,0,0,1,2,4.65,1.24,1.24,0,0,1-.78,1.51,52,52,0,0,0-5.07,2.66,34.76,34.76,0,0,0-4.51,3.3c-1.4,1.22-2.49,2.79-3.92,4-3.44,2.8-7.51,4.48-11.62,6a47.71,47.71,0,0,0-11.78,6c-3.73,2.78-7.7,5.24-11.67,7.67A22.48,22.48,0,0,1,402.71,209c-1.68,0-3.36,0-5,0-2.41,0-4.83,0-7.25,0A5.07,5.07,0,0,0,389.23,209.35Zm57.38-33.43,1-.66-.2-.24-.88.74-.21.39Zm-43.15,22.34c-.94-.11-1.89-.16-2.81-.34a46.84,46.84,0,0,1-14-5.48c-5.9-3.33-10.62-8-15.05-13-1.91-2.17-3.92-4.26-5.88-6.39l-.22.18a3.65,3.65,0,0,0,.32.54c2.54,3,5.06,6,7.62,8.93a47.25,47.25,0,0,0,20.76,14A23.37,23.37,0,0,0,403.46,198.26Zm44.23-23.46.17.19a8.65,8.65,0,0,0,1.21-1,58.82,58.82,0,0,0,4-5.18,24,24,0,0,0,2-4.53c.36-.93.15-1.46-.25-1.79a35.67,35.67,0,0,1-1.49,4.2,32.41,32.41,0,0,1-2.64,4.26C449.8,172.26,448.72,173.51,447.69,174.8Z" />
        <path class="color-shadow"
            d="M413.92,138.21c.5-.69,1-1.35,1.5-2.06s.78-1.19,1.87-.9a6.43,6.43,0,0,0,2.93-.37,63,63,0,0,1,17.18-2c1.31,0,2.62,0,3.94,0a6.27,6.27,0,0,1,6.08,6.84,18.11,18.11,0,0,1-3.42,9c-3.45,5.19-6.94,10.35-10.41,15.52-1.25,1.86-2.46,3.73-3.74,5.56a36.05,36.05,0,0,1-2.36,3,1.19,1.19,0,0,1-1,.29c-2.9-.72-5.79-1.47-8.66-2.31a1.94,1.94,0,0,1-1.19-1.15c-1-3.82-2.84-7.4-3.06-11.42-.09-1.74-.08-3.49-.1-5.24q0-3.1,0-6.21c0-1.94,0-3.88.05-5.82,0-.82.14-1.65.22-2.48l0,0,.26-.28Z" />
        <path class="color-shadow"
            d="M389.23,209.35a5.07,5.07,0,0,1,1.19-.3c2.42,0,4.84,0,7.25,0,1.68,0,3.36,0,5,0a22.48,22.48,0,0,0,12.51-3.44c4-2.43,7.94-4.89,11.67-7.67a47.71,47.71,0,0,1,11.78-6c4.11-1.57,8.18-3.25,11.62-6,1.43-1.17,2.52-2.74,3.92-4a34.76,34.76,0,0,1,4.51-3.3,52,52,0,0,1,5.07-2.66,1.24,1.24,0,0,0,.78-1.51,9.8,9.8,0,0,0-2-4.65c-2.23-3-4.63-5.95-5.77-9.58a62,62,0,0,1-1.32-6.51c-.05-.3,0-.6-.07-1.17-.29.43-.44.64-.57.86-2.1,3.29-4.18,6.59-6.3,9.86-2.6,4-6,7.31-9.29,10.74-2,2-3.87,4.13-5.76,6.23-2.59,2.87-5.88,4.7-9.28,6.38-2.22,1.09-4.46,2.16-6.57,3.43a21.26,21.26,0,0,1-7.76,2.59c-2.23.37-4.52.37-6.77.54a19.91,19.91,0,0,1-9.51-2,71.33,71.33,0,0,1-8.77-4.64,51.86,51.86,0,0,1-5-4.09c-.95-.78-2-1.45-3-2.21-2.08-1.6-4.2-3.15-6.19-4.85a64.25,64.25,0,0,1-4.87-4.61c-4.13-4.29-7.61-9-9.34-14.81-.07-.23-.18-.44-.38-.91a10.45,10.45,0,0,0-.47,1.08c-1.41,5-2.77,10-4.22,14.92-.94,3.25-2,6.47-3,9.69a5.54,5.54,0,0,1-.41.85l-5.18,1.3c.4-.92.72-1.71,1.08-2.47,1.95-4.2,3.95-8.39,5.86-12.6a46.41,46.41,0,0,0,2.76-9.89q1.28-6.13,2.56-12.28a1.68,1.68,0,0,1,.41-.85c.13,1.43.15,2.88.42,4.28a22.31,22.31,0,0,0,6,11.93c5.23,5.16,10.72,10.06,16.17,15,3.29,3,6.68,5.83,10,8.7A22.06,22.06,0,0,0,400.53,190a38.67,38.67,0,0,0,13.08-1,23.15,23.15,0,0,0,9.66-5.33c3.45-3,6.88-6,10.15-9.15,2.28-2.21,4.34-4.67,6.39-7.1,2.89-3.42,5.74-6.87,8.48-10.4,2.92-3.77,5.59-7.7,7-12.34a1.68,1.68,0,0,1,.23-.34c2.17,2.2,4.31,4.25,3.93,7.78A25.14,25.14,0,0,0,460,160a18.2,18.2,0,0,0,2.56,6c1.89,3,3.76,5.94,5.55,9,1.09,1.83.36,3.65-1.57,4.56-2.6,1.22-5.25,2.37-7.73,3.8s-4.77,3.22-7.21,4.75c-4.27,2.67-8.63,5.15-13.66,6.2a12.72,12.72,0,0,0-6.25,2.81l7-1.61a1.14,1.14,0,0,0,.11.11,48.89,48.89,0,0,1-4.16,3.75c-3.74,2.68-7.53,5.32-11.85,7a57,57,0,0,1-7.23,1.94,60.17,60.17,0,0,1-7.71,1.56c-3.07.31-6.19.2-9.29.26a19.06,19.06,0,0,1-2.27-.07C393.88,209.81,391.55,209.58,389.23,209.35Z" />
        <path class="color-shadow"
            d="M444.36,159.32c-1.86,2.24-3.67,4.52-5.6,6.7-1.43,1.61-3,3-4.51,4.63-2.33,2.52-4.62,5.08-6.91,7.64a46.47,46.47,0,0,1-9,7.31s-.13,0-.37,0a98.77,98.77,0,0,0,17.77-21c5-7.62,10.2-15.17,13.19-24.05,1.07,1.44,2.09,2.74,3,4.1a2.42,2.42,0,0,1,.17,2.81c-.9,1.5-1.76,3-2.64,4.53v-2.31l-.31,0a2.67,2.67,0,0,0-.32.43c-.83,1.63-1.61,3.28-2.48,4.89-.64,1.19-1.4,2.31-2.06,3.5C444.21,158.65,443.64,159.05,444.36,159.32Z" />
        <path class="color-shadow"
            d="M361.59,157.44a4.42,4.42,0,0,1-1.24-4.34c.72-3.23,1.17-6.52,1.74-9.78a1.12,1.12,0,0,1,.43-.72c.1.68.25,1.35.29,2a24,24,0,0,0,3.93,11.44,44.3,44.3,0,0,0,4.44,5.63c2.27,2.57,4.64,5.07,7,7.54,1.22,1.27,2.55,2.43,3.82,3.64a87.52,87.52,0,0,1,10.09,12c.09.12.13.27,0,.62a33.22,33.22,0,0,1-2.76-1.93q-8.55-7.34-17-14.74l-2.06-1.8A3,3,0,0,0,370,166a38.23,38.23,0,0,1-6.3-12.23c-.16-.58-.35-1.15-.52-1.72a3.81,3.81,0,0,0-.61,1.47C362.27,154.8,361.93,156.12,361.59,157.44Z" />
        <path class="color-shadow"
            d="M364.05,190.54a32.77,32.77,0,0,0,3.13,2.27c2.94,1.67,5.95,3.24,8.93,4.85l.72.38-.09.25-14.42-3.19-.13.23c1.12.93,2.26,1.83,3.35,2.8a58,58,0,0,0,12.62,8.14c.31.16.52.53.77.8a47.39,47.39,0,0,1-12.57-5.16A39.4,39.4,0,0,1,355,192.08c-1.4-1.74-2.86-3.44-4.28-5.16a1.18,1.18,0,0,1-.25-.54c3.9,2.61,8.47,3.12,12.82,4.33C363.53,190.77,363.8,190.6,364.05,190.54Z" />
        <path class="color-shadow"
            d="M369.32,149.68a11.55,11.55,0,0,1,1.22.85,54.23,54.23,0,0,0,4.64,4,4.84,4.84,0,0,1,2.23,3.82c.26,2.53.48,5.07.72,7.68a2.83,2.83,0,0,1-.49-.36c-2.16-2.22-4.38-4.4-6.43-6.72a5.91,5.91,0,0,1-1.07-2.71c-.42-2.08-.69-4.2-1-6.3Z" />
        <path class="color-shadow"
            d="M359.12,152.75a29.06,29.06,0,0,1-1.82-7.53,5.75,5.75,0,0,1,.64-4.46c.41-.58,2.54-1,3-.57a.67.67,0,0,1,.17.52c-.63,4-1.28,7.92-1.92,11.88C359.22,152.63,359.18,152.66,359.12,152.75Z" />
        <path class="color-base"
            d="M361.59,157.44c.34-1.32.68-2.64,1-4a3.81,3.81,0,0,1,.61-1.47c.17.57.36,1.14.52,1.72A38.23,38.23,0,0,0,370,166a3,3,0,0,1,.26,1.07,52.12,52.12,0,0,1-8-8.35A10.7,10.7,0,0,1,361.59,157.44Z" />
        <path class="color-base"
            d="M444.36,159.32c-.72-.27-.15-.67,0-.9.66-1.19,1.42-2.31,2.06-3.5.87-1.61,1.65-3.26,2.48-4.89a2.67,2.67,0,0,1,.32-.43l.31,0V152Z" />
        <path class="color-shadow" d="M364.51,145.32c2.84,2.05,2.65,5.16,3.05,8.05A17.66,17.66,0,0,1,364.51,145.32Z" />
        <path class="color-shadow"
            d="M453.18,142.25a14.92,14.92,0,0,1-3.44-5.11C451.72,137.31,453.44,140.06,453.18,142.25Z" />
        <path class="color-shadow"
            d="M393.62,170.11c1.28,2.19,2.54,4.38,3.84,6.55a20.12,20.12,0,0,1,1.37,2.27,33,33,0,0,1-5.5-8.54Z" />
        <path class="color-shadow" d="M426.65,83.76l-3.49,3.39-.07-.53,3.31-3.37Z" />
        <path class="color-base" d="M357.87,135.58l1.46,1.9C357.57,138,357.5,138,357.87,135.58Z" />
        <path class="color-shadow" d="M415.86,97.71l.68,2.3-.39.12-.73-2.34Z" />
        <path class="color-base" d="M364.18,74.67l-.45,2-.45-.11.54-2Z" />
        <path class="color-base" d="M411.2,84.35l.63.78-.41.06-.41-.66Z" />
        <path class="color-base" d="M414.84,97.46l-.26-.92.26-.11.31.75Z" />
        <path class="color-shadow" d="M414.56,96.19l-.22-.53.18-.07.19.54Z" />
        <path class="color-shadow" d="M354.8,140.68l-.06-.38c.05,0,.14.07.15.11A1.38,1.38,0,0,1,354.8,140.68Z" />
        <path class="color-base" d="M378.72,156.87l-.44,0,0-.26Z" />
        <path class="color-base" d="M411,84.53l-.11-.38.3.2Z" />
        <path class="color-base" d="M375.83,68.9l.22-.05Z" />
        <path class="color-base" d="M376.42,68.53l.29-.08-.13.23Z" />
        <path class="color-shadow" d="M424.57,175.2l0-.2.15.19-.08,0Z" />
        <path class="color-shadow" d="M418,92.12a2,2,0,0,0-.17.23A2,2,0,0,1,418,92.12Z" />
        <path class="color-shadow" d="M438.61,195.51l.24,0-.13.14A1.14,1.14,0,0,1,438.61,195.51Z" />
        <path class="color-base" d="M376.58,68.68l-.35.1.19-.25Z" />
        <path class="color-shadow" d="M427.62,81.73l.89-1.44.36.24-1,1.33Z" />
        <path class="color-shadow" d="M390.87,43.45l-.6-1.1.32-.19.6,1Z" />
        <path class="outline" d="M390.87,43.45l.32-.31a.24.24,0,0,1,.06.2l-.29.2A.11.11,0,0,1,390.87,43.45Z" />
        <path class="outline"
            d="M403.46,198.26a23.37,23.37,0,0,1-9.27-1.57,47.25,47.25,0,0,1-20.76-14c-2.56-3-5.08-5.95-7.62-8.93a3.65,3.65,0,0,1-.32-.54l.22-.18c2,2.13,4,4.22,5.88,6.39,4.43,5,9.15,9.71,15.05,13a46.84,46.84,0,0,0,14,5.48C401.57,198.1,402.52,198.15,403.46,198.26Z" />
        <path class="outline"
            d="M447.69,174.8c1-1.29,2.11-2.54,3.06-3.88a32.41,32.41,0,0,0,2.64-4.26,35.67,35.67,0,0,0,1.49-4.2c.4.33.61.86.25,1.79a24,24,0,0,1-2,4.53,58.82,58.82,0,0,1-4,5.18,8.65,8.65,0,0,1-1.21,1Z" />
        <path class="outline" d="M446.49,175.76l.88-.74.2.24-1,.66Z" />
        <path class="outline" d="M446.61,175.92l-.33.23.21-.39Z" />
        <path class="outline"
            d="M428,101.88c-.43-.36-.86-.71-1.28-1.08s-.7-.17-.78.33a4.69,4.69,0,0,0,0,.84c0,2,.11,4-.08,6.06a5.83,5.83,0,0,1-1.22,2.4,18.54,18.54,0,0,1-1.49,1.72c-.43.51-1,1-.07,1.65a1.48,1.48,0,0,1-.37,1,1.34,1.34,0,0,1-2-1.34,2.42,2.42,0,0,1,1.31-2.14c.46-.25,1-.44,1.39-.7a3.38,3.38,0,0,0,1.72-3.57c-.21-3.67-.3-7.37,1.51-10.75A9,9,0,0,1,428.43,94a2.05,2.05,0,0,1,3.3.56h-.47c-1.23-.88-2.07-.94-2.87.21a22.85,22.85,0,0,0-1.91,3.91c-.07.17.17.53.32.76.5.75,1,1.48,1.55,2.22Z" />
        <path class="outline"
            d="M430.44,105.54a20.7,20.7,0,0,0,1-7.12c0-.43-.12-.86-.18-1.28l.46,0a16.87,16.87,0,0,1-1,8.67Z" />
        <path class="outline"
            d="M427.9,111.62c-.86.41-1.54.76-2.25,1-.17.07-.46-.17-.69-.26.11-.2.16-.47.33-.58A2.15,2.15,0,0,1,427.9,111.62Z" />
        <path class="color-shadow" d="M430.44,105.54l.33.3-.54,1.43-.41-.16Z" />
        <path class="color-shadow" d="M431.72,97.17l-.46,0-.44-.78C431.55,96.33,431.55,96.33,431.72,97.17Z" />
        <path class="color-shadow" d="M428.66,102.19l.57,1.12-.34.17-.52-1Z" />
        <path class="outline" d="M428.66,102.19l-.29.28-.39-.59.37-.24Z" />
        <path class="color-shadow" d="M431.26,94.54h.47l0,.36Z" />
        <path class="outline" d="M414,138.19l-.26.28Z" />
        <path class="outline"
            d="M371.46,72.7c.82-.63,1.64-1.26,2.48-1.86.13-.1.35-.06.53-.09-.07.18-.09.44-.22.53-.9.65-1.83,1.28-2.75,1.91Z" />
        <path class="color-shadow" d="M371.46,72.7l0,.49-.75.27Z" />
        <path class="outline" d="M403.86,165.35l-.34-8.23.32,0c.76,2.71.48,5.5.52,8.26Z" />
        <path class="color-shadow" d="M403.86,165.35h.5l-.18,2.42-.32-.28Z" />
        <path class="color-shadow" d="M404.15,169l-.38,2.61-.47-.08.5-2.54Z" />
        <path class="outline" d="M404.15,169h-.35l.06-1.44.32.28Z" />
    </g>
</svg>
