<svg id="kapyushony_s_golovoy" data-name="kapyushony s golovoy" xmlns="http://www.w3.org/2000/svg"
    viewBox="0 0 672 960">
    <g id="img_59_img" data-name="img 59 img">
        <path class="color-base" d="M384.94,29.26l0-.24h1.92v.22Z" />
        <path class="outline"
            d="M384.94,29.26l1.9,0c4.92.73,8.52,3.6,11.63,7.21a1.14,1.14,0,0,0,1.45.45,11.66,11.66,0,0,1,2.81-.43,52.57,52.57,0,0,1,12.44,1.09c4.35.92,7.13,3.54,9.34,7.2C430.1,54,434.26,63.92,438,74a32.29,32.29,0,0,1,1.88,8.82c.32,4.07.67,8.14.95,12.22.19,2.69.31,5.4.43,8.09.2,4.46.3,8.93.56,13.38.23,4.08.64,8.15.92,12.23.06,1-.16,2-.15,2.94,0,1.53.05,1.51,1.52,1.54a32.18,32.18,0,0,1,4.17.22,8.8,8.8,0,0,1,5.84,3.62,10,10,0,0,1,1.4,2.53,12,12,0,0,0,3.14,4.61,7.5,7.5,0,0,1,2.64,4.83,14,14,0,0,1-.25,3.53,19.81,19.81,0,0,0-.06,7.71,13.52,13.52,0,0,0,3,5.63c2.33,3,4.62,6,6.74,9.15a4.41,4.41,0,0,1-2.22,6.44,16.92,16.92,0,0,1-2.51.77,41,41,0,0,0-12.63,5.62c-2.61,1.63-5.26,3.19-7.91,4.75a9.83,9.83,0,0,1-2.16,1,8.11,8.11,0,0,0-3.32,2.22A58.1,58.1,0,0,1,421.77,208a30.14,30.14,0,0,1-6.26,1.53c-3.41.58-6.86.93-10.29,1.46a55.72,55.72,0,0,1-17.76-.45,66,66,0,0,1-17.73-5.22c-5.71-2.72-10.94-6.12-15-11.08-2.08-2.52-4.2-5-6.26-7.56a10.11,10.11,0,0,1-1.14-2c-.64-1.32-.69-1.35-2.12-.88-1,.32-2,.63-3,.92-.76.22-1.52.31-2-.48a1.67,1.67,0,0,1,.23-2.09,8.6,8.6,0,0,0,.47-.84l.08-.4-.3.06c-.6.24-1,.22-1.27-.53-2.56-8.12-5-16.25-5.9-24.76-.7-6.43-.46-12.86-.36-19.28.13-7.7.64-15.4,1-23.1.24-5.78.46-11.56.7-17.34a84.42,84.42,0,0,1,.5-9.3,25.4,25.4,0,0,1,2.3-6.51,169.17,169.17,0,0,1,11.52-20.57,103.79,103.79,0,0,1,16.32-20,40.81,40.81,0,0,1,17.18-9.8C383.38,29.52,384.17,29.42,384.94,29.26Zm-9,39.85.1-.23-.25.09-.35.2-1.07.66c-3,2-6,4-9,6.12-.3.21-.37.94-.31,1.4.25,1.92.58,3.83.9,5.75,1,5.66,1.83,11.34,2.92,17,.91,4.67,2.1,9.28,3.13,13.93.16.73.44.83,1.13.69a72.58,72.58,0,0,0,18.1-6c7.57-3.8,14.33-8.85,21.23-13.69.48-.34.5-.66.37-1.21a37.74,37.74,0,0,0-4.05-10.19,58.27,58.27,0,0,0-4-6.51,43.38,43.38,0,0,0-9.77-9c-2.93-2-5.95-3.9-8.88-5.91-.87-.6-1.31-.64-1.83.41a6.23,6.23,0,0,1-1.67,2c-2.69,2.18-5.44,4.3-8.16,6.44l-.22-.44.76-.76.59-.52Zm.49-.58-.15.3.3-.15.13-.23Zm34.47,15.4-.23-.13.05.29.52.89h.35l0-.27Zm3.64,12.55.3,1,1.83,9.57c.05-.11.11-.21.15-.32,1.65-4.76,3.42-9.45,6.64-13.44a.86.86,0,0,0,.15-.72c-.51-1.36-1.07-2.71-1.67-4.2-1.15,1-2.14,1.85-3.11,2.73a12.7,12.7,0,0,0-.88,1l-.16.22a19.22,19.22,0,0,0-2.69,2c-.23.23.14,1.08.27,1.64s.32,1.14.48,1.71l-.59-.3-.11-.22-.23-.72-.39-.89-.19.06Zm8.61-9.33,1.91,4.44a21.59,21.59,0,0,1,2.31-1.48.84.84,0,0,0,.54-1.12c-.42-1.75-.83-3.49-1.25-5.23l-.26-.51a2.76,2.76,0,0,0-.06-.71l-5.08-14c-.09-.25-.13-.52-.2-.77l.33-.11c2.07,4.57,4.12,9.15,5.81,13.89l.53.49c0,.19-.15.39-.11.56.56,2.12,1.11,4.23,1.73,6.33a1.06,1.06,0,0,0,.84.49,3.34,3.34,0,0,1,3,1.69,9.22,9.22,0,0,1,1.41,5.56,22.82,22.82,0,0,1-1.47,7.21,16.38,16.38,0,0,0-1.06,4.24c-.13,2.1.16,4.22.13,6.32s-.2,4-.37,6c-.28,3.24-.59,6.47-.9,9.71-.12,1.25-.27,2.5-.41,3.71,3.3-.21,6.5-.42,9.71-.59.56,0,.62-.24.61-.73-.09-2.66-.16-5.33-.21-8,0-1.08.06-2.17,0-3.24-.37-6.17-.93-12.33-1.12-18.5s0-12.61-.81-18.89c-.26-2.09-.44-4.2-.88-6.25a81.38,81.38,0,0,0-4.85-14.11c-2.77-6.69-5.8-13.23-10.11-19.1-1.54-2.11-3.34-3.9-6-4.51a59.3,59.3,0,0,0-6.41-1.33,33.57,33.57,0,0,0-11.09.13,1.4,1.4,0,0,1-1-.29c-2.15-1.78-4.15-3.77-6.43-5.36-3.77-2.62-7.7-3.58-12.34-1.56a52.59,52.59,0,0,0-19,14.48c-7.59,8.79-13.56,18.65-19,28.82-2.7,5-5,10.15-4.9,16,.05,4.71-.07,9.42-.2,14.13-.07,2.46-.3,4.92-.49,7.38-.2,2.61-.46,5.22-.67,7.83-.14,1.91-.22,3.82-.37,5.72-.24,3.17-.67,6.34-.73,9.51-.06,3.38.32,6.76.31,10.14a80.84,80.84,0,0,0,2.15,18.49c1.12,4.84,2.74,9.57,4.07,14.36.25.92.93,0,1.2.45.18-.11.42-.18.52-.33.95-1.58,1.76-3.24,2.82-4.74a26.88,26.88,0,0,0,4.09-8.62c1.45-5.58,2.53-11.27,3.68-16.93a20.16,20.16,0,0,0,.63-5.32c-.3-4.2-1-8.37-1.34-12.57-.34-4.45-.45-8.93-.56-13.39a1.38,1.38,0,0,0-1.18-1.55,28.07,28.07,0,0,1-7.85-3.79,9.58,9.58,0,0,1-1-.86l.2-.3a41.44,41.44,0,0,0,9.54,3.84c.51-5.88.85-11.61,1.56-17.29s1.08-11.25,2.89-16.65c-.06,1.18-.37,2.32-.51,3.49-.67,5.3-1.38,10.6-1.91,15.92-.39,4-.57,7.93-.79,11.9-.05,1-.27,2.29.24,2.88s1.86.4,2.8.7.95,0,1-.78c.63-6.38,1.06-12.8,2.06-19.12,1.13-7.18,2.68-14.29,4.26-21.39a20.81,20.81,0,0,0,.24-5.67c-.14-3.07-.21-6.14-.29-9.22a1.66,1.66,0,0,1,.21-.6c.18,1.33.24,2.62.31,3.91s.13,2.7.24,4,.24,2.51.36,3.76l.28.09c3.73-7.69,10.53-9.64,18.22-9.93a9.82,9.82,0,0,0-9.28-6.84c-7-.31-12.8,2.33-17.6,7.34a1.1,1.1,0,0,1-.34.18l-.22-.24a15.34,15.34,0,0,1,2.18-2.42c5.19-3.78,10.72-6.54,17.46-5.6a11.25,11.25,0,0,1,7.52,4c.59.71,1.16,1.43,1.9,2.34.11-1.59.21-2.93,1.57-3.67a.43.43,0,0,0,.16-.31A14.48,14.48,0,0,0,386,51.4c-.8-3.06-4.61-6-7.78-6.35-.25,0-.5-.11-.76-.16l.15-.34c5.11-.39,7.66,3.24,10.38,6.75.91-.54,1.92-1.1,2.89-1.73a1.6,1.6,0,0,0,.55-.85,7.31,7.31,0,0,0-.61-5.21l-.53-1.17.35-.16,1.76,2.91a8.79,8.79,0,0,0-2-6,5.08,5.08,0,0,1-.51-1l.44-.25a23.56,23.56,0,0,1,2.34,3.36,22.45,22.45,0,0,1,1.14,3.87l.1.61.38-.55c.53-.89,1-1.79,1.6-2.66a4.68,4.68,0,0,1,.78-.76,3,3,0,0,1,0,1.17c-1,2.19-2.09,4.39-3.25,6.52a5.68,5.68,0,0,1-1.65,1.7,25.1,25.1,0,0,1-3,1.9,1.35,1.35,0,0,0-.85,1.49,3.8,3.8,0,0,1-1.08,2.75c-.63.83-.55,2.2-.77,3.34,0,0,.16.16.26.21,2,1.17,4,2.26,6,3.52a87.19,87.19,0,0,1,7.65,5.35c5.88,4.83,10.39,10.93,15,16.93,1.05,1.38,1.85,2.95,2.81,4.49,1.17-.94,2.31-1.88,3.48-2.78.5-.39.37-.75.12-1.23a59.17,59.17,0,0,0-6.91-10.34c-3-3.56-5.69-7.32-9.35-10.23a2,2,0,0,1-.33-.51l.22-.23c1.24,1.08,2.56,2.07,3.69,3.25,5,5.31,9.92,10.74,13.73,17,.14.24.49.36.74.54ZM365,160.79a.42.42,0,0,0,0,.1s0,0,.08,0l-.11-.12c-.28-2.33-.39-4.7-.87-7a29.3,29.3,0,0,0-1.86-5c-1-2.35-.88-2.75,1.2-4.1a.77.77,0,0,0,.2-.71,3.3,3.3,0,0,0-1-1.15,21.93,21.93,0,0,0-3-1.47c-1.82-.74-2.24-.47-2.57,1.49a2.57,2.57,0,0,0,0,.83,73,73,0,0,0,1.29,7.38A19.56,19.56,0,0,0,365,160.79Zm73.61,34.72c-4.92,1.19-9.84,2.36-14.75,3.59-4.06,1-7.59,3.17-11.06,5.37a43.81,43.81,0,0,0-5.12,4.45,6.09,6.09,0,0,0,.82.14c2.29-.25,4.6-.36,6.86-.8a47.65,47.65,0,0,0,7.46-2c4.14-1.55,7.77-4.09,11.35-6.62a50.94,50.94,0,0,0,4.55-4l.13-.14Zm-55.13-44c.81-.16.15-.46.07-.7a3,3,0,0,0-.11-.45,212.55,212.55,0,0,1-11.7-32.76c-.19-.74-.53-.83-1.18-.76-1.94.21-3.88.47-5.83.52s-4.06-.1-6.09-.16c-.39,0-.91-.24-.92.53,0,1.11-.17,2.22-.17,3.33q0,6,.12,12a2.61,2.61,0,0,0,.49,1.41,115.62,115.62,0,0,0,12.28,13.7,9.08,9.08,0,0,0,4.94,2.75C378.05,151.26,380.78,151.28,383.48,151.46Zm-32.33,35.42-.24-.09.09.24a7,7,0,0,0,.66,1.12c1.23,1.46,2.57,2.84,3.74,4.34a37.56,37.56,0,0,0,11,9.43,46.51,46.51,0,0,0,12.53,5.15l10.28,2.28c1.54.17,3.07.41,4.61.49,2.23.12,4.47.15,6.7.15.22,0,.65-.42.63-.6-.36-2.47-.22-5.08-1.59-7.31a61.22,61.22,0,0,0-4.11-6.17c-3.44-4.31-7-8.5-10.57-12.71a83.59,83.59,0,0,0-9.92-9.54c-2.76-2.34-5.39-4.83-8-7.3-1-.92-1.82-2-2.78-3a30,30,0,0,1-5-6A23.52,23.52,0,0,1,355.65,147c0-.71,0-1.42,0-2.14h-.3a2.21,2.21,0,0,0-.18.42c-1,4.6-2,9.19-2.85,13.8a57.46,57.46,0,0,1-5.08,14.65c-1.39,2.83-2.76,5.68-4.13,8.52a3.46,3.46,0,0,0-.15.68l5.05-1.26a4.43,4.43,0,0,0,.71.83c1.31.91,2.6,1.86,4,2.65a38.26,38.26,0,0,0,5.74,2.92c3,1.07,6.05,1.75,9,2.72,3.45,1.11,6.81,2.51,10.29,3.51,5.47,1.59,9.78,4.93,13.85,8.69a5.6,5.6,0,0,1,.75,1.26,8.06,8.06,0,0,1-.64-.52,34.48,34.48,0,0,0-10.68-7.38c-4.68-1.87-9.53-3.39-14.38-4.81C361.48,190,356,189.38,351.15,186.88Zm84.17-16.73,1.35-1.52a23.47,23.47,0,0,1-2.93-1.23,13.24,13.24,0,0,1-5.82-7.33,100.82,100.82,0,0,1-2.8-10.43c-1.19-5.19-2.39-10.39-2.06-15.78a6.11,6.11,0,0,0-.21-1.22c-.39.27-.64.4-.85.58-2.74,2.39-5.54,4.71-8.21,7.19a44.17,44.17,0,0,1-19.32,10.68c-4.59,1.18-9.23,2.13-14,1.79a21,21,0,0,1-3.47-.08c-3.32-.81-6.61-1.79-9.9-2.74-.92-.27-1.8-.66-2.9-1.07.2.64.38,1.07.48,1.52a73.48,73.48,0,0,1,2,9,13.68,13.68,0,0,0,4.89,9.38l3.44,3c2.4,2.1,4.87,4.12,7.17,6.33,1.93,1.84,3.65,3.89,5.46,5.84,1.22,1.42,2.5,2.8,3.65,4.27,2.86,3.67,5.66,7.39,8.49,11.09,1,1.34,1.42,1.39,2.76.36,3.18-2.47,6.34-4.95,9.54-7.38,2-1.48,4.09-2.75,5.94-4.35,2.59-2.27,5-4.72,7.47-7.18,2.83-2.86,5.57-5.81,8.35-8.73Zm-50.55-18.53,2.9-.59c.86-.18,1.72-.36,2.57-.58,3.21-.81,6.45-1.52,9.61-2.49a15.24,15.24,0,0,0,4.36-2.18c3.34-2.39,6.58-4.94,9.82-7.47a3.24,3.24,0,0,0,1.49-2.59,17.52,17.52,0,0,1,.52-3.36c.4-1.71.92-3.39,1.34-5.09a27.62,27.62,0,0,1,2.57-7.55c.49-.85.92-1.09,1.69-.5a14.14,14.14,0,0,1,1.59,1.6c.9,1,1.48,1,2.14-.17a28,28,0,0,0,2-3.93c1.87-4.79,3.66-9.62,5.44-14.45a16.34,16.34,0,0,0,.78-3,10,10,0,0,0-1.17-7.35,2.81,2.81,0,0,0-3.18-1.38,13,13,0,0,0-2.64,1.06,8.17,8.17,0,0,0-3.48,4.13,108.35,108.35,0,0,0-4.64,10.76c-1,3-2.27,6.05-2.25,9.37a15.47,15.47,0,0,1-.52,2.8,111.62,111.62,0,0,0-2.41-22.93c-.36.24-.56.35-.75.5-3.61,2.71-7.17,5.5-10.85,8.11a63.38,63.38,0,0,1-16.91,8.91c-4,1.3-8,2.33-12.28,3.55,2.06,6.27,4.05,12.74,6.31,19.1,1.71,4.81,3.78,9.49,5.67,14.23A8,8,0,0,1,384.77,151.62Zm70.24-8a55,55,0,0,1-2.73,5.74c-2.26,3.67-4.66,7.25-7.11,10.8A143.3,143.3,0,0,1,433,175.57a117.64,117.64,0,0,1-10.51,10.32c-2.65,2.24-5.42,4.34-8.16,6.48q-5.7,4.47-11.43,8.89a1.61,1.61,0,0,0-.6,2c.48,1.89.92,3.78,1.39,5.67a1,1,0,0,0,.34.59,3,3,0,0,0,2.89-.79c2.74-4.38,6.74-7.28,11.24-9.61s9.2-2.79,13.93-3.66c4.08-.75,8.22-1.36,12-3.12a75.22,75.22,0,0,0,8.93-5.12c3.68-2.4,7.19-5.05,11.35-6.65a25.59,25.59,0,0,0,2.61-1.2,3,3,0,0,0,1.26-4q-2.79-4.68-5.69-9.3a18.5,18.5,0,0,1-2.52-5.9,39.37,39.37,0,0,1-.56-9.06,5.47,5.47,0,0,0-1.08-3.6C457.26,146.13,456.1,144.88,455,143.65Zm-14-7.78V136h-.36a78.93,78.93,0,0,0-14.88,1.29c-.73.12-1.44.2-1.2,1.3.41,1.82.7,3.68,1.08,5.51.64,3.08,1.28,6.17,2,9.24a35,35,0,0,0,1.58,5.87c1.37,3.23,3.17,6.17,6.78,7.48a1.81,1.81,0,0,0,2.43-.67c1.9-2.52,3.91-5,5.79-7.48,2.63-3.51,5.24-7,7.77-10.63,1.35-1.92,1.38-4.27,1.29-6.46-.09-2.45-2.52-4.83-5.1-5.17C445.76,136,443.35,136,441,135.87Zm-83.3-20.24c.46,0,.7,0,.94,0a45.76,45.76,0,0,0,11.63-.45c.51-.06.87-.22.66-.93-.38-1.3-.63-2.64-.95-4-2.21-9.11-3.62-18.35-4.95-27.61-.27-1.87-.52-3.73-.78-5.6L363.9,77a5.78,5.78,0,0,0-.94,1.66c-1.34,7.72-2.73,15.44-3.88,23.19C358.41,106.37,358.14,110.93,357.67,115.63Zm64.76,14.25c1.43.27,1.85.81,1.83,2.23,0,1,0,2,0,3,1.68-.34,3.22-.74,4.79-.94.74-.09.95-.4,1-1,.14-1.31.36-2.61.41-3.92.21-5.62.38-11.25.55-16.87a3,3,0,0,0-.14-.71,2.7,2.7,0,0,0-.6,1.21,20,20,0,0,1-3.85,7.9,14.32,14.32,0,0,1-1.83,1.41,1.7,1.7,0,0,0-.59.8C423.46,125.3,423,127.59,422.43,129.88ZM355.1,142.29c1-.95,2-1.58,2-2.95-.24-4.61-.53-9.22-.66-13.84-.08-2.62.12-5.25.17-7.88,0-.27-.2-.73-.39-.78-1.1-.28-2.23-.47-3.46-.71A154.31,154.31,0,0,0,355.1,142.29Zm27.14-79.11-.17-.27a1.73,1.73,0,0,0-.45,0c-3,.66-6,1.25-8.95,2a11.66,11.66,0,0,0-7.73,6.79,4.08,4.08,0,0,0-.14,3.1c2.09-1.55,4.05-3.18,6.19-4.55,2.61-1.68,5.39-3.11,8.05-4.72C380.16,64.85,381.18,64,382.24,63.18Zm35.68,67.87a18.15,18.15,0,0,0,2.23-.63,1.39,1.39,0,0,0,.73-.86c.55-2.36,1-4.75,1.52-7.13.15-.7-.47-1.46-1.52-1.63-.23,0-.73.48-.81.82C419.32,124.7,418.65,127.8,417.92,131.05Zm-3.16-37.69,2.37-1.84-5.39-6.62-.31.22ZM421.57,132l-.05-.24-2.88.51c-1.7.3-1.79.4-1.79,2.1v1.85Zm-60.36,8.6.32-.23-3.72-4.71C357.89,140.27,356.92,139.51,361.21,140.57Zm5.1,7.15.29-.25a8,8,0,0,0-1.58-1.55c-.26-.15-.9.34-1.36.54.21.21.39.51.65.61C365,147.34,365.64,147.51,366.31,147.72Zm-2.49-73.13-.6,2.14C364.28,76.11,364.15,75.38,363.82,74.59Z" />
        <path class="color-base"
            d="M387.56,184.06c-1.81-1.95-3.53-4-5.46-5.84-2.3-2.21-4.77-4.23-7.17-6.33l-3.44-3a25.13,25.13,0,0,0-.48-4c-.8-3-1.8-5.86-2.7-8.8a2.75,2.75,0,0,1,0-.76,5.25,5.25,0,0,1,.68.08,33.66,33.66,0,0,0,12.36,1.33A89.37,89.37,0,0,0,393,155a40.49,40.49,0,0,0,13.71-5.69,18.65,18.65,0,0,1,2.57-1.73c2.45-1.11,5-2.1,7.54-3.17.16,1,.28,2,.54,3.06.52,2.15,1.09,4.3,1.7,6.43a1.71,1.71,0,0,0,1.93,1.28,1.86,1.86,0,0,0,1.4-1.86,16,16,0,0,1,.28-1.71c1.12,3,2.1,5.94,3.34,8.78a17.06,17.06,0,0,0,7,8.37c.78.46,1.54.93,2.31,1.4l-1.56,2a7.3,7.3,0,0,0-1.36.61c-3.86,2.81-7.59,5.81-11.56,8.43-6.51,4.3-13.18,8.36-19.77,12.54-1.27.81-1.33.84-2.44-.16-3.34-3-6.67-6-10-9A4.14,4.14,0,0,0,387.56,184.06ZM390,173.82c1.9-.26,3.82-.61,5.75-.77,4.48-.36,7.69-3,10.74-5.9a1.36,1.36,0,0,0,.42-1.14,1.31,1.31,0,0,0-1-.62,44.12,44.12,0,0,0-7.73.39,161.18,161.18,0,0,1-17.19,3,1.76,1.76,0,0,0-1.2,1,1.65,1.65,0,0,0,.27,1.5,10.79,10.79,0,0,0,3.46,1.76C385.57,173.43,387.77,173.55,390,173.82Z" />
        <path class="color-base"
            d="M392.37,204.23a5.6,5.6,0,0,0-.75-1.26c-4.07-3.76-8.38-7.1-13.85-8.69-3.48-1-6.84-2.4-10.29-3.51-3-1-6.08-1.65-9-2.72a38.26,38.26,0,0,1-5.74-2.92c-1.38-.79-2.67-1.74-4-2.65a4.43,4.43,0,0,1-.71-.83,3.48,3.48,0,0,0,.36-.61c1.3-4,2.68-8.08,3.87-12.16s2.27-8.36,3.39-12.54c.1-.35.25-.69.47-1.29.19.48.28.65.34.83a33.66,33.66,0,0,0,5.63,10.59,61.28,61.28,0,0,0,8.69,9c1.91,1.62,3.92,3.12,5.88,4.67,2.47,1.93,5,3.82,7.4,5.82,1.87,1.55,3,3.72,4.17,5.78a60.73,60.73,0,0,1,5.64,12.36,5.74,5.74,0,0,1,0,1.66l-1.53-1.57Z" />
        <path class="color-shadow"
            d="M455,143.65c1.09,1.23,2.25,2.48,3.33,3.79a5.47,5.47,0,0,1,1.08,3.6,39.37,39.37,0,0,0,.56,9.06,18.5,18.5,0,0,0,2.52,5.9q2.91,4.62,5.69,9.3a3,3,0,0,1-1.26,4,25.59,25.59,0,0,1-2.61,1.2c-4.16,1.6-7.67,4.25-11.35,6.65A75.22,75.22,0,0,1,444,192.3c-3.77,1.76-7.91,2.37-12,3.12-4.73.87-9.56,1.4-13.93,3.66s-8.5,5.23-11.24,9.61a3,3,0,0,1-2.89.79,1,1,0,0,1-.34-.59c-.47-1.89-.91-3.78-1.39-5.67a1.61,1.61,0,0,1,.6-2q5.75-4.41,11.43-8.89c2.74-2.14,5.51-4.24,8.16-6.48A117.64,117.64,0,0,0,433,175.57a143.3,143.3,0,0,0,12.21-15.38c2.45-3.55,4.85-7.13,7.11-10.8A55,55,0,0,0,455,143.65Zm-44.44,57.87.27.31c.84-.58,1.66-1.2,2.52-1.74,2.93-1.84,5.91-3.6,8.8-5.5a34.71,34.71,0,0,1,12.67-5.32c3.19-.6,6.31-1.58,9.49-2.31a4.52,4.52,0,0,0,3.78-4,21.67,21.67,0,0,1,1.38-3.6l.26.08c-.48,1.89-1,3.77-1.53,5.94a18.34,18.34,0,0,0,2.05-1.08c1.64-1.12,3.19-2.4,4.89-3.43,2.82-1.72,5.72-3.3,8.6-4.92.47-.26,1-.46.84-1.12a20.78,20.78,0,0,0-1.35-4,44.16,44.16,0,0,0-2.95-4.2c-2.42-3.42-4.34-7.05-4.59-11.36-.05-.84-.22-1.66-.35-2.6a3.2,3.2,0,0,0-.33.38,84.18,84.18,0,0,1-12.64,17.78c-4.71,5-9.53,9.89-14.32,14.81-1.25,1.29-2.54,2.54-3.89,3.73-2.24,2-4.56,3.85-6.82,5.81-1.59,1.38-3.15,2.81-4.7,4.24C411.93,200.11,411.26,200.83,410.57,201.52Z" />
        <path class="color-shadow"
            d="M441,135.87c2.38.13,4.79.1,7.16.41,2.58.34,5,2.72,5.1,5.17.09,2.19.06,4.54-1.29,6.46-2.53,3.59-5.14,7.12-7.77,10.63-1.88,2.53-3.89,5-5.79,7.48a1.81,1.81,0,0,1-2.43.67c-3.61-1.31-5.41-4.25-6.78-7.48a35,35,0,0,1-1.58-5.87c-.71-3.07-1.35-6.16-2-9.24-.38-1.83-.67-3.69-1.08-5.51-.24-1.1.47-1.18,1.2-1.3A78.93,78.93,0,0,1,440.6,136H441Z" />
        <path class="color-shadow"
            d="M393.89,205.78a5.74,5.74,0,0,0,0-1.66,60.73,60.73,0,0,0-5.64-12.36c-1.21-2.06-2.3-4.23-4.17-5.78-2.41-2-4.93-3.89-7.4-5.82-2-1.55-4-3-5.88-4.67a61.28,61.28,0,0,1-8.69-9,33.66,33.66,0,0,1-5.63-10.59c-.06-.18-.15-.35-.34-.83-.22.6-.37.94-.47,1.29-1.12,4.18-2.17,8.38-3.39,12.54S349.67,177,348.37,181a3.48,3.48,0,0,1-.36.61L343,182.91a3.46,3.46,0,0,1,.15-.68c1.37-2.84,2.74-5.69,4.13-8.52a57.46,57.46,0,0,0,5.08-14.65c.88-4.61,1.89-9.2,2.85-13.8a2.21,2.21,0,0,1,.18-.42h.3c0,.72,0,1.43,0,2.14a23.52,23.52,0,0,0,3.53,10.45,30,30,0,0,0,5,6c1,.94,1.8,2,2.78,3,2.65,2.47,5.28,5,8,7.3a83.59,83.59,0,0,1,9.92,9.54c3.56,4.21,7.13,8.4,10.57,12.71a61.22,61.22,0,0,1,4.11,6.17c1.37,2.23,1.23,4.84,1.59,7.31,0,.18-.41.6-.63.6-2.23,0-4.47,0-6.7-.15-1.54-.08-3.07-.32-4.61-.49.2-.1.4-.3.6-.3,1.55,0,3.09.12,4.64.14.23,0,.46-.21.68-.33-.2-.22-.44-.66-.59-.64-1.05.19-1.48-.61-2.06-1.17a36.63,36.63,0,0,0-3.83-3.56,39.86,39.86,0,0,0-11.19-5c-2.91-.9-5.95-1.37-8.94-2l-6.19-1.38a1.06,1.06,0,0,0,.37.7c2.36,1.9,4.61,3.94,7.1,5.63,2.7,1.82,5.63,3.3,8.44,4.95a4.09,4.09,0,0,1,.69.69,46.51,46.51,0,0,1-12.53-5.15,37.56,37.56,0,0,1-11-9.43c-1.17-1.5-2.51-2.88-3.74-4.34A7,7,0,0,1,351,187l.15-.15c4.89,2.5,10.33,3.13,15.52,4.64,4.85,1.42,9.7,2.94,14.38,4.81a34.48,34.48,0,0,1,10.68,7.38,8.06,8.06,0,0,0,.64.52v0l1.27,1.93Z" />
        <path class="color-shadow"
            d="M435.32,170.15c-.77-.47-1.53-.94-2.31-1.4a17.06,17.06,0,0,1-7-8.37c-1.24-2.84-2.22-5.78-3.34-8.78a16,16,0,0,0-.28,1.71,1.86,1.86,0,0,1-1.4,1.86,1.71,1.71,0,0,1-1.93-1.28c-.61-2.13-1.18-4.28-1.7-6.43-.26-1-.38-2.09-.54-3.06-2.58,1.07-5.09,2.06-7.54,3.17a18.65,18.65,0,0,0-2.57,1.73A40.49,40.49,0,0,1,393,155a89.37,89.37,0,0,1-11.64,1.78A33.66,33.66,0,0,1,369,155.44a5.25,5.25,0,0,0-.68-.08,2.75,2.75,0,0,0,0,.76c.9,2.94,1.9,5.84,2.7,8.8a25.13,25.13,0,0,1,.48,4,13.68,13.68,0,0,1-4.89-9.38,73.48,73.48,0,0,0-2-9c-.1-.45-.28-.88-.48-1.52,1.1.41,2,.8,2.9,1.07,3.29.95,6.58,1.93,9.9,2.74a21,21,0,0,0,3.47.08c4.8.34,9.44-.61,14-1.79a44.17,44.17,0,0,0,19.32-10.68c2.67-2.48,5.47-4.8,8.21-7.19.21-.18.46-.31.85-.58a6.11,6.11,0,0,1,.21,1.22c-.33,5.39.87,10.59,2.06,15.78a100.82,100.82,0,0,0,2.8,10.43,13.24,13.24,0,0,0,5.82,7.33,23.47,23.47,0,0,0,2.93,1.23Z" />
        <path class="color-shadow"
            d="M387.56,184.06a4.14,4.14,0,0,1,1,.48c3.36,3,6.69,6,10,9,1.11,1,1.17,1,2.44.16,6.59-4.18,13.26-8.24,19.77-12.54,4-2.62,7.7-5.62,11.56-8.43a7.3,7.3,0,0,1,1.36-.61c-2.78,2.92-5.52,5.87-8.35,8.73-2.43,2.46-4.88,4.91-7.47,7.18-1.85,1.6-4,2.87-5.94,4.35-3.2,2.43-6.36,4.91-9.54,7.38-1.34,1-1.74,1-2.76-.36-2.83-3.7-5.63-7.42-8.49-11.09C390.06,186.86,388.78,185.48,387.56,184.06Z" />
        <path class="color-base"
            d="M378.93,207.07a4.09,4.09,0,0,0-.69-.69c-2.81-1.65-5.74-3.13-8.44-4.95-2.49-1.69-4.74-3.73-7.1-5.63a1.06,1.06,0,0,1-.37-.7l6.19,1.38c3,.66,6,1.13,8.94,2a39.86,39.86,0,0,1,11.19,5,36.63,36.63,0,0,1,3.83,3.56c.58.56,1,1.36,2.06,1.17.15,0,.39.42.59.64-.22.12-.45.34-.68.33-1.55,0-3.09-.11-4.64-.14-.2,0-.4.2-.6.3Z" />
        <path class="color-shadow"
            d="M438.72,195.62a50.94,50.94,0,0,1-4.55,4c-3.58,2.53-7.21,5.07-11.35,6.62a47.65,47.65,0,0,1-7.46,2c-2.26.44-4.57.55-6.86.8a6.09,6.09,0,0,1-.82-.14,43.81,43.81,0,0,1,5.12-4.45c3.47-2.2,7-4.36,11.06-5.37,4.91-1.23,9.83-2.4,14.75-3.59A1.14,1.14,0,0,0,438.72,195.62Z" />
        <path class="color-shadow"
            d="M365,160.79a19.56,19.56,0,0,1-6.61-9.75,73,73,0,0,1-1.29-7.38,2.57,2.57,0,0,1,0-.83c.33-2,.75-2.23,2.57-1.49a21.93,21.93,0,0,1,3,1.47,3.3,3.3,0,0,1,1,1.15.77.77,0,0,1-.2.71c-2.08,1.35-2.18,1.75-1.2,4.1a29.3,29.3,0,0,1,1.86,5c.48,2.28.59,4.65.87,7Z" />
        <path class="color-shadow" d="M421.57,132l-4.72,4.22v-1.85c0-1.7.09-1.8,1.79-2.1l2.88-.51Z" />
        <path class="color-shadow"
            d="M366.31,147.72c-.67-.21-1.35-.38-2-.65-.26-.1-.44-.4-.65-.61.46-.2,1.1-.69,1.36-.54a8,8,0,0,1,1.58,1.55Z" />
        <path class="color-shadow" d="M426.66,83.76l-3.51,3.39-.06-.53,3.31-3.37Z" />
        <path class="color-shadow" d="M415.85,97.7l.69,2.29-.38.13-.9-2.72Z" />
        <path class="color-shadow" d="M427.2,81.57l1.44-1.16.22.11-1.13,1.54Z" />
        <path class="color-base" d="M363.82,74.59c.33.79.46,1.52-.6,2.14Z" />
        <path class="color-shadow" d="M414.54,96.48l-.2-.85.19-.06.39.89Z" />
        <path class="color-base" d="M411.24,85l-.52-.89.18-.16.65.77Z" />
        <path class="color-base" d="M414.54,96.48l.38,0,.23.72-.31.28Z" />
        <path class="color-base" d="M393.84,45.1l.48.06-.38.55Z" />
        <path class="color-base" d="M376.58,68.68l-.3.15.15-.3Z" />
        <path class="color-base" d="M375.79,69l.25-.09-.1.23C375.84,69.12,375.79,69.07,375.79,69Z" />
        <path class="color-shadow" d="M418,92.12l-.16.22Z" />
        <path class="color-base" d="M410.72,84.09l-.05-.29.23.13Z" />
        <path class="color-shadow" d="M365,160.78l.11.12s-.07,0-.08,0a.42.42,0,0,1,0-.1Z" />
        <path class="color-shadow" d="M351,187l-.09-.24.24.09Z" />
        <path class="color-shadow" d="M438.61,195.51l.24,0-.13.14A1.14,1.14,0,0,1,438.61,195.51Z" />
        <path class="color-base" d="M376.43,68.53l.28-.08-.13.23Z" />
        <path class="outline"
            d="M428,101.88c-.43-.36-.86-.71-1.28-1.08s-.7-.17-.78.33a4.58,4.58,0,0,0,0,.83c0,2,.12,4.06-.08,6.06a6.4,6.4,0,0,1-1.29,2.49,17.32,17.32,0,0,1-1.49,1.72c-.44.51-.86,1,0,1.57a1.21,1.21,0,1,1-2.3-.28,2.39,2.39,0,0,1,1.31-2.14c.45-.25.94-.44,1.39-.7a3.4,3.4,0,0,0,1.73-3.56c-.22-3.67-.32-7.37,1.5-10.75a9.41,9.41,0,0,1,1.95-2.52,1.87,1.87,0,0,1,3.16,1c-.07,0-.18.09-.2.07-1.48-1.34-2.52-1.31-3.61.35a16.43,16.43,0,0,0-1.46,3.38c-.07.19.16.53.31.76.5.76,1,1.49,1.55,2.23Z" />
        <path class="outline"
            d="M430.44,105.54a20.7,20.7,0,0,0,1-7.12c0-.43-.12-.86-.18-1.28l.46,0a16.87,16.87,0,0,1-1,8.67Z" />
        <path class="outline"
            d="M427.9,111.62c-.86.41-1.54.76-2.25,1-.17.06-.46-.17-.69-.26.11-.2.16-.47.33-.58A2.16,2.16,0,0,1,427.9,111.62Z" />
        <path class="color-shadow" d="M430.44,105.54l.33.3-.54,1.43-.41-.16Z" />
        <path class="color-shadow" d="M431.72,97.17l-.46,0-.44-.78C431.55,96.33,431.55,96.33,431.72,97.17Z" />
        <path class="color-shadow" d="M428.66,102.19l.57,1.12-.34.18-.52-1Z" />
        <path class="outline" d="M428.66,102.19l-.29.28-.39-.59.36-.24Z" />
        <path class="color-shadow"
            d="M390,173.82c-2.2-.27-4.4-.39-6.52-.86A10.79,10.79,0,0,1,380,171.2a1.65,1.65,0,0,1-.27-1.5,1.76,1.76,0,0,1,1.2-1,161.18,161.18,0,0,0,17.19-3,44.12,44.12,0,0,1,7.73-.39,1.31,1.31,0,0,1,1,.62,1.36,1.36,0,0,1-.42,1.14c-3,2.91-6.26,5.54-10.74,5.9C393.79,173.21,391.87,173.56,390,173.82Z" />
        <path class="outline" d="M371.46,72.7l2.8-2,.22.44-3,2.08Z" />
        <path class="color-shadow" d="M371.46,72.7l0,.49-.75.27Z" />
        <path class="outline" d="M393.89,205.78l-.26.36-1.27-1.93Z" />
        <path class="color-base"
            d="M410.57,201.52c.69-.69,1.36-1.41,2.08-2.08,1.55-1.43,3.11-2.86,4.7-4.24,2.26-2,4.58-3.84,6.82-5.81,1.35-1.19,2.64-2.44,3.89-3.73,4.79-4.92,9.61-9.82,14.32-14.81A84.18,84.18,0,0,0,455,153.07a3.2,3.2,0,0,1,.33-.38c.13.94.3,1.76.35,2.6.25,4.31,2.17,7.94,4.59,11.36a44.16,44.16,0,0,1,2.95,4.2,20.78,20.78,0,0,1,1.35,4c.19.66-.37.86-.84,1.12-2.88,1.62-5.78,3.2-8.6,4.92-1.7,1-3.25,2.31-4.89,3.43a18.34,18.34,0,0,1-2.05,1.08c.56-2.17,1.05-4,1.53-5.94l-.26-.08a21.67,21.67,0,0,0-1.38,3.6,4.52,4.52,0,0,1-3.78,4c-3.18.73-6.3,1.71-9.49,2.31a34.71,34.71,0,0,0-12.67,5.32c-2.89,1.9-5.87,3.66-8.8,5.5-.86.54-1.68,1.16-2.52,1.74Z" />
    </g>
</svg>
