<svg id="kapyushony_s_golovoy" data-name="kapyushony s golovoy" xmlns="http://www.w3.org/2000/svg"
    viewBox="0 0 672 960">
    <g>
        <path class="outline"
            d="M384.92,29.27l1.92,0c3.82.6,6.87,2.65,9.67,5.16a4.39,4.39,0,0,1,1.1,1.09c.82,1.58,1.95,1.5,3.56,1.28a38.13,38.13,0,0,1,7.48-.07,55.07,55.07,0,0,1,6.36.93c4.22.75,7.07,3.26,9.28,6.88,5,8.24,8.84,17.06,12.36,26a45.66,45.66,0,0,1,2.64,8.65,108.19,108.19,0,0,1,1.32,12.06c.38,5.92.53,11.85.81,17.77q.25,5.31.61,10.6c.2,3,.52,6.09.71,9.15a30.71,30.71,0,0,1-.17,3.16c0,.93.3,1.4,1.38,1.35a24.61,24.61,0,0,1,4.29.19,8.75,8.75,0,0,1,5.94,3.66,9.3,9.3,0,0,1,1.35,2.42,12.69,12.69,0,0,0,3.36,4.89,7.51,7.51,0,0,1,2.5,6.45c-.13,1.26-.42,2.5-.57,3.76a14.08,14.08,0,0,0,3.62,11.78,72,72,0,0,1,6.3,8.59,4.43,4.43,0,0,1-2.43,6.62,30.09,30.09,0,0,1-3,.85,41.43,41.43,0,0,0-12,5.52c-2.58,1.6-5.19,3.14-7.81,4.68a8.14,8.14,0,0,1-2.05,1,7.52,7.52,0,0,0-3.34,2.18A57.69,57.69,0,0,1,422,207.87a31.42,31.42,0,0,1-6.47,1.61c-3.41.59-6.87.94-10.29,1.46a55.42,55.42,0,0,1-17.76-.45,65.85,65.85,0,0,1-17.72-5.23c-5.71-2.73-10.95-6.13-15-11.09-2.08-2.53-4.21-5-6.25-7.56a8.11,8.11,0,0,1-1.24-2.32,1,1,0,0,0-1.36-.68l-3.54,1.06c-.75.23-1.51.37-2.07-.37a1.69,1.69,0,0,1,.19-2.2,13.31,13.31,0,0,0,.81-1.43c-1.61.8-1.72-.18-2-1-2.09-6.63-4.24-13.26-5.12-20.18-.51-4.07-.84-8.17-1-12.27-.16-4.39-.12-8.8,0-13.19.15-4.71.56-9.41.81-14.11.21-4,.37-8,.52-12s.24-8,.38-12a80.43,80.43,0,0,1,.45-9.07,23.31,23.31,0,0,1,2.12-6.32,168.61,168.61,0,0,1,13.34-23.41,93,93,0,0,1,16.27-19,41.52,41.52,0,0,1,15.21-8.35C383.13,29.58,384,29.46,384.92,29.27ZM411.55,84.7l-.65-.77-.23-.13.05.29.52.89h.35ZM376.77,68.21l-1.21.73-.5.35c-3.15,2.12-6.29,4.25-9.45,6.34a1.39,1.39,0,0,0-.58,1.56c.14,1,.32,2,.49,3,.86,5.24,1.6,10.49,2.61,15.7,1.18,6,2.6,12,3.88,18,.17.81.5.87,1.22.72A76.64,76.64,0,0,0,388.61,110c8.69-3.85,16.21-9.58,23.94-15,.52-.37.38-.74.27-1.24a43.64,43.64,0,0,0-4.61-11.25,37.72,37.72,0,0,0-8.12-10.43c-4.53-4.12-10-6.92-14.9-10.44-.06,0-.14,0,0,0a41.44,41.44,0,0,1-3.7,4c-2.44,2-5.06,3.89-7.6,5.82l-.06-.47,2-1.72,0,0,.89-.6.26-.44Zm46.38,18.94c.64,1.47,1.27,2.94,1.91,4.44a19.38,19.38,0,0,1,2.28-1.47.89.89,0,0,0,.58-1.2c-.42-1.73-.82-3.47-1.23-5.2l-.29-.45a8.05,8.05,0,0,0-.22-1.39c-1.23-3.58-2.5-7.15-3.75-10.72l.32-.28c1.41,3.4,2.82,6.81,4.25,10.2.11.25-.07.93.63.63l.07.39a6,6,0,0,0,.05,1.13c.42,1.66,1,3.29,1.3,5,.2,1,.5,1.5,1.59,1.33a1.8,1.8,0,0,1,1,.29,5.29,5.29,0,0,1,2.48,3.52,16.53,16.53,0,0,1-.93,10.27,14.08,14.08,0,0,0-1.2,6.5,29.46,29.46,0,0,1,.19,4.4c-.18,3.65-.42,7.3-.74,10.94-.22,2.52-.59,5-.9,7.54l-.47,0c.15-1.75.36-3.49.43-5.23.21-5.11.36-10.22.52-15.32a3.41,3.41,0,0,0-.15-.69,6.83,6.83,0,0,0-.8,1.92,19.82,19.82,0,0,1-3.79,7.42c-.31.36-.65.89-1,.95-1.15.18-1.27,1-1.46,1.87-.11.55-.29,1.08-.39,1.63-.66,3.75-1.53,7.49-1.88,11.28a102.12,102.12,0,0,0-.22,11.61c.06,2.52.51,5,.73,7.57.05.66.32.85.92,1a34.79,34.79,0,0,1,4.39,1.1c4.33,1.52,8.63,3.11,12.91,4.73.68.26,1,.19,1.32-.43a9.51,9.51,0,0,1,1.54-2.12,4.64,4.64,0,0,0,1.33-4.46c-1.11-6.69-2.28-13.37-3.24-20.08-.46-3.15-.54-6.36-.69-9.54-.08-1.59.18-3.2.1-4.79-.32-6.21-.77-12.42-1.07-18.63-.27-5.66-.33-11.33-.64-17a59.08,59.08,0,0,0-1.1-8.27c-1-4.92-3-9.52-4.87-14.13-2.69-6.51-5.65-12.87-9.8-18.61-1.68-2.33-3.59-4.32-6.54-4.91A66.29,66.29,0,0,0,408,38.29c-2.87-.21-5.82-.48-8.69.37a1.22,1.22,0,0,1-.95-.24c-1.92-1.61-3.74-3.36-5.73-4.89-4.31-3.32-8.79-4.17-14-1.7a53.93,53.93,0,0,0-18,14c-7.63,8.81-13.53,18.77-19.17,28.91a36.74,36.74,0,0,0-4.89,20.16,122.94,122.94,0,0,1-.36,12.43c-.23,4.33-.62,8.65-.94,13-.09,1.23-.15,2.46-.26,3.68-.29,3.41-.8,6.82-.86,10.23-.08,4.69,0,9.41.34,14.09a128.07,128.07,0,0,0,2,15.39c1,5,2.74,9.82,4.18,14.71.06.21.31.36.47.54.31-.49.92.42,1.32-.41a45.91,45.91,0,0,1,3-5.07,31.53,31.53,0,0,0,4.51-10.25c1.26-5.35,2.25-10.76,3.28-16.17a17.12,17.12,0,0,0,.42-4.61c-.28-3.37-1-6.71-1.23-10.08-.35-5.1-.48-10.21-.62-15.31,0-1-.24-1.4-1.2-1.68a27,27,0,0,1-7.85-3.77,11.26,11.26,0,0,1-1-.85l.19-.31c3.16,1.51,6.26,3.17,9.76,3.83.82-15.22,2.74-30.75,4.24-33.73-.21,1.43-.55,2.84-.73,4.27-.54,4.29-1.11,8.57-1.5,12.87-.42,4.63-.68,9.27-1,13.91-.06,1-.31,2.32.2,2.88s1.94.43,2.9.76.89,0,1-.74c.73-6.85,1.23-13.74,2.33-20.54,1.14-7.1,2.88-14.1,4.32-21.15a9,9,0,0,0,.09-2.14c-.14-3.78-.32-7.57-.47-11.36a3.42,3.42,0,0,1,.19-.86,112.52,112.52,0,0,0,1.1,11.79c2-3.2,4.06-6.12,7.75-7.61a25.1,25.1,0,0,1,10.81-2.16c-1.48-3.26-3.4-5.8-6.87-6.6a17.67,17.67,0,0,0-4.74-.51c-5.55.26-10.24,2.69-14.47,6.15l-.44-.05a8.37,8.37,0,0,1,1.29-1.24A64.58,64.58,0,0,1,364,54.55a19.16,19.16,0,0,1,11.25-1.74,12.05,12.05,0,0,1,8.43,5.51c.18.26.39.49.71.88.21-1.55.14-3,1.53-3.7a.41.41,0,0,0,.19-.29c0-1.34.41-2.87-.11-4-1.49-3.2-3.77-5.72-7.57-6.27l-.86-.12c5.22-.6,7.75,3.07,10.46,6.58.5-.32,1-.68,1.57-1,2.11-1.28,2.54-2.22,2.05-4.7-.15-.74-.43-1.45-.65-2.17l.3-.2,1.18,2A10.29,10.29,0,0,0,390,38.16c2.69,1.81,3.49,4.6,3.91,7.85.83-1.41,1.48-2.55,2.17-3.67.13-.22.43-.35.65-.52,0,.29.09.63,0,.87-1.13,2.33-2.26,4.66-3.47,7a4.73,4.73,0,0,1-1.43,1.42A23.24,23.24,0,0,1,389,52.82a1.85,1.85,0,0,0-1.16,1.93,3.29,3.29,0,0,1-.72,2,2.22,2.22,0,0,0-.75,1.63,3.76,3.76,0,0,1-.27,1.63c-.27.56-.05.64.39.91,3.87,2.38,7.87,4.6,11.54,7.27,6.59,4.8,11.43,11.34,16.4,17.69,1.24,1.59,2.2,3.39,3.35,5.17,1.16-.93,2.36-1.85,3.48-2.85a1.16,1.16,0,0,0,.07-1.09c-1.87-3-3.64-6.11-5.76-9-2.6-3.47-5.51-6.71-8.29-10l.16-.12a5.32,5.32,0,0,1,.74.59c5.1,5.42,10.22,10.83,14.09,17.25a3.34,3.34,0,0,0,.87.74Zm-8,10-.31-.74-.26.1.26.92,1.83,9.55a2.1,2.1,0,0,0,.15-.3c1.65-4.76,3.41-9.45,6.64-13.43a.92.92,0,0,0,.15-.73c-.51-1.36-1.07-2.7-1.68-4.2-1.13,1-2.13,1.85-3.09,2.73a9.68,9.68,0,0,0-.88,1l-.17.23a14.85,14.85,0,0,0-2.61,1.91c-.27.3.1,1.22.23,1.84s.29,1.07.44,1.6l-.59-.3Zm-56.59,57.59.27.88.23-.07-.08-.74c-.08-.59-.16-1.19-.23-1.78-.48-3.79-1-7.57-1.42-11.36q-.42-3.75-.59-7.51c-.17-3.82-.27-7.64-.33-11.47,0-1.75.15-3.5.18-5.25a.8.8,0,0,0-.42-.64c-1.1-.26-2.22-.46-3.56-.72.17,3.83.21,7.54.54,11.22.36,4,1,8.09,1.51,12.13A59.61,59.61,0,0,0,358.56,154.77Zm80.05,40.74c-4.92,1.2-9.84,2.37-14.75,3.59-4.05,1-7.59,3.17-11.05,5.37a44.7,44.7,0,0,0-5.13,4.44,3.81,3.81,0,0,0,.82.14c2.29-.24,4.61-.35,6.86-.79a46.61,46.61,0,0,0,7.46-2c4.14-1.54,7.76-4.09,11.35-6.61a49.58,49.58,0,0,0,4.54-4l.14-.13Zm-59.68,11.56,10.28,2.28c1.54.17,3.07.41,4.61.49,2.23.12,4.47.14,6.7.15.22,0,.65-.43.62-.61-.31-2-.34-4.22-1.13-6.08a42.79,42.79,0,0,0-4.42-7.93,105.47,105.47,0,0,0-7.54-9.45,97.41,97.41,0,0,0-9.27-9.35q-8.2-6.94-15.88-14.42a25.59,25.59,0,0,1-7-12.87c-.28-1.23-.48-2.47-.67-3.47-1.41,6.24-2.4,12.79-4.44,19s-5.11,12-7.71,18l5.07-1.05c.07.17.08.43.2.5,4,2.36,7.68,5.3,12.41,6.52,5.77,1.5,11.33,3.77,17.05,5.49,5.44,1.64,9.77,4.93,13.83,8.7a5,5,0,0,1,.75,1.26c-.24-.2-.5-.39-.73-.61A40.07,40.07,0,0,0,381,196.25a55.55,55.55,0,0,0-5.52-1.95c-2.65-.88-5.28-1.82-7.95-2.6-5.7-1.64-11.76-2.09-17.12-5.43a5.27,5.27,0,0,0,.33.57c1.56,1.86,3.18,3.68,4.67,5.6a37.84,37.84,0,0,0,10.91,9.4A47.22,47.22,0,0,0,378.93,207.07Zm9.61-24.95a9.07,9.07,0,0,0,.9,2.52c2.36,3.12,4.88,6.12,7.25,9.24.76,1,1.48,1.71,2.82,1.44.16,0,.36.11.75.25a7.88,7.88,0,0,0-1.42.23c-.16.06-.36.46-.3.56.91,1.56,1.86,3.1,2.78,4.6l15-12.6c-3.27.11-6.42.11-9.25,1.82-.54.32-1.3.55-1.71-.17s.2-1.35.85-1.53a20.3,20.3,0,0,1,4.06-.82c2.15-.13,4.31,0,6.47,0a2.26,2.26,0,0,0,1.31-.4c2-1.58,3.95-3.13,5.76-4.87s3.35-3.65,5-5.49c.41-.46.78-.95,1.15-1.39-4.15-1.13-8.18-2.19-12.19-3.34-1.47-.42-3.08-.82-3-2.9a2.07,2.07,0,0,0-.15-.58,52,52,0,0,1-1.94-12.5c-.19-4.47-.14-8.95-.2-13.43,0-.32-.06-.64-.08-.84-3.77,3.39-7.44,6.82-11.24,10.09-3.6,3.1-7.26,6.17-11.64,8.17-.53.24-.44.51-.24.92q2.19,4.53,4.36,9.06l-.29.28c-1.51-2.9-3-5.78-4.5-8.71-.36-.71-.65-1.09-1.51-.71a3.64,3.64,0,0,1-3.14-.09,17.07,17.07,0,0,1-3.07-2c-1-.75-1.8-1.65-2.86-2.64.45,3,1,5.77,1.23,8.55.21,3,.06,6.1.08,9.15a1.43,1.43,0,0,0,.16.84,14.69,14.69,0,0,0,1.46,1.38c1,.88,2.13,1.67,3.08,2.62,1.23,1.24,2.36,2.59,3.53,3.9l.33.4.12-.47-.16-.49ZM372.66,116.4c.32,1.2.56,2.2.85,3.19a229.58,229.58,0,0,0,9,25.83c1.79,4.27,3.65,8.51,5.44,12.78.24.57.46.75,1,.44,1.3-.68,2.68-1.24,3.94-2a86.6,86.6,0,0,0,12.86-9.58c3-2.62,6.11-5.27,7.88-8.94a60.93,60.93,0,0,0,2.88-7.71c1.15-3.51,1.37-7.3,3.33-10.57.62-1,1-1.26,1.91-.52a9.54,9.54,0,0,1,1.31,1.38c1,1.09,1.57,1.1,2.29-.14a26.58,26.58,0,0,0,2-3.83c1.88-4.83,3.69-9.7,5.48-14.56a15,15,0,0,0,.77-3c.4-2.52.39-5-1.12-7.26a3,3,0,0,0-3.64-1.34,13.09,13.09,0,0,0-2.17,1c-1.76.91-2.69,2.56-3.59,4.2a64.31,64.31,0,0,0-5.71,14.31,21,21,0,0,0-1.16,5.83,13.07,13.07,0,0,1-.52,2.78,111.41,111.41,0,0,0-2.42-23C401.18,105.63,388.54,114.09,372.66,116.4Zm82.43,27.33c-1.23,2.42-2.31,5-3.78,7.34a175.56,175.56,0,0,1-16.14,22,101.05,101.05,0,0,1-17.05,16.08c-5.24,3.74-10.31,7.69-15.16,11.93a1.91,1.91,0,0,0-.64,2.29c.51,1.79.88,3.62,1.33,5.44a1.07,1.07,0,0,0,.4.66,3,3,0,0,0,2.87-.87,27.76,27.76,0,0,1,6.92-7,34.33,34.33,0,0,1,13.83-5.36c3.5-.51,7-1.31,10.44-2,5.53-1.1,10.23-4,14.84-7,3.68-2.41,7.19-5.07,11.35-6.66a28,28,0,0,0,2.61-1.2,3,3,0,0,0,1.27-4q-2.78-4.69-5.69-9.31a18.73,18.73,0,0,1-2.52-5.9,39.37,39.37,0,0,1-.55-9.06,5.47,5.47,0,0,0-1.1-3.6C457.24,146.13,456.09,144.88,455.09,143.73Zm-67.59,15.4c-.16-.37-.26-.63-.38-.88a225.82,225.82,0,0,1-15.38-40.7c-.19-.74-.54-.83-1.18-.76-1.83.21-3.65.47-5.48.51-2.14.06-4.3-.1-6.45-.15-.4,0-.9-.21-.91.55,0,1.11-.18,2.22-.17,3.33,0,3.39.27,6.8.09,10.18a6.76,6.76,0,0,0,1.91,5.17c4,4.52,7.87,9.23,12.56,13.14,3.46,2.9,6.87,5.85,10.35,8.73A5,5,0,0,0,387.5,159.13ZM364.18,77a3,3,0,0,0-1.49,2.44c-1.32,6.69-2.6,13.38-3.26,20.17-.52,5.32-1.22,10.62-1.84,16a28.32,28.32,0,0,0,3.22.21c3.1-.15,6.18-.38,9.27-.59.72,0,1-.28.76-1.14a265.23,265.23,0,0,1-5.3-27.67C365.1,83.29,364.65,80.19,364.18,77Zm50.94,79.87c-.81-.06-.78.49-.69,1,.65,3.51,1.33,7,2,10.53a2.79,2.79,0,0,0,2.24,2.45c4,1,7.94,2,11.93,2.91a1.53,1.53,0,0,0,1.23-.4c2.52-2.78,5-5.61,7.46-8.42.38-.43.5-.76-.23-1-5.58-2-11-4.46-16.89-5.62Zm-55.07.79,16-3.49c-6.94-5.43-12.53-11.91-18.29-18.29A176.31,176.31,0,0,0,360.05,157.64Zm60.93-1.2c-.32-3-.76-5.89-.89-8.78a79.35,79.35,0,0,1,0-11.33c.46-4.62,1.51-9.19,2.33-13.78.15-.84-.37-1.52-1.51-1.8-.85-.2-.76.62-.86,1-.53,2.16-.94,4.35-1.46,6.51-.93,3.85-2,7.63-4.49,10.87a2.34,2.34,0,0,0-.29,1.35q.06,5.39.2,10.77c0,1.19.11,2.38.22,3.56a.8.8,0,0,0,.55.52C416.81,155.72,418.88,156.07,421,156.44Zm24.48.5c1.63-2.15,3.1-4,4.45-5.9s2.8-3.72,3.09-6.14c.09-.75.12-1.5.2-2.26a5.21,5.21,0,0,0-1.89-4.76c-2.17-1.89-4.79-2-7.46-1.89-.78,0-.62.5-.55,1,.37,2.39.82,4.78,1,7.19.35,3.72.53,7.46.79,11.18A13.29,13.29,0,0,0,445.46,156.94Zm-82.57,1.86c.68.7,1.2,1.29,1.78,1.83,3.83,3.61,7.68,7.2,11.52,10.81,1.12,1.05,1.77.89,2.15-.63a3.77,3.77,0,0,0,.05-1.3c-.52-4.34-1.08-8.67-1.57-13-.08-.67-.33-.81-.91-.71-.78.14-1.56.27-2.35.39A53.22,53.22,0,0,0,362.89,158.8Zm19.4-95.73-.12-.23a2.91,2.91,0,0,0-.66,0c-3.11.71-6.24,1.35-9.31,2.17-3.44.91-5.61,3.34-7.21,6.4a4.86,4.86,0,0,0-.13,3.7,42.21,42.21,0,0,1,9-6.57c2.21-1.27,4.43-2.53,6.61-3.87A14.63,14.63,0,0,0,382.29,63.07Zm34.83,28.48c-1-1.25-1.88-2.38-2.78-3.49s-1.74-2.09-2.62-3.13l-.27.21,3.3,8.21Zm-54-14.64c1.24-.71,1-1.53.9-2.31l-.26-.07Zm51.42,18.67-.2.06.22.55.15,0ZM377.32,68.07l.05-.06-.07,0Z" />
        <path class="color-base"
            d="M392.37,204.23a5,5,0,0,0-.75-1.26c-4.06-3.77-8.39-7.06-13.83-8.7-5.72-1.72-11.28-4-17.05-5.49-4.73-1.22-8.38-4.16-12.41-6.52-.12-.07-.13-.33-.2-.5,2.68-8.79,5.88-17.42,7.9-26.44a3.49,3.49,0,0,1,.62,1.21,33.71,33.71,0,0,0,7.49,12.37c2,2.1,4,4.15,6.1,6.07,1.91,1.73,4,3.28,6,4.89,2.59,2,5.24,4,7.78,6.11,1.88,1.55,3,3.72,4.18,5.78a60.81,60.81,0,0,1,5.64,12.37,5.73,5.73,0,0,1,0,1.66l-1.53-1.57Z" />
        <path class="color-shadow"
            d="M455.09,143.73c1,1.15,2.15,2.4,3.23,3.71a5.47,5.47,0,0,1,1.1,3.6,39.37,39.37,0,0,0,.55,9.06,18.73,18.73,0,0,0,2.52,5.9q2.91,4.62,5.69,9.31a3,3,0,0,1-1.27,4,28,28,0,0,1-2.61,1.2c-4.16,1.59-7.67,4.25-11.35,6.66-4.61,3-9.31,5.93-14.84,7-3.48.68-6.94,1.48-10.44,2a34.33,34.33,0,0,0-13.83,5.36,27.76,27.76,0,0,0-6.92,7,3,3,0,0,1-2.87.87,1.07,1.07,0,0,1-.4-.66c-.45-1.82-.82-3.65-1.33-5.44a1.91,1.91,0,0,1,.64-2.29c4.85-4.24,9.92-8.19,15.16-11.93a101.05,101.05,0,0,0,17.05-16.08,175.56,175.56,0,0,0,16.14-22C452.78,148.73,453.86,146.15,455.09,143.73Zm-44.52,57.79.29.31c.8-.57,1.58-1.19,2.43-1.69,1.64-1,3.37-1.79,5-2.81,2-1.22,3.8-2.63,5.75-3.88a33.69,33.69,0,0,1,11.88-4.4c3.58-.72,7.06-1.9,10.57-2.92a1.48,1.48,0,0,0,.78-.81c.33-.76.53-1.59.82-2.37.45-1.19.94-2.36,1.41-3.54l.25.08-1.51,5.94c.89-.48,1.52-.74,2.07-1.12,1.64-1.12,3.19-2.39,4.88-3.43,2.83-1.71,5.73-3.3,8.61-4.91.48-.27,1-.49.81-1.14a20.74,20.74,0,0,0-1.37-4,42.92,42.92,0,0,0-3-4.2,22.5,22.5,0,0,1-4.11-8.56c-.35-1.73-.57-3.49-.85-5.23,0,0-.13,0-.16.06a3.45,3.45,0,0,0-.25.41A84.55,84.55,0,0,1,442.28,171c-4.87,5.13-9.82,10.18-14.75,15.24-1,1.09-2.14,2.16-3.28,3.15-2.28,2-4.63,3.9-6.92,5.88-1.59,1.38-3.15,2.81-4.7,4.24C411.91,200.12,411.25,200.83,410.57,201.52Z" />
        <path class="color-shadow"
            d="M393.89,205.78a5.73,5.73,0,0,0,0-1.66,60.81,60.81,0,0,0-5.64-12.37c-1.22-2.06-2.3-4.23-4.18-5.78-2.54-2.1-5.19-4.07-7.78-6.11-2-1.61-4.1-3.16-6-4.89-2.13-1.92-4.14-4-6.1-6.07a33.71,33.71,0,0,1-7.49-12.37,3.49,3.49,0,0,0-.62-1.21c-2,9-5.22,17.65-7.9,26.44l-5.07,1.05c2.6-6,5.68-11.81,7.71-18s3-12.76,4.44-19c.19,1,.39,2.24.67,3.47a25.59,25.59,0,0,0,7,12.87q7.67,7.5,15.88,14.42a97.41,97.41,0,0,1,9.27,9.35,105.47,105.47,0,0,1,7.54,9.45A42.79,42.79,0,0,1,400,203.3c.79,1.86.82,4,1.13,6.08,0,.18-.4.61-.62.61-2.23,0-4.47,0-6.7-.15-1.54-.08-3.07-.32-4.61-.49.2-.1.4-.3.6-.3,1.55,0,3.1.12,4.65.14.22,0,.45-.21.67-.33-.2-.22-.44-.67-.59-.64-1.05.19-1.48-.61-2.06-1.17a35.66,35.66,0,0,0-3.83-3.56,39.86,39.86,0,0,0-11.19-5c-2.9-.91-5.95-1.36-8.93-2-2.07-.45-4.14-.92-6.51-1.45a7.71,7.71,0,0,0,.68.77c2.35,1.89,4.6,3.93,7.09,5.62s5.44,3.15,8.16,4.74a6,6,0,0,1,1,.91,47.22,47.22,0,0,1-12.66-5.23,37.84,37.84,0,0,1-10.91-9.4c-1.49-1.92-3.11-3.74-4.67-5.6a5.27,5.27,0,0,1-.33-.57c5.36,3.34,11.42,3.79,17.12,5.43,2.67.78,5.3,1.72,7.95,2.6a55.55,55.55,0,0,1,5.52,1.95,40.07,40.07,0,0,1,10.69,7.37c.23.22.49.41.73.61v0l1.28,1.94Z" />
        <path class="color-shadow"
            d="M415.12,156.85l7,1.39c5.86,1.16,11.31,3.6,16.89,5.62.73.27.61.6.23,1-2.47,2.81-4.94,5.64-7.46,8.42a1.53,1.53,0,0,1-1.23.4c-4-.93-7.95-1.94-11.93-2.91a2.79,2.79,0,0,1-2.24-2.45c-.65-3.51-1.33-7-2-10.53C414.34,157.34,414.31,156.79,415.12,156.85Z" />
        <path class="color-base"
            d="M378.93,207.07a6,6,0,0,0-1-.91c-2.72-1.59-5.56-3-8.16-4.74s-4.74-3.73-7.09-5.62A7.71,7.71,0,0,1,362,195c2.37.53,4.44,1,6.51,1.45,3,.67,6,1.12,8.93,2a39.86,39.86,0,0,1,11.19,5,35.66,35.66,0,0,1,3.83,3.56c.58.56,1,1.36,2.06,1.17.15,0,.39.42.59.64-.22.12-.45.34-.67.33-1.55,0-3.1-.11-4.65-.14-.2,0-.4.2-.6.3Z" />
        <path class="color-shadow"
            d="M438.71,195.61a49.58,49.58,0,0,1-4.54,4c-3.59,2.52-7.21,5.07-11.35,6.61a46.61,46.61,0,0,1-7.46,2c-2.25.44-4.57.55-6.86.79a3.81,3.81,0,0,1-.82-.14,44.7,44.7,0,0,1,5.13-4.44c3.46-2.2,7-4.36,11.05-5.37,4.91-1.22,9.83-2.39,14.75-3.59Z" />
        <path class="color-shadow"
            d="M445.46,156.94a13.29,13.29,0,0,1-.33-1.58c-.26-3.72-.44-7.46-.79-11.18-.22-2.41-.67-4.8-1-7.19-.07-.5-.23-1,.55-1,2.67-.09,5.29,0,7.46,1.89a5.21,5.21,0,0,1,1.89,4.76c-.08.76-.11,1.51-.2,2.26-.29,2.42-1.77,4.25-3.09,6.14S447.09,154.79,445.46,156.94Z" />
        <path class="color-shadow"
            d="M362.89,158.8a53.22,53.22,0,0,1,10.67-2.62c.79-.12,1.57-.25,2.35-.39.58-.1.83,0,.91.71.49,4.34,1.05,8.67,1.57,13a3.77,3.77,0,0,1-.05,1.3c-.38,1.52-1,1.68-2.15.63-3.84-3.61-7.69-7.2-11.52-10.81C364.09,160.09,363.57,159.5,362.89,158.8Z" />
        <path class="color-shadow"
            d="M393.62,170.11c1.28,2.19,2.54,4.38,3.84,6.55a17.37,17.37,0,0,1,1.36,2.28,33.46,33.46,0,0,1-5.49-8.55Z" />
        <path class="color-shadow" d="M426.69,83.72l-3.54,3.43-.06-.53,3.31-3.35Z" />
        <path class="color-shadow" d="M429.55,136.76l.52-3.82.47,0c-.2,1.27-.41,2.54-.61,3.81Z" />
        <path class="color-shadow" d="M373.9,71.47,371,73.62l-.28-.38L373.84,71Z" />
        <path class="color-shadow" d="M388.08,182.11l-.41-3.93.31,0,.56,4Z" />
        <path class="color-shadow" d="M415.85,97.7l.69,2.29-.38.13-.9-2.72Z" />
        <path class="color-base" d="M363.11,76.91l.64-2.38.26.07C364.12,75.38,364.35,76.2,363.11,76.91Z" />
        <path class="color-shadow" d="M427.63,81.71l.9-1.43.35.24L427.7,82.1Z" />
        <path class="color-base" d="M375.56,68.94l1.21-.73,0,.44-.89.6Z" />
        <path class="color-base" d="M410.9,83.93l.65.77-.31.28-.52-.89Z" />
        <path class="color-base" d="M415.15,97.18l-.31.28-.26-.92.26-.1Z" />
        <path class="color-base" d="M358.56,154.77l.42.07.08.74-.23.07Z" />
        <path class="color-shadow" d="M356.05,59.91l.36-.43.44.05-.58.67Z" />
        <path class="color-shadow" d="M414.53,95.58l.17.56-.15,0-.22-.55Z" />
        <path class="color-shadow" d="M387.79,182.67l.45-.07-.12.47Z" />
        <path class="color-base" d="M375.87,69.28h-.81l.5-.35.34.31Z" />
        <path class="color-shadow" d="M376.79,68.65l0-.44h.28Z" />
        <polygon class="color-shadow" points="377.32 68.06 377.3 67.99 377.37 68.01 377.32 68.06" />
        <path class="color-shadow" d="M438.61,195.51l.24,0-.14.13Z" />
        <path class="color-shadow" d="M418,92.12a2,2,0,0,0-.17.23A2,2,0,0,1,418,92.12Z" />
        <path class="color-base" d="M410.72,84.09l-.05-.29.23.13Z" />
        <path class="color-shadow" d="M428.83,142.31c-.41,1.51-.83,3-1.24,4.52l-.5-.15,1.49-4.37Z" />
        <path class="color-shadow" d="M428.85,140.86c.19-1,.39-2.08.59-3.12l.37,0-.71,3.1Z" />
        <path class="color-shadow" d="M406.86,67.9l-2.22-1.66.34-.41,2.28,2Z" />
        <path class="color-shadow" d="M422,70.11l-1.07-2.24.45-.2.94,2.18Z" />
        <path class="color-shadow" d="M390.87,43.45l-.6-1.1.32-.19.6,1Z" />
        <path class="outline" d="M428.85,140.86h.25l-.27,1.45h-.25Z" />
        <path class="color-shadow" d="M356.27,60.2l-.65.88-.27-.17.7-1Z" />
        <path class="outline" d="M422,70.11l.32-.26.43,1-.32.28Z" />
        <path class="outline" d="M429.81,137.76l-.37,0c0-.33.07-.65.11-1l.38,0Z" />
        <path class="outline" d="M406.86,67.9l.4,0a.18.18,0,0,1,.13.17l-.16.12Z" />
        <path class="outline" d="M390.87,43.45l.32-.31a.29.29,0,0,1,.07.2l-.3.2A.11.11,0,0,1,390.87,43.45Z" />
        <path class="outline"
            d="M431.26,94.54c-1.23-.88-2.07-.94-2.87.21a22.85,22.85,0,0,0-1.91,3.91c-.07.18.17.53.32.76.5.75,1,1.48,1.55,2.22l-.37.24c-.43-.36-.86-.71-1.28-1.08s-.7-.16-.78.33a4.69,4.69,0,0,0,0,.84c0,2,.11,4-.08,6.06a5.87,5.87,0,0,1-1.22,2.41,19.82,19.82,0,0,1-1.49,1.71c-.43.52-1,1-.07,1.65a1.43,1.43,0,0,1-.37,1,1.35,1.35,0,0,1-2-1.34,2.43,2.43,0,0,1,1.32-2.14c.46-.25,1-.44,1.39-.7a3.38,3.38,0,0,0,1.72-3.56c-.21-3.68-.3-7.38,1.51-10.76A9,9,0,0,1,428.43,94a2.05,2.05,0,0,1,3.3.56Z" />
        <path class="outline"
            d="M431.72,97.17a16.76,16.76,0,0,1-1,8.67l-.33-.3a20.7,20.7,0,0,0,1-7.12c0-.43-.12-.86-.18-1.28Z" />
        <path class="outline"
            d="M427.9,111.62c-.86.4-1.54.76-2.25,1-.17.06-.45-.16-.69-.26.11-.19.16-.46.32-.57A2.15,2.15,0,0,1,427.9,111.62Z" />
        <path class="color-shadow" d="M430.44,105.54l.33.3-.54,1.43-.41-.16Z" />
        <path class="color-shadow" d="M431.72,97.17l-.46,0-.44-.78C431.55,96.33,431.55,96.33,431.72,97.17Z" />
        <path class="color-shadow" d="M428.67,102.19l.56,1.12-.34.17-.52-1Z" />
        <path class="color-shadow" d="M431.26,94.54h.47l0,.36Z" />
        <path class="outline" d="M428.67,102.19l-.3.28-.39-.59.37-.24Z" />
        <path class="outline" d="M403.86,165.35q-.17-4.11-.35-8.24h.33c.76,2.71.48,5.5.52,8.26Z" />
        <path class="color-shadow" d="M404.15,168.71l-.38,2.85-.45-.08.48-2.78Z" />
        <path class="color-shadow" d="M403.86,165.35h.5l-.18,2.42-.32-.28Z" />
        <path class="outline" d="M403.86,167.5l.32.28,0,.93h-.35Z" />
        <path class="outline" d="M393.89,205.78l-.25.37-1.28-1.94Z" />
        <path class="color-base"
            d="M410.57,201.52c.68-.69,1.34-1.4,2.06-2.06,1.55-1.43,3.11-2.86,4.7-4.24,2.29-2,4.64-3.89,6.92-5.88,1.14-1,2.23-2.06,3.28-3.15,4.93-5.06,9.88-10.11,14.75-15.24a84.55,84.55,0,0,0,12.62-17.64,3.45,3.45,0,0,1,.25-.41c0-.05.13-.05.16-.06.28,1.74.5,3.5.85,5.23a22.5,22.5,0,0,0,4.11,8.56,42.92,42.92,0,0,1,3,4.2,20.74,20.74,0,0,1,1.37,4c.19.65-.33.87-.81,1.14-2.88,1.61-5.78,3.2-8.61,4.91-1.69,1-3.24,2.31-4.88,3.43-.55.38-1.18.64-2.07,1.12l1.51-5.94-.25-.08c-.47,1.18-1,2.35-1.41,3.54-.29.78-.49,1.61-.82,2.37a1.48,1.48,0,0,1-.78.81c-3.51,1-7,2.2-10.57,2.92a33.69,33.69,0,0,0-11.88,4.4c-1.95,1.25-3.79,2.66-5.75,3.88-1.61,1-3.34,1.84-5,2.81-.85.5-1.63,1.12-2.43,1.69Z" />
    </g>
</svg>
