<svg id="img_70" data-name="img 70" xmlns="http://www.w3.org/2000/svg" viewBox="0 0 672 960">
    <g id="img_66_img" data-name="img 66 img">
        <path class="outline"
            d="M425.24,141.83c1.25.22,2.5.52,3.76.64,4,.37,8,.56,12,1.05a12.62,12.62,0,0,1,8,4,15.06,15.06,0,0,0,4.07,2.63c1.45.76,3.13,1.23,3.92,2.78a7.85,7.85,0,0,1,.84,3.14,13.53,13.53,0,0,0,5.4,10.58,31.41,31.41,0,0,1,7.61,8.39,4.5,4.5,0,0,1-2.37,6.58c-1.76.62-3.65.9-5.39,1.59a66.26,66.26,0,0,0-7.27,3.33c-3.26,1.78-6.38,3.8-9.58,5.67-1,.57-2,1-3,1.52a17.07,17.07,0,0,0-3.12,2.07c-5.34,5-11.19,9.31-18,12-2.66,1-5.62,1.36-8.46,1.92-1.82.36-3.69.53-5.53.83a58.25,58.25,0,0,1-17.78.43,76,76,0,0,1-17.46-4.29c-7-2.79-13.31-6.57-18.21-12.42-2.12-2.54-4.25-5.08-6.34-7.65a4.84,4.84,0,0,1-1-1.76c-.38-1.42-1.25-1.22-2.28-.9a20.28,20.28,0,0,1-3.23.87,2,2,0,0,1-1.63-.53,1.84,1.84,0,0,1-.05-1.72c2.13-3.14,4.39-6.18,6.54-9.3,2.35-3.41,4.72-6.82,6.9-10.35,2.66-4.3,5.08-8.74,7.7-13.07a5.93,5.93,0,0,1,5.45-3.08c4.78-.09,9.55-.65,14.31-1.08,4-.36,7.92-.82,11.88-1.24,4.24-.45,8.47-1,12.7-1.37,3.09-.31,6.19-.58,9.29-.77,2.47-.16,4.95-.18,7.42-.27a1.54,1.54,0,0,0,.47-.22Zm-40.06,37.65-.14-.09.11.13a6.74,6.74,0,0,0,1.38,1c4.49,1.9,9.29,2.13,14.06,2.26A61.79,61.79,0,0,0,416,181.06c3.64-.84,7.22-1.93,10.82-2.95a6.15,6.15,0,0,0,1.28-.74l-.16-.29c-.91.26-1.82.53-2.74.75A109.54,109.54,0,0,1,396,181a30.51,30.51,0,0,1-3.94-.22C389.78,180.41,387.48,179.92,385.18,179.48Zm-34.06,7.42-.16-.14.06.25c.71,1,1.37,2,2.16,3,3.72,4.44,7.54,8.75,12.68,11.67a50.57,50.57,0,0,0,13.07,5.44L389,209.27c.1.06.19.18.29.19,4.16.33,8.32.71,12.49.93a29.63,29.63,0,0,0,4.6-.31,23,23,0,0,0,2.72-.44c1.51-.33,3-.76,4.51-1.09,2.75-.61,5.67-.79,8.22-1.87A66.8,66.8,0,0,0,432,201.09a77.94,77.94,0,0,0,6.75-5.47l.14-.15-.26,0-6.2,1.41-.13-.38c1.14-.61,2.21-1.6,3.41-1.77,6.47-1,11.94-4.1,17.33-7.52,3.26-2.07,6.58-4.05,9.92-6,1.31-.76,2.75-1.28,4.11-2s2-2.77,1.3-3.76a77.05,77.05,0,0,0-6.09-8c-2.9-3.05-5.15-6.4-5.93-10.48-.75-3.91-3.67-5.07-6.78-6.37-.51,3.8-2.59,6.75-4.66,9.69-1.5,2.12-3.07,4.19-4.69,6.2a99.36,99.36,0,0,1-6.67,7.92c-2.8,2.82-5.9,5.37-8.95,7.94a63.85,63.85,0,0,1-6.18,4.68,19.24,19.24,0,0,1-4,1.55l.86-.58c2-1.27,4-2.49,5.91-3.81a19.43,19.43,0,0,0,2.15-2.08c-3.06.45-5.77.78-8.47,1.26-3.17.56-6.32,1.27-9.49,1.87a26.89,26.89,0,0,1-14.91-1.17c-.41-.16-.84-.27-1.26-.4l-.18.43c2.68,1.38,5.29,2.94,8.06,4.1a21.23,21.23,0,0,0,8.76,1.59c.18,0,.36.22.54.34-1.83-.08-3.67-.11-5.5-.24a21.63,21.63,0,0,1-12.65-5.15c-3.05-2.58-6-5.22-9-7.86-4.88-4.3-9.88-8.48-14.57-13a10.6,10.6,0,0,1-3.23-10.06c.1-.53.16-1.06.24-1.59a2.84,2.84,0,0,0-.8.91c-3.74,6.18-7.46,12.36-11.21,18.53-2.09,3.45-4.22,6.87-6.32,10.31a5,5,0,0,0-.34.88l5.21-1.05a2.36,2.36,0,0,0,.47.6,45.06,45.06,0,0,0,4.41,2.88c2.1,1.12,4.32,2,6.49,3l4.51,2.12a2.78,2.78,0,0,1-1,.09C359,189.66,354.9,188.8,351.12,186.9Zm53.4-40.76a175.07,175.07,0,0,0,4.5,33.58,5.07,5.07,0,0,0,1,0q9.31-1.71,18.63-3.48a1.8,1.8,0,0,0,.91-.51c2.58-2.79,5.17-5.56,7.68-8.41a16.86,16.86,0,0,0,3.07-4.09,17.51,17.51,0,0,1,3.53-5.37,12.69,12.69,0,0,0,2.89-4.91c1-2.8,0-5.47-2.88-6.56a17.79,17.79,0,0,0-4.4-1c-3-.34-6.05-.47-9.08-.74a44.18,44.18,0,0,0-5.58-.58c-4.06.18-8.11.59-12.16,1C409.93,145.34,407.22,145.77,404.52,146.14Zm-1.5.3c-3.6.32-6.94.62-10.28.9-4.65.38-9.31.72-14,1.12s-9.38.85-14.06,1.34a1.71,1.71,0,0,0-1.17.87c-1.25,2.91-.64,5.8.33,8.64a3.45,3.45,0,0,0,.87,1.38c2.52,2.39,5.08,4.74,7.63,7.11,3.1,2.87,6.2,5.76,9.32,8.62a3.47,3.47,0,0,0,1.31.67c.6.18,1.27.15,1.85.37A31.13,31.13,0,0,0,395.36,180c3.32.1,6.64,0,9.95,0a8.13,8.13,0,0,0,1.59-.32c-.35-3.27-.69-6.43-1-9.59,0-.27-.1-.71-.23-.75-1.67-.43-1.73-2-2.08-3.19a7.52,7.52,0,0,1,.36-4.36l1,2.83.25-.07Z" />
        <path class="color-base"
            d="M389,209.27l-10.07-2.19c-.25-.28-.46-.65-.77-.81a57.6,57.6,0,0,1-12.61-8.14c-1.09-1-2.23-1.86-3.35-2.78l.13-.25,14.4,3.19a1.15,1.15,0,0,0-.62-.63c-3-1.61-6-3.18-8.94-4.85a32.64,32.64,0,0,1-3.12-2.27l-4.51-2.12c-2.17-1-4.39-1.9-6.49-3a45.06,45.06,0,0,1-4.41-2.88,2.36,2.36,0,0,1-.47-.6c1.26-2.91,2.38-5.9,3.83-8.72,1.88-3.65,4-7.16,6-10.72.56-1,1.22-1.91,2-3.06a35.47,35.47,0,0,0,.87,3.6c1.81,5,5.46,8.69,9.35,12.08,2.69,2.34,5.7,4.31,8.52,6.51,3.38,2.65,6.55,5.56,10.42,7.55,4.41,2.27,8.88,4.22,14,4a54.67,54.67,0,0,0,6.78-.53,21.14,21.14,0,0,0,7.77-2.6c1.93-1.18,4-2.18,6-3.17,3.49-1.69,6.9-3.47,9.57-6.39s5.31-6,8.1-8.79a55.1,55.1,0,0,0,9.69-14.27,4.11,4.11,0,0,1,.54-.61,6.36,6.36,0,0,1,.58,1,24.38,24.38,0,0,0,5.55,8c1.85,1.87,3.76,3.7,5.42,5.74a9.51,9.51,0,0,1,1.4,3.48c.08.28-.43.89-.8,1.1-2.27,1.26-4.6,2.4-6.85,3.68a13,13,0,0,0-2.52,2c-1.52,1.45-2.84,3.13-4.47,4.42-3.39,2.67-7.37,4.27-11.37,5.79a47.27,47.27,0,0,0-10.43,5q-5.64,3.91-11.38,7.68A24.23,24.23,0,0,1,401.83,209c-1.32-.07-2.64,0-4,0-2.54,0-5.08,0-7.62,0A7.83,7.83,0,0,0,389,209.27Zm58.92-34.82-2.08,1.91.37.37,2.09-1.91.12-.22c.63-.66,1.33-1.27,1.89-2a14.24,14.24,0,0,0,3.37-6.76c.1-.66.15-1.4-.87-1.79a6.4,6.4,0,0,1-1.08,4.9c-1.09,1.85-2.38,3.57-3.58,5.35Zm-44.14,24c-2.33-.49-4.4-.79-6.39-1.38a49.9,49.9,0,0,1-23-14.63c-2.16-2.36-4.3-4.73-6.47-7.08a6.47,6.47,0,0,0-1-.75c1.49,2.12,3.16,4,4.75,6a49.1,49.1,0,0,0,21.81,15.83A30.37,30.37,0,0,0,403.78,198.47Z" />
        <path class="color-shadow"
            d="M404.52,146.14c2.7-.37,5.41-.8,8.14-1.08,4-.41,8.1-.82,12.16-1a44.18,44.18,0,0,1,5.58.58c3,.27,6.06.4,9.08.74a17.79,17.79,0,0,1,4.4,1c2.87,1.09,3.87,3.76,2.88,6.56a12.69,12.69,0,0,1-2.89,4.91,17.51,17.51,0,0,0-3.53,5.37,16.86,16.86,0,0,1-3.07,4.09c-2.51,2.85-5.1,5.62-7.68,8.41a1.8,1.8,0,0,1-.91.51q-9.31,1.77-18.63,3.48a5.07,5.07,0,0,1-1,0A175.07,175.07,0,0,1,404.52,146.14Z" />
        <path class="color-shadow"
            d="M403,146.44l2.12,18.13-.25.07-1-2.83a7.52,7.52,0,0,0-.36,4.36c.35,1.22.41,2.76,2.08,3.19.13,0,.2.48.23.75.35,3.16.69,6.32,1,9.59a8.13,8.13,0,0,1-1.59.32c-3.31,0-6.63.08-9.95,0a31.13,31.13,0,0,1-10.51-2.54c-.58-.22-1.25-.19-1.85-.37a3.47,3.47,0,0,1-1.31-.67c-3.12-2.86-6.22-5.75-9.32-8.62-2.55-2.37-5.11-4.72-7.63-7.11a3.45,3.45,0,0,1-.87-1.38c-1-2.84-1.58-5.73-.33-8.64a1.71,1.71,0,0,1,1.17-.87q7-.74,14.06-1.34c4.66-.4,9.32-.74,14-1.12C396.08,147.06,399.42,146.76,403,146.44Z" />
        <path class="color-shadow"
            d="M389,209.27a7.83,7.83,0,0,1,1.25-.23c2.54,0,5.08,0,7.62,0,1.32,0,2.64-.05,4,0a24.23,24.23,0,0,0,14.89-4.34q5.73-3.78,11.38-7.68a47.27,47.27,0,0,1,10.43-5c4-1.52,8-3.12,11.37-5.79,1.63-1.29,3-3,4.47-4.42a13,13,0,0,1,2.52-2c2.25-1.28,4.58-2.42,6.85-3.68.37-.21.88-.82.8-1.1a9.51,9.51,0,0,0-1.4-3.48c-1.66-2-3.57-3.87-5.42-5.74a24.38,24.38,0,0,1-5.55-8,6.36,6.36,0,0,0-.58-1,4.11,4.11,0,0,0-.54.61,55.1,55.1,0,0,1-9.69,14.27c-2.79,2.84-5.42,5.84-8.1,8.79s-6.08,4.7-9.57,6.39c-2,1-4.09,2-6,3.17a21.14,21.14,0,0,1-7.77,2.6,54.67,54.67,0,0,1-6.78.53c-5.08.2-9.55-1.75-14-4-3.87-2-7-4.9-10.42-7.55-2.82-2.2-5.83-4.17-8.52-6.51-3.89-3.39-7.54-7-9.35-12.08a35.47,35.47,0,0,1-.87-3.6c-.74,1.15-1.4,2.08-2,3.06-2,3.56-4.16,7.07-6,10.72-1.45,2.82-2.57,5.81-3.83,8.72L343,183a5,5,0,0,1,.34-.88c2.1-3.44,4.23-6.86,6.32-10.31,3.75-6.17,7.47-12.35,11.21-18.53a2.84,2.84,0,0,1,.8-.91c-.08.53-.14,1.06-.24,1.59A10.6,10.6,0,0,0,364.62,164c4.69,4.51,9.69,8.69,14.57,13,3,2.64,6,5.28,9,7.86A21.63,21.63,0,0,0,400.88,190c1.83.13,3.67.16,5.5.24l2.14-.4,5.89-1.15a19.24,19.24,0,0,0,4-1.55,63.85,63.85,0,0,0,6.18-4.68c3.05-2.57,6.15-5.12,8.95-7.94a99.36,99.36,0,0,0,6.67-7.92c1.62-2,3.19-4.08,4.69-6.2,2.07-2.94,4.15-5.89,4.66-9.69,3.11,1.3,6,2.46,6.78,6.37.78,4.08,3,7.43,5.93,10.48a77.05,77.05,0,0,1,6.09,8c.71,1-.08,3.14-1.3,3.76s-2.8,1.2-4.11,2c-3.34,1.94-6.66,3.92-9.92,6-5.39,3.42-10.86,6.55-17.33,7.52-1.2.17-2.27,1.16-3.41,1.77l.13.38,6.2-1.41.12.12a77.94,77.94,0,0,1-6.75,5.47,66.8,66.8,0,0,1-10.14,5.59c-2.55,1.08-5.47,1.26-8.22,1.87-1.51.33-3,.76-4.51,1.09a23,23,0,0,1-2.72.44,29.63,29.63,0,0,1-4.6.31c-4.17-.22-8.33-.6-12.49-.93C389.19,209.45,389.1,209.33,389,209.27Z" />
        <path class="color-shadow"
            d="M364.05,190.54a32.64,32.64,0,0,0,3.12,2.27c2.95,1.67,5.95,3.24,8.94,4.85a1.15,1.15,0,0,1,.62.63l-14.4-3.19-.13.25c1.12.92,2.26,1.82,3.35,2.78a57.6,57.6,0,0,0,12.61,8.14c.31.16.52.53.77.81a50.57,50.57,0,0,1-13.07-5.44c-5.14-2.92-9-7.23-12.68-11.67-.79-.93-1.45-2-2.16-3l.1-.11c3.78,1.9,7.89,2.76,11.95,3.73A2.78,2.78,0,0,0,364.05,190.54Z" />
        <path class="color-shadow-dark"
            d="M414.41,188.68l-5.89,1.15-2.14.4c-.18-.12-.36-.34-.54-.34a21.23,21.23,0,0,1-8.76-1.59c-2.77-1.16-5.38-2.72-8.06-4.1l.18-.43c.42.13.85.24,1.26.4a26.89,26.89,0,0,0,14.91,1.17c3.17-.6,6.32-1.31,9.49-1.87,2.7-.48,5.41-.81,8.47-1.26a19.43,19.43,0,0,1-2.15,2.08c-1.93,1.32-3.94,2.54-5.91,3.81Z" />
        <path class="color-shadow-dark"
            d="M385.18,179.48c2.3.44,4.6.93,6.91,1.28A30.51,30.51,0,0,0,396,181a109.54,109.54,0,0,0,29.14-3.15c.92-.22,1.83-.49,2.74-.75l.16.29a6.15,6.15,0,0,1-1.28.74c-3.6,1-7.18,2.11-10.82,2.95a61.79,61.79,0,0,1-15.38,1.74c-4.77-.13-9.57-.36-14.06-2.26a6.74,6.74,0,0,1-1.38-1Z" />
        <path class="color-shadow-dark" d="M385.15,179.52l-.11-.13.14.09Z" />
        <path class="color-shadow" d="M351,187l-.06-.25.16.14Z" />
        <path class="color-shadow" d="M438.6,195.5l.26,0-.14.15Z" />
        <path class="outline"
            d="M403.78,198.47a30.37,30.37,0,0,1-10.35-2.06,49.1,49.1,0,0,1-21.81-15.83c-1.59-2-3.26-3.83-4.75-6a6.47,6.47,0,0,1,1,.75c2.17,2.35,4.31,4.72,6.47,7.08a49.9,49.9,0,0,0,23,14.63C399.38,197.68,401.45,198,403.78,198.47Z" />
        <path class="outline"
            d="M448.15,174.32c1.2-1.78,2.49-3.5,3.58-5.35a6.4,6.4,0,0,0,1.08-4.9c1,.39,1,1.13.87,1.79a14.24,14.24,0,0,1-3.37,6.76c-.56.71-1.26,1.32-1.89,2Z" />
        <path class="color-shadow-dark"
            d="M448.3,174.82l-2.09,1.91-.37-.37,2.08-1.91C448.05,174.57,448.18,174.69,448.3,174.82Z" />
        <path class="outline" d="M448.3,174.82c-.12-.13-.25-.25-.38-.37l.23-.13.27.28Z" />
    </g>
</svg>
