<svg id="img_70" data-name="img 70" xmlns="http://www.w3.org/2000/svg" viewBox="0 0 672 960">
    <g id="img_65_img" data-name="img 65 img">
        <path class="color-base"
            d="M433.16,129.59c.08.15.16.31.23.47l-5.53.66c.85-.18,1.71-.32,2.55-.55a3.08,3.08,0,0,0,.83-.59Z" />
        <path class="color-base" d="M442.77,130.07l.23-.49h.48a4.89,4.89,0,0,0,.59.61c.75.53,1.52,1,2.27,1.56Z" />
        <path class="outline"
            d="M442.77,130.07l3.57,1.68a9.41,9.41,0,0,0,3.47,2.13,9.79,9.79,0,0,1,5.9,5.81,16.93,16.93,0,0,0,3.2,4.68c1.68,1.89,2.76,3.9,2.48,6.47-.14,1.26-.42,2.51-.58,3.76a14.13,14.13,0,0,0,3.61,11.79,74.77,74.77,0,0,1,6.36,8.69,4.4,4.4,0,0,1-2.13,6.38,23.29,23.29,0,0,1-3.21,1c-4.41,1.07-8.3,3.23-12.15,5.53-3.69,2.21-7.22,4.72-11.29,6.26a6.43,6.43,0,0,0-1.9,1.59,57.46,57.46,0,0,1-18,12,34.67,34.67,0,0,1-7.18,1.73c-3.93.66-7.88,1.19-11.84,1.67a52.64,52.64,0,0,1-14.56-.53,69.8,69.8,0,0,1-15.7-4.09c-6.93-2.81-13.2-6.61-18.11-12.4-2.35-2.77-5.08-5.23-6.81-8.49-.37-.7-.72-1.42-1.15-2.28l-4.41,1.25c-.76.22-1.51.37-2.07-.37s-.22-1.44.18-2.2c2.56-5,6.24-9.35,8.05-14.67a125.77,125.77,0,0,0,3.36-12.57c.77-3.33,1.18-6.75,1.88-10.11.33-1.59,1-3.11,1.42-4.68.55-2.1,2.19-2.76,4-2.71a51.38,51.38,0,0,1,6.37.9,6,6,0,0,0,1.14.24c6.61-.31,13,1.09,19.52,2a64.93,64.93,0,0,0,10.14.56,13.65,13.65,0,0,0,5-1.49c6.76-3.06,13.81-5.29,20.81-7.68l4.11-.85.46-.05.74-.19.47,0,5.53-.66ZM438.6,195.5c-1.83.43-3.64.91-5.48,1.3-6.86,1.44-13.6,3.18-19.58,7.1a33,33,0,0,0-5.56,5,3.08,3.08,0,0,0,1.2,0c1.3-.14,2.62-.19,3.91-.43,3-.55,6.07-.78,8.83-1.89a57.37,57.37,0,0,0,9.75-5.33,86.27,86.27,0,0,0,7.05-5.68l.14-.15Zm-19.46-14.44c-4.63.8-9.25,1.69-13.9,2.37a49.18,49.18,0,0,1-6.87.36c-1.64,0-3.28-.26-5.09-.41.31.45.52.78.75,1.09a56.71,56.71,0,0,1,6.54,10.61,15.12,15.12,0,0,0,.78,1.74.93.93,0,0,0,.81.32,23.64,23.64,0,0,0,2.73-2q3.54-3.22,7-6.55c1-1,1.95-2,3-3,1.47-1.45,3-2.86,4.48-4.28l.1-.25Zm-57.56-23.61c2.27,3.91,5.65,6.82,8.93,9.82.54.47,1.1.92,1.61,1.42,4.77,4.61,9.62,9.13,14.25,13.87a72.14,72.14,0,0,1,14.53,21c.29.65.6,1.28,1,2.13a13.3,13.3,0,0,0-1.1-6.21,63,63,0,0,0-7.3-12.62,99.56,99.56,0,0,0-11.31-13.77c-1.53-1.47-3.11-2.88-4.57-4.41-2.66-2.81-5.3-5.65-7.87-8.55a27.82,27.82,0,0,1-7.22-17,4.7,4.7,0,0,0-.13-.63.51.51,0,0,0-.28.38c-.58,3.42-1,6.87-1.8,10.25A4.47,4.47,0,0,0,361.58,157.45Zm82.79,1.88a6.14,6.14,0,0,1,.34-.62l4.81-6.75c.9-1.59,1.79-3.19,2.71-4.76a2.24,2.24,0,0,0-.2-2.59c-1-1.47-2.11-2.88-3.21-4.37a2.64,2.64,0,0,0-.26.54,41.4,41.4,0,0,1-4.28,9.88,200.79,200.79,0,0,1-13,20.23,108,108,0,0,1-16,17.11c-4,3.42-7.71,7.19-11.53,10.82-.29.28-.66.75-.61,1.08.22,1.39.58,2.77.89,4.15l.46.22a3.66,3.66,0,0,1,.46-.85c2.63-2.84,5.31-5.64,7.91-8.51,3.41-3.76,6.86-7.48,10.11-11.38,4.41-5.27,8.86-10.5,13.75-15.34C439.46,165.44,441.82,162.29,444.37,159.33ZM343,182.91l5-1.26c.15.24.24.57.46.72,1.48,1,2.93,2.1,4.49,3a36.92,36.92,0,0,0,5.91,2.85q9.22,3.15,18.56,6a33.09,33.09,0,0,1,11.8,6.66,37.51,37.51,0,0,1,2.67,2.68,4.8,4.8,0,0,1-.78-.41c-2.58-1.88-5-4.08-7.76-5.58-5.21-2.81-10.91-4.45-16.61-6-4.68-1.28-9.55-1.9-14-3.91-.57-.25-1.17-.43-1.76-.65A18.29,18.29,0,0,0,353.2,190c3.73,4.38,7.52,8.69,12.64,11.59a50.26,50.26,0,0,0,13.09,5.46L389,209.27c.14.07.27.2.41.21l10.74.55a10.09,10.09,0,0,0,1.26-.14c-.52-1.75-.85-3.4-1.48-4.93a57.9,57.9,0,0,0-8.44-14.16c-3.34-4.12-7.1-7.89-10.71-11.79-1.27-1.38-2.57-2.74-3.94-4-4.91-4.58-10-9-14.72-13.74a22.32,22.32,0,0,1-6.5-15.19,5.72,5.72,0,0,0-.14-.81,1.29,1.29,0,0,0-.49.76c-.9,4.37-1.83,8.73-2.69,13.1a56.67,56.67,0,0,1-5.62,15.6c-1.4,2.64-2.52,5.42-3.77,8.14l-.09.15Zm65.89-5.15a4.81,4.81,0,0,0,.75.05c4.9-.82,9.8-1.63,14.69-2.48a1.77,1.77,0,0,0,1-.64c2.34-2.84,4.8-5.58,6.93-8.58,4.17-5.89,8.17-11.91,12.21-17.9a14.66,14.66,0,0,0,2.09-3.81,23.8,23.8,0,0,0,.9-5.63,5.3,5.3,0,0,0-2.09-4.49,7.5,7.5,0,0,0-4.79-1.58,68.42,68.42,0,0,0-14.79,1c-3.27.65-6.66.94-9.64,2.7a15.72,15.72,0,0,1-3.23,1.55c-2.42.77-4.89,1.41-7.35,2.06a1.34,1.34,0,0,0-1.15,1.61c.25,3.53.36,7.07.66,10.6s.69,7.21,1.25,10.78C407,167.9,408,172.78,408.86,177.76Zm-6.25-36.55c-.6.24-1,.42-1.4.57a23.74,23.74,0,0,1-4.29,1.43,31.07,31.07,0,0,1-11.13-.88,56.25,56.25,0,0,0-18.52-1.51c-2.06.23-3.19,1.45-3,3.54.05.47.14.94.18,1.42a21.63,21.63,0,0,0,8.33,15.46,72.05,72.05,0,0,1,5.62,5c1.54,1.53,2.89,3.24,4.34,4.86s2.7,3,4.06,4.45c.44.47.85,1.15,1.38,1.28a34.68,34.68,0,0,0,6.2,1.14c3.42.21,6.86.13,10.3.14a17.18,17.18,0,0,0,2.19-.29c-.36-3.32-.7-6.49-1.05-9.65,0-.26-.1-.71-.23-.74-1.65-.4-1.69-1.91-2.05-3.08a7.57,7.57,0,0,1,.33-4.48l1,2.87.28-.06C404.32,155.6,403.47,148.51,402.61,141.21Zm52.85,3.17c-.09.2-.17.33-.21.46a33.78,33.78,0,0,1-6.3,11.38c-5.66,7.06-11.43,14.05-17.44,20.82-6.72,7.56-13.75,14.84-20.64,22.24-1.9,2-3.78,4.12-5.72,6.14a5.4,5.4,0,0,0-1.43,3.32.92.92,0,0,0,.35.77,2.89,2.89,0,0,0,2.88-.87c2.73-4.46,6.83-7.31,11.36-9.64,3.94-2,8.25-2.72,12.54-3.34,7.66-1.1,14.86-3.31,21.23-7.85a70.71,70.71,0,0,1,14.29-8.23c2.3-.93,2.79-2.73,1.54-4.89-.34-.59-.66-1.19-1-1.77-1.8-2.88-3.72-5.69-5.39-8.64-2.08-3.68-2.37-7.81-2-11.88C459.79,148.79,457.88,146.58,455.46,144.38Zm-31.7,31.85a111.15,111.15,0,0,1-33.88,2.59c.33.5.69,1.14,1.12,1.19,4.49.56,9,1.3,13.52.68,4.13-.56,8.25-1.14,12.36-1.8,1.64-.27,3.23-.89,4.87-1.15A2.23,2.23,0,0,0,423.76,176.23Zm-62.56-36c-2.35-.61-3.36-.16-3.88,2a8.24,8.24,0,0,0,0,3.28c.41,2.45,1,4.88,1.46,7.31l.5,0Zm92,2.17c.33-2.54-1.55-5-3.51-5.3C450.3,139.18,451.75,140.63,453.19,142.36Z" />
        <path class="color-base" d="M426.19,131l-4.11.85Z" />
        <path class="color-base" d="M427.39,130.76l-.74.19Z" />
        <path class="color-shadow"
            d="M408.86,177.76c-.89-5-1.84-9.86-2.6-14.77-.56-3.57-.93-7.18-1.25-10.78s-.41-7.07-.66-10.6A1.34,1.34,0,0,1,405.5,140c2.46-.65,4.93-1.29,7.35-2.06a15.72,15.72,0,0,0,3.23-1.55c3-1.76,6.37-2,9.64-2.7a68.42,68.42,0,0,1,14.79-1,7.5,7.5,0,0,1,4.79,1.58,5.3,5.3,0,0,1,2.09,4.49,23.8,23.8,0,0,1-.9,5.63,14.66,14.66,0,0,1-2.09,3.81c-4,6-8,12-12.21,17.9-2.13,3-4.59,5.74-6.93,8.58a1.77,1.77,0,0,1-1,.64c-4.89.85-9.79,1.66-14.69,2.48A4.81,4.81,0,0,1,408.86,177.76Z" />
        <path class="color-shadow"
            d="M402.61,141.21c.86,7.3,1.71,14.39,2.55,21.48l-.28.06-1-2.87a7.57,7.57,0,0,0-.33,4.48c.36,1.17.4,2.68,2.05,3.08.13,0,.2.48.23.74.35,3.16.69,6.33,1.05,9.65a17.18,17.18,0,0,1-2.19.29c-3.44,0-6.88.07-10.3-.14a34.68,34.68,0,0,1-6.2-1.14c-.53-.13-.94-.81-1.38-1.28q-2-2.22-4.06-4.45c-1.45-1.62-2.8-3.33-4.34-4.86a72.05,72.05,0,0,0-5.62-5,21.63,21.63,0,0,1-8.33-15.46c0-.48-.13-.95-.18-1.42-.23-2.09.9-3.31,3-3.54a56.25,56.25,0,0,1,18.52,1.51,31.07,31.07,0,0,0,11.13.88,23.74,23.74,0,0,0,4.29-1.43C401.62,141.63,402,141.45,402.61,141.21Z" />
        <path class="color-base"
            d="M391.9,203.5a37.51,37.51,0,0,0-2.67-2.68,33.09,33.09,0,0,0-11.8-6.66q-9.33-2.81-18.56-6a36.92,36.92,0,0,1-5.91-2.85c-1.56-.87-3-2-4.49-3-.22-.15-.31-.48-.46-.72a2.94,2.94,0,0,0,.31-.5c.89-2.8,1.83-5.6,2.65-8.42,1.38-4.73,2.68-9.49,4-14.23.3-1.06.64-2.12,1-3.19a4.19,4.19,0,0,1,.72,1.27c1.3,2.63,2.44,5.37,4,7.85a47.55,47.55,0,0,0,9.76,10.76c1.93,1.65,3.95,3.2,5.95,4.77,2.53,2,5.25,3.78,7.56,6a30.87,30.87,0,0,1,4.2,5.75,55.49,55.49,0,0,1,5.7,12.34,6.11,6.11,0,0,1,.1,1.25l-1.74-1.57-.31-.24Z" />
        <path class="color-shadow"
            d="M455.46,144.38c2.42,2.2,4.33,4.41,4,8-.35,4.07-.06,8.2,2,11.88,1.67,2.95,3.59,5.76,5.39,8.64.36.58.68,1.18,1,1.77,1.25,2.16.76,4-1.54,4.89a70.71,70.71,0,0,0-14.29,8.23c-6.37,4.54-13.57,6.75-21.23,7.85-4.29.62-8.6,1.32-12.54,3.34-4.53,2.33-8.63,5.18-11.36,9.64a2.89,2.89,0,0,1-2.88.87.92.92,0,0,1-.35-.77,5.4,5.4,0,0,1,1.43-3.32c1.94-2,3.82-4.1,5.72-6.14,6.89-7.4,13.92-14.68,20.64-22.24,6-6.77,11.78-13.76,17.44-20.82a33.78,33.78,0,0,0,6.3-11.38C455.29,144.71,455.37,144.58,455.46,144.38Zm-44.53,56.74.26.34c.68-.44,1.36-.89,2.06-1.31,2.1-1.27,4.28-2.44,6.31-3.82,4.5-3.08,9.12-5.8,14.55-7,4-.88,8-2,12-3.12a2,2,0,0,0,1.14-.9,18.06,18.06,0,0,0,.82-2.24c.46-1.24.94-2.47,1.42-3.7l.26.08-1.51,6c.89-.48,1.51-.74,2.06-1.11,1.64-1.13,3.19-2.4,4.89-3.43,2.82-1.72,5.74-3.28,8.59-4.95.37-.22.86-.8.79-1.09a16.49,16.49,0,0,0-1.32-4,44.81,44.81,0,0,0-3-4.2,22.58,22.58,0,0,1-4.11-8.56c-.35-1.73-.57-3.48-.86-5.33a5.1,5.1,0,0,0-.4.58,86.69,86.69,0,0,1-14.8,19.88c-2.27,2.23-4.37,4.64-6.55,7a194.63,194.63,0,0,1-16.95,15.66C414.64,197.51,412.81,199.35,410.93,201.12Z" />
        <path class="color-shadow"
            d="M392.2,203.73l1.74,1.57a6.11,6.11,0,0,0-.1-1.25,55.49,55.49,0,0,0-5.7-12.34,30.87,30.87,0,0,0-4.2-5.75c-2.31-2.22-5-4-7.56-6-2-1.57-4-3.12-5.95-4.77a47.55,47.55,0,0,1-9.76-10.76c-1.55-2.48-2.69-5.22-4-7.85a4.19,4.19,0,0,0-.72-1.27c-.32,1.07-.66,2.13-1,3.19-1.35,4.74-2.65,9.5-4,14.23-.82,2.82-1.76,5.62-2.65,8.42a2.94,2.94,0,0,1-.31.5l-5,1.26-.06-.06c1.25-2.72,2.37-5.5,3.77-8.14a56.67,56.67,0,0,0,5.62-15.6c.86-4.37,1.79-8.73,2.69-13.1a1.29,1.29,0,0,1,.49-.76,5.72,5.72,0,0,1,.14.81,22.32,22.32,0,0,0,6.5,15.19c4.69,4.79,9.81,9.16,14.72,13.74,1.37,1.28,2.67,2.64,3.94,4,3.61,3.9,7.37,7.67,10.71,11.79A57.9,57.9,0,0,1,399.93,205c.63,1.53,1,3.18,1.48,4.93a10.09,10.09,0,0,1-1.26.14l-10.74-.55c-.14,0-.27-.14-.41-.21a7.83,7.83,0,0,1,1.25-.23c1.61,0,3.23,0,4.9,0l-.28-.89-.2.28a8.74,8.74,0,0,1-1.67-.85,16.22,16.22,0,0,1-1.34-1.51c-4.16-4.36-9.7-6.11-15.22-7.8-2.34-.72-4.8-1.1-7.2-1.63L362,195c.44.48.63.73.86.93a71.83,71.83,0,0,0,15.37,10.41c.28.13.46.46.69.7a50.26,50.26,0,0,1-13.09-5.46c-5.12-2.9-8.91-7.21-12.64-11.59a18.29,18.29,0,0,1-2.24-3.09c.59.22,1.19.4,1.76.65,4.48,2,9.35,2.63,14,3.91,5.7,1.56,11.4,3.2,16.61,6,2.78,1.5,5.18,3.7,7.76,5.58a4.8,4.8,0,0,0,.78.41h0Z" />
        <path class="color-shadow"
            d="M444.37,159.33c-2.55,3-4.91,6.11-7.68,8.86-4.89,4.84-9.34,10.07-13.75,15.34-3.25,3.9-6.7,7.62-10.11,11.38-2.6,2.87-5.28,5.67-7.91,8.51a3.66,3.66,0,0,0-.46.85l-.46-.22c-.31-1.38-.67-2.76-.89-4.15-.05-.33.32-.8.61-1.08,3.82-3.63,7.52-7.4,11.53-10.82a108,108,0,0,0,16-17.11,200.79,200.79,0,0,0,13-20.23,41.4,41.4,0,0,0,4.28-9.88,2.64,2.64,0,0,1,.26-.54c1.1,1.49,2.19,2.9,3.21,4.37a2.24,2.24,0,0,1,.2,2.59c-.92,1.57-1.81,3.17-2.71,4.76v-2.31l-.38-.06c-.24.52-.44,1-.71,1.54-1.29,2.29-2.61,4.56-3.86,6.87C444.38,158.35,443.57,158.76,444.37,159.33Z" />
        <path class="color-shadow"
            d="M361.58,157.45a4.47,4.47,0,0,1-1.25-4.32c.77-3.38,1.22-6.83,1.8-10.25a.51.51,0,0,1,.28-.38,4.7,4.7,0,0,1,.13.63,27.82,27.82,0,0,0,7.22,17c2.57,2.9,5.21,5.74,7.87,8.55,1.46,1.53,3,2.94,4.57,4.41a99.56,99.56,0,0,1,11.31,13.77,63,63,0,0,1,7.3,12.62,13.3,13.3,0,0,1,1.1,6.21c-.41-.85-.72-1.48-1-2.13a72.14,72.14,0,0,0-14.53-21c-4.63-4.74-9.48-9.26-14.25-13.87-.51-.5-1.07-.95-1.61-1.42a3.46,3.46,0,0,0-.37-1.19A37.73,37.73,0,0,1,364,154.54c-.26-.85-.54-1.69-.81-2.53a4,4,0,0,0-.59,1.46C362.27,154.8,361.92,156.12,361.58,157.45Z" />
        <path class="color-shadow-dark"
            d="M419.31,181.25c-1.5,1.42-3,2.83-4.48,4.28-1,1-1.94,2.05-3,3q-3.45,3.31-7,6.55a23.64,23.64,0,0,1-2.73,2,.93.93,0,0,1-.81-.32,15.12,15.12,0,0,1-.78-1.74A56.71,56.71,0,0,0,394,184.47c-.23-.31-.44-.64-.75-1.09,1.81.15,3.45.41,5.09.41a49.18,49.18,0,0,0,6.87-.36c4.65-.68,9.27-1.57,13.9-2.37Z" />
        <path class="color-base"
            d="M378.93,207.08c-.23-.24-.41-.57-.69-.7A71.83,71.83,0,0,1,362.87,196c-.23-.2-.42-.45-.86-.93l7.23,1.59c2.4.53,4.86.91,7.2,1.63,5.52,1.69,11.06,3.44,15.22,7.8a16.22,16.22,0,0,0,1.34,1.51,8.74,8.74,0,0,0,1.67.85l.2-.28.28.89c-1.67,0-3.29,0-4.9,0a7.83,7.83,0,0,0-1.25.23Z" />
        <path class="color-shadow"
            d="M438.72,195.62a86.27,86.27,0,0,1-7.05,5.68,57.37,57.37,0,0,1-9.75,5.33c-2.76,1.11-5.86,1.34-8.83,1.89-1.29.24-2.61.29-3.91.43a3.08,3.08,0,0,1-1.2,0,33,33,0,0,1,5.56-5c6-3.92,12.72-5.66,19.58-7.1,1.84-.39,3.65-.87,5.48-1.3Z" />
        <path class="color-shadow-dark"
            d="M423.76,176.23a2.23,2.23,0,0,1-2,1.51c-1.64.26-3.23.88-4.87,1.15-4.11.66-8.23,1.24-12.36,1.8-4.54.62-9-.12-13.52-.68-.43,0-.79-.69-1.12-1.19A111.15,111.15,0,0,0,423.76,176.23Z" />
        <path class="color-shadow"
            d="M361.2,140.19l-1.88,12.53-.5,0c-.49-2.43-1.05-4.86-1.46-7.31a8.24,8.24,0,0,1,0-3.28C357.84,140,358.85,139.58,361.2,140.19Z" />
        <path class="color-base"
            d="M361.58,157.45c.34-1.33.69-2.65,1-4a4,4,0,0,1,.59-1.46c.27.84.55,1.68.81,2.53a37.73,37.73,0,0,0,6.14,11.54,3.46,3.46,0,0,1,.37,1.19C367.23,164.27,363.85,161.36,361.58,157.45Z" />
        <path class="color-base"
            d="M444.37,159.33c-.8-.57,0-1,.2-1.33,1.25-2.31,2.57-4.58,3.86-6.87.27-.49.47-1,.71-1.54l.38.06V152l-4.81,6.75A6.14,6.14,0,0,0,444.37,159.33Z" />
        <path class="color-shadow-dark"
            d="M453.19,142.36c-1.44-1.73-2.89-3.18-3.51-5.3C451.64,137.36,453.52,139.82,453.19,142.36Z" />
        <path class="color-shadow-dark" d="M419.14,181.06l.27-.06-.1.25Z" />
        <path class="color-shadow" d="M343,182.91l-.15.09.09-.15Z" />
        <path class="color-shadow" d="M438.6,195.5l.26,0-.14.15Z" />
        <path class="outline" d="M392.2,203.73l-.31-.24Z" />
        <path class="color-base"
            d="M410.93,201.12c1.88-1.77,3.71-3.61,5.67-5.28a194.63,194.63,0,0,0,16.95-15.66c2.18-2.34,4.28-4.75,6.55-7a86.69,86.69,0,0,0,14.8-19.88,5.1,5.1,0,0,1,.4-.58c.29,1.85.51,3.6.86,5.33a22.58,22.58,0,0,0,4.11,8.56,44.81,44.81,0,0,1,3,4.2,16.49,16.49,0,0,1,1.32,4c.07.29-.42.87-.79,1.09-2.85,1.67-5.77,3.23-8.59,4.95-1.7,1-3.25,2.3-4.89,3.43-.55.37-1.17.63-2.06,1.11l1.51-6-.26-.08c-.48,1.23-1,2.46-1.42,3.7a18.06,18.06,0,0,1-.82,2.24,2,2,0,0,1-1.14.9c-4,1.08-7.95,2.24-12,3.12-5.43,1.17-10.05,3.89-14.55,7-2,1.38-4.21,2.55-6.31,3.82-.7.42-1.38.87-2.06,1.31Z" />
    </g>
</svg>
