<svg id="img_70" data-name="img 70" xmlns="http://www.w3.org/2000/svg" viewBox="0 0 672 960">
    <g id="Vnakhlest_bez_verovok_img" data-name="Vnakhlest bez verovok img">
        <path class="outline"
            d="M347.36,183.7c-1.53.42-2.91.79-4.27,1.19-.79.24-1.59.47-2.2-.28s-.25-1.61.23-2.41c1.93-3.21,3.87-6.43,5.73-9.69a44.29,44.29,0,0,0,4.92-14.18c.79-4.32,1.56-8.65,2.44-13a49.61,49.61,0,0,1,1.56-5.27,3.23,3.23,0,0,1,3-2.39,6.07,6.07,0,0,1,.94-.13c3.5.24,7,.24,10.48.82,4.95.82,9.84,2.05,14.74,3.13,1,.22,2,.52,3,.8a22.31,22.31,0,0,0,14.3-.37,151.16,151.16,0,0,1,29.35-7.76,73.89,73.89,0,0,1,16-.67c4.14.23,7.08,2.43,8.72,6.41a14.09,14.09,0,0,0,2.88,4.32,8.62,8.62,0,0,1,2.64,8.25,38.85,38.85,0,0,0-.52,5.71,9.58,9.58,0,0,0,2.34,6.67c1.64,2,3.26,3.94,4.81,6a40,40,0,0,1,2.81,4.17c1.67,2.87.54,5.81-2.58,6.92a18.75,18.75,0,0,1-2.07.59,43.36,43.36,0,0,0-11.81,5.13c-4,2.35-8.07,4.49-12.09,6.77a8.76,8.76,0,0,0-1.84,1.5A67.62,67.62,0,0,1,427.21,206a32.86,32.86,0,0,1-12.46,3.93c-3.25.43-6.47,1-9.73,1.35a64.91,64.91,0,0,1-40.42-8.88,31.31,31.31,0,0,1-8.45-7c-.1-.12-.22-.23-.33-.35C352.65,191.56,349.2,188.3,347.36,183.7Zm43.48.92-.58,0,.24.38a3.14,3.14,0,0,0,.3.64c2.66,3.49,5.36,6.94,8,10.46,1.12,1.5,2.08,3.12,3.17,4.76.47-.32.74-.48,1-.67,5.27-4.26,10.55-8.5,15.79-12.8,1.58-1.29,3-2.73,4.54-4.1l-.27-.47c-2.71.41-5.44.78-8.14,1.25-3.69.64-7.34,1.52-11.05,2A28.18,28.18,0,0,1,390.84,184.62Zm-.16,17.9c-3.07-2-6-4.35-9.27-5.89a82.86,82.86,0,0,0-12-4.22c-5.79-1.71-11.87-2.36-17.52-4.9a13.19,13.19,0,0,0,1.83,2.68c3.57,4.09,7,8.3,11.81,11.12a45.15,45.15,0,0,0,12.65,5.53,12.44,12.44,0,0,0,2.39,1c4.13.77,8.28,1.45,12.42,2.17,2.84.58,5.68.23,8.69.3-.27-2.82-.18-5.4-1.52-7.69-1.73-3-3.43-5.94-5.35-8.77-1.43-2.11-3.18-4-4.8-6a98.73,98.73,0,0,0-11.71-12c-5.13-4.44-10.18-9-15.07-13.67A24.08,24.08,0,0,1,356.4,149c-.2-1-.26-2.1-.43-3.51-1.52,6.73-2.51,13.24-4.53,19.41s-5.07,12.08-7.63,18l4.92-.76c3.65,2.71,7.37,5.26,11.83,6.6,5.58,1.67,11.05,3.71,16.64,5.35a35.64,35.64,0,0,1,14.29,8.44Zm14.57-59.88c-.74,6.68,2.31,31,4.6,37.31A158.91,158.91,0,0,0,427.28,177a7.68,7.68,0,0,0,4.41-2.61c3.9-4.65,7.94-9.19,11.74-13.91,3-3.73,5.73-7.68,8.59-11.53,1.64-2.2,1.82-4.75,1.67-7.32a4.81,4.81,0,0,0-2.25-3.76,9.41,9.41,0,0,0-5.67-1.59c-3.75.05-7.52.05-11.26.34-8.14.65-16.09,2.51-24.06,4.23A44.34,44.34,0,0,0,405.25,142.64ZM403.19,144a4,4,0,0,0-.87,0,7.21,7.21,0,0,0-1.13.4c-4,1.87-8.07,1.72-12.2.89-2.9-.59-5.74-1.45-8.64-2-6.33-1.23-12.58-3-19.13-2.79-2.31.07-3.23.75-3.41,3,0,.31,0,.64,0,1a21.69,21.69,0,0,0,6.65,15.68c4.51,4.31,9,8.58,13.58,12.86,1.22,1.15,2.49,2.25,3.76,3.34a4.31,4.31,0,0,0,1.36.94c1.88.63,3.79,1.18,5.68,1.76,5.93,1.82,12,1.46,18.05,1.05.11,0,.22-.2.33-.3-.07-1.36-.12-2.71-.23-4.06s-.3-2.7-.44-4a2.81,2.81,0,0,0-1-2.23c-1.61-1.32-2.37-5.26-1.13-6.63,1-1.06.75-2,.67-3-.1-1.27-.3-2.53-.46-3.8C404.15,151.94,403.67,148,403.19,144Zm1.29,65.62c2.33.16,2.33.16,3.54-1.44a28.36,28.36,0,0,1,6.86-6.61c5-3.34,10.57-4.86,16.39-5.64,8-1.06,15.4-3.5,22-8.23a67.43,67.43,0,0,1,13.47-7.74c2.57-1.07,3-2.72,1.59-5.2q-2.46-4.25-5.18-8.34a15.69,15.69,0,0,1-2.79-7.31c-.21-2.46-.32-4.93-.35-7.4a6.53,6.53,0,0,0-1.47-4.44c-.92-1.05-1.89-2.05-2.86-3.09a66,66,0,0,1-3.31,6.51c-3,4.69-6.14,9.36-9.45,13.86a118.76,118.76,0,0,1-24.78,25.52c-4.81,3.57-9.43,7.39-14.17,11.06A2.18,2.18,0,0,0,403,204C403.65,205.74,404,207.64,404.48,209.6Zm34.42-13.72-6,1.43c-6.31,1.46-12.6,2.94-18.15,6.56a29.42,29.42,0,0,0-6,5.18C421.08,209.35,430.56,204,438.9,195.88ZM428.11,177.6c-.6.15-1.2.31-1.8.44a117.53,117.53,0,0,1-18.84,3c-6.05.37-12.09.78-18.09-.52-1.07-.23-2.15-.43-3.23-.64C394,185.07,416,183.2,428.11,177.6ZM405.2,163.92h.21v-1h-.21Z" />
        <path class="color-shadow"
            d="M405.25,142.64a44.34,44.34,0,0,1,5.2-1.78c8-1.72,15.92-3.58,24.06-4.23,3.74-.29,7.51-.29,11.26-.34a9.41,9.41,0,0,1,5.67,1.59,4.81,4.81,0,0,1,2.25,3.76c.15,2.57,0,5.12-1.67,7.32-2.86,3.85-5.58,7.8-8.59,11.53-3.8,4.72-7.84,9.26-11.74,13.91a7.68,7.68,0,0,1-4.41,2.61A158.91,158.91,0,0,1,409.85,180C407.56,173.65,404.51,149.32,405.25,142.64Z" />
        <path class="color-shadow"
            d="M403.19,144c.48,4,1,8,1.43,11.92.16,1.27.36,2.53.46,3.8.08,1.05.3,2-.67,3-1.24,1.37-.48,5.31,1.13,6.63a2.81,2.81,0,0,1,1,2.23c.14,1.35.33,2.69.44,4s.16,2.7.23,4.06c-.11.1-.22.29-.33.3-6.06.41-12.12.77-18.05-1.05-1.89-.58-3.8-1.13-5.68-1.76a4.31,4.31,0,0,1-1.36-.94c-1.27-1.09-2.54-2.19-3.76-3.34-4.54-4.28-9.07-8.55-13.58-12.86a21.69,21.69,0,0,1-6.65-15.68c0-.31-.06-.64,0-1,.18-2.26,1.1-2.94,3.41-3,6.55-.21,12.8,1.56,19.13,2.79,2.9.57,5.74,1.43,8.64,2,4.13.83,8.24,1,12.2-.89a7.21,7.21,0,0,1,1.13-.4A4,4,0,0,1,403.19,144Z" />
        <path class="color-shadow"
            d="M404.48,209.6c-.5-2-.83-3.86-1.46-5.65a2.18,2.18,0,0,1,.92-2.84c4.74-3.67,9.36-7.49,14.17-11.06a118.76,118.76,0,0,0,24.78-25.52c3.31-4.5,6.41-9.17,9.45-13.86a66,66,0,0,0,3.31-6.51c1,1,1.94,2,2.86,3.09a6.53,6.53,0,0,1,1.47,4.44c0,2.47.14,4.94.35,7.4a15.69,15.69,0,0,0,2.79,7.31q2.72,4.09,5.18,8.34c1.44,2.48,1,4.13-1.59,5.2a67.43,67.43,0,0,0-13.47,7.74c-6.57,4.73-14,7.17-22,8.23-5.82.78-11.39,2.3-16.39,5.64a28.36,28.36,0,0,0-6.86,6.61C406.81,209.76,406.81,209.76,404.48,209.6Zm9.26-10,.54.54c3.21-2.05,6.38-4.13,9.61-6.12a29.49,29.49,0,0,1,9.14-4c4-.87,8-2,12.05-2.93a4.2,4.2,0,0,0,3.34-3.33c.26-.91.26-2.09,1.45-2.69.4,1.4-1.12,2.55-.36,4a6.21,6.21,0,0,0,1-.4c4.43-3,8.66-6.27,13.58-8.46a1.52,1.52,0,0,0,.87-2.17,23.42,23.42,0,0,0-2-4c-2.3-3.43-5.13-6.55-6.09-10.74-.4-1.72-.74-3.45-1.14-5.33-1.61,2.46-3.09,4.81-4.68,7.08a73.24,73.24,0,0,1-5.68,7.68c-5,5.45-10.32,10.66-15.43,16-4.63,4.87-9.93,9-14.89,13.48A15.37,15.37,0,0,0,413.74,199.64Z" />
        <path class="color-base"
            d="M391.5,202.56a35.75,35.75,0,0,0-14.3-8.44c-5.59-1.64-11.06-3.68-16.64-5.35-4.46-1.34-8.18-3.89-11.83-6.6.39-1.3.76-2.6,1.16-3.9,1.86-6.07,3.74-12.14,5.59-18.22.38-1.25.65-2.54,1.09-4.24a9.36,9.36,0,0,1,.85,1.4c1.68,5.77,5.42,10.21,9.41,14.47,4.26,4.55,9.43,8,14.37,11.76a21.58,21.58,0,0,1,5.14,4.89,98,98,0,0,1,6,10.87,51.49,51.49,0,0,1,2.19,6.26Z" />
        <path class="color-shadow"
            d="M394.52,205.46a51.49,51.49,0,0,0-2.19-6.26,98,98,0,0,0-6-10.87,21.58,21.58,0,0,0-5.14-4.89c-4.94-3.74-10.11-7.21-14.37-11.76-4-4.26-7.73-8.7-9.41-14.47a9.36,9.36,0,0,0-.85-1.4c-.44,1.7-.71,3-1.09,4.24-1.85,6.08-3.73,12.15-5.59,18.22-.4,1.3-.77,2.6-1.16,3.9l-4.92.76c2.56-5.92,5.61-11.79,7.63-18s3-12.68,4.53-19.41c.17,1.41.23,2.47.43,3.51a24.08,24.08,0,0,0,6.86,13.18c4.89,4.69,9.94,9.23,15.07,13.67a98.73,98.73,0,0,1,11.71,12c1.62,2,3.37,3.86,4.8,6,1.92,2.83,3.62,5.82,5.35,8.77,1.34,2.29,1.25,4.87,1.52,7.69-3-.07-5.85.28-8.69-.3l1.93-1c-1.06-1.07-2.12-2.19-3.24-3.23-3.89-3.64-8.82-5.33-13.71-6.95a92.42,92.42,0,0,0-10-2.29c-1.41-.3-2.85-.5-4.27-.75a45.47,45.47,0,0,0,12.35,9.36c.79.42,1.94.5,2.1,1.71a45.15,45.15,0,0,1-12.65-5.53c-4.8-2.82-8.24-7-11.81-11.12a13.19,13.19,0,0,1-1.83-2.68c5.65,2.54,11.73,3.19,17.52,4.9a82.86,82.86,0,0,1,12,4.22c3.29,1.54,6.2,3.89,9.27,5.89l3.68,4.3Z" />
        <path class="color-shadow-dark"
            d="M390.84,184.62a28.18,28.18,0,0,0,13,1.41c3.71-.48,7.36-1.36,11.05-2,2.7-.47,5.43-.84,8.14-1.25l.27.47c-1.51,1.37-3,2.81-4.54,4.1-5.24,4.3-10.52,8.54-15.79,12.8-.24.19-.51.35-1,.67-1.09-1.64-2.05-3.26-3.17-4.76-2.62-3.52-5.32-7-8-10.46a3.14,3.14,0,0,1-.3-.64C390.61,184.85,390.73,184.74,390.84,184.62Z" />
        <path class="color-base"
            d="M378.21,206.84c-.16-1.21-1.31-1.29-2.1-1.71a45.47,45.47,0,0,1-12.35-9.36c1.42.25,2.86.45,4.27.75a92.42,92.42,0,0,1,10,2.29c4.89,1.62,9.82,3.31,13.71,6.95,1.12,1,2.18,2.16,3.24,3.23L393,210c-4.14-.72-8.29-1.4-12.42-2.17A12.44,12.44,0,0,1,378.21,206.84Z" />
        <path class="color-shadow"
            d="M438.9,195.88c-8.34,8.09-17.82,13.47-30.09,13.17a29.42,29.42,0,0,1,6-5.18c5.55-3.62,11.84-5.1,18.15-6.56Z" />
        <path class="color-shadow-dark"
            d="M428.11,177.6c-12.09,5.6-34.12,7.47-42,2.29,1.08.21,2.16.41,3.23.64,6,1.3,12,.89,18.09.52a117.53,117.53,0,0,0,18.84-3C426.91,177.91,427.51,177.75,428.11,177.6Z" />
        <path class="color-shadow-dark" d="M394.52,205.46l-.16,1.36-3.68-4.3.82,0Z" />
        <path class="color-shadow" d="M405.2,163.92v-1h.21v1Z" />
        <path class="color-shadow-dark" d="M390.5,185l-.24-.38.58,0C390.73,184.74,390.61,184.85,390.5,185Z" />
        <path class="color-base"
            d="M413.74,199.64a15.37,15.37,0,0,1,1.29-1.48c5-4.49,10.26-8.61,14.89-13.48,5.11-5.37,10.4-10.58,15.43-16A73.24,73.24,0,0,0,451,161c1.59-2.27,3.07-4.62,4.68-7.08.4,1.88.74,3.61,1.14,5.33,1,4.19,3.79,7.31,6.09,10.74a23.42,23.42,0,0,1,2,4,1.52,1.52,0,0,1-.87,2.17c-4.92,2.19-9.15,5.49-13.58,8.46a6.21,6.21,0,0,1-1,.4c-.76-1.41.76-2.56.36-4-1.19.6-1.19,1.78-1.45,2.69a4.2,4.2,0,0,1-3.34,3.33c-4,.94-8,2.06-12.05,2.93a29.49,29.49,0,0,0-9.14,4c-3.23,2-6.4,4.07-9.61,6.12Z" />
    </g>
</svg>
