<svg id="manshety" xmlns="http://www.w3.org/2000/svg" viewBox="0 0 672 960">
    <g id="kashkorse_img" data-name="kashkorse img">
        <path class="outline"
            d="M35.14,243l.15-.41.31-.8.78-2.5.19-.62.29-.82.2-.61c.89-2.41,1.71-4.86,2.73-7.22a3.83,3.83,0,0,1,1.83-1.72c4.22-1.9,8.55-3.56,12.71-5.57a18.61,18.61,0,0,0,4.86-3.62c1.7-1.69,3.74-1.81,5.85-1.91,6.31-.29,12.63-.51,18.94-.81,3.49-.17,7-.44,10.52-.67,0-.38,0-.57,0-.75-.07-2.06.41-2.65,2.4-3,3.31-.53,6.64-1,9.92-1.65A10.92,10.92,0,0,0,109.5,209a10.29,10.29,0,0,1,1.55-.86c1.48-.47,3-.69,4.46-1.29a19,19,0,0,1,6.78-1.11,35.14,35.14,0,0,0,5.17-.8q6.36-1.32,12.7-2.78c5.23-1.2,10.42-2.61,15.68-3.63a61.77,61.77,0,0,1,9.7-.95c5.47-.18,11-.09,16.42-.22,5-.12,10-.4,15-.58,4.38-.15,8.77-.17,13.15-.38,4.64-.22,9.27-.58,13.91-.92,3.95-.29,7.91-.63,11.86-1,2.72-.25,5.43-.61,8.15-.87s5.53-.44,8.29-.69,5.37-.51,8.06-.77l7.1-.73c3-.3,6.07-.57,9.1-.92,1.32-.15,2.61-.47,3.91-.71h.24a7.54,7.54,0,0,1,.24,1.24c.17,14,.3,27.91.5,41.86.08,5.59.31,11.17.47,16.76s.26,10.93.5,16.39c.22,5,.59,9.94.89,14.9.18,3.1.4,6.2.52,9.31s.24,6.22.19,9.33c-.1,5.78-.32,11.55-.78,17.48a15.61,15.61,0,0,0-.81-1.64c-.23-.38-.57-.93-.89-.95a69.65,69.65,0,0,1-16.6-3.57c-4.85-1.54-9.64-3.22-14.46-4.83s-9.88-3.15-14.71-5-9.26-4.07-13.94-6c-6.36-2.58-12.85-4.84-18.94-8.08a108.6,108.6,0,0,1-14.06-9.35A25,25,0,0,0,177.5,273a42.4,42.4,0,0,1-20.87-9.31,32.21,32.21,0,0,0-3.77-2.53c-3.36-2.06-6.07-4.58-7.35-8.51a43.61,43.61,0,0,0-2.91-5.9,1.42,1.42,0,0,0-1.9-.77c-.72.23-1.44.49-2.15.73a4.63,4.63,0,0,1-5.5-1.56c-3.51-4.5-8.58-6.15-13.7-7.75a7.53,7.53,0,0,0-1.07-.05c-1.1-.2-2.38-.16-3.26-.72a7,7,0,0,0-4.69-1c-2.92.38-5.8,1.07-8.68,1.7a5.52,5.52,0,0,1-3.88-.31,11.6,11.6,0,0,0-1.26,1.54c-1.77,3.16-4.78,4.32-8.06,5-2.69.6-5.44,1-8.07,1.78A68.33,68.33,0,0,0,73,248.39c-2.45,1.07-4.84,2.28-7.28,3.39A16,16,0,0,1,57.59,253c-1.33-.11-1.92-1.09-2.26-2.19a3,3,0,0,1,.93-3.47c2.1-1.59,4.27-3.09,6.43-4.61s4.34-3,6.45-4.54c.45-.34,1.39-.8.77-1.6s-1.15-1.83-2.59-1.22a12.65,12.65,0,0,1-3.26.72,2.82,2.82,0,0,0-2,1.3,23.46,23.46,0,0,1-11.38,8,2.09,2.09,0,0,1-1.82-.22,1.67,1.67,0,0,1,.2-2.28c1.49-1.76,3-3.55,4.42-5.33l-.2-.33c-.62.32-1.26.61-1.86.95s-1.31.78-2,1.17c-.55,1.12-1.11,2.23-1.67,3.34l-.19.4-.74,1.54c-.57,1-1.06,2.14-1.72,3.12a4.11,4.11,0,0,1-5,1.91l-.83.13,0,0-.65.73-1.44,1.24-.51.39a31.38,31.38,0,0,1-3.57,1.23,2.05,2.05,0,0,1-1.71-.59,2.06,2.06,0,0,1,.05-1.73c.89-2,1.91-3.92,2.85-5.89a13.19,13.19,0,0,0,.54-1.57Zm78-15.92c.49,1.33,1,2.66,1.45,4l.15.57c.75,2.88,1.7,3.66,4.7,4A4.6,4.6,0,0,1,121,236c2.29,1.1,4.53,2.36,6.87,3.35a15.76,15.76,0,0,1,6.56,4.45,1.85,1.85,0,0,0,2.16.61c1.55-.49,3.11-1,4.89-1.51-1.31-3-.78-6.89-4.52-8.75,1.1-.42,2.16,0,3.08,1.19a28.3,28.3,0,0,1,4.39,9.64c.23.8.48,1.6.78,2.37.63,1.64,1.42,3.23,1.9,4.91A12.16,12.16,0,0,0,152,259a65.66,65.66,0,0,0,14.38,7.82c3.55,1.34,7,3,10.78,3.52a27,27,0,0,1,14.07,6.67,71.29,71.29,0,0,0,19.3,11.69c4.92,2,10,3.64,14.87,5.72,9.65,4.11,19.57,7.4,29.56,10.54,7.45,2.34,14.74,5.27,22.53,6.45,1.7.25,3.43.37,5.44.58,0-2.63,0-5,0-7.33-.05-4.39-.09-8.78-.24-13.17-.15-4.58-.44-9.16-.64-13.74-.27-6.46-.57-12.92-.75-19.38-.21-7.67-.33-15.34-.42-23-.09-7.2-.09-14.4-.15-21.59,0-2.44-.08-4.87-.23-7.3-.32-5-.72-10-1.08-15l-10.39.89c-2.38.21-4.76.45-7.14.68l-10.47,1c-3,.29-6,.55-9,.87-4.39.47-8.78,1-13.18,1.47-2.88.32-5.77.61-8.66.91l-2.13.23a4,4,0,0,0-.59-.09c-4.51.14-9,.27-13.52.42l-12.08.43c-5.58.18-11.17.37-16.76.53-3.59.1-7.18.14-10.77.25a21.83,21.83,0,0,0-3.33.32c-4.07.78-8.14,1.53-12.18,2.47-5,1.17-9.87,2.64-14.85,3.75a44.23,44.23,0,0,1-10.65,1.37,17.42,17.42,0,0,0-5.5.81c-2.37.75-4.61,1.91-7.19,3a58.79,58.79,0,0,0,.33,5.9C111.81,220.26,112.54,223.68,113.18,227.12ZM32.34,252a8.06,8.06,0,0,0,5.84-2.81,36.49,36.49,0,0,0,5.87-8.86,12.68,12.68,0,0,1,2.73-3.86c3.19-2.8,7.2-3.83,11.27-4.63,3.13-.62,6.25-1.29,9.38-1.94a11,11,0,0,1,5.76.54c.17.06.28.3.58.63-1.28.15-2.34.27-3.39.41a1.42,1.42,0,0,0-1.4,1.62,17.91,17.91,0,0,0,1.63,3.33l6.87-6.88.31.29a1.89,1.89,0,0,1-.24.47c-1.45,1.69-2.87,3.41-4.38,5a30.89,30.89,0,0,1-4,3.9c-3.82,2.8-7.77,5.43-11.65,8.14a3.79,3.79,0,0,0-.69.88c4.42-2.14,7-2.32,7.91-.6a6,6,0,0,0-2-.26,8.76,8.76,0,0,0-5.15,2.84c-.74.89-.62,1.35.54,1.49,2.26.29,4.5.46,6.68-.58,2.56-1.23,5.18-2.31,7.76-3.5A39.42,39.42,0,0,1,83.48,244a63.1,63.1,0,0,0,7.21-1.76,6.84,6.84,0,0,0,4.56-3.41c.5-.95,1.26-1.76,1.79-2.7a4.16,4.16,0,0,0,.6-1.86A37.72,37.72,0,0,0,96.36,224c-.61-2.47-1.08-5-1.61-7.49l-1.35.07-19.35,1.25c-3.26.21-6.52.4-9.78.64-2,.15-3.5,1.5-5.12,2.51h10a5.71,5.71,0,0,1-2.23.68,51.59,51.59,0,0,0-11.26,2.2c-4.5,1.52-9.16,2.62-13.29,5.07a3.94,3.94,0,0,0-1.48,1.31c-1.1,2.24-2.16,4.5-3.07,6.81-.79,2-1.35,4.08-2,6.13a2.35,2.35,0,0,0-.08.7c0,1.17,0,2.35,0,3.52h-.44l-.32-1.4-.26-.05Zm80.46-18.71c0-.48-.06-.87-.12-1.25q-1.64-9.11-3.26-18.21c-.29-1.61-.5-1.71-2.15-1.37-2.85.58-5.7,1.19-8.58,1.58-2.13.29-2.5.48-2.27,2.65.28,2.52.6,5.05,1.07,7.55.58,3.13,1.39,6.21,2,9.33.21,1.07.7,1.27,1.67,1.08C104.94,233.87,108.66,232.78,112.8,233.27ZM49.46,244.82a5.27,5.27,0,0,0,.87-.12c4.08-1.6,7.77-3.73,10.23-7.53a9.41,9.41,0,0,1,1-1.19c1.28-1.35,3-1.7,4.73-2.14s1.79-.64,1.69-2.19a1.8,1.8,0,0,0-.45-.06c-3.47.68-7.07.95-10.06,3.15a8.85,8.85,0,0,0-1.7,1.46c-1.93,2.39-3.81,4.82-5.68,7.26A8.11,8.11,0,0,0,49.46,244.82Zm7.2-11.22a14.52,14.52,0,0,0-9.32,3.47,9.9,9.9,0,0,0-2.11,2.69c-1.34,2.35-2.56,4.78-3.83,7.16-.23.43-.51.84-.8,1.32a3.82,3.82,0,0,0,4.13-2.09c.91-1.6,1.78-3.22,2.54-4.89A7.31,7.31,0,0,1,50,238C52.28,236.61,54.45,235.09,56.66,233.6Zm2.26-12.37.08-.08a.48.48,0,0,0-.16-.08s-.05.05-.08.08Z" />
        <path class="color-shadow-dark"
            d="M481.62,265.71c1.94-1.14,3.87-2.3,5.81-3.42a8.26,8.26,0,0,1,1.2-.46,4.05,4.05,0,0,0,.8-.17L510,252.44c.49-.22,1-.39,1.56-.59a5.46,5.46,0,0,1,.3.64c2.64,7.92,5.19,15.87,7.93,23.76,5.91,17,10.38,34.38,12.29,52.34.63,5.82,1.48,11.64,1,17.52-.32,3.73-.52,7.48-1,11.19-1.28,9.25-2.88,18.45-4,27.71-1,8.24.46,15.86,6.77,22,2.82,2.76,4.05,6.24,2.31,10.18-.74,1.68-1.67,3.27-2.44,4.93a37.9,37.9,0,0,0-2,4.85c-.53,1.77-.9,3.74.24,5.34,1.52,2.14,1.65,4.52,1.83,6.94a5.87,5.87,0,0,1,.13,1.65c-.38,1.6-2.64,3-4.33,3-2.54.07-5.07.28-7.6.56-1.85.2-3.69.57-5.53.95a14.4,14.4,0,0,0-4.12,1.1c-2.28,1.27-4.8,1.34-7.23,1.91a2.28,2.28,0,0,1-1.67-.57,5.28,5.28,0,0,1-1.65-4,15.81,15.81,0,0,0-4.31-10.28c-1.55-1.61-3.09-3-2.64-5.48,0-.14-.1-.3-.11-.46-.18-1.74-.46-3.48-.52-5.22-.17-5.46.27-11-1.05-16.34-.17-.71-.3-1.42-.49-2.27l2.46.36c.28,2,.45,4.11.84,6.13a77.19,77.19,0,0,1,1.83,16.19,10.39,10.39,0,0,0,3.11,8,2.47,2.47,0,0,1,.55.77c1,2.53,2.17,5,3.07,7.61,1.09,3.12,1,3.15,4.38,2.74H510l6.73-1.45c3.92-1.18,7.83-2.4,11.76-3.54.95-.27,1.07-.81.95-1.6a38.21,38.21,0,0,1-.23-12c.13-.8.3-1.59.52-2.72l-8.21.76c-2.1.2-4.19.44-6.29.57-.42,0-.87-.39-1.3-.6l.62-1.16c2.6-.78,5.2-1.54,7.79-2.33,3.5-1.08,6.86-2.93,10.75-1.93a1.14,1.14,0,0,0,.94-.63,1.17,1.17,0,0,0-.47-1,3.89,3.89,0,0,0-1.73-.28c-2.88.1-5.49,1.23-8.13,2.25-2.15.83-4.33,1.57-6.5,2.35a4.65,4.65,0,0,1,.81-.94c1.38-.86,2.83-1.61,4.18-2.5a27.43,27.43,0,0,1,9.42-3.72l2.48-.41a13,13,0,0,0-2-5.2c-.15-.2-.46-.28-.7-.41a3,3,0,0,0-.17-.92c-.64-1.1-1.36-2.16-2-3.26-1.36-2.42-3.21-4.62-3.59-7.49-.3-2.24-.52-4.5-.73-6.75a16.62,16.62,0,0,1-.16-3.91c.5-3.18,1.26-6.31,1.82-9.47q1.14-6.57,2.12-13.16c.34-2.28.51-4.58.76-6.86l.23-1c-.07-.79-.14-1.58-.2-2.37l.44-1-.21-5c.16-.24.43-.47.44-.72.12-1.74.26-3.5.25-5.24,0-3.07-.09-6.14-.25-9.21-.09-1.7-.38-3.39-.61-5.08-.33-2.47-.74-4.94-1-7.42-.38-3.15-.62-6.32-1-9.47s-.86-6.36-1.42-9.52a47.21,47.21,0,0,0-1.78-8.14c-2.1-5.72-4.59-11.29-6.81-17-1.75-4.49-3.39-9-5-13.57-.68-2-1.08-4-1.6-6.05-1.55.49-2.95.94-4.36,1.37-3.38,1-6.88,1.79-10.13,3.15-3.47,1.46-6.7,3.5-10.07,5.24a16.35,16.35,0,0,0-5.59,4.21,5,5,0,0,0-1,2.31c-.22,1.53-.17,3.09-.31,4.64-.28,3.2-.61,6.39-.93,9.59-.3,3-.66,6.07-.92,9.11a14.32,14.32,0,0,0-.05,4.13c.73,3.38,1.79,6.68,2.55,10.05.7,3.13,1.3,6.3,1.75,9.48s.7,6.63,1,9.94c.33,3.56.67,7.12.93,10.68.21,2.93.36,5.88.48,8.82.26,6.36.52,12.73.72,19.1.09,3,0,6,0,9a4.86,4.86,0,0,1-.06,1.08,10.12,10.12,0,0,0,.59,7.2,23.87,23.87,0,0,0,2.62,4.8,59.47,59.47,0,0,0,5.58,5.41,6.67,6.67,0,0,0,1.58.79,14.33,14.33,0,0,0,1.62,1c3.21,1.37,6.44,2.71,9.66,4.06.35.32.7.65,1.07.94.67.52,1.35,1,2,1.52a49.64,49.64,0,0,0-12.91-2.34,7.92,7.92,0,0,1-4.7-1.55c-4.23-3.26-5.86-8.11-7.28-12.82-2-6.51-1.91-13.39-2.16-20.16-.14-4-.17-8.06-.34-12.09-.14-3.22-.31-6.45-.66-9.65q-1-9.44-2.26-18.84c-.73-5.6-1.6-11.18-2.36-16.77-.53-3.87-1.21-7.74-1.38-11.63a97.94,97.94,0,0,1,.46-11.09c.32-4.77.69-9.54,1.21-14.28.18-1.64.22-3.46,1.75-4.68.84-.66,1.56-1.46,2.34-2.2l0,0Z" />
        <path class="outline"
            d="M481.4,266.12c-.78.74-1.5,1.54-2.34,2.2-1.53,1.22-1.57,3-1.75,4.68-.52,4.74-.89,9.51-1.21,14.28a97.94,97.94,0,0,0-.46,11.09c.17,3.89.85,7.76,1.38,11.63.76,5.59,1.63,11.17,2.36,16.77q1.23,9.41,2.26,18.84c.35,3.2.52,6.43.66,9.65.17,4,.2,8.06.34,12.09.25,6.77.19,13.65,2.16,20.16,1.42,4.71,3.05,9.56,7.28,12.82a7.92,7.92,0,0,0,4.7,1.55,49.64,49.64,0,0,1,12.91,2.34c1.55.71,3.11,1.39,4.62,2.16a7.07,7.07,0,0,1,3.54,3.81l-.6-.33a5.12,5.12,0,0,0-3.47-2.89c-3.08-.8-6.18-1.55-9.31-2.1-2.22-.39-4.5-.42-6.76-.6l-1.66,0-2.46-.36c.19.85.32,1.56.49,2.27,1.32,5.39.88,10.88,1.05,16.34.06,1.74.34,3.48.52,5.22,0,.16.14.32.11.46-.45,2.49,1.09,3.87,2.64,5.48a15.81,15.81,0,0,1,4.31,10.28,5.28,5.28,0,0,0,1.65,4,2.28,2.28,0,0,0,1.67.57c2.43-.57,5-.64,7.23-1.91a14.4,14.4,0,0,1,4.12-1.1c1.84-.38,3.68-.75,5.53-.95,2.53-.28,5.06-.49,7.6-.56,1.69-.05,4-1.41,4.33-3a5.87,5.87,0,0,0-.13-1.65c-.18-2.42-.31-4.8-1.83-6.94-1.14-1.6-.77-3.57-.24-5.34a37.9,37.9,0,0,1,2-4.85c.77-1.66,1.7-3.25,2.44-4.93,1.74-3.94.51-7.42-2.31-10.18-6.31-6.17-7.76-13.79-6.77-22,1.11-9.26,2.71-18.46,4-27.71.51-3.71.71-7.46,1-11.19.51-5.88-.34-11.7-1-17.52-1.91-18-6.38-35.31-12.29-52.34-2.74-7.89-5.29-15.84-7.93-23.76a5.46,5.46,0,0,0-.3-.64c-.55.2-1.07.37-1.56.59l-20.56,9.22a4.05,4.05,0,0,1-.8.17A46.43,46.43,0,0,1,493.1,259c4.47-2.22,9-4.32,13.51-6.43,1.95-.91,3.95-1.75,5.94-2.6a3.54,3.54,0,0,1,.78-.18c1.37,4.11,2.7,8.12,4,12.14,1.86,5.59,3.81,11.16,5.56,16.79,1.4,4.49,2.64,9,3.83,13.6s2.37,9,3.3,13.57c1.2,5.89,2.27,11.81,3.16,17.75,1.06,7.09,1.95,14.23,1.53,21.41-.33,5.55-1,11.08-1.71,16.61-.74,6.16-1.66,12.3-2.42,18.46a78.23,78.23,0,0,0-.62,8.09,18.71,18.71,0,0,0,1.73,8.57,18.71,18.71,0,0,1,.72,2.23,20.45,20.45,0,0,0,3.84,6.45,13.71,13.71,0,0,1,3.44,8.23,9.72,9.72,0,0,1-.63,3.74c-.77,2-1.87,3.88-2.74,5.85a34.49,34.49,0,0,0-2,5.34,4.27,4.27,0,0,0,.46,3c1.14,1.83,1.28,3.82,1.47,5.84.09,1,.21,2,.36,2.95.29,1.88-1.12,4.28-3.39,5.61.4,2.3.92,4.63,1.2,7a51.43,51.43,0,0,1,.26,6.21,2.17,2.17,0,0,1-.74,1.66c-1.29.69-1,1.76-.92,2.77.22,2.73.41,5.47.76,8.18.91,7,1.56,14,3,20.88a14.64,14.64,0,0,1-1.72,10.57c-2.14,4-4.07,8.14-6.06,12.23a12.09,12.09,0,0,1-3.38,3.92,86.13,86.13,0,0,0-6.83,6.55c-1.44,1.48-2.7,3.15-4,4.74a1.53,1.53,0,0,1-2.74-.32c-.89-1.67-.53-3.31,0-5a15.62,15.62,0,0,0,.8-3c-.75.45-1.5.89-2.24,1.36-.95.6-1.84,1.3-2.83,1.81-1.84.94-3.25.07-3.34-2a6.67,6.67,0,0,1,2-5.07,32.16,32.16,0,0,1,2.69-2.26c.26-.22.54-.41,1-.71l-3.91-1.31c-.41-.14-.82-.28-1.22-.44-2.37-1-2-2.46-.3-4a1.54,1.54,0,0,0,.73-1.27c0-1.07.93-1.46,1.77-1.67,2.14-.52,2.06-.5,2.55-2.6.79-3.32,1.79-6.58,2.54-9.91.9-4,2.39-7.94,2.21-12.13a31.78,31.78,0,0,0-.92-5,36.13,36.13,0,0,1-.49-9.46,13.77,13.77,0,0,0-.26-2.78,15.25,15.25,0,0,0-.45-1.86l-3.27-12c-1.34,0-2.48,0-3.61,0a3.53,3.53,0,0,1-2.77-1.67,9.42,9.42,0,0,1-1.73-5.75l-.14-.5a21.7,21.7,0,0,0-4.85-10,4.67,4.67,0,0,1-1.11-1.92c-.54-2.57-1.07-5.16-1.38-7.77-.47-4.06-.72-8.14-1.13-12.21-.25-2.58-.61-5.16-1-7.73a2.12,2.12,0,0,0-.63-1c-1.21-1.32-2.73-2.46-3.58-4A25.91,25.91,0,0,1,485.3,393c-1.07-3.79-2.07-7.6-3.06-11.41a7.91,7.91,0,0,1-.05-1.76l-.3-8.44-.24-6.29-.24-6.65c-.08-2.09-.14-4.19-.24-6.28-.13-2.91-.2-5.83-.46-8.73-.2-2.24-.69-4.45-1-6.68s-.4-4.31-.67-6.46c-.25-1.95-.63-3.88-.92-5.83s-.49-3.81-.78-5.7-.66-3.79-1-5.69c-.2-1.25-.3-2.52-.48-3.77-.21-1.45-.48-2.89-.69-4.34s-.41-2.66-.48-4c-.15-2.73-.22-5.47-.32-8.2-.05-1.42-.16-2.84-.13-4.25a20.68,20.68,0,0,1,.37-2.18c.25-2.12.46-4.24.72-6.36.31-2.46.69-4.92,1-7.38.13-1,.12-2,.23-3,0-.4.13-1,.4-1.16C478.44,267.57,479.93,266.87,481.4,266.12Zm44.38,180.1-7.41,1.4a18.37,18.37,0,0,0-6.37,1.85c-1.32.57-1.44,1.21-1.13,2.45,1,4,1.93,8.05,2.83,12.09.19.82.68.65,1.17.54,3.53-.75,7.09-1.41,10.58-2.33,2.34-.62,4.57-1.62,6.85-2.46.68-.24.8-.76.72-1.44-.48-3.79-.91-7.59-1.41-11.38,0-.33-.44-.87-.67-.87C529.22,446.06,527.5,446.16,525.78,446.22Zm-9.29,19.9c-.13,2.14-.32,4.17-.34,6.19,0,2.39.07,4.79.15,7.18.14,4.29-1.25,8.32-2.19,12.41-1.36,5.88-2.85,11.74-4.2,17.62a5.76,5.76,0,0,0,.14,2.57c.22.95.9,1.07,1.52.27a6.27,6.27,0,0,0,1.36-2.23,7.22,7.22,0,0,0,.09-3.33c-.11-.45-1.25-.65-2.06-1,.36-.17,1-.68,1.24-.53a18.88,18.88,0,0,1,2.47,1.78c2.05-3.21,4.16-6.69,6.47-10a14.38,14.38,0,0,0,2.47-5.48,11.31,11.31,0,0,1,.41-1.37l4.07-12.26c.1-.28.24-.55.36-.83l.36.08a14.12,14.12,0,0,1-.33,2.36c-1.27,4.19-2.6,8.36-3.88,12.54a2.89,2.89,0,0,0-.07,1.37c.35,1.87.92,3.72,1.12,5.6.18,1.69.71,3.38-.1,5.15-1.17,2.57-2,5.29-3.1,7.9a11.55,11.55,0,0,1-1.64,2.59c-1.93,2.43-4,4.74-5.82,7.25a11.17,11.17,0,0,0-1.61,4,9.42,9.42,0,0,0,0,3.13c0,.26.56.46.86.68.14-.32.42-.66.4-1-.16-1.93,1.07-3,2.49-3.94-.41.66-.81,1.32-1.21,2a.73.73,0,0,0,.61-.17q4.84-4.37,9.69-8.73a5,5,0,0,0,1.13-1.38c2.89-6,5.77-11.93,8.58-17.93a3,3,0,0,0,.12-1.95c-1.42-4.58-1.64-9.34-2.11-14.05s-.51-9.31-1.56-13.88c-.45-2-.76-3.95-1.16-6.08C526.53,464.82,521.5,465.16,516.49,466.12Zm6.81,30.79a16.49,16.49,0,0,0-.44,2,40.65,40.65,0,0,1-3.64,12.53,4.94,4.94,0,0,1-3.22,3,27.62,27.62,0,0,0-3.9,1.52,14.88,14.88,0,0,0-5.46,4,3.55,3.55,0,0,0-.56,4.21c.33.62.65.89,1.29.5l8-4.84a2.14,2.14,0,0,0,.39-.45c1.59-1.73,3.19-3.45,4.75-5.2a5.81,5.81,0,0,0,1.1-1.65c1.13-2.94,2.19-5.9,3.27-8.85a1.87,1.87,0,0,0,.22-1C524.55,500.81,524,499,523.3,496.91Zm-14.52,12.78a19.85,19.85,0,0,0-3.69,1.07c-1.09.56-1,1.49.13,2,1.27.56,2.61,1,3.9,1.49a5.1,5.1,0,0,0,4.87-.15c.66-.39,1.54-.4,2.25-.74a3.56,3.56,0,0,0,1.71-1.26c1-2.1,2-4.26,2.84-6.45a18.83,18.83,0,0,0,1.23-8.7,6.63,6.63,0,0,0-.32.95,37.94,37.94,0,0,1-1.5,4.11c-.88,1.82-2,3.54-2.93,5.34a3.49,3.49,0,0,1-2,2c-.37.12-.69.6-.93,1-.68,1.08-1.21,2.25-2,3.27s-1.38.82-2.25.12C509,512.78,508.83,511.5,508.78,509.69Zm5.54-43.54a20.89,20.89,0,0,0,.51,11c.26-3.62.52-7.24.78-10.93Zm5.6,34.68-.4-.31-4.18,7.72.4.23ZM506.33,509l3.08-.34c-.28-.41-.44-.89-.68-.94A2.06,2.06,0,0,0,506.33,509Z" />
        <path class="color-shadow-dark"
            d="M47.76,242.65c.56-1.11,1.12-2.22,1.67-3.34C48.88,240.43,48.32,241.54,47.76,242.65Z" />
        <path class="color-shadow-dark" d="M46.83,244.59l.74-1.54Z" />
        <path class="color-shadow-dark" d="M38.6,250.52l.65-.73Z" />
        <path class="color-shadow-dark" d="M39.28,249.75l.83-.13Z" />
        <path class="color-shadow-dark" d="M35.6,241.83l-.31.8Z" />
        <path class="color-shadow-dark" d="M36.65,252.15l.51-.39Z" />
        <path class="color-shadow-dark" d="M35.14,243l-.33.56Z" />
        <path class="color-base" d="M500.86,443.28l.14.5Z" />
        <path class="color-shadow-dark" d="M36.57,238.71l-.19.62Z" />
        <path class="color-shadow-dark" d="M37.06,237.28l-.2.61Z" />
        <path class="outline" d="M481.62,265.71l-.25.43Z" />
        <path class="color-base"
            d="M218.39,197.64l2.13-.23c-.15,1.24.58,1.39,1.55,1.27.79-.09,1.58-.19,2.37-.21l9.56-.24c4.27-.09,8.54-.15,12.8-.25,1.59,0,3.18-.17,4.77-.22q8.13-.27,16.25-.49a26.31,26.31,0,0,0,2.94,0c2-.31,3.88-.79,5.83-1.19,1.27-.26,1.56-.07,1.77,1.19.17,1,.31,2,.47,3.06-.15.23-.43.46-.45.7-.34,4.24-.69,8.48-1,12.72-.29,4.52-.5,9-.73,13.58-.17,3.18-.32,6.36-.5,9.54-.06,1.23-.15,2.46-.26,3.69-.3,3.52-.62,7-.93,10.56-.18,2.1-.31,4.2-.52,6.29-.36,3.55-.78,7.1-1.15,10.65-.35,3.24-.63,6.48-1,9.71-.51,4.5-1.08,9-1.64,13.47-.23,1.84-.5,3.67-.77,5.64-1.8-.54-3.42-1.07-5.06-1.5-5.43-1.43-10.86-2.81-16.28-4.23-5.27-1.37-10.58-2.65-15.8-4.21-6.25-1.87-12.49-3.8-18.6-6.1-3.82-1.44-7.35-3.66-11.06-5.43-4.82-2.31-9.71-4.47-14.51-6.81a155.11,155.11,0,0,0-19.25-7.81,18.93,18.93,0,0,1-7.86-4.65A79.18,79.18,0,0,1,151.16,242a32.63,32.63,0,0,0-11.08-11c-1.79-1.09-3.21-.71-4.05,1.45l-4.16-.73,4.42,4.1a3.53,3.53,0,0,1-1,0,56.43,56.43,0,0,1-9.84-4,86.91,86.91,0,0,0-8.18-3.64l-4-1.72c-.17-3.59-.33-7.19-.5-10.79a21.56,21.56,0,0,0,4.18-.06c4.47-.89,8.94-1.84,13.35-3,6.16-1.57,12.25-3.37,18.4-5s12.41-3,18.61-4.56a4.85,4.85,0,0,0,1.15-.64c1.07-.08,2.14-.21,3.21-.23,4.46-.11,8.92-.11,13.38-.29,2.73-.11,5.45-.44,8.17-.76,3.58-.41,7.15-.93,10.73-1.36s7-.76,10.5-1.24A34.23,34.23,0,0,0,218.39,197.64Zm-31.5,38.76c.33,1.87.74,3.74,1,5.64a49.74,49.74,0,0,1,.45,5.59c0,1.83-.15,3.68-.25,5.7.16-.27.26-.37.26-.47.11-3.48.61-7,.22-10.44a133.77,133.77,0,0,0-2.93-17c-1.72-6.89-4.36-13.46-9.78-18.47-.35-1.09-2.6-2.62-3.62-2.46a1.37,1.37,0,0,0-1.1,1.83,4.65,4.65,0,0,0,.92,1.37,29.51,29.51,0,0,1,5.84,8.25c1.15,2.63,2.17,5.31,3.28,8q2.42,5.73,4.9,11.42A5.72,5.72,0,0,0,186.89,236.4Z" />
        <path class="transparent"
            d="M32.34,252l2.34-6,.26.05.32,1.4h.44c0-1.17,0-2.35,0-3.52a2.35,2.35,0,0,1,.08-.7c.65-2.05,1.21-4.13,2-6.13.91-2.31,2-4.57,3.07-6.81A3.94,3.94,0,0,1,42.33,229c4.13-2.45,8.79-3.55,13.29-5.07a51.59,51.59,0,0,1,11.26-2.2,5.71,5.71,0,0,0,2.23-.68h-10c1.62-1,3.09-2.36,5.12-2.51,3.26-.24,6.52-.43,9.78-.64l19.35-1.25,1.35-.07c.53,2.52,1,5,1.61,7.49a37.72,37.72,0,0,1,1.28,10.19,4.16,4.16,0,0,1-.6,1.86c-.53.94-1.29,1.75-1.79,2.7a6.84,6.84,0,0,1-4.56,3.41A63.1,63.1,0,0,1,83.48,244a39.42,39.42,0,0,0-10.92,3.68c-2.58,1.19-5.2,2.27-7.76,3.5-2.18,1-4.42.87-6.68.58-1.16-.14-1.28-.6-.54-1.49a8.76,8.76,0,0,1,5.15-2.84,6,6,0,0,1,2,.26c-.9-1.72-3.49-1.54-7.91.6a3.79,3.79,0,0,1,.69-.88c3.88-2.71,7.83-5.34,11.65-8.14a30.89,30.89,0,0,0,4-3.9c1.51-1.63,2.93-3.35,4.38-5a1.89,1.89,0,0,0,.24-.47l-.31-.29-6.87,6.88A17.91,17.91,0,0,1,69,233.08a1.42,1.42,0,0,1,1.4-1.62c1.05-.14,2.11-.26,3.39-.41-.3-.33-.41-.57-.58-.63a11,11,0,0,0-5.76-.54c-3.13.65-6.25,1.32-9.38,1.94-4.07.8-8.08,1.83-11.27,4.63a12.68,12.68,0,0,0-2.73,3.86,36.49,36.49,0,0,1-5.87,8.86A8.06,8.06,0,0,1,32.34,252Z" />
        <path class="color-shadow-dark"
            d="M278.83,200.38c-.16-1-.3-2-.47-3.06-.21-1.26-.5-1.45-1.77-1.19-1.95.4-3.87.88-5.83,1.19a26.31,26.31,0,0,1-2.94,0q-8.13.22-16.25.49c-1.59.05-3.18.18-4.77.22-4.26.1-8.53.16-12.8.25l-9.56.24c-.79,0-1.58.12-2.37.21-1,.12-1.7,0-1.55-1.27,2.89-.3,5.78-.59,8.66-.91,4.4-.48,8.79-1,13.18-1.47,3-.32,6-.58,9-.87l10.47-1c2.38-.23,4.76-.47,7.14-.68l10.39-.89c.36,5,.76,10,1.08,15,.15,2.43.2,4.86.23,7.3.06,7.19.06,14.39.15,21.59.09,7.66.21,15.33.42,23,.18,6.46.48,12.92.75,19.38.2,4.58.49,9.16.64,13.74.15,4.39.19,8.78.24,13.17,0,2.35,0,4.7,0,7.33-2-.21-3.74-.33-5.44-.58-7.79-1.18-15.08-4.11-22.53-6.45-10-3.14-19.91-6.43-29.56-10.54-4.88-2.08-10-3.71-14.87-5.72a71.29,71.29,0,0,1-19.3-11.69,27,27,0,0,0-14.07-6.67c-3.78-.52-7.23-2.18-10.78-3.52A65.66,65.66,0,0,1,152,259a12.16,12.16,0,0,1-4.9-6.75c-.48-1.68-1.27-3.27-1.9-4.91-.3-.77-.55-1.57-.78-2.37a28.3,28.3,0,0,0-4.39-9.64c-.92-1.22-2-1.61-3.08-1.19,3.74,1.86,3.21,5.73,4.52,8.75-1.78.55-3.34,1-4.89,1.51a1.85,1.85,0,0,1-2.16-.61,15.76,15.76,0,0,0-6.56-4.45c-2.34-1-4.58-2.25-6.87-3.35a4.6,4.6,0,0,0-1.51-.38c-3-.3-4-1.08-4.7-4l-.15-.58,6.71,3c2.13,1,4.24,2,6.38,2.92a41,41,0,0,1,4.8,2.05c2.16,1.31,4.21.84,6.68.18l-2.91-3.34-4.42-4.1,4.16.73.91.28c2.84.82,5.08,2.34,6,5.28a34.9,34.9,0,0,0,5.17,10.42,37.63,37.63,0,0,0,9.69,9.07c2.05,1.35,4.32,2.38,6.36,3.76a54.48,54.48,0,0,0,12.95,6.36c2.63.89,5.35,1.54,8,2.27a17.74,17.74,0,0,1,6,2.89A83.15,83.15,0,0,0,198.3,278c3.63,2.14,7.43,4,11.2,5.89,2.56,1.29,5.19,2.45,7.79,3.67,2.13,1,4.2,2.13,6.37,3,9.64,3.92,19.54,7.05,29.48,10.08a207.7,207.7,0,0,0,24.08,5.89c.82.14,1.12,0,1.15-.8.06-2.07.16-4.14.23-6.21.09-2.43.13-4.86.26-7.29.11-2.14.32-4.27.51-6.41.29-3.32.76-6.63.87-10s-.11-6.94-.2-10.4c-.07-3-.16-6-.23-9-.17-6.7-.43-13.4-.45-20.09,0-5.14.36-10.28.42-15.42,0-4-.12-8.06-.22-12.08-.05-1.71-.12-3.43-.26-5.13C279.21,202.65,279,201.51,278.83,200.38Z" />
        <path class="color-shadow-dark"
            d="M218.39,197.64a34.23,34.23,0,0,1-3.95,1c-3.49.48-7,.81-10.5,1.24s-7.15,1-10.73,1.36c-2.72.32-5.44.65-8.17.76-4.46.18-8.92.18-13.38.29-1.07,0-2.14.15-3.21.23-.75.08-1.5.14-2.24.24-3.34.43-6.69.8-10,1.33-4.22.68-8.42,1.51-12.63,2.26-4,.7-8,1.36-11.93,2.09-2.53.46-5,1.22-7.58,1.46a53.2,53.2,0,0,0-11.1,2.61c-.27.09-.65.46-.64.67.08.85.28,1.69.44,2.53.17,3.6.33,7.2.5,10.79,0,.2-.05.39-.08.59-.64-3.44-1.37-6.86-1.88-10.31a58.79,58.79,0,0,1-.33-5.9c2.58-1.1,4.82-2.26,7.19-3a17.42,17.42,0,0,1,5.5-.81,44.23,44.23,0,0,0,10.65-1.37c5-1.11,9.88-2.58,14.85-3.75,4-.94,8.11-1.69,12.18-2.47a21.83,21.83,0,0,1,3.33-.32c3.59-.11,7.18-.15,10.77-.25,5.59-.16,11.18-.35,16.76-.53l12.08-.43c4.5-.15,9-.28,13.52-.42A4,4,0,0,1,218.39,197.64Z" />
        <path class="color-shadow-dark"
            d="M112.8,233.27c-4.14-.49-7.86.6-11.63,1.36-1,.19-1.46,0-1.67-1.08-.62-3.12-1.43-6.2-2-9.33-.47-2.5-.79-5-1.07-7.55-.23-2.17.14-2.36,2.27-2.65,2.88-.39,5.73-1,8.58-1.58,1.65-.34,1.86-.24,2.15,1.37q1.62,9.1,3.26,18.21C112.74,232.4,112.75,232.79,112.8,233.27Zm-4.36-9.13c-.38-3.25-.76-6.5-1.15-9.86-.4.07-.78.12-1.16.2-1.62.33-3.24.75-4.88,1-1.45.22-1.6.39-1.39,1.81.27,1.88.45,3.77.66,5.65s.53,4,.8,6c.63-.05,1.1-.08,1.56-.13,1.69-.2,3.37-.49,5.06-.58.94,0,1.08-.44,1-1.19C108.73,226.09,108.59,225.12,108.44,224.14Z" />
        <path class="color-shadow"
            d="M113.18,227.12c0-.2,0-.39.08-.59l4,1.72a86.91,86.91,0,0,1,8.18,3.64,56.43,56.43,0,0,0,9.84,4,3.53,3.53,0,0,0,1,0l2.91,3.34c-2.47.66-4.52,1.13-6.68-.18a41,41,0,0,0-4.8-2.05c-2.14-.95-4.25-2-6.38-2.92l-6.71-3C114.15,229.78,113.67,228.45,113.18,227.12Z" />
        <path class="transparent"
            d="M49.46,244.82a8.11,8.11,0,0,1,.63-1.36c1.87-2.44,3.75-4.87,5.68-7.26a8.85,8.85,0,0,1,1.7-1.46c3-2.2,6.59-2.47,10.06-3.15a1.8,1.8,0,0,1,.45.06c.1,1.55,0,1.76-1.69,2.19s-3.45.79-4.73,2.14a9.41,9.41,0,0,0-1,1.19c-2.46,3.8-6.15,5.93-10.23,7.53A5.27,5.27,0,0,1,49.46,244.82Z" />
        <path class="transparent"
            d="M56.66,233.6c-2.21,1.49-4.38,3-6.62,4.43a7.31,7.31,0,0,0-2.77,3.23c-.76,1.67-1.63,3.29-2.54,4.89a3.82,3.82,0,0,1-4.13,2.09c.29-.48.57-.89.8-1.32,1.27-2.38,2.49-4.81,3.83-7.16a9.9,9.9,0,0,1,2.11-2.69A14.52,14.52,0,0,1,56.66,233.6Z" />
        <path class="transparent" d="M58.92,221.23l-.16-.08s.06-.08.08-.08a.48.48,0,0,1,.16.08Z" />
        <path class="color-base"
            d="M529.43,354c.06.79.13,1.58.2,2.37-.08.33-.15.65-.23,1-.25,2.28-.42,4.58-.76,6.86q-1,6.59-2.12,13.16c-.56,3.16-1.32,6.29-1.82,9.47a16.62,16.62,0,0,0,.16,3.91c.21,2.25.43,4.51.73,6.75.38,2.87,2.23,5.07,3.59,7.49.63,1.1,1.35,2.16,2,3.26a3,3,0,0,1,.17.92c.08,2,.15,4,.22,6a27.43,27.43,0,0,0-9.42,3.72c-1.35.89-2.8,1.64-4.18,2.5a4.65,4.65,0,0,0-.81.94L514.5,424l-.62,1.16c.43.21.88.62,1.3.6,2.1-.13,4.19-.37,6.29-.57l8.21-.76c-.22,1.13-.39,1.92-.52,2.72a38.21,38.21,0,0,0,.23,12c.12.79,0,1.33-.95,1.6-3.93,1.14-7.84,2.36-11.76,3.54-.44-.81-.87-1.62-1.34-2.42a3.51,3.51,0,0,0-.72-.94,7.36,7.36,0,0,0-6.51-1.82,3.44,3.44,0,0,1-3.65-2.33q-2.81-11.1-5.63-22.2c-.36-1.39-.67-2.79-1-4.18l.37-.35c2.1.34,4.24.52,6.29,1.06,4.76,1.26,9.45,2.78,14.22,4a15.33,15.33,0,0,0,4.34.08c.27,0,.63-.37.77-.65a3.11,3.11,0,0,0-.77-3.82c-1.34-1.25-2.73-2.46-4.16-3.6-3.61-2.88-7.91-4.19-12.3-5.3-3.22-1.35-6.45-2.69-9.66-4.06a14.33,14.33,0,0,1-1.62-1,31.68,31.68,0,0,0,.71-3.46c.27-2.57-.63-4.95-1.53-7.29a82.83,82.83,0,0,1-4.15-15.18c-.88-4.87-1.41-9.81-2-14.74s-.88-9.64-1.47-14.45c-.42-3.42-1.09-6.81-1.69-10.2-.68-3.83-1.46-7.63-2.1-11.47-.39-2.34-.6-4.72-.9-7.08-.42-3.34-1-6.68-1.23-10a65.36,65.36,0,0,1,.2-7.53c.12-2.38.26-4.76.51-7.13.41-3.95,1-7.88,1.39-11.82a8.24,8.24,0,0,1,4.78-7c1.69-.82,3.41-1.57,5.16-2.22q7.33-2.73,14.71-5.3a1.2,1.2,0,0,1,1.08.46,17.51,17.51,0,0,1,1.36,3.3c1.07,3.87,2,7.77,3.05,11.65,1.28,4.72,2.5,9.47,3.95,14.14,2.26,7.3,4.68,14.55,7.07,21.81a96.64,96.64,0,0,1,4.4,20c.53,4.93.7,9.91,1,14.87l.21,5C529.72,353.34,529.57,353.67,529.43,354Z" />
        <path class="color-shadow"
            d="M529.66,348c-.33-5-.5-9.94-1-14.87a96.64,96.64,0,0,0-4.4-20c-2.39-7.26-4.81-14.51-7.07-21.81-1.45-4.67-2.67-9.42-3.95-14.14-1-3.88-2-7.78-3.05-11.65a17.51,17.51,0,0,0-1.36-3.3,1.2,1.2,0,0,0-1.08-.46q-7.38,2.58-14.71,5.3c-1.75.65-3.47,1.4-5.16,2.22a8.24,8.24,0,0,0-4.78,7c-.43,3.94-1,7.87-1.39,11.82-.25,2.37-.39,4.75-.51,7.13a65.36,65.36,0,0,0-.2,7.53c.23,3.35.81,6.69,1.23,10,.3,2.36.51,4.74.9,7.08.64,3.84,1.42,7.64,2.1,11.47.6,3.39,1.27,6.78,1.69,10.2.59,4.81.91,9.64,1.47,14.45s1.1,9.87,2,14.74A82.83,82.83,0,0,0,494.49,386c.9,2.34,1.8,4.72,1.53,7.29a31.68,31.68,0,0,1-.71,3.46,6.67,6.67,0,0,1-1.58-.79,59.47,59.47,0,0,1-5.58-5.41,23.87,23.87,0,0,1-2.62-4.8,10.12,10.12,0,0,1-.59-7.2,4.86,4.86,0,0,0,.06-1.08c0-3,.08-6,0-9-.2-6.37-.46-12.74-.72-19.1-.12-2.94-.27-5.89-.48-8.82-.26-3.56-.6-7.12-.93-10.68-.31-3.31-.55-6.65-1-9.94s-1.05-6.35-1.75-9.48c-.76-3.37-1.82-6.67-2.55-10.05a14.32,14.32,0,0,1,.05-4.13c.26-3,.62-6.07.92-9.11.32-3.2.65-6.39.93-9.59.14-1.55.09-3.11.31-4.64a5,5,0,0,1,1-2.31,16.35,16.35,0,0,1,5.59-4.21c3.37-1.74,6.6-3.78,10.07-5.24,3.25-1.36,6.75-2.12,10.13-3.15,1.41-.43,2.81-.88,4.36-1.37.52,2,.92,4.08,1.6,6.05,1.57,4.55,3.21,9.08,5,13.57,2.22,5.67,4.71,11.24,6.81,17a47.21,47.21,0,0,1,1.78,8.14c.56,3.16,1,6.34,1.42,9.52s.64,6.32,1,9.47c.29,2.48.7,4.95,1,7.42.23,1.69.52,3.38.61,5.08.16,3.07.22,6.14.25,9.21,0,1.74-.13,3.5-.25,5.24C530.09,347.53,529.82,347.76,529.66,348Z" />
        <path class="color-shadow"
            d="M506.59,401.76c4.39,1.11,8.69,2.42,12.3,5.3,1.43,1.14,2.82,2.35,4.16,3.6a3.11,3.11,0,0,1,.77,3.82c-.14.28-.5.64-.77.65a15.33,15.33,0,0,1-4.34-.08c-4.77-1.23-9.46-2.75-14.22-4-2.05-.54-4.19-.72-6.29-1.06l-.37.35c.33,1.39.64,2.79,1,4.18q2.81,11.1,5.63,22.2a3.44,3.44,0,0,0,3.65,2.33,7.36,7.36,0,0,1,6.51,1.82,3.51,3.51,0,0,1,.72.94c.47.8.9,1.61,1.34,2.42L510,445.67h-.12c-3.38.41-3.29.38-4.38-2.74-.9-2.58-2-5.08-3.07-7.61a2.47,2.47,0,0,0-.55-.77,10.39,10.39,0,0,1-3.11-8,77.19,77.19,0,0,0-1.83-16.19c-.39-2-.56-4.08-.84-6.13l1.66,0a3.17,3.17,0,0,0,.78.35,53.82,53.82,0,0,1,5.84.94c3,.84,5.93,2,8.89,3l4,1.33.6.33a7.07,7.07,0,0,0-3.54-3.81c-1.51-.77-3.07-1.45-4.62-2.16-.68-.51-1.36-1-2-1.52C507.29,402.41,506.94,402.08,506.59,401.76Z" />
        <path class="outline"
            d="M514.5,424l2.65-1.6c2.17-.78,4.35-1.52,6.5-2.35,2.64-1,5.25-2.15,8.13-2.25a3.89,3.89,0,0,1,1.73.28,1.17,1.17,0,0,1,.47,1,1.14,1.14,0,0,1-.94.63c-3.89-1-7.25.85-10.75,1.93C519.7,422.41,517.1,423.17,514.5,424Z" />
        <path class="color-shadow" d="M531.56,415.19c-.07-2-.14-4-.22-6,.24.13.55.21.7.41a13,13,0,0,1,2,5.2Z" />
        <path class="color-shadow" d="M529.43,354c.14-.33.29-.66.44-1C529.72,353.34,529.57,353.67,529.43,354Z" />
        <path class="color-shadow" d="M529.4,357.35c.08-.33.15-.65.23-1C529.55,356.7,529.48,357,529.4,357.35Z" />
        <path class="transparent"
            d="M516.49,466.12c5-1,10-1.3,14.78-3.59.4,2.13.71,4.12,1.16,6.08,1.05,4.57,1.09,9.25,1.56,13.88s.69,9.47,2.11,14.05a3,3,0,0,1-.12,1.95c-2.81,6-5.69,12-8.58,17.93a5,5,0,0,1-1.13,1.38q-4.83,4.38-9.69,8.73a.73.73,0,0,1-.61.17c.4-.66.8-1.32,1.21-2-1.42,1-2.65,2-2.49,3.94,0,.32-.26.66-.4,1-.3-.22-.83-.42-.86-.68a9.42,9.42,0,0,1,0-3.13,11.17,11.17,0,0,1,1.61-4c1.81-2.51,3.89-4.82,5.82-7.25a11.55,11.55,0,0,0,1.64-2.59c1.08-2.61,1.93-5.33,3.1-7.9.81-1.77.28-3.46.1-5.15-.2-1.88-.77-3.73-1.12-5.6a2.89,2.89,0,0,1,.07-1.37c1.28-4.18,2.61-8.35,3.88-12.54a14.12,14.12,0,0,0,.33-2.36l-.36-.08c-.12.28-.26.55-.36.83L524,490.13a11.31,11.31,0,0,0-.41,1.37,14.38,14.38,0,0,1-2.47,5.48c-2.31,3.35-4.42,6.83-6.47,10a18.88,18.88,0,0,0-2.47-1.78c-.26-.15-.88.36-1.24.53.81.38,1.95.58,2.06,1a7.22,7.22,0,0,1-.09,3.33,6.27,6.27,0,0,1-1.36,2.23c-.62.8-1.3.68-1.52-.27a5.76,5.76,0,0,1-.14-2.57c1.35-5.88,2.84-11.74,4.2-17.62.94-4.09,2.33-8.12,2.19-12.41-.08-2.39-.18-4.79-.15-7.18C516.17,470.29,516.36,468.26,516.49,466.12Z" />
        <path class="color-shadow-dark"
            d="M525.78,446.22c1.72-.06,3.44-.16,5.16-.15.23,0,.63.54.67.87.5,3.79.93,7.59,1.41,11.38.08.68,0,1.2-.72,1.44-2.28.84-4.51,1.84-6.85,2.46-3.49.92-7.05,1.58-10.58,2.33-.49.11-1,.28-1.17-.54-.9-4-1.82-8.08-2.83-12.09-.31-1.24-.19-1.88,1.13-2.45a18.37,18.37,0,0,1,6.37-1.85l-.27.67c-1.54.62-3.09,1.22-4.6,1.88a.89.89,0,0,0-.36.76q1.2,4.81,2.48,9.62a1.33,1.33,0,0,0,2.07,1c.68-.3,1.41-.52,2.11-.77l9.56-3.4a11,11,0,0,0,0-1.15c-.3-2.72-.67-5.43-.87-8.16-.07-.87-.51-1-1.15-1.2A15.1,15.1,0,0,1,525.78,446.22Z" />
        <path class="color-base"
            d="M518.1,448.29l.27-.67,7.41-1.4a15.1,15.1,0,0,0,1.56.65c.64.18,1.08.33,1.15,1.2.2,2.73.57,5.44.87,8.16a11,11,0,0,1,0,1.15l-9.56,3.4c-.2-1.45-.41-2.9-.61-4.35C518.82,453.72,518.46,451,518.1,448.29Z" />
        <path class="transparent"
            d="M523.3,496.91c.66,2.1,1.25,3.9,1.78,5.73a1.87,1.87,0,0,1-.22,1c-1.08,2.95-2.14,5.91-3.27,8.85a5.81,5.81,0,0,1-1.1,1.65c-1.56,1.75-3.16,3.47-4.75,5.2a2.14,2.14,0,0,1-.39.45l-8,4.84c-.64.39-1,.12-1.29-.5a3.55,3.55,0,0,1,.56-4.21,14.88,14.88,0,0,1,5.46-4,27.62,27.62,0,0,1,3.9-1.52,4.94,4.94,0,0,0,3.22-3,40.65,40.65,0,0,0,3.64-12.53A16.49,16.49,0,0,1,523.3,496.91Z" />
        <path class="transparent"
            d="M508.78,509.69c.05,1.81.18,3.09,1.34,4,.87.7,1.58.79,2.25-.12s1.28-2.19,2-3.27c.24-.38.56-.86.93-1a3.49,3.49,0,0,0,2-2c1-1.8,2.05-3.52,2.93-5.34a37.94,37.94,0,0,0,1.5-4.11,6.63,6.63,0,0,1,.32-.95,18.83,18.83,0,0,1-1.23,8.7c-.86,2.19-1.79,4.35-2.84,6.45a3.56,3.56,0,0,1-1.71,1.26c-.71.34-1.59.35-2.25.74a5.1,5.1,0,0,1-4.87.15c-1.29-.53-2.63-.93-3.9-1.49-1.11-.48-1.22-1.41-.13-2A19.85,19.85,0,0,1,508.78,509.69Z" />
        <path class="color-shadow-dark"
            d="M517.25,409.86l-4-1.33c-3-1-5.89-2.13-8.89-3a53.82,53.82,0,0,0-5.84-.94,3.17,3.17,0,0,1-.78-.35c2.26.18,4.54.21,6.76.6,3.13.55,6.23,1.3,9.31,2.1A5.12,5.12,0,0,1,517.25,409.86Z" />
        <path class="transparent"
            d="M514.32,466.15l1.29.08c-.26,3.69-.52,7.31-.78,10.93A20.89,20.89,0,0,1,514.32,466.15Z" />
        <path class="transparent" d="M519.92,500.83l-4.18,7.64-.4-.23,4.18-7.72Z" />
        <path class="transparent" d="M506.33,509a2.06,2.06,0,0,1,2.4-1.28c.24.05.4.53.68.94Z" />
        <path class="color-shadow"
            d="M278.83,200.38c.16,1.13.38,2.27.47,3.41.14,1.7.21,3.42.26,5.13.1,4,.26,8.05.22,12.08-.06,5.14-.44,10.28-.42,15.42,0,6.69.28,13.39.45,20.09.07,3,.16,6,.23,9,.09,3.46.31,6.94.2,10.4s-.58,6.64-.87,10c-.19,2.14-.4,4.27-.51,6.41-.13,2.43-.17,4.86-.26,7.29-.07,2.07-.17,4.14-.23,6.21,0,.81-.33.94-1.15.8a207.7,207.7,0,0,1-24.08-5.89c-9.94-3-19.84-6.16-29.48-10.08-2.17-.88-4.24-2-6.37-3-2.6-1.22-5.23-2.38-7.79-3.67-3.77-1.9-7.57-3.75-11.2-5.89a83.15,83.15,0,0,1-7.17-5.15,17.74,17.74,0,0,0-6-2.89c-2.69-.73-5.41-1.38-8-2.27a54.48,54.48,0,0,1-12.95-6.36c-2-1.38-4.31-2.41-6.36-3.76a37.63,37.63,0,0,1-9.69-9.07A34.9,34.9,0,0,1,143,238.09c-.94-2.94-3.18-4.46-6-5.28l-.91-.28c.84-2.16,2.26-2.54,4.05-1.45a32.63,32.63,0,0,1,11.08,11,79.18,79.18,0,0,0,10.33,14.15,18.93,18.93,0,0,0,7.86,4.65,155.11,155.11,0,0,1,19.25,7.81c4.8,2.34,9.69,4.5,14.51,6.81,3.71,1.77,7.24,4,11.06,5.43,6.11,2.3,12.35,4.23,18.6,6.1,5.22,1.56,10.53,2.84,15.8,4.21,5.42,1.42,10.85,2.8,16.28,4.23,1.64.43,3.26,1,5.06,1.5.27-2,.54-3.8.77-5.64.56-4.49,1.13-9,1.64-13.47.38-3.23.66-6.47,1-9.71.37-3.55.79-7.1,1.15-10.65.21-2.09.34-4.19.52-6.29.31-3.52.63-7,.93-10.56.11-1.23.2-2.46.26-3.69.18-3.18.33-6.36.5-9.54.23-4.53.44-9.06.73-13.58.27-4.24.62-8.48,1-12.72C278.4,200.84,278.68,200.61,278.83,200.38Z" />
        <path class="color-shadow"
            d="M112.76,215.74c-.16-.84-.36-1.68-.44-2.53,0-.21.37-.58.64-.67a53.2,53.2,0,0,1,11.1-2.61c2.55-.24,5.05-1,7.58-1.46,4-.73,8-1.39,11.93-2.09,4.21-.75,8.41-1.58,12.63-2.26,3.32-.53,6.67-.9,10-1.33.74-.1,1.49-.16,2.24-.24a4.85,4.85,0,0,1-1.15.64c-6.2,1.53-12.43,3-18.61,4.56s-12.24,3.39-18.4,5c-4.41,1.13-8.88,2.08-13.35,3A21.56,21.56,0,0,1,112.76,215.74Z" />
        <path class="color-shadow-dark"
            d="M186.89,236.4a5.72,5.72,0,0,1-.83-1.09q-2.48-5.7-4.9-11.42c-1.11-2.65-2.13-5.33-3.28-8a29.51,29.51,0,0,0-5.84-8.25,4.65,4.65,0,0,1-.92-1.37,1.37,1.37,0,0,1,1.1-1.83c1-.16,3.27,1.37,3.62,2.46-.94.26-.33.7-.09,1,.77,1,1.66,1.95,2.33,3a62.07,62.07,0,0,1,7.15,17.13C185.93,230.84,186.34,233.64,186.89,236.4Z" />
        <path class="outline"
            d="M186.89,236.4c-.55-2.76-1-5.56-1.66-8.28A62.07,62.07,0,0,0,178.08,211c-.67-1.07-1.56-2-2.33-3-.24-.33-.85-.77.09-1,5.42,5,8.06,11.58,9.78,18.47a133.77,133.77,0,0,1,2.93,17c.39,3.43-.11,7-.22,10.44,0,.1-.1.2-.26.47.1-2,.28-3.87.25-5.7a49.74,49.74,0,0,0-.45-5.59C187.63,240.14,187.22,238.27,186.89,236.4Z" />
        <path class="color-base"
            d="M100.52,222.94c-.21-1.88-.39-3.77-.66-5.65-.21-1.42-.06-1.59,1.39-1.81,1.64-.25,3.26-.67,4.88-1,.38-.08.76-.13,1.16-.2.39,3.36.77,6.61,1.15,9.86Z" />
        <path class="color-shadow"
            d="M100.52,222.94l7.92,1.2c.15,1,.29,2,.45,2.93.13.75,0,1.14-1,1.19-1.69.09-3.37.38-5.06.58-.46,0-.93.08-1.56.13C101.05,226.91,100.79,224.93,100.52,222.94Z" />
        <path class="color-shadow"
            d="M518.1,448.29c.36,2.71.72,5.43,1.09,8.14.2,1.45.41,2.9.61,4.35-.7.25-1.43.47-2.11.77a1.33,1.33,0,0,1-2.07-1q-1.29-4.8-2.48-9.62a.89.89,0,0,1,.36-.76C515,449.51,516.56,448.91,518.1,448.29Z" />
    </g>
</svg>
