<svg id="manshety" xmlns="http://www.w3.org/2000/svg" viewBox="0 0 672 960">
    <g id="img_39_img" data-name="img 39 img">
        <path class="outline"
            d="M32.85,253.44l-1.23-.24-.53-1,.66-1.88.25-.6L34,246l.71-1.8.15-.64.33-.56q.86-2.58,1.72-5.15l.21-.61c.87-2.36,1.65-4.76,2.66-7.06a4.16,4.16,0,0,1,2-1.9c3.89-1.75,7.85-3.37,11.78-5a2.35,2.35,0,0,0,.39-.28c-.15-.48-.28-1-.47-1.52a1.23,1.23,0,0,1,.91-1.84c3.08-.93,6.13-2,9.25-2.74,4.24-1,8.53-1.86,12.81-2.66a47.15,47.15,0,0,1,6-.68,58.4,58.4,0,0,0,15-2.3,51.11,51.11,0,0,1,10.76-2,4.87,4.87,0,0,0,.94-.17c2.09-.71,4.24-1.31,6.26-2.19,2.31-1,4.71-1,7.13-1.18a61.14,61.14,0,0,0,6.77-1.29c4.2-.87,8.41-1.73,12.6-2.67,4.66-1,9.26-2.35,14-3.23a64.25,64.25,0,0,1,9.7-.95c5.47-.18,10.95-.08,16.42-.22,5-.12,10-.4,15-.58,4.46-.15,8.93-.17,13.39-.38s9.12-.58,13.67-.92q5.94-.44,11.86-1c2.72-.25,5.43-.61,8.15-.87s5.54-.44,8.3-.69,5.37-.51,8.06-.77c2.36-.24,4.73-.49,7.1-.72,3-.31,6.07-.58,9.1-.93,1.32-.15,2.61-.47,3.91-.71h.24a7.54,7.54,0,0,1,.24,1.24c.17,14,.3,27.91.5,41.86.08,5.59.31,11.17.47,16.75s.28,10.93.49,16.4c.18,4.61.45,9.23.72,13.84.2,3.45.63,6.9.67,10.36.1,6.7,0,13.4,0,20.1V317l-.51.15c-.27-.55-.5-1.12-.82-1.64-.23-.37-.57-.94-.88-1a68.67,68.67,0,0,1-16.6-3.56c-4.84-1.54-9.64-3.21-14.46-4.83s-9.87-3.15-14.7-5-9.35-4-14-6c-5.66-2.4-11.4-4.62-17-7.13S194,281.58,189,277.8A25.39,25.39,0,0,0,177.41,273a42.28,42.28,0,0,1-20.76-9.27,34,34,0,0,0-3.87-2.6c-3.31-2-6-4.55-7.25-8.43a45.46,45.46,0,0,0-2.91-5.9,1.46,1.46,0,0,0-2-.78l-2,.7a4.6,4.6,0,0,1-5.5-1.53c-3.52-4.48-8.58-6.16-13.7-7.77a1.4,1.4,0,0,0-.7-.07,4.93,4.93,0,0,1-5-1.69.6.6,0,0,0-.4-.22c-2.27.2-4.51-.82-6.85.08-3.22,1.24-6.56,2.19-9.85,3.28a1,1,0,0,0-.56.38c-1.73,3-4.74,3.76-7.75,4.48-2.64.63-5.36,1-8,1.76a69.41,69.41,0,0,0-7.42,2.95c-2.45,1.07-4.85,2.28-7.28,3.4A16,16,0,0,1,57.58,253c-1.33-.1-1.92-1.1-2.26-2.19a3,3,0,0,1,.87-3.39c1.56-1.23,3.21-2.37,4.82-3.55l1-.74-1.43-3.74a45.67,45.67,0,0,1-4.08,3.06,57.42,57.42,0,0,1-6,3c-.47.2-1.59,0-1.67-.23a2.59,2.59,0,0,1,.09-2.07c1.4-1.93,3-3.72,4.49-5.57l-.19-.32c-.62.31-1.25.61-1.86.95s-1.31.78-2,1.17l-1.67,3.34-.19.4-1.23,2.49-.85,1.61-.36.54-.33.44-.69.69-.44.33-.55.34-.6.24-.55.12-1.86-.23-.83.12,0,0L38.11,251l-1,.78-.51.39-1.35.64-1.25.45-.4.1Zm81.5-23c.17.53.39,1.05.51,1.59a4.19,4.19,0,0,0,4.26,3.63,4.88,4.88,0,0,1,1.85.4c2.31,1.08,4.54,2.34,6.88,3.34a16.44,16.44,0,0,1,6.58,4.43,2.19,2.19,0,0,0,1.78.67c1.74-.37,3.42-1,5.19-1.53-.26-1-.52-1.88-.76-2.81-.61-2.35-1-4.79-3.72-5.93,1.09-.46,2.18-.06,3.11,1.15a28.39,28.39,0,0,1,4.39,9.64c.22.8.48,1.6.77,2.38.63,1.64,1.43,3.22,1.91,4.9A12.2,12.2,0,0,0,152,259a66.16,66.16,0,0,0,14.39,7.82c3.54,1.34,7,3,10.78,3.52a27.22,27.22,0,0,1,14.16,6.74,71.23,71.23,0,0,0,19.21,11.62c4.92,2,10,3.64,14.87,5.72C235,298.57,245,301.86,255,305c7.45,2.35,14.74,5.27,22.53,6.45,1.7.26,3.43.37,5.44.59,0-2.64,0-5,0-7.33-.06-4.4-.1-8.79-.24-13.18-.16-4.58-.45-9.16-.64-13.74-.28-6.46-.58-12.92-.76-19.38-.21-7.67-.32-15.33-.42-23-.09-7.2-.08-14.39-.15-21.59,0-2.44-.08-4.87-.23-7.3-.32-5-.71-10-1.08-15l-10.51.89-6.91.66-10.46,1c-3.06.3-6.11.56-9.17.88-4.39.47-8.78,1-13.18,1.47l-8.66.91-2.13.22a2.17,2.17,0,0,0-.35-.07l-13.89.41-12,.42c-5.59.19-11.17.38-16.76.54-3.59.1-7.19.14-10.78.25a20.74,20.74,0,0,0-3.33.32c-4.06.78-8.14,1.53-12.17,2.47-5,1.17-9.88,2.64-14.86,3.75a81.13,81.13,0,0,1-9.22,1.28c-2.35.25-4.78.05-7,.9s-4.54,1.92-7.08,3c.11,1.48.16,3.22.4,4.94.45,3.18,1,6.34,1.53,9.51.11.4.21.8.31,1.19Zm-17.71,5.85a2.64,2.64,0,0,0-.3-.1,44.73,44.73,0,0,0-13.11-.51,27.41,27.41,0,0,0-7,1.44c-3.49,1.36-6.8,3.16-10.17,4.79a38,38,0,0,0-4.16,2.16c-1.54,1-2.94,2.16-4.39,3.28a9.89,9.89,0,0,0-1,1.1c3-1,5.44-3.15,8.52-.72a8.3,8.3,0,0,0-2.43-.31,8.75,8.75,0,0,0-5,2.78c-.79.94-.66,1.4.58,1.55,2.25.29,4.5.44,6.67-.62,2.48-1.2,5-2.25,7.53-3.4a41.93,41.93,0,0,1,11.15-3.77A67.26,67.26,0,0,0,91,242.11a6.7,6.7,0,0,0,4.47-3.69C95.79,237.72,96.21,237.05,96.64,236.27ZM58,231.54c-1-2.22-2.1-4.5-3.21-6.75a.91.91,0,0,0-.83-.33,51.37,51.37,0,0,0-12.13,4.74,2.66,2.66,0,0,0-1.09,1.21c-1.71,4.26-3.35,8.54-5,12.83a2,2,0,0,0-.07.69c0,1.15-.06,2.31-.08,3.46h-.37L34.92,246h-.26l-2.23,5.76.41.39A17,17,0,0,0,36,250.93c3.75-2.46,6-6.21,7.75-10.15A12.39,12.39,0,0,1,51,233.91C53.21,233.07,55.5,232.39,58,231.54Zm5.17,9.54c1.84-.85,3.39-1.57,4.92-2.3s2.89-1.49,4.39-2.11a45.75,45.75,0,0,1,6-2.18c4.26-1.08,8.64-.87,13-.73a23.77,23.77,0,0,1,6.31,1.12A4.47,4.47,0,0,0,101,235a18.63,18.63,0,0,1,8.57-1.17,23.36,23.36,0,0,0,3,0c-2.16-7.45-2-15-3.13-22.25-3.35.5-6.72,1-10.07,1.52-3,.48-5.94,1.08-8.92,1.53-1.85.28-3.72.38-5.58.57-2.6.28-5.2.63-7.81.83a41.47,41.47,0,0,0-10.29,1.87c-1.61.54-3.3.83-5,1.24-2.26.57-4.52,1.16-7.05,1.81C58.51,227.45,61.82,233.83,63.21,241.08Zm-6.31-7.74a17.21,17.21,0,0,0-9.24,3.43A7.41,7.41,0,0,0,45,240.34a19,19,0,0,1-1.42,3c-.91,1.62-1.9,3.19-3,5,.74-.08,1.33,0,1.68-.21a9.22,9.22,0,0,0,2.55-2.2c1-1.55,1.72-3.33,2.65-4.95a8.06,8.06,0,0,1,1.87-2.46c1.82-1.38,3.8-2.56,5.7-3.84C55.56,234.37,56.1,233.93,56.9,233.34ZM49.54,244.6l.37.27a22.21,22.21,0,0,0,10-6.75,1.44,1.44,0,0,0,.18-1.2c-.32-1-.79-1.9-1.32-3.15a22.53,22.53,0,0,0-3.09,2.54c-2,2.3-3.76,4.73-5.61,7.13A6.22,6.22,0,0,0,49.54,244.6Z" />
        <path class="outline"
            d="M500.86,443.28a21.75,21.75,0,0,0-4.85-10,4.64,4.64,0,0,1-1.11-1.91c-.54-2.57-1.07-5.16-1.38-7.77-.47-4.06-.72-8.14-1.12-12.21-.26-2.59-.62-5.16-1-7.73a2,2,0,0,0-.62-.95c-1.21-1.33-2.74-2.46-3.58-4A25.67,25.67,0,0,1,485.3,393q-1.59-5.69-3.05-11.41a8.45,8.45,0,0,1-.06-1.75l-.3-8.44c-.08-2.26-.14-4.52-.25-6.77-.14-2.92-.37-5.83-.47-8.74-.13-3.45-.07-6.91-.27-10.35-.14-2.28-.62-4.53-.9-6.8-.25-2.08-.41-4.17-.68-6.24s-.65-4.27-1-6.41c-.26-1.83-.48-3.67-.76-5.5-.38-2.51-.81-5-1.19-7.52-.27-1.79-.48-3.6-.74-5.39s-.68-3.84-.92-5.78c-.18-1.44-.24-2.91-.31-4.37-.1-2-.27-4-.21-6,0-1.8.34-3.59.55-5.38s.48-3.71.71-5.56.44-3.68.63-5.53.33-3.49.54-5.23c0-.47.16-1.15.48-1.35,1.37-.85,2.83-1.55,4.26-2.31-.37.35-.76.69-1.1,1.07-.81.91-2,1.72-2.31,2.78a30.39,30.39,0,0,0-.91,5.88c-.33,3.33-.63,6.67-.86,10-.27,4.09-.49,8.18-.63,12.28a23.65,23.65,0,0,0,.43,3.43c.55,4.55,1,9.11,1.63,13.65s1.36,9.28,2,13.93c.54,4,1.07,8,1.47,12,.54,5.42,1.08,10.85,1.38,16.29.32,5.9.29,11.81.56,17.71.28,6.16.95,12.25,3.87,17.85a27.42,27.42,0,0,0,2.07,4c1.89,2.51,4,4.8,7.55,4.86a23.72,23.72,0,0,1,4,.33c3.05.6,6.07,1.35,9.1,2,1.54.72,3.11,1.39,4.62,2.16a7.15,7.15,0,0,1,3.54,3.8l-.59-.32a5.14,5.14,0,0,0-3.48-2.89c-3.08-.81-6.18-1.56-9.31-2.11-2.22-.38-4.5-.41-6.76-.6l-1.66,0-2.47-.34c.12.56.22.94.27,1.32.4,3,.94,5.9,1.15,8.87.23,3.43.12,6.87.25,10.3.08,1.79.43,3.56.52,5.34A3.38,3.38,0,0,0,497,432.3a15.94,15.94,0,0,1,5.44,9.85c.19,1.14.26,2.3.5,3.42.48,2.33,2.08,3.28,4.37,2.72,1.16-.28,2.34-.48,3.5-.74.47-.11.91-.31,1.36-.45,1.77-.56,3.51-1.21,5.31-1.65a42.72,42.72,0,0,1,5.29-.93c2.56-.28,5.15-.33,7.7-.64a6.59,6.59,0,0,0,3-1.12,3.28,3.28,0,0,0,1.25-3.35c-.35-2.53-.37-5.07-2-7.26a3.66,3.66,0,0,1-.48-1.94c-.17-2.95,1-5.54,2.33-8.06.88-1.61,1.73-3.24,2.47-4.91,1.77-4.05.27-7.38-2.43-10.41-1.11-1.24-2.52-2.33-3.3-3.76a25.7,25.7,0,0,1-3.51-11.48,70.86,70.86,0,0,1,.64-10.49c.81-6.41,1.84-12.79,2.81-19.18,1.11-7.33,2.27-14.66,1.72-22.12-.35-4.77-.6-9.56-1.28-14.29q-1.44-9.88-3.47-19.68c-2.38-11.44-6-22.52-9.83-33.56-2.23-6.5-4.36-13-6.54-19.55-.1-.28-.24-.55-.4-.93-.91.39-1.71.72-2.51,1.08q-9.74,4.37-19.46,8.73a5.51,5.51,0,0,1-.91.23A46.43,46.43,0,0,1,493.1,259c4.47-2.21,9-4.32,13.5-6.42,2-.92,3.95-1.75,5.94-2.6a3.16,3.16,0,0,1,.73-.18c2,5.81,4,11.53,5.9,17.25,1.29,3.83,2.5,7.69,3.76,11.53.75,2.33,1.62,4.63,2.26,7,.92,3.39,1.7,6.82,2.51,10.24s1.58,6.54,2.24,9.84c1.09,5.42,2.18,10.85,3,16.31.69,4.34,1.24,8.73,1.53,13.12.26,4.09.22,8.22.1,12.32-.23,8.38-2.18,16.56-3.18,24.84-.65,5.37-1.13,10.77-1.44,16.17a17.23,17.23,0,0,0,1.7,8.34c.46,1,.58,2.14,1.09,3.1A37.8,37.8,0,0,0,536,405.1c2,2.57,3.58,5.28,3.76,8.58a9,9,0,0,1-.57,3.63c-.75,2-1.77,3.83-2.67,5.74-.55,1.15-1.16,2.28-1.64,3.46a6.11,6.11,0,0,0,.43,6.16c1.08,1.57.73,3.46,1,5.22a9.94,9.94,0,0,0,.16,1.66,4.68,4.68,0,0,1-.53,3.91c-.49.93-1,1.88-2.41,1.47.19,1.91.31,3.72.54,5.51.53,4.14,1.08,8.28,1.69,12.41.76,5.19,1.62,10.36,2.4,15.55a43,43,0,0,1,.45,4.39c.18,3.37.29,6.75.44,10.13.06,1.21.07,2.34-1.78,2.2.7,2.42-.33,4.36-1.26,6.29-2.31,4.78-4.69,9.52-7,14.28a11.67,11.67,0,0,1-3.18,3.65c-2.43,2.06-4.7,4.32-6.93,6.6-1.44,1.48-2.7,3.15-4,4.74a1.53,1.53,0,0,1-2.74-.29c-.92-1.66-.52-3.3,0-4.94.3-.93.65-1.84,1.12-3.16-1,.62-1.79,1.05-2.53,1.51-.95.6-1.84,1.31-2.83,1.81-1.9,1-3.31.08-3.36-2.09a7.52,7.52,0,0,1,3-6c.78-.67,1.66-1.23,2.69-2-1.27-.4-2.34-.7-3.39-1.06a14.77,14.77,0,0,1-2.06-.83c-1.67-.84-1.86-2.29-.41-3.49a2.63,2.63,0,0,0,1.2-1.9c.06-.52,1.09-1.15,1.79-1.33,2-.53,2-.47,2.47-2.48.81-3.38,1.79-6.73,2.57-10.13s1.49-7,2.2-10.59c.38-1.93-.73-3.61-1-5.44-.21-1.57-.48-3.13-.72-4.69-.66-4.2-.39-8.49-1.58-12.65-.93-3.25-1.37-6.63-2.05-10.1-1.07.13-1.91.24-2.75.33a4,4,0,0,1-4.07-2.17,9.94,9.94,0,0,1-1.39-5.25ZM527,484.55l-.08.73c-.06.31-.13.63-.19.94-.65,2.23-1.38,4.45-1.93,6.7a6.15,6.15,0,0,0,.16,2.4c.11.65.5.93,1.21.59a10.85,10.85,0,0,1,2.23-.81c2.08-.44,4.18-.79,6.27-1.17.74-.1,1.5-.15,2.22-.32a1,1,0,0,0,.63-.64c0-.81-.08-1.63-.13-2.45,0-.31-.09-.62-.13-.93-.16-2.13-.17-4.28-.49-6.39-.78-5.24-1.69-10.47-2.56-15.7-.07-.63-.1-1.26-.21-1.89-.54-3.24-1.23-6.48-1.63-9.74-.35-2.92-.4-5.87-.57-8.81-.05-.94-.36-1.52-1.45-1.39-2.72.34-5.44.6-8.15,1-3.68.51-7.3,1.21-10.51,3.26-1.23.79-1.28,1-.83,2.4a53.87,53.87,0,0,1,1.71,6.21c.82,4.18,1.47,8.4,2.14,12.29.49-1.51,1.09-3.34,1.73-5.29,3.15,6.78,5.39,13.64,9.16,20.24.2-1,.33-1.71.46-2.39.14-.25.28-.5.43-.75l.58,1.21Zm-12.56,22.93.55-.83c2-3.21,4-6.46,6.08-9.62a10.81,10.81,0,0,0,1.84-4.31,28,28,0,0,1,1.19-3.48,2.78,2.78,0,0,0,.09-1.68c-2.37-5.93-4.81-11.83-7.23-17.74a4.38,4.38,0,0,0-.49-.64c-.12,1.21-.29,2.11-.29,3,0,2.43,0,4.87.11,7.3.15,4.26-1.24,8.24-2.17,12.3-1.34,5.92-2.86,11.81-4.23,17.73a6,6,0,0,0,.13,2.56c.22.94.9,1.11,1.44.37a11.84,11.84,0,0,0,1.8-3.21c.64-2.07-.15-3.05-2.21-3.13,0,0-.07-.11-.1-.17C512.32,504.6,513.46,505.06,514.46,507.48Zm1.5,19.2.18.16c.19-.16.4-.3.58-.46q4.75-4.27,9.52-8.55a5.14,5.14,0,0,0,1.14-1.37c2.91-6,5.78-12,8.66-18a2.85,2.85,0,0,0-.41-2.94c-2.88,1-5.78,1.94-8.7,2.88-1.15.37-1.34,1.05-1.12,2.17a5.41,5.41,0,0,1-.14,2.59c-.83,2.5-1.78,5-2.72,7.42a15.87,15.87,0,0,1-1.55,3.57c-.91,1.3-2.21,2.31-3.23,3.53-2,2.41-4.22,4.76-4.78,8a11.88,11.88,0,0,0,0,3.26c0,.26.62.46,1,.69a3.52,3.52,0,0,0,.29-1,4.14,4.14,0,0,1,2.5-3.82Zm7.48-29.24h-.38c-.14,1.22-.22,2.45-.45,3.65a46.46,46.46,0,0,1-3.52,10.62,5.34,5.34,0,0,1-3.12,2.76,66.86,66.86,0,0,0-7.17,3.5,5.56,5.56,0,0,0-3,3.82c-.15.91.42,1.94.66,2.91a8.21,8.21,0,0,0,2-.61c3.4-2.12,7-4,9.56-7.23,1.63-2.07,3.83-3.67,4.32-6.56a26.4,26.4,0,0,1,1.59-4.4c.4-1.11,1.15-2.27,1-3.33A28.25,28.25,0,0,0,523.44,497.44ZM508.78,510c-1.35-.08-2.67-.18-3.78.74-.93.76-.88,1.49.19,2,1.31.57,2.69,1,4,1.53a5,5,0,0,0,4.75-.17,24.33,24.33,0,0,1,2.37-.77,3.13,3.13,0,0,0,1.55-1.11c1.06-2.14,2-4.34,2.91-6.55A19.44,19.44,0,0,0,522,496.9a5.58,5.58,0,0,0-.34.94,37.84,37.84,0,0,1-1.48,4.11c-.9,1.86-2,3.62-3,5.45a3.33,3.33,0,0,1-1.94,2c-.38.11-.71.58-.95,1-.7,1.11-1.27,2.31-2,3.37-.58.81-1.36.74-2.17.07C509,512.77,508.84,511.45,508.78,510Zm6.55-1.8.44.23c1.38-2.56,2.75-5.12,4.13-7.67l-.41-.23C518.1,503.12,516.72,505.68,515.33,508.23Zm-5.85.48c-.39-.46-.61-.95-.87-1a2,2,0,0,0-2.26,1.3Z" />
        <path class="color-shadow-dark"
            d="M509.69,404.22c-3-.68-6.05-1.43-9.1-2a23.72,23.72,0,0,0-4-.33c-3.53-.06-5.66-2.35-7.55-4.86a27.42,27.42,0,0,1-2.07-4c-2.92-5.6-3.59-11.69-3.87-17.85-.27-5.9-.24-11.81-.56-17.71-.3-5.44-.84-10.87-1.38-16.29-.4-4-.93-8-1.47-12-.63-4.65-1.38-9.28-2-13.93s-1.08-9.1-1.63-13.65a23.65,23.65,0,0,1-.43-3.43c.14-4.1.36-8.19.63-12.28.23-3.34.53-6.68.86-10A30.39,30.39,0,0,1,478,270c.33-1.06,1.5-1.87,2.31-2.78.34-.38.73-.72,1.1-1.07l0,0c.09-.14.17-.29.25-.43,1.94-1.14,3.87-2.3,5.81-3.42a8.26,8.26,0,0,1,1.2-.46,5.51,5.51,0,0,0,.91-.23q9.73-4.35,19.46-8.73c.8-.36,1.6-.69,2.51-1.08.16.38.3.65.4.93,2.18,6.52,4.31,13,6.54,19.55,3.79,11,7.45,22.12,9.83,33.56q2,9.78,3.47,19.68c.68,4.73.93,9.52,1.28,14.29.55,7.46-.61,14.79-1.72,22.12-1,6.39-2,12.77-2.81,19.18a70.86,70.86,0,0,0-.64,10.49,25.7,25.7,0,0,0,3.51,11.48c.78,1.43,2.19,2.52,3.3,3.76,2.7,3,4.2,6.36,2.43,10.41-.74,1.67-1.59,3.3-2.47,4.91-1.38,2.52-2.5,5.11-2.33,8.06a3.66,3.66,0,0,0,.48,1.94c1.63,2.19,1.65,4.73,2,7.26a3.28,3.28,0,0,1-1.25,3.35,6.59,6.59,0,0,1-3,1.12c-2.55.31-5.14.36-7.7.64a42.72,42.72,0,0,0-5.29.93c-1.8.44-3.54,1.09-5.31,1.65-.45.14-.89.34-1.36.45-1.16.26-2.34.46-3.5.74-2.29.56-3.89-.39-4.37-2.72-.24-1.12-.31-2.28-.5-3.42A15.94,15.94,0,0,0,497,432.3a3.38,3.38,0,0,1-1.26-2.58c-.09-1.78-.44-3.55-.52-5.34-.13-3.43,0-6.87-.25-10.3-.21-3-.75-5.92-1.15-8.87-.05-.38-.15-.76-.27-1.32l2.47.34c.28,2,.45,4.1.84,6.12a76.7,76.7,0,0,1,1.83,16.2,10.37,10.37,0,0,0,3.11,8,2.36,2.36,0,0,1,.55.77c1,2.53,2.17,5,3.07,7.6,1.09,3.13,1,3.16,4.38,2.75H510l6.73-1.44c3.92-1.19,7.83-2.41,11.76-3.54.94-.28,1.07-.82.95-1.61a38.82,38.82,0,0,1-.23-12c.13-.8.3-1.59.52-2.72l-8.21.76c-2.1.2-4.19.44-6.29.57-.42,0-.87-.39-1.3-.6.21-.39.42-.78.62-1.17,2.6-.77,5.2-1.53,7.79-2.33,3.5-1.07,6.85-2.93,10.74-1.92a1.13,1.13,0,0,0,.94-.62,1.18,1.18,0,0,0-.47-1,3.32,3.32,0,0,0-1.6-.3c-2.92.12-5.57,1.23-8.25,2.27-2.15.83-4.33,1.57-6.5,2.36a4.46,4.46,0,0,1,.81-.95c1.38-.86,2.83-1.61,4.18-2.5a27.43,27.43,0,0,1,9.42-3.72l2.48-.41a13,13,0,0,0-2-5.2c-.15-.2-.46-.28-.7-.41a3,3,0,0,0-.17-.92c-.64-1.1-1.36-2.16-2-3.26-1.36-2.42-3.21-4.62-3.59-7.49-.3-2.24-.52-4.5-.73-6.75a16.62,16.62,0,0,1-.16-3.91c.5-3.18,1.26-6.31,1.82-9.47q1.14-6.57,2.12-13.16c.34-2.28.51-4.58.76-6.86l.23-1c-.07-.79-.14-1.58-.2-2.37l.44-1-.21-5c.16-.24.43-.47.44-.72.12-1.74.26-3.5.25-5.24,0-3.07-.09-6.14-.25-9.21-.09-1.7-.38-3.39-.61-5.08-.33-2.47-.74-4.94-1-7.42-.38-3.15-.62-6.32-1-9.47s-.86-6.36-1.42-9.52a48.31,48.31,0,0,0-1.82-8.25c-2.1-5.72-4.6-11.29-6.82-17-1.74-4.45-3.35-8.95-4.91-13.46-.68-2-1.08-4-1.6-6.05-1.55.49-2.95.94-4.36,1.37-3.38,1-6.88,1.79-10.13,3.15-3.47,1.46-6.7,3.5-10.07,5.24a16.35,16.35,0,0,0-5.59,4.21,5,5,0,0,0-1,2.31c-.22,1.53-.17,3.09-.31,4.64-.28,3.2-.61,6.39-.93,9.59-.3,3-.66,6.07-.92,9.11a14.32,14.32,0,0,0-.05,4.13c.73,3.38,1.79,6.68,2.55,10.05.7,3.13,1.3,6.3,1.75,9.48s.7,6.63,1,9.94c.33,3.56.67,7.12.93,10.68.21,2.93.36,5.88.48,8.82.26,6.36.52,12.73.72,19.1.09,3,0,6,0,9a4.86,4.86,0,0,1-.06,1.08,10.12,10.12,0,0,0,.59,7.2,23.87,23.87,0,0,0,2.62,4.8,59.47,59.47,0,0,0,5.58,5.41,6.67,6.67,0,0,0,1.58.79,14.33,14.33,0,0,0,1.62,1c3.21,1.37,6.44,2.71,9.66,4.06.35.32.7.65,1.07.94C508.33,403.22,509,403.71,509.69,404.22Z" />
        <path class="color-shadow-dark" d="M47.76,242.65l1.67-3.34Z" />
        <path class="color-shadow-dark" d="M46.34,245.54l1.23-2.49Z" />
        <path class="color-shadow-dark" d="M38.11,251l1.14-1.2Z" />
        <path class="color-shadow-dark" d="M34.66,244.24,34,246Z" />
        <path class="color-shadow-dark" d="M34.05,253.24l1.25-.45Z" />
        <path class="color-shadow-dark" d="M31.09,252.23l.53,1Z" />
        <path class="color-shadow-dark" d="M44.11,248.82l.69-.69Z" />
        <path class="color-shadow-dark" d="M32.85,253.44l.8-.1Z" />
        <path class="color-shadow-dark" d="M39.28,249.74l.83-.12Z" />
        <path class="color-shadow-dark" d="M37.07,237.28l-.21.61Z" />
        <path class="color-shadow-dark" d="M35.14,243l-.33.56Z" />
        <path class="color-shadow-dark" d="M32,249.75l-.25.6Z" />
        <path class="color-shadow-dark" d="M42,249.85l.55-.12Z" />
        <path class="color-base" d="M500.86,443.28l.14.5Z" />
        <path class="color-shadow-dark" d="M43.12,249.49l.55-.34Z" />
        <path class="color-shadow-dark" d="M45.13,247.69l.36-.54Z" />
        <path class="color-shadow-dark" d="M36.65,252.15l.51-.39Z" />
        <path class="outline" d="M481.62,265.71c-.08.14-.16.29-.25.43Z" />
        <path class="color-base"
            d="M218.39,197.63l2.13-.22c.09,1.26.34,1.45,1.54,1.22a8,8,0,0,1,1.18-.16l10.64-.24c3.39-.08,6.78-.14,10.16-.25,4.74-.14,9.48-.33,14.21-.47,3.43-.1,6.86-.17,10.29-.24a15,15,0,0,0,2.22,0c1.95-.33,3.88-.79,5.82-1.19,1.28-.26,1.57-.07,1.78,1.19.17,1,.31,2,.47,3.06-.15.23-.43.46-.45.7-.34,4.24-.69,8.48-1,12.72-.29,4.52-.5,9-.73,13.58-.17,3.18-.32,6.36-.5,9.54-.06,1.23-.15,2.46-.26,3.69-.3,3.52-.62,7-.93,10.56-.18,2.1-.31,4.2-.52,6.29-.36,3.55-.78,7.1-1.15,10.65-.35,3.24-.63,6.48-1,9.71-.51,4.5-1.08,9-1.64,13.47-.23,1.84-.5,3.67-.77,5.64-1.8-.54-3.42-1.07-5.06-1.5-5.43-1.43-10.86-2.81-16.28-4.23-5.27-1.37-10.58-2.65-15.8-4.21-6.25-1.87-12.49-3.8-18.6-6.1-3.82-1.44-7.35-3.66-11.06-5.43-4.82-2.31-9.71-4.47-14.51-6.81a155.11,155.11,0,0,0-19.25-7.81,18.93,18.93,0,0,1-7.86-4.65A79.18,79.18,0,0,1,151.16,242a32.63,32.63,0,0,0-11.08-11c-1.79-1.09-3.21-.71-4.05,1.45l-4.22-.74,4.25,3.87a4.41,4.41,0,0,1-1.31,0,54,54,0,0,1-9.25-3.75c-2.67-1.46-5.58-2.48-8.38-3.69l-3.91-1.66c-.1-.39-.2-.79-.31-1.19a3.71,3.71,0,0,0,.32-1.18c-.12-2.81-.3-5.62-.46-8.44a21.56,21.56,0,0,0,4.18-.06c4.47-.89,8.94-1.84,13.35-3,6.16-1.57,12.25-3.37,18.4-5s12.41-3,18.61-4.56a4.85,4.85,0,0,0,1.15-.64c4.66-.08,9.32-.13,14-.27,2.22-.07,4.44-.26,6.65-.52,4.13-.49,8.24-1.1,12.37-1.6,4.37-.53,8.75-.94,13.11-1.5A28.9,28.9,0,0,0,218.39,197.63Zm-42.55,9.31c-.34-1.09-2.59-2.62-3.62-2.46a1.38,1.38,0,0,0-1.11,1.83,5,5,0,0,0,.93,1.37,29.51,29.51,0,0,1,5.84,8.25c1.15,2.63,2.17,5.31,3.28,8q2.42,5.73,4.91,11.42a5,5,0,0,0,.82,1.08c.34,1.88.74,3.75,1,5.64a47.85,47.85,0,0,1,.45,5.59c0,1.84-.15,3.68-.25,5.7.16-.27.26-.36.26-.46.11-3.49.61-7,.22-10.44a133.79,133.79,0,0,0-2.94-17C183.9,218.52,181.25,212,175.84,206.94Z" />
        <path class="color-shadow-dark"
            d="M278.83,200.38c-.16-1-.3-2-.47-3.06-.21-1.26-.5-1.45-1.78-1.19-1.94.4-3.87.86-5.82,1.19a15,15,0,0,1-2.22,0c-3.43.07-6.86.14-10.29.24-4.73.14-9.47.33-14.21.47-3.38.11-6.77.17-10.16.25l-10.64.24a8,8,0,0,0-1.18.16c-1.2.23-1.45,0-1.54-1.22l8.66-.91c4.4-.48,8.79-1,13.18-1.47,3.06-.32,6.11-.58,9.17-.88l10.46-1,6.91-.66,10.51-.89c.37,5,.76,10,1.08,15,.15,2.43.2,4.86.23,7.3.07,7.2.06,14.39.15,21.59.1,7.67.21,15.33.42,23,.18,6.46.48,12.92.76,19.38.19,4.58.48,9.16.64,13.74.14,4.39.18,8.78.24,13.18,0,2.35,0,4.69,0,7.33-2-.22-3.74-.33-5.44-.59-7.79-1.18-15.08-4.1-22.53-6.45-10-3.14-19.92-6.43-29.56-10.54-4.88-2.08-10-3.71-14.87-5.72a71.23,71.23,0,0,1-19.21-11.62,27.22,27.22,0,0,0-14.16-6.74c-3.78-.51-7.24-2.18-10.78-3.52A66.16,66.16,0,0,1,152,259a12.2,12.2,0,0,1-4.89-6.76c-.48-1.68-1.28-3.26-1.91-4.9-.29-.78-.55-1.58-.77-2.38a28.39,28.39,0,0,0-4.39-9.64c-.93-1.21-2-1.61-3.11-1.15,2.67,1.14,3.11,3.58,3.72,5.93.24.93.5,1.85.76,2.81-1.77.54-3.45,1.16-5.19,1.53a2.19,2.19,0,0,1-1.78-.67,16.44,16.44,0,0,0-6.58-4.43c-2.34-1-4.57-2.26-6.88-3.34a4.88,4.88,0,0,0-1.85-.4,4.19,4.19,0,0,1-4.26-3.63c-.12-.54-.34-1.06-.51-1.59.15,0,.41.05.43.12.27,1.18,1.28,1.27,2.19,1.52a5.75,5.75,0,0,1,1.22.45c1.83,1,3.59,2.1,5.48,2.93,2.88,1.27,6,2.1,8.72,3.56,2.26,1.21,4.28.92,6.83.25l-3.16-3.59-4.25-3.87,4.22.74.91.28c2.84.82,5.08,2.34,6,5.28a34.78,34.78,0,0,0,5.17,10.42,37.63,37.63,0,0,0,9.69,9.07c2.06,1.35,4.33,2.38,6.37,3.76a54.41,54.41,0,0,0,12.94,6.36c2.64.89,5.4,1.4,8,2.32a22.94,22.94,0,0,1,5.76,2.74c4.28,3.05,8.42,6.25,13.27,8.43,5.22,2.35,10.21,5.23,15.46,7.49,6.33,2.73,12.78,5.17,19.26,7.5,4.68,1.69,9.47,3,14.22,4.48a211.85,211.85,0,0,0,24.2,5.92c.82.15,1-.13,1-.83.08-2.11.17-4.21.24-6.32.09-2.39.13-4.78.26-7.17.12-2.14.32-4.28.51-6.42.29-3.32.76-6.63.87-10,.11-3.58-.11-7.17-.2-10.76-.07-2.95-.16-5.9-.23-8.85-.17-6.62-.43-13.23-.45-19.85,0-5.14.36-10.28.42-15.42,0-4-.12-8.06-.22-12.08-.05-1.71-.12-3.43-.26-5.13C279.21,202.65,279,201.51,278.83,200.38Z" />
        <path class="color-shadow-dark"
            d="M218.39,197.63a28.9,28.9,0,0,1-3.83,1c-4.36.56-8.74,1-13.11,1.5-4.13.5-8.24,1.11-12.37,1.6-2.21.26-4.43.45-6.65.52-4.66.14-9.32.19-14,.27-.75.08-1.5.14-2.24.24-3.34.43-6.69.8-10,1.33-4.22.68-8.42,1.51-12.63,2.26-4,.7-8,1.36-11.93,2.09-2.53.46-5,1.22-7.58,1.46a53.2,53.2,0,0,0-11.1,2.61c-.27.09-.65.46-.64.67.08.85.28,1.69.44,2.53.16,2.82.34,5.63.46,8.44a3.71,3.71,0,0,1-.32,1.18c-.51-3.17-1.08-6.33-1.53-9.51-.24-1.72-.29-3.46-.4-4.94,2.54-1.09,4.78-2.13,7.08-3s4.68-.65,7-.9a81.13,81.13,0,0,0,9.22-1.28c5-1.11,9.88-2.58,14.86-3.75,4-.94,8.11-1.69,12.17-2.47a20.74,20.74,0,0,1,3.33-.32c3.59-.11,7.19-.15,10.78-.25,5.59-.16,11.17-.35,16.76-.54l12-.42,13.89-.41A2.17,2.17,0,0,1,218.39,197.63Z" />
        <path class="transparent"
            d="M96.64,236.27c-.43.78-.85,1.45-1.19,2.15A6.7,6.7,0,0,1,91,242.11a67.26,67.26,0,0,1-7.44,1.83,41.93,41.93,0,0,0-11.15,3.77c-2.5,1.15-5,2.2-7.53,3.4-2.17,1.06-4.42.91-6.67.62-1.24-.15-1.37-.61-.58-1.55a8.75,8.75,0,0,1,5-2.78,8.3,8.3,0,0,1,2.43.31c-3.08-2.43-5.57-.29-8.52.72a9.89,9.89,0,0,1,1-1.1c1.45-1.12,2.85-2.29,4.39-3.28a38,38,0,0,1,4.16-2.16c3.37-1.63,6.68-3.43,10.17-4.79a27.41,27.41,0,0,1,7-1.44,44.73,44.73,0,0,1,13.11.51A2.64,2.64,0,0,1,96.64,236.27Z" />
        <path class="transparent"
            d="M58,231.54c-2.54.85-4.83,1.53-7.07,2.37a12.39,12.39,0,0,0-7.24,6.87c-1.77,3.94-4,7.69-7.75,10.15a17,17,0,0,1-3.14,1.24l-.41-.39L34.66,246h.26l.33,1.35h.37c0-1.15.05-2.31.08-3.46a2,2,0,0,1,.07-.69c1.66-4.29,3.3-8.57,5-12.83a2.66,2.66,0,0,1,1.09-1.21A51.37,51.37,0,0,1,54,224.46a.91.91,0,0,1,.83.33C55.94,227,57,229.32,58,231.54Z" />
        <path class="color-shadow-dark"
            d="M63.21,241.08c-1.39-7.25-4.7-13.63-8.45-20.15,2.53-.65,4.79-1.24,7.05-1.81,1.65-.41,3.34-.7,5-1.24A41.47,41.47,0,0,1,77.05,216c2.61-.2,5.21-.55,7.81-.83,1.86-.19,3.73-.29,5.58-.57,3-.45,5.94-1.05,8.92-1.53,3.35-.54,6.72-1,10.07-1.52,1.08,7.28,1,14.8,3.13,22.25a23.36,23.36,0,0,1-3,0A18.63,18.63,0,0,0,101,235a4.47,4.47,0,0,1-3.12-.08,23.77,23.77,0,0,0-6.31-1.12c-4.34-.14-8.72-.35-13,.73a45.75,45.75,0,0,0-6,2.18c-1.5.62-2.92,1.41-4.39,2.11S65.05,240.23,63.21,241.08Zm-5.27-18.66c.4.76.65,1.25.92,1.73a37.72,37.72,0,0,1,4.82,11.75,20,20,0,0,0,.6,2.43c.09.26.51.66.68.62a6.85,6.85,0,0,0,2.45-.84c3.55-2.63,7.19-5,11.75-5.44,3.12-.29,6.24-.77,9.36-.78a19.66,19.66,0,0,1,8.57,1.78,5.16,5.16,0,0,0,4.38,0,10.3,10.3,0,0,1,5.65-1c1.93.27,3-.66,2.73-2.92-.34-3.23-1-6.43-1.32-9.66-.21-2-.07-4-.2-5.93a1.52,1.52,0,0,0-.82-1,2.39,2.39,0,0,0-1.28.09c-2.57.5-5.11,1.15-7.7,1.5-3.89.52-7.83.7-11.71,1.28-4.35.65-8.66,1.57-13,2.41-2.57.5-5.14,1-7.68,1.65-2,.51-4,1.2-6,1.8C59.46,222.08,58.78,222.22,57.94,222.42Z" />
        <path class="color-shadow"
            d="M136.06,235.66l3.16,3.59c-2.55.67-4.57,1-6.83-.25-2.76-1.46-5.84-2.29-8.72-3.56-1.89-.83-3.65-1.95-5.48-2.93a5.75,5.75,0,0,0-1.22-.45c-.91-.25-1.92-.34-2.19-1.52,0-.07-.28-.08-.43-.12l-1.14-3.87,3.91,1.66c2.8,1.21,5.71,2.23,8.38,3.69a54,54,0,0,0,9.25,3.75A4.41,4.41,0,0,0,136.06,235.66Z" />
        <path class="transparent"
            d="M56.9,233.34c-.8.59-1.34,1-1.92,1.42-1.9,1.28-3.88,2.46-5.7,3.84a8.06,8.06,0,0,0-1.87,2.46c-.93,1.62-1.62,3.4-2.65,4.95a9.22,9.22,0,0,1-2.55,2.2c-.35.24-.94.13-1.68.21,1.12-1.86,2.11-3.43,3-5a19,19,0,0,0,1.42-3,7.41,7.41,0,0,1,2.69-3.57A17.21,17.21,0,0,1,56.9,233.34Z" />
        <path class="transparent"
            d="M49.54,244.6a6.22,6.22,0,0,1,.56-1.16c1.85-2.4,3.65-4.83,5.61-7.13a22.53,22.53,0,0,1,3.09-2.54c.53,1.25,1,2.18,1.32,3.15a1.44,1.44,0,0,1-.18,1.2,22.21,22.21,0,0,1-10,6.75Z" />
        <path class="color-base"
            d="M537.28,489.59c0,.31.09.62.13.93-.18.45-.36.9-.54,1.37l-8.62.4c0-.24,0-.44,0-.63.07-2.93.17-5.87.19-8.8a4.59,4.59,0,0,0-.46-1.43l-.54-.72-.89.71a1.81,1.81,0,0,1-.22-.41c-.93-2.82-1.7-5.7-2.82-8.45s-2.85-5.54-4-8.42c-1.46-3.72-2.61-7.56-3.94-11.49l12.9-3.83a39.31,39.31,0,0,1,1.16,3.89c.43,2.22.6,4.49,1.08,6.69.89,4.16,2,8.26,2.89,12.41,1.08,5.08,2,10.19,3,15.28C536.78,487.94,537.05,488.76,537.28,489.59Z" />
        <path class="color-shadow"
            d="M516.68,444.23,510,445.67h-.12c-3.38.41-3.29.38-4.38-2.75-.9-2.58-2-5.07-3.07-7.6a2.36,2.36,0,0,0-.55-.77,10.37,10.37,0,0,1-3.11-8,76.7,76.7,0,0,0-1.83-16.2c-.39-2-.56-4.08-.84-6.12l1.66,0a2,2,0,0,0,.66.36c1.4.2,2.82.36,4.23.55a43.94,43.94,0,0,1,10.2,3.13c1.46.58,3,1.05,4.46,1.56l.59.32a7.15,7.15,0,0,0-3.54-3.8c-1.51-.77-3.08-1.44-4.62-2.16-.68-.51-1.36-1-2-1.52-.37-.29-.72-.62-1.07-.94a31,31,0,0,1,15.86,8.3,7.45,7.45,0,0,1,1.5,2c.53,1.08-.05,2.91-.9,3.1a5.4,5.4,0,0,1-2.12.24c-3-.62-6-1.32-8.92-2.08-3.57-.92-7.1-2-10.68-2.89a24.43,24.43,0,0,0-3.51-.34c.22,1.14.35,2,.56,2.82q3,11.91,6.08,23.81a4,4,0,0,0,3.31,2.44,13.45,13.45,0,0,1,3-.17,6.45,6.45,0,0,1,4.61,2.83C515.85,442.56,516.24,443.42,516.68,444.23Z" />
        <path class="transparent"
            d="M514.46,507.48c-1-2.42-2.14-2.88-3.49-1.54,0,.06.06.17.1.17,2.06.08,2.85,1.06,2.21,3.13a11.84,11.84,0,0,1-1.8,3.21c-.54.74-1.22.57-1.44-.37a6,6,0,0,1-.13-2.56c1.37-5.92,2.89-11.81,4.23-17.73.93-4.06,2.32-8,2.17-12.3-.09-2.43-.11-4.87-.11-7.3,0-.9.17-1.8.29-3a4.38,4.38,0,0,1,.49.64c2.42,5.91,4.86,11.81,7.23,17.74a2.78,2.78,0,0,1-.09,1.68,28,28,0,0,0-1.19,3.48,10.81,10.81,0,0,1-1.84,4.31c-2.1,3.16-4.06,6.41-6.08,9.62Z" />
        <path class="transparent"
            d="M516,526.68c.41-.64.81-1.28,1.21-1.92a4.14,4.14,0,0,0-2.5,3.82,3.52,3.52,0,0,1-.29,1c-.33-.23-.93-.43-1-.69a11.88,11.88,0,0,1,0-3.26c.56-3.26,2.75-5.61,4.78-8,1-1.22,2.32-2.23,3.23-3.53a15.87,15.87,0,0,0,1.55-3.57c.94-2.46,1.89-4.92,2.72-7.42a5.41,5.41,0,0,0,.14-2.59c-.22-1.12,0-1.8,1.12-2.17,2.92-.94,5.82-1.92,8.7-2.88a2.85,2.85,0,0,1,.41,2.94c-2.88,6-5.75,12-8.66,18a5.14,5.14,0,0,1-1.14,1.37q-4.75,4.29-9.52,8.55c-.18.16-.39.3-.58.46Z" />
        <path class="color-shadow-dark"
            d="M526.08,483.37c-.13.68-.26,1.37-.46,2.39-3.77-6.6-6-13.46-9.16-20.24-.64,2-1.24,3.78-1.73,5.29-.67-3.89-1.32-8.11-2.14-12.29a53.87,53.87,0,0,0-1.71-6.21c-.45-1.39-.4-1.61.83-2.4,3.21-2.05,6.83-2.75,10.51-3.26,2.71-.38,5.43-.64,8.15-1,1.09-.13,1.4.45,1.45,1.39.17,2.94.22,5.89.57,8.81.4,3.26,1.09,6.5,1.63,9.74.11.63.14,1.26.21,1.89-.17-.18-.45-.33-.5-.53q-1-4.85-1.93-9.69c-.58-3-1.14-6-1.71-9-.22-1.12-.85-1.36-1.92-1.07-3.79,1-7.61,1.95-11.4,3a12.89,12.89,0,0,0-2.16.95c-.86.41-.93,1-.62,1.9.47,1.26.78,2.59,1.21,3.87.92,2.75,1.77,5.52,2.84,8.21,1.46,3.67,3.06,7.28,4.65,10.89C523.77,478.48,524.94,480.91,526.08,483.37Z" />
        <path class="color-shadow"
            d="M526.08,483.37c-1.14-2.46-2.31-4.89-3.39-7.36-1.59-3.61-3.19-7.22-4.65-10.89-1.07-2.69-1.92-5.46-2.84-8.21-.43-1.28-.74-2.61-1.21-3.87-.31-.86-.24-1.49.62-1.9a12.89,12.89,0,0,1,2.16-.95c3.79-1,7.61-1.95,11.4-3,1.07-.29,1.7-.05,1.92,1.07.57,3,1.13,6,1.71,9q.94,4.85,1.93,9.69c0,.2.33.35.5.53.87,5.23,1.78,10.46,2.56,15.7.32,2.11.33,4.26.49,6.39-.23-.83-.5-1.65-.67-2.5-1-5.09-2-10.2-3-15.28-.88-4.15-2-8.25-2.89-12.41-.48-2.2-.65-4.47-1.08-6.69a39.31,39.31,0,0,0-1.16-3.89l-12.9,3.83c1.33,3.93,2.48,7.77,3.94,11.49,1.14,2.88,2.82,5.55,4,8.42s1.89,5.63,2.82,8.45a1.81,1.81,0,0,0,.22.41c0,.4,0,.8,0,1.2S526.22,483.12,526.08,483.37Z" />
        <path class="transparent"
            d="M523.44,497.44a28.25,28.25,0,0,1,1.52,5.12c.12,1.06-.63,2.22-1,3.33a26.4,26.4,0,0,0-1.59,4.4c-.49,2.89-2.69,4.49-4.32,6.56-2.57,3.27-6.16,5.11-9.56,7.23a8.21,8.21,0,0,1-2,.61c-.24-1-.81-2-.66-2.91a5.56,5.56,0,0,1,3-3.82,66.86,66.86,0,0,1,7.17-3.5,5.34,5.34,0,0,0,3.12-2.76,46.46,46.46,0,0,0,3.52-10.62c.23-1.2.31-2.43.45-3.65Z" />
        <path class="transparent"
            d="M508.78,510c.06,1.42.17,2.74,1.35,3.72.81.67,1.59.74,2.17-.07.77-1.06,1.34-2.26,2-3.37.24-.38.57-.85.95-1a3.33,3.33,0,0,0,1.94-2c1-1.83,2.09-3.59,3-5.45a37.84,37.84,0,0,0,1.48-4.11,5.58,5.58,0,0,1,.34-.94,19.44,19.44,0,0,1-1.25,8.75c-.9,2.21-1.85,4.41-2.91,6.55a3.13,3.13,0,0,1-1.55,1.11,24.33,24.33,0,0,0-2.37.77,5,5,0,0,1-4.75.17c-1.33-.55-2.71-1-4-1.53-1.07-.46-1.12-1.19-.19-2C506.11,509.85,507.43,510,508.78,510Z" />
        <path class="color-shadow"
            d="M528,481.43a4.59,4.59,0,0,1,.46,1.43c0,2.93-.12,5.87-.19,8.8,0,.19,0,.39,0,.63l8.62-.4c.18-.47.36-.92.54-1.37.05.82.16,1.64.13,2.45a1,1,0,0,1-.63.64c-.72.17-1.48.22-2.22.32a6,6,0,0,0-1.23-.25c-1.76,0-3.52,0-5.27,0-1.39,0-1.75-.42-1.67-1.58q.15-2,.24-4.05c0-.6,0-1.2,0-1.8.06-.31.13-.63.19-.94s0-.49.08-.73.05-.48.07-.72.27-.66.39-1S527.79,481.9,528,481.43Z" />
        <path class="color-shadow-dark"
            d="M526.75,486.22c0,.6,0,1.2,0,1.8q-.09,2-.24,4.05c-.08,1.16.28,1.55,1.67,1.58,1.75.05,3.51,0,5.27,0a6,6,0,0,1,1.23.25c-2.09.38-4.19.73-6.27,1.17a10.85,10.85,0,0,0-2.23.81c-.71.34-1.1.06-1.21-.59a6.15,6.15,0,0,1-.16-2.4C525.37,490.67,526.1,488.45,526.75,486.22Z" />
        <path class="color-shadow-dark"
            d="M517.26,409.86c-1.49-.51-3-1-4.46-1.56a43.94,43.94,0,0,0-10.2-3.13c-1.41-.19-2.83-.35-4.23-.55a2,2,0,0,1-.66-.36c2.26.19,4.54.22,6.76.6,3.13.55,6.23,1.3,9.31,2.11A5.14,5.14,0,0,1,517.26,409.86Z" />
        <path class="transparent"
            d="M515.33,508.23c1.39-2.55,2.77-5.11,4.16-7.67l.41.23c-1.38,2.55-2.75,5.11-4.13,7.67Z" />
        <path class="color-shadow-dark"
            d="M528,481.43c-.16.47-.31.94-.47,1.4s-.26.67-.39,1l-.58-1.21c0-.4,0-.8,0-1.2l.89-.71Z" />
        <path class="transparent"
            d="M509.48,508.71l-3.13.32a2,2,0,0,1,2.26-1.3C508.87,507.76,509.09,508.25,509.48,508.71Z" />
        <path class="color-shadow-dark" d="M527,484.55c0,.24,0,.48-.08.73C527,485,527,484.79,527,484.55Z" />
        <path class="color-base"
            d="M516.68,444.23c-.44-.81-.83-1.67-1.34-2.42a6.45,6.45,0,0,0-4.61-2.83,13.45,13.45,0,0,0-3,.17,4,4,0,0,1-3.31-2.44q-3-11.91-6.08-23.81c-.21-.83-.34-1.68-.56-2.82a24.43,24.43,0,0,1,3.51.34c3.58.91,7.11,2,10.68,2.89,3,.76,5.94,1.46,8.92,2.08a5.4,5.4,0,0,0,2.12-.24c.85-.19,1.43-2,.9-3.1a7.45,7.45,0,0,0-1.5-2,31,31,0,0,0-15.86-8.3c-3.22-1.35-6.45-2.69-9.66-4.06a14.33,14.33,0,0,1-1.62-1,29.49,29.49,0,0,0,.71-3.46c.27-3-1.07-5.57-1.87-8.31-1.38-4.73-2.83-9.46-3.8-14.28s-1.43-9.73-2-14.62-.88-9.64-1.47-14.45c-.42-3.42-1.09-6.81-1.69-10.2-.68-3.83-1.46-7.63-2.1-11.47-.39-2.34-.6-4.72-.9-7.08-.42-3.34-1-6.68-1.23-10a65.36,65.36,0,0,1,.2-7.53c.12-2.38.26-4.76.51-7.13.41-3.95,1-7.88,1.39-11.82a8.24,8.24,0,0,1,4.78-7c1.69-.82,3.41-1.57,5.16-2.22q7.33-2.73,14.71-5.3a1.2,1.2,0,0,1,1.08.46,17.51,17.51,0,0,1,1.36,3.3c1.07,3.87,2,7.77,3.05,11.65,1.28,4.72,2.5,9.47,3.95,14.14,2.26,7.3,4.68,14.55,7.07,21.81a96.64,96.64,0,0,1,4.4,20c.53,4.93.7,9.91,1,14.87l.21,5c-.15.33-.3.66-.44,1,.06.79.13,1.58.2,2.37-.08.33-.15.65-.23,1-.25,2.28-.42,4.58-.76,6.86q-1,6.59-2.12,13.16c-.56,3.16-1.32,6.29-1.82,9.47a16.62,16.62,0,0,0,.16,3.91c.21,2.25.43,4.51.73,6.75.38,2.87,2.23,5.07,3.59,7.49.63,1.1,1.35,2.16,2,3.26a3,3,0,0,1,.17.92c.08,2,.15,4,.22,6a27.43,27.43,0,0,0-9.42,3.72c-1.35.89-2.8,1.64-4.18,2.5a4.46,4.46,0,0,0-.81.95c-.88.53-1.76,1.06-2.65,1.58-.2.39-.41.78-.62,1.17.43.21.88.62,1.3.6,2.1-.13,4.19-.37,6.29-.57l8.21-.76c-.22,1.13-.39,1.92-.52,2.72a38.82,38.82,0,0,0,.23,12c.12.79,0,1.33-.95,1.61C524.51,441.82,520.6,443,516.68,444.23Z" />
        <path class="color-shadow"
            d="M529.66,348c-.33-5-.5-9.94-1-14.87a96.64,96.64,0,0,0-4.4-20c-2.39-7.26-4.81-14.51-7.07-21.81-1.45-4.67-2.67-9.42-3.95-14.14-1-3.88-2-7.78-3.05-11.65a17.51,17.51,0,0,0-1.36-3.3,1.2,1.2,0,0,0-1.08-.46q-7.38,2.58-14.71,5.3c-1.75.65-3.47,1.4-5.16,2.22a8.24,8.24,0,0,0-4.78,7c-.43,3.94-1,7.87-1.39,11.82-.25,2.37-.39,4.75-.51,7.13a65.36,65.36,0,0,0-.2,7.53c.23,3.35.81,6.69,1.23,10,.3,2.36.51,4.74.9,7.08.64,3.84,1.42,7.64,2.1,11.47.6,3.39,1.27,6.78,1.69,10.2.59,4.81.91,9.64,1.47,14.45s1,9.8,2,14.62,2.42,9.55,3.8,14.28c.8,2.74,2.14,5.35,1.87,8.31a29.49,29.49,0,0,1-.71,3.46,6.67,6.67,0,0,1-1.58-.79,59.47,59.47,0,0,1-5.58-5.41,23.87,23.87,0,0,1-2.62-4.8,10.12,10.12,0,0,1-.59-7.2,4.86,4.86,0,0,0,.06-1.08c0-3,.08-6,0-9-.2-6.37-.46-12.74-.72-19.1-.12-2.94-.27-5.89-.48-8.82-.26-3.56-.6-7.12-.93-10.68-.31-3.31-.55-6.65-1-9.94s-1.05-6.35-1.75-9.48c-.76-3.37-1.82-6.67-2.55-10.05a14.32,14.32,0,0,1,.05-4.13c.26-3,.62-6.07.92-9.11.32-3.2.65-6.39.93-9.59.14-1.55.09-3.11.31-4.64a5,5,0,0,1,1-2.31,16.35,16.35,0,0,1,5.59-4.21c3.37-1.74,6.6-3.78,10.07-5.24,3.25-1.36,6.75-2.12,10.13-3.15,1.41-.43,2.81-.88,4.36-1.37.52,2,.92,4.08,1.6,6.05,1.56,4.51,3.17,9,4.91,13.46,2.22,5.67,4.72,11.24,6.82,17a48.31,48.31,0,0,1,1.82,8.25c.56,3.16,1,6.34,1.42,9.52s.64,6.32,1,9.47c.29,2.48.7,4.95,1,7.42.23,1.69.52,3.38.61,5.08.16,3.07.22,6.14.25,9.21,0,1.74-.13,3.5-.25,5.24C530.09,347.53,529.82,347.76,529.66,348Z" />
        <path class="outline"
            d="M514.5,423.94c.89-.52,1.77-1.05,2.65-1.58,2.17-.79,4.35-1.53,6.5-2.36,2.68-1,5.33-2.15,8.25-2.27a3.32,3.32,0,0,1,1.6.3,1.18,1.18,0,0,1,.47,1,1.13,1.13,0,0,1-.94.62c-3.89-1-7.24.85-10.74,1.92C519.7,422.41,517.1,423.17,514.5,423.94Z" />
        <path class="color-shadow" d="M531.56,415.19c-.07-2-.14-4-.22-6,.24.13.55.21.7.41a13,13,0,0,1,2,5.2Z" />
        <path class="color-shadow" d="M529.43,354c.14-.33.29-.66.44-1C529.72,353.34,529.57,353.67,529.43,354Z" />
        <path class="color-shadow" d="M529.4,357.35c.08-.33.15-.65.23-1C529.55,356.7,529.48,357,529.4,357.35Z" />
        <path class="color-shadow"
            d="M278.83,200.38c.16,1.13.38,2.27.47,3.41.14,1.7.21,3.42.26,5.13.1,4,.26,8.05.22,12.08-.06,5.14-.43,10.28-.42,15.42,0,6.62.28,13.23.45,19.85.07,3,.16,5.9.23,8.85.09,3.59.31,7.18.2,10.76-.11,3.33-.58,6.64-.87,10-.19,2.14-.39,4.28-.51,6.42-.13,2.39-.17,4.78-.26,7.17-.07,2.11-.16,4.21-.24,6.32,0,.7-.21,1-1,.83a211.85,211.85,0,0,1-24.2-5.92c-4.75-1.45-9.54-2.79-14.22-4.48-6.48-2.33-12.93-4.77-19.26-7.5-5.25-2.26-10.24-5.14-15.46-7.49-4.85-2.18-9-5.38-13.27-8.43a22.94,22.94,0,0,0-5.76-2.74c-2.63-.92-5.39-1.43-8-2.32a54.41,54.41,0,0,1-12.94-6.36c-2-1.38-4.31-2.41-6.37-3.76a37.63,37.63,0,0,1-9.69-9.07A34.78,34.78,0,0,1,143,238.09c-.94-2.94-3.18-4.46-6-5.28l-.91-.28c.84-2.16,2.26-2.54,4.05-1.45a32.63,32.63,0,0,1,11.08,11,79.18,79.18,0,0,0,10.33,14.15,18.93,18.93,0,0,0,7.86,4.65,155.11,155.11,0,0,1,19.25,7.81c4.8,2.34,9.69,4.5,14.51,6.81,3.71,1.77,7.24,4,11.06,5.43,6.11,2.3,12.35,4.23,18.6,6.1,5.22,1.56,10.53,2.84,15.8,4.21,5.42,1.42,10.85,2.8,16.28,4.23,1.64.43,3.26,1,5.06,1.5.27-2,.54-3.8.77-5.64.56-4.49,1.13-9,1.64-13.47.38-3.23.66-6.47,1-9.71.37-3.55.79-7.1,1.15-10.65.21-2.09.34-4.19.52-6.29.31-3.52.63-7,.93-10.56.11-1.23.2-2.46.26-3.69.18-3.18.33-6.36.5-9.54.23-4.53.44-9.06.73-13.58.27-4.24.62-8.48,1-12.72C278.4,200.84,278.68,200.61,278.83,200.38Z" />
        <path class="color-shadow"
            d="M112.76,215.74c-.16-.84-.36-1.68-.44-2.53,0-.21.37-.58.64-.67a53.2,53.2,0,0,1,11.1-2.61c2.55-.24,5.05-1,7.58-1.46,4-.73,8-1.39,11.93-2.09,4.21-.75,8.41-1.58,12.63-2.26,3.32-.53,6.67-.9,10-1.33.74-.1,1.49-.16,2.24-.24a4.85,4.85,0,0,1-1.15.64c-6.2,1.53-12.43,3-18.61,4.56s-12.24,3.39-18.4,5c-4.41,1.13-8.88,2.08-13.35,3A21.56,21.56,0,0,1,112.76,215.74Z" />
        <path class="color-shadow-dark"
            d="M186.89,236.39a5,5,0,0,1-.82-1.08q-2.49-5.7-4.91-11.42c-1.11-2.65-2.13-5.33-3.28-8a29.51,29.51,0,0,0-5.84-8.25,5,5,0,0,1-.93-1.37,1.38,1.38,0,0,1,1.11-1.83c1-.16,3.28,1.37,3.62,2.46-.94.27-.33.7-.08,1,.76,1,1.66,1.95,2.32,3a63,63,0,0,1,7.37,17.93C186.08,231.38,186.42,233.9,186.89,236.39Z" />
        <path class="outline"
            d="M186.89,236.39c-.47-2.49-.81-5-1.44-7.46A63,63,0,0,0,178.08,211c-.66-1.08-1.56-2-2.32-3-.25-.33-.86-.76.08-1,5.41,5,8.06,11.58,9.77,18.47a133.79,133.79,0,0,1,2.94,17c.39,3.43-.11,7-.22,10.44,0,.1-.1.19-.26.46.1-2,.28-3.86.25-5.7a47.85,47.85,0,0,0-.45-5.59C187.63,240.14,187.23,238.27,186.89,236.39Z" />
        <path class="color-shadow"
            d="M57.94,222.42c.84-.2,1.52-.34,2.19-.53,2-.6,4-1.29,6-1.8,2.54-.63,5.11-1.15,7.68-1.65,4.31-.84,8.62-1.76,13-2.41,3.88-.58,7.82-.76,11.71-1.28,2.59-.35,5.13-1,7.7-1.5a2.39,2.39,0,0,1,1.28-.09,1.52,1.52,0,0,1,.82,1c.13,2,0,4,.2,5.93.35,3.23,1,6.43,1.32,9.66.23,2.26-.8,3.19-2.73,2.92a10.3,10.3,0,0,0-5.65,1,5.16,5.16,0,0,1-4.38,0,19.66,19.66,0,0,0-8.57-1.78c-3.12,0-6.24.49-9.36.78-4.56.43-8.2,2.81-11.75,5.44A6.85,6.85,0,0,1,65,239c-.17,0-.59-.36-.68-.62a20,20,0,0,1-.6-2.43,37.72,37.72,0,0,0-4.82-11.75C58.59,223.67,58.34,223.18,57.94,222.42Zm48.68-7.14a13.13,13.13,0,0,1-1.73.44c-5.5.75-11,1.44-16.51,2.19-4,.55-8.06.93-12,1.82-5.26,1.19-10.42,2.81-15.84,4.3,2.88,4.13,4.92,8.42,4.44,13.58,1.89-1.24,3.51-2.38,5.21-3.4a19.28,19.28,0,0,1,10.12-3.14,50,50,0,0,0,7-.49,17.4,17.4,0,0,1,9.19,1.26c1.35.56,2.71,1.09,4.24.3a10.09,10.09,0,0,1,3.08-.87c1.24-.19,2.51-.18,3.64-.25C107.2,225.75,106.92,220.58,106.62,215.28Z" />
        <path class="color-base"
            d="M106.62,215.28c.3,5.3.58,10.47.87,15.74-1.13.07-2.4.06-3.64.25a10.09,10.09,0,0,0-3.08.87c-1.53.79-2.89.26-4.24-.3a17.4,17.4,0,0,0-9.19-1.26,50,50,0,0,1-7,.49,19.28,19.28,0,0,0-10.12,3.14c-1.7,1-3.32,2.16-5.21,3.4.48-5.16-1.56-9.45-4.44-13.58,5.42-1.49,10.58-3.11,15.84-4.3,3.93-.89,8-1.27,12-1.82,5.5-.75,11-1.44,16.51-2.19A13.13,13.13,0,0,0,106.62,215.28Z" />
    </g>
</svg>
