<svg id="manshety" xmlns="http://www.w3.org/2000/svg" viewBox="0 0 672 960">
    <g id="img_42_img" data-name="img 42 img">
        <path class="outline"
            d="M53.3,223.39l1.85-.95.53-.36.94-.58.51-.36a.59.59,0,0,1,.19-.13l1-.85,1.87-1.79.53-.36,3.5-.67,2-.17,19.08-.72c.68,0,1.35-.08,2-.11a2.87,2.87,0,0,0,2.44-1.82,2.76,2.76,0,0,1,1.32-1.16c.92-.35,1.94-.45,2.89-.73a14.55,14.55,0,0,1,8,0c1.5.4,2,.28,2.81-1a6.85,6.85,0,0,1,3.26-2.65c3.28-1.61,6.81-2.24,10.32-3,1.23-.25,2.54-.08,3.8-.22,1.77-.21,3.54-.46,5.28-.82q6.38-1.32,12.7-2.78c5.23-1.2,10.43-2.61,15.69-3.64a61.44,61.44,0,0,1,9.58-.94c5.51-.18,11-.08,16.54-.21,5-.12,10-.41,15-.58,4.3-.15,8.61-.18,12.91-.39,4.72-.22,9.44-.58,14.15-.92,3.92-.29,7.83-.63,11.74-1,2.76-.25,5.51-.61,8.27-.87s5.53-.44,8.3-.68,5.37-.52,8.05-.79l7.1-.71,9.11-.91,4.35-.41c0,.22.06.48.06.73.2,14.39.33,28.79.61,43.18q.36,18,1.05,36c.27,6.91.88,13.8,1.28,20.71.13,2.19.18,4.39.13,6.59-.12,6.39-.31,12.79-.47,19.18a.77.77,0,0,1-.36.62,14.43,14.43,0,0,0-.7-1.9,1.39,1.39,0,0,0-.88-.73c-6.9-.44-13.43-2.42-19.91-4.62-8.25-2.8-16.53-5.5-24.71-8.49-5.92-2.17-11.66-4.82-17.53-7.14-6.8-2.68-13.7-5.17-19.91-9.12-4.11-2.61-8.08-5.45-12-8.3a18.78,18.78,0,0,0-8.79-3.52,42.26,42.26,0,0,1-16.77-5.8,141.4,141.4,0,0,1-13.39-9.65,10.94,10.94,0,0,1-2.49-3.74c-1.22-2.33-2.3-4.73-3.43-7.11a1.55,1.55,0,0,0-2.24-.92l-.22.08c-4.33,1.81-6.2.64-8.45-2.44a8.39,8.39,0,0,0-2.37-2c-1.26-.78-2.64-1.34-3.9-2.11-2.33-1.41-4.45-1-6.6.43a8.36,8.36,0,0,1-3.49,1.68,15.26,15.26,0,0,1-5.63-.56c-1.92-.6-3.27-.65-4.84.88-1.78,1.72-4,2.92-6.74,2.41-.81-.15-1.68-.07-2.5-.21-1.21-.2-2.52-.32-2.82-1.94-1.72.49-3.34,1-5,1.41-2.49.58-5,.9-7.49,1.65a77.05,77.05,0,0,0-7.53,3c-2.24,1-4.42,2.06-6.62,3.11A16.38,16.38,0,0,1,57.55,253l-.54-.13-.65-.38L56,252l-.4-.63a4.15,4.15,0,0,1,1.33-4.55l.43-.34.53-.37,1.16-.82.53-.34.9-.63.68.36c-.76.58-1.53,1.15-2.28,1.75s-1.38,1.15-2.07,1.72l.19.24c4.71-2.25,6.79-2.4,7.76-.7a5.65,5.65,0,0,0-2-.26,8.67,8.67,0,0,0-5.15,2.83c-.75.89-.63,1.35.51,1.5,2.26.3,4.51.47,6.68-.57,2.56-1.22,5.18-2.31,7.76-3.5A42.52,42.52,0,0,1,83.46,244c2.86-.46,5.63-1.44,8.45-2.19,1-.25,1.22-.85,1-1.81-.34-1.8-.7-3.6-.87-5.42-.4-4-.64-8-1-12.05-.19-1.85-.57-3.68-.84-5.4-1.11,0-2,0-2.93,0-4.22.24-8.44.52-12.66.78-3.46.21-6.93.39-10.38.65-2,.15-3.5,1.46-5.45,2.5h10.3a5.2,5.2,0,0,1-2.12.67,51.45,51.45,0,0,0-11.26,2.19c-4.54,1.52-9.24,2.63-13.41,5.11a3.53,3.53,0,0,0-1.51,1.42c-1.73,4.26-3.37,8.55-5,12.83a2.32,2.32,0,0,0-.07.7c0,1.16-.06,2.33-.08,3.49h-.38l-.3-1.4-.27,0-2.33,6a8.06,8.06,0,0,0,5.85-2.81,31.45,31.45,0,0,0,5.91-9.11,9.92,9.92,0,0,1,3.49-4.33,26.92,26.92,0,0,1,10.47-3.91c2.87-.52,5.78-.9,8.57-1.7a12.45,12.45,0,0,1,6,.08,3.94,3.94,0,0,1,1,.51l0,.34c-1,.13-2.07.27-3.12.39s-1.68.85-1.49,1.66a16.67,16.67,0,0,0,1.64,3.31l6.85-6.87.27.26c0,.11,0,.25-.07.32-1.94,2.27-3.83,4.6-5.86,6.78a26.17,26.17,0,0,1-3.23,2.59l-.36-.37,1.71-1.73c.1-.29.37-.71.26-.86-1.24-1.78-1.38-1.8-3.51-1.12L65,236l-.89.09-1.09.22-1.27,1.51-.35.53L59.7,240l-.71.44a23.92,23.92,0,0,1-7.91,4.81c-.74.25-1.66.81-2.29-.11s-.22-1.74.42-2.5l4.28-5.11-.21-.34c-.6.32-1.19.65-1.8.94a5.61,5.61,0,0,0-3.25,3.32,33.18,33.18,0,0,1-2.88,5.9c-1.28,2.24-2.76,2.76-5.32,2.31a1.66,1.66,0,0,0-1.13.59,9.06,9.06,0,0,1-5.75,3.15,2.16,2.16,0,0,1-1.74-.55,2.24,2.24,0,0,1,.05-1.84c.87-2,1.88-3.86,2.81-5.81a14.54,14.54,0,0,0,.54-1.57l1.09-2.7.29-.93.15-.54.52-1.55.45-1.33.77-2,.22-.59.24-.61.72-2,.23-.61.25-.59,1.7-1.7.51-.17L45,226.72l.58-.24.6-.27.6-.23.61-.23,1.31-.47.61-.25Zm53.06,13.93a11.57,11.57,0,0,0,.22,1.77.92.92,0,0,0,.65.61.87.87,0,0,0,.62-.6,15.06,15.06,0,0,0-.14-2c-.08-1.17-.13-2.35-.27-3.52-.28-2.33-.56-4.66-.94-7-.58-3.55-1.26-7.08-1.9-10.63l-.2-1.92c-1.54.42-.66,1.27-.58,1.93.1,1.1.17,2.21.3,3.31Q105.23,228.32,106.36,237.32Zm-9,4.11-.77.94a9.68,9.68,0,0,1,1.64.2,6.09,6.09,0,0,0,6.9-1.91,4.34,4.34,0,0,0,.56-1.41l-.19-1.67c-.1-1.35-.14-2.71-.31-4.05-.64-5.22-1.33-10.43-2-15.65-.1-1-.16-2-.32-3a1.12,1.12,0,0,0-.61-.77,7.09,7.09,0,0,0-2.78-.5c-2.15.35-4.26,1-6.4,1.45-1,.23-1.15.9-1.06,1.78a1.53,1.53,0,0,0,1.45,1.49c.83.13,1.66.22,2.49.32l.58.49-.83,0-.72,0-2.73.16,1.11,4.52h1.77c-1.77.78-1.75.78-1.56,2.72.07.74,0,1.49,0,2.16l1.32.77H93.59l.66,7.52,2.44-.43,1,.4a.69.69,0,0,1-.54.14c-1.91-.06-2.7.84-2.34,2.65S95.14,241.63,97.38,241.43Zm8.38-26.65.12.63L110,215l0,.47a4.63,4.63,0,0,0-1.24.09c-1,.37-2.4.24-2.9,1.6l1.62,9.9h3.8l0,.31-3.71.58c.33,2.74.66,5.49,1,8.19h2.2l1.3.31,0,.18-3.41.24.26,2.43c-.2.55-.09,1,.54,1.05a11.52,11.52,0,0,0,3.06.33,18.43,18.43,0,0,0,8.12-3.31,2.6,2.6,0,0,1,3.11-.21,28.6,28.6,0,0,0,4.08,2.27,15.5,15.5,0,0,1,6.55,4.46,1.89,1.89,0,0,0,2.17.6c1.55-.5,3.11-1,4.8-1.5-.23-.84-.47-1.71-.7-2.58-.62-2.43-1-5-3.68-6.27a2.63,2.63,0,0,1,2.85,1.1,25.58,25.58,0,0,1,2.58,4.43c.9,2.12,1.45,4.38,2.25,6.55s1.87,4.25,2.54,6.46a11.92,11.92,0,0,0,4.87,6.47,64.7,64.7,0,0,0,14.28,7.75c3.51,1.33,6.93,3,10.67,3.5a27.74,27.74,0,0,1,14.37,6.84,70.62,70.62,0,0,0,19.11,11.55c5.18,2.11,10.45,4,15.66,6,3.8,1.47,7.52,3.17,11.36,4.51,6.22,2.16,12.52,4.12,18.78,6.17,7,2.29,13.85,4.91,21.16,6,1.71.26,3.43.38,5.13.56.11-2.53.3-4.8.29-7.06,0-4.44-.07-8.87-.22-13.3-.15-4.66-.45-9.32-.64-14-.28-6.38-.58-12.76-.75-19.14-.21-7.79-.33-15.57-.42-23.36-.09-7.28-.09-14.55-.16-21.83,0-2.27-.08-4.55-.23-6.82-.32-5-.71-10-1.08-15l-10.5.89c-2.31.2-4.61.43-6.91.65l-10.47,1c-3.09.31-6.19.58-9.28.9-4.48.47-8.95,1-13.42,1.45l-8.31.91-2.13.22a4.17,4.17,0,0,0-.59-.08c-4.55.14-9.1.27-13.65.42-4,.13-8.05.29-12.08.42-5.47.19-10.93.38-16.4.53-3.63.11-7.28,0-10.9.29a66.26,66.26,0,0,0-9.93,1.37c-6.46,1.48-12.83,3.34-19.27,4.87A66.05,66.05,0,0,1,126,207c-2.76.25-5.54,0-8.25.92-3.3,1.08-6.66,2-10,3C105.77,211.54,105.21,212.68,105.76,214.78Zm-56.2,29.86.29.27c.83-.34,1.68-.64,2.48-1,3.4-1.67,6.51-3.67,8.48-7.07a4.49,4.49,0,0,1,.72-.8c1.28-1.35,3-1.72,4.71-2.16s1.92-.7,1.68-2.3c-2.19.39-4.42.63-6.55,1.23a17.51,17.51,0,0,0-3.93,2,5.9,5.9,0,0,0-1.62,1.36c-2,2.42-3.86,4.88-5.75,7.35A5,5,0,0,0,49.56,244.64Zm7.35-11.31a17.29,17.29,0,0,0-9.24,3.43,7.58,7.58,0,0,0-2.74,3.68,18.92,18.92,0,0,1-1.37,2.92c-.91,1.61-1.9,3.19-3,5,.72-.07,1.3,0,1.65-.19A9.3,9.3,0,0,0,44.76,246c1-1.55,1.71-3.33,2.64-5a8.18,8.18,0,0,1,1.87-2.46c1.79-1.36,3.74-2.52,5.61-3.78C55.49,234.42,56.07,234,56.91,233.33ZM59,221.11l-.09-.09a1.22,1.22,0,0,0-.07.17s0,.05.07.08Z" />
        <path class="outline"
            d="M539,457.18l-.57.69c-1,1-1.05,1.56-.05,2.49l.63.66,1,2.88.06,2.19c-.27,1-.54,2.07-.8,3.11a.44.44,0,0,1-.12.18l-.39.51-.25.26-.5.4a.57.57,0,0,1-.18.12c-1.21.34-2.44.67-3.64,1.06-.15,0-.21.39-.31.59a2.9,2.9,0,0,1,.29.75,139.27,139.27,0,0,0,3.16,22.72c.48,2.07-.54,3.83-1.38,5.58-2.28,4.74-4.66,9.44-7,14.17a11.82,11.82,0,0,1-3.31,3.84,93.62,93.62,0,0,0-6.84,6.53c-1.46,1.52-2.74,3.21-4.1,4.84-.78.93-1.91.92-2.37-.21a6.52,6.52,0,0,1-.52-3.21,42.24,42.24,0,0,1,1.41-5.09,5.93,5.93,0,0,0-.82.35c-1.43.95-2.81,2-4.27,2.87-1.95,1.2-3.48.34-3.54-2-.07-2.85,1.54-4.78,3.63-6.41.68-.53,1.41-1,2.27-1.59-1.34-.42-2.47-.76-3.6-1.13a17,17,0,0,1-1.68-.63c-2.07-.91-2.2-2.5-.38-3.93a1.91,1.91,0,0,0,.68-1.17c.15-1.1,1-1.41,1.79-1.7a11.82,11.82,0,0,1,2.14-.34c1.75-7.38,3.57-14.75,5.24-22.16.56-2.48-.46-4.88-1-7.29a7.79,7.79,0,0,1-.2-.8,2.4,2.4,0,0,0-1.54-2.11c-2.34-1.16-3.89-4.86-3.23-7.43a3.76,3.76,0,0,0-.67-3.34,9.38,9.38,0,0,1-1.2-3.08c-.68-2.75-1.22-5.54-1.87-8.3a2,2,0,0,0-.73-1.14,7.26,7.26,0,0,1-3.16-5.8A19.43,19.43,0,0,0,495.87,433a3.88,3.88,0,0,1-1-1.73c-.53-2.62-1.07-5.25-1.37-7.89-.47-4-.72-8.12-1.12-12.18-.26-2.54-.61-5.07-1-7.6a1.81,1.81,0,0,0-.65-.94,13.56,13.56,0,0,1-5-7.92c-.91-4.28-2.24-8.48-3.32-12.73a13.58,13.58,0,0,1-.29-2.85c-.42-11.39-.74-22.79-1.3-34.17-.2-4.18-.91-8.34-1.5-12.5-1.37-9.85-2.95-19.67-4.17-29.54-.62-4.94-.64-10-.93-14.94,1.26-2.87,1-6,1.39-9,.46-3.16.79-6.34,1.11-9.53a1.56,1.56,0,0,1,.92-1.36c1.26-.7,2.49-1.43,3.73-2.15a8.31,8.31,0,0,1-1,1.12c-1.48,1.21-2.76,2.5-2.89,4.59s-.44,4.19-.64,6.29c-.34,3.72-.71,7.45-1,11.19-.21,3-.31,6-.34,8.94a28.84,28.84,0,0,0,.44,3.56c.58,4.62,1.11,9.25,1.72,13.86.51,3.82,1.15,7.62,1.65,11.44.63,4.73,1.24,9.46,1.73,14.21.54,5.34,1.07,10.69,1.36,16,.33,6,.34,12,.55,17.94.24,6.63,1.3,13.08,4.38,19.06A17.14,17.14,0,0,0,489,397c1.95,2.47,4,4.78,7.57,4.85a21.92,21.92,0,0,1,4.05.33c3,.6,6.06,1.34,9.09,2,1.54.72,3.1,1.39,4.61,2.16a7.17,7.17,0,0,1,3.55,3.8l-.59-.32a5.11,5.11,0,0,0-3.48-2.89c-3.07-.82-6.18-1.56-9.31-2.11-2.22-.39-4.5-.41-6.76-.6l-1.66,0-2.47-.34c.12.55.21.93.27,1.31.4,2.91.94,5.82,1.14,8.75.24,3.46.12,6.94.26,10.41a53.41,53.41,0,0,0,.6,6.05,3.32,3.32,0,0,0,1.08,1.78,16,16,0,0,1,5.54,10c.33,2.28.61,4.43,2,6.48a22.44,22.44,0,0,1,3.31,9.17,28.59,28.59,0,0,0,1.05,4.41c.57,1.65,1.16,1.75,2.65.72l1-.42c-.4-.93-.74-1.71-1.08-2.48a3.29,3.29,0,0,0,3.14,1.82c2.65-.39,5.27-1.09,7.91-1.67v-1.72l.17-.05c.21.53.41,1.05.63,1.62l10.74-2.34c.47-1.3.86-2.37,1.25-3.43l.25.1-.43,2.78c2.52.71,3.74-.69,4-3.16a27.52,27.52,0,0,0-.27-3.93,45.8,45.8,0,0,0-2.3-11c-1.06-3.38-2-6.8-2.9-10.21a10.7,10.7,0,0,1-.29-1.87,4.91,4.91,0,0,1-.05-1.94,27.18,27.18,0,0,1,1.48-3.14,56.19,56.19,0,0,0,2.64-5.62,9.16,9.16,0,0,0,.29-3.87c-.31-2.68-2-4.64-3.8-6.49a13.82,13.82,0,0,1-2.55-3c-1.85-3.6-3.37-7.41-3.46-11.49a72.24,72.24,0,0,1,.63-10.49c.81-6.37,1.94-12.69,2.77-19.06.77-5.92,1.51-11.86,1.9-17.81.21-3.32-.32-6.68-.55-10a177.48,177.48,0,0,0-2.68-20.26,233.21,233.21,0,0,0-7.44-29.47c-3.49-10.71-7.11-21.38-10.68-32.06a2.11,2.11,0,0,0-.32-.48,3.93,3.93,0,0,0-.52.13q-9.76,4.28-19.52,8.58c-1.38.61-2.72,1.3-4.08,1.95,5.1-3.39,10.73-5.77,16.22-8.39,3.06-1.46,6.16-2.82,9.24-4.22a3.09,3.09,0,0,1,.56-.16c.65,2.08,1.26,4.13,1.94,6.15,2.08,6.17,4.14,12.34,6.28,18.48a232.32,232.32,0,0,1,7.53,27.52q2.08,9.66,3.79,19.4c.63,3.55.92,7.16,1.24,10.76q.44,4.7.58,9.41c.22,6.76-.7,13.43-1.67,20.09-.91,6.18-1.69,12.37-2.49,18.56-.27,2.13-.47,4.27-.63,6.41-.35,4.51,1,8.66,2.57,12.8a21.45,21.45,0,0,0,3.37,5.75c1.86,2.36,3.6,4.86,3.71,8a12.17,12.17,0,0,1-.49,4.22,27.67,27.67,0,0,1-2.71,5.71c-2,3.08-1.84,6.05-.58,9.35a48.15,48.15,0,0,1,2,8c.83,4.23,1.6,8.47,2.2,12.74.16,1.13-.39,2.36-.61,3.55Zm-4.09,1.29c-6.64,1.38-13.27,2.75-19.9,4.17-1.32.28-2.58.78-3.87,1.18l.11.36c.34-.05.68-.1,1-.17,4.53-.91,9.06-1.84,13.6-2.74,2.93-.59,5.86-1.14,8.8-1.71,1.62-.29,1.62-.29,1.72-1.47Zm-1.2,9.76.61-1.85.14,0V468l-.28,2.13c1.28-.35,2.37-.65,3.46-1a.65.65,0,0,0,.36-.43c.3-2.69.79-5.38-1.06-7.8-.61-.79-1.12-1.21-2-.58a2.57,2.57,0,0,0-.48,0l-22.31,4.56c-1.8.07-2.2.29-2.17,2a10.41,10.41,0,0,0,.82,3.68c.72,1.8,2.31,2.54,4.4,2.29l-1.88-2.48.1-.5,1.07,1c.33.34.66.69,1,1a2.24,2.24,0,0,0,2.21.81c1.7-.37,3.45-.54,5.15-.91.4-.09.77-.61,1-1a3.51,3.51,0,0,0,.23-1.15l.46-.18-.11,2.19,5.74-1.18c.78.38,1.85,0,2.73-.37C533.36,469.92,533.46,468.88,533.72,468.23Zm-5.33,8.82.51.13c-.28,1.37-.44,2.78-.85,4.11-1.1,3.58-2.31,7.13-3.44,10.7a2.89,2.89,0,0,0-.1,1.37c.36,1.87.85,3.71,1.16,5.59a10.18,10.18,0,0,1-.58,6.38c-1.05,2.14-1.7,4.47-2.64,6.67a11.53,11.53,0,0,1-1.62,2.6c-1.92,2.43-4,4.73-5.82,7.24a12.19,12.19,0,0,0-1.65,4.06,8.1,8.1,0,0,0,.06,3c0,.27.61.48.94.72a3.27,3.27,0,0,0,.32-1,4.17,4.17,0,0,1,2.48-3.85L516,526.69a.7.7,0,0,0,.66-.21c3.2-2.88,6.41-5.75,9.59-8.64a4.83,4.83,0,0,0,1.15-1.37q4.36-9,8.64-18a3,3,0,0,0,.08-1.95c-1.42-4.66-1.61-9.5-2.12-14.29-.32-3-.55-6-.72-9.05-.06-1.14-.59-1.17-1.46-1-4,.58-8,1.11-12,1.69-1.21.17-2.41.46-3.73.73.07,1.72.16,3.34.22,5,.17,4.25-1.22,8.24-2.14,12.3-1.36,5.92-2.88,11.8-4.24,17.72a6.61,6.61,0,0,0,.17,2.68c.2.93.94.91,1.39.27a12,12,0,0,0,1.83-3.33c.59-2.06-.19-3-2.21-3,0,0-.08-.1-.24-.35.52-.2,1.16-.68,1.45-.52a18.65,18.65,0,0,1,2.4,1.86c1.62-2.62,3.21-5.54,5.13-8.22a27.16,27.16,0,0,0,4.28-8.82c1.07-4,2.55-7.8,3.85-11.69C528.1,477.93,528.25,477.49,528.39,477.05Zm-5,20.2-.29,0a29.5,29.5,0,0,1-.58,4c-.78,2.87-1.69,5.71-2.59,8.54a6.94,6.94,0,0,1-5.14,5.12,17.11,17.11,0,0,0-7.42,4.22c-1.71,1.61-2.11,3.14-1.38,4.89.34.82.76,1.08,1.53.62l7.75-4.75a1.87,1.87,0,0,0,.41-.43c1.64-1.79,3.3-3.57,4.91-5.38a4.7,4.7,0,0,0,.95-1.47c1.15-3,2.26-6,3.36-9.07a1.58,1.58,0,0,0,.16-.91C524.55,500.8,524,499,523.41,497.25ZM508.8,509.68a19.49,19.49,0,0,0-3.72,1.09c-1.1.57-1,1.48.14,2,1.28.56,2.62,1,3.91,1.49a5.06,5.06,0,0,0,4.86-.16,4.3,4.3,0,0,1,1.8-.59,3,3,0,0,0,2.67-2.23c1.17-3.09,2.43-6.16,3.37-9.32a23.43,23.43,0,0,0,.38-5,1.72,1.72,0,0,0-.52.94,38.72,38.72,0,0,1-1.5,4.11c-.88,1.82-2,3.54-2.93,5.34a3.49,3.49,0,0,1-2,2c-.38.12-.69.6-.93,1-.7,1.1-1.28,2.3-2.05,3.36-.55.75-1.31.71-2.08.09C509,512.84,508.81,511.53,508.8,509.68Zm6.55-1.48.43.23,4.17-7.71-.42-.22Zm-5.93.51c-.32-.43-.52-.93-.77-1a1.89,1.89,0,0,0-2.24,1.28Zm5.17-31.59.24.06c0-.66.12-1.31.13-2,0-.16-.22-.32-.34-.49-.13.19-.4.39-.38.56A16.57,16.57,0,0,0,514.59,477.12Zm-3.79-12.76,0-.23-.53.07v.14Z" />
        <path class="color-shadow-dark"
            d="M487.38,262.55c1.36-.65,2.7-1.34,4.08-1.95Q501.21,256.3,511,252a3.93,3.93,0,0,1,.52-.13,2.11,2.11,0,0,1,.32.48c3.57,10.68,7.19,21.35,10.68,32.06a233.21,233.21,0,0,1,7.44,29.47,177.48,177.48,0,0,1,2.68,20.26c.23,3.34.76,6.7.55,10-.39,5.95-1.13,11.89-1.9,17.81-.83,6.37-2,12.69-2.77,19.06a72.24,72.24,0,0,0-.63,10.49c.09,4.08,1.61,7.89,3.46,11.49a13.82,13.82,0,0,0,2.55,3c1.82,1.85,3.49,3.81,3.8,6.49a9.16,9.16,0,0,1-.29,3.87,56.19,56.19,0,0,1-2.64,5.62,27.18,27.18,0,0,0-1.48,3.14,4.91,4.91,0,0,0,.05,1.94,10.7,10.7,0,0,0,.29,1.87c.94,3.41,1.84,6.83,2.9,10.21a45.8,45.8,0,0,1,2.3,11,27.52,27.52,0,0,1,.27,3.93c-.22,2.47-1.44,3.87-4,3.16a3.76,3.76,0,0,0,1.5-3.33c-.18-2.29-.31-4.59-.5-6.88a17.15,17.15,0,0,0-.47-3.53c-1.23-4.11-2.62-8.18-3.86-12.29-.6-2-1.32-3.95-.56-6.16.59-1.7-.69-2.85-2.43-2.5-.54.1-1.12,0-1.66.1a9,9,0,0,0-2.11.62c-1.11.52-2.1,1.46-3.25,1.7a53.92,53.92,0,0,1-6.73.76c-.37,0-.78-.39-1.17-.6l.62-1.17c2.6-.77,5.2-1.53,7.79-2.33,3.5-1.07,6.85-2.93,10.74-1.92a.87.87,0,0,0,.47-1.66,3.32,3.32,0,0,0-1.6-.3c-2.92.11-5.57,1.23-8.25,2.27-2.15.84-4.33,1.58-6.5,2.36a4.72,4.72,0,0,1,.81-.95c1.38-.86,2.83-1.61,4.18-2.5a27.43,27.43,0,0,1,9.42-3.72l2.48-.41a13,13,0,0,0-2-5.2c-.15-.2-.46-.28-.7-.41a3,3,0,0,0-.17-.92c-.64-1.1-1.36-2.16-2-3.26-1.36-2.42-3.21-4.62-3.59-7.49-.3-2.24-.52-4.5-.73-6.75a16.62,16.62,0,0,1-.16-3.91c.5-3.18,1.26-6.31,1.82-9.47q1.14-6.57,2.12-13.16c.34-2.28.51-4.58.76-6.86.08-.33.15-.65.23-1l-.21-2.37.45-1-.21-5c.16-.24.43-.47.44-.72.12-1.82.26-3.65.25-5.48,0-2.95-.09-5.9-.25-8.85-.1-1.78-.41-3.54-.64-5.31-.33-2.44-.72-4.87-1-7.31-.37-3.15-.61-6.32-1-9.47s-.86-6.36-1.42-9.52a47.21,47.21,0,0,0-1.78-8.14c-2.1-5.72-4.59-11.29-6.81-17-1.75-4.49-3.39-9-5-13.57-.68-2-1.08-4-1.6-6.05-1.55.49-2.95.94-4.36,1.37-3.38,1-6.88,1.79-10.13,3.15-3.47,1.46-6.7,3.5-10.07,5.24a16.35,16.35,0,0,0-5.59,4.21,5,5,0,0,0-1,2.31c-.22,1.53-.17,3.09-.31,4.64-.28,3.2-.61,6.39-.93,9.59-.3,3-.66,6.07-.92,9.11a14,14,0,0,0,0,4.13c.72,3.38,1.78,6.68,2.54,10.05.7,3.13,1.3,6.3,1.75,9.48s.7,6.63,1,9.94c.33,3.56.67,7.12.93,10.68.22,2.93.36,5.88.48,8.82.26,6.36.53,12.73.72,19.1.09,3,0,6,0,9a4.86,4.86,0,0,1-.06,1.08,10.18,10.18,0,0,0,.59,7.2,22.84,22.84,0,0,0,2.53,4.71,61.39,61.39,0,0,0,5.67,5.5,6.67,6.67,0,0,0,1.58.79,14.33,14.33,0,0,0,1.62,1c3.21,1.37,6.44,2.71,9.66,4.06.36.32.7.64,1.07.94.67.52,1.35,1,2,1.52-3-.68-6.05-1.42-9.09-2a21.92,21.92,0,0,0-4.05-.33c-3.53-.07-5.62-2.38-7.57-4.85a17.14,17.14,0,0,1-1.57-2.82c-3.08-6-4.14-12.43-4.38-19.06-.21-6-.22-12-.55-17.94-.29-5.35-.82-10.7-1.36-16-.49-4.75-1.1-9.48-1.73-14.21-.5-3.82-1.14-7.62-1.65-11.44-.61-4.61-1.14-9.24-1.72-13.86a28.84,28.84,0,0,1-.44-3.56c0-3,.13-6,.34-8.94.25-3.74.62-7.47,1-11.19.2-2.1.5-4.19.64-6.29s1.41-3.38,2.89-4.59a8.31,8.31,0,0,0,1-1.12l4.73-2.69.55-.26,0,0,.23-.23.06-.06.06.05.39-.27Z" />
        <path class="color-shadow-dark" d="M62.06,243l5.54-3.55.35.45-5.24,3.46-.54-.24Z" />
        <path class="color-shadow-dark"
            d="M65,236l1.67-.54c2.13-.68,2.27-.66,3.51,1.12.11.15-.16.57-.26.86a2,2,0,0,0-2.54-1.94C66.61,235.67,65.8,235.79,65,236Z" />
        <path class="color-shadow-dark" d="M56.88,246.78a4.15,4.15,0,0,0-1.33,4.55A3.11,3.11,0,0,1,56.88,246.78Z" />
        <path class="color-shadow-dark" d="M533.88,472.32c.1-.2.16-.55.31-.59,1.2-.39,2.43-.72,3.64-1.06L535,471.88Z" />
        <path class="color-shadow-dark" d="M53.3,223.39,49.35,225Z" />
        <path class="color-shadow-dark" d="M539.27,469.2c.26-1,.53-2.08.8-3.11A2.8,2.8,0,0,1,539.27,469.2Z" />
        <path class="color-shadow-dark" d="M540,463.9,539,461A2.52,2.52,0,0,1,540,463.9Z" />
        <path class="color-shadow-dark"
            d="M538.39,460.36c-1-.93-1-1.45.05-2.49C538.42,458.7,538.41,459.53,538.39,460.36Z" />
        <path class="color-shadow-dark" d="M35.9,240.91l-1.09,2.7Z" />
        <path class="color-shadow-dark" d="M66.19,217.17l-2,.17Z" />
        <path class="color-shadow-dark" d="M39.26,231.3l-.72,2Z" />
        <path class="color-shadow-dark" d="M61.11,244.64l-.68-.36.85-.49.41.37Z" />
        <path class="color-shadow-dark" d="M58.33,220.16l-1,.85Z" />
        <path class="color-shadow-dark" d="M37.31,236.56l-.45,1.33Z" />
        <path class="color-shadow-dark" d="M48.74,225.28l-1.31.47Z" />
        <path class="color-shadow-dark" d="M63,236.26l1.09-.22Z" />
        <path class="color-shadow-dark" d="M59,240.42l.71-.44Z" />
        <path class="color-shadow-dark" d="M61.4,243.57l.66-.54.11.12,0,.26,0,0-.25.26.08.06Z" />
        <path class="color-shadow-dark" d="M61.41,238.3l.35-.53Z" />
        <path class="color-shadow-dark" d="M38.3,233.94l-.22.59Z" />
        <path class="color-shadow-dark" d="M39.74,230.1l-.25.59Z" />
        <path class="color-shadow-dark" d="M42,228.23l-.51.17Z" />
        <path class="color-shadow-dark" d="M45.62,226.48l-.58.24Z" />
        <path class="color-shadow-dark" d="M46.82,226l-.6.23Z" />
        <path class="color-shadow-dark" d="M55.68,222.08l-.53.36Z" />
        <path class="color-shadow-dark" d="M57.13,221.14l-.51.36Z" />
        <path class="color-shadow-dark" d="M60.73,218l-.53.36Z" />
        <path class="color-shadow-dark" d="M539,457.18l.42-.5Z" />
        <path class="color-shadow-dark" d="M59.53,244.91l-.53.34Z" />
        <path class="color-shadow-dark" d="M538,470.55l.5-.4Z" />
        <path class="color-shadow-dark" d="M57.84,246.07l-.53.37Z" />
        <path class="color-shadow-dark" d="M56,252l.41.48Z" />
        <path class="color-shadow-dark" d="M36.34,239.44l-.15.54Z" />
        <path class="color-shadow-dark" d="M57,252.82l.54.13Z" />
        <path class="color-shadow-dark" d="M538.76,469.89l.39-.51Z" />
        <path class="outline" d="M61.4,243.57l.6.12-.31.47-.41-.37Z" />
        <path class="outline" d="M486.7,263l-.55.26Z" />
        <path class="outline" d="M67.81,239.43l.41-.31.36.37-.45.25Z" />
        <path class="outline" d="M68,239.93l-.35-.45a.2.2,0,0,1,.21,0l.32.31Z" />
        <path class="outline" d="M487.41,262.53l-.39.27Z" />
        <path class="outline" d="M486.9,262.81l-.23.23Z" />
        <path class="color-base"
            d="M110.84,236.1h-2.2c-.33-2.7-.66-5.45-1-8.19l3.71-.58,0-.31h-3.8c-.54-3.33-1.08-6.61-1.61-9.9l6.6-.77c2-.25,3.84-1.57,6-1.11a3.66,3.66,0,0,0,1.53-.14c3.44-.78,6.9-1.52,10.32-2.41,6.23-1.61,12.42-3.37,18.65-5,6-1.55,12.11-3,18.17-4.49a5.9,5.9,0,0,0,1.26-.67c4.66-.08,9.32-.13,14-.27,2.22-.07,4.44-.26,6.65-.52,4.13-.49,8.24-1.1,12.37-1.6,4.37-.53,8.75-.94,13.11-1.5a29.32,29.32,0,0,0,3.83-1l2.13-.22c.09,1.26.34,1.45,1.54,1.22a9.42,9.42,0,0,1,1.3-.16c3.58-.09,7.17-.16,10.76-.24,3.31-.08,6.62-.14,9.92-.25,4.74-.14,9.48-.33,14.21-.47,3.43-.1,6.86-.17,10.28-.24a15.19,15.19,0,0,0,2.23,0c1.95-.33,3.88-.79,5.82-1.19,1.28-.26,1.57-.07,1.78,1.19.17,1,.31,2,.47,3.06-.15.23-.43.46-.45.7-.34,4.24-.69,8.48-1,12.72-.29,4.52-.5,9.06-.73,13.58-.17,3.18-.32,6.36-.5,9.54-.06,1.23-.15,2.46-.26,3.69-.3,3.52-.62,7-.93,10.56-.18,2.1-.31,4.2-.52,6.29-.36,3.55-.78,7.1-1.15,10.65-.35,3.24-.63,6.48-1,9.71-.51,4.5-1.08,9-1.64,13.47-.23,1.84-.5,3.67-.77,5.64-1.8-.54-3.42-1.07-5.06-1.5-5.43-1.43-10.86-2.81-16.28-4.23-5.27-1.37-10.58-2.65-15.8-4.21-6.25-1.87-12.49-3.8-18.6-6.1-3.82-1.44-7.35-3.66-11.06-5.43-4.82-2.31-9.71-4.47-14.51-6.81a155.11,155.11,0,0,0-19.25-7.81,18.93,18.93,0,0,1-7.86-4.65A79.18,79.18,0,0,1,151.16,242a32.63,32.63,0,0,0-11.08-11c-1.79-1.09-3.21-.71-4.05,1.45l-4.22-.74,4.25,3.87a2.55,2.55,0,0,1-.86.07,44.06,44.06,0,0,1-11-4.55c-1.55-.89-1.85-1.37-3.46.18a5.13,5.13,0,0,1-1.53.91c-1.91.8-3.85,1.52-5.75,2.35A28.3,28.3,0,0,0,110.84,236.1Zm76,.29c.34,1.88.74,3.75,1,5.64a52.2,52.2,0,0,1,.45,5.59c0,1.84-.16,3.68-.26,5.7.16-.27.26-.37.26-.47.11-3.48.6-7,.21-10.43a132,132,0,0,0-2.93-17c-1.71-6.89-4.36-13.46-9.77-18.47-.34-1.09-2.59-2.62-3.62-2.46a1.38,1.38,0,0,0-1.11,1.83,5,5,0,0,0,.92,1.36,30,30,0,0,1,5.91,8.36c1.13,2.6,2.13,5.25,3.22,7.86q2.42,5.73,4.91,11.43A5.17,5.17,0,0,0,186.89,236.39Z" />
        <path class="color-shadow-dark"
            d="M278.83,200.38c-.16-1-.3-2-.47-3.06-.21-1.26-.5-1.45-1.78-1.19-1.94.4-3.87.86-5.82,1.19a15.19,15.19,0,0,1-2.23,0c-3.42.07-6.85.14-10.28.24-4.73.14-9.47.33-14.21.47-3.3.11-6.61.17-9.92.25-3.59.08-7.18.15-10.76.24a9.42,9.42,0,0,0-1.3.16c-1.2.23-1.45,0-1.54-1.22l8.31-.91c4.47-.48,8.94-1,13.42-1.45,3.09-.32,6.19-.59,9.28-.9l10.47-1c2.3-.22,4.6-.45,6.91-.65l10.5-.89c.37,5,.76,10,1.08,15,.15,2.27.21,4.55.23,6.82.07,7.28.07,14.55.16,21.83.09,7.79.21,15.57.42,23.36.17,6.38.47,12.76.75,19.14.19,4.66.49,9.32.64,14,.15,4.43.21,8.86.22,13.3,0,2.26-.18,4.53-.29,7.06-1.7-.18-3.42-.3-5.13-.56-7.31-1.1-14.19-3.72-21.16-6-6.26-2.05-12.56-4-18.78-6.17-3.84-1.34-7.56-3-11.36-4.51-5.21-2-10.48-3.9-15.66-6a70.62,70.62,0,0,1-19.11-11.55,27.74,27.74,0,0,0-14.37-6.84c-3.74-.53-7.16-2.17-10.67-3.5a64.7,64.7,0,0,1-14.28-7.75,11.92,11.92,0,0,1-4.87-6.47c-.67-2.21-1.75-4.29-2.54-6.46s-1.35-4.43-2.25-6.55a25.58,25.58,0,0,0-2.58-4.43,2.63,2.63,0,0,0-2.85-1.1c2.67,1.29,3.06,3.84,3.68,6.27.23.87.47,1.74.7,2.58-1.69.53-3.25,1-4.8,1.5a1.89,1.89,0,0,1-2.17-.6,15.5,15.5,0,0,0-6.55-4.46,28.6,28.6,0,0,1-4.08-2.27,2.6,2.6,0,0,0-3.11.21,18.43,18.43,0,0,1-8.12,3.31,11.52,11.52,0,0,1-3.06-.33c-.63-.09-.74-.5-.54-1.05a13.61,13.61,0,0,0,3.27-.15,42.26,42.26,0,0,0,4.79-1.85c2-.84,4-1.72,5.81-2.5a9.38,9.38,0,0,0,1.58,1.07,73.86,73.86,0,0,1,8,3.17c2.26,1.22,4.29.92,6.84.25l-3.16-3.59-4.25-3.87,4.22.74.91.28c2.84.82,5.08,2.34,6,5.28a34.9,34.9,0,0,0,5.17,10.42,37.63,37.63,0,0,0,9.69,9.07c2.05,1.35,4.33,2.38,6.36,3.76a55.36,55.36,0,0,0,13.06,6.4c2.6.89,5.28,1.52,7.93,2.23a17.74,17.74,0,0,1,6,2.89A83.15,83.15,0,0,0,198.3,278c3.63,2.14,7.43,4,11.2,5.89,2.56,1.29,5.19,2.45,7.79,3.67,2.13,1,4.2,2.13,6.37,3,9.64,3.92,19.54,7.05,29.48,10.08a207.7,207.7,0,0,0,24.08,5.89c.82.14,1.12,0,1.15-.8.06-2.11.16-4.22.23-6.33.09-2.39.13-4.78.26-7.17.12-2.14.32-4.27.51-6.41.29-3.32.76-6.63.87-10s-.11-6.94-.2-10.41c-.07-3-.16-6-.23-9-.17-6.66-.36-13.32-.47-20,0-2.63.15-5.26.22-7.89.09-3.35.22-6.7.23-10.05s-.13-6.46-.23-9.68c-.05-1.71-.12-3.43-.26-5.13C279.21,202.65,279,201.51,278.83,200.38Z" />
        <path class="transparent"
            d="M68,239.93l.18-.19.45-.25a26.17,26.17,0,0,0,3.23-2.59c2-2.18,3.92-4.51,5.86-6.78.06-.07,0-.21.07-.32l-.27-.26-6.85,6.87A16.67,16.67,0,0,1,69,233.1c-.19-.81.48-1.55,1.49-1.66s2.08-.26,3.12-.39l0-.34a3.94,3.94,0,0,0-1-.51,12.45,12.45,0,0,0-6-.08c-2.79.8-5.7,1.18-8.57,1.7a26.92,26.92,0,0,0-10.47,3.91,9.92,9.92,0,0,0-3.49,4.33,31.45,31.45,0,0,1-5.91,9.11A8.06,8.06,0,0,1,32.34,252l2.33-6,.27,0,.3,1.4h.38c0-1.16.05-2.33.08-3.49a2.32,2.32,0,0,1,.07-.7c1.65-4.28,3.29-8.57,5-12.83A3.53,3.53,0,0,1,42.3,229c4.17-2.48,8.87-3.59,13.41-5.11A51.45,51.45,0,0,1,67,221.69a5.2,5.2,0,0,0,2.12-.67H58.79c2-1,3.44-2.35,5.45-2.5,3.45-.26,6.92-.44,10.38-.65,4.22-.26,8.44-.54,12.66-.78.91-.05,1.82,0,2.93,0,.27,1.72.65,3.55.84,5.4.39,4,.63,8,1,12.05.17,1.82.53,3.62.87,5.42.18,1-.09,1.56-1,1.81-2.82.75-5.59,1.73-8.45,2.19a42.52,42.52,0,0,0-10.92,3.7c-2.58,1.19-5.2,2.28-7.76,3.5-2.17,1-4.42.87-6.68.57-1.14-.15-1.26-.61-.51-1.5a8.67,8.67,0,0,1,5.15-2.83,5.65,5.65,0,0,1,2,.26c-1-1.7-3-1.55-7.76.7l-.19-.24c.69-.57,1.36-1.16,2.07-1.72s1.52-1.17,2.28-1.75l.58-.48.31-.47-.08-.06.25-.26,0,0,.56,0Z" />
        <path class="color-shadow-dark"
            d="M218.39,197.63a29.32,29.32,0,0,1-3.83,1c-4.36.56-8.74,1-13.11,1.5-4.13.5-8.24,1.11-12.37,1.6-2.21.26-4.43.45-6.65.52-4.66.14-9.32.19-14,.27-.83.08-1.66.14-2.48.24-2.37.26-4.74.46-7.08.84-3.8.61-7.56,1.39-11.35,2-3.55.61-7.13,1.07-10.68,1.71-2.49.45-4.94,1.17-7.43,1.64-3.46.64-7,1.18-10.43,1.71a8.92,8.92,0,0,1-1.89-.1c-1.34.61-2.81,1.39-4.36,1.95-2.3.82-4.66,1.48-7,2.21-.55-2.1,0-3.24,2-3.86,3.31-1,6.67-1.89,10-3,2.71-.88,5.49-.67,8.25-.92a66.05,66.05,0,0,0,9.55-1.58c6.44-1.53,12.81-3.39,19.27-4.87a66.26,66.26,0,0,1,9.93-1.37c3.62-.27,7.27-.18,10.9-.29,5.47-.15,10.93-.34,16.4-.53,4-.13,8.05-.29,12.08-.42,4.55-.15,9.1-.28,13.65-.42A4.17,4.17,0,0,1,218.39,197.63Z" />
        <path class="color-shadow"
            d="M105.76,214.78c2.33-.73,4.69-1.39,7-2.21,1.55-.56,3-1.34,4.36-1.95a8.92,8.92,0,0,0,1.89.1c3.48-.53,7-1.07,10.43-1.71,2.49-.47,4.94-1.19,7.43-1.64,3.55-.64,7.13-1.1,10.68-1.71,3.79-.64,7.55-1.42,11.35-2,2.34-.38,4.71-.58,7.08-.84.82-.1,1.65-.16,2.48-.24a5.9,5.9,0,0,1-1.26.67c-6.06,1.51-12.13,2.94-18.17,4.49-6.23,1.61-12.42,3.37-18.65,5-3.42.89-6.88,1.63-10.32,2.41a3.66,3.66,0,0,1-1.53.14c-2.17-.46-4,.86-6,1.11l-6.6.77c.49-1.36,1.84-1.23,2.89-1.6a4.63,4.63,0,0,1,1.24-.09l0-.47-4.12.45Z" />
        <path class="color-base"
            d="M95.73,219.14l.83,0-.58-.49,7.23-.81c.67,5.22,1.36,10.43,2,15.65.17,1.34.21,2.7.31,4.05-1,.36-1.91.73-2.87,1.08s-2.16.71-3.22,1.11c-.9.35-1.18-.19-1.28-.87-.28-2-.56-4-.73-6C97,228.29,97.08,223.63,95.73,219.14Z" />
        <path class="color-shadow"
            d="M136.06,235.66l3.16,3.59c-2.55.67-4.58,1-6.84-.25a73.86,73.86,0,0,0-8-3.17,9.38,9.38,0,0,1-1.58-1.07c-1.81.78-3.8,1.66-5.81,2.5a42.26,42.26,0,0,1-4.79,1.85,13.61,13.61,0,0,1-3.27.15c-.08-.82-.17-1.64-.26-2.43l3.41-.24,0-.18-1.3-.31a28.3,28.3,0,0,1,2.62-1.48c1.9-.83,3.84-1.55,5.75-2.35a5.13,5.13,0,0,0,1.53-.91c1.61-1.55,1.91-1.07,3.46-.18a44.06,44.06,0,0,0,11,4.55A2.55,2.55,0,0,0,136.06,235.66Z" />
        <path class="transparent"
            d="M49.56,244.64a5,5,0,0,1,.51-1.16c1.89-2.47,3.8-4.93,5.75-7.35a5.9,5.9,0,0,1,1.62-1.36,17.51,17.51,0,0,1,3.93-2c2.13-.6,4.36-.84,6.55-1.23.24,1.6,0,1.87-1.68,2.3s-3.43.81-4.71,2.16a4.49,4.49,0,0,0-.72.8c-2,3.4-5.08,5.4-8.48,7.07-.8.39-1.65.69-2.48,1Z" />
        <path class="color-shadow"
            d="M95.73,219.14c1.35,4.49,1.31,9.15,1.69,13.75.17,2,.45,4,.73,6,.1.68.38,1.22,1.28.87,1.06-.4,2.15-.73,3.22-1.11s1.91-.72,2.87-1.08c.06.56.13,1.12.19,1.67-1,.57-2,1.11-2.92,1.71-1.73,1.07-3.57.77-5.41.47-2.24.2-2.24.2-2.61-1.66s.43-2.71,2.34-2.65a.69.69,0,0,0,.54-.14l-1-.4c-.5-2-1.23-4-1-6.19a18.08,18.08,0,0,0,0-3.29c-.2-2.65-.46-5.3-.7-7.94Z" />
        <path class="transparent"
            d="M56.91,233.33c-.84.63-1.42,1.09-2,1.5-1.87,1.26-3.82,2.42-5.61,3.78a8.18,8.18,0,0,0-1.87,2.46c-.93,1.63-1.61,3.41-2.64,5a9.3,9.3,0,0,1-2.57,2.19c-.35.23-.93.12-1.65.19,1.12-1.86,2.11-3.44,3-5a18.92,18.92,0,0,0,1.37-2.92,7.58,7.58,0,0,1,2.74-3.68A17.29,17.29,0,0,1,56.91,233.33Z" />
        <path class="color-shadow-dark"
            d="M103.21,217.88l-7.23.81c-.83-.1-1.66-.19-2.49-.32A1.53,1.53,0,0,1,92,216.88c-.09-.88,0-1.55,1.06-1.78,2.14-.47,4.25-1.1,6.4-1.45a7.09,7.09,0,0,1,2.78.5,1.12,1.12,0,0,1,.61.77C103.05,215.9,103.11,216.89,103.21,217.88Z" />
        <path class="color-shadow-dark"
            d="M95,219.16c.24,2.64.5,5.29.7,7.94a18.08,18.08,0,0,1,0,3.29c-.24,2.17.49,4.16,1,6.19l-2.44.43-.66-7.52h1.34l-1.32-.77c0-.67.06-1.42,0-2.16-.19-1.94-.21-1.94,1.56-2.72H93.39l-1.11-4.52Z" />
        <path class="color-base"
            d="M104.6,216c.64,3.55,1.32,7.08,1.9,10.63.38,2.31.66,4.64.94,7,.14,1.17.19,2.35.27,3.52l-1.35.22q-1.12-9-2.24-18c-.13-1.1-.2-2.21-.3-3.31Z" />
        <path class="color-shadow-dark"
            d="M97.38,241.43c1.84.3,3.68.6,5.41-.47.95-.6,1.95-1.14,2.92-1.71a4.34,4.34,0,0,1-.56,1.41,6.09,6.09,0,0,1-6.9,1.91,9.68,9.68,0,0,0-1.64-.2Z" />
        <path class="color-shadow-dark"
            d="M106.36,237.32l1.35-.22a15.06,15.06,0,0,1,.14,2,.87.87,0,0,1-.62.6.92.92,0,0,1-.65-.61A11.57,11.57,0,0,1,106.36,237.32Z" />
        <path class="color-shadow-dark" d="M104.6,216h-.78c-.08-.66-1-1.51.58-1.93Z" />
        <path class="transparent" d="M59,221.11l-.09.16s-.08-.06-.07-.08a1.22,1.22,0,0,1,.07-.17Z" />
        <path class="color-base"
            d="M529.42,354l.21,2.37c-.08.33-.15.65-.23,1-.25,2.28-.42,4.58-.76,6.86q-1,6.59-2.12,13.16c-.56,3.16-1.32,6.29-1.82,9.47a16.62,16.62,0,0,0,.16,3.91c.21,2.25.43,4.51.73,6.75.38,2.87,2.23,5.07,3.59,7.49.63,1.1,1.35,2.16,2,3.26a3,3,0,0,1,.17.92c.08,2,.15,4,.22,6a27.43,27.43,0,0,0-9.42,3.72c-1.35.89-2.8,1.64-4.18,2.5a4.72,4.72,0,0,0-.81.95l-2.65,1.58-.62,1.17c.39.21.8.62,1.17.6a53.92,53.92,0,0,0,6.73-.76c1.15-.24,2.14-1.18,3.25-1.7a9,9,0,0,1,2.11-.62c.54-.1,1.12,0,1.66-.1,1.74-.35,3,.8,2.43,2.5-.76,2.21,0,4.17.56,6.16,1.24,4.11,2.63,8.18,3.86,12.29a17.15,17.15,0,0,1,.47,3.53c.19,2.29.32,4.59.5,6.88a3.76,3.76,0,0,1-1.5,3.33c.14-.93.28-1.86.43-2.78l-.25-.1c-.39,1.06-.78,2.13-1.25,3.43l-10.74,2.34c-.22-.57-.42-1.09-.63-1.62l-.17.05v1.72c-2.64.58-5.26,1.28-7.91,1.67a3.29,3.29,0,0,1-3.14-1.82,7.44,7.44,0,0,1-.53-1.15c-.94-3.64-1.67-7.35-2.84-10.91-.85-2.55-2.11-5-2.36-7.7a10.82,10.82,0,0,0-.52-2.32c-.15-.47-.6-.84-.72-1.3-1.77-6.89-3.5-13.78-5.24-20.67-.39-1.54-.82-3.07-1.22-4.61-.21-.85-.08-1.45,1-1.3a22.14,22.14,0,0,1,2.83.39c5.67,1.51,11.31,3.14,17,4.57a15.35,15.35,0,0,0,4.23,0,1.16,1.16,0,0,0,.73-.68,3.17,3.17,0,0,0-.79-3.82c-1.37-1.21-2.73-2.43-4.16-3.58-3.6-2.89-7.9-4.19-12.28-5.29-3.22-1.35-6.45-2.69-9.66-4.06a14.33,14.33,0,0,1-1.62-1,25.8,25.8,0,0,0,.71-3,12.85,12.85,0,0,0-1-6.19,83,83,0,0,1-4.48-15.71c-.94-5.19-1.57-10.43-2.2-15.67-.57-4.76-1.06-9.54-1.41-14.33a68.82,68.82,0,0,0-1.85-10.78c-.83-3.51-1.44-7.08-2-10.64-.47-3-.76-6-1.12-9s-.84-6.06-1-9.11a68.49,68.49,0,0,1,.21-7.16c.13-2.34.26-4.69.5-7,.42-3.94,1-7.87,1.4-11.82a8.24,8.24,0,0,1,4.78-7c1.68-.82,3.41-1.57,5.16-2.22q7.33-2.71,14.71-5.31a1.21,1.21,0,0,1,1.08.47,17.51,17.51,0,0,1,1.36,3.3c1.07,3.87,2,7.77,3.05,11.65,1.28,4.72,2.5,9.47,3.95,14.14,2.26,7.3,4.68,14.55,7.07,21.81a96.64,96.64,0,0,1,4.4,20c.53,4.93.7,9.91,1,14.87l.21,5Z" />
        <path class="transparent"
            d="M528.39,477.05c-.14.44-.29.88-.43,1.32-1.3,3.89-2.78,7.73-3.85,11.69a27.16,27.16,0,0,1-4.28,8.82c-1.92,2.68-3.51,5.6-5.13,8.22a18.65,18.65,0,0,0-2.4-1.86c-.29-.16-.93.32-1.45.52.16.25.2.35.24.35,2,.05,2.8,1,2.21,3a12,12,0,0,1-1.83,3.33c-.45.64-1.19.66-1.39-.27a6.61,6.61,0,0,1-.17-2.68c1.36-5.92,2.88-11.8,4.24-17.72.92-4.06,2.31-8.05,2.14-12.3-.06-1.63-.15-3.25-.22-5,1.32-.27,2.52-.56,3.73-.73,4-.58,8-1.11,12-1.69.87-.12,1.4-.09,1.46,1,.17,3,.4,6,.72,9.05.51,4.79.7,9.63,2.12,14.29a3,3,0,0,1-.08,1.95q-4.26,9-8.64,18a4.83,4.83,0,0,1-1.15,1.37c-3.18,2.89-6.39,5.76-9.59,8.64a.7.7,0,0,1-.66.21l1.19-1.94a4.17,4.17,0,0,0-2.48,3.85,3.27,3.27,0,0,1-.32,1c-.33-.24-.91-.45-.94-.72a8.1,8.1,0,0,1-.06-3,12.19,12.19,0,0,1,1.65-4.06c1.81-2.51,3.9-4.81,5.82-7.24a11.53,11.53,0,0,0,1.62-2.6c.94-2.2,1.59-4.53,2.64-6.67a10.18,10.18,0,0,0,.58-6.38c-.31-1.88-.8-3.72-1.16-5.59a2.89,2.89,0,0,1,.1-1.37c1.13-3.57,2.34-7.12,3.44-10.7.41-1.33.57-2.74.85-4.11Z" />
        <path class="color-shadow"
            d="M506.59,401.76c4.38,1.1,8.68,2.4,12.28,5.29,1.43,1.15,2.79,2.37,4.16,3.58a3.17,3.17,0,0,1,.79,3.82,1.16,1.16,0,0,1-.73.68,15.35,15.35,0,0,1-4.23,0c-5.69-1.43-11.33-3.06-17-4.57a22.14,22.14,0,0,0-2.83-.39c-1.08-.15-1.21.45-1,1.3.4,1.54.83,3.07,1.22,4.61,1.74,6.89,3.47,13.78,5.24,20.67.12.46.57.83.72,1.3a10.82,10.82,0,0,1,.52,2.32c.25,2.74,1.51,5.15,2.36,7.7,1.17,3.56,1.9,7.27,2.84,10.91a7.44,7.44,0,0,0,.53,1.15c.34.77.68,1.55,1.08,2.48l-1,.42c-.36-.38-.91-.7-1-1.14a23.11,23.11,0,0,1-.74-3.61,28.69,28.69,0,0,0-3.26-9.77c-.94-1.74-1.76-3.54-2.69-5.29a2.62,2.62,0,0,1,.16-2.61,1.89,1.89,0,0,0,.19-1.38c-.84-2-1.54-4.2-3.33-5.71a2.19,2.19,0,0,1-.54-.77,15.11,15.11,0,0,1-1.6-7.27c.26-4-.52-7.83-1.14-11.71-.51-3.17-1-6.35-1.48-9.52l1.66,0c.18.13.35.34.54.36a44.37,44.37,0,0,1,14.66,3.73c1.4.62,2.9,1,4.35,1.51l.59.32a7.17,7.17,0,0,0-3.55-3.8c-1.51-.77-3.07-1.44-4.61-2.16-.68-.5-1.36-1-2-1.52C507.29,402.4,507,402.08,506.59,401.76Z" />
        <path class="color-base"
            d="M514.47,470.9l-1.07-1-.1.5a4.09,4.09,0,0,1-.64-.6c-1.07-1.53-.78-3.22-.53-4.9l22.31-4.56a2.57,2.57,0,0,1,.48,0,2.73,2.73,0,0,0,.2,1c1.07,1.53.93,3.28,1,5s0,1.67-1.64,1.64v-1.57l-.14,0-.61,1.85-9.18,1.24-.46.18Z" />
        <path class="color-shadow-dark"
            d="M496.05,404.23c.49,3.17,1,6.35,1.48,9.52.62,3.88,1.4,7.75,1.14,11.71a15.11,15.11,0,0,0,1.6,7.27,2.19,2.19,0,0,0,.54.77c1.79,1.51,2.49,3.66,3.33,5.71a1.89,1.89,0,0,1-.19,1.38,2.62,2.62,0,0,0-.16,2.61c.93,1.75,1.75,3.55,2.69,5.29a28.69,28.69,0,0,1,3.26,9.77,23.11,23.11,0,0,0,.74,3.61c.13.44.68.76,1,1.14-1.49,1-2.08.93-2.65-.72a28.59,28.59,0,0,1-1.05-4.41,22.44,22.44,0,0,0-3.31-9.17c-1.43-2-1.71-4.2-2-6.48a16,16,0,0,0-5.54-10,3.32,3.32,0,0,1-1.08-1.78,53.41,53.41,0,0,1-.6-6.05c-.14-3.47,0-6.95-.26-10.41-.2-2.93-.74-5.84-1.14-8.75-.06-.38-.15-.76-.27-1.31Z" />
        <path class="transparent"
            d="M523.41,497.25c.56,1.78,1.14,3.55,1.67,5.34a1.58,1.58,0,0,1-.16.91c-1.1,3-2.21,6.06-3.36,9.07a4.7,4.7,0,0,1-.95,1.47c-1.61,1.81-3.27,3.59-4.91,5.38a1.87,1.87,0,0,1-.41.43l-7.75,4.75c-.77.46-1.19.2-1.53-.62-.73-1.75-.33-3.28,1.38-4.89a17.11,17.11,0,0,1,7.42-4.22,6.94,6.94,0,0,0,5.14-5.12c.9-2.83,1.81-5.67,2.59-8.54a29.5,29.5,0,0,0,.58-4Z" />
        <path class="transparent"
            d="M508.8,509.68c0,1.85.2,3.16,1.39,4.12.77.62,1.53.66,2.08-.09.77-1.06,1.35-2.26,2.05-3.36.24-.38.55-.86.93-1a3.49,3.49,0,0,0,2-2c1-1.8,2-3.52,2.93-5.34a38.72,38.72,0,0,0,1.5-4.11,1.72,1.72,0,0,1,.52-.94,23.43,23.43,0,0,1-.38,5c-.94,3.16-2.2,6.23-3.37,9.32a3,3,0,0,1-2.67,2.23,4.3,4.3,0,0,0-1.8.59,5.06,5.06,0,0,1-4.86.16c-1.29-.53-2.63-.93-3.91-1.49-1.12-.49-1.24-1.4-.14-2A19.49,19.49,0,0,1,508.8,509.68Z" />
        <path class="color-shadow-dark"
            d="M534.47,468c1.66,0,1.7,0,1.64-1.64s.08-3.47-1-5a2.73,2.73,0,0,1-.2-1c.91-.63,1.42-.21,2,.58,1.85,2.42,1.36,5.11,1.06,7.8a.65.65,0,0,1-.36.43c-1.09.33-2.18.63-3.46,1Z" />
        <path class="color-shadow-dark"
            d="M517.26,409.86c-1.45-.5-3-.89-4.35-1.51a44.37,44.37,0,0,0-14.66-3.73c-.19,0-.36-.23-.54-.36,2.26.19,4.54.21,6.76.6,3.13.55,6.24,1.29,9.31,2.11A5.11,5.11,0,0,1,517.26,409.86Z" />
        <path class="color-shadow"
            d="M534.68,459.56c-2.94.57-5.87,1.12-8.8,1.71-4.54.9-9.07,1.83-13.6,2.74-.34.07-.68.12-1,.17l-.11-.36c1.29-.4,2.55-.9,3.87-1.18,6.63-1.42,13.26-2.79,19.9-4.17Z" />
        <path class="color-shadow-dark"
            d="M512.13,464.88c-.25,1.68-.54,3.37.53,4.9a4.09,4.09,0,0,0,.64.6l1.88,2.48c-2.09.25-3.68-.49-4.4-2.29a10.41,10.41,0,0,1-.82-3.68C509.93,465.17,510.33,465,512.13,464.88Z" />
        <path class="color-shadow-dark"
            d="M514.47,470.9l9.61-1.25a3.51,3.51,0,0,1-.23,1.15c-.25.41-.62.93-1,1-1.7.37-3.45.54-5.15.91a2.24,2.24,0,0,1-2.21-.81C515.13,471.59,514.8,471.24,514.47,470.9Z" />
        <path class="color-shadow-dark"
            d="M524.54,469.47l9.18-1.24c-.26.65-.36,1.69-.82,1.88-.88.35-1.95.75-2.73.37l-5.74,1.18C524.47,470.79,524.51,470.13,524.54,469.47Z" />
        <path class="transparent" d="M515.35,508.2l4.18-7.7.42.22-4.17,7.71Z" />
        <path class="transparent"
            d="M509.42,508.71l-3,.31a1.89,1.89,0,0,1,2.24-1.28C508.9,507.78,509.1,508.28,509.42,508.71Z" />
        <path class="transparent"
            d="M514.59,477.12a16.57,16.57,0,0,1-.35-1.84c0-.17.25-.37.38-.56.12.17.34.33.34.49,0,.66-.08,1.31-.13,2Z" />
        <path class="color-shadow-dark" d="M534.68,459.56l.24-1.09,1.48-.38C536.3,459.27,536.3,459.27,534.68,459.56Z" />
        <path class="color-shadow" d="M510.8,464.36l-.5,0v-.14l.53-.07Z" />
        <path class="color-shadow"
            d="M529.66,348c-.33-5-.5-9.94-1-14.87a96.64,96.64,0,0,0-4.4-20c-2.39-7.26-4.81-14.51-7.07-21.81-1.45-4.67-2.67-9.42-3.95-14.14-1-3.88-2-7.78-3.05-11.65a17.51,17.51,0,0,0-1.36-3.3,1.21,1.21,0,0,0-1.08-.47q-7.38,2.6-14.71,5.31c-1.75.65-3.48,1.4-5.16,2.22a8.24,8.24,0,0,0-4.78,7c-.43,3.95-1,7.88-1.4,11.82-.24,2.33-.37,4.68-.5,7a68.49,68.49,0,0,0-.21,7.16c.18,3.05.66,6.07,1,9.11s.65,6,1.12,9c.57,3.56,1.18,7.13,2,10.64A68.82,68.82,0,0,1,487,341.83c.35,4.79.84,9.57,1.41,14.33.63,5.24,1.26,10.48,2.2,15.67a83,83,0,0,0,4.48,15.71,12.85,12.85,0,0,1,1,6.19,25.8,25.8,0,0,1-.71,3,6.67,6.67,0,0,1-1.58-.79,61.39,61.39,0,0,1-5.67-5.5,22.84,22.84,0,0,1-2.53-4.71,10.18,10.18,0,0,1-.59-7.2,4.86,4.86,0,0,0,.06-1.08c0-3,.08-6,0-9-.19-6.37-.46-12.74-.72-19.1-.12-2.94-.26-5.89-.48-8.82-.26-3.56-.6-7.12-.93-10.68-.31-3.31-.55-6.65-1-9.94s-1.05-6.35-1.75-9.48c-.76-3.37-1.82-6.67-2.54-10.05a14,14,0,0,1,0-4.13c.26-3,.62-6.07.92-9.11.32-3.2.65-6.39.93-9.59.14-1.55.09-3.11.31-4.64a5,5,0,0,1,1-2.31,16.35,16.35,0,0,1,5.59-4.21c3.37-1.74,6.6-3.78,10.07-5.24,3.25-1.36,6.75-2.12,10.13-3.15,1.41-.43,2.81-.88,4.36-1.37.52,2,.92,4.08,1.6,6.05,1.57,4.55,3.21,9.08,5,13.57,2.22,5.67,4.71,11.24,6.81,17a47.21,47.21,0,0,1,1.78,8.14c.56,3.16,1,6.34,1.42,9.52s.64,6.32,1,9.47c.29,2.44.68,4.87,1,7.31.23,1.77.54,3.53.64,5.31.16,2.95.23,5.9.25,8.85,0,1.83-.13,3.66-.25,5.48C530.09,347.53,529.82,347.76,529.66,348Z" />
        <path class="outline"
            d="M514.5,423.94l2.65-1.58c2.17-.78,4.35-1.52,6.5-2.36,2.68-1,5.33-2.16,8.25-2.27a3.32,3.32,0,0,1,1.6.3.87.87,0,0,1-.47,1.66c-3.89-1-7.24.85-10.74,1.92C519.7,422.41,517.1,423.17,514.5,423.94Z" />
        <path class="color-shadow" d="M531.56,415.19c-.07-2-.14-4-.22-6,.24.13.55.21.7.41a13,13,0,0,1,2,5.2Z" />
        <path class="color-shadow" d="M529.42,354l.45-1Z" />
        <path class="color-shadow" d="M529.4,357.35c.08-.33.15-.65.23-1C529.55,356.7,529.48,357,529.4,357.35Z" />
        <path class="outline" d="M62.71,243.39l-.56,0c0-.09,0-.17,0-.26Z" />
        <path class="outline" d="M62.17,243.37l-.25.26Z" />
        <path class="color-shadow"
            d="M278.83,200.38c.16,1.13.38,2.27.47,3.41.14,1.7.21,3.42.26,5.13.1,3.22.23,6.45.23,9.68s-.14,6.7-.23,10.05c-.07,2.63-.26,5.26-.22,7.89.11,6.65.3,13.31.47,20,.07,3,.16,6,.23,9,.09,3.47.31,6.95.2,10.41s-.58,6.64-.87,10c-.19,2.14-.39,4.27-.51,6.41-.13,2.39-.17,4.78-.26,7.17-.07,2.11-.17,4.22-.23,6.33,0,.81-.33.94-1.15.8a207.7,207.7,0,0,1-24.08-5.89c-9.94-3-19.84-6.16-29.48-10.08-2.17-.88-4.24-2-6.37-3-2.6-1.22-5.23-2.38-7.79-3.67-3.77-1.9-7.57-3.75-11.2-5.89a83.15,83.15,0,0,1-7.17-5.15,17.74,17.74,0,0,0-6-2.89c-2.65-.71-5.33-1.34-7.93-2.23a55.36,55.36,0,0,1-13.06-6.4c-2-1.38-4.31-2.41-6.36-3.76a37.63,37.63,0,0,1-9.69-9.07A34.9,34.9,0,0,1,143,238.09c-.94-2.94-3.18-4.46-6-5.28l-.91-.28c.84-2.16,2.26-2.54,4.05-1.45a32.63,32.63,0,0,1,11.08,11,79.18,79.18,0,0,0,10.33,14.15,18.93,18.93,0,0,0,7.86,4.65,155.11,155.11,0,0,1,19.25,7.81c4.8,2.34,9.69,4.5,14.51,6.81,3.71,1.77,7.24,4,11.06,5.43,6.11,2.3,12.35,4.23,18.6,6.1,5.22,1.56,10.53,2.84,15.8,4.21,5.42,1.42,10.85,2.8,16.28,4.23,1.64.43,3.26,1,5.06,1.5.27-2,.54-3.8.77-5.64.56-4.49,1.13-9,1.64-13.47.38-3.23.66-6.47,1-9.71.37-3.55.79-7.1,1.15-10.65.21-2.09.34-4.19.52-6.29.31-3.52.63-7,.93-10.56.11-1.23.2-2.46.26-3.69.18-3.18.33-6.36.5-9.54.23-4.52.44-9.06.73-13.58.27-4.24.62-8.48,1-12.72C278.4,200.84,278.68,200.61,278.83,200.38Z" />
        <path class="color-shadow-dark"
            d="M186.89,236.39a5.17,5.17,0,0,1-.82-1.07q-2.49-5.7-4.91-11.43c-1.09-2.61-2.09-5.26-3.22-7.86a30,30,0,0,0-5.91-8.36,5,5,0,0,1-.92-1.36,1.38,1.38,0,0,1,1.11-1.83c1-.16,3.28,1.37,3.62,2.46-1,.28-.31.71-.07,1,.76,1,1.66,2,2.33,3a61.71,61.71,0,0,1,7.15,17.19C185.94,230.9,186.35,233.66,186.89,236.39Z" />
        <path class="outline"
            d="M186.89,236.39c-.54-2.73-.95-5.49-1.64-8.18A61.71,61.71,0,0,0,178.1,211c-.67-1.08-1.57-2-2.33-3-.24-.33-.88-.76.07-1,5.41,5,8.06,11.58,9.77,18.47a132,132,0,0,1,2.93,17c.39,3.42-.1,7-.21,10.43,0,.1-.1.2-.26.47.1-2,.29-3.86.26-5.7a52.2,52.2,0,0,0-.45-5.59C187.63,240.14,187.23,238.27,186.89,236.39Z" />
    </g>
</svg>
