<svg id="manshety" xmlns="http://www.w3.org/2000/svg" viewBox="0 0 672 960">
    <g id="img_40_img" data-name="img 40 img">
        <path class="outline"
            d="M38.3,233.94l.24-.61.72-2,.23-.61.25-.59,1.7-1.7.51-.17L45,226.72l.58-.24.6-.27.6-.23.61-.23,1.31-.47.61-.25,3.95-1.64,1.85-.95.53-.36.93-.58.52-.36a.5.5,0,0,1,.19-.13l1-.85,1.87-1.79.53-.36,3.5-.67,2-.17,19.08-.72c.68,0,1.35-.08,2-.11a2.83,2.83,0,0,0,2.44-1.82,2.29,2.29,0,0,1,1.2-1.14c5.19-1.46,10.4-2.85,15.61-4.25,3.92-1,7.84-2.15,11.79-3.1a31.6,31.6,0,0,1,3.79-.25c1.81-.21,3.62-.46,5.4-.83q6.38-1.33,12.7-2.79c5.2-1.19,10.35-2.58,15.58-3.59a62.75,62.75,0,0,1,9.7-1c5.46-.18,10.94-.08,16.41-.21,5.06-.13,10.1-.39,15.15-.59,3.19-.13,6.37-.27,9.56-.35,3.51-.09,7,0,10.53-.23,3-.16,5.91-.61,8.87-.89s6.17-.53,9.25-.81c2.92-.27,5.83-.6,8.75-.87,2.76-.25,5.53-.45,8.3-.69s5.37-.51,8-.78l7.22-.73,9-.89c1.45-.15,2.91-.28,4.38-.42,0,2.27,0,4.54,0,6.81.56,24.9,1.1,49.81,1.76,74.71.15,5.71.95,11.4,1.08,17.11.18,7.55,0,15.11-.05,22.66,0,1.87,0,3.73,0,5.6l-.44.08a14.81,14.81,0,0,0-.73-1.85c-.18-.33-.56-.75-.86-.77a68.58,68.58,0,0,1-17.64-3.84c-9.1-3-18.2-6.06-27.21-9.34-5.85-2.13-11.51-4.77-17.3-7.05-6.85-2.7-13.78-5.21-20-9.17-4.11-2.61-8.07-5.47-12-8.31a18.6,18.6,0,0,0-8.69-3.47A43.21,43.21,0,0,1,162,267.49,129,129,0,0,1,149,258.21a13,13,0,0,1-2.9-4.16c-1.25-2.32-2.31-4.73-3.45-7.11a1.53,1.53,0,0,0-2.16-.87c-.64.24-1.29.43-1.93.66-2.18.77-4.23.32-5.47-1.52-2.08-3.05-5.32-4.23-8.3-5.89a4.36,4.36,0,0,0-5,.29c-3.46,2.67-7.51,3.13-11.59,3.68-2.18.3-4.34.68-6.52,1s-4.51.6-6.77.88c-1.84.23-2.4-.36-2.13-2.2a2.5,2.5,0,0,0-.06-.54c-1.74.49-3.4,1-5.09,1.4-2.37.55-4.82.85-7.13,1.57a79.39,79.39,0,0,0-7.65,3c-2.38,1-4.7,2.21-7.06,3.3A16.08,16.08,0,0,1,57.65,253a2.61,2.61,0,0,1-2.3-2.14,2.94,2.94,0,0,1,.87-3.48c2-1.51,4-3,6-4.36,1.77-1.22,3.61-2.36,5.41-3.56a6.86,6.86,0,0,0,1.46-1.22c.38-.47,1-1.25.8-1.6-.61-1.41-1.29-1.59-2.64-1.23-1.11.3-2.27.44-3.37.76a2.73,2.73,0,0,0-1.57.9c-1.42,2.44-3.74,3.89-5.95,5.38a38.23,38.23,0,0,1-5.81,3,1.88,1.88,0,0,1-1.71-.22A1.58,1.58,0,0,1,49,243c1.52-1.83,3-3.68,4.54-5.52l-.2-.29c-.63.32-1.26.64-1.88,1a5.52,5.52,0,0,0-3.17,3.26,31.6,31.6,0,0,1-2.5,5.3c-1.46,2.72-2.73,3.3-5.81,2.92-.32,0-.76.32-1,.6a9.21,9.21,0,0,1-6,3.22c-1.6.16-2.26-.85-1.57-2.33,1.16-2.5,2.3-5,3.45-7.49l1-1c-.06,1.6-.12,3.21-.17,4.82h-.38l-.32-1.41c-.89,1.92-2.2,3.66-2.3,5.88a7.59,7.59,0,0,0,5.52-2.73,31.23,31.23,0,0,0,5.92-9.1,10,10,0,0,1,3.47-4.35A27.17,27.17,0,0,1,58,231.82c3-.55,6-1,8.93-1.8a11.61,11.61,0,0,1,6.11.34c.21.06.37.32.78.68-1.34.16-2.4.26-3.45.42-.85.12-1.7,1.08-1.43,1.73.45,1.07,1.06,2.07,1.67,3.22a78.31,78.31,0,0,1,7-6.63c-1.81,2.45-3.73,4.77-5.74,7a14.91,14.91,0,0,1-2.58,2.31c-3.91,2.76-7.86,5.45-11.78,8.18a5.66,5.66,0,0,0-.82.87c2.72-.71,5.19-2.83,8-.65a12.13,12.13,0,0,0-2.06-.13,8.93,8.93,0,0,0-5,2.7c-.92,1-.78,1.48.6,1.67a12,12,0,0,0,7.33-1c2.34-1.2,4.79-2.21,7.21-3.27,2.1-.91,4.21-1.84,6.37-2.61,1.23-.44,2.58-.52,3.86-.85,3-.75,5.94-1.56,8.91-2.34a1.25,1.25,0,0,0,1-1.73,29.5,29.5,0,0,1-.67-3c-.31-2.66-.56-5.32-.8-8-.17-2-.25-4-.45-6s-.51-4-.76-5.92c-1.13,0-2-.05-2.94,0q-6.41.38-12.79.79c-3.46.21-7,.23-10.37.73-1.79.25-3.45,1.36-5.16,2.08l.14.34h10a2.25,2.25,0,0,1-1.16.52,61.35,61.35,0,0,0-6.53.86c-6.67,1.66-13.33,3.38-19.41,6.74a3.59,3.59,0,0,0-1.36,1.59c-1,2.18-1.89,4.4-2.79,6.62-.71,1.75-1.37,3.52-2.05,5.29l.1-1.74.29-.92.15-.54.52-1.55.45-1.33.77-2Zm180.09-36.31c-4.67.11-9.34.19-14,.35-5.23.17-10.45.44-15.67.61-4.31.15-8.62.22-12.94.34-4.5.14-9,.19-13.51.49a46.2,46.2,0,0,0-7.67,1.2c-6.41,1.55-12.74,3.36-19.16,4.86a47.5,47.5,0,0,1-11.71,1.6,23.84,23.84,0,0,0-7.26,1.15c-6.84,2.06-13.7,4.07-20.59,6-3.93,1.08-4.57,1.83-3.45,5.74a50.63,50.63,0,0,1,1.36,10.75c.23,3.5.75,7,1.23,10.45a1.61,1.61,0,0,0,2,1.55c.91-.12,1.84-.07,2.75-.19,3.64-.5,7.27-1,10.91-1.55a21.57,21.57,0,0,0,10.13-3.69,2.39,2.39,0,0,1,2.9-.17,29.62,29.62,0,0,0,4.08,2.27,16.88,16.88,0,0,1,6.69,4.49,2.47,2.47,0,0,0,2,.58c1.62-.34,3.19-.94,4.95-1.49-1.26-3.05-.79-6.9-4.43-8.85a3,3,0,0,1,3,1.32,28.42,28.42,0,0,1,4.36,9.66c.23.8.5,1.59.8,2.37.61,1.6,1.39,3.15,1.86,4.79a12.25,12.25,0,0,0,4.95,6.85,68.71,68.71,0,0,0,14.4,7.82,67.52,67.52,0,0,0,11.95,3.8c1.45.27,2.88.64,4.3,1,3.25.93,5.76,3.1,8.29,5.16a76.62,76.62,0,0,0,19.51,11.83c5,2,10.06,3.68,15,5.77,9.73,4.14,19.74,7.44,29.8,10.61,7.34,2.31,14.52,5.18,22.19,6.34,1.71.26,3.44.38,5.17.57.14-3.53.41-6.84.37-10.14-.06-5-.32-10-.52-15-.12-3-.3-6-.42-9-.27-6.78-.55-13.56-.76-20.35-.13-4-.15-8-.22-12s-.15-8.23-.2-12.34c-.13-8.79-.23-17.58-.37-26.38,0-1.39-.12-2.78-.22-4.17-.29-3.71-.6-7.41-.9-11.15l-10.47.89c-2.3.2-4.6.43-6.91.65l-10.47,1c-3.05.3-6.11.55-9.16.88-4.4.46-8.79,1-13.19,1.47l-8.66.91ZM49.51,244.55l.38.33a21.93,21.93,0,0,0,10.22-7c.52-.66,1-1.37,1.53-2,1.24-1.34,3-1.65,4.62-2.08s1.93-.74,1.64-2.31c-2.26.42-4.66.49-6.76,1.33-2.35.93-4.72,2-6.24,4.4-1.36,2.15-3.13,4-4.69,6A8.81,8.81,0,0,0,49.51,244.55Zm7.12-11a15.27,15.27,0,0,0-9,3.21A7.55,7.55,0,0,0,45,240.38a19.3,19.3,0,0,1-1.42,3c-.9,1.61-1.89,3.18-2.86,4.8a3.61,3.61,0,0,0,4-1.89,30.7,30.7,0,0,0,2-3.82,10.47,10.47,0,0,1,4.62-5.23C53.12,236.18,54.84,234.82,56.63,233.58Zm2.17-12.47.08.16s.08-.06.08-.08a1.3,1.3,0,0,0-.08-.17Z" />
        <path class="color-shadow-dark"
            d="M481.4,266l4.75-2.74.54-.26,0,0,.24-.23,0-.06.06.05.39-.27,0,0a13.15,13.15,0,0,0,1.64-.68c6.91-3.9,14.39-6.56,21.62-9.74.7-.31,1-.23,1.29.58,1.86,5.74,3.84,11.44,5.67,17.19,3,9.35,6.19,18.66,8.79,28.13a180.34,180.34,0,0,1,5.69,30.43c.57,5.9,1.49,11.79,1,17.75-.39,4.45-.73,8.9-1.32,13.32-1.2,8.89-2.81,17.73-3.77,26.64-.84,7.78.78,15,6.75,20.74,2.24,2.15,3.72,4.93,3,8.09a32.47,32.47,0,0,1-2.8,6.7c-.93,1.94-2.3,3.57-1.47,6.09,1.1,3.35,1.72,6.85,2.54,10.29a1.45,1.45,0,0,0,.09.22,33.14,33.14,0,0,1,2.5,16.75,41.91,41.91,0,0,0-.43,5.25c0,2.83.15,5.66.28,8.5,0,.55,0,.73-.64.82-4.31.59-8.61,1.23-12.91,1.89-3.67.56-7.32,1.25-11,1.76-2,.26-2.49-.19-2.94-2.09-1-4.27-2-8.55-3-12.83-.76-3.26-1.49-6.52-3.38-9.41a10.66,10.66,0,0,1-2-5.63,14.52,14.52,0,0,0-4.23-9.67c-1.57-1.61-3.08-3-2.63-5.49,0-.1-.07-.23-.08-.34-.19-1.78-.47-3.56-.55-5.34-.21-5,.28-10.07-.81-15-.24-1.14-.46-2.29-.72-3.56l2.45.36c.26,2,.4,4,.8,6A73.89,73.89,0,0,1,498.72,427a9.2,9.2,0,0,0,2.08,6.34,21.36,21.36,0,0,1,3.31,5.72,2.56,2.56,0,0,1-.06,1.39c-.13.64-.63,1.36-.46,1.89a33.5,33.5,0,0,0,1.89,4.46c.62,1.29,1.47,2.47,2.06,3.76,1.59,3.51,2.17,7.28,2.93,11,.4,2,1.1,3.94,1.66,5.92.34,1.05.61,2.14,1,3.15.11.26.74.46,1.1.42,2.83-.38,5.66-.81,8.49-1.23,4.12-.62,8.24-1.28,12.37-1.82.89-.11,1-.43,1-1.18-.11-2.47-.2-5-.24-7.42,0-1.75.09-3.51.07-5.27-.05-3.5.32-7.08-.35-10.47-.84-4.27-2.59-8.36-3.85-12.56-.58-1.95-1.31-3.88-.55-6.05.62-1.76-.64-2.87-2.5-2.52-.5.09-1,0-1.55.07a9.53,9.53,0,0,0-2.12.6c-1.11.53-2.1,1.48-3.25,1.72a54.29,54.29,0,0,1-6.74.76c-.38,0-.79-.39-1.18-.6l.62-1.17c2.6-.77,5.2-1.53,7.79-2.33,3.5-1.07,6.85-2.93,10.74-1.92a1.16,1.16,0,0,0,.94-.62,1.18,1.18,0,0,0-.47-1,3.32,3.32,0,0,0-1.6-.3c-2.92.11-5.57,1.23-8.25,2.27-2.15.83-4.33,1.57-6.5,2.36a4.72,4.72,0,0,1,.81-.95c1.38-.86,2.83-1.61,4.18-2.5a27.43,27.43,0,0,1,9.42-3.72l2.48-.41a13,13,0,0,0-2-5.2c-.15-.2-.46-.28-.7-.41a3,3,0,0,0-.17-.92c-.64-1.1-1.36-2.16-2-3.26-1.36-2.42-3.21-4.62-3.59-7.49-.29-2.2-.53-4.42-.73-6.63a17.1,17.1,0,0,1-.16-4c.49-3.18,1.26-6.31,1.82-9.47q1.14-6.57,2.12-13.16c.34-2.28.51-4.58.76-6.86.08-.33.15-.65.23-1l-.21-2.37.45-1-.21-5c.16-.24.43-.47.44-.72.12-1.82.26-3.65.25-5.48,0-2.95-.09-5.9-.25-8.85-.1-1.78-.41-3.54-.64-5.31-.33-2.44-.72-4.87-1-7.31-.37-3.15-.61-6.32-1-9.47s-.86-6.36-1.42-9.52a48.52,48.52,0,0,0-1.82-8.25c-2.1-5.72-4.6-11.29-6.82-17-1.73-4.45-3.35-8.94-4.91-13.46-.68-2-1.08-4-1.6-6.05-1.55.49-2.95.94-4.35,1.37a104.37,104.37,0,0,0-10.13,3.15c-3.48,1.46-6.71,3.49-10.07,5.24a19.42,19.42,0,0,0-5.56,4.09A3.46,3.46,0,0,0,479.7,273c0,1.5-.11,3-.25,4.52-.28,3.2-.61,6.4-.93,9.6-.3,3-.66,6.07-.92,9.11a14.25,14.25,0,0,0-.05,4.12c.73,3.38,1.78,6.68,2.54,10.05.71,3.14,1.31,6.3,1.76,9.48s.7,6.63,1,9.95c.33,3.56.67,7.11.93,10.67.22,2.94.36,5.88.48,8.82.26,6.21.53,12.41.71,18.62.1,3.16,0,6.32,0,9.48a4.25,4.25,0,0,1-.06,1.07,10,10,0,0,0,.6,7.2,31.08,31.08,0,0,0,3,5.23,38.57,38.57,0,0,0,4.65,4.47,14.51,14.51,0,0,0,2.1,1.31,14.33,14.33,0,0,0,1.62,1c3.21,1.37,6.44,2.71,9.66,4.06.36.32.7.64,1.07.94.67.52,1.35,1,2,1.52a49.64,49.64,0,0,0-12.91-2.34,7.86,7.86,0,0,1-4.7-1.55c-4.23-3.26-5.86-8.1-7.29-12.81-2-6.51-1.92-13.38-2.15-20.16-.16-4.74-.19-9.5-.35-14.24-.07-2.23-.2-4.46-.46-6.67-.76-6.24-1.58-12.47-2.41-18.7-.79-6-1.66-12-2.45-18-.51-3.83-1.18-7.66-1.34-11.51a100.91,100.91,0,0,1,.46-11c.33-4.76.74-9.53,1.18-14.29.22-2.41,1-4.58,3.19-6A5.17,5.17,0,0,0,481.4,266Z" />
        <path class="outline"
            d="M496.05,404.23l-2.45-.36c.26,1.27.48,2.42.72,3.56,1.09,5,.6,10,.81,15,.08,1.78.36,3.56.55,5.34,0,.11.1.24.08.34-.45,2.48,1.06,3.88,2.63,5.49a14.52,14.52,0,0,1,4.23,9.67,10.66,10.66,0,0,0,2,5.63c1.89,2.89,2.62,6.15,3.38,9.41,1,4.28,1.95,8.56,3,12.83.45,1.9,1,2.35,2.94,2.09,3.68-.51,7.33-1.2,11-1.76,4.3-.66,8.6-1.3,12.91-1.89.62-.09.67-.27.64-.82-.13-2.84-.28-5.67-.28-8.5a41.91,41.91,0,0,1,.43-5.25,33.14,33.14,0,0,0-2.5-16.75,1.45,1.45,0,0,1-.09-.22c-.82-3.44-1.44-6.94-2.54-10.29-.83-2.52.54-4.15,1.47-6.09a32.47,32.47,0,0,0,2.8-6.7c.7-3.16-.78-5.94-3-8.09-6-5.74-7.59-13-6.75-20.74,1-8.91,2.57-17.75,3.77-26.64.59-4.42.93-8.87,1.32-13.32.53-6-.39-11.85-1-17.75A180.34,180.34,0,0,0,526.39,298c-2.6-9.47-5.79-18.78-8.79-28.13-1.83-5.75-3.81-11.45-5.67-17.19-.26-.81-.59-.89-1.29-.58-7.23,3.18-14.71,5.84-21.62,9.74a13.15,13.15,0,0,1-1.64.68c5.1-3.39,10.73-5.77,16.23-8.39,3.05-1.46,6.15-2.83,9.24-4.23a4.29,4.29,0,0,1,.55-.15c.65,2.08,1.26,4.13,2,6.16,2.07,6.17,4.14,12.34,6.28,18.48a234.53,234.53,0,0,1,7.51,27.42c1.42,6.47,2.67,13,3.81,19.51.62,3.55.91,7.17,1.23,10.76.29,3.21.48,6.44.58,9.66a109.49,109.49,0,0,1-1.5,18.79c-.93,6.54-1.8,13.09-2.66,19.63-.27,2.09-.47,4.19-.63,6.29-.36,4.51,1,8.67,2.54,12.8a21.89,21.89,0,0,0,3.43,5.87c1.87,2.35,3.58,4.87,3.69,8a11.69,11.69,0,0,1-.52,4.21,28.29,28.29,0,0,1-2.72,5.72c-1.93,3-1.87,6-.56,9.23a34.87,34.87,0,0,1,1.59,6c.85,4.06,1.78,8.12,2.36,12.23a64.93,64.93,0,0,1,.2,7.9c.06,2.8.14,5.6.2,8.4a15.43,15.43,0,0,1,0,2.15c-.24,1.92-.64,2.24-2.6,2.42-1.22.11-2.43.32-3.6.48.19,2.07.3,4,.58,6,.81,5.68,1.53,11.39,2.62,17a9.74,9.74,0,0,1-1.18,6.41c-2.34,4.85-4.76,9.66-7.16,14.49a11.35,11.35,0,0,1-3.12,3.54c-2.43,2.07-4.7,4.33-6.93,6.61-1.44,1.48-2.7,3.15-4,4.74a1.4,1.4,0,0,1-2.55-.27,5.38,5.38,0,0,1-.21-4.2c.38-1.28.82-2.54,1.33-4.06-.45.22-.72.31-1,.46-1.43,1-2.82,2-4.28,2.87-1.89,1.15-3.42.31-3.5-1.93-.1-2.89,1.53-4.86,3.67-6.51.66-.5,1.37-.95,2.23-1.55l-2.95-.93c-.8-.27-1.59-.54-2.36-.87-2-.86-2.22-2.4-.47-3.74a2.32,2.32,0,0,0,.92-1.47c.15-.61,1-1.19,1.61-1.52a7.71,7.71,0,0,1,2.16-.38c.59-2.48,1.18-5,1.79-7.56,1.14-4.76,2.41-9.5,3.35-14.3a15.7,15.7,0,0,0-.3-5.18,43.45,43.45,0,0,0-1.06-4.3l-.74-.05c-1.59,0-2.1-.31-2.5-1.86-1-3.94-1.94-7.91-2.86-11.88-.72-3.11-1.37-6.24-2.09-9.36a2.07,2.07,0,0,0-.72-1.15,7.18,7.18,0,0,1-3.17-5.78A19.45,19.45,0,0,0,495.88,433a4,4,0,0,1-1-1.73c-.52-2.57-1.06-5.16-1.36-7.77-.47-4-.72-8.12-1.13-12.17-.25-2.58-.61-5.15-1-7.72a1.82,1.82,0,0,0-.64-.95,13.68,13.68,0,0,1-5-8c-.9-4.25-2.21-8.41-3.28-12.62a12.47,12.47,0,0,1-.29-2.73c-.43-11.43-.75-22.87-1.31-34.29-.21-4.22-.93-8.42-1.51-12.61-1.38-9.81-2.94-19.59-4.16-29.42-.61-4.95-.64-10-.93-14.94,1.17-2.14.81-4.55,1.14-6.83.55-3.91.92-7.86,1.42-11.78a1.82,1.82,0,0,1,.75-1.16c1.24-.8,2.54-1.5,3.82-2.23a5.17,5.17,0,0,1-.94,1c-2.21,1.39-3,3.56-3.19,6-.44,4.76-.85,9.53-1.18,14.29a100.91,100.91,0,0,0-.46,11c.16,3.85.83,7.68,1.34,11.51.79,6,1.66,12,2.45,18,.83,6.23,1.65,12.46,2.41,18.7.26,2.21.39,4.44.46,6.67.16,4.74.19,9.5.35,14.24.23,6.78.17,13.65,2.15,20.16,1.43,4.71,3.06,9.55,7.29,12.81a7.86,7.86,0,0,0,4.7,1.55,49.64,49.64,0,0,1,12.91,2.34c1.54.72,3.1,1.39,4.62,2.16a7.15,7.15,0,0,1,3.54,3.8l-.59-.32a5.11,5.11,0,0,0-3.48-2.89c-3.08-.82-6.18-1.56-9.31-2.11-2.22-.39-4.5-.41-6.76-.6Zm32.48,72.83.37.09c-.27,1.37-.43,2.77-.83,4.1-1.11,3.61-2.33,7.2-3.48,10.8a2.58,2.58,0,0,0-.1,1.26c.36,1.87.86,3.72,1.16,5.59.35,2.16.53,4.27-.55,6.38a46.61,46.61,0,0,0-2.37,6,10.67,10.67,0,0,1-2.16,3.65A87.56,87.56,0,0,0,514.9,522a10.75,10.75,0,0,0-1.53,3.84,10.2,10.2,0,0,0,.12,3.25c0,.21.53.37.82.55.14-.29.41-.59.4-.87a4.27,4.27,0,0,1,2.51-4.11l-1.25,2a.57.57,0,0,0,.54-.09c3.26-2.94,6.52-5.86,9.77-8.81a4.8,4.8,0,0,0,1.12-1.39c2.88-5.92,5.74-11.85,8.53-17.81a3.33,3.33,0,0,0,.14-2.18c-1.41-4.62-1.58-9.42-2.1-14.16-.33-3.09-.54-6.19-.74-9.29-.06-.84-.41-1-1.15-.89-1.7.26-3.4.47-5.1.72l-10.91,1.57c.08,1.87.17,3.53.22,5.19.14,4.29-1.25,8.32-2.2,12.41-1.37,5.88-2.85,11.73-4.21,17.61a6.27,6.27,0,0,0,.18,2.57c.18.87.89,1,1.37.34a11.75,11.75,0,0,0,1.86-3.44,4,4,0,0,0-.58-2.65c-.18-.34-1.13-.28-1.73-.41.41-.42,1.08-.92,1.4-.75a15.5,15.5,0,0,1,2.32,1.86l.55-.86c2.09-3.31,4.12-6.65,6.3-9.9a14.54,14.54,0,0,0,1.85-3.95c1.54-5,3.19-9.93,4.81-14.9A1.6,1.6,0,0,1,528.53,477.06ZM523.32,497c-.16.56-.26.89-.35,1.22a5.54,5.54,0,0,0-.12.71,40.54,40.54,0,0,1-3.59,12.42,5.05,5.05,0,0,1-3.38,3.12A15.07,15.07,0,0,0,512,516a37.57,37.57,0,0,0-5.33,4,3.24,3.24,0,0,0-.59,4.17c.33.62.65.89,1.29.5q4-2.4,8-4.84a1.88,1.88,0,0,0,.4-.44c1.61-1.76,3.24-3.51,4.83-5.29a5.32,5.32,0,0,0,1-1.56c1.14-3,2.22-6,3.31-9a1.63,1.63,0,0,0,.19-.91C524.55,500.82,524,499,523.32,497Zm-1.38-.11a9.83,9.83,0,0,1-.25,1A34.09,34.09,0,0,1,520.2,502c-.88,1.83-2,3.54-2.93,5.34a3.49,3.49,0,0,1-2,2.05c-.38.11-.7.59-.94,1-.67,1.08-1.21,2.25-2,3.27s-1.38.82-2.25.13c-1.2-1-1.27-2.3-1.34-3.69-1.37-.11-2.69-.18-3.8.74-.91.76-.85,1.49.23,2,1.39.59,2.85,1,4.24,1.6a4.75,4.75,0,0,0,4.41-.21c.75-.41,1.69-.47,2.48-.82a3.32,3.32,0,0,0,1.55-1.11,38.56,38.56,0,0,0,1.78-3.79C521.31,504.77,522.42,501,521.94,496.89Zm-2,3.83-.43-.23-4.18,7.73.41.22ZM506.37,509l3.11-.29c-.35-.45-.53-.92-.78-1A2,2,0,0,0,506.37,509ZM515,474.87c-1,.4-1,.4-.19,2.61Z" />
        <path class="color-shadow-dark" d="M53.3,223.39,49.35,225Z" />
        <path class="color-shadow-dark" d="M35.81,242.63l-1,1c.36-.91.73-1.81,1.09-2.71,0,.58-.06,1.16-.1,1.74Z" />
        <path class="color-shadow-dark" d="M66.19,217.17l-2,.17Z" />
        <path class="color-shadow-dark" d="M39.26,231.3l-.72,2Z" />
        <path class="color-shadow-dark" d="M58.33,220.16l-1,.85Z" />
        <path class="color-shadow-dark" d="M48.74,225.28l-1.31.47Z" />
        <path class="color-shadow-dark" d="M37.31,236.56l-.45,1.33Z" />
        <path class="color-shadow-dark" d="M42,228.23l-.51.17Z" />
        <path class="color-shadow-dark" d="M45.62,226.48l-.58.24Z" />
        <path class="color-shadow-dark" d="M46.82,226l-.6.23Z" />
        <path class="color-shadow-dark" d="M55.68,222.08l-.53.36Z" />
        <path class="color-shadow-dark" d="M57.13,221.14l-.52.36Z" />
        <path class="color-shadow-dark" d="M39.74,230.1l-.25.59Z" />
        <path class="color-shadow-dark" d="M60.73,218l-.53.36Z" />
        <path class="color-shadow-dark" d="M36.34,239.44l-.15.54Z" />
        <path class="color-shadow-dark" d="M38.3,233.94l-.22.59Z" />
        <path class="outline" d="M486.69,263l-.54.26Z" />
        <path class="outline" d="M487.41,262.53l-.39.27Z" />
        <path class="outline" d="M486.91,262.81l-.24.23Z" />
        <path class="color-base"
            d="M218.39,197.63l2.13-.22c-.15,1.24.57,1.41,1.55,1.27a13.71,13.71,0,0,1,1.41-.21c3.55-.09,7.09-.17,10.64-.24,4.27-.09,8.53-.15,12.8-.25,1.55,0,3.1-.17,4.65-.22q8-.27,16-.49a28.41,28.41,0,0,0,3.19,0c1.95-.3,3.88-.79,5.82-1.19,1.28-.26,1.57-.07,1.78,1.19.17,1,.31,2,.47,3.06-.15.23-.43.46-.45.7-.34,4.24-.69,8.48-1,12.72-.29,4.52-.5,9.06-.73,13.58-.17,3.18-.32,6.36-.5,9.54-.06,1.23-.15,2.46-.26,3.69-.3,3.52-.62,7-.93,10.56-.18,2.1-.31,4.2-.52,6.29-.36,3.55-.78,7.1-1.15,10.65-.35,3.24-.63,6.48-1,9.71-.51,4.5-1.08,9-1.64,13.47-.23,1.84-.5,3.67-.77,5.64-1.8-.54-3.42-1.07-5.06-1.5-5.43-1.43-10.86-2.81-16.28-4.23-5.27-1.37-10.58-2.65-15.8-4.21-6.25-1.87-12.49-3.8-18.6-6.1-3.82-1.44-7.35-3.66-11.06-5.43-4.82-2.31-9.71-4.47-14.51-6.81a155.11,155.11,0,0,0-19.25-7.81,18.93,18.93,0,0,1-7.86-4.65A79.18,79.18,0,0,1,151.16,242a32.63,32.63,0,0,0-11.08-11c-1.79-1.09-3.21-.71-4.05,1.45l-4.16-.73,4.42,4.1a6.8,6.8,0,0,1-1.21-.12,47.82,47.82,0,0,1-11.3-4.83,2.06,2.06,0,0,0-3,.33,4.48,4.48,0,0,1-1.51,1c-1.61.69-3.22,1.38-4.87,2-4.68,1.69-9.37,3.38-14.09,5-2.09.71-2.13.61-2.23-1.55l0-.48c-.31-3.08-.61-6.16-.93-9.23-.19-1.78-.36-3.56-.65-5.32-.22-1.3-.62-2.57-1-4,2.86-.42,5.64-.85,8.42-1.23,2.48-.34,5-.67,7.44-.93,2.74-.29,5.29-1.8,8.16-1.25l.11,0c3.56-.84,7.14-1.61,10.67-2.53,6.12-1.6,12.19-3.36,18.31-4.94s12.43-3,18.64-4.57a4.85,4.85,0,0,0,1.15-.64c1.07-.08,2.14-.21,3.21-.23,4.46-.11,8.92-.1,13.38-.29,2.73-.11,5.45-.44,8.17-.76,3.58-.41,7.15-.93,10.73-1.36s7-.76,10.5-1.24A32.36,32.36,0,0,0,218.39,197.63Zm-31.5,38.76c.34,1.88.74,3.75,1,5.64a49.91,49.91,0,0,1,.44,5.59c0,1.84-.15,3.68-.25,5.7.16-.27.26-.37.26-.47.11-3.48.6-7,.21-10.43a132,132,0,0,0-2.93-17c-1.71-6.89-4.36-13.46-9.77-18.47-.34-1.09-2.59-2.62-3.62-2.46a1.38,1.38,0,0,0-1.11,1.83,5.23,5.23,0,0,0,.92,1.37,29.81,29.81,0,0,1,5.91,8.35c1.13,2.6,2.13,5.25,3.22,7.86,1.61,3.82,3.25,7.62,4.91,11.43A5.17,5.17,0,0,0,186.89,236.39Z" />
        <path class="color-shadow-dark"
            d="M278.83,200.38c-.16-1-.3-2-.47-3.06-.21-1.26-.5-1.45-1.78-1.19-1.94.4-3.87.89-5.82,1.19a28.41,28.41,0,0,1-3.19,0q-8,.22-16,.49c-1.55.05-3.1.18-4.65.22-4.27.1-8.53.16-12.8.25-3.55.07-7.09.15-10.64.24a13.71,13.71,0,0,0-1.41.21c-1,.14-1.7,0-1.55-1.27l8.66-.91c4.4-.49,8.79-1,13.19-1.47,3-.33,6.11-.58,9.16-.88l10.47-1c2.31-.22,4.61-.45,6.91-.65l10.47-.89c.3,3.74.61,7.44.9,11.15.1,1.39.2,2.78.22,4.17.14,8.8.24,17.59.37,26.38.05,4.11.13,8.23.2,12.34s.09,8,.22,12c.21,6.79.49,13.57.76,20.35.12,3,.3,6,.42,9,.2,5,.46,10,.52,15,0,3.3-.23,6.61-.37,10.14-1.73-.19-3.46-.31-5.17-.57-7.67-1.16-14.85-4-22.19-6.34-10.06-3.17-20.07-6.47-29.8-10.61-4.92-2.09-10-3.74-15-5.77A76.62,76.62,0,0,1,191,276.89c-2.53-2.06-5-4.23-8.29-5.16-1.42-.4-2.85-.77-4.3-1a67.52,67.52,0,0,1-11.95-3.8,68.71,68.71,0,0,1-14.4-7.82,12.25,12.25,0,0,1-4.95-6.85c-.47-1.64-1.25-3.19-1.86-4.79-.3-.78-.57-1.57-.8-2.37a28.42,28.42,0,0,0-4.36-9.66,3,3,0,0,0-3-1.32c3.64,1.95,3.17,5.8,4.43,8.85-1.76.55-3.33,1.15-4.95,1.49a2.47,2.47,0,0,1-2-.58,16.88,16.88,0,0,0-6.69-4.49,29.62,29.62,0,0,1-4.08-2.27,2.39,2.39,0,0,0-2.9.17,21.57,21.57,0,0,1-10.13,3.69c-3.64.51-7.27,1.05-10.91,1.55-.91.12-1.84.07-2.75.19a1.61,1.61,0,0,1-2-1.55c-.48-3.47-1-6.95-1.23-10.45a50.63,50.63,0,0,0-1.36-10.75c-1.12-3.91-.48-4.66,3.45-5.74,6.89-1.89,13.75-3.9,20.59-6a23.84,23.84,0,0,1,7.26-1.15,47.5,47.5,0,0,0,11.71-1.6c6.42-1.5,12.75-3.31,19.16-4.86a46.2,46.2,0,0,1,7.67-1.2c4.49-.3,9-.35,13.51-.49,4.32-.12,8.63-.19,12.94-.34,5.22-.17,10.44-.44,15.67-.61,4.66-.16,9.33-.24,14-.35a32.36,32.36,0,0,1-3.95,1c-3.49.48-7,.81-10.5,1.24s-7.15,1-10.73,1.36c-2.72.32-5.44.65-8.17.76-4.46.19-8.92.18-13.38.29-1.07,0-2.14.15-3.21.23l-2.13.23c-3,.37-6,.66-9,1.12-3.25.51-6.47,1.21-9.72,1.76-3.52.6-7.06,1.06-10.57,1.69-2.65.48-5.26,1.18-7.92,1.69-3.54.67-7.1,1.27-10.66,1.84-.39.07-.85-.27-1.17-.38a24.41,24.41,0,0,1-4.07,1.87c-5.76,1.52-11.55,2.93-17.36,4.27-1.14.26-1.13.67-1,1.63.36,2.47.65,4.95.81,7.45.12,2,0,4,0,6a22.78,22.78,0,0,0,.52,2.91,27.19,27.19,0,0,1,.74,5c0,1.68.08,2,1.81,1.61,3.25-.7,6.54-1.27,9.78-2s6.85-1,10-2.58c1.46-.71,3-1.34,3.9-1.78,1.57.72,2.67,1.28,3.82,1.74a53.77,53.77,0,0,1,6.18,2.47c2.2,1.23,4.22.84,6.69.17l-2.91-3.34-4.42-4.1,4.16.73.91.28c2.84.82,5.08,2.34,6,5.28a34.9,34.9,0,0,0,5.17,10.42,37.63,37.63,0,0,0,9.69,9.07c2.05,1.35,4.33,2.38,6.36,3.76a55.36,55.36,0,0,0,13.06,6.4c2.6.89,5.28,1.52,7.93,2.23a17.74,17.74,0,0,1,6,2.89c2.37,1.75,4.65,3.66,7.17,5.16,3.45,2,7.07,3.81,10.66,5.61,2.85,1.43,5.77,2.74,8.65,4.1,2,1,4,2,6.06,2.85,9.63,3.91,19.53,7.06,29.47,10.08a207.7,207.7,0,0,0,24.08,5.89c.83.14,1.12,0,1.15-.8.15-4.26.28-8.52.48-12.78.12-2.38.32-4.76.52-7.13.28-3.32.76-6.64.87-10s-.11-6.94-.2-10.41c-.07-3-.16-6-.23-9-.17-6.66-.36-13.32-.47-20,0-2.62.15-5.25.22-7.88.09-3.35.22-6.7.23-10.05s-.13-6.46-.23-9.68c-.05-1.71-.12-3.43-.26-5.13C279.21,202.65,279,201.51,278.83,200.38Z" />
        <path class="transparent"
            d="M35.8,242.64c.68-1.77,1.34-3.54,2.05-5.29.9-2.22,1.8-4.44,2.79-6.62A3.59,3.59,0,0,1,42,229.14c6.08-3.36,12.74-5.08,19.41-6.74a61.35,61.35,0,0,1,6.53-.86A2.25,2.25,0,0,0,69.1,221h-10l-.14-.34c1.71-.72,3.37-1.83,5.16-2.08,3.42-.5,6.91-.52,10.37-.73q6.39-.41,12.79-.79c.9-.05,1.81,0,2.94,0,.25,1.91.55,3.91.76,5.92s.28,4,.45,6c.24,2.67.49,5.33.8,8a29.5,29.5,0,0,0,.67,3,1.25,1.25,0,0,1-1,1.73c-3,.78-5.93,1.59-8.91,2.34-1.28.33-2.63.41-3.86.85-2.16.77-4.27,1.7-6.37,2.61-2.42,1.06-4.87,2.07-7.21,3.27a12,12,0,0,1-7.33,1c-1.38-.19-1.52-.63-.6-1.67a8.93,8.93,0,0,1,5-2.7,12.13,12.13,0,0,1,2.06.13c-2.8-2.18-5.27-.06-8,.65a5.66,5.66,0,0,1,.82-.87c3.92-2.73,7.87-5.42,11.78-8.18a14.91,14.91,0,0,0,2.58-2.31c2-2.26,3.93-4.58,5.74-7a78.31,78.31,0,0,0-7,6.63c-.61-1.15-1.22-2.15-1.67-3.22-.27-.65.58-1.61,1.43-1.73,1-.16,2.11-.26,3.45-.42-.41-.36-.57-.62-.78-.68A11.61,11.61,0,0,0,67,230c-2.94.76-5.94,1.25-8.93,1.8a27.17,27.17,0,0,0-10.47,3.93,10,10,0,0,0-3.47,4.35,31.23,31.23,0,0,1-5.92,9.1,7.59,7.59,0,0,1-5.52,2.73c.1-2.22,1.41-4,2.3-5.88l.32,1.41h.38c0-1.61.11-3.22.17-4.82Z" />
        <path class="transparent"
            d="M49.51,244.55a8.81,8.81,0,0,1,.7-1.24c1.56-2,3.33-3.89,4.69-6,1.52-2.39,3.89-3.47,6.24-4.4,2.1-.84,4.5-.91,6.76-1.33.29,1.57.07,1.86-1.64,2.31s-3.38.74-4.62,2.08c-.56.61-1,1.32-1.53,2a21.93,21.93,0,0,1-10.22,7Z" />
        <path class="transparent"
            d="M56.63,233.58c-1.79,1.24-3.51,2.6-5.39,3.68a10.47,10.47,0,0,0-4.62,5.23,30.7,30.7,0,0,1-2,3.82,3.61,3.61,0,0,1-4,1.89c1-1.62,2-3.19,2.86-4.8a19.3,19.3,0,0,0,1.42-3,7.55,7.55,0,0,1,2.68-3.59A15.27,15.27,0,0,1,56.63,233.58Z" />
        <path class="transparent" d="M58.8,221.11l.08-.09a1.3,1.3,0,0,1,.08.17s-.05.05-.08.08Z" />
        <path class="color-base"
            d="M529.66,348l.21,5-.45,1,.21,2.37c-.08.33-.15.65-.23,1-.25,2.28-.42,4.58-.76,6.86q-1,6.59-2.12,13.16c-.56,3.16-1.33,6.29-1.82,9.47a17.1,17.1,0,0,0,.16,4c.2,2.21.44,4.43.73,6.63.38,2.87,2.23,5.07,3.59,7.49.63,1.1,1.35,2.16,2,3.26a3,3,0,0,1,.17.92c.08,2,.15,4,.22,6a27.43,27.43,0,0,0-9.42,3.72c-1.35.89-2.8,1.64-4.18,2.5a4.72,4.72,0,0,0-.81.95c-.88.53-1.76,1.06-2.65,1.58l-.62,1.17c.39.21.8.62,1.18.6a54.29,54.29,0,0,0,6.74-.76c1.15-.24,2.14-1.19,3.25-1.72a9.53,9.53,0,0,1,2.12-.6c.51-.09,1.05,0,1.55-.07,1.86-.35,3.12.76,2.5,2.52-.76,2.17,0,4.1.55,6.05,1.26,4.2,3,8.29,3.85,12.56.67,3.39.3,7,.35,10.47,0,1.76-.09,3.52-.07,5.27,0,2.47.13,4.95.24,7.42,0,.75-.12,1.07-1,1.18-4.13.54-8.25,1.2-12.37,1.82-2.83.42-5.66.85-8.49,1.23-.36,0-1-.16-1.1-.42-.43-1-.7-2.1-1-3.15a7.7,7.7,0,0,0,.12-1.84c-.56-3.12-1.1-6.25-1.84-9.33s-1.66-6-2.57-9c-.51-1.71-1.22-3.35-1.76-5.05s-.15-3.58-1.44-5a1.21,1.21,0,0,1-.16-.44q-3.06-12-6.11-23.91c-.22-.85-.31-1.73-.53-3,2.48.41,4.63.6,6.68,1.14,4.76,1.26,9.45,2.78,14.21,4a15.72,15.72,0,0,0,4.34.07,1.13,1.13,0,0,0,.75-.67,3.2,3.2,0,0,0-.78-3.83c-1.37-1.21-2.73-2.43-4.16-3.57-3.61-2.89-7.91-4.2-12.29-5.3-3.22-1.35-6.45-2.69-9.66-4.06a14.33,14.33,0,0,1-1.62-1,31.68,31.68,0,0,0,.71-3.46c.27-2.57-.63-5-1.53-7.29a82.83,82.83,0,0,1-4.15-15.18c-.88-4.87-1.41-9.81-2-14.74s-.88-9.65-1.47-14.45c-.41-3.38-1.07-6.73-1.67-10.09-.68-3.86-1.47-7.71-2.12-11.58-.39-2.34-.6-4.72-.9-7.08-.42-3.35-1-6.68-1.23-10a65.24,65.24,0,0,1,.2-7.52c.12-2.38.26-4.77.51-7.14.41-3.94,1-7.87,1.39-11.82a8.24,8.24,0,0,1,4.79-7c1.68-.81,3.4-1.56,5.16-2.21q7.32-2.73,14.71-5.31a1.2,1.2,0,0,1,1.07.47,17.51,17.51,0,0,1,1.36,3.3c1.07,3.87,2,7.78,3.06,11.65,1.27,4.73,2.49,9.47,3.93,14.14,2.27,7.3,4.69,14.55,7.08,21.81a96.5,96.5,0,0,1,4.4,20C529.16,338.06,529.33,343,529.66,348Z" />
        <path class="color-shadow"
            d="M529.66,348c-.33-5-.5-9.94-1-14.87a96.5,96.5,0,0,0-4.4-20c-2.39-7.26-4.81-14.51-7.08-21.81-1.44-4.67-2.66-9.41-3.93-14.14-1.05-3.87-2-7.78-3.06-11.65a17.51,17.51,0,0,0-1.36-3.3,1.2,1.2,0,0,0-1.07-.47q-7.38,2.6-14.71,5.31c-1.76.65-3.48,1.4-5.16,2.21a8.24,8.24,0,0,0-4.79,7c-.43,3.95-1,7.88-1.39,11.82-.25,2.37-.39,4.76-.51,7.14a65.24,65.24,0,0,0-.2,7.52c.23,3.36.81,6.69,1.23,10,.3,2.36.51,4.74.9,7.08.65,3.87,1.44,7.72,2.12,11.58.6,3.36,1.26,6.71,1.67,10.09.59,4.8.91,9.64,1.47,14.45s1.1,9.87,2,14.74A82.83,82.83,0,0,0,494.49,386c.9,2.33,1.8,4.72,1.53,7.29a31.68,31.68,0,0,1-.71,3.46,14.51,14.51,0,0,1-2.1-1.31,38.57,38.57,0,0,1-4.65-4.47,31.08,31.08,0,0,1-3-5.23,10,10,0,0,1-.6-7.2,4.25,4.25,0,0,0,.06-1.07c0-3.16.08-6.32,0-9.48-.18-6.21-.45-12.41-.71-18.62-.12-2.94-.26-5.88-.48-8.82-.26-3.56-.6-7.11-.93-10.67-.31-3.32-.55-6.65-1-9.95s-1.05-6.34-1.76-9.48c-.76-3.37-1.81-6.67-2.54-10.05a14.25,14.25,0,0,1,.05-4.12c.26-3,.62-6.08.92-9.11.32-3.2.65-6.4.93-9.6.14-1.5.26-3,.25-4.52a3.46,3.46,0,0,1,1.06-2.54,19.42,19.42,0,0,1,5.56-4.09c3.36-1.75,6.59-3.78,10.07-5.24A104.37,104.37,0,0,1,506.52,258c1.4-.43,2.8-.88,4.35-1.37.52,2,.92,4.08,1.6,6.05,1.56,4.52,3.18,9,4.91,13.46,2.22,5.67,4.72,11.24,6.82,17a48.52,48.52,0,0,1,1.82,8.25c.56,3.16,1,6.34,1.42,9.52s.64,6.32,1,9.47c.29,2.44.68,4.87,1,7.31.23,1.77.54,3.53.64,5.31.16,2.95.23,5.9.25,8.85,0,1.83-.13,3.66-.25,5.48C530.09,347.53,529.82,347.76,529.66,348Z" />
        <path class="color-shadow"
            d="M506.59,401.76c4.38,1.1,8.68,2.41,12.29,5.3,1.43,1.14,2.79,2.36,4.16,3.57a3.2,3.2,0,0,1,.78,3.83,1.13,1.13,0,0,1-.75.67,15.72,15.72,0,0,1-4.34-.07c-4.76-1.23-9.45-2.75-14.21-4-2-.54-4.2-.73-6.68-1.14.22,1.23.31,2.11.53,3q3,12,6.11,23.91a1.21,1.21,0,0,0,.16.44c1.29,1.46.91,3.38,1.44,5s1.25,3.34,1.76,5.05c.91,3,1.84,6,2.57,9s1.28,6.21,1.84,9.33a7.7,7.7,0,0,1-.12,1.84c-.56-2-1.26-3.92-1.66-5.92-.76-3.74-1.34-7.51-2.93-11-.59-1.29-1.44-2.47-2.06-3.76a33.5,33.5,0,0,1-1.89-4.46c-.17-.53.33-1.25.46-1.89a2.56,2.56,0,0,0,.06-1.39,21.36,21.36,0,0,0-3.31-5.72,9.2,9.2,0,0,1-2.08-6.34,73.89,73.89,0,0,0-1.87-16.77c-.4-2-.54-4-.8-6l1.66,0a2,2,0,0,0,.66.36c1.4.2,2.82.36,4.23.55a43.94,43.94,0,0,1,10.2,3.13c1.46.59,3,1.05,4.46,1.56l.59.32a7.15,7.15,0,0,0-3.54-3.8c-1.52-.77-3.08-1.44-4.62-2.16-.68-.51-1.36-1-2-1.52C507.29,402.4,507,402.08,506.59,401.76Z" />
        <path class="outline"
            d="M514.5,423.94c.89-.52,1.77-1.05,2.65-1.58,2.17-.79,4.35-1.53,6.5-2.36,2.68-1,5.33-2.16,8.25-2.27a3.32,3.32,0,0,1,1.6.3,1.18,1.18,0,0,1,.47,1,1.16,1.16,0,0,1-.94.62c-3.89-1-7.24.85-10.74,1.92C519.7,422.41,517.1,423.17,514.5,423.94Z" />
        <path class="color-shadow" d="M531.56,415.19c-.07-2-.14-4-.22-6,.24.13.55.21.7.41a13,13,0,0,1,2,5.2Z" />
        <path class="color-shadow" d="M529.42,354l.45-1Z" />
        <path class="color-shadow" d="M529.4,357.35c.08-.33.15-.65.23-1C529.55,356.7,529.48,357,529.4,357.35Z" />
        <path class="transparent"
            d="M528.53,477.06a1.6,1.6,0,0,0-.32.43c-1.62,5-3.27,9.92-4.81,14.9a14.54,14.54,0,0,1-1.85,3.95c-2.18,3.25-4.21,6.59-6.3,9.9l-.55.86a15.5,15.5,0,0,0-2.32-1.86c-.32-.17-1,.33-1.4.75.6.13,1.55.07,1.73.41a4,4,0,0,1,.58,2.65,11.75,11.75,0,0,1-1.86,3.44c-.48.68-1.19.53-1.37-.34a6.27,6.27,0,0,1-.18-2.57c1.36-5.88,2.84-11.73,4.21-17.61.95-4.09,2.34-8.12,2.2-12.41,0-1.66-.14-3.32-.22-5.19L527,472.8c1.7-.25,3.4-.46,5.1-.72.74-.12,1.09.05,1.15.89.2,3.1.41,6.2.74,9.29.52,4.74.69,9.54,2.1,14.16a3.33,3.33,0,0,1-.14,2.18c-2.79,6-5.65,11.89-8.53,17.81a4.8,4.8,0,0,1-1.12,1.39c-3.25,3-6.51,5.87-9.77,8.81a.57.57,0,0,1-.54.09l1.25-2a4.27,4.27,0,0,0-2.51,4.11c0,.28-.26.58-.4.87-.29-.18-.79-.34-.82-.55a10.2,10.2,0,0,1-.12-3.25A10.75,10.75,0,0,1,514.9,522a87.56,87.56,0,0,1,5.67-7.06,10.67,10.67,0,0,0,2.16-3.65,46.61,46.61,0,0,1,2.37-6c1.08-2.11.9-4.22.55-6.38-.3-1.87-.8-3.72-1.16-5.59a2.58,2.58,0,0,1,.1-1.26c1.15-3.6,2.37-7.19,3.48-10.8.4-1.33.56-2.73.83-4.1Z" />
        <path class="transparent"
            d="M523.32,497c.64,2,1.23,3.82,1.77,5.65a1.63,1.63,0,0,1-.19.91c-1.09,3-2.17,6-3.31,9a5.32,5.32,0,0,1-1,1.56c-1.59,1.78-3.22,3.53-4.83,5.29a1.88,1.88,0,0,1-.4.44q-4,2.45-8,4.84c-.64.39-1,.12-1.29-.5a3.24,3.24,0,0,1,.59-4.17,37.57,37.57,0,0,1,5.33-4,15.07,15.07,0,0,1,3.88-1.55,5.05,5.05,0,0,0,3.38-3.12,40.54,40.54,0,0,0,3.59-12.42,5.54,5.54,0,0,1,.12-.71C523.06,497.89,523.16,497.56,523.32,497Z" />
        <path class="transparent"
            d="M521.94,496.89c.48,4.13-.63,7.88-2.27,11.51a38.56,38.56,0,0,1-1.78,3.79,3.32,3.32,0,0,1-1.55,1.11c-.79.35-1.73.41-2.48.82a4.75,4.75,0,0,1-4.41.21c-1.39-.58-2.85-1-4.24-1.6-1.08-.46-1.14-1.19-.23-2,1.11-.92,2.43-.85,3.8-.74.07,1.39.14,2.73,1.34,3.69.87.69,1.58.78,2.25-.13s1.29-2.19,2-3.27c.24-.38.56-.86.94-1a3.49,3.49,0,0,0,2-2.05c1-1.8,2.05-3.51,2.93-5.34a34.09,34.09,0,0,0,1.49-4.11A9.83,9.83,0,0,0,521.94,496.89Z" />
        <path class="color-shadow-dark"
            d="M517.26,409.86c-1.49-.51-3-1-4.46-1.56a43.94,43.94,0,0,0-10.2-3.13c-1.41-.19-2.83-.35-4.23-.55a2,2,0,0,1-.66-.36c2.26.19,4.54.21,6.76.6,3.13.55,6.23,1.29,9.31,2.11A5.11,5.11,0,0,1,517.26,409.86Z" />
        <path class="transparent" d="M520,500.72l-4.2,7.72-.41-.22,4.18-7.73Z" />
        <path class="transparent" d="M506.37,509a2,2,0,0,1,2.33-1.25c.25,0,.43.51.78,1Z" />
        <path class="transparent" d="M515,474.87l-.19,2.61C514,475.27,514,475.27,515,474.87Z" />
        <path class="color-shadow"
            d="M278.83,200.38c.16,1.13.38,2.27.47,3.41.14,1.7.21,3.42.26,5.13.1,3.22.23,6.45.23,9.68s-.14,6.7-.23,10.05c-.07,2.63-.26,5.26-.22,7.88.11,6.66.3,13.32.47,20,.07,3,.16,6,.23,9,.09,3.47.31,6.95.2,10.41s-.59,6.64-.87,10c-.2,2.37-.4,4.75-.52,7.13-.2,4.26-.33,8.52-.48,12.78,0,.81-.32.94-1.15.8a207.7,207.7,0,0,1-24.08-5.89c-9.94-3-19.84-6.17-29.47-10.08-2.07-.83-4-1.89-6.06-2.85-2.88-1.36-5.8-2.67-8.65-4.1-3.59-1.8-7.21-3.57-10.66-5.61-2.52-1.5-4.8-3.41-7.17-5.16a17.74,17.74,0,0,0-6-2.89c-2.65-.71-5.33-1.34-7.93-2.23a55.36,55.36,0,0,1-13.06-6.4c-2-1.38-4.31-2.41-6.36-3.76a37.63,37.63,0,0,1-9.69-9.07A34.9,34.9,0,0,1,143,238.09c-.94-2.94-3.18-4.46-6-5.28l-.91-.28c.84-2.16,2.26-2.54,4.05-1.45a32.63,32.63,0,0,1,11.08,11,79.18,79.18,0,0,0,10.33,14.15,18.93,18.93,0,0,0,7.86,4.65,155.11,155.11,0,0,1,19.25,7.81c4.8,2.34,9.69,4.5,14.51,6.81,3.71,1.77,7.24,4,11.06,5.43,6.11,2.3,12.35,4.23,18.6,6.1,5.22,1.56,10.53,2.84,15.8,4.21,5.42,1.42,10.85,2.8,16.28,4.23,1.64.43,3.26,1,5.06,1.5.27-2,.54-3.8.77-5.64.56-4.49,1.13-9,1.64-13.47.38-3.23.66-6.47,1-9.71.37-3.55.79-7.1,1.15-10.65.21-2.09.34-4.19.52-6.29.31-3.52.63-7,.93-10.56.11-1.23.2-2.46.26-3.69.18-3.18.33-6.36.5-9.54.23-4.52.44-9.06.73-13.58.27-4.24.62-8.48,1-12.72C278.4,200.84,278.68,200.61,278.83,200.38Z" />
        <path class="color-shadow"
            d="M136.29,235.9l2.91,3.34c-2.47.67-4.49,1.06-6.69-.17a53.77,53.77,0,0,0-6.18-2.47c-1.15-.46-2.25-1-3.82-1.74-1,.44-2.44,1.07-3.9,1.78-3.16,1.55-6.65,1.8-10,2.58s-6.53,1.32-9.78,2c-1.73.37-1.85.07-1.81-1.61a27.19,27.19,0,0,0-.74-5,22.78,22.78,0,0,1-.52-2.91c-.09-2,.07-4,0-6-.16-2.5-.45-5-.81-7.45-.14-1-.15-1.37,1-1.63,5.81-1.34,11.6-2.75,17.36-4.27a24.41,24.41,0,0,0,4.07-1.87c.32.11.78.45,1.17.38,3.56-.57,7.12-1.17,10.66-1.84,2.66-.51,5.27-1.21,7.92-1.69,3.51-.63,7.05-1.09,10.57-1.69,3.25-.55,6.47-1.25,9.72-1.76,3-.46,6-.75,9-1.12l2.13-.23a4.85,4.85,0,0,1-1.15.64c-6.21,1.54-12.45,3-18.64,4.57s-12.19,3.34-18.31,4.94c-3.53.92-7.11,1.69-10.67,2.53l-.11,0c-2.87-.55-5.42,1-8.16,1.25-2.48.26-5,.59-7.44.93-2.78.38-5.56.81-8.42,1.23.34,1.38.74,2.65,1,4,.29,1.76.46,3.54.65,5.32.32,3.07.62,6.15.93,9.23l0,.48c.1,2.16.14,2.26,2.23,1.55,4.72-1.6,9.41-3.29,14.09-5,1.65-.59,3.26-1.28,4.87-2a4.48,4.48,0,0,0,1.51-1,2.06,2.06,0,0,1,3-.33,47.82,47.82,0,0,0,11.3,4.83A6.8,6.8,0,0,0,136.29,235.9Z" />
        <path class="color-shadow-dark"
            d="M186.89,236.39a5.17,5.17,0,0,1-.82-1.07c-1.66-3.81-3.3-7.61-4.91-11.43-1.09-2.61-2.09-5.26-3.22-7.86a29.81,29.81,0,0,0-5.91-8.35,5.23,5.23,0,0,1-.92-1.37,1.38,1.38,0,0,1,1.11-1.83c1-.16,3.28,1.37,3.62,2.46-1,.28-.32.71-.07,1,.76,1,1.66,2,2.33,3a61.9,61.9,0,0,1,7.15,17.2C185.94,230.9,186.35,233.66,186.89,236.39Z" />
        <path class="outline"
            d="M186.89,236.39c-.54-2.73-.95-5.49-1.64-8.18A61.9,61.9,0,0,0,178.1,211c-.67-1.08-1.57-2-2.33-3-.25-.32-.88-.75.07-1,5.41,5,8.06,11.58,9.77,18.47a132,132,0,0,1,2.93,17c.39,3.42-.1,7-.21,10.43,0,.1-.1.2-.26.47.1-2,.29-3.86.25-5.7a49.91,49.91,0,0,0-.44-5.59C187.63,240.14,187.23,238.27,186.89,236.39Z" />
    </g>
</svg>
