<svg id="manshety" xmlns="http://www.w3.org/2000/svg" viewBox="0 0 672 960">
    <g id="img_41_img" data-name="img 41 img">
        <path class="outline"
            d="M53.3,223.39l1.85-.95.53-.36.93-.58.52-.36a.5.5,0,0,1,.19-.13l1-.85,1.87-1.79.53-.36,3.5-.67,2-.17,19.08-.72c.68,0,1.35-.08,2-.11a2.83,2.83,0,0,0,2.44-1.82,2.29,2.29,0,0,1,1.2-1.14c5.26-1.48,10.55-2.9,15.83-4.32,3.85-1,7.7-2.11,11.57-3a33.66,33.66,0,0,1,3.79-.25c1.81-.21,3.62-.46,5.4-.83q6.38-1.33,12.7-2.79c5.2-1.19,10.35-2.58,15.58-3.59a62.75,62.75,0,0,1,9.7-1c5.46-.18,10.94-.08,16.41-.21,5.06-.13,10.1-.39,15.15-.59,3.19-.13,6.37-.27,9.56-.35,3.51-.09,7,0,10.53-.23,3-.16,5.91-.61,8.87-.89s6.17-.53,9.25-.81c2.92-.27,5.83-.6,8.75-.87,2.76-.25,5.53-.45,8.3-.69s5.37-.51,8-.78l7.22-.73,9-.89c1.45-.15,2.91-.28,4.38-.42,0,2.27,0,4.54,0,6.81.56,24.9,1.1,49.81,1.76,74.71.15,5.71.95,11.4,1.08,17.11.18,7.55,0,15.11-.05,22.66,0,1.87,0,3.73,0,5.6l-.44.08a14.81,14.81,0,0,0-.73-1.85c-.18-.33-.56-.75-.86-.77a68.58,68.58,0,0,1-17.64-3.84c-9.1-3-18.2-6.06-27.21-9.34-5.85-2.13-11.51-4.77-17.3-7.05-6.85-2.7-13.78-5.21-20-9.17-4.11-2.61-8.07-5.47-12-8.31a18.6,18.6,0,0,0-8.69-3.47A43.21,43.21,0,0,1,162,267.49,129,129,0,0,1,149,258.21a13,13,0,0,1-2.9-4.16c-1.25-2.31-2.31-4.73-3.45-7.11a1.53,1.53,0,0,0-2.16-.87c-.64.24-1.29.43-1.93.66-2.18.77-4.23.32-5.47-1.52-2.08-3.05-5.32-4.23-8.3-5.89a4.36,4.36,0,0,0-5,.29c-3.46,2.67-7.51,3.13-11.59,3.68-2.18.3-4.34.68-6.52,1s-4.51.6-6.77.88c-1.84.23-2.4-.36-2.13-2.2a2.5,2.5,0,0,0-.06-.54c-1.74.49-3.4,1-5.09,1.4-2.37.55-4.82.85-7.13,1.57a79.39,79.39,0,0,0-7.65,3c-2.38,1-4.7,2.21-7.06,3.3A16.08,16.08,0,0,1,57.65,253a2.61,2.61,0,0,1-2.3-2.14,2.94,2.94,0,0,1,.87-3.48c2-1.51,4-3,6-4.36,1.77-1.22,3.61-2.36,5.41-3.56a6.86,6.86,0,0,0,1.46-1.22c.38-.47,1-1.24.8-1.6-.61-1.41-1.29-1.59-2.63-1.23-1.12.3-2.28.44-3.38.76a2.67,2.67,0,0,0-1.57.9c-1.42,2.43-3.74,3.89-5.94,5.38a38.81,38.81,0,0,1-5.82,3,1.88,1.88,0,0,1-1.71-.22A1.58,1.58,0,0,1,49,243c1.52-1.83,3-3.68,4.54-5.52l-.2-.29c-.62.32-1.26.64-1.88,1a5.52,5.52,0,0,0-3.17,3.26,31.6,31.6,0,0,1-2.5,5.3c-1.46,2.73-2.73,3.3-5.81,2.92-.31,0-.76.32-1,.6a9.21,9.21,0,0,1-6,3.22c-1.6.16-2.26-.85-1.57-2.33,1.16-2.5,2.3-5,3.45-7.49.36-.9.73-1.8,1.09-2.71l.29-.92.15-.54.52-1.55.45-1.33.77-2,.22-.59.24-.61.72-2,.23-.61.25-.59,1.7-1.7.51-.17L45,226.72l.58-.24.6-.27.6-.23.61-.23,1.31-.47.61-.25Zm53.2,14.68.27,3.37.39.17c.26-.24.72-.48.73-.73,0-1-.08-2-.13-3.06-.26-2.49-.4-5-.79-7.45-.73-4.72-1.59-9.42-2.4-14.13l-.77-3.91-.44-.1c-.15.32-.46.68-.4,1,.22,1.2.56,2.38.86,3.57.05.59.07,1.19.15,1.78.52,3.95,1.07,7.88,1.59,11.83C105.9,232.94,106.19,235.51,106.5,238.07Zm-.77,1.67-.21-2.16c-.08-1.27-.1-2.55-.26-3.81-.69-5.37-1.42-10.73-2.13-16.1l-.48-2.64a6.38,6.38,0,0,1-.17-1.05c0-1.14-.51-1.28-1.53-1-1.68.48-3.41.8-5.12,1.21-3.86.91-4.52,1.9-3.4,5.75,1.08,3.68,1.12,7.44,1.35,11.21.2,3.33.76,6.64,1.24,10,.1.71.4,1.61,1.38,1.54,3.12-.24,6.23-.56,9.33-.84Zm-.17-25.43.24,2.87c0,.24,0,.48.06.71.64,3.72,1.32,7.43,1.91,11.16.37,2.35.62,4.73.92,7.09l.24,2.88-.13,2.16,1.49-.21a21.3,21.3,0,0,0,10.49-3.7,2.5,2.5,0,0,1,3-.16,27.56,27.56,0,0,0,4.07,2.27,15.62,15.62,0,0,1,6.56,4.46,1.86,1.86,0,0,0,2.16.61c1.56-.5,3.12-1,4.81-1.5-.24-.88-.49-1.78-.72-2.7-.62-2.38-1-4.89-3.77-6,1.14-.45,2.21-.05,3.13,1.16a28.39,28.39,0,0,1,4.39,9.64c.22.8.48,1.6.78,2.38.62,1.64,1.42,3.22,1.9,4.9A12.11,12.11,0,0,0,152,259a65.66,65.66,0,0,0,14.38,7.82c3.55,1.35,7,3,10.78,3.52a27,27,0,0,1,14.07,6.67,71.22,71.22,0,0,0,19.31,11.7c5.17,2.11,10.44,4,15.65,6,3.8,1.48,7.52,3.17,11.37,4.51,6.22,2.17,12.51,4.13,18.77,6.18,7,2.29,13.86,4.91,21.16,6,1.71.26,3.43.37,5.44.59,0-2.64,0-5,0-7.34-.06-4.39-.1-8.78-.24-13.17-.16-4.58-.45-9.16-.64-13.75-.28-6.45-.58-12.91-.76-19.38-.2-7.66-.32-15.33-.42-23-.09-7.23-.08-14.47-.15-21.7,0-2.4-.08-4.79-.23-7.18-.32-5-.71-10-1.08-15l-10.51.89-6.91.65-10.46,1c-3.06.3-6.12.56-9.17.88-4.39.47-8.78,1-13.18,1.47l-8.66.91-2.13.22-.52.05-.49,0c-.43,0-.87-.06-1.31,0-4.51.11-9,.21-13.53.34-3.43.11-6.86.28-10.28.4l-17,.54c-3.51.1-7,.07-10.54.27a46.61,46.61,0,0,0-7.83.91c-6.53,1.52-13,3.36-19.5,4.92a83.35,83.35,0,0,1-10.71,2c-3,.31-6.08,0-9.05,1-3.95,1.26-7.94,2.42-11.9,3.67a1.07,1.07,0,0,0-.6.81A11.13,11.13,0,0,0,105.56,214.31ZM69.08,221l0,.28c-.73.13-1.46.33-2.19.39a56,56,0,0,0-12.86,2.69c-4,1.34-8.06,2.4-11.69,4.58a4,4,0,0,0-1.65,1.61c-1.71,4.18-3.3,8.4-4.93,12.61a2,2,0,0,0-.1.7c0,1.19,0,2.38,0,3.57l-.42,0L35,246.05C34,248,32.77,249.71,32.62,252a8,8,0,0,0,5.53-2.77,31.39,31.39,0,0,0,6-9.2,9.83,9.83,0,0,1,3.52-4.32,27.24,27.24,0,0,1,10.48-3.88c2.91-.51,5.85-1,8.69-1.74a11.74,11.74,0,0,1,6.12.24c.26.06.46.32,1,.71-1.41.17-2.47.28-3.52.43-.84.12-1.71,1.08-1.45,1.71.44,1.08,1.05,2.09,1.65,3.25,2.49-2.34,4.5-4.79,7.08-6.62-1.87,2.49-3.85,4.87-5.91,7.17a15.3,15.3,0,0,1-2.61,2.28c-3.88,2.73-7.79,5.41-11.67,8.12a3.86,3.86,0,0,0-.71.88c3.63-1.61,6.46-2.7,8-.54-2.73-.85-6.81,1-7.7,3.65a6.72,6.72,0,0,0,1.42.46,12.28,12.28,0,0,0,7.1-1c2.34-1.2,4.79-2.21,7.2-3.26,2.11-.92,4.21-1.85,6.37-2.62,1.23-.44,2.59-.53,3.86-.85,3-.74,5.88-1.52,8.81-2.28,1.08-.28,1.35-1,1.08-2a21.47,21.47,0,0,1-.64-2.92c-.31-2.58-.56-5.16-.78-7.75-.18-2.27-.21-4.55-.45-6.81-.19-1.8-.58-3.58-.88-5.39-3.33.22-6.47.45-9.61.62-3.38.19-6.77.3-10.16.51a46.46,46.46,0,0,0-6.89.66,21.9,21.9,0,0,0-4.5,2.07l.16.23ZM68,231.61c-.3,0-.61,0-.91.06a26.52,26.52,0,0,0-5.39,1.06,17.85,17.85,0,0,0-5.77,3.4,67.25,67.25,0,0,0-5.88,7.38,4.89,4.89,0,0,0-.48,1.15l.33.22a22,22,0,0,0,10.29-7.09c.48-.62.93-1.29,1.47-1.87,1.23-1.33,3-1.64,4.61-2.08S68.06,233.21,68,231.61Zm-11.1,1.73a17.13,17.13,0,0,0-9.24,3.43A7.41,7.41,0,0,0,45,240.34a19,19,0,0,1-1.42,3c-.91,1.62-1.9,3.19-3,5,.73-.08,1.33,0,1.68-.21a9.26,9.26,0,0,0,2.56-2.2c1-1.55,1.71-3.33,2.64-5a8,8,0,0,1,1.88-2.45c1.82-1.38,3.79-2.57,5.7-3.85C55.56,234.37,56.1,233.93,56.9,233.34Zm2-12.28-.09.09c.06,0,.11.06.16.07s.06-.05.08-.07Z" />
        <path class="outline"
            d="M487.38,262.55c5.1-3.39,10.73-5.77,16.23-8.39,3.05-1.46,6.15-2.83,9.24-4.23a4.83,4.83,0,0,1,.55-.15c.65,2.08,1.26,4.14,2,6.16,2.07,6.17,4.14,12.34,6.28,18.48a235.07,235.07,0,0,1,7.51,27.42c1.42,6.48,2.67,13,3.81,19.52.62,3.55.92,7.16,1.23,10.76.29,3.21.48,6.44.58,9.66a108.58,108.58,0,0,1-1.51,18.79c-.92,6.54-1.79,13.09-2.65,19.63-.27,2.09-.47,4.19-.63,6.3-.35,4.45.95,8.59,2.5,12.68a22.39,22.39,0,0,0,3.48,6c1.87,2.35,3.57,4.87,3.68,8a11.72,11.72,0,0,1-.52,4.22,28.49,28.49,0,0,1-2.72,5.71c-1.93,3-1.87,6-.55,9.24a34.6,34.6,0,0,1,1.58,6c.86,4.1,1.84,8.19,2.37,12.34A91,91,0,0,1,540,460c0,2.4.15,4.8.22,7.19a10.16,10.16,0,0,1,0,1.56c-.23,2.13-.63,2.46-2.77,2.65-1.19.1-2.36.32-3.48.48.2,2,.32,4,.59,5.86.8,5.64,1.49,11.31,2.59,16.9a10,10,0,0,1-1.16,6.65c-2.31,4.77-4.7,9.52-7.05,14.28a11.82,11.82,0,0,1-3.23,3.75,94,94,0,0,0-6.93,6.61c-1.44,1.48-2.7,3.14-4,4.74a1.41,1.41,0,0,1-2.55-.31,5.47,5.47,0,0,1-.2-4.2c.39-1.27.83-2.53,1.33-4.06-.47.24-.74.34-1,.49-1.4.93-2.75,1.93-4.18,2.8-2,1.24-3.55.37-3.58-2,0-2.79,1.54-4.7,3.59-6.31.69-.54,1.43-1,2.31-1.61-1.26-.4-2.35-.73-3.43-1.09-.61-.2-1.21-.41-1.8-.66-2.11-.9-2.31-2.52-.44-3.88a2.33,2.33,0,0,0,.8-1.27,3.5,3.5,0,0,1,1.64-1.63,7,7,0,0,1,2.14-.38c.59-2.5,1.19-5,1.8-7.59,1.13-4.76,2.33-9.51,3.38-14.29a9.58,9.58,0,0,0,0-3.54c-.33-2-.86-3.94-1.31-5.92l-.7-.05c-1.72,0-2.2-.29-2.64-2-1-3.91-1.91-7.84-2.82-11.77-.72-3.11-1.36-6.24-2.09-9.36a2.06,2.06,0,0,0-.74-1.14,7.13,7.13,0,0,1-3.14-5.67,19.49,19.49,0,0,0-5.33-12.39,3.74,3.74,0,0,1-.91-1.65c-.51-2.57-1.05-5.16-1.35-7.77-.48-4.12-.73-8.28-1.14-12.41-.25-2.5-.6-5-1-7.48a1.78,1.78,0,0,0-.66-.94,13.64,13.64,0,0,1-5-7.92c-.9-4.28-2.22-8.48-3.32-12.73a12.93,12.93,0,0,1-.27-2.5c-.42-11.47-.74-22.94-1.3-34.4-.21-4.22-.92-8.42-1.51-12.62-1.37-9.85-2.95-19.67-4.17-29.54-.62-4.94-.64-10-.93-14.94,1.26-2.87,1-6,1.39-9,.46-3.16.79-6.34,1.11-9.53a1.56,1.56,0,0,1,.92-1.36c1.26-.7,2.49-1.43,3.73-2.15a8.31,8.31,0,0,1-1,1.12c-1.48,1.21-2.75,2.5-2.89,4.59s-.44,4.19-.64,6.29c-.34,3.72-.71,7.45-1,11.19-.21,3-.3,6-.33,9.06a25.26,25.26,0,0,0,.43,3.44c.58,4.62,1.11,9.24,1.72,13.86.51,3.82,1.15,7.62,1.65,11.44.63,4.73,1.25,9.46,1.73,14.21.55,5.38,1.07,10.77,1.37,16.16.32,5.93.33,11.88.54,17.82.24,6.63,1.3,13.08,4.38,19.06A17.14,17.14,0,0,0,489,397c1.95,2.47,4,4.78,7.57,4.84a23.8,23.8,0,0,1,4.05.33c3,.61,6.06,1.35,9.09,2,1.54.72,3.1,1.39,4.62,2.16a7.15,7.15,0,0,1,3.54,3.8l-.59-.32a5.11,5.11,0,0,0-3.48-2.89c-3.08-.82-6.18-1.56-9.31-2.11-2.22-.39-4.5-.41-6.76-.6l-1.66,0-2.47-.34c.12.55.21.93.27,1.31.4,2.92.95,5.82,1.15,8.75.23,3.46.11,6.94.25,10.41a55.82,55.82,0,0,0,.6,6.05,3.32,3.32,0,0,0,1.08,1.78,16,16,0,0,1,5.54,10c.33,2.27.59,4.44,2,6.47a22.55,22.55,0,0,1,3.27,8.82c.38,1.89.82,3.78,1.25,5.72l1.66-.41,1.26-.31,23.92-5.12c2.37-.44,2.38-.44,2.76-2.84a11.41,11.41,0,0,0,.15-1.31A35.77,35.77,0,0,0,537,440.64c-1.21-3.75-2.13-7.58-3.35-11.32a8.31,8.31,0,0,1,1.58-8,.33.33,0,0,0,.06-.1c.86-2.18,2.08-4.3,2.49-6.56.57-3.13-1.11-5.69-3.19-7.94a19.14,19.14,0,0,1-3.21-3.68,25.84,25.84,0,0,1-3.49-11.48,70.86,70.86,0,0,1,.64-10.49c.81-6.36,1.94-12.69,2.76-19.05.77-5.93,1.52-11.86,1.91-17.82.21-3.31-.32-6.68-.55-10a181.89,181.89,0,0,0-2.68-20.25,225.08,225.08,0,0,0-6.85-27.65c-3.59-11.27-7.46-22.44-11.19-33.67-.23-.69-.56-.77-1.15-.51q-9.58,4.23-19.18,8.46C490.15,261.17,488.78,261.88,487.38,262.55Zm48.74,196.76c.75-.33,2.15.36,2.14-1.51l-2.14.45-26.86,5.54.06.38c.45,0,.9-.06,1.34-.14q6.29-1.12,12.57-2.29Zm-.25.78-23.74,4.57-2.75.54c.61,2.29,1.17,4.41,1.73,6.53a1.87,1.87,0,0,0,2.36,1.6c4.36-.72,8.74-1.39,13.11-2.08,3.35-.53,6.69-1.11,10-1.56,1.76-.24,1.8-.14,1.73-1.88-.09-2.71-.23-5.4-.35-8.16ZM516,526.65l.19.19a3.36,3.36,0,0,0,.43-.31q4.86-4.35,9.69-8.72a4.8,4.8,0,0,0,1.13-1.38q4.35-8.94,8.59-17.92a3,3,0,0,0,.13-1.95c-1.44-4.74-1.65-9.65-2.14-14.52-.31-3-.54-6-.74-9.05-.06-.82-.37-1-1.13-.92-1.7.27-3.4.48-5.1.73l-10.71,1.54c0,1.88,0,3.54,0,5.21.12,4.29-1.26,8.31-2.21,12.4-1.36,5.88-2.85,11.73-4.2,17.61a5.77,5.77,0,0,0,.17,2.57c.21.9.9,1,1.45.29a12.92,12.92,0,0,0,1.75-3.11,2.48,2.48,0,0,0-.49-2.89c-.43-.35-1.18-.3-1.78-.42,1.11-1.41,2.23-1,3.53,1.35.19-.28.37-.53.53-.79,2.05-3.24,4-6.53,6.17-9.7a13.5,13.5,0,0,0,2.33-5.15,12.74,12.74,0,0,1,.44-1.49l4.11-12.37c.1-.28.24-.54.36-.81l.36.08a15.2,15.2,0,0,1-.35,2.37c-1.26,4.19-2.6,8.36-3.87,12.55a2.85,2.85,0,0,0-.07,1.36c.36,1.87.92,3.72,1.12,5.6.18,1.69.7,3.38-.1,5.15-1.17,2.57-2,5.29-3.11,7.9a11.55,11.55,0,0,1-1.64,2.59c-1.93,2.42-4,4.74-5.82,7.24a11.23,11.23,0,0,0-1.6,4,9.85,9.85,0,0,0,.1,3.24c0,.22.53.38.81.58.15-.29.46-.6.42-.86-.26-2,1-3.07,2.47-4.06Zm7.34-29.75a20,20,0,0,0-.43,2,41.12,41.12,0,0,1-3.6,12.42,5,5,0,0,1-3.39,3.12A15,15,0,0,0,512,516a36.34,36.34,0,0,0-5.33,4,3.23,3.23,0,0,0-.59,4.17c.34.61.66.88,1.29.49l8-4.84a2.36,2.36,0,0,0,.39-.44c1.59-1.74,3.19-3.45,4.75-5.21a5.67,5.67,0,0,0,1.1-1.65c1.14-3,2.22-6,3.32-9a1.69,1.69,0,0,0,.18-.91C524.55,500.82,524,499,523.29,496.9Zm-1.32,0-.27.85a36.56,36.56,0,0,1-1.42,4.13c-.93,1.93-2.08,3.76-3.1,5.65a3.26,3.26,0,0,1-1.9,1.83,2.16,2.16,0,0,0-.94,1c-.68,1.08-1.22,2.26-2,3.28s-1.39.83-2.25.14c-1.21-1-1.28-2.31-1.35-3.72-1.36-.07-2.68-.16-3.8.76-.91.75-.85,1.49.22,1.94,1.39.6,2.85,1,4.24,1.61a4.77,4.77,0,0,0,4.42-.21c.74-.41,1.68-.47,2.48-.81a3.39,3.39,0,0,0,1.55-1.12,40.82,40.82,0,0,0,1.78-3.78A21.9,21.9,0,0,0,522,496.89Zm-6.61,11.29.41.27,4.14-7.69-.41-.21Zm-5.87.53c-.4-.47-.62-.95-.89-1a2,2,0,0,0-2.25,1.29ZM515,474.88c-1,.38-1,.38-.15,2.25C514.89,476.4,514.94,475.68,515,474.88Z" />
        <path class="color-shadow-dark"
            d="M487.38,262.55c1.4-.67,2.77-1.38,4.19-2q9.58-4.25,19.18-8.46c.59-.26.92-.18,1.15.51,3.73,11.23,7.6,22.4,11.19,33.67a225.08,225.08,0,0,1,6.85,27.65,181.89,181.89,0,0,1,2.68,20.25c.23,3.34.76,6.71.55,10-.39,6-1.14,11.89-1.91,17.82-.82,6.36-2,12.69-2.76,19.05a70.86,70.86,0,0,0-.64,10.49A25.84,25.84,0,0,0,531.35,403a19.14,19.14,0,0,0,3.21,3.68c2.08,2.25,3.76,4.81,3.19,7.94-.41,2.26-1.63,4.38-2.49,6.56a.33.33,0,0,1-.06.1,8.31,8.31,0,0,0-1.58,8c1.22,3.74,2.14,7.57,3.35,11.32a35.77,35.77,0,0,1,1.81,12.61,11.41,11.41,0,0,1-.15,1.31c-.38,2.4-.39,2.4-2.76,2.84,0-1,.11-2,.1-3-.06-3.57.33-7.23-.34-10.69-.82-4.26-2.57-8.35-3.84-12.54-.6-2-1.32-3.94-.56-6.15.59-1.7-.69-2.85-2.43-2.5-.54.1-1.12,0-1.66.1a8.85,8.85,0,0,0-2.11.62c-1.11.52-2.1,1.46-3.25,1.7a53.92,53.92,0,0,1-6.73.76c-.37,0-.78-.39-1.17-.6l.62-1.17c2.6-.77,5.2-1.53,7.79-2.33,3.5-1.07,6.85-2.93,10.74-1.92a1.16,1.16,0,0,0,.94-.62,1.18,1.18,0,0,0-.47-1,3.32,3.32,0,0,0-1.6-.3c-2.92.11-5.57,1.23-8.25,2.27-2.15.83-4.33,1.57-6.5,2.36a4.72,4.72,0,0,1,.81-.95c1.38-.86,2.83-1.61,4.18-2.5a27.43,27.43,0,0,1,9.42-3.72l2.48-.41a13,13,0,0,0-2-5.2c-.15-.2-.46-.28-.7-.41a3,3,0,0,0-.17-.92c-.64-1.1-1.36-2.16-2-3.26-1.36-2.42-3.21-4.62-3.59-7.49-.3-2.24-.52-4.5-.73-6.75a16.62,16.62,0,0,1-.16-3.91c.5-3.18,1.26-6.31,1.82-9.47q1.14-6.57,2.12-13.16c.34-2.28.51-4.58.76-6.86.08-.33.15-.65.23-1l-.21-2.37.45-1-.21-5c.16-.24.43-.47.44-.72.12-1.82.26-3.66.25-5.48,0-2.95-.09-5.9-.25-8.85-.1-1.78-.41-3.54-.64-5.31-.33-2.44-.72-4.87-1-7.31-.37-3.15-.61-6.32-1-9.47s-.86-6.36-1.42-9.52a47.21,47.21,0,0,0-1.78-8.14c-2.1-5.72-4.59-11.29-6.81-17-1.75-4.49-3.39-9-5-13.57-.68-2-1.08-4-1.6-6.05-1.55.49-2.95.94-4.36,1.37-3.38,1-6.88,1.79-10.13,3.15-3.47,1.46-6.7,3.5-10.07,5.24a16.35,16.35,0,0,0-5.59,4.21,5,5,0,0,0-1,2.31c-.22,1.53-.17,3.09-.31,4.64-.28,3.2-.61,6.39-.93,9.59-.3,3-.66,6.07-.92,9.11a14,14,0,0,0,0,4.13c.72,3.38,1.78,6.68,2.54,10.05.7,3.13,1.3,6.3,1.75,9.48s.7,6.63,1,9.94c.33,3.56.67,7.12.93,10.68.22,2.93.36,5.88.48,8.82.26,6.36.53,12.73.72,19.1.09,3,0,6,0,9a4.86,4.86,0,0,1-.06,1.08,10.18,10.18,0,0,0,.59,7.2,22.84,22.84,0,0,0,2.53,4.71,61.39,61.39,0,0,0,5.67,5.5,6.67,6.67,0,0,0,1.58.79,14.33,14.33,0,0,0,1.62,1c3.21,1.37,6.44,2.71,9.66,4.06.36.32.7.64,1.07.94.67.52,1.35,1,2,1.52-3-.68-6.05-1.42-9.09-2a23.8,23.8,0,0,0-4.05-.33c-3.53-.06-5.62-2.37-7.57-4.84a17.14,17.14,0,0,1-1.57-2.82c-3.08-6-4.14-12.43-4.38-19.06-.21-5.94-.22-11.89-.54-17.82-.3-5.39-.82-10.78-1.37-16.16-.48-4.75-1.1-9.48-1.73-14.21-.5-3.82-1.14-7.62-1.65-11.44-.61-4.62-1.14-9.24-1.72-13.86a25.26,25.26,0,0,1-.43-3.44c0-3,.12-6,.33-9.06.25-3.74.62-7.47,1-11.19.2-2.1.5-4.19.64-6.29s1.41-3.38,2.89-4.59a8.31,8.31,0,0,0,1-1.12l4.73-2.69.55-.26,0,0,.24-.23,0-.06.06.05.39-.27Z" />
        <path class="color-shadow-dark" d="M53.3,223.39,49.35,225Z" />
        <path class="color-shadow-dark"
            d="M35.9,240.9c-.36.91-.73,1.81-1.09,2.71C35.17,242.7,35.54,241.8,35.9,240.9Z" />
        <path class="color-shadow-dark" d="M66.19,217.17l-2,.17Z" />
        <path class="color-shadow-dark" d="M39.26,231.3l-.72,2Z" />
        <path class="color-shadow-dark" d="M58.33,220.16l-1,.85Z" />
        <path class="color-shadow-dark" d="M48.74,225.28l-1.31.47Z" />
        <path class="color-shadow-dark" d="M37.31,236.56l-.45,1.33Z" />
        <path class="color-shadow-dark" d="M39.74,230.1l-.25.59Z" />
        <path class="color-shadow-dark" d="M45.62,226.48l-.58.24Z" />
        <path class="color-shadow-dark" d="M38.3,233.94l-.22.59Z" />
        <path class="color-shadow-dark" d="M36.34,239.44l-.15.54Z" />
        <path class="color-shadow-dark" d="M46.82,226l-.6.23Z" />
        <path class="color-shadow-dark" d="M57.13,221.14l-.52.36Z" />
        <path class="color-shadow-dark" d="M60.73,218l-.53.36Z" />
        <path class="color-shadow-dark" d="M55.68,222.08l-.53.36Z" />
        <path class="color-shadow-dark" d="M42,228.23l-.51.17Z" />
        <path class="outline" d="M486.7,263l-.55.26Z" />
        <path class="outline" d="M486.91,262.81l-.24.23Z" />
        <path class="outline" d="M487.41,262.53l-.39.27Z" />
        <path class="color-base"
            d="M217.38,197.7l.49,0,.52-.05,2.13-.22c.09,1.26.34,1.45,1.54,1.22a9.61,9.61,0,0,1,1.3-.16l10.76-.24c3.31-.08,6.62-.14,9.92-.25,4.74-.14,9.48-.33,14.21-.47,3.43-.1,6.86-.17,10.28-.24a15.19,15.19,0,0,0,2.23,0c1.95-.33,3.88-.79,5.82-1.19,1.28-.26,1.57-.07,1.78,1.19.17,1,.31,2,.47,3.06-.15.23-.43.46-.45.7-.34,4.24-.69,8.48-1,12.72-.29,4.52-.5,9.06-.73,13.58-.17,3.18-.32,6.36-.5,9.54-.06,1.23-.15,2.46-.26,3.69-.3,3.52-.62,7-.93,10.56-.18,2.1-.31,4.2-.52,6.29-.36,3.55-.78,7.1-1.15,10.65-.35,3.24-.63,6.48-1,9.71-.51,4.5-1.08,9-1.64,13.47-.23,1.84-.5,3.67-.77,5.64-1.8-.54-3.42-1.07-5.06-1.5-5.43-1.43-10.86-2.81-16.28-4.23-5.27-1.37-10.58-2.65-15.8-4.21-6.25-1.87-12.49-3.8-18.6-6.1-3.82-1.44-7.35-3.66-11.06-5.43-4.82-2.31-9.71-4.47-14.51-6.81a155.11,155.11,0,0,0-19.25-7.81,18.93,18.93,0,0,1-7.86-4.65A79.18,79.18,0,0,1,151.16,242a32.63,32.63,0,0,0-11.08-11c-1.79-1.09-3.21-.71-4.05,1.45l-4.16-.73,4.42,4.1c-.1.06-.23.19-.29.17-3.2-1.22-6.41-2.42-9.58-3.71-1.17-.48-2.24-1.22-3.41-1.73a2,2,0,0,0-1.43.06c-1.7.85-3.28,2-5,2.67-2.57,1.06-5.24,1.87-7.87,2.78-.3-2.36-.55-4.74-.92-7.09-.59-3.73-1.27-7.44-1.91-11.16,0-.23,0-.47-.06-.71a73.33,73.33,0,0,0,7.41-1c2.08-.48,4.09-1.19,6.28-.91a2.06,2.06,0,0,0,.57-.14c4-1,8-1.93,12-3,5.54-1.43,11-3,16.59-4.4,6.2-1.57,12.42-3,18.63-4.56a4.85,4.85,0,0,0,1.15-.64c1.11-.08,2.22-.23,3.33-.23a144.89,144.89,0,0,0,18.63-.74c2.8-.36,5.59-.71,8.39-1,3.39-.39,6.79-.71,10.18-1.13,2.68-.34,5.34-.8,8-1.23C217.14,198.16,217.25,197.87,217.38,197.7Zm-41.54,9.24c-.34-1.09-2.59-2.62-3.62-2.46a1.38,1.38,0,0,0-1.11,1.83,5.23,5.23,0,0,0,.92,1.37,29.81,29.81,0,0,1,5.91,8.35c1.13,2.6,2.13,5.25,3.22,7.86,1.61,3.82,3.25,7.62,4.91,11.43a5.17,5.17,0,0,0,.82,1.07c.34,1.88.74,3.75,1,5.64a49.91,49.91,0,0,1,.44,5.59c0,1.84-.15,3.68-.25,5.7.16-.27.26-.37.26-.47.11-3.48.6-7,.21-10.43a132,132,0,0,0-2.93-17C183.9,218.52,181.25,212,175.84,206.94Z" />
        <path class="color-shadow-dark"
            d="M278.83,200.38c-.16-1-.3-2-.47-3.06-.21-1.26-.5-1.45-1.78-1.19-1.94.4-3.87.86-5.82,1.19a15.19,15.19,0,0,1-2.23,0c-3.42.07-6.85.14-10.28.24-4.73.14-9.47.33-14.21.47-3.3.11-6.61.17-9.92.25l-10.76.24a9.61,9.61,0,0,0-1.3.16c-1.2.23-1.45,0-1.54-1.22l8.66-.91c4.4-.49,8.79-1,13.18-1.47,3-.32,6.11-.58,9.17-.88l10.46-1,6.91-.65,10.51-.89c.37,5,.76,10,1.08,15,.15,2.39.21,4.78.23,7.18.07,7.23.06,14.47.15,21.7.1,7.67.22,15.34.42,23,.18,6.47.48,12.93.76,19.38.19,4.59.48,9.17.64,13.75.14,4.39.18,8.78.24,13.17,0,2.35,0,4.7,0,7.34-2-.22-3.73-.33-5.44-.59-7.3-1.1-14.19-3.72-21.16-6-6.26-2.05-12.55-4-18.77-6.18-3.85-1.34-7.57-3-11.37-4.51-5.21-2-10.48-3.89-15.65-6a71.22,71.22,0,0,1-19.31-11.7,27,27,0,0,0-14.07-6.67c-3.77-.51-7.23-2.17-10.78-3.52A65.66,65.66,0,0,1,152,259a12.11,12.11,0,0,1-4.9-6.75c-.48-1.68-1.28-3.26-1.9-4.9-.3-.78-.56-1.58-.78-2.38a28.39,28.39,0,0,0-4.39-9.64c-.92-1.21-2-1.61-3.13-1.16,2.74,1.15,3.15,3.66,3.77,6,.23.92.48,1.82.72,2.7-1.69.53-3.25,1-4.81,1.5a1.86,1.86,0,0,1-2.16-.61,15.62,15.62,0,0,0-6.56-4.46,27.56,27.56,0,0,1-4.07-2.27,2.5,2.5,0,0,0-3,.16,21.3,21.3,0,0,1-10.49,3.7l-1.49.21.13-2.16c2.63-.55,5.32-.94,7.88-1.72a57.4,57.4,0,0,0,6.2-2.64c.91,1.25,2.19,1.54,3.42,2a38.74,38.74,0,0,1,6.08,2.43c2.19,1.24,4.22.84,6.69.17l-2.91-3.34-4.42-4.1,4.16.73.91.28c2.84.82,5.08,2.34,6,5.28a34.9,34.9,0,0,0,5.17,10.42,37.63,37.63,0,0,0,9.69,9.07c2.05,1.35,4.33,2.38,6.36,3.76a55.36,55.36,0,0,0,13.06,6.4c2.6.89,5.28,1.52,7.93,2.23a17.74,17.74,0,0,1,6,2.89A83.15,83.15,0,0,0,198.3,278c3.63,2.14,7.43,4,11.2,5.89,2.56,1.29,5.19,2.45,7.79,3.67,2.13,1,4.2,2.13,6.37,3,9.64,3.92,19.54,7.05,29.48,10.08a207.7,207.7,0,0,0,24.08,5.89c.82.14,1.12,0,1.15-.8.06-2.11.16-4.22.23-6.33.09-2.39.13-4.78.26-7.17.12-2.14.32-4.28.51-6.41.29-3.32.76-6.63.87-10s-.11-6.94-.2-10.41c-.07-3-.16-6-.23-9-.17-6.66-.36-13.32-.47-20,0-2.63.15-5.26.22-7.89.09-3.35.22-6.7.23-10.05s-.13-6.46-.23-9.68c-.05-1.71-.12-3.43-.26-5.13C279.21,202.65,279,201.51,278.83,200.38Z" />
        <path class="transparent"
            d="M69.08,221H59.16l-.16-.23a21.9,21.9,0,0,1,4.5-2.07,46.46,46.46,0,0,1,6.89-.66c3.39-.21,6.78-.32,10.16-.51,3.14-.17,6.28-.4,9.61-.62.3,1.81.69,3.59.88,5.39.24,2.26.27,4.54.45,6.81.22,2.59.47,5.17.78,7.75a21.47,21.47,0,0,0,.64,2.92c.27,1,0,1.72-1.08,2-2.93.76-5.86,1.54-8.81,2.28-1.27.32-2.63.41-3.86.85-2.16.77-4.26,1.7-6.37,2.62-2.41,1-4.86,2.06-7.2,3.26a12.28,12.28,0,0,1-7.1,1,6.72,6.72,0,0,1-1.42-.46c.89-2.63,5-4.5,7.7-3.65-1.52-2.16-4.35-1.07-8,.54a3.86,3.86,0,0,1,.71-.88c3.88-2.71,7.79-5.39,11.67-8.12A15.3,15.3,0,0,0,71.78,237c2.06-2.3,4-4.68,5.91-7.17-2.58,1.83-4.59,4.28-7.08,6.62-.6-1.16-1.21-2.17-1.65-3.25-.26-.63.61-1.59,1.45-1.71,1-.15,2.11-.26,3.52-.43-.54-.39-.74-.65-1-.71a11.74,11.74,0,0,0-6.12-.24c-2.84.77-5.78,1.23-8.69,1.74a27.24,27.24,0,0,0-10.48,3.88A9.83,9.83,0,0,0,44.12,240a31.39,31.39,0,0,1-6,9.2A8,8,0,0,1,32.62,252c.15-2.27,1.42-4,2.33-5.93l.31,1.42.42,0c0-1.19,0-2.38,0-3.57a2,2,0,0,1,.1-.7c1.63-4.21,3.22-8.43,4.93-12.61A4,4,0,0,1,42.37,229c3.63-2.18,7.71-3.24,11.69-4.58a56,56,0,0,1,12.86-2.69c.73-.06,1.46-.26,2.19-.39Z" />
        <path class="color-shadow-dark"
            d="M217.38,197.7c-.13.17-.24.46-.4.48-2.66.43-5.32.89-8,1.23-3.39.42-6.79.74-10.18,1.13-2.8.33-5.59.68-8.39,1a144.89,144.89,0,0,1-18.63.74c-1.11,0-2.22.15-3.33.23-.83.08-1.66.14-2.49.24-2.36.26-4.73.46-7.08.84-3.79.62-7.56,1.39-11.35,2-3.51.59-7.05,1.05-10.56,1.69-2.53.46-5,1.17-7.55,1.65-3.62.69-7.25,1.29-10.89,1.87-.4.06-.85-.24-1.41-.42-3.35,2.34-7.44,3.13-11.56,3.85a11.13,11.13,0,0,1-.43-1.84,1.07,1.07,0,0,1,.6-.81c4-1.25,8-2.41,11.9-3.67,3-1,6-.67,9.05-1a83.35,83.35,0,0,0,10.71-2c6.52-1.56,13-3.4,19.5-4.92a46.61,46.61,0,0,1,7.83-.91c3.51-.2,7-.17,10.54-.27l17-.54c3.42-.12,6.85-.29,10.28-.4,4.51-.13,9-.23,13.53-.34C216.51,197.64,217,197.68,217.38,197.7Z" />
        <path class="color-shadow"
            d="M105.56,214.31c4.12-.72,8.21-1.51,11.56-3.85.56.18,1,.48,1.41.42,3.64-.58,7.27-1.18,10.89-1.87,2.53-.48,5-1.19,7.55-1.65,3.51-.64,7.05-1.1,10.56-1.69,3.79-.65,7.56-1.42,11.35-2,2.35-.38,4.72-.58,7.08-.84.83-.1,1.66-.16,2.49-.24a4.85,4.85,0,0,1-1.15.64c-6.21,1.54-12.43,3-18.63,4.56-5.54,1.41-11,3-16.59,4.4-4,1-8,2-12,3a2.06,2.06,0,0,1-.57.14c-2.19-.28-4.2.43-6.28.91a73.33,73.33,0,0,1-7.41,1Z" />
        <path class="color-base"
            d="M103.13,217.67c.71,5.37,1.44,10.73,2.13,16.1.16,1.26.18,2.54.26,3.81-1.74.55-3.49,1.09-5.23,1.65-2.05.67-2,.67-2.17-1.42,0-.16,0-.32,0-.48-.31-2.92-.61-5.84-.92-8.76-.21-1.93-.38-3.87-.68-5.79-.21-1.35-.6-2.67-1-4.21Z" />
        <path class="color-shadow"
            d="M136.29,235.9l2.91,3.34c-2.47.67-4.5,1.07-6.69-.17a38.74,38.74,0,0,0-6.08-2.43c-1.23-.44-2.51-.73-3.42-2a57.4,57.4,0,0,1-6.2,2.64c-2.56.78-5.25,1.17-7.88,1.72l-.24-2.88c2.63-.91,5.3-1.72,7.87-2.78,1.74-.71,3.32-1.82,5-2.67a2,2,0,0,1,1.43-.06c1.17.51,2.24,1.25,3.41,1.73,3.17,1.29,6.38,2.49,9.58,3.71C136.06,236.09,136.19,236,136.29,235.9Z" />
        <path class="color-shadow-dark"
            d="M105.73,239.74v2.08c-3.1.28-6.21.6-9.33.84-1,.07-1.28-.83-1.38-1.54-.48-3.31-1-6.62-1.24-10-.23-3.77-.27-7.53-1.35-11.21-1.12-3.85-.46-4.84,3.4-5.75,1.71-.41,3.44-.73,5.12-1.21,1-.3,1.53-.16,1.53,1a6.38,6.38,0,0,0,.17,1.05c-2.28.55-4.54,1.19-6.84,1.62-1,.2-1.08.59-1,1.46.35,2.63.67,5.27.86,7.91.13,1.91,0,3.84,0,5.76a27.72,27.72,0,0,0,.5,2.79,34.74,34.74,0,0,1,.72,5.24c0,1.39.24,1.81,1.69,1.48C101,240.76,103.37,240.25,105.73,239.74Z" />
        <path class="transparent"
            d="M68,231.61c.06,1.6-.1,1.81-1.73,2.23s-3.38.75-4.61,2.08c-.54.58-1,1.25-1.47,1.87a22,22,0,0,1-10.29,7.09l-.33-.22a4.89,4.89,0,0,1,.48-1.15,67.25,67.25,0,0,1,5.88-7.38,17.85,17.85,0,0,1,5.77-3.4,26.52,26.52,0,0,1,5.39-1.06C67.39,231.62,67.7,231.63,68,231.61Z" />
        <path class="color-shadow"
            d="M105.73,239.74c-2.36.51-4.72,1-7.08,1.55-1.45.33-1.69-.09-1.69-1.48a34.74,34.74,0,0,0-.72-5.24,27.72,27.72,0,0,1-.5-2.79c-.07-1.92.09-3.85,0-5.76-.19-2.64-.51-5.28-.86-7.91-.11-.87,0-1.26,1-1.46,2.3-.43,4.56-1.07,6.84-1.62l.48,2.64-7.61.9c.36,1.54.75,2.86,1,4.21.3,1.92.47,3.86.68,5.79.31,2.92.61,5.84.92,8.76,0,.16,0,.32,0,.48.13,2.09.12,2.09,2.17,1.42,1.74-.56,3.49-1.1,5.23-1.65Z" />
        <path class="transparent"
            d="M56.9,233.34c-.8.59-1.34,1-1.91,1.41-1.91,1.28-3.88,2.47-5.7,3.85a8,8,0,0,0-1.88,2.45c-.93,1.63-1.61,3.41-2.64,5a9.26,9.26,0,0,1-2.56,2.2c-.35.24-1,.13-1.68.21,1.12-1.86,2.11-3.43,3-5a19,19,0,0,0,1.42-3,7.41,7.41,0,0,1,2.69-3.57A17.13,17.13,0,0,1,56.9,233.34Z" />
        <path class="color-base"
            d="M104.57,216.24c.81,4.71,1.67,9.41,2.4,14.13.39,2.46.53,5,.79,7.45l-1.26.25c-.31-2.56-.6-5.13-.94-7.69-.52-3.95-1.07-7.88-1.59-11.83-.08-.59-.1-1.19-.15-1.78Z" />
        <path class="color-shadow-dark" d="M106.5,238.07l1.26-.25c0,1,.16,2,.13,3.06,0,.25-.47.49-.73.73l-.39-.17Z" />
        <path class="color-shadow-dark"
            d="M104.57,216.24l-.75.53c-.3-1.19-.64-2.37-.86-3.57-.06-.29.25-.65.4-1l.44.1C104.05,213.63,104.31,214.93,104.57,216.24Z" />
        <path class="color-shadow-dark" d="M218.39,197.63l-.52.05Z" />
        <path class="transparent" d="M58.85,221.06l.15.09s-.06.07-.08.07-.1-.05-.16-.07Z" />
        <path class="color-base"
            d="M514.5,423.94l-.62,1.17c.39.21.8.62,1.17.6a53.92,53.92,0,0,0,6.73-.76c1.15-.24,2.14-1.18,3.25-1.7a8.85,8.85,0,0,1,2.11-.62c.54-.1,1.12,0,1.66-.1,1.74-.35,3,.8,2.43,2.5-.76,2.21,0,4.17.56,6.15,1.27,4.19,3,8.28,3.84,12.54.67,3.46.28,7.12.34,10.69,0,1-.06,2-.1,3L512,462.52a4.58,4.58,0,0,1-.5-1c-.37-1.71-.59-3.45-1-5.13-.79-3-1.66-6-2.57-9-.52-1.71-1.22-3.35-1.77-5.05s-.14-3.58-1.43-5a1.11,1.11,0,0,1-.17-.45q-3.09-12-6.16-24c-.2-.81-.26-1.66-.45-2.84,2.45.4,4.59.59,6.64,1.13,4.76,1.26,9.45,2.78,14.21,4a15.8,15.8,0,0,0,4.35.07,1.16,1.16,0,0,0,.75-.66,3.21,3.21,0,0,0-.77-3.83c-1.38-1.21-2.73-2.44-4.16-3.58-3.61-2.88-7.92-4.19-12.3-5.3-3.22-1.35-6.45-2.69-9.66-4.06a14.33,14.33,0,0,1-1.62-1,25.8,25.8,0,0,0,.71-3,12.85,12.85,0,0,0-1-6.19,83,83,0,0,1-4.48-15.71c-.94-5.19-1.57-10.43-2.2-15.67-.57-4.76-1.06-9.54-1.41-14.33a68.82,68.82,0,0,0-1.85-10.78c-.83-3.51-1.44-7.08-2-10.64-.47-3-.76-6-1.12-9s-.84-6.06-1-9.11a68.49,68.49,0,0,1,.21-7.16c.13-2.34.26-4.69.5-7,.42-3.94,1-7.87,1.4-11.82a8.24,8.24,0,0,1,4.78-7c1.68-.82,3.41-1.57,5.16-2.22q7.33-2.71,14.71-5.31a1.21,1.21,0,0,1,1.08.47,17.51,17.51,0,0,1,1.36,3.3c1.07,3.87,2,7.77,3.05,11.65,1.28,4.72,2.5,9.47,3.95,14.14,2.26,7.3,4.68,14.55,7.07,21.81a96.64,96.64,0,0,1,4.4,20c.53,4.93.7,9.91,1,14.87l.21,5-.45,1,.21,2.37c-.08.33-.15.65-.23,1-.25,2.28-.42,4.58-.76,6.86q-1,6.59-2.12,13.16c-.56,3.16-1.32,6.29-1.82,9.47a16.62,16.62,0,0,0,.16,3.91c.21,2.25.43,4.51.73,6.75.38,2.87,2.23,5.07,3.59,7.49.63,1.1,1.35,2.16,2,3.26a3,3,0,0,1,.17.92c.08,2,.15,4,.22,6a27.43,27.43,0,0,0-9.42,3.72c-1.35.89-2.8,1.64-4.18,2.5a4.72,4.72,0,0,0-.81.95C516.27,422.89,515.39,423.42,514.5,423.94Z" />
        <path class="transparent"
            d="M516,526.65l1.23-1.92c-1.43,1-2.73,2-2.47,4.06,0,.26-.27.57-.42.86-.28-.2-.78-.36-.81-.58a9.85,9.85,0,0,1-.1-3.24,11.23,11.23,0,0,1,1.6-4c1.81-2.5,3.89-4.82,5.82-7.24a11.55,11.55,0,0,0,1.64-2.59c1.09-2.61,1.94-5.33,3.11-7.9.8-1.77.28-3.46.1-5.15-.2-1.88-.76-3.73-1.12-5.6a2.85,2.85,0,0,1,.07-1.36c1.27-4.19,2.61-8.36,3.87-12.55a15.2,15.2,0,0,0,.35-2.37l-.36-.08c-.12.27-.26.53-.36.81L524,490.22a12.74,12.74,0,0,0-.44,1.49,13.5,13.5,0,0,1-2.33,5.15c-2.16,3.17-4.12,6.46-6.17,9.7-.16.26-.34.51-.53.79-1.3-2.36-2.42-2.76-3.53-1.35.6.12,1.35.07,1.78.42a2.48,2.48,0,0,1,.49,2.89,12.92,12.92,0,0,1-1.75,3.11c-.55.76-1.24.61-1.45-.29a5.77,5.77,0,0,1-.17-2.57c1.35-5.88,2.84-11.73,4.2-17.61.95-4.09,2.33-8.11,2.21-12.4,0-1.67,0-3.33,0-5.21L527,472.8c1.7-.25,3.4-.46,5.1-.73.76-.11,1.07.1,1.13.92.2,3,.43,6,.74,9.05.49,4.87.7,9.78,2.14,14.52a3,3,0,0,1-.13,1.95q-4.23,9-8.59,17.92a4.8,4.8,0,0,1-1.13,1.38q-4.82,4.38-9.69,8.72a3.36,3.36,0,0,1-.43.31Z" />
        <path class="color-shadow"
            d="M506.59,401.76c4.38,1.11,8.69,2.42,12.3,5.3,1.43,1.14,2.78,2.37,4.16,3.58a3.21,3.21,0,0,1,.77,3.83,1.16,1.16,0,0,1-.75.66,15.8,15.8,0,0,1-4.35-.07c-4.76-1.23-9.45-2.75-14.21-4-2.05-.54-4.19-.73-6.64-1.13.19,1.18.25,2,.45,2.84q3.06,12,6.16,24a1.11,1.11,0,0,0,.17.45c1.29,1.45.9,3.37,1.43,5s1.25,3.34,1.77,5.05c.91,3,1.78,6,2.57,9,.44,1.68.66,3.42,1,5.13a4.58,4.58,0,0,0,.5,1l-1.26.31c-.24-1.16-.56-2.32-.71-3.5a31.27,31.27,0,0,0-3.55-10.93c-.92-1.66-1.68-3.4-2.59-5.07a2.73,2.73,0,0,1,.23-2.93,1.43,1.43,0,0,0,.11-1.07c-.84-2.09-1.55-4.27-3.36-5.82a2.36,2.36,0,0,1-.55-.77,15,15,0,0,1-1.6-7.15c.27-4-.51-7.91-1.14-11.84-.51-3.17-1-6.35-1.48-9.52l1.66,0a2,2,0,0,0,.66.36c1.4.2,2.82.36,4.23.55a43.94,43.94,0,0,1,10.2,3.13c1.46.59,3,1.05,4.46,1.56l.59.32a7.15,7.15,0,0,0-3.54-3.8c-1.52-.77-3.08-1.44-4.62-2.16-.68-.51-1.36-1-2-1.52C507.29,402.4,507,402.08,506.59,401.76Z" />
        <path class="color-base"
            d="M512.13,464.66l23.74-4.57v7.81c-.53.09-1.19.23-1.85.32-4.16.6-8.33,1.19-12.49,1.8-2.36.34-4.71.72-7.06,1.08-.84.13-1.4-.12-1.54-1C512.66,468.27,512.4,466.47,512.13,464.66Z" />
        <path class="color-shadow-dark"
            d="M496.05,404.23c.49,3.17,1,6.35,1.48,9.52.63,3.93,1.41,7.84,1.14,11.84a15,15,0,0,0,1.6,7.15,2.36,2.36,0,0,0,.55.77c1.81,1.55,2.52,3.73,3.36,5.82a1.43,1.43,0,0,1-.11,1.07,2.73,2.73,0,0,0-.23,2.93c.91,1.67,1.67,3.41,2.59,5.07A31.27,31.27,0,0,1,510,459.33c.15,1.18.47,2.34.71,3.5l-1.66.41c-.43-1.94-.87-3.83-1.25-5.72a22.55,22.55,0,0,0-3.27-8.82c-1.45-2-1.71-4.2-2-6.47a16,16,0,0,0-5.54-10,3.32,3.32,0,0,1-1.08-1.78,55.82,55.82,0,0,1-.6-6.05c-.14-3.47,0-6.95-.25-10.41-.2-2.93-.75-5.83-1.15-8.75-.06-.38-.15-.76-.27-1.31Z" />
        <path class="transparent"
            d="M523.29,496.9c.67,2.12,1.26,3.92,1.8,5.74a1.69,1.69,0,0,1-.18.91c-1.1,3-2.18,6-3.32,9a5.67,5.67,0,0,1-1.1,1.65c-1.56,1.76-3.16,3.47-4.75,5.21a2.36,2.36,0,0,1-.39.44l-8,4.84c-.63.39-.95.12-1.29-.49a3.23,3.23,0,0,1,.59-4.17,36.34,36.34,0,0,1,5.33-4,15,15,0,0,1,3.87-1.55,5,5,0,0,0,3.39-3.12,41.12,41.12,0,0,0,3.6-12.42A20,20,0,0,1,523.29,496.9Z" />
        <path class="color-shadow-dark"
            d="M512.13,464.66c.27,1.81.53,3.61.8,5.41.14.91.7,1.16,1.54,1,2.35-.36,4.7-.74,7.06-1.08,4.16-.61,8.33-1.2,12.49-1.8.66-.09,1.32-.23,1.85-.32v-7.81l2.14-.44c.12,2.76.26,5.45.35,8.16.07,1.74,0,1.64-1.73,1.88-3.36.45-6.7,1-10,1.56-4.37.69-8.75,1.36-13.11,2.08a1.87,1.87,0,0,1-2.36-1.6c-.56-2.12-1.12-4.24-1.73-6.53Z" />
        <path class="transparent"
            d="M522,496.89a21.9,21.9,0,0,1-2.3,11.52,40.82,40.82,0,0,1-1.78,3.78,3.39,3.39,0,0,1-1.55,1.12c-.8.34-1.74.4-2.48.81a4.77,4.77,0,0,1-4.42.21c-1.39-.58-2.85-1-4.24-1.61-1.07-.45-1.13-1.19-.22-1.94,1.12-.92,2.44-.83,3.8-.76.07,1.41.14,2.75,1.35,3.72.86.69,1.58.77,2.25-.14s1.28-2.2,2-3.28a2.16,2.16,0,0,1,.94-1,3.26,3.26,0,0,0,1.9-1.83c1-1.89,2.17-3.72,3.1-5.65a36.56,36.56,0,0,0,1.42-4.13Z" />
        <path class="color-shadow"
            d="M536.12,459.31l-12.89,2.43q-6.29,1.17-12.57,2.29c-.44.08-.89.1-1.34.14l-.06-.38,26.86-5.54Z" />
        <path class="color-shadow-dark"
            d="M517.26,409.86c-1.49-.51-3-1-4.46-1.56a43.94,43.94,0,0,0-10.2-3.13c-1.41-.19-2.83-.35-4.23-.55a2,2,0,0,1-.66-.36c2.26.19,4.54.21,6.76.6,3.13.55,6.23,1.29,9.31,2.11A5.11,5.11,0,0,1,517.26,409.86Z" />
        <path class="transparent" d="M515.36,508.18l4.14-7.63.41.21-4.14,7.69Z" />
        <path class="transparent"
            d="M509.49,508.71l-3.14.31a2,2,0,0,1,2.25-1.29C508.87,507.76,509.09,508.24,509.49,508.71Z" />
        <path class="color-shadow-dark" d="M536.12,459.31v-1.06l2.14-.45C538.27,459.67,536.87,459,536.12,459.31Z" />
        <path class="transparent" d="M515,474.88c-.06.8-.11,1.52-.15,2.25C514.05,475.26,514.05,475.26,515,474.88Z" />
        <path class="color-shadow"
            d="M529.66,348c-.33-5-.5-9.94-1-14.87a96.64,96.64,0,0,0-4.4-20c-2.39-7.26-4.81-14.51-7.07-21.81-1.45-4.67-2.67-9.42-3.95-14.14-1-3.88-2-7.78-3.05-11.65a17.51,17.51,0,0,0-1.36-3.3,1.21,1.21,0,0,0-1.08-.47q-7.38,2.6-14.71,5.31c-1.75.65-3.48,1.4-5.16,2.22a8.24,8.24,0,0,0-4.78,7c-.43,3.95-1,7.88-1.4,11.82-.24,2.33-.37,4.68-.5,7a68.49,68.49,0,0,0-.21,7.16c.18,3.05.66,6.07,1,9.11s.65,6,1.12,9c.57,3.56,1.18,7.13,2,10.64A68.82,68.82,0,0,1,487,341.83c.35,4.79.84,9.57,1.41,14.33.63,5.24,1.26,10.48,2.2,15.67a83,83,0,0,0,4.48,15.71,12.85,12.85,0,0,1,1,6.19,25.8,25.8,0,0,1-.71,3,6.67,6.67,0,0,1-1.58-.79,61.39,61.39,0,0,1-5.67-5.5,22.84,22.84,0,0,1-2.53-4.71,10.18,10.18,0,0,1-.59-7.2,4.86,4.86,0,0,0,.06-1.08c0-3,.08-6,0-9-.19-6.37-.46-12.74-.72-19.1-.12-2.94-.26-5.89-.48-8.82-.26-3.56-.6-7.12-.93-10.68-.31-3.31-.55-6.65-1-9.94s-1.05-6.35-1.75-9.48c-.76-3.37-1.82-6.67-2.54-10.05a14,14,0,0,1,0-4.13c.26-3,.62-6.07.92-9.11.32-3.2.65-6.39.93-9.59.14-1.55.09-3.11.31-4.64a5,5,0,0,1,1-2.31,16.35,16.35,0,0,1,5.59-4.21c3.37-1.74,6.6-3.78,10.07-5.24,3.25-1.36,6.75-2.12,10.13-3.15,1.41-.43,2.81-.88,4.36-1.37.52,2,.92,4.08,1.6,6.05,1.57,4.55,3.21,9.08,5,13.57,2.22,5.67,4.71,11.24,6.81,17a47.21,47.21,0,0,1,1.78,8.14c.56,3.16,1,6.34,1.42,9.52s.64,6.32,1,9.47c.29,2.44.68,4.87,1,7.31.23,1.77.54,3.53.64,5.31.16,2.95.23,5.9.25,8.85,0,1.82-.13,3.66-.25,5.48C530.09,347.53,529.82,347.76,529.66,348Z" />
        <path class="outline"
            d="M514.5,423.94c.89-.52,1.77-1.05,2.65-1.58,2.17-.79,4.35-1.53,6.5-2.36,2.68-1,5.33-2.16,8.25-2.27a3.32,3.32,0,0,1,1.6.3,1.18,1.18,0,0,1,.47,1,1.16,1.16,0,0,1-.94.62c-3.89-1-7.24.85-10.74,1.92C519.7,422.41,517.1,423.17,514.5,423.94Z" />
        <path class="color-shadow" d="M531.56,415.19c-.07-2-.14-4-.22-6,.24.13.55.21.7.41a13,13,0,0,1,2,5.2Z" />
        <path class="color-shadow" d="M529.42,354l.45-1Z" />
        <path class="color-shadow" d="M529.4,357.35c.08-.33.15-.65.23-1C529.55,356.7,529.48,357,529.4,357.35Z" />
        <path class="color-shadow"
            d="M278.83,200.38c.16,1.13.38,2.27.47,3.41.14,1.7.21,3.42.26,5.13.1,3.22.23,6.45.23,9.68s-.14,6.7-.23,10.05c-.07,2.63-.26,5.26-.22,7.89.11,6.65.3,13.31.47,20,.07,3,.16,6,.23,9,.09,3.47.31,6.95.2,10.41s-.58,6.64-.87,10c-.19,2.13-.39,4.27-.51,6.41-.13,2.39-.17,4.78-.26,7.17-.07,2.11-.17,4.22-.23,6.33,0,.81-.33.94-1.15.8a207.7,207.7,0,0,1-24.08-5.89c-9.94-3-19.84-6.16-29.48-10.08-2.17-.88-4.24-2-6.37-3-2.6-1.22-5.23-2.38-7.79-3.67-3.77-1.9-7.57-3.75-11.2-5.89a83.15,83.15,0,0,1-7.17-5.15,17.74,17.74,0,0,0-6-2.89c-2.65-.71-5.33-1.34-7.93-2.23a55.36,55.36,0,0,1-13.06-6.4c-2-1.38-4.31-2.41-6.36-3.76a37.63,37.63,0,0,1-9.69-9.07A34.9,34.9,0,0,1,143,238.09c-.94-2.94-3.18-4.46-6-5.28l-.91-.28c.84-2.16,2.26-2.54,4.05-1.45a32.63,32.63,0,0,1,11.08,11,79.18,79.18,0,0,0,10.33,14.15,18.93,18.93,0,0,0,7.86,4.65,155.11,155.11,0,0,1,19.25,7.81c4.8,2.34,9.69,4.5,14.51,6.81,3.71,1.77,7.24,4,11.06,5.43,6.11,2.3,12.35,4.23,18.6,6.1,5.22,1.56,10.53,2.84,15.8,4.21,5.42,1.42,10.85,2.8,16.28,4.23,1.64.43,3.26,1,5.06,1.5.27-2,.54-3.8.77-5.64.56-4.49,1.13-9,1.64-13.47.38-3.23.66-6.47,1-9.71.37-3.55.79-7.1,1.15-10.65.21-2.09.34-4.19.52-6.29.31-3.52.63-7,.93-10.56.11-1.23.2-2.46.26-3.69.18-3.18.33-6.36.5-9.54.23-4.52.44-9.06.73-13.58.27-4.24.62-8.48,1-12.72C278.4,200.84,278.68,200.61,278.83,200.38Z" />
        <path class="color-shadow-dark"
            d="M186.89,236.39a5.17,5.17,0,0,1-.82-1.07c-1.66-3.81-3.3-7.61-4.91-11.43-1.09-2.61-2.09-5.26-3.22-7.86a29.81,29.81,0,0,0-5.91-8.35,5.23,5.23,0,0,1-.92-1.37,1.38,1.38,0,0,1,1.11-1.83c1-.16,3.28,1.37,3.62,2.46-1,.28-.32.71-.07,1,.76,1,1.66,2,2.33,3a61.9,61.9,0,0,1,7.15,17.2C185.94,230.9,186.35,233.66,186.89,236.39Z" />
        <path class="outline"
            d="M186.89,236.39c-.54-2.73-.95-5.49-1.64-8.18A61.9,61.9,0,0,0,178.1,211c-.67-1.08-1.57-2-2.33-3-.25-.33-.88-.76.07-1,5.41,5,8.06,11.58,9.77,18.47a132,132,0,0,1,2.93,17c.39,3.42-.1,7-.21,10.43,0,.1-.1.2-.26.47.1-2,.29-3.86.25-5.7a49.91,49.91,0,0,0-.44-5.59C187.63,240.14,187.23,238.27,186.89,236.39Z" />
    </g>
</svg>
